<?xml version="1.0" encoding="utf-8"?>
<!-- Generator: Adobe Illustrator 16.0.0, SVG Export Plug-In . SVG Version: 6.00 Build 0)  -->
<!DOCTYPE svg PUBLIC "-//W3C//DTD SVG 1.1//EN" "http://www.w3.org/Graphics/SVG/1.1/DTD/svg11.dtd">
<svg version="1.1" xmlns="http://www.w3.org/2000/svg" xmlns:xlink="http://www.w3.org/1999/xlink" x="0px" y="0px" width="623px"
	 height="384.549px" viewBox="0 0 623 384.549" enable-background="new 0 0 623 384.549" xml:space="preserve">
<g id="Layer_1">
	<path fill="#00848F" d="M81.551,192.153c0-0.055,0.002-0.109,0.002-0.165H15.359c0,0.056-0.002,0.11-0.002,0.165
		c0,98.673,79.821,178.699,178.415,179.042V305C131.736,304.658,81.551,254.268,81.551,192.153z"/>
	<g>
		<path fill="#009CE1" d="M373.455,191.988H307.26c0,0.056,0.003,0.11,0.003,0.165c0,62.328-50.527,112.855-112.856,112.855
			c-0.212,0-0.423-0.006-0.635-0.008v66.195c0.212,0,0.423,0.008,0.635,0.008c98.886,0,179.05-80.164,179.05-179.05
			C373.457,192.098,373.455,192.043,373.455,191.988z"/>
		<polygon fill="#009CE1" points="194.108,384.307 194.108,288.633 154.671,336.471 		"/>
	</g>
	<path fill="#00848F" d="M194.407,79.297c62.273,0,112.764,50.438,112.853,112.69h66.195
		c-0.09-98.811-80.217-178.884-179.048-178.884c-0.212,0-0.423,0.007-0.635,0.008v66.194
		C193.983,79.304,194.194,79.297,194.407,79.297z"/>
	<polygon fill="#00848F" points="386.56,191.75 290.885,191.75 338.723,231.188 	"/>
	<g>
		<path fill="#009CE1" d="M15.359,191.988h66.194c0.089-62.04,50.238-112.34,112.218-112.682V13.111
			C95.233,13.454,15.449,93.39,15.359,191.988z"/>
		<polygon fill="#009CE1" points="194.002,0 194.002,95.675 233.439,47.837 		"/>
	</g>
	<polygon fill="#00848F" points="2.252,191.856 97.926,191.856 50.088,152.42 	"/>
</g>
<g id="Layer_5">
	<g>
		<g>
			<g>
				<path fill="#FFFFFF" d="M62.438,146.216l-0.964-1.412c0.785-0.338,1.604-1.013,2.012-2.099c0.348-0.934,0.1-1.524-0.361-1.697
					c-1.368-0.513-2.112,4.378-5.074,3.267c-1.312-0.49-1.972-2.031-1.277-3.884c0.469-1.251,1.236-2.148,2.249-2.657l0.9,1.401
					c-0.829,0.416-1.418,1.164-1.719,1.967c-0.267,0.708-0.109,1.225,0.362,1.401c1.239,0.465,2.096-4.37,5.035-3.269
					c1.439,0.54,2.136,1.985,1.345,4.099C64.375,144.855,63.46,145.751,62.438,146.216z"/>
				<path fill="#FFFFFF" d="M67.179,137.371l-6.258-2.729l-0.981,2.251l-1.444-0.63l2.681-6.142l1.441,0.63l-0.976,2.239l6.257,2.73
					L67.179,137.371z"/>
				<path fill="#FFFFFF" d="M69.37,132.526l-7.563-3.662l0.778-1.61l7.565,3.661L69.37,132.526z"/>
				<path fill="#FFFFFF" d="M66.93,127.846c-2.338-1.264-2.863-3.84-1.69-6.011c0.828-1.529,2.125-2.073,3.299-2.154l0.008,1.68
					c-0.706,0.062-1.49,0.454-1.91,1.229c-0.73,1.352-0.229,2.884,1.168,3.639c1.396,0.755,2.954,0.337,3.684-1.015
					c0.354-0.654,0.396-1.419,0.28-1.868l-0.886-0.479l-1.055,1.95l-1.374-0.743l1.905-3.523l2.837,1.534
					c0.435,1.208,0.407,2.555-0.312,3.884C71.71,128.141,69.255,129.104,66.93,127.846z"/>
				<path fill="#FFFFFF" d="M78.982,115.504l-5.111-3.253l3.841,5.25l-0.42,0.658l-6.381-1.254l5.11,3.252l-0.96,1.509l-7.087-4.51
					l1.345-2.114l5.526,1.098l-3.335-4.54l1.352-2.125l7.088,4.509L78.982,115.504z"/>
				<path fill="#FFFFFF" d="M84.282,108.075l-1.46-0.42l-2.138,2.9l0.832,1.271l-1.203,1.633l-4.842-7.593l1.331-1.804l8.684,2.381
					L84.282,108.075z M77.576,106.025l2.133,3.2l1.555-2.108L77.576,106.025z"/>
				<path fill="#FFFFFF" d="M91.756,99.12l-1.42-0.542l-2.377,2.707l0.719,1.337l-1.339,1.523l-4.174-7.979l1.48-1.685l8.449,3.115
					L91.756,99.12z M85.249,96.505l1.852,3.371l1.729-1.969L85.249,96.505z"/>
				<path fill="#FFFFFF" d="M97.635,93.027l-6.713-1.028l3.884,3.869l-1.263,1.269l-5.957-5.933l1.298-1.305l6.492,0.967
					l-3.744-3.728l1.264-1.268l5.958,5.934L97.635,93.027z"/>
				<path fill="#FFFFFF" d="M99.96,90.772l-5.554-6.307l2.486-2.189c1.976-1.74,4.455-1.69,6.121,0.201
					c1.681,1.909,1.409,4.364-0.558,6.097L99.96,90.772z M101.643,83.685c-0.976-1.106-2.414-1.367-3.7-0.235l-1.152,1.017
					l3.471,3.941l1.145-1.007C102.653,86.302,102.591,84.763,101.643,83.685z"/>
				<path fill="#FFFFFF" d="M109.212,82.919l-5.031-6.734l4.766-3.56l0.943,1.262l-3.331,2.489l1.056,1.413l3.261-2.437l0.942,1.263
					l-3.261,2.437l1.146,1.534l3.332-2.488l0.942,1.262L109.212,82.919z"/>
				<path fill="#FFFFFF" d="M119.571,75.605l-3.451-1.402l-0.067,3.732l-1.775,1.177l0.163-5.277L109.794,72l1.775-1.176
					l3.193,1.331l0.001-3.446l1.796-1.189l-0.13,4.983l4.928,1.92L119.571,75.605z"/>
				<path fill="#FFFFFF" d="M119.484,70.655c-1.3-2.245-0.488-4.738,1.703-6.007c1.591-0.922,3.016-0.598,4.059,0.021l-0.951,1.425
					c-0.646-0.412-1.571-0.501-2.312-0.072c-1.33,0.771-1.702,2.339-0.906,3.712c0.795,1.373,2.342,1.832,3.671,1.062
					c0.741-0.429,1.124-1.276,1.089-2.042l1.701-0.127c0.012,1.201-0.402,2.62-1.994,3.542
					C123.352,73.438,120.779,72.89,119.484,70.655z"/>
				<path fill="#FFFFFF" d="M129.288,69.896l-3.822-7.49l1.604-0.818l3.106,6.086l3.166-1.616l0.716,1.403L129.288,69.896z"/>
				<path fill="#FFFFFF" d="M133.668,63.894l-2.037-4.611l1.661-0.733l2.016,4.565c0.474,1.072,1.422,1.535,2.61,1.011
					c1.187-0.524,1.473-1.532,0.999-2.604l-2.017-4.565l1.671-0.739l2.038,4.612c0.84,1.902,0.291,3.716-2.051,4.75
					C136.218,66.611,134.508,65.796,133.668,63.894z"/>
				<path fill="#FFFFFF" d="M142.441,62.441l0.433-1.653c0.771,0.372,1.816,0.547,2.901,0.143c0.934-0.348,1.216-0.924,1.045-1.384
					c-0.512-1.369-4.687,1.275-5.791-1.687c-0.487-1.311,0.241-2.818,2.094-3.509c1.251-0.466,2.43-0.476,3.478-0.046l-0.467,1.599
					c-0.857-0.353-1.808-0.308-2.611-0.009c-0.707,0.265-0.994,0.721-0.818,1.192c0.462,1.239,4.67-1.283,5.765,1.655
					c0.537,1.44-0.097,2.913-2.209,3.7C144.737,63.011,143.461,62.908,142.441,62.441z"/>
				<path fill="#FFFFFF" d="M150.427,60.805l-2.624-7.984l1.701-0.56l2.623,7.985L150.427,60.805z"/>
				<path fill="#FFFFFF" d="M152.098,55.789c-0.679-2.44,0.618-4.684,3.07-5.366c2.438-0.678,4.709,0.573,5.389,3.013
					c0.677,2.439-0.621,4.683-3.06,5.361C155.046,59.479,152.775,58.228,152.098,55.789z M158.784,53.929
					c-0.422-1.518-1.699-2.392-3.191-1.977c-1.504,0.419-2.146,1.826-1.724,3.344c0.419,1.505,1.698,2.391,3.203,1.972
					C158.564,56.853,159.203,55.433,158.784,53.929z"/>
				<path fill="#FFFFFF" d="M168.438,56.064l-5.038-4.558l1.112,5.37l-1.753,0.362l-1.705-8.233l1.804-0.373l4.885,4.382
					l-1.071-5.173l1.753-0.362l1.704,8.234L168.438,56.064z"/>
			</g>
		</g>
		<g>
			<g>
				<path fill="#FFFFFF" d="M51.96,141.771l-7.852-2.98l1.175-3.096c0.934-2.461,3.147-3.574,5.502-2.681
					c2.378,0.903,3.284,3.2,2.355,5.649L51.96,141.771z M50.137,134.721c-1.376-0.523-2.77-0.082-3.378,1.519l-0.544,1.437
					l4.908,1.864l0.542-1.425C52.254,136.562,51.479,135.23,50.137,134.721z"/>
				<path fill="#FFFFFF" d="M55.22,133.445l-7.732-3.308l0.704-1.646l7.732,3.307L55.22,133.445z"/>
				<path fill="#FFFFFF" d="M55.231,130.335l-0.847-1.484c0.811-0.272,1.681-0.88,2.175-1.928c0.424-0.9,0.224-1.51-0.221-1.719
					c-1.322-0.623-2.461,4.188-5.321,2.841c-1.265-0.595-1.799-2.184-0.955-3.973c0.568-1.208,1.404-2.039,2.455-2.464l0.784,1.469
					c-0.859,0.347-1.509,1.044-1.873,1.82c-0.322,0.684-0.209,1.211,0.248,1.425c1.196,0.564,2.441-4.183,5.281-2.846
					c1.39,0.655,1.967,2.151,1.005,4.191C57.271,129.138,56.287,129.956,55.231,130.335z"/>
				<path fill="#FFFFFF" d="M62.494,118.481l-1.505-0.208l-1.707,3.173l1.003,1.141l-0.961,1.786l-5.866-6.833l1.062-1.975
					l8.934,1.129L62.494,118.481z M55.564,117.4l2.563,2.867l1.241-2.308L55.564,117.4z"/>
				<path fill="#FFFFFF" d="M63.8,116.148l-7.166-4.385l2.308-3.771c0.834-1.365,2.133-1.53,3.089-0.945
					c0.892,0.546,1.162,1.479,0.887,2.241c0.592-0.701,1.701-0.849,2.593-0.304c1.086,0.664,1.511,1.899,0.67,3.274L63.8,116.148z
					 M61.345,108.769c-0.439-0.27-0.949-0.137-1.265,0.378l-1.17,1.913l1.505,0.92l1.17-1.912
					C61.9,109.552,61.807,109.052,61.345,108.769z M64.342,110.412c-0.45-0.276-1.014-0.178-1.375,0.413l-1.21,1.977l1.634,1
					l1.209-1.978C64.948,111.254,64.858,110.727,64.342,110.412z"/>
				<path fill="#FFFFFF" d="M68.178,109.137l-6.995-4.657l0.992-1.489l6.994,4.657L68.178,109.137z"/>
				<path fill="#FFFFFF" d="M70.011,106.385l-6.835-4.881l1.046-1.465l5.555,3.965l2.062-2.89l1.281,0.914L70.011,106.385z"/>
				<path fill="#FFFFFF" d="M73.836,101.118l-6.676-5.103l1.087-1.421l6.676,5.104L73.836,101.118z"/>
				<path fill="#FFFFFF" d="M77.109,96.943l-5.276-4.341L70.271,94.5l-1.216-1l4.261-5.178l1.217,1l-1.556,1.888l5.277,4.341
					L77.109,96.943z"/>
				<path fill="#FFFFFF" d="M82.074,91.141l-2.543-2.317l-5.846-0.959l1.376-1.51l3.888,0.729l-1.087-3.804l1.367-1.501l1.507,5.721
					l2.544,2.317L82.074,91.141z"/>
				<path fill="#FFFFFF" d="M87.607,87.778l-0.89,0.097c0.13-0.438,0.079-1.141-0.166-1.521c-0.016,0.035-0.069,0.125-0.14,0.196
					c-0.336,0.342-0.87,0.346-1.248-0.024c-0.395-0.389-0.399-1.03-0.021-1.417c0.416-0.421,1.118-0.472,1.702,0.102
					C87.52,85.872,87.76,86.832,87.607,87.778z"/>
				<path fill="#FFFFFF" d="M95.854,77.65l-4.034-4.525l2.267,6.102l-0.584,0.52l-5.803-2.948l4.034,4.525l-1.336,1.191
					l-5.595-6.275l1.872-1.669l5.021,2.564l-1.973-5.283l1.881-1.677l5.596,6.275L95.854,77.65z"/>
				<path fill="#FFFFFF" d="M98.413,75.5l-5.214-6.591l4.664-3.69l0.977,1.236l-3.26,2.579l1.094,1.384l3.191-2.525l0.978,1.235
					l-3.192,2.525l1.189,1.502l3.261-2.58l0.977,1.235L98.413,75.5z"/>
				<path fill="#FFFFFF" d="M104.095,71.033l-4.855-6.86l2.704-1.914c2.149-1.522,4.609-1.209,6.065,0.848
					c1.47,2.077,0.94,4.49-1.198,6.004L104.095,71.033z M106.518,64.162c-0.853-1.204-2.255-1.616-3.652-0.625l-1.256,0.888
					l3.036,4.289l1.244-0.881C107.247,66.872,107.347,65.334,106.518,64.162z"/>
				<path fill="#FFFFFF" d="M111.468,65.925l-4.567-7.052l1.501-0.972l4.567,7.051L111.468,65.925z"/>
				<path fill="#FFFFFF" d="M111.795,60.67c-1.325-2.231-0.542-4.735,1.636-6.03c1.581-0.94,3.011-0.631,4.062-0.024l-0.937,1.436
					c-0.651-0.405-1.577-0.484-2.313-0.046c-1.322,0.786-1.677,2.36-0.865,3.725c0.811,1.365,2.364,1.806,3.686,1.021
					c0.737-0.438,1.109-1.291,1.065-2.055l1.701-0.147c0.026,1.202-0.374,2.627-1.956,3.567
					C115.696,63.411,113.114,62.892,111.795,60.67z"/>
				<path fill="#FFFFFF" d="M126.778,57.077l-1.127-1.018l-3.195,1.665l0.188,1.507l-1.798,0.938l-1.013-8.948l1.989-1.036
					l6.754,5.954L126.778,57.077z M121.655,52.29l0.509,3.812l2.324-1.211L121.655,52.29z"/>
				<path fill="#FFFFFF" d="M129.145,55.918l-3.517-7.633l1.637-0.753l2.856,6.203l3.228-1.486l0.659,1.431L129.145,55.918z"/>
				<path fill="#FFFFFF" d="M136.117,48.216c-0.916-2.43,0.294-4.758,2.664-5.652c1.722-0.648,3.076-0.096,4.004,0.687l-1.173,1.25
					c-0.57-0.512-1.47-0.753-2.271-0.45c-1.438,0.543-2.063,2.03-1.504,3.517c0.561,1.485,2.013,2.191,3.451,1.649
					c0.803-0.302,1.319-1.076,1.408-1.838l1.701,0.154c-0.186,1.188-0.827,2.521-2.55,3.17
					C139.479,51.595,137.028,50.633,136.117,48.216z"/>
				<path fill="#FFFFFF" d="M144.335,45.137c-0.75-2.417,0.481-4.698,2.911-5.451c2.418-0.75,4.722,0.434,5.473,2.852
					c0.749,2.417-0.481,4.697-2.899,5.447C147.39,48.738,145.085,47.554,144.335,45.137z M150.961,43.082
					c-0.465-1.504-1.766-2.339-3.245-1.881c-1.491,0.463-2.091,1.889-1.625,3.392c0.463,1.491,1.768,2.339,3.259,1.877
					C150.828,46.01,151.425,44.574,150.961,43.082z"/>
				<path fill="#FFFFFF" d="M154.215,45.264l0.615-1.595c0.725,0.456,1.745,0.746,2.87,0.465c0.965-0.241,1.311-0.783,1.192-1.259
					c-0.354-1.418-4.802,0.744-5.568-2.324c-0.339-1.357,0.554-2.774,2.473-3.254c1.296-0.323,2.469-0.201,3.462,0.343l-0.642,1.538
					c-0.812-0.446-1.763-0.508-2.595-0.3c-0.732,0.183-1.07,0.605-0.947,1.094c0.321,1.283,4.786-0.754,5.546,2.29
					c0.372,1.491-0.422,2.885-2.61,3.431C156.435,46.086,155.178,45.842,154.215,45.264z"/>
				<path fill="#FFFFFF" d="M164.196,44.131l-1.33-6.7l-2.411,0.479l-0.307-1.545l6.576-1.306l0.308,1.545l-2.399,0.476l1.331,6.7
					L164.196,44.131z"/>
				<path fill="#FFFFFF" d="M168.651,42.047l0.767-1.527c0.677,0.523,1.664,0.912,2.811,0.742c0.985-0.146,1.382-0.65,1.31-1.138
					c-0.214-1.445-4.852,0.274-5.314-2.854c-0.206-1.383,0.82-2.708,2.777-2.999c1.321-0.196,2.478,0.041,3.413,0.679l-0.789,1.467
					c-0.766-0.524-1.705-0.677-2.553-0.552c-0.748,0.111-1.124,0.498-1.05,0.996c0.194,1.309,4.837-0.283,5.298,2.82
					c0.225,1.52-0.702,2.83-2.933,3.16C170.779,43.082,169.553,42.716,168.651,42.047z"/>
				<path fill="#FFFFFF" d="M177.573,43.756l-0.752-0.487c0.377-0.257,0.78-0.836,0.832-1.286c-0.036,0.018-0.134,0.054-0.234,0.064
					c-0.476,0.054-0.895-0.279-0.952-0.806c-0.062-0.552,0.337-1.054,0.876-1.114c0.589-0.065,1.167,0.338,1.259,1.153
					C178.707,42.22,178.287,43.117,177.573,43.756z"/>
			</g>
		</g>
	</g>
</g>
<g id="Layer_2">
	<g>
		<g>
			<g>
				<path fill="#FFFFFF" d="M243.362,62.583l2.444-6.379l-2.295-0.879l0.563-1.472l6.26,2.399l-0.562,1.471l-2.283-0.875
					l-2.443,6.379L243.362,62.583z"/>
				<path fill="#FFFFFF" d="M249.657,60.502c1.05-2.304,3.486-3.188,5.803-2.134c2.304,1.049,3.237,3.467,2.188,5.772
					c-1.05,2.305-3.486,3.188-5.791,2.139C249.542,65.225,248.608,62.807,249.657,60.502z M255.974,63.378
					c0.652-1.433,0.238-2.923-1.173-3.565c-1.421-0.646-2.817,0.018-3.47,1.452c-0.647,1.422-0.238,2.923,1.185,3.571
					C253.925,65.476,255.327,64.8,255.974,63.378z"/>
				<path fill="#FFFFFF" d="M259.73,69.95l4.133-7.316l3.851,2.175c1.392,0.786,1.604,2.078,1.053,3.054
					c-0.515,0.911-1.438,1.214-2.21,0.966c0.722,0.566,0.909,1.671,0.394,2.581c-0.625,1.108-1.846,1.577-3.249,0.784L259.73,69.95z
					 M265.483,70.292c0.261-0.461,0.143-1.02-0.461-1.361l-2.018-1.14l-0.941,1.667l2.018,1.14
					C264.662,70.927,265.187,70.818,265.483,70.292z M267.021,67.239c0.254-0.449,0.105-0.953-0.421-1.251l-1.952-1.103
					l-0.868,1.535l1.952,1.103C266.258,67.821,266.755,67.71,267.021,67.239z"/>
				<path fill="#FFFFFF" d="M271.743,77.194l0.33-1.482l-3.022-1.959l-1.218,0.906l-1.701-1.103l7.285-5.289l1.881,1.22l-1.854,8.81
					L271.743,77.194z M273.385,70.378l-3.065,2.321l2.197,1.425L273.385,70.378z"/>
				<path fill="#FFFFFF" d="M274.197,77.409l1.621-0.546c0.112,0.848,0.541,1.819,1.476,2.505c0.804,0.589,1.439,0.509,1.732,0.113
					c0.864-1.179-3.644-3.219-1.771-5.771c0.826-1.128,2.488-1.347,4.085-0.176c1.077,0.79,1.732,1.771,1.948,2.884l-1.593,0.488
					c-0.177-0.911-0.736-1.682-1.428-2.188c-0.609-0.447-1.148-0.437-1.447-0.03c-0.783,1.067,3.639,3.202,1.781,5.732
					c-0.909,1.24-2.49,1.519-4.309,0.184C274.982,79.641,274.368,78.518,274.197,77.409z"/>
				<path fill="#FFFFFF" d="M279.931,83.175l5.237-6.577l1.4,1.115l-5.238,6.577L279.931,83.175z"/>
				<path fill="#FFFFFF" d="M285.021,81.82c1.703-1.958,4.326-1.998,6.236-0.336c1.387,1.207,1.542,2.66,1.295,3.848l-1.656-0.439
					c0.18-0.745-0.034-1.649-0.681-2.211c-1.159-1.009-2.765-0.853-3.807,0.346c-1.041,1.197-0.974,2.809,0.186,3.817
					c0.646,0.562,1.572,0.649,2.285,0.368l0.671,1.569c-1.132,0.401-2.61,0.468-3.997-0.74
					C283.642,86.38,283.326,83.768,285.021,81.82z"/>
				<path fill="#FFFFFF" d="M295.721,97.696l3.166-5.041l-5.188,2.914l-1.31-1.378l4.432-7.531l1.38,1.452l-3.385,5.25l5.501-3.022
					l0.964,1.013l-3.307,5.332l5.415-3.113l1.379,1.451l-7.737,4.053L295.721,97.696z"/>
				<path fill="#FFFFFF" d="M302.764,105.862l0.764-1.314l-2.29-2.783l-1.436,0.496l-1.29-1.567l8.55-2.838l1.425,1.731
					l-4.434,7.841L302.764,105.862z M306.392,99.858l-3.626,1.285l1.665,2.024L306.392,99.858z"/>
				<path fill="#FFFFFF" d="M305.05,106.818l1.709-0.033c-0.148,0.843-0.033,1.897,0.65,2.833c0.588,0.803,1.22,0.919,1.616,0.629
					c1.181-0.862-2.501-4.166,0.053-6.033c1.129-0.826,2.778-0.533,3.946,1.063c0.789,1.078,1.117,2.211,0.989,3.337l-1.667-0.016
					c0.107-0.921-0.195-1.824-0.7-2.517c-0.447-0.61-0.963-0.763-1.37-0.465c-1.068,0.781,2.503,4.148-0.029,6.001
					c-1.242,0.907-2.832,0.697-4.164-1.124C305.124,109.183,304.876,107.926,305.05,106.818z"/>
				<path fill="#FFFFFF" d="M311.917,118.841l2.978-1.914l-2.146-3.338l-2.977,1.914l-0.968-1.505l7.067-4.544l0.968,1.505
					l-2.776,1.785l2.146,3.338l2.777-1.785l0.975,1.516l-7.068,4.544L311.917,118.841z"/>
			</g>
		</g>
		<g>
			<g>
				<path fill="#FFFFFF" d="M246.004,50.16l3.02-7.845l3.67,1.412c1.706,0.657,2.191,2.167,1.661,3.543
					c-0.524,1.364-1.91,2.155-3.604,1.503l-1.999-0.77l-1.077,2.799L246.004,50.16z M252.65,46.614
					c0.253-0.659-0.099-1.253-0.758-1.507l-1.765-0.679l-0.81,2.105l1.763,0.679C251.741,47.467,252.399,47.261,252.65,46.614z"/>
				<path fill="#FFFFFF" d="M254.59,48.974c1.044-2.309,3.479-3.198,5.8-2.148c2.308,1.045,3.248,3.462,2.203,5.771
					c-1.045,2.308-3.481,3.197-5.789,2.152C254.484,53.698,253.545,51.281,254.59,48.974z M260.916,51.837
					c0.649-1.436,0.23-2.926-1.181-3.564c-1.425-0.646-2.82,0.024-3.47,1.459c-0.646,1.424-0.231,2.926,1.192,3.57
					C258.871,53.94,260.271,53.261,260.916,51.837z"/>
				<path fill="#FFFFFF" d="M263.942,58.034l1.05-8.949l1.795,0.945l-0.94,6.797l5.068-4.626l1.796,0.945l-6.782,5.933
					L263.942,58.034z"/>
				<path fill="#FFFFFF" d="M269.357,60.953l4.299-7.218l5.107,3.043l-0.806,1.353l-3.571-2.128l-0.902,1.515l3.496,2.083
					l-0.806,1.353l-3.496-2.083l-0.979,1.646l3.57,2.127l-0.806,1.353L269.357,60.953z"/>
				<path fill="#FFFFFF" d="M279.515,67.321l0.283-3.398l-1.089-0.728l-1.657,2.484l-1.487-0.993l4.661-6.989l3.271,2.181
					c1.455,0.972,1.721,2.526,0.854,3.825c-0.817,1.227-2.052,1.372-2.924,1.048l-0.193,3.717L279.515,67.321z M282.828,62.672
					c0.384-0.576,0.171-1.232-0.417-1.624L280.841,60l-1.258,1.886l1.571,1.049C281.741,63.325,282.429,63.27,282.828,62.672z"/>
				<path fill="#FFFFFF" d="M283.722,70.306l4.07-5.481l-1.971-1.464l0.938-1.265l5.379,3.996l-0.938,1.264l-1.963-1.457l-4.07,5.48
					L283.722,70.306z"/>
				<path fill="#FFFFFF" d="M289.764,74.977l2.187-2.653l0.668-5.88l1.575,1.298l-0.535,3.916l3.741-1.272l1.564,1.289l-5.633,1.787
					l-2.186,2.652L289.764,74.977z"/>
				<path fill="#FFFFFF" d="M293.395,80.333l-0.142-0.885c0.443,0.108,1.145,0.022,1.514-0.24c-0.038-0.016-0.13-0.064-0.205-0.132
					c-0.358-0.317-0.39-0.852-0.037-1.247c0.368-0.415,1.01-0.452,1.414-0.093c0.442,0.394,0.528,1.095-0.016,1.707
					C295.295,80.149,294.347,80.438,293.395,80.333z"/>
				<path fill="#FFFFFF" d="M298.801,82.923l5.934-5.955l2.784,2.776c1.295,1.289,1.128,2.867,0.089,3.912
					c-1.032,1.035-2.618,1.198-3.904-0.083l-1.518-1.512l-2.116,2.125L298.801,82.923z M306.312,82.366
					c0.498-0.501,0.417-1.187-0.084-1.685l-1.339-1.334l-1.592,1.598l1.339,1.335C305.136,82.778,305.823,82.857,306.312,82.366z"/>
				<path fill="#FFFFFF" d="M307.122,85.306c1.888-1.688,4.474-1.516,6.17,0.381c1.687,1.888,1.567,4.477-0.32,6.164
					c-1.888,1.687-4.473,1.516-6.16-0.372C305.116,89.582,305.234,86.992,307.122,85.306z M311.747,90.479
					c1.173-1.05,1.394-2.58,0.36-3.734c-1.04-1.165-2.586-1.118-3.76-0.068c-1.165,1.04-1.394,2.58-0.353,3.744
					C309.028,91.576,310.583,91.521,311.747,90.479z"/>
				<path fill="#FFFFFF" d="M313.614,92.61c1.99-1.566,4.561-1.233,6.135,0.767c1.566,1.989,1.286,4.567-0.704,6.134
					c-1.989,1.566-4.56,1.232-6.127-0.757C311.344,96.754,311.624,94.177,313.614,92.61z M317.908,98.064
					c1.237-0.974,1.553-2.488,0.594-3.706c-0.966-1.227-2.513-1.276-3.75-0.303c-1.229,0.967-1.553,2.488-0.586,3.717
					C315.124,98.989,316.681,99.031,317.908,98.064z"/>
				<path fill="#FFFFFF" d="M319.106,106.922l1.504-3.063l-0.75-1.074l-2.448,1.709l-1.024-1.468l6.894-4.81l2.25,3.225
					c1.002,1.437,0.681,2.981-0.601,3.875c-1.209,0.845-2.411,0.531-3.105-0.091l-1.537,3.393L319.106,106.922z M323.889,103.8
					c0.568-0.396,0.609-1.086,0.206-1.665l-1.082-1.55l-1.859,1.298l1.081,1.55C322.64,104.012,323.3,104.211,323.889,103.8z"/>
				<path fill="#FFFFFF" d="M325.601,117.288l0.956-1.18l-1.833-3.101l-1.494,0.269l-1.03-1.744l8.876-1.488l1.141,1.93l-5.584,7.06
					L325.601,117.288z M330.106,111.919l-3.778,0.711l1.333,2.255L330.106,111.919z"/>
				<path fill="#FFFFFF" d="M330.479,117.344c2.306-1.194,4.759-0.266,5.925,1.983c0.847,1.634,0.455,3.043-0.212,4.056
					l-1.378-1.017c0.44-0.627,0.574-1.548,0.181-2.309c-0.708-1.365-2.26-1.811-3.669-1.08c-1.41,0.73-1.94,2.256-1.232,3.62
					c0.394,0.761,1.223,1.183,1.99,1.184l0.046,1.707c-1.2-0.045-2.599-0.526-3.446-2.16
					C327.517,121.079,328.185,118.533,330.479,117.344z"/>
				<path fill="#FFFFFF" d="M334.487,125.143c2.367-1.062,4.765,0.004,5.802,2.315c0.752,1.679,0.282,3.063-0.442,4.036
					l-1.318-1.093c0.477-0.601,0.662-1.512,0.311-2.294c-0.628-1.403-2.151-1.936-3.6-1.286c-1.449,0.649-2.065,2.141-1.437,3.543
					c0.351,0.782,1.155,1.251,1.919,1.295l-0.049,1.707c-1.196-0.113-2.566-0.673-3.319-2.353
					C331.317,128.703,332.129,126.199,334.487,125.143z"/>
				<path fill="#FFFFFF" d="M334.266,135.042l7.832-3.04l2.151,5.542l-1.468,0.569l-1.504-3.875l-1.644,0.639l1.471,3.793
					l-1.467,0.569l-1.473-3.793l-1.785,0.693l1.505,3.875l-1.469,0.569L334.266,135.042z"/>
				<path fill="#FFFFFF" d="M337.794,140.895l1.637,0.491c-0.398,0.758-0.611,1.797-0.246,2.896c0.313,0.944,0.88,1.248,1.346,1.094
					c1.386-0.461-1.106-4.73,1.895-5.727c1.327-0.44,2.809,0.342,3.431,2.219c0.421,1.268,0.389,2.446-0.08,3.478l-1.581-0.523
					c0.385-0.844,0.374-1.796,0.104-2.609c-0.237-0.718-0.684-1.021-1.161-0.861c-1.256,0.417,1.113,4.714-1.864,5.702
					c-1.458,0.484-2.907-0.203-3.618-2.343C337.144,143.169,337.292,141.897,337.794,140.895z"/>
				<path fill="#FFFFFF" d="M340.149,148.005l1.611,0.57c-0.435,0.736-0.697,1.766-0.386,2.883c0.267,0.958,0.817,1.289,1.291,1.156
					c1.408-0.393-0.876-4.779,2.17-5.63c1.348-0.376,2.79,0.478,3.322,2.384c0.358,1.287,0.27,2.463-0.248,3.471l-1.556-0.6
					c0.426-0.824,0.461-1.777,0.229-2.603c-0.202-0.729-0.634-1.053-1.119-0.917c-1.274,0.355,0.885,4.765-2.138,5.607
					c-1.481,0.414-2.896-0.343-3.502-2.516C339.388,150.245,339.598,148.983,340.149,148.005z"/>
			</g>
		</g>
	</g>
</g>
<g id="Layer_2_copy">
	<g>
		<g>
			<path fill="#FFFFFF" d="M193.116,332.922c-0.049-2.594,1.869-4.382,4.4-4.431c1.838-0.034,2.928,0.94,3.541,1.987l-1.522,0.784
				c-0.366-0.673-1.131-1.2-1.988-1.185c-1.536,0.03-2.622,1.222-2.592,2.809c0.031,1.587,1.162,2.737,2.697,2.708
				c0.857-0.017,1.602-0.572,1.941-1.259l1.55,0.713c-0.571,1.057-1.623,2.098-3.461,2.133
				C195.15,337.229,193.165,335.504,193.116,332.922z"/>
			<path fill="#FFFFFF" d="M201.832,332.742c-0.213-2.524,1.48-4.488,4.018-4.702c2.524-0.212,4.522,1.44,4.734,3.964
				c0.213,2.524-1.48,4.488-4.004,4.7C204.043,336.919,202.045,335.267,201.832,332.742z M208.75,332.158
				c-0.132-1.569-1.224-2.666-2.769-2.535c-1.557,0.131-2.449,1.395-2.317,2.965c0.131,1.557,1.224,2.666,2.78,2.534
				C207.99,334.992,208.882,333.716,208.75,332.158z"/>
			<path fill="#FFFFFF" d="M218.313,335.102l-4.785-4.814l0.825,5.419l-1.769,0.269l-1.265-8.308l1.819-0.277l4.643,4.633
				l-0.794-5.219l1.769-0.27l1.264,8.308L218.313,335.102z"/>
			<path fill="#FFFFFF" d="M223.856,334.057l-1.423-6.675l-2.401,0.511l-0.328-1.539l6.552-1.396l0.328,1.54l-2.39,0.509
				l1.423,6.676L223.856,334.057z"/>
			<path fill="#FFFFFF" d="M235.06,331.286l-0.887-1.233l-3.477,0.953l-0.134,1.513l-1.957,0.537l0.901-8.964l2.164-0.593
				l5.346,7.252L235.06,331.286z M231.062,325.521l-0.308,3.835l2.527-0.692L231.062,325.521z"/>
			<path fill="#FFFFFF" d="M245.038,327.989l-2.008-5.721l-0.229,6.505l-0.737,0.258l-4.242-4.936l2.007,5.72l-1.688,0.593
				l-2.783-7.932l2.367-0.829l3.665,4.281l0.188-5.634l2.379-0.834l2.781,7.931L245.038,327.989z"/>
			<path fill="#FFFFFF" d="M248.539,326.615l-3.188-7.777l1.656-0.678l3.187,7.776L248.539,326.615z"/>
			<path fill="#FFFFFF" d="M257.22,322.804l-5.94-3.289l2.305,4.974l-1.623,0.752l-3.534-7.626l1.67-0.772l5.752,3.153l-2.221-4.79
				l1.624-0.752l3.533,7.624L257.22,322.804z"/>
			<path fill="#FFFFFF" d="M265.698,318.38l-1.146-0.997l-3.164,1.723l0.216,1.504l-1.781,0.97l-1.176-8.929l1.97-1.072l6.863,5.831
				L265.698,318.38z M260.487,313.686l0.578,3.802l2.302-1.253L260.487,313.686z"/>
			<path fill="#FFFFFF" d="M270.062,315.797l-3.604-5.801l-2.087,1.295l-0.83-1.337l5.693-3.537l0.83,1.339l-2.075,1.289
				l3.603,5.801L270.062,315.797z"/>
			<path fill="#FFFFFF" d="M274.78,312.777l-4.706-6.961l1.481-1.001l4.706,6.961L274.78,312.777z"/>
			<path fill="#FFFFFF" d="M275.05,307.594c-1.517-2.028-1.118-4.59,0.92-6.112c2.029-1.516,4.598-1.171,6.112,0.857
				s1.117,4.59-0.91,6.105C279.134,309.968,276.564,309.622,275.05,307.594z M280.609,303.44c-0.942-1.262-2.448-1.615-3.688-0.688
				c-1.253,0.935-1.342,2.479-0.399,3.74c0.937,1.251,2.449,1.614,3.7,0.68C281.463,306.246,281.544,304.691,280.609,303.44z"/>
			<path fill="#FFFFFF" d="M290.245,300.878l-6.612-1.543l3.575,4.156l-1.357,1.167l-5.48-6.373l1.395-1.199l6.395,1.464
				l-3.442-4.003l1.356-1.167l5.48,6.372L290.245,300.878z"/>
			<path fill="#FFFFFF" d="M292.212,293.427c-1.816-1.765-1.828-4.355-0.056-6.181c1.763-1.816,4.354-1.881,6.17-0.118
				c1.816,1.764,1.828,4.355,0.064,6.171C296.618,295.125,294.027,295.189,292.212,293.427z M297.045,288.447
				c-1.13-1.097-2.672-1.207-3.751-0.096c-1.088,1.12-0.931,2.659,0.198,3.756c1.121,1.087,2.672,1.207,3.76,0.087
				C298.331,291.082,298.166,289.535,297.045,288.447z"/>
			<path fill="#FFFFFF" d="M302.353,288.874l-6.357-5.491l3.886-4.498l1.191,1.029l-2.717,3.145l1.334,1.153l2.659-3.079
				l1.191,1.029l-2.659,3.078l2.641,2.28L302.353,288.874z"/>
			<path fill="#FFFFFF" d="M310.446,278.976l-5.486-4.062l-1.462,1.975l-1.266-0.938l3.986-5.386l1.267,0.937l-1.455,1.964
				l5.488,4.062L310.446,278.976z"/>
			<path fill="#FFFFFF" d="M316.979,269.519l-2.968-1.934l-2.168,3.327l2.969,1.933l-0.978,1.5l-7.045-4.589l0.977-1.5l2.769,1.803
				l2.167-3.327l-2.767-1.803l0.983-1.51l7.045,4.589L316.979,269.519z"/>
			<path fill="#FFFFFF" d="M318.978,266.301l-7.3-4.16l2.944-5.165l1.368,0.779l-2.059,3.611l1.532,0.873l2.014-3.535l1.369,0.78
				l-2.015,3.535l1.663,0.948l2.059-3.612l1.368,0.78L318.978,266.301z"/>
		</g>
	</g>
	<g>
		<g>
			<path fill="#FFFFFF" d="M193.167,350.228l-0.092-8.408l5.951-0.066l0.017,1.576l-4.16,0.046l0.019,1.766l4.073-0.046l0.017,1.576
				l-4.071,0.045l0.021,1.917l4.16-0.047l0.017,1.575L193.167,350.228z"/>
			<path fill="#FFFFFF" d="M206.611,349.735l-4.354-5.205l0.358,5.467l-1.785,0.118l-0.55-8.384l1.834-0.119l4.229,5.01
				l-0.345-5.266l1.784-0.117l0.551,8.383L206.611,349.735z"/>
			<path fill="#FFFFFF" d="M212.65,349.141l-4.246-7.939l2.013-0.249l3.104,6.113l1.52-6.687l2.013-0.249l-2.18,8.734
				L212.65,349.141z"/>
			<path fill="#FFFFFF" d="M219.069,348.258l-1.355-8.294l1.766-0.289l1.354,8.294L219.069,348.258z"/>
			<path fill="#FFFFFF" d="M227.339,346.727l-2.213-2.598l-1.284,0.261l0.595,2.928l-1.754,0.355l-1.674-8.237l3.854-0.782
				c1.716-0.35,3.006,0.559,3.318,2.09c0.294,1.445-0.472,2.424-1.319,2.814l2.503,2.758L227.339,346.727z M226.375,341.098
				c-0.137-0.68-0.755-0.991-1.445-0.851l-1.853,0.376l0.451,2.223l1.852-0.376C226.072,342.329,226.519,341.802,226.375,341.098z"
				/>
			<path fill="#FFFFFF" d="M229.464,342.013c-0.646-2.447,0.682-4.673,3.142-5.321c2.447-0.646,4.7,0.636,5.345,3.083
				c0.646,2.448-0.682,4.673-3.128,5.318C232.363,345.742,230.11,344.461,229.464,342.013z M236.173,340.244
				c-0.4-1.522-1.664-2.413-3.162-2.019c-1.511,0.398-2.17,1.797-1.769,3.318c0.398,1.51,1.665,2.413,3.175,2.015
				C235.915,343.164,236.571,341.753,236.173,340.244z"/>
			<path fill="#FFFFFF" d="M246.088,341.522l-5.526-3.943l1.723,5.203l-1.698,0.562l-2.641-7.977l1.746-0.578l5.354,3.787
				l-1.659-5.012l1.698-0.562l2.642,7.977L246.088,341.522z"/>
			<path fill="#FFFFFF" d="M256.407,337.566l-2.275-5.62l0.079,6.509l-0.726,0.293l-4.471-4.729l2.274,5.619l-1.658,0.672
				l-3.154-7.793l2.324-0.94l3.865,4.104l-0.08-5.638l2.336-0.946l3.156,7.793L256.407,337.566z"/>
			<path fill="#FFFFFF" d="M259.892,336.035l-3.605-7.591l5.372-2.553l0.676,1.424l-3.756,1.783l0.757,1.594l3.676-1.746
				l0.677,1.423l-3.677,1.746l0.821,1.729l3.756-1.784l0.677,1.423L259.892,336.035z"/>
			<path fill="#FFFFFF" d="M271.87,329.953l-6.138-2.895l2.621,4.811l-1.571,0.855l-4.018-7.376l1.614-0.88l5.941,2.771
				l-2.524-4.633l1.57-0.856l4.019,7.377L271.87,329.953z"/>
			<path fill="#FFFFFF" d="M276.731,327.101l-3.587-5.81l-2.09,1.29l-0.827-1.34l5.702-3.52l0.827,1.34l-2.079,1.283l3.586,5.81
				L276.731,327.101z"/>
			<path fill="#FFFFFF" d="M284.222,322.241l-4.816-6.893l1.468-1.025l4.815,6.893L284.222,322.241z"/>
			<path fill="#FFFFFF" d="M291.865,316.636l-6.505-1.932l3.319,4.359l-1.424,1.083l-5.089-6.684l1.463-1.114l6.293,1.841
				l-3.197-4.198l1.423-1.083l5.09,6.683L291.865,316.636z"/>
			<path fill="#FFFFFF" d="M294.255,309.306c-1.735-1.932-1.453-4.541,0.431-6.234c1.369-1.23,2.831-1.206,3.98-0.814l-0.639,1.591
				c-0.718-0.271-1.643-0.168-2.28,0.405c-1.143,1.027-1.185,2.641-0.123,3.822c1.062,1.181,2.671,1.312,3.814,0.283
				c0.637-0.572,0.838-1.48,0.645-2.224l1.641-0.475c0.259,1.175,0.146,2.649-1.225,3.88
				C298.614,311.233,295.982,311.228,294.255,309.306z"/>
			<path fill="#FFFFFF" d="M300.744,303.458c-1.805-1.777-1.798-4.372-0.011-6.186c1.777-1.805,4.37-1.852,6.177-0.072
				c1.805,1.777,1.797,4.371,0.02,6.177C305.143,305.189,302.549,305.236,300.744,303.458z M305.617,298.511
				c-1.122-1.106-2.666-1.229-3.752-0.123c-1.098,1.113-0.952,2.654,0.17,3.76c1.113,1.097,2.666,1.228,3.763,0.114
				C306.886,301.157,306.731,299.607,305.617,298.511z"/>
			<path fill="#FFFFFF" d="M315.796,293.411l-4.588-3.958l3.042,5.75l-0.512,0.591l-6.134-2.164l4.588,3.958l-1.169,1.354
				l-6.36-5.487l1.637-1.897l5.31,1.886l-2.644-4.977l1.646-1.907l6.36,5.487L315.796,293.411z"/>
			<path fill="#FFFFFF" d="M322.633,284.575l-4.86-3.627l3.442,5.525l-0.468,0.627l-6.276-1.728l4.858,3.627l-1.07,1.435
				l-6.738-5.029l1.5-2.011l5.435,1.508l-2.991-4.781l1.508-2.021l6.739,5.029L322.633,284.575z"/>
			<path fill="#FFFFFF" d="M322.048,279.63l-4.243-2.725l0.981-1.527l4.199,2.697c0.987,0.634,2.033,0.497,2.735-0.596
				c0.701-1.093,0.383-2.091-0.604-2.725l-4.199-2.697l0.988-1.537l4.241,2.724c1.751,1.125,2.292,2.94,0.909,5.094
				S323.797,280.754,322.048,279.63z"/>
			<path fill="#FFFFFF" d="M332.878,268.371l-6.749,0.77l4.765,2.714l-0.886,1.555l-7.305-4.159l0.911-1.6l6.516-0.771l-4.59-2.614
				l0.886-1.555l7.306,4.159L332.878,268.371z"/>
			<path fill="#FFFFFF" d="M334.579,265.173l-7.471-3.854l0.82-1.591l7.471,3.854L334.579,265.173z"/>
			<path fill="#FFFFFF" d="M337.073,260.189l-6.177-2.914l-1.049,2.222l-1.425-0.672l2.861-6.062l1.425,0.672l-1.044,2.211
				l6.176,2.914L337.073,260.189z"/>
			<path fill="#FFFFFF" d="M339.397,255.094l-7.721-3.312l0.705-1.645l7.723,3.312L339.397,255.094z"/>
			<path fill="#FFFFFF" d="M340.841,251.736l-7.834-3.033l2.146-5.544l1.468,0.568l-1.5,3.877l1.645,0.637l1.468-3.795l1.469,0.568
				l-1.469,3.794l1.785,0.691l1.501-3.876l1.468,0.568L340.841,251.736z"/>
			<path fill="#FFFFFF" d="M342.238,244.807l-1.019-1.374c0.773-0.368,1.565-1.074,1.932-2.175c0.313-0.945,0.042-1.526-0.425-1.682
				c-1.387-0.461-1.943,4.454-4.947,3.456c-1.326-0.44-2.046-1.955-1.421-3.833c0.421-1.268,1.153-2.192,2.146-2.739l0.953,1.365
				c-0.812,0.447-1.374,1.218-1.645,2.031c-0.237,0.718-0.062,1.228,0.416,1.386c1.256,0.417,1.93-4.445,4.907-3.456
				c1.46,0.485,2.21,1.903,1.499,4.045C344.121,243.373,343.242,244.303,342.238,244.807z"/>
		</g>
	</g>
</g>
<g id="Layer_2_copy_2">
	<g>
		<g>
			<path fill="#FFFFFF" d="M44.3,212.295l8.303-1.277l0.905,5.876l-1.556,0.239l-0.633-4.108l-1.743,0.269l0.619,4.021l-1.556,0.239
				l-0.619-4.021l-1.893,0.291l0.633,4.108l-1.556,0.24L44.3,212.295z"/>
			<path fill="#FFFFFF" d="M46.625,225.193l2.577-2.688l-3.443-1.442l-0.436-2.082l4.841,2.1l3.421-3.637l0.436,2.083l-2.416,2.475
				l3.201,1.273l0.441,2.107l-4.581-1.962l-3.603,3.869L46.625,225.193z"/>
			<path fill="#FFFFFF" d="M47.357,228.368l8.113-2.18l1.02,3.796c0.474,1.764-0.46,3.045-1.884,3.428
				c-1.411,0.379-2.864-0.273-3.335-2.025l-0.556-2.068l-2.896,0.777L47.357,228.368z M54.133,231.648
				c0.681-0.184,0.955-0.817,0.771-1.499l-0.491-1.824l-2.176,0.585l0.49,1.824C52.91,231.416,53.464,231.828,54.133,231.648z"/>
			<path fill="#FFFFFF" d="M53.37,234.57c2.403-0.803,4.711,0.379,5.518,2.794c0.802,2.402-0.332,4.735-2.734,5.538
				c-2.404,0.803-4.712-0.379-5.515-2.782C49.832,237.705,50.966,235.373,53.37,234.57z M55.57,241.156
				c1.496-0.498,2.303-1.818,1.812-3.289c-0.496-1.482-1.935-2.051-3.429-1.552c-1.482,0.495-2.302,1.819-1.807,3.302
				C52.636,241.087,54.088,241.652,55.57,241.156z"/>
			<path fill="#FFFFFF" d="M53.643,244.742l1.663,0.393c-0.352,0.779-0.502,1.829-0.071,2.904c0.369,0.923,0.952,1.192,1.407,1.01
				c1.357-0.543-1.387-4.653,1.547-5.827c1.298-0.52,2.822,0.172,3.557,2.007c0.496,1.239,0.534,2.419,0.129,3.476l-1.608-0.428
				c0.331-0.865,0.263-1.814-0.056-2.609c-0.28-0.702-0.743-0.978-1.211-0.79c-1.227,0.491,1.395,4.637-1.517,5.801
				c-1.425,0.571-2.913-0.027-3.75-2.119C53.129,247.05,53.202,245.773,53.643,244.742z"/>
			<path fill="#FFFFFF" d="M58.763,251.595l4.564-2.135l0.769,1.644l-4.519,2.113c-1.061,0.496-1.503,1.453-0.954,2.629
				c0.55,1.176,1.563,1.439,2.624,0.942l4.52-2.112l0.774,1.654l-4.565,2.135c-1.883,0.88-3.707,0.37-4.791-1.946
				C56.103,254.201,56.88,252.475,58.763,251.595z"/>
			<path fill="#FFFFFF" d="M62.115,265.841l1.837-2.874l-0.625-1.151l-2.624,1.423l-0.854-1.572l7.385-4.006l1.875,3.455
				c0.835,1.539,0.344,3.038-1.029,3.783c-1.296,0.702-2.455,0.256-3.075-0.439l-1.905,3.197L62.115,265.841z M67.215,263.275
				c0.609-0.33,0.727-1.011,0.391-1.631l-0.901-1.661l-1.992,1.081l0.9,1.661C65.948,263.346,66.583,263.618,67.215,263.275z"/>
			<path fill="#FFFFFF" d="M63.901,269.001l7.165-4.394l3.108,5.07l-1.342,0.823l-2.174-3.544l-1.503,0.922l2.127,3.469
				l-1.343,0.823l-2.126-3.469l-1.634,1.001l2.173,3.545l-1.341,0.822L63.901,269.001z"/>
			<path fill="#FFFFFF" d="M70.944,279.853l5.551-3.983l-1.434-1.998l1.281-0.918l3.91,5.449l-1.28,0.918l-1.426-1.986l-5.552,3.982
				L70.944,279.853z"/>
			<path fill="#FFFFFF" d="M77.316,281.538c1.969-1.595,4.546-1.297,6.148,0.682c1.595,1.969,1.352,4.552-0.617,6.146
				c-1.969,1.595-4.546,1.298-6.142-0.671C75.102,285.716,75.348,283.134,77.316,281.538z M81.688,286.936
				c1.224-0.992,1.518-2.512,0.542-3.717c-0.983-1.214-2.53-1.242-3.756-0.25c-1.214,0.983-1.518,2.511-0.534,3.727
				C78.916,287.899,80.473,287.92,81.688,286.936z"/>
			<path fill="#FFFFFF" d="M82.851,294.588l6.162-5.718l1.218,1.312l-6.162,5.719L82.851,294.588z"/>
			<path fill="#FFFFFF" d="M89.476,301.386l1-6.713l-3.849,3.898l-1.273-1.257l5.902-5.978l1.309,1.292l-0.938,6.489l3.708-3.755
				l1.272,1.257l-5.902,5.978L89.476,301.386z"/>
			<path fill="#FFFFFF" d="M92.188,303.938l5.551-6.304l4.46,3.928l-1.041,1.182l-3.118-2.747l-1.165,1.323l3.052,2.688l-1.04,1.182
				l-3.053-2.688l-2.304,2.618L92.188,303.938z"/>
			<path fill="#FFFFFF" d="M97.831,308.845l5.231-6.581l4.657,3.702l-0.98,1.233l-3.255-2.588l-1.098,1.381l3.187,2.533l-0.98,1.233
				l-3.187-2.534l-1.192,1.5l3.255,2.589l-0.979,1.233L97.831,308.845z"/>
			<path fill="#FFFFFF" d="M105.925,309.908c1.5-2.119,4.107-2.42,6.174-0.956c1.501,1.063,1.8,2.495,1.673,3.701l-1.692-0.271
				c0.105-0.76-0.199-1.639-0.897-2.135c-1.256-0.889-2.838-0.573-3.756,0.724c-0.918,1.296-0.689,2.894,0.565,3.782
				c0.7,0.495,1.63,0.49,2.311,0.138l0.826,1.495c-1.089,0.512-2.553,0.727-4.055-0.338
				C105.007,314.586,104.432,312.017,105.925,309.908z"/>
			<path fill="#FFFFFF" d="M112.849,319.738l3.633-5.779l-2.08-1.307l0.837-1.334l5.675,3.566l-0.839,1.333l-2.069-1.301
				l-3.633,5.78L112.849,319.738z"/>
			<path fill="#FFFFFF" d="M117.609,322.652l4.208-7.272l1.547,0.896l-4.208,7.272L117.609,322.652z"/>
			<path fill="#FFFFFF" d="M122.389,320.63c1.172-2.245,3.652-2.996,5.907-1.819c2.245,1.172,3.048,3.637,1.876,5.881
				c-1.171,2.245-3.651,2.996-5.896,1.825C122.021,325.34,121.218,322.875,122.389,320.63z M128.542,323.841
				c0.729-1.396,0.395-2.905-0.979-3.623c-1.385-0.722-2.814-0.133-3.543,1.263c-0.723,1.385-0.394,2.906,0.991,3.629
				C126.385,325.826,127.821,325.226,128.542,323.841z"/>
			<path fill="#FFFFFF" d="M134.999,331.435l-1.445-6.63l-2.218,5.009l-1.635-0.724l3.401-7.682l1.681,0.744l1.422,6.4l2.135-4.825
				l1.635,0.724l-3.4,7.682L134.999,331.435z"/>
		</g>
	</g>
</g>
</svg>
