<?xml version="1.0" encoding="utf-8"?>
<!-- Generator: Adobe Illustrator 15.0.0, SVG Export Plug-In . SVG Version: 6.00 Build 0)  -->
<!DOCTYPE svg PUBLIC "-//W3C//DTD SVG 1.1//EN" "http://www.w3.org/Graphics/SVG/1.1/DTD/svg11.dtd">
<svg version="1.1" id="Layer_1" xmlns="http://www.w3.org/2000/svg" xmlns:xlink="http://www.w3.org/1999/xlink" x="0px" y="0px"
	 width="150px" height="150px" viewBox="0 0 150 150" enable-background="new 0 0 150 150" xml:space="preserve">
<rect fill="#E1E1E1" width="150" height="150"/>
<polygon fill="#056CB4" points="22.445,12.571 22.445,42.813 17.36,42.813 17.36,19.663 17.316,19.663 13.747,23.366 13.702,23.366 
	13.702,18.058 18.388,12.571 "/>
<polygon fill="#056CB4" points="24.765,12.571 37.524,12.571 37.524,17.254 30.876,42.813 25.834,42.813 32.614,16.719 
	24.765,16.719 "/>
<path fill="#056CB4" d="M89.16,92.271c3.849-3.568,6.263-8.664,6.263-14.314c0-0.847-0.062-1.679-0.165-2.497
	c7.82,0.836,13.932,7.471,13.932,15.512c0,4.567-1.983,8.668-5.125,11.527C101.123,96.987,95.623,93.049,89.16,92.271
	 M102.422,111.667c0,8.599-6.999,15.599-15.603,15.599c-2.801,0-5.42-0.749-7.695-2.049c3.319-3.5,5.366-8.229,5.366-13.424
	c0-1.277-0.128-2.529-0.364-3.734c2.805,1.556,6.03,2.45,9.459,2.45c3.055,0,5.944-0.71,8.52-1.962
	C102.312,109.556,102.422,110.598,102.422,111.667 M49.349,111.792c0-1.107,0.119-2.189,0.343-3.231
	c2.57,1.245,5.45,1.947,8.493,1.947c3.42,0,6.634-0.887,9.434-2.436c-0.219,1.161-0.339,2.363-0.339,3.594
	c0,5.272,2.111,10.068,5.524,13.586c-2.31,1.354-4.988,2.143-7.85,2.143C56.348,127.395,49.349,120.396,49.349,111.792
	 M42.582,90.971c0-8.041,6.111-14.676,13.929-15.512c-0.104,0.818-0.163,1.65-0.163,2.497c0,5.708,2.465,10.858,6.383,14.43
	c-6.48,0.738-12.009,4.654-14.979,10.152C44.586,99.679,42.582,95.561,42.582,90.971 M75.883,62.354
	c6.396,0,11.895,3.865,14.304,9.381c-6.347,1.12-11.646,5.31-14.304,10.978c-2.653-5.671-7.954-9.859-14.3-10.978
	C63.992,66.219,69.492,62.354,75.883,62.354 M79.599,97.844c2.163-1.133,4.613-1.784,7.221-1.784c6.133,0,11.438,3.568,13.987,8.729
	c-2.163,1.133-4.618,1.784-7.221,1.784C87.451,106.574,82.147,103.005,79.599,97.844 M72.12,97.95
	c-2.569,5.103-7.842,8.624-13.936,8.624c-2.585,0-5.02-0.644-7.168-1.759c2.567-5.106,7.844-8.624,13.938-8.624
	C67.539,96.191,69.97,96.832,72.12,97.95 M60.485,75.557c7.513,1.115,13.303,7.594,13.303,15.414c0,0.814-0.082,1.614-0.204,2.396
	c-7.515-1.118-13.303-7.594-13.303-15.411C60.282,77.135,60.363,76.339,60.485,75.557 M75.958,122.838
	c-2.922-2.833-4.744-6.793-4.744-11.172c0-4.314,1.762-8.227,4.599-11.054c2.918,2.838,4.743,6.797,4.743,11.18
	C80.556,116.103,78.795,120.016,75.958,122.838 M91.489,77.957c0,7.817-5.788,14.293-13.302,15.411
	c-0.123-0.782-0.205-1.582-0.205-2.396c0-7.82,5.788-14.299,13.304-15.414C91.407,76.339,91.489,77.135,91.489,77.957
	 M113.123,90.971c0-10.535-8.378-19.139-18.817-19.521c-2.687-7.584-9.929-13.031-18.422-13.031c-8.491,0-15.731,5.447-18.42,13.031
	c-10.438,0.382-18.814,8.989-18.814,19.521c0,6.251,2.953,11.82,7.538,15.4c-0.499,1.723-0.772,3.543-0.772,5.421
	c0,10.771,8.765,19.533,19.539,19.533c4.088,0,7.885-1.263,11.026-3.42c3.104,2.077,6.831,3.29,10.839,3.29
	c10.771,0,19.536-8.763,19.536-19.529c0-1.846-0.263-3.627-0.74-5.317C110.179,102.77,113.123,97.208,113.123,90.971"/>
<g>
	<g>
		<path fill="#056CB4" d="M53.647,15.62v1.565c0,1.926-0.929,2.975-2.82,2.975h-0.894v4.523h-1.892V12.645h2.786
			C52.718,12.645,53.647,13.694,53.647,15.62z M49.933,14.365v4.076h0.894c0.602,0,0.929-0.275,0.929-1.135V15.5
			c0-0.86-0.327-1.135-0.929-1.135H49.933z"/>
		<path fill="#056CB4" d="M60.682,24.683h-1.909l-0.327-2.184h-2.321l-0.327,2.184h-1.737l1.926-12.038h2.769L60.682,24.683z
			 M56.366,20.865h1.823l-0.894-6.087H57.26L56.366,20.865z"/>
		<path fill="#056CB4" d="M65.773,24.683c-0.103-0.31-0.172-0.499-0.172-1.479v-1.892c0-1.118-0.378-1.53-1.238-1.53H63.71v4.901
			h-1.892V12.645h2.854c1.96,0,2.803,0.911,2.803,2.769v0.946c0,1.238-0.396,2.029-1.238,2.425v0.034
			c0.946,0.396,1.255,1.29,1.255,2.545v1.857c0,0.585,0.017,1.015,0.207,1.462H65.773z M63.71,14.365v3.697h0.739
			c0.705,0,1.135-0.31,1.135-1.272v-1.187c0-0.859-0.292-1.238-0.963-1.238H63.71z"/>
		<path fill="#056CB4" d="M74.477,20.194v1.599c0,1.926-0.963,3.027-2.82,3.027c-1.857,0-2.82-1.101-2.82-3.027v-6.259
			c0-1.926,0.963-3.027,2.82-3.027c1.857,0,2.82,1.101,2.82,3.027v1.169h-1.789v-1.29c0-0.86-0.378-1.187-0.98-1.187
			c-0.602,0-0.98,0.327-0.98,1.187v6.5c0,0.86,0.378,1.169,0.98,1.169c0.602,0,0.98-0.31,0.98-1.169v-1.72H74.477z"/>
		<path fill="#056CB4" d="M77.779,17.718h2.597v1.72h-2.597v3.525h3.267v1.72h-5.159V12.645h5.159v1.72h-3.267V17.718z"/>
		<path fill="#056CB4" d="M86.43,24.683c-0.103-0.31-0.172-0.499-0.172-1.479v-1.892c0-1.118-0.378-1.53-1.238-1.53h-0.653v4.901
			h-1.892V12.645h2.854c1.96,0,2.803,0.911,2.803,2.769v0.946c0,1.238-0.396,2.029-1.238,2.425v0.034
			c0.946,0.396,1.255,1.29,1.255,2.545v1.857c0,0.585,0.017,1.015,0.207,1.462H86.43z M84.367,14.365v3.697h0.739
			c0.705,0,1.135-0.31,1.135-1.272v-1.187c0-0.859-0.292-1.238-0.963-1.238H84.367z"/>
		<path fill="#056CB4" d="M89.647,12.645h1.892v12.038h-1.892V12.645z"/>
		<path fill="#056CB4" d="M99.295,24.683h-1.908l-0.327-2.184h-2.321l-0.327,2.184h-1.737l1.926-12.038h2.769L99.295,24.683z
			 M94.979,20.865h1.823l-0.894-6.087h-0.035L94.979,20.865z"/>
		<path fill="#056CB4" d="M102.977,12.507c1.84,0,2.786,1.101,2.786,3.027v0.378h-1.788v-0.499c0-0.86-0.345-1.187-0.946-1.187
			c-0.603,0-0.946,0.327-0.946,1.187c0,0.877,0.379,1.531,1.617,2.614c1.582,1.393,2.08,2.391,2.08,3.766
			c0,1.926-0.963,3.027-2.82,3.027s-2.82-1.101-2.82-3.027v-0.739h1.789v0.86c0,0.86,0.379,1.169,0.98,1.169s0.98-0.31,0.98-1.169
			c0-0.877-0.379-1.531-1.617-2.614c-1.582-1.393-2.08-2.391-2.08-3.766C100.191,13.608,101.137,12.507,102.977,12.507z"/>
		<path fill="#056CB4" d="M115.652,15.62v1.565c0,1.926-0.929,2.975-2.82,2.975h-0.895v4.523h-1.891V12.645h2.785
			C114.724,12.645,115.652,13.694,115.652,15.62z M111.938,14.365v4.076h0.895c0.602,0,0.929-0.275,0.929-1.135V15.5
			c0-0.86-0.327-1.135-0.929-1.135H111.938z"/>
		<path fill="#056CB4" d="M122.688,24.683h-1.91l-0.326-2.184h-2.321l-0.327,2.184h-1.736l1.926-12.038h2.769L122.688,24.683z
			 M118.371,20.865h1.822l-0.895-6.087h-0.034L118.371,20.865z"/>
		<path fill="#056CB4" d="M127.779,24.683c-0.104-0.31-0.172-0.499-0.172-1.479v-1.892c0-1.118-0.379-1.53-1.238-1.53h-0.654v4.901
			h-1.891V12.645h2.854c1.961,0,2.804,0.911,2.804,2.769v0.946c0,1.238-0.396,2.029-1.238,2.425v0.034
			c0.946,0.396,1.255,1.29,1.255,2.545v1.857c0,0.585,0.018,1.015,0.207,1.462H127.779z M125.715,14.365v3.697h0.74
			c0.705,0,1.135-0.31,1.135-1.272v-1.187c0-0.859-0.293-1.238-0.963-1.238H125.715z"/>
		<path fill="#056CB4" d="M137.117,24.683h-1.908l-0.327-2.184h-2.321l-0.327,2.184h-1.737l1.927-12.038h2.769L137.117,24.683z
			 M132.801,20.865h1.823l-0.894-6.087h-0.035L132.801,20.865z"/>
		<path fill="#056CB4" d="M47.886,33.834c0-1.926,1.015-3.027,2.872-3.027c1.857,0,2.872,1.101,2.872,3.027v6.259
			c0,1.926-1.015,3.027-2.872,3.027c-1.857,0-2.872-1.102-2.872-3.027V33.834z M49.778,40.214c0,0.859,0.378,1.186,0.98,1.186
			c0.602,0,0.98-0.326,0.98-1.186v-6.501c0-0.86-0.378-1.187-0.98-1.187c-0.602,0-0.98,0.327-0.98,1.187V40.214z"/>
		<path fill="#056CB4" d="M57.655,30.807c1.84,0,2.786,1.101,2.786,3.027v0.378h-1.789v-0.499c0-0.86-0.344-1.187-0.946-1.187
			c-0.602,0-0.946,0.327-0.946,1.187c0,0.877,0.378,1.531,1.616,2.614c1.582,1.393,2.081,2.391,2.081,3.766
			c0,1.926-0.963,3.027-2.82,3.027s-2.82-1.102-2.82-3.027v-0.739h1.789v0.86c0,0.859,0.378,1.169,0.98,1.169
			c0.602,0,0.98-0.31,0.98-1.169c0-0.877-0.378-1.531-1.617-2.614c-1.582-1.393-2.081-2.391-2.081-3.766
			C54.87,31.908,55.815,30.807,57.655,30.807z"/>
		<path fill="#056CB4" d="M64.57,33.834c0-1.926,1.015-3.027,2.872-3.027c1.857,0,2.872,1.101,2.872,3.027v6.259
			c0,1.926-1.015,3.027-2.872,3.027c-1.857,0-2.872-1.102-2.872-3.027V33.834z M66.461,40.214c0,0.859,0.378,1.186,0.98,1.186
			c0.602,0,0.98-0.326,0.98-1.186v-6.501c0-0.86-0.378-1.187-0.98-1.187c-0.602,0-0.98,0.327-0.98,1.187V40.214z"/>
		<path fill="#056CB4" d="M77.452,33.713v0.43c0,1.238-0.378,2.012-1.221,2.407v0.035c1.015,0.396,1.41,1.29,1.41,2.562v0.981
			c0,1.856-0.98,2.854-2.872,2.854h-2.975V30.945h2.854C76.609,30.945,77.452,31.856,77.452,33.713z M73.686,32.665v3.181h0.739
			c0.705,0,1.135-0.31,1.135-1.272v-0.671c0-0.859-0.292-1.238-0.963-1.238H73.686z M73.686,37.565v3.698h1.083
			c0.636,0,0.98-0.293,0.98-1.188v-1.048c0-1.118-0.361-1.462-1.221-1.462H73.686z"/>
		<path fill="#056CB4" d="M78.519,41.263c0.207,0.017,0.447,0.017,0.654,0.017c0.602,0,1.083-0.224,1.083-1.151v-9.184h1.892v9.045
			c0,2.408-1.29,3.027-2.717,3.027c-0.344,0-0.602,0-0.912-0.035V41.263z"/>
		<path fill="#056CB4" d="M85.588,36.018h2.597v1.72h-2.597v3.526h3.267v1.719h-5.159V30.945h5.159v1.72h-3.267V36.018z"/>
		<path fill="#056CB4" d="M95.77,38.494v1.599c0,1.926-0.963,3.027-2.82,3.027s-2.82-1.102-2.82-3.027v-6.259
			c0-1.926,0.963-3.027,2.82-3.027s2.82,1.101,2.82,3.027v1.169H93.98v-1.29c0-0.86-0.378-1.187-0.98-1.187
			c-0.601,0-0.979,0.327-0.979,1.187v6.501c0,0.859,0.378,1.169,0.979,1.169c0.603,0,0.98-0.31,0.98-1.169v-1.72H95.77z"/>
		<path fill="#056CB4" d="M96.631,30.945h5.846v1.72H100.5v10.317h-1.893V32.665h-1.977V30.945z"/>
		<path fill="#056CB4" d="M103.562,30.945h1.892v12.037h-1.892V30.945z"/>
		<path fill="#056CB4" d="M109.925,40.764h0.034l1.428-9.819h1.736l-1.857,12.037h-2.82l-1.857-12.037h1.91L109.925,40.764z"/>
		<path fill="#056CB4" d="M114.088,33.834c0-1.926,1.015-3.027,2.871-3.027c1.857,0,2.873,1.101,2.873,3.027v6.259
			c0,1.926-1.016,3.027-2.873,3.027c-1.856,0-2.871-1.102-2.871-3.027V33.834z M115.979,40.214c0,0.859,0.378,1.186,0.979,1.186
			c0.603,0,0.98-0.326,0.98-1.186v-6.501c0-0.86-0.378-1.187-0.98-1.187c-0.602,0-0.979,0.327-0.979,1.187V40.214z"/>
		<path fill="#056CB4" d="M123.856,30.807c1.841,0,2.786,1.101,2.786,3.027v0.378h-1.789v-0.499c0-0.86-0.344-1.187-0.945-1.187
			s-0.945,0.327-0.945,1.187c0,0.877,0.378,1.531,1.615,2.614c1.582,1.393,2.082,2.391,2.082,3.766c0,1.926-0.963,3.027-2.82,3.027
			s-2.82-1.102-2.82-3.027v-0.739h1.788v0.86c0,0.859,0.378,1.169,0.979,1.169c0.603,0,0.98-0.31,0.98-1.169
			c0-0.877-0.378-1.531-1.616-2.614c-1.582-1.393-2.081-2.391-2.081-3.766C121.07,31.908,122.017,30.807,123.856,30.807z"/>
	</g>
</g>
</svg>
