<?xml version="1.0" encoding="utf-8"?>
<!-- Generator: Adobe Illustrator 15.0.0, SVG Export Plug-In . SVG Version: 6.00 Build 0)  -->
<!DOCTYPE svg PUBLIC "-//W3C//DTD SVG 1.1//EN" "http://www.w3.org/Graphics/SVG/1.1/DTD/svg11.dtd">
<svg version="1.1" id="Layer_1" xmlns="http://www.w3.org/2000/svg" xmlns:xlink="http://www.w3.org/1999/xlink" x="0px" y="0px"
	 width="150px" height="150px" viewBox="0 0 150 150" enable-background="new 0 0 150 150" xml:space="preserve">
<rect y="0" fill="#E1E1E1" width="150" height="150"/>
<path fill="#056CB4" d="M28.053,38.665h-8.341v-1.427c0-2.363,0.847-3.256,2.14-4.638l3.254-3.436
	c2.633-2.809,3.213-4.594,3.213-7.628v-2.943c0-4.327-2.099-6.38-6.647-6.38c-4.459,0-6.735,2.364-6.735,6.604v3.654h4.638V18.68
	c0-1.828,0.894-2.362,1.964-2.362c0.979,0,1.828,0.401,1.828,2.274v2.498c0,2.499-0.225,3.48-1.874,5.218l-2.856,3.034
	c-2.765,2.946-3.791,4.909-3.791,7.896v5.576h13.205V38.665z"/>
<path fill="#056CB4" d="M59.831,127.457v2.108c-0.001,0.014-0.007,0.03-0.007,0.049c0,0.018,0.005,0.032,0.007,0.049
	c0.023,0.521,0.449,0.938,0.973,0.946c0.007,0,0.012,0.004,0.019,0.004c0.007,0,0.017-0.004,0.025-0.004h24.744
	c0.005,0,0.013,0.004,0.02,0.004c0.007,0,0.015-0.004,0.022-0.004c0.541-0.008,0.974-0.449,0.977-0.988
	c0-0.004,0.004-0.004,0.004-0.007c0,0-0.004-0.004-0.004-0.008v-2.389c13.928-4.563,24.362-15.854,26.656-29.612
	c0.006-0.028,0.01-0.054,0.015-0.081c0.008-0.049,0.013-0.091,0.013-0.138c0-0.554-0.445-1.001-1-1.001H33.906h-0.472
	c-0.555,0-1.004,0.447-1.004,1.001l0.053,0.449C34.894,111.724,45.616,123.076,59.831,127.457"/>
<path fill="#056CB4" d="M86.587,62.73c-0.324,0.463-7.944,11.43,0.17,20.299c3.721,4.071,3.399,7.664,2.334,10.089h5.207
	c1.054-3.583,0.619-8.075-3.606-12.689c-5.978-6.536,0.076-15.37,0.167-15.506c0.713-1.01,0.331-2.308-0.845-2.914
	C88.833,61.406,87.304,61.729,86.587,62.73"/>
<path fill="#056CB4" d="M73.404,93.118h5.208c1.053-3.581,0.615-8.075-3.609-12.691c-5.982-6.536,0.07-15.365,0.165-15.51
	c0.709-1.003,0.334-2.3-0.847-2.907c-1.174-0.603-2.709-0.282-3.423,0.721c-0.326,0.459-7.951,11.43,0.171,20.301
	C74.789,87.102,74.465,90.694,73.404,93.118"/>
<path fill="#056CB4" d="M55.206,62.73c-0.329,0.463-7.947,11.43,0.167,20.299c3.723,4.073,3.402,7.664,2.342,10.089h5.204
	c1.052-3.58,0.619-8.071-3.611-12.689c-5.98-6.536,0.076-15.37,0.17-15.511c0.708-1.005,0.332-2.303-0.851-2.909
	C57.453,61.402,55.92,61.727,55.206,62.73"/>
<rect y="581.281" fill="#8CCECF" width="69" height="14"/>
<g>
	<defs>
		<rect id="SVGID_1_" y="581.281" width="1879" height="57"/>
	</defs>
	<clipPath id="SVGID_2_">
		<use xlink:href="#SVGID_1_"  overflow="visible"/>
	</clipPath>
	<g clip-path="url(#SVGID_2_)">
		<text transform="matrix(1 0 0 1 0 591.2808)" fill="#020203" font-family="'TimesNewRomanPSMT'" font-size="12">Não a pobreza</text>
	</g>
</g>
<g>
	<defs>
		<rect id="SVGID_3_" y="581.281" width="1879" height="57"/>
	</defs>
	<clipPath id="SVGID_4_">
		<use xlink:href="#SVGID_3_"  overflow="visible"/>
	</clipPath>
	<g clip-path="url(#SVGID_4_)">
		<text transform="matrix(1 0 0 1 69.293 591.2808)" fill="#020203" font-family="'TimesNewRomanPSMT'" font-size="12"> </text>
	</g>
</g>
<g>
	<defs>
		<rect id="SVGID_5_" y="581.281" width="1879" height="57"/>
	</defs>
	<clipPath id="SVGID_6_">
		<use xlink:href="#SVGID_5_"  overflow="visible"/>
	</clipPath>
	<g clip-path="url(#SVGID_6_)">
		<text transform="matrix(1 0 0 1 72.293 591.2808)" fill="#020203" font-family="'TimesNewRomanPSMT'" font-size="12"> </text>
	</g>
</g>
<g>
	<path fill="#056CB4" d="M48.437,12.645v1.685l-3.594,8.633h3.594v1.72H42.9v-1.685l3.594-8.633h-3.422v-1.72H48.437z"/>
	<path fill="#056CB4" d="M51.706,17.718h2.597v1.72h-2.597v3.525h3.267v1.72h-5.159V12.645h5.159v1.72h-3.267V17.718z"/>
	<path fill="#056CB4" d="M60.357,24.683c-0.103-0.31-0.172-0.499-0.172-1.479v-1.892c0-1.118-0.378-1.53-1.238-1.53h-0.653v4.901
		h-1.892V12.645h2.854c1.96,0,2.803,0.911,2.803,2.769v0.946c0,1.238-0.396,2.029-1.238,2.425v0.034
		c0.946,0.396,1.255,1.29,1.255,2.545v1.857c0,0.585,0.017,1.015,0.207,1.462H60.357z M58.293,14.365v3.697h0.739
		c0.705,0,1.135-0.31,1.135-1.272v-1.187c0-0.859-0.292-1.238-0.963-1.238H58.293z"/>
	<path fill="#056CB4" d="M63.419,15.534c0-1.926,1.015-3.027,2.872-3.027c1.857,0,2.872,1.101,2.872,3.027v6.259
		c0,1.926-1.015,3.027-2.872,3.027c-1.857,0-2.872-1.101-2.872-3.027V15.534z M65.311,21.914c0,0.86,0.378,1.187,0.98,1.187
		c0.602,0,0.98-0.327,0.98-1.187v-6.5c0-0.86-0.378-1.187-0.98-1.187c-0.602,0-0.98,0.327-0.98,1.187V21.914z"/>
	<path fill="#056CB4" d="M45.084,36.293h2.442v1.72h-2.442v4.969h-1.892V30.945h5.004v1.72h-3.112V36.293z"/>
	<path fill="#056CB4" d="M49.212,33.834c0-1.926,1.015-3.027,2.872-3.027c1.857,0,2.872,1.101,2.872,3.027v6.259
		c0,1.926-1.015,3.027-2.872,3.027c-1.857,0-2.872-1.102-2.872-3.027V33.834z M51.104,40.214c0,0.859,0.378,1.186,0.98,1.186
		c0.602,0,0.98-0.326,0.98-1.186v-6.501c0-0.86-0.378-1.187-0.98-1.187c-0.602,0-0.98,0.327-0.98,1.187V40.214z"/>
	<path fill="#056CB4" d="M60.426,39.492h0.034l1.272-8.547h2.631v12.037h-1.789V34.35h-0.035l-1.272,8.632h-1.789l-1.375-8.512
		H58.07v8.512h-1.651V30.945h2.631L60.426,39.492z"/>
	<path fill="#056CB4" d="M67.891,36.018h2.597v1.72h-2.597v3.526h3.267v1.719h-5.159V30.945h5.159v1.72h-3.267V36.018z"/>
</g>
</svg>
