<?xml version="1.0" encoding="utf-8"?>
<!-- Generator: Adobe Illustrator 15.0.0, SVG Export Plug-In . SVG Version: 6.00 Build 0)  -->
<!DOCTYPE svg PUBLIC "-//W3C//DTD SVG 1.1//EN" "http://www.w3.org/Graphics/SVG/1.1/DTD/svg11.dtd">
<svg version="1.1" id="Layer_1" xmlns="http://www.w3.org/2000/svg" xmlns:xlink="http://www.w3.org/1999/xlink" x="0px" y="0px"
	 width="150px" height="150px" viewBox="0 0 150 150" enable-background="new 0 0 150 150" xml:space="preserve">
<rect fill="#E1E1E1" width="150" height="150"/>
<path fill="#056CB4" d="M21.404,43.221c5.132,0,7.362-2.722,7.362-6.913v-4.461c0-2.765-1.206-4.552-3.748-5.13
	c2.096-0.668,3.48-2.364,3.48-4.907V19.18c0-4.283-2.052-6.914-6.736-6.914c-5.265,0-7.094,3.121-7.094,7.583v2.676h4.638v-3.078
	c0-1.874,0.583-2.943,2.19-2.943c1.605,0,2.183,1.069,2.183,2.721v3.256c0,1.607-1.07,2.452-2.718,2.452h-1.92v3.884h2.143
	c1.783,0,2.496,0.845,2.496,2.452v4.996c0,1.605-0.713,2.723-2.275,2.723c-1.739,0-2.364-1.162-2.364-2.945v-4.327h-4.637v3.969
	C14.404,40.279,16.23,43.221,21.404,43.221"/>
<path fill="#056CB4" d="M125.384,93.747c0-4.224-2.708-7.645-6.811-7.645c-2.051,0-4.526,2.248-5.869,3.627
	c-1.345-1.383-3.654-3.631-5.706-3.631c-4.102,0-6.977,3.425-6.977,7.645c0,2.11,0.83,4.021,2.177,5.407l10.515,10.533
	l10.501-10.521l-0.008-0.008C124.551,97.768,125.384,95.857,125.384,93.747"/>
<path fill="#056CB4" d="M80.615,126.879c-0.034,0-0.07,0-0.106-0.004c-0.8-0.047-1.459-0.641-1.597-1.43l-5.34-31.105l-8.092,14.999
	c-0.354,0.658-1.093,1.01-1.82,0.879c-0.735-0.13-1.3-0.716-1.408-1.451l-3.433-24.008l-6.285,14.112
	c-0.277,0.626-0.894,1.028-1.577,1.028H26.531c-0.956,0-1.728-0.775-1.728-1.73c0-0.952,0.772-1.727,1.728-1.727h23.301L58.1,77.878
	c0.314-0.705,1.053-1.114,1.817-1.006c0.762,0.105,1.363,0.702,1.471,1.466l3.54,24.75l7.979-14.789
	c0.349-0.651,1.071-1.01,1.799-0.887c0.728,0.119,1.297,0.684,1.422,1.411l4.946,28.808l18.027-59.878
	c0.206-0.681,0.81-1.167,1.517-1.222c0.713-0.055,1.385,0.329,1.692,0.971l9.486,19.663c0.413,0.858,0.055,1.89-0.807,2.302
	c-0.857,0.417-1.89,0.059-2.304-0.803L101.131,63l-18.864,62.651C82.048,126.386,81.373,126.879,80.615,126.879"/>
<g>
	<path fill="#056CB4" d="M48.85,15.414v0.43c0,1.238-0.378,2.012-1.221,2.407v0.035c1.015,0.396,1.41,1.29,1.41,2.562v0.98
		c0,1.857-0.98,2.854-2.872,2.854h-2.975V12.645h2.854C48.007,12.645,48.85,13.556,48.85,15.414z M45.084,14.365v3.181h0.739
		c0.705,0,1.135-0.31,1.135-1.272v-0.671c0-0.859-0.292-1.238-0.963-1.238H45.084z M45.084,19.266v3.697h1.083
		c0.636,0,0.98-0.292,0.98-1.187v-1.049c0-1.118-0.361-1.462-1.221-1.462H45.084z"/>
	<path fill="#056CB4" d="M50.279,15.534c0-1.926,1.015-3.027,2.872-3.027c1.857,0,2.872,1.101,2.872,3.027v6.259
		c0,1.926-1.015,3.027-2.872,3.027c-1.857,0-2.872-1.101-2.872-3.027V15.534z M52.17,21.914c0,0.86,0.378,1.187,0.98,1.187
		c0.602,0,0.98-0.327,0.98-1.187v-6.5c0-0.86-0.378-1.187-0.98-1.187c-0.602,0-0.98,0.327-0.98,1.187V21.914z"/>
	<path fill="#056CB4" d="M63.607,24.683h-1.909l-0.327-2.184H59.05l-0.327,2.184h-1.737l1.926-12.038h2.769L63.607,24.683z
		 M59.291,20.865h1.823l-0.894-6.087h-0.035L59.291,20.865z"/>
	<path fill="#056CB4" d="M70.213,12.507c1.84,0,2.786,1.101,2.786,3.027v0.378H71.21v-0.499c0-0.86-0.344-1.187-0.946-1.187
		c-0.602,0-0.946,0.327-0.946,1.187c0,0.877,0.378,1.531,1.616,2.614c1.582,1.393,2.081,2.391,2.081,3.766
		c0,1.926-0.963,3.027-2.82,3.027s-2.82-1.101-2.82-3.027v-0.739h1.789v0.86c0,0.86,0.378,1.169,0.98,1.169
		c0.602,0,0.98-0.31,0.98-1.169c0-0.877-0.378-1.531-1.617-2.614c-1.582-1.393-2.081-2.391-2.081-3.766
		C67.427,13.608,68.373,12.507,70.213,12.507z"/>
	<path fill="#056CB4" d="M80.48,24.683h-1.909l-0.327-2.184h-2.321l-0.327,2.184h-1.737l1.926-12.038h2.769L80.48,24.683z
		 M76.164,20.865h1.823l-0.894-6.087h-0.035L76.164,20.865z"/>
	<path fill="#056CB4" d="M83.422,12.645v9.286c0,0.86,0.378,1.169,0.98,1.169c0.602,0,0.98-0.31,0.98-1.169v-9.286h1.788v9.166
		c0,1.926-0.963,3.027-2.82,3.027c-1.857,0-2.82-1.101-2.82-3.027v-9.166H83.422z M86.397,10.1l-1.754,1.909h-1.272L84.54,10.1
		H86.397z"/>
	<path fill="#056CB4" d="M88.72,12.645h2.992c1.891,0,2.821,1.049,2.821,2.975v6.087c0,1.926-0.93,2.975-2.821,2.975H88.72V12.645z
		 M90.612,14.365v8.598h1.066c0.602,0,0.963-0.31,0.963-1.169v-6.259c0-0.86-0.361-1.169-0.963-1.169H90.612z"/>
	<path fill="#056CB4" d="M97.887,17.718h2.598v1.72h-2.598v3.525h3.268v1.72h-5.158V12.645h5.158v1.72h-3.268V17.718z"/>
	<path fill="#056CB4" d="M45.084,36.018h2.597v1.72h-2.597v3.526h3.267v1.719h-5.159V30.945h5.159v1.72h-3.267V36.018z"/>
	<path fill="#056CB4" d="M58.362,33.713v0.43c0,1.238-0.378,2.012-1.221,2.407v0.035c1.015,0.396,1.41,1.29,1.41,2.562v0.981
		c0,1.856-0.98,2.854-2.872,2.854h-2.975V30.945h2.854C57.519,30.945,58.362,31.856,58.362,33.713z M54.596,32.665v3.181h0.739
		c0.705,0,1.135-0.31,1.135-1.272v-0.671c0-0.859-0.292-1.238-0.963-1.238H54.596z M54.596,37.565v3.698h1.083
		c0.636,0,0.98-0.293,0.98-1.188v-1.048c0-1.118-0.361-1.462-1.221-1.462H54.596z"/>
	<path fill="#056CB4" d="M61.836,36.018h2.597v1.72h-2.597v3.526h3.267v1.719h-5.159V30.945h5.159v1.72h-3.267V36.018z"/>
	<path fill="#056CB4" d="M70.521,39.492h0.035l1.272-8.547h2.631v12.037h-1.789V34.35h-0.035l-1.272,8.632h-1.789L68.2,34.47h-0.034
		v8.512h-1.651V30.945h2.631L70.521,39.492z"/>
	<path fill="#056CB4" d="M80.911,36.018h2.597v1.72h-2.597v3.526h3.267v1.719H79.02V30.945h5.159v1.72h-3.267V36.018z"/>
	<path fill="#056CB4" d="M88.152,30.807c1.84,0,2.786,1.101,2.786,3.027v0.378h-1.789v-0.499c0-0.86-0.344-1.187-0.946-1.187
		c-0.602,0-0.946,0.327-0.946,1.187c0,0.877,0.378,1.531,1.616,2.614c1.582,1.393,2.081,2.391,2.081,3.766
		c0,1.926-0.963,3.027-2.82,3.027s-2.82-1.102-2.82-3.027v-0.739h1.789v0.86c0,0.859,0.378,1.169,0.98,1.169
		c0.602,0,0.98-0.31,0.98-1.169c0-0.877-0.378-1.531-1.617-2.614c-1.582-1.393-2.081-2.391-2.081-3.766
		C85.366,31.908,86.312,30.807,88.152,30.807z"/>
	<path fill="#056CB4" d="M91.747,30.945h5.847v1.72h-1.978v10.317h-1.892V32.665h-1.978V30.945z"/>
	<path fill="#056CB4" d="M104.146,42.982h-1.908l-0.327-2.184H99.59l-0.327,2.184h-1.737l1.927-12.037h2.769L104.146,42.982z
		 M99.83,39.165h1.823l-0.894-6.087h-0.035L99.83,39.165z"/>
	<path fill="#056CB4" d="M109.238,42.982c-0.104-0.309-0.172-0.498-0.172-1.479v-1.892c0-1.118-0.379-1.53-1.238-1.53h-0.653v4.9
		h-1.892V30.945h2.854c1.96,0,2.804,0.911,2.804,2.769v0.946c0,1.238-0.396,2.029-1.238,2.425v0.034
		c0.945,0.396,1.255,1.29,1.255,2.545v1.857c0,0.584,0.017,1.014,0.206,1.461H109.238z M107.175,32.665v3.697h0.739
		c0.705,0,1.135-0.31,1.135-1.272v-1.187c0-0.859-0.292-1.238-0.963-1.238H107.175z"/>
</g>
</svg>
