<?xml version="1.0" encoding="utf-8"?>
<!-- Generator: Adobe Illustrator 15.0.0, SVG Export Plug-In . SVG Version: 6.00 Build 0)  -->
<!DOCTYPE svg PUBLIC "-//W3C//DTD SVG 1.1//EN" "http://www.w3.org/Graphics/SVG/1.1/DTD/svg11.dtd">
<svg version="1.1" id="Layer_1" xmlns="http://www.w3.org/2000/svg" xmlns:xlink="http://www.w3.org/1999/xlink" x="0px" y="0px"
	 width="150px" height="150px" viewBox="0 0 150 150" enable-background="new 0 0 150 150" xml:space="preserve">
<rect y="0" fill="#E1E1E1" width="150" height="150"/>
<path fill="#056CB4" d="M23.918,22.146c-2.007,0-3.479,0.714-4.283,2.096h-0.044v-7.539h8.743v-4.148H14.952v17.042h4.639v-0.672
	c0-1.784,0.804-2.765,2.229-2.765c1.562,0,2.188,1.071,2.188,2.723v7.315c0,1.607-0.58,2.721-2.143,2.721
	c-1.74,0-2.362-1.16-2.362-2.942v-3.792h-4.644v3.434c0,4.593,1.831,7.539,7.006,7.539c5.129,0,7.226-2.721,7.226-6.915v-7.404
	C29.092,24.064,26.64,22.146,23.918,22.146"/>
<path fill="#056CB4" d="M74.741,108.847c-9.91,0-17.971-8.063-17.971-17.971c0-9.911,8.062-17.974,17.971-17.974
	c9.911,0,17.973,8.062,17.973,17.974C92.714,100.784,84.651,108.847,74.741,108.847 M109.258,56.757H90.615
	c-0.127,0-0.237,0.106-0.237,0.237v6.194c0,0.134,0.11,0.24,0.237,0.24h7.423l-8.242,8.243c-4.153-3.261-9.377-5.214-15.056-5.214
	c-13.462,0-24.417,10.952-24.417,24.418c0,12.394,9.287,22.652,21.265,24.203v7.139h-7.354c-0.135,0-0.239,0.105-0.239,0.237v6.64
	c0,0.132,0.104,0.236,0.239,0.236h7.354v7.025c0,0.13,0.105,0.235,0.237,0.235h6.638c0.132,0,0.239-0.105,0.239-0.235v-7.025h7.353
	c0.132,0,0.237-0.104,0.237-0.236v-6.64c0-0.132-0.105-0.237-0.237-0.237h-7.353v-7.253c11.586-1.901,20.455-11.978,20.455-24.089
	c0-5.229-1.656-10.071-4.461-14.045l8.126-8.128v6.934c0,0.132,0.11,0.239,0.242,0.239h6.192c0.133,0,0.243-0.107,0.243-0.239
	V56.995C109.501,56.864,109.391,56.757,109.258,56.757"/>
<path fill="#056CB4" d="M85.719,83.499h-21.8c-0.129,0-0.235,0.096-0.235,0.213v5.277c0,0.123,0.106,0.214,0.235,0.214h21.8
	c0.136,0,0.241-0.091,0.241-0.214v-5.277C85.96,83.594,85.855,83.499,85.719,83.499"/>
<path fill="#056CB4" d="M85.719,92.921h-21.8c-0.129,0-0.235,0.099-0.235,0.221v5.274c0,0.12,0.106,0.214,0.235,0.214h21.8
	c0.136,0,0.241-0.094,0.241-0.214v-5.274C85.96,93.02,85.855,92.921,85.719,92.921"/>
<g>
	<path fill="#056CB4" d="M43.192,12.645h1.892v12.038h-1.892V12.645z"/>
	<path fill="#056CB4" d="M49.556,17.976h2.648v3.817c0,1.926-0.963,3.027-2.82,3.027c-1.857,0-2.82-1.101-2.82-3.027v-6.259
		c0-1.926,0.963-3.027,2.82-3.027c1.857,0,2.82,1.101,2.82,3.027v1.169h-1.789v-1.29c0-0.86-0.378-1.187-0.98-1.187
		c-0.602,0-0.98,0.327-0.98,1.187v6.5c0,0.86,0.378,1.169,0.98,1.169c0.602,0,0.98-0.31,0.98-1.169v-2.218h-0.86V17.976z"/>
	<path fill="#056CB4" d="M55.49,12.645v9.286c0,0.86,0.378,1.169,0.98,1.169c0.602,0,0.98-0.31,0.98-1.169v-9.286h1.788v9.166
		c0,1.926-0.963,3.027-2.82,3.027c-1.857,0-2.82-1.101-2.82-3.027v-9.166H55.49z"/>
	<path fill="#056CB4" d="M66.91,24.683H65l-0.327-2.184h-2.321l-0.327,2.184h-1.737l1.926-12.038h2.769L66.91,24.683z
		 M62.593,20.865h1.823l-0.894-6.087h-0.035L62.593,20.865z"/>
	<path fill="#056CB4" d="M68.046,12.645h1.892v10.318h3.112v1.72h-5.004V12.645z"/>
	<path fill="#056CB4" d="M74.135,12.645h2.992c1.892,0,2.82,1.049,2.82,2.975v6.087c0,1.926-0.929,2.975-2.82,2.975h-2.992V12.645z
		 M76.026,14.365v8.598h1.066c0.602,0,0.963-0.31,0.963-1.169v-6.259c0-0.86-0.361-1.169-0.963-1.169H76.026z"/>
	<path fill="#056CB4" d="M87.515,24.683h-1.909l-0.327-2.184h-2.321l-0.327,2.184h-1.737l1.926-12.038h2.769L87.515,24.683z
		 M83.199,20.865h1.823l-0.894-6.087h-0.035L83.199,20.865z"/>
	<path fill="#056CB4" d="M88.651,12.645h2.992c1.892,0,2.82,1.049,2.82,2.975v6.087c0,1.926-0.929,2.975-2.82,2.975h-2.992V12.645z
		 M90.543,14.365v8.598h1.066c0.602,0,0.963-0.31,0.963-1.169v-6.259c0-0.86-0.361-1.169-0.963-1.169H90.543z"/>
	<path fill="#056CB4" d="M97.818,17.718h2.597v1.72h-2.597v3.525h3.268v1.72h-5.159V12.645h5.159v1.72h-3.268V17.718z"/>
	<path fill="#056CB4" d="M43.192,30.945h2.992c1.892,0,2.82,1.049,2.82,2.975v6.087c0,1.926-0.929,2.975-2.82,2.975h-2.992V30.945z
		 M45.084,32.665v8.599h1.066c0.602,0,0.963-0.311,0.963-1.17v-6.259c0-0.86-0.361-1.169-0.963-1.169H45.084z"/>
	<path fill="#056CB4" d="M50.313,33.834c0-1.926,1.015-3.027,2.872-3.027c1.857,0,2.872,1.101,2.872,3.027v6.259
		c0,1.926-1.015,3.027-2.872,3.027c-1.857,0-2.872-1.102-2.872-3.027V33.834z M52.205,40.214c0,0.859,0.378,1.186,0.98,1.186
		c0.602,0,0.98-0.326,0.98-1.186v-6.501c0-0.86-0.378-1.187-0.98-1.187c-0.602,0-0.98,0.327-0.98,1.187V40.214z"/>
	<path fill="#056CB4" d="M63.298,36.276h2.648v3.817c0,1.926-0.963,3.027-2.82,3.027c-1.857,0-2.82-1.102-2.82-3.027v-6.259
		c0-1.926,0.963-3.027,2.82-3.027c1.857,0,2.82,1.101,2.82,3.027v1.169h-1.789v-1.29c0-0.86-0.378-1.187-0.98-1.187
		c-0.602,0-0.98,0.327-0.98,1.187v6.501c0,0.859,0.378,1.169,0.98,1.169c0.602,0,0.98-0.31,0.98-1.169v-2.219h-0.86V36.276z"/>
	<path fill="#056CB4" d="M69.318,36.018h2.597v1.72h-2.597v3.526h3.267v1.719h-5.159V30.945h5.159v1.72h-3.267V36.018z
		 M72.018,28.399l-1.754,1.909h-1.272l1.169-1.909H72.018z"/>
	<path fill="#056CB4" d="M75.734,34.264h-0.035v8.718h-1.702V30.945h2.373l1.909,7.206h0.034v-7.206h1.686v12.037h-1.943
		L75.734,34.264z"/>
	<path fill="#056CB4" d="M83.508,36.018h2.597v1.72h-2.597v3.526h3.267v1.719h-5.159V30.945h5.159v1.72h-3.267V36.018z"/>
	<path fill="#056CB4" d="M92.159,42.982c-0.103-0.309-0.172-0.498-0.172-1.479v-1.892c0-1.118-0.378-1.53-1.238-1.53h-0.653v4.9
		h-1.892V30.945h2.854c1.961,0,2.803,0.911,2.803,2.769v0.946c0,1.238-0.395,2.029-1.238,2.425v0.034
		c0.946,0.396,1.255,1.29,1.255,2.545v1.857c0,0.584,0.018,1.014,0.207,1.461H92.159z M90.096,32.665v3.697h0.739
		c0.705,0,1.135-0.31,1.135-1.272v-1.187c0-0.859-0.292-1.238-0.963-1.238H90.096z"/>
	<path fill="#056CB4" d="M95.222,33.834c0-1.926,1.015-3.027,2.872-3.027s2.871,1.101,2.871,3.027v6.259
		c0,1.926-1.014,3.027-2.871,3.027s-2.872-1.102-2.872-3.027V33.834z M97.113,40.214c0,0.859,0.379,1.186,0.98,1.186
		s0.98-0.326,0.98-1.186v-6.501c0-0.86-0.379-1.187-0.98-1.187s-0.98,0.327-0.98,1.187V40.214z"/>
</g>
</svg>
