<?xml version="1.0" encoding="utf-8"?>
<!-- Generator: Adobe Illustrator 15.0.0, SVG Export Plug-In . SVG Version: 6.00 Build 0)  -->
<!DOCTYPE svg PUBLIC "-//W3C//DTD SVG 1.1//EN" "http://www.w3.org/Graphics/SVG/1.1/DTD/svg11.dtd">
<svg version="1.1" id="Layer_1" xmlns="http://www.w3.org/2000/svg" xmlns:xlink="http://www.w3.org/1999/xlink" x="0px" y="0px"
	 width="150px" height="150px" viewBox="0 0 150 150" enable-background="new 0 0 150 150" xml:space="preserve">
<rect fill="#E1E1E1" width="150.001" height="150"/>
<path fill="#056CB4" d="M18.992,33.939l4.551-12.447h0.044v12.447H18.992z M23.499,42.814h4.818v-4.907h2.053v-3.967h-2.053V12.57
	h-4.998l-8.785,22.214v3.122h8.965V42.814z"/>
<polygon fill="#056CB4" points="66.515,80.427 39.613,64.894 39.613,115.145 66.515,123.261 "/>
<polygon fill="#056CB4" points="69.474,80.531 69.474,123.278 96.551,115.138 96.551,64.896 "/>
<path fill="#056CB4" d="M117.669,63.623c0-1.761-1.425-3.185-3.18-3.185c-1.761,0-3.186,1.424-3.186,3.185v3.43h6.365V63.623z"/>
<polygon fill="#056CB4" points="112.095,114.252 111.306,114.252 114.488,125.376 117.667,114.252 116.877,114.252 117.667,114.252 
	117.667,69.544 116.877,69.544 116.087,69.544 115.25,69.544 113.666,69.544 112.885,69.544 112.095,69.544 111.304,69.544 
	111.304,114.252 "/>
<polygon fill="#056CB4" points="102.329,67.052 99.445,64.773 99.445,116.505 69.553,126.166 68.171,126.166 67.896,126.166 
	66.516,126.166 36.756,117.852 36.756,64.773 33.872,67.052 33.872,119.875 66.379,128.873 67.896,128.873 68.171,128.873 
	69.688,128.873 99.681,119.352 102.329,118.573 "/>
<g>
	<path fill="#056CB4" d="M45.084,17.718h2.597v1.72h-2.597v3.525h3.267v1.72h-5.159V12.645h5.159v1.72h-3.267V17.718z"/>
	<path fill="#056CB4" d="M49.78,12.645h2.992c1.892,0,2.82,1.049,2.82,2.975v6.087c0,1.926-0.929,2.975-2.82,2.975H49.78V12.645z
		 M51.671,14.365v8.598h1.066c0.602,0,0.963-0.31,0.963-1.169v-6.259c0-0.86-0.361-1.169-0.963-1.169H51.671z"/>
	<path fill="#056CB4" d="M58.861,12.645v9.286c0,0.86,0.378,1.169,0.98,1.169c0.602,0,0.98-0.31,0.98-1.169v-9.286h1.788v9.166
		c0,1.926-0.963,3.027-2.82,3.027c-1.857,0-2.82-1.101-2.82-3.027v-9.166H58.861z"/>
	<path fill="#056CB4" d="M69.645,20.194v1.599c0,1.926-0.963,3.027-2.82,3.027c-1.857,0-2.82-1.101-2.82-3.027v-6.259
		c0-1.926,0.963-3.027,2.82-3.027c1.857,0,2.82,1.101,2.82,3.027v1.169h-1.789v-1.29c0-0.86-0.378-1.187-0.98-1.187
		c-0.602,0-0.98,0.327-0.98,1.187v6.5c0,0.86,0.378,1.169,0.98,1.169c0.602,0,0.98-0.31,0.98-1.169v-1.72H69.645z"/>
	<path fill="#056CB4" d="M77.178,24.683h-1.909l-0.327-2.184h-2.321l-0.327,2.184h-1.737l1.926-12.038h2.769L77.178,24.683z
		 M72.861,20.865h1.823l-0.894-6.087h-0.035L72.861,20.865z"/>
	<path fill="#056CB4" d="M83.783,20.194v1.599c0,1.789-0.843,2.872-2.442,3.01v0.55c0.843,0,1.273,0.206,1.273,0.808
		c0,0.929-0.723,1.049-1.737,1.049c-0.946,0-1.651-0.206-1.651-0.998v-0.172h1.272v0.138c0,0.258,0.189,0.344,0.378,0.344
		c0.292,0,0.43-0.12,0.43-0.413c0-0.327-0.207-0.447-0.619-0.447h-0.172v-0.877c-1.565-0.155-2.373-1.221-2.373-2.992v-6.259
		c0-1.926,0.963-3.027,2.82-3.027c1.857,0,2.82,1.101,2.82,3.027v1.169h-1.789v-1.29c0-0.86-0.378-1.187-0.98-1.187
		c-0.602,0-0.98,0.327-0.98,1.187v6.5c0,0.86,0.378,1.169,0.98,1.169c0.602,0,0.98-0.31,0.98-1.169v-1.72H83.783z"/>
	<path fill="#056CB4" d="M91.316,24.683h-1.909l-0.327-2.184h-2.321l-0.327,2.184h-1.737l1.926-12.038h2.769L91.316,24.683z
		 M89.424,10.203l0.911,0.636c-0.292,0.774-0.774,1.169-1.461,1.169c-0.275,0-0.516-0.052-0.912-0.241
		c-0.275-0.138-0.447-0.189-0.636-0.189c-0.378,0-0.567,0.138-0.74,0.499l-0.911-0.636c0.292-0.774,0.774-1.169,1.461-1.169
		c0.31,0,0.568,0.069,0.912,0.241c0.275,0.138,0.447,0.189,0.636,0.189C89.063,10.702,89.252,10.564,89.424,10.203z M87,20.865
		h1.823l-0.894-6.087h-0.035L87,20.865z"/>
	<path fill="#056CB4" d="M92.281,15.534c0-1.926,1.014-3.027,2.872-3.027s2.872,1.101,2.872,3.027v6.259
		c0,1.926-1.015,3.027-2.872,3.027s-2.872-1.101-2.872-3.027V15.534z M94.172,21.914c0,0.86,0.379,1.187,0.98,1.187
		s0.98-0.327,0.98-1.187v-6.5c0-0.86-0.379-1.187-0.98-1.187s-0.98,0.327-0.98,1.187V21.914z"/>
	<path fill="#056CB4" d="M43.192,30.945h2.992c1.892,0,2.82,1.049,2.82,2.975v6.087c0,1.926-0.929,2.975-2.82,2.975h-2.992V30.945z
		 M45.084,32.665v8.599h1.066c0.602,0,0.963-0.311,0.963-1.17v-6.259c0-0.86-0.361-1.169-0.963-1.169H45.084z"/>
	<path fill="#056CB4" d="M52.359,36.018h2.597v1.72h-2.597v3.526h3.267v1.719h-5.159V30.945h5.159v1.72h-3.267V36.018z"/>
	<path fill="#056CB4" d="M59.825,33.834c0-1.926,1.015-3.027,2.872-3.027c1.857,0,2.872,1.101,2.872,3.027v6.259
		c0,0.671-0.121,1.238-0.361,1.686c0.086,0.224,0.224,0.258,0.533,0.258h0.172v1.686h-0.258c-0.843,0-1.376-0.311-1.634-0.826
		c-0.378,0.139-0.825,0.225-1.324,0.225c-1.857,0-2.872-1.102-2.872-3.027V33.834z M61.716,40.214c0,0.859,0.378,1.186,0.98,1.186
		c0.602,0,0.98-0.326,0.98-1.186v-6.501c0-0.86-0.378-1.187-0.98-1.187c-0.602,0-0.98,0.327-0.98,1.187V40.214z"/>
	<path fill="#056CB4" d="M68.854,30.945v9.286c0,0.86,0.378,1.169,0.98,1.169c0.602,0,0.98-0.309,0.98-1.169v-9.286h1.788v9.166
		c0,1.926-0.963,3.026-2.82,3.026c-1.857,0-2.82-1.101-2.82-3.026v-9.166H68.854z"/>
	<path fill="#056CB4" d="M80.274,42.982h-1.909l-0.327-2.184h-2.321l-0.327,2.184h-1.737l1.926-12.037h2.769L80.274,42.982z
		 M75.958,39.165h1.823l-0.894-6.087h-0.035L75.958,39.165z"/>
	<path fill="#056CB4" d="M81.41,30.945h1.892v10.318h3.112v1.719H81.41V30.945z"/>
	<path fill="#056CB4" d="M87.499,30.945h1.892v12.037h-1.892V30.945z"/>
	<path fill="#056CB4" d="M91.025,30.945h2.993c1.891,0,2.82,1.049,2.82,2.975v6.087c0,1.926-0.93,2.975-2.82,2.975h-2.993V30.945z
		 M92.917,32.665v8.599h1.066c0.602,0,0.963-0.311,0.963-1.17v-6.259c0-0.86-0.361-1.169-0.963-1.169H92.917z"/>
	<path fill="#056CB4" d="M104.405,42.982h-1.909l-0.326-2.184h-2.322l-0.326,2.184h-1.737l1.927-12.037h2.768L104.405,42.982z
		 M100.089,39.165h1.823l-0.895-6.087h-0.035L100.089,39.165z"/>
	<path fill="#056CB4" d="M105.541,30.945h2.992c1.893,0,2.82,1.049,2.82,2.975v6.087c0,1.926-0.928,2.975-2.82,2.975h-2.992V30.945z
		 M107.434,32.665v8.599h1.065c0.603,0,0.964-0.311,0.964-1.17v-6.259c0-0.86-0.361-1.169-0.964-1.169H107.434z"/>
	<path fill="#056CB4" d="M114.709,36.018h2.596v1.72h-2.596v3.526h3.267v1.719h-5.159V30.945h5.159v1.72h-3.267V36.018z"/>
</g>
</svg>
