<?xml version="1.0" encoding="utf-8"?>
<!-- Generator: Adobe Illustrator 15.0.0, SVG Export Plug-In . SVG Version: 6.00 Build 0)  -->
<!DOCTYPE svg PUBLIC "-//W3C//DTD SVG 1.1//EN" "http://www.w3.org/Graphics/SVG/1.1/DTD/svg11.dtd">
<svg version="1.1" id="Layer_1" xmlns="http://www.w3.org/2000/svg" xmlns:xlink="http://www.w3.org/1999/xlink" x="0px" y="0px"
	 width="150px" height="150px" viewBox="0 0 150 150" enable-background="new 0 0 150 150" xml:space="preserve">
<rect fill="#E1E1E1" width="150" height="150"/>
<path fill="#056CB4" d="M20.332,30.498c0.089-1.694,0.804-2.764,2.409-2.764c1.739,0,2.407,1.07,2.407,3.035v5.263
	c0,1.917-0.711,3.033-2.451,3.033c-1.697,0-2.365-1.16-2.365-3.033V30.498z M22.697,43.213c5.397,0,7.494-2.946,7.494-7.629v-4.463
	c0-4.951-1.963-7.446-5.623-7.446c-2.141,0-3.433,0.981-4.193,2.453h-0.043v-6.514c0-1.83,0.581-3.123,2.409-3.123
	c1.828,0,2.365,1.071,2.365,2.945v2.007h4.639v-1.607c0-4.459-1.473-7.581-7.094-7.581c-5.352,0-7.36,3.434-7.36,8.161v14.721
	C15.29,39.823,17.342,43.213,22.697,43.213"/>
<path fill="#056CB4" d="M98.859,72.288c-1.477-0.648-3.347-0.415-5.142,0.312c-6.752,2.736-11.347,3.721-18.45,1.496
	c-4.472-1.398-8.656-4.33-13.602-2.546c-3.285,1.181-6.341,2.308-10.053,2.28l-2.145-10.99h50.929L98.859,72.288z M81.595,104.922
	c0,0-2.472,2.541-6.493,2.264c-4.03,0.277-6.5-2.264-6.5-2.264c-4.078-4.075-2.623-9.142-1.204-11.761
	c0.876-1.64,7.139-11.046,7.679-11.848v-0.062c0,0,0.011,0.011,0.025,0.029l0.021-0.029v0.062
	c0.525,0.802,6.797,10.208,7.673,11.848C84.219,95.781,85.67,100.847,81.595,104.922 M102.627,60.654
	c-0.127-0.139-0.299-0.215-0.492-0.215h-54.42c-0.187,0-0.362,0.076-0.489,0.215c-0.119,0.152-0.165,0.339-0.135,0.516l9.143,55.293
	c0.05,0.306,0.318,0.534,0.628,0.534h11.22L68.849,126l-4.721,0.008l10.987,10.986l11.016-11.014l-4.724,0.006l0.768-8.99h11.419
	c0.315,0,0.579-0.229,0.625-0.543l8.554-55.284C102.801,60.979,102.745,60.796,102.627,60.654"/>
<g>
	<path fill="#056CB4" d="M49.314,24.683h-1.909l-0.327-2.184h-2.321l-0.327,2.184h-1.737l1.926-12.038h2.769L49.314,24.683z
		 M44.998,20.865h1.823l-0.894-6.087h-0.035L44.998,20.865z"/>
	<path fill="#056CB4" d="M53.271,17.976h2.648v3.817c0,1.926-0.963,3.027-2.82,3.027c-1.857,0-2.82-1.101-2.82-3.027v-6.259
		c0-1.926,0.963-3.027,2.82-3.027c1.857,0,2.82,1.101,2.82,3.027v1.169h-1.789v-1.29c0-0.86-0.378-1.187-0.98-1.187
		c-0.602,0-0.98,0.327-0.98,1.187v6.5c0,0.86,0.378,1.169,0.98,1.169c0.602,0,0.98-0.31,0.98-1.169v-2.218h-0.86V17.976z"/>
	<path fill="#056CB4" d="M59.205,12.645v9.286c0,0.86,0.378,1.169,0.98,1.169c0.602,0,0.98-0.31,0.98-1.169v-9.286h1.788v9.166
		c0,1.926-0.963,3.027-2.82,3.027c-1.857,0-2.82-1.101-2.82-3.027v-9.166H59.205z"/>
	<path fill="#056CB4" d="M70.625,24.683h-1.909l-0.327-2.184h-2.321l-0.327,2.184h-1.737l1.926-12.038h2.769L70.625,24.683z
		 M66.309,20.865h1.823l-0.894-6.087h-0.035L66.309,20.865z"/>
	<path fill="#056CB4" d="M80.292,15.62v1.565c0,1.926-0.929,2.975-2.82,2.975h-0.894v4.523h-1.892V12.645h2.786
		C79.363,12.645,80.292,13.694,80.292,15.62z M76.577,14.365v4.076h0.894c0.602,0,0.929-0.275,0.929-1.135V15.5
		c0-0.86-0.327-1.135-0.929-1.135H76.577z"/>
	<path fill="#056CB4" d="M81.273,15.534c0-1.926,1.015-3.027,2.872-3.027c1.857,0,2.872,1.101,2.872,3.027v6.259
		c0,1.926-1.015,3.027-2.872,3.027c-1.857,0-2.872-1.101-2.872-3.027V15.534z M83.165,21.914c0,0.86,0.378,1.187,0.98,1.187
		c0.602,0,0.98-0.327,0.98-1.187v-6.5c0-0.86-0.378-1.187-0.98-1.187c-0.602,0-0.98,0.327-0.98,1.187V21.914z"/>
	<path fill="#056CB4" d="M87.947,12.645h5.846v1.72h-1.977v10.318h-1.892V14.365h-1.978V12.645z"/>
	<path fill="#056CB4" d="M100.347,24.683h-1.909l-0.326-2.184h-2.322l-0.326,2.184h-1.737l1.927-12.038h2.768L100.347,24.683z
		 M99.057,10.1l-1.754,1.909H96.03l1.169-1.909H99.057z M96.03,20.865h1.823l-0.895-6.087h-0.035L96.03,20.865z"/>
	<path fill="#056CB4" d="M103.891,22.464h0.033l1.428-9.819h1.737l-1.857,12.038h-2.82l-1.857-12.038h1.909L103.891,22.464z"/>
	<path fill="#056CB4" d="M110.117,17.718h2.596v1.72h-2.596v3.525h3.267v1.72h-5.159V12.645h5.159v1.72h-3.267V17.718z"/>
	<path fill="#056CB4" d="M114.812,12.645h1.892v10.318h3.112v1.72h-5.004V12.645z"/>
	<path fill="#056CB4" d="M45.084,36.018h2.597v1.72h-2.597v3.526h3.267v1.719h-5.159V30.945h5.159v1.72h-3.267V36.018z"/>
	<path fill="#056CB4" d="M55.249,30.807c1.84,0,2.786,1.101,2.786,3.027v0.378h-1.789v-0.499c0-0.86-0.344-1.187-0.946-1.187
		c-0.602,0-0.946,0.327-0.946,1.187c0,0.877,0.378,1.531,1.616,2.614c1.582,1.393,2.081,2.391,2.081,3.766
		c0,1.926-0.963,3.027-2.82,3.027s-2.82-1.102-2.82-3.027v-0.739H54.2v0.86c0,0.859,0.378,1.169,0.98,1.169
		c0.602,0,0.98-0.31,0.98-1.169c0-0.877-0.378-1.531-1.617-2.614c-1.582-1.393-2.081-2.391-2.081-3.766
		C52.463,31.908,53.409,30.807,55.249,30.807z"/>
	<path fill="#056CB4" d="M65.517,42.982h-1.909l-0.327-2.184h-2.321l-0.327,2.184h-1.737l1.926-12.037h2.769L65.517,42.982z
		 M61.2,39.165h1.823l-0.894-6.087h-0.035L61.2,39.165z"/>
	<path fill="#056CB4" d="M68.373,34.264h-0.035v8.718h-1.702V30.945h2.373l1.909,7.206h0.034v-7.206h1.686v12.037h-1.943
		L68.373,34.264z"/>
	<path fill="#056CB4" d="M76.146,36.018h2.597v1.72h-2.597v3.526h3.267v1.719h-5.159V30.945h5.159v1.72h-3.267V36.018z"/>
	<path fill="#056CB4" d="M86.965,42.982h-1.909l-0.327-2.184h-2.321l-0.327,2.184h-1.737l1.926-12.037h2.769L86.965,42.982z
		 M82.648,39.165h1.823l-0.894-6.087h-0.035L82.648,39.165z"/>
	<path fill="#056CB4" d="M92.091,39.492h0.034l1.272-8.547h2.632v12.037H94.24V34.35h-0.035l-1.272,8.632h-1.789l-1.375-8.512
		h-0.034v8.512h-1.651V30.945h2.631L92.091,39.492z"/>
	<path fill="#056CB4" d="M99.556,36.018h2.597v1.72h-2.597v3.526h3.267v1.719h-5.158V30.945h5.158v1.72h-3.267V36.018z"/>
	<path fill="#056CB4" d="M105.971,34.264h-0.034v8.718h-1.702V30.945h2.373l1.908,7.206h0.035v-7.206h1.686v12.037h-1.943
		L105.971,34.264z"/>
	<path fill="#056CB4" d="M111.303,30.945h5.848v1.72h-1.979v10.317h-1.891V32.665h-1.979V30.945z"/>
	<path fill="#056CB4" d="M118.08,33.834c0-1.926,1.014-3.027,2.871-3.027s2.872,1.101,2.872,3.027v6.259
		c0,1.926-1.015,3.027-2.872,3.027s-2.871-1.102-2.871-3.027V33.834z M119.971,40.214c0,0.859,0.379,1.186,0.98,1.186
		s0.98-0.326,0.98-1.186v-6.501c0-0.86-0.379-1.187-0.98-1.187s-0.98,0.327-0.98,1.187V40.214z"/>
</g>
</svg>
