<?xml version="1.0" encoding="utf-8"?>
<!-- Generator: Adobe Illustrator 15.0.0, SVG Export Plug-In . SVG Version: 6.00 Build 0)  -->
<!DOCTYPE svg PUBLIC "-//W3C//DTD SVG 1.1//EN" "http://www.w3.org/Graphics/SVG/1.1/DTD/svg11.dtd">
<svg version="1.1" id="Layer_1" xmlns="http://www.w3.org/2000/svg" xmlns:xlink="http://www.w3.org/1999/xlink" x="0px" y="0px"
	 width="150px" height="150px" viewBox="0 0 150 150" enable-background="new 0 0 150 150" xml:space="preserve">
<rect fill="#E1E1E1" width="150.001" height="150"/>
<polygon fill="#056CB4" points="20.943,19.727 20.988,19.727 20.988,42.878 26.073,42.878 26.073,12.633 22.013,12.633 
	17.331,18.121 17.331,23.427 17.375,23.427 "/>
<path fill="#056CB4" d="M115.521,71.562c0-2.296,1.861-4.154,4.154-4.154c2.29,0,4.147,1.858,4.147,4.154
	c0,2.294-1.857,4.154-4.147,4.154C117.382,75.716,115.521,73.856,115.521,71.562"/>
<path fill="#056CB4" d="M124.522,77.316c2.816,0.257,5.026,2.624,5.026,5.516v1.379v0.604v9.525c0,0.887-0.722,1.61-1.608,1.61
	c-0.892,0-1.611-0.724-1.611-1.61v-9.884c0-0.373-0.106-0.872-0.785-0.872c-0.469,0-0.565,0.496-0.584,0.814v29.63
	c0,1.274-1.03,2.312-2.311,2.312s-2.318-1.038-2.318-2.312V96.954c-0.005-0.188-0.068-0.681-0.656-0.681h-0.001
	c-0.592,0-0.662,0.492-0.669,0.681v17.075c0,1.274-1.031,2.312-2.31,2.312c-1.285,0-2.314-1.038-2.314-2.312v-29.63
	c-0.016-0.318-0.116-0.814-0.582-0.814c-0.682,0-0.784,0.499-0.784,0.872v9.884c0,0.887-0.722,1.61-1.611,1.61
	s-1.607-0.724-1.607-1.61v-9.525V84.21v-1.379c0-2.892,2.209-5.259,5.031-5.516c0.093-0.011,0.192-0.025,0.304-0.025h4.544h4.532
	C124.326,77.291,124.425,77.305,124.522,77.316"/>
<path fill="#056CB4" d="M90.826,73.744c0-2.173-1.756-3.937-3.929-3.937c-2.174,0-3.935,1.764-3.935,3.937
	c0,2.172,1.761,3.931,3.935,3.931C89.07,77.674,90.826,75.916,90.826,73.744"/>
<path fill="#056CB4" d="M78.974,82.651l-3.269,10.64c0,0-0.582,1.951,1.073,2.439c1.645,0.485,2.146-1.418,2.146-1.418l2.638-8.882
	c0,0,0.142-0.681,0.656-0.536c0.513,0.148,0.32,0.88,0.32,0.88l-4.589,16.641h4.269v11.922c0,1.129,0.917,2.045,2.049,2.045
	c1.13,0,2.046-0.916,2.046-2.045v-11.922h0.585h0.578v11.922c0,1.129,0.914,2.045,2.047,2.045c1.136,0,2.051-0.916,2.051-2.045
	v-11.922h4.267l-4.585-16.641c0,0-0.193-0.731,0.318-0.88c0.515-0.145,0.658,0.536,0.658,0.536l2.635,8.882
	c0,0,0.502,1.903,2.146,1.418c1.658-0.488,1.073-2.439,1.073-2.439l-3.27-10.64c0,0-1.167-3.077-3.754-3.077h-4.166h-4.168
	C80.145,79.574,78.974,82.651,78.974,82.651"/>
<path fill="#056CB4" d="M67.274,73.744c0-2.173-1.758-3.937-3.931-3.937c-2.173,0-3.932,1.764-3.932,3.937
	c0,2.172,1.758,3.931,3.932,3.931C65.516,77.674,67.274,75.916,67.274,73.744"/>
<path fill="#056CB4" d="M55.42,82.651l-3.268,10.64c0,0-0.583,1.951,1.071,2.439c1.646,0.485,2.146-1.418,2.146-1.418l2.637-8.882
	c0,0,0.143-0.681,0.656-0.536c0.515,0.148,0.32,0.88,0.32,0.88l-4.586,16.641h4.266v11.922c0,1.129,0.921,2.045,2.049,2.045
	c1.134,0,2.048-0.916,2.048-2.045v-11.922h0.587h0.576v11.922c0,1.129,0.912,2.045,2.049,2.045c1.135,0,2.048-0.916,2.048-2.045
	v-11.922h4.268l-4.583-16.641c0,0-0.196-0.731,0.315-0.88c0.516-0.145,0.66,0.536,0.66,0.536l2.634,8.882c0,0,0.5,1.903,2.146,1.418
	c1.659-0.488,1.073-2.439,1.073-2.439l-3.269-10.64c0,0-1.166-3.077-3.754-3.077h-4.162h-4.169
	C56.592,79.574,55.42,82.651,55.42,82.651"/>
<path fill="#056CB4" d="M104.032,95.752c1.811,0,3.271-1.466,3.271-3.279c0-1.806-1.461-3.269-3.271-3.269s-3.272,1.463-3.272,3.269
	C100.76,94.287,102.222,95.752,104.032,95.752"/>
<path fill="#056CB4" d="M96.185,105.918c-0.159,0.384-0.29,1.194,0.477,1.549c0.902,0.412,1.402-0.456,1.402-0.456l1.781-5.675
	c0,0,0.308-0.38,0.308,0.011v13.358h0.009c0,0.931,0.748,1.68,1.68,1.68c0.929,0,1.679-0.749,1.679-1.68v-5.27
	c0,0-0.098-0.745,0.502-0.745c0.603,0,0.51,0.745,0.51,0.745v5.27c0,0.931,0.752,1.68,1.681,1.68c0.927,0,1.685-0.749,1.685-1.68
	v-13.358c0-0.391,0.208-0.112,0.208-0.112l1.393,3.887c0,0,0.606,1.737,0.792,1.813c0.63,0.265,1.356-0.036,1.623-0.673
	c0.174-0.413,0.107-0.857-0.134-1.19l0.014-0.015c-0.041-0.127-2.085-5.14-2.326-5.842c-0.737-2.157-2.083-2.139-3.376-2.171
	c-1.294-0.033-2.068,0-2.068,0s-0.826-0.036-2.534,0.014c-1.706,0.055-2.242,0.931-4.126,5.77c-0.269,0.698-1.177,2.953-1.188,3.091
	H96.185z"/>
<path fill="#056CB4" d="M32.155,71.562c0-2.296-1.862-4.154-4.156-4.154c-2.291,0-4.148,1.858-4.148,4.154
	c0,2.294,1.857,4.154,4.148,4.154C30.293,75.716,32.155,73.856,32.155,71.562"/>
<path fill="#056CB4" d="M23.151,77.316c-2.817,0.257-5.027,2.624-5.027,5.516v1.379v0.604v9.525c0,0.887,0.722,1.61,1.61,1.61
	c0.892,0,1.61-0.724,1.61-1.61v-9.884c0-0.373,0.108-0.872,0.786-0.872c0.469,0,0.565,0.496,0.585,0.814v29.63
	c0,1.274,1.03,2.312,2.311,2.312c1.279,0,2.312-1.038,2.312-2.312V96.954c0.01-0.188,0.072-0.681,0.661-0.681h0.001
	c0.589,0,0.662,0.492,0.667,0.681v17.075c0,1.274,1.033,2.312,2.311,2.312c1.282,0,2.314-1.038,2.314-2.312v-29.63
	c0.013-0.318,0.119-0.814,0.582-0.814c0.681,0,0.784,0.499,0.784,0.872v9.884c0,0.887,0.723,1.61,1.612,1.61s1.608-0.724,1.608-1.61
	v-9.525V84.21v-1.379c0-2.892-2.209-5.259-5.031-5.516c-0.094-0.011-0.193-0.025-0.306-0.025H28h-4.532
	C23.35,77.291,23.249,77.305,23.151,77.316"/>
<g>
	<path fill="#056CB4" d="M16.445,116.171c-0.054,0-0.109-0.004-0.165-0.015c-0.662-0.087-1.126-0.698-1.037-1.36l2.485-18.343
		c0.09-0.662,0.707-1.129,1.363-1.038c0.662,0.091,1.126,0.702,1.037,1.364l-2.485,18.342
		C17.561,115.73,17.042,116.171,16.445,116.171z"/>
</g>
<path fill="#056CB4" d="M39.851,94.037c-0.214-0.337-0.583-0.562-1.01-0.562c-0.658,0-1.193,0.536-1.193,1.191
	c0,0.191,0.117,0.524,0.117,0.524l3.301,5.968c0,0,0.202,0.413,0.202,0.789v12.823h0.005c0,0.894,0.723,1.61,1.614,1.61
	s1.609-0.717,1.609-1.61v-5.06c0,0-0.091-0.717,0.487-0.717c0.576,0,0.486,0.717,0.486,0.717v5.06c0,0.894,0.725,1.61,1.616,1.61
	c0.889,0,1.616-0.717,1.616-1.61v-12.823c0-0.376,0.198-0.789,0.198-0.789l3.05-5.512c0,0,0.374-0.789,0.374-0.98
	c0-0.655-0.533-1.191-1.193-1.191c-0.432,0-0.8,0.225-1.01,0.562l-0.013-0.008c-0.097,0.084-1.623,2.802-2.127,3.309
	c-0.534,0.535-1.011,0.478-1.011,0.478h-1.985h-1.981c0,0-0.48,0.058-1.011-0.478c-0.51-0.507-2.032-3.225-2.129-3.309
	L39.851,94.037z"/>
<path fill="#056CB4" d="M44.982,95.752c1.811,0,3.273-1.466,3.273-3.279c0-1.806-1.462-3.269-3.273-3.269
	c-1.809,0-3.271,1.463-3.271,3.269C41.711,94.287,43.173,95.752,44.982,95.752"/>
<polygon fill="#056CB4" points="44.988,100.345 48.687,103.042 50.446,109.516 44.988,109.516 39.527,109.516 41.289,103.042 "/>
<g>
	<path fill="#056CB4" d="M44.912,15.964h-0.035v8.719h-1.702V12.645h2.373l1.909,7.206h0.034v-7.206h1.686v12.038h-1.943
		L44.912,15.964z"/>
	<path fill="#056CB4" d="M56.917,24.683h-1.909l-0.327-2.184h-2.321l-0.327,2.184h-1.737l1.926-12.038h2.769L56.917,24.683z
		 M55.025,10.203l0.911,0.636c-0.292,0.774-0.774,1.169-1.461,1.169c-0.275,0-0.516-0.052-0.912-0.241
		c-0.275-0.138-0.447-0.189-0.636-0.189c-0.378,0-0.567,0.138-0.74,0.499l-0.911-0.636c0.292-0.774,0.774-1.169,1.461-1.169
		c0.31,0,0.568,0.069,0.912,0.241c0.275,0.138,0.447,0.189,0.636,0.189C54.664,10.702,54.853,10.564,55.025,10.203z M52.6,20.865
		h1.823l-0.894-6.087h-0.035L52.6,20.865z"/>
	<path fill="#056CB4" d="M57.881,15.534c0-1.926,1.015-3.027,2.872-3.027c1.857,0,2.872,1.101,2.872,3.027v6.259
		c0,1.926-1.015,3.027-2.872,3.027c-1.857,0-2.872-1.101-2.872-3.027V15.534z M59.772,21.914c0,0.86,0.378,1.187,0.98,1.187
		c0.602,0,0.98-0.327,0.98-1.187v-6.5c0-0.86-0.378-1.187-0.98-1.187c-0.602,0-0.98,0.327-0.98,1.187V21.914z"/>
	<path fill="#056CB4" d="M74.151,24.683h-1.909l-0.327-2.184h-2.321l-0.327,2.184H67.53l1.926-12.038h2.769L74.151,24.683z
		 M69.834,20.865h1.823l-0.894-6.087h-0.035L69.834,20.865z"/>
	<path fill="#056CB4" d="M48.798,33.92v1.565c0,1.926-0.929,2.975-2.82,2.975h-0.894v4.522h-1.892V30.945h2.786
		C47.87,30.945,48.798,31.994,48.798,33.92z M45.084,32.665v4.076h0.894c0.602,0,0.929-0.275,0.929-1.135v-1.806
		c0-0.86-0.327-1.135-0.929-1.135H45.084z"/>
	<path fill="#056CB4" d="M49.78,33.834c0-1.926,1.015-3.027,2.872-3.027c1.857,0,2.872,1.101,2.872,3.027v6.259
		c0,1.926-1.015,3.027-2.872,3.027c-1.857,0-2.872-1.102-2.872-3.027V33.834z M51.671,40.214c0,0.859,0.378,1.186,0.98,1.186
		c0.602,0,0.98-0.326,0.98-1.186v-6.501c0-0.86-0.378-1.187-0.98-1.187c-0.602,0-0.98,0.327-0.98,1.187V40.214z"/>
	<path fill="#056CB4" d="M62.662,33.713v0.43c0,1.238-0.378,2.012-1.221,2.407v0.035c1.015,0.396,1.41,1.29,1.41,2.562v0.981
		c0,1.856-0.98,2.854-2.872,2.854h-2.975V30.945h2.854C61.819,30.945,62.662,31.856,62.662,33.713z M58.896,32.665v3.181h0.739
		c0.705,0,1.135-0.31,1.135-1.272v-0.671c0-0.859-0.292-1.238-0.963-1.238H58.896z M58.896,37.565v3.698h1.083
		c0.636,0,0.98-0.293,0.98-1.188v-1.048c0-1.118-0.361-1.462-1.221-1.462H58.896z"/>
	<path fill="#056CB4" d="M68.2,42.982c-0.103-0.309-0.172-0.498-0.172-1.479v-1.892c0-1.118-0.378-1.53-1.238-1.53h-0.653v4.9
		h-1.892V30.945H67.1c1.96,0,2.803,0.911,2.803,2.769v0.946c0,1.238-0.396,2.029-1.238,2.425v0.034
		c0.946,0.396,1.255,1.29,1.255,2.545v1.857c0,0.584,0.017,1.014,0.207,1.461H68.2z M66.137,32.665v3.697h0.739
		c0.705,0,1.135-0.31,1.135-1.272v-1.187c0-0.859-0.292-1.238-0.963-1.238H66.137z"/>
	<path fill="#056CB4" d="M73.309,36.018h2.597v1.72h-2.597v3.526h3.267v1.719h-5.159V30.945h5.159v1.72h-3.267V36.018z"/>
	<path fill="#056CB4" d="M83.25,30.945v1.685l-3.594,8.633h3.594v1.719h-5.537v-1.685l3.594-8.633h-3.422v-1.72H83.25z"/>
	<path fill="#056CB4" d="M90.749,42.982h-1.909l-0.327-2.184h-2.321l-0.327,2.184h-1.737l1.926-12.037h2.769L90.749,42.982z
		 M86.432,39.165h1.823l-0.894-6.087h-0.035L86.432,39.165z"/>
</g>
</svg>
