<?xml version="1.0" encoding="utf-8"?>
<!-- Generator: Adobe Illustrator 15.0.0, SVG Export Plug-In . SVG Version: 6.00 Build 0)  -->
<!DOCTYPE svg PUBLIC "-//W3C//DTD SVG 1.1//EN" "http://www.w3.org/Graphics/SVG/1.1/DTD/svg11.dtd">
<svg version="1.1" id="Layer_1" xmlns="http://www.w3.org/2000/svg" xmlns:xlink="http://www.w3.org/1999/xlink" x="0px" y="0px"
	 width="150px" height="150px" viewBox="0 0 150 150" enable-background="new 0 0 150 150" xml:space="preserve">
<rect fill="#E1E1E1" width="150.001" height="150"/>
<polygon fill="#056CB4" points="14.472,19.653 14.472,42.827 19.562,42.827 19.562,12.552 15.499,12.552 10.811,18.046 
	10.811,23.361 10.854,23.361 14.426,19.653 "/>
<path fill="#056CB4" d="M28.181,35.818V19.562c0-1.83,0.669-3.125,2.411-3.125c1.786,0,2.456,1.295,2.456,3.125v16.256
	c0,1.831-0.669,3.122-2.456,3.122C28.85,38.94,28.181,37.649,28.181,35.818 M38.138,35.013V20.366c0-4.734-2.367-8.17-7.546-8.17
	c-5.135,0-7.503,3.437-7.503,8.17v14.647c0,4.687,2.368,8.17,7.503,8.17C35.771,43.183,38.138,39.7,38.138,35.013"/>
<path fill="#056CB4" d="M90.489,99.084H60.505c-0.18,0-0.327,0.147-0.327,0.325v6.794c0,0.185,0.146,0.329,0.327,0.329h29.984
	c0.183,0,0.329-0.145,0.329-0.329V99.41C90.818,99.232,90.671,99.084,90.489,99.084"/>
<path fill="#056CB4" d="M90.818,86.637c0-0.181-0.146-0.325-0.33-0.325H65.632h-5.128c-0.179,0-0.324,0.145-0.324,0.325v2.675v4.119
	c0,0.181,0.145,0.325,0.324,0.325h29.984c0.184,0,0.33-0.145,0.33-0.325V86.637z"/>
<path fill="#056CB4" d="M108.166,89.297c-1.229-4.94-3.469-9.359-6.429-13.116l-0.066,0.051c0.962,1.434,1.825,2.949,2.562,4.553
	c3.889,7.13,5.08,15.737,2.628,24.155c-4.927,16.888-22.605,26.584-39.49,21.658c-7.098-2.07-12.92-6.399-16.925-11.973
	c-2.503-3.222-4.397-6.993-5.444-11.198c-4.006-16.113,5.803-32.424,21.917-36.433c9.966-2.479,19.992,0.346,27.152,6.664
	c0.063,0.058,0.126,0.116,0.19,0.174c0.193,0.145,0.423,0.246,0.685,0.246c0.288,0,0.544-0.116,0.748-0.29l0.12-0.119l3.815-3.767
	l0.253-0.25c0.143-0.193,0.244-0.42,0.244-0.677c0-0.301-0.122-0.566-0.308-0.772c-0.041-0.038-0.083-0.074-0.122-0.11
	c-8.806-7.87-21.21-11.402-33.536-8.337c-19.794,4.926-31.846,24.967-26.92,44.757c2.065,8.295,6.786,15.219,13.028,20.115
	c6.217,5.097,14.136,7.992,22.432,7.905c2.668-0.029,5.374-0.358,8.079-1.032C101.444,126.858,112.811,107.962,108.166,89.297"/>
<g>
	<g>
		<path fill="#056CB4" d="M51.458,24.683c-0.103-0.31-0.172-0.499-0.172-1.479v-1.892c0-1.118-0.378-1.53-1.238-1.53h-0.653v4.901
			h-1.892V12.645h2.854c1.96,0,2.803,0.911,2.803,2.769v0.946c0,1.238-0.396,2.029-1.238,2.425v0.034
			c0.946,0.396,1.255,1.29,1.255,2.545v1.857c0,0.585,0.017,1.015,0.207,1.462H51.458z M49.395,14.365v3.697h0.739
			c0.705,0,1.135-0.31,1.135-1.272v-1.187c0-0.859-0.292-1.238-0.963-1.238H49.395z"/>
		<path fill="#056CB4" d="M56.567,17.718h2.597v1.72h-2.597v3.525h3.267v1.72h-5.159V12.645h5.159v1.72h-3.267V17.718z"/>
		<path fill="#056CB4" d="M61.263,12.645h2.992c1.892,0,2.82,1.049,2.82,2.975v6.087c0,1.926-0.929,2.975-2.82,2.975h-2.992V12.645z
			 M63.154,14.365v8.598h1.066c0.602,0,0.963-0.31,0.963-1.169v-6.259c0-0.86-0.361-1.169-0.963-1.169H63.154z"/>
		<path fill="#056CB4" d="M70.344,12.645v9.286c0,0.86,0.378,1.169,0.98,1.169c0.602,0,0.98-0.31,0.98-1.169v-9.286h1.788v9.166
			c0,1.926-0.963,3.027-2.82,3.027c-1.857,0-2.82-1.101-2.82-3.027v-9.166H70.344z"/>
		<path fill="#056CB4" d="M80.886,12.645v1.685l-3.594,8.633h3.594v1.72h-5.537v-1.685l3.594-8.633h-3.422v-1.72H80.886z"/>
		<path fill="#056CB4" d="M82.264,12.645h1.892v12.038h-1.892V12.645z"/>
		<path fill="#056CB4" d="M89.745,24.683c-0.103-0.31-0.172-0.499-0.172-1.479v-1.892c0-1.118-0.378-1.53-1.238-1.53h-0.653v4.901
			H85.79V12.645h2.854c1.96,0,2.803,0.911,2.803,2.769v0.946c0,1.238-0.396,2.029-1.238,2.425v0.034
			c0.946,0.396,1.255,1.29,1.255,2.545v1.857c0,0.585,0.017,1.015,0.207,1.462H89.745z M87.681,14.365v3.697h0.739
			c0.705,0,1.135-0.31,1.135-1.272v-1.187c0-0.859-0.292-1.238-0.963-1.238H87.681z"/>
		<path fill="#056CB4" d="M47.503,30.945h2.992c1.892,0,2.82,1.049,2.82,2.975v6.087c0,1.926-0.929,2.975-2.82,2.975h-2.992V30.945z
			 M49.395,32.665v8.599h1.066c0.602,0,0.963-0.311,0.963-1.17v-6.259c0-0.86-0.361-1.169-0.963-1.169H49.395z"/>
		<path fill="#056CB4" d="M56.67,36.018h2.597v1.72H56.67v3.526h3.267v1.719h-5.159V30.945h5.159v1.72H56.67V36.018z"/>
		<path fill="#056CB4" d="M63.911,30.807c1.84,0,2.786,1.101,2.786,3.027v0.378h-1.789v-0.499c0-0.86-0.344-1.187-0.946-1.187
			c-0.602,0-0.946,0.327-0.946,1.187c0,0.877,0.378,1.531,1.616,2.614c1.582,1.393,2.081,2.391,2.081,3.766
			c0,1.926-0.963,3.027-2.82,3.027s-2.82-1.102-2.82-3.027v-0.739h1.789v0.86c0,0.859,0.378,1.169,0.98,1.169
			c0.602,0,0.98-0.31,0.98-1.169c0-0.877-0.378-1.531-1.617-2.614c-1.582-1.393-2.081-2.391-2.081-3.766
			C61.125,31.908,62.071,30.807,63.911,30.807z"/>
		<path fill="#056CB4" d="M68.057,30.945h1.892v12.037h-1.892V30.945z"/>
		<path fill="#056CB4" d="M74.42,36.276h2.648v3.817c0,1.926-0.963,3.027-2.82,3.027c-1.857,0-2.82-1.102-2.82-3.027v-6.259
			c0-1.926,0.963-3.027,2.82-3.027c1.857,0,2.82,1.101,2.82,3.027v1.169H75.28v-1.29c0-0.86-0.378-1.187-0.98-1.187
			c-0.602,0-0.98,0.327-0.98,1.187v6.501c0,0.859,0.378,1.169,0.98,1.169c0.602,0,0.98-0.31,0.98-1.169v-2.219h-0.86V36.276z"/>
		<path fill="#056CB4" d="M80.354,30.945v9.286c0,0.86,0.378,1.169,0.98,1.169c0.602,0,0.98-0.309,0.98-1.169v-9.286h1.788v9.166
			c0,1.926-0.963,3.026-2.82,3.026c-1.857,0-2.82-1.101-2.82-3.026v-9.166H80.354z"/>
		<path fill="#056CB4" d="M91.774,42.982h-1.909l-0.327-2.184h-2.321l-0.327,2.184h-1.737l1.926-12.037h2.769L91.774,42.982z
			 M87.458,39.165h1.823l-0.894-6.087h-0.035L87.458,39.165z"/>
		<path fill="#056CB4" d="M92.91,30.945h1.892v10.318h3.112v1.719H92.91V30.945z"/>
		<path fill="#056CB4" d="M98.998,30.945h2.992c1.893,0,2.82,1.049,2.82,2.975v6.087c0,1.926-0.928,2.975-2.82,2.975h-2.992V30.945z
			 M100.891,32.665v8.599h1.065c0.603,0,0.964-0.311,0.964-1.17v-6.259c0-0.86-0.361-1.169-0.964-1.169H100.891z"/>
		<path fill="#056CB4" d="M112.379,42.982h-1.908l-0.327-2.184h-2.321l-0.327,2.184h-1.737l1.927-12.037h2.769L112.379,42.982z
			 M108.062,39.165h1.823l-0.894-6.087h-0.035L108.062,39.165z"/>
		<path fill="#056CB4" d="M113.516,30.945h2.992c1.892,0,2.82,1.049,2.82,2.975v6.087c0,1.926-0.929,2.975-2.82,2.975h-2.992V30.945
			z M115.407,32.665v8.599h1.065c0.603,0,0.964-0.311,0.964-1.17v-6.259c0-0.86-0.361-1.169-0.964-1.169H115.407z"/>
		<path fill="#056CB4" d="M122.683,36.018h2.597v1.72h-2.597v3.526h3.267v1.719h-5.158V30.945h5.158v1.72h-3.267V36.018z"/>
		<path fill="#056CB4" d="M129.924,30.807c1.84,0,2.785,1.101,2.785,3.027v0.378h-1.788v-0.499c0-0.86-0.345-1.187-0.946-1.187
			s-0.945,0.327-0.945,1.187c0,0.877,0.379,1.531,1.616,2.614c1.582,1.393,2.081,2.391,2.081,3.766c0,1.926-0.963,3.027-2.82,3.027
			s-2.82-1.102-2.82-3.027v-0.739h1.789v0.86c0,0.859,0.378,1.169,0.979,1.169c0.603,0,0.98-0.31,0.98-1.169
			c0-0.877-0.378-1.531-1.616-2.614c-1.582-1.393-2.081-2.391-2.081-3.766C127.138,31.908,128.084,30.807,129.924,30.807z"/>
	</g>
</g>
</svg>
