<?xml version="1.0" encoding="utf-8"?>
<!-- Generator: Adobe Illustrator 16.0.0, SVG Export Plug-In . SVG Version: 6.00 Build 0)  -->
<!DOCTYPE svg PUBLIC "-//W3C//DTD SVG 1.1//EN" "http://www.w3.org/Graphics/SVG/1.1/DTD/svg11.dtd">
<svg version="1.1" xmlns="http://www.w3.org/2000/svg" xmlns:xlink="http://www.w3.org/1999/xlink" x="0px" y="0px" width="623px"
	 height="384.5px" viewBox="0 0 623 384.5" enable-background="new 0 0 623 384.5" xml:space="preserve">
<g id="Layer_1">
	<path fill="#00848F" d="M81.6,192.2c0-0.1,0-0.1,0-0.2H15.4c0,0.1,0,0.1,0,0.2c0,98.7,79.8,178.7,178.4,179V305
		C131.7,304.7,81.6,254.3,81.6,192.2z"/>
	<g>
		<path fill="#009CE1" d="M373.5,192h-66.2c0,0.1,0,0.1,0,0.2c0,62.3-50.5,112.9-112.9,112.9c-0.2,0-0.4,0-0.6,0v66.2
			c0.2,0,0.4,0,0.6,0c98.9,0,179.1-80.2,179.1-179.1C373.5,192.1,373.5,192,373.5,192z"/>
		<polygon fill="#009CE1" points="194.1,384.3 194.1,288.6 154.7,336.5 		"/>
	</g>
	<path fill="#00848F" d="M194.4,79.3c62.3,0,112.8,50.4,112.9,112.7h66.2c-0.1-98.8-80.2-178.9-179-178.9c-0.2,0-0.4,0-0.6,0v66.2
		C194,79.3,194.2,79.3,194.4,79.3z"/>
	<polygon fill="#00848F" points="386.6,191.8 290.9,191.8 338.7,231.2 	"/>
	<path fill="#009CE1" d="M15.4,192h66.2c0.1-62,50.2-112.3,112.2-112.7V13.1C95.2,13.5,15.4,93.4,15.4,192z"/>
	<polygon fill="#009CE1" points="193,0 193,95.7 232.4,47.8 	"/>
	<polygon fill="#00848F" points="2.3,192.9 97.9,192.9 50.1,153.4 	"/>
</g>
<g id="Layer_5">
	<g>
		<g>
			<g>
				<path fill="#FFFFFF" d="M62.4,146.2l-1-1.4c0.8-0.3,1.6-1,2-2.1c0.3-0.9,0.1-1.5-0.4-1.7c-1.4-0.5-2.1,4.4-5.1,3.3
					c-1.3-0.5-2-2-1.3-3.9c0.5-1.3,1.2-2.1,2.2-2.7l0.9,1.4c-0.8,0.4-1.4,1.2-1.7,2c-0.3,0.7-0.1,1.2,0.4,1.4c1.2,0.5,2.1-4.4,5-3.3
					c1.4,0.5,2.1,2,1.3,4.1C64.4,144.9,63.4,145.8,62.4,146.2z"/>
				<path fill="#FFFFFF" d="M67.2,137.4l-6.3-2.7l-1,2.3l-1.4-0.6l2.7-6.1l1.4,0.6l-1,2.2l6.3,2.7L67.2,137.4z"/>
				<path fill="#FFFFFF" d="M69.4,132.5l-7.6-3.7l0.8-1.6l7.6,3.7L69.4,132.5z"/>
				<path fill="#FFFFFF" d="M66.9,127.8c-2.3-1.3-2.9-3.8-1.7-6c0.8-1.5,2.1-2.1,3.3-2.2l0,1.7c-0.7,0.1-1.5,0.5-1.9,1.2
					c-0.7,1.4-0.2,2.9,1.2,3.6c1.4,0.8,3,0.3,3.7-1c0.4-0.7,0.4-1.4,0.3-1.9l-0.9-0.5l-1.1,1.9l-1.4-0.7l1.9-3.5l2.8,1.5
					c0.4,1.2,0.4,2.6-0.3,3.9C71.7,128.1,69.2,129.1,66.9,127.8z"/>
				<path fill="#FFFFFF" d="M79,115.5l-5.1-3.3l3.8,5.2l-0.4,0.7l-6.4-1.3l5.1,3.3l-1,1.5l-7.1-4.5l1.3-2.1l5.5,1.1l-3.3-4.5
					l1.4-2.1l7.1,4.5L79,115.5z"/>
				<path fill="#FFFFFF" d="M84.3,108.1l-1.5-0.4l-2.1,2.9l0.8,1.3l-1.2,1.6l-4.8-7.6l1.3-1.8l8.7,2.4L84.3,108.1z M77.6,106
					l2.1,3.2l1.6-2.1L77.6,106z"/>
				<path fill="#FFFFFF" d="M87.2,104.5l-5.3-4.4l-1.6,1.9l-1.2-1l4.3-5.2l1.2,1L83,98.7l5.3,4.4L87.2,104.5z"/>
				<path fill="#FFFFFF" d="M90.6,100.4l-6.3-5.6l1.2-1.3l6.3,5.6L90.6,100.4z"/>
				<path fill="#FFFFFF" d="M91.6,97.5l-0.3-1.7c0.9,0,1.9-0.3,2.7-1.1c0.7-0.7,0.7-1.4,0.3-1.7c-1-1-3.7,3.2-6,1
					c-1-1-1-2.7,0.4-4.1c0.9-1,2-1.5,3.1-1.5l0.3,1.6c-0.9,0-1.8,0.5-2.4,1.1c-0.5,0.5-0.6,1.1-0.2,1.4c0.9,0.9,3.7-3.2,5.9-1
					c1.1,1.1,1.2,2.7-0.4,4.3C93.9,97,92.7,97.5,91.6,97.5z"/>
				<path fill="#FFFFFF" d="M102.3,88.7L101,88l-2.7,2.4l0.6,1.4l-1.5,1.4l-3.3-8.4l1.7-1.5l8.1,4L102.3,88.7z M96.1,85.4l1.5,3.6
					l1.9-1.8L96.1,85.4z"/>
				<path fill="#FFFFFF" d="M105.8,85.7l-4.3-5.3l-1.9,1.6l-1-1.2l5.2-4.2l1,1.2l-1.9,1.6l4.3,5.3L105.8,85.7z"/>
				<path fill="#FFFFFF" d="M110,82.4l-5.1-6.7l1.4-1.1l5.1,6.7L110,82.4z"/>
				<path fill="#FFFFFF" d="M109.9,77.1c-1.4-2.1-0.9-4.6,1.2-6.1c2.1-1.4,4.6-1,6.1,1.1c1.4,2.1,0.9,4.6-1.2,6.1
					C113.9,79.6,111.3,79.2,109.9,77.1z M115.6,73.1c-0.9-1.3-2.4-1.7-3.7-0.8c-1.3,0.9-1.4,2.4-0.5,3.7c0.9,1.3,2.4,1.7,3.7,0.8
					C116.4,76,116.5,74.4,115.6,73.1z"/>
				<path fill="#FFFFFF" d="M125.5,72l-6.2-2.7L122,74l-1.5,0.9l-4.3-7.2l1.6-0.9l6,2.6l-2.7-4.5l1.5-0.9l4.3,7.2L125.5,72z"/>
				<path fill="#FFFFFF" d="M131.1,68.9l-3.7-7.6l5.3-2.6l0.7,1.4l-3.7,1.8l0.8,1.6l3.7-1.8l0.7,1.4l-3.7,1.8l0.8,1.7l3.7-1.8
					l0.7,1.4L131.1,68.9z"/>
				<path fill="#FFFFFF" d="M139.4,65l-2.7-6.3l-2.3,1l-0.6-1.5l6.2-2.6l0.6,1.5l-2.3,1l2.7,6.3L139.4,65z"/>
				<path fill="#FFFFFF" d="M147.3,61.9l-2.7-8l5.6-1.9l0.5,1.5l-3.9,1.3l0.6,1.7l3.9-1.3l0.5,1.5l-3.9,1.3l0.6,1.8l3.9-1.3l0.5,1.5
					L147.3,61.9z"/>
				<path fill="#FFFFFF" d="M159.4,58.1l-2.9-2.4l-1.2,3.5l-2.1,0.6l1.8-5l-3.9-3.2l2.1-0.6l2.6,2.2l1.1-3.3l2.1-0.6l-1.7,4.7
					l4.1,3.3L159.4,58.1z"/>
				<path fill="#FFFFFF" d="M160.9,53.4c-0.5-2.5,1-4.7,3.5-5.2c1.8-0.4,3.1,0.4,3.9,1.3l-1.3,1.1c-0.5-0.6-1.3-1-2.2-0.8
					c-1.5,0.3-2.3,1.7-2,3.2c0.3,1.6,1.7,2.5,3.2,2.1c0.8-0.2,1.5-0.9,1.7-1.6l1.7,0.4c-0.4,1.1-1.2,2.4-3,2.7
					C163.7,57.2,161.4,55.9,160.9,53.4z"/>
				<path fill="#FFFFFF" d="M170.4,55.7l-1.3-8.3l1.8-0.3l1.1,6.8l3.5-0.6l0.2,1.6L170.4,55.7z"/>
				<path fill="#FFFFFF" d="M176.4,51.3l-0.5-5l1.8-0.2l0.5,5c0.1,1.2,0.9,1.9,2.2,1.8c1.3-0.1,1.9-1,1.8-2.2l-0.5-5l1.8-0.2l0.5,5
					c0.2,2.1-0.9,3.6-3.4,3.9C178,54.7,176.6,53.4,176.4,51.3z"/>
				<path fill="#FFFFFF" d="M185.2,52.7l0.9-1.4c0.6,0.6,1.6,1.1,2.7,1c1,0,1.4-0.5,1.4-1c-0.1-1.5-4.9-0.2-5-3.4
					c-0.1-1.4,1.1-2.6,3.1-2.7c1.3-0.1,2.5,0.3,3.3,1l-0.9,1.4c-0.7-0.6-1.6-0.9-2.5-0.8c-0.8,0-1.2,0.4-1.1,0.9
					c0.1,1.3,4.8,0.2,5,3.4c0.1,1.5-1,2.7-3.3,2.8C187.2,54,186.1,53.5,185.2,52.7z"/>
				<path fill="#FFFFFF" d="M193.3,53.6l0-8.4h1.8l0,8.4H193.3z"/>
				<path fill="#FFFFFF" d="M196.5,49.4c0.1-2.5,2.1-4.3,4.6-4.1c2.5,0.1,4.3,2,4.2,4.5c-0.1,2.5-2.1,4.3-4.6,4.1
					C198.1,53.8,196.4,51.9,196.5,49.4z M203.4,49.7c0.1-1.6-0.9-2.8-2.4-2.9c-1.6-0.1-2.6,1.1-2.7,2.6c-0.1,1.6,0.9,2.8,2.4,2.9
					C202.3,52.4,203.3,51.3,203.4,49.7z"/>
				<path fill="#FFFFFF" d="M211.9,54.8l-3.4-5.9l-0.6,5.4l-1.8-0.2l1-8.3L209,46l3.3,5.7l0.6-5.2l1.8,0.2l-1,8.3L211.9,54.8z"/>
			</g>
		</g>
		<g>
			<g>
				<path fill="#FFFFFF" d="M54,136.3l-3.3-1.3l-1.4,3.7l3.3,1.3l-0.6,1.7l-7.9-3l0.6-1.7l3.1,1.2l1.4-3.7l-3.1-1.2l0.6-1.7l7.9,3
					L54,136.3z"/>
				<path fill="#FFFFFF" d="M57.6,128l-1.5-0.1l-1.5,3.3l1.1,1.1l-0.8,1.9l-6.3-6.4l0.9-2l9,0.5L57.6,128z M50.6,127.4l2.8,2.7
					l1.1-2.4L50.6,127.4z"/>
				<path fill="#FFFFFF" d="M61.4,120.4l-6.7,1l4.9,2.5l-0.8,1.6l-7.5-3.9l0.8-1.6l6.5-1l-4.7-2.4l0.8-1.6l7.5,3.9L61.4,120.4z"/>
				<path fill="#FFFFFF" d="M63,117.5l-7.2-4.3l1.7-2.8c1.4-2.3,3.7-3,5.9-1.7c2.2,1.3,2.7,3.7,1.3,6L63,117.5z M62.4,110.3
					c-1.3-0.8-2.7-0.6-3.6,0.9l-0.8,1.3l4.5,2.7l0.8-1.3C64.2,112.4,63.6,111,62.4,110.3z"/>
				<path fill="#FFFFFF" d="M67.6,109.9l-7-4.6l1-1.5l7,4.6L67.6,109.9z"/>
				<path fill="#FFFFFF" d="M65.8,105c-2.1-1.5-2.4-4.1-0.9-6.2c1.1-1.5,2.5-1.8,3.7-1.7l-0.3,1.7c-0.8-0.1-1.6,0.2-2.1,0.9
					c-0.9,1.2-0.6,2.8,0.7,3.8c1.3,0.9,2.9,0.7,3.8-0.5c0.5-0.7,0.5-1.6,0.1-2.3l1.5-0.8c0.5,1.1,0.7,2.6-0.4,4
					C70.5,105.9,67.9,106.5,65.8,105z"/>
				<path fill="#FFFFFF" d="M78.1,95.6l-1.4-0.5l-2.3,2.8l0.8,1.3l-1.3,1.6L69.4,93l1.4-1.7l8.6,2.7L78.1,95.6z M71.5,93.3l2,3.3
					l1.6-2L71.5,93.3z"/>
				<path fill="#FFFFFF" d="M79.8,93.6l-6.2-5.6l2.6-2.9c1.2-1.4,2.8-1.3,3.9-0.3c1.1,1,1.3,2.6,0.1,3.9l-1.4,1.6l2.2,2L79.8,93.6z
					 M78.9,86.1c-0.5-0.5-1.2-0.4-1.7,0.2L76,87.7l1.7,1.5l1.3-1.4C79.4,87.2,79.4,86.6,78.9,86.1z"/>
				<path fill="#FFFFFF" d="M86.7,88.6l-0.9,0.1c0.1-0.4,0.1-1.1-0.2-1.5c0,0-0.1,0.1-0.1,0.2c-0.3,0.3-0.9,0.4-1.2,0
					c-0.4-0.4-0.4-1,0-1.4c0.4-0.4,1.1-0.5,1.7,0.1C86.6,86.7,86.9,87.7,86.7,88.6z"/>
				<path fill="#FFFFFF" d="M89.6,83.3l-5.7-6.2l4.4-4l1.1,1.2l-3.1,2.8l1.2,1.3l3-2.8l1.1,1.2l-3,2.8l2.4,2.6L89.6,83.3z"/>
				<path fill="#FFFFFF" d="M98.4,75.5l-3.2-1.2l-1,0.8l1.9,2.3l-1.4,1.2l-5.4-6.4l3-2.5c1.3-1.1,2.9-0.9,3.9,0.3
					c0.9,1.1,0.7,2.4,0.2,3.1l3.5,1.2L98.4,75.5z M94.9,71c-0.4-0.5-1.1-0.5-1.7-0.1l-1.4,1.2l1.5,1.7l1.4-1.2
					C95.2,72.2,95.3,71.5,94.9,71z"/>
				<path fill="#FFFFFF" d="M105.6,69.9l-1.3-0.8l-2.9,2.2l0.4,1.5l-1.6,1.2l-2.5-8.7l1.8-1.3l7.6,4.8L105.6,69.9z M99.7,66l1.1,3.7
					l2.1-1.6L99.7,66z"/>
				<path fill="#FFFFFF" d="M107.8,68.4l-4.8-6.9l1.5-1l4.8,6.9L107.8,68.4z"/>
				<path fill="#FFFFFF" d="M109.4,65.7l0.1-1.7c0.8,0.2,1.9,0.2,2.9-0.5c0.8-0.5,1-1.2,0.7-1.6c-0.8-1.2-4.3,2.2-6-0.4
					c-0.8-1.2-0.4-2.8,1.3-3.9c1.1-0.7,2.3-1,3.4-0.8l-0.1,1.7c-0.9-0.2-1.8,0.1-2.6,0.5c-0.6,0.4-0.8,0.9-0.6,1.3
					c0.7,1.1,4.3-2.2,6,0.4c0.8,1.3,0.5,2.9-1.4,4.1C111.8,65.8,110.5,66,109.4,65.7z"/>
				<path fill="#FFFFFF" d="M126,57.4l-2.8-5.4l0.8,6.5l-0.7,0.4l-4.9-4.2l2.8,5.4l-1.6,0.8l-3.9-7.4l2.2-1.2l4.3,3.7l-0.7-5.6
					l2.2-1.2l3.9,7.4L126,57.4z"/>
				<path fill="#FFFFFF" d="M129,55.9l-3.5-7.6l5.4-2.5l0.7,1.4l-3.8,1.7l0.7,1.6l3.7-1.7l0.7,1.4l-3.7,1.7l0.8,1.7l3.8-1.7l0.7,1.4
					L129,55.9z M128,46.3l-1,0.5l0.8-2.4l1.3-0.6L128,46.3z"/>
				<path fill="#FFFFFF" d="M135.6,52.9l-3.1-7.8l3.1-1.2c2.5-1,4.8-0.1,5.7,2.3c0.9,2.4-0.2,4.6-2.6,5.5L135.6,52.9z M139.6,46.8
					c-0.5-1.4-1.8-2.1-3.4-1.5l-1.4,0.6l1.9,4.9l1.4-0.6C139.7,49.6,140.1,48.2,139.6,46.8z"/>
				<path fill="#FFFFFF" d="M143.9,49.7l-2.8-7.9l1.7-0.6l2.8,7.9L143.9,49.7z"/>
				<path fill="#FFFFFF" d="M145.5,44.7c-0.8-2.5,0.6-4.7,3-5.5c1.8-0.5,3.1,0.1,4,0.9l-1.2,1.2c-0.5-0.5-1.4-0.8-2.2-0.6
					c-1.5,0.4-2.2,1.9-1.7,3.4c0.5,1.5,1.9,2.3,3.3,1.9c0.8-0.2,1.4-1,1.5-1.7l1.7,0.3c-0.3,1.2-1,2.5-2.8,3
					C148.7,48.3,146.3,47.2,145.5,44.7z"/>
				<path fill="#FFFFFF" d="M161,44.8l-0.9-1.3l-3.5,0.9l-0.2,1.5l-2,0.5l1.2-8.9l2.2-0.5l5.1,7.4L161,44.8z M157.1,38.9l-0.4,3.8
					l2.5-0.6L157.1,38.9z"/>
				<path fill="#FFFFFF" d="M163,40.9l-0.9-5l1.8-0.3l0.9,4.9c0.2,1.2,1,1.8,2.3,1.6c1.3-0.2,1.8-1.1,1.6-2.3l-0.9-4.9l1.8-0.3
					l0.9,5c0.4,2-0.6,3.7-3.1,4.1C164.8,44.1,163.3,42.9,163,40.9z"/>
				<path fill="#FFFFFF" d="M178,41.9l-2.5-2.8l-1.7,3.3l-2.1,0.3l2.5-4.6l-3.3-3.7l2.1-0.3l2.3,2.6l1.5-3.1l2.1-0.3l-2.3,4.4
					l3.6,3.9L178,41.9z"/>
				<path fill="#FFFFFF" d="M181.5,43.3l-0.7-0.5c0.4-0.2,0.8-0.8,0.9-1.3c0,0-0.1,0-0.2,0.1c-0.5,0-0.9-0.3-0.9-0.8
					c0-0.6,0.4-1,0.9-1.1c0.6,0,1.2,0.4,1.2,1.2C182.7,41.8,182.3,42.7,181.5,43.3z"/>
			</g>
		</g>
	</g>
</g>
<g id="Layer_2">
	<g>
		<g>
			<path fill="#FFFFFF" d="M244.6,52.6l0-1.5l-3.4-1.2l-1,1.2l-1.9-0.7l5.8-6.9l2.1,0.7l0.4,9L244.6,52.6z M244.5,45.6l-2.4,3
				l2.5,0.8L244.5,45.6z"/>
			<path fill="#FFFFFF" d="M247.1,53.5l3.2-7.8l4.1,1.7c1.5,0.6,1.9,1.9,1.4,2.9c-0.4,1-1.3,1.4-2.1,1.2c0.8,0.5,1.1,1.5,0.7,2.5
				c-0.5,1.2-1.6,1.8-3.1,1.2L247.1,53.5z M252.8,53.1c0.2-0.5,0-1-0.6-1.3l-2.1-0.9l-0.7,1.8l2.1,0.9
				C252.1,53.9,252.6,53.7,252.8,53.1z M254,49.9c0.2-0.5,0-1-0.6-1.2l-2.1-0.8l-0.7,1.6l2.1,0.8C253.3,50.6,253.8,50.4,254,49.9z"
				/>
			<path fill="#FFFFFF" d="M254.7,55.4l1.5-0.8c0.3,0.8,0.9,1.7,1.9,2.2c0.9,0.4,1.5,0.2,1.7-0.2c0.6-1.3-4.2-2.5-2.9-5.3
				c0.6-1.3,2.2-1.8,4-1c1.2,0.6,2,1.4,2.5,2.5l-1.5,0.8c-0.3-0.9-1-1.5-1.8-1.9c-0.7-0.3-1.2-0.2-1.4,0.2c-0.6,1.2,4.2,2.4,2.9,5.3
				c-0.7,1.4-2.1,2-4.2,1C255.9,57.4,255.1,56.4,254.7,55.4z"/>
			<path fill="#FFFFFF" d="M261.5,59.9l3.9-7.4l5.3,2.8l-0.7,1.4l-3.7-2l-0.8,1.6l3.6,1.9l-0.7,1.4l-3.6-1.9l-0.9,1.7l3.7,2
				l-0.7,1.4L261.5,59.9z"/>
			<path fill="#FFFFFF" d="M272.8,66.3l-0.6-6.8l-2.8,4.7l-1.5-0.9l4.3-7.2l1.6,1l0.6,6.5l2.7-4.5l1.5,0.9l-4.3,7.2L272.8,66.3z"/>
			<path fill="#FFFFFF" d="M277.6,64.3c1.5-2.1,4.1-2.5,6.2-1c1.5,1,1.8,2.5,1.7,3.7l-1.7-0.2c0.1-0.8-0.2-1.6-0.9-2.1
				c-1.3-0.9-2.8-0.5-3.7,0.8s-0.6,2.9,0.6,3.8c0.7,0.5,1.6,0.5,2.3,0.1l0.8,1.5c-1.1,0.5-2.5,0.8-4.1-0.3
				C276.7,69,276.1,66.4,277.6,64.3z"/>
			<path fill="#FFFFFF" d="M282.5,72.9l5.1-6.7l4.7,3.6l-1,1.2l-3.3-2.5l-1.1,1.4l3.2,2.5l-1,1.2l-3.2-2.5l-1.2,1.5l3.3,2.5l-1,1.2
				L282.5,72.9z"/>
			<path fill="#FFFFFF" d="M290.7,79.4l5.6-6.2l2.5,2.2c2,1.8,2.2,4.2,0.5,6.1c-1.7,1.9-4.2,1.9-6.1,0.2L290.7,79.4z M297.9,80.2
				c1-1.1,1.1-2.6-0.2-3.7l-1.1-1l-3.5,3.9l1.1,1C295.5,81.5,297,81.3,297.9,80.2z"/>
			<path fill="#FFFFFF" d="M297.3,85.4l6-5.9l4.2,4.2l-1.1,1.1l-2.9-2.9l-1.2,1.2l2.9,2.9l-1.1,1.1l-2.9-2.9l-1.4,1.4l2.9,2.9
				l-1.1,1.1L297.3,85.4z"/>
			<path fill="#FFFFFF" d="M305.1,91.7l1.7-0.2c-0.1,0.9,0.1,1.9,0.9,2.8c0.7,0.8,1.3,0.8,1.7,0.5c1.1-1-2.8-3.9-0.4-6
				c1.1-0.9,2.7-0.8,4,0.7c0.9,1,1.3,2.1,1.3,3.2l-1.7,0.1c0-0.9-0.3-1.8-0.9-2.5c-0.5-0.6-1-0.7-1.4-0.4c-1,0.9,2.8,3.9,0.5,6
				c-1.2,1-2.8,0.9-4.2-0.8C305.3,94,305,92.8,305.1,91.7z"/>
			<path fill="#FFFFFF" d="M309.4,98.6l6.6-5.2l3.7,4.7l-1.2,1l-2.6-3.3l-1.4,1.1l2.5,3.2l-1.2,1l-2.5-3.2l-1.5,1.2l2.6,3.3l-1.2,1
				L309.4,98.6z"/>
			<path fill="#FFFFFF" d="M316.6,108.2l1.5-3.1l-0.8-1.1l-2.4,1.7l-1-1.5l6.9-4.8l2.3,3.2c1,1.4,0.7,3-0.6,3.9
				c-1.2,0.8-2.4,0.5-3.1-0.1l-1.5,3.4L316.6,108.2z M321.3,105c0.6-0.4,0.6-1.1,0.2-1.7l-1.1-1.5l-1.9,1.3l1.1,1.5
				C320.1,105.2,320.7,105.4,321.3,105z"/>
			<path fill="#FFFFFF" d="M319.6,112.8l5.4-7.2l1.1,1.7l-4.2,5.4l6.7-1.4l1.1,1.7l-8.8,1.7L319.6,112.8z"/>
			<path fill="#FFFFFF" d="M322.8,118.1l7.3-4.2l0.9,1.6l-7.3,4.2L322.8,118.1z"/>
			<path fill="#FFFFFF" d="M328,118.7c2.3-1.2,4.8-0.3,5.9,2c0.8,1.6,0.5,3-0.2,4.1l-1.4-1c0.4-0.6,0.6-1.5,0.2-2.3
				c-0.7-1.4-2.3-1.8-3.7-1.1c-1.4,0.7-1.9,2.3-1.2,3.6c0.4,0.8,1.2,1.2,2,1.2l0,1.7c-1.2,0-2.6-0.5-3.4-2.2
				C325.1,122.5,325.8,119.9,328,118.7z"/>
			<path fill="#FFFFFF" d="M328.4,128.6l7.7-3.5l2.4,5.4l-1.4,0.6l-1.7-3.8l-1.6,0.7l1.7,3.7l-1.4,0.6l-1.7-3.7l-1.7,0.8l1.7,3.8
				l-1.4,0.6L328.4,128.6z"/>
			<path fill="#FFFFFF" d="M332.2,134.3l1.7,0.4c-0.4,0.8-0.5,1.8-0.1,2.9c0.4,0.9,0.9,1.2,1.4,1c1.4-0.5-1.4-4.7,1.6-5.8
				c1.3-0.5,2.8,0.2,3.5,2c0.5,1.2,0.5,2.4,0.1,3.5l-1.6-0.4c0.3-0.9,0.3-1.8,0-2.6c-0.3-0.7-0.7-1-1.2-0.8
				c-1.2,0.5,1.4,4.6-1.6,5.8c-1.4,0.6-2.9,0-3.7-2.1C331.7,136.6,331.8,135.3,332.2,134.3z"/>
			<path fill="#FFFFFF" d="M335.1,145.2l8-2.5l1.8,5.7l-1.5,0.5l-1.2-4l-1.7,0.5l1.2,3.9l-1.5,0.5l-1.2-3.9l-1.8,0.6l1.2,4l-1.5,0.5
				L335.1,145.2z"/>
			<path fill="#FFFFFF" d="M338.2,151.3l1.6,0.6c-0.4,0.7-0.7,1.8-0.4,2.9c0.2,1,0.8,1.3,1.3,1.2c1.4-0.4-0.8-4.8,2.3-5.6
				c1.4-0.4,2.8,0.5,3.3,2.4c0.3,1.3,0.2,2.5-0.3,3.5l-1.5-0.6c0.4-0.8,0.5-1.8,0.3-2.6c-0.2-0.7-0.6-1.1-1.1-0.9
				c-1.3,0.3,0.8,4.8-2.2,5.6c-1.5,0.4-2.9-0.4-3.5-2.6C337.4,153.5,337.6,152.2,338.2,151.3z"/>
			<path fill="#FFFFFF" d="M340.1,158.5l1.6,0.7c-0.5,0.7-0.8,1.7-0.6,2.8c0.2,1,0.7,1.3,1.2,1.2c1.4-0.3-0.5-4.8,2.6-5.5
				c1.4-0.3,2.7,0.7,3.2,2.6c0.3,1.3,0.1,2.5-0.5,3.4l-1.5-0.7c0.5-0.8,0.6-1.7,0.4-2.6c-0.2-0.7-0.6-1.1-1.1-1
				c-1.3,0.3,0.6,4.8-2.5,5.4c-1.5,0.3-2.9-0.5-3.3-2.7C339.2,160.7,339.4,159.5,340.1,158.5z"/>
			<path fill="#FFFFFF" d="M340.5,166.6l8.3-1.3l0.9,5.9l-1.6,0.2l-0.6-4.1l-1.7,0.3l0.6,4l-1.6,0.2l-0.6-4l-1.9,0.3l0.6,4.1
				l-1.6,0.2L340.5,166.6z"/>
			<path fill="#FFFFFF" d="M342.1,179.6l5.1-4.5l-5.5,0.5l-0.2-1.8l8.4-0.8l0.2,1.8l-4.9,4.4l5.3-0.5l0.2,1.8l-8.4,0.8L342.1,179.6z
				"/>
			<path fill="#FFFFFF" d="M342.5,184.8l6.8-0.3l-0.1-2.5l1.6-0.1l0.3,6.7l-1.6,0.1l-0.1-2.4l-6.8,0.3L342.5,184.8z"/>
			<path fill="#FFFFFF" d="M342.6,190l8.4-0.1l0,1.8l-8.4,0.1L342.6,190z"/>
			<path fill="#FFFFFF" d="M342.7,193.4l8.4,0.2l-0.2,5.9l-1.6,0l0.1-4.2l-1.8-0.1l-0.1,4.1l-1.6,0l0.1-4.1l-1.9-0.1l-0.1,4.2
				l-1.6,0L342.7,193.4z"/>
			<path fill="#FFFFFF" d="M342.4,200.6l8.4,0.6l-0.1,1.8l-6.8-0.5l-0.3,3.5l-1.6-0.1L342.4,200.6z"/>
			<path fill="#FFFFFF" d="M343.2,206.6l1.3,1.1c-0.7,0.5-1.3,1.4-1.5,2.5c-0.1,1,0.3,1.5,0.7,1.6c1.5,0.2,1-4.7,4.2-4.4
				c1.4,0.2,2.4,1.5,2.2,3.5c-0.2,1.3-0.7,2.4-1.6,3.1l-1.2-1.2c0.7-0.6,1.1-1.5,1.2-2.3c0.1-0.8-0.2-1.2-0.7-1.3
				c-1.3-0.2-1,4.7-4.1,4.4c-1.5-0.2-2.5-1.4-2.3-3.7C341.6,208.4,342.3,207.3,343.2,206.6z"/>
		</g>
	</g>
	<g>
		<g>
			<path fill="#FFFFFF" d="M243.3,38.1l2.7-8l3.7,1.3c1.7,0.6,2.3,2.1,1.8,3.5c-0.5,1.4-1.8,2.2-3.5,1.7l-2-0.7l-1,2.8L243.3,38.1z
				 M249.8,34.3c0.2-0.7-0.2-1.2-0.8-1.5l-1.8-0.6l-0.7,2.1l1.8,0.6C248.9,35.2,249.6,35,249.8,34.3z"/>
			<path fill="#FFFFFF" d="M256,42.8l0-1.5l-3.4-1.3l-1,1.1l-1.9-0.7l6.1-6.6l2.1,0.8l-0.1,9L256,42.8z M256.3,35.7l-2.5,2.9l2.4,1
				L256.3,35.7z"/>
			<path fill="#FFFFFF" d="M259.9,40.7l2.1-4.6l1.6,0.8l-2.1,4.5c-0.5,1.1-0.2,2.1,1,2.6c1.2,0.5,2.1,0.1,2.6-1l2.1-4.5l1.7,0.8
				l-2.1,4.6c-0.9,1.9-2.6,2.7-4.9,1.6C259.6,44.4,259.1,42.6,259.9,40.7z"/>
			<path fill="#FFFFFF" d="M268.9,48.7l1.1-8.9l1.8,0.9l-0.9,6.8l5.1-4.6l1.8,0.9l-6.8,5.9L268.9,48.7z"/>
			<path fill="#FFFFFF" d="M278.4,54.1l0.1-3.4l-1.1-0.7l-1.5,2.6l-1.5-0.9l4.3-7.2l3.4,2c1.5,0.9,1.8,2.4,1.1,3.8
				c-0.8,1.3-2,1.5-2.9,1.2l0,3.7L278.4,54.1z M281.5,49.3c0.4-0.6,0.1-1.2-0.5-1.6l-1.6-1l-1.2,1.9l1.6,1
				C280.4,50,281.1,49.9,281.5,49.3z"/>
			<path fill="#FFFFFF" d="M281.2,55.8l4.6-7l5,3.3l-0.9,1.3l-3.5-2.3l-1,1.5l3.4,2.2l-0.9,1.3l-3.4-2.2l-1.1,1.6l3.5,2.3l-0.9,1.3
				L281.2,55.8z"/>
			<path fill="#FFFFFF" d="M288.8,60.9l4-5.5l-2-1.4l0.9-1.3l5.4,3.9l-0.9,1.3l-2-1.4l-4,5.5L288.8,60.9z"/>
			<path fill="#FFFFFF" d="M293,64.1l5.2-6.6l4.6,3.7l-1,1.2l-3.2-2.6l-1.1,1.4l3.2,2.5l-1,1.2l-3.2-2.5l-1.2,1.5l3.2,2.6l-1,1.2
				L293,64.1z M301.1,58.8l-0.9-0.7l2.5-0.4l1.2,0.9L301.1,58.8z"/>
			<path fill="#FFFFFF" d="M298,70.4l-0.2-0.9c0.4,0.1,1.1,0,1.5-0.3c0,0-0.1-0.1-0.2-0.1c-0.4-0.3-0.4-0.8-0.1-1.2
				c0.4-0.4,1-0.5,1.4-0.1c0.5,0.4,0.6,1.1,0,1.7C299.9,70.1,298.9,70.4,298,70.4z"/>
			<path fill="#FFFFFF" d="M308.7,77.9l4.2-4.4l-5.9,2.7l-0.6-0.5l2.5-6l-4.2,4.4l-1.3-1.2l5.8-6l1.8,1.7l-2.2,5.2l5.1-2.4l1.8,1.8
				l-5.8,6L308.7,77.9z"/>
			<path fill="#FFFFFF" d="M315,84.5l0.7-1.4l-2.4-2.7l-1.4,0.6l-1.4-1.5l8.4-3.3l1.5,1.7l-4,8.1L315,84.5z M318.3,78.3l-3.5,1.5
				l1.8,1.9L318.3,78.3z"/>
			<path fill="#FFFFFF" d="M320.4,91l1.7-6.6l-4.2,3.5l-1.1-1.4l6.5-5.3l1.2,1.4l-1.6,6.4l4.1-3.4L328,87l-6.5,5.3L320.4,91z"/>
			<path fill="#FFFFFF" d="M325.6,90.7c2-1.5,4.6-1.1,6.1,1c1.5,2,1.1,4.6-0.9,6.1c-1,0.7-2,1-3,0.9l-0.2,0.9l-1.6-0.4l0.2-1
				c-0.6-0.3-1.1-0.8-1.5-1.4C323.2,94.8,323.6,92.2,325.6,90.7z M326.6,96.5l0.3-1.4l1.6,0.4l-0.3,1.4c0.5,0,1.1-0.2,1.5-0.6
				c1.3-0.9,1.6-2.4,0.7-3.7c-0.9-1.3-2.5-1.4-3.7-0.4c-1.3,0.9-1.6,2.4-0.7,3.7C326.2,96.2,326.4,96.4,326.6,96.5z"/>
			<path fill="#FFFFFF" d="M330.9,99.4l4.2-2.7l1,1.5l-4.2,2.7c-1,0.6-1.3,1.6-0.6,2.7c0.7,1.1,1.7,1.2,2.7,0.6l4.2-2.7l1,1.5
				l-4.2,2.7c-1.7,1.1-3.6,0.9-5-1.3C328.6,102.4,329.1,100.6,330.9,99.4z"/>
			<path fill="#FFFFFF" d="M333,109l7.3-4.2l3,5.1l-1.4,0.8l-2.1-3.6l-1.5,0.9l2,3.5l-1.4,0.8l-2-3.5l-1.7,1l2.1,3.6l-1.4,0.8
				L333,109z"/>
			<path fill="#FFFFFF" d="M338.1,118.1l7.6-3.7l1.5,3c1.2,2.4,0.5,4.7-1.8,5.9c-2.3,1.1-4.6,0.2-5.7-2.1L338.1,118.1z M344.5,121.6
				c1.3-0.6,2-2,1.2-3.5l-0.7-1.4l-4.7,2.3l0.7,1.4C341.7,121.8,343.2,122.2,344.5,121.6z"/>
			<path fill="#FFFFFF" d="M346.7,124.7l0.2-0.9c0.4,0.3,1,0.5,1.5,0.4c0,0-0.1-0.1-0.1-0.2c-0.2-0.4,0-0.9,0.5-1.2
				c0.5-0.2,1.1,0,1.3,0.5c0.2,0.5,0,1.2-0.7,1.5C348.5,125.3,347.5,125.2,346.7,124.7z"/>
			<path fill="#FFFFFF" d="M345.4,134.4l3.3-1.3l-1.5-3.7l-3.3,1.3l-0.7-1.7l7.8-3.1l0.7,1.7l-3.1,1.2l1.5,3.7l3.1-1.2l0.7,1.7
				L346,136L345.4,134.4z"/>
			<path fill="#FFFFFF" d="M347.3,139.7l3.3-1.1l3.7-4.6l0.7,1.9l-2.5,3l3.9,0.9l0.6,1.9l-5.7-1.5l-3.3,1.1L347.3,139.7z"/>
			<path fill="#FFFFFF" d="M353,143.6c2.6-0.7,4.7,0.8,5.4,3.1c0.5,1.7-0.1,3-0.9,3.8l-1.2-1.2c0.5-0.5,0.8-1.4,0.5-2.2
				c-0.4-1.5-1.8-2.2-3.4-1.8c-1.5,0.4-2.4,1.8-1.9,3.3c0.2,0.7,0.7,1.3,1.1,1.5l1-0.3l-0.6-2.1l1.5-0.4l1.1,3.9l-3.1,0.9
				c-1.2-0.6-2.1-1.6-2.5-3C349.4,146.7,350.5,144.3,353,143.6z"/>
			<path fill="#FFFFFF" d="M351.4,153.8l8.2-2l0.4,1.7l-8.2,2L351.4,153.8z"/>
			<path fill="#FFFFFF" d="M352.2,157.1l8.2-1.7l1.2,5.8l-1.5,0.3l-0.8-4.1l-1.7,0.4l0.8,4l-1.5,0.3l-0.8-4l-1.9,0.4l0.8,4.1
				l-1.5,0.3L352.2,157.1z M361.8,158.1l1.4-2.4l0.3,1.4l-1.4,2L361.8,158.1z"/>
			<path fill="#FFFFFF" d="M354.5,169.8l4.8-4.8l-5.4,0.8l-0.3-1.8l8.3-1.3l0.3,1.8l-4.6,4.6l5.2-0.8l0.3,1.8l-8.3,1.3L354.5,169.8z
				"/>
			<path fill="#FFFFFF" d="M355,173.1l8.4-0.8l0.6,5.9l-1.6,0.2l-0.4-4.1l-1.8,0.2l0.4,4l-1.6,0.2l-0.4-4l-1.9,0.2l0.4,4.1l-1.6,0.2
				L355,173.1z"/>
			<path fill="#FFFFFF" d="M354,181l0.5-0.7c0.2,0.4,0.8,0.8,1.2,0.9c0,0,0-0.1-0.1-0.2c0-0.5,0.3-0.9,0.8-0.9c0.6,0,1,0.4,1.1,0.9
				c0,0.6-0.4,1.2-1.2,1.2C355.4,182.2,354.6,181.8,354,181z"/>
		</g>
	</g>
	<g>
		<g>
			<path fill="#FFFFFF" d="M235,64l2.7-7.9l3.1,1.1c2.5,0.9,3.7,3,2.8,5.4c-0.8,2.4-3.1,3.4-5.6,2.5L235,64z M242,61.9
				c0.5-1.4,0-2.8-1.6-3.3l-1.5-0.5l-1.7,5l1.4,0.5C240.2,64.1,241.6,63.3,242,61.9z"/>
			<path fill="#FFFFFF" d="M245.8,62.7l-0.4-0.8c0.5-0.1,1.1-0.4,1.3-0.8c0,0-0.1,0-0.2-0.1c-0.4-0.2-0.7-0.7-0.5-1.2
				c0.2-0.5,0.8-0.8,1.3-0.6c0.5,0.2,0.9,0.8,0.6,1.6C247.5,61.8,246.7,62.4,245.8,62.7z"/>
			<path fill="#FFFFFF" d="M251.7,70.5l0.1-1.5l-3.3-1.5l-1.1,1.1l-1.9-0.8l6.4-6.4l2,0.9l-0.5,9L251.7,70.5z M252.2,63.5l-2.7,2.8
				l2.4,1.1L252.2,63.5z"/>
			<path fill="#FFFFFF" d="M254.1,71.6l3.9-7.4l3.5,1.8c1.6,0.8,1.9,2.4,1.2,3.7c-0.7,1.3-2.1,1.9-3.8,1.1l-1.9-1l-1.4,2.7
				L254.1,71.6z M261.1,68.9c0.3-0.6,0-1.3-0.6-1.6l-1.7-0.9l-1,2l1.7,0.9C260.1,69.6,260.8,69.5,261.1,68.9z"/>
			<path fill="#FFFFFF" d="M260.9,75.3l4.3-7.2l3.4,2c1.6,0.9,1.8,2.5,1,3.8c-0.8,1.3-2.3,1.8-3.8,0.9l-1.8-1.1l-1.5,2.6L260.9,75.3
				z M268.1,72.9c0.4-0.6,0.1-1.3-0.5-1.6l-1.6-1l-1.2,1.9l1.6,1C267,73.6,267.7,73.5,268.1,72.9z"/>
			<path fill="#FFFFFF" d="M271.5,82l0.3-3.4l-1.1-0.7l-1.7,2.5l-1.5-1l4.7-6.9l3.2,2.2c1.4,1,1.7,2.5,0.8,3.8
				c-0.8,1.2-2.1,1.4-2.9,1l-0.2,3.7L271.5,82z M274.8,77.4c0.4-0.6,0.2-1.2-0.4-1.6l-1.6-1.1l-1.3,1.9l1.6,1.1
				C273.8,78,274.4,78,274.8,77.4z"/>
			<path fill="#FFFFFF" d="M276.4,80.3c1.6-2,4.1-2.3,6.1-0.7c2,1.6,2.3,4.1,0.8,6.1c-1.6,2-4.1,2.3-6.1,0.7
				C275.2,84.8,274.8,82.2,276.4,80.3z M281.9,84.5c1-1.2,0.9-2.8-0.3-3.7c-1.2-1-2.7-0.6-3.7,0.6c-1,1.2-0.9,2.8,0.3,3.7
				C279.4,86.1,280.9,85.8,281.9,84.5z"/>
			<path fill="#FFFFFF" d="M283.3,91.3l3.2-8.4l1.5,1.4l-2.6,6.4l6-3.2l1.5,1.4l-8,4.1L283.3,91.3z"/>
			<path fill="#FFFFFF" d="M287.8,95.5l5.9-6l1.3,1.3l-5.9,6L287.8,95.5z"/>
			<path fill="#FFFFFF" d="M290.7,96.6l1.7-0.2c0,0.9,0.2,1.9,1,2.7c0.7,0.7,1.3,0.8,1.7,0.4c1.1-1-3-3.8-0.7-6c1-1,2.7-0.9,4,0.6
				c0.9,1,1.4,2.1,1.4,3.2l-1.7,0.2c0-0.9-0.4-1.8-1-2.4c-0.5-0.6-1-0.6-1.4-0.3c-1,0.9,3,3.8,0.7,6c-1.1,1.1-2.7,1-4.3-0.6
				C291.1,98.9,290.7,97.7,290.7,96.6z"/>
			<path fill="#FFFFFF" d="M295.3,103.3l6.3-5.5l1.2,1.4l-6.3,5.5L295.3,103.3z"/>
			<path fill="#FFFFFF" d="M300.6,102.9c2-1.6,4.6-1.2,6.1,0.8c1.6,2,1.3,4.6-0.7,6.1c-2,1.6-4.6,1.2-6.1-0.8
				C298.3,107,298.6,104.5,300.6,102.9z M304.9,108.3c1.2-1,1.6-2.5,0.6-3.7c-1-1.2-2.5-1.3-3.7-0.3c-1.2,1-1.6,2.5-0.6,3.7
				C302.1,109.3,303.6,109.3,304.9,108.3z"/>
			<path fill="#FFFFFF" d="M306.6,118.1l2.3-6.4l-4.5,3.1l-1-1.5l6.9-4.7l1,1.5l-2.2,6.2l4.4-3l1,1.5l-6.9,4.7L306.6,118.1z"/>
			<path fill="#FFFFFF" d="M311.4,125.8l2.7-6.2l-4.7,2.8l-0.9-1.5l7.2-4.3l0.9,1.6l-2.6,6l4.6-2.7l0.9,1.5l-7.2,4.3L311.4,125.8z"
				/>
			<path fill="#FFFFFF" d="M312.9,128.6l7.5-3.8l2.7,5.3l-1.4,0.7l-1.9-3.7l-1.6,0.8l1.9,3.6l-1.4,0.7l-1.8-3.6l-1.7,0.9l1.9,3.7
				l-1.4,0.7L312.9,128.6z"/>
			<path fill="#FFFFFF" d="M319.1,141.8l5.6-2.4l-6.5,0.2l-0.3-0.7l4.6-4.6l-5.6,2.4l-0.7-1.6l7.7-3.3l1,2.3l-4,3.9l5.6-0.2l1,2.3
				l-7.7,3.3L319.1,141.8z"/>
			<path fill="#FFFFFF" d="M320.3,144.9l7.9-2.8l2,5.6l-1.5,0.5l-1.4-3.9l-1.7,0.6l1.4,3.8l-1.5,0.5l-1.4-3.8l-1.8,0.6l1.4,3.9
				l-1.5,0.5L320.3,144.9z"/>
			<path fill="#FFFFFF" d="M324.3,157.2l4.2-5.4l-5.3,1.5l-0.5-1.7l8.1-2.3l0.5,1.8l-4,5.2l5.1-1.5l0.5,1.7l-8.1,2.3L324.3,157.2z"
				/>
			<path fill="#FFFFFF" d="M325.5,162.3l6.7-1.5l-0.5-2.4l1.5-0.3l1.5,6.5l-1.5,0.3l-0.5-2.4l-6.7,1.5L325.5,162.3z"/>
			<path fill="#FFFFFF" d="M327.2,170.6l8.3-1.2l0.8,5.9l-1.6,0.2l-0.6-4.1l-1.7,0.2l0.6,4l-1.6,0.2l-0.6-4l-1.9,0.3l0.6,4.1
				l-1.6,0.2L327.2,170.6z"/>
			<path fill="#FFFFFF" d="M328.6,183.5l5.1-4.4l-5.5,0.4l-0.1-1.8l8.4-0.7l0.1,1.8l-5,4.3l5.3-0.4l0.1,1.8l-8.4,0.7L328.6,183.5z"
				/>
		</g>
	</g>
	<g>
		<g>
			<path fill="#FFFFFF" d="M231.3,76l2.7-7.9l5.6,1.9l-0.5,1.5l-3.9-1.3l-0.6,1.7l3.8,1.3l-0.5,1.5l-3.8-1.3l-0.6,1.8l3.9,1.3
				l-0.5,1.5L231.3,76z"/>
			<path fill="#FFFFFF" d="M243.5,80.6l0.1-1.5l-3.3-1.4l-1,1.1l-1.9-0.8l6.2-6.5l2.1,0.9l-0.2,9L243.5,80.6z M243.9,73.6l-2.6,2.8
				l2.4,1L243.9,73.6z"/>
			<path fill="#FFFFFF" d="M247.4,78.6l2.3-4.5l1.6,0.8l-2.2,4.5c-0.5,1-0.3,2.1,0.9,2.7c1.2,0.6,2.1,0.2,2.6-0.9l2.2-4.5l1.6,0.8
				l-2.3,4.5c-0.9,1.9-2.7,2.6-5,1.4C247,82.3,246.5,80.5,247.4,78.6z"/>
			<path fill="#FFFFFF" d="M256.8,87.4l4.5-7.1l5,3.2l-0.8,1.3l-3.5-2.2l-0.9,1.5l3.4,2.2l-0.8,1.3l-3.4-2.2l-1,1.6l3.5,2.2
				l-0.8,1.3L256.8,87.4z"/>
			<path fill="#FFFFFF" d="M264.4,92.4l4-5.6l-2-1.4l0.9-1.3l5.5,3.9l-0.9,1.3l-2-1.4l-4,5.6L264.4,92.4z"/>
			<path fill="#FFFFFF" d="M275.6,101.2l0.5-1.4l-2.7-2.4l-1.3,0.7l-1.5-1.3l7.9-4.3l1.7,1.5l-3,8.5L275.6,101.2z M278.1,94.7
				l-3.4,1.9l2,1.7L278.1,94.7z"/>
			<path fill="#FFFFFF" d="M278,101.8l1.7-0.3c0,0.9,0.3,1.9,1.1,2.7c0.7,0.7,1.4,0.7,1.7,0.4c1-1-3.1-3.7-0.9-6c1-1,2.7-1,4.1,0.4
				c1,0.9,1.5,2,1.5,3.1l-1.6,0.3c0-0.9-0.5-1.8-1.1-2.4c-0.5-0.5-1.1-0.6-1.4-0.2c-0.9,0.9,3.1,3.7,1,5.9c-1.1,1.1-2.7,1.2-4.3-0.4
				C278.5,104.1,278,102.9,278,101.8z"/>
			<path fill="#FFFFFF" d="M283.3,107l1.7-0.2c-0.1,0.9,0.2,1.9,0.9,2.8c0.7,0.7,1.3,0.8,1.7,0.5c1.1-1-2.9-3.9-0.6-6
				c1-0.9,2.7-0.8,4,0.6c0.9,1,1.3,2.1,1.3,3.2l-1.7,0.2c0-0.9-0.4-1.8-1-2.4c-0.5-0.6-1-0.7-1.4-0.3c-1,0.9,2.9,3.9,0.6,6
				c-1.1,1-2.7,1-4.3-0.7C283.7,109.4,283.3,108.1,283.3,107z"/>
			<path fill="#FFFFFF" d="M291.4,118.3l0.8-1.3l-2.2-2.8l-1.4,0.5l-1.3-1.6l8.6-2.7l1.4,1.8l-4.6,7.8L291.4,118.3z M295.1,112.4
				l-3.7,1.2l1.6,2.1L295.1,112.4z"/>
			<path fill="#FFFFFF" d="M293,120.5l6.8-4.9l1,1.5L294,122L293,120.5z"/>
			<path fill="#FFFFFF" d="M298.1,128.1l2.5-6.3l-4.6,3l-1-1.5l7.1-4.5l1,1.5l-2.3,6.1l4.4-2.9l1,1.5l-7.1,4.5L298.1,128.1z"/>
			<path fill="#FFFFFF" d="M299.8,130.9l7.3-4.2l0.9,1.6l-7.3,4.2L299.8,130.9z"/>
			<path fill="#FFFFFF" d="M302.2,132.7l1.7,0.2c-0.3,0.8-0.3,1.9,0.2,2.9c0.5,0.9,1.1,1.1,1.5,0.9c1.3-0.7-1.8-4.5,1-6
				c1.2-0.6,2.8-0.1,3.7,1.7c0.6,1.2,0.8,2.4,0.5,3.5l-1.6-0.3c0.2-0.9,0.1-1.8-0.3-2.6c-0.3-0.7-0.8-0.9-1.3-0.7
				c-1.2,0.6,1.8,4.5-1,5.9c-1.4,0.7-2.9,0.3-3.9-1.8C302,135.1,301.9,133.8,302.2,132.7z"/>
			<path fill="#FFFFFF" d="M305.7,139.4l1.7,0.3c-0.3,0.8-0.4,1.8,0,2.9c0.4,0.9,1,1.2,1.4,1c1.3-0.6-1.6-4.6,1.3-5.9
				c1.3-0.6,2.8,0.1,3.6,1.9c0.5,1.2,0.6,2.4,0.3,3.5l-1.6-0.4c0.3-0.9,0.2-1.8-0.1-2.6c-0.3-0.7-0.8-1-1.2-0.7
				c-1.2,0.5,1.6,4.6-1.3,5.9c-1.4,0.6-2.9,0.1-3.8-2C305.2,141.7,305.3,140.5,305.7,139.4z"/>
			<path fill="#FFFFFF" d="M307.8,147.2l7.9-2.9l2.1,5.6l-1.5,0.5l-1.4-3.9l-1.7,0.6l1.4,3.8l-1.5,0.5l-1.4-3.8l-1.8,0.7l1.4,3.9
				l-1.5,0.5L307.8,147.2z"/>
			<path fill="#FFFFFF" d="M312.3,161l5.8-1.7l-6.5-0.6l-0.2-0.8l5.2-4l-5.8,1.7l-0.5-1.7l8.1-2.3l0.7,2.4l-4.5,3.4l5.6,0.5l0.7,2.4
				l-8.1,2.3L312.3,161z"/>
			<path fill="#FFFFFF" d="M313.1,164.2l8.2-1.7l1.2,5.8l-1.5,0.3l-0.9-4.1l-1.7,0.4l0.8,4l-1.5,0.3l-0.8-4l-1.9,0.4l0.9,4.1
				l-1.5,0.3L313.1,164.2z"/>
			<path fill="#FFFFFF" d="M315.4,177l4.9-4.7l-5.4,0.8l-0.3-1.8l8.3-1.2l0.3,1.8l-4.7,4.6l5.2-0.7l0.3,1.8l-8.3,1.2L315.4,177z"/>
			<path fill="#FFFFFF" d="M315.9,182.2l6.8-0.5l-0.2-2.5l1.6-0.1l0.5,6.7l-1.6,0.1l-0.2-2.4l-6.8,0.5L315.9,182.2z"/>
		</g>
	</g>
</g>
<g id="Layer_2_copy">
	<g>
		<g>
			<path fill="#FFFFFF" d="M193.3,324.3c-0.1-2.6,1.9-4.4,4.4-4.4c1.8,0,2.9,0.9,3.5,2l-1.5,0.8c-0.4-0.7-1.1-1.2-2-1.2
				c-1.5,0-2.6,1.2-2.6,2.8c0,1.6,1.2,2.7,2.7,2.7c0.9,0,1.6-0.6,1.9-1.3l1.6,0.7c-0.6,1.1-1.6,2.1-3.5,2.1
				C195.3,328.6,193.3,326.9,193.3,324.3z"/>
			<path fill="#FFFFFF" d="M202,324.1c-0.2-2.5,1.5-4.5,4-4.7c2.5-0.2,4.5,1.4,4.8,3.9c0.2,2.5-1.5,4.5-4,4.7
				C204.3,328.3,202.3,326.6,202,324.1z M208.9,323.5c-0.1-1.6-1.2-2.7-2.8-2.5c-1.6,0.1-2.4,1.4-2.3,3c0.1,1.6,1.2,2.7,2.8,2.5
				C208.2,326.3,209.1,325,208.9,323.5z"/>
			<path fill="#FFFFFF" d="M218.5,326.3l-4.8-4.8l0.9,5.4l-1.8,0.3l-1.4-8.3l1.8-0.3l4.7,4.6l-0.9-5.2l1.8-0.3l1.4,8.3L218.5,326.3z
				"/>
			<path fill="#FFFFFF" d="M224.1,325.2l-1.5-6.7l-2.4,0.5l-0.4-1.5l6.5-1.5l0.4,1.5l-2.4,0.5l1.5,6.7L224.1,325.2z"/>
			<path fill="#FFFFFF" d="M235.2,322.3l-0.9-1.2l-3.5,1l-0.1,1.5l-1.9,0.6l0.7-9l2.2-0.6l5.5,7.2L235.2,322.3z M231.1,316.6
				l-0.2,3.8l2.5-0.7L231.1,316.6z"/>
			<path fill="#FFFFFF" d="M245.1,318.7l-2.1-5.7l-0.1,6.5l-0.7,0.3l-4.4-4.8l2.1,5.7l-1.7,0.6l-3-7.9l2.3-0.9l3.8,4.2l0.1-5.6
				l2.4-0.9l3,7.9L245.1,318.7z"/>
			<path fill="#FFFFFF" d="M248.6,317.3l-3.4-7.7l1.6-0.7l3.4,7.7L248.6,317.3z"/>
			<path fill="#FFFFFF" d="M257.2,313.2l-6-3.1l2.5,4.9l-1.6,0.8l-3.8-7.5l1.6-0.8l5.8,3l-2.4-4.7l1.6-0.8l3.8,7.5L257.2,313.2z"/>
			<path fill="#FFFFFF" d="M265.6,308.5l-1.2-1l-3.1,1.8l0.3,1.5l-1.7,1l-1.5-8.9l1.9-1.1l7.1,5.6L265.6,308.5z M260.2,304l0.7,3.8
				l2.3-1.3L260.2,304z"/>
			<path fill="#FFFFFF" d="M269.9,305.7l-3.8-5.7l-2,1.4l-0.9-1.3l5.6-3.7l0.9,1.3l-2,1.4l3.8,5.7L269.9,305.7z"/>
			<path fill="#FFFFFF" d="M274.5,302.5l-5-6.8l1.4-1.1l5,6.8L274.5,302.5z"/>
			<path fill="#FFFFFF" d="M274.5,297.3c-1.6-2-1.3-4.5,0.6-6.1c2-1.6,4.5-1.4,6.1,0.6c1.6,2,1.3,4.5-0.6,6.1
				C278.7,299.5,276.1,299.3,274.5,297.3z M279.9,292.9c-1-1.2-2.5-1.5-3.7-0.5c-1.2,1-1.2,2.5-0.2,3.8c1,1.2,2.5,1.5,3.7,0.5
				C280.9,295.7,280.9,294.1,279.9,292.9z"/>
			<path fill="#FFFFFF" d="M289.4,289.9l-6.7-1.2l3.8,4l-1.3,1.2l-5.8-6.1l1.3-1.3l6.5,1.2l-3.6-3.8l1.3-1.2l5.8,6.1L289.4,289.9z"
				/>
			<path fill="#FFFFFF" d="M294.4,284.9l-6.3-5.5l2.2-2.5c1.7-2,4.2-2.2,6.1-0.6c1.9,1.7,2,4.2,0.2,6.1L294.4,284.9z M295.2,277.6
				c-1.1-1-2.6-1-3.7,0.2l-1,1.2l3.9,3.5l1-1.1C296.5,280.1,296.2,278.6,295.2,277.6z"/>
			<path fill="#FFFFFF" d="M300.5,277.7l-6.6-5.1l3.6-4.7l1.2,1l-2.5,3.3l1.4,1.1l2.5-3.2l1.2,1l-2.5,3.2l1.5,1.2l2.5-3.3l1.2,1
				L300.5,277.7z"/>
		</g>
	</g>
	<g>
		<g>
			<path fill="#FFFFFF" d="M192.6,349.2c0-2.6,1.9-4.4,4.4-4.4c1.8,0,2.9,1,3.5,2l-1.5,0.8c-0.4-0.7-1.1-1.2-2-1.2
				c-1.5,0-2.6,1.2-2.6,2.8c0,1.6,1.1,2.7,2.7,2.7c0.9,0,1.6-0.6,1.9-1.2l1.5,0.7c-0.6,1.1-1.6,2.1-3.5,2.1
				C194.6,353.5,192.6,351.7,192.6,349.2z"/>
			<path fill="#FFFFFF" d="M201.3,349c-0.2-2.5,1.5-4.5,4.1-4.7c2.5-0.2,4.5,1.5,4.7,4c0.2,2.5-1.5,4.5-4.1,4.7
				C203.5,353.2,201.5,351.5,201.3,349z M208.3,348.5c-0.1-1.6-1.2-2.7-2.7-2.6c-1.6,0.1-2.5,1.4-2.3,2.9c0.1,1.6,1.2,2.7,2.8,2.6
				C207.5,351.3,208.4,350.1,208.3,348.5z"/>
			<path fill="#FFFFFF" d="M219.3,351.4l-0.8-6l-1.5,6.3l-0.8,0.1l-3.2-5.7l0.8,6l-1.8,0.2l-1.2-8.3l2.5-0.3l2.7,4.9l1.3-5.5
				l2.5-0.3l1.2,8.3L219.3,351.4z"/>
			<path fill="#FFFFFF" d="M230.2,349.3l-1.2-5.9l-1.1,6.4l-0.8,0.2l-3.6-5.4l1.2,5.9l-1.8,0.4l-1.7-8.2l2.5-0.5l3.1,4.7l0.9-5.6
				l2.5-0.5l1.7,8.2L230.2,349.3z"/>
			<path fill="#FFFFFF" d="M233,345.2l-1.4-4.9l1.7-0.5l1.3,4.8c0.3,1.1,1.2,1.7,2.4,1.4c1.3-0.3,1.7-1.3,1.4-2.4l-1.3-4.8l1.8-0.5
				l1.4,4.9c0.6,2-0.2,3.7-2.7,4.4C235.2,348.2,233.6,347.2,233,345.2z"/>
			<path fill="#FFFFFF" d="M248.6,343.9l-5.6-3.9l1.8,5.2l-1.7,0.6l-2.7-7.9l1.7-0.6l5.4,3.7l-1.7-5l1.7-0.6l2.7,7.9L248.6,343.9z"
				/>
			<path fill="#FFFFFF" d="M257.5,340.4l-1-1.1l-3.3,1.4l0,1.5l-1.9,0.8l-0.2-9l2.1-0.8l6.2,6.6L257.5,340.4z M252.8,335.2l0.2,3.8
				l2.4-1L252.8,335.2z"/>
			<path fill="#FFFFFF" d="M258.9,336.2l-2.2-4.5l1.6-0.8l2.1,4.5c0.5,1.1,1.5,1.5,2.6,0.9c1.2-0.6,1.4-1.6,0.9-2.6l-2.1-4.5
				l1.6-0.8l2.2,4.6c0.9,1.9,0.4,3.7-1.9,4.8C261.6,338.8,259.8,338.1,258.9,336.2z"/>
			<path fill="#FFFFFF" d="M270.7,334.1l-3.3-6l-2.2,1.2l-0.8-1.4l5.9-3.2l0.8,1.4l-2.1,1.2l3.3,6L270.7,334.1z"/>
			<path fill="#FFFFFF" d="M275.6,331.4l-4.4-7.2l5.1-3.1l0.8,1.3l-3.6,2.2l0.9,1.5l3.5-2.1l0.8,1.3l-3.5,2.1l1,1.6l3.6-2.2l0.8,1.3
				L275.6,331.4z M273.5,321.9l-1,0.6l0.5-2.4l1.3-0.8L273.5,321.9z"/>
			<path fill="#FFFFFF" d="M281,326.7l0-1.7c0.8,0.2,1.9,0.1,2.9-0.5c0.8-0.6,1-1.2,0.7-1.6c-0.8-1.2-4.3,2.3-6-0.3
				c-0.8-1.2-0.4-2.8,1.2-3.9c1.1-0.7,2.3-1,3.4-0.9l-0.1,1.7c-0.9-0.1-1.8,0.1-2.5,0.6c-0.6,0.4-0.8,0.9-0.5,1.4
				c0.7,1.1,4.2-2.3,6,0.3c0.9,1.3,0.6,2.9-1.3,4.1C283.3,326.7,282.1,326.9,281,326.7z"/>
		</g>
	</g>
	<g>
		<g>
			<path fill="#FFFFFF" d="M193.2,340.7l-0.1-8.4l1.8,0l0.1,6.8l3.6,0l0,1.6L193.2,340.7z"/>
			<path fill="#FFFFFF" d="M200.3,335.7l-0.7-0.5c0.4-0.2,0.8-0.8,0.9-1.2c0,0-0.1,0-0.2,0c-0.5,0-0.9-0.3-0.9-0.9c0-0.5,0.4-1,1-1
				c0.6,0,1.1,0.4,1.2,1.2C201.5,334.2,201,335.1,200.3,335.7z"/>
			<path fill="#FFFFFF" d="M203.3,340.5l-0.7-8.4l5.9-0.5l0.1,1.6l-4.1,0.3l0.1,1.8l4.1-0.3l0.1,1.6l-4.1,0.3l0.2,1.9l4.1-0.3
				l0.1,1.6L203.3,340.5z"/>
			<path fill="#FFFFFF" d="M216.7,339l-4.7-4.9l0.8,5.4l-1.8,0.2l-1.2-8.3l1.8-0.3l4.6,4.7l-0.7-5.2l1.8-0.2l1.2,8.3L216.7,339z"/>
			<path fill="#FFFFFF" d="M222.7,338l-4.8-7.6l2-0.4l3.6,5.9l1-6.8l2-0.4l-1.5,8.9L222.7,338z"/>
			<path fill="#FFFFFF" d="M229,336.6l-2-8.2l1.7-0.4l2,8.2L229,336.6z"/>
			<path fill="#FFFFFF" d="M237.2,334.4l-2.4-2.4l-1.3,0.4l0.8,2.9l-1.7,0.5l-2.3-8.1l3.8-1.1c1.7-0.5,3,0.3,3.5,1.8
				c0.4,1.4-0.3,2.5-1.1,2.9l2.7,2.5L237.2,334.4z M235.8,328.9c-0.2-0.7-0.8-0.9-1.5-0.7l-1.8,0.5l0.6,2.2l1.8-0.5
				C235.5,330.1,236,329.6,235.8,328.9z"/>
			<path fill="#FFFFFF" d="M238.9,329.5c-0.9-2.4,0.3-4.7,2.7-5.6c2.4-0.9,4.7,0.2,5.6,2.6s-0.3,4.7-2.7,5.6
				C242.1,333,239.8,331.9,238.9,329.5z M245.5,327.2c-0.5-1.5-1.9-2.3-3.3-1.7c-1.5,0.5-2,2-1.5,3.5c0.5,1.5,1.9,2.3,3.3,1.7
				C245.5,330.1,246,328.7,245.5,327.2z"/>
			<path fill="#FFFFFF" d="M255.4,327.6l-5.9-3.4l2.2,5l-1.6,0.7l-3.3-7.7l1.7-0.7l5.7,3.3l-2.1-4.8l1.6-0.7l3.3,7.7L255.4,327.6z"
				/>
			<path fill="#FFFFFF" d="M264,323.4l-6.1-3.1l2.5,4.9l-1.6,0.8l-3.8-7.5l1.6-0.8l5.9,2.9l-2.4-4.7l1.6-0.8l3.8,7.5L264,323.4z"/>
			<path fill="#FFFFFF" d="M267.3,321.6l-4.3-7.2l5.1-3l0.8,1.4l-3.6,2.1l0.9,1.5l3.5-2.1l0.8,1.4l-3.5,2.1l1,1.7l3.6-2.1l0.8,1.4
				L267.3,321.6z"/>
			<path fill="#FFFFFF" d="M280,313.6l-3.4-5l1.4,6.3l-0.6,0.4l-5.4-3.7l3.4,5l-1.5,1l-4.7-7l2.1-1.4l4.6,3.2l-1.3-5.5l2.1-1.4
				l4.7,7L280,313.6z"/>
			<path fill="#FFFFFF" d="M283.1,311.4l-5.1-6.6l4.7-3.6l1,1.2l-3.3,2.5l1.1,1.4l3.2-2.5l1,1.2l-3.2,2.5l1.2,1.5l3.3-2.5l1,1.2
				L283.1,311.4z"/>
			<path fill="#FFFFFF" d="M293.5,302.9l-6.6-1.5l3.6,4.1l-1.3,1.2l-5.5-6.3l1.4-1.2l6.4,1.4l-3.5-4l1.3-1.2l5.5,6.3L293.5,302.9z"
				/>
			<path fill="#FFFFFF" d="M297.6,299l-4.8-4.9l-1.8,1.7l-1.1-1.1l4.8-4.7l1.1,1.1l-1.7,1.7l4.8,4.9L297.6,299z"/>
			<path fill="#FFFFFF" d="M304,292.5l-6.3-5.5l2.2-2.5c1.7-2,4.2-2.3,6.1-0.6c1.9,1.7,2,4.1,0.3,6.1L304,292.5z M304.7,285.2
				c-1.1-1-2.6-1-3.7,0.3l-1,1.2l4,3.4l1-1.2C306,287.7,305.8,286.2,304.7,285.2z"/>
			<path fill="#FFFFFF" d="M313.6,280.8l-1.5-0.4l-2.2,2.9l0.8,1.3l-1.2,1.6l-4.7-7.7l1.4-1.8l8.6,2.5L313.6,280.8z M306.9,278.6
				l2.1,3.2l1.6-2.1L306.9,278.6z"/>
			<path fill="#FFFFFF" d="M318.7,273.4l-6.8,0.2l4.5,3.1l-1,1.5l-6.9-4.8l1-1.5l6.6-0.2l-4.4-3l1-1.5l6.9,4.8L318.7,273.4z"/>
			<path fill="#FFFFFF" d="M319.4,270.2l-0.7-1.6c0.8-0.2,1.8-0.7,2.3-1.7c0.5-0.9,0.4-1.5-0.1-1.7c-1.3-0.7-2.8,3.9-5.6,2.3
				c-1.2-0.7-1.6-2.3-0.6-4c0.7-1.1,1.6-1.9,2.7-2.2l0.6,1.5c-0.9,0.3-1.6,0.9-2,1.6c-0.4,0.7-0.3,1.2,0.1,1.4
				c1.1,0.7,2.8-3.9,5.5-2.3c1.3,0.8,1.8,2.3,0.6,4.3C321.5,269.2,320.5,269.9,319.4,270.2z"/>
			<path fill="#FFFFFF" d="M326.2,260.6l-7.5-3.8l0.8-1.6l6.1,3l1.6-3.2l1.4,0.7L326.2,260.6z"/>
			<path fill="#FFFFFF" d="M329.2,254.5l-7.7-3.4l2.4-5.4l1.4,0.6l-1.7,3.8l1.6,0.7l1.6-3.7l1.4,0.6l-1.6,3.7l1.8,0.8l1.7-3.8
				l1.4,0.6L329.2,254.5z"/>
			<path fill="#FFFFFF" d="M330.9,247.6l-1-1.4c0.8-0.3,1.6-1,2-2.1c0.4-0.9,0.1-1.5-0.4-1.7c-1.4-0.5-2.1,4.4-5.1,3.2
				c-1.3-0.5-2-2-1.3-3.9c0.5-1.2,1.2-2.1,2.3-2.6l0.9,1.4c-0.8,0.4-1.4,1.2-1.7,2c-0.3,0.7-0.1,1.2,0.4,1.4c1.2,0.5,2.1-4.4,5-3.2
				c1.4,0.5,2.1,2,1.3,4.1C332.9,246.3,332,247.1,330.9,247.6z"/>
		</g>
	</g>
</g>
<g id="Layer_2_copy_2">
	<g>
		<g>
			<path fill="#FFFFFF" d="M43.2,201.4l8.4-0.7l0.5,5.9l-1.6,0.1l-0.3-4.1l-1.8,0.1l0.3,4.1l-1.6,0.1l-0.3-4.1l-1.9,0.2l0.3,4.1
				l-1.6,0.1L43.2,201.4z"/>
			<path fill="#FFFFFF" d="M44.6,214.4l2.8-2.5l-3.3-1.7l-0.3-2.1l4.7,2.4l3.7-3.4l0.3,2.1l-2.6,2.3l3.1,1.5l0.3,2.1l-4.4-2.3
				l-3.9,3.6L44.6,214.4z"/>
			<path fill="#FFFFFF" d="M45.1,217.6l8.3-1.6l0.7,3.9c0.3,1.8-0.7,3-2.1,3.3c-1.4,0.3-2.8-0.5-3.2-2.3l-0.4-2.1l-2.9,0.6
				L45.1,217.6z M51.6,221.4c0.7-0.1,1-0.7,0.9-1.4l-0.4-1.9l-2.2,0.4l0.4,1.9C50.4,221.1,51,221.5,51.6,221.4z"/>
			<path fill="#FFFFFF" d="M50.7,224.3c2.5-0.6,4.7,0.7,5.3,3.2c0.6,2.5-0.7,4.7-3.1,5.3c-2.5,0.6-4.7-0.7-5.3-3.2
				C46.9,227.1,48.2,224.9,50.7,224.3z M52.4,231c1.5-0.4,2.4-1.6,2-3.1c-0.4-1.5-1.8-2.2-3.3-1.8c-1.5,0.4-2.4,1.6-2,3.2
				C49.5,230.7,50.9,231.4,52.4,231z"/>
			<path fill="#FFFFFF" d="M50.2,234.4l1.6,0.5c-0.4,0.8-0.6,1.8-0.3,2.9c0.3,0.9,0.9,1.3,1.3,1.1c1.4-0.4-1.1-4.7,2-5.7
				c1.3-0.4,2.8,0.4,3.4,2.3c0.4,1.3,0.4,2.5-0.1,3.5l-1.6-0.5c0.4-0.8,0.4-1.8,0.1-2.6c-0.2-0.7-0.7-1-1.2-0.9
				c-1.3,0.4,1.1,4.7-1.9,5.7c-1.5,0.5-2.9-0.2-3.6-2.4C49.5,236.7,49.7,235.4,50.2,234.4z"/>
			<path fill="#FFFFFF" d="M51.7,242.7l7.9-2.9l0.6,1.7l-7.9,2.9L51.7,242.7z"/>
			<path fill="#FFFFFF" d="M53.6,247.9l6.3-2.6l-0.9-2.3l1.5-0.6l2.5,6.2l-1.5,0.6l-0.9-2.3l-6.3,2.6L53.6,247.9z"/>
			<path fill="#FFFFFF" d="M55.8,253.1l7.7-3.4l0.7,1.6l-7.7,3.4L55.8,253.1z"/>
			<path fill="#FFFFFF" d="M60.8,254.2c2.3-1.1,4.7-0.3,5.9,2c1.1,2.3,0.3,4.7-1.9,5.9c-2.3,1.1-4.7,0.3-5.9-2
				C57.8,257.8,58.6,255.4,60.8,254.2z M64,260.5c1.4-0.7,2-2.1,1.3-3.5c-0.7-1.4-2.2-1.8-3.6-1.1c-1.4,0.7-2,2.1-1.3,3.5
				C61,260.8,62.6,261.2,64,260.5z"/>
			<path fill="#FFFFFF" d="M64.7,270.4l2.7-6.2l-4.7,2.8l-0.9-1.5l7.3-4.2l0.9,1.6l-2.6,6l4.6-2.7l0.9,1.5l-7.3,4.2L64.7,270.4z"/>
			<path fill="#FFFFFF" d="M71.9,281.1l0.9-1.2l-2.1-2.9l-1.5,0.4l-1.2-1.7l8.7-2.2l1.3,1.8l-5,7.5L71.9,281.1z M75.9,275.4l-3.7,1
				l1.5,2.1L75.9,275.4z M78,273.9l0.3-2.7l0.8,1.2l-0.5,2.4L78,273.9z"/>
			<path fill="#FFFFFF" d="M75.7,286.2l6.5-5.3l1.1,1.4l-5.3,4.3l2.2,2.7l-1.2,1L75.7,286.2z"/>
			<path fill="#FFFFFF" d="M83.8,288.5c0,0,1.7-2.2,1.9-2.3c0.4-0.3,0.9-0.3,1.2,0.1c0.3,0.4,0.3,0.9-0.1,1.2
				c-0.2,0.2-2.6,1.5-2.6,1.5L83.8,288.5z"/>
			<path fill="#FFFFFF" d="M82,293.6l6.2-5.7l1.2,1.3l-6.2,5.7L82,293.6z"/>
			<path fill="#FFFFFF" d="M88.6,300.5l1.1-6.7l-3.9,3.9l-1.3-1.3l5.9-5.9l1.3,1.3l-1,6.5l3.7-3.7l1.3,1.3l-5.9,5.9L88.6,300.5z"/>
			<path fill="#FFFFFF" d="M91.2,303.1l5.6-6.3l4.4,4l-1.1,1.2l-3.1-2.8l-1.2,1.3l3,2.7l-1.1,1.2l-3-2.7l-2.3,2.6L91.2,303.1z"/>
			<path fill="#FFFFFF" d="M96.8,308l5.3-6.5l4.6,3.7l-1,1.2l-3.2-2.6l-1.1,1.4l3.2,2.6l-1,1.2l-3.2-2.6l-1.2,1.5l3.2,2.6l-1,1.2
				L96.8,308z"/>
			<path fill="#FFFFFF" d="M104.9,309.2c1.5-2.1,4.1-2.4,6.2-0.9c1.5,1.1,1.8,2.5,1.6,3.7l-1.7-0.3c0.1-0.8-0.2-1.6-0.9-2.1
				c-1.2-0.9-2.8-0.6-3.8,0.7c-0.9,1.3-0.7,2.9,0.5,3.8c0.7,0.5,1.6,0.5,2.3,0.2l0.8,1.5c-1.1,0.5-2.6,0.7-4.1-0.4
				C104,313.8,103.4,311.2,104.9,309.2z"/>
			<path fill="#FFFFFF" d="M111.7,319l3.7-5.7l-2.1-1.3l0.9-1.3l5.6,3.6l-0.9,1.3l-2.1-1.3l-3.7,5.7L111.7,319z"/>
			<path fill="#FFFFFF" d="M116.5,322l4.3-7.2l1.5,0.9l-4.3,7.2L116.5,322z"/>
			<path fill="#FFFFFF" d="M121.3,320c1.2-2.2,3.7-3,5.9-1.8c2.2,1.2,3,3.7,1.8,5.9c-1.2,2.2-3.7,3-5.9,1.8
				C120.9,324.7,120.1,322.2,121.3,320z M127.4,323.3c0.7-1.4,0.4-2.9-0.9-3.6c-1.4-0.7-2.8-0.2-3.6,1.2c-0.7,1.4-0.4,2.9,1,3.6
				C125.2,325.2,126.7,324.6,127.4,323.3z"/>
			<path fill="#FFFFFF" d="M133.8,330.9l-1.4-6.6l-2.3,5l-1.6-0.7l3.5-7.7l1.7,0.8l1.4,6.4l2.2-4.8l1.6,0.7l-3.5,7.7L133.8,330.9z"
				/>
		</g>
	</g>
</g>
</svg>
