<?xml version="1.0" encoding="utf-8"?>
<!-- Generator: Adobe Illustrator 16.0.0, SVG Export Plug-In . SVG Version: 6.00 Build 0)  -->
<!DOCTYPE svg PUBLIC "-//W3C//DTD SVG 1.1//EN" "http://www.w3.org/Graphics/SVG/1.1/DTD/svg11.dtd">
<svg version="1.1" id="Layer_2" xmlns="http://www.w3.org/2000/svg" xmlns:xlink="http://www.w3.org/1999/xlink" x="0px" y="0px"
	 width="623px" height="442.3px" viewBox="0 0 623 442.3" enable-background="new 0 0 623 442.3" xml:space="preserve">
<rect x="92.3" y="9.9" fill="#E1E1E1" width="526.2" height="303"/>
<path fill="none" stroke="#FFFFFF" stroke-linejoin="round" stroke-miterlimit="10" d="M86,9.7h536.9 M86,40.7h536.9 M86,70.7h536.9
	 M86,100.7h536.9 M86,130.7h536.9 M86,161.7h536.9 M86,191.7h536.9 M86,221.7h536.9 M86,252.7h536.9 M86,282.7h536.9"/>
<path fill="#00848F" d="M573.1,138.7h45.4v174h-45.4V138.7z M512.9,163.7h46.3v149h-46.3V163.7z M452.7,157.7H499v155h-46.3V157.7z
	 M392.5,169.7h46.3v143h-46.3V169.7z M332.3,208.7h46.3v104h-46.3V208.7z M273,245.7h45.4v67H273V245.7z M212.8,270.7h46.3v42h-46.3
	V270.7z M152.6,303.7h46.3v9h-46.3V303.7z M92.4,308.7h46.3v4H92.4V308.7z"/>
<rect x="573.1" y="36.7" fill-rule="evenodd" clip-rule="evenodd" fill="#363636" width="45.4" height="102"/>
<g>
	<path fill="#00848F" d="M109.8,303.7v-1.4c5-3.9,7.8-6.3,7.8-8.7c0-1.8-1.5-2.6-2.9-2.6c-1.7,0-3,0.7-3.8,1.8l-1.1-1.1
		c1.1-1.4,2.9-2.2,4.9-2.2c2.3,0,4.7,1.3,4.7,4.1c0,2.9-2.9,5.5-6.8,8.5h6.9v1.6H109.8z"/>
</g>
<g>
	<path fill="#00848F" d="M171.9,290.8c0-3.8,1.8-7.2,5.7-7.2c1.8,0,3,0.7,3.9,1.7l-0.9,1.3c-0.7-0.8-1.5-1.4-3-1.4
		c-2.7,0-3.9,2.8-3.9,5.5c0,0.2,0,0.4,0,0.5c0.6-1,2.2-2.2,4-2.2c2.5,0,4.6,1.5,4.6,4.5c0,2.4-1.8,4.6-4.9,4.6
		C173.4,298,171.9,294.6,171.9,290.8z M180.5,293.5c0-2.1-1.4-3-3.2-3c-1.4,0-2.8,0.9-3.5,2.1c0.1,1.7,1.1,3.9,3.5,3.9
		C179.4,296.5,180.5,294.8,180.5,293.5z"/>
</g>
<g>
	<g>
		<path fill="#FFFFFF" d="M223.6,291.4V290c5-3.9,7.8-6.3,7.8-8.7c0-1.8-1.5-2.6-2.9-2.6c-1.7,0-3,0.7-3.8,1.8l-1.1-1.1
			c1.1-1.4,2.9-2.2,4.9-2.2c2.3,0,4.7,1.3,4.7,4.1c0,2.9-2.9,5.5-6.8,8.5h6.9v1.6H223.6z"/>
		<path fill="#FFFFFF" d="M235.9,287.9c0-1.9,1.6-3.1,3.3-3.7c-1.6-0.5-3.1-1.5-3.1-3.4c0-2.5,2.5-3.6,4.8-3.6
			c2.3,0,4.8,1.1,4.8,3.6c0,1.8-1.5,2.9-3.1,3.4c1.7,0.5,3.3,1.8,3.3,3.7c0,2.4-2.3,3.8-5,3.8C238.1,291.7,235.9,290.3,235.9,287.9z
			 M244.2,287.7c0-1.8-2.4-2.6-3.3-2.7c-0.9,0.1-3.3,0.9-3.3,2.7c0,1.5,1.5,2.4,3.3,2.4C242.6,290.1,244.2,289.2,244.2,287.7z
			 M244,281.1c0-1.4-1.4-2.3-3-2.3c-1.7,0-3,0.9-3,2.3c0,1.7,2.2,2.3,3,2.4C241.8,283.3,244,282.8,244,281.1z"/>
	</g>
</g>
<g>
	<g>
		<path fill="#FFFFFF" d="M289.4,268.8v-3.5h-6.7v-1.4l6-9h2.4v8.9h2v1.5h-2v3.5H289.4z M289.4,256.5l-4.9,7.3h4.9V256.5z"/>
		<path fill="#FFFFFF" d="M294.9,265.3c0-1.9,1.6-3.2,3.3-3.7c-1.6-0.5-3.1-1.5-3.1-3.4c0-2.5,2.5-3.6,4.8-3.6
			c2.3,0,4.8,1.1,4.8,3.6c0,1.8-1.5,2.9-3.1,3.4c1.7,0.5,3.3,1.8,3.3,3.7c0,2.4-2.3,3.8-5,3.8C297.2,269.1,294.9,267.7,294.9,265.3z
			 M303.2,265.1c0-1.8-2.4-2.6-3.3-2.7c-0.9,0.1-3.3,0.9-3.3,2.7c0,1.5,1.5,2.4,3.3,2.4C301.7,267.5,303.2,266.6,303.2,265.1z
			 M303,258.5c0-1.4-1.4-2.3-3-2.3c-1.7,0-3,0.9-3,2.3c0,1.7,2.2,2.3,3,2.4C300.8,260.8,303,260.2,303,258.5z"/>
	</g>
</g>
<g>
	<g>
		<path fill="#FFFFFF" d="M343.4,224.8c0-3.8,1.8-7.2,5.7-7.2c1.8,0,3,0.7,3.9,1.7l-0.9,1.3c-0.7-0.8-1.5-1.4-3-1.4
			c-2.7,0-3.9,2.8-3.9,5.5c0,0.2,0,0.4,0,0.5c0.6-1,2.2-2.2,4-2.2c2.5,0,4.6,1.5,4.6,4.5c0,2.4-1.8,4.6-4.9,4.6
			C344.9,232,343.4,228.6,343.4,224.8z M351.9,227.5c0-2.1-1.4-3-3.2-3c-1.4,0-2.8,0.9-3.5,2.1c0.1,1.7,1.1,3.9,3.5,3.9
			C350.9,230.5,351.9,228.8,351.9,227.5z"/>
		<path fill="#FFFFFF" d="M356.5,230.3l0.9-1.3c0.7,0.8,1.6,1.4,3,1.4c2.8,0,3.9-2.8,3.9-5.5c0-0.2,0-0.4,0-0.5
			c-0.6,1-2.2,2.2-3.9,2.2c-2.5,0-4.6-1.5-4.6-4.5c0-2.4,1.8-4.6,4.9-4.6c3.9,0,5.4,3.4,5.4,7.2c0,3.8-1.8,7.2-5.7,7.2
			C358.6,232,357.4,231.3,356.5,230.3z M364.2,223c-0.2-1.7-1.1-3.9-3.5-3.9c-2.1,0-3.2,1.6-3.2,3c0,2.1,1.4,3,3.2,3
			C362.1,225.1,363.5,224.2,364.2,223z"/>
	</g>
</g>
<g>
	<g>
		<path fill="#FFFFFF" d="M404.4,192.2l0.9-1.3c0.7,0.8,1.6,1.4,3,1.4c2.8,0,3.9-2.8,3.9-5.5c0-0.2,0-0.4,0-0.5
			c-0.6,1-2.2,2.2-3.9,2.2c-2.5,0-4.6-1.5-4.6-4.5c0-2.4,1.8-4.6,4.9-4.6c3.9,0,5.4,3.4,5.4,7.2c0,3.8-1.8,7.2-5.7,7.2
			C406.5,193.8,405.3,193.1,404.4,192.2z M412.2,184.8c-0.2-1.7-1.1-3.9-3.5-3.9c-2.1,0-3.2,1.6-3.2,3c0,2.1,1.4,3,3.2,3
			C410,186.9,411.4,186,412.2,184.8z"/>
		<path fill="#FFFFFF" d="M422.4,193.6v-3.5h-6.7v-1.4l6-9h2.4v8.9h2v1.5h-2v3.5H422.4z M422.4,181.2l-4.9,7.3h4.9V181.2z"/>
	</g>
</g>
<g>
	<g>
		<path fill="#FFFFFF" d="M462.1,181.1v-11.7l-2.2,2.4l-1-1.1l3.5-3.6h1.5v14H462.1z"/>
		<path fill="#FFFFFF" d="M466.6,174.1c0-3.4,1.5-7.2,5.4-7.2c3.8,0,5.4,3.8,5.4,7.2c0,3.4-1.5,7.2-5.4,7.2
			C468.1,181.4,466.6,177.5,466.6,174.1z M475.5,174.1c0-2.8-0.9-5.7-3.6-5.7s-3.6,2.9-3.6,5.7s0.9,5.7,3.6,5.7
			S475.5,176.9,475.5,174.1z"/>
		<path fill="#FFFFFF" d="M479.5,181.1v-1.4c5-3.9,7.8-6.3,7.8-8.7c0-1.8-1.5-2.6-2.9-2.6c-1.7,0-3,0.7-3.8,1.8l-1.1-1.1
			c1.1-1.4,2.9-2.2,4.9-2.2c2.3,0,4.7,1.3,4.7,4.1c0,2.9-2.9,5.5-6.8,8.5h6.9v1.6H479.5z"/>
	</g>
</g>
<g>
	<g>
		<path fill="#FFFFFF" d="M524.4,186.1l0.9-1.3c0.7,0.8,1.6,1.4,3,1.4c2.8,0,3.9-2.8,3.9-5.5c0-0.2,0-0.4,0-0.5
			c-0.6,1-2.2,2.2-3.9,2.2c-2.5,0-4.6-1.5-4.6-4.5c0-2.4,1.8-4.6,4.9-4.6c3.9,0,5.4,3.4,5.4,7.2c0,3.8-1.8,7.2-5.7,7.2
			C526.5,187.7,525.3,187,524.4,186.1z M532.2,178.7c-0.2-1.7-1.1-3.9-3.5-3.9c-2.1,0-3.2,1.6-3.2,3c0,2.1,1.4,3,3.2,3
			C530,180.8,531.4,180,532.2,178.7z"/>
		<path fill="#FFFFFF" d="M536.1,184c0-1.9,1.6-3.1,3.3-3.7c-1.6-0.5-3.1-1.5-3.1-3.4c0-2.5,2.5-3.6,4.8-3.6c2.3,0,4.8,1.1,4.8,3.6
			c0,1.8-1.5,2.9-3.1,3.4c1.7,0.5,3.3,1.8,3.3,3.7c0,2.4-2.3,3.8-5,3.8C538.4,187.8,536.1,186.4,536.1,184z M544.4,183.8
			c0-1.8-2.4-2.6-3.3-2.7c-0.9,0.1-3.3,0.9-3.3,2.7c0,1.5,1.5,2.4,3.3,2.4C542.9,186.2,544.4,185.3,544.4,183.8z M544.2,177.2
			c0-1.4-1.4-2.3-3-2.3c-1.7,0-3,0.9-3,2.3c0,1.7,2.2,2.3,3,2.4C542,179.4,544.2,178.9,544.2,177.2z"/>
	</g>
</g>
<g>
	<g>
		<path fill="#FFFFFF" d="M586.8,162.1v-11.7l-2.2,2.4l-1.1-1.1l3.5-3.6h1.5v14H586.8z"/>
		<path fill="#FFFFFF" d="M593.9,162.1v-11.7l-2.2,2.4l-1.1-1.1l3.5-3.6h1.5v14H593.9z"/>
		<path fill="#FFFFFF" d="M598.7,160.1l1.1-1.2c0.9,1.2,2.2,1.9,3.9,1.9c1.9,0,3.2-1.3,3.2-3c0-1.8-1.3-3-3.2-3
			c-1.2,0-2.3,0.4-3.2,1.3l-1.3-0.4v-7.5h8.6v1.6h-6.8v4.9c0.7-0.7,1.9-1.3,3.3-1.3c2.4,0,4.5,1.6,4.5,4.5c0,2.8-2.2,4.6-5,4.6
			C601.2,162.4,599.7,161.5,598.7,160.1z"/>
	</g>
</g>
<g>
	<g>
		<path fill="#FFFFFF" d="M585.8,50.7c0-3.8,1.8-7.2,5.7-7.2c1.8,0,3,0.7,3.9,1.7l-0.9,1.3c-0.7-0.8-1.5-1.4-3-1.4
			c-2.7,0-3.9,2.8-3.9,5.5c0,0.2,0,0.4,0,0.5c0.6-1,2.2-2.2,4-2.2c2.5,0,4.6,1.5,4.6,4.5c0,2.4-1.8,4.6-4.9,4.6
			C587.3,57.9,585.8,54.5,585.8,50.7z M594.3,53.4c0-2.1-1.4-3-3.2-3c-1.4,0-2.8,0.9-3.5,2.1c0.1,1.7,1.1,3.9,3.5,3.9
			C593.3,56.4,594.3,54.7,594.3,53.4z"/>
		<path fill="#FFFFFF" d="M599.7,57.7l5.6-12.5h-7.5v-1.6h9.6v1.2l-5.7,12.8H599.7z"/>
	</g>
</g>
<g>
	<g>
		<path fill="#363636" d="M56,288.9v-1.5c4.1-3.1,5.8-4.5,5.8-6.1c0-1.1-1-1.6-2-1.6c-1.2,0-2.2,0.5-2.9,1.3l-1.1-1.2
			c0.9-1.2,2.4-1.7,4-1.7c2.1,0,3.9,1.2,3.9,3.3c0,2-1.8,3.7-4.7,5.9h4.7v1.6H56z"/>
		<path fill="#363636" d="M65.4,283.6c0-2.7,1.3-5.5,4.3-5.5c3,0,4.3,2.8,4.3,5.5c0,2.7-1.3,5.5-4.3,5.5
			C66.6,289.1,65.4,286.2,65.4,283.6z M72,283.6c0-2-0.6-3.8-2.4-3.8c-1.7,0-2.4,1.8-2.4,3.8c0,2,0.6,3.9,2.4,3.9
			C71.4,287.4,72,285.6,72,283.6z"/>
	</g>
</g>
<g>
	<g>
		<path fill="#363636" d="M60.9,258.6v-2.4h-5.1v-1.5l4.4-6.8h2.6v6.6h1.4v1.6h-1.4v2.4H60.9z M60.9,249.6l-3.2,4.9h3.2V249.6z"/>
		<path fill="#363636" d="M65.4,253.3c0-2.7,1.3-5.5,4.3-5.5c3,0,4.3,2.8,4.3,5.5c0,2.7-1.3,5.5-4.3,5.5
			C66.6,258.8,65.4,255.9,65.4,253.3z M72,253.3c0-2-0.6-3.8-2.4-3.8c-1.7,0-2.4,1.8-2.4,3.8c0,2,0.6,3.9,2.4,3.9
			C71.4,257.1,72,255.3,72,253.3z"/>
	</g>
</g>
<g>
	<g>
		<path fill="#363636" d="M55.7,223c0-3.1,1.6-5.5,4.7-5.5c1.3,0,2.3,0.5,3.1,1.2l-0.9,1.4c-0.6-0.6-1.2-0.9-2.2-0.9
			c-1.8,0-2.8,1.6-2.8,3.5c0,0.1,0,0.2,0,0.3c0.5-0.7,1.6-1.5,2.9-1.5c1.9,0,3.6,1.2,3.6,3.5c0,2-1.6,3.6-3.9,3.6
			C57,228.5,55.7,226,55.7,223z M62.2,225c0-1.3-1-1.9-2.2-1.9c-0.9,0-1.8,0.5-2.3,1.2c0.1,1.2,0.7,2.5,2.4,2.5
			C61.4,226.8,62.2,225.8,62.2,225z"/>
		<path fill="#363636" d="M65.4,223c0-2.7,1.3-5.5,4.3-5.5c3,0,4.3,2.8,4.3,5.5c0,2.7-1.3,5.5-4.3,5.5
			C66.6,228.5,65.4,225.7,65.4,223z M72,223c0-2-0.6-3.8-2.4-3.8c-1.7,0-2.4,1.8-2.4,3.8c0,2,0.6,3.9,2.4,3.9
			C71.4,226.8,72,225,72,223z"/>
	</g>
</g>
<g>
	<g>
		<path fill="#363636" d="M55.8,195.3c0-1.3,1.1-2.3,2.4-2.8c-1.2-0.4-2.2-1.2-2.2-2.5c0-2,2-2.8,3.9-2.8s3.9,0.8,3.9,2.8
			c0,1.3-1,2.1-2.2,2.5c1.3,0.4,2.4,1.4,2.4,2.8c0,1.9-1.9,2.9-4.1,2.9C57.7,198.2,55.8,197.2,55.8,195.3z M62.1,195
			c0-1.1-1.5-1.6-2.2-1.7c-0.7,0.1-2.2,0.6-2.2,1.7c0,0.9,1,1.5,2.2,1.5C61.1,196.6,62.1,196,62.1,195z M61.9,190.3
			c0-0.9-0.9-1.4-2-1.4s-2,0.5-2,1.4c0,1,1.4,1.4,2,1.5C60.6,191.7,61.9,191.3,61.9,190.3z"/>
		<path fill="#363636" d="M65.4,192.7c0-2.7,1.3-5.5,4.3-5.5c3,0,4.3,2.8,4.3,5.5c0,2.7-1.3,5.5-4.3,5.5
			C66.6,198.2,65.4,195.4,65.4,192.7z M72,192.7c0-2-0.6-3.8-2.4-3.8c-1.7,0-2.4,1.8-2.4,3.8c0,2,0.6,3.9,2.4,3.9
			C71.4,196.6,72,194.7,72,192.7z"/>
	</g>
</g>
<g>
	<g>
		<path fill="#363636" d="M51.8,167.7v-8.3l-1.7,1.8l-1.1-1.1l3.1-3.1h1.6v10.7H51.8z"/>
		<path fill="#363636" d="M55.5,162.4c0-2.7,1.3-5.5,4.3-5.5c3,0,4.3,2.8,4.3,5.5c0,2.7-1.3,5.5-4.3,5.5
			C56.8,167.9,55.5,165.1,55.5,162.4z M62.1,162.4c0-2-0.6-3.8-2.4-3.8c-1.7,0-2.4,1.8-2.4,3.8c0,2,0.6,3.9,2.4,3.9
			C61.5,166.3,62.1,164.4,62.1,162.4z"/>
		<path fill="#363636" d="M65.4,162.4c0-2.7,1.3-5.5,4.3-5.5c3,0,4.3,2.8,4.3,5.5c0,2.7-1.3,5.5-4.3,5.5
			C66.6,167.9,65.4,165.1,65.4,162.4z M72,162.4c0-2-0.6-3.8-2.4-3.8c-1.7,0-2.4,1.8-2.4,3.8c0,2,0.6,3.9,2.4,3.9
			C71.4,166.3,72,164.4,72,162.4z"/>
	</g>
</g>
<g>
	<g>
		<path fill="#363636" d="M52.2,137.4v-8.3l-1.7,1.8l-1.1-1.1l3.1-3.1H54v10.7H52.2z"/>
		<path fill="#363636" d="M56,137.4V136c4.1-3.1,5.8-4.5,5.8-6.1c0-1.1-1-1.6-2-1.6c-1.2,0-2.2,0.5-2.9,1.3l-1.1-1.2
			c0.9-1.2,2.4-1.7,4-1.7c2.1,0,3.9,1.2,3.9,3.3c0,2-1.8,3.7-4.7,5.9h4.7v1.6H56z"/>
		<path fill="#363636" d="M65.4,132.1c0-2.7,1.3-5.5,4.3-5.5c3,0,4.3,2.8,4.3,5.5c0,2.7-1.3,5.5-4.3,5.5
			C66.6,137.6,65.4,134.8,65.4,132.1z M72,132.1c0-2-0.6-3.8-2.4-3.8c-1.7,0-2.4,1.8-2.4,3.8c0,2,0.6,3.9,2.4,3.9
			C71.4,136,72,134.1,72,132.1z"/>
	</g>
</g>
<g>
	<g>
		<path fill="#363636" d="M52.4,107.2v-8.3l-1.7,1.8l-1.1-1.1l3.1-3.1h1.6v10.7H52.4z"/>
		<path fill="#363636" d="M60.9,107.2v-2.4h-5.1v-1.5l4.4-6.8h2.6v6.6h1.4v1.6h-1.4v2.4H60.9z M60.9,98.2l-3.2,4.9h3.2V98.2z"/>
		<path fill="#363636" d="M65.4,101.8c0-2.7,1.3-5.5,4.3-5.5c3,0,4.3,2.8,4.3,5.5c0,2.7-1.3,5.5-4.3,5.5
			C66.6,107.3,65.4,104.5,65.4,101.8z M72,101.8c0-2-0.6-3.8-2.4-3.8c-1.7,0-2.4,1.8-2.4,3.8c0,2,0.6,3.9,2.4,3.9
			C71.4,105.7,72,103.9,72,101.8z"/>
	</g>
</g>
<g>
	<g>
		<path fill="#363636" d="M52.1,76.9v-8.3l-1.7,1.8l-1.1-1.1l3.1-3.1h1.6v10.7H52.1z"/>
		<path fill="#363636" d="M55.7,71.5c0-3.1,1.6-5.5,4.7-5.5c1.3,0,2.3,0.5,3.1,1.2l-0.9,1.4c-0.6-0.6-1.2-0.9-2.2-0.9
			c-1.8,0-2.8,1.6-2.8,3.5c0,0.1,0,0.2,0,0.3c0.5-0.7,1.6-1.5,2.9-1.5c1.9,0,3.6,1.2,3.6,3.5c0,2-1.6,3.6-3.9,3.6
			C57,77.1,55.7,74.5,55.7,71.5z M62.2,73.5c0-1.3-1-1.9-2.2-1.9c-0.9,0-1.8,0.5-2.3,1.2c0.1,1.2,0.7,2.5,2.4,2.5
			C61.4,75.4,62.2,74.4,62.2,73.5z"/>
		<path fill="#363636" d="M65.4,71.5c0-2.7,1.3-5.5,4.3-5.5c3,0,4.3,2.8,4.3,5.5c0,2.7-1.3,5.5-4.3,5.5
			C66.6,77.1,65.4,74.2,65.4,71.5z M72,71.5c0-2-0.6-3.8-2.4-3.8c-1.7,0-2.4,1.8-2.4,3.8c0,2,0.6,3.9,2.4,3.9
			C71.4,75.4,72,73.6,72,71.5z"/>
	</g>
</g>
<g>
	<g>
		<path fill="#363636" d="M52.1,46.6v-8.3l-1.7,1.8L49.3,39l3.1-3.1H54v10.7H52.1z"/>
		<path fill="#363636" d="M55.8,43.8c0-1.3,1.1-2.3,2.4-2.8C57,40.7,56,39.9,56,38.5c0-2,2-2.8,3.9-2.8s3.9,0.8,3.9,2.8
			c0,1.3-1,2.1-2.2,2.5c1.3,0.4,2.4,1.4,2.4,2.8c0,1.9-1.9,2.9-4.1,2.9C57.7,46.8,55.8,45.7,55.8,43.8z M62.1,43.6
			c0-1.1-1.5-1.6-2.2-1.7c-0.7,0.1-2.2,0.6-2.2,1.7c0,0.9,1,1.5,2.2,1.5C61.1,45.1,62.1,44.5,62.1,43.6z M61.9,38.8
			c0-0.9-0.9-1.4-2-1.4s-2,0.5-2,1.4c0,1,1.4,1.4,2,1.5C60.6,40.2,61.9,39.8,61.9,38.8z"/>
		<path fill="#363636" d="M65.4,41.2c0-2.7,1.3-5.5,4.3-5.5c3,0,4.3,2.8,4.3,5.5c0,2.7-1.3,5.5-4.3,5.5
			C66.6,46.8,65.4,43.9,65.4,41.2z M72,41.2c0-2-0.6-3.8-2.4-3.8c-1.7,0-2.4,1.8-2.4,3.8c0,2,0.6,3.9,2.4,3.9
			C71.4,45.1,72,43.3,72,41.2z"/>
	</g>
</g>
<g>
	<g>
		<path fill="#363636" d="M46.1,16.3v-1.5c4.1-3.1,5.8-4.5,5.8-6.1c0-1.1-1-1.6-2-1.6c-1.2,0-2.2,0.5-2.9,1.3L46,7.2
			c0.9-1.2,2.4-1.7,4-1.7c2.1,0,3.9,1.2,3.9,3.3c0,2-1.8,3.7-4.7,5.9h4.7v1.6H46.1z"/>
		<path fill="#363636" d="M55.5,11c0-2.7,1.3-5.5,4.3-5.5c3,0,4.3,2.8,4.3,5.5c0,2.7-1.3,5.5-4.3,5.5C56.8,16.5,55.5,13.6,55.5,11z
			 M62.1,11c0-2-0.6-3.8-2.4-3.8c-1.7,0-2.4,1.8-2.4,3.8c0,2,0.6,3.9,2.4,3.9C61.5,14.8,62.1,13,62.1,11z"/>
		<path fill="#363636" d="M65.4,11c0-2.7,1.3-5.5,4.3-5.5c3,0,4.3,2.8,4.3,5.5c0,2.7-1.3,5.5-4.3,5.5C66.6,16.5,65.4,13.6,65.4,11z
			 M72,11c0-2-0.6-3.8-2.4-3.8c-1.7,0-2.4,1.8-2.4,3.8c0,2,0.6,3.9,2.4,3.9C71.4,14.8,72,13,72,11z"/>
	</g>
</g>
<g>
	<path fill="#131413" d="M136.3,60.1l-5.4-7.5v7.5h-1.2v-9.3h1.2l5.4,7.3v-7.3h1.2v9.3H136.3z"/>
	<path fill="#131413" d="M139.1,56.7c0-2,1.3-3.5,3.3-3.5s3.3,1.6,3.3,3.5c0,2-1.3,3.6-3.3,3.6S139.1,58.7,139.1,56.7z M144.7,56.7
		c0-1.4-0.8-2.6-2.2-2.6c-1.4,0-2.2,1.2-2.2,2.6c0,1.4,0.8,2.6,2.2,2.6C143.9,59.4,144.7,58.1,144.7,56.7z"/>
	<path fill="#131413" d="M155.7,60.1v-4.6c0-0.9-0.4-1.4-1.2-1.4c-0.7,0-1.4,0.5-1.8,1v5h-1.1v-4.6c0-0.9-0.4-1.4-1.2-1.4
		c-0.7,0-1.4,0.5-1.8,1.1v4.9h-1.1v-6.8h1.1v1c0.3-0.4,1.2-1.1,2.2-1.1c1,0,1.6,0.6,1.8,1.3c0.4-0.6,1.3-1.3,2.3-1.3
		c1.2,0,1.9,0.7,1.9,2v4.9H155.7z"/>
	<path fill="#131413" d="M158.8,60.1v-9.3h1.1v3.6c0.5-0.7,1.4-1.2,2.3-1.2c1.8,0,3,1.4,3,3.6c0,2.2-1.2,3.5-3,3.5
		c-1,0-1.8-0.5-2.3-1.2v1H158.8z M161.9,59.4c1.4,0,2.2-1.1,2.2-2.6c0-1.5-0.8-2.6-2.2-2.6c-0.8,0-1.7,0.5-2,1.1v3.1
		C160.2,58.9,161.1,59.4,161.9,59.4z"/>
	<path fill="#131413" d="M166.9,60.1v-6.8h1.1v1.1c0.5-0.7,1.3-1.2,2.3-1.2v1.1c-0.1,0-0.3,0-0.4,0c-0.7,0-1.5,0.5-1.8,1.1v4.8
		H166.9z"/>
	<path fill="#131413" d="M171.1,56.7c0-2,1.4-3.5,3.3-3.5c2,0,3.2,1.6,3.2,3.6v0.3h-5.5c0.1,1.3,1,2.3,2.4,2.3
		c0.8,0,1.6-0.3,2.1-0.9l0.5,0.7c-0.7,0.7-1.6,1.1-2.7,1.1C172.6,60.3,171.1,58.9,171.1,56.7z M174.4,54.1c-1.4,0-2.2,1.2-2.2,2.2
		h4.4C176.6,55.3,176,54.1,174.4,54.1z"/>
	<path fill="#131413" d="M184.1,59.1v3.6H183v-9.3h1.1v1c0.5-0.7,1.3-1.2,2.3-1.2c1.8,0,3,1.3,3,3.5c0,2.2-1.2,3.6-3,3.6
		C185.4,60.3,184.6,59.9,184.1,59.1z M188.2,56.7c0-1.5-0.8-2.6-2.2-2.6c-0.8,0-1.7,0.5-2,1.1v3.1c0.4,0.6,1.2,1.1,2,1.1
		C187.4,59.4,188.2,58.2,188.2,56.7z"/>
	<path fill="#131413" d="M191,60.1v-6.8h1.1v1.1c0.5-0.7,1.3-1.2,2.3-1.2v1.1c-0.1,0-0.3,0-0.4,0c-0.7,0-1.5,0.5-1.8,1.1v4.8H191z"
		/>
	<path fill="#131413" d="M195.2,56.7c0-2,1.4-3.5,3.3-3.5c2,0,3.2,1.6,3.2,3.6v0.3h-5.5c0.1,1.3,1,2.3,2.4,2.3
		c0.8,0,1.6-0.3,2.1-0.9l0.5,0.7c-0.7,0.7-1.6,1.1-2.7,1.1C196.7,60.3,195.2,58.9,195.2,56.7z M198.6,54.1c-1.4,0-2.2,1.2-2.2,2.2
		h4.4C200.8,55.3,200.1,54.1,198.6,54.1z M198.5,52.3h-0.8l2.1-2h1.1L198.5,52.3z"/>
	<path fill="#131413" d="M205.3,60.1l-2.8-6.8h1.1l2.2,5.5l2.3-5.5h1.1l-2.8,6.8H205.3z"/>
	<path fill="#131413" d="M214.9,60.1v-1c-0.5,0.6-1.4,1.1-2.4,1.1c-1.4,0-2.2-0.7-2.2-2.2v-4.8h1.1v4.5c0,1.2,0.6,1.5,1.5,1.5
		c0.8,0,1.6-0.5,2-1v-5h1.1v6.8H214.9z"/>
</g>
<g>
	<path fill="#131413" d="M135.7,90.3l-5.4-7.5v7.5h-1.2V81h1.2l5.4,7.3V81h1.2v9.3H135.7z"/>
	<path fill="#131413" d="M138.6,86.9c0-2,1.3-3.5,3.3-3.5s3.3,1.6,3.3,3.5c0,2-1.3,3.6-3.3,3.6S138.6,88.9,138.6,86.9z M144.2,86.9
		c0-1.4-0.8-2.6-2.2-2.6c-1.4,0-2.2,1.2-2.2,2.6c0,1.4,0.8,2.6,2.2,2.6C143.4,89.6,144.2,88.3,144.2,86.9z"/>
	<path fill="#131413" d="M155.2,90.3v-4.6c0-0.9-0.4-1.4-1.2-1.4c-0.7,0-1.4,0.5-1.8,1v5h-1.1v-4.6c0-0.9-0.4-1.4-1.2-1.4
		c-0.7,0-1.4,0.5-1.8,1.1v4.9H147v-6.8h1.1v1c0.3-0.4,1.2-1.1,2.2-1.1c1,0,1.6,0.6,1.8,1.3c0.4-0.6,1.3-1.3,2.3-1.3
		c1.2,0,1.9,0.7,1.9,2v4.9H155.2z"/>
	<path fill="#131413" d="M158.3,90.3V81h1.1v3.6c0.5-0.7,1.4-1.2,2.3-1.2c1.8,0,3,1.4,3,3.6c0,2.2-1.2,3.5-3,3.5
		c-1,0-1.8-0.5-2.3-1.2v1H158.3z M161.4,89.6c1.4,0,2.2-1.1,2.2-2.6c0-1.5-0.8-2.6-2.2-2.6c-0.8,0-1.7,0.5-2,1.1v3.1
		C159.7,89.1,160.6,89.6,161.4,89.6z"/>
	<path fill="#131413" d="M166.4,90.3v-6.8h1.1v1.1c0.5-0.7,1.3-1.2,2.3-1.2v1.1c-0.1,0-0.3,0-0.4,0c-0.7,0-1.5,0.5-1.8,1.1v4.8
		H166.4z"/>
	<path fill="#131413" d="M170.6,86.9c0-2,1.4-3.5,3.3-3.5c2,0,3.2,1.6,3.2,3.6v0.3h-5.5c0.1,1.3,1,2.3,2.4,2.3
		c0.8,0,1.6-0.3,2.1-0.9l0.5,0.7c-0.7,0.7-1.6,1.1-2.7,1.1C172,90.5,170.6,89.1,170.6,86.9z M173.9,84.3c-1.4,0-2.2,1.2-2.2,2.2h4.4
		C176.1,85.5,175.5,84.3,173.9,84.3z"/>
	<path fill="#131413" d="M182.1,86.9c0-2,1.4-3.5,3.3-3.5c2,0,3.2,1.6,3.2,3.6v0.3h-5.5c0.1,1.3,1,2.3,2.4,2.3
		c0.8,0,1.6-0.3,2.1-0.9l0.5,0.7c-0.7,0.7-1.6,1.1-2.7,1.1C183.5,90.5,182.1,89.1,182.1,86.9z M185.4,84.3c-1.4,0-2.2,1.2-2.2,2.2
		h4.4C187.6,85.5,187,84.3,185.4,84.3z"/>
	<path fill="#131413" d="M190.7,90.3v-5.8h-1.1v-0.9h1.1V83c0-1.4,0.8-2.2,2-2.2c0.5,0,1,0.1,1.4,0.5l-0.4,0.7
		c-0.2-0.2-0.5-0.3-0.8-0.3c-0.7,0-1.1,0.5-1.1,1.3v0.5h1.4v0.9h-1.4v5.8H190.7z M194.6,90.3v-5.8h-1.1v-0.9h1.1V83
		c0-1.4,0.8-2.2,2-2.2c0.5,0,1,0.1,1.4,0.5l-0.4,0.7c-0.2-0.2-0.5-0.3-0.8-0.3c-0.7,0-1.1,0.5-1.1,1.3v0.5h1.4v0.9h-1.4v5.8H194.6z"
		/>
	<path fill="#131413" d="M197.9,86.9c0-2,1.4-3.5,3.3-3.5c2,0,3.2,1.6,3.2,3.6v0.3H199c0.1,1.3,1,2.3,2.4,2.3c0.8,0,1.6-0.3,2.1-0.9
		l0.5,0.7c-0.7,0.7-1.6,1.1-2.7,1.1C199.4,90.5,197.9,89.1,197.9,86.9z M201.2,84.3c-1.4,0-2.2,1.2-2.2,2.2h4.4
		C203.5,85.5,202.8,84.3,201.2,84.3z"/>
	<path fill="#131413" d="M205.8,86.9c0-2,1.4-3.5,3.4-3.5c1.2,0,2,0.5,2.5,1.2l-0.7,0.6c-0.4-0.6-1-0.9-1.7-0.9
		c-1.4,0-2.3,1.1-2.3,2.6c0,1.5,0.9,2.6,2.3,2.6c0.7,0,1.3-0.3,1.7-0.9l0.7,0.6c-0.5,0.7-1.2,1.2-2.5,1.2
		C207.2,90.5,205.8,88.9,205.8,86.9z"/>
	<path fill="#131413" d="M213.3,88.9v-4.4h-1.1v-0.9h1.1v-1.8h1.1v1.8h1.4v0.9h-1.4v4.2c0,0.5,0.2,0.9,0.7,0.9
		c0.3,0,0.6-0.1,0.7-0.3l0.3,0.8c-0.3,0.3-0.6,0.4-1.2,0.4C213.9,90.5,213.3,89.9,213.3,88.9z"/>
	<path fill="#131413" d="M217.1,81.9c0-0.4,0.3-0.7,0.7-0.7c0.4,0,0.7,0.3,0.7,0.7s-0.3,0.7-0.7,0.7
		C217.4,82.6,217.1,82.3,217.1,81.9z M217.3,90.3v-6.8h1.1v6.8H217.3z"/>
	<path fill="#131413" d="M222.2,90.3l-2.8-6.8h1.1l2.2,5.5l2.3-5.5h1.1l-2.8,6.8H222.2z"/>
	<path fill="#131413" d="M226.9,86.9c0-2,1.4-3.5,3.3-3.5c2,0,3.2,1.6,3.2,3.6v0.3H228c0.1,1.3,1,2.3,2.4,2.3c0.8,0,1.6-0.3,2.1-0.9
		l0.5,0.7c-0.7,0.7-1.6,1.1-2.7,1.1C228.3,90.5,226.9,89.1,226.9,86.9z M230.2,84.3c-1.4,0-2.2,1.2-2.2,2.2h4.4
		C232.4,85.5,231.7,84.3,230.2,84.3z"/>
	<path fill="#131413" d="M243.3,90.3v-4.6c0-0.9-0.4-1.4-1.2-1.4c-0.7,0-1.4,0.5-1.8,1v5h-1.1v-4.6c0-0.9-0.4-1.4-1.2-1.4
		c-0.7,0-1.4,0.5-1.8,1.1v4.9h-1.1v-6.8h1.1v1c0.3-0.4,1.2-1.1,2.2-1.1c1,0,1.6,0.6,1.8,1.3c0.4-0.6,1.3-1.3,2.3-1.3
		c1.2,0,1.9,0.7,1.9,2v4.9H243.3z"/>
	<path fill="#131413" d="M246.1,86.9c0-2,1.4-3.5,3.3-3.5c2,0,3.2,1.6,3.2,3.6v0.3h-5.5c0.1,1.3,1,2.3,2.4,2.3
		c0.8,0,1.6-0.3,2.1-0.9l0.5,0.7c-0.7,0.7-1.6,1.1-2.7,1.1C247.5,90.5,246.1,89.1,246.1,86.9z M249.4,84.3c-1.4,0-2.2,1.2-2.2,2.2
		h4.4C251.6,85.5,250.9,84.3,249.4,84.3z"/>
	<path fill="#131413" d="M258.9,90.3v-4.4c0-1.2-0.6-1.6-1.5-1.6c-0.8,0-1.6,0.5-2,1.1v4.9h-1.1v-6.8h1.1v1c0.5-0.6,1.4-1.1,2.4-1.1
		c1.4,0,2.1,0.7,2.1,2.2v4.7H258.9z"/>
	<path fill="#131413" d="M262.3,88.9v-4.4h-1.1v-0.9h1.1v-1.8h1.1v1.8h1.4v0.9h-1.4v4.2c0,0.5,0.2,0.9,0.7,0.9
		c0.3,0,0.6-0.1,0.7-0.3l0.3,0.8c-0.3,0.3-0.6,0.4-1.2,0.4C262.8,90.5,262.3,89.9,262.3,88.9z"/>
	<path fill="#131413" d="M269.4,86.9c0-2,1.4-3.5,3.3-3.5c2,0,3.2,1.6,3.2,3.6v0.3h-5.5c0.1,1.3,1,2.3,2.4,2.3
		c0.8,0,1.6-0.3,2.1-0.9l0.5,0.7c-0.7,0.7-1.6,1.1-2.7,1.1C270.9,90.5,269.4,89.1,269.4,86.9z M272.7,84.3c-1.4,0-2.2,1.2-2.2,2.2
		h4.4C274.9,85.5,274.3,84.3,272.7,84.3z"/>
	<path fill="#131413" d="M282.1,90.3l-2-2.8l-2,2.8h-1.2l2.6-3.5l-2.5-3.3h1.2l1.9,2.6l1.9-2.6h1.2l-2.5,3.3l2.6,3.5H282.1z"/>
	<path fill="#131413" d="M285.6,89.3v3.6h-1.1v-9.3h1.1v1c0.5-0.7,1.3-1.2,2.3-1.2c1.8,0,3,1.3,3,3.5c0,2.2-1.2,3.6-3,3.6
		C286.9,90.5,286.1,90.1,285.6,89.3z M289.7,86.9c0-1.5-0.8-2.6-2.2-2.6c-0.8,0-1.7,0.5-2,1.1v3.1c0.4,0.6,1.2,1.1,2,1.1
		C288.9,89.6,289.7,88.4,289.7,86.9z"/>
	<path fill="#131413" d="M292.1,86.9c0-2,1.4-3.5,3.3-3.5c2,0,3.2,1.6,3.2,3.6v0.3h-5.5c0.1,1.3,1,2.3,2.4,2.3
		c0.8,0,1.6-0.3,2.1-0.9l0.5,0.7c-0.7,0.7-1.6,1.1-2.7,1.1C293.6,90.5,292.1,89.1,292.1,86.9z M295.4,84.3c-1.4,0-2.2,1.2-2.2,2.2
		h4.4C297.7,85.5,297,84.3,295.4,84.3z M295.3,82.5h-0.8l2.1-2h1.1L295.3,82.5z"/>
	<path fill="#131413" d="M305.3,90.3v-1c-0.5,0.7-1.3,1.2-2.3,1.2c-1.8,0-3-1.3-3-3.5c0-2.2,1.2-3.6,3-3.6c0.9,0,1.7,0.4,2.3,1.2V81
		h1.1v9.3H305.3z M305.3,88.5v-3.1c-0.4-0.6-1.2-1.1-2-1.1c-1.4,0-2.2,1.1-2.2,2.6c0,1.5,0.8,2.6,2.2,2.6
		C304.1,89.6,304.9,89.1,305.3,88.5z"/>
	<path fill="#131413" d="M308.3,81.9c0-0.4,0.3-0.7,0.7-0.7c0.4,0,0.7,0.3,0.7,0.7s-0.3,0.7-0.7,0.7
		C308.6,82.6,308.3,82.3,308.3,81.9z M308.4,90.3v-6.8h1.1v6.8H308.4z"/>
	<path fill="#131413" d="M311.2,86.9c0-2,1.4-3.5,3.3-3.5c2,0,3.2,1.6,3.2,3.6v0.3h-5.5c0.1,1.3,1,2.3,2.4,2.3
		c0.8,0,1.6-0.3,2.1-0.9l0.5,0.7c-0.7,0.7-1.6,1.1-2.7,1.1C312.6,90.5,311.2,89.1,311.2,86.9z M314.5,84.3c-1.4,0-2.2,1.2-2.2,2.2
		h4.4C316.7,85.5,316.1,84.3,314.5,84.3z M314.4,82.5h-0.8l2.1-2h1.1L314.4,82.5z"/>
</g>
<rect x="104.2" y="46.2" fill="#363636" width="16.2" height="16.2"/>
<rect x="104.2" y="76.6" fill="#00848F" width="16.2" height="16.2"/>
<g>
	<path fill="#363636" d="M16.7,370.7H3.3v-5c0-4.2,2.8-7,6.7-7c3.9,0,6.7,2.8,6.7,7V370.7z M10,361.1c-2.6,0-4.6,1.6-4.6,4.6v2.6
		h9.2v-2.6C14.6,362.8,12.5,361.1,10,361.1z"/>
	<path fill="#363636" d="M11.8,357.1c-2.8,0-5.1-1.9-5.1-5c0-3.1,2.3-5,5.1-5c2.8,0,5.1,1.9,5.1,5C16.9,355.2,14.6,357.1,11.8,357.1
		z M11.8,349.4c-1.7,0-3.2,1-3.2,2.8c0,1.8,1.5,2.8,3.2,2.8c1.7,0,3.2-1,3.2-2.8C15,350.3,13.5,349.4,11.8,349.4z"/>
	<path fill="#363636" d="M15.4,345.9l-1.5-1c0.7-0.7,1.3-2,1.3-3.3c0-1.3-0.5-1.9-1.3-1.9c-1.9,0-0.5,5.8-4.3,5.8
		c-1.6,0-2.9-1.4-2.9-3.8c0-1.6,0.6-2.9,1.3-3.7l1.5,0.9c-0.6,0.6-1.2,1.6-1.2,2.9c0,1.1,0.5,1.8,1.2,1.8c1.7,0,0.4-5.8,4.3-5.8
		c1.7,0,3,1.4,3,4C16.9,343.4,16.4,344.9,15.4,345.9z"/>
	<path fill="#363636" d="M11.8,336.2c-2.8,0-5.1-2-5.1-4.9c0-2.9,2.2-4.7,5.2-4.7h0.5v7.4c1.4-0.2,2.7-1.2,2.7-3.1
		c0-1-0.4-2.1-1.1-2.8l1.4-1c0.9,1,1.4,2.4,1.4,3.9C16.9,334,14.9,336.2,11.8,336.2z M8.5,331.3c0,1.8,1.4,2.6,2.5,2.7v-5.4
		C9.9,328.6,8.5,329.4,8.5,331.3z"/>
	<path fill="#363636" d="M15.4,325.3l-1.5-1c0.7-0.7,1.3-2,1.3-3.3c0-1.3-0.5-1.9-1.3-1.9c-1.9,0-0.5,5.8-4.3,5.8
		c-1.6,0-2.9-1.4-2.9-3.8c0-1.6,0.6-2.9,1.3-3.7l1.5,0.9c-0.6,0.6-1.2,1.6-1.2,2.9c0,1.1,0.5,1.8,1.2,1.8c1.7,0,0.4-5.8,4.3-5.8
		c1.7,0,3,1.4,3,4C16.9,322.8,16.4,324.3,15.4,325.3z"/>
	<path fill="#363636" d="M16.7,303.1h-1.3c1,0.7,1.6,1.8,1.6,3.1c0,2.5-1.9,4.3-5.1,4.3c-3.1,0-5.1-1.8-5.1-4.3
		c0-1.2,0.5-2.3,1.6-3.1h-5V301h13.3V303.1z M13.7,303.1H9.9c-0.7,0.5-1.3,1.5-1.3,2.5c0,1.7,1.3,2.7,3.2,2.7c1.9,0,3.2-1.1,3.2-2.7
		C15,304.6,14.5,303.5,13.7,303.1z"/>
	<path fill="#363636" d="M11.8,298.8c-2.8,0-5.1-2-5.1-4.9c0-2.9,2.2-4.7,5.2-4.7h0.5v7.4c1.4-0.2,2.7-1.2,2.7-3.1
		c0-1-0.4-2.1-1.1-2.8l1.4-1c0.9,1,1.4,2.4,1.4,3.9C16.9,296.7,14.9,298.8,11.8,298.8z M8.5,293.9c0,1.8,1.4,2.6,2.5,2.7v-5.4
		C9.9,291.3,8.5,292,8.5,293.9z"/>
	<path fill="#363636" d="M16.7,282.4h-1.9l-9.4-6.8v6.8H3.3v-9.9h1.9l9.4,6.8v-7h2.1V282.4z"/>
	<path fill="#363636" d="M4.5,270.4c-0.7,0-1.3-0.6-1.3-1.3s0.6-1.3,1.3-1.3s1.3,0.6,1.3,1.3S5.2,270.4,4.5,270.4z M16.7,270.2H7
		v-2.1h9.7V270.2z"/>
	<path fill="#363636" d="M14.4,264.9H8.8v1.6H7v-1.6H4.4v-2.1H7v-2h1.8v2h5.1c0.7,0,1.2-0.3,1.2-0.9c0-0.4-0.2-0.8-0.4-0.9l1.6-0.5
		c0.3,0.4,0.6,1,0.6,2C16.9,264.1,16,264.9,14.4,264.9z"/>
	<path fill="#363636" d="M16.7,252.4h-6.1c-1.5,0-2,0.8-2,1.9c0,1.1,0.6,2,1.3,2.5h6.8v2.1H3.3v-2.1h5c-0.8-0.6-1.5-1.9-1.5-3.4
		c0-2.1,1.1-3.1,3.1-3.1h6.8V252.4z"/>
	<path fill="#363636" d="M16.7,247.6H7v-2.1h1.4c-0.9-0.7-1.6-1.9-1.6-3.1h2.1c0,0.2-0.1,0.4-0.1,0.6c0,0.9,0.6,2.1,1.3,2.5h6.6
		V247.6z"/>
	<path fill="#363636" d="M11.8,241.2c-2.8,0-5.1-1.9-5.1-5s2.3-5,5.1-5c2.8,0,5.1,1.9,5.1,5S14.6,241.2,11.8,241.2z M11.8,233.5
		c-1.7,0-3.2,1-3.2,2.8c0,1.8,1.5,2.8,3.2,2.8c1.7,0,3.2-1,3.2-2.8C15,234.5,13.5,233.5,11.8,233.5z"/>
	<path fill="#363636" d="M16.7,217.3h-6.3c-1,0-1.7,0.5-1.7,1.6c0,0.9,0.6,1.8,1.3,2.2h6.8v2.1h-6.3c-1,0-1.7,0.4-1.7,1.6
		c0,0.9,0.7,1.8,1.3,2.2h6.8v2.1H7v-2.1h1.3c-0.6-0.4-1.5-1.7-1.5-3.2c0-1.4,0.7-2.3,1.8-2.6c-0.9-0.5-1.8-1.8-1.8-3.3
		c0-1.8,1-2.8,2.9-2.8h7V217.3z"/>
	<path fill="#363636" d="M16.7,206.6h-1.1c0.8,0.7,1.3,1.9,1.3,3.1c0,1.6-1.1,3.3-3.2,3.3c-2.2,0-3.2-1.8-3.2-3.3
		c0-1.3,0.4-2.4,1.2-3.1h-1.4c-1.1,0-1.8,0.9-1.8,2.3c0,1.1,0.4,2,1.2,2.9l-1.5,0.9c-1.1-1.1-1.6-2.5-1.6-4.1c0-2.2,0.9-4,3.5-4h6.4
		V206.6z M14.5,206.6H13c-0.7,0.5-1,1.4-1,2.3c0,1.2,0.7,2.1,1.7,2.1c1.1,0,1.7-0.9,1.7-2.1C15.5,208,15.1,207.1,14.5,206.6z"/>
	<path fill="#363636" d="M16.7,195.6l-3.6,2.5l3.6,2.5v2.4l-5-3.6L7,202.8v-2.4l3.3-2.3L7,195.9v-2.4l4.7,3.3l5-3.6V195.6z"/>
	<path fill="#363636" d="M11.6,188.2c0,2.3-1.9,4.2-4.2,4.2c-2.4,0-4.2-1.9-4.2-4.2c0-2.4,1.9-4.2,4.2-4.2
		C9.7,184,11.6,185.9,11.6,188.2z M3.7,188.2c0,2,1.6,3.6,3.6,3.6c2,0,3.6-1.6,3.6-3.6c0-2-1.6-3.6-3.6-3.6
		C5.3,184.6,3.7,186.2,3.7,188.2z M9.8,187.1l-1.9,1.3v0.9h1.9v0.7H4.9v-2c0-0.8,0.6-1.6,1.5-1.6c1.1,0,1.4,1,1.4,1.2l1.9-1.3V187.1
		z M5.5,187.9v1.3h1.8v-1.3c0-0.4-0.4-0.9-0.9-0.9C5.9,187,5.5,187.5,5.5,187.9z"/>
	<path fill="#363636" d="M11.8,177.4c-2.8,0-5.1-2-5.1-4.9c0-2.9,2.2-4.7,5.2-4.7h0.5v7.4c1.4-0.2,2.7-1.2,2.7-3.1
		c0-1-0.4-2.1-1.1-2.8l1.4-1c0.9,1,1.4,2.4,1.4,3.9C16.9,175.2,14.9,177.4,11.8,177.4z M8.5,172.5c0,1.8,1.4,2.6,2.5,2.7v-5.4
		C9.9,169.8,8.5,170.6,8.5,172.5z"/>
	<path fill="#363636" d="M16.7,159.5l-3.6,2.5l3.6,2.5v2.4l-5-3.6L7,166.7v-2.4l3.3-2.3L7,159.7v-2.4l4.7,3.3l5-3.6V159.5z"/>
	<path fill="#363636" d="M15.3,153.6h5v2.1H7v-2.1h1.3c-1-0.7-1.6-1.8-1.6-3.1c0-2.5,1.9-4.3,5.1-4.3s5.1,1.8,5.1,4.3
		C16.9,151.7,16.3,152.8,15.3,153.6z M11.8,148.4c-1.9,0-3.2,1.1-3.2,2.7c0,1,0.6,2,1.3,2.5h3.8c0.7-0.5,1.3-1.5,1.3-2.5
		C15,149.5,13.7,148.4,11.8,148.4z"/>
	<path fill="#363636" d="M5.5,139.8v1.5l-2.9-2.8v-2L5.5,139.8z M11.8,144.7c-2.8,0-5.1-2-5.1-4.9c0-2.9,2.2-4.7,5.2-4.7h0.5v7.4
		c1.4-0.2,2.7-1.2,2.7-3.1c0-1-0.4-2.1-1.1-2.8l1.4-1c0.9,1,1.4,2.4,1.4,3.9C16.9,142.6,14.9,144.7,11.8,144.7z M8.5,139.8
		c0,1.8,1.4,2.6,2.5,2.7v-5.4C9.9,137.1,8.5,137.9,8.5,139.8z"/>
	<path fill="#363636" d="M16.7,126.2h-1.3c1,0.7,1.6,1.8,1.6,3.1c0,2.5-1.9,4.3-5.1,4.3c-3.1,0-5.1-1.8-5.1-4.3
		c0-1.2,0.5-2.3,1.6-3.1h-5v-2.1h13.3V126.2z M13.7,126.2H9.9c-0.7,0.5-1.3,1.5-1.3,2.5c0,1.7,1.3,2.7,3.2,2.7
		c1.9,0,3.2-1.1,3.2-2.7C15,127.7,14.5,126.6,13.7,126.2z"/>
	<path fill="#363636" d="M4.5,121.6c-0.7,0-1.3-0.6-1.3-1.3s0.6-1.3,1.3-1.3s1.3,0.6,1.3,1.3S5.2,121.6,4.5,121.6z M16.7,121.4H7
		v-2.1h9.7V121.4z"/>
	<path fill="#363636" d="M5.5,112.2v1.5l-2.9-2.8v-2L5.5,112.2z M11.8,117.1c-2.8,0-5.1-2-5.1-4.9c0-2.9,2.2-4.7,5.2-4.7h0.5v7.4
		c1.4-0.2,2.7-1.2,2.7-3.1c0-1-0.4-2.1-1.1-2.8l1.4-1c0.9,1,1.4,2.4,1.4,3.9C16.9,115,14.9,117.1,11.8,117.1z M8.5,112.2
		c0,1.8,1.4,2.6,2.5,2.7v-5.4C9.9,109.6,8.5,110.3,8.5,112.2z"/>
	<path fill="#363636" d="M11.8,106c-2.8,0-5.1-2-5.1-4.9c0-2.9,2.2-4.7,5.2-4.7h0.5v7.4c1.4-0.2,2.7-1.2,2.7-3.1
		c0-1-0.4-2.1-1.1-2.8l1.4-1c0.9,1,1.4,2.4,1.4,3.9C16.9,103.8,14.9,106,11.8,106z M8.5,101.1c0,1.8,1.4,2.6,2.5,2.7v-5.4
		C9.9,98.4,8.5,99.2,8.5,101.1z"/>
	<path fill="#363636" d="M15.4,95.1l-1.5-1c0.7-0.7,1.3-2,1.3-3.3c0-1.3-0.5-1.9-1.3-1.9c-1.9,0-0.5,5.8-4.3,5.8
		c-1.6,0-2.9-1.4-2.9-3.8c0-1.6,0.6-2.9,1.3-3.7l1.5,0.9c-0.6,0.6-1.2,1.6-1.2,2.9c0,1.1,0.5,1.8,1.2,1.8c1.7,0,0.4-5.8,4.3-5.8
		c1.7,0,3,1.4,3,4C16.9,92.6,16.4,94.1,15.4,95.1z"/>
	<path fill="#363636" d="M20.7,77.1c-2.3,1.9-5.6,3-8.8,3S5.3,79,3,77.1l1-1.3c2.5,1.3,4.7,2.1,7.9,2.1c3.1,0,5.4-0.7,7.8-2.1
		L20.7,77.1z"/>
	<path fill="#363636" d="M16.7,62.3h-6.3c-1,0-1.7,0.5-1.7,1.6c0,0.9,0.6,1.8,1.3,2.2h6.8v2.1h-6.3c-1,0-1.7,0.4-1.7,1.6
		c0,0.9,0.7,1.8,1.3,2.2h6.8v2.1H7V72h1.3c-0.6-0.4-1.5-1.7-1.5-3.2c0-1.4,0.7-2.3,1.8-2.6c-0.9-0.5-1.8-1.8-1.8-3.3
		c0-1.8,1-2.8,2.9-2.8h7V62.3z"/>
	<path fill="#363636" d="M4.5,57.7c-0.7,0-1.3-0.6-1.3-1.3c0-0.7,0.6-1.3,1.3-1.3s1.3,0.6,1.3,1.3C5.8,57.1,5.2,57.7,4.5,57.7z
		 M16.7,57.5H7v-2.1h9.7V57.5z"/>
	<path fill="#363636" d="M16.7,52.6H3.3v-2.1h13.3V52.6z"/>
	<path fill="#363636" d="M16.7,47.8H3.3v-2.1h13.3V47.8z"/>
	<path fill="#363636" d="M4.5,43.2c-0.7,0-1.3-0.6-1.3-1.3c0-0.7,0.6-1.3,1.3-1.3s1.3,0.6,1.3,1.3C5.8,42.7,5.2,43.2,4.5,43.2z
		 M16.7,43H7v-2.1h9.7V43z"/>
	<path fill="#363636" d="M11.8,38.8c-2.8,0-5.1-1.9-5.1-5s2.3-5,5.1-5c2.8,0,5.1,1.9,5.1,5S14.6,38.8,11.8,38.8z M11.8,31
		c-1.7,0-3.2,1-3.2,2.8c0,1.8,1.5,2.8,3.2,2.8c1.7,0,3.2-1,3.2-2.8C15,32,13.5,31,11.8,31z"/>
	<path fill="#363636" d="M16.7,20.2h-6c-1.5,0-2,0.8-2,2c0,1.1,0.6,2,1.3,2.5h6.8v2.1H7v-2.1h1.3c-0.8-0.6-1.5-1.9-1.5-3.4
		c0-2.1,1.1-3.1,3.1-3.1h6.8V20.2z"/>
	<path fill="#363636" d="M15.4,16.2l-1.5-1c0.7-0.7,1.3-2,1.3-3.3c0-1.3-0.5-1.9-1.3-1.9c-1.9,0-0.5,5.8-4.3,5.8
		c-1.6,0-2.9-1.4-2.9-3.8c0-1.6,0.6-2.9,1.3-3.7l1.5,0.9c-0.6,0.6-1.2,1.6-1.2,2.9c0,1.1,0.5,1.8,1.2,1.8c1.7,0,0.4-5.8,4.3-5.8
		c1.7,0,3,1.4,3,4C16.9,13.7,16.4,15.2,15.4,16.2z"/>
	<path fill="#363636" d="M19.7,6.9c-2.5-1.3-4.7-2-7.8-2c-3.2,0-5.4,0.7-7.9,2L3,5.6c2.3-1.9,5.6-3,8.8-3s6.5,1.1,8.8,3L19.7,6.9z"
		/>
</g>
<g>
	<g>
		<path fill="#363636" d="M4,431.3l0.6-0.8c0.5,0.6,1.4,1.2,2.5,1.2c1.4,0,1.9-0.8,1.9-1.4c0-2.1-4.7-0.9-4.7-3.8
			c0-1.3,1.2-2.2,2.8-2.2c1.2,0,2.2,0.4,2.8,1.1l-0.6,0.7c-0.6-0.7-1.4-1-2.3-1c-0.9,0-1.6,0.5-1.6,1.3c0,1.8,4.7,0.8,4.7,3.8
			c0,1.2-0.8,2.4-3,2.4C5.7,432.6,4.7,432.1,4,431.3z"/>
		<path fill="#363636" d="M11.1,429.6c0-1.7,1.1-3,2.9-3s2.9,1.4,2.9,3s-1.1,3-2.9,3S11.1,431.3,11.1,429.6z M15.9,429.6
			c0-1.2-0.7-2.2-1.9-2.2s-1.9,1.1-1.9,2.2c0,1.2,0.7,2.2,1.9,2.2S15.9,430.8,15.9,429.6z"/>
		<path fill="#363636" d="M22.2,432.5v-0.8c-0.4,0.5-1.2,1-2.1,1c-1.2,0-1.8-0.6-1.8-1.8v-4.1h0.9v3.8c0,1,0.5,1.3,1.3,1.3
			c0.7,0,1.4-0.4,1.7-0.9v-4.3h0.9v5.8H22.2z"/>
		<path fill="#363636" d="M24.9,432.5v-5.8h0.9v0.9c0.5-0.6,1.1-1.1,1.9-1.1v0.9c-0.1,0-0.2,0-0.3,0c-0.6,0-1.3,0.5-1.6,0.9v4.1
			H24.9z"/>
		<path fill="#363636" d="M28.6,429.6c0-1.7,1.2-3,2.9-3c1.1,0,1.7,0.4,2.1,1l-0.6,0.5c-0.4-0.5-0.9-0.7-1.5-0.7c-1.2,0-2,0.9-2,2.2
			s0.8,2.2,2,2.2c0.6,0,1.1-0.2,1.5-0.8l0.6,0.6c-0.4,0.6-1.1,1-2.1,1C29.7,432.6,28.6,431.3,28.6,429.6z"/>
		<path fill="#363636" d="M34.5,429.6c0-1.7,1.2-3,2.9-3c1.8,0,2.8,1.4,2.8,3.1v0.2h-4.7c0.1,1.1,0.8,2,2.1,2c0.7,0,1.3-0.3,1.8-0.7
			l0.4,0.6c-0.6,0.6-1.4,0.9-2.3,0.9C35.8,432.6,34.5,431.4,34.5,429.6z M37.4,427.3c-1.2,0-1.8,1-1.9,1.9h3.8
			C39.3,428.4,38.7,427.3,37.4,427.3z"/>
		<path fill="#363636" d="M44.5,427.3c0-0.4,0.3-0.7,0.7-0.7s0.7,0.3,0.7,0.7c0,0.3-0.3,0.7-0.7,0.7S44.5,427.6,44.5,427.3z
			 M44.5,431.9c0-0.4,0.3-0.7,0.7-0.7s0.7,0.3,0.7,0.7c0,0.4-0.3,0.7-0.7,0.7S44.5,432.3,44.5,431.9z"/>
		<path fill="#363636" d="M50.6,432.5v-8h1v8H50.6z"/>
		<path fill="#363636" d="M55.4,432.5v-7.1h-2.5v-0.9h6.1v0.9h-2.5v7.1H55.4z"/>
		<path fill="#363636" d="M60.3,432.5v-8h1v8H60.3z"/>
		<path fill="#363636" d="M63.3,434l-0.5-0.4c0.4-0.3,0.7-0.7,0.8-1.1c0,0-0.1,0-0.2,0c-0.3,0-0.6-0.3-0.6-0.6s0.3-0.6,0.6-0.6
			c0.4,0,0.8,0.3,0.8,0.9C64.3,432.9,63.9,433.6,63.3,434z"/>
		<path fill="#363636" d="M68.6,429.6c0-1.7,1.2-3,2.9-3c1.8,0,2.8,1.4,2.8,3.1v0.2h-4.7c0.1,1.1,0.8,2,2.1,2c0.7,0,1.3-0.3,1.8-0.7
			l0.4,0.6c-0.6,0.6-1.4,0.9-2.3,0.9C69.9,432.6,68.6,431.4,68.6,429.6z M71.5,427.3c-1.2,0-1.8,1-1.9,1.9h3.8
			C73.4,428.4,72.8,427.3,71.5,427.3z"/>
		<path fill="#363636" d="M79.6,432.5v-3.8c0-1-0.5-1.3-1.3-1.3c-0.7,0-1.4,0.4-1.7,0.9v4.2h-0.9v-5.8h0.9v0.8c0.4-0.5,1.2-1,2.1-1
			c1.2,0,1.8,0.6,1.8,1.9v4.1H79.6z"/>
		<path fill="#363636" d="M89.7,432.5v-0.9c-0.4,0.6-1.1,1-2,1c-1.5,0-2.6-1.2-2.6-3c0-1.9,1.1-3,2.6-3c0.8,0,1.5,0.4,2,1v-3.1h0.9
			v8H89.7z M89.7,430.9v-2.6c-0.3-0.5-1-0.9-1.7-0.9c-1.2,0-1.9,1-1.9,2.2s0.7,2.2,1.9,2.2C88.6,431.8,89.3,431.4,89.7,430.9z"/>
		<path fill="#363636" d="M96,432.5v-0.7c-0.5,0.5-1.1,0.8-1.9,0.8c-1,0-2-0.7-2-1.9c0-1.3,1-1.9,2-1.9c0.8,0,1.5,0.3,1.9,0.8v-1
			c0-0.8-0.6-1.2-1.5-1.2c-0.7,0-1.3,0.2-1.8,0.8l-0.4-0.6c0.6-0.6,1.4-1,2.3-1c1.2,0,2.2,0.6,2.2,2v4H96z M96,431.3v-1.1
			c-0.3-0.5-1-0.7-1.6-0.7c-0.9,0-1.4,0.5-1.4,1.3c0,0.7,0.6,1.3,1.4,1.3C95,432,95.6,431.7,96,431.3z"/>
		<path fill="#363636" d="M98.9,431.3v-3.8h-1v-0.8h1v-1.6h0.9v1.6h1.2v0.8h-1.2v3.6c0,0.4,0.2,0.7,0.6,0.7c0.3,0,0.5-0.1,0.6-0.3
			l0.3,0.7c-0.2,0.2-0.6,0.4-1.1,0.4C99.3,432.6,98.9,432.1,98.9,431.3z"/>
		<path fill="#363636" d="M101.9,429.6c0-1.7,1.2-3,2.9-3c1.8,0,2.8,1.4,2.8,3.1v0.2h-4.7c0.1,1.1,0.8,2,2.1,2
			c0.7,0,1.3-0.3,1.8-0.7l0.4,0.6c-0.6,0.6-1.4,0.9-2.3,0.9C103.1,432.6,101.9,431.4,101.9,429.6z M104.7,427.3
			c-1.2,0-1.8,1-1.9,1.9h3.8C106.6,428.4,106,427.3,104.7,427.3z"/>
		<path fill="#363636" d="M116.3,432.5v-0.9c-0.4,0.6-1.1,1-2,1c-1.5,0-2.6-1.2-2.6-3c0-1.9,1.1-3,2.6-3c0.8,0,1.5,0.4,2,1v-3.1h0.9
			v8H116.3z M116.3,430.9v-2.6c-0.3-0.5-1-0.9-1.7-0.9c-1.2,0-1.9,1-1.9,2.2s0.7,2.2,1.9,2.2C115.3,431.8,116,431.4,116.3,430.9z"/>
		<path fill="#363636" d="M122.9,432.5v-0.8c-0.4,0.5-1.2,1-2.1,1c-1.2,0-1.8-0.6-1.8-1.8v-4.1h0.9v3.8c0,1,0.5,1.3,1.3,1.3
			c0.7,0,1.4-0.4,1.7-0.9v-4.3h0.9v5.8H122.9z"/>
		<path fill="#363636" d="M128.5,432.5v-0.8c2.9-2.3,4.4-3.6,4.4-5c0-1-0.9-1.5-1.7-1.5c-1,0-1.7,0.4-2.2,1l-0.6-0.6
			c0.6-0.8,1.7-1.3,2.8-1.3c1.3,0,2.7,0.8,2.7,2.4c0,1.6-1.7,3.1-3.9,4.9h3.9v0.9H128.5z"/>
		<path fill="#363636" d="M137,432.5v-6.7l-1.3,1.4l-0.6-0.6l2-2.1h0.9v8H137z"/>
		<path fill="#363636" d="M140.9,434.4l0.3-0.7c0.2,0.2,0.5,0.4,0.8,0.4c0.5,0,0.9-0.3,0.9-1v-6.4h0.9v6.4c0,1.1-0.6,1.8-1.7,1.8
			C141.5,434.8,141.2,434.7,140.9,434.4z M142.8,425.3c0-0.3,0.3-0.6,0.6-0.6s0.6,0.3,0.6,0.6s-0.3,0.6-0.6,0.6
			S142.8,425.6,142.8,425.3z"/>
		<path fill="#363636" d="M149.5,432.5v-0.8c-0.4,0.5-1.2,1-2.1,1c-1.2,0-1.8-0.6-1.8-1.8v-4.1h0.9v3.8c0,1,0.5,1.3,1.3,1.3
			c0.7,0,1.4-0.4,1.7-0.9v-4.3h0.9v5.8H149.5z"/>
		<path fill="#363636" d="M152.1,425.3c0-0.3,0.3-0.6,0.6-0.6s0.6,0.3,0.6,0.6s-0.3,0.6-0.6,0.6S152.1,425.6,152.1,425.3z
			 M152.3,432.5v-5.8h0.9v5.8H152.3z"/>
		<path fill="#363636" d="M158.9,432.5v-3.8c0-1-0.5-1.3-1.3-1.3c-0.7,0-1.4,0.4-1.7,0.9v4.2H155v-5.8h0.9v0.8c0.4-0.5,1.2-1,2.1-1
			c1.2,0,1.8,0.6,1.8,1.9v4.1H158.9z"/>
		<path fill="#363636" d="M164.4,432.5v-0.8c2.9-2.3,4.5-3.6,4.5-5c0-1-0.9-1.5-1.7-1.5c-1,0-1.7,0.4-2.2,1l-0.6-0.6
			c0.6-0.8,1.7-1.3,2.8-1.3c1.3,0,2.7,0.8,2.7,2.4c0,1.6-1.7,3.1-3.9,4.9h3.9v0.9H164.4z"/>
		<path fill="#363636" d="M171.4,428.5c0-2,0.9-4.1,3.1-4.1c2.2,0,3.1,2.2,3.1,4.1c0,1.9-0.9,4.1-3.1,4.1
			C172.3,432.6,171.4,430.4,171.4,428.5z M176.5,428.5c0-1.6-0.5-3.2-2-3.2s-2,1.6-2,3.2c0,1.6,0.5,3.3,2,3.3
			S176.5,430.1,176.5,428.5z"/>
		<path fill="#363636" d="M180.3,432.5v-6.7l-1.3,1.4l-0.6-0.6l2-2.1h0.9v8H180.3z"/>
		<path fill="#363636" d="M182.9,428.5c0-2.2,1-4.1,3.3-4.1c1,0,1.7,0.4,2.2,1l-0.5,0.7c-0.4-0.5-0.9-0.8-1.7-0.8
			c-1.6,0-2.3,1.6-2.3,3.1c0,0.1,0,0.2,0,0.3c0.3-0.6,1.2-1.2,2.3-1.2c1.4,0,2.6,0.9,2.6,2.6c0,1.4-1.1,2.6-2.8,2.6
			C183.7,432.6,182.9,430.7,182.9,428.5z M187.7,430c0-1.2-0.8-1.7-1.8-1.7c-0.8,0-1.6,0.5-2,1.2c0.1,1,0.6,2.2,2,2.2
			C187.1,431.7,187.7,430.8,187.7,430z"/>
	</g>
</g>
<g>
	<g>
		<path fill="#363636" d="M68,370.4l-4.5-5.6l-0.2,2.2l-1.4-0.2l0.4-3.8l1.1-0.9l5.8,7.3L68,370.4z"/>
		<path fill="#363636" d="M70.3,367.4l-0.2-1.5c0.7,0.1,1.3,0,2-0.6c1.3-1.1,1-2.8,0-3.9c-0.1-0.1-0.1-0.1-0.2-0.2
			c0.1,0.8-0.3,1.9-1.1,2.6c-1.3,1.1-3.1,1.2-4.3-0.4c-1.1-1.4-0.9-3.3,0.7-4.6c2.1-1.7,4.4-0.7,6,1.4c1.7,2.1,1.9,4.7-0.2,6.3
			C72.2,367.3,71.2,367.5,70.3,367.4z M71.2,360.3c-0.7-0.7-1.9-1.3-3-0.4c-1,0.8-0.9,1.9-0.4,2.4c0.7,0.9,1.7,0.7,2.5,0.1
			C70.9,362,71.3,361.1,71.2,360.3z"/>
		<path fill="#363636" d="M76.9,362.1l-0.2-1.5c0.7,0.1,1.3,0,2-0.6c1.3-1.1,1-2.8,0-3.9c-0.1-0.1-0.1-0.1-0.2-0.2
			c0.1,0.8-0.3,1.9-1.1,2.6c-1.3,1.1-3.1,1.2-4.3-0.4c-1.1-1.4-0.9-3.3,0.7-4.6c2.1-1.7,4.4-0.7,6,1.4c1.7,2.1,1.9,4.7-0.2,6.3
			C78.7,362,77.8,362.2,76.9,362.1z M77.8,355.1c-0.7-0.7-1.9-1.3-3-0.4c-1,0.8-0.9,1.9-0.4,2.4c0.7,0.9,1.7,0.7,2.5,0.1
			C77.5,356.7,77.8,355.9,77.8,355.1z"/>
		<path fill="#363636" d="M83.5,356.9l-0.2-1.5c0.7,0.1,1.3,0,2-0.6c1.3-1.1,1-2.8,0-3.9c-0.1-0.1-0.1-0.1-0.2-0.2
			c0.1,0.8-0.3,1.9-1.1,2.6c-1.3,1.1-3.1,1.2-4.3-0.4c-1.1-1.4-0.9-3.3,0.7-4.6c2.1-1.7,4.4-0.7,6,1.4c1.7,2.1,1.9,4.7-0.2,6.3
			C85.3,356.7,84.3,357,83.5,356.9z M84.4,349.8c-0.7-0.7-1.9-1.3-3-0.4c-1,0.8-0.9,1.9-0.4,2.4c0.7,0.9,1.7,0.7,2.5,0.1
			C84.1,351.4,84.4,350.6,84.4,349.8z"/>
	</g>
	<g>
		<path fill="#363636" d="M88.4,350.5l-0.8-1l2.6-2.1l0.8,1L88.4,350.5z"/>
	</g>
	<g>
		<path fill="#363636" d="M93.2,350.2l-0.8-1c1.1-4.4,1.5-6.2,0.6-7.3c-0.6-0.8-1.6-0.6-2.2,0c-0.9,0.7-1.2,1.5-1.3,2.4l-1.4-0.2
			c0-1.3,0.7-2.5,1.8-3.3c1.4-1.1,3.3-1.3,4.4,0.1c1.1,1.4,0.8,3.5,0.1,6.6l3.2-2.6l0.9,1.1L93.2,350.2z"/>
	</g>
	<g>
		<path fill="#363636" d="M96.6,341.5c-1.5-1.8-2.1-4.5-0.1-6.1c2-1.6,4.4-0.4,5.9,1.4c1.5,1.8,2.2,4.5,0.1,6.1
			C100.5,344.6,98.1,343.3,96.6,341.5z M101.1,337.9c-1.1-1.4-2.5-2.3-3.7-1.3s-0.6,2.5,0.5,3.9c1.1,1.4,2.5,2.3,3.7,1.3
			C102.8,340.9,102.2,339.3,101.1,337.9z"/>
		<path fill="#363636" d="M103.3,336.1c-1.5-1.8-2.2-4.5-0.1-6.1c2-1.6,4.4-0.4,5.9,1.4c1.5,1.8,2.2,4.5,0.1,6.1
			C107.2,339.2,104.8,337.9,103.3,336.1z M107.9,332.5c-1.1-1.4-2.5-2.3-3.7-1.3c-1.2,1-0.6,2.5,0.5,3.9c1.1,1.4,2.5,2.3,3.7,1.3
			C109.6,335.5,109,333.9,107.9,332.5z"/>
		<path fill="#363636" d="M110.1,330.7c-1.5-1.8-2.2-4.5-0.1-6.1c2-1.6,4.4-0.4,5.9,1.4c1.5,1.8,2.2,4.5,0.1,6.1
			C114,333.8,111.6,332.5,110.1,330.7z M114.6,327.1c-1.1-1.4-2.5-2.3-3.7-1.3s-0.6,2.5,0.5,3.9c1.1,1.4,2.5,2.3,3.7,1.3
			C116.3,330,115.7,328.5,114.6,327.1z"/>
	</g>
	<g>
		<path fill="#363636" d="M151.3,361.2l-0.8-1c1.1-4.4,1.5-6.2,0.6-7.3c-0.6-0.8-1.6-0.6-2.2,0c-0.9,0.7-1.2,1.5-1.3,2.4l-1.4-0.2
			c0-1.3,0.7-2.5,1.8-3.3c1.4-1.1,3.3-1.3,4.4,0.1c1.1,1.4,0.8,3.5,0.1,6.6l3.2-2.6l0.9,1.1L151.3,361.2z"/>
	</g>
	<g>
		<path fill="#363636" d="M156.4,352.5c-1.5-1.8-2.1-4.5-0.1-6.1c2-1.6,4.4-0.4,5.9,1.4c1.5,1.8,2.2,4.5,0.1,6.1
			C160.3,355.6,157.9,354.3,156.4,352.5z M161,348.9c-1.1-1.4-2.5-2.3-3.7-1.3c-1.2,1-0.6,2.5,0.5,3.9c1.1,1.4,2.5,2.3,3.7,1.3
			C162.7,351.9,162.1,350.3,161,348.9z"/>
		<path fill="#363636" d="M163.2,347.1c-1.5-1.8-2.2-4.5-0.1-6.1c2-1.6,4.4-0.4,5.9,1.4c1.5,1.8,2.2,4.5,0.1,6.1
			C167.1,350.2,164.6,348.9,163.2,347.1z M167.7,343.5c-1.1-1.4-2.5-2.3-3.7-1.3c-1.2,1-0.6,2.5,0.5,3.9c1.1,1.4,2.5,2.3,3.7,1.3
			C169.4,346.5,168.8,344.9,167.7,343.5z"/>
		<path fill="#363636" d="M174.5,344l-4.5-5.6l-0.2,2.2l-1.4-0.2l0.4-3.8l1.1-0.9l5.8,7.3L174.5,344z"/>
		<path fill="#363636" d="M175.1,340l-0.8-1l2.6-2.1l0.8,1L175.1,340z"/>
	</g>
	<g>
		<path fill="#363636" d="M177.4,335.7c-1.5-1.8-2.2-4.5-0.1-6.1c2-1.6,4.4-0.4,5.9,1.4c1.5,1.8,2.2,4.5,0.1,6.1
			C181.2,338.8,178.8,337.6,177.4,335.7z M181.9,332.1c-1.1-1.4-2.5-2.3-3.7-1.3s-0.6,2.5,0.5,3.9c1.1,1.4,2.5,2.3,3.7,1.3
			C183.6,335.1,183,333.5,181.9,332.1z"/>
	</g>
	<g>
		<path fill="#363636" d="M186.9,334.1l-0.8-1c1.1-4.4,1.5-6.2,0.6-7.3c-0.6-0.8-1.6-0.6-2.2,0c-0.9,0.7-1.2,1.5-1.3,2.4l-1.4-0.2
			c0-1.3,0.7-2.5,1.8-3.3c1.4-1.1,3.3-1.3,4.4,0.1c1.1,1.4,0.8,3.5,0.1,6.6l3.2-2.6l0.9,1.1L186.9,334.1z"/>
	</g>
	<g>
		<path fill="#363636" d="M206.5,362.7l-0.8-1c1.1-4.4,1.5-6.2,0.6-7.3c-0.6-0.8-1.6-0.6-2.2,0c-0.9,0.7-1.2,1.5-1.3,2.4l-1.4-0.2
			c0-1.3,0.7-2.5,1.8-3.3c1.4-1.1,3.3-1.3,4.4,0.1c1.1,1.4,0.8,3.5,0.1,6.6l3.2-2.6l0.9,1.1L206.5,362.7z"/>
	</g>
	<g>
		<path fill="#363636" d="M211.6,354c-1.5-1.8-2.2-4.5-0.1-6.1c2-1.6,4.4-0.4,5.9,1.4c1.5,1.8,2.2,4.5,0.1,6.1
			C215.5,357.1,213.1,355.8,211.6,354z M216.2,350.4c-1.1-1.4-2.5-2.3-3.7-1.3s-0.6,2.5,0.5,3.9c1.1,1.4,2.5,2.3,3.7,1.3
			C217.8,353.4,217.3,351.8,216.2,350.4z"/>
	</g>
	<g>
		<path fill="#363636" d="M218.4,348.6c-1.5-1.8-2.2-4.5-0.1-6.1c2-1.6,4.4-0.4,5.9,1.4c1.5,1.8,2.2,4.5,0.1,6.1
			C222.3,351.7,219.8,350.4,218.4,348.6z M222.9,345c-1.1-1.4-2.5-2.3-3.7-1.3s-0.6,2.5,0.5,3.9c1.1,1.4,2.5,2.3,3.7,1.3
			C224.6,348,224,346.4,222.9,345z"/>
	</g>
	<g>
		<path fill="#363636" d="M226.7,346.2l0-1.4c0.9,0.2,1.9-0.1,2.7-0.7c1-0.8,1.2-1.7,0.6-2.3c-0.6-0.7-1.4-0.6-2.5,0.3
			c-0.3,0.2-0.7,0.6-0.8,0.7l-0.9-1.2c0.1-0.1,0.6-0.4,0.8-0.7c0.9-0.7,1.3-1.5,0.7-2.2c-0.5-0.7-1.5-0.5-2.3,0.2
			c-0.8,0.6-1.1,1.4-1.2,2.3l-1.3-0.3c0-1.1,0.5-2.3,1.7-3.3c1.6-1.3,3.2-1.4,4.2-0.1c0.8,1,0.4,2.2-0.2,2.9
			c0.8-0.5,2.2-0.7,3.1,0.4c1,1.2,0.6,3-1,4.3C229.1,346.2,227.7,346.4,226.7,346.2z"/>
		<path fill="#363636" d="M232.2,340l-0.8-1l2.6-2.1l0.8,1L232.2,340z"/>
		<path fill="#363636" d="M234.4,335.8c-1.5-1.8-2.2-4.5-0.1-6.1c2-1.6,4.4-0.4,5.9,1.4c1.5,1.8,2.2,4.5,0.1,6.1
			C238.3,338.9,235.8,337.6,234.4,335.8z M238.9,332.2c-1.1-1.4-2.5-2.3-3.7-1.3c-1.2,1-0.6,2.5,0.5,3.9c1.1,1.4,2.5,2.3,3.7,1.3
			C240.6,335.1,240,333.5,238.9,332.2z"/>
		<path fill="#363636" d="M247.4,331.4l-1.3-1.7l-3.5,2.8l-0.8-1l-0.7-7l1.8-1.4l3.6,4.5l1-0.8l0.9,1.1l-1,0.8l1.3,1.7L247.4,331.4z
			 M242.4,325.2l0.5,5.1l2.2-1.8L242.4,325.2z"/>
	</g>
	<g>
		<path fill="#363636" d="M264.4,363.3l-0.8-1c1.1-4.4,1.5-6.2,0.6-7.3c-0.6-0.8-1.6-0.6-2.2,0c-0.9,0.7-1.2,1.5-1.3,2.4l-1.4-0.2
			c0-1.3,0.7-2.5,1.8-3.3c1.4-1.1,3.3-1.3,4.4,0.1c1.1,1.4,0.8,3.5,0.1,6.6l3.2-2.6l0.9,1.1L264.4,363.3z"/>
	</g>
	<g>
		<path fill="#363636" d="M269.5,354.6c-1.5-1.8-2.2-4.5-0.1-6.1c2-1.6,4.4-0.4,5.9,1.4c1.5,1.8,2.2,4.5,0.1,6.1
			C273.4,357.7,271,356.5,269.5,354.6z M274.1,351c-1.1-1.4-2.5-2.3-3.7-1.3s-0.6,2.5,0.5,3.9c1.1,1.4,2.5,2.3,3.7,1.3
			C275.7,354,275.2,352.4,274.1,351z"/>
		<path fill="#363636" d="M276.3,349.2c-1.5-1.8-2.2-4.5-0.1-6.1c2-1.6,4.4-0.4,5.9,1.4c1.5,1.8,2.2,4.5,0.1,6.1
			C280.2,352.3,277.7,351.1,276.3,349.2z M280.8,345.6c-1.1-1.4-2.5-2.3-3.7-1.3c-1.2,1-0.6,2.5,0.5,3.9c1.1,1.4,2.5,2.3,3.7,1.3
			C282.5,348.6,281.9,347,280.8,345.6z"/>
		<path fill="#363636" d="M285.3,346.4l0-1.5c0.9,0.2,1.8,0,2.7-0.7c0.9-0.7,1-1.8,0.5-2.5c-0.6-0.8-1.6-0.8-2.5-0.1
			c-0.6,0.5-1,1.1-1.1,1.9l-1.1,0.5l-3.3-4.1l4.8-3.8l0.9,1.1l-3.5,2.8l1.7,2.1c0.1-0.6,0.5-1.4,1.2-1.9c1.2-1,3-1,4.2,0.5
			c1.2,1.5,0.8,3.4-0.8,4.7C287.7,346.3,286.4,346.6,285.3,346.4z"/>
		<path fill="#363636" d="M290.6,340.2l-0.8-1l2.6-2.1l0.8,1L290.6,340.2z"/>
		<path fill="#363636" d="M292.9,336c-1.5-1.8-2.2-4.5-0.1-6.1c2-1.6,4.5-0.4,5.9,1.4c1.5,1.8,2.2,4.5,0.1,6.1
			C296.7,339,294.3,337.8,292.9,336z M297.4,332.3c-1.1-1.4-2.5-2.3-3.7-1.3c-1.2,1-0.6,2.5,0.5,3.9c1.1,1.4,2.5,2.3,3.7,1.3
			C299.1,335.3,298.5,333.7,297.4,332.3z"/>
		<path fill="#363636" d="M299.6,330.6c-1.7-2.1-1.9-4.6,0.2-6.3c0.9-0.7,1.8-1,2.7-0.9l0.2,1.4c-0.7-0.1-1.3,0-2,0.6
			c-1.2,1-1,2.7,0,3.9c0.1,0.1,0.1,0.1,0.2,0.2c-0.1-0.8,0.3-1.9,1.1-2.6c1.3-1.1,3.1-1.2,4.3,0.4c1.1,1.3,0.9,3.3-0.7,4.6
			C303.5,333.6,301.2,332.6,299.6,330.6z M305.1,328.4c-0.7-0.9-1.7-0.7-2.5-0.1c-0.6,0.5-1,1.3-0.9,2.1c0.7,0.7,1.9,1.3,3,0.4
			C305.6,330.1,305.5,329,305.1,328.4z"/>
	</g>
	<g>
		<path fill="#363636" d="M327.6,362l-0.8-1c1.1-4.4,1.5-6.2,0.6-7.3c-0.6-0.8-1.6-0.6-2.2,0c-0.9,0.7-1.2,1.5-1.3,2.4l-1.4-0.2
			c0-1.3,0.7-2.5,1.8-3.3c1.4-1.1,3.3-1.3,4.4,0.1c1.1,1.4,0.8,3.5,0.1,6.6l3.2-2.6l0.9,1.1L327.6,362z"/>
	</g>
	<g>
		<path fill="#363636" d="M332.7,353.3c-1.5-1.8-2.1-4.5-0.1-6.1c2-1.6,4.4-0.4,5.9,1.4c1.5,1.8,2.2,4.5,0.1,6.1
			C336.6,356.4,334.1,355.1,332.7,353.3z M337.2,349.7c-1.1-1.4-2.5-2.3-3.7-1.3c-1.2,1-0.6,2.5,0.5,3.9c1.1,1.4,2.5,2.3,3.7,1.3
			C338.9,352.6,338.3,351.1,337.2,349.7z"/>
	</g>
	<g>
		<path fill="#363636" d="M339.4,347.9c-1.5-1.8-2.2-4.5-0.1-6.1c2-1.6,4.5-0.4,5.9,1.4c1.5,1.8,2.2,4.5,0.1,6.1
			C343.3,351,340.9,349.7,339.4,347.9z M343.9,344.3c-1.1-1.4-2.5-2.3-3.7-1.3c-1.2,1-0.6,2.5,0.5,3.9c1.1,1.4,2.5,2.3,3.7,1.3
			C345.6,347.2,345.1,345.7,343.9,344.3z"/>
	</g>
	<g>
		<path fill="#363636" d="M349.6,345.7l-2.2-8.4l-3.8,3l-0.9-1.1l5.3-4.2l0.7,0.9l2.3,8.7L349.6,345.7z"/>
	</g>
	<g>
		<path fill="#363636" d="M352.2,340.1l-0.8-1l2.6-2.1l0.8,1L352.2,340.1z"/>
		<path fill="#363636" d="M354.4,335.9c-1.5-1.8-2.1-4.5-0.1-6.1c2-1.6,4.5-0.4,5.9,1.4c1.5,1.8,2.2,4.5,0.1,6.1
			C358.3,339,355.8,337.7,354.4,335.9z M358.9,332.3c-1.1-1.4-2.5-2.3-3.7-1.3s-0.6,2.5,0.5,3.9c1.1,1.4,2.5,2.3,3.7,1.3
			C360.6,335.3,360,333.7,358.9,332.3z"/>
		<path fill="#363636" d="M362.5,332.3c-0.7-0.9-0.5-2.2,0.1-3.2c-1,0.4-2.2,0.4-2.9-0.5c-1.1-1.4-0.1-3,1.1-4.1
			c1.3-1,3.1-1.6,4.2-0.2c0.7,0.9,0.5,2-0.1,2.9c1.1-0.4,2.4-0.4,3.1,0.6c1.1,1.3,0.3,3.1-1.2,4.3
			C365.4,333.2,363.6,333.6,362.5,332.3z M364,325.5c-0.5-0.6-1.4-0.5-2.2,0.1c-0.8,0.6-1.1,1.5-0.6,2.1c0.5,0.7,1.7,0.2,2.2-0.1
			C363.8,327.2,364.5,326.2,364,325.5z M366.7,328.7c-0.6-0.8-1.9-0.2-2.4,0.1c-0.4,0.4-1.2,1.6-0.6,2.3c0.5,0.6,1.5,0.5,2.3-0.2
			C366.8,330.3,367.2,329.3,366.7,328.7z"/>
	</g>
	<g>
		<path fill="#363636" d="M390.4,361.2l-0.8-1c1.1-4.4,1.5-6.2,0.6-7.3c-0.6-0.8-1.6-0.6-2.2,0c-0.9,0.7-1.2,1.5-1.3,2.4l-1.4-0.2
			c0-1.3,0.7-2.5,1.8-3.3c1.4-1.1,3.3-1.3,4.4,0.1c1.1,1.4,0.8,3.5,0.1,6.6l3.2-2.6l0.9,1.1L390.4,361.2z"/>
	</g>
	<g>
		<path fill="#363636" d="M395.5,352.5c-1.5-1.8-2.2-4.5-0.1-6.1c2-1.6,4.5-0.4,5.9,1.4c1.5,1.8,2.2,4.5,0.1,6.1
			C399.4,355.6,397,354.4,395.5,352.5z M400,348.9c-1.1-1.4-2.5-2.3-3.7-1.3c-1.2,1-0.6,2.5,0.5,3.9c1.1,1.4,2.5,2.3,3.7,1.3
			C401.7,351.9,401.1,350.3,400,348.9z"/>
		<path fill="#363636" d="M402.2,347.1c-1.5-1.8-2.2-4.5-0.1-6.1c2-1.6,4.5-0.4,5.9,1.4c1.5,1.8,2.2,4.5,0.1,6.1
			C406.1,350.2,403.7,349,402.2,347.1z M406.8,343.5c-1.1-1.4-2.5-2.3-3.7-1.3c-1.2,1-0.6,2.5,0.5,3.9c1.1,1.4,2.5,2.3,3.7,1.3
			C408.4,346.5,407.9,344.9,406.8,343.5z"/>
		<path fill="#363636" d="M411.7,344.4l-0.2-1.5c0.7,0.1,1.3,0,2-0.6c1.3-1.1,1-2.8,0-3.9c-0.1-0.1-0.1-0.1-0.2-0.2
			c0.1,0.8-0.3,1.9-1.1,2.6c-1.3,1.1-3.1,1.2-4.3-0.4c-1.1-1.4-0.9-3.3,0.7-4.6c2.1-1.7,4.4-0.7,6,1.4c1.7,2.1,1.9,4.7-0.2,6.3
			C413.5,344.3,412.6,344.5,411.7,344.4z M412.6,337.3c-0.7-0.7-1.9-1.3-3-0.4c-1,0.8-0.9,1.9-0.4,2.4c0.7,0.9,1.7,0.7,2.5,0.1
			C412.3,339,412.6,338.1,412.6,337.3z"/>
	</g>
	<g>
		<path fill="#363636" d="M416.6,338.1l-0.8-1l2.6-2.1l0.8,1L416.6,338.1z"/>
	</g>
	<g>
		<path fill="#363636" d="M423.2,336.4l-4.5-5.6l-0.2,2.2l-1.4-0.2l0.4-3.8l1.1-0.9l5.8,7.3L423.2,336.4z"/>
		<path fill="#363636" d="M422.8,330.7c-1.5-1.8-2.1-4.5-0.1-6.1c2-1.6,4.5-0.4,5.9,1.4c1.5,1.8,2.2,4.5,0.1,6.1
			C426.6,333.8,424.2,332.5,422.8,330.7z M427.3,327.1c-1.1-1.4-2.5-2.3-3.7-1.3c-1.2,1-0.6,2.5,0.5,3.9c1.1,1.4,2.5,2.3,3.7,1.3
			C429,330,428.4,328.5,427.3,327.1z"/>
	</g>
	<g>
		<path fill="#363636" d="M461.1,357l-0.8-1c1.1-4.4,1.5-6.2,0.6-7.3c-0.6-0.8-1.6-0.6-2.2,0c-0.9,0.7-1.2,1.5-1.3,2.4l-1.4-0.2
			c0-1.3,0.7-2.5,1.8-3.3c1.4-1.1,3.3-1.3,4.4,0.1c1.1,1.4,0.8,3.5,0.1,6.6l3.2-2.6l0.9,1.1L461.1,357z"/>
	</g>
	<g>
		<path fill="#363636" d="M464.4,348.3c-1.5-1.8-2.1-4.5-0.1-6.1c2-1.6,4.5-0.4,5.9,1.4c1.5,1.8,2.2,4.5,0.1,6.1
			C468.3,351.4,465.9,350.2,464.4,348.3z M469,344.7c-1.1-1.4-2.5-2.3-3.7-1.3c-1.2,1-0.6,2.5,0.5,3.9c1.1,1.4,2.5,2.3,3.7,1.3
			C470.6,347.7,470.1,346.1,469,344.7z"/>
		<path fill="#363636" d="M475.7,345.3l-4.5-5.6l-0.2,2.2l-1.4-0.2l0.4-3.8l1.1-0.9l5.8,7.3L475.7,345.3z"/>
		<path fill="#363636" d="M479.9,341.9l-4.5-5.6l-0.2,2.2l-1.4-0.2l0.4-3.8l1.1-0.9l5.8,7.3L479.9,341.9z"/>
	</g>
	<g>
		<path fill="#363636" d="M480.5,337.9l-0.8-1l2.6-2.1l0.8,1L480.5,337.9z"/>
	</g>
	<g>
		<path fill="#363636" d="M487.1,336.2l-4.5-5.6l-0.2,2.2l-1.4-0.2l0.4-3.8l1.1-0.9l5.8,7.3L487.1,336.2z"/>
		<path fill="#363636" d="M489.7,334.1l-0.8-1c1.1-4.4,1.5-6.2,0.6-7.3c-0.6-0.8-1.6-0.6-2.2,0c-0.9,0.7-1.2,1.5-1.3,2.4l-1.4-0.2
			c0-1.3,0.7-2.5,1.8-3.3c1.4-1.1,3.3-1.3,4.4,0.1c1.1,1.4,0.8,3.5,0.1,6.6l3.2-2.6l0.9,1.1L489.7,334.1z"/>
	</g>
	<g>
		<path fill="#363636" d="M518.6,358.6l-0.8-1c1.1-4.4,1.5-6.2,0.6-7.3c-0.6-0.8-1.6-0.6-2.2,0c-0.9,0.7-1.2,1.5-1.3,2.4l-1.4-0.2
			c0-1.3,0.7-2.5,1.8-3.3c1.4-1.1,3.3-1.3,4.4,0.1c1.1,1.4,0.8,3.5,0.1,6.6l3.2-2.6l0.9,1.1L518.6,358.6z"/>
	</g>
	<g>
		<path fill="#363636" d="M522,349.9c-1.5-1.8-2.1-4.5-0.1-6.1c2-1.6,4.4-0.4,5.9,1.4c1.5,1.8,2.2,4.5,0.1,6.1
			C525.9,353,523.5,351.7,522,349.9z M526.5,346.3c-1.1-1.4-2.5-2.3-3.7-1.3c-1.2,1-0.6,2.5,0.5,3.9c1.1,1.4,2.5,2.3,3.7,1.3
			C528.2,349.3,527.6,347.7,526.5,346.3z"/>
		<path fill="#363636" d="M533.3,346.8l-4.5-5.6l-0.2,2.2l-1.4-0.2l0.4-3.8l1.1-0.9l5.8,7.3L533.3,346.8z"/>
		<path fill="#363636" d="M534.8,343.9l0-1.4c0.9,0.2,1.9-0.1,2.7-0.7c1-0.8,1.2-1.7,0.6-2.3c-0.6-0.7-1.4-0.6-2.4,0.3
			c-0.3,0.2-0.7,0.6-0.8,0.7l-0.9-1.2c0.1-0.1,0.6-0.4,0.8-0.7c0.9-0.7,1.3-1.5,0.7-2.2c-0.5-0.7-1.5-0.5-2.3,0.2
			c-0.8,0.6-1.1,1.4-1.2,2.3l-1.3-0.3c0-1.1,0.5-2.3,1.7-3.3c1.6-1.3,3.2-1.4,4.2-0.1c0.8,1,0.4,2.2-0.2,2.9
			c0.8-0.5,2.2-0.7,3.1,0.4c1,1.2,0.6,3-1,4.3C537.2,343.9,535.8,344.2,534.8,343.9z"/>
	</g>
	<g>
		<path fill="#363636" d="M540.2,337.7l-0.8-1l2.6-2.1l0.8,1L540.2,337.7z"/>
	</g>
	<g>
		<path fill="#363636" d="M546.8,336l-4.5-5.6l-0.2,2.2l-1.4-0.2l0.4-3.8l1.1-0.9l5.8,7.3L546.8,336z"/>
		<path fill="#363636" d="M552.6,331.3l-1.3-1.7l-3.5,2.8l-0.8-1l-0.7-7l1.8-1.4l3.6,4.5l1-0.8l0.9,1.1l-1,0.8l1.3,1.7L552.6,331.3z
			 M547.7,325.2l0.5,5.1l2.2-1.8L547.7,325.2z"/>
	</g>
	<g>
		<path fill="#363636" d="M577.7,359l-0.8-1c1.1-4.4,1.5-6.2,0.6-7.3c-0.6-0.8-1.6-0.6-2.2,0c-0.9,0.7-1.2,1.5-1.3,2.4l-1.4-0.2
			c0-1.3,0.7-2.5,1.8-3.3c1.4-1.1,3.3-1.3,4.4,0.1c1.1,1.4,0.8,3.5,0.1,6.6l3.2-2.6l0.9,1.1L577.7,359z"/>
	</g>
	<g>
		<path fill="#363636" d="M581.1,350.3c-1.5-1.8-2.1-4.5-0.1-6.1c2-1.6,4.5-0.4,5.9,1.4c1.5,1.8,2.2,4.5,0.1,6.1
			C585,353.4,582.6,352.1,581.1,350.3z M585.6,346.7c-1.1-1.4-2.5-2.3-3.7-1.3s-0.6,2.5,0.5,3.9c1.1,1.4,2.5,2.3,3.7,1.3
			C587.3,349.7,586.7,348.1,585.6,346.7z"/>
		<path fill="#363636" d="M592.4,347.2l-4.5-5.6l-0.2,2.2l-1.4-0.2l0.4-3.8l1.1-0.9l5.8,7.3L592.4,347.2z"/>
		<path fill="#363636" d="M594.3,344.1l0-1.5c0.9,0.2,1.8,0,2.7-0.7c0.9-0.7,1-1.8,0.5-2.5c-0.6-0.8-1.6-0.8-2.5-0.1
			c-0.6,0.5-1,1.1-1.1,1.9l-1.1,0.5l-3.3-4.1l4.8-3.8l0.9,1.1l-3.5,2.8l1.7,2.1c0.1-0.6,0.5-1.4,1.2-1.9c1.2-1,3-1,4.2,0.5
			c1.2,1.5,0.8,3.4-0.8,4.7C596.6,344.1,595.4,344.3,594.3,344.1z"/>
	</g>
	<g>
		<path fill="#363636" d="M599.6,337.9l-0.8-1l2.6-2.1l0.8,1L599.6,337.9z"/>
	</g>
	<g>
		<path fill="#363636" d="M606.2,336.2l-4.5-5.6l-0.2,2.2l-1.4-0.2l0.4-3.8l1.1-0.9l5.8,7.3L606.2,336.2z"/>
		<path fill="#363636" d="M605.8,330.6c-1.7-2.1-1.9-4.6,0.2-6.3c0.9-0.7,1.8-1,2.7-0.9l0.2,1.4c-0.7-0.1-1.3,0-2,0.6
			c-1.2,1-1,2.7,0,3.9c0.1,0.1,0.1,0.1,0.2,0.2c-0.1-0.8,0.3-1.9,1.1-2.6c1.3-1.1,3.1-1.2,4.3,0.4c1.1,1.3,0.9,3.3-0.7,4.6
			C609.7,333.6,607.4,332.6,605.8,330.6z M611.3,328.4c-0.7-0.9-1.7-0.7-2.5-0.1c-0.6,0.5-1,1.3-0.9,2.1c0.7,0.7,1.9,1.3,3,0.4
			C611.8,330.1,611.7,329,611.3,328.4z"/>
	</g>
</g>
<g>
	<path fill="#363636" d="M3.7,397.6v-8H7c1.6,0,2.5,1.1,2.5,2.4s-0.9,2.4-2.5,2.4H4.7v3.2H3.7z M8.4,392c0-0.9-0.6-1.5-1.6-1.5H4.7
		v3h2.1C7.8,393.5,8.4,392.9,8.4,392z"/>
	<path fill="#363636" d="M10.4,394.7c0-1.7,1.1-3,2.9-3s2.9,1.4,2.9,3s-1.1,3-2.9,3S10.4,396.4,10.4,394.7z M15.2,394.7
		c0-1.2-0.7-2.2-1.9-2.2s-1.9,1.1-1.9,2.2c0,1.2,0.7,2.2,1.9,2.2S15.2,395.9,15.2,394.7z"/>
	<path fill="#363636" d="M21.5,397.6v-0.8c-0.4,0.5-1.2,1-2.1,1c-1.2,0-1.8-0.6-1.8-1.8v-4.1h0.9v3.8c0,1,0.5,1.3,1.3,1.3
		c0.7,0,1.4-0.4,1.7-0.9v-4.3h0.9v5.8H21.5z"/>
	<path fill="#363636" d="M24.2,397.6v-5.8h0.9v0.9c0.5-0.6,1.1-1.1,1.9-1.1v0.9c-0.1,0-0.2,0-0.3,0c-0.6,0-1.3,0.5-1.6,0.9v4.1H24.2
		z"/>
	<path fill="#363636" d="M31,397.6v-0.8c2.9-2.3,4.4-3.6,4.4-5c0-1-0.9-1.5-1.7-1.5c-1,0-1.7,0.4-2.2,1l-0.6-0.6
		c0.6-0.8,1.7-1.3,2.8-1.3c1.3,0,2.7,0.8,2.7,2.4c0,1.6-1.7,3.1-3.9,4.9h3.9v0.9H31z"/>
	<path fill="#363636" d="M38.1,393.6c0-2,0.9-4.1,3.1-4.1c2.2,0,3.1,2.2,3.1,4.1c0,1.9-0.9,4.1-3.1,4.1
		C38.9,397.7,38.1,395.5,38.1,393.6z M43.2,393.6c0-1.6-0.5-3.2-2-3.2c-1.5,0-2,1.6-2,3.2c0,1.6,0.5,3.3,2,3.3
		C42.7,396.8,43.2,395.2,43.2,393.6z"/>
	<path fill="#363636" d="M46.9,397.6v-6.7l-1.3,1.4l-0.6-0.6l2-2.1h0.9v8H46.9z"/>
	<path fill="#363636" d="M49.7,396.5l0.6-0.7c0.5,0.7,1.2,1.1,2.2,1.1c1.1,0,1.8-0.7,1.8-1.7c0-1.1-0.8-1.7-1.8-1.7
		c-0.7,0-1.3,0.2-1.8,0.7l-0.7-0.3v-4.3h4.9v0.9h-3.9v2.8c0.4-0.4,1.1-0.7,1.9-0.7c1.3,0,2.6,0.9,2.6,2.6c0,1.6-1.2,2.6-2.9,2.6
		C51.1,397.7,50.3,397.2,49.7,396.5z"/>
	<path fill="#363636" d="M56.3,395.1v-0.8h2.9v0.8H56.3z"/>
	<path fill="#363636" d="M60.2,397.6v-0.8c2.9-2.3,4.4-3.6,4.4-5c0-1-0.9-1.5-1.7-1.5c-1,0-1.7,0.4-2.2,1l-0.6-0.6
		c0.6-0.8,1.7-1.3,2.8-1.3c1.3,0,2.7,0.8,2.7,2.4c0,1.6-1.7,3.1-3.9,4.9h3.9v0.9H60.2z"/>
	<path fill="#363636" d="M67.2,393.6c0-2,0.9-4.1,3.1-4.1c2.2,0,3.1,2.2,3.1,4.1c0,1.9-0.9,4.1-3.1,4.1
		C68.1,397.7,67.2,395.5,67.2,393.6z M72.3,393.6c0-1.6-0.5-3.2-2-3.2c-1.5,0-2,1.6-2,3.2c0,1.6,0.5,3.3,2,3.3
		C71.8,396.8,72.3,395.2,72.3,393.6z"/>
	<path fill="#363636" d="M76.1,397.6v-6.7l-1.3,1.4l-0.6-0.6l2-2.1h0.9v8H76.1z"/>
	<path fill="#363636" d="M78.6,393.6c0-2.2,1-4.1,3.3-4.1c1,0,1.7,0.4,2.2,1l-0.5,0.7c-0.4-0.5-0.9-0.8-1.7-0.8
		c-1.6,0-2.3,1.6-2.3,3.1c0,0.1,0,0.2,0,0.3c0.3-0.6,1.2-1.2,2.3-1.2c1.4,0,2.6,0.9,2.6,2.6c0,1.4-1.1,2.6-2.8,2.6
		C79.5,397.7,78.6,395.8,78.6,393.6z M83.5,395.2c0-1.2-0.8-1.7-1.8-1.7c-0.8,0-1.6,0.5-2,1.2c0.1,1,0.6,2.2,2,2.2
		C82.9,396.8,83.5,395.9,83.5,395.2z"/>
	<path fill="#363636" d="M88.9,392.4c0-0.4,0.3-0.7,0.7-0.7s0.7,0.3,0.7,0.7c0,0.3-0.3,0.7-0.7,0.7S88.9,392.7,88.9,392.4z
		 M88.9,397c0-0.4,0.3-0.7,0.7-0.7s0.7,0.3,0.7,0.7c0,0.4-0.3,0.7-0.7,0.7S88.9,397.4,88.9,397z"/>
	<path fill="#363636" d="M94.6,393.6c0-2.5,1.8-4.1,4.1-4.1c1.4,0,2.4,0.7,3,1.6l-0.8,0.5c-0.5-0.7-1.3-1.2-2.2-1.2
		c-1.8,0-3.1,1.3-3.1,3.2c0,1.9,1.3,3.3,3.1,3.3c0.9,0,1.8-0.5,2.2-1.2l0.8,0.5c-0.7,0.9-1.6,1.6-3,1.6
		C96.4,397.7,94.6,396.1,94.6,393.6z"/>
	<path fill="#363636" d="M102.7,394.7c0-1.7,1.2-3,2.9-3c1.8,0,2.8,1.4,2.8,3.1v0.2h-4.7c0.1,1.1,0.8,2,2.1,2c0.7,0,1.3-0.3,1.8-0.7
		l0.4,0.6c-0.6,0.6-1.4,0.9-2.3,0.9C103.9,397.7,102.7,396.5,102.7,394.7z M105.5,392.4c-1.2,0-1.8,1-1.9,1.9h3.8
		C107.4,393.5,106.9,392.4,105.5,392.4z"/>
	<path fill="#363636" d="M112.6,394.7c0-1.7,1.2-3,2.9-3c1.1,0,1.7,0.4,2.1,1l-0.6,0.5c-0.4-0.5-0.9-0.7-1.5-0.7c-1.2,0-2,0.9-2,2.2
		s0.8,2.2,2,2.2c0.6,0,1.1-0.2,1.5-0.8l0.6,0.6c-0.4,0.6-1.1,1-2.1,1C113.7,397.7,112.6,396.4,112.6,394.7z"/>
	<path fill="#363636" d="M122.8,397.6v-3.8c0-1-0.5-1.3-1.3-1.3c-0.7,0-1.4,0.4-1.7,0.9v4.2h-0.9v-8h0.9v3c0.4-0.5,1.2-1,2.1-1
		c1.2,0,1.8,0.6,1.8,1.8v4.1H122.8z"/>
	<path fill="#363636" d="M125.3,390.4c0-0.3,0.3-0.6,0.6-0.6c0.3,0,0.6,0.3,0.6,0.6s-0.3,0.6-0.6,0.6
		C125.6,391,125.3,390.7,125.3,390.4z M125.5,397.6v-5.8h0.9v5.8H125.5z"/>
	<path fill="#363636" d="M128.4,397.6v-5h-1v-0.8h1v-0.4c0-1.2,0.7-1.9,1.7-1.9c0.5,0,0.9,0.1,1.2,0.4l-0.4,0.6
		c-0.2-0.2-0.4-0.3-0.7-0.3c-0.6,0-0.9,0.4-0.9,1.1v0.4h1.2v0.8h-1.2v5H128.4z M131.8,397.6v-5h-1v-0.8h1v-0.4
		c0-1.2,0.7-1.9,1.7-1.9c0.5,0,0.9,0.1,1.2,0.4l-0.4,0.6c-0.2-0.2-0.4-0.3-0.7-0.3c-0.6,0-0.9,0.4-0.9,1.1v0.4h1.2v0.8h-1.2v5H131.8
		z"/>
	<path fill="#363636" d="M135,397.6v-5.8h0.9v0.9c0.5-0.6,1.1-1.1,1.9-1.1v0.9c-0.1,0-0.2,0-0.3,0c-0.6,0-1.3,0.5-1.6,0.9v4.1H135z"
		/>
	<path fill="#363636" d="M138.6,394.7c0-1.7,1.2-3,2.9-3c1.8,0,2.8,1.4,2.8,3.1v0.2h-4.7c0.1,1.1,0.8,2,2.1,2c0.7,0,1.3-0.3,1.8-0.7
		l0.4,0.6c-0.6,0.6-1.4,0.9-2.3,0.9C139.8,397.7,138.6,396.5,138.6,394.7z M141.4,392.4c-1.2,0-1.8,1-1.9,1.9h3.8
		C143.3,393.5,142.8,392.4,141.4,392.4z"/>
	<path fill="#363636" d="M148.5,394.7c0-1.7,1.2-3,2.9-3c1.1,0,1.7,0.4,2.1,1l-0.6,0.5c-0.4-0.5-0.9-0.7-1.5-0.7c-1.2,0-2,0.9-2,2.2
		s0.8,2.2,2,2.2c0.6,0,1.1-0.2,1.5-0.8l0.6,0.6c-0.4,0.6-1.1,1-2.1,1C149.6,397.7,148.5,396.4,148.5,394.7z"/>
	<path fill="#363636" d="M154.4,394.7c0-1.7,1.1-3,2.9-3s2.9,1.4,2.9,3s-1.1,3-2.9,3S154.4,396.4,154.4,394.7z M159.2,394.7
		c0-1.2-0.7-2.2-1.9-2.2s-1.9,1.1-1.9,2.2c0,1.2,0.7,2.2,1.9,2.2S159.2,395.9,159.2,394.7z"/>
	<path fill="#363636" d="M168.6,397.6v-3.9c0-0.7-0.3-1.2-1.1-1.2c-0.6,0-1.2,0.4-1.5,0.9v4.2h-0.9v-3.9c0-0.7-0.3-1.2-1.1-1.2
		c-0.6,0-1.2,0.4-1.5,0.9v4.2h-0.9v-5.8h0.9v0.8c0.3-0.4,1-1,1.9-1c0.9,0,1.4,0.5,1.5,1.1c0.3-0.5,1.1-1.1,1.9-1.1
		c1.1,0,1.6,0.6,1.6,1.8v4.2H168.6z"/>
	<path fill="#363636" d="M172.2,396.7v3.1h-0.9v-8h0.9v0.9c0.4-0.6,1.1-1,2-1c1.5,0,2.6,1.2,2.6,3c0,1.9-1.1,3-2.6,3
		C173.4,397.7,172.7,397.3,172.2,396.7z M175.8,394.7c0-1.3-0.7-2.2-1.9-2.2c-0.7,0-1.4,0.4-1.7,0.9v2.6c0.3,0.5,1,0.9,1.7,0.9
		C175.1,396.9,175.8,396,175.8,394.7z"/>
	<path fill="#363636" d="M178.2,397.6v-5.8h0.9v0.9c0.5-0.6,1.1-1.1,1.9-1.1v0.9c-0.1,0-0.2,0-0.3,0c-0.6,0-1.3,0.5-1.6,0.9v4.1
		H178.2z"/>
	<path fill="#363636" d="M181.8,394.7c0-1.7,1.2-3,2.9-3c1.8,0,2.8,1.4,2.8,3.1v0.2h-4.7c0.1,1.1,0.8,2,2.1,2c0.7,0,1.3-0.3,1.8-0.7
		l0.4,0.6c-0.6,0.6-1.4,0.9-2.3,0.9C183,397.7,181.8,396.5,181.8,394.7z M184.6,392.4c-1.2,0-1.8,1-1.9,1.9h3.8
		C186.5,393.5,186,392.4,184.6,392.4z"/>
	<path fill="#363636" d="M192.8,397.6v-3.8c0-1-0.5-1.3-1.3-1.3c-0.7,0-1.4,0.4-1.7,0.9v4.2h-0.9v-5.8h0.9v0.8c0.4-0.5,1.2-1,2.1-1
		c1.2,0,1.8,0.6,1.8,1.9v4.1H192.8z"/>
	<path fill="#363636" d="M199.7,397.6v-0.9c-0.4,0.6-1.1,1-2,1c-1.5,0-2.6-1.2-2.6-3c0-1.9,1.1-3,2.6-3c0.8,0,1.5,0.4,2,1v-3.1h0.9
		v8H199.7z M199.7,396v-2.6c-0.3-0.5-1-0.9-1.7-0.9c-1.2,0-1.9,1-1.9,2.2s0.7,2.2,1.9,2.2C198.7,396.9,199.4,396.5,199.7,396z"/>
	<path fill="#363636" d="M205.2,393.6c0-2.2,1-4.1,3.3-4.1c1,0,1.7,0.4,2.2,1l-0.5,0.7c-0.4-0.5-0.9-0.8-1.7-0.8
		c-1.6,0-2.3,1.6-2.3,3.1c0,0.1,0,0.2,0,0.3c0.3-0.6,1.2-1.2,2.3-1.2c1.4,0,2.6,0.9,2.6,2.6c0,1.4-1.1,2.6-2.8,2.6
		C206.1,397.7,205.2,395.8,205.2,393.6z M210.1,395.2c0-1.2-0.8-1.7-1.8-1.7c-0.8,0-1.6,0.5-2,1.2c0.1,1,0.6,2.2,2,2.2
		C209.5,396.8,210.1,395.9,210.1,395.2z"/>
	<path fill="#363636" d="M212.4,397.6v-0.8c2.9-2.3,4.4-3.6,4.4-5c0-1-0.9-1.5-1.7-1.5c-1,0-1.7,0.4-2.2,1l-0.6-0.6
		c0.6-0.8,1.7-1.3,2.8-1.3c1.3,0,2.7,0.8,2.7,2.4c0,1.6-1.7,3.1-3.9,4.9h3.9v0.9H212.4z"/>
	<path fill="#363636" d="M219.9,399.1l-0.5-0.4c0.4-0.3,0.7-0.7,0.8-1.1c0,0-0.1,0-0.2,0c-0.3,0-0.6-0.3-0.6-0.6s0.3-0.6,0.6-0.6
		c0.4,0,0.8,0.3,0.8,0.9C220.9,398,220.5,398.7,219.9,399.1z"/>
	<path fill="#363636" d="M225.7,397.6v-2h-3.8v-0.8l3.4-5.1h1.4v5.1h1.1v0.9h-1.1v2H225.7z M225.7,390.5l-2.8,4.2h2.8V390.5z"/>
	<path fill="#363636" d="M239.2,397.6v-3.9c0-0.7-0.3-1.2-1.1-1.2c-0.6,0-1.2,0.4-1.5,0.9v4.2h-0.9v-3.9c0-0.7-0.3-1.2-1.1-1.2
		c-0.6,0-1.2,0.4-1.5,0.9v4.2h-0.9v-5.8h0.9v0.8c0.3-0.4,1-1,1.9-1c0.9,0,1.4,0.5,1.5,1.1c0.3-0.5,1.1-1.1,1.9-1.1
		c1.1,0,1.6,0.6,1.6,1.8v4.2H239.2z"/>
	<path fill="#363636" d="M241.8,390.4c0-0.3,0.3-0.6,0.6-0.6c0.3,0,0.6,0.3,0.6,0.6s-0.3,0.6-0.6,0.6
		C242.1,391,241.8,390.7,241.8,390.4z M241.9,397.6v-5.8h0.9v5.8H241.9z"/>
	<path fill="#363636" d="M244.6,397.6v-8h0.9v8H244.6z"/>
	<path fill="#363636" d="M247.3,397.6v-8h0.9v8H247.3z"/>
	<path fill="#363636" d="M249.9,390.4c0-0.3,0.3-0.6,0.6-0.6c0.3,0,0.6,0.3,0.6,0.6s-0.3,0.6-0.6,0.6
		C250.2,391,249.9,390.7,249.9,390.4z M250,397.6v-5.8h0.9v5.8H250z"/>
	<path fill="#363636" d="M252.4,394.7c0-1.7,1.1-3,2.9-3s2.9,1.4,2.9,3s-1.1,3-2.9,3S252.4,396.4,252.4,394.7z M257.2,394.7
		c0-1.2-0.7-2.2-1.9-2.2s-1.9,1.1-1.9,2.2c0,1.2,0.7,2.2,1.9,2.2S257.2,395.9,257.2,394.7z"/>
	<path fill="#363636" d="M263.5,397.6v-3.8c0-1-0.5-1.3-1.3-1.3c-0.7,0-1.4,0.4-1.7,0.9v4.2h-0.9v-5.8h0.9v0.8c0.4-0.5,1.2-1,2.1-1
		c1.2,0,1.8,0.6,1.8,1.9v4.1H263.5z"/>
	<path fill="#363636" d="M265.7,396.8l0.5-0.6c0.4,0.4,1.1,0.8,1.9,0.8c0.9,0,1.4-0.4,1.4-1c0-1.4-3.6-0.5-3.6-2.7
		c0-0.9,0.8-1.7,2.1-1.7c1,0,1.7,0.4,2.1,0.8l-0.4,0.6c-0.3-0.4-1-0.7-1.7-0.7c-0.8,0-1.3,0.4-1.3,0.9c0,1.3,3.6,0.4,3.6,2.7
		c0,1-0.8,1.8-2.3,1.8C267.1,397.7,266.3,397.4,265.7,396.8z"/>
	<path fill="#363636" d="M279.1,397.6v-0.9c-0.4,0.6-1.1,1-2,1c-1.5,0-2.6-1.2-2.6-3c0-1.9,1.1-3,2.6-3c0.8,0,1.5,0.4,2,1v-3.1h0.9
		v8H279.1z M279.1,396v-2.6c-0.3-0.5-1-0.9-1.7-0.9c-1.2,0-1.9,1-1.9,2.2s0.7,2.2,1.9,2.2C278.1,396.9,278.8,396.5,279.1,396z"/>
	<path fill="#363636" d="M281.5,394.7c0-1.7,1.2-3,2.9-3c1.8,0,2.8,1.4,2.8,3.1v0.2h-4.7c0.1,1.1,0.8,2,2.1,2c0.7,0,1.3-0.3,1.8-0.7
		l0.4,0.6c-0.6,0.6-1.4,0.9-2.3,0.9C282.7,397.7,281.5,396.5,281.5,394.7z M284.3,392.4c-1.2,0-1.8,1-1.9,1.9h3.8
		C286.2,393.5,285.6,392.4,284.3,392.4z"/>
	<path fill="#363636" d="M291.9,396.4v-3.8h-1v-0.8h1v-1.6h0.9v1.6h1.2v0.8h-1.2v3.6c0,0.4,0.2,0.7,0.6,0.7c0.3,0,0.5-0.1,0.6-0.3
		l0.3,0.7c-0.2,0.2-0.6,0.4-1.1,0.4C292.3,397.7,291.9,397.2,291.9,396.4z"/>
	<path fill="#363636" d="M295.2,397.6v-5.8h0.9v0.9c0.5-0.6,1.1-1.1,1.9-1.1v0.9c-0.1,0-0.2,0-0.3,0c-0.6,0-1.3,0.5-1.6,0.9v4.1
		H295.2z"/>
	<path fill="#363636" d="M302.8,397.6v-0.7c-0.5,0.5-1.1,0.8-1.9,0.8c-1,0-2-0.7-2-1.9c0-1.3,1-1.9,2-1.9c0.8,0,1.5,0.3,1.9,0.8v-1
		c0-0.8-0.6-1.2-1.5-1.2c-0.7,0-1.3,0.2-1.8,0.8l-0.4-0.6c0.6-0.6,1.4-1,2.3-1c1.2,0,2.2,0.6,2.2,2v4H302.8z M302.8,396.4v-1.1
		c-0.3-0.5-1-0.7-1.6-0.7c-0.9,0-1.4,0.5-1.4,1.3c0,0.7,0.6,1.3,1.4,1.3C301.8,397.1,302.4,396.8,302.8,396.4z"/>
	<path fill="#363636" d="M305.3,390.4c0-0.3,0.3-0.6,0.6-0.6s0.6,0.3,0.6,0.6s-0.3,0.6-0.6,0.6S305.3,390.7,305.3,390.4z
		 M305.5,397.6v-5.8h0.9v5.8H305.5z"/>
	<path fill="#363636" d="M308.4,396.4v-3.8h-1v-0.8h1v-1.6h0.9v1.6h1.2v0.8h-1.2v3.6c0,0.4,0.2,0.7,0.6,0.7c0.3,0,0.5-0.1,0.6-0.3
		l0.3,0.7c-0.2,0.2-0.6,0.4-1.1,0.4C308.8,397.7,308.4,397.2,308.4,396.4z"/>
	<path fill="#363636" d="M311.4,394.7c0-1.7,1.2-3,2.9-3c1.8,0,2.8,1.4,2.8,3.1v0.2h-4.7c0.1,1.1,0.8,2,2.1,2c0.7,0,1.3-0.3,1.8-0.7
		l0.4,0.6c-0.6,0.6-1.4,0.9-2.3,0.9C312.6,397.7,311.4,396.5,311.4,394.7z M314.2,392.4c-1.2,0-1.8,1-1.9,1.9h3.8
		C316.1,393.5,315.5,392.4,314.2,392.4z"/>
	<path fill="#363636" d="M325.5,397.6v-3.9c0-0.7-0.3-1.2-1.1-1.2c-0.6,0-1.2,0.4-1.5,0.9v4.2H322v-3.9c0-0.7-0.3-1.2-1.1-1.2
		c-0.6,0-1.2,0.4-1.5,0.9v4.2h-0.9v-5.8h0.9v0.8c0.3-0.4,1-1,1.9-1c0.9,0,1.4,0.5,1.5,1.1c0.3-0.5,1.1-1.1,1.9-1.1
		c1.1,0,1.6,0.6,1.6,1.8v4.2H325.5z"/>
	<path fill="#363636" d="M327.8,394.7c0-1.7,1.2-3,2.9-3c1.8,0,2.8,1.4,2.8,3.1v0.2h-4.7c0.1,1.1,0.8,2,2.1,2c0.7,0,1.3-0.3,1.8-0.7
		l0.4,0.6c-0.6,0.6-1.4,0.9-2.3,0.9C329.1,397.7,327.8,396.5,327.8,394.7z M330.7,392.4c-1.2,0-1.8,1-1.9,1.9h3.8
		C332.6,393.5,332,392.4,330.7,392.4z"/>
	<path fill="#363636" d="M338.9,397.6v-3.8c0-1-0.5-1.3-1.3-1.3c-0.7,0-1.4,0.4-1.7,0.9v4.2h-0.9v-5.8h0.9v0.8c0.4-0.5,1.2-1,2.1-1
		c1.2,0,1.8,0.6,1.8,1.9v4.1H338.9z"/>
	<path fill="#363636" d="M341.7,396.4v-3.8h-1v-0.8h1v-1.6h0.9v1.6h1.2v0.8h-1.2v3.6c0,0.4,0.2,0.7,0.6,0.7c0.3,0,0.5-0.1,0.6-0.3
		l0.3,0.7c-0.2,0.2-0.6,0.4-1.1,0.4C342.2,397.7,341.7,397.2,341.7,396.4z"/>
	<path fill="#363636" d="M344.6,396.8l0.5-0.6c0.4,0.4,1.1,0.8,1.9,0.8c0.9,0,1.4-0.4,1.4-1c0-1.4-3.6-0.5-3.6-2.7
		c0-0.9,0.8-1.7,2.1-1.7c1,0,1.7,0.4,2.1,0.8l-0.4,0.6c-0.3-0.4-1-0.7-1.7-0.7c-0.8,0-1.3,0.4-1.3,0.9c0,1.3,3.6,0.4,3.6,2.7
		c0,1-0.8,1.8-2.3,1.8C346,397.7,345.2,397.4,344.6,396.8z"/>
	<path fill="#363636" d="M353.4,394.7c0-1.7,1.2-3,2.9-3c1.8,0,2.8,1.4,2.8,3.1v0.2h-4.7c0.1,1.1,0.8,2,2.1,2c0.7,0,1.3-0.3,1.8-0.7
		l0.4,0.6c-0.6,0.6-1.4,0.9-2.3,0.9C354.7,397.7,353.4,396.5,353.4,394.7z M356.3,392.4c-1.2,0-1.8,1-1.9,1.9h3.8
		C358.2,393.5,357.6,392.4,356.3,392.4z"/>
	<path fill="#363636" d="M364.3,397.6l-1.8-2.4l-1.7,2.4h-1l2.2-3l-2.1-2.8h1l1.6,2.2l1.6-2.2h1l-2.1,2.8l2.2,3H364.3z"/>
	<path fill="#363636" d="M367.3,396.7v3.1h-0.9v-8h0.9v0.9c0.4-0.6,1.1-1,2-1c1.5,0,2.6,1.2,2.6,3c0,1.9-1.1,3-2.6,3
		C368.4,397.7,367.8,397.3,367.3,396.7z M370.9,394.7c0-1.3-0.7-2.2-1.9-2.2c-0.7,0-1.4,0.4-1.7,0.9v2.6c0.3,0.5,1,0.9,1.7,0.9
		C370.2,396.9,370.9,396,370.9,394.7z"/>
	<path fill="#363636" d="M372.9,394.7c0-1.7,1.2-3,2.9-3c1.8,0,2.8,1.4,2.8,3.1v0.2h-4.7c0.1,1.1,0.8,2,2.1,2c0.7,0,1.3-0.3,1.8-0.7
		l0.4,0.6c-0.6,0.6-1.4,0.9-2.3,0.9C374.1,397.7,372.9,396.5,372.9,394.7z M375.7,392.4c-1.2,0-1.8,1-1.9,1.9h3.8
		C377.6,393.5,377.1,392.4,375.7,392.4z M375.7,390.9H375l1.8-1.7h0.9L375.7,390.9z"/>
	<path fill="#363636" d="M384.2,397.6v-0.9c-0.4,0.6-1.1,1-2,1c-1.5,0-2.6-1.2-2.6-3c0-1.9,1.1-3,2.6-3c0.8,0,1.5,0.4,2,1v-3.1h0.9
		v8H384.2z M384.2,396v-2.6c-0.3-0.5-1-0.9-1.7-0.9c-1.2,0-1.9,1-1.9,2.2s0.7,2.2,1.9,2.2C383.2,396.9,383.9,396.5,384.2,396z"/>
	<path fill="#363636" d="M386.7,390.4c0-0.3,0.3-0.6,0.6-0.6s0.6,0.3,0.6,0.6s-0.3,0.6-0.6,0.6S386.7,390.7,386.7,390.4z
		 M386.9,397.6v-5.8h0.9v5.8H386.9z"/>
	<path fill="#363636" d="M389.3,394.7c0-1.7,1.2-3,2.9-3c1.8,0,2.8,1.4,2.8,3.1v0.2h-4.7c0.1,1.1,0.8,2,2.1,2c0.7,0,1.3-0.3,1.8-0.7
		l0.4,0.6c-0.6,0.6-1.4,0.9-2.3,0.9C390.5,397.7,389.3,396.5,389.3,394.7z M392.1,392.4c-1.2,0-1.8,1-1.9,1.9h3.8
		C394,393.5,393.4,392.4,392.1,392.4z M392,390.9h-0.7l1.8-1.7h0.9L392,390.9z"/>
	<path fill="#363636" d="M395.9,396.8l0.5-0.6c0.4,0.4,1.1,0.8,1.9,0.8c0.9,0,1.4-0.4,1.4-1c0-1.4-3.6-0.5-3.6-2.7
		c0-0.9,0.8-1.7,2.1-1.7c1,0,1.7,0.4,2.1,0.8l-0.4,0.6c-0.3-0.4-1-0.7-1.7-0.7c-0.8,0-1.3,0.4-1.3,0.9c0,1.3,3.6,0.4,3.6,2.7
		c0,1-0.8,1.8-2.3,1.8C397.2,397.7,396.4,397.4,395.9,396.8z"/>
	<path fill="#363636" d="M408.7,397.6v-0.7c-0.5,0.5-1.1,0.8-1.9,0.8c-1,0-2-0.7-2-1.9c0-1.3,1-1.9,2-1.9c0.8,0,1.5,0.3,1.9,0.8v-1
		c0-0.8-0.6-1.2-1.5-1.2c-0.7,0-1.3,0.2-1.8,0.8l-0.4-0.6c0.6-0.6,1.4-1,2.3-1c1.2,0,2.2,0.6,2.2,2v4H408.7z M408.7,396.4v-1.1
		c-0.3-0.5-1-0.7-1.6-0.7c-0.9,0-1.4,0.5-1.4,1.3c0,0.7,0.6,1.3,1.4,1.3C407.7,397.1,408.3,396.8,408.7,396.4z"/>
	<path fill="#363636" d="M415.3,397.6v-0.8c-0.4,0.5-1.2,1-2.1,1c-1.2,0-1.8-0.6-1.8-1.8v-4.1h0.9v3.8c0,1,0.5,1.3,1.3,1.3
		c0.7,0,1.4-0.4,1.7-0.9v-4.3h0.9v5.8H415.3z"/>
	<path fill="#363636" d="M420.8,394.7c0-1.7,1.2-3,2.9-3c1.1,0,1.7,0.4,2.1,1l-0.6,0.5c-0.4-0.5-0.9-0.7-1.5-0.7c-1.2,0-2,0.9-2,2.2
		s0.8,2.2,2,2.2c0.6,0,1.1-0.2,1.5-0.8l0.6,0.6c-0.4,0.6-1.1,1-2.1,1C421.9,397.7,420.8,396.4,420.8,394.7z"/>
	<path fill="#363636" d="M426.7,394.7c0-1.7,1.1-3,2.9-3c1.8,0,2.9,1.4,2.9,3s-1.1,3-2.9,3C427.8,397.7,426.7,396.4,426.7,394.7z
		 M431.5,394.7c0-1.2-0.7-2.2-1.9-2.2c-1.2,0-1.9,1.1-1.9,2.2c0,1.2,0.7,2.2,1.9,2.2C430.8,396.9,431.5,395.9,431.5,394.7z"/>
	<path fill="#363636" d="M437.8,397.6v-0.8c-0.4,0.5-1.2,1-2.1,1c-1.2,0-1.8-0.6-1.8-1.8v-4.1h0.9v3.8c0,1,0.5,1.3,1.3,1.3
		c0.7,0,1.4-0.4,1.7-0.9v-4.3h0.9v5.8H437.8z"/>
	<path fill="#363636" d="M440.5,397.6v-5.8h0.9v0.9c0.5-0.6,1.1-1.1,1.9-1.1v0.9c-0.1,0-0.2,0-0.3,0c-0.6,0-1.3,0.5-1.6,0.9v4.1
		H440.5z"/>
	<path fill="#363636" d="M444,396.8l0.5-0.6c0.4,0.4,1.1,0.8,1.9,0.8c0.9,0,1.4-0.4,1.4-1c0-1.4-3.6-0.5-3.6-2.7
		c0-0.9,0.8-1.7,2.1-1.7c1,0,1.7,0.4,2.1,0.8l-0.4,0.6c-0.3-0.4-1-0.7-1.7-0.7c-0.8,0-1.3,0.4-1.3,0.9c0,1.3,3.6,0.4,3.6,2.7
		c0,1-0.8,1.8-2.3,1.8C445.4,397.7,444.6,397.4,444,396.8z"/>
	<path fill="#363636" d="M457.4,397.6v-0.9c-0.4,0.6-1.1,1-2,1c-1.5,0-2.6-1.2-2.6-3c0-1.9,1.1-3,2.6-3c0.8,0,1.5,0.4,2,1v-3.1h0.9
		v8H457.4z M457.4,396v-2.6c-0.3-0.5-1-0.9-1.7-0.9c-1.2,0-1.9,1-1.9,2.2s0.7,2.2,1.9,2.2C456.3,396.9,457.1,396.5,457.4,396z"/>
	<path fill="#363636" d="M459.7,394.7c0-1.7,1.2-3,2.9-3c1.8,0,2.8,1.4,2.8,3.1v0.2h-4.7c0.1,1.1,0.8,2,2.1,2c0.7,0,1.3-0.3,1.8-0.7
		l0.4,0.6c-0.6,0.6-1.4,0.9-2.3,0.9C461,397.7,459.7,396.5,459.7,394.7z M462.6,392.4c-1.2,0-1.8,1-1.9,1.9h3.8
		C464.5,393.5,463.9,392.4,462.6,392.4z"/>
	<path fill="#363636" d="M469.9,397.6v-8h0.9v8H469.9z"/>
	<path fill="#363636" d="M472.7,392.6c0,0-0.3-2.5-0.3-2.6c0-0.3,0.2-0.6,0.5-0.6c0.3,0,0.6,0.3,0.6,0.6c0,0.2-0.3,2.6-0.3,2.6
		H472.7z"/>
	<path fill="#363636" d="M478.6,397.6v-0.7c-0.5,0.5-1.1,0.8-1.9,0.8c-1,0-2-0.7-2-1.9c0-1.3,1-1.9,2-1.9c0.8,0,1.5,0.3,1.9,0.8v-1
		c0-0.8-0.6-1.2-1.5-1.2c-0.7,0-1.3,0.2-1.8,0.8l-0.4-0.6c0.6-0.6,1.4-1,2.3-1c1.2,0,2.2,0.6,2.2,2v4H478.6z M478.6,396.4v-1.1
		c-0.3-0.5-1-0.7-1.6-0.7c-0.9,0-1.4,0.5-1.4,1.3c0,0.7,0.6,1.3,1.4,1.3C477.7,397.1,478.3,396.8,478.6,396.4z"/>
	<path fill="#363636" d="M485.3,397.6v-3.8c0-1-0.5-1.3-1.3-1.3c-0.7,0-1.4,0.4-1.7,0.9v4.2h-0.9v-5.8h0.9v0.8c0.4-0.5,1.2-1,2.1-1
		c1.2,0,1.8,0.6,1.8,1.9v4.1H485.3z"/>
	<path fill="#363636" d="M491.9,397.6v-3.8c0-1-0.5-1.3-1.3-1.3c-0.7,0-1.4,0.4-1.7,0.9v4.2H488v-5.8h0.9v0.8c0.4-0.5,1.2-1,2.1-1
		c1.2,0,1.8,0.6,1.8,1.9v4.1H491.9z"/>
	<path fill="#363636" d="M494.3,394.7c0-1.7,1.2-3,2.9-3c1.8,0,2.8,1.4,2.8,3.1v0.2h-4.7c0.1,1.1,0.8,2,2.1,2c0.7,0,1.3-0.3,1.8-0.7
		l0.4,0.6c-0.6,0.6-1.4,0.9-2.3,0.9C495.5,397.7,494.3,396.5,494.3,394.7z M497.1,392.4c-1.2,0-1.8,1-1.9,1.9h3.8
		C499,393.5,498.4,392.4,497.1,392.4z M497,390.9h-0.7l1.8-1.7h0.9L497,390.9z"/>
	<path fill="#363636" d="M501,394.7c0-1.7,1.2-3,2.9-3c1.8,0,2.8,1.4,2.8,3.1v0.2H502c0.1,1.1,0.8,2,2.1,2c0.7,0,1.3-0.3,1.8-0.7
		l0.4,0.6c-0.6,0.6-1.4,0.9-2.3,0.9C502.3,397.7,501,396.5,501,394.7z M503.9,392.4c-1.2,0-1.8,1-1.9,1.9h3.8
		C505.8,393.5,505.2,392.4,503.9,392.4z"/>
	<path fill="#363636" d="M510.9,394.7c0-1.7,1.2-3,2.9-3c1.1,0,1.7,0.4,2.1,1l-0.6,0.5c-0.4-0.5-0.9-0.7-1.5-0.7c-1.2,0-2,0.9-2,2.2
		s0.8,2.2,2,2.2c0.6,0,1.1-0.2,1.5-0.8l0.6,0.6c-0.4,0.6-1.1,1-2.1,1C512,397.7,510.9,396.4,510.9,394.7z"/>
	<path fill="#363636" d="M517,390.4c0-0.3,0.3-0.6,0.6-0.6s0.6,0.3,0.6,0.6s-0.3,0.6-0.6,0.6S517,390.7,517,390.4z M517.2,397.6
		v-5.8h0.9v5.8H517.2z"/>
	<path fill="#363636" d="M521.4,397.6l-2.4-5.8h1l1.9,4.8l1.9-4.8h1l-2.4,5.8H521.4z"/>
	<path fill="#363636" d="M525.6,390.4c0-0.3,0.3-0.6,0.6-0.6s0.6,0.3,0.6,0.6s-0.3,0.6-0.6,0.6S525.6,390.7,525.6,390.4z
		 M525.8,397.6v-5.8h0.9v5.8H525.8z"/>
	<path fill="#363636" d="M528.5,397.6v-8h0.9v8H528.5z"/>
	<path fill="#363636" d="M530.8,394.7c0-1.7,1.2-3,2.9-3c1.8,0,2.8,1.4,2.8,3.1v0.2h-4.7c0.1,1.1,0.8,2,2.1,2c0.7,0,1.3-0.3,1.8-0.7
		l0.4,0.6c-0.6,0.6-1.4,0.9-2.3,0.9C532.1,397.7,530.8,396.5,530.8,394.7z M533.7,392.4c-1.2,0-1.8,1-1.9,1.9h3.8
		C535.6,393.5,535,392.4,533.7,392.4z"/>
	<path fill="#363636" d="M540.8,397.6v-0.8c2.9-2.3,4.4-3.6,4.4-5c0-1-0.9-1.5-1.7-1.5c-1,0-1.7,0.4-2.2,1l-0.6-0.6
		c0.6-0.8,1.7-1.3,2.8-1.3c1.3,0,2.7,0.8,2.7,2.4c0,1.6-1.7,3.1-3.9,4.9h3.9v0.9H540.8z"/>
	<path fill="#363636" d="M547.8,393.6c0-2,0.9-4.1,3.1-4.1c2.2,0,3.1,2.2,3.1,4.1c0,1.9-0.9,4.1-3.1,4.1
		C548.6,397.7,547.8,395.5,547.8,393.6z M552.9,393.6c0-1.6-0.5-3.2-2-3.2s-2,1.6-2,3.2c0,1.6,0.5,3.3,2,3.3
		S552.9,395.2,552.9,393.6z"/>
	<path fill="#363636" d="M556.7,397.6v-6.7l-1.3,1.4l-0.6-0.6l2-2.1h0.9v8H556.7z"/>
	<path fill="#363636" d="M559.4,396.5l0.6-0.7c0.5,0.7,1.2,1.1,2.2,1.1c1.1,0,1.8-0.7,1.8-1.7c0-1.1-0.8-1.7-1.8-1.7
		c-0.7,0-1.3,0.2-1.8,0.7l-0.7-0.3v-4.3h4.9v0.9h-3.9v2.8c0.4-0.4,1.1-0.7,1.9-0.7c1.3,0,2.6,0.9,2.6,2.6c0,1.6-1.2,2.6-2.9,2.6
		C560.9,397.7,560,397.2,559.4,396.5z"/>
	<path fill="#363636" d="M569.3,394.7c0-1.7,1.2-3,2.9-3c1.8,0,2.8,1.4,2.8,3.1v0.2h-4.7c0.1,1.1,0.8,2,2.1,2c0.7,0,1.3-0.3,1.8-0.7
		l0.4,0.6c-0.6,0.6-1.4,0.9-2.3,0.9C570.6,397.7,569.3,396.5,569.3,394.7z M572.2,392.4c-1.2,0-1.8,1-1.9,1.9h3.8
		C574.1,393.5,573.5,392.4,572.2,392.4z"/>
	<path fill="#363636" d="M576.6,396.4v-3.8h-1v-0.8h1v-1.6h0.9v1.6h1.2v0.8h-1.2v3.6c0,0.4,0.2,0.7,0.6,0.7c0.3,0,0.5-0.1,0.6-0.3
		l0.3,0.7c-0.2,0.2-0.6,0.4-1.1,0.4C577,397.7,576.6,397.2,576.6,396.4z"/>
	<path fill="#363636" d="M584.3,397.6v-6.7l-1.3,1.4l-0.6-0.6l2-2.1h0.9v8H584.3z"/>
	<path fill="#363636" d="M586.9,397.6v-0.8c2.9-2.3,4.5-3.6,4.5-5c0-1-0.9-1.5-1.7-1.5c-1,0-1.7,0.4-2.2,1l-0.6-0.6
		c0.6-0.8,1.7-1.3,2.8-1.3c1.3,0,2.7,0.8,2.7,2.4c0,1.6-1.7,3.1-3.9,4.9h3.9v0.9H586.9z"/>
	<path fill="#363636" d="M593.9,393.6c0-2,0.9-4.1,3.1-4.1c2.2,0,3.1,2.2,3.1,4.1c0,1.9-0.9,4.1-3.1,4.1
		C594.8,397.7,593.9,395.5,593.9,393.6z M599,393.6c0-1.6-0.5-3.2-2-3.2s-2,1.6-2,3.2c0,1.6,0.5,3.3,2,3.3S599,395.2,599,393.6z"/>
	<path fill="#363636" d="M10.7,411.6v-3.9c0-0.7-0.3-1.2-1.1-1.2c-0.6,0-1.2,0.4-1.5,0.9v4.2H7.2v-3.9c0-0.7-0.3-1.2-1.1-1.2
		c-0.6,0-1.2,0.4-1.5,0.9v4.2H3.7v-5.8h0.9v0.8c0.3-0.4,1-1,1.9-1c0.9,0,1.4,0.5,1.5,1.1c0.3-0.5,1.1-1.1,1.9-1.1
		c1.1,0,1.6,0.6,1.6,1.8v4.2H10.7z"/>
	<path fill="#363636" d="M13.3,404.4c0-0.3,0.3-0.6,0.6-0.6c0.3,0,0.6,0.3,0.6,0.6s-0.3,0.6-0.6,0.6C13.5,405,13.3,404.7,13.3,404.4
		z M13.4,411.6v-5.8h0.9v5.8H13.4z"/>
	<path fill="#363636" d="M16.1,411.6v-8H17v8H16.1z"/>
	<path fill="#363636" d="M18.8,411.6v-8h0.9v8H18.8z"/>
	<path fill="#363636" d="M21.4,404.4c0-0.3,0.3-0.6,0.6-0.6c0.3,0,0.6,0.3,0.6,0.6S22.3,405,22,405C21.6,405,21.4,404.7,21.4,404.4z
		 M21.5,411.6v-5.8h0.9v5.8H21.5z"/>
	<path fill="#363636" d="M23.9,408.7c0-1.7,1.1-3,2.9-3s2.9,1.4,2.9,3s-1.1,3-2.9,3S23.9,410.4,23.9,408.7z M28.7,408.7
		c0-1.2-0.7-2.2-1.9-2.2s-1.9,1.1-1.9,2.2c0,1.2,0.7,2.2,1.9,2.2S28.7,409.9,28.7,408.7z"/>
	<path fill="#363636" d="M35,411.6v-3.8c0-1-0.5-1.3-1.3-1.3c-0.7,0-1.4,0.4-1.7,0.9v4.2h-0.9v-5.8H32v0.8c0.4-0.5,1.2-1,2.1-1
		c1.2,0,1.8,0.6,1.8,1.9v4.1H35z"/>
	<path fill="#363636" d="M37.2,410.8l0.5-0.6c0.4,0.4,1.1,0.8,1.9,0.8c0.9,0,1.4-0.4,1.4-1c0-1.4-3.6-0.5-3.6-2.7
		c0-0.9,0.8-1.7,2.1-1.7c1,0,1.7,0.4,2.1,0.8l-0.4,0.6c-0.3-0.4-1-0.7-1.7-0.7c-0.8,0-1.3,0.4-1.3,0.9c0,1.3,3.6,0.4,3.6,2.7
		c0,1-0.8,1.8-2.3,1.8C38.6,411.7,37.8,411.4,37.2,410.8z"/>
	<path fill="#363636" d="M50.6,411.6v-0.9c-0.4,0.6-1.1,1-2,1c-1.5,0-2.6-1.2-2.6-3c0-1.9,1.1-3,2.6-3c0.8,0,1.5,0.4,2,1v-3.1h0.9v8
		H50.6z M50.6,410v-2.6c-0.3-0.5-1-0.9-1.7-0.9c-1.2,0-1.9,1-1.9,2.2s0.7,2.2,1.9,2.2C49.6,410.9,50.3,410.5,50.6,410z"/>
	<path fill="#363636" d="M52.9,408.7c0-1.7,1.2-3,2.9-3c1.8,0,2.8,1.4,2.8,3.1v0.2h-4.7c0.1,1.1,0.8,2,2.1,2c0.7,0,1.3-0.3,1.8-0.7
		l0.4,0.6c-0.6,0.6-1.4,0.9-2.3,0.9C54.2,411.7,52.9,410.5,52.9,408.7z M55.8,406.4c-1.2,0-1.8,1-1.9,1.9h3.8
		C57.7,407.5,57.1,406.4,55.8,406.4z"/>
	<path fill="#363636" d="M63.3,410.4v-3.8h-1v-0.8h1v-1.6h0.9v1.6h1.2v0.8h-1.2v3.6c0,0.4,0.2,0.7,0.6,0.7c0.3,0,0.5-0.1,0.6-0.3
		l0.3,0.7c-0.2,0.2-0.6,0.4-1.1,0.4C63.8,411.7,63.3,411.2,63.3,410.4z"/>
	<path fill="#363636" d="M66.7,411.6v-5.8h0.9v0.9c0.5-0.6,1.1-1.1,1.9-1.1v0.9c-0.1,0-0.2,0-0.3,0c-0.6,0-1.3,0.5-1.6,0.9v4.1H66.7
		z"/>
	<path fill="#363636" d="M74.3,411.6v-0.7c-0.5,0.5-1.1,0.8-1.9,0.8c-1,0-2-0.7-2-1.9c0-1.3,1-1.9,2-1.9c0.8,0,1.5,0.3,1.9,0.8v-1
		c0-0.8-0.6-1.2-1.5-1.2c-0.7,0-1.3,0.2-1.8,0.8l-0.4-0.6c0.6-0.6,1.4-1,2.3-1c1.2,0,2.2,0.6,2.2,2v4H74.3z M74.3,410.4v-1.1
		c-0.3-0.5-1-0.7-1.6-0.7c-0.9,0-1.4,0.5-1.4,1.3c0,0.7,0.6,1.3,1.4,1.3C73.3,411.1,73.9,410.8,74.3,410.4z"/>
	<path fill="#363636" d="M76.8,404.4c0-0.3,0.3-0.6,0.6-0.6c0.3,0,0.6,0.3,0.6,0.6s-0.3,0.6-0.6,0.6C77.1,405,76.8,404.7,76.8,404.4
		z M77,411.6v-5.8h0.9v5.8H77z"/>
	<path fill="#363636" d="M79.9,410.4v-3.8h-1v-0.8h1v-1.6h0.9v1.6h1.2v0.8h-1.2v3.6c0,0.4,0.2,0.7,0.6,0.7c0.3,0,0.5-0.1,0.6-0.3
		l0.3,0.7c-0.2,0.2-0.6,0.4-1.1,0.4C80.3,411.7,79.9,411.2,79.9,410.4z"/>
	<path fill="#363636" d="M82.9,408.7c0-1.7,1.2-3,2.9-3c1.8,0,2.8,1.4,2.8,3.1v0.2h-4.7c0.1,1.1,0.8,2,2.1,2c0.7,0,1.3-0.3,1.8-0.7
		l0.4,0.6c-0.6,0.6-1.4,0.9-2.3,0.9C84.1,411.7,82.9,410.5,82.9,408.7z M85.7,406.4c-1.2,0-1.8,1-1.9,1.9h3.8
		C87.6,407.5,87,406.4,85.7,406.4z"/>
	<path fill="#363636" d="M96.9,411.6v-3.9c0-0.7-0.3-1.2-1.1-1.2c-0.6,0-1.2,0.4-1.5,0.9v4.2h-0.9v-3.9c0-0.7-0.3-1.2-1.1-1.2
		c-0.6,0-1.2,0.4-1.5,0.9v4.2H90v-5.8h0.9v0.8c0.3-0.4,1-1,1.9-1c0.9,0,1.4,0.5,1.5,1.1c0.3-0.5,1.1-1.1,1.9-1.1
		c1.1,0,1.6,0.6,1.6,1.8v4.2H96.9z"/>
	<path fill="#363636" d="M99.3,408.7c0-1.7,1.2-3,2.9-3c1.8,0,2.8,1.4,2.8,3.1v0.2h-4.7c0.1,1.1,0.8,2,2.1,2c0.7,0,1.3-0.3,1.8-0.7
		l0.4,0.6c-0.6,0.6-1.4,0.9-2.3,0.9C100.5,411.7,99.3,410.5,99.3,408.7z M102.2,406.4c-1.2,0-1.8,1-1.9,1.9h3.8
		C104.1,407.5,103.5,406.4,102.2,406.4z"/>
	<path fill="#363636" d="M110.3,411.6v-3.8c0-1-0.5-1.3-1.3-1.3c-0.7,0-1.4,0.4-1.7,0.9v4.2h-0.9v-5.8h0.9v0.8c0.4-0.5,1.2-1,2.1-1
		c1.2,0,1.8,0.6,1.8,1.9v4.1H110.3z"/>
	<path fill="#363636" d="M113.2,410.4v-3.8h-1v-0.8h1v-1.6h0.9v1.6h1.2v0.8h-1.2v3.6c0,0.4,0.2,0.7,0.6,0.7c0.3,0,0.5-0.1,0.6-0.3
		l0.3,0.7c-0.2,0.2-0.6,0.4-1.1,0.4C113.6,411.7,113.2,411.2,113.2,410.4z"/>
	<path fill="#363636" d="M116.1,410.8l0.5-0.6c0.4,0.4,1.1,0.8,1.9,0.8c0.9,0,1.4-0.4,1.4-1c0-1.4-3.6-0.5-3.6-2.7
		c0-0.9,0.8-1.7,2.1-1.7c1,0,1.7,0.4,2.1,0.8l-0.4,0.6c-0.3-0.4-1-0.7-1.7-0.7c-0.8,0-1.3,0.4-1.3,0.9c0,1.3,3.6,0.4,3.6,2.7
		c0,1-0.8,1.8-2.3,1.8C117.4,411.7,116.7,411.4,116.1,410.8z"/>
	<path fill="#363636" d="M126.1,410.7v3.1h-0.9v-8h0.9v0.9c0.4-0.6,1.1-1,2-1c1.5,0,2.6,1.2,2.6,3c0,1.9-1.1,3-2.6,3
		C127.3,411.7,126.6,411.3,126.1,410.7z M129.7,408.7c0-1.3-0.7-2.2-1.9-2.2c-0.7,0-1.4,0.4-1.7,0.9v2.6c0.3,0.5,1,0.9,1.7,0.9
		C129,410.9,129.7,410,129.7,408.7z"/>
	<path fill="#363636" d="M132.1,411.6v-5.8h0.9v0.9c0.5-0.6,1.1-1.1,1.9-1.1v0.9c-0.1,0-0.2,0-0.3,0c-0.6,0-1.3,0.5-1.6,0.9v4.1
		H132.1z"/>
	<path fill="#363636" d="M135.7,408.7c0-1.7,1.2-3,2.9-3c1.8,0,2.8,1.4,2.8,3.1v0.2h-4.7c0.1,1.1,0.8,2,2.1,2c0.7,0,1.3-0.3,1.8-0.7
		l0.4,0.6c-0.6,0.6-1.4,0.9-2.3,0.9C137,411.7,135.7,410.5,135.7,408.7z M138.6,406.4c-1.2,0-1.8,1-1.9,1.9h3.8
		C140.5,407.5,139.9,406.4,138.6,406.4z M138.5,404.9h-0.7l1.8-1.7h0.9L138.5,404.9z"/>
	<path fill="#363636" d="M144.4,411.6l-2.4-5.8h1l1.9,4.8l1.9-4.8h1l-2.4,5.8H144.4z"/>
	<path fill="#363636" d="M152.6,411.6v-0.8c-0.4,0.5-1.2,1-2.1,1c-1.2,0-1.8-0.6-1.8-1.8v-4.1h0.9v3.8c0,1,0.5,1.3,1.3,1.3
		c0.7,0,1.4-0.4,1.7-0.9v-4.3h0.9v5.8H152.6z"/>
	<path fill="#363636" d="M154.8,410.8l0.5-0.6c0.4,0.4,1.1,0.8,1.9,0.8c0.9,0,1.4-0.4,1.4-1c0-1.4-3.6-0.5-3.6-2.7
		c0-0.9,0.8-1.7,2.1-1.7c1,0,1.7,0.4,2.1,0.8l-0.4,0.6c-0.3-0.4-1-0.7-1.7-0.7c-0.8,0-1.3,0.4-1.3,0.9c0,1.3,3.6,0.4,3.6,2.7
		c0,1-0.8,1.8-2.3,1.8C156.2,411.7,155.4,411.4,154.8,410.8z"/>
	<path fill="#363636" d="M164.9,410.7v3.1H164v-8h0.9v0.9c0.4-0.6,1.1-1,2-1c1.5,0,2.6,1.2,2.6,3c0,1.9-1.1,3-2.6,3
		C166.1,411.7,165.4,411.3,164.9,410.7z M168.5,408.7c0-1.3-0.7-2.2-1.9-2.2c-0.7,0-1.4,0.4-1.7,0.9v2.6c0.3,0.5,1,0.9,1.7,0.9
		C167.8,410.9,168.5,410,168.5,408.7z"/>
	<path fill="#363636" d="M170.5,408.7c0-1.7,1.1-3,2.9-3s2.9,1.4,2.9,3s-1.1,3-2.9,3S170.5,410.4,170.5,408.7z M175.3,408.7
		c0-1.2-0.7-2.2-1.9-2.2s-1.9,1.1-1.9,2.2c0,1.2,0.7,2.2,1.9,2.2S175.3,409.9,175.3,408.7z"/>
	<path fill="#363636" d="M181.6,411.6v-0.8c-0.4,0.5-1.2,1-2.1,1c-1.2,0-1.8-0.6-1.8-1.8v-4.1h0.9v3.8c0,1,0.5,1.3,1.3,1.3
		c0.7,0,1.4-0.4,1.7-0.9v-4.3h0.9v5.8H181.6z"/>
	<path fill="#363636" d="M184.3,411.6v-5.8h0.9v0.9c0.5-0.6,1.1-1.1,1.9-1.1v0.9c-0.1,0-0.2,0-0.3,0c-0.6,0-1.3,0.5-1.6,0.9v4.1
		H184.3z"/>
	<path fill="#363636" d="M191.2,411.6v-0.8c2.9-2.3,4.4-3.6,4.4-5c0-1-0.9-1.5-1.7-1.5c-1,0-1.7,0.4-2.2,1l-0.6-0.6
		c0.6-0.8,1.7-1.3,2.8-1.3c1.3,0,2.7,0.8,2.7,2.4c0,1.6-1.7,3.1-3.9,4.9h3.9v0.9H191.2z"/>
	<path fill="#363636" d="M198.2,407.6c0-2,0.9-4.1,3.1-4.1c2.2,0,3.1,2.2,3.1,4.1c0,1.9-0.9,4.1-3.1,4.1
		C199,411.7,198.2,409.5,198.2,407.6z M203.3,407.6c0-1.6-0.5-3.2-2-3.2c-1.5,0-2,1.6-2,3.2c0,1.6,0.5,3.3,2,3.3
		C202.8,410.8,203.3,409.2,203.3,407.6z"/>
	<path fill="#363636" d="M207,411.6v-6.7l-1.3,1.4l-0.6-0.6l2-2.1h0.9v8H207z"/>
	<path fill="#363636" d="M209.6,407.6c0-2.2,1-4.1,3.3-4.1c1,0,1.7,0.4,2.2,1l-0.5,0.7c-0.4-0.5-0.9-0.8-1.7-0.8
		c-1.6,0-2.3,1.6-2.3,3.1c0,0.1,0,0.2,0,0.3c0.3-0.6,1.2-1.2,2.3-1.2c1.4,0,2.6,0.9,2.6,2.6c0,1.4-1.1,2.6-2.8,2.6
		C210.4,411.7,209.6,409.8,209.6,407.6z M214.5,409.2c0-1.2-0.8-1.7-1.8-1.7c-0.8,0-1.6,0.5-2,1.2c0.1,1,0.6,2.2,2,2.2
		C213.9,410.8,214.5,409.9,214.5,409.2z"/>
	<path fill="#363636" d="M217.2,413.1l-0.5-0.4c0.4-0.3,0.7-0.7,0.8-1.1c0,0-0.1,0-0.2,0c-0.3,0-0.6-0.3-0.6-0.6s0.3-0.6,0.6-0.6
		c0.4,0,0.8,0.3,0.8,0.9C218.2,412,217.8,412.7,217.2,413.1z"/>
	<path fill="#363636" d="M226.5,411.6v-0.7c-0.5,0.5-1.1,0.8-1.9,0.8c-1,0-2-0.7-2-1.9c0-1.3,1-1.9,2-1.9c0.8,0,1.5,0.3,1.9,0.8v-1
		c0-0.8-0.6-1.2-1.5-1.2c-0.7,0-1.3,0.2-1.8,0.8l-0.4-0.6c0.6-0.6,1.4-1,2.3-1c1.2,0,2.2,0.6,2.2,2v4H226.5z M226.5,410.4v-1.1
		c-0.3-0.5-1-0.7-1.6-0.7c-0.9,0-1.4,0.5-1.4,1.3c0,0.7,0.6,1.3,1.4,1.3C225.5,411.1,226.1,410.8,226.5,410.4z"/>
	<path fill="#363636" d="M233.1,411.6v-0.8c-0.4,0.5-1.2,1-2.1,1c-1.2,0-1.8-0.6-1.8-1.8v-4.1h0.9v3.8c0,1,0.5,1.3,1.3,1.3
		c0.7,0,1.4-0.4,1.7-0.9v-4.3h0.9v5.8H233.1z"/>
	<path fill="#363636" d="M242.8,411.6v-3.8c0-1-0.5-1.3-1.3-1.3c-0.7,0-1.4,0.4-1.7,0.9v4.2h-0.9v-5.8h0.9v0.8c0.4-0.5,1.2-1,2.1-1
		c1.2,0,1.8,0.6,1.8,1.9v4.1H242.8z"/>
	<path fill="#363636" d="M245.2,408.7c0-1.7,1.1-3,2.9-3s2.9,1.4,2.9,3s-1.1,3-2.9,3S245.2,410.4,245.2,408.7z M250,408.7
		c0-1.2-0.7-2.2-1.9-2.2s-1.9,1.1-1.9,2.2c0,1.2,0.7,2.2,1.9,2.2S250,409.9,250,408.7z"/>
	<path fill="#363636" d="M259.4,411.6v-3.9c0-0.7-0.3-1.2-1.1-1.2c-0.6,0-1.2,0.4-1.5,0.9v4.2h-0.9v-3.9c0-0.7-0.3-1.2-1.1-1.2
		c-0.6,0-1.2,0.4-1.5,0.9v4.2h-0.9v-5.8h0.9v0.8c0.3-0.4,1-1,1.9-1c0.9,0,1.4,0.5,1.5,1.1c0.3-0.5,1.1-1.1,1.9-1.1
		c1.1,0,1.6,0.6,1.6,1.8v4.2H259.4z"/>
	<path fill="#363636" d="M262.1,411.6v-8h0.9v3.1c0.5-0.6,1.2-1,2-1c1.5,0,2.6,1.2,2.6,3c0,1.9-1.1,3-2.6,3c-0.8,0-1.5-0.4-2-1v0.9
		H262.1z M264.7,410.9c1.2,0,1.9-0.9,1.9-2.2s-0.7-2.2-1.9-2.2c-0.7,0-1.4,0.4-1.7,0.9v2.6C263.3,410.5,264,410.9,264.7,410.9z"/>
	<path fill="#363636" d="M269,411.6v-5.8h0.9v0.9c0.5-0.6,1.1-1.1,1.9-1.1v0.9c-0.1,0-0.2,0-0.3,0c-0.6,0-1.3,0.5-1.6,0.9v4.1H269z"
		/>
	<path fill="#363636" d="M272.6,408.7c0-1.7,1.2-3,2.9-3c1.8,0,2.8,1.4,2.8,3.1v0.2h-4.7c0.1,1.1,0.8,2,2.1,2c0.7,0,1.3-0.3,1.8-0.7
		l0.4,0.6c-0.6,0.6-1.4,0.9-2.3,0.9C273.8,411.7,272.6,410.5,272.6,408.7z M275.4,406.4c-1.2,0-1.8,1-1.9,1.9h3.8
		C277.3,407.5,276.8,406.4,275.4,406.4z"/>
	<path fill="#363636" d="M287,411.6v-0.9c-0.4,0.6-1.1,1-2,1c-1.5,0-2.6-1.2-2.6-3c0-1.9,1.1-3,2.6-3c0.8,0,1.5,0.4,2,1v-3.1h0.9v8
		H287z M287,410v-2.6c-0.3-0.5-1-0.9-1.7-0.9c-1.2,0-1.9,1-1.9,2.2s0.7,2.2,1.9,2.2C286,410.9,286.7,410.5,287,410z"/>
	<path fill="#363636" d="M289.4,408.7c0-1.7,1.2-3,2.9-3c1.8,0,2.8,1.4,2.8,3.1v0.2h-4.7c0.1,1.1,0.8,2,2.1,2c0.7,0,1.3-0.3,1.8-0.7
		l0.4,0.6c-0.6,0.6-1.4,0.9-2.3,0.9C290.6,411.7,289.4,410.5,289.4,408.7z M292.2,406.4c-1.2,0-1.8,1-1.9,1.9h3.8
		C294.1,407.5,293.5,406.4,292.2,406.4z"/>
	<path fill="#363636" d="M296,410.8l0.5-0.6c0.4,0.4,1.1,0.8,1.9,0.8c0.9,0,1.4-0.4,1.4-1c0-1.4-3.6-0.5-3.6-2.7
		c0-0.9,0.8-1.7,2.1-1.7c1,0,1.7,0.4,2.1,0.8l-0.4,0.6c-0.3-0.4-1-0.7-1.7-0.7c-0.8,0-1.3,0.4-1.3,0.9c0,1.3,3.6,0.4,3.6,2.7
		c0,1-0.8,1.8-2.3,1.8C297.3,411.7,296.6,411.4,296,410.8z"/>
	<path fill="#363636" d="M301.7,408.7c0-1.9,1.1-3,2.6-3c0.8,0,1.5,0.4,2,1v-0.9h0.9v8h-0.9v-3.1c-0.5,0.6-1.2,1-2,1
		C302.7,411.7,301.7,410.6,301.7,408.7z M306.2,410v-2.6c-0.3-0.5-1-0.9-1.7-0.9c-1.2,0-1.9,0.9-1.9,2.2s0.7,2.2,1.9,2.2
		C305.2,410.9,305.9,410.5,306.2,410z"/>
	<path fill="#363636" d="M312.8,411.6v-0.8c-0.4,0.5-1.2,1-2.1,1c-1.2,0-1.8-0.6-1.8-1.8v-4.1h0.9v3.8c0,1,0.5,1.3,1.3,1.3
		c0.7,0,1.4-0.4,1.7-0.9v-4.3h0.9v5.8H312.8z"/>
	<path fill="#363636" d="M315.2,408.7c0-1.7,1.2-3,2.9-3c1.8,0,2.8,1.4,2.8,3.1v0.2h-4.7c0.1,1.1,0.8,2,2.1,2c0.7,0,1.3-0.3,1.8-0.7
		l0.4,0.6c-0.6,0.6-1.4,0.9-2.3,0.9C316.4,411.7,315.2,410.5,315.2,408.7z M318,406.4c-1.2,0-1.8,1-1.9,1.9h3.8
		C319.9,407.5,319.3,406.4,318,406.4z"/>
	<path fill="#363636" d="M322.3,411.6v-8h0.9v8H322.3z"/>
	<path fill="#363636" d="M324.5,410.8l0.5-0.6c0.4,0.4,1.1,0.8,1.9,0.8c0.9,0,1.4-0.4,1.4-1c0-1.4-3.6-0.5-3.6-2.7
		c0-0.9,0.8-1.7,2.1-1.7c1,0,1.7,0.4,2.1,0.8l-0.4,0.6c-0.3-0.4-1-0.7-1.7-0.7c-0.8,0-1.3,0.4-1.3,0.9c0,1.3,3.6,0.4,3.6,2.7
		c0,1-0.8,1.8-2.3,1.8C325.9,411.7,325.1,411.4,324.5,410.8z"/>
	<path fill="#363636" d="M333.6,410.5l0.6-0.7c0.5,0.7,1.2,1.1,2.2,1.1c1.1,0,1.8-0.7,1.8-1.7c0-1.1-0.8-1.7-1.8-1.7
		c-0.7,0-1.3,0.2-1.8,0.7l-0.7-0.3v-4.3h4.9v0.9h-3.9v2.8c0.4-0.4,1.1-0.7,1.9-0.7c1.3,0,2.6,0.9,2.6,2.6c0,1.6-1.2,2.6-2.9,2.6
		C335,411.7,334.2,411.2,333.6,410.5z"/>
	<path fill="#363636" d="M340.5,411.6v-0.8c2.9-2.3,4.4-3.6,4.4-5c0-1-0.9-1.5-1.7-1.5c-1,0-1.7,0.4-2.2,1l-0.6-0.6
		c0.6-0.8,1.7-1.3,2.8-1.3c1.3,0,2.7,0.8,2.7,2.4c0,1.6-1.7,3.1-3.9,4.9h3.9v0.9H340.5z"/>
	<path fill="#363636" d="M348,413.1l-0.5-0.4c0.4-0.3,0.7-0.7,0.8-1.1c0,0-0.1,0-0.2,0c-0.3,0-0.6-0.3-0.6-0.6s0.3-0.6,0.6-0.6
		c0.4,0,0.8,0.3,0.8,0.9C349,412,348.6,412.7,348,413.1z"/>
	<path fill="#363636" d="M350.3,407.6c0-2.2,1-4.1,3.3-4.1c1,0,1.7,0.4,2.2,1l-0.5,0.7c-0.4-0.5-0.9-0.8-1.7-0.8
		c-1.6,0-2.3,1.6-2.3,3.1c0,0.1,0,0.2,0,0.3c0.3-0.6,1.2-1.2,2.3-1.2c1.4,0,2.6,0.9,2.6,2.6c0,1.4-1.1,2.6-2.8,2.6
		C351.1,411.7,350.3,409.8,350.3,407.6z M355.1,409.2c0-1.2-0.8-1.7-1.8-1.7c-0.8,0-1.6,0.5-2,1.2c0.1,1,0.6,2.2,2,2.2
		C354.5,410.8,355.1,409.9,355.1,409.2z"/>
	<path fill="#363636" d="M367.7,411.6v-3.9c0-0.7-0.3-1.2-1.1-1.2c-0.6,0-1.2,0.4-1.5,0.9v4.2h-0.9v-3.9c0-0.7-0.3-1.2-1.1-1.2
		c-0.6,0-1.2,0.4-1.5,0.9v4.2h-0.9v-5.8h0.9v0.8c0.3-0.4,1-1,1.9-1c0.9,0,1.4,0.5,1.5,1.1c0.3-0.5,1.1-1.1,1.9-1.1
		c1.1,0,1.6,0.6,1.6,1.8v4.2H367.7z"/>
	<path fill="#363636" d="M370.3,404.4c0-0.3,0.3-0.6,0.6-0.6s0.6,0.3,0.6,0.6s-0.3,0.6-0.6,0.6S370.3,404.7,370.3,404.4z
		 M370.4,411.6v-5.8h0.9v5.8H370.4z"/>
	<path fill="#363636" d="M373.1,411.6v-8h0.9v8H373.1z"/>
	<path fill="#363636" d="M375.8,411.6v-8h0.9v8H375.8z"/>
	<path fill="#363636" d="M378.4,404.4c0-0.3,0.3-0.6,0.6-0.6s0.6,0.3,0.6,0.6s-0.3,0.6-0.6,0.6S378.4,404.7,378.4,404.4z
		 M378.5,411.6v-5.8h0.9v5.8H378.5z"/>
	<path fill="#363636" d="M380.9,408.7c0-1.7,1.1-3,2.9-3c1.8,0,2.9,1.4,2.9,3s-1.1,3-2.9,3C382,411.7,380.9,410.4,380.9,408.7z
		 M385.7,408.7c0-1.2-0.7-2.2-1.9-2.2c-1.2,0-1.9,1.1-1.9,2.2c0,1.2,0.7,2.2,1.9,2.2C385,410.9,385.7,409.9,385.7,408.7z"/>
	<path fill="#363636" d="M392,411.6v-3.8c0-1-0.5-1.3-1.3-1.3c-0.7,0-1.4,0.4-1.7,0.9v4.2h-0.9v-5.8h0.9v0.8c0.4-0.5,1.2-1,2.1-1
		c1.2,0,1.8,0.6,1.8,1.9v4.1H392z"/>
	<path fill="#363636" d="M394.2,410.8l0.5-0.6c0.4,0.4,1.1,0.8,1.9,0.8c0.9,0,1.4-0.4,1.4-1c0-1.4-3.6-0.5-3.6-2.7
		c0-0.9,0.8-1.7,2.1-1.7c1,0,1.7,0.4,2.1,0.8l-0.4,0.6c-0.3-0.4-1-0.7-1.7-0.7c-0.8,0-1.3,0.4-1.3,0.9c0,1.3,3.6,0.4,3.6,2.7
		c0,1-0.8,1.8-2.3,1.8C395.6,411.7,394.8,411.4,394.2,410.8z"/>
	<path fill="#363636" d="M403.1,408.7c0-1.7,1.1-3,2.9-3c1.8,0,2.9,1.4,2.9,3s-1.1,3-2.9,3C404.2,411.7,403.1,410.4,403.1,408.7z
		 M407.9,408.7c0-1.2-0.7-2.2-1.9-2.2c-1.2,0-1.9,1.1-1.9,2.2c0,1.2,0.7,2.2,1.9,2.2C407.2,410.9,407.9,409.9,407.9,408.7z"/>
	<path fill="#363636" d="M414.2,411.6v-3.8c0-1-0.5-1.3-1.3-1.3c-0.7,0-1.4,0.4-1.7,0.9v4.2h-0.9v-5.8h0.9v0.8c0.4-0.5,1.2-1,2.1-1
		c1.2,0,1.8,0.6,1.8,1.9v4.1H414.2z"/>
	<path fill="#363636" d="M417.1,410.4v-3.8h-1v-0.8h1v-1.6h0.9v1.6h1.2v0.8H418v3.6c0,0.4,0.2,0.7,0.6,0.7c0.3,0,0.5-0.1,0.6-0.3
		l0.3,0.7c-0.2,0.2-0.6,0.4-1.1,0.4C417.5,411.7,417.1,411.2,417.1,410.4z"/>
	<path fill="#363636" d="M427.2,411.6v-0.7c-0.5,0.5-1.1,0.8-1.9,0.8c-1,0-2-0.7-2-1.9c0-1.3,1-1.9,2-1.9c0.8,0,1.5,0.3,1.9,0.8v-1
		c0-0.8-0.6-1.2-1.5-1.2c-0.7,0-1.3,0.2-1.8,0.8l-0.4-0.6c0.6-0.6,1.4-1,2.3-1c1.2,0,2.2,0.6,2.2,2v4H427.2z M425.9,404.9l-2-1.7
		h0.9l1.8,1.7H425.9z M427.2,410.4v-1.1c-0.3-0.5-1-0.7-1.6-0.7c-0.9,0-1.4,0.5-1.4,1.3c0,0.7,0.6,1.3,1.4,1.3
		C426.2,411.1,426.8,410.8,427.2,410.4z"/>
	<path fill="#363636" d="M432.7,408.7c0-1.7,1.2-3,2.9-3c1.1,0,1.7,0.4,2.1,1l-0.6,0.5c-0.4-0.5-0.9-0.7-1.5-0.7c-1.2,0-2,0.9-2,2.2
		s0.8,2.2,2,2.2c0.6,0,1.1-0.2,1.5-0.8l0.6,0.6c-0.4,0.6-1.1,1-2.1,1C433.8,411.7,432.7,410.4,432.7,408.7z"/>
	<path fill="#363636" d="M438.6,408.7c0-1.7,1.2-3,2.9-3c1.8,0,2.8,1.4,2.8,3.1v0.2h-4.7c0.1,1.1,0.8,2,2.1,2c0.7,0,1.3-0.3,1.8-0.7
		l0.4,0.6c-0.6,0.6-1.4,0.9-2.3,0.9C439.8,411.7,438.6,410.5,438.6,408.7z M441.5,406.4c-1.2,0-1.8,1-1.9,1.9h3.8
		C443.3,407.5,442.8,406.4,441.5,406.4z"/>
	<path fill="#363636" d="M446.7,413.5l0.3-0.7c0.2,0.2,0.5,0.4,0.8,0.4c0.5,0,0.9-0.3,0.9-1v-6.4h0.9v6.4c0,1.1-0.6,1.8-1.7,1.8
		C447.4,413.9,447.1,413.8,446.7,413.5z M448.7,404.4c0-0.3,0.3-0.6,0.6-0.6s0.6,0.3,0.6,0.6s-0.3,0.6-0.6,0.6
		S448.7,404.7,448.7,404.4z"/>
	<path fill="#363636" d="M451.2,408.7c0-1.7,1.1-3,2.9-3s2.9,1.4,2.9,3s-1.1,3-2.9,3S451.2,410.4,451.2,408.7z M456,408.7
		c0-1.2-0.7-2.2-1.9-2.2c-1.2,0-1.9,1.1-1.9,2.2c0,1.2,0.7,2.2,1.9,2.2C455.3,410.9,456,409.9,456,408.7z"/>
	<path fill="#363636" d="M462.3,411.6v-0.8c-0.4,0.5-1.2,1-2.1,1c-1.2,0-1.8-0.6-1.8-1.8v-4.1h0.9v3.8c0,1,0.5,1.3,1.3,1.3
		c0.7,0,1.4-0.4,1.7-0.9v-4.3h0.9v5.8H462.3z"/>
	<path fill="#363636" d="M465,411.6v-5.8h0.9v0.9c0.5-0.6,1.1-1.1,1.9-1.1v0.9c-0.1,0-0.2,0-0.3,0c-0.6,0-1.3,0.5-1.6,0.9v4.1H465z"
		/>
	<path fill="#363636" d="M471.7,408.7c0-1.7,1.2-3,2.9-3c1.8,0,2.8,1.4,2.8,3.1v0.2h-4.7c0.1,1.1,0.8,2,2.1,2c0.7,0,1.3-0.3,1.8-0.7
		l0.4,0.6c-0.6,0.6-1.4,0.9-2.3,0.9C473,411.7,471.7,410.5,471.7,408.7z M474.6,406.4c-1.2,0-1.8,1-1.9,1.9h3.8
		C476.5,407.5,475.9,406.4,474.6,406.4z M474.5,404.9h-0.7l1.8-1.7h0.9L474.5,404.9z"/>
	<path fill="#363636" d="M479,410.4v-3.8h-1v-0.8h1v-1.6h0.9v1.6h1.2v0.8h-1.2v3.6c0,0.4,0.2,0.7,0.6,0.7c0.3,0,0.5-0.1,0.6-0.3
		l0.3,0.7c-0.2,0.2-0.6,0.4-1.1,0.4C479.4,411.7,479,411.2,479,410.4z"/>
	<path fill="#363636" d="M482,408.7c0-1.7,1.2-3,2.9-3c1.8,0,2.8,1.4,2.8,3.1v0.2H483c0.1,1.1,0.8,2,2.1,2c0.7,0,1.3-0.3,1.8-0.7
		l0.4,0.6c-0.6,0.6-1.4,0.9-2.3,0.9C483.2,411.7,482,410.5,482,408.7z M484.8,406.4c-1.2,0-1.8,1-1.9,1.9h3.8
		C486.7,407.5,486.2,406.4,484.8,406.4z M484.8,404.9h-0.7l1.8-1.7h0.9L484.8,404.9z"/>
	<path fill="#363636" d="M491.9,408.7c0-1.7,1.2-3,2.9-3c1.8,0,2.8,1.4,2.8,3.1v0.2h-4.7c0.1,1.1,0.8,2,2.1,2c0.7,0,1.3-0.3,1.8-0.7
		l0.4,0.6c-0.6,0.6-1.4,0.9-2.3,0.9C493.1,411.7,491.9,410.5,491.9,408.7z M494.7,406.4c-1.2,0-1.8,1-1.9,1.9h3.8
		C496.6,407.5,496,406.4,494.7,406.4z"/>
	<path fill="#363636" d="M502.7,411.6l-1.8-2.4l-1.7,2.4h-1l2.2-3l-2.1-2.8h1l1.6,2.2l1.6-2.2h1l-2.1,2.8l2.2,3H502.7z"/>
	<path fill="#363636" d="M505.7,410.7v3.1h-0.9v-8h0.9v0.9c0.4-0.6,1.1-1,2-1c1.5,0,2.6,1.2,2.6,3c0,1.9-1.1,3-2.6,3
		C506.9,411.7,506.2,411.3,505.7,410.7z M509.3,408.7c0-1.3-0.7-2.2-1.9-2.2c-0.7,0-1.4,0.4-1.7,0.9v2.6c0.3,0.5,1,0.9,1.7,0.9
		C508.6,410.9,509.3,410,509.3,408.7z"/>
	<path fill="#363636" d="M511.3,408.7c0-1.7,1.2-3,2.9-3c1.8,0,2.8,1.4,2.8,3.1v0.2h-4.7c0.1,1.1,0.8,2,2.1,2c0.7,0,1.3-0.3,1.8-0.7
		l0.4,0.6c-0.6,0.6-1.4,0.9-2.3,0.9C512.6,411.7,511.3,410.5,511.3,408.7z M514.2,406.4c-1.2,0-1.8,1-1.9,1.9h3.8
		C516.1,407.5,515.5,406.4,514.2,406.4z M514.1,404.9h-0.7l1.8-1.7h0.9L514.1,404.9z"/>
	<path fill="#363636" d="M522.6,411.6v-0.9c-0.4,0.6-1.1,1-2,1c-1.5,0-2.6-1.2-2.6-3c0-1.9,1.1-3,2.6-3c0.8,0,1.5,0.4,2,1v-3.1h0.9
		v8H522.6z M522.6,410v-2.6c-0.3-0.5-1-0.9-1.7-0.9c-1.2,0-1.9,1-1.9,2.2s0.7,2.2,1.9,2.2C521.6,410.9,522.3,410.5,522.6,410z"/>
	<path fill="#363636" d="M525.2,404.4c0-0.3,0.3-0.6,0.6-0.6s0.6,0.3,0.6,0.6s-0.3,0.6-0.6,0.6S525.2,404.7,525.2,404.4z
		 M525.3,411.6v-5.8h0.9v5.8H525.3z"/>
	<path fill="#363636" d="M527.7,408.7c0-1.7,1.2-3,2.9-3c1.8,0,2.8,1.4,2.8,3.1v0.2h-4.7c0.1,1.1,0.8,2,2.1,2c0.7,0,1.3-0.3,1.8-0.7
		l0.4,0.6c-0.6,0.6-1.4,0.9-2.3,0.9C528.9,411.7,527.7,410.5,527.7,408.7z M530.5,406.4c-1.2,0-1.8,1-1.9,1.9h3.8
		C532.4,407.5,531.8,406.4,530.5,406.4z M530.4,404.9h-0.7l1.8-1.7h0.9L530.4,404.9z"/>
	<path fill="#363636" d="M534.3,410.8l0.5-0.6c0.4,0.4,1.1,0.8,1.9,0.8c0.9,0,1.4-0.4,1.4-1c0-1.4-3.6-0.5-3.6-2.7
		c0-0.9,0.8-1.7,2.1-1.7c1,0,1.7,0.4,2.1,0.8l-0.4,0.6c-0.3-0.4-1-0.7-1.7-0.7c-0.8,0-1.3,0.4-1.3,0.9c0,1.3,3.6,0.4,3.6,2.7
		c0,1-0.8,1.8-2.3,1.8C535.7,411.7,534.9,411.4,534.3,410.8z"/>
	<path fill="#363636" d="M540.2,411c0-0.4,0.3-0.7,0.7-0.7s0.7,0.3,0.7,0.7c0,0.4-0.3,0.7-0.7,0.7S540.2,411.4,540.2,411z"/>
</g>
</svg>
