<?xml version="1.0" encoding="utf-8"?>
<!-- Generator: Adobe Illustrator 19.0.0, SVG Export Plug-In . SVG Version: 6.00 Build 0)  -->
<svg version="1.1" id="Layer_1" xmlns="http://www.w3.org/2000/svg" xmlns:xlink="http://www.w3.org/1999/xlink" x="0px" y="0px"
	 viewBox="0 0 220 170.5" style="enable-background:new 0 0 220 170.5;" xml:space="preserve">
<style type="text/css">
	.st0{fill:#008590;}
	.st1{fill:#FFFFFF;}
</style>
<rect x="0" class="st0" width="220" height="170.5"/>
<g>
	<path class="st1" d="M15.5,19.4c0-2.1,1.6-3.4,3.6-3.4c1.6,0,2.5,0.9,2.9,1.8l-1.5,0.7c-0.2-0.5-0.8-1-1.4-1
		c-1.1,0-1.9,0.8-1.9,1.9c0,1.1,0.8,1.9,1.9,1.9c0.6,0,1.2-0.4,1.4-1l1.5,0.7c-0.4,0.8-1.3,1.8-2.9,1.8C17,22.9,15.5,21.5,15.5,19.4
		z"/>
	<path class="st1" d="M27.2,22.7l-0.3-1h-2.6l-0.3,1h-1.9l2.5-6.7h2.2l2.5,6.7H27.2z M25.5,17.8l-0.8,2.5h1.7L25.5,17.8z"/>
	<path class="st1" d="M33.3,22.7l-1.1-2.2h-0.9v2.2h-1.7v-6.7H33c1.5,0,2.3,1,2.3,2.2c0,1.2-0.7,1.8-1.3,2l1.4,2.4H33.3z M33.5,18.3
		c0-0.5-0.4-0.7-0.8-0.7h-1.4V19h1.4C33.2,19,33.5,18.7,33.5,18.3z"/>
	<path class="st1" d="M35.9,19.4c0-2.1,1.6-3.4,3.6-3.4c1.5,0,2.4,0.8,2.8,1.6l-1.4,0.7c-0.2-0.4-0.8-0.8-1.4-0.8
		c-1.1,0-1.9,0.8-1.9,1.9c0,1.1,0.8,1.9,1.9,1.9c0.5,0,1-0.2,1.2-0.4v-0.5h-1.5v-1.5h3.2v2.6c-0.7,0.8-1.7,1.3-2.9,1.3
		C37.5,22.9,35.9,21.5,35.9,19.4z"/>
	<path class="st1" d="M47.9,22.7l-0.3-1h-2.6l-0.3,1h-1.9l2.5-6.7h2.2l2.5,6.7H47.9z M46.3,17.8l-0.8,2.5h1.7L46.3,17.8z"/>
	<path class="st1" d="M50.1,18.8c0-0.5,0.4-0.9,0.9-0.9s0.9,0.4,0.9,0.9s-0.4,0.9-0.9,0.9S50.1,19.3,50.1,18.8z M50.1,21.9
		c0-0.5,0.4-0.9,0.9-0.9s0.9,0.4,0.9,0.9c0,0.5-0.4,0.9-0.9,0.9S50.1,22.4,50.1,21.9z"/>
	<path class="st1" d="M16.6,84.5L24.4,74c4.4,4.2,11,6.2,16.2,6.2c6.6,0,10-2.5,10-5.8c0-3.4-2.5-5.1-10.6-5.1c-2.6,0-7.1,0.1-8,0.2
		V56c1.2,0.1,5.8,0.1,8,0.1c6.1,0,9.6-1.5,9.6-4.6c0-3.7-4.3-5.4-10-5.4c-5.4,0-10.6,2-14.8,5.7l-7.4-9.6c5.1-5.6,12.8-9.6,23.8-9.6
		c15.1,0,23.6,6.5,23.6,16.3c0,6.9-6,12.2-13,13.4c6.3,0.6,14,5.5,14,14.1c0,10.4-9.8,17.6-24.6,17.6C29.8,93.8,21.4,89.8,16.6,84.5
		z"/>
	<path class="st1" d="M75.1,105.4l-5.7-4.6c2.8-1.4,6.6-5.3,7.6-8.5c-0.4,0.1-1.2,0.3-2,0.3c-3.8,0-6.9-2.9-6.9-7.3
		c0-4.5,3.7-8.2,8.2-8.2c4.8,0,9.1,3.7,9.1,10.2C85.3,94.6,81.3,101,75.1,105.4z"/>
	<path class="st1" d="M87.1,92.7V80.8c25.7-18.6,30.5-22.7,30.5-28.7c0-4-3.8-6.1-8.2-6.1c-6.6,0-11.6,2.5-15.8,6.5l-8.5-10.1
		c6.3-6.9,15.8-9.9,24-9.9c14,0,24,7.8,24,19.7c0,9.2-6.5,16.9-21.3,27.2h21.7v13.4H87.1z"/>
	<path class="st1" d="M193.7,92.7V66.6c0-3.3-1.6-5.8-5.7-5.8c-3.7,0-6.4,2.4-7.7,4.2v27.8h-13.7V66.6c0-3.3-1.5-5.8-5.6-5.8
		c-3.7,0-6.3,2.4-7.7,4.2v27.8h-13.7v-43h13.7V55c1.9-2.5,7.4-6.3,14.2-6.3c6.2,0,10.4,2.6,12.2,7.7c2.5-3.7,8.1-7.7,14.9-7.7
		c7.9,0,12.9,4.1,12.9,12.9v31.2H193.7z"/>
	<path class="st1" d="M19,116.7v4.3h-2.8v-12H19v1c0.7-0.8,1.6-1.2,2.6-1.2c2.2,0,3.8,1.6,3.8,4.6c0,3-1.6,4.6-3.8,4.6
		C20.6,117.9,19.7,117.6,19,116.7z M22.6,113.4c0-1.3-0.8-2.1-1.9-2.1c-0.6,0-1.3,0.3-1.7,0.8v2.6c0.3,0.4,1.1,0.8,1.7,0.8
		C21.7,115.5,22.6,114.7,22.6,113.4z"/>
	<path class="st1" d="M26.3,113.4c0-2.5,1.9-4.6,4.6-4.6c2.6,0,4.4,1.9,4.4,4.8v0.6h-6.2c0.2,0.8,0.9,1.4,2.2,1.4
		c0.6,0,1.6-0.3,2.1-0.7l1.2,1.8c-0.9,0.8-2.3,1.2-3.6,1.2C28.3,117.9,26.3,116.2,26.3,113.4z M30.9,111.1c-1.2,0-1.7,0.7-1.8,1.4
		h3.6C32.6,111.8,32.1,111.1,30.9,111.1z"/>
	<path class="st1" d="M35.9,116.6l1.2-2c0.6,0.6,2,1.2,3.1,1.2c0.8,0,1.2-0.2,1.2-0.6c0-1.1-5.1,0-5.1-3.5c0-1.5,1.3-2.9,3.7-2.9
		c1.5,0,2.7,0.5,3.6,1.2l-1.1,2c-0.5-0.5-1.5-1-2.6-1c-0.6,0-1.1,0.3-1.1,0.6c0,1,5,0,5,3.5c0,1.7-1.5,2.8-3.9,2.8
		C38.5,117.9,36.9,117.4,35.9,116.6z"/>
	<path class="st1" d="M44.7,116.6l1.2-2c0.6,0.6,2,1.2,3.1,1.2c0.8,0,1.2-0.2,1.2-0.6c0-1.1-5.1,0-5.1-3.5c0-1.5,1.3-2.9,3.7-2.9
		c1.5,0,2.7,0.5,3.6,1.2l-1.1,2c-0.5-0.5-1.5-1-2.6-1c-0.6,0-1.1,0.3-1.1,0.6c0,1,5,0,5,3.5c0,1.7-1.5,2.8-3.9,2.8
		C47.2,117.9,45.6,117.4,44.7,116.6z"/>
	<path class="st1" d="M53.5,113.4c0-2.4,1.8-4.6,4.7-4.6c3,0,4.8,2.1,4.8,4.6c0,2.4-1.8,4.6-4.8,4.6
		C55.3,117.9,53.5,115.8,53.5,113.4z M60.2,113.4c0-1.2-0.7-2.1-1.9-2.1c-1.2,0-1.9,1-1.9,2.1c0,1.2,0.7,2.1,1.9,2.1
		C59.5,115.5,60.2,114.5,60.2,113.4z"/>
	<path class="st1" d="M69.6,117.7v-0.9c-0.5,0.6-1.6,1.1-2.7,1.1c-1.3,0-3-0.9-3-2.9c0-2.1,1.7-2.8,3-2.8c1.2,0,2.2,0.4,2.7,1v-0.9
		c0-0.8-0.6-1.3-1.8-1.3c-0.9,0-1.7,0.3-2.4,0.9l-1-1.9c1.1-1,2.6-1.4,3.9-1.4c2.1,0,4.1,0.8,4.1,3.5v5.4H69.6z M69.6,115.5v-0.8
		c-0.3-0.4-0.9-0.6-1.5-0.6c-0.7,0-1.4,0.3-1.4,1c0,0.7,0.7,1,1.4,1C68.7,116.1,69.3,115.9,69.6,115.5z"/>
	<path class="st1" d="M73.7,116.6l1.2-2c0.6,0.6,2,1.2,3.1,1.2c0.8,0,1.2-0.2,1.2-0.6c0-1.1-5.1,0-5.1-3.5c0-1.5,1.3-2.9,3.7-2.9
		c1.5,0,2.7,0.5,3.6,1.2l-1.1,2c-0.5-0.5-1.5-1-2.6-1c-0.6,0-1.1,0.3-1.1,0.6c0,1,5,0,5,3.5c0,1.7-1.5,2.8-3.9,2.8
		C76.2,117.9,74.6,117.4,73.7,116.6z"/>
	<path class="st1" d="M87.1,113.4c0-2.9,1.6-4.6,3.8-4.6c1,0,1.9,0.4,2.6,1.2v-1h2.8v12h-2.8v-4.3c-0.7,0.9-1.6,1.2-2.6,1.2
		C88.8,117.9,87.1,116.3,87.1,113.4z M93.5,114.7v-2.6c-0.3-0.5-1.1-0.8-1.6-0.8c-1.1,0-1.9,0.8-1.9,2.1c0,1.3,0.8,2.1,1.9,2.1
		C92.5,115.5,93.2,115.2,93.5,114.7z"/>
	<path class="st1" d="M104.2,117.7v-1c-0.5,0.6-1.5,1.3-3,1.3c-2,0-2.9-1.1-2.9-2.7V109h2.8v5c0,1.1,0.5,1.4,1.4,1.4
		c0.8,0,1.3-0.4,1.7-0.8V109h2.8v8.7H104.2z"/>
	<path class="st1" d="M108.4,113.4c0-2.5,1.9-4.6,4.6-4.6c2.6,0,4.4,1.9,4.4,4.8v0.6h-6.2c0.2,0.8,0.9,1.4,2.2,1.4
		c0.6,0,1.6-0.3,2.1-0.7l1.2,1.8c-0.9,0.8-2.3,1.2-3.6,1.2C110.5,117.9,108.4,116.2,108.4,113.4z M113,111.1c-1.2,0-1.7,0.7-1.8,1.4
		h3.6C114.8,111.8,114.3,111.1,113,111.1z"/>
	<path class="st1" d="M126.2,116.7v4.3h-2.8v-12h2.8v1c0.7-0.8,1.6-1.2,2.6-1.2c2.2,0,3.8,1.6,3.8,4.6c0,3-1.6,4.6-3.8,4.6
		C127.8,117.9,126.9,117.6,126.2,116.7z M129.8,113.4c0-1.3-0.8-2.1-1.9-2.1c-0.6,0-1.3,0.3-1.7,0.8v2.6c0.3,0.4,1.1,0.8,1.7,0.8
		C129,115.5,129.8,114.7,129.8,113.4z"/>
	<path class="st1" d="M134,117.7V109h2.8v1.1c0.6-0.7,1.7-1.3,2.7-1.3v2.7c-0.2-0.1-0.4-0.1-0.7-0.1c-0.7,0-1.7,0.3-2,0.8v5.5H134z"
		/>
	<path class="st1" d="M140.2,113.4c0-2.5,1.9-4.6,4.6-4.6c2.6,0,4.4,1.9,4.4,4.8v0.6h-6.2c0.2,0.8,0.9,1.4,2.2,1.4
		c0.6,0,1.6-0.3,2.1-0.7l1.2,1.8c-0.9,0.8-2.3,1.2-3.6,1.2C142.3,117.9,140.2,116.2,140.2,113.4z M144.8,111.1
		c-1.2,0-1.7,0.7-1.8,1.4h3.6C146.6,111.8,146.1,111.1,144.8,111.1z"/>
	<path class="st1" d="M150.1,113.4c0-2.7,2-4.6,4.7-4.6c1.9,0,3,0.8,3.6,1.6l-1.8,1.7c-0.3-0.5-0.9-0.8-1.6-0.8c-1.2,0-2,0.8-2,2.1
		s0.9,2.1,2,2.1c0.7,0,1.3-0.4,1.6-0.8l1.8,1.7c-0.5,0.8-1.7,1.6-3.6,1.6C152.1,117.9,150.1,116.1,150.1,113.4z"/>
	<path class="st1" d="M159.5,106.7c0-0.9,0.7-1.6,1.6-1.6c0.9,0,1.6,0.7,1.6,1.6c0,0.9-0.7,1.6-1.6,1.6
		C160.2,108.3,159.5,107.5,159.5,106.7z M159.7,117.7V109h2.8v8.7H159.7z"/>
	<path class="st1" d="M163.7,116.6l1.2-2c0.6,0.6,2,1.2,3.1,1.2c0.8,0,1.2-0.2,1.2-0.6c0-1.1-5.1,0-5.1-3.5c0-1.5,1.3-2.9,3.7-2.9
		c1.5,0,2.7,0.5,3.6,1.2l-1.1,2c-0.5-0.5-1.5-1-2.6-1c-0.6,0-1.1,0.3-1.1,0.6c0,1,5,0,5,3.5c0,1.7-1.5,2.8-3.9,2.8
		C166.2,117.9,164.6,117.4,163.7,116.6z"/>
	<path class="st1" d="M178.3,117.7v-0.9c-0.5,0.6-1.6,1.1-2.7,1.1c-1.3,0-3-0.9-3-2.9c0-2.1,1.7-2.8,3-2.8c1.2,0,2.2,0.4,2.7,1v-0.9
		c0-0.8-0.6-1.3-1.8-1.3c-0.9,0-1.7,0.3-2.4,0.9l-1-1.9c1.1-1,2.6-1.4,3.9-1.4c2.1,0,4.1,0.8,4.1,3.5v5.4H178.3z M178.3,115.5v-0.8
		c-0.3-0.4-0.9-0.6-1.5-0.6c-0.7,0-1.4,0.3-1.4,1c0,0.7,0.7,1,1.4,1C177.4,116.1,178,115.9,178.3,115.5z"/>
	<path class="st1" d="M194,117.7v-5.3c0-0.7-0.3-1.2-1.2-1.2c-0.8,0-1.3,0.5-1.6,0.8v5.6h-2.8v-5.3c0-0.7-0.3-1.2-1.1-1.2
		c-0.8,0-1.3,0.5-1.6,0.8v5.6h-2.8V109h2.8v1.1c0.4-0.5,1.5-1.3,2.9-1.3c1.3,0,2.1,0.5,2.5,1.5c0.5-0.8,1.6-1.5,3-1.5
		c1.6,0,2.6,0.8,2.6,2.6v6.3H194z"/>
	<path class="st1" d="M22.1,136.7v-1c-0.7,0.8-1.6,1.2-2.6,1.2c-2.1,0-3.8-1.6-3.8-4.6c0-2.8,1.7-4.6,3.8-4.6c1,0,1.9,0.4,2.6,1.2
		v-4.3h2.8v12H22.1z M22.1,133.7V131c-0.4-0.5-1.1-0.8-1.7-0.8c-1.1,0-1.9,0.8-1.9,2.1c0,1.3,0.8,2.1,1.9,2.1
		C21,134.5,21.7,134.2,22.1,133.7z"/>
	<path class="st1" d="M26.3,132.4c0-2.5,1.9-4.6,4.6-4.6c2.6,0,4.4,1.9,4.4,4.8v0.6h-6.2c0.2,0.8,0.9,1.4,2.2,1.4
		c0.6,0,1.6-0.3,2.1-0.7l1.2,1.8c-0.9,0.8-2.3,1.2-3.6,1.2C28.4,136.9,26.3,135.2,26.3,132.4z M30.9,130.1c-1.2,0-1.7,0.7-1.8,1.4
		h3.6C32.6,130.8,32.2,130.1,30.9,130.1z"/>
	<path class="st1" d="M40.8,132.4c0-2.7,2-4.6,4.7-4.6c1.9,0,3,0.8,3.6,1.6l-1.8,1.7c-0.3-0.5-0.9-0.8-1.6-0.8c-1.2,0-2,0.8-2,2.1
		s0.9,2.1,2,2.1c0.7,0,1.3-0.4,1.6-0.8l1.8,1.7c-0.5,0.8-1.7,1.6-3.6,1.6C42.8,136.9,40.8,135.1,40.8,132.4z"/>
	<path class="st1" d="M50.1,125.7c0-0.9,0.7-1.6,1.6-1.6c0.9,0,1.6,0.7,1.6,1.6c0,0.9-0.7,1.6-1.6,1.6
		C50.8,127.3,50.1,126.5,50.1,125.7z M50.3,136.7V128h2.8v8.7H50.3z"/>
	<path class="st1" d="M55.1,136.7V128h2.8v1.1c0.6-0.7,1.7-1.3,2.7-1.3v2.7c-0.2-0.1-0.4-0.1-0.7-0.1c-0.7,0-1.7,0.3-2,0.8v5.5H55.1
		z"/>
	<path class="st1" d="M67.7,136.7v-1c-0.5,0.6-1.5,1.3-3,1.3c-2,0-2.9-1.1-2.9-2.7V128h2.8v5c0,1.1,0.5,1.4,1.4,1.4
		c0.8,0,1.3-0.4,1.7-0.8V128h2.8v8.7H67.7z"/>
	<path class="st1" d="M72.5,136.7V128h2.8v1.1c0.6-0.7,1.7-1.3,2.7-1.3v2.7c-0.2-0.1-0.4-0.1-0.7-0.1c-0.7,0-1.7,0.3-2,0.8v5.5H72.5
		z"/>
	<path class="st1" d="M79,139l1.2-1.9c0.7,0.7,1.6,1,2.6,1c0.9,0,2.2-0.4,2.2-2.1v-0.7c-0.7,0.9-1.6,1.3-2.6,1.3
		c-2.1,0-3.8-1.5-3.8-4.4c0-2.9,1.6-4.4,3.8-4.4c1,0,1.9,0.4,2.6,1.2v-1h2.8v7.9c0,3.5-2.8,4.3-5,4.3C81.4,140.3,80.2,139.9,79,139z
		 M85.1,133.4V131c-0.3-0.5-1.1-0.8-1.7-0.8c-1.1,0-1.9,0.7-1.9,1.9c0,1.3,0.8,1.9,1.9,1.9C84,134.1,84.8,133.8,85.1,133.4z"/>
	<path class="st1" d="M89.7,125.7c0-0.9,0.7-1.6,1.6-1.6s1.6,0.7,1.6,1.6c0,0.9-0.7,1.6-1.6,1.6S89.7,126.5,89.7,125.7z M89.9,136.7
		V128h2.8v8.7H89.9z"/>
	<path class="st1" d="M99.8,136.7v-0.9c-0.5,0.6-1.6,1.1-2.7,1.1c-1.3,0-3-0.9-3-2.9c0-2.1,1.7-2.8,3-2.8c1.2,0,2.2,0.4,2.7,1v-0.9
		c0-0.8-0.6-1.3-1.8-1.3c-0.9,0-1.7,0.3-2.4,0.9l-1-1.9c1.1-1,2.6-1.4,3.9-1.4c2.1,0,4.1,0.8,4.1,3.5v5.4H99.8z M99.8,134.5v-0.8
		c-0.3-0.4-0.9-0.6-1.5-0.6c-0.7,0-1.4,0.3-1.4,1c0,0.7,0.7,1,1.4,1C98.9,135.1,99.5,134.9,99.8,134.5z"/>
	<path class="st1" d="M112,135.7v4.3h-2.8v-12h2.8v1c0.7-0.8,1.6-1.2,2.6-1.2c2.2,0,3.8,1.6,3.8,4.6c0,3-1.6,4.6-3.8,4.6
		C113.6,136.9,112.7,136.6,112,135.7z M115.5,132.4c0-1.3-0.8-2.1-1.9-2.1c-0.6,0-1.3,0.3-1.7,0.8v2.6c0.3,0.4,1.1,0.8,1.7,0.8
		C114.7,134.5,115.5,133.7,115.5,132.4z"/>
	<path class="st1" d="M124.9,136.7v-0.9c-0.5,0.6-1.6,1.1-2.7,1.1c-1.3,0-3-0.9-3-2.9c0-2.1,1.7-2.8,3-2.8c1.2,0,2.2,0.4,2.7,1v-0.9
		c0-0.8-0.6-1.3-1.8-1.3c-0.9,0-1.7,0.3-2.4,0.9l-1-1.9c1.1-1,2.6-1.4,3.9-1.4c2.1,0,4.1,0.8,4.1,3.5v5.4H124.9z M124.9,134.5v-0.8
		c-0.3-0.4-0.9-0.6-1.5-0.6c-0.7,0-1.4,0.3-1.4,1c0,0.7,0.7,1,1.4,1C124,135.1,124.7,134.9,124.9,134.5z"/>
	<path class="st1" d="M129.7,136.7V128h2.8v1.1c0.6-0.7,1.7-1.3,2.7-1.3v2.7c-0.2-0.1-0.4-0.1-0.7-0.1c-0.7,0-1.7,0.3-2,0.8v5.5
		H129.7z"/>
	<path class="st1" d="M141.6,136.7v-0.9c-0.5,0.6-1.6,1.1-2.7,1.1c-1.3,0-3-0.9-3-2.9c0-2.1,1.7-2.8,3-2.8c1.2,0,2.2,0.4,2.7,1v-0.9
		c0-0.8-0.6-1.3-1.8-1.3c-0.9,0-1.7,0.3-2.4,0.9l-1-1.9c1.1-1,2.6-1.4,3.9-1.4c2.1,0,4.1,0.8,4.1,3.5v5.4H141.6z M141.6,134.5v-0.8
		c-0.3-0.4-0.9-0.6-1.5-0.6c-0.7,0-1.4,0.3-1.4,1c0,0.7,0.7,1,1.4,1C140.7,135.1,141.3,134.9,141.6,134.5z"/>
	<path class="st1" d="M150.4,132.4c0-2.5,1.9-4.6,4.6-4.6c2.6,0,4.4,1.9,4.4,4.8v0.6h-6.2c0.2,0.8,0.9,1.4,2.2,1.4
		c0.6,0,1.6-0.3,2.1-0.7l1.2,1.8c-0.9,0.8-2.3,1.2-3.6,1.2C152.5,136.9,150.4,135.2,150.4,132.4z M155.1,130.1
		c-1.2,0-1.7,0.7-1.8,1.4h3.6C156.8,130.8,156.3,130.1,155.1,130.1z"/>
	<path class="st1" d="M163.1,136.7l-3.4-8.7h2.9l2,5.5l2-5.5h2.9l-3.4,8.7H163.1z"/>
	<path class="st1" d="M170.1,125.7c0-0.9,0.7-1.6,1.6-1.6c0.9,0,1.6,0.7,1.6,1.6c0,0.9-0.7,1.6-1.6,1.6
		C170.8,127.3,170.1,126.5,170.1,125.7z M170.3,136.7V128h2.8v8.7H170.3z"/>
	<path class="st1" d="M175.7,134.4v-4h-1.4V128h1.4v-2.4h2.8v2.4h1.8v2.4h-1.8v3.2c0,0.5,0.3,0.9,0.8,0.9c0.3,0,0.6-0.1,0.7-0.2
		l0.5,2.1c-0.3,0.3-1,0.6-2.1,0.6C176.6,136.9,175.7,136.1,175.7,134.4z"/>
	<path class="st1" d="M186.7,136.7v-0.9c-0.5,0.6-1.6,1.1-2.7,1.1c-1.3,0-3-0.9-3-2.9c0-2.1,1.7-2.8,3-2.8c1.2,0,2.2,0.4,2.7,1v-0.9
		c0-0.8-0.6-1.3-1.8-1.3c-0.9,0-1.7,0.3-2.4,0.9l-1-1.9c1.1-1,2.6-1.4,3.9-1.4c2.1,0,4.1,0.8,4.1,3.5v5.4H186.7z M186.7,134.5v-0.8
		c-0.3-0.4-0.9-0.6-1.5-0.6c-0.7,0-1.4,0.3-1.4,1c0,0.7,0.7,1,1.4,1C185.8,135.1,186.4,134.9,186.7,134.5z"/>
	<path class="st1" d="M191.5,136.7V128h2.8v1.1c0.6-0.7,1.7-1.3,2.7-1.3v2.7c-0.2-0.1-0.4-0.1-0.7-0.1c-0.7,0-1.7,0.3-2,0.8v5.5
		H191.5z"/>
	<path class="st1" d="M21.3,155.7v-0.9c-0.5,0.6-1.6,1.1-2.7,1.1c-1.3,0-3-0.9-3-2.9c0-2.1,1.7-2.8,3-2.8c1.2,0,2.2,0.4,2.7,1v-0.9
		c0-0.8-0.6-1.3-1.8-1.3c-0.9,0-1.7,0.3-2.4,0.9l-1-1.9c1.1-1,2.6-1.4,3.9-1.4c2.1,0,4.1,0.8,4.1,3.5v5.4H21.3z M21.3,153.5v-0.8
		c-0.3-0.4-0.9-0.6-1.5-0.6c-0.7,0-1.4,0.3-1.4,1c0,0.7,0.7,1,1.4,1C20.4,154.1,21.1,153.9,21.3,153.5z"/>
	<path class="st1" d="M30.2,151.4c0-2.7,2-4.6,4.7-4.6c1.9,0,3,0.8,3.6,1.6l-1.8,1.7c-0.3-0.5-0.9-0.8-1.6-0.8c-1.2,0-2,0.8-2,2.1
		s0.9,2.1,2,2.1c0.7,0,1.3-0.4,1.6-0.8l1.8,1.7c-0.5,0.8-1.7,1.6-3.6,1.6C32.2,155.9,30.2,154.1,30.2,151.4z"/>
	<path class="st1" d="M39.2,151.4c0-2.5,1.9-4.6,4.6-4.6c2.6,0,4.4,1.9,4.4,4.8v0.6H42c0.2,0.8,0.9,1.4,2.2,1.4
		c0.6,0,1.6-0.3,2.1-0.7l1.2,1.8c-0.9,0.8-2.3,1.2-3.6,1.2C41.2,155.9,39.2,154.2,39.2,151.4z M43.8,149.1c-1.2,0-1.7,0.7-1.8,1.4
		h3.6C45.5,149.8,45.1,149.1,43.8,149.1z"/>
	<path class="st1" d="M49.4,158l1.2-1.9c0.7,0.7,1.6,1,2.6,1c0.9,0,2.2-0.4,2.2-2.1v-0.7c-0.7,0.9-1.6,1.3-2.6,1.3
		c-2.1,0-3.8-1.5-3.8-4.4c0-2.9,1.6-4.4,3.8-4.4c1,0,1.9,0.4,2.6,1.2v-1h2.8v7.9c0,3.5-2.8,4.3-5,4.3
		C51.7,159.3,50.5,158.9,49.4,158z M55.4,152.4V150c-0.3-0.5-1.1-0.8-1.7-0.8c-1.1,0-1.9,0.7-1.9,1.9c0,1.3,0.8,1.9,1.9,1.9
		C54.4,153.1,55.1,152.8,55.4,152.4z"/>
	<path class="st1" d="M66.1,155.7v-1c-0.5,0.6-1.5,1.3-3,1.3c-2,0-2.9-1.1-2.9-2.7V147H63v5c0,1.1,0.5,1.4,1.4,1.4
		c0.8,0,1.3-0.4,1.7-0.8V147h2.8v8.7H66.1z"/>
	<path class="st1" d="M70.3,151.4c0-2.5,1.9-4.6,4.6-4.6c2.6,0,4.4,1.9,4.4,4.8v0.6h-6.2c0.2,0.8,0.9,1.4,2.2,1.4
		c0.6,0,1.6-0.3,2.1-0.7l1.2,1.8c-0.9,0.8-2.3,1.2-3.6,1.2C72.4,155.9,70.3,154.2,70.3,151.4z M74.9,149.1c-1.2,0-1.7,0.7-1.8,1.4
		h3.6C76.7,149.8,76.2,149.1,74.9,149.1z"/>
	<path class="st1" d="M80.5,144.7c0-0.9,0.7-1.6,1.6-1.6c0.9,0,1.6,0.7,1.6,1.6c0,0.9-0.7,1.6-1.6,1.6
		C81.3,146.3,80.5,145.5,80.5,144.7z M80.7,155.7V147h2.8v8.7H80.7z"/>
	<path class="st1" d="M85.5,155.7V147h2.8v1.1c0.6-0.7,1.7-1.3,2.7-1.3v2.7c-0.2-0.1-0.4-0.1-0.7-0.1c-0.7,0-1.7,0.3-2,0.8v5.5H85.5
		z"/>
	<path class="st1" d="M97.4,155.7v-0.9c-0.5,0.6-1.6,1.1-2.7,1.1c-1.3,0-3-0.9-3-2.9c0-2.1,1.7-2.8,3-2.8c1.2,0,2.2,0.4,2.7,1v-0.9
		c0-0.8-0.6-1.3-1.8-1.3c-0.9,0-1.7,0.3-2.4,0.9l-1-1.9c1.1-1,2.6-1.4,3.9-1.4c2.1,0,4.1,0.8,4.1,3.5v5.4H97.4z M97.4,153.5v-0.8
		c-0.3-0.4-0.9-0.6-1.5-0.6c-0.7,0-1.4,0.3-1.4,1c0,0.7,0.7,1,1.4,1C96.5,154.1,97.1,153.9,97.4,153.5z"/>
</g>
</svg>
