<?xml version="1.0" encoding="utf-8"?>
<!-- Generator: Adobe Illustrator 19.0.0, SVG Export Plug-In . SVG Version: 6.00 Build 0)  -->
<svg version="1.1" id="Layer_1" xmlns="http://www.w3.org/2000/svg" xmlns:xlink="http://www.w3.org/1999/xlink" x="0px" y="0px"
	 viewBox="0 0 220 187.7" style="enable-background:new 0 0 220 187.7;" xml:space="preserve">
<style type="text/css">
	.st0{fill:#008590;}
	.st1{fill:#FFFFFF;}
</style>
<rect x="0" class="st0" width="220" height="187.7"/>
<g>
	<path class="st1" d="M15.8,22.7v-6.7h4.9v1.5h-3.2v1h3.1v1.5h-3.1v1.1h3.2v1.5H15.8z"/>
	<path class="st1" d="M21.2,21.8l0.9-1.3c0.5,0.5,1.2,0.9,2.1,0.9c0.6,0,0.9-0.2,0.9-0.5c0-0.9-3.8-0.2-3.8-2.7
		c0-1.1,0.9-2.1,2.6-2.1c1.1,0,2,0.3,2.7,0.9l-0.9,1.3c-0.6-0.5-1.3-0.7-1.9-0.7c-0.5,0-0.7,0.2-0.7,0.5c0,0.8,3.8,0.2,3.8,2.7
		c0,1.3-1,2.2-2.8,2.2C22.8,22.9,21.9,22.4,21.2,21.8z"/>
	<path class="st1" d="M29.1,22.7v-5.2h-1.9v-1.5h5.4v1.5h-1.9v5.2H29.1z"/>
	<path class="st1" d="M33.5,22.7v-6.7h1.7v6.7H33.5z"/>
	<path class="st1" d="M42.2,22.7v-4.4l-1.7,4.4h-0.8l-1.7-4.4v4.4h-1.7v-6.7h2.4l1.4,3.7l1.4-3.7H44v6.7H42.2z"/>
	<path class="st1" d="M49.7,22.7l-0.3-1h-2.6l-0.3,1h-1.9l2.5-6.7h2.2l2.5,6.7H49.7z M48.1,17.8l-0.8,2.5h1.7L48.1,17.8z"/>
	<path class="st1" d="M52.1,22.7v-6.7h2.8c2.1,0,3.6,1.3,3.6,3.3s-1.5,3.3-3.6,3.3H52.1z M56.8,19.4c0-1-0.6-1.8-1.8-1.8h-1.1v3.7
		h1.1C56.1,21.2,56.8,20.4,56.8,19.4z"/>
	<path class="st1" d="M59.1,19.4c0-2,1.5-3.4,3.6-3.4c2,0,3.6,1.4,3.6,3.4s-1.5,3.4-3.6,3.4C60.6,22.9,59.1,21.4,59.1,19.4z
		 M64.4,19.4c0-1.1-0.7-1.9-1.8-1.9c-1.1,0-1.8,0.8-1.8,1.9c0,1.1,0.7,1.9,1.8,1.9C63.7,21.3,64.4,20.5,64.4,19.4z"/>
	<path class="st1" d="M66.6,21.8l0.9-1.3c0.5,0.5,1.2,0.9,2.1,0.9c0.6,0,0.9-0.2,0.9-0.5c0-0.9-3.8-0.2-3.8-2.7
		c0-1.1,0.9-2.1,2.6-2.1c1.1,0,2,0.3,2.7,0.9l-0.9,1.3c-0.6-0.5-1.3-0.7-1.9-0.7c-0.5,0-0.7,0.2-0.7,0.5c0,0.8,3.8,0.2,3.8,2.7
		c0,1.3-1,2.2-2.8,2.2C68.2,22.9,67.3,22.4,66.6,21.8z"/>
	<path class="st1" d="M72.9,18.8c0-0.5,0.4-0.9,0.9-0.9s0.9,0.4,0.9,0.9s-0.4,0.9-0.9,0.9S72.9,19.3,72.9,18.8z M72.9,21.9
		c0-0.5,0.4-0.9,0.9-0.9s0.9,0.4,0.9,0.9c0,0.5-0.4,0.9-0.9,0.9S72.9,22.4,72.9,21.9z"/>
</g>
<g>
	<path class="st1" d="M16,56.4V34.6h9.6v21.5c0,4.3,2.6,7.5,7.8,7.5c5.1,0,7.7-3.1,7.7-7.5V34.6h9.6v21.8c0,9.1-5.5,15.6-17.3,15.6
		S16,65.4,16,56.4z"/>
	<path class="st1" d="M51.9,66.1l5-7.4c2.6,2.6,6.7,4.8,11.8,4.8c3.2,0,5.2-1.1,5.2-2.9c0-4.8-20.7-0.8-20.7-15
		c0-6.2,5.2-11.7,14.6-11.7c5.9,0,11,1.8,14.9,5.1l-5.2,7.1c-3.1-2.6-7.1-3.8-10.7-3.8c-2.8,0-4,0.9-4,2.5c0,4.5,20.7,1.1,20.7,14.7
		c0,7.4-5.4,12.3-15.3,12.3C60.8,71.9,55.6,69.6,51.9,66.1z"/>
	<path class="st1" d="M96.3,71.8c-5.8-0.6-10.1-2.7-13.2-5.7l5-7.4c2,2,4.8,3.7,8.2,4.5v-6.1c-5.7-1.3-12-3.6-12-11.4
		c0-5.6,4.2-10.6,12-11.5V29h6.1v5.2c4.4,0.6,8.2,2.3,11.4,4.9l-5.2,7.1c-1.9-1.5-4-2.6-6.2-3.2v5.3c5.7,1.3,12.3,3.6,12.3,11.3
		c0,6.6-4.3,11.2-12.3,12.1v5h-6.1V71.8z M96.3,47v-4.4c-1.6,0.3-2.4,1.2-2.4,2.4C94,45.9,94.9,46.5,96.3,47z M102.4,58.5v4.8
		c1.6-0.4,2.6-1.4,2.6-2.6C105.1,59.6,104,58.9,102.4,58.5z"/>
	<path class="st1" d="M125.3,71.3V46.7l-6.2,6.2l-5.4-5.7l12.8-12.6h8.2v36.7H125.3z"/>
	<path class="st1" d="M15.8,121.3V84.6h8.5v13.3c2.1-2.6,4.9-3.8,7.9-3.8c6.7,0,11.7,5.2,11.7,13.9c0,9-5.2,14-11.7,14
		c-3,0-5.7-1.2-7.9-3.7v3.1H15.8z M29.3,114.4c3.4,0,5.9-2.5,5.9-6.5c0-4-2.5-6.4-5.9-6.4c-1.8,0-4,1-5.1,2.4v8.1
		C25.3,113.5,27.5,114.4,29.3,114.4z"/>
	<path class="st1" d="M45,87.4c0-2.7,2.1-4.8,4.8-4.8c2.7,0,4.9,2.1,4.9,4.8s-2.2,4.9-4.9,4.9C47.1,92.3,45,90.1,45,87.4z
		 M45.6,121.3V94.7H54v26.6H45.6z"/>
	<path class="st1" d="M57.5,121.3V84.6h8.5v36.7H57.5z"/>
	<path class="st1" d="M87.4,121.3v-15.5c0-3.2-1.7-4.3-4.4-4.3c-2.5,0-4.1,1.4-5.1,2.6v17.2h-8.5V84.6h8.5v13.4
		c1.6-1.9,4.7-3.9,9.2-3.9c6,0,8.8,3.4,8.8,8.3v18.9H87.4z"/>
	<path class="st1" d="M114.9,121.3v-2.6c-1.7,2-4.8,3.3-8.2,3.3c-4.1,0-9.1-2.8-9.1-8.7c0-6.4,5.1-8.6,9.1-8.6
		c3.5,0,6.7,1.2,8.2,3.1v-2.6c0-2.3-2-3.9-5.4-3.9c-2.6,0-5.3,1-7.4,2.9L99,98.2c3.4-2.9,8-4.1,12-4.1c6.4,0,12.4,2.4,12.4,10.6
		v16.6H114.9z M107.9,87.8c-0.9,0-1.6,0.8-1.6,2.7H102c0-4.9,2.1-7.4,6.2-7.4c3.5,0,4.5,3,6.2,3c0.9,0,1.6-0.8,1.6-2.7h4.3
		c0,4.8-2.1,7.4-6.2,7.4C110.6,90.8,109.7,87.8,107.9,87.8z M114.9,114.4v-2.4c-0.9-1.3-2.9-1.9-4.7-1.9c-2.2,0-4.2,1-4.2,3.1
		s2,3.1,4.2,3.1C112.1,116.4,114,115.7,114.9,114.4z"/>
	<path class="st1" d="M125.1,108c0-7.5,5.4-13.9,14.4-13.9c9.1,0,14.5,6.4,14.5,13.9c0,7.5-5.4,14-14.5,14
		C130.5,121.9,125.1,115.4,125.1,108z M145.3,108c0-3.5-2.1-6.4-5.8-6.4c-3.6,0-5.7,2.9-5.7,6.4c0,3.6,2.1,6.5,5.7,6.5
		C143.2,114.4,145.3,111.5,145.3,108z"/>
	<path class="st1" d="M19.6,140.3v-1c-0.7,0.8-1.6,1.2-2.6,1.2c-2.1,0-3.8-1.6-3.8-4.6c0-2.8,1.7-4.6,3.8-4.6c1,0,1.9,0.4,2.6,1.2
		v-4.3h2.8v12H19.6z M19.6,137.2v-2.7c-0.4-0.5-1.1-0.8-1.7-0.8c-1.1,0-1.9,0.8-1.9,2.1c0,1.3,0.8,2.1,1.9,2.1
		C18.5,138,19.2,137.7,19.6,137.2z"/>
	<path class="st1" d="M23.8,135.9c0-2.5,1.9-4.6,4.6-4.6c2.6,0,4.4,1.9,4.4,4.8v0.6h-6.2c0.2,0.8,0.9,1.4,2.2,1.4
		c0.6,0,1.6-0.3,2.1-0.7l1.2,1.8c-0.9,0.8-2.3,1.2-3.6,1.2C25.9,140.5,23.8,138.7,23.8,135.9z M28.4,133.6c-1.2,0-1.7,0.7-1.8,1.3
		h3.6C30.2,134.3,29.7,133.6,28.4,133.6z"/>
	<path class="st1" d="M44.7,140.3v-1c-0.7,0.8-1.6,1.2-2.6,1.2c-2.1,0-3.8-1.6-3.8-4.6c0-2.8,1.7-4.6,3.8-4.6c1,0,1.9,0.4,2.6,1.2
		v-4.3h2.8v12H44.7z M44.7,137.2v-2.7c-0.4-0.5-1.1-0.8-1.7-0.8c-1.1,0-1.9,0.8-1.9,2.1c0,1.3,0.8,2.1,1.9,2.1
		C43.6,138,44.4,137.7,44.7,137.2z"/>
	<path class="st1" d="M48.9,135.9c0-2.4,1.8-4.6,4.7-4.6c3,0,4.8,2.1,4.8,4.6c0,2.4-1.8,4.6-4.8,4.6
		C50.7,140.5,48.9,138.4,48.9,135.9z M55.6,135.9c0-1.2-0.7-2.1-1.9-2.1c-1.2,0-1.9,1-1.9,2.1c0,1.2,0.7,2.1,1.9,2.1
		C54.9,138,55.6,137.1,55.6,135.9z M53.9,130.3h-1.9l2.3-2.6h2.4L53.9,130.3z"/>
	<path class="st1" d="M59.9,140.3v-12h2.8v12H59.9z"/>
	<path class="st1" d="M69.8,140.3v-0.9c-0.5,0.6-1.6,1.1-2.7,1.1c-1.3,0-3-0.9-3-2.9c0-2.1,1.7-2.8,3-2.8c1.2,0,2.2,0.4,2.7,1V135
		c0-0.8-0.6-1.3-1.8-1.3c-0.9,0-1.7,0.3-2.4,0.9l-1-1.9c1.1-1,2.6-1.4,3.9-1.4c2.1,0,4.1,0.8,4.1,3.5v5.4H69.8z M69.8,138v-0.8
		c-0.3-0.4-0.9-0.6-1.5-0.6c-0.7,0-1.4,0.3-1.4,1c0,0.7,0.7,1,1.4,1C68.8,138.7,69.5,138.4,69.8,138z"/>
	<path class="st1" d="M74.6,140.3v-8.7h2.8v1.1c0.6-0.7,1.7-1.3,2.7-1.3v2.7c-0.2-0.1-0.4-0.1-0.7-0.1c-0.7,0-1.7,0.3-2,0.8v5.5
		H74.6z"/>
	<path class="st1" d="M80.8,135.9c0-2.5,1.9-4.6,4.6-4.6c2.6,0,4.4,1.9,4.4,4.8v0.6h-6.2c0.2,0.8,0.9,1.4,2.2,1.4
		c0.6,0,1.6-0.3,2.1-0.7l1.2,1.8c-0.9,0.8-2.3,1.2-3.6,1.2C82.8,140.5,80.8,138.7,80.8,135.9z M85.4,133.6c-1.2,0-1.7,0.7-1.8,1.3
		h3.6C87.1,134.3,86.6,133.6,85.4,133.6z"/>
	<path class="st1" d="M90.4,139.1l1.2-2c0.6,0.6,2,1.2,3.1,1.2c0.8,0,1.2-0.2,1.2-0.6c0-1.1-5.1,0-5.1-3.5c0-1.5,1.3-2.9,3.7-2.9
		c1.5,0,2.7,0.5,3.6,1.2l-1.1,2c-0.5-0.5-1.5-1-2.6-1c-0.6,0-1.1,0.3-1.1,0.6c0,1,5,0,5,3.5c0,1.7-1.5,2.8-3.9,2.8
		C93,140.5,91.4,140,90.4,139.1z"/>
	<path class="st1" d="M109.6,140.3v-0.9c-0.5,0.6-1.6,1.1-2.7,1.1c-1.3,0-3-0.9-3-2.9c0-2.1,1.7-2.8,3-2.8c1.2,0,2.2,0.4,2.7,1V135
		c0-0.8-0.6-1.3-1.8-1.3c-0.9,0-1.7,0.3-2.4,0.9l-1-1.9c1.1-1,2.6-1.4,3.9-1.4c2.1,0,4.1,0.8,4.1,3.5v5.4H109.6z M109.6,138v-0.8
		c-0.3-0.4-0.9-0.6-1.5-0.6c-0.7,0-1.4,0.3-1.4,1c0,0.7,0.7,1,1.4,1C108.7,138.7,109.3,138.4,109.6,138z"/>
	<path class="st1" d="M125.4,140.3V135c0-0.7-0.3-1.2-1.2-1.2c-0.8,0-1.3,0.5-1.6,0.8v5.6h-2.8V135c0-0.7-0.3-1.2-1.1-1.2
		c-0.8,0-1.3,0.5-1.6,0.8v5.6h-2.8v-8.7h2.8v1.1c0.4-0.5,1.5-1.3,2.9-1.3c1.3,0,2.1,0.5,2.5,1.5c0.5-0.8,1.6-1.5,3-1.5
		c1.6,0,2.6,0.8,2.6,2.6v6.3H125.4z"/>
	<path class="st1" d="M129.6,135.9c0-2.5,1.9-4.6,4.6-4.6c2.6,0,4.4,1.9,4.4,4.8v0.6h-6.2c0.2,0.8,0.9,1.4,2.2,1.4
		c0.6,0,1.6-0.3,2.1-0.7l1.2,1.8c-0.9,0.8-2.3,1.2-3.6,1.2C131.7,140.5,129.6,138.7,129.6,135.9z M134.2,133.6
		c-1.2,0-1.7,0.7-1.8,1.3h3.6C136,134.3,135.5,133.6,134.2,133.6z"/>
	<path class="st1" d="M140,140.3v-8.7h2.8v1.1c0.6-0.7,1.7-1.3,2.7-1.3v2.7c-0.2-0.1-0.4-0.1-0.7-0.1c-0.7,0-1.7,0.3-2,0.8v5.5H140z
		"/>
	<path class="st1" d="M146.6,129.2c0-0.9,0.7-1.6,1.6-1.6c0.9,0,1.6,0.7,1.6,1.6s-0.7,1.6-1.6,1.6
		C147.3,130.8,146.6,130.1,146.6,129.2z M146.8,140.3v-8.7h2.8v8.7H146.8z"/>
	<path class="st1" d="M151,135.9c0-2.7,2-4.6,4.7-4.6c1.9,0,3,0.8,3.6,1.6l-1.8,1.7c-0.3-0.5-0.9-0.8-1.6-0.8c-1.2,0-2,0.8-2,2.1
		s0.9,2.1,2,2.1c0.7,0,1.3-0.4,1.6-0.8l1.8,1.7c-0.5,0.8-1.7,1.6-3.6,1.6C153,140.5,151,138.6,151,135.9z"/>
	<path class="st1" d="M165.7,140.3v-0.9c-0.5,0.6-1.6,1.1-2.7,1.1c-1.3,0-3-0.9-3-2.9c0-2.1,1.7-2.8,3-2.8c1.2,0,2.2,0.4,2.7,1V135
		c0-0.8-0.6-1.3-1.8-1.3c-0.9,0-1.7,0.3-2.4,0.9l-1-1.9c1.1-1,2.6-1.4,3.9-1.4c2.1,0,4.1,0.8,4.1,3.5v5.4H165.7z M165.7,138v-0.8
		c-0.3-0.4-0.9-0.6-1.5-0.6c-0.7,0-1.4,0.3-1.4,1c0,0.7,0.7,1,1.4,1C164.8,138.7,165.4,138.4,165.7,138z"/>
	<path class="st1" d="M176.4,140.3v-5c0-1.1-0.6-1.4-1.4-1.4c-0.8,0-1.4,0.5-1.7,0.8v5.6h-2.8v-8.7h2.8v1.1c0.5-0.6,1.5-1.3,3-1.3
		c2,0,2.9,1.2,2.9,2.8v6.2H176.4z"/>
	<path class="st1" d="M180.6,135.9c0-2.4,1.8-4.6,4.7-4.6c3,0,4.8,2.1,4.8,4.6c0,2.4-1.8,4.6-4.8,4.6
		C182.4,140.5,180.6,138.4,180.6,135.9z M187.2,135.9c0-1.2-0.7-2.1-1.9-2.1c-1.2,0-1.9,1-1.9,2.1c0,1.2,0.7,2.1,1.9,2.1
		C186.5,138,187.2,137.1,187.2,135.9z"/>
	<path class="st1" d="M190.8,139.1l1.2-2c0.6,0.6,2,1.2,3.1,1.2c0.8,0,1.2-0.2,1.2-0.6c0-1.1-5.1,0-5.1-3.5c0-1.5,1.3-2.9,3.7-2.9
		c1.5,0,2.7,0.5,3.6,1.2l-1.1,2c-0.5-0.5-1.5-1-2.6-1c-0.6,0-1.1,0.3-1.1,0.6c0,1,5,0,5,3.5c0,1.7-1.5,2.8-3.9,2.8
		C193.3,140.5,191.7,140,190.8,139.1z"/>
	<path class="st1" d="M16.5,158.2v4.3h-2.8v-12h2.8v1c0.7-0.8,1.6-1.2,2.6-1.2c2.2,0,3.8,1.6,3.8,4.6c0,3-1.6,4.6-3.8,4.6
		C18.1,159.5,17.2,159.1,16.5,158.2z M20.1,154.9c0-1.3-0.8-2.1-1.9-2.1c-0.6,0-1.3,0.3-1.7,0.8v2.6c0.3,0.5,1.1,0.8,1.7,0.8
		C19.3,157,20.1,156.2,20.1,154.9z"/>
	<path class="st1" d="M29.5,159.3v-0.9c-0.5,0.6-1.6,1.1-2.7,1.1c-1.3,0-3-0.9-3-2.9c0-2.1,1.7-2.8,3-2.8c1.2,0,2.2,0.4,2.7,1V154
		c0-0.8-0.6-1.3-1.8-1.3c-0.9,0-1.7,0.3-2.4,0.9l-1-1.9c1.1-1,2.6-1.4,3.9-1.4c2.1,0,4.1,0.8,4.1,3.5v5.4H29.5z M29.5,157v-0.8
		c-0.3-0.4-0.9-0.6-1.5-0.6c-0.7,0-1.4,0.3-1.4,1c0,0.7,0.7,1,1.4,1C28.5,157.7,29.2,157.4,29.5,157z"/>
	<path class="st1" d="M34.3,159.3v-8.7H37v1.1c0.6-0.7,1.7-1.3,2.7-1.3v2.7c-0.2-0.1-0.4-0.1-0.7-0.1c-0.7,0-1.7,0.3-2,0.8v5.5H34.3
		z"/>
	<path class="st1" d="M46.1,159.3v-0.9c-0.5,0.6-1.6,1.1-2.7,1.1c-1.3,0-3-0.9-3-2.9c0-2.1,1.7-2.8,3-2.8c1.2,0,2.2,0.4,2.7,1V154
		c0-0.8-0.6-1.3-1.8-1.3c-0.9,0-1.7,0.3-2.4,0.9l-1-1.9c1.1-1,2.6-1.4,3.9-1.4c2.1,0,4.1,0.8,4.1,3.5v5.4H46.1z M46.1,157v-0.8
		c-0.3-0.4-0.9-0.6-1.5-0.6c-0.7,0-1.4,0.3-1.4,1c0,0.7,0.7,1,1.4,1C45.2,157.7,45.9,157.4,46.1,157z"/>
	<path class="st1" d="M55,154.9c0-2.5,1.9-4.6,4.6-4.6c2.6,0,4.4,1.9,4.4,4.8v0.6h-6.2c0.2,0.8,0.9,1.4,2.2,1.4
		c0.6,0,1.6-0.3,2.1-0.7l1.2,1.8c-0.9,0.8-2.3,1.2-3.6,1.2C57,159.5,55,157.7,55,154.9z M59.6,152.6c-1.2,0-1.7,0.7-1.8,1.3h3.6
		C61.3,153.3,60.9,152.6,59.6,152.6z"/>
	<path class="st1" d="M65.4,159.3v-12h2.8v12H65.4z"/>
	<path class="st1" d="M70,148.2c0-0.9,0.7-1.6,1.6-1.6c0.9,0,1.6,0.7,1.6,1.6s-0.7,1.6-1.6,1.6C70.7,149.8,70,149.1,70,148.2z
		 M70.2,159.3v-8.7H73v8.7H70.2z"/>
	<path class="st1" d="M85.9,159.3V154c0-0.7-0.3-1.2-1.2-1.2c-0.8,0-1.3,0.5-1.6,0.8v5.6h-2.8V154c0-0.7-0.3-1.2-1.1-1.2
		c-0.8,0-1.3,0.5-1.6,0.8v5.6H75v-8.7h2.8v1.1c0.4-0.5,1.5-1.3,2.9-1.3c1.3,0,2.1,0.5,2.5,1.5c0.5-0.8,1.6-1.5,3-1.5
		c1.6,0,2.6,0.8,2.6,2.6v6.3H85.9z"/>
	<path class="st1" d="M90.5,148.2c0-0.9,0.7-1.6,1.6-1.6c0.9,0,1.6,0.7,1.6,1.6s-0.7,1.6-1.6,1.6C91.2,149.8,90.5,149.1,90.5,148.2z
		 M90.7,159.3v-8.7h2.8v8.7H90.7z"/>
	<path class="st1" d="M101.4,159.3v-5c0-1.1-0.6-1.4-1.4-1.4c-0.8,0-1.4,0.5-1.7,0.8v5.6h-2.8v-8.7h2.8v1.1c0.5-0.6,1.5-1.3,3-1.3
		c2,0,2.9,1.2,2.9,2.8v6.2H101.4z"/>
	<path class="st1" d="M111.3,159.3v-0.9c-0.5,0.6-1.6,1.1-2.7,1.1c-1.3,0-3-0.9-3-2.9c0-2.1,1.7-2.8,3-2.8c1.2,0,2.2,0.4,2.7,1V154
		c0-0.8-0.6-1.3-1.8-1.3c-0.9,0-1.7,0.3-2.4,0.9l-1-1.9c1.1-1,2.6-1.4,3.9-1.4c2.1,0,4.1,0.8,4.1,3.5v5.4H111.3z M111.3,157v-0.8
		c-0.3-0.4-0.9-0.6-1.5-0.6c-0.7,0-1.4,0.3-1.4,1c0,0.7,0.7,1,1.4,1C110.4,157.7,111,157.4,111.3,157z"/>
	<path class="st1" d="M116.1,159.3v-8.7h2.8v1.1c0.6-0.7,1.7-1.3,2.7-1.3v2.7c-0.2-0.1-0.4-0.1-0.7-0.1c-0.7,0-1.7,0.3-2,0.8v5.5
		H116.1z"/>
	<path class="st1" d="M132.6,159.3v-0.9c-0.5,0.6-1.6,1.1-2.7,1.1c-1.3,0-3-0.9-3-2.9c0-2.1,1.7-2.8,3-2.8c1.2,0,2.2,0.4,2.7,1V154
		c0-0.8-0.6-1.3-1.8-1.3c-0.9,0-1.7,0.3-2.4,0.9l-1-1.9c1.1-1,2.6-1.4,3.9-1.4c2.1,0,4.1,0.8,4.1,3.5v5.4H132.6z M132.6,157v-0.8
		c-0.3-0.4-0.9-0.6-1.5-0.6c-0.7,0-1.4,0.3-1.4,1c0,0.7,0.7,1,1.4,1C131.7,157.7,132.3,157.4,132.6,157z"/>
	<path class="st1" d="M136.8,154.9c0-2.4,1.8-4.6,4.7-4.6c3,0,4.8,2.1,4.8,4.6c0,2.4-1.8,4.6-4.8,4.6
		C138.6,159.5,136.8,157.4,136.8,154.9z M143.5,154.9c0-1.2-0.7-2.1-1.9-2.1c-1.2,0-1.9,1-1.9,2.1c0,1.2,0.7,2.1,1.9,2.1
		C142.8,157,143.5,156.1,143.5,154.9z"/>
	<path class="st1" d="M14.3,175.9v-4h-1.4v-2.4h1.4v-2.4h2.8v2.4h1.8v2.4h-1.8v3.2c0,0.5,0.3,0.9,0.8,0.9c0.3,0,0.6-0.1,0.7-0.2
		l0.5,2.1c-0.3,0.3-1,0.6-2.1,0.6C15.3,178.5,14.3,177.6,14.3,175.9z"/>
	<path class="st1" d="M20.2,178.3v-8.7H23v1.1c0.6-0.7,1.7-1.3,2.7-1.3v2.7c-0.2-0.1-0.4-0.1-0.7-0.1c-0.7,0-1.7,0.3-2,0.8v5.5H20.2
		z"/>
	<path class="st1" d="M32.1,178.3v-0.9c-0.5,0.6-1.6,1.1-2.7,1.1c-1.3,0-3-0.9-3-2.9c0-2.1,1.7-2.8,3-2.8c1.2,0,2.2,0.4,2.7,1V173
		c0-0.8-0.6-1.3-1.8-1.3c-0.9,0-1.7,0.3-2.4,0.9l-1-1.9c1.1-1,2.6-1.4,3.9-1.4c2.1,0,4.1,0.8,4.1,3.5v5.4H32.1z M32.1,176v-0.8
		c-0.3-0.4-0.9-0.6-1.5-0.6c-0.7,0-1.4,0.3-1.4,1c0,0.7,0.7,1,1.4,1C31.2,176.7,31.8,176.4,32.1,176z"/>
	<path class="st1" d="M36.3,173.9c0-2.7,2-4.6,4.7-4.6c1.9,0,3,0.8,3.6,1.6l-1.8,1.7c-0.3-0.5-0.9-0.8-1.6-0.8c-1.2,0-2,0.8-2,2.1
		s0.9,2.1,2,2.1c0.7,0,1.3-0.4,1.6-0.8l1.8,1.7c-0.5,0.8-1.7,1.6-3.6,1.6C38.4,178.5,36.3,176.6,36.3,173.9z"/>
	<path class="st1" d="M45.3,173.9c0-2.4,1.8-4.6,4.7-4.6c3,0,4.8,2.1,4.8,4.6c0,2.4-1.8,4.6-4.8,4.6
		C47.1,178.5,45.3,176.4,45.3,173.9z M52,173.9c0-1.2-0.7-2.1-1.9-2.1c-1.2,0-1.9,1-1.9,2.1c0,1.2,0.7,2.1,1.9,2.1
		C51.3,176,52,175.1,52,173.9z"/>
	<path class="st1" d="M67.2,178.3V173c0-0.7-0.3-1.2-1.2-1.2c-0.8,0-1.3,0.5-1.6,0.8v5.6h-2.8V173c0-0.7-0.3-1.2-1.1-1.2
		c-0.8,0-1.3,0.5-1.6,0.8v5.6h-2.8v-8.7H59v1.1c0.4-0.5,1.5-1.3,2.9-1.3c1.3,0,2.1,0.5,2.5,1.5c0.5-0.8,1.6-1.5,3-1.5
		c1.6,0,2.6,0.8,2.6,2.6v6.3H67.2z"/>
	<path class="st1" d="M77.1,178.3v-0.9c-0.5,0.6-1.6,1.1-2.7,1.1c-1.3,0-3-0.9-3-2.9c0-2.1,1.7-2.8,3-2.8c1.2,0,2.2,0.4,2.7,1V173
		c0-0.8-0.6-1.3-1.8-1.3c-0.9,0-1.7,0.3-2.4,0.9l-1-1.9c1.1-1,2.6-1.4,3.9-1.4c2.1,0,4.1,0.8,4.1,3.5v5.4H77.1z M77.1,176v-0.8
		c-0.3-0.4-0.9-0.6-1.5-0.6c-0.7,0-1.4,0.3-1.4,1c0,0.7,0.7,1,1.4,1C76.2,176.7,76.9,176.4,77.1,176z"/>
</g>
</svg>
