<?xml version="1.0" encoding="utf-8"?>
<!-- Generator: Adobe Illustrator 16.0.0, SVG Export Plug-In . SVG Version: 6.00 Build 0)  -->
<!DOCTYPE svg PUBLIC "-//W3C//DTD SVG 1.1//EN" "http://www.w3.org/Graphics/SVG/1.1/DTD/svg11.dtd">
<svg version="1.1" id="Layer_1" xmlns="http://www.w3.org/2000/svg" xmlns:xlink="http://www.w3.org/1999/xlink" x="0px" y="0px"
	 width="220px" height="138.8px" viewBox="0 0 220 138.8" enable-background="new 0 0 220 138.8" xml:space="preserve">
<rect x="0" fill="#008590" width="220" height="139.3"/>
<g>
	<path fill="#FFFFFF" d="M15.8,22.7v-6.7h4.9v1.5h-3.2v1h3.1v1.5h-3.1v1.1h3.2v1.5H15.8z"/>
	<path fill="#FFFFFF" d="M26.2,22.7l-2.8-3.9v3.9h-1.7v-6.7h1.8l2.7,3.7v-3.7h1.7v6.7H26.2z"/>
	<path fill="#FFFFFF" d="M29.1,22.7v-6.7h2.8c2.1,0,3.6,1.3,3.6,3.3s-1.5,3.3-3.6,3.3H29.1z M33.7,19.4c0-1-0.6-1.8-1.8-1.8h-1.1
		v3.7h1.1C33.1,21.2,33.7,20.4,33.7,19.4z"/>
	<path fill="#FFFFFF" d="M36.4,22.7v-6.7h4.9v1.5h-3.2v1h3.1v1.5h-3.1v1.1h3.2v1.5H36.4z"/>
	<path fill="#FFFFFF" d="M48.1,22.7v-4.4l-1.7,4.4h-0.8L44,18.3v4.4h-1.7v-6.7h2.4l1.4,3.7l1.4-3.7h2.4v6.7H48.1z"/>
	<path fill="#FFFFFF" d="M51,22.7v-6.7h1.7v6.7H51z"/>
	<path fill="#FFFFFF" d="M53.6,19.4c0-2.1,1.6-3.4,3.6-3.4c1.6,0,2.5,0.9,2.9,1.8l-1.5,0.7c-0.2-0.5-0.8-1-1.4-1
		c-1.1,0-1.9,0.8-1.9,1.9c0,1.1,0.8,1.9,1.9,1.9c0.6,0,1.2-0.4,1.4-1l1.5,0.7c-0.4,0.8-1.3,1.8-2.9,1.8
		C55.2,22.9,53.6,21.5,53.6,19.4z"/>
	<path fill="#FFFFFF" d="M60.9,22.7v-6.7h1.7v6.7H60.9z"/>
	<path fill="#FFFFFF" d="M63.8,22.7v-6.7h2.8c2.1,0,3.6,1.3,3.6,3.3s-1.5,3.3-3.6,3.3H63.8z M68.4,19.4c0-1-0.6-1.8-1.8-1.8h-1.1
		v3.7h1.1C67.8,21.2,68.4,20.4,68.4,19.4z"/>
	<path fill="#FFFFFF" d="M75.3,22.7l-0.3-1h-2.6l-0.3,1H70l2.5-6.7h2.2l2.5,6.7H75.3z M73.6,17.8l-0.8,2.5h1.7L73.6,17.8z"/>
	<path fill="#FFFFFF" d="M77.7,22.7v-6.7h2.8c2.1,0,3.6,1.3,3.6,3.3s-1.5,3.3-3.6,3.3H77.7z M82.4,19.4c0-1-0.6-1.8-1.8-1.8h-1.1
		v3.7h1.1C81.7,21.2,82.4,20.4,82.4,19.4z"/>
	<path fill="#FFFFFF" d="M85,22.7v-6.7h4.9v1.5h-3.2v1h3.1v1.5h-3.1v1.1h3.2v1.5H85z"/>
	<path fill="#FFFFFF" d="M90.7,18.8c0-0.5,0.4-0.9,0.9-0.9s0.9,0.4,0.9,0.9s-0.4,0.9-0.9,0.9S90.7,19.3,90.7,18.8z M90.7,21.9
		c0-0.5,0.4-0.9,0.9-0.9s0.9,0.4,0.9,0.9c0,0.5-0.4,0.9-0.9,0.9S90.7,22.4,90.7,21.9z"/>
	<path fill="#FFFFFF" d="M18.5,84.7v-9.9C39.9,59.3,43.9,55.9,43.9,51c0-3.3-3.2-5.1-6.8-5.1c-5.5,0-9.6,2.1-13.2,5.4l-7-8.4
		c5.3-5.8,13.1-8.2,20-8.2c11.6,0,20,6.5,20,16.4c0,7.6-5.4,14.1-17.7,22.6h18.1v11.1H18.5z"/>
	<path fill="#FFFFFF" d="M60.1,60.1c0-13,6.7-25.5,21.2-25.5c14.4,0,21.2,12.4,21.2,25.5s-6.7,25.5-21.2,25.5
		C66.8,85.6,60.1,73.1,60.1,60.1z M89.5,60.1c0-8.7-2.4-14.2-8.3-14.2c-5.9,0-8.3,5.5-8.3,14.2c0,8.7,2.4,14.3,8.3,14.3
		C87.1,74.4,89.5,68.8,89.5,60.1z"/>
	<path fill="#FFFFFF" d="M104.2,60.1c0-13,6.7-25.5,21.2-25.5c14.4,0,21.2,12.4,21.2,25.5s-6.7,25.5-21.2,25.5
		C111,85.6,104.2,73.1,104.2,60.1z M133.7,60.1c0-8.7-2.4-14.2-8.3-14.2c-5.9,0-8.3,5.5-8.3,14.2c0,8.7,2.4,14.3,8.3,14.3
		C131.3,74.4,133.7,68.8,133.7,60.1z"/>
	<path fill="#FFFFFF" d="M195.7,84.7V63c0-2.7-1.3-4.8-4.7-4.8c-3.1,0-5.3,2-6.4,3.5v23.1h-11.4V63c0-2.7-1.3-4.8-4.7-4.8
		c-3.1,0-5.3,2-6.4,3.5v23.1h-11.4V49H162v4.4c1.6-2.1,6.1-5.3,11.8-5.3c5.2,0,8.7,2.1,10.1,6.4c2.1-3.1,6.7-6.4,12.4-6.4
		c6.6,0,10.7,3.4,10.7,10.7v25.9H195.7z"/>
	<path fill="#FFFFFF" d="M19,102.7v4.3h-2.8V95H19v1c0.7-0.8,1.6-1.2,2.6-1.2c2.2,0,3.8,1.6,3.8,4.6c0,3-1.6,4.6-3.8,4.6
		C20.6,103.9,19.7,103.6,19,102.7z M22.6,99.4c0-1.3-0.8-2.1-1.9-2.1c-0.6,0-1.3,0.3-1.7,0.8v2.6c0.3,0.4,1.1,0.8,1.7,0.8
		C21.7,101.5,22.6,100.7,22.6,99.4z"/>
	<path fill="#FFFFFF" d="M26.3,99.4c0-2.5,1.9-4.6,4.6-4.6c2.6,0,4.4,1.9,4.4,4.8v0.6h-6.2c0.2,0.8,0.9,1.4,2.2,1.4
		c0.6,0,1.6-0.3,2.1-0.7l1.2,1.8c-0.9,0.8-2.3,1.2-3.6,1.2C28.3,103.9,26.3,102.2,26.3,99.4z M30.9,97.1c-1.2,0-1.7,0.7-1.8,1.3h3.6
		C32.6,97.8,32.1,97.1,30.9,97.1z"/>
	<path fill="#FFFFFF" d="M35.9,102.6l1.2-2c0.6,0.6,2,1.2,3.1,1.2c0.8,0,1.2-0.2,1.2-0.6c0-1.1-5.1,0-5.1-3.5c0-1.5,1.3-2.9,3.7-2.9
		c1.5,0,2.7,0.5,3.6,1.2l-1.1,2c-0.5-0.5-1.5-1-2.6-1c-0.6,0-1.1,0.3-1.1,0.6c0,1,5,0,5,3.5c0,1.7-1.5,2.8-3.9,2.8
		C38.5,103.9,36.9,103.4,35.9,102.6z"/>
	<path fill="#FFFFFF" d="M44.7,102.6l1.2-2c0.6,0.6,2,1.2,3.1,1.2c0.8,0,1.2-0.2,1.2-0.6c0-1.1-5.1,0-5.1-3.5c0-1.5,1.3-2.9,3.7-2.9
		c1.5,0,2.7,0.5,3.6,1.2l-1.1,2c-0.5-0.5-1.5-1-2.6-1c-0.6,0-1.1,0.3-1.1,0.6c0,1,5,0,5,3.5c0,1.7-1.5,2.8-3.9,2.8
		C47.2,103.9,45.6,103.4,44.7,102.6z"/>
	<path fill="#FFFFFF" d="M53.5,99.4c0-2.4,1.8-4.6,4.7-4.6c3,0,4.8,2.1,4.8,4.6s-1.8,4.6-4.8,4.6C55.3,103.9,53.5,101.8,53.5,99.4z
		 M60.2,99.4c0-1.2-0.7-2.1-1.9-2.1c-1.2,0-1.9,1-1.9,2.1c0,1.2,0.7,2.1,1.9,2.1C59.5,101.5,60.2,100.5,60.2,99.4z"/>
	<path fill="#FFFFFF" d="M69.6,103.7v-0.9c-0.5,0.6-1.6,1.1-2.7,1.1c-1.3,0-3-0.9-3-2.9c0-2.1,1.7-2.8,3-2.8c1.2,0,2.2,0.4,2.7,1
		v-0.9c0-0.8-0.6-1.3-1.8-1.3c-0.9,0-1.7,0.3-2.4,0.9l-1-1.9c1.1-1,2.6-1.4,3.9-1.4c2.1,0,4.1,0.8,4.1,3.5v5.4H69.6z M69.6,101.5
		v-0.8c-0.3-0.4-0.9-0.6-1.5-0.6c-0.7,0-1.4,0.3-1.4,1s0.7,1,1.4,1C68.7,102.1,69.3,101.9,69.6,101.5z"/>
	<path fill="#FFFFFF" d="M73.7,102.6l1.2-2c0.6,0.6,2,1.2,3.1,1.2c0.8,0,1.2-0.2,1.2-0.6c0-1.1-5.1,0-5.1-3.5c0-1.5,1.3-2.9,3.7-2.9
		c1.5,0,2.7,0.5,3.6,1.2l-1.1,2c-0.5-0.5-1.5-1-2.6-1c-0.6,0-1.1,0.3-1.1,0.6c0,1,5,0,5,3.5c0,1.7-1.5,2.8-3.9,2.8
		C76.2,103.9,74.6,103.4,73.7,102.6z"/>
	<path fill="#FFFFFF" d="M87.2,99.4c0-2.5,1.9-4.6,4.6-4.6c2.6,0,4.4,1.9,4.4,4.8v0.6H90c0.2,0.8,0.9,1.4,2.2,1.4
		c0.6,0,1.6-0.3,2.1-0.7l1.2,1.8c-0.9,0.8-2.3,1.2-3.6,1.2C89.2,103.9,87.2,102.2,87.2,99.4z M91.8,97.1c-1.2,0-1.7,0.7-1.8,1.3h3.6
		C93.5,97.8,93,97.1,91.8,97.1z"/>
	<path fill="#FFFFFF" d="M108.5,103.7v-5.3c0-0.7-0.3-1.2-1.2-1.2c-0.8,0-1.3,0.5-1.6,0.8v5.6h-2.8v-5.3c0-0.7-0.3-1.2-1.1-1.2
		c-0.8,0-1.3,0.5-1.6,0.8v5.6h-2.8V95h2.8v1.1c0.4-0.5,1.5-1.3,2.9-1.3c1.3,0,2.1,0.5,2.5,1.5c0.5-0.8,1.6-1.5,3-1.5
		c1.6,0,2.6,0.8,2.6,2.6v6.3H108.5z"/>
	<path fill="#FFFFFF" d="M117.9,103.7V95h2.8v1.1c0.6-0.7,1.7-1.3,2.7-1.3v2.7c-0.2-0.1-0.4-0.1-0.7-0.1c-0.7,0-1.7,0.3-2,0.8v5.5
		H117.9z"/>
	<path fill="#FFFFFF" d="M124.5,92.7c0-0.9,0.7-1.6,1.6-1.6c0.9,0,1.6,0.7,1.6,1.6s-0.7,1.6-1.6,1.6
		C125.2,94.3,124.5,93.5,124.5,92.7z M124.7,103.7V95h2.8v8.7H124.7z"/>
	<path fill="#FFFFFF" d="M128.7,102.6l1.2-2c0.6,0.6,2,1.2,3.1,1.2c0.8,0,1.2-0.2,1.2-0.6c0-1.1-5.1,0-5.1-3.5
		c0-1.5,1.3-2.9,3.7-2.9c1.5,0,2.7,0.5,3.6,1.2l-1.1,2c-0.5-0.5-1.5-1-2.6-1c-0.6,0-1.1,0.3-1.1,0.6c0,1,5,0,5,3.5
		c0,1.7-1.5,2.8-3.9,2.8C131.3,103.9,129.7,103.4,128.7,102.6z"/>
	<path fill="#FFFFFF" d="M137.6,99.4c0-2.7,2-4.6,4.7-4.6c1.9,0,3,0.8,3.6,1.6l-1.8,1.7c-0.3-0.5-0.9-0.8-1.6-0.8
		c-1.2,0-2,0.8-2,2.1s0.9,2.1,2,2.1c0.7,0,1.3-0.4,1.6-0.8l1.8,1.7c-0.5,0.8-1.7,1.6-3.6,1.6C139.6,103.9,137.6,102.1,137.6,99.4z"
		/>
	<path fill="#FFFFFF" d="M146.6,99.4c0-2.4,1.8-4.6,4.7-4.6c3,0,4.8,2.1,4.8,4.6s-1.8,4.6-4.8,4.6
		C148.4,103.9,146.6,101.8,146.6,99.4z M153.3,99.4c0-1.2-0.7-2.1-1.9-2.1c-1.2,0-1.9,1-1.9,2.1c0,1.2,0.7,2.1,1.9,2.1
		C152.6,101.5,153.3,100.5,153.3,99.4z"/>
	<path fill="#FFFFFF" d="M161.6,99.4c0-2.5,1.9-4.6,4.6-4.6c2.6,0,4.4,1.9,4.4,4.8v0.6h-6.2c0.2,0.8,0.9,1.4,2.2,1.4
		c0.6,0,1.6-0.3,2.1-0.7l1.2,1.8c-0.9,0.8-2.3,1.2-3.6,1.2C163.7,103.9,161.6,102.2,161.6,99.4z M166.2,97.1c-1.2,0-1.7,0.7-1.8,1.3
		h3.6C167.9,97.8,167.5,97.1,166.2,97.1z"/>
	<path fill="#FFFFFF" d="M183,103.7v-5.3c0-0.7-0.3-1.2-1.2-1.2c-0.8,0-1.3,0.5-1.6,0.8v5.6h-2.8v-5.3c0-0.7-0.3-1.2-1.1-1.2
		c-0.8,0-1.3,0.5-1.6,0.8v5.6H172V95h2.8v1.1c0.4-0.5,1.5-1.3,2.9-1.3c1.3,0,2.1,0.5,2.5,1.5c0.5-0.8,1.6-1.5,3-1.5
		c1.6,0,2.6,0.8,2.6,2.6v6.3H183z"/>
	<path fill="#FFFFFF" d="M21.3,122.7v-2.2h-5.7v-2.4l4.6-7.4h4.3v7.1h1.5v2.7h-1.5v2.2H21.3z M21.3,113.4l-2.7,4.4h2.7V113.4z"/>
	<path fill="#FFFFFF" d="M27.1,122.7v-2.4c5.2-3.8,6.2-4.6,6.2-5.8c0-0.8-0.8-1.2-1.7-1.2c-1.3,0-2.3,0.5-3.2,1.3l-1.7-2.1
		c1.3-1.4,3.2-2,4.9-2c2.8,0,4.9,1.6,4.9,4c0,1.9-1.3,3.4-4.3,5.5h4.4v2.7H27.1z"/>
	<path fill="#FFFFFF" d="M45.6,121.7v4.3h-2.8v-12h2.8v1c0.7-0.8,1.6-1.2,2.6-1.2c2.2,0,3.8,1.6,3.8,4.6c0,3-1.6,4.6-3.8,4.6
		C47.2,122.9,46.3,122.6,45.6,121.7z M49.2,118.4c0-1.3-0.8-2.1-1.9-2.1c-0.6,0-1.3,0.3-1.7,0.8v2.6c0.3,0.4,1.1,0.8,1.7,0.8
		C48.3,120.5,49.2,119.7,49.2,118.4z"/>
	<path fill="#FFFFFF" d="M58.6,122.7v-0.9c-0.5,0.6-1.6,1.1-2.7,1.1c-1.3,0-3-0.9-3-2.9c0-2.1,1.7-2.8,3-2.8c1.2,0,2.2,0.4,2.7,1
		v-0.9c0-0.8-0.6-1.3-1.8-1.3c-0.9,0-1.7,0.3-2.4,0.9l-1-1.9c1.1-1,2.6-1.4,3.9-1.4c2.1,0,4.1,0.8,4.1,3.5v5.4H58.6z M58.6,120.5
		v-0.8c-0.3-0.4-0.9-0.6-1.5-0.6c-0.7,0-1.4,0.3-1.4,1s0.7,1,1.4,1C57.6,121.1,58.3,120.9,58.6,120.5z"/>
	<path fill="#FFFFFF" d="M65,112.7h-1.9l2.3-2.6h2.4L65,112.7z M63.4,122.7V114h2.8v8.7H63.4z"/>
	<path fill="#FFFFFF" d="M67.4,121.6l1.2-2c0.6,0.6,2,1.2,3.1,1.2c0.8,0,1.2-0.2,1.2-0.6c0-1.1-5.1,0-5.1-3.5c0-1.5,1.3-2.9,3.7-2.9
		c1.5,0,2.7,0.5,3.6,1.2l-1.1,2c-0.5-0.5-1.5-1-2.6-1c-0.6,0-1.1,0.3-1.1,0.6c0,1,5,0,5,3.5c0,1.7-1.5,2.8-3.9,2.8
		C69.9,122.9,68.3,122.4,67.4,121.6z"/>
	<path fill="#FFFFFF" d="M76.3,118.4c0-2.5,1.9-4.6,4.6-4.6c2.6,0,4.4,1.9,4.4,4.8v0.6h-6.2c0.2,0.8,0.9,1.4,2.2,1.4
		c0.6,0,1.6-0.3,2.1-0.7l1.2,1.8c-0.9,0.8-2.3,1.2-3.6,1.2C78.4,122.9,76.3,121.2,76.3,118.4z M80.9,116.1c-1.2,0-1.7,0.7-1.8,1.3
		h3.6C82.6,116.8,82.2,116.1,80.9,116.1z"/>
	<path fill="#FFFFFF" d="M86,121.6l1.2-2c0.6,0.6,2,1.2,3.1,1.2c0.8,0,1.2-0.2,1.2-0.6c0-1.1-5.1,0-5.1-3.5c0-1.5,1.3-2.9,3.7-2.9
		c1.5,0,2.7,0.5,3.6,1.2l-1.1,2c-0.5-0.5-1.5-1-2.6-1c-0.6,0-1.1,0.3-1.1,0.6c0,1,5,0,5,3.5c0,1.7-1.5,2.8-3.9,2.8
		C88.5,122.9,86.9,122.4,86,121.6z"/>
</g>
</svg>
