<?xml version="1.0" encoding="utf-8"?>
<!-- Generator: Adobe Illustrator 16.0.0, SVG Export Plug-In . SVG Version: 6.00 Build 0)  -->
<!DOCTYPE svg PUBLIC "-//W3C//DTD SVG 1.1//EN" "http://www.w3.org/Graphics/SVG/1.1/DTD/svg11.dtd">
<svg version="1.1" id="Layer_1" xmlns="http://www.w3.org/2000/svg" xmlns:xlink="http://www.w3.org/1999/xlink" x="0px" y="0px"
	 width="220px" height="241.9px" viewBox="0 0 220 241.9" enable-background="new 0 0 220 241.9" xml:space="preserve">
<rect x="0" fill="#259AD6" width="220" height="242.5"/>
<g>
	<path fill="#FFFFFF" d="M16,78.8V57h9.6v21.5c0,4.3,2.6,7.5,7.8,7.5c5.1,0,7.7-3.1,7.7-7.5V57h9.6v21.8c0,9.1-5.5,15.6-17.3,15.6
		S16,87.8,16,78.8z"/>
	<path fill="#FFFFFF" d="M51.9,88.5l5-7.4c2.6,2.6,6.7,4.8,11.8,4.8c3.2,0,5.2-1.1,5.2-2.9c0-4.8-20.7-0.8-20.7-15
		c0-6.2,5.2-11.7,14.6-11.7c5.9,0,11,1.8,14.9,5.1l-5.2,7.1c-3.1-2.6-7.1-3.8-10.7-3.8c-2.8,0-4,0.9-4,2.5c0,4.5,20.7,1.1,20.7,14.7
		c0,7.4-5.4,12.3-15.3,12.3C60.8,94.3,55.6,91.9,51.9,88.5z"/>
	<path fill="#FFFFFF" d="M96.3,94.1c-5.8-0.5-10.1-2.7-13.2-5.7l5-7.4c2,2,4.8,3.7,8.2,4.5v-6.1c-5.7-1.3-12-3.6-12-11.4
		c0-5.6,4.2-10.6,12-11.5v-5.2h6.1v5.2c4.4,0.6,8.2,2.3,11.4,4.9l-5.2,7.1c-1.9-1.5-4-2.6-6.2-3.2v5.3c5.7,1.3,12.3,3.6,12.3,11.3
		c0,6.6-4.3,11.2-12.3,12.1v5h-6.1V94.1z M96.3,69.3v-4.4c-1.6,0.3-2.4,1.2-2.4,2.4C94,68.3,94.9,68.9,96.3,69.3z M102.4,80.8v4.8
		c1.6-0.4,2.6-1.4,2.6-2.6C105.1,82,104,81.3,102.4,80.8z"/>
	<path fill="#FFFFFF" d="M120,93.6l12.4-28.4h-17.9V57h28.8v6.5l-12.9,30.1H120z"/>
	<path fill="#FFFFFF" d="M142.9,75.3c0-9.7,5-18.9,15.7-18.9s15.7,9.2,15.7,18.9c0,9.7-5,19-15.7,19S142.9,85,142.9,75.3z
		 M164.8,75.3c0-6.5-1.8-10.6-6.2-10.6c-4.4,0-6.2,4.1-6.2,10.6c0,6.5,1.8,10.6,6.2,10.6C163.1,85.9,164.8,81.8,164.8,75.3z"/>
	<path fill="#FFFFFF" d="M175.6,75.3c0-9.7,5-18.9,15.7-18.9c10.7,0,15.7,9.2,15.7,18.9c0,9.7-5,19-15.7,19
		C180.6,94.3,175.6,85,175.6,75.3z M197.5,75.3c0-6.5-1.8-10.6-6.2-10.6c-4.4,0-6.2,4.1-6.2,10.6c0,6.5,1.8,10.6,6.2,10.6
		C195.7,85.9,197.5,81.8,197.5,75.3z"/>
	<path fill="#FFFFFF" d="M15.6,131.9v-7.1h29.3v7.1H15.6z"/>
	<path fill="#FFFFFF" d="M56.6,132c0-4.2,3.2-7.6,7.4-9.2c-3.9-1.5-6.8-4.1-6.8-8.5c0-7.1,7.8-9.8,15-9.8s15,2.7,15,9.8
		c0,4.4-2.9,7-6.9,8.5c4.3,1.7,7.5,5.1,7.5,9.2c0,7.2-7.6,10.3-15.6,10.3S56.6,139.2,56.6,132z M78.1,130.7c0-2.2-3.6-3.4-5.9-3.6
		c-2.4,0.3-5.9,1.4-5.9,3.6c0,2,2.4,3.3,5.9,3.3C75.5,133.9,78.1,132.6,78.1,130.7z M77.4,115.8c0-1.9-2.1-3-5.3-3s-5.3,1.1-5.3,3
		c0,1.9,3.1,2.9,5.3,3.2C74.4,118.7,77.4,117.7,77.4,115.8z"/>
	<path fill="#FFFFFF" d="M87.8,123.3c0-9.7,5-18.9,15.7-18.9c10.7,0,15.7,9.2,15.7,18.9c0,9.7-5,19-15.7,19
		C92.8,142.3,87.8,133,87.8,123.3z M109.7,123.3c0-6.5-1.8-10.6-6.2-10.6s-6.2,4.1-6.2,10.6c0,6.5,1.8,10.6,6.2,10.6
		S109.7,129.8,109.7,123.3z"/>
	<path fill="#FFFFFF" d="M120.5,123.3c0-9.7,5-18.9,15.7-18.9c10.7,0,15.7,9.2,15.7,18.9c0,9.7-5,19-15.7,19
		C125.5,142.3,120.5,133,120.5,123.3z M142.4,123.3c0-6.5-1.8-10.6-6.2-10.6c-4.4,0-6.2,4.1-6.2,10.6c0,6.5,1.8,10.6,6.2,10.6
		C140.6,133.9,142.4,129.8,142.4,123.3z"/>
	<path fill="#FFFFFF" d="M49.3,189.6v-16.2c0-2-1-3.6-3.5-3.6c-2.3,0-4,1.5-4.8,2.6v17.2h-8.5v-16.2c0-2-0.9-3.6-3.5-3.6
		c-2.3,0-3.9,1.5-4.8,2.6v17.2h-8.5v-26.6h8.5v3.2c1.2-1.5,4.6-3.9,8.7-3.9c3.8,0,6.4,1.6,7.5,4.7c1.5-2.3,5-4.7,9.2-4.7
		c4.9,0,8,2.5,8,8v19.2H49.3z"/>
	<path fill="#FFFFFF" d="M61.3,155.8c0-2.7,2.1-4.8,4.8-4.8s4.9,2.1,4.9,4.8c0,2.7-2.2,4.9-4.9,4.9S61.3,158.5,61.3,155.8z
		 M61.9,189.6v-26.6h8.5v26.6H61.9z"/>
	<path fill="#FFFFFF" d="M74.5,189.6V153H83v36.7H74.5z"/>
	<path fill="#FFFFFF" d="M105.1,189.6v-15.5c0-3.2-1.7-4.3-4.4-4.3c-2.5,0-4.1,1.4-5.1,2.6v17.2h-8.5V153h8.5v13.4
		c1.6-1.9,4.7-3.9,9.2-3.9c6,0,8.8,3.4,8.8,8.3v18.9H105.1z"/>
	<path fill="#FFFFFF" d="M116,176.3c0-7.5,5.4-13.9,14.4-13.9c9.1,0,14.5,6.4,14.5,13.9s-5.4,14-14.5,14
		C121.4,190.3,116,183.8,116,176.3z M127.2,156.2c-0.9,0-1.7,0.8-1.7,2.7h-4.3c0-4.9,2.1-7.4,6.2-7.4c3.5,0,4.5,3,6.2,3
		c0.9,0,1.7-0.8,1.7-2.7h4.3c0,4.8-2.1,7.4-6.2,7.4C129.9,159.2,129,156.2,127.2,156.2z M136.3,176.3c0-3.5-2.1-6.4-5.8-6.4
		c-3.6,0-5.7,2.9-5.7,6.4c0,3.6,2.1,6.5,5.7,6.5C134.2,182.8,136.3,179.9,136.3,176.3z"/>
	<path fill="#FFFFFF" d="M145.7,176.3c0-7.7,5.8-13.9,14.1-13.9c7.9,0,13.6,5.8,13.6,14.8v1.9h-18.9c0.6,2.4,2.8,4.3,6.7,4.3
		c1.9,0,4.9-0.8,6.5-2.3l3.7,5.6c-2.6,2.4-7,3.5-11.1,3.5C151.9,190.3,145.7,185,145.7,176.3z M159.8,169.2c-3.7,0-5.1,2.2-5.4,4.1
		h10.9C165,171.5,163.7,169.2,159.8,169.2z"/>
	<path fill="#FFFFFF" d="M173.2,186.2l3.5-6c2,1.8,6.2,3.6,9.3,3.6c2.5,0,3.6-0.7,3.6-1.9c0-3.3-15.5,0.1-15.5-10.7
		c0-4.7,4.1-8.7,11.4-8.7c4.5,0,8.2,1.4,11.1,3.5l-3.2,6c-1.6-1.5-4.6-2.9-7.8-2.9c-2,0-3.3,0.8-3.3,1.8c0,2.9,15.4-0.1,15.4,10.8
		c0,5.1-4.5,8.7-12,8.7C180.9,190.3,176,188.7,173.2,186.2z"/>
	<path fill="#FFFFFF" d="M20.9,208.6v-1c-0.7,0.8-1.6,1.2-2.6,1.2c-2.1,0-3.8-1.6-3.8-4.6c0-2.8,1.7-4.6,3.8-4.6
		c1,0,1.9,0.4,2.6,1.2v-4.3h2.8v12H20.9z M20.9,205.6V203c-0.4-0.5-1.1-0.8-1.7-0.8c-1.1,0-1.9,0.8-1.9,2.1s0.8,2.1,1.9,2.1
		C19.8,206.4,20.5,206.1,20.9,205.6z"/>
	<path fill="#FFFFFF" d="M25.1,204.3c0-2.5,1.9-4.6,4.6-4.6c2.6,0,4.4,1.9,4.4,4.8v0.6H28c0.2,0.8,0.9,1.4,2.2,1.4
		c0.6,0,1.6-0.3,2.1-0.7l1.2,1.8c-0.9,0.8-2.3,1.2-3.6,1.2C27.1,208.9,25.1,207.1,25.1,204.3z M29.7,202c-1.2,0-1.7,0.7-1.8,1.3h3.6
		C31.4,202.7,31,202,29.7,202z"/>
	<path fill="#FFFFFF" d="M46,208.6v-1c-0.7,0.8-1.6,1.2-2.6,1.2c-2.1,0-3.8-1.6-3.8-4.6c0-2.8,1.7-4.6,3.8-4.6c1,0,1.9,0.4,2.6,1.2
		v-4.3h2.8v12H46z M46,205.6V203c-0.4-0.5-1.1-0.8-1.7-0.8c-1.1,0-1.9,0.8-1.9,2.1s0.8,2.1,1.9,2.1C44.9,206.4,45.6,206.1,46,205.6z
		"/>
	<path fill="#FFFFFF" d="M50.2,204.3c0-2.4,1.8-4.6,4.7-4.6c3,0,4.8,2.1,4.8,4.6s-1.8,4.6-4.8,4.6C52,208.9,50.2,206.7,50.2,204.3z
		 M56.8,204.3c0-1.2-0.7-2.1-1.9-2.1c-1.2,0-1.9,1-1.9,2.1c0,1.2,0.7,2.1,1.9,2.1C56.1,206.4,56.8,205.5,56.8,204.3z M55.2,198.6
		h-1.9l2.3-2.6H58L55.2,198.6z"/>
	<path fill="#FFFFFF" d="M61.1,208.6v-12h2.8v12H61.1z"/>
	<path fill="#FFFFFF" d="M71,208.6v-0.9c-0.5,0.6-1.6,1.1-2.7,1.1c-1.3,0-3-0.9-3-2.9c0-2.1,1.7-2.8,3-2.8c1.2,0,2.2,0.4,2.7,1v-0.9
		c0-0.8-0.6-1.3-1.8-1.3c-0.9,0-1.7,0.3-2.4,0.9l-1-1.9c1.1-1,2.6-1.4,3.9-1.4c2.1,0,4.1,0.8,4.1,3.5v5.4H71z M71,206.4v-0.8
		c-0.3-0.4-0.9-0.6-1.5-0.6c-0.7,0-1.4,0.3-1.4,1s0.7,1,1.4,1C70.1,207,70.8,206.8,71,206.4z"/>
	<path fill="#FFFFFF" d="M75.8,208.6V200h2.8v1.1c0.6-0.7,1.7-1.3,2.7-1.3v2.7c-0.2-0.1-0.4-0.1-0.7-0.1c-0.7,0-1.7,0.3-2,0.8v5.5
		H75.8z"/>
	<path fill="#FFFFFF" d="M82,204.3c0-2.5,1.9-4.6,4.6-4.6c2.6,0,4.4,1.9,4.4,4.8v0.6h-6.2c0.2,0.8,0.9,1.4,2.2,1.4
		c0.6,0,1.6-0.3,2.1-0.7l1.2,1.8c-0.9,0.8-2.3,1.2-3.6,1.2C84.1,208.9,82,207.1,82,204.3z M86.6,202c-1.2,0-1.7,0.7-1.8,1.3h3.6
		C88.4,202.7,87.9,202,86.6,202z"/>
	<path fill="#FFFFFF" d="M91.7,207.5l1.2-2c0.6,0.6,2,1.2,3.1,1.2c0.8,0,1.2-0.2,1.2-0.6c0-1.1-5.1,0-5.1-3.5c0-1.5,1.3-2.9,3.7-2.9
		c1.5,0,2.7,0.5,3.6,1.2l-1.1,2c-0.5-0.5-1.5-1-2.6-1c-0.6,0-1.1,0.3-1.1,0.6c0,1,5,0,5,3.5c0,1.7-1.5,2.8-3.9,2.8
		C94.2,208.9,92.6,208.3,91.7,207.5z"/>
	<path fill="#FFFFFF" d="M110.9,208.6v-0.9c-0.5,0.6-1.6,1.1-2.7,1.1c-1.3,0-3-0.9-3-2.9c0-2.1,1.7-2.8,3-2.8c1.2,0,2.2,0.4,2.7,1
		v-0.9c0-0.8-0.6-1.3-1.8-1.3c-0.9,0-1.7,0.3-2.4,0.9l-1-1.9c1.1-1,2.6-1.4,3.9-1.4c2.1,0,4.1,0.8,4.1,3.5v5.4H110.9z M110.9,206.4
		v-0.8c-0.3-0.4-0.9-0.6-1.5-0.6c-0.7,0-1.4,0.3-1.4,1s0.7,1,1.4,1C110,207,110.6,206.8,110.9,206.4z"/>
	<path fill="#FFFFFF" d="M126.6,208.6v-5.3c0-0.7-0.3-1.2-1.2-1.2c-0.8,0-1.3,0.5-1.6,0.8v5.6h-2.8v-5.3c0-0.7-0.3-1.2-1.1-1.2
		c-0.8,0-1.3,0.5-1.6,0.8v5.6h-2.8V200h2.8v1.1c0.4-0.5,1.5-1.3,2.9-1.3c1.3,0,2.1,0.5,2.5,1.5c0.5-0.8,1.6-1.5,3-1.5
		c1.6,0,2.6,0.8,2.6,2.6v6.3H126.6z"/>
	<path fill="#FFFFFF" d="M130.9,204.3c0-2.5,1.9-4.6,4.6-4.6c2.6,0,4.4,1.9,4.4,4.8v0.6h-6.2c0.2,0.8,0.9,1.4,2.2,1.4
		c0.6,0,1.6-0.3,2.1-0.7l1.2,1.8c-0.9,0.8-2.3,1.2-3.6,1.2C132.9,208.9,130.9,207.1,130.9,204.3z M135.5,202c-1.2,0-1.7,0.7-1.8,1.3
		h3.6C137.2,202.7,136.8,202,135.5,202z"/>
	<path fill="#FFFFFF" d="M141.3,208.6V200h2.8v1.1c0.6-0.7,1.7-1.3,2.7-1.3v2.7c-0.2-0.1-0.4-0.1-0.7-0.1c-0.7,0-1.7,0.3-2,0.8v5.5
		H141.3z"/>
	<path fill="#FFFFFF" d="M147.8,197.6c0-0.9,0.7-1.6,1.6-1.6c0.9,0,1.6,0.7,1.6,1.6c0,0.9-0.7,1.6-1.6,1.6
		C148.6,199.2,147.8,198.5,147.8,197.6z M148,208.6V200h2.8v8.7H148z"/>
	<path fill="#FFFFFF" d="M152.3,204.3c0-2.7,2-4.6,4.7-4.6c1.9,0,3,0.8,3.6,1.6l-1.8,1.7c-0.3-0.5-0.9-0.8-1.6-0.8
		c-1.2,0-2,0.8-2,2.1s0.9,2.1,2,2.1c0.7,0,1.3-0.4,1.6-0.8l1.8,1.7c-0.5,0.8-1.7,1.6-3.6,1.6C154.3,208.9,152.3,207,152.3,204.3z"/>
	<path fill="#FFFFFF" d="M167,208.6v-0.9c-0.5,0.6-1.6,1.1-2.7,1.1c-1.3,0-3-0.9-3-2.9c0-2.1,1.7-2.8,3-2.8c1.2,0,2.2,0.4,2.7,1
		v-0.9c0-0.8-0.6-1.3-1.8-1.3c-0.9,0-1.7,0.3-2.4,0.9l-1-1.9c1.1-1,2.6-1.4,3.9-1.4c2.1,0,4.1,0.8,4.1,3.5v5.4H167z M167,206.4v-0.8
		c-0.3-0.4-0.9-0.6-1.5-0.6c-0.7,0-1.4,0.3-1.4,1s0.7,1,1.4,1C166,207,166.7,206.8,167,206.4z"/>
	<path fill="#FFFFFF" d="M177.6,208.6v-5c0-1.1-0.6-1.4-1.4-1.4c-0.8,0-1.4,0.5-1.7,0.8v5.6h-2.8V200h2.8v1.1c0.5-0.6,1.5-1.3,3-1.3
		c2,0,2.9,1.2,2.9,2.8v6.2H177.6z"/>
	<path fill="#FFFFFF" d="M181.9,204.3c0-2.4,1.8-4.6,4.7-4.6c3,0,4.8,2.1,4.8,4.6s-1.8,4.6-4.8,4.6
		C183.6,208.9,181.9,206.7,181.9,204.3z M188.5,204.3c0-1.2-0.7-2.1-1.9-2.1c-1.2,0-1.9,1-1.9,2.1c0,1.2,0.7,2.1,1.9,2.1
		C187.8,206.4,188.5,205.5,188.5,204.3z"/>
	<path fill="#FFFFFF" d="M192.1,207.5l1.2-2c0.6,0.6,2,1.2,3.1,1.2c0.8,0,1.2-0.2,1.2-0.6c0-1.1-5.1,0-5.1-3.5
		c0-1.5,1.3-2.9,3.7-2.9c1.5,0,2.7,0.5,3.6,1.2l-1.1,2c-0.5-0.5-1.5-1-2.6-1c-0.6,0-1.1,0.3-1.1,0.6c0,1,5,0,5,3.5
		c0,1.7-1.5,2.8-3.9,2.8C194.6,208.9,193,208.3,192.1,207.5z"/>
	<path fill="#FFFFFF" d="M20.9,227.6v-1c-0.7,0.8-1.6,1.2-2.6,1.2c-2.1,0-3.8-1.6-3.8-4.6c0-2.8,1.7-4.6,3.8-4.6
		c1,0,1.9,0.4,2.6,1.2v-4.3h2.8v12H20.9z M20.9,224.6V222c-0.4-0.5-1.1-0.8-1.7-0.8c-1.1,0-1.9,0.8-1.9,2.1s0.8,2.1,1.9,2.1
		C19.8,225.4,20.5,225.1,20.9,224.6z"/>
	<path fill="#FFFFFF" d="M25.1,223.3c0-2.5,1.9-4.6,4.6-4.6c2.6,0,4.4,1.9,4.4,4.8v0.6H28c0.2,0.8,0.9,1.4,2.2,1.4
		c0.6,0,1.6-0.3,2.1-0.7l1.2,1.8c-0.9,0.8-2.3,1.2-3.6,1.2C27.1,227.9,25.1,226.1,25.1,223.3z M29.7,221c-1.2,0-1.7,0.7-1.8,1.3h3.6
		C31.4,221.7,31,221,29.7,221z"/>
	<path fill="#FFFFFF" d="M40.7,227.6v-6.3h-1.4V219h1.4v-0.2c0-2.1,1.3-3.3,3.1-3.3c0.9,0,1.9,0.3,2.5,0.8l-1,1.7
		c-0.2-0.2-0.5-0.3-0.9-0.3c-0.5,0-0.9,0.3-0.9,1.1v0.2h1.8v2.4h-1.8v6.3H40.7z"/>
	<path fill="#FFFFFF" d="M52.3,227.6v-1c-0.5,0.6-1.5,1.3-3,1.3c-2,0-2.9-1.1-2.9-2.7V219h2.8v5c0,1.1,0.5,1.4,1.4,1.4
		c0.8,0,1.3-0.4,1.7-0.8V219H55v8.7H52.3z"/>
	<path fill="#FFFFFF" d="M62.9,227.6v-5c0-1.1-0.6-1.4-1.4-1.4c-0.8,0-1.4,0.5-1.7,0.8v5.6h-2.8V219h2.8v1.1c0.5-0.6,1.5-1.3,3-1.3
		c2,0,2.9,1.2,2.9,2.8v6.2H62.9z"/>
	<path fill="#FFFFFF" d="M73.6,227.6v-1c-0.7,0.8-1.6,1.2-2.6,1.2c-2.1,0-3.8-1.6-3.8-4.6c0-2.8,1.7-4.6,3.8-4.6
		c1,0,1.9,0.4,2.6,1.2v-4.3h2.8v12H73.6z M73.6,224.6V222c-0.4-0.5-1.1-0.8-1.7-0.8c-1.1,0-1.9,0.8-1.9,2.1s0.8,2.1,1.9,2.1
		C72.5,225.4,73.2,225.1,73.6,224.6z"/>
	<path fill="#FFFFFF" d="M77.8,223.3c0-2.4,1.8-4.6,4.7-4.6c3,0,4.8,2.1,4.8,4.6s-1.8,4.6-4.8,4.6C79.6,227.9,77.8,225.7,77.8,223.3
		z M84.4,223.3c0-1.2-0.7-2.1-1.9-2.1c-1.2,0-1.9,1-1.9,2.1c0,1.2,0.7,2.1,1.9,2.1C83.8,225.4,84.4,224.5,84.4,223.3z"/>
	<path fill="#FFFFFF" d="M88,226.5l1.2-2c0.6,0.6,2,1.2,3.1,1.2c0.8,0,1.2-0.2,1.2-0.6c0-1.1-5.1,0-5.1-3.5c0-1.5,1.3-2.9,3.7-2.9
		c1.5,0,2.7,0.5,3.6,1.2l-1.1,2c-0.5-0.5-1.5-1-2.6-1c-0.6,0-1.1,0.3-1.1,0.6c0,1,5,0,5,3.5c0,1.7-1.5,2.8-3.9,2.8
		C90.5,227.9,88.9,227.3,88,226.5z"/>
	<path fill="#FFFFFF" d="M101.5,223.3c0-2.7,2-4.6,4.7-4.6c1.9,0,3,0.8,3.6,1.6L108,222c-0.3-0.5-0.9-0.8-1.6-0.8
		c-1.2,0-2,0.8-2,2.1s0.9,2.1,2,2.1c0.7,0,1.3-0.4,1.6-0.8l1.8,1.7c-0.5,0.8-1.7,1.6-3.6,1.6C103.5,227.9,101.5,226,101.5,223.3z"/>
	<path fill="#FFFFFF" d="M110.5,223.3c0-2.4,1.8-4.6,4.7-4.6c3,0,4.8,2.1,4.8,4.6s-1.8,4.6-4.8,4.6
		C112.3,227.9,110.5,225.7,110.5,223.3z M117.1,223.3c0-1.2-0.7-2.1-1.9-2.1c-1.2,0-1.9,1-1.9,2.1c0,1.2,0.7,2.1,1.9,2.1
		C116.4,225.4,117.1,224.5,117.1,223.3z"/>
	<path fill="#FFFFFF" d="M132.4,227.6v-5.3c0-0.7-0.3-1.2-1.2-1.2c-0.8,0-1.3,0.5-1.6,0.8v5.6h-2.8v-5.3c0-0.7-0.3-1.2-1.1-1.2
		c-0.8,0-1.3,0.5-1.6,0.8v5.6h-2.8V219h2.8v1.1c0.4-0.5,1.5-1.3,2.9-1.3c1.3,0,2.1,0.5,2.5,1.5c0.5-0.8,1.6-1.5,3-1.5
		c1.6,0,2.6,0.8,2.6,2.6v6.3H132.4z"/>
	<path fill="#FFFFFF" d="M147.7,227.6v-1c-0.5,0.6-1.5,1.3-3,1.3c-2,0-2.9-1.1-2.9-2.7V219h2.8v5c0,1.1,0.5,1.4,1.4,1.4
		c0.8,0,1.3-0.4,1.7-0.8V219h2.8v8.7H147.7z"/>
	<path fill="#FFFFFF" d="M152.4,227.6V219h2.8v1.1c0.6-0.7,1.7-1.3,2.7-1.3v2.7c-0.2-0.1-0.4-0.1-0.7-0.1c-0.7,0-1.7,0.3-2,0.8v5.5
		H152.4z"/>
	<path fill="#FFFFFF" d="M159,229.9l1.2-1.9c0.7,0.7,1.6,1,2.6,1c0.9,0,2.2-0.4,2.2-2.1v-0.7c-0.7,0.9-1.6,1.3-2.6,1.3
		c-2.1,0-3.8-1.5-3.8-4.4c0-2.9,1.6-4.4,3.8-4.4c1,0,1.9,0.4,2.6,1.2v-1h2.8v7.9c0,3.5-2.8,4.3-5,4.3
		C161.3,231.2,160.1,230.8,159,229.9z M165,224.3V222c-0.3-0.5-1.1-0.8-1.7-0.8c-1.1,0-1.9,0.7-1.9,1.9c0,1.3,0.8,1.9,1.9,1.9
		C163.9,225.1,164.7,224.8,165,224.3z"/>
	<path fill="#FFFFFF" d="M169.2,223.3c0-2.5,1.9-4.6,4.6-4.6c2.6,0,4.4,1.9,4.4,4.8v0.6h-6.2c0.2,0.8,0.9,1.4,2.2,1.4
		c0.6,0,1.6-0.3,2.1-0.7l1.2,1.8c-0.9,0.8-2.3,1.2-3.6,1.2C171.3,227.9,169.2,226.1,169.2,223.3z M175.1,217.6l-1.2-1.5l-1.2,1.5
		H171l1.6-2.6h2.4l1.7,2.6H175.1z M173.9,221c-1.2,0-1.7,0.7-1.8,1.3h3.6C175.6,221.7,175.1,221,173.9,221z"/>
	<path fill="#FFFFFF" d="M185.6,227.6v-5c0-1.1-0.6-1.4-1.4-1.4c-0.8,0-1.4,0.5-1.7,0.8v5.6h-2.8V219h2.8v1.1c0.5-0.6,1.5-1.3,3-1.3
		c2,0,2.9,1.2,2.9,2.8v6.2H185.6z"/>
	<path fill="#FFFFFF" d="M189.8,223.3c0-2.7,2-4.6,4.7-4.6c1.9,0,3,0.8,3.6,1.6l-1.8,1.7c-0.3-0.5-0.9-0.8-1.6-0.8
		c-1.2,0-2,0.8-2,2.1s0.9,2.1,2,2.1c0.7,0,1.3-0.4,1.6-0.8l1.8,1.7c-0.5,0.8-1.7,1.6-3.6,1.6C191.8,227.9,189.8,226,189.8,223.3z"/>
	<path fill="#FFFFFF" d="M199.1,216.6c0-0.9,0.7-1.6,1.6-1.6s1.6,0.7,1.6,1.6c0,0.9-0.7,1.6-1.6,1.6S199.1,217.5,199.1,216.6z
		 M199.3,227.6V219h2.8v8.7H199.3z"/>
	<path fill="#FFFFFF" d="M209.3,227.6v-0.9c-0.5,0.6-1.6,1.1-2.7,1.1c-1.3,0-3-0.9-3-2.9c0-2.1,1.7-2.8,3-2.8c1.2,0,2.2,0.4,2.7,1
		v-0.9c0-0.8-0.6-1.3-1.8-1.3c-0.9,0-1.7,0.3-2.4,0.9l-1-1.9c1.1-1,2.6-1.4,3.9-1.4c2.1,0,4.1,0.8,4.1,3.5v5.4H209.3z M209.3,225.4
		v-0.8c-0.3-0.4-0.9-0.6-1.5-0.6c-0.7,0-1.4,0.3-1.4,1s0.7,1,1.4,1C208.3,226,209,225.8,209.3,225.4z"/>
</g>
<g>
	<path fill="#FFFFFF" d="M15.7,46l1.6-2.4c0.9,0.9,2.2,1.6,3.9,1.6c1,0,1.7-0.4,1.7-1c0-1.6-6.8-0.3-6.8-4.9c0-2,1.7-3.8,4.8-3.8
		c1.9,0,3.6,0.6,4.9,1.7l-1.7,2.3c-1-0.8-2.3-1.3-3.5-1.3c-0.9,0-1.3,0.3-1.3,0.8c0,1.5,6.8,0.4,6.8,4.8c0,2.4-1.8,4-5,4
		C18.6,47.9,16.9,47.1,15.7,46z"/>
	<path fill="#FFFFFF" d="M32.6,47.7v-0.9c-0.5,0.6-1.6,1.1-2.7,1.1c-1.3,0-3-0.9-3-2.9c0-2.1,1.7-2.8,3-2.8c1.2,0,2.2,0.4,2.7,1
		v-0.9c0-0.8-0.6-1.3-1.8-1.3c-0.9,0-1.7,0.3-2.4,0.9l-1-1.9c1.1-1,2.6-1.4,3.9-1.4c2.1,0,4.1,0.8,4.1,3.5v5.4H32.6z M30.3,36.7
		c-0.3,0-0.5,0.3-0.5,0.9h-1.4c0-1.6,0.7-2.4,2-2.4c1.2,0,1.5,1,2,1c0.3,0,0.5-0.3,0.5-0.9h1.4c0,1.6-0.7,2.4-2,2.4
		C31.2,37.7,30.9,36.7,30.3,36.7z M32.6,45.4v-0.8c-0.3-0.4-0.9-0.6-1.5-0.6c-0.7,0-1.4,0.3-1.4,1s0.7,1,1.4,1
		C31.6,46.1,32.3,45.9,32.6,45.4z"/>
	<path fill="#FFFFFF" d="M36.8,43.3c0-2.4,1.8-4.6,4.7-4.6c3,0,4.8,2.1,4.8,4.6s-1.8,4.6-4.8,4.6C38.6,47.9,36.8,45.8,36.8,43.3z
		 M43.4,43.3c0-1.2-0.7-2.1-1.9-2.1c-1.2,0-1.9,1-1.9,2.1c0,1.2,0.7,2.1,1.9,2.1C42.7,45.4,43.4,44.5,43.4,43.3z"/>
	<path fill="#FFFFFF" d="M58.2,47.7v-5c0-1.1-0.6-1.4-1.4-1.4c-0.8,0-1.4,0.5-1.7,0.8v5.6h-2.8V39h2.8V40c0.5-0.6,1.5-1.3,3-1.3
		c2,0,2.9,1.2,2.9,2.8v6.2H58.2z"/>
	<path fill="#FFFFFF" d="M62.4,43.3c0-2.5,1.9-4.6,4.6-4.6c2.6,0,4.4,1.9,4.4,4.8v0.6h-6.2c0.2,0.8,0.9,1.4,2.2,1.4
		c0.6,0,1.6-0.3,2.1-0.7l1.2,1.8c-0.9,0.8-2.3,1.2-3.6,1.2C64.5,47.9,62.4,46.1,62.4,43.3z M67.1,41c-1.2,0-1.7,0.7-1.8,1.4h3.6
		C68.8,41.7,68.3,41,67.1,41z"/>
	<path fill="#FFFFFF" d="M72.3,43.3c0-2.7,2-4.6,4.7-4.6c1.9,0,3,0.8,3.6,1.6L78.8,42c-0.3-0.5-0.9-0.8-1.6-0.8c-1.2,0-2,0.8-2,2.1
		s0.9,2.1,2,2.1c0.7,0,1.3-0.4,1.6-0.8l1.8,1.7c-0.5,0.8-1.7,1.6-3.6,1.6C74.3,47.9,72.3,46,72.3,43.3z"/>
	<path fill="#FFFFFF" d="M81.3,43.3c0-2.5,1.9-4.6,4.6-4.6c2.6,0,4.4,1.9,4.4,4.8v0.6h-6.2c0.2,0.8,0.9,1.4,2.2,1.4
		c0.6,0,1.6-0.3,2.1-0.7l1.2,1.8c-0.9,0.8-2.3,1.2-3.6,1.2C83.4,47.9,81.3,46.1,81.3,43.3z M85.9,41c-1.2,0-1.7,0.7-1.8,1.4h3.6
		C87.6,41.7,87.2,41,85.9,41z"/>
	<path fill="#FFFFFF" d="M91,46.5l1.2-2c0.6,0.6,2,1.2,3.1,1.2c0.8,0,1.2-0.2,1.2-0.6c0-1.1-5.1,0-5.1-3.5c0-1.5,1.3-2.9,3.7-2.9
		c1.5,0,2.7,0.5,3.6,1.2l-1.1,2c-0.5-0.5-1.5-1-2.6-1c-0.6,0-1.1,0.3-1.1,0.6c0,1,5,0,5,3.5c0,1.7-1.5,2.8-3.9,2.8
		C93.5,47.9,91.9,47.4,91,46.5z"/>
	<path fill="#FFFFFF" d="M99.7,46.5l1.2-2c0.6,0.6,2,1.2,3.1,1.2c0.8,0,1.2-0.2,1.2-0.6c0-1.1-5.1,0-5.1-3.5c0-1.5,1.3-2.9,3.7-2.9
		c1.5,0,2.7,0.5,3.6,1.2l-1.1,2c-0.5-0.5-1.5-1-2.6-1c-0.6,0-1.1,0.3-1.1,0.6c0,1,5,0,5,3.5c0,1.7-1.5,2.8-3.9,2.8
		C102.2,47.9,100.6,47.4,99.7,46.5z"/>
	<path fill="#FFFFFF" d="M114.3,47.7v-0.9c-0.5,0.6-1.6,1.1-2.7,1.1c-1.3,0-3-0.9-3-2.9c0-2.1,1.7-2.8,3-2.8c1.2,0,2.2,0.4,2.7,1
		v-0.9c0-0.8-0.6-1.3-1.8-1.3c-0.9,0-1.7,0.3-2.4,0.9l-1-1.9c1.1-1,2.6-1.4,3.9-1.4c2.1,0,4.1,0.8,4.1,3.5v5.4H114.3z M114.3,45.4
		v-0.8c-0.3-0.4-0.9-0.6-1.5-0.6c-0.7,0-1.4,0.3-1.4,1s0.7,1,1.4,1C113.3,46.1,114,45.9,114.3,45.4z M113.4,37.7h-1.9l2.3-2.6h2.4
		L113.4,37.7z"/>
	<path fill="#FFFFFF" d="M119.1,47.7V39h2.8V40c0.6-0.7,1.7-1.3,2.7-1.3v2.7c-0.2-0.1-0.4-0.1-0.7-0.1c-0.7,0-1.7,0.3-2,0.8v5.5
		H119.1z"/>
	<path fill="#FFFFFF" d="M125.6,36.6c0-0.9,0.7-1.6,1.6-1.6c0.9,0,1.6,0.7,1.6,1.6s-0.7,1.6-1.6,1.6
		C126.3,38.2,125.6,37.5,125.6,36.6z M125.8,47.7V39h2.8v8.7H125.8z"/>
	<path fill="#FFFFFF" d="M130.1,43.3c0-2.4,1.8-4.6,4.7-4.6c3,0,4.8,2.1,4.8,4.6s-1.8,4.6-4.8,4.6C131.8,47.9,130.1,45.8,130.1,43.3
		z M136.7,43.3c0-1.2-0.7-2.1-1.9-2.1c-1.2,0-1.9,1-1.9,2.1c0,1.2,0.7,2.1,1.9,2.1C136,45.4,136.7,44.5,136.7,43.3z"/>
	<path fill="#FFFFFF" d="M140.2,46.5l1.2-2c0.6,0.6,2,1.2,3.1,1.2c0.8,0,1.2-0.2,1.2-0.6c0-1.1-5.1,0-5.1-3.5c0-1.5,1.3-2.9,3.7-2.9
		c1.5,0,2.7,0.5,3.6,1.2l-1.1,2c-0.5-0.5-1.5-1-2.6-1c-0.6,0-1.1,0.3-1.1,0.6c0,1,5,0,5,3.5c0,1.7-1.5,2.8-3.9,2.8
		C142.8,47.9,141.2,47.4,140.2,46.5z"/>
</g>
<g>
	<path fill="#FFFFFF" d="M15.8,22.7v-6.7h4.9v1.5h-3.2v1h3.1v1.5h-3.1v1.1h3.2v1.5H15.8z"/>
	<path fill="#FFFFFF" d="M21.2,21.8l0.9-1.3c0.5,0.5,1.2,0.9,2.1,0.9c0.6,0,0.9-0.2,0.9-0.5c0-0.9-3.8-0.2-3.8-2.7
		c0-1.1,0.9-2.1,2.6-2.1c1.1,0,2,0.3,2.7,0.9l-0.9,1.3c-0.6-0.5-1.3-0.7-1.9-0.7c-0.5,0-0.7,0.2-0.7,0.5c0,0.8,3.8,0.2,3.8,2.7
		c0,1.3-1,2.2-2.8,2.2C22.8,22.9,21.9,22.4,21.2,21.8z"/>
	<path fill="#FFFFFF" d="M29.1,22.7v-5.2h-1.9v-1.5h5.4v1.5h-1.9v5.2H29.1z"/>
	<path fill="#FFFFFF" d="M33.5,22.7v-6.7h1.7v6.7H33.5z"/>
	<path fill="#FFFFFF" d="M42.2,22.7v-4.4l-1.7,4.4h-0.8l-1.7-4.4v4.4h-1.7v-6.7h2.4l1.4,3.7l1.4-3.7H44v6.7H42.2z"/>
	<path fill="#FFFFFF" d="M49.7,22.7l-0.3-1h-2.6l-0.3,1h-1.9l2.5-6.7h2.2l2.5,6.7H49.7z M48.1,17.8l-0.8,2.5h1.7L48.1,17.8z"/>
	<path fill="#FFFFFF" d="M52.1,22.7v-6.7h2.8c2.1,0,3.6,1.3,3.6,3.3s-1.5,3.3-3.6,3.3H52.1z M56.8,19.4c0-1-0.6-1.8-1.8-1.8h-1.1
		v3.7h1.1C56.1,21.2,56.8,20.4,56.8,19.4z"/>
	<path fill="#FFFFFF" d="M59.1,19.4c0-2,1.5-3.4,3.6-3.4c2,0,3.6,1.4,3.6,3.4s-1.5,3.4-3.6,3.4C60.6,22.9,59.1,21.4,59.1,19.4z
		 M64.4,19.4c0-1.1-0.7-1.9-1.8-1.9c-1.1,0-1.8,0.8-1.8,1.9c0,1.1,0.7,1.9,1.8,1.9C63.7,21.3,64.4,20.5,64.4,19.4z"/>
	<path fill="#FFFFFF" d="M66.6,21.8l0.9-1.3c0.5,0.5,1.2,0.9,2.1,0.9c0.6,0,0.9-0.2,0.9-0.5c0-0.9-3.8-0.2-3.8-2.7
		c0-1.1,0.9-2.1,2.6-2.1c1.1,0,2,0.3,2.7,0.9l-0.9,1.3c-0.6-0.5-1.3-0.7-1.9-0.7c-0.5,0-0.7,0.2-0.7,0.5c0,0.8,3.8,0.2,3.8,2.7
		c0,1.3-1,2.2-2.8,2.2C68.2,22.9,67.3,22.4,66.6,21.8z"/>
	<path fill="#FFFFFF" d="M72.9,18.8c0-0.5,0.4-0.9,0.9-0.9s0.9,0.4,0.9,0.9s-0.4,0.9-0.9,0.9S72.9,19.3,72.9,18.8z M72.9,21.9
		c0-0.5,0.4-0.9,0.9-0.9s0.9,0.4,0.9,0.9c0,0.5-0.4,0.9-0.9,0.9S72.9,22.4,72.9,21.9z"/>
</g>
</svg>
