<?xml version="1.0" encoding="utf-8"?>
<!-- Generator: Adobe Illustrator 19.0.0, SVG Export Plug-In . SVG Version: 6.00 Build 0)  -->
<svg version="1.1" id="Layer_1" xmlns="http://www.w3.org/2000/svg" xmlns:xlink="http://www.w3.org/1999/xlink" x="0px" y="0px"
	 viewBox="0 0 220 256.7" style="enable-background:new 0 0 220 256.7;" xml:space="preserve">
<style type="text/css">
	.st0{fill:#259AD6;}
	.st1{fill:#FFFFFF;}
</style>
<rect x="0" class="st0" width="220" height="256.7"/>
<g>
	<path class="st1" d="M16,57.2V35.4h9.6v21.5c0,4.3,2.6,7.5,7.8,7.5c5.1,0,7.7-3.1,7.7-7.5V35.4h9.6v21.8c0,9.1-5.5,15.6-17.3,15.6
		S16,66.2,16,57.2z"/>
	<path class="st1" d="M51.9,66.9l5-7.4c2.6,2.6,6.7,4.8,11.8,4.8c3.2,0,5.2-1.1,5.2-2.9c0-4.8-20.7-0.8-20.7-15
		c0-6.2,5.2-11.7,14.6-11.7c5.9,0,11,1.8,14.9,5.1L77.4,47c-3.1-2.6-7.1-3.8-10.7-3.8c-2.8,0-4,0.9-4,2.5c0,4.5,20.7,1.1,20.7,14.7
		c0,7.4-5.4,12.3-15.3,12.3C60.8,72.7,55.6,70.3,51.9,66.9z"/>
	<path class="st1" d="M96.3,72.5c-5.8-0.6-10.1-2.7-13.2-5.7l5-7.4c2,2,4.8,3.7,8.2,4.5v-6.1c-5.7-1.3-12-3.6-12-11.4
		c0-5.6,4.2-10.6,12-11.5v-5.2h6.1V35c4.4,0.6,8.2,2.3,11.4,4.9l-5.2,7.1c-1.9-1.5-4-2.6-6.2-3.2v5.3c5.7,1.3,12.3,3.6,12.3,11.3
		c0,6.6-4.3,11.2-12.3,12.1v5h-6.1V72.5z M96.3,47.7v-4.4c-1.6,0.3-2.4,1.2-2.4,2.4C94,46.7,94.9,47.3,96.3,47.7z M102.4,59.2v4.8
		c1.6-0.4,2.6-1.4,2.6-2.6C105.1,60.4,104,59.7,102.4,59.2z"/>
	<path class="st1" d="M120,72l12.4-28.4h-17.9v-8.2h28.8v6.5L130.4,72H120z"/>
	<path class="st1" d="M142.9,53.7c0-9.7,5-18.9,15.7-18.9c10.7,0,15.7,9.2,15.7,18.9s-5,19-15.7,19
		C147.9,72.7,142.9,63.4,142.9,53.7z M164.8,53.7c0-6.5-1.8-10.6-6.2-10.6c-4.4,0-6.2,4.1-6.2,10.6s1.8,10.6,6.2,10.6
		C163.1,64.3,164.8,60.2,164.8,53.7z"/>
	<path class="st1" d="M175.6,53.7c0-9.7,5-18.9,15.7-18.9c10.7,0,15.7,9.2,15.7,18.9s-5,19-15.7,19
		C180.6,72.7,175.6,63.4,175.6,53.7z M197.5,53.7c0-6.5-1.8-10.6-6.2-10.6c-4.4,0-6.2,4.1-6.2,10.6s1.8,10.6,6.2,10.6
		C195.7,64.3,197.5,60.2,197.5,53.7z"/>
	<path class="st1" d="M15.6,110.3v-7.1h29.3v7.1H15.6z"/>
	<path class="st1" d="M56.6,110.4c0-4.2,3.2-7.6,7.4-9.2c-3.9-1.5-6.8-4.1-6.8-8.5c0-7.1,7.8-9.8,15-9.8s15,2.7,15,9.8
		c0,4.4-2.9,7-6.9,8.5c4.3,1.7,7.5,5.1,7.5,9.2c0,7.1-7.6,10.3-15.6,10.3S56.6,117.6,56.6,110.4z M78.1,109c0-2.2-3.6-3.4-5.9-3.6
		c-2.4,0.3-5.9,1.4-5.9,3.6c0,2,2.4,3.3,5.9,3.3C75.5,112.3,78.1,111,78.1,109z M77.4,94.2c0-1.9-2.1-3-5.3-3s-5.3,1.1-5.3,3
		c0,1.9,3.1,2.9,5.3,3.2C74.4,97.1,77.4,96.1,77.4,94.2z"/>
	<path class="st1" d="M87.8,101.7c0-9.7,5-18.9,15.7-18.9c10.7,0,15.7,9.2,15.7,18.9s-5,19-15.7,19
		C92.8,120.7,87.8,111.4,87.8,101.7z M109.7,101.7c0-6.5-1.8-10.6-6.2-10.6s-6.2,4.1-6.2,10.6s1.8,10.6,6.2,10.6
		S109.7,108.2,109.7,101.7z"/>
	<path class="st1" d="M120.5,101.7c0-9.7,5-18.9,15.7-18.9c10.7,0,15.7,9.2,15.7,18.9s-5,19-15.7,19
		C125.5,120.7,120.5,111.4,120.5,101.7z M142.4,101.7c0-6.5-1.8-10.6-6.2-10.6c-4.4,0-6.2,4.1-6.2,10.6s1.8,10.6,6.2,10.6
		C140.6,112.3,142.4,108.2,142.4,101.7z"/>
	<path class="st1" d="M49.3,168v-16.2c0-2-1-3.6-3.5-3.6c-2.3,0-4,1.5-4.8,2.6V168h-8.5v-16.2c0-2-0.9-3.6-3.5-3.6
		c-2.3,0-3.9,1.5-4.8,2.6V168h-8.5v-26.6h8.5v3.2c1.2-1.5,4.6-3.9,8.7-3.9c3.8,0,6.4,1.6,7.5,4.7c1.5-2.3,5-4.7,9.2-4.7
		c4.9,0,8,2.5,8,8V168H49.3z"/>
	<path class="st1" d="M61.3,134.2c0-2.7,2.1-4.8,4.8-4.8s4.9,2.1,4.9,4.8c0,2.7-2.2,4.9-4.9,4.9S61.3,136.9,61.3,134.2z M61.9,168
		v-26.6h8.5V168H61.9z"/>
	<path class="st1" d="M74.5,168v-36.7H83V168H74.5z"/>
	<path class="st1" d="M105.1,168v-15.5c0-3.2-1.7-4.3-4.4-4.3c-2.5,0-4.1,1.4-5.1,2.6V168h-8.5v-36.7h8.5v13.4
		c1.6-1.9,4.7-3.9,9.2-3.9c6,0,8.8,3.4,8.8,8.3V168H105.1z"/>
	<path class="st1" d="M116,154.7c0-7.5,5.4-13.9,14.4-13.9c9.1,0,14.5,6.4,14.5,13.9c0,7.5-5.4,14-14.5,14
		C121.4,168.7,116,162.2,116,154.7z M127.2,134.6c-0.9,0-1.7,0.8-1.7,2.7h-4.3c0-4.9,2.1-7.4,6.2-7.4c3.5,0,4.5,3,6.2,3
		c0.9,0,1.7-0.8,1.7-2.7h4.3c0,4.8-2.1,7.4-6.2,7.4C129.9,137.6,129,134.6,127.2,134.6z M136.3,154.7c0-3.5-2.1-6.4-5.8-6.4
		c-3.6,0-5.7,2.9-5.7,6.4c0,3.6,2.1,6.5,5.7,6.5C134.2,161.2,136.3,158.3,136.3,154.7z"/>
	<path class="st1" d="M145.7,154.7c0-7.7,5.8-13.9,14.1-13.9c7.9,0,13.6,5.8,13.6,14.8v1.9h-18.9c0.6,2.4,2.8,4.3,6.7,4.3
		c1.9,0,4.9-0.8,6.5-2.3l3.7,5.6c-2.6,2.4-7,3.5-11.1,3.5C151.9,168.7,145.7,163.4,145.7,154.7z M159.8,147.6
		c-3.7,0-5.1,2.2-5.4,4.1h10.9C165,149.9,163.7,147.6,159.8,147.6z"/>
	<path class="st1" d="M173.2,164.6l3.5-6c2,1.8,6.2,3.6,9.3,3.6c2.5,0,3.6-0.7,3.6-1.9c0-3.3-15.5,0.1-15.5-10.7
		c0-4.7,4.1-8.7,11.4-8.7c4.5,0,8.2,1.4,11.1,3.5l-3.2,6c-1.6-1.5-4.6-2.9-7.8-2.9c-2,0-3.3,0.8-3.3,1.8c0,2.9,15.4-0.1,15.4,10.8
		c0,5.1-4.5,8.7-12,8.7C180.9,168.7,176,167.1,173.2,164.6z"/>
	<path class="st1" d="M20.9,187v-1c-0.7,0.8-1.6,1.2-2.6,1.2c-2.1,0-3.8-1.6-3.8-4.6c0-2.8,1.7-4.6,3.8-4.6c1,0,1.9,0.4,2.6,1.2V175
		h2.8v12H20.9z M20.9,184v-2.7c-0.4-0.5-1.1-0.8-1.7-0.8c-1.1,0-1.9,0.8-1.9,2.1c0,1.3,0.8,2.1,1.9,2.1
		C19.8,184.8,20.5,184.5,20.9,184z"/>
	<path class="st1" d="M25.1,182.7c0-2.5,1.9-4.6,4.6-4.6c2.6,0,4.4,1.9,4.4,4.8v0.6H28c0.2,0.8,0.9,1.4,2.2,1.4
		c0.6,0,1.6-0.3,2.1-0.7l1.2,1.8c-0.9,0.8-2.3,1.2-3.6,1.2C27.1,187.3,25.1,185.5,25.1,182.7z M29.7,180.4c-1.2,0-1.7,0.7-1.8,1.3
		h3.6C31.4,181.1,31,180.4,29.7,180.4z"/>
	<path class="st1" d="M46,187v-1c-0.7,0.8-1.6,1.2-2.6,1.2c-2.1,0-3.8-1.6-3.8-4.6c0-2.8,1.7-4.6,3.8-4.6c1,0,1.9,0.4,2.6,1.2V175
		h2.8v12H46z M46,184v-2.7c-0.4-0.5-1.1-0.8-1.7-0.8c-1.1,0-1.9,0.8-1.9,2.1c0,1.3,0.8,2.1,1.9,2.1C44.9,184.8,45.6,184.5,46,184z"
		/>
	<path class="st1" d="M50.2,182.7c0-2.4,1.8-4.6,4.7-4.6c3,0,4.8,2.1,4.8,4.6c0,2.4-1.8,4.6-4.8,4.6C52,187.3,50.2,185.1,50.2,182.7
		z M56.8,182.7c0-1.2-0.7-2.1-1.9-2.1c-1.2,0-1.9,1-1.9,2.1c0,1.2,0.7,2.1,1.9,2.1C56.1,184.8,56.8,183.9,56.8,182.7z M55.2,177
		h-1.9l2.3-2.6H58L55.2,177z"/>
	<path class="st1" d="M61.1,187v-12h2.8v12H61.1z"/>
	<path class="st1" d="M71,187v-0.9c-0.5,0.6-1.6,1.1-2.7,1.1c-1.3,0-3-0.9-3-2.9c0-2.1,1.7-2.8,3-2.8c1.2,0,2.2,0.4,2.7,1v-0.9
		c0-0.8-0.6-1.3-1.8-1.3c-0.9,0-1.7,0.3-2.4,0.9l-1-1.9c1.1-1,2.6-1.4,3.9-1.4c2.1,0,4.1,0.8,4.1,3.5v5.4H71z M71,184.8V184
		c-0.3-0.4-0.9-0.6-1.5-0.6c-0.7,0-1.4,0.3-1.4,1c0,0.7,0.7,1,1.4,1C70.1,185.4,70.8,185.2,71,184.8z"/>
	<path class="st1" d="M75.8,187v-8.7h2.8v1.1c0.6-0.7,1.7-1.3,2.7-1.3v2.7c-0.2-0.1-0.4-0.1-0.7-0.1c-0.7,0-1.7,0.3-2,0.8v5.5H75.8z
		"/>
	<path class="st1" d="M82,182.7c0-2.5,1.9-4.6,4.6-4.6c2.6,0,4.4,1.9,4.4,4.8v0.6h-6.2c0.2,0.8,0.9,1.4,2.2,1.4
		c0.6,0,1.6-0.3,2.1-0.7l1.2,1.8c-0.9,0.8-2.3,1.2-3.6,1.2C84.1,187.3,82,185.5,82,182.7z M86.6,180.4c-1.2,0-1.7,0.7-1.8,1.3h3.6
		C88.4,181.1,87.9,180.4,86.6,180.4z"/>
	<path class="st1" d="M91.7,185.9l1.2-2c0.6,0.6,2,1.2,3.1,1.2c0.8,0,1.2-0.2,1.2-0.6c0-1.1-5.1,0-5.1-3.5c0-1.5,1.3-2.9,3.7-2.9
		c1.5,0,2.7,0.5,3.6,1.2l-1.1,2c-0.5-0.5-1.5-1-2.6-1c-0.6,0-1.1,0.3-1.1,0.6c0,1,5,0,5,3.5c0,1.7-1.5,2.8-3.9,2.8
		C94.2,187.3,92.6,186.7,91.7,185.9z"/>
	<path class="st1" d="M110.9,187v-0.9c-0.5,0.6-1.6,1.1-2.7,1.1c-1.3,0-3-0.9-3-2.9c0-2.1,1.7-2.8,3-2.8c1.2,0,2.2,0.4,2.7,1v-0.9
		c0-0.8-0.6-1.3-1.8-1.3c-0.9,0-1.7,0.3-2.4,0.9l-1-1.9c1.1-1,2.6-1.4,3.9-1.4c2.1,0,4.1,0.8,4.1,3.5v5.4H110.9z M110.9,184.8V184
		c-0.3-0.4-0.9-0.6-1.5-0.6c-0.7,0-1.4,0.3-1.4,1c0,0.7,0.7,1,1.4,1C110,185.4,110.6,185.2,110.9,184.8z"/>
	<path class="st1" d="M126.6,187v-5.3c0-0.7-0.3-1.2-1.2-1.2c-0.8,0-1.3,0.5-1.6,0.8v5.6h-2.8v-5.3c0-0.7-0.3-1.2-1.1-1.2
		c-0.8,0-1.3,0.5-1.6,0.8v5.6h-2.8v-8.7h2.8v1.1c0.4-0.5,1.5-1.3,2.9-1.3c1.3,0,2.1,0.5,2.5,1.5c0.5-0.8,1.6-1.5,3-1.5
		c1.6,0,2.6,0.8,2.6,2.6v6.3H126.6z"/>
	<path class="st1" d="M130.9,182.7c0-2.5,1.9-4.6,4.6-4.6c2.6,0,4.4,1.9,4.4,4.8v0.6h-6.2c0.2,0.8,0.9,1.4,2.2,1.4
		c0.6,0,1.6-0.3,2.1-0.7l1.2,1.8c-0.9,0.8-2.3,1.2-3.6,1.2C132.9,187.3,130.9,185.5,130.9,182.7z M135.5,180.4
		c-1.2,0-1.7,0.7-1.8,1.3h3.6C137.2,181.1,136.8,180.4,135.5,180.4z"/>
	<path class="st1" d="M141.3,187v-8.7h2.8v1.1c0.6-0.7,1.7-1.3,2.7-1.3v2.7c-0.2-0.1-0.4-0.1-0.7-0.1c-0.7,0-1.7,0.3-2,0.8v5.5
		H141.3z"/>
	<path class="st1" d="M147.8,176c0-0.9,0.7-1.6,1.6-1.6c0.9,0,1.6,0.7,1.6,1.6s-0.7,1.6-1.6,1.6C148.5,177.6,147.8,176.9,147.8,176z
		 M148,187v-8.7h2.8v8.7H148z"/>
	<path class="st1" d="M152.3,182.7c0-2.7,2-4.6,4.7-4.6c1.9,0,3,0.8,3.6,1.6l-1.8,1.7c-0.3-0.5-0.9-0.8-1.6-0.8c-1.2,0-2,0.8-2,2.1
		s0.9,2.1,2,2.1c0.7,0,1.3-0.4,1.6-0.8l1.8,1.7c-0.5,0.8-1.7,1.6-3.6,1.6C154.3,187.3,152.3,185.4,152.3,182.7z"/>
	<path class="st1" d="M167,187v-0.9c-0.5,0.6-1.6,1.1-2.7,1.1c-1.3,0-3-0.9-3-2.9c0-2.1,1.7-2.8,3-2.8c1.2,0,2.2,0.4,2.7,1v-0.9
		c0-0.8-0.6-1.3-1.8-1.3c-0.9,0-1.7,0.3-2.4,0.9l-1-1.9c1.1-1,2.6-1.4,3.9-1.4c2.1,0,4.1,0.8,4.1,3.5v5.4H167z M167,184.8V184
		c-0.3-0.4-0.9-0.6-1.5-0.6c-0.7,0-1.4,0.3-1.4,1c0,0.7,0.7,1,1.4,1C166,185.4,166.7,185.2,167,184.8z"/>
	<path class="st1" d="M177.6,187v-5c0-1.1-0.6-1.4-1.4-1.4c-0.8,0-1.4,0.5-1.7,0.8v5.6h-2.8v-8.7h2.8v1.1c0.5-0.6,1.5-1.3,3-1.3
		c2,0,2.9,1.2,2.9,2.8v6.2H177.6z"/>
	<path class="st1" d="M181.9,182.7c0-2.4,1.8-4.6,4.7-4.6c3,0,4.8,2.1,4.8,4.6c0,2.4-1.8,4.6-4.8,4.6
		C183.6,187.3,181.9,185.1,181.9,182.7z M188.5,182.7c0-1.2-0.7-2.1-1.9-2.1c-1.2,0-1.9,1-1.9,2.1c0,1.2,0.7,2.1,1.9,2.1
		C187.8,184.8,188.5,183.9,188.5,182.7z"/>
	<path class="st1" d="M192.1,185.9l1.2-2c0.6,0.6,2,1.2,3.1,1.2c0.8,0,1.2-0.2,1.2-0.6c0-1.1-5.1,0-5.1-3.5c0-1.5,1.3-2.9,3.7-2.9
		c1.5,0,2.7,0.5,3.6,1.2l-1.1,2c-0.5-0.5-1.5-1-2.6-1c-0.6,0-1.1,0.3-1.1,0.6c0,1,5,0,5,3.5c0,1.7-1.5,2.8-3.9,2.8
		C194.6,187.3,193,186.7,192.1,185.9z"/>
	<path class="st1" d="M19.6,206v-5c0-1.1-0.6-1.4-1.4-1.4c-0.8,0-1.4,0.5-1.7,0.8v5.6h-2.8v-8.7h2.8v1.1c0.5-0.6,1.5-1.3,3-1.3
		c2,0,2.9,1.2,2.9,2.8v6.2H19.6z"/>
	<path class="st1" d="M23.9,201.7c0-2.5,1.9-4.6,4.6-4.6c2.6,0,4.4,1.9,4.4,4.8v0.6h-6.2c0.2,0.8,0.9,1.4,2.2,1.4
		c0.6,0,1.6-0.3,2.1-0.7l1.2,1.8c-0.9,0.8-2.3,1.2-3.6,1.2C25.9,206.3,23.9,204.5,23.9,201.7z M28.5,199.4c-1.2,0-1.7,0.7-1.8,1.3
		h3.6C30.2,200.1,29.8,199.4,28.5,199.4z"/>
	<path class="st1" d="M33.7,201.7c0-2.7,2-4.6,4.7-4.6c1.9,0,3,0.8,3.6,1.6l-1.8,1.7c-0.3-0.5-0.9-0.8-1.6-0.8c-1.2,0-2,0.8-2,2.1
		s0.9,2.1,2,2.1c0.7,0,1.3-0.4,1.6-0.8l1.8,1.7c-0.5,0.8-1.7,1.6-3.6,1.6C35.7,206.3,33.7,204.4,33.7,201.7z"/>
	<path class="st1" d="M42.7,201.7c0-2.5,1.9-4.6,4.6-4.6c2.6,0,4.4,1.9,4.4,4.8v0.6h-6.2c0.2,0.8,0.9,1.4,2.2,1.4
		c0.6,0,1.6-0.3,2.1-0.7l1.2,1.8c-0.9,0.8-2.3,1.2-3.6,1.2C44.8,206.3,42.7,204.5,42.7,201.7z M47.3,199.4c-1.2,0-1.7,0.7-1.8,1.3
		h3.6C49.1,200.1,48.6,199.4,47.3,199.4z"/>
	<path class="st1" d="M52.4,204.9l1.2-2c0.6,0.6,2,1.2,3.1,1.2c0.8,0,1.2-0.2,1.2-0.6c0-1.1-5.1,0-5.1-3.5c0-1.5,1.3-2.9,3.7-2.9
		c1.5,0,2.7,0.5,3.6,1.2l-1.1,2c-0.5-0.5-1.5-1-2.6-1c-0.6,0-1.1,0.3-1.1,0.6c0,1,5,0,5,3.5c0,1.7-1.5,2.8-3.9,2.8
		C54.9,206.3,53.3,205.7,52.4,204.9z"/>
	<path class="st1" d="M61.1,204.9l1.2-2c0.6,0.6,2,1.2,3.1,1.2c0.8,0,1.2-0.2,1.2-0.6c0-1.1-5.1,0-5.1-3.5c0-1.5,1.3-2.9,3.7-2.9
		c1.5,0,2.7,0.5,3.6,1.2l-1.1,2c-0.5-0.5-1.5-1-2.6-1c-0.6,0-1.1,0.3-1.1,0.6c0,1,5,0,5,3.5c0,1.7-1.5,2.8-3.9,2.8
		C63.6,206.3,62,205.7,61.1,204.9z"/>
	<path class="st1" d="M75.7,206v-0.9c-0.5,0.6-1.6,1.1-2.7,1.1c-1.3,0-3-0.9-3-2.9c0-2.1,1.7-2.8,3-2.8c1.2,0,2.2,0.4,2.7,1v-0.9
		c0-0.8-0.6-1.3-1.8-1.3c-0.9,0-1.7,0.3-2.4,0.9l-1-1.9c1.1-1,2.6-1.4,3.9-1.4c2.1,0,4.1,0.8,4.1,3.5v5.4H75.7z M75.7,203.8V203
		c-0.3-0.4-0.9-0.6-1.5-0.6c-0.7,0-1.4,0.3-1.4,1c0,0.7,0.7,1,1.4,1C74.8,204.4,75.4,204.2,75.7,203.8z M74.8,196h-1.9l2.3-2.6h2.4
		L74.8,196z"/>
	<path class="st1" d="M80.5,206v-8.7h2.8v1.1c0.6-0.7,1.7-1.3,2.7-1.3v2.7c-0.2-0.1-0.4-0.1-0.7-0.1c-0.7,0-1.7,0.3-2,0.8v5.5H80.5z
		"/>
	<path class="st1" d="M87,195c0-0.9,0.7-1.6,1.6-1.6c0.9,0,1.6,0.7,1.6,1.6s-0.7,1.6-1.6,1.6C87.7,196.6,87,195.9,87,195z M87.2,206
		v-8.7H90v8.7H87.2z"/>
	<path class="st1" d="M91.5,201.7c0-2.4,1.8-4.6,4.7-4.6c3,0,4.8,2.1,4.8,4.6c0,2.4-1.8,4.6-4.8,4.6
		C93.2,206.3,91.5,204.1,91.5,201.7z M98.1,201.7c0-1.2-0.7-2.1-1.9-2.1c-1.2,0-1.9,1-1.9,2.1c0,1.2,0.7,2.1,1.9,2.1
		C97.4,203.8,98.1,202.9,98.1,201.7z"/>
	<path class="st1" d="M14.3,225v-6.3h-1.4v-2.4h1.4v-0.2c0-2.2,1.4-3.3,3.1-3.3c0.8,0,1.4,0.1,1.9,0.3l-0.5,2.1
		c-0.2-0.1-0.4-0.2-0.7-0.2c-0.5,0-0.9,0.3-0.9,1.1v0.2h1.8v2.4h-1.8v6.3H14.3z M19.8,214c0-0.9,0.7-1.6,1.6-1.6s1.6,0.7,1.6,1.6
		s-0.7,1.6-1.6,1.6S19.8,214.9,19.8,214z M20,225v-8.7h2.8v8.7H20z"/>
	<path class="st1" d="M30.7,225v-5c0-1.1-0.6-1.4-1.4-1.4c-0.8,0-1.4,0.5-1.7,0.8v5.6h-2.8v-8.7h2.8v1.1c0.5-0.6,1.5-1.3,3-1.3
		c2,0,2.9,1.2,2.9,2.8v6.2H30.7z"/>
	<path class="st1" d="M40.6,225v-0.9c-0.5,0.6-1.6,1.1-2.7,1.1c-1.3,0-3-0.9-3-2.9c0-2.1,1.7-2.8,3-2.8c1.2,0,2.2,0.4,2.7,1v-0.9
		c0-0.8-0.6-1.3-1.8-1.3c-0.9,0-1.7,0.3-2.4,0.9l-1-1.9c1.1-1,2.6-1.4,3.9-1.4c2.1,0,4.1,0.8,4.1,3.5v5.4H40.6z M40.6,222.8V222
		c-0.3-0.4-0.9-0.6-1.5-0.6c-0.7,0-1.4,0.3-1.4,1c0,0.7,0.7,1,1.4,1C39.7,223.4,40.3,223.2,40.6,222.8z"/>
	<path class="st1" d="M51.3,225v-5c0-1.1-0.6-1.4-1.4-1.4c-0.8,0-1.4,0.5-1.7,0.8v5.6h-2.8v-8.7h2.8v1.1c0.5-0.6,1.5-1.3,3-1.3
		c2,0,2.9,1.2,2.9,2.8v6.2H51.3z"/>
	<path class="st1" d="M55.5,220.7c0-2.7,2-4.6,4.7-4.6c1.9,0,3,0.8,3.6,1.6l-1.8,1.7c-0.3-0.5-0.9-0.8-1.6-0.8c-1.2,0-2,0.8-2,2.1
		s0.9,2.1,2,2.1c0.7,0,1.3-0.4,1.6-0.8l1.8,1.7c-0.5,0.8-1.7,1.6-3.6,1.6C57.5,225.3,55.5,223.4,55.5,220.7z"/>
	<path class="st1" d="M64.9,214c0-0.9,0.7-1.6,1.6-1.6s1.6,0.7,1.6,1.6s-0.7,1.6-1.6,1.6S64.9,214.9,64.9,214z M65.1,225v-8.7h2.8
		v8.7H65.1z"/>
	<path class="st1" d="M75,225v-0.9c-0.5,0.6-1.6,1.1-2.7,1.1c-1.3,0-3-0.9-3-2.9c0-2.1,1.7-2.8,3-2.8c1.2,0,2.2,0.4,2.7,1v-0.9
		c0-0.8-0.6-1.3-1.8-1.3c-0.9,0-1.7,0.3-2.4,0.9l-1-1.9c1.1-1,2.6-1.4,3.9-1.4c2.1,0,4.1,0.8,4.1,3.5v5.4H75z M75,222.8V222
		c-0.3-0.4-0.9-0.6-1.5-0.6c-0.7,0-1.4,0.3-1.4,1c0,0.7,0.7,1,1.4,1C74.1,223.4,74.7,223.2,75,222.8z"/>
	<path class="st1" d="M90.8,225v-5.3c0-0.7-0.3-1.2-1.2-1.2c-0.8,0-1.3,0.5-1.6,0.8v5.6h-2.8v-5.3c0-0.7-0.3-1.2-1.1-1.2
		c-0.8,0-1.3,0.5-1.6,0.8v5.6h-2.8v-8.7h2.8v1.1c0.4-0.5,1.5-1.3,2.9-1.3c1.3,0,2.1,0.5,2.5,1.5c0.5-0.8,1.6-1.5,3-1.5
		c1.6,0,2.6,0.8,2.6,2.6v6.3H90.8z"/>
	<path class="st1" d="M95,220.7c0-2.5,1.9-4.6,4.6-4.6c2.6,0,4.4,1.9,4.4,4.8v0.6h-6.2c0.2,0.8,0.9,1.4,2.2,1.4
		c0.6,0,1.6-0.3,2.1-0.7l1.2,1.8c-0.9,0.8-2.3,1.2-3.6,1.2C97,225.3,95,223.5,95,220.7z M99.6,218.4c-1.2,0-1.7,0.7-1.8,1.3h3.6
		C101.3,219.1,100.9,218.4,99.6,218.4z"/>
	<path class="st1" d="M111.3,225v-5c0-1.1-0.6-1.4-1.4-1.4c-0.8,0-1.4,0.5-1.7,0.8v5.6h-2.8v-8.7h2.8v1.1c0.5-0.6,1.5-1.3,3-1.3
		c2,0,2.9,1.2,2.9,2.8v6.2H111.3z"/>
	<path class="st1" d="M116.7,222.7v-4h-1.4v-2.4h1.4V214h2.8v2.4h1.8v2.4h-1.8v3.2c0,0.5,0.3,0.9,0.8,0.9c0.3,0,0.6-0.1,0.7-0.2
		l0.5,2.1c-0.3,0.3-1,0.6-2.1,0.6C117.6,225.3,116.7,224.4,116.7,222.7z"/>
	<path class="st1" d="M122,220.7c0-2.4,1.8-4.6,4.7-4.6c3,0,4.8,2.1,4.8,4.6c0,2.4-1.8,4.6-4.8,4.6C123.8,225.3,122,223.1,122,220.7
		z M128.6,220.7c0-1.2-0.7-2.1-1.9-2.1c-1.2,0-1.9,1-1.9,2.1c0,1.2,0.7,2.1,1.9,2.1C127.9,222.8,128.6,221.9,128.6,220.7z"/>
	<path class="st1" d="M19.6,244v-1c-0.5,0.6-1.5,1.3-3,1.3c-2,0-2.9-1.1-2.9-2.7v-6.2h2.8v5c0,1.1,0.5,1.4,1.4,1.4
		c0.8,0,1.3-0.4,1.7-0.8v-5.6h2.8v8.7H19.6z"/>
	<path class="st1" d="M24.4,244v-8.7h2.8v1.1c0.6-0.7,1.7-1.3,2.7-1.3v2.7c-0.2-0.1-0.4-0.1-0.7-0.1c-0.7,0-1.7,0.3-2,0.8v5.5H24.4z
		"/>
	<path class="st1" d="M30.9,246.3l1.2-1.9c0.7,0.7,1.6,1,2.6,1c0.9,0,2.2-0.4,2.2-2.1v-0.7c-0.7,0.9-1.6,1.3-2.6,1.3
		c-2.1,0-3.8-1.5-3.8-4.4c0-2.9,1.6-4.4,3.8-4.4c1,0,1.9,0.4,2.6,1.2v-1h2.8v7.9c0,3.5-2.8,4.3-5,4.3
		C33.3,247.6,32,247.2,30.9,246.3z M37,240.7v-2.3c-0.3-0.5-1.1-0.8-1.7-0.8c-1.1,0-1.9,0.7-1.9,1.9c0,1.3,0.8,1.9,1.9,1.9
		C35.9,241.5,36.6,241.1,37,240.7z"/>
	<path class="st1" d="M41.2,239.7c0-2.5,1.9-4.6,4.6-4.6c2.6,0,4.4,1.9,4.4,4.8v0.6h-6.2c0.2,0.8,0.9,1.4,2.2,1.4
		c0.6,0,1.6-0.3,2.1-0.7l1.2,1.8c-0.9,0.8-2.3,1.2-3.6,1.2C43.3,244.3,41.2,242.5,41.2,239.7z M45.8,237.4c-1.2,0-1.7,0.7-1.8,1.3
		h3.6C47.6,238.1,47.1,237.4,45.8,237.4z"/>
	<path class="st1" d="M57.5,244v-5c0-1.1-0.6-1.4-1.4-1.4c-0.8,0-1.4,0.5-1.7,0.8v5.6h-2.8v-8.7h2.8v1.1c0.5-0.6,1.5-1.3,3-1.3
		c2,0,2.9,1.2,2.9,2.8v6.2H57.5z"/>
	<path class="st1" d="M62.9,241.7v-4h-1.4v-2.4h1.4V233h2.8v2.4h1.8v2.4h-1.8v3.2c0,0.5,0.3,0.9,0.8,0.9c0.3,0,0.6-0.1,0.7-0.2
		l0.5,2.1c-0.3,0.3-1,0.6-2.1,0.6C63.8,244.3,62.9,243.4,62.9,241.7z"/>
	<path class="st1" d="M68.2,239.7c0-2.5,1.9-4.6,4.6-4.6c2.6,0,4.4,1.9,4.4,4.8v0.6h-6.2c0.2,0.8,0.9,1.4,2.2,1.4
		c0.6,0,1.6-0.3,2.1-0.7l1.2,1.8c-0.9,0.8-2.3,1.2-3.6,1.2C70.3,244.3,68.2,242.5,68.2,239.7z M72.8,237.4c-1.2,0-1.7,0.7-1.8,1.3
		h3.6C74.6,238.1,74.1,237.4,72.8,237.4z"/>
	<path class="st1" d="M89.6,244v-5.3c0-0.7-0.3-1.2-1.2-1.2c-0.8,0-1.3,0.5-1.6,0.8v5.6h-2.8v-5.3c0-0.7-0.3-1.2-1.1-1.2
		c-0.8,0-1.3,0.5-1.6,0.8v5.6h-2.8v-8.7h2.8v1.1c0.4-0.5,1.5-1.3,2.9-1.3c1.3,0,2.1,0.5,2.5,1.5c0.5-0.8,1.6-1.5,3-1.5
		c1.6,0,2.6,0.8,2.6,2.6v6.3H89.6z"/>
	<path class="st1" d="M93.8,239.7c0-2.5,1.9-4.6,4.6-4.6c2.6,0,4.4,1.9,4.4,4.8v0.6h-6.2c0.2,0.8,0.9,1.4,2.2,1.4
		c0.6,0,1.6-0.3,2.1-0.7l1.2,1.8c-0.9,0.8-2.3,1.2-3.6,1.2C95.9,244.3,93.8,242.5,93.8,239.7z M98.5,237.4c-1.2,0-1.7,0.7-1.8,1.3
		h3.6C100.2,238.1,99.7,237.4,98.5,237.4z"/>
	<path class="st1" d="M110.2,244v-5c0-1.1-0.6-1.4-1.4-1.4c-0.8,0-1.4,0.5-1.7,0.8v5.6h-2.8v-8.7h2.8v1.1c0.5-0.6,1.5-1.3,3-1.3
		c2,0,2.9,1.2,2.9,2.8v6.2H110.2z"/>
	<path class="st1" d="M115.5,241.7v-4h-1.4v-2.4h1.4V233h2.8v2.4h1.8v2.4h-1.8v3.2c0,0.5,0.3,0.9,0.8,0.9c0.3,0,0.6-0.1,0.7-0.2
		l0.5,2.1c-0.3,0.3-1,0.6-2.1,0.6C116.5,244.3,115.5,243.4,115.5,241.7z"/>
	<path class="st1" d="M120.9,239.7c0-2.5,1.9-4.6,4.6-4.6c2.6,0,4.4,1.9,4.4,4.8v0.6h-6.2c0.2,0.8,0.9,1.4,2.2,1.4
		c0.6,0,1.6-0.3,2.1-0.7l1.2,1.8c-0.9,0.8-2.3,1.2-3.6,1.2C122.9,244.3,120.9,242.5,120.9,239.7z M125.5,237.4
		c-1.2,0-1.7,0.7-1.8,1.3h3.6C127.2,238.1,126.8,237.4,125.5,237.4z"/>
</g>
<g>
	<path class="st1" d="M15.8,22.7v-6.7h4.9v1.5h-3.2v1h3.1v1.5h-3.1v1.1h3.2v1.5H15.8z"/>
	<path class="st1" d="M21.2,21.8l0.9-1.3c0.5,0.5,1.2,0.9,2.1,0.9c0.6,0,0.9-0.2,0.9-0.5c0-0.9-3.8-0.2-3.8-2.7
		c0-1.1,0.9-2.1,2.6-2.1c1.1,0,2,0.3,2.7,0.9l-0.9,1.3c-0.6-0.5-1.3-0.7-1.9-0.7c-0.5,0-0.7,0.2-0.7,0.5c0,0.8,3.8,0.2,3.8,2.7
		c0,1.3-1,2.2-2.8,2.2C22.8,22.9,21.9,22.4,21.2,21.8z"/>
	<path class="st1" d="M29.1,22.7v-5.2h-1.9v-1.5h5.4v1.5h-1.9v5.2H29.1z"/>
	<path class="st1" d="M33.5,22.7v-6.7h1.7v6.7H33.5z"/>
	<path class="st1" d="M42.2,22.7v-4.4l-1.7,4.4h-0.8l-1.7-4.4v4.4h-1.7v-6.7h2.4l1.4,3.7l1.4-3.7H44v6.7H42.2z"/>
	<path class="st1" d="M49.7,22.7l-0.3-1h-2.6l-0.3,1h-1.9l2.5-6.7h2.2l2.5,6.7H49.7z M48.1,17.8l-0.8,2.5h1.7L48.1,17.8z"/>
	<path class="st1" d="M52.1,22.7v-6.7h2.8c2.1,0,3.6,1.3,3.6,3.3s-1.5,3.3-3.6,3.3H52.1z M56.8,19.4c0-1-0.6-1.8-1.8-1.8h-1.1v3.7
		h1.1C56.1,21.2,56.8,20.4,56.8,19.4z"/>
	<path class="st1" d="M59.1,19.4c0-2,1.5-3.4,3.6-3.4c2,0,3.6,1.4,3.6,3.4s-1.5,3.4-3.6,3.4C60.6,22.9,59.1,21.4,59.1,19.4z
		 M64.4,19.4c0-1.1-0.7-1.9-1.8-1.9c-1.1,0-1.8,0.8-1.8,1.9c0,1.1,0.7,1.9,1.8,1.9C63.7,21.3,64.4,20.5,64.4,19.4z"/>
	<path class="st1" d="M66.6,21.8l0.9-1.3c0.5,0.5,1.2,0.9,2.1,0.9c0.6,0,0.9-0.2,0.9-0.5c0-0.9-3.8-0.2-3.8-2.7
		c0-1.1,0.9-2.1,2.6-2.1c1.1,0,2,0.3,2.7,0.9l-0.9,1.3c-0.6-0.5-1.3-0.7-1.9-0.7c-0.5,0-0.7,0.2-0.7,0.5c0,0.8,3.8,0.2,3.8,2.7
		c0,1.3-1,2.2-2.8,2.2C68.2,22.9,67.3,22.4,66.6,21.8z"/>
	<path class="st1" d="M72.9,18.8c0-0.5,0.4-0.9,0.9-0.9s0.9,0.4,0.9,0.9s-0.4,0.9-0.9,0.9S72.9,19.3,72.9,18.8z M72.9,21.9
		c0-0.5,0.4-0.9,0.9-0.9s0.9,0.4,0.9,0.9c0,0.5-0.4,0.9-0.9,0.9S72.9,22.4,72.9,21.9z"/>
</g>
</svg>
