<?xml version="1.0" encoding="utf-8"?>
<!-- Generator: Adobe Illustrator 19.0.0, SVG Export Plug-In . SVG Version: 6.00 Build 0)  -->
<svg version="1.1" id="Layer_1" xmlns="http://www.w3.org/2000/svg" xmlns:xlink="http://www.w3.org/1999/xlink" x="0px" y="0px"
	 viewBox="0 0 220 128.8" style="enable-background:new 0 0 220 128.8;" xml:space="preserve">
<style type="text/css">
	.st0{fill:#008590;}
	.st1{fill:#FFFFFF;}
	.st2{clip-path:url(#SVGID_2_);fill:#FFFFFF;}
</style>
<rect x="0" class="st0" width="220" height="128.8"/>
<g>
	<path class="st1" d="M75.3,74.4V62.6c25.4-18.4,30.2-22.4,30.2-28.3c0-4-3.8-6.1-8.1-6.1c-6.5,0-11.4,2.5-15.7,6.4l-8.4-10
		c6.2-6.9,15.6-9.8,23.8-9.8c13.8,0,23.8,7.7,23.8,19.4c0,9.1-6.4,16.7-21,26.9h21.5v13.2H75.3z"/>
	<path class="st1" d="M135.4,86.9l-5.6-4.6c2.8-1.4,6.5-5.2,7.5-8.4c-0.4,0.1-1.2,0.3-2,0.3c-3.8,0-6.9-2.9-6.9-7.2
		c0-4.5,3.7-8.1,8.1-8.1c4.8,0,9,3.7,9,10.1C145.4,76.2,141.5,82.6,135.4,86.9z"/>
	<path class="st1" d="M149.3,45.2c0-18.7,11.4-30.4,29.1-30.4c6.9,0,13.4,2.2,17.8,5.6L189.7,32c-3.3-2.6-6.5-3.9-11.3-3.9
		c-7.2,0-13.8,5.2-13.8,13.4v0.7c2.9-3.9,8.5-6.7,14.4-6.7c10.6,0,20.3,6.8,20.3,19.3c0,12.1-9.8,20.6-23.4,20.6
		C157.4,75.4,149.3,62,149.3,45.2z M184.1,55.4c0-4.9-5-7-9.6-7c-3.7,0-7.3,1.2-9.9,4c0.4,4.8,3.3,9.7,10.4,9.7
		C180.7,62.1,184.1,58.6,184.1,55.4z"/>
</g>
<g>
	<path class="st1" d="M25.8,96.5v-5.1c0-0.6-0.3-1.1-1.1-1.1c-0.7,0-1.3,0.5-1.5,0.8v5.5h-2.7v-5.1c0-0.6-0.3-1.1-1.1-1.1
		c-0.7,0-1.2,0.5-1.5,0.8v5.5h-2.7v-8.5h2.7v1c0.4-0.5,1.5-1.2,2.8-1.2c1.2,0,2,0.5,2.4,1.5c0.5-0.7,1.6-1.5,2.9-1.5
		c1.6,0,2.5,0.8,2.5,2.5v6.1H25.8z"/>
	<path class="st1" d="M30.1,85.8c0-0.9,0.7-1.5,1.5-1.5c0.9,0,1.6,0.7,1.6,1.5s-0.7,1.6-1.6,1.6C30.8,87.3,30.1,86.6,30.1,85.8z
		 M30.3,96.5v-8.5H33v8.5H30.3z"/>
	<path class="st1" d="M34.8,96.5V84.9h2.7v11.7H34.8z"/>
	<path class="st1" d="M45,96.5v-4.9c0-1-0.5-1.4-1.4-1.4c-0.8,0-1.3,0.4-1.6,0.8v5.5h-2.7V84.9H42v4.3c0.5-0.6,1.5-1.2,2.9-1.2
		c1.9,0,2.8,1.1,2.8,2.6v6H45z"/>
	<path class="st1" d="M49,92.3c0-2.4,1.7-4.4,4.6-4.4c2.9,0,4.6,2,4.6,4.4s-1.7,4.4-4.6,4.4C50.7,96.8,49,94.7,49,92.3z M52.5,85.9
		c-0.3,0-0.5,0.3-0.5,0.9h-1.4c0-1.6,0.7-2.3,2-2.3c1.1,0,1.4,1,2,1c0.3,0,0.5-0.3,0.5-0.9h1.4c0,1.5-0.7,2.3-2,2.3
		C53.4,86.8,53.1,85.9,52.5,85.9z M55.4,92.3c0-1.1-0.7-2-1.9-2c-1.2,0-1.8,0.9-1.8,2c0,1.1,0.7,2.1,1.8,2.1
		C54.7,94.4,55.4,93.4,55.4,92.3z"/>
	<path class="st1" d="M58.9,92.3c0-2.5,1.8-4.4,4.5-4.4c2.5,0,4.3,1.8,4.3,4.7v0.6h-6c0.2,0.8,0.9,1.4,2.1,1.4
		c0.6,0,1.6-0.3,2.1-0.7l1.2,1.8c-0.8,0.8-2.2,1.1-3.5,1.1C60.9,96.8,58.9,95.1,58.9,92.3z M63.3,90.1c-1.2,0-1.6,0.7-1.7,1.3h3.5
		C65,90.8,64.6,90.1,63.3,90.1z"/>
	<path class="st1" d="M68.1,95.4l1.1-1.9c0.6,0.6,2,1.1,3,1.1c0.8,0,1.1-0.2,1.1-0.6c0-1-4.9,0-4.9-3.4c0-1.5,1.3-2.8,3.6-2.8
		c1.4,0,2.6,0.5,3.5,1.1l-1,1.9C74,90.4,73.1,90,72.1,90c-0.6,0-1,0.2-1,0.6c0,0.9,4.9,0,4.9,3.4c0,1.6-1.4,2.8-3.8,2.8
		C70.6,96.8,69,96.2,68.1,95.4z"/>
	<path class="st1" d="M87.1,96.5v-1c-0.7,0.8-1.6,1.2-2.5,1.2c-2.1,0-3.7-1.6-3.7-4.4c0-2.8,1.6-4.4,3.7-4.4c0.9,0,1.8,0.4,2.5,1.2
		v-4.2h2.7v11.7H87.1z M87.1,93.6V91c-0.3-0.5-1-0.8-1.6-0.8c-1.1,0-1.9,0.8-1.9,2s0.8,2.1,1.9,2.1C86.1,94.4,86.8,94.1,87.1,93.6z"
		/>
	<path class="st1" d="M91.1,92.3c0-2.5,1.8-4.4,4.5-4.4c2.5,0,4.3,1.8,4.3,4.7v0.6h-6c0.2,0.8,0.9,1.4,2.1,1.4
		c0.6,0,1.6-0.3,2.1-0.7l1.2,1.8c-0.8,0.8-2.2,1.1-3.5,1.1C93,96.8,91.1,95.1,91.1,92.3z M95.5,90.1c-1.2,0-1.6,0.7-1.7,1.3h3.5
		C97.2,90.8,96.8,90.1,95.5,90.1z"/>
	<path class="st1" d="M108,95.5v4.2h-2.7V88.1h2.7v1c0.7-0.8,1.5-1.2,2.5-1.2c2.1,0,3.7,1.6,3.7,4.4c0,2.9-1.6,4.4-3.7,4.4
		C109.6,96.8,108.7,96.4,108,95.5z M111.5,92.3c0-1.3-0.8-2-1.9-2c-0.6,0-1.3,0.3-1.6,0.8v2.6c0.3,0.4,1,0.8,1.6,0.8
		C110.7,94.4,111.5,93.6,111.5,92.3z"/>
	<path class="st1" d="M114.9,92.3c0-2.5,1.8-4.4,4.5-4.4c2.5,0,4.3,1.8,4.3,4.7v0.6h-6c0.2,0.8,0.9,1.4,2.1,1.4
		c0.6,0,1.6-0.3,2.1-0.7l1.2,1.8c-0.8,0.8-2.2,1.1-3.5,1.1C116.9,96.8,114.9,95.1,114.9,92.3z M119.4,90.1c-1.2,0-1.6,0.7-1.7,1.3
		h3.5C121.1,90.8,120.6,90.1,119.4,90.1z"/>
	<path class="st1" d="M124.1,95.4l1.1-1.9c0.6,0.6,2,1.1,3,1.1c0.8,0,1.1-0.2,1.1-0.6c0-1-4.9,0-4.9-3.4c0-1.5,1.3-2.8,3.6-2.8
		c1.4,0,2.6,0.5,3.5,1.1l-1,1.9c-0.5-0.5-1.5-0.9-2.5-0.9c-0.6,0-1,0.2-1,0.6c0,0.9,4.9,0,4.9,3.4c0,1.6-1.4,2.8-3.8,2.8
		C126.6,96.8,125,96.2,124.1,95.4z"/>
	<path class="st1" d="M132.4,95.4l1.1-1.9c0.6,0.6,2,1.1,3,1.1c0.8,0,1.1-0.2,1.1-0.6c0-1-4.9,0-4.9-3.4c0-1.5,1.3-2.8,3.6-2.8
		c1.4,0,2.6,0.5,3.5,1.1l-1,1.9c-0.5-0.5-1.5-0.9-2.5-0.9c-0.6,0-1,0.2-1,0.6c0,0.9,4.9,0,4.9,3.4c0,1.6-1.4,2.8-3.8,2.8
		C134.9,96.8,133.3,96.2,132.4,95.4z"/>
	<path class="st1" d="M140.9,92.3c0-2.4,1.7-4.4,4.6-4.4c2.9,0,4.6,2,4.6,4.4s-1.7,4.4-4.6,4.4C142.6,96.8,140.9,94.7,140.9,92.3z
		 M147.3,92.3c0-1.1-0.7-2-1.9-2c-1.2,0-1.8,0.9-1.8,2c0,1.1,0.7,2.1,1.8,2.1C146.7,94.4,147.3,93.4,147.3,92.3z"/>
	<path class="st1" d="M156.3,96.5v-0.8c-0.5,0.6-1.5,1-2.6,1c-1.3,0-2.9-0.9-2.9-2.8c0-2,1.6-2.7,2.9-2.7c1.1,0,2.1,0.4,2.6,1v-0.8
		c0-0.7-0.6-1.2-1.7-1.2c-0.8,0-1.7,0.3-2.4,0.9l-1-1.9c1.1-0.9,2.5-1.3,3.8-1.3c2,0,3.9,0.8,3.9,3.4v5.3H156.3z M156.3,94.4v-0.8
		c-0.3-0.4-0.9-0.6-1.5-0.6c-0.7,0-1.3,0.3-1.3,1s0.6,1,1.3,1C155.4,95,156.1,94.8,156.3,94.4z"/>
	<path class="st1" d="M160.1,95.4l1.1-1.9c0.6,0.6,2,1.1,3,1.1c0.8,0,1.1-0.2,1.1-0.6c0-1-4.9,0-4.9-3.4c0-1.5,1.3-2.8,3.6-2.8
		c1.4,0,2.6,0.5,3.5,1.1l-1,1.9c-0.5-0.5-1.5-0.9-2.5-0.9c-0.6,0-1,0.2-1,0.6c0,0.9,4.9,0,4.9,3.4c0,1.6-1.4,2.8-3.8,2.8
		C162.6,96.8,161,96.2,160.1,95.4z"/>
	<path class="st1" d="M20.2,115.5v-0.8c-0.5,0.6-1.5,1-2.6,1c-1.3,0-2.9-0.9-2.9-2.8c0-2,1.6-2.7,2.9-2.7c1.1,0,2.1,0.4,2.6,1v-0.8
		c0-0.7-0.6-1.2-1.7-1.2c-0.8,0-1.7,0.3-2.4,0.9l-1-1.9c1.1-0.9,2.5-1.3,3.8-1.3c2,0,3.9,0.8,3.9,3.4v5.3H20.2z M20.2,113.4v-0.8
		c-0.3-0.4-0.9-0.6-1.5-0.6c-0.7,0-1.3,0.3-1.3,1s0.6,1,1.3,1C19.3,114,19.9,113.8,20.2,113.4z"/>
	<path class="st1" d="M26.8,115.5l-3.3-8.5h2.8l1.9,5.4l1.9-5.4H33l-3.3,8.5H26.8z"/>
	<path class="st1" d="M38.6,115.5v-0.8c-0.5,0.6-1.5,1-2.6,1c-1.3,0-2.9-0.9-2.9-2.8c0-2,1.6-2.7,2.9-2.7c1.1,0,2.1,0.4,2.6,1v-0.8
		c0-0.7-0.6-1.2-1.7-1.2c-0.8,0-1.7,0.3-2.4,0.9l-1-1.9c1.1-0.9,2.5-1.3,3.8-1.3c2,0,3.9,0.8,3.9,3.4v5.3H38.6z M38.6,113.4v-0.8
		c-0.3-0.4-0.9-0.6-1.5-0.6c-0.7,0-1.3,0.3-1.3,1s0.6,1,1.3,1C37.7,114,38.4,113.8,38.6,113.4z"/>
	<path class="st1" d="M43.1,115.5v-11.7h2.7v11.7H43.1z"/>
	<path class="st1" d="M47.4,104.8c0-0.9,0.7-1.5,1.5-1.5c0.9,0,1.6,0.7,1.6,1.5s-0.7,1.6-1.6,1.6C48.1,106.3,47.4,105.6,47.4,104.8z
		 M47.6,115.5v-8.5h2.7v8.5H47.6z"/>
	<path class="st1" d="M57.1,115.5v-0.8c-0.5,0.6-1.5,1-2.6,1c-1.3,0-2.9-0.9-2.9-2.8c0-2,1.6-2.7,2.9-2.7c1.1,0,2.1,0.4,2.6,1v-0.8
		c0-0.7-0.6-1.2-1.7-1.2c-0.8,0-1.7,0.3-2.4,0.9l-1-1.9c1.1-0.9,2.5-1.3,3.8-1.3c2,0,3.9,0.8,3.9,3.4v5.3H57.1z M57.1,113.4v-0.8
		c-0.3-0.4-0.9-0.6-1.5-0.6c-0.7,0-1.3,0.3-1.3,1s0.6,1,1.3,1C56.2,114,56.8,113.8,57.1,113.4z"/>
	<path class="st1" d="M67.2,115.5v-1c-0.7,0.8-1.6,1.2-2.5,1.2c-2.1,0-3.7-1.6-3.7-4.4c0-2.8,1.6-4.4,3.7-4.4c0.9,0,1.8,0.4,2.5,1.2
		v-4.2h2.7v11.7H67.2z M67.2,112.6V110c-0.3-0.5-1-0.8-1.6-0.8c-1.1,0-1.9,0.8-1.9,2s0.8,2.1,1.9,2.1
		C66.2,113.4,66.9,113.1,67.2,112.6z"/>
	<path class="st1" d="M76.7,115.5v-0.8c-0.5,0.6-1.5,1-2.6,1c-1.3,0-2.9-0.9-2.9-2.8c0-2,1.6-2.7,2.9-2.7c1.1,0,2.1,0.4,2.6,1v-0.8
		c0-0.7-0.6-1.2-1.7-1.2c-0.8,0-1.7,0.3-2.4,0.9l-1-1.9c1.1-0.9,2.5-1.3,3.8-1.3c2,0,3.9,0.8,3.9,3.4v5.3H76.7z M76.7,113.4v-0.8
		c-0.3-0.4-0.9-0.6-1.5-0.6c-0.7,0-1.3,0.3-1.3,1s0.6,1,1.3,1C75.8,114,76.4,113.8,76.7,113.4z"/>
	<path class="st1" d="M80.5,114.4l1.1-1.9c0.6,0.6,2,1.1,3,1.1c0.8,0,1.1-0.2,1.1-0.6c0-1-4.9,0-4.9-3.4c0-1.5,1.3-2.8,3.6-2.8
		c1.4,0,2.6,0.5,3.5,1.1l-1,1.9c-0.5-0.5-1.5-0.9-2.5-0.9c-0.6,0-1,0.2-1,0.6c0,0.9,4.9,0,4.9,3.4c0,1.6-1.4,2.8-3.8,2.8
		C82.9,115.8,81.4,115.2,80.5,114.4z"/>
</g>
<g>
	<defs>
		<rect id="SVGID_1_" x="15.2" y="16.1" width="50.3" height="57.9"/>
	</defs>
	<clipPath id="SVGID_2_">
		<use xlink:href="#SVGID_1_"  style="overflow:visible;"/>
	</clipPath>
	<path class="st2" d="M60.2,30.4c0,1.8-0.8,3.6-2.5,5.3l-0.3,0.3L43,51.1c-3.1,3.2-5.7,5.7-7.8,7.5c-2.2,1.8-3.7,2.6-4.6,2.6
		c-0.9,0-2.1-0.4-3.5-1.3c-1.4-0.9-2.3-1.8-2.7-2.7c-0.3-0.8-0.7-2.4-1-4.9C23.2,49.7,23,47,23,44.1c0-1.6,0.7-3.1,2-4.4
		c1.3-1.4,2.8-2,4.4-2c1.5,0,2.5,1.4,2.8,4.2c0,0.3,0.1,0.6,0.1,0.7c0.2,2.2,0.5,3.7,0.9,4.5c0.3,0.9,0.8,1.3,1.3,1.3
		c0.2,0,0.7-0.3,1.3-0.8c0.6-0.5,1.4-1.2,2.3-2.1l14.8-14.7c1.2-1.2,2.4-2.2,3.3-2.8c1-0.6,1.8-1,2.5-1c0.5,0,0.9,0.2,1.1,0.6
		c0.2,0.4,0.3,1,0.3,2V30.4z M65.5,16.1H15.2V74h50.3V16.1z"/>
</g>
</svg>
