<?xml version="1.0" encoding="utf-8"?>
<!-- Generator: Adobe Illustrator 16.0.0, SVG Export Plug-In . SVG Version: 6.00 Build 0)  -->
<!DOCTYPE svg PUBLIC "-//W3C//DTD SVG 1.1//EN" "http://www.w3.org/Graphics/SVG/1.1/DTD/svg11.dtd">
<svg version="1.1" id="Layer_1" xmlns="http://www.w3.org/2000/svg" xmlns:xlink="http://www.w3.org/1999/xlink" x="0px" y="0px"
	 width="220px" height="135px" viewBox="0 0 220 135" enable-background="new 0 0 220 135" xml:space="preserve">
<rect x="0" fill="#008590" width="220" height="135"/>
<g>
	<defs>
		<rect id="SVGID_1_" x="4.938" y="16.062" width="57.4" height="101.584"/>
	</defs>
	<clipPath id="SVGID_2_">
		<use xlink:href="#SVGID_1_"  overflow="visible"/>
	</clipPath>
	<path clip-path="url(#SVGID_2_)" fill="#FFFFFF" d="M33.928,97.328C27.755,97.387,22,95.561,17.206,92.385l2.731,25.262
		l29.24-0.275l2.152-25.865C46.45,95.107,40.441,97.268,33.928,97.328"/>
	<path clip-path="url(#SVGID_2_)" fill="#FFFFFF" d="M33.352,36.184c6.476-0.061,12.493,1.963,17.423,5.435l-2.764-25.557
		l-29.24,0.276l-2.092,25.139C21.422,38.192,27.16,36.242,33.352,36.184"/>
	<path clip-path="url(#SVGID_2_)" fill="#FFFFFF" d="M33.91,95.455C18.085,95.604,5.089,82.854,4.94,67.027
		c-0.15-15.824,12.604-28.82,28.429-28.97c15.823-0.149,28.819,12.604,28.97,28.429C62.488,82.311,49.734,95.307,33.91,95.455
		 M33.401,41.507C19.477,41.638,8.257,53.071,8.388,66.994c0.132,13.924,11.566,25.145,25.49,25.014
		c13.923-0.133,25.142-11.566,25.011-25.49C58.759,52.595,47.324,41.376,33.401,41.507"/>
	<path clip-path="url(#SVGID_2_)" fill="#FFFFFF" d="M33.612,66.467L11.614,79.445c-7.168-12.149-3.131-27.81,9.019-34.977
		c4.046-2.387,8.041-3.498,12.738-3.542L33.612,66.467z"/>
	<path clip-path="url(#SVGID_2_)" fill="#008590" d="M33.612,66.467l-0.241-25.541c14.106-0.133,25.649,11.193,25.781,25.299
		c0.134,14.107-11.194,25.65-25.299,25.783c-9.396,0.088-17.466-4.473-22.239-12.562L33.612,66.467z"/>
</g>
<g>
	<path fill="#FFFFFF" d="M62.141,25.659v-5.811l-1.456,1.469l-1.274-1.339l3.029-2.99h1.937v8.671H62.141z"/>
	<path fill="#FFFFFF" d="M71.215,24.918v3.133h-2.002V19.38h2.002v0.728c0.494-0.598,1.144-0.884,1.859-0.884
		c1.573,0,2.756,1.17,2.756,3.289c0,2.132-1.183,3.302-2.756,3.302C72.372,25.815,71.735,25.542,71.215,24.918z M73.789,22.513
		c0-0.936-0.598-1.521-1.378-1.521c-0.429,0-0.949,0.234-1.196,0.572v1.911c0.247,0.325,0.767,0.572,1.196,0.572
		C73.191,24.047,73.789,23.462,73.789,22.513z"/>
	<path fill="#FFFFFF" d="M76.467,22.513c0-1.82,1.365-3.289,3.328-3.289c1.859,0,3.211,1.365,3.211,3.497v0.455h-4.472
		c0.143,0.559,0.663,1.027,1.573,1.027c0.442,0,1.17-0.195,1.534-0.533l0.871,1.313c-0.624,0.559-1.664,0.832-2.626,0.832
		C77.949,25.815,76.467,24.554,76.467,22.513z M79.795,20.836c-0.871,0-1.209,0.52-1.287,0.975h2.587
		C81.043,21.369,80.718,20.836,79.795,20.836z"/>
	<path fill="#FFFFFF" d="M83.994,25.659V19.38h2.002v0.767c0.416-0.507,1.222-0.936,1.963-0.936v1.924
		c-0.117-0.039-0.286-0.052-0.494-0.052c-0.52,0-1.209,0.221-1.469,0.572v4.004H83.994z"/>
	<path fill="#FFFFFF" d="M88.335,24.84l0.832-1.43c0.468,0.416,1.469,0.845,2.21,0.845c0.598,0,0.845-0.169,0.845-0.442
		c0-0.78-3.653,0.026-3.653-2.522c0-1.105,0.962-2.067,2.691-2.067c1.066,0,1.95,0.338,2.626,0.832l-0.767,1.417
		c-0.377-0.364-1.092-0.689-1.846-0.689c-0.468,0-0.78,0.182-0.78,0.429c0,0.689,3.64-0.026,3.64,2.548
		c0,1.196-1.053,2.054-2.847,2.054C90.156,25.815,88.999,25.438,88.335,24.84z"/>
	<path fill="#FFFFFF" d="M94.758,22.513c0-1.768,1.274-3.289,3.406-3.289c2.158,0,3.432,1.521,3.432,3.289s-1.274,3.302-3.432,3.302
		C96.032,25.815,94.758,24.281,94.758,22.513z M99.542,22.513c0-0.832-0.494-1.521-1.378-1.521c-0.858,0-1.352,0.689-1.352,1.521
		c0,0.845,0.494,1.534,1.352,1.534C99.048,24.047,99.542,23.358,99.542,22.513z"/>
	<path fill="#FFFFFF" d="M106.899,25.659v-3.627c0-0.767-0.403-1.04-1.027-1.04c-0.598,0-0.988,0.325-1.222,0.611v4.056h-2.002
		V19.38h2.002v0.767c0.377-0.442,1.118-0.923,2.184-0.923c1.417,0,2.067,0.832,2.067,1.989v4.446H106.899z"/>
	<path fill="#FFFFFF" d="M113.283,22.513c0-1.82,1.364-3.289,3.328-3.289c1.858,0,3.211,1.365,3.211,3.497v0.455h-4.473
		c0.143,0.559,0.663,1.027,1.573,1.027c0.442,0,1.17-0.195,1.534-0.533l0.871,1.313c-0.625,0.559-1.664,0.832-2.627,0.832
		C114.765,25.815,113.283,24.554,113.283,22.513z M116.611,20.836c-0.871,0-1.21,0.52-1.287,0.975h2.586
		C117.859,21.369,117.533,20.836,116.611,20.836z"/>
	<path fill="#FFFFFF" d="M124.619,25.659l-1.196-1.898l-1.235,1.898h-2.184l2.145-3.224l-2.015-3.055h2.196l1.08,1.703l1.065-1.703
		h2.197l-2.002,3.055l2.146,3.224H124.619z"/>
	<path fill="#FFFFFF" d="M131.17,25.659v-0.624c-0.39,0.468-1.144,0.78-1.949,0.78c-0.963,0-2.158-0.663-2.158-2.067
		c0-1.521,1.195-2.028,2.158-2.028c0.832,0,1.572,0.273,1.949,0.741v-0.624c0-0.546-0.467-0.923-1.273-0.923
		c-0.624,0-1.248,0.247-1.755,0.676l-0.741-1.391c0.807-0.689,1.885-0.975,2.848-0.975c1.508,0,2.924,0.559,2.924,2.509v3.926
		H131.17z M131.17,24.047v-0.559c-0.207-0.299-0.676-0.442-1.117-0.442c-0.521,0-1.002,0.234-1.002,0.728
		c0,0.494,0.481,0.728,1.002,0.728C130.494,24.502,130.963,24.346,131.17,24.047z"/>
	<path fill="#FFFFFF" d="M142.546,25.659v-3.822c0-0.481-0.234-0.845-0.832-0.845c-0.546,0-0.937,0.351-1.132,0.611v4.056h-2.002
		v-3.822c0-0.481-0.221-0.845-0.818-0.845c-0.547,0-0.924,0.351-1.131,0.611v4.056h-2.002V19.38h2.002v0.767
		c0.272-0.364,1.078-0.923,2.066-0.923c0.91,0,1.521,0.377,1.781,1.118c0.364-0.546,1.184-1.118,2.172-1.118
		c1.156,0,1.885,0.598,1.885,1.885v4.55H142.546z"/>
	<path fill="#FFFFFF" d="M145.86,17.664c0-0.637,0.507-1.144,1.144-1.144c0.638,0,1.158,0.507,1.158,1.144
		c0,0.637-0.521,1.157-1.158,1.157C146.367,18.821,145.86,18.301,145.86,17.664z M146.004,25.659V19.38h2.002v6.279H146.004z"/>
	<path fill="#FFFFFF" d="M153.713,25.659v-3.627c0-0.767-0.403-1.04-1.027-1.04c-0.598,0-0.988,0.325-1.223,0.611v4.056h-2.002
		V19.38h2.002v0.767c0.377-0.442,1.119-0.923,2.185-0.923c1.417,0,2.067,0.832,2.067,1.989v4.446H153.713z"/>
	<path fill="#FFFFFF" d="M156.768,22.513c0-1.82,1.365-3.289,3.328-3.289c1.859,0,3.211,1.365,3.211,3.497v0.455h-4.473
		c0.144,0.559,0.664,1.027,1.574,1.027c0.441,0,1.17-0.195,1.533-0.533l0.871,1.313c-0.624,0.559-1.664,0.832-2.626,0.832
		C158.25,25.815,156.768,24.554,156.768,22.513z M160.096,20.836c-0.871,0-1.209,0.52-1.287,0.975h2.587
		C161.344,21.369,161.019,20.836,160.096,20.836z"/>
	<path fill="#FFFFFF" d="M168.52,25.659v-0.728c-0.52,0.598-1.157,0.884-1.859,0.884c-1.547,0-2.769-1.17-2.769-3.302
		c0-2.054,1.196-3.289,2.769-3.289c0.689,0,1.365,0.273,1.859,0.897v-3.133h1.989v8.671H168.52z M168.52,23.475v-1.924
		c-0.26-0.338-0.779-0.559-1.209-0.559c-0.793,0-1.378,0.585-1.378,1.521s0.585,1.534,1.378,1.534
		C167.74,24.047,168.26,23.813,168.52,23.475z"/>
	<path fill="#FFFFFF" d="M174.902,22.513c0-1.82,1.365-3.289,3.328-3.289c1.859,0,3.211,1.365,3.211,3.497v0.455h-4.473
		c0.144,0.559,0.664,1.027,1.574,1.027c0.441,0,1.17-0.195,1.533-0.533l0.871,1.313c-0.624,0.559-1.664,0.832-2.626,0.832
		C176.385,25.815,174.902,24.554,174.902,22.513z M178.23,20.836c-0.871,0-1.209,0.52-1.287,0.975h2.587
		C179.479,21.369,179.153,20.836,178.23,20.836z"/>
	<path fill="#FFFFFF" d="M184.041,25.659l-2.47-6.279h2.106l1.43,3.978l1.417-3.978h2.119l-2.47,6.279H184.041z"/>
	<path fill="#FFFFFF" d="M188.838,22.513c0-1.82,1.365-3.289,3.328-3.289c1.859,0,3.211,1.365,3.211,3.497v0.455h-4.472
		c0.144,0.559,0.663,1.027,1.573,1.027c0.441,0,1.17-0.195,1.533-0.533l0.871,1.313c-0.623,0.559-1.664,0.832-2.625,0.832
		C190.32,25.815,188.838,24.554,188.838,22.513z M192.166,20.836c-0.871,0-1.209,0.52-1.287,0.975h2.588
		C193.414,21.369,193.09,20.836,192.166,20.836z"/>
	<path fill="#FFFFFF" d="M196.365,25.659V19.38h2.002v0.767c0.416-0.507,1.223-0.936,1.963-0.936v1.924
		c-0.117-0.039-0.285-0.052-0.494-0.052c-0.52,0-1.209,0.221-1.469,0.572v4.004H196.365z"/>
	<path fill="#FFFFFF" d="M201.396,26.322c0.143,0.078,0.338,0.117,0.494,0.117c0.455,0,0.74-0.091,0.857-0.351l0.143-0.338
		l-2.508-6.37h2.105l1.43,3.978l1.418-3.978h2.119l-2.835,7.176c-0.507,1.326-1.442,1.625-2.651,1.651
		c-0.183,0-0.65-0.039-0.858-0.104L201.396,26.322z"/>
</g>
<g>
	<path fill="#FFFFFF" d="M107.562,95.521V84.786H79.491V72.994l22.263-36.167h21.031v34.67h7.128v13.288h-7.128v10.735H107.562z
		 M107.562,50.027L94.186,71.498h13.376V50.027z"/>
	<path fill="#FFFFFF" d="M134.051,66.219c0-15.487,8.008-30.271,25.167-30.271s25.167,14.784,25.167,30.271
		c0,15.488-8.008,30.359-25.167,30.359S134.051,81.707,134.051,66.219z M169.074,66.219c0-10.384-2.816-16.896-9.856-16.896
		s-9.855,6.512-9.855,16.896s2.815,16.983,9.855,16.983S169.074,76.603,169.074,66.219z"/>
</g>
<g>
	<path fill="#FFFFFF" d="M79.549,115.951l1.92-3.3c1.08,0.96,3.39,1.949,5.1,1.949c1.38,0,1.95-0.39,1.95-1.02
		c0-1.8-8.43,0.06-8.43-5.82c0-2.55,2.22-4.77,6.21-4.77c2.46,0,4.5,0.78,6.06,1.92l-1.77,3.271c-0.87-0.841-2.52-1.591-4.26-1.591
		c-1.08,0-1.8,0.421-1.8,0.99c0,1.59,8.4-0.06,8.4,5.88c0,2.76-2.43,4.74-6.57,4.74C83.749,118.201,81.079,117.331,79.549,115.951z"
		/>
	<path fill="#FFFFFF" d="M94.369,110.581c0-4.2,3.15-7.59,7.68-7.59c4.29,0,7.41,3.15,7.41,8.07v1.05H99.139
		c0.33,1.29,1.53,2.37,3.629,2.37c1.02,0,2.7-0.45,3.54-1.23l2.01,3.03c-1.44,1.29-3.84,1.92-6.06,1.92
		C97.789,118.201,94.369,115.291,94.369,110.581z M102.048,106.711c-2.01,0-2.79,1.2-2.97,2.25h5.97
		C104.928,107.941,104.178,106.711,102.048,106.711z"/>
	<path fill="#FFFFFF" d="M110.808,110.581c0-4.529,3.36-7.59,7.889-7.59c3.15,0,5.07,1.38,5.94,2.67l-3,2.79
		c-0.569-0.84-1.5-1.38-2.729-1.38c-1.92,0-3.391,1.32-3.391,3.51c0,2.19,1.471,3.54,3.391,3.54c1.229,0,2.16-0.601,2.729-1.41
		l3,2.82c-0.87,1.26-2.79,2.67-5.94,2.67C114.168,118.201,110.808,115.111,110.808,110.581z"/>
	<path fill="#FFFFFF" d="M125.809,110.581c0-4.08,2.939-7.59,7.859-7.59c4.979,0,7.92,3.51,7.92,7.59s-2.94,7.62-7.92,7.62
		C128.748,118.201,125.809,114.661,125.809,110.581z M136.848,110.581c0-1.92-1.141-3.51-3.18-3.51c-1.98,0-3.12,1.59-3.12,3.51
		c0,1.95,1.14,3.54,3.12,3.54C135.707,114.121,136.848,112.531,136.848,110.581z"/>
	<path fill="#FFFFFF" d="M153.828,117.841v-8.37c0-1.77-0.931-2.399-2.371-2.399c-1.379,0-2.279,0.75-2.819,1.41v9.359h-4.62
		v-14.489h4.62v1.77c0.87-1.02,2.58-2.13,5.04-2.13c3.27,0,4.77,1.92,4.77,4.59v10.26H153.828z"/>
	<path fill="#FFFFFF" d="M171.557,117.841v-1.68c-1.199,1.38-2.67,2.04-4.289,2.04c-3.57,0-6.391-2.7-6.391-7.62
		c0-4.74,2.76-7.59,6.391-7.59c1.59,0,3.149,0.63,4.289,2.07v-7.229h4.59v20.009H171.557z M171.557,112.801v-4.439
		c-0.6-0.78-1.8-1.29-2.789-1.29c-1.83,0-3.18,1.35-3.18,3.51s1.35,3.54,3.18,3.54C169.757,114.121,170.957,113.581,171.557,112.801
		z"/>
	<path fill="#FFFFFF" d="M178.307,115.951l1.92-3.3c1.08,0.96,3.39,1.949,5.1,1.949c1.381,0,1.95-0.39,1.95-1.02
		c0-1.8-8.43,0.06-8.43-5.82c0-2.55,2.22-4.77,6.21-4.77c2.46,0,4.5,0.78,6.06,1.92l-1.77,3.271c-0.87-0.841-2.521-1.591-4.26-1.591
		c-1.08,0-1.8,0.421-1.8,0.99c0,1.59,8.399-0.06,8.399,5.88c0,2.76-2.43,4.74-6.57,4.74
		C182.507,118.201,179.837,117.331,178.307,115.951z"/>
</g>
</svg>
