<?xml version="1.0" encoding="utf-8"?>
<!-- Generator: Adobe Illustrator 16.0.0, SVG Export Plug-In . SVG Version: 6.00 Build 0)  -->
<!DOCTYPE svg PUBLIC "-//W3C//DTD SVG 1.1//EN" "http://www.w3.org/Graphics/SVG/1.1/DTD/svg11.dtd">
<svg version="1.1" id="Layer_1" xmlns="http://www.w3.org/2000/svg" xmlns:xlink="http://www.w3.org/1999/xlink" x="0px" y="0px"
	 width="220px" height="159.396px" viewBox="0 0 220 159.396" enable-background="new 0 0 220 159.396" xml:space="preserve">
<rect x="0" fill="#008590" width="220" height="159.729"/>
<g>
	<path fill="#FFFFFF" d="M18.378,63.085v-9.649c20.81-15.049,24.698-18.361,24.698-23.186c0-3.24-3.096-4.968-6.625-4.968
		c-5.328,0-9.361,2.016-12.817,5.256l-6.841-8.208c5.113-5.617,12.745-7.993,19.442-7.993c11.305,0,19.441,6.336,19.441,15.913
		c0,7.417-5.256,13.681-17.209,22.034h17.57v10.801H18.378z"/>
	<path fill="#FFFFFF" d="M82.028,63.085v-8.785h-22.97v-9.649l18.218-29.595h17.209v28.371h5.833v10.873h-5.833v8.785H82.028z
		 M82.028,25.858L71.083,43.428h10.945V25.858z"/>
	<path fill="#FFFFFF" d="M124.939,63.085v-8.785h-22.97v-9.649l18.218-29.595h17.209v28.371h5.833v10.873h-5.833v8.785H124.939z
		 M124.939,25.858l-10.944,17.569h10.944V25.858z"/>
	<path fill="#FFFFFF" d="M145.169,39.107c0-12.673,6.553-24.77,20.594-24.77s20.594,12.097,20.594,24.77
		c0,12.673-6.553,24.842-20.594,24.842S145.169,51.78,145.169,39.107z M173.827,39.107c0-8.497-2.304-13.825-8.064-13.825
		s-8.064,5.329-8.064,13.825s2.304,13.897,8.064,13.897S173.827,47.604,173.827,39.107z"/>
	<path fill="#FFFFFF" d="M15.66,91.195l1.92-3.3c1.08,0.96,3.39,1.949,5.1,1.949c1.38,0,1.95-0.39,1.95-1.02
		c0-1.8-8.43,0.06-8.43-5.819c0-2.551,2.22-4.771,6.21-4.771c2.46,0,4.5,0.78,6.06,1.92l-1.77,3.271
		c-0.87-0.841-2.52-1.591-4.26-1.591c-1.08,0-1.8,0.421-1.8,0.99c0,1.59,8.4-0.06,8.4,5.879c0,2.76-2.43,4.74-6.57,4.74
		C19.86,93.445,17.19,92.575,15.66,91.195z"/>
	<path fill="#FFFFFF" d="M41.189,93.085v-1.74c-0.9,1.021-2.55,2.101-5.01,2.101c-3.27,0-4.77-1.891-4.77-4.53V78.596h4.62v8.399
		c0,1.77,0.9,2.37,2.4,2.37c1.32,0,2.22-0.72,2.76-1.41v-9.359h4.62v14.489H41.189z"/>
	<path fill="#FFFFFF" d="M49.17,93.085V78.596h4.62v1.77c0.96-1.17,2.82-2.16,4.53-2.16v4.44c-0.27-0.09-0.66-0.12-1.14-0.12
		c-1.2,0-2.79,0.51-3.39,1.32v9.239H49.17z"/>
	<path fill="#FFFFFF" d="M64.14,93.085l-5.7-14.489h4.86l3.3,9.179l3.27-9.179h4.89l-5.7,14.489H64.14z"/>
	<path fill="#FFFFFF" d="M75.209,85.826c0-4.2,3.15-7.59,7.68-7.59c4.29,0,7.41,3.15,7.41,8.07v1.049H79.979
		c0.33,1.29,1.53,2.369,3.629,2.369c1.02,0,2.7-0.449,3.54-1.229l2.01,3.03c-1.44,1.29-3.84,1.92-6.06,1.92
		C78.629,93.445,75.209,90.535,75.209,85.826z M82.889,81.956c-2.01,0-2.79,1.2-2.97,2.25h5.97
		C85.769,83.186,85.019,81.956,82.889,81.956z"/>
	<path fill="#FFFFFF" d="M92.939,94.615c0.33,0.18,0.78,0.27,1.14,0.27c1.05,0,1.71-0.21,1.98-0.81l0.33-0.78l-5.79-14.699h4.86
		l3.3,9.179l3.27-9.179h4.89l-6.54,16.559c-1.17,3.06-3.33,3.749-6.12,3.81c-0.42,0-1.5-0.09-1.98-0.24L92.939,94.615z"/>
	<path fill="#FFFFFF" d="M107.069,91.195l1.92-3.3c1.08,0.96,3.39,1.949,5.099,1.949c1.381,0,1.95-0.39,1.95-1.02
		c0-1.8-8.43,0.06-8.43-5.819c0-2.551,2.22-4.771,6.21-4.771c2.46,0,4.5,0.78,6.06,1.92l-1.77,3.271
		c-0.87-0.841-2.521-1.591-4.26-1.591c-1.08,0-1.8,0.421-1.8,0.99c0,1.59,8.399-0.06,8.399,5.879c0,2.76-2.43,4.74-6.57,4.74
		C111.269,93.445,108.599,92.575,107.069,91.195z"/>
	<path fill="#FFFFFF" d="M15.994,115.085v-6.766h2.157v0.826c0.448-0.546,1.317-1.009,2.115-1.009v2.073
		c-0.126-0.042-0.308-0.056-0.532-0.056c-0.56,0-1.303,0.238-1.583,0.616v4.314H15.994z"/>
	<path fill="#FFFFFF" d="M20.53,111.695c0-1.961,1.471-3.544,3.586-3.544c2.003,0,3.46,1.471,3.46,3.768v0.49h-4.818
		c0.154,0.603,0.714,1.106,1.695,1.106c0.476,0,1.261-0.21,1.653-0.574l0.938,1.415c-0.672,0.603-1.793,0.896-2.83,0.896
		C22.127,115.253,20.53,113.895,20.53,111.695z M24.116,109.888c-0.938,0-1.303,0.561-1.387,1.051h2.788
		C25.461,110.463,25.111,109.888,24.116,109.888z"/>
	<path fill="#FFFFFF" d="M27.908,111.695c0-2.283,1.274-3.544,2.983-3.544c0.756,0,1.457,0.308,1.989,0.952v-0.784h2.157v9.343
		h-2.157v-3.376c-0.561,0.673-1.247,0.967-1.989,0.967C29.183,115.253,27.908,113.992,27.908,111.695z M32.881,112.731v-2.059
		c-0.267-0.364-0.827-0.616-1.275-0.616c-0.854,0-1.499,0.63-1.499,1.639c0,1.022,0.645,1.652,1.499,1.652
		C32.054,113.348,32.628,113.082,32.881,112.731z"/>
	<path fill="#FFFFFF" d="M40.889,115.085v-0.812c-0.42,0.477-1.191,0.98-2.339,0.98c-1.527,0-2.228-0.883-2.228-2.115v-4.818h2.157
		v3.922c0,0.827,0.42,1.106,1.121,1.106c0.617,0,1.037-0.336,1.289-0.658v-4.37h2.157v6.766H40.889z"/>
	<path fill="#FFFFFF" d="M44.176,106.471c0-0.687,0.546-1.233,1.232-1.233c0.687,0,1.247,0.547,1.247,1.233
		c0,0.686-0.561,1.246-1.247,1.246C44.723,107.717,44.176,107.156,44.176,106.471z M44.33,115.085v-6.766h2.157v6.766H44.33z"/>
	<path fill="#FFFFFF" d="M47.774,115.085v-6.766h2.157v0.826c0.448-0.546,1.317-1.009,2.115-1.009v2.073
		c-0.126-0.042-0.308-0.056-0.532-0.056c-0.56,0-1.303,0.238-1.583,0.616v4.314H47.774z"/>
	<path fill="#FFFFFF" d="M52.31,111.695c0-1.961,1.471-3.544,3.586-3.544c2.003,0,3.46,1.471,3.46,3.768v0.49h-4.818
		c0.154,0.603,0.714,1.106,1.695,1.106c0.476,0,1.261-0.21,1.653-0.574l0.938,1.415c-0.672,0.603-1.793,0.896-2.83,0.896
		C53.907,115.253,52.31,113.895,52.31,111.695z M55.896,109.888c-0.938,0-1.303,0.561-1.387,1.051h2.788
		C57.24,110.463,56.89,109.888,55.896,109.888z"/>
	<path fill="#FFFFFF" d="M64.688,115.085v-0.784c-0.561,0.645-1.247,0.952-2.003,0.952c-1.667,0-2.984-1.261-2.984-3.558
		c0-2.213,1.289-3.544,2.984-3.544c0.742,0,1.471,0.294,2.003,0.967v-3.376h2.143v9.343H64.688z M64.688,112.731v-2.073
		c-0.28-0.364-0.84-0.602-1.303-0.602c-0.854,0-1.485,0.63-1.485,1.639s0.63,1.652,1.485,1.652
		C63.848,113.348,64.408,113.096,64.688,112.731z"/>
	<path fill="#FFFFFF" d="M71.28,106.471c0-0.687,0.546-1.233,1.232-1.233c0.687,0,1.247,0.547,1.247,1.233
		c0,0.686-0.561,1.246-1.247,1.246C71.826,107.717,71.28,107.156,71.28,106.471z M71.434,115.085v-6.766h2.157v6.766H71.434z"/>
	<path fill="#FFFFFF" d="M79.458,115.085v-3.908c0-0.826-0.434-1.12-1.106-1.12c-0.645,0-1.064,0.35-1.317,0.658v4.37h-2.157v-6.766
		h2.157v0.826c0.406-0.476,1.205-0.994,2.354-0.994c1.527,0,2.227,0.896,2.227,2.143v4.791H79.458z"/>
	<path fill="#FFFFFF" d="M90.784,115.085v-3.908c0-0.826-0.434-1.12-1.106-1.12c-0.645,0-1.064,0.35-1.317,0.658v4.37h-2.157v-6.766
		h2.157v0.826c0.406-0.476,1.205-0.994,2.354-0.994c1.527,0,2.227,0.896,2.227,2.143v4.791H90.784z"/>
	<path fill="#FFFFFF" d="M93.791,111.695c0-1.961,1.471-3.544,3.586-3.544c2.003,0,3.46,1.471,3.46,3.768v0.49h-4.818
		c0.154,0.603,0.714,1.106,1.695,1.106c0.476,0,1.261-0.21,1.653-0.574l0.938,1.415c-0.672,0.603-1.793,0.896-2.83,0.896
		C95.388,115.253,93.791,113.895,93.791,111.695z M97.377,109.888c-0.938,0-1.303,0.561-1.387,1.051h2.788
		C98.722,110.463,98.372,109.888,97.377,109.888z"/>
	<path fill="#FFFFFF" d="M105.722,115.085l-1.289-2.045l-1.331,2.045h-2.353l2.311-3.474l-2.171-3.292h2.367l1.163,1.835
		l1.148-1.835h2.368l-2.157,3.292l2.311,3.474H105.722z"/>
	<path fill="#FFFFFF" d="M108.953,113.264v-3.081h-1.12v-1.863h1.12v-1.849h2.157v1.849h1.373v1.863h-1.373v2.479
		c0,0.392,0.225,0.686,0.589,0.686c0.237,0,0.476-0.084,0.546-0.168l0.42,1.625c-0.266,0.252-0.798,0.448-1.597,0.448
		C109.696,115.253,108.953,114.566,108.953,113.264z"/>
	<path fill="#FFFFFF" d="M117.032,115.085v-4.902h-1.121v-1.863h1.121v-0.154c0-1.61,1.008-2.563,2.423-2.563
		c0.729,0,1.484,0.21,1.934,0.631l-0.785,1.345c-0.168-0.154-0.392-0.238-0.7-0.238c-0.393,0-0.714,0.266-0.714,0.826v0.154h1.372
		v1.863h-1.372v4.902H117.032z"/>
	<path fill="#FFFFFF" d="M120.741,111.695c0-1.905,1.372-3.544,3.67-3.544c2.325,0,3.697,1.639,3.697,3.544
		s-1.372,3.558-3.697,3.558C122.113,115.253,120.741,113.601,120.741,111.695z M125.896,111.695c0-0.896-0.532-1.639-1.484-1.639
		c-0.925,0-1.457,0.742-1.457,1.639c0,0.91,0.532,1.652,1.457,1.652C125.363,113.348,125.896,112.605,125.896,111.695z"/>
	<path fill="#FFFFFF" d="M133.524,115.085v-0.812c-0.42,0.477-1.19,0.98-2.339,0.98c-1.527,0-2.228-0.883-2.228-2.115v-4.818h2.157
		v3.922c0,0.827,0.42,1.106,1.121,1.106c0.616,0,1.036-0.336,1.288-0.658v-4.37h2.157v6.766H133.524z"/>
	<path fill="#FFFFFF" d="M136.967,115.085v-6.766h2.157v0.826c0.448-0.546,1.317-1.009,2.115-1.009v2.073
		c-0.126-0.042-0.308-0.056-0.532-0.056c-0.561,0-1.303,0.238-1.583,0.616v4.314H136.967z"/>
	<path fill="#FFFFFF" d="M145.408,115.8c0.154,0.084,0.364,0.126,0.532,0.126c0.49,0,0.799-0.099,0.925-0.379l0.154-0.364
		l-2.703-6.863h2.269l1.541,4.286l1.527-4.286h2.283l-3.054,7.732c-0.547,1.429-1.556,1.751-2.857,1.778
		c-0.196,0-0.701-0.042-0.925-0.111L145.408,115.8z"/>
	<path fill="#FFFFFF" d="M151.862,111.695c0-1.961,1.471-3.544,3.586-3.544c2.003,0,3.46,1.471,3.46,3.768v0.49h-4.819
		c0.154,0.603,0.715,1.106,1.695,1.106c0.477,0,1.261-0.21,1.652-0.574l0.938,1.415c-0.672,0.603-1.793,0.896-2.829,0.896
		C153.459,115.253,151.862,113.895,151.862,111.695z M155.448,109.888c-0.938,0-1.303,0.561-1.387,1.051h2.787
		C156.793,110.463,156.442,109.888,155.448,109.888z"/>
	<path fill="#FFFFFF" d="M163.681,115.085v-0.673c-0.42,0.505-1.232,0.841-2.101,0.841c-1.037,0-2.325-0.714-2.325-2.228
		c0-1.639,1.288-2.185,2.325-2.185c0.896,0,1.694,0.294,2.101,0.798v-0.672c0-0.588-0.504-0.994-1.372-0.994
		c-0.673,0-1.345,0.266-1.892,0.728l-0.798-1.498c0.868-0.743,2.03-1.051,3.067-1.051c1.625,0,3.151,0.603,3.151,2.703v4.23H163.681
		z M163.681,113.348v-0.602c-0.224-0.322-0.729-0.477-1.204-0.477c-0.561,0-1.079,0.252-1.079,0.784s0.519,0.784,1.079,0.784
		C162.952,113.838,163.457,113.67,163.681,113.348z"/>
	<path fill="#FFFFFF" d="M167.122,115.085v-6.766h2.157v0.826c0.448-0.546,1.316-1.009,2.115-1.009v2.073
		c-0.126-0.042-0.308-0.056-0.532-0.056c-0.561,0-1.303,0.238-1.583,0.616v4.314H167.122z"/>
	<path fill="#FFFFFF" d="M171.518,114.202l0.896-1.54c0.505,0.448,1.583,0.91,2.382,0.91c0.644,0,0.91-0.183,0.91-0.477
		c0-0.84-3.937,0.028-3.937-2.717c0-1.191,1.037-2.228,2.9-2.228c1.148,0,2.101,0.364,2.829,0.896l-0.826,1.526
		c-0.406-0.392-1.177-0.742-1.989-0.742c-0.505,0-0.841,0.196-0.841,0.462c0,0.743,3.922-0.027,3.922,2.746
		c0,1.288-1.134,2.213-3.067,2.213C173.479,115.253,172.232,114.847,171.518,114.202z"/>
	<path fill="#FFFFFF" d="M15.84,120.471c0-0.687,0.546-1.233,1.232-1.233c0.687,0,1.247,0.547,1.247,1.233
		c0,0.686-0.561,1.246-1.247,1.246C16.387,121.717,15.84,121.156,15.84,120.471z M15.994,129.085v-6.766h2.157v6.766H15.994z"/>
	<path fill="#FFFFFF" d="M24.019,129.085v-3.908c0-0.826-0.434-1.12-1.106-1.12c-0.645,0-1.064,0.35-1.317,0.658v4.37h-2.157v-6.766
		h2.157v0.826c0.406-0.476,1.205-0.994,2.354-0.994c1.527,0,2.227,0.896,2.227,2.143v4.791H24.019z"/>
	<path fill="#FFFFFF" d="M35.316,129.085v-0.784c-0.561,0.645-1.247,0.952-2.003,0.952c-1.667,0-2.984-1.261-2.984-3.558
		c0-2.213,1.289-3.544,2.984-3.544c0.742,0,1.471,0.294,2.003,0.967v-3.376h2.143v9.343H35.316z M35.316,126.731v-2.073
		c-0.28-0.364-0.84-0.602-1.303-0.602c-0.854,0-1.485,0.63-1.485,1.639s0.63,1.652,1.485,1.652
		C34.476,127.348,35.036,127.096,35.316,126.731z"/>
	<path fill="#FFFFFF" d="M38.604,120.471c0-0.687,0.546-1.233,1.232-1.233c0.687,0,1.247,0.547,1.247,1.233
		c0,0.686-0.561,1.246-1.247,1.246C39.15,121.717,38.604,121.156,38.604,120.471z M38.758,129.085v-6.766h2.157v6.766H38.758z"/>
	<path fill="#FFFFFF" d="M41.627,128.202l0.896-1.54c0.504,0.448,1.583,0.91,2.381,0.91c0.645,0,0.911-0.183,0.911-0.477
		c0-0.84-3.936,0.028-3.936-2.717c0-1.191,1.037-2.228,2.899-2.228c1.148,0,2.101,0.364,2.83,0.896l-0.827,1.526
		c-0.406-0.392-1.176-0.742-1.989-0.742c-0.504,0-0.841,0.196-0.841,0.462c0,0.743,3.922-0.027,3.922,2.746
		c0,1.288-1.135,2.213-3.068,2.213C43.589,129.253,42.342,128.847,41.627,128.202z"/>
	<path fill="#FFFFFF" d="M49.146,127.264v-3.081h-1.12v-1.863h1.12v-1.849h2.157v1.849h1.373v1.863h-1.373v2.479
		c0,0.392,0.224,0.686,0.588,0.686c0.238,0,0.477-0.084,0.546-0.168l0.42,1.625c-0.266,0.252-0.798,0.448-1.597,0.448
		C49.888,129.253,49.146,128.566,49.146,127.264z"/>
	<path fill="#FFFFFF" d="M53.457,129.085v-6.766h2.157v0.826c0.448-0.546,1.317-1.009,2.115-1.009v2.073
		c-0.126-0.042-0.308-0.056-0.532-0.056c-0.56,0-1.303,0.238-1.583,0.616v4.314H53.457z"/>
	<path fill="#FFFFFF" d="M58.273,120.471c0-0.687,0.546-1.233,1.232-1.233c0.687,0,1.247,0.547,1.247,1.233
		c0,0.686-0.561,1.246-1.247,1.246C58.819,121.717,58.273,121.156,58.273,120.471z M58.427,129.085v-6.766h2.157v6.766H58.427z"/>
	<path fill="#FFFFFF" d="M61.437,125.695c0-2.115,1.569-3.544,3.684-3.544c1.471,0,2.367,0.645,2.773,1.246l-1.401,1.303
		c-0.266-0.392-0.7-0.644-1.274-0.644c-0.896,0-1.583,0.616-1.583,1.639s0.687,1.652,1.583,1.652c0.574,0,1.008-0.279,1.274-0.658
		l1.401,1.317c-0.406,0.588-1.303,1.246-2.773,1.246C63.005,129.253,61.437,127.811,61.437,125.695z"/>
	<path fill="#FFFFFF" d="M69.039,127.264v-3.081h-1.12v-1.863h1.12v-1.849h2.157v1.849h1.373v1.863h-1.373v2.479
		c0,0.392,0.224,0.686,0.588,0.686c0.238,0,0.477-0.084,0.546-0.168l0.42,1.625c-0.266,0.252-0.798,0.448-1.597,0.448
		C69.782,129.253,69.039,128.566,69.039,127.264z"/>
	<path fill="#FFFFFF" d="M72.776,128.202l0.896-1.54c0.504,0.448,1.583,0.91,2.381,0.91c0.645,0,0.911-0.183,0.911-0.477
		c0-0.84-3.936,0.028-3.936-2.717c0-1.191,1.037-2.228,2.899-2.228c1.148,0,2.101,0.364,2.83,0.896l-0.827,1.526
		c-0.406-0.392-1.176-0.742-1.989-0.742c-0.504,0-0.841,0.196-0.841,0.462c0,0.743,3.922-0.027,3.922,2.746
		c0,1.288-1.135,2.213-3.068,2.213C74.738,129.253,73.491,128.847,72.776,128.202z"/>
	<path fill="#FFFFFF" d="M87.143,129.085v-0.673c-0.42,0.505-1.232,0.841-2.101,0.841c-1.037,0-2.325-0.714-2.325-2.228
		c0-1.639,1.289-2.185,2.325-2.185c0.896,0,1.695,0.294,2.101,0.798v-0.672c0-0.588-0.504-0.994-1.373-0.994
		c-0.672,0-1.345,0.266-1.891,0.728l-0.798-1.498c0.869-0.743,2.031-1.051,3.068-1.051c1.625,0,3.151,0.603,3.151,2.703v4.23H87.143
		z M87.143,127.348v-0.602c-0.224-0.322-0.728-0.477-1.205-0.477c-0.56,0-1.079,0.252-1.079,0.784s0.519,0.784,1.079,0.784
		C86.415,127.838,86.918,127.67,87.143,127.348z"/>
	<path fill="#FFFFFF" d="M90.585,129.085v-9.343h2.157v9.343H90.585z"/>
	<path fill="#FFFFFF" d="M94.028,129.085v-6.766h2.157v0.826c0.448-0.546,1.317-1.009,2.115-1.009v2.073
		c-0.126-0.042-0.308-0.056-0.532-0.056c-0.56,0-1.303,0.238-1.583,0.616v4.314H94.028z"/>
	<path fill="#FFFFFF" d="M98.564,125.695c0-1.961,1.471-3.544,3.586-3.544c2.003,0,3.46,1.471,3.46,3.768v0.49h-4.818
		c0.154,0.603,0.714,1.106,1.695,1.106c0.476,0,1.261-0.21,1.653-0.574l0.938,1.415c-0.672,0.603-1.793,0.896-2.83,0.896
		C100.162,129.253,98.564,127.895,98.564,125.695z M102.15,123.888c-0.938,0-1.303,0.561-1.387,1.051h2.788
		C103.495,124.463,103.145,123.888,102.15,123.888z"/>
	<path fill="#FFFFFF" d="M110.383,129.085v-0.673c-0.42,0.505-1.232,0.841-2.101,0.841c-1.037,0-2.325-0.714-2.325-2.228
		c0-1.639,1.289-2.185,2.325-2.185c0.896,0,1.695,0.294,2.101,0.798v-0.672c0-0.588-0.504-0.994-1.373-0.994
		c-0.672,0-1.345,0.266-1.891,0.728l-0.798-1.498c0.869-0.743,2.031-1.051,3.068-1.051c1.625,0,3.151,0.603,3.151,2.703v4.23
		H110.383z M110.383,127.348v-0.602c-0.224-0.322-0.728-0.477-1.205-0.477c-0.56,0-1.079,0.252-1.079,0.784s0.519,0.784,1.079,0.784
		C109.655,127.838,110.159,127.67,110.383,127.348z"/>
	<path fill="#FFFFFF" d="M118.377,129.085v-0.784c-0.561,0.645-1.247,0.952-2.003,0.952c-1.667,0-2.983-1.261-2.983-3.558
		c0-2.213,1.288-3.544,2.983-3.544c0.742,0,1.471,0.294,2.003,0.967v-3.376h2.144v9.343H118.377z M118.377,126.731v-2.073
		c-0.28-0.364-0.841-0.602-1.303-0.602c-0.854,0-1.484,0.63-1.484,1.639s0.63,1.652,1.484,1.652
		C117.536,127.348,118.097,127.096,118.377,126.731z"/>
	<path fill="#FFFFFF" d="M121.985,129.8c0.154,0.084,0.364,0.126,0.532,0.126c0.49,0,0.799-0.099,0.925-0.379l0.154-0.364
		l-2.703-6.863h2.269l1.541,4.286l1.527-4.286h2.283l-3.054,7.732c-0.547,1.429-1.556,1.751-2.858,1.778
		c-0.195,0-0.7-0.042-0.924-0.111L121.985,129.8z"/>
	<path fill="#FFFFFF" d="M134.335,128.286v3.376h-2.157v-9.343h2.157v0.784c0.532-0.645,1.232-0.952,2.003-0.952
		c1.695,0,2.97,1.261,2.97,3.544c0,2.297-1.274,3.558-2.97,3.558C135.582,129.253,134.896,128.959,134.335,128.286z
		 M137.108,125.695c0-1.009-0.645-1.639-1.484-1.639c-0.463,0-1.022,0.252-1.289,0.616v2.059c0.267,0.351,0.826,0.616,1.289,0.616
		C136.464,127.348,137.108,126.718,137.108,125.695z"/>
	<path fill="#FFFFFF" d="M144.136,129.085v-0.673c-0.42,0.505-1.232,0.841-2.101,0.841c-1.037,0-2.325-0.714-2.325-2.228
		c0-1.639,1.288-2.185,2.325-2.185c0.896,0,1.694,0.294,2.101,0.798v-0.672c0-0.588-0.504-0.994-1.372-0.994
		c-0.673,0-1.345,0.266-1.892,0.728l-0.798-1.498c0.868-0.743,2.03-1.051,3.067-1.051c1.625,0,3.151,0.603,3.151,2.703v4.23H144.136
		z M144.136,127.348v-0.602c-0.224-0.322-0.729-0.477-1.204-0.477c-0.561,0-1.079,0.252-1.079,0.784s0.519,0.784,1.079,0.784
		C143.407,127.838,143.912,127.67,144.136,127.348z"/>
	<path fill="#FFFFFF" d="M147.577,129.085v-6.766h2.157v0.826c0.448-0.546,1.316-1.009,2.115-1.009v2.073
		c-0.126-0.042-0.308-0.056-0.532-0.056c-0.561,0-1.303,0.238-1.583,0.616v4.314H147.577z"/>
	<path fill="#FFFFFF" d="M152.996,127.264v-3.081h-1.12v-1.863h1.12v-1.849h2.157v1.849h1.373v1.863h-1.373v2.479
		c0,0.392,0.225,0.686,0.589,0.686c0.237,0,0.476-0.084,0.546-0.168l0.42,1.625c-0.266,0.252-0.798,0.448-1.597,0.448
		C153.738,129.253,152.996,128.566,152.996,127.264z"/>
	<path fill="#FFFFFF" d="M157.153,120.471c0-0.687,0.547-1.233,1.233-1.233s1.246,0.547,1.246,1.233c0,0.686-0.56,1.246-1.246,1.246
		S157.153,121.156,157.153,120.471z M157.308,129.085v-6.766h2.157v6.766H157.308z"/>
	<path fill="#FFFFFF" d="M160.317,125.695c0-2.115,1.568-3.544,3.684-3.544c1.471,0,2.367,0.645,2.773,1.246l-1.4,1.303
		c-0.267-0.392-0.7-0.644-1.275-0.644c-0.896,0-1.582,0.616-1.582,1.639s0.686,1.652,1.582,1.652c0.575,0,1.009-0.279,1.275-0.658
		l1.4,1.317c-0.406,0.588-1.303,1.246-2.773,1.246C161.886,129.253,160.317,127.811,160.317,125.695z"/>
	<path fill="#FFFFFF" d="M167.317,120.471c0-0.687,0.547-1.233,1.233-1.233s1.246,0.547,1.246,1.233c0,0.686-0.56,1.246-1.246,1.246
		S167.317,121.156,167.317,120.471z M167.472,129.085v-6.766h2.157v6.766H167.472z"/>
	<path fill="#FFFFFF" d="M173.072,128.286v3.376h-2.157v-9.343h2.157v0.784c0.532-0.645,1.232-0.952,2.003-0.952
		c1.695,0,2.97,1.261,2.97,3.544c0,2.297-1.274,3.558-2.97,3.558C174.319,129.253,173.633,128.959,173.072,128.286z
		 M175.846,125.695c0-1.009-0.645-1.639-1.484-1.639c-0.463,0-1.022,0.252-1.289,0.616v2.059c0.267,0.351,0.826,0.616,1.289,0.616
		C175.201,127.348,175.846,126.718,175.846,125.695z"/>
	<path fill="#FFFFFF" d="M182.873,129.085v-0.673c-0.42,0.505-1.232,0.841-2.101,0.841c-1.037,0-2.325-0.714-2.325-2.228
		c0-1.639,1.288-2.185,2.325-2.185c0.896,0,1.694,0.294,2.101,0.798v-0.672c0-0.588-0.504-0.994-1.372-0.994
		c-0.673,0-1.345,0.266-1.892,0.728l-0.798-1.498c0.868-0.743,2.03-1.051,3.067-1.051c1.625,0,3.151,0.603,3.151,2.703v4.23H182.873
		z M182.873,127.348v-0.602c-0.224-0.322-0.729-0.477-1.204-0.477c-0.561,0-1.079,0.252-1.079,0.784s0.519,0.784,1.079,0.784
		C182.145,127.838,182.649,127.67,182.873,127.348z"/>
	<path fill="#FFFFFF" d="M186.763,127.264v-3.081h-1.12v-1.863h1.12v-1.849h2.157v1.849h1.373v1.863h-1.373v2.479
		c0,0.392,0.225,0.686,0.589,0.686c0.237,0,0.476-0.084,0.546-0.168l0.42,1.625c-0.266,0.252-0.798,0.448-1.597,0.448
		C187.505,129.253,186.763,128.566,186.763,127.264z"/>
	<path fill="#FFFFFF" d="M190.921,120.471c0-0.687,0.547-1.233,1.233-1.233s1.246,0.547,1.246,1.233c0,0.686-0.56,1.246-1.246,1.246
		S190.921,121.156,190.921,120.471z M191.075,129.085v-6.766h2.157v6.766H191.075z"/>
	<path fill="#FFFFFF" d="M199.1,129.085v-3.908c0-0.826-0.435-1.12-1.107-1.12c-0.644,0-1.064,0.35-1.316,0.658v4.37h-2.157v-6.766
		h2.157v0.826c0.406-0.476,1.205-0.994,2.354-0.994c1.526,0,2.228,0.896,2.228,2.143v4.791H199.1z"/>
	<path fill="#FFFFFF" d="M202.358,130.822l0.938-1.514c0.532,0.561,1.274,0.785,2.059,0.785c0.715,0,1.724-0.309,1.724-1.597v-0.519
		c-0.561,0.672-1.233,0.994-2.004,0.994c-1.652,0-2.969-1.135-2.969-3.418c0-2.227,1.274-3.403,2.969-3.403
		c0.757,0,1.457,0.294,2.004,0.967v-0.799h2.157v6.178c0,2.745-2.199,3.333-3.881,3.333
		C204.193,131.83,203.227,131.536,202.358,130.822z M207.079,126.466v-1.808c-0.267-0.364-0.841-0.602-1.289-0.602
		c-0.854,0-1.484,0.518-1.484,1.498c0,0.995,0.63,1.514,1.484,1.514C206.238,127.068,206.812,126.83,207.079,126.466z"/>
	<path fill="#FFFFFF" d="M15.84,134.471c0-0.687,0.546-1.233,1.232-1.233c0.687,0,1.247,0.547,1.247,1.233
		c0,0.686-0.561,1.246-1.247,1.246C16.387,135.717,15.84,135.156,15.84,134.471z M15.994,143.085v-6.766h2.157v6.766H15.994z"/>
	<path fill="#FFFFFF" d="M24.019,143.085v-3.908c0-0.826-0.434-1.12-1.106-1.12c-0.645,0-1.064,0.35-1.317,0.658v4.37h-2.157v-6.766
		h2.157v0.826c0.406-0.476,1.205-0.994,2.354-0.994c1.527,0,2.227,0.896,2.227,2.143v4.791H24.019z"/>
	<path fill="#FFFFFF" d="M31.212,141.264v-3.081h-1.12v-1.863h1.12v-1.849h2.157v1.849h1.373v1.863h-1.373v2.479
		c0,0.392,0.224,0.686,0.588,0.686c0.238,0,0.477-0.084,0.546-0.168l0.42,1.625c-0.266,0.252-0.798,0.448-1.597,0.448
		C31.955,143.253,31.212,142.566,31.212,141.264z"/>
	<path fill="#FFFFFF" d="M40.118,143.085v-3.937c0-0.826-0.434-1.092-1.121-1.092c-0.63,0-1.051,0.35-1.303,0.658v4.37h-2.157
		v-9.343h2.157v3.403c0.406-0.476,1.205-0.994,2.339-0.994c1.541,0,2.241,0.868,2.241,2.115v4.818H40.118z"/>
	<path fill="#FFFFFF" d="M43.125,139.695c0-1.961,1.471-3.544,3.586-3.544c2.003,0,3.46,1.471,3.46,3.768v0.49h-4.819
		c0.154,0.603,0.715,1.106,1.695,1.106c0.476,0,1.261-0.21,1.653-0.574l0.938,1.415c-0.672,0.603-1.793,0.896-2.83,0.896
		C44.723,143.253,43.125,141.895,43.125,139.695z M46.711,137.888c-0.938,0-1.303,0.561-1.387,1.051h2.788
		C48.056,138.463,47.706,137.888,46.711,137.888z"/>
	<path fill="#FFFFFF" d="M58.808,143.085v-0.784c-0.561,0.645-1.247,0.952-2.003,0.952c-1.667,0-2.984-1.261-2.984-3.558
		c0-2.213,1.289-3.544,2.984-3.544c0.742,0,1.471,0.294,2.003,0.967v-3.376h2.143v9.343H58.808z M58.808,140.731v-2.073
		c-0.28-0.364-0.84-0.602-1.303-0.602c-0.854,0-1.485,0.63-1.485,1.639s0.63,1.652,1.485,1.652
		C57.968,141.348,58.528,141.096,58.808,140.731z"/>
	<path fill="#FFFFFF" d="M61.815,139.695c0-1.905,1.373-3.544,3.67-3.544c2.325,0,3.698,1.639,3.698,3.544s-1.373,3.558-3.698,3.558
		C63.188,143.253,61.815,141.601,61.815,139.695z M66.97,139.695c0-0.896-0.532-1.639-1.485-1.639c-0.924,0-1.457,0.742-1.457,1.639
		c0,0.91,0.532,1.652,1.457,1.652C66.438,141.348,66.97,140.605,66.97,139.695z"/>
	<path fill="#FFFFFF" d="M74.614,143.085v-3.908c0-0.826-0.434-1.12-1.106-1.12c-0.645,0-1.064,0.35-1.317,0.658v4.37h-2.157v-6.766
		h2.157v0.826c0.406-0.476,1.205-0.994,2.354-0.994c1.527,0,2.227,0.896,2.227,2.143v4.791H74.614z"/>
	<path fill="#FFFFFF" d="M82.047,143.085v-0.673c-0.42,0.505-1.232,0.841-2.101,0.841c-1.037,0-2.325-0.714-2.325-2.228
		c0-1.639,1.289-2.185,2.325-2.185c0.896,0,1.695,0.294,2.101,0.798v-0.672c0-0.588-0.504-0.994-1.373-0.994
		c-0.672,0-1.345,0.266-1.891,0.728l-0.798-1.498c0.869-0.743,2.031-1.051,3.068-1.051c1.625,0,3.151,0.603,3.151,2.703v4.23H82.047
		z M82.047,141.348v-0.602c-0.224-0.322-0.728-0.477-1.205-0.477c-0.56,0-1.079,0.252-1.079,0.784s0.519,0.784,1.079,0.784
		C81.319,141.838,81.823,141.67,82.047,141.348z"/>
	<path fill="#FFFFFF" d="M85.938,141.264v-3.081h-1.121v-1.863h1.121v-1.849h2.157v1.849h1.373v1.863h-1.373v2.479
		c0,0.392,0.224,0.686,0.588,0.686c0.238,0,0.477-0.084,0.546-0.168l0.42,1.625c-0.266,0.252-0.799,0.448-1.597,0.448
		C86.68,143.253,85.938,142.566,85.938,141.264z"/>
	<path fill="#FFFFFF" d="M90.095,134.471c0-0.687,0.546-1.233,1.232-1.233c0.687,0,1.247,0.547,1.247,1.233
		c0,0.686-0.561,1.246-1.247,1.246C90.641,135.717,90.095,135.156,90.095,134.471z M90.249,143.085v-6.766h2.157v6.766H90.249z"/>
	<path fill="#FFFFFF" d="M93.258,139.695c0-1.905,1.373-3.544,3.67-3.544c2.325,0,3.698,1.639,3.698,3.544s-1.373,3.558-3.698,3.558
		C94.631,143.253,93.258,141.601,93.258,139.695z M98.413,139.695c0-0.896-0.532-1.639-1.485-1.639
		c-0.924,0-1.457,0.742-1.457,1.639c0,0.91,0.532,1.652,1.457,1.652C97.88,141.348,98.413,140.605,98.413,139.695z"/>
	<path fill="#FFFFFF" d="M106.057,143.085v-3.908c0-0.826-0.434-1.12-1.106-1.12c-0.645,0-1.064,0.35-1.317,0.658v4.37h-2.157
		v-6.766h2.157v0.826c0.406-0.476,1.205-0.994,2.354-0.994c1.527,0,2.227,0.896,2.227,2.143v4.791H106.057z"/>
	<path fill="#FFFFFF" d="M114.959,142.286v3.376h-2.157v-9.343h2.157v0.784c0.532-0.645,1.232-0.952,2.003-0.952
		c1.695,0,2.97,1.261,2.97,3.544c0,2.297-1.274,3.558-2.97,3.558C116.206,143.253,115.52,142.959,114.959,142.286z M117.732,139.695
		c0-1.009-0.645-1.639-1.484-1.639c-0.463,0-1.022,0.252-1.289,0.616v2.059c0.267,0.351,0.826,0.616,1.289,0.616
		C117.088,141.348,117.732,140.718,117.732,139.695z"/>
	<path fill="#FFFFFF" d="M120.769,143.085v-6.766h2.157v0.826c0.448-0.546,1.316-1.009,2.115-1.009v2.073
		c-0.126-0.042-0.308-0.056-0.532-0.056c-0.561,0-1.303,0.238-1.583,0.616v4.314H120.769z"/>
	<path fill="#FFFFFF" d="M125.305,139.695c0-1.905,1.372-3.544,3.67-3.544c2.325,0,3.697,1.639,3.697,3.544
		s-1.372,3.558-3.697,3.558C126.677,143.253,125.305,141.601,125.305,139.695z M130.459,139.695c0-0.896-0.532-1.639-1.484-1.639
		c-0.925,0-1.457,0.742-1.457,1.639c0,0.91,0.532,1.652,1.457,1.652C129.927,141.348,130.459,140.605,130.459,139.695z"/>
	<path fill="#FFFFFF" d="M133.34,144.822l0.938-1.514c0.532,0.561,1.274,0.785,2.059,0.785c0.715,0,1.724-0.309,1.724-1.597v-0.519
		c-0.561,0.672-1.233,0.994-2.004,0.994c-1.652,0-2.969-1.135-2.969-3.418c0-2.227,1.274-3.403,2.969-3.403
		c0.757,0,1.457,0.294,2.004,0.967v-0.799h2.157v6.178c0,2.745-2.199,3.333-3.881,3.333
		C135.175,145.83,134.208,145.536,133.34,144.822z M138.061,140.466v-1.808c-0.267-0.364-0.841-0.602-1.289-0.602
		c-0.854,0-1.484,0.518-1.484,1.498c0,0.995,0.63,1.514,1.484,1.514C137.22,141.068,137.794,140.83,138.061,140.466z"/>
	<path fill="#FFFFFF" d="M141.502,143.085v-6.766h2.157v0.826c0.448-0.546,1.317-1.009,2.115-1.009v2.073
		c-0.126-0.042-0.308-0.056-0.532-0.056c-0.561,0-1.303,0.238-1.583,0.616v4.314H141.502z"/>
	<path fill="#FFFFFF" d="M150.464,143.085v-0.673c-0.42,0.505-1.232,0.841-2.101,0.841c-1.037,0-2.325-0.714-2.325-2.228
		c0-1.639,1.288-2.185,2.325-2.185c0.896,0,1.694,0.294,2.101,0.798v-0.672c0-0.588-0.504-0.994-1.372-0.994
		c-0.673,0-1.345,0.266-1.892,0.728l-0.798-1.498c0.868-0.743,2.03-1.051,3.067-1.051c1.625,0,3.151,0.603,3.151,2.703v4.23H150.464
		z M150.464,141.348v-0.602c-0.224-0.322-0.729-0.477-1.204-0.477c-0.561,0-1.079,0.252-1.079,0.784s0.519,0.784,1.079,0.784
		C149.735,141.838,150.24,141.67,150.464,141.348z"/>
	<path fill="#FFFFFF" d="M162.437,143.085v-4.118c0-0.519-0.253-0.91-0.896-0.91c-0.589,0-1.009,0.378-1.219,0.658v4.37h-2.157
		v-4.118c0-0.519-0.238-0.91-0.883-0.91c-0.588,0-0.994,0.378-1.219,0.658v4.37h-2.157v-6.766h2.157v0.826
		c0.294-0.392,1.163-0.994,2.228-0.994c0.98,0,1.639,0.406,1.919,1.204c0.393-0.588,1.274-1.204,2.339-1.204
		c1.247,0,2.031,0.645,2.031,2.031v4.902H162.437z"/>
	<path fill="#FFFFFF" d="M174.406,143.085v-4.118c0-0.519-0.253-0.91-0.896-0.91c-0.589,0-1.009,0.378-1.219,0.658v4.37h-2.157
		v-4.118c0-0.519-0.238-0.91-0.883-0.91c-0.588,0-0.994,0.378-1.219,0.658v4.37h-2.157v-6.766h2.157v0.826
		c0.294-0.392,1.163-0.994,2.228-0.994c0.98,0,1.639,0.406,1.919,1.204c0.393-0.588,1.274-1.204,2.339-1.204
		c1.247,0,2.031,0.645,2.031,2.031v4.902H174.406z"/>
	<path fill="#FFFFFF" d="M177.412,139.695c0-1.961,1.471-3.544,3.586-3.544c2.003,0,3.459,1.471,3.459,3.768v0.49h-4.818
		c0.154,0.603,0.715,1.106,1.695,1.106c0.477,0,1.261-0.21,1.652-0.574l0.938,1.415c-0.672,0.603-1.793,0.896-2.829,0.896
		C179.009,143.253,177.412,141.895,177.412,139.695z M180.998,137.888c-0.938,0-1.303,0.561-1.387,1.051h2.787
		C182.343,138.463,181.992,137.888,180.998,137.888z"/>
</g>
</svg>
