<?xml version="1.0" encoding="utf-8"?>
<!-- Generator: Adobe Illustrator 16.0.0, SVG Export Plug-In . SVG Version: 6.00 Build 0)  -->
<!DOCTYPE svg PUBLIC "-//W3C//DTD SVG 1.1//EN" "http://www.w3.org/Graphics/SVG/1.1/DTD/svg11.dtd">
<svg version="1.1" id="Layer_1" xmlns="http://www.w3.org/2000/svg" xmlns:xlink="http://www.w3.org/1999/xlink" x="0px" y="0px"
	 width="220px" height="173px" viewBox="0 0 220 173" enable-background="new 0 0 220 173" xml:space="preserve">
<rect fill="#018590" width="220" height="173"/>
<g>
	<path fill="#FFFFFF" d="M18.4,63.1v-9.6c20.8-15,24.7-18.4,24.7-23.2c0-3.2-3.1-5-6.6-5c-5.3,0-9.4,2-12.8,5.3l-6.8-8.2
		c5.1-5.6,12.7-8,19.4-8c11.3,0,19.4,6.3,19.4,15.9c0,7.4-5.3,13.7-17.2,22H56v10.8H18.4z"/>
	<path fill="#FFFFFF" d="M66.2,73.3l-4.6-3.7c2.3-1.2,5.3-4.2,6.1-6.8c-0.3,0.1-1,0.2-1.7,0.2c-3.1,0-5.6-2.4-5.6-5.9
		c0-3.7,3-6.6,6.6-6.6c3.9,0,7.3,3,7.3,8.3C74.4,64.6,71.2,69.8,66.2,73.3z"/>
	<path fill="#FFFFFF" d="M100,63.1v-8.8h-23v-9.6l18.2-29.6h17.2v28.4h5.8v10.9h-5.8v8.8H100z M100,25.9L89.1,43.4H100V25.9z"/>
	<path fill="#FFFFFF" d="M142.9,63.1v-8.8h-23v-9.6l18.2-29.6h17.2v28.4h5.8v10.9h-5.8v8.8H142.9z M142.9,25.9L132,43.4h10.9V25.9z"
		/>
	<path fill="#FFFFFF" d="M163.2,39.1c0-12.7,6.6-24.8,20.6-24.8s20.6,12.1,20.6,24.8c0,12.7-6.6,24.8-20.6,24.8
		S163.2,51.8,163.2,39.1z M191.9,39.1c0-8.5-2.3-13.8-8.1-13.8s-8.1,5.3-8.1,13.8s2.3,13.9,8.1,13.9S191.9,47.6,191.9,39.1z"/>
</g>
<g>
	<path fill="#FFFFFF" d="M21.5,95.4v7.2h-4.6v-20h4.6v1.7c1.1-1.4,2.6-2,4.3-2c3.6,0,6.4,2.7,6.4,7.6c0,4.9-2.7,7.6-6.4,7.6
		C24.2,97.4,22.7,96.8,21.5,95.4z M27.5,89.8c0-2.2-1.4-3.5-3.2-3.5c-1,0-2.2,0.5-2.8,1.3V92c0.6,0.8,1.8,1.3,2.8,1.3
		C26.1,93.4,27.5,92,27.5,89.8z"/>
	<path fill="#FFFFFF" d="M33.6,89.8c0-4.2,3.1-7.6,7.7-7.6c4.3,0,7.4,3.1,7.4,8.1v1.1H38.4c0.3,1.3,1.5,2.4,3.6,2.4
		c1,0,2.7-0.4,3.5-1.2l2,3c-1.4,1.3-3.8,1.9-6.1,1.9C37.1,97.4,33.6,94.5,33.6,89.8z M41.3,86c-2,0-2.8,1.2-3,2.2h6
		C44.2,87.2,43.4,86,41.3,86z"/>
	<path fill="#FFFFFF" d="M49.8,95.2l1.9-3.3c1.1,1,3.4,1.9,5.1,1.9c1.4,0,1.9-0.4,1.9-1c0-1.8-8.4,0.1-8.4-5.8
		c0-2.5,2.2-4.8,6.2-4.8c2.5,0,4.5,0.8,6.1,1.9l-1.8,3.3c-0.9-0.8-2.5-1.6-4.3-1.6c-1.1,0-1.8,0.4-1.8,1c0,1.6,8.4-0.1,8.4,5.9
		c0,2.8-2.4,4.7-6.6,4.7C54,97.4,51.3,96.6,49.8,95.2z"/>
	<path fill="#FFFFFF" d="M64.6,89.8c0-4.9,2.7-7.6,6.4-7.6c1.6,0,3.1,0.7,4.3,2v-1.7h4.6v20h-4.6v-7.2c-1.2,1.4-2.7,2.1-4.3,2.1
		C67.3,97.4,64.6,94.7,64.6,89.8z M75.2,92v-4.4c-0.6-0.8-1.8-1.3-2.7-1.3c-1.8,0-3.2,1.4-3.2,3.5c0,2.2,1.4,3.5,3.2,3.5
		C73.4,93.4,74.7,92.8,75.2,92z"/>
	<path fill="#FFFFFF" d="M93,97.1v-1.7c-0.9,1-2.5,2.1-5,2.1c-3.3,0-4.8-1.9-4.8-4.5V82.6h4.6V91c0,1.8,0.9,2.4,2.4,2.4
		c1.3,0,2.2-0.7,2.8-1.4v-9.4h4.6v14.5H93z"/>
	<path fill="#FFFFFF" d="M100.6,78.6c0-1.5,1.2-2.6,2.6-2.6c1.5,0,2.7,1.2,2.7,2.6s-1.2,2.7-2.7,2.7
		C101.8,81.3,100.6,80.1,100.6,78.6z M100.9,97.1V82.6h4.6v14.5H100.9z"/>
	<path fill="#FFFFFF" d="M107.7,95.2l1.9-3.3c1.1,1,3.4,1.9,5.1,1.9c1.4,0,2-0.4,2-1c0-1.8-8.4,0.1-8.4-5.8c0-2.5,2.2-4.8,6.2-4.8
		c2.5,0,4.5,0.8,6.1,1.9l-1.8,3.3c-0.9-0.8-2.5-1.6-4.3-1.6c-1.1,0-1.8,0.4-1.8,1c0,1.6,8.4-0.1,8.4,5.9c0,2.8-2.4,4.7-6.6,4.7
		C111.9,97.4,109.2,96.6,107.7,95.2z"/>
	<path fill="#FFFFFF" d="M132,97.1v-1.4c-0.9,1.1-2.6,1.8-4.5,1.8c-2.2,0-5-1.5-5-4.8c0-3.5,2.8-4.7,5-4.7c1.9,0,3.6,0.6,4.5,1.7
		v-1.4c0-1.3-1.1-2.1-2.9-2.1c-1.4,0-2.9,0.6-4,1.6l-1.7-3.2c1.9-1.6,4.3-2.2,6.6-2.2c3.5,0,6.8,1.3,6.8,5.8v9.1H132z M132,93.4
		v-1.3c-0.5-0.7-1.6-1-2.6-1c-1.2,0-2.3,0.5-2.3,1.7c0,1.1,1.1,1.7,2.3,1.7C130.4,94.4,131.5,94.1,132,93.4z"/>
	<path fill="#FFFFFF" d="M138.7,95.2l1.9-3.3c1.1,1,3.4,1.9,5.1,1.9c1.4,0,2-0.4,2-1c0-1.8-8.4,0.1-8.4-5.8c0-2.5,2.2-4.8,6.2-4.8
		c2.5,0,4.5,0.8,6.1,1.9l-1.8,3.3c-0.9-0.8-2.5-1.6-4.3-1.6c-1.1,0-1.8,0.4-1.8,1c0,1.6,8.4-0.1,8.4,5.9c0,2.8-2.4,4.7-6.6,4.7
		C142.9,97.4,140.3,96.6,138.7,95.2z"/>
</g>
<g>
	<path fill="#FFFFFF" d="M16,117.1v-6.8h2.2v0.8c0.4-0.5,1.3-1,2.1-1v2.1c-0.1,0-0.3-0.1-0.5-0.1c-0.6,0-1.3,0.2-1.6,0.6v4.3H16z"/>
	<path fill="#FFFFFF" d="M20.5,113.7c0-2,1.5-3.5,3.6-3.5c2,0,3.5,1.5,3.5,3.8v0.5h-4.8c0.2,0.6,0.7,1.1,1.7,1.1
		c0.5,0,1.3-0.2,1.7-0.6l0.9,1.4c-0.7,0.6-1.8,0.9-2.8,0.9C22.1,117.3,20.5,115.9,20.5,113.7z M24.1,111.9c-0.9,0-1.3,0.6-1.4,1.1
		h2.8C25.5,112.5,25.1,111.9,24.1,111.9z"/>
	<path fill="#FFFFFF" d="M27.9,113.7c0-2.3,1.3-3.5,3-3.5c0.8,0,1.5,0.3,2,1v-0.8h2.2v9.3h-2.2v-3.4c-0.6,0.7-1.2,1-2,1
		C29.2,117.3,27.9,116,27.9,113.7z M32.9,114.7v-2.1c-0.3-0.4-0.8-0.6-1.3-0.6c-0.9,0-1.5,0.6-1.5,1.6c0,1,0.6,1.7,1.5,1.7
		C32.1,115.3,32.6,115.1,32.9,114.7z"/>
	<path fill="#FFFFFF" d="M40.9,117.1v-0.8c-0.4,0.5-1.2,1-2.3,1c-1.5,0-2.2-0.9-2.2-2.1v-4.8h2.2v3.9c0,0.8,0.4,1.1,1.1,1.1
		c0.6,0,1-0.3,1.3-0.7v-4.4h2.2v6.8H40.9z"/>
	<path fill="#FFFFFF" d="M43.9,113.7c0-2,1.5-3.5,3.6-3.5c2,0,3.5,1.5,3.5,3.8v0.5h-4.8c0.2,0.6,0.7,1.1,1.7,1.1
		c0.5,0,1.3-0.2,1.7-0.6l0.9,1.4c-0.7,0.6-1.8,0.9-2.8,0.9C45.5,117.3,43.9,115.9,43.9,113.7z M47.5,111.9c-0.9,0-1.3,0.6-1.4,1.1
		h2.8C48.9,112.5,48.5,111.9,47.5,111.9z"/>
	<path fill="#FFFFFF" d="M51.8,117.1v-6.8h2.2v0.8c0.4-0.5,1.3-1,2.1-1v2.1c-0.1,0-0.3-0.1-0.5-0.1c-0.6,0-1.3,0.2-1.6,0.6v4.3H51.8
		z"/>
	<path fill="#FFFFFF" d="M56.6,108.5c0-0.7,0.5-1.2,1.2-1.2c0.7,0,1.2,0.5,1.2,1.2c0,0.7-0.6,1.2-1.2,1.2
		C57.1,109.7,56.6,109.2,56.6,108.5z M56.7,117.1v-6.8h2.2v6.8H56.7z"/>
	<path fill="#FFFFFF" d="M64.8,117.1v-0.8c-0.6,0.6-1.2,1-2,1c-1.7,0-3-1.3-3-3.6c0-2.2,1.3-3.5,3-3.5c0.7,0,1.5,0.3,2,1v-3.4h2.1
		v9.3H64.8z M64.8,114.7v-2.1c-0.3-0.4-0.8-0.6-1.3-0.6c-0.9,0-1.5,0.6-1.5,1.6s0.6,1.7,1.5,1.7C63.9,115.3,64.5,115.1,64.8,114.7z"
		/>
	<path fill="#FFFFFF" d="M72.2,117.1v-0.7c-0.4,0.5-1.2,0.8-2.1,0.8c-1,0-2.3-0.7-2.3-2.2c0-1.6,1.3-2.2,2.3-2.2
		c0.9,0,1.7,0.3,2.1,0.8V113c0-0.6-0.5-1-1.4-1c-0.7,0-1.3,0.3-1.9,0.7l-0.8-1.5c0.9-0.7,2-1.1,3.1-1.1c1.6,0,3.2,0.6,3.2,2.7v4.2
		H72.2z M72.2,115.3v-0.6c-0.2-0.3-0.7-0.5-1.2-0.5c-0.6,0-1.1,0.3-1.1,0.8s0.5,0.8,1.1,0.8C71.5,115.8,72,115.7,72.2,115.3z"/>
	<path fill="#FFFFFF" d="M75.1,116.2l0.9-1.5c0.5,0.4,1.6,0.9,2.4,0.9c0.6,0,0.9-0.2,0.9-0.5c0-0.8-3.9,0-3.9-2.7
		c0-1.2,1-2.2,2.9-2.2c1.1,0,2.1,0.4,2.8,0.9l-0.8,1.5c-0.4-0.4-1.2-0.7-2-0.7c-0.5,0-0.8,0.2-0.8,0.5c0,0.7,3.9,0,3.9,2.7
		c0,1.3-1.1,2.2-3.1,2.2C77,117.3,75.8,116.8,75.1,116.2z"/>
	<path fill="#FFFFFF" d="M90.1,117.1v-3.9c0-0.8-0.4-1.1-1.1-1.1c-0.6,0-1.1,0.3-1.3,0.7v4.4h-2.2v-6.8h2.2v0.8c0.4-0.5,1.2-1,2.4-1
		c1.5,0,2.2,0.9,2.2,2.1v4.8H90.1z"/>
	<path fill="#FFFFFF" d="M93.1,113.7c0-1.9,1.4-3.5,3.7-3.5c2.3,0,3.7,1.6,3.7,3.5s-1.4,3.6-3.7,3.6
		C94.5,117.3,93.1,115.6,93.1,113.7z M98.2,113.7c0-0.9-0.5-1.6-1.5-1.6c-0.9,0-1.5,0.7-1.5,1.6c0,0.9,0.5,1.7,1.5,1.7
		C97.7,115.3,98.2,114.6,98.2,113.7z"/>
	<path fill="#FFFFFF" d="M100.8,116.2l0.9-1.5c0.5,0.4,1.6,0.9,2.4,0.9c0.6,0,0.9-0.2,0.9-0.5c0-0.8-3.9,0-3.9-2.7
		c0-1.2,1-2.2,2.9-2.2c1.1,0,2.1,0.4,2.8,0.9l-0.8,1.5c-0.4-0.4-1.2-0.7-2-0.7c-0.5,0-0.8,0.2-0.8,0.5c0,0.7,3.9,0,3.9,2.7
		c0,1.3-1.1,2.2-3.1,2.2C102.7,117.3,101.5,116.8,100.8,116.2z"/>
	<path fill="#FFFFFF" d="M113.3,116.3v3.4h-2.2v-9.3h2.2v0.8c0.5-0.6,1.2-1,2-1c1.7,0,3,1.3,3,3.5c0,2.3-1.3,3.6-3,3.6
		C114.6,117.3,113.9,117,113.3,116.3z M116.1,113.7c0-1-0.6-1.6-1.5-1.6c-0.5,0-1,0.3-1.3,0.6v2.1c0.3,0.4,0.8,0.6,1.3,0.6
		C115.4,115.3,116.1,114.7,116.1,113.7z"/>
	<path fill="#FFFFFF" d="M119.1,117.1v-6.8h2.2v0.8c0.4-0.5,1.3-1,2.1-1v2.1c-0.1,0-0.3-0.1-0.5-0.1c-0.6,0-1.3,0.2-1.6,0.6v4.3
		H119.1z"/>
	<path fill="#FFFFFF" d="M123.7,113.7c0-1.9,1.4-3.5,3.7-3.5c2.3,0,3.7,1.6,3.7,3.5s-1.4,3.6-3.7,3.6
		C125.1,117.3,123.7,115.6,123.7,113.7z M128.8,113.7c0-0.9-0.5-1.6-1.5-1.6c-0.9,0-1.5,0.7-1.5,1.6c0,0.9,0.5,1.7,1.5,1.7
		C128.3,115.3,128.8,114.6,128.8,113.7z M127.6,109.3h-1.5l1.8-2h1.9L127.6,109.3z"/>
	<path fill="#FFFFFF" d="M136,117.1l-1.3-2l-1.3,2H131l2.3-3.5l-2.2-3.3h2.4l1.2,1.8l1.1-1.8h2.4l-2.2,3.3l2.3,3.5H136z"/>
	<path fill="#FFFFFF" d="M138.7,108.5c0-0.7,0.5-1.2,1.2-1.2s1.2,0.5,1.2,1.2c0,0.7-0.6,1.2-1.2,1.2S138.7,109.2,138.7,108.5z
		 M138.8,117.1v-6.8h2.2v6.8H138.8z"/>
	<path fill="#FFFFFF" d="M150.8,117.1V113c0-0.5-0.3-0.9-0.9-0.9c-0.6,0-1,0.4-1.2,0.7v4.4h-2.2V113c0-0.5-0.2-0.9-0.9-0.9
		c-0.6,0-1,0.4-1.2,0.7v4.4h-2.2v-6.8h2.2v0.8c0.3-0.4,1.2-1,2.2-1c1,0,1.6,0.4,1.9,1.2c0.4-0.6,1.3-1.2,2.3-1.2c1.2,0,2,0.6,2,2
		v4.9H150.8z"/>
	<path fill="#FFFFFF" d="M153.8,113.7c0-1.9,1.4-3.5,3.7-3.5c2.3,0,3.7,1.6,3.7,3.5s-1.4,3.6-3.7,3.6
		C155.2,117.3,153.8,115.6,153.8,113.7z M159,113.7c0-0.9-0.5-1.6-1.5-1.6c-0.9,0-1.5,0.7-1.5,1.6c0,0.9,0.5,1.7,1.5,1.7
		C158.4,115.3,159,114.6,159,113.7z"/>
	<path fill="#FFFFFF" d="M161.5,116.2l0.9-1.5c0.5,0.4,1.6,0.9,2.4,0.9c0.6,0,0.9-0.2,0.9-0.5c0-0.8-3.9,0-3.9-2.7
		c0-1.2,1-2.2,2.9-2.2c1.1,0,2.1,0.4,2.8,0.9l-0.8,1.5c-0.4-0.4-1.2-0.7-2-0.7c-0.5,0-0.8,0.2-0.8,0.5c0,0.7,3.9,0,3.9,2.7
		c0,1.3-1.1,2.2-3.1,2.2C163.4,117.3,162.2,116.8,161.5,116.2z"/>
</g>
<g>
	<path fill="#FFFFFF" d="M15.5,127.7c0-2.3,1.3-3.5,3-3.5c0.8,0,1.5,0.3,2,1v-0.8h2.2v9.3h-2.2v-3.4c-0.6,0.7-1.2,1-2,1
		C16.8,131.3,15.5,130,15.5,127.7z M20.5,128.7v-2.1c-0.3-0.4-0.8-0.6-1.3-0.6c-0.9,0-1.5,0.6-1.5,1.6c0,1,0.6,1.7,1.5,1.7
		C19.7,129.3,20.3,129.1,20.5,128.7z"/>
	<path fill="#FFFFFF" d="M28.5,131.1v-0.8c-0.4,0.5-1.2,1-2.3,1c-1.5,0-2.2-0.9-2.2-2.1v-4.8h2.2v3.9c0,0.8,0.4,1.1,1.1,1.1
		c0.6,0,1-0.3,1.3-0.7v-4.4h2.2v6.8H28.5z"/>
	<path fill="#FFFFFF" d="M36,131.1v-0.7c-0.4,0.5-1.2,0.8-2.1,0.8c-1,0-2.3-0.7-2.3-2.2c0-1.6,1.3-2.2,2.3-2.2
		c0.9,0,1.7,0.3,2.1,0.8V127c0-0.6-0.5-1-1.4-1c-0.7,0-1.3,0.3-1.9,0.7l-0.8-1.5c0.9-0.7,2-1.1,3.1-1.1c1.6,0,3.2,0.6,3.2,2.7v4.2
		H36z M36,129.3v-0.6c-0.2-0.3-0.7-0.5-1.2-0.5c-0.6,0-1.1,0.3-1.1,0.8s0.5,0.8,1.1,0.8C35.3,129.8,35.8,129.7,36,129.3z"/>
	<path fill="#FFFFFF" d="M39.9,129.3v-3.1h-1.1v-1.9h1.1v-1.8h2.2v1.8h1.4v1.9h-1.4v2.5c0,0.4,0.2,0.7,0.6,0.7
		c0.2,0,0.5-0.1,0.5-0.2l0.4,1.6c-0.3,0.3-0.8,0.4-1.6,0.4C40.6,131.3,39.9,130.6,39.9,129.3z"/>
	<path fill="#FFFFFF" d="M44.2,131.1v-6.8h2.2v0.8c0.4-0.5,1.3-1,2.1-1v2.1c-0.1,0-0.3-0.1-0.5-0.1c-0.6,0-1.3,0.2-1.6,0.6v4.3H44.2
		z"/>
	<path fill="#FFFFFF" d="M48.8,127.7c0-1.9,1.4-3.5,3.7-3.5c2.3,0,3.7,1.6,3.7,3.5s-1.4,3.6-3.7,3.6
		C50.1,131.3,48.8,129.6,48.8,127.7z M53.9,127.7c0-0.9-0.5-1.6-1.5-1.6c-0.9,0-1.5,0.7-1.5,1.6c0,0.9,0.5,1.7,1.5,1.7
		C53.4,129.3,53.9,128.6,53.9,127.7z"/>
	<path fill="#FFFFFF" d="M64.3,131.1v-0.7c-0.4,0.5-1.2,0.8-2.1,0.8c-1,0-2.3-0.7-2.3-2.2c0-1.6,1.3-2.2,2.3-2.2
		c0.9,0,1.7,0.3,2.1,0.8V127c0-0.6-0.5-1-1.4-1c-0.7,0-1.3,0.3-1.9,0.7l-0.8-1.5c0.9-0.7,2-1.1,3.1-1.1c1.6,0,3.2,0.6,3.2,2.7v4.2
		H64.3z M64.3,129.3v-0.6c-0.2-0.3-0.7-0.5-1.2-0.5c-0.6,0-1.1,0.3-1.1,0.8s0.5,0.8,1.1,0.8C63.6,129.8,64.1,129.7,64.3,129.3z"/>
	<path fill="#FFFFFF" d="M72.3,131.1v-3.9c0-0.8-0.4-1.1-1.1-1.1c-0.6,0-1.1,0.3-1.3,0.7v4.4h-2.2v-6.8h2.2v0.8c0.4-0.5,1.2-1,2.4-1
		c1.5,0,2.2,0.9,2.2,2.1v4.8H72.3z"/>
	<path fill="#FFFFFF" d="M75.4,127.7c0-1.9,1.4-3.5,3.7-3.5c2.3,0,3.7,1.6,3.7,3.5s-1.4,3.6-3.7,3.6
		C76.7,131.3,75.4,129.6,75.4,127.7z M80.5,127.7c0-0.9-0.5-1.6-1.5-1.6c-0.9,0-1.5,0.7-1.5,1.6c0,0.9,0.5,1.7,1.5,1.7
		C80,129.3,80.5,128.6,80.5,127.7z"/>
	<path fill="#FFFFFF" d="M83,130.2l0.9-1.5c0.5,0.4,1.6,0.9,2.4,0.9c0.6,0,0.9-0.2,0.9-0.5c0-0.8-3.9,0-3.9-2.7c0-1.2,1-2.2,2.9-2.2
		c1.1,0,2.1,0.4,2.8,0.9l-0.8,1.5c-0.4-0.4-1.2-0.7-2-0.7c-0.5,0-0.8,0.2-0.8,0.5c0,0.7,3.9,0,3.9,2.7c0,1.3-1.1,2.2-3.1,2.2
		C85,131.3,83.7,130.8,83,130.2z"/>
	<path fill="#FFFFFF" d="M93,127.7c0-2,1.5-3.5,3.6-3.5c2,0,3.5,1.5,3.5,3.8v0.5h-4.8c0.2,0.6,0.7,1.1,1.7,1.1
		c0.5,0,1.3-0.2,1.7-0.6l0.9,1.4c-0.7,0.6-1.8,0.9-2.8,0.9C94.6,131.3,93,129.9,93,127.7z M96.6,125.9c-0.9,0-1.3,0.6-1.4,1.1H98
		C97.9,126.5,97.6,125.9,96.6,125.9z"/>
	<path fill="#FFFFFF" d="M109.4,131.1V127c0-0.5-0.3-0.9-0.9-0.9c-0.6,0-1,0.4-1.2,0.7v4.4h-2.2V127c0-0.5-0.2-0.9-0.9-0.9
		c-0.6,0-1,0.4-1.2,0.7v4.4h-2.2v-6.8h2.2v0.8c0.3-0.4,1.2-1,2.2-1c1,0,1.6,0.4,1.9,1.2c0.4-0.6,1.3-1.2,2.3-1.2c1.2,0,2,0.6,2,2
		v4.9H109.4z"/>
	<path fill="#FFFFFF" d="M120.7,131.1v-0.8c-0.6,0.6-1.2,1-2,1c-1.7,0-3-1.3-3-3.6c0-2.2,1.3-3.5,3-3.5c0.7,0,1.5,0.3,2,1v-3.4h2.1
		v9.3H120.7z M120.7,128.7v-2.1c-0.3-0.4-0.8-0.6-1.3-0.6c-0.9,0-1.5,0.6-1.5,1.6s0.6,1.7,1.5,1.7
		C119.8,129.3,120.4,129.1,120.7,128.7z"/>
	<path fill="#FFFFFF" d="M124,122.5c0-0.7,0.5-1.2,1.2-1.2s1.2,0.5,1.2,1.2c0,0.7-0.6,1.2-1.2,1.2S124,123.2,124,122.5z
		 M124.1,131.1v-6.8h2.2v6.8H124.1z"/>
	<path fill="#FFFFFF" d="M127,130.2l0.9-1.5c0.5,0.4,1.6,0.9,2.4,0.9c0.6,0,0.9-0.2,0.9-0.5c0-0.8-3.9,0-3.9-2.7
		c0-1.2,1-2.2,2.9-2.2c1.1,0,2.1,0.4,2.8,0.9l-0.8,1.5c-0.4-0.4-1.2-0.7-2-0.7c-0.5,0-0.8,0.2-0.8,0.5c0,0.7,3.9,0,3.9,2.7
		c0,1.3-1.1,2.2-3.1,2.2C129,131.3,127.7,130.8,127,130.2z"/>
	<path fill="#FFFFFF" d="M134.5,129.3v-3.1h-1.1v-1.9h1.1v-1.8h2.2v1.8h1.4v1.9h-1.4v2.5c0,0.4,0.2,0.7,0.6,0.7
		c0.2,0,0.5-0.1,0.5-0.2l0.4,1.6c-0.3,0.3-0.8,0.4-1.6,0.4C135.3,131.3,134.5,130.6,134.5,129.3z"/>
	<path fill="#FFFFFF" d="M138.9,131.1v-6.8h2.2v0.8c0.4-0.5,1.3-1,2.1-1v2.1c-0.1,0-0.3-0.1-0.5-0.1c-0.6,0-1.3,0.2-1.6,0.6v4.3
		H138.9z"/>
	<path fill="#FFFFFF" d="M143.7,122.5c0-0.7,0.5-1.2,1.2-1.2s1.2,0.5,1.2,1.2c0,0.7-0.6,1.2-1.2,1.2S143.7,123.2,143.7,122.5z
		 M143.8,131.1v-6.8h2.2v6.8H143.8z"/>
	<path fill="#FFFFFF" d="M147.7,129.3v-3.1h-1.1v-1.9h1.1v-1.8h2.2v1.8h1.4v1.9h-1.4v2.5c0,0.4,0.2,0.7,0.6,0.7
		c0.2,0,0.5-0.1,0.5-0.2l0.4,1.6c-0.3,0.3-0.8,0.4-1.6,0.4C148.5,131.3,147.7,130.6,147.7,129.3z"/>
	<path fill="#FFFFFF" d="M151.6,127.7c0-1.9,1.4-3.5,3.7-3.5c2.3,0,3.7,1.6,3.7,3.5s-1.4,3.6-3.7,3.6
		C153,131.3,151.6,129.6,151.6,127.7z M156.8,127.7c0-0.9-0.5-1.6-1.5-1.6c-0.9,0-1.5,0.7-1.5,1.6c0,0.9,0.5,1.7,1.5,1.7
		C156.3,129.3,156.8,128.6,156.8,127.7z"/>
	<path fill="#FFFFFF" d="M159.3,130.2l0.9-1.5c0.5,0.4,1.6,0.9,2.4,0.9c0.6,0,0.9-0.2,0.9-0.5c0-0.8-3.9,0-3.9-2.7
		c0-1.2,1-2.2,2.9-2.2c1.1,0,2.1,0.4,2.8,0.9l-0.8,1.5c-0.4-0.4-1.2-0.7-2-0.7c-0.5,0-0.8,0.2-0.8,0.5c0,0.7,3.9,0,3.9,2.7
		c0,1.3-1.1,2.2-3.1,2.2C161.3,131.3,160,130.8,159.3,130.2z"/>
</g>
<g>
	<path fill="#FFFFFF" d="M15.5,141.7c0-2.3,1.3-3.5,3-3.5c0.8,0,1.5,0.3,2,1v-0.8h2.2v9.3h-2.2v-3.4c-0.6,0.7-1.2,1-2,1
		C16.8,145.3,15.5,144,15.5,141.7z M20.5,142.7v-2.1c-0.3-0.4-0.8-0.6-1.3-0.6c-0.9,0-1.5,0.6-1.5,1.6c0,1,0.6,1.7,1.5,1.7
		C19.7,143.3,20.3,143.1,20.5,142.7z"/>
	<path fill="#FFFFFF" d="M28.5,145.1v-0.8c-0.4,0.5-1.2,1-2.3,1c-1.5,0-2.2-0.9-2.2-2.1v-4.8h2.2v3.9c0,0.8,0.4,1.1,1.1,1.1
		c0.6,0,1-0.3,1.3-0.7v-4.4h2.2v6.8H28.5z"/>
	<path fill="#FFFFFF" d="M31.6,141.7c0-2,1.5-3.5,3.6-3.5c2,0,3.5,1.5,3.5,3.8v0.5h-4.8c0.2,0.6,0.7,1.1,1.7,1.1
		c0.5,0,1.3-0.2,1.7-0.6l0.9,1.4c-0.7,0.6-1.8,0.9-2.8,0.9C33.2,145.3,31.6,143.9,31.6,141.7z M35.1,139.9c-0.9,0-1.3,0.6-1.4,1.1
		h2.8C36.5,140.5,36.1,139.9,35.1,139.9z"/>
	<path fill="#FFFFFF" d="M40.5,147.4l0.5-1.6c0.3,0.2,0.5,0.3,0.9,0.3c0.5,0,0.8-0.3,0.8-1.1v-6.7h2.2v6.7c0,1.6-0.8,2.8-2.6,2.8
		C41.3,147.8,41,147.7,40.5,147.4z M42.6,136.5c0-0.7,0.5-1.2,1.2-1.2c0.7,0,1.2,0.5,1.2,1.2c0,0.7-0.6,1.2-1.2,1.2
		C43.1,137.7,42.6,137.2,42.6,136.5z"/>
	<path fill="#FFFFFF" d="M50.2,145.1v-0.7c-0.4,0.5-1.2,0.8-2.1,0.8c-1,0-2.3-0.7-2.3-2.2c0-1.6,1.3-2.2,2.3-2.2
		c0.9,0,1.7,0.3,2.1,0.8V141c0-0.6-0.5-1-1.4-1c-0.7,0-1.3,0.3-1.9,0.7l-0.8-1.5c0.9-0.7,2-1.1,3.1-1.1c1.6,0,3.2,0.6,3.2,2.7v4.2
		H50.2z M50.2,143.3v-0.6c-0.2-0.3-0.7-0.5-1.2-0.5c-0.6,0-1.1,0.3-1.1,0.8s0.5,0.8,1.1,0.8C49.4,143.8,49.9,143.7,50.2,143.3z
		 M49.5,137.3H48l1.8-2h1.9L49.5,137.3z"/>
	<path fill="#FFFFFF" d="M59.1,144.3v3.4h-2.2v-9.3h2.2v0.8c0.5-0.6,1.2-1,2-1c1.7,0,3,1.3,3,3.5c0,2.3-1.3,3.6-3,3.6
		C60.3,145.3,59.6,145,59.1,144.3z M61.9,141.7c0-1-0.6-1.6-1.5-1.6c-0.5,0-1,0.3-1.3,0.6v2.1c0.3,0.4,0.8,0.6,1.3,0.6
		C61.2,143.3,61.9,142.7,61.9,141.7z"/>
	<path fill="#FFFFFF" d="M68.9,145.1v-0.7c-0.4,0.5-1.2,0.8-2.1,0.8c-1,0-2.3-0.7-2.3-2.2c0-1.6,1.3-2.2,2.3-2.2
		c0.9,0,1.7,0.3,2.1,0.8V141c0-0.6-0.5-1-1.4-1c-0.7,0-1.3,0.3-1.9,0.7l-0.8-1.5c0.9-0.7,2-1.1,3.1-1.1c1.6,0,3.2,0.6,3.2,2.7v4.2
		H68.9z M68.9,143.3v-0.6c-0.2-0.3-0.7-0.5-1.2-0.5c-0.6,0-1.1,0.3-1.1,0.8s0.5,0.8,1.1,0.8C68.2,143.8,68.7,143.7,68.9,143.3z"/>
	<path fill="#FFFFFF" d="M72.4,145.1v-6.8h2.2v0.8c0.4-0.5,1.3-1,2.1-1v2.1c-0.1,0-0.3-0.1-0.5-0.1c-0.6,0-1.3,0.2-1.6,0.6v4.3H72.4
		z"/>
	<path fill="#FFFFFF" d="M77.8,143.3v-3.1h-1.1v-1.9h1.1v-1.8h2.2v1.8h1.4v1.9h-1.4v2.5c0,0.4,0.2,0.7,0.6,0.7
		c0.2,0,0.5-0.1,0.5-0.2l0.4,1.6c-0.3,0.3-0.8,0.4-1.6,0.4C78.5,145.3,77.8,144.6,77.8,143.3z"/>
	<path fill="#FFFFFF" d="M82,136.5c0-0.7,0.5-1.2,1.2-1.2c0.7,0,1.2,0.5,1.2,1.2c0,0.7-0.6,1.2-1.2,1.2
		C82.5,137.7,82,137.2,82,136.5z M82.1,145.1v-6.8h2.2v6.8H82.1z"/>
	<path fill="#FFFFFF" d="M85.1,141.7c0-2.1,1.6-3.5,3.7-3.5c1.5,0,2.4,0.6,2.8,1.2l-1.4,1.3c-0.3-0.4-0.7-0.6-1.3-0.6
		c-0.9,0-1.6,0.6-1.6,1.6s0.7,1.7,1.6,1.7c0.6,0,1-0.3,1.3-0.7l1.4,1.3c-0.4,0.6-1.3,1.2-2.8,1.2C86.7,145.3,85.1,143.8,85.1,141.7z
		"/>
	<path fill="#FFFFFF" d="M92.2,136.5c0-0.7,0.5-1.2,1.2-1.2c0.7,0,1.2,0.5,1.2,1.2c0,0.7-0.6,1.2-1.2,1.2
		C92.7,137.7,92.2,137.2,92.2,136.5z M92.3,145.1v-6.8h2.2v6.8H92.3z"/>
	<path fill="#FFFFFF" d="M97.9,144.3v3.4h-2.2v-9.3h2.2v0.8c0.5-0.6,1.2-1,2-1c1.7,0,3,1.3,3,3.5c0,2.3-1.3,3.6-3,3.6
		C99.2,145.3,98.5,145,97.9,144.3z M100.7,141.7c0-1-0.6-1.6-1.5-1.6c-0.5,0-1,0.3-1.3,0.6v2.1c0.3,0.4,0.8,0.6,1.3,0.6
		C100.1,143.3,100.7,142.7,100.7,141.7z"/>
	<path fill="#FFFFFF" d="M107.7,145.1v-0.7c-0.4,0.5-1.2,0.8-2.1,0.8c-1,0-2.3-0.7-2.3-2.2c0-1.6,1.3-2.2,2.3-2.2
		c0.9,0,1.7,0.3,2.1,0.8V141c0-0.6-0.5-1-1.4-1c-0.7,0-1.3,0.3-1.9,0.7l-0.8-1.5c0.9-0.7,2-1.1,3.1-1.1c1.6,0,3.2,0.6,3.2,2.7v4.2
		H107.7z M107.7,143.3v-0.6c-0.2-0.3-0.7-0.5-1.2-0.5c-0.6,0-1.1,0.3-1.1,0.8s0.5,0.8,1.1,0.8C107,143.8,107.5,143.7,107.7,143.3z"
		/>
	<path fill="#FFFFFF" d="M119.7,145.1V141c0-0.5-0.3-0.9-0.9-0.9c-0.6,0-1,0.4-1.2,0.7v4.4h-2.2V141c0-0.5-0.2-0.9-0.9-0.9
		c-0.6,0-1,0.4-1.2,0.7v4.4h-2.2v-6.8h2.2v0.8c0.3-0.4,1.2-1,2.2-1c1,0,1.6,0.4,1.9,1.2c0.4-0.6,1.3-1.2,2.3-1.2c1.2,0,2,0.6,2,2
		v4.9H119.7z"/>
	<path fill="#FFFFFF" d="M131.1,145.1v-3.9c0-0.8-0.4-1.1-1.1-1.1c-0.6,0-1.1,0.3-1.3,0.7v4.4h-2.2v-6.8h2.2v0.8
		c0.4-0.5,1.2-1,2.4-1c1.5,0,2.2,0.9,2.2,2.1v4.8H131.1z"/>
	<path fill="#FFFFFF" d="M134.1,141.7c0-1.9,1.4-3.5,3.7-3.5c2.3,0,3.7,1.6,3.7,3.5s-1.4,3.6-3.7,3.6
		C135.5,145.3,134.1,143.6,134.1,141.7z M139.3,141.7c0-0.9-0.5-1.6-1.5-1.6c-0.9,0-1.5,0.7-1.5,1.6c0,0.9,0.5,1.7,1.5,1.7
		C138.7,143.3,139.3,142.6,139.3,141.7z"/>
	<path fill="#FFFFFF" d="M147.8,144.3v3.4h-2.2v-9.3h2.2v0.8c0.5-0.6,1.2-1,2-1c1.7,0,3,1.3,3,3.5c0,2.3-1.3,3.6-3,3.6
		C149,145.3,148.4,145,147.8,144.3z M150.6,141.7c0-1-0.6-1.6-1.5-1.6c-0.5,0-1,0.3-1.3,0.6v2.1c0.3,0.4,0.8,0.6,1.3,0.6
		C149.9,143.3,150.6,142.7,150.6,141.7z"/>
	<path fill="#FFFFFF" d="M153.6,145.1v-6.8h2.2v0.8c0.4-0.5,1.3-1,2.1-1v2.1c-0.1,0-0.3-0.1-0.5-0.1c-0.6,0-1.3,0.2-1.6,0.6v4.3
		H153.6z"/>
	<path fill="#FFFFFF" d="M158.1,141.7c0-1.9,1.4-3.5,3.7-3.5c2.3,0,3.7,1.6,3.7,3.5s-1.4,3.6-3.7,3.6
		C159.5,145.3,158.1,143.6,158.1,141.7z M163.3,141.7c0-0.9-0.5-1.6-1.5-1.6c-0.9,0-1.5,0.7-1.5,1.6c0,0.9,0.5,1.7,1.5,1.7
		C162.8,143.3,163.3,142.6,163.3,141.7z"/>
	<path fill="#FFFFFF" d="M166.2,146.8l0.9-1.5c0.5,0.6,1.3,0.8,2.1,0.8c0.7,0,1.7-0.3,1.7-1.6V144c-0.6,0.7-1.2,1-2,1
		c-1.7,0-3-1.1-3-3.4c0-2.2,1.3-3.4,3-3.4c0.8,0,1.5,0.3,2,1v-0.8h2.2v6.2c0,2.7-2.2,3.3-3.9,3.3C168,147.8,167.1,147.5,166.2,146.8
		z M170.9,142.5v-1.8c-0.3-0.4-0.8-0.6-1.3-0.6c-0.9,0-1.5,0.5-1.5,1.5c0,1,0.6,1.5,1.5,1.5C170.1,143.1,170.7,142.8,170.9,142.5z"
		/>
	<path fill="#FFFFFF" d="M174.4,145.1v-6.8h2.2v0.8c0.4-0.5,1.3-1,2.1-1v2.1c-0.1,0-0.3-0.1-0.5-0.1c-0.6,0-1.3,0.2-1.6,0.6v4.3
		H174.4z"/>
	<path fill="#FFFFFF" d="M183.3,145.1v-0.7c-0.4,0.5-1.2,0.8-2.1,0.8c-1,0-2.3-0.7-2.3-2.2c0-1.6,1.3-2.2,2.3-2.2
		c0.9,0,1.7,0.3,2.1,0.8V141c0-0.6-0.5-1-1.4-1c-0.7,0-1.3,0.3-1.9,0.7l-0.8-1.5c0.9-0.7,2-1.1,3.1-1.1c1.6,0,3.2,0.6,3.2,2.7v4.2
		H183.3z M183.3,143.3v-0.6c-0.2-0.3-0.7-0.5-1.2-0.5c-0.6,0-1.1,0.3-1.1,0.8s0.5,0.8,1.1,0.8C182.6,143.8,183.1,143.7,183.3,143.3z
		"/>
	<path fill="#FFFFFF" d="M195.3,145.1V141c0-0.5-0.3-0.9-0.9-0.9c-0.6,0-1,0.4-1.2,0.7v4.4H191V141c0-0.5-0.2-0.9-0.9-0.9
		c-0.6,0-1,0.4-1.2,0.7v4.4h-2.2v-6.8h2.2v0.8c0.3-0.4,1.2-1,2.2-1c1,0,1.6,0.4,1.9,1.2c0.4-0.6,1.3-1.2,2.3-1.2c1.2,0,2,0.6,2,2
		v4.9H195.3z"/>
	<path fill="#FFFFFF" d="M202.8,145.1v-0.7c-0.4,0.5-1.2,0.8-2.1,0.8c-1,0-2.3-0.7-2.3-2.2c0-1.6,1.3-2.2,2.3-2.2
		c0.9,0,1.7,0.3,2.1,0.8V141c0-0.6-0.5-1-1.4-1c-0.7,0-1.3,0.3-1.9,0.7l-0.8-1.5c0.9-0.7,2-1.1,3.1-1.1c1.6,0,3.2,0.6,3.2,2.7v4.2
		H202.8z M202.8,143.3v-0.6c-0.2-0.3-0.7-0.5-1.2-0.5c-0.6,0-1.1,0.3-1.1,0.8s0.5,0.8,1.1,0.8C202,143.8,202.5,143.7,202.8,143.3z"
		/>
</g>
<g>
	<path fill="#FFFFFF" d="M20.5,159.1v-0.8c-0.6,0.6-1.2,1-2,1c-1.7,0-3-1.3-3-3.6c0-2.2,1.3-3.5,3-3.5c0.7,0,1.5,0.3,2,1v-3.4h2.1
		v9.3H20.5z M20.5,156.7v-2.1c-0.3-0.4-0.8-0.6-1.3-0.6c-0.9,0-1.5,0.6-1.5,1.6s0.6,1.7,1.5,1.7C19.7,157.3,20.3,157.1,20.5,156.7z"
		/>
	<path fill="#FFFFFF" d="M23.6,155.7c0-2,1.5-3.5,3.6-3.5c2,0,3.5,1.5,3.5,3.8v0.5h-4.8c0.2,0.6,0.7,1.1,1.7,1.1
		c0.5,0,1.3-0.2,1.7-0.6l0.9,1.4c-0.7,0.6-1.8,0.9-2.8,0.9C25.2,159.3,23.6,157.9,23.6,155.7z M27.2,153.9c-0.9,0-1.3,0.6-1.4,1.1
		h2.8C28.5,154.5,28.1,153.9,27.2,153.9z"/>
	<path fill="#FFFFFF" d="M39.3,159.1v-0.8c-0.6,0.6-1.2,1-2,1c-1.7,0-3-1.3-3-3.6c0-2.2,1.3-3.5,3-3.5c0.7,0,1.5,0.3,2,1v-3.4h2.1
		v9.3H39.3z M39.3,156.7v-2.1c-0.3-0.4-0.8-0.6-1.3-0.6c-0.9,0-1.5,0.6-1.5,1.6s0.6,1.7,1.5,1.7C38.4,157.3,39,157.1,39.3,156.7z"/>
	<path fill="#FFFFFF" d="M42.3,155.7c0-1.9,1.4-3.5,3.7-3.5c2.3,0,3.7,1.6,3.7,3.5s-1.4,3.6-3.7,3.6
		C43.7,159.3,42.3,157.6,42.3,155.7z M47.5,155.7c0-0.9-0.5-1.6-1.5-1.6c-0.9,0-1.5,0.7-1.5,1.6c0,0.9,0.5,1.7,1.5,1.7
		C46.9,157.3,47.5,156.6,47.5,155.7z"/>
	<path fill="#FFFFFF" d="M54.5,159.1v-0.7c-0.4,0.5-1.2,0.8-2.1,0.8c-1,0-2.3-0.7-2.3-2.2c0-1.6,1.3-2.2,2.3-2.2
		c0.9,0,1.7,0.3,2.1,0.8V155c0-0.6-0.5-1-1.4-1c-0.7,0-1.3,0.3-1.9,0.7l-0.8-1.5c0.9-0.7,2-1.1,3.1-1.1c1.6,0,3.2,0.6,3.2,2.7v4.2
		H54.5z M54.5,157.3v-0.6c-0.2-0.3-0.7-0.5-1.2-0.5c-0.6,0-1.1,0.3-1.1,0.8s0.5,0.8,1.1,0.8C53.8,157.8,54.3,157.7,54.5,157.3z"/>
	<path fill="#FFFFFF" d="M59.7,161.4l0.4-0.8c0.4,0.3,0.8,0.4,1.1,0.4c0.3,0,0.7-0.1,0.7-0.4c0-0.2-0.1-0.3-0.4-0.3
		c-0.2,0-0.3,0.1-0.4,0.2l-0.7-0.4l0.3-0.8c-1.8-0.2-3.2-1.6-3.2-3.5c0-2.1,1.6-3.5,3.7-3.5c1.5,0,2.4,0.6,2.8,1.2l-1.4,1.3
		c-0.3-0.4-0.7-0.6-1.3-0.6c-0.9,0-1.6,0.6-1.6,1.6s0.7,1.7,1.6,1.7c0.6,0,1-0.3,1.3-0.7L64,158c-0.4,0.5-1.1,1.1-2.3,1.2l-0.2,0.5
		c0.1-0.1,0.3-0.1,0.5-0.1c0.5,0,1,0.4,1,1c0,0.8-0.7,1.2-1.6,1.2C60.6,161.8,60,161.6,59.7,161.4z"/>
	<path fill="#FFFFFF" d="M68.7,159.1v-0.7c-0.4,0.5-1.2,0.8-2.1,0.8c-1,0-2.3-0.7-2.3-2.2c0-1.6,1.3-2.2,2.3-2.2
		c0.9,0,1.7,0.3,2.1,0.8V155c0-0.6-0.5-1-1.4-1c-0.7,0-1.3,0.3-1.9,0.7l-0.8-1.5c0.9-0.7,2-1.1,3.1-1.1c1.6,0,3.2,0.6,3.2,2.7v4.2
		H68.7z M66.9,150.6c-0.2,0-0.4,0.2-0.4,0.7h-1.1c0-1.2,0.5-1.9,1.6-1.9c0.9,0,1.1,0.8,1.6,0.8c0.2,0,0.4-0.2,0.4-0.7h1.1
		c0,1.2-0.5,1.9-1.6,1.9C67.6,151.3,67.4,150.6,66.9,150.6z M68.7,157.3v-0.6c-0.2-0.3-0.7-0.5-1.2-0.5c-0.6,0-1.1,0.3-1.1,0.8
		s0.5,0.8,1.1,0.8C68,157.8,68.5,157.7,68.7,157.3z"/>
	<path fill="#FFFFFF" d="M71.7,155.7c0-1.9,1.4-3.5,3.7-3.5c2.3,0,3.7,1.6,3.7,3.5s-1.4,3.6-3.7,3.6
		C73.1,159.3,71.7,157.6,71.7,155.7z M76.9,155.7c0-0.9-0.5-1.6-1.5-1.6c-0.9,0-1.5,0.7-1.5,1.6c0,0.9,0.5,1.7,1.5,1.7
		C76.3,157.3,76.9,156.6,76.9,155.7z"/>
</g>
</svg>
