<?xml version="1.0" encoding="utf-8"?>
<!-- Generator: Adobe Illustrator 19.0.0, SVG Export Plug-In . SVG Version: 6.00 Build 0)  -->
<svg version="1.1" id="Layer_1" xmlns="http://www.w3.org/2000/svg" xmlns:xlink="http://www.w3.org/1999/xlink" x="0px" y="0px"
	 viewBox="0 0 220 173" style="enable-background:new 0 0 220 173;" xml:space="preserve">
<style type="text/css">
	.st0{fill:#008590;}
	.st1{fill:#FFFFFF;}
</style>
<rect x="0" class="st0" width="220" height="173"/>
<g>
	<path class="st1" d="M18.4,63.1v-9.6c20.8-15,24.7-18.4,24.7-23.2c0-3.2-3.1-5-6.6-5c-5.3,0-9.4,2-12.8,5.3l-6.8-8.2
		c5.1-5.6,12.7-8,19.4-8c11.3,0,19.4,6.3,19.4,15.9c0,7.4-5.3,13.7-17.2,22H56v10.8H18.4z"/>
	<path class="st1" d="M82,63.1v-8.8h-23v-9.6l18.2-29.6h17.2v28.4h5.8v10.9h-5.8v8.8H82z M82,25.9L71.1,43.4H82V25.9z"/>
	<path class="st1" d="M124.9,63.1v-8.8h-23v-9.6l18.2-29.6h17.2v28.4h5.8v10.9h-5.8v8.8H124.9z M124.9,25.9L114,43.4h10.9V25.9z"/>
	<path class="st1" d="M145.2,39.1c0-12.7,6.6-24.8,20.6-24.8s20.6,12.1,20.6,24.8c0,12.7-6.6,24.8-20.6,24.8S145.2,51.8,145.2,39.1z
		 M173.8,39.1c0-8.5-2.3-13.8-8.1-13.8s-8.1,5.3-8.1,13.8S160,53,165.8,53S173.8,47.6,173.8,39.1z"/>
	<path class="st1" d="M20.6,93.1l-5.7-14.5h4.9l3.3,9.2l3.3-9.2h4.9l-5.7,14.5H20.6z"/>
	<path class="st1" d="M32.3,74.6c0-1.5,1.2-2.6,2.6-2.6c1.5,0,2.7,1.2,2.7,2.6s-1.2,2.7-2.7,2.7C33.4,77.3,32.3,76.1,32.3,74.6z
		 M32.6,93.1V78.6h4.6v14.5H32.6z"/>
	<path class="st1" d="M39.4,91.2l1.9-3.3c1.1,1,3.4,1.9,5.1,1.9c1.4,0,1.9-0.4,1.9-1c0-1.8-8.4,0.1-8.4-5.8c0-2.6,2.2-4.8,6.2-4.8
		c2.5,0,4.5,0.8,6.1,1.9l-1.8,3.3c-0.9-0.8-2.5-1.6-4.3-1.6c-1.1,0-1.8,0.4-1.8,1c0,1.6,8.4-0.1,8.4,5.9c0,2.8-2.4,4.7-6.6,4.7
		C43.6,93.4,40.9,92.6,39.4,91.2z"/>
	<path class="st1" d="M56.1,89.2v-6.6h-2.4v-4h2.4v-4h4.6v4h2.9v4h-2.9v5.3c0,0.8,0.5,1.5,1.3,1.5c0.5,0,1-0.2,1.2-0.4l0.9,3.5
		c-0.6,0.5-1.7,1-3.4,1C57.7,93.4,56.1,92,56.1,89.2z"/>
	<path class="st1" d="M65,85.8c0-4.1,2.9-7.6,7.9-7.6c5,0,7.9,3.5,7.9,7.6c0,4.1-2.9,7.6-7.9,7.6C67.9,93.4,65,89.9,65,85.8z
		 M76,85.8c0-1.9-1.1-3.5-3.2-3.5c-2,0-3.1,1.6-3.1,3.5c0,2,1.1,3.5,3.1,3.5C74.9,89.4,76,87.8,76,85.8z"/>
	<path class="st1" d="M83.2,93.1V78.6h4.6v1.8c1-1.2,2.8-2.2,4.5-2.2v4.4c-0.3-0.1-0.7-0.1-1.1-0.1c-1.2,0-2.8,0.5-3.4,1.3v9.2H83.2
		z"/>
	<path class="st1" d="M94.1,74.6c0-1.5,1.2-2.6,2.6-2.6c1.5,0,2.7,1.2,2.7,2.6s-1.2,2.7-2.7,2.7C95.3,77.3,94.1,76.1,94.1,74.6z
		 M94.4,93.1V78.6h4.6v14.5H94.4z"/>
	<path class="st1" d="M111,93.1v-1.4c-0.9,1.1-2.6,1.8-4.5,1.8c-2.2,0-5-1.5-5-4.8c0-3.5,2.8-4.7,5-4.7c1.9,0,3.6,0.6,4.5,1.7v-1.4
		c0-1.3-1.1-2.1-2.9-2.1c-1.4,0-2.9,0.6-4,1.6l-1.7-3.2c1.9-1.6,4.4-2.2,6.6-2.2c3.5,0,6.8,1.3,6.8,5.8v9.1H111z M111,89.4v-1.3
		c-0.5-0.7-1.6-1-2.6-1c-1.2,0-2.3,0.5-2.3,1.7c0,1.1,1.1,1.7,2.3,1.7C109.4,90.4,110.5,90.1,111,89.4z"/>
	<path class="st1" d="M117.7,91.2l1.9-3.3c1.1,1,3.4,1.9,5.1,1.9c1.4,0,2-0.4,2-1c0-1.8-8.4,0.1-8.4-5.8c0-2.6,2.2-4.8,6.2-4.8
		c2.5,0,4.5,0.8,6.1,1.9l-1.8,3.3c-0.9-0.8-2.5-1.6-4.3-1.6c-1.1,0-1.8,0.4-1.8,1c0,1.6,8.4-0.1,8.4,5.9c0,2.8-2.4,4.7-6.6,4.7
		C121.9,93.4,119.2,92.6,117.7,91.2z"/>
	<path class="st1" d="M16,115.1v-6.8h2.2v0.8c0.4-0.5,1.3-1,2.1-1v2.1c-0.1,0-0.3-0.1-0.5-0.1c-0.6,0-1.3,0.2-1.6,0.6v4.3H16z"/>
	<path class="st1" d="M20.5,111.7c0-2,1.5-3.5,3.6-3.5c2,0,3.5,1.5,3.5,3.8v0.5h-4.8c0.2,0.6,0.7,1.1,1.7,1.1c0.5,0,1.3-0.2,1.7-0.6
		l0.9,1.4c-0.7,0.6-1.8,0.9-2.8,0.9C22.1,115.3,20.5,113.9,20.5,111.7z M24.1,109.9c-0.9,0-1.3,0.6-1.4,1.1h2.8
		C25.5,110.5,25.1,109.9,24.1,109.9z"/>
	<path class="st1" d="M27.9,111.7c0-2.3,1.3-3.5,3-3.5c0.8,0,1.5,0.3,2,1v-0.8H35v9.3h-2.2v-3.4c-0.6,0.7-1.2,1-2,1
		C29.2,115.3,27.9,114,27.9,111.7z M32.9,112.7v-2.1c-0.3-0.4-0.8-0.6-1.3-0.6c-0.9,0-1.5,0.6-1.5,1.6c0,1,0.6,1.7,1.5,1.7
		C32.1,113.3,32.6,113.1,32.9,112.7z"/>
	<path class="st1" d="M40.9,115.1v-0.8c-0.4,0.5-1.2,1-2.3,1c-1.5,0-2.2-0.9-2.2-2.1v-4.8h2.2v3.9c0,0.8,0.4,1.1,1.1,1.1
		c0.6,0,1-0.3,1.3-0.7v-4.4H43v6.8H40.9z"/>
	<path class="st1" d="M43.9,111.7c0-2,1.5-3.5,3.6-3.5c2,0,3.5,1.5,3.5,3.8v0.5h-4.8c0.2,0.6,0.7,1.1,1.7,1.1c0.5,0,1.3-0.2,1.7-0.6
		l0.9,1.4c-0.7,0.6-1.8,0.9-2.8,0.9C45.5,115.3,43.9,113.9,43.9,111.7z M47.5,109.9c-0.9,0-1.3,0.6-1.4,1.1h2.8
		C48.8,110.5,48.5,109.9,47.5,109.9z"/>
	<path class="st1" d="M51.7,115.1v-6.8h2.2v0.8c0.4-0.5,1.3-1,2.1-1v2.1c-0.1,0-0.3-0.1-0.5-0.1c-0.6,0-1.3,0.2-1.6,0.6v4.3H51.7z"
		/>
	<path class="st1" d="M56.5,106.5c0-0.7,0.5-1.2,1.2-1.2c0.7,0,1.2,0.5,1.2,1.2c0,0.7-0.6,1.2-1.2,1.2
		C57.1,107.7,56.5,107.2,56.5,106.5z M56.7,115.1v-6.8h2.2v6.8H56.7z"/>
	<path class="st1" d="M64.7,115.1v-0.8c-0.6,0.6-1.2,1-2,1c-1.7,0-3-1.3-3-3.6c0-2.2,1.3-3.5,3-3.5c0.7,0,1.5,0.3,2,1v-3.4h2.1v9.3
		H64.7z M64.7,112.7v-2.1c-0.3-0.4-0.8-0.6-1.3-0.6c-0.9,0-1.5,0.6-1.5,1.6s0.6,1.7,1.5,1.7C63.8,113.3,64.4,113.1,64.7,112.7z"/>
	<path class="st1" d="M72.1,115.1v-0.7c-0.4,0.5-1.2,0.8-2.1,0.8c-1,0-2.3-0.7-2.3-2.2c0-1.6,1.3-2.2,2.3-2.2c0.9,0,1.7,0.3,2.1,0.8
		V111c0-0.6-0.5-1-1.4-1c-0.7,0-1.3,0.3-1.9,0.7l-0.8-1.5c0.9-0.7,2-1.1,3.1-1.1c1.6,0,3.2,0.6,3.2,2.7v4.2H72.1z M72.1,113.3v-0.6
		c-0.2-0.3-0.7-0.5-1.2-0.5c-0.6,0-1.1,0.3-1.1,0.8s0.5,0.8,1.1,0.8C71.4,113.8,71.9,113.7,72.1,113.3z"/>
	<path class="st1" d="M75,114.2l0.9-1.5c0.5,0.4,1.6,0.9,2.4,0.9c0.6,0,0.9-0.2,0.9-0.5c0-0.8-3.9,0-3.9-2.7c0-1.2,1-2.2,2.9-2.2
		c1.1,0,2.1,0.4,2.8,0.9l-0.8,1.5c-0.4-0.4-1.2-0.7-2-0.7c-0.5,0-0.8,0.2-0.8,0.5c0,0.7,3.9,0,3.9,2.7c0,1.3-1.1,2.2-3.1,2.2
		C77,115.3,75.7,114.8,75,114.2z"/>
	<path class="st1" d="M89.9,115.1v-3.9c0-0.8-0.4-1.1-1.1-1.1c-0.6,0-1.1,0.3-1.3,0.7v4.4h-2.2v-6.8h2.2v0.8c0.4-0.5,1.2-1,2.4-1
		c1.5,0,2.2,0.9,2.2,2.1v4.8H89.9z"/>
	<path class="st1" d="M93,111.7c0-1.9,1.4-3.5,3.7-3.5c2.3,0,3.7,1.6,3.7,3.5s-1.4,3.6-3.7,3.6C94.3,115.3,93,113.6,93,111.7z
		 M98.1,111.7c0-0.9-0.5-1.6-1.5-1.6c-0.9,0-1.5,0.7-1.5,1.6c0,0.9,0.5,1.7,1.5,1.7C97.6,113.3,98.1,112.6,98.1,111.7z"/>
	<path class="st1" d="M100.6,114.2l0.9-1.5c0.5,0.4,1.6,0.9,2.4,0.9c0.6,0,0.9-0.2,0.9-0.5c0-0.8-3.9,0-3.9-2.7c0-1.2,1-2.2,2.9-2.2
		c1.1,0,2.1,0.4,2.8,0.9l-0.8,1.5c-0.4-0.4-1.2-0.7-2-0.7c-0.5,0-0.8,0.2-0.8,0.5c0,0.7,3.9,0,3.9,2.7c0,1.3-1.1,2.2-3.1,2.2
		C102.6,115.3,101.3,114.8,100.6,114.2z"/>
	<path class="st1" d="M113.1,114.3v3.4H111v-9.3h2.2v0.8c0.5-0.6,1.2-1,2-1c1.7,0,3,1.3,3,3.5c0,2.3-1.3,3.6-3,3.6
		C114.4,115.3,113.7,115,113.1,114.3z M115.9,111.7c0-1-0.6-1.6-1.5-1.6c-0.5,0-1,0.3-1.3,0.6v2.1c0.3,0.4,0.8,0.6,1.3,0.6
		C115.3,113.3,115.9,112.7,115.9,111.7z"/>
	<path class="st1" d="M118.9,115.1v-6.8h2.2v0.8c0.4-0.5,1.3-1,2.1-1v2.1c-0.1,0-0.3-0.1-0.5-0.1c-0.6,0-1.3,0.2-1.6,0.6v4.3H118.9z
		"/>
	<path class="st1" d="M123.5,111.7c0-1.9,1.4-3.5,3.7-3.5c2.3,0,3.7,1.6,3.7,3.5s-1.4,3.6-3.7,3.6
		C124.8,115.3,123.5,113.6,123.5,111.7z M128.6,111.7c0-0.9-0.5-1.6-1.5-1.6c-0.9,0-1.5,0.7-1.5,1.6c0,0.9,0.5,1.7,1.5,1.7
		C128.1,113.3,128.6,112.6,128.6,111.7z M127.4,107.3h-1.5l1.8-2h1.9L127.4,107.3z"/>
	<path class="st1" d="M135.8,115.1l-1.3-2l-1.3,2h-2.4l2.3-3.5l-2.2-3.3h2.4l1.2,1.8l1.1-1.8h2.4l-2.2,3.3l2.3,3.5H135.8z"/>
	<path class="st1" d="M138.4,106.5c0-0.7,0.5-1.2,1.2-1.2s1.2,0.5,1.2,1.2c0,0.7-0.6,1.2-1.2,1.2S138.4,107.2,138.4,106.5z
		 M138.6,115.1v-6.8h2.2v6.8H138.6z"/>
	<path class="st1" d="M150.6,115.1V111c0-0.5-0.3-0.9-0.9-0.9c-0.6,0-1,0.4-1.2,0.7v4.4h-2.2V111c0-0.5-0.2-0.9-0.9-0.9
		c-0.6,0-1,0.4-1.2,0.7v4.4H142v-6.8h2.2v0.8c0.3-0.4,1.2-1,2.2-1c1,0,1.6,0.4,1.9,1.2c0.4-0.6,1.3-1.2,2.3-1.2c1.2,0,2,0.6,2,2v4.9
		H150.6z"/>
	<path class="st1" d="M153.6,111.7c0-1.9,1.4-3.5,3.7-3.5c2.3,0,3.7,1.6,3.7,3.5s-1.4,3.6-3.7,3.6
		C154.9,115.3,153.6,113.6,153.6,111.7z M158.7,111.7c0-0.9-0.5-1.6-1.5-1.6c-0.9,0-1.5,0.7-1.5,1.6c0,0.9,0.5,1.7,1.5,1.7
		C158.2,113.3,158.7,112.6,158.7,111.7z"/>
	<path class="st1" d="M161.2,114.2l0.9-1.5c0.5,0.4,1.6,0.9,2.4,0.9c0.6,0,0.9-0.2,0.9-0.5c0-0.8-3.9,0-3.9-2.7c0-1.2,1-2.2,2.9-2.2
		c1.1,0,2.1,0.4,2.8,0.9l-0.8,1.5c-0.4-0.4-1.2-0.7-2-0.7c-0.5,0-0.8,0.2-0.8,0.5c0,0.7,3.9,0,3.9,2.7c0,1.3-1.1,2.2-3.1,2.2
		C163.2,115.3,161.9,114.8,161.2,114.2z"/>
	<path class="st1" d="M15.5,125.7c0-2.3,1.3-3.5,3-3.5c0.8,0,1.5,0.3,2,1v-0.8h2.2v9.3h-2.2v-3.4c-0.6,0.7-1.2,1-2,1
		C16.8,129.3,15.5,128,15.5,125.7z M20.5,126.7v-2.1c-0.3-0.4-0.8-0.6-1.3-0.6c-0.9,0-1.5,0.6-1.5,1.6c0,1,0.6,1.7,1.5,1.7
		C19.7,127.3,20.3,127.1,20.5,126.7z"/>
	<path class="st1" d="M28.5,129.1v-0.8c-0.4,0.5-1.2,1-2.3,1c-1.5,0-2.2-0.9-2.2-2.1v-4.8h2.2v3.9c0,0.8,0.4,1.1,1.1,1.1
		c0.6,0,1-0.3,1.3-0.7v-4.4h2.2v6.8H28.5z"/>
	<path class="st1" d="M36,129.1v-0.7c-0.4,0.5-1.2,0.8-2.1,0.8c-1,0-2.3-0.7-2.3-2.2c0-1.6,1.3-2.2,2.3-2.2c0.9,0,1.7,0.3,2.1,0.8
		V125c0-0.6-0.5-1-1.4-1c-0.7,0-1.3,0.3-1.9,0.7l-0.8-1.5c0.9-0.7,2-1.1,3.1-1.1c1.6,0,3.2,0.6,3.2,2.7v4.2H36z M36,127.3v-0.6
		c-0.2-0.3-0.7-0.5-1.2-0.5c-0.6,0-1.1,0.3-1.1,0.8s0.5,0.8,1.1,0.8C35.2,127.8,35.7,127.7,36,127.3z"/>
	<path class="st1" d="M39.9,127.3v-3.1h-1.1v-1.9h1.1v-1.8H42v1.8h1.4v1.9H42v2.5c0,0.4,0.2,0.7,0.6,0.7c0.2,0,0.5-0.1,0.5-0.2
		l0.4,1.6c-0.3,0.3-0.8,0.4-1.6,0.4C40.6,129.3,39.9,128.6,39.9,127.3z"/>
	<path class="st1" d="M44.2,129.1v-6.8h2.2v0.8c0.4-0.5,1.3-1,2.1-1v2.1c-0.1,0-0.3-0.1-0.5-0.1c-0.6,0-1.3,0.2-1.6,0.6v4.3H44.2z"
		/>
	<path class="st1" d="M48.7,125.7c0-1.9,1.4-3.5,3.7-3.5c2.3,0,3.7,1.6,3.7,3.5s-1.4,3.6-3.7,3.6C50.1,129.3,48.7,127.6,48.7,125.7z
		 M53.9,125.7c0-0.9-0.5-1.6-1.5-1.6c-0.9,0-1.5,0.7-1.5,1.6c0,0.9,0.5,1.7,1.5,1.7C53.3,127.3,53.9,126.6,53.9,125.7z"/>
	<path class="st1" d="M64.2,129.1v-0.7c-0.4,0.5-1.2,0.8-2.1,0.8c-1,0-2.3-0.7-2.3-2.2c0-1.6,1.3-2.2,2.3-2.2c0.9,0,1.7,0.3,2.1,0.8
		V125c0-0.6-0.5-1-1.4-1c-0.7,0-1.3,0.3-1.9,0.7l-0.8-1.5c0.9-0.7,2-1.1,3.1-1.1c1.6,0,3.2,0.6,3.2,2.7v4.2H64.2z M64.2,127.3v-0.6
		c-0.2-0.3-0.7-0.5-1.2-0.5c-0.6,0-1.1,0.3-1.1,0.8s0.5,0.8,1.1,0.8C63.5,127.8,64,127.7,64.2,127.3z"/>
	<path class="st1" d="M72.2,129.1v-3.9c0-0.8-0.4-1.1-1.1-1.1c-0.6,0-1.1,0.3-1.3,0.7v4.4h-2.2v-6.8h2.2v0.8c0.4-0.5,1.2-1,2.4-1
		c1.5,0,2.2,0.9,2.2,2.1v4.8H72.2z"/>
	<path class="st1" d="M75.2,125.7c0-1.9,1.4-3.5,3.7-3.5c2.3,0,3.7,1.6,3.7,3.5s-1.4,3.6-3.7,3.6C76.6,129.3,75.2,127.6,75.2,125.7z
		 M80.4,125.7c0-0.9-0.5-1.6-1.5-1.6c-0.9,0-1.5,0.7-1.5,1.6c0,0.9,0.5,1.7,1.5,1.7C79.9,127.3,80.4,126.6,80.4,125.7z"/>
	<path class="st1" d="M82.9,128.2l0.9-1.5c0.5,0.4,1.6,0.9,2.4,0.9c0.6,0,0.9-0.2,0.9-0.5c0-0.8-3.9,0-3.9-2.7c0-1.2,1-2.2,2.9-2.2
		c1.1,0,2.1,0.4,2.8,0.9l-0.8,1.5c-0.4-0.4-1.2-0.7-2-0.7c-0.5,0-0.8,0.2-0.8,0.5c0,0.7,3.9,0,3.9,2.7c0,1.3-1.1,2.2-3.1,2.2
		C84.8,129.3,83.6,128.8,82.9,128.2z"/>
	<path class="st1" d="M92.8,125.7c0-2,1.5-3.5,3.6-3.5c2,0,3.5,1.5,3.5,3.8v0.5h-4.8c0.2,0.6,0.7,1.1,1.7,1.1c0.5,0,1.3-0.2,1.7-0.6
		l0.9,1.4c-0.7,0.6-1.8,0.9-2.8,0.9C94.4,129.3,92.8,127.9,92.8,125.7z M96.4,123.9c-0.9,0-1.3,0.6-1.4,1.1h2.8
		C97.8,124.5,97.4,123.9,96.4,123.9z"/>
	<path class="st1" d="M109.2,129.1V125c0-0.5-0.3-0.9-0.9-0.9c-0.6,0-1,0.4-1.2,0.7v4.4h-2.2V125c0-0.5-0.2-0.9-0.9-0.9
		c-0.6,0-1,0.4-1.2,0.7v4.4h-2.2v-6.8h2.2v0.8c0.3-0.4,1.2-1,2.2-1c1,0,1.6,0.4,1.9,1.2c0.4-0.6,1.3-1.2,2.3-1.2c1.2,0,2,0.6,2,2
		v4.9H109.2z"/>
	<path class="st1" d="M120.5,129.1v-0.8c-0.6,0.6-1.2,1-2,1c-1.7,0-3-1.3-3-3.6c0-2.2,1.3-3.5,3-3.5c0.7,0,1.5,0.3,2,1v-3.4h2.1v9.3
		H120.5z M120.5,126.7v-2.1c-0.3-0.4-0.8-0.6-1.3-0.6c-0.9,0-1.5,0.6-1.5,1.6s0.6,1.7,1.5,1.7C119.6,127.3,120.2,127.1,120.5,126.7z
		"/>
	<path class="st1" d="M123.8,120.5c0-0.7,0.5-1.2,1.2-1.2s1.2,0.5,1.2,1.2c0,0.7-0.6,1.2-1.2,1.2S123.8,121.2,123.8,120.5z
		 M123.9,129.1v-6.8h2.2v6.8H123.9z"/>
	<path class="st1" d="M126.8,128.2l0.9-1.5c0.5,0.4,1.6,0.9,2.4,0.9c0.6,0,0.9-0.2,0.9-0.5c0-0.8-3.9,0-3.9-2.7c0-1.2,1-2.2,2.9-2.2
		c1.1,0,2.1,0.4,2.8,0.9l-0.8,1.5c-0.4-0.4-1.2-0.7-2-0.7c-0.5,0-0.8,0.2-0.8,0.5c0,0.7,3.9,0,3.9,2.7c0,1.3-1.1,2.2-3.1,2.2
		C128.8,129.3,127.5,128.8,126.8,128.2z"/>
	<path class="st1" d="M134.3,127.3v-3.1h-1.1v-1.9h1.1v-1.8h2.2v1.8h1.4v1.9h-1.4v2.5c0,0.4,0.2,0.7,0.6,0.7c0.2,0,0.5-0.1,0.5-0.2
		l0.4,1.6c-0.3,0.3-0.8,0.4-1.6,0.4C135,129.3,134.3,128.6,134.3,127.3z"/>
	<path class="st1" d="M138.6,129.1v-6.8h2.2v0.8c0.4-0.5,1.3-1,2.1-1v2.1c-0.1,0-0.3-0.1-0.5-0.1c-0.6,0-1.3,0.2-1.6,0.6v4.3H138.6z
		"/>
	<path class="st1" d="M143.4,120.5c0-0.7,0.5-1.2,1.2-1.2s1.2,0.5,1.2,1.2c0,0.7-0.6,1.2-1.2,1.2S143.4,121.2,143.4,120.5z
		 M143.6,129.1v-6.8h2.2v6.8H143.6z"/>
	<path class="st1" d="M147.5,127.3v-3.1h-1.1v-1.9h1.1v-1.8h2.2v1.8h1.4v1.9h-1.4v2.5c0,0.4,0.2,0.7,0.6,0.7c0.2,0,0.5-0.1,0.5-0.2
		l0.4,1.6c-0.3,0.3-0.8,0.4-1.6,0.4C148.2,129.3,147.5,128.6,147.5,127.3z"/>
	<path class="st1" d="M151.4,125.7c0-1.9,1.4-3.5,3.7-3.5c2.3,0,3.7,1.6,3.7,3.5s-1.4,3.6-3.7,3.6
		C152.7,129.3,151.4,127.6,151.4,125.7z M156.5,125.7c0-0.9-0.5-1.6-1.5-1.6c-0.9,0-1.5,0.7-1.5,1.6c0,0.9,0.5,1.7,1.5,1.7
		C156,127.3,156.5,126.6,156.5,125.7z"/>
	<path class="st1" d="M159,128.2l0.9-1.5c0.5,0.4,1.6,0.9,2.4,0.9c0.6,0,0.9-0.2,0.9-0.5c0-0.8-3.9,0-3.9-2.7c0-1.2,1-2.2,2.9-2.2
		c1.1,0,2.1,0.4,2.8,0.9l-0.8,1.5c-0.4-0.4-1.2-0.7-2-0.7c-0.5,0-0.8,0.2-0.8,0.5c0,0.7,3.9,0,3.9,2.7c0,1.3-1.1,2.2-3.1,2.2
		C161,129.3,159.7,128.8,159,128.2z"/>
	<path class="st1" d="M15.5,139.7c0-2.3,1.3-3.5,3-3.5c0.8,0,1.5,0.3,2,1v-0.8h2.2v9.3h-2.2v-3.4c-0.6,0.7-1.2,1-2,1
		C16.8,143.3,15.5,142,15.5,139.7z M20.5,140.7v-2.1c-0.3-0.4-0.8-0.6-1.3-0.6c-0.9,0-1.5,0.6-1.5,1.6c0,1,0.6,1.7,1.5,1.7
		C19.7,141.3,20.3,141.1,20.5,140.7z"/>
	<path class="st1" d="M28.5,143.1v-0.8c-0.4,0.5-1.2,1-2.3,1c-1.5,0-2.2-0.9-2.2-2.1v-4.8h2.2v3.9c0,0.8,0.4,1.1,1.1,1.1
		c0.6,0,1-0.3,1.3-0.7v-4.4h2.2v6.8H28.5z"/>
	<path class="st1" d="M31.5,139.7c0-2,1.5-3.5,3.6-3.5c2,0,3.5,1.5,3.5,3.8v0.5h-4.8c0.2,0.6,0.7,1.1,1.7,1.1c0.5,0,1.3-0.2,1.7-0.6
		l0.9,1.4c-0.7,0.6-1.8,0.9-2.8,0.9C33.1,143.3,31.5,141.9,31.5,139.7z M35.1,137.9c-0.9,0-1.3,0.6-1.4,1.1h2.8
		C36.5,138.5,36.1,137.9,35.1,137.9z"/>
	<path class="st1" d="M40.4,145.4l0.5-1.6c0.3,0.2,0.5,0.3,0.9,0.3c0.5,0,0.8-0.3,0.8-1.1v-6.7h2.2v6.7c0,1.6-0.8,2.8-2.6,2.8
		C41.3,145.8,40.9,145.7,40.4,145.4z M42.5,134.5c0-0.7,0.5-1.2,1.2-1.2c0.7,0,1.2,0.5,1.2,1.2c0,0.7-0.6,1.2-1.2,1.2
		C43.1,135.7,42.5,135.2,42.5,134.5z"/>
	<path class="st1" d="M50.1,143.1v-0.7c-0.4,0.5-1.2,0.8-2.1,0.8c-1,0-2.3-0.7-2.3-2.2c0-1.6,1.3-2.2,2.3-2.2c0.9,0,1.7,0.3,2.1,0.8
		V139c0-0.6-0.5-1-1.4-1c-0.7,0-1.3,0.3-1.9,0.7l-0.8-1.5c0.9-0.7,2-1.1,3.1-1.1c1.6,0,3.2,0.6,3.2,2.7v4.2H50.1z M50.1,141.3v-0.6
		c-0.2-0.3-0.7-0.5-1.2-0.5c-0.6,0-1.1,0.3-1.1,0.8s0.5,0.8,1.1,0.8C49.4,141.8,49.9,141.7,50.1,141.3z M49.4,135.3h-1.5l1.8-2h1.9
		L49.4,135.3z"/>
	<path class="st1" d="M59,142.3v3.4h-2.2v-9.3H59v0.8c0.5-0.6,1.2-1,2-1c1.7,0,3,1.3,3,3.5c0,2.3-1.3,3.6-3,3.6
		C60.2,143.3,59.6,143,59,142.3z M61.8,139.7c0-1-0.6-1.6-1.5-1.6c-0.5,0-1,0.3-1.3,0.6v2.1c0.3,0.4,0.8,0.6,1.3,0.6
		C61.1,141.3,61.8,140.7,61.8,139.7z"/>
	<path class="st1" d="M68.8,143.1v-0.7c-0.4,0.5-1.2,0.8-2.1,0.8c-1,0-2.3-0.7-2.3-2.2c0-1.6,1.3-2.2,2.3-2.2c0.9,0,1.7,0.3,2.1,0.8
		V139c0-0.6-0.5-1-1.4-1c-0.7,0-1.3,0.3-1.9,0.7l-0.8-1.5c0.9-0.7,2-1.1,3.1-1.1c1.6,0,3.2,0.6,3.2,2.7v4.2H68.8z M68.8,141.3v-0.6
		c-0.2-0.3-0.7-0.5-1.2-0.5c-0.6,0-1.1,0.3-1.1,0.8s0.5,0.8,1.1,0.8C68.1,141.8,68.6,141.7,68.8,141.3z"/>
	<path class="st1" d="M72.2,143.1v-6.8h2.2v0.8c0.4-0.5,1.3-1,2.1-1v2.1c-0.1,0-0.3-0.1-0.5-0.1c-0.6,0-1.3,0.2-1.6,0.6v4.3H72.2z"
		/>
	<path class="st1" d="M77.7,141.3v-3.1h-1.1v-1.9h1.1v-1.8h2.2v1.8h1.4v1.9h-1.4v2.5c0,0.4,0.2,0.7,0.6,0.7c0.2,0,0.5-0.1,0.5-0.2
		l0.4,1.6c-0.3,0.3-0.8,0.4-1.6,0.4C78.4,143.3,77.7,142.6,77.7,141.3z"/>
	<path class="st1" d="M81.8,134.5c0-0.7,0.5-1.2,1.2-1.2c0.7,0,1.2,0.5,1.2,1.2c0,0.7-0.6,1.2-1.2,1.2
		C82.4,135.7,81.8,135.2,81.8,134.5z M82,143.1v-6.8h2.2v6.8H82z"/>
	<path class="st1" d="M85,139.7c0-2.1,1.6-3.5,3.7-3.5c1.5,0,2.4,0.6,2.8,1.2l-1.4,1.3c-0.3-0.4-0.7-0.6-1.3-0.6
		c-0.9,0-1.6,0.6-1.6,1.6s0.7,1.7,1.6,1.7c0.6,0,1-0.3,1.3-0.7l1.4,1.3c-0.4,0.6-1.3,1.2-2.8,1.2C86.6,143.3,85,141.8,85,139.7z"/>
	<path class="st1" d="M92,134.5c0-0.7,0.5-1.2,1.2-1.2c0.7,0,1.2,0.5,1.2,1.2c0,0.7-0.6,1.2-1.2,1.2C92.5,135.7,92,135.2,92,134.5z
		 M92.1,143.1v-6.8h2.2v6.8H92.1z"/>
	<path class="st1" d="M97.7,142.3v3.4h-2.2v-9.3h2.2v0.8c0.5-0.6,1.2-1,2-1c1.7,0,3,1.3,3,3.5c0,2.3-1.3,3.6-3,3.6
		C99,143.3,98.3,143,97.7,142.3z M100.5,139.7c0-1-0.6-1.6-1.5-1.6c-0.5,0-1,0.3-1.3,0.6v2.1c0.3,0.4,0.8,0.6,1.3,0.6
		C99.9,141.3,100.5,140.7,100.5,139.7z"/>
	<path class="st1" d="M107.5,143.1v-0.7c-0.4,0.5-1.2,0.8-2.1,0.8c-1,0-2.3-0.7-2.3-2.2c0-1.6,1.3-2.2,2.3-2.2
		c0.9,0,1.7,0.3,2.1,0.8V139c0-0.6-0.5-1-1.4-1c-0.7,0-1.3,0.3-1.9,0.7l-0.8-1.5c0.9-0.7,2-1.1,3.1-1.1c1.6,0,3.2,0.6,3.2,2.7v4.2
		H107.5z M107.5,141.3v-0.6c-0.2-0.3-0.7-0.5-1.2-0.5c-0.6,0-1.1,0.3-1.1,0.8s0.5,0.8,1.1,0.8C106.8,141.8,107.3,141.7,107.5,141.3z
		"/>
	<path class="st1" d="M119.5,143.1V139c0-0.5-0.3-0.9-0.9-0.9c-0.6,0-1,0.4-1.2,0.7v4.4h-2.2V139c0-0.5-0.2-0.9-0.9-0.9
		c-0.6,0-1,0.4-1.2,0.7v4.4H111v-6.8h2.2v0.8c0.3-0.4,1.2-1,2.2-1c1,0,1.6,0.4,1.9,1.2c0.4-0.6,1.3-1.2,2.3-1.2c1.2,0,2,0.6,2,2v4.9
		H119.5z"/>
	<path class="st1" d="M130.8,143.1v-3.9c0-0.8-0.4-1.1-1.1-1.1c-0.6,0-1.1,0.3-1.3,0.7v4.4h-2.2v-6.8h2.2v0.8c0.4-0.5,1.2-1,2.4-1
		c1.5,0,2.2,0.9,2.2,2.1v4.8H130.8z"/>
	<path class="st1" d="M133.8,139.7c0-1.9,1.4-3.5,3.7-3.5c2.3,0,3.7,1.6,3.7,3.5s-1.4,3.6-3.7,3.6
		C135.2,143.3,133.8,141.6,133.8,139.7z M139,139.7c0-0.9-0.5-1.6-1.5-1.6c-0.9,0-1.5,0.7-1.5,1.6c0,0.9,0.5,1.7,1.5,1.7
		C138.5,141.3,139,140.6,139,139.7z"/>
	<path class="st1" d="M147.5,142.3v3.4h-2.2v-9.3h2.2v0.8c0.5-0.6,1.2-1,2-1c1.7,0,3,1.3,3,3.5c0,2.3-1.3,3.6-3,3.6
		C148.8,143.3,148.1,143,147.5,142.3z M150.3,139.7c0-1-0.6-1.6-1.5-1.6c-0.5,0-1,0.3-1.3,0.6v2.1c0.3,0.4,0.8,0.6,1.3,0.6
		C149.7,141.3,150.3,140.7,150.3,139.7z"/>
	<path class="st1" d="M153.3,143.1v-6.8h2.2v0.8c0.4-0.5,1.3-1,2.1-1v2.1c-0.1,0-0.3-0.1-0.5-0.1c-0.6,0-1.3,0.2-1.6,0.6v4.3H153.3z
		"/>
	<path class="st1" d="M157.9,139.7c0-1.9,1.4-3.5,3.7-3.5c2.3,0,3.7,1.6,3.7,3.5s-1.4,3.6-3.7,3.6
		C159.2,143.3,157.9,141.6,157.9,139.7z M163,139.7c0-0.9-0.5-1.6-1.5-1.6c-0.9,0-1.5,0.7-1.5,1.6c0,0.9,0.5,1.7,1.5,1.7
		C162.5,141.3,163,140.6,163,139.7z"/>
	<path class="st1" d="M165.9,144.8l0.9-1.5c0.5,0.6,1.3,0.8,2.1,0.8c0.7,0,1.7-0.3,1.7-1.6V142c-0.6,0.7-1.2,1-2,1
		c-1.7,0-3-1.1-3-3.4c0-2.2,1.3-3.4,3-3.4c0.8,0,1.5,0.3,2,1v-0.8h2.2v6.2c0,2.7-2.2,3.3-3.9,3.3
		C167.7,145.8,166.8,145.5,165.9,144.8z M170.6,140.5v-1.8c-0.3-0.4-0.8-0.6-1.3-0.6c-0.9,0-1.5,0.5-1.5,1.5c0,1,0.6,1.5,1.5,1.5
		C169.8,141.1,170.4,140.8,170.6,140.5z"/>
	<path class="st1" d="M174.1,143.1v-6.8h2.2v0.8c0.4-0.5,1.3-1,2.1-1v2.1c-0.1,0-0.3-0.1-0.5-0.1c-0.6,0-1.3,0.2-1.6,0.6v4.3H174.1z
		"/>
	<path class="st1" d="M183,143.1v-0.7c-0.4,0.5-1.2,0.8-2.1,0.8c-1,0-2.3-0.7-2.3-2.2c0-1.6,1.3-2.2,2.3-2.2c0.9,0,1.7,0.3,2.1,0.8
		V139c0-0.6-0.5-1-1.4-1c-0.7,0-1.3,0.3-1.9,0.7l-0.8-1.5c0.9-0.7,2-1.1,3.1-1.1c1.6,0,3.2,0.6,3.2,2.7v4.2H183z M183,141.3v-0.6
		c-0.2-0.3-0.7-0.5-1.2-0.5c-0.6,0-1.1,0.3-1.1,0.8s0.5,0.8,1.1,0.8C182.3,141.8,182.8,141.7,183,141.3z"/>
	<path class="st1" d="M195,143.1V139c0-0.5-0.3-0.9-0.9-0.9c-0.6,0-1,0.4-1.2,0.7v4.4h-2.2V139c0-0.5-0.2-0.9-0.9-0.9
		c-0.6,0-1,0.4-1.2,0.7v4.4h-2.2v-6.8h2.2v0.8c0.3-0.4,1.2-1,2.2-1c1,0,1.6,0.4,1.9,1.2c0.4-0.6,1.3-1.2,2.3-1.2c1.2,0,2,0.6,2,2
		v4.9H195z"/>
	<path class="st1" d="M202.4,143.1v-0.7c-0.4,0.5-1.2,0.8-2.1,0.8c-1,0-2.3-0.7-2.3-2.2c0-1.6,1.3-2.2,2.3-2.2
		c0.9,0,1.7,0.3,2.1,0.8V139c0-0.6-0.5-1-1.4-1c-0.7,0-1.3,0.3-1.9,0.7l-0.8-1.5c0.9-0.7,2-1.1,3.1-1.1c1.6,0,3.2,0.6,3.2,2.7v4.2
		H202.4z M202.4,141.3v-0.6c-0.2-0.3-0.7-0.5-1.2-0.5c-0.6,0-1.1,0.3-1.1,0.8s0.5,0.8,1.1,0.8C201.7,141.8,202.2,141.7,202.4,141.3z
		"/>
	<path class="st1" d="M20.5,157.1v-0.8c-0.6,0.6-1.2,1-2,1c-1.7,0-3-1.3-3-3.6c0-2.2,1.3-3.5,3-3.5c0.7,0,1.5,0.3,2,1v-3.4h2.1v9.3
		H20.5z M20.5,154.7v-2.1c-0.3-0.4-0.8-0.6-1.3-0.6c-0.9,0-1.5,0.6-1.5,1.6s0.6,1.7,1.5,1.7C19.7,155.3,20.3,155.1,20.5,154.7z"/>
	<path class="st1" d="M23.6,153.7c0-2,1.5-3.5,3.6-3.5c2,0,3.5,1.5,3.5,3.8v0.5h-4.8c0.2,0.6,0.7,1.1,1.7,1.1c0.5,0,1.3-0.2,1.7-0.6
		l0.9,1.4c-0.7,0.6-1.8,0.9-2.8,0.9C25.2,157.3,23.6,155.9,23.6,153.7z M27.1,151.9c-0.9,0-1.3,0.6-1.4,1.1h2.8
		C28.5,152.5,28.1,151.9,27.1,151.9z"/>
	<path class="st1" d="M39.2,157.1v-0.8c-0.6,0.6-1.2,1-2,1c-1.7,0-3-1.3-3-3.6c0-2.2,1.3-3.5,3-3.5c0.7,0,1.5,0.3,2,1v-3.4h2.1v9.3
		H39.2z M39.2,154.7v-2.1c-0.3-0.4-0.8-0.6-1.3-0.6c-0.9,0-1.5,0.6-1.5,1.6s0.6,1.7,1.5,1.7C38.4,155.3,39,155.1,39.2,154.7z"/>
	<path class="st1" d="M42.2,153.7c0-1.9,1.4-3.5,3.7-3.5c2.3,0,3.7,1.6,3.7,3.5s-1.4,3.6-3.7,3.6C43.6,157.3,42.2,155.6,42.2,153.7z
		 M47.4,153.7c0-0.9-0.5-1.6-1.5-1.6c-0.9,0-1.5,0.7-1.5,1.6c0,0.9,0.5,1.7,1.5,1.7C46.9,155.3,47.4,154.6,47.4,153.7z"/>
	<path class="st1" d="M54.5,157.1v-0.7c-0.4,0.5-1.2,0.8-2.1,0.8c-1,0-2.3-0.7-2.3-2.2c0-1.6,1.3-2.2,2.3-2.2c0.9,0,1.7,0.3,2.1,0.8
		V153c0-0.6-0.5-1-1.4-1c-0.7,0-1.3,0.3-1.9,0.7l-0.8-1.5c0.9-0.7,2-1.1,3.1-1.1c1.6,0,3.2,0.6,3.2,2.7v4.2H54.5z M54.5,155.3v-0.6
		c-0.2-0.3-0.7-0.5-1.2-0.5c-0.6,0-1.1,0.3-1.1,0.8s0.5,0.8,1.1,0.8C53.7,155.8,54.2,155.7,54.5,155.3z"/>
	<path class="st1" d="M59.6,159.4l0.4-0.8c0.4,0.3,0.8,0.4,1.1,0.4c0.3,0,0.7-0.1,0.7-0.4c0-0.2-0.1-0.3-0.4-0.3
		c-0.2,0-0.3,0.1-0.4,0.2l-0.7-0.4l0.3-0.8c-1.8-0.2-3.2-1.6-3.2-3.5c0-2.1,1.6-3.5,3.7-3.5c1.5,0,2.4,0.6,2.8,1.2l-1.4,1.3
		c-0.3-0.4-0.7-0.6-1.3-0.6c-0.9,0-1.6,0.6-1.6,1.6s0.7,1.7,1.6,1.7c0.6,0,1-0.3,1.3-0.7l1.4,1.3c-0.4,0.5-1.1,1.1-2.3,1.2l-0.2,0.5
		c0.1-0.1,0.3-0.1,0.5-0.1c0.5,0,1,0.4,1,1c0,0.8-0.7,1.2-1.6,1.2C60.5,159.8,59.9,159.6,59.6,159.4z"/>
	<path class="st1" d="M68.6,157.1v-0.7c-0.4,0.5-1.2,0.8-2.1,0.8c-1,0-2.3-0.7-2.3-2.2c0-1.6,1.3-2.2,2.3-2.2c0.9,0,1.7,0.3,2.1,0.8
		V153c0-0.6-0.5-1-1.4-1c-0.7,0-1.3,0.3-1.9,0.7l-0.8-1.5c0.9-0.7,2-1.1,3.1-1.1c1.6,0,3.2,0.6,3.2,2.7v4.2H68.6z M66.8,148.6
		c-0.2,0-0.4,0.2-0.4,0.7h-1.1c0-1.2,0.5-1.9,1.6-1.9c0.9,0,1.1,0.8,1.6,0.8c0.2,0,0.4-0.2,0.4-0.7H70c0,1.2-0.5,1.9-1.6,1.9
		C67.5,149.3,67.3,148.6,66.8,148.6z M68.6,155.3v-0.6c-0.2-0.3-0.7-0.5-1.2-0.5c-0.6,0-1.1,0.3-1.1,0.8s0.5,0.8,1.1,0.8
		C67.9,155.8,68.4,155.7,68.6,155.3z"/>
	<path class="st1" d="M71.6,153.7c0-1.9,1.4-3.5,3.7-3.5c2.3,0,3.7,1.6,3.7,3.5s-1.4,3.6-3.7,3.6C73,157.3,71.6,155.6,71.6,153.7z
		 M76.8,153.7c0-0.9-0.5-1.6-1.5-1.6c-0.9,0-1.5,0.7-1.5,1.6c0,0.9,0.5,1.7,1.5,1.7C76.2,155.3,76.8,154.6,76.8,153.7z"/>
</g>
</svg>
