<?xml version="1.0" encoding="utf-8"?>
<!-- Generator: Adobe Illustrator 19.0.0, SVG Export Plug-In . SVG Version: 6.00 Build 0)  -->
<svg version="1.1" id="Layer_1" xmlns="http://www.w3.org/2000/svg" xmlns:xlink="http://www.w3.org/1999/xlink" x="0px" y="0px"
	 viewBox="0 0 220 160.5" style="enable-background:new 0 0 220 160.5;" xml:space="preserve">
<style type="text/css">
	.st0{fill:#259AD6;}
	.st1{fill:#FFFFFF;}
</style>
<rect x="0" class="st0" width="220" height="160.5"/>
<g>
	<path class="st1" d="M21.7,22.7v-4.4L20,22.7h-0.8l-1.7-4.4v4.4h-1.7v-6.7h2.4l1.4,3.7l1.4-3.7h2.4v6.7H21.7z"/>
	<path class="st1" d="M24.6,22.7v-6.7h4.9v1.5h-3.2v1h3.1v1.5h-3.1v1.1h3.2v1.5H24.6z"/>
	<path class="st1" d="M32,22.7v-5.2h-1.9v-1.5h5.4v1.5h-1.9v5.2H32z"/>
	<path class="st1" d="M40.3,22.7l-0.3-1h-2.6l-0.3,1H35l2.5-6.7h2.2l2.5,6.7H40.3z M38.6,17.8l-0.8,2.5h1.7L38.6,17.8z"/>
	<path class="st1" d="M42.5,18.8c0-0.5,0.4-0.9,0.9-0.9s0.9,0.4,0.9,0.9s-0.4,0.9-0.9,0.9S42.5,19.3,42.5,18.8z M42.5,21.9
		c0-0.5,0.4-0.9,0.9-0.9s0.9,0.4,0.9,0.9c0,0.5-0.4,0.9-0.9,0.9S42.5,22.4,42.5,21.9z"/>
	<path class="st1" d="M18.9,87.7V76.6c24-17.3,28.5-21.2,28.5-26.7c0-3.7-3.6-5.7-7.6-5.7c-6.1,0-10.8,2.3-14.8,6.1L17,40.8
		c5.9-6.5,14.7-9.2,22.4-9.2c13,0,22.4,7.3,22.4,18.3c0,8.5-6.1,15.8-19.8,25.4h20.2v12.4H18.9z"/>
	<path class="st1" d="M63.2,60.1c0-14.6,7.6-28.5,23.7-28.5s23.7,13.9,23.7,28.5c0,14.6-7.6,28.6-23.7,28.6S63.2,74.7,63.2,60.1z
		 M96.2,60.1c0-9.8-2.7-15.9-9.3-15.9c-6.6,0-9.3,6.1-9.3,15.9c0,9.8,2.7,16,9.3,16C93.6,76.1,96.2,69.9,96.2,60.1z"/>
	<path class="st1" d="M111.9,87.7V76.6c24-17.3,28.5-21.2,28.5-26.7c0-3.7-3.6-5.7-7.6-5.7c-6.1,0-10.8,2.3-14.8,6.1l-7.9-9.5
		c5.9-6.5,14.7-9.2,22.4-9.2c13,0,22.4,7.3,22.4,18.3c0,8.5-6.1,15.8-19.8,25.4h20.2v12.4H111.9z"/>
	<path class="st1" d="M156.2,60.1c0-14.6,7.6-28.5,23.7-28.5s23.7,13.9,23.7,28.5c0,14.6-7.6,28.6-23.7,28.6S156.2,74.7,156.2,60.1z
		 M189.3,60.1c0-9.8-2.7-15.9-9.3-15.9s-9.3,6.1-9.3,15.9c0,9.8,2.7,16,9.3,16S189.3,69.9,189.3,60.1z"/>
	<path class="st1" d="M15.7,102.4c0-2.5,1.9-4.6,4.6-4.6c2.6,0,4.4,1.9,4.4,4.8v0.6h-6.2c0.2,0.8,0.9,1.4,2.2,1.4
		c0.6,0,1.6-0.3,2.1-0.7l1.2,1.8c-0.9,0.8-2.3,1.2-3.6,1.2C17.7,106.9,15.7,105.2,15.7,102.4z M20.3,100.1c-1.2,0-1.7,0.7-1.8,1.4
		h3.6C22,100.8,21.5,100.1,20.3,100.1z"/>
	<path class="st1" d="M26.1,106.7v-12h2.8v12H26.1z"/>
	<path class="st1" d="M30.7,95.7c0-0.9,0.7-1.6,1.6-1.6c0.9,0,1.6,0.7,1.6,1.6c0,0.9-0.7,1.6-1.6,1.6C31.4,97.3,30.7,96.5,30.7,95.7
		z M30.9,106.7V98h2.8v8.7H30.9z"/>
	<path class="st1" d="M46.6,106.7v-5.3c0-0.7-0.3-1.2-1.2-1.2c-0.8,0-1.3,0.5-1.6,0.8v5.6h-2.8v-5.3c0-0.7-0.3-1.2-1.1-1.2
		c-0.8,0-1.3,0.5-1.6,0.8v5.6h-2.8V98h2.8v1.1c0.4-0.5,1.5-1.3,2.9-1.3c1.3,0,2.1,0.5,2.5,1.5c0.5-0.8,1.6-1.5,3-1.5
		c1.6,0,2.6,0.8,2.6,2.6v6.3H46.6z"/>
	<path class="st1" d="M51.2,95.7c0-0.9,0.7-1.6,1.6-1.6c0.9,0,1.6,0.7,1.6,1.6c0,0.9-0.7,1.6-1.6,1.6C51.9,97.3,51.2,96.5,51.2,95.7
		z M51.4,106.7V98h2.8v8.7H51.4z"/>
	<path class="st1" d="M62.1,106.7v-5c0-1.1-0.6-1.4-1.4-1.4c-0.8,0-1.4,0.5-1.7,0.8v5.6h-2.8V98H59v1.1c0.5-0.6,1.5-1.3,3-1.3
		c2,0,2.9,1.2,2.9,2.8v6.2H62.1z"/>
	<path class="st1" d="M72,106.7v-0.9c-0.5,0.6-1.6,1.1-2.7,1.1c-1.3,0-3-0.9-3-2.9c0-2.1,1.7-2.8,3-2.8c1.2,0,2.2,0.4,2.7,1v-0.9
		c0-0.8-0.6-1.3-1.8-1.3c-0.9,0-1.7,0.3-2.4,0.9l-1-1.9c1.1-1,2.6-1.4,3.9-1.4c2.1,0,4.1,0.8,4.1,3.5v5.4H72z M72,104.5v-0.8
		c-0.3-0.4-0.9-0.6-1.5-0.6c-0.7,0-1.4,0.3-1.4,1c0,0.7,0.7,1,1.4,1C71.1,105.1,71.7,104.9,72,104.5z"/>
	<path class="st1" d="M79,109.7l0.5-1c0.5,0.3,1,0.5,1.5,0.5c0.4,0,0.8-0.2,0.8-0.5c0-0.3-0.2-0.4-0.5-0.4c-0.2,0-0.4,0.1-0.5,0.2
		l-0.9-0.5l0.4-1c-2.4-0.3-4.1-2.1-4.1-4.5c0-2.7,2-4.6,4.7-4.6c1.9,0,3,0.8,3.6,1.6l-1.8,1.7c-0.3-0.5-0.9-0.8-1.6-0.8
		c-1.2,0-2,0.8-2,2.1s0.9,2.1,2,2.1c0.7,0,1.3-0.4,1.6-0.8l1.8,1.7c-0.5,0.7-1.4,1.4-3,1.6l-0.3,0.7c0.2-0.1,0.4-0.2,0.6-0.2
		c0.7,0,1.2,0.5,1.2,1.3c0,1-0.9,1.6-2.1,1.6C80.1,110.3,79.4,110,79,109.7z"/>
	<path class="st1" d="M90.9,106.7v-0.9c-0.5,0.6-1.6,1.1-2.7,1.1c-1.3,0-3-0.9-3-2.9c0-2.1,1.7-2.8,3-2.8c1.2,0,2.2,0.4,2.7,1v-0.9
		c0-0.8-0.6-1.3-1.8-1.3c-0.9,0-1.7,0.3-2.4,0.9l-1-1.9c1.1-1,2.6-1.4,3.9-1.4c2.1,0,4.1,0.8,4.1,3.5v5.4H90.9z M88.6,95.8
		c-0.3,0-0.5,0.3-0.5,0.9h-1.4c0-1.6,0.7-2.4,2-2.4c1.2,0,1.5,1,2,1c0.3,0,0.5-0.3,0.5-0.9h1.4c0,1.6-0.7,2.4-2,2.4
		C89.5,96.8,89.2,95.8,88.6,95.8z M90.9,104.5v-0.8c-0.3-0.4-0.9-0.6-1.5-0.6c-0.7,0-1.4,0.3-1.4,1c0,0.7,0.7,1,1.4,1
		C90,105.1,90.6,104.9,90.9,104.5z"/>
	<path class="st1" d="M95.1,102.4c0-2.4,1.8-4.6,4.7-4.6c3,0,4.8,2.1,4.8,4.6c0,2.4-1.8,4.6-4.8,4.6
		C96.9,106.9,95.1,104.8,95.1,102.4z M101.8,102.4c0-1.2-0.7-2.1-1.9-2.1c-1.2,0-1.9,1-1.9,2.1c0,1.2,0.7,2.1,1.9,2.1
		C101.1,104.5,101.8,103.5,101.8,102.4z"/>
	<path class="st1" d="M110.1,102.4c0-2.7,2-4.6,4.7-4.6c1.9,0,3,0.8,3.6,1.6l-1.8,1.7c-0.3-0.5-0.9-0.8-1.6-0.8c-1.2,0-2,0.8-2,2.1
		s0.9,2.1,2,2.1c0.7,0,1.3-0.4,1.6-0.8l1.8,1.7c-0.5,0.8-1.7,1.6-3.6,1.6C112.1,106.9,110.1,105.1,110.1,102.4z"/>
	<path class="st1" d="M119.1,102.4c0-2.4,1.8-4.6,4.7-4.6c3,0,4.8,2.1,4.8,4.6c0,2.4-1.8,4.6-4.8,4.6
		C120.9,106.9,119.1,104.8,119.1,102.4z M125.7,102.4c0-1.2-0.7-2.1-1.9-2.1c-1.2,0-1.9,1-1.9,2.1c0,1.2,0.7,2.1,1.9,2.1
		C125.1,104.5,125.7,103.5,125.7,102.4z"/>
	<path class="st1" d="M141,106.7v-5.3c0-0.7-0.3-1.2-1.2-1.2c-0.8,0-1.3,0.5-1.6,0.8v5.6h-2.8v-5.3c0-0.7-0.3-1.2-1.1-1.2
		c-0.8,0-1.3,0.5-1.6,0.8v5.6H130V98h2.8v1.1c0.4-0.5,1.5-1.3,2.9-1.3c1.3,0,2.1,0.5,2.5,1.5c0.5-0.8,1.6-1.5,3-1.5
		c1.6,0,2.6,0.8,2.6,2.6v6.3H141z"/>
	<path class="st1" d="M145.2,102.4c0-2.4,1.8-4.6,4.7-4.6c3,0,4.8,2.1,4.8,4.6c0,2.4-1.8,4.6-4.8,4.6
		C147,106.9,145.2,104.8,145.2,102.4z M151.9,102.4c0-1.2-0.7-2.1-1.9-2.1c-1.2,0-1.9,1-1.9,2.1c0,1.2,0.7,2.1,1.9,2.1
		C151.2,104.5,151.9,103.5,151.9,102.4z"/>
	<path class="st1" d="M19,124.7v4.3h-2.8v-12H19v1c0.7-0.8,1.6-1.2,2.6-1.2c2.2,0,3.8,1.6,3.8,4.6c0,3-1.6,4.6-3.8,4.6
		C20.6,125.9,19.7,125.6,19,124.7z M22.6,121.4c0-1.3-0.8-2.1-1.9-2.1c-0.6,0-1.3,0.3-1.7,0.8v2.6c0.3,0.4,1.1,0.8,1.7,0.8
		C21.7,123.5,22.6,122.7,22.6,121.4z"/>
	<path class="st1" d="M26.8,125.7V117h2.8v1.1c0.6-0.7,1.7-1.3,2.7-1.3v2.7c-0.2-0.1-0.4-0.1-0.7-0.1c-0.7,0-1.7,0.3-2,0.8v5.5H26.8
		z"/>
	<path class="st1" d="M33,121.4c0-2.4,1.8-4.6,4.7-4.6c3,0,4.8,2.1,4.8,4.6c0,2.4-1.8,4.6-4.8,4.6C34.8,125.9,33,123.8,33,121.4z
		 M39.6,121.4c0-1.2-0.7-2.1-1.9-2.1c-1.2,0-1.9,1-1.9,2.1c0,1.2,0.7,2.1,1.9,2.1C39,123.5,39.6,122.5,39.6,121.4z"/>
	<path class="st1" d="M43.9,125.7v-12h2.8v4.3c0.7-0.9,1.6-1.2,2.6-1.2c2.2,0,3.8,1.7,3.8,4.6c0,3-1.7,4.6-3.8,4.6
		c-1,0-1.9-0.4-2.6-1.2v1H43.9z M48.4,123.5c1.1,0,1.9-0.8,1.9-2.1c0-1.3-0.8-2.1-1.9-2.1c-0.6,0-1.3,0.3-1.7,0.8v2.7
		C47.1,123.2,47.8,123.5,48.4,123.5z"/>
	<path class="st1" d="M54.6,125.7v-12h2.8v12H54.6z"/>
	<path class="st1" d="M58.8,121.4c0-2.5,1.9-4.6,4.6-4.6c2.6,0,4.4,1.9,4.4,4.8v0.6h-6.2c0.2,0.8,0.9,1.4,2.2,1.4
		c0.6,0,1.6-0.3,2.1-0.7l1.2,1.8c-0.9,0.8-2.3,1.2-3.6,1.2C60.9,125.9,58.8,124.2,58.8,121.4z M63.4,119.1c-1.2,0-1.7,0.7-1.8,1.4
		h3.6C65.1,119.8,64.7,119.1,63.4,119.1z"/>
	<path class="st1" d="M80.2,125.7v-5.3c0-0.7-0.3-1.2-1.2-1.2c-0.8,0-1.3,0.5-1.6,0.8v5.6h-2.8v-5.3c0-0.7-0.3-1.2-1.1-1.2
		c-0.8,0-1.3,0.5-1.6,0.8v5.6h-2.8V117H72v1.1c0.4-0.5,1.5-1.3,2.9-1.3c1.3,0,2.1,0.5,2.5,1.5c0.5-0.8,1.6-1.5,3-1.5
		c1.6,0,2.6,0.8,2.6,2.6v6.3H80.2z"/>
	<path class="st1" d="M90.1,125.7v-0.9c-0.5,0.6-1.6,1.1-2.7,1.1c-1.3,0-3-0.9-3-2.9c0-2.1,1.7-2.8,3-2.8c1.2,0,2.2,0.4,2.7,1v-0.9
		c0-0.8-0.6-1.3-1.8-1.3c-0.9,0-1.7,0.3-2.4,0.9l-1-1.9c1.1-1,2.6-1.4,3.9-1.4c2.1,0,4.1,0.8,4.1,3.5v5.4H90.1z M90.1,123.5v-0.8
		c-0.3-0.4-0.9-0.6-1.5-0.6c-0.7,0-1.4,0.3-1.4,1c0,0.7,0.7,1,1.4,1C89.2,124.1,89.8,123.9,90.1,123.5z"/>
	<path class="st1" d="M105.4,125.7v-1c-0.7,0.8-1.6,1.2-2.6,1.2c-2.1,0-3.8-1.6-3.8-4.6c0-2.8,1.7-4.6,3.8-4.6c1,0,1.9,0.4,2.6,1.2
		v-4.3h2.8v12H105.4z M105.4,122.7V120c-0.4-0.5-1.1-0.8-1.7-0.8c-1.1,0-1.9,0.8-1.9,2.1c0,1.3,0.8,2.1,1.9,2.1
		C104.3,123.5,105,123.2,105.4,122.7z"/>
	<path class="st1" d="M109.6,121.4c0-2.5,1.9-4.6,4.6-4.6c2.6,0,4.4,1.9,4.4,4.8v0.6h-6.2c0.2,0.8,0.9,1.4,2.2,1.4
		c0.6,0,1.6-0.3,2.1-0.7l1.2,1.8c-0.9,0.8-2.3,1.2-3.6,1.2C111.6,125.9,109.6,124.2,109.6,121.4z M114.2,119.1
		c-1.2,0-1.7,0.7-1.8,1.4h3.6C115.9,119.8,115.5,119.1,114.2,119.1z"/>
	<path class="st1" d="M123.9,124.6l1.2-2c0.6,0.6,2,1.2,3.1,1.2c0.8,0,1.2-0.2,1.2-0.6c0-1.1-5.1,0-5.1-3.5c0-1.5,1.3-2.9,3.7-2.9
		c1.5,0,2.7,0.5,3.6,1.2l-1.1,2c-0.5-0.5-1.5-1-2.6-1c-0.6,0-1.1,0.3-1.1,0.6c0,1,5,0,5,3.5c0,1.7-1.5,2.8-3.9,2.8
		C126.4,125.9,124.8,125.4,123.9,124.6z"/>
	<path class="st1" d="M138.5,125.7v-0.9c-0.5,0.6-1.6,1.1-2.7,1.1c-1.3,0-3-0.9-3-2.9c0-2.1,1.7-2.8,3-2.8c1.2,0,2.2,0.4,2.7,1v-0.9
		c0-0.8-0.6-1.3-1.8-1.3c-0.9,0-1.7,0.3-2.4,0.9l-1-1.9c1.1-1,2.6-1.4,3.9-1.4c2.1,0,4.1,0.8,4.1,3.5v5.4H138.5z M138.5,123.5v-0.8
		c-0.3-0.4-0.9-0.6-1.5-0.6c-0.7,0-1.4,0.3-1.4,1c0,0.7,0.7,1,1.4,1C137.5,124.1,138.2,123.9,138.5,123.5z"/>
	<path class="st1" d="M149.1,125.7v-1c-0.5,0.6-1.5,1.3-3,1.3c-2,0-2.9-1.1-2.9-2.7V117h2.8v5c0,1.1,0.5,1.4,1.4,1.4
		c0.8,0,1.3-0.4,1.7-0.8V117h2.8v8.7H149.1z M147.9,115.7H146l2.3-2.6h2.4L147.9,115.7z"/>
	<path class="st1" d="M159.8,125.7v-1c-0.7,0.8-1.6,1.2-2.6,1.2c-2.1,0-3.8-1.6-3.8-4.6c0-2.8,1.7-4.6,3.8-4.6c1,0,1.9,0.4,2.6,1.2
		v-4.3h2.8v12H159.8z M159.8,122.7V120c-0.4-0.5-1.1-0.8-1.7-0.8c-1.1,0-1.9,0.8-1.9,2.1c0,1.3,0.8,2.1,1.9,2.1
		C158.7,123.5,159.4,123.2,159.8,122.7z"/>
	<path class="st1" d="M164,121.4c0-2.5,1.9-4.6,4.6-4.6c2.6,0,4.4,1.9,4.4,4.8v0.6h-6.2c0.2,0.8,0.9,1.4,2.2,1.4
		c0.6,0,1.6-0.3,2.1-0.7l1.2,1.8c-0.9,0.8-2.3,1.2-3.6,1.2C166,125.9,164,124.2,164,121.4z M168.6,119.1c-1.2,0-1.7,0.7-1.8,1.4h3.6
		C170.3,119.8,169.9,119.1,168.6,119.1z"/>
	<path class="st1" d="M19,143.7v4.3h-2.8v-12H19v1c0.7-0.8,1.6-1.2,2.6-1.2c2.2,0,3.8,1.6,3.8,4.6c0,3-1.6,4.6-3.8,4.6
		C20.6,144.9,19.7,144.6,19,143.7z M22.6,140.4c0-1.3-0.8-2.1-1.9-2.1c-0.6,0-1.3,0.3-1.7,0.8v2.6c0.3,0.4,1.1,0.8,1.7,0.8
		C21.7,142.5,22.6,141.7,22.6,140.4z"/>
	<path class="st1" d="M32.7,144.7v-1c-0.5,0.6-1.5,1.3-3,1.3c-2,0-2.9-1.1-2.9-2.7V136h2.8v5c0,1.1,0.5,1.4,1.4,1.4
		c0.8,0,1.3-0.4,1.7-0.8V136h2.8v8.7H32.7z M31.4,134.7h-1.9l2.3-2.6h2.4L31.4,134.7z"/>
	<path class="st1" d="M37.5,144.7v-12h2.8v4.3c0.7-0.9,1.6-1.2,2.6-1.2c2.2,0,3.8,1.7,3.8,4.6c0,3-1.7,4.6-3.8,4.6
		c-1,0-1.9-0.4-2.6-1.2v1H37.5z M41.9,142.5c1.1,0,1.9-0.8,1.9-2.1c0-1.3-0.8-2.1-1.9-2.1c-0.6,0-1.3,0.3-1.7,0.8v2.7
		C40.6,142.2,41.3,142.5,41.9,142.5z"/>
	<path class="st1" d="M48.1,144.7v-12h2.8v12H48.1z"/>
	<path class="st1" d="M52.7,133.7c0-0.9,0.7-1.6,1.6-1.6c0.9,0,1.6,0.7,1.6,1.6c0,0.9-0.7,1.6-1.6,1.6
		C53.4,135.3,52.7,134.5,52.7,133.7z M52.9,144.7V136h2.8v8.7H52.9z"/>
	<path class="st1" d="M57.1,140.4c0-2.7,2-4.6,4.7-4.6c1.9,0,3,0.8,3.6,1.6l-1.8,1.7c-0.3-0.5-0.9-0.8-1.6-0.8c-1.2,0-2,0.8-2,2.1
		s0.9,2.1,2,2.1c0.7,0,1.3-0.4,1.6-0.8l1.8,1.7c-0.5,0.8-1.7,1.6-3.6,1.6C59.1,144.9,57.1,143.1,57.1,140.4z"/>
	<path class="st1" d="M71.8,144.7v-0.9c-0.5,0.6-1.6,1.1-2.7,1.1c-1.3,0-3-0.9-3-2.9c0-2.1,1.7-2.8,3-2.8c1.2,0,2.2,0.4,2.7,1v-0.9
		c0-0.8-0.6-1.3-1.8-1.3c-0.9,0-1.7,0.3-2.4,0.9l-1-1.9c1.1-1,2.6-1.4,3.9-1.4c2.1,0,4.1,0.8,4.1,3.5v5.4H71.8z M71.8,142.5v-0.8
		c-0.3-0.4-0.9-0.6-1.5-0.6c-0.7,0-1.4,0.3-1.4,1c0,0.7,0.7,1,1.4,1C70.9,143.1,71.5,142.9,71.8,142.5z"/>
</g>
<path class="st1" d="M-123.1-41.6"/>
</svg>
