<?xml version="1.0" encoding="utf-8"?>
<!-- Generator: Adobe Illustrator 16.0.0, SVG Export Plug-In . SVG Version: 6.00 Build 0)  -->
<!DOCTYPE svg PUBLIC "-//W3C//DTD SVG 1.1//EN" "http://www.w3.org/Graphics/SVG/1.1/DTD/svg11.dtd">
<svg version="1.1" id="Layer_1" xmlns="http://www.w3.org/2000/svg" xmlns:xlink="http://www.w3.org/1999/xlink" x="0px" y="0px"
	 width="960px" height="211.7px" viewBox="0 0 960 211.7" enable-background="new 0 0 960 211.7" xml:space="preserve">
<g>
	<path fill="#363636" d="M3.5,151.2c0-2.8,2.1-4.8,4.9-4.8c2.8,0,4.9,2,4.9,4.8c0,1.3-0.5,2.5-1.2,3.3l0.7,0.8l-1.4,1.1l-0.8-0.9
		c-0.6,0.3-1.4,0.5-2.2,0.5C5.5,156,3.5,154,3.5,151.2z M9.3,154.1l-1-1.2l1.4-1.1l1,1.2c0.3-0.5,0.5-1.1,0.5-1.8
		c0-1.8-1.1-3.1-2.8-3.1c-1.7,0-2.8,1.3-2.8,3.1c0,1.7,1.1,3.1,2.8,3.1C8.7,154.2,9,154.2,9.3,154.1z"/>
	<path fill="#363636" d="M18.9,155.8V155c-0.5,0.5-1.3,1-2.4,1c-1.5,0-2.2-0.8-2.2-2.1v-4.8h1.8v4.1c0,0.9,0.5,1.2,1.2,1.2
		c0.7,0,1.2-0.4,1.5-0.8v-4.6h1.8v6.8H18.9z"/>
	<path fill="#363636" d="M26.2,155.8v-0.7c-0.5,0.6-1.3,0.9-2.1,0.9c-1.1,0-2.3-0.7-2.3-2.2c0-1.6,1.3-2.2,2.3-2.2
		c0.9,0,1.7,0.3,2.1,0.8v-0.9c0-0.7-0.6-1.1-1.5-1.1c-0.7,0-1.4,0.3-1.9,0.8l-0.7-1.2c0.8-0.7,1.9-1.1,3-1.1c1.6,0,3,0.6,3,2.6v4.4
		H26.2z M26.2,154.2v-0.8c-0.3-0.4-0.9-0.6-1.4-0.6c-0.7,0-1.3,0.4-1.3,1s0.6,1,1.3,1C25.3,154.8,25.9,154.6,26.2,154.2z"/>
	<path fill="#363636" d="M34,155.8v-4.1c0-0.9-0.5-1.3-1.2-1.3c-0.7,0-1.2,0.4-1.5,0.8v4.6h-1.8v-6.8h1.8v0.9c0.4-0.5,1.3-1,2.4-1
		c1.5,0,2.2,0.8,2.2,2.2v4.8H34z"/>
	<path fill="#363636" d="M41.9,155.8V155c-0.5,0.7-1.3,1-2.1,1c-1.7,0-3-1.3-3-3.6c0-2.2,1.3-3.5,3-3.5c0.8,0,1.6,0.3,2.1,1v-3.4
		h1.8v9.3H41.9z M41.9,153.7v-2.4c-0.3-0.4-0.9-0.8-1.5-0.8c-1,0-1.7,0.8-1.7,2c0,1.2,0.7,2,1.7,2C41,154.4,41.6,154.1,41.9,153.7z"
		/>
	<path fill="#363636" d="M44.8,152.4c0-1.9,1.3-3.5,3.6-3.5c2.2,0,3.6,1.6,3.6,3.5c0,1.9-1.3,3.6-3.6,3.6
		C46.1,156,44.8,154.4,44.8,152.4z M50.1,152.4c0-1.1-0.6-2-1.7-2c-1.1,0-1.7,0.9-1.7,2c0,1.1,0.6,2,1.7,2
		C49.5,154.4,50.1,153.5,50.1,152.4z"/>
	<path fill="#363636" d="M58.5,155.8v-7.6h-2.7v-1.8h7.5v1.8h-2.7v7.6H58.5z"/>
	<path fill="#363636" d="M64.2,155.8v-9.3h6.6v1.8h-4.6v2h4.5v1.8h-4.5v3.9H64.2z"/>
	<path fill="#363636" d="M74.8,152.4c0-2,1.5-3.5,3.5-3.5c2,0,3.4,1.5,3.4,3.7v0.4h-5c0.1,0.8,0.8,1.5,1.9,1.5
		c0.6,0,1.4-0.2,1.8-0.7l0.8,1.2c-0.7,0.6-1.7,0.9-2.8,0.9C76.3,156,74.8,154.6,74.8,152.4z M78.3,150.4c-1.1,0-1.6,0.8-1.7,1.4h3.3
		C79.9,151.2,79.4,150.4,78.3,150.4z"/>
	<path fill="#363636" d="M82.1,155l0.8-1.3c0.5,0.5,1.5,0.9,2.3,0.9c0.8,0,1.1-0.3,1.1-0.7c0-1.1-4-0.2-4-2.9c0-1.1,1-2.1,2.8-2.1
		c1.1,0,2,0.4,2.7,0.9l-0.7,1.3c-0.4-0.4-1.2-0.8-2-0.8c-0.6,0-1.1,0.3-1.1,0.7c0,1,4,0.2,4,2.9c0,1.2-1.1,2.2-2.9,2.2
		C83.9,156,82.8,155.6,82.1,155z"/>
	<path fill="#363636" d="M89.4,154.1v-3.5h-1.1v-1.6h1.1v-1.8h1.8v1.8h1.4v1.6h-1.4v3c0,0.4,0.2,0.8,0.6,0.8c0.3,0,0.5-0.1,0.6-0.2
		l0.4,1.4c-0.3,0.2-0.7,0.4-1.5,0.4C90.1,156,89.4,155.4,89.4,154.1z"/>
	<path fill="#363636" d="M97.6,155.8v-0.7c-0.5,0.6-1.3,0.9-2.1,0.9c-1.1,0-2.3-0.7-2.3-2.2c0-1.6,1.3-2.2,2.3-2.2
		c0.9,0,1.7,0.3,2.1,0.8v-0.9c0-0.7-0.6-1.1-1.5-1.1c-0.7,0-1.4,0.3-1.9,0.8l-0.7-1.2c0.8-0.7,1.9-1.1,3-1.1c1.6,0,3,0.6,3,2.6v4.4
		H97.6z M97.6,154.2v-0.8c-0.3-0.4-0.9-0.6-1.4-0.6c-0.7,0-1.3,0.4-1.3,1s0.6,1,1.3,1C96.7,154.8,97.3,154.6,97.6,154.2z M96.6,148
		h-1.2l1.9-2h1.6L96.6,148z"/>
	<path fill="#363636" d="M105.9,155v3.4h-1.8v-9.3h1.8v0.9c0.5-0.7,1.3-1,2.1-1c1.7,0,3,1.3,3,3.5c0,2.3-1.3,3.6-3,3.6
		C107.2,156,106.5,155.7,105.9,155z M109.2,152.4c0-1.2-0.7-2-1.7-2c-0.6,0-1.2,0.3-1.5,0.8v2.4c0.3,0.4,1,0.8,1.5,0.8
		C108.5,154.4,109.2,153.6,109.2,152.4z"/>
	<path fill="#363636" d="M112,155.8v-6.8h1.8v0.9c0.5-0.6,1.3-1.1,2.2-1.1v1.7c-0.1,0-0.3,0-0.5,0c-0.6,0-1.4,0.3-1.7,0.8v4.5H112z"
		/>
	<path fill="#363636" d="M116.4,152.4c0-2,1.5-3.5,3.5-3.5c2,0,3.4,1.5,3.4,3.7v0.4h-5c0.1,0.8,0.8,1.5,1.9,1.5
		c0.6,0,1.4-0.2,1.8-0.7l0.8,1.2c-0.7,0.6-1.7,0.9-2.8,0.9C117.9,156,116.4,154.6,116.4,152.4z M119.9,150.4c-1.1,0-1.6,0.8-1.7,1.4
		h3.3C121.5,151.2,121,150.4,119.9,150.4z"/>
	<path fill="#363636" d="M123.7,155l0.8-1.3c0.5,0.5,1.5,0.9,2.3,0.9c0.8,0,1.1-0.3,1.1-0.7c0-1.1-4-0.2-4-2.9c0-1.1,1-2.1,2.8-2.1
		c1.1,0,2,0.4,2.7,0.9l-0.7,1.3c-0.4-0.4-1.2-0.8-2-0.8c-0.6,0-1.1,0.3-1.1,0.7c0,1,4,0.2,4,2.9c0,1.2-1.1,2.2-2.9,2.2
		C125.5,156,124.4,155.6,123.7,155z"/>
	<path fill="#363636" d="M130.2,152.4c0-2,1.5-3.5,3.5-3.5c2,0,3.4,1.5,3.4,3.7v0.4h-5c0.1,0.8,0.8,1.5,1.9,1.5
		c0.6,0,1.4-0.2,1.8-0.7l0.8,1.2c-0.7,0.6-1.7,0.9-2.8,0.9C131.8,156,130.2,154.6,130.2,152.4z M133.7,150.4c-1.1,0-1.6,0.8-1.7,1.4
		h3.3C135.3,151.2,134.9,150.4,133.7,150.4z"/>
	<path fill="#363636" d="M142.7,155.8v-4.1c0-0.9-0.5-1.3-1.2-1.3c-0.7,0-1.2,0.4-1.5,0.8v4.6h-1.8v-6.8h1.8v0.9
		c0.4-0.5,1.3-1,2.4-1c1.5,0,2.2,0.8,2.2,2.2v4.8H142.7z"/>
	<path fill="#363636" d="M146.3,154.1v-3.5h-1.1v-1.6h1.1v-1.8h1.8v1.8h1.4v1.6h-1.4v3c0,0.4,0.2,0.8,0.6,0.8c0.3,0,0.5-0.1,0.6-0.2
		l0.4,1.4c-0.3,0.2-0.7,0.4-1.5,0.4C147,156,146.3,155.4,146.3,154.1z"/>
	<path fill="#363636" d="M150,152.4c0-2,1.5-3.5,3.5-3.5c2,0,3.4,1.5,3.4,3.7v0.4h-5c0.1,0.8,0.8,1.5,1.9,1.5c0.6,0,1.4-0.2,1.8-0.7
		l0.8,1.2c-0.7,0.6-1.7,0.9-2.8,0.9C151.5,156,150,154.6,150,152.4z M153.5,150.4c-1.1,0-1.6,0.8-1.7,1.4h3.3
		C155.1,151.2,154.6,150.4,153.5,150.4z"/>
	<path fill="#363636" d="M3.4,169.2c0-2,1.5-3.5,3.5-3.5c2,0,3.4,1.5,3.4,3.7v0.4h-5c0.1,0.8,0.8,1.5,1.9,1.5c0.6,0,1.4-0.2,1.8-0.7
		l0.8,1.2c-0.7,0.6-1.7,0.9-2.8,0.9C5,172.8,3.4,171.4,3.4,169.2z M7,167.2c-1.1,0-1.6,0.8-1.7,1.4h3.3C8.6,168,8.1,167.2,7,167.2z"
		/>
	<path fill="#363636" d="M19.7,172.6v-4.3c0-0.6-0.3-1.1-1-1.1c-0.6,0-1.1,0.4-1.4,0.8v4.6h-1.8v-4.3c0-0.6-0.3-1.1-1-1.1
		c-0.6,0-1.1,0.4-1.4,0.8v4.6h-1.8v-6.8h1.8v0.9c0.3-0.4,1.2-1,2.2-1c1,0,1.6,0.5,1.9,1.2c0.4-0.6,1.3-1.2,2.3-1.2c1.2,0,2,0.7,2,2
		v4.9H19.7z"/>
	<path fill="#363636" d="M34.7,172.6v-4.3c0-0.6-0.3-1.1-1-1.1c-0.6,0-1.1,0.4-1.4,0.8v4.6h-1.8v-4.3c0-0.6-0.3-1.1-1-1.1
		c-0.6,0-1.1,0.4-1.4,0.8v4.6h-1.8v-6.8h1.8v0.9c0.3-0.4,1.2-1,2.2-1c1,0,1.6,0.5,1.9,1.2c0.4-0.6,1.3-1.2,2.3-1.2c1.2,0,2,0.7,2,2
		v4.9H34.7z"/>
	<path fill="#363636" d="M42,172.6v-0.7c-0.5,0.6-1.3,0.9-2.1,0.9c-1.1,0-2.3-0.7-2.3-2.2c0-1.6,1.3-2.2,2.3-2.2
		c0.9,0,1.7,0.3,2.1,0.8v-0.9c0-0.7-0.6-1.1-1.5-1.1c-0.7,0-1.4,0.3-1.9,0.8l-0.7-1.2c0.8-0.7,1.9-1.1,3-1.1c1.6,0,3,0.6,3,2.6v4.4
		H42z M42,171v-0.8c-0.3-0.4-0.9-0.6-1.4-0.6c-0.7,0-1.3,0.4-1.3,1s0.6,1,1.3,1C41.2,171.6,41.8,171.4,42,171z"/>
	<path fill="#363636" d="M45.1,164.1c0-0.6,0.5-1.1,1.1-1.1c0.6,0,1.1,0.5,1.1,1.1s-0.5,1.1-1.1,1.1
		C45.6,165.1,45.1,164.7,45.1,164.1z M45.3,172.6v-6.8h1.8v6.8H45.3z"/>
	<path fill="#363636" d="M48,171.8l0.8-1.3c0.5,0.5,1.5,0.9,2.3,0.9c0.8,0,1.1-0.3,1.1-0.7c0-1.1-4-0.2-4-2.9c0-1.1,1-2.1,2.8-2.1
		c1.1,0,2,0.4,2.7,0.9l-0.7,1.3c-0.4-0.4-1.2-0.8-2-0.8c-0.6,0-1.1,0.3-1.1,0.7c0,1,4,0.2,4,2.9c0,1.2-1.1,2.2-2.9,2.2
		C49.8,172.8,48.7,172.4,48,171.8z"/>
	<path fill="#363636" d="M62.9,172.6v-0.9c-0.5,0.7-1.3,1-2.1,1c-1.7,0-3-1.3-3-3.6c0-2.2,1.3-3.5,3-3.5c0.8,0,1.6,0.3,2.1,1v-3.4
		h1.8v9.3H62.9z M62.9,170.5v-2.4c-0.3-0.4-0.9-0.8-1.5-0.8c-1,0-1.7,0.8-1.7,2c0,1.2,0.7,2,1.7,2C62,171.2,62.6,170.9,62.9,170.5z"
		/>
	<path fill="#363636" d="M65.8,169.2c0-2,1.5-3.5,3.5-3.5c2,0,3.4,1.5,3.4,3.7v0.4h-5c0.1,0.8,0.8,1.5,1.9,1.5
		c0.6,0,1.4-0.2,1.8-0.7l0.8,1.2c-0.7,0.6-1.7,0.9-2.8,0.9C67.3,172.8,65.8,171.4,65.8,169.2z M69.3,167.2c-1.1,0-1.6,0.8-1.7,1.4
		H71C70.9,168,70.5,167.2,69.3,167.2z"/>
	<path fill="#363636" d="M76.8,171.4l1.1-1.4c0.6,0.7,1.5,1,2.5,1c1.1,0,1.7-0.6,1.7-1.4c0-0.8-0.6-1.4-1.7-1.4
		c-0.8,0-1.4,0.2-2,0.8l-1.4-0.4v-5.4h6.4v1.8h-4.4v2.3c0.4-0.4,1.2-0.8,2.1-0.8c1.6,0,3,1.1,3,3c0,2-1.5,3.2-3.7,3.2
		C78.8,172.8,77.6,172.3,76.8,171.4z"/>
	<path fill="#363636" d="M84.7,165.5c0-1.3,0.9-2.3,2.4-2.3c1.4,0,2.4,1,2.4,2.3c0,1.3-0.9,2.3-2.4,2.3
		C85.6,167.8,84.7,166.8,84.7,165.5z M88.2,165.5c0-0.8-0.5-1.2-1.1-1.2c-0.6,0-1.1,0.5-1.1,1.2c0,0.7,0.5,1.2,1.1,1.2
		C87.7,166.7,88.2,166.2,88.2,165.5z M86.2,172.6l6-9.3h1.1l-6,9.3H86.2z M89.8,170.5c0-1.3,0.9-2.4,2.4-2.4s2.4,1,2.4,2.4
		c0,1.3-1,2.3-2.4,2.3S89.8,171.8,89.8,170.5z M93.3,170.5c0-0.8-0.5-1.2-1.1-1.2c-0.6,0-1.1,0.5-1.1,1.2c0,0.8,0.5,1.2,1.1,1.2
		C92.9,171.7,93.3,171.3,93.3,170.5z"/>
	<path fill="#363636" d="M103.5,172.6v-0.9c-0.5,0.7-1.3,1-2.1,1c-1.7,0-3-1.3-3-3.6c0-2.2,1.3-3.5,3-3.5c0.8,0,1.6,0.3,2.1,1v-3.4
		h1.8v9.3H103.5z M103.5,170.5v-2.4c-0.3-0.4-0.9-0.8-1.5-0.8c-1,0-1.7,0.8-1.7,2c0,1.2,0.7,2,1.7,2
		C102.6,171.2,103.2,170.9,103.5,170.5z"/>
	<path fill="#363636" d="M110.9,172.6v-0.7c-0.5,0.6-1.3,0.9-2.1,0.9c-1.1,0-2.3-0.7-2.3-2.2c0-1.6,1.3-2.2,2.3-2.2
		c0.9,0,1.7,0.3,2.1,0.8v-0.9c0-0.7-0.6-1.1-1.5-1.1c-0.7,0-1.4,0.3-1.9,0.8l-0.7-1.2c0.8-0.7,1.9-1.1,3-1.1c1.6,0,3,0.6,3,2.6v4.4
		H110.9z M110.9,171v-0.8c-0.3-0.4-0.9-0.6-1.4-0.6c-0.7,0-1.3,0.4-1.3,1s0.6,1,1.3,1C110,171.6,110.6,171.4,110.9,171z"/>
	<path fill="#363636" d="M113.5,171.8l0.8-1.3c0.5,0.5,1.5,0.9,2.3,0.9c0.8,0,1.1-0.3,1.1-0.7c0-1.1-4-0.2-4-2.9
		c0-1.1,1-2.1,2.8-2.1c1.1,0,2,0.4,2.7,0.9l-0.7,1.3c-0.4-0.4-1.2-0.8-2-0.8c-0.6,0-1.1,0.3-1.1,0.7c0,1,4,0.2,4,2.9
		c0,1.2-1.1,2.2-2.9,2.2C115.4,172.8,114.2,172.4,113.5,171.8z"/>
	<path fill="#363636" d="M123.4,169.2c0-2.1,1.5-3.5,3.6-3.5c1.4,0,2.2,0.6,2.7,1.2l-1.2,1.1c-0.3-0.5-0.8-0.7-1.4-0.7
		c-1.1,0-1.8,0.8-1.8,2s0.8,2,1.8,2c0.6,0,1.1-0.3,1.4-0.7l1.2,1.1c-0.4,0.6-1.3,1.2-2.7,1.2C124.9,172.8,123.4,171.3,123.4,169.2z"
		/>
	<path fill="#363636" d="M130.5,172.6v-6.8h1.8v0.9c0.5-0.6,1.3-1.1,2.2-1.1v1.7c-0.1,0-0.3,0-0.5,0c-0.6,0-1.4,0.3-1.7,0.8v4.5
		H130.5z"/>
	<path fill="#363636" d="M135.1,164.1c0-0.6,0.5-1.1,1.1-1.1c0.6,0,1.1,0.5,1.1,1.1s-0.5,1.1-1.1,1.1
		C135.6,165.1,135.1,164.7,135.1,164.1z M135.3,172.6v-6.8h1.8v6.8H135.3z"/>
	<path fill="#363636" d="M142.6,172.6v-0.7c-0.5,0.6-1.3,0.9-2.1,0.9c-1.1,0-2.3-0.7-2.3-2.2c0-1.6,1.3-2.2,2.3-2.2
		c0.9,0,1.7,0.3,2.1,0.8v-0.9c0-0.7-0.6-1.1-1.5-1.1c-0.7,0-1.4,0.3-1.9,0.8l-0.7-1.2c0.8-0.7,1.9-1.1,3-1.1c1.6,0,3,0.6,3,2.6v4.4
		H142.6z M142.6,171v-0.8c-0.3-0.4-0.9-0.6-1.4-0.6c-0.7,0-1.3,0.4-1.3,1s0.6,1,1.3,1C141.8,171.6,142.3,171.4,142.6,171z"/>
	<path fill="#363636" d="M150.4,172.6v-4.1c0-0.9-0.5-1.3-1.2-1.3c-0.7,0-1.2,0.4-1.5,0.8v4.6h-1.8v-6.8h1.8v0.9
		c0.4-0.5,1.3-1,2.4-1c1.5,0,2.2,0.8,2.2,2.2v4.8H150.4z"/>
	<path fill="#363636" d="M155.4,174.9l0.4-0.7c0.4,0.3,0.8,0.4,1.1,0.4c0.4,0,0.7-0.2,0.7-0.5c0-0.2-0.1-0.4-0.4-0.4
		c-0.2,0-0.3,0.1-0.4,0.2l-0.6-0.4l0.3-0.8c-1.8-0.2-3.1-1.6-3.1-3.5c0-2.1,1.5-3.5,3.6-3.5c1.4,0,2.2,0.6,2.7,1.2l-1.2,1.1
		c-0.3-0.5-0.8-0.7-1.4-0.7c-1.1,0-1.8,0.8-1.8,2s0.8,2,1.8,2c0.6,0,1.1-0.3,1.4-0.7l1.2,1.1c-0.4,0.6-1.1,1.1-2.3,1.2l-0.2,0.5
		c0.1-0.1,0.3-0.1,0.5-0.1c0.5,0,0.9,0.4,0.9,1c0,0.7-0.7,1.2-1.6,1.2C156.2,175.3,155.7,175.1,155.4,174.9z"/>
	<path fill="#363636" d="M164.5,172.6v-0.7c-0.5,0.6-1.3,0.9-2.1,0.9c-1.1,0-2.3-0.7-2.3-2.2c0-1.6,1.3-2.2,2.3-2.2
		c0.9,0,1.7,0.3,2.1,0.8v-0.9c0-0.7-0.6-1.1-1.5-1.1c-0.7,0-1.4,0.3-1.9,0.8l-0.7-1.2c0.8-0.7,1.9-1.1,3-1.1c1.6,0,3,0.6,3,2.6v4.4
		H164.5z M164.5,171v-0.8c-0.3-0.4-0.9-0.6-1.4-0.6c-0.7,0-1.3,0.4-1.3,1s0.6,1,1.3,1C163.6,171.6,164.2,171.4,164.5,171z"/>
	<path fill="#363636" d="M167.1,171.8l0.8-1.3c0.5,0.5,1.5,0.9,2.3,0.9c0.8,0,1.1-0.3,1.1-0.7c0-1.1-4-0.2-4-2.9
		c0-1.1,1-2.1,2.8-2.1c1.1,0,2,0.4,2.7,0.9l-0.7,1.3c-0.4-0.4-1.2-0.8-2-0.8c-0.6,0-1.1,0.3-1.1,0.7c0,1,4,0.2,4,2.9
		c0,1.2-1.1,2.2-2.9,2.2C169,172.8,167.9,172.4,167.1,171.8z"/>
	<path fill="#363636" d="M174.8,174.6l-0.8-0.6c0.4-0.2,1-0.8,1.1-1.3c0,0-0.2,0-0.3,0c-0.5,0-1-0.4-1-1c0-0.6,0.5-1.1,1.1-1.1
		c0.7,0,1.2,0.5,1.2,1.4C176.3,173,175.7,173.9,174.8,174.6z"/>
	<path fill="#363636" d="M8.4,189.4v-0.9c-0.5,0.5-1.3,1-2.4,1c-1.5,0-2.2-0.8-2.2-2.1v-4.8h1.8v4.1c0,0.9,0.5,1.2,1.2,1.2
		c0.7,0,1.2-0.4,1.5-0.8v-4.6h1.8v6.8H8.4z"/>
	<path fill="#363636" d="M20.1,189.4v-4.3c0-0.6-0.3-1.1-1-1.1c-0.6,0-1.1,0.4-1.4,0.8v4.6h-1.8v-4.3c0-0.6-0.3-1.1-1-1.1
		c-0.6,0-1.1,0.4-1.4,0.8v4.6h-1.8v-6.8h1.8v0.9c0.3-0.4,1.2-1,2.2-1c1,0,1.6,0.5,1.9,1.2c0.4-0.6,1.3-1.2,2.3-1.2c1.2,0,2,0.7,2,2
		v4.9H20.1z"/>
	<path fill="#363636" d="M31.3,189.4v-0.9c-0.5,0.7-1.3,1-2.1,1c-1.7,0-3-1.3-3-3.6c0-2.2,1.3-3.5,3-3.5c0.8,0,1.6,0.3,2.1,1v-3.4
		h1.8v9.3H31.3z M31.3,187.3v-2.4c-0.3-0.4-0.9-0.8-1.5-0.8c-1,0-1.7,0.8-1.7,2c0,1.2,0.7,2,1.7,2C30.4,188,31,187.7,31.3,187.3z"/>
	<path fill="#363636" d="M34.4,180.9c0-0.6,0.5-1.1,1.1-1.1c0.6,0,1.1,0.5,1.1,1.1s-0.5,1.1-1.1,1.1
		C34.9,181.9,34.4,181.5,34.4,180.9z M34.6,189.4v-6.8h1.8v6.8H34.6z"/>
	<path fill="#363636" d="M37.3,188.6l0.8-1.3c0.5,0.5,1.5,0.9,2.3,0.9c0.8,0,1.1-0.3,1.1-0.7c0-1.1-4-0.2-4-2.9c0-1.1,1-2.1,2.8-2.1
		c1.1,0,2,0.4,2.7,0.9l-0.7,1.3c-0.4-0.4-1.2-0.8-2-0.8c-0.6,0-1.1,0.3-1.1,0.7c0,1,4,0.2,4,2.9c0,1.2-1.1,2.2-2.9,2.2
		C39.1,189.6,38,189.2,37.3,188.6z"/>
	<path fill="#363636" d="M44.6,187.7v-3.5h-1.1v-1.6h1.1v-1.8h1.8v1.8h1.4v1.6h-1.4v3c0,0.4,0.2,0.8,0.6,0.8c0.3,0,0.5-0.1,0.6-0.2
		l0.4,1.4c-0.3,0.2-0.7,0.4-1.5,0.4C45.3,189.6,44.6,189,44.6,187.7z"/>
	<path fill="#363636" d="M48.7,189.4v-6.8h1.8v0.9c0.5-0.6,1.3-1.1,2.2-1.1v1.7c-0.1,0-0.3,0-0.5,0c-0.6,0-1.4,0.3-1.7,0.8v4.5H48.7
		z"/>
	<path fill="#363636" d="M53.3,180.9c0-0.6,0.5-1.1,1.1-1.1c0.6,0,1.1,0.5,1.1,1.1s-0.5,1.1-1.1,1.1
		C53.8,181.9,53.3,181.5,53.3,180.9z M53.5,189.4v-6.8h1.8v6.8H53.5z"/>
	<path fill="#363636" d="M57.1,187.7v-3.5H56v-1.6h1.1v-1.8h1.8v1.8h1.4v1.6h-1.4v3c0,0.4,0.2,0.8,0.6,0.8c0.3,0,0.5-0.1,0.6-0.2
		l0.4,1.4c-0.3,0.2-0.7,0.4-1.5,0.4C57.8,189.6,57.1,189,57.1,187.7z"/>
	<path fill="#363636" d="M60.8,186c0-1.9,1.3-3.5,3.6-3.5c2.2,0,3.6,1.6,3.6,3.5s-1.3,3.6-3.6,3.6C62.1,189.6,60.8,188,60.8,186z
		 M66.1,186c0-1.1-0.6-2-1.7-2c-1.1,0-1.7,0.9-1.7,2c0,1.1,0.6,2,1.7,2C65.5,188,66.1,187.1,66.1,186z"/>
	<path fill="#363636" d="M74.1,188.6v3.4h-1.8v-9.3h1.8v0.9c0.5-0.7,1.3-1,2.1-1c1.7,0,3,1.3,3,3.5c0,2.3-1.3,3.6-3,3.6
		C75.4,189.6,74.6,189.3,74.1,188.6z M77.3,186c0-1.2-0.7-2-1.7-2c-0.6,0-1.2,0.3-1.5,0.8v2.4c0.3,0.4,1,0.8,1.5,0.8
		C76.6,188,77.3,187.2,77.3,186z"/>
	<path fill="#363636" d="M80.2,189.4v-6.8h1.8v0.9c0.5-0.6,1.3-1.1,2.2-1.1v1.7c-0.1,0-0.3,0-0.5,0c-0.6,0-1.4,0.3-1.7,0.8v4.5H80.2
		z"/>
	<path fill="#363636" d="M84.5,186c0-2,1.5-3.5,3.5-3.5c2,0,3.4,1.5,3.4,3.7v0.4h-5c0.1,0.8,0.8,1.5,1.9,1.5c0.6,0,1.4-0.2,1.8-0.7
		l0.8,1.2c-0.7,0.6-1.7,0.9-2.8,0.9C86,189.6,84.5,188.2,84.5,186z M88,184c-1.1,0-1.6,0.8-1.7,1.4h3.3C89.6,184.8,89.2,184,88,184z
		"/>
	<path fill="#363636" d="M92,186c0-2.1,1.5-3.5,3.6-3.5c1.4,0,2.2,0.6,2.7,1.2l-1.2,1.1c-0.3-0.5-0.8-0.7-1.4-0.7
		c-1.1,0-1.8,0.8-1.8,2s0.8,2,1.8,2c0.6,0,1.1-0.3,1.4-0.7l1.2,1.1c-0.4,0.6-1.3,1.2-2.7,1.2C93.5,189.6,92,188.1,92,186z"/>
	<path fill="#363636" d="M98.9,180.9c0-0.6,0.5-1.1,1.1-1.1c0.6,0,1.1,0.5,1.1,1.1s-0.5,1.1-1.1,1.1
		C99.4,181.9,98.9,181.5,98.9,180.9z M99.1,189.4v-6.8h1.8v6.8H99.1z"/>
	<path fill="#363636" d="M101.8,188.6l0.8-1.3c0.5,0.5,1.5,0.9,2.3,0.9c0.8,0,1.1-0.3,1.1-0.7c0-1.1-4-0.2-4-2.9
		c0-1.1,1-2.1,2.8-2.1c1.1,0,2,0.4,2.7,0.9l-0.7,1.3c-0.4-0.4-1.2-0.8-2-0.8c-0.6,0-1.1,0.3-1.1,0.7c0,1,4,0.2,4,2.9
		c0,1.2-1.1,2.2-2.9,2.2C103.6,189.6,102.5,189.2,101.8,188.6z"/>
	<path fill="#363636" d="M112.8,189.4v-0.7c-0.5,0.6-1.3,0.9-2.1,0.9c-1.1,0-2.3-0.7-2.3-2.2c0-1.6,1.3-2.2,2.3-2.2
		c0.9,0,1.7,0.3,2.1,0.8v-0.9c0-0.7-0.6-1.1-1.5-1.1c-0.7,0-1.4,0.3-1.9,0.8l-0.7-1.2c0.8-0.7,1.9-1.1,3-1.1c1.6,0,3,0.6,3,2.6v4.4
		H112.8z M112.8,187.8V187c-0.3-0.4-0.9-0.6-1.4-0.6c-0.7,0-1.3,0.4-1.3,1s0.6,1,1.3,1C112,188.4,112.5,188.2,112.8,187.8z"/>
	<path fill="#363636" d="M124,189.4v-0.9c-0.5,0.7-1.3,1-2.1,1c-1.7,0-3-1.3-3-3.6c0-2.2,1.3-3.5,3-3.5c0.8,0,1.6,0.3,2.1,1v-3.4
		h1.8v9.3H124z M124,187.3v-2.4c-0.3-0.4-0.9-0.8-1.5-0.8c-1,0-1.7,0.8-1.7,2c0,1.2,0.7,2,1.7,2C123.1,188,123.7,187.7,124,187.3z"
		/>
	<path fill="#363636" d="M126.9,186c0-2,1.5-3.5,3.5-3.5c2,0,3.4,1.5,3.4,3.7v0.4h-5c0.1,0.8,0.8,1.5,1.9,1.5c0.6,0,1.4-0.2,1.8-0.7
		l0.8,1.2c-0.7,0.6-1.7,0.9-2.8,0.9C128.4,189.6,126.9,188.2,126.9,186z M130.4,184c-1.1,0-1.6,0.8-1.7,1.4h3.3
		C132,184.8,131.6,184,130.4,184z"/>
	<path fill="#363636" d="M3.7,197.7c0-0.6,0.5-1.1,1.1-1.1c0.6,0,1.1,0.5,1.1,1.1s-0.5,1.1-1.1,1.1C4.2,198.7,3.7,198.3,3.7,197.7z
		 M3.9,206.2v-6.8h1.8v6.8H3.9z"/>
	<path fill="#363636" d="M11.7,206.2v-4.1c0-0.9-0.5-1.3-1.2-1.3c-0.7,0-1.2,0.4-1.5,0.8v4.6H7.1v-6.8h1.8v0.9c0.4-0.5,1.3-1,2.4-1
		c1.5,0,2.2,0.8,2.2,2.2v4.8H11.7z"/>
	<path fill="#363636" d="M15.3,204.5V201h-1.1v-1.6h1.1v-1.8h1.8v1.8h1.4v1.6h-1.4v3c0,0.4,0.2,0.8,0.6,0.8c0.3,0,0.5-0.1,0.6-0.2
		l0.4,1.4c-0.3,0.2-0.7,0.4-1.5,0.4C16,206.4,15.3,205.8,15.3,204.5z"/>
	<path fill="#363636" d="M19,202.8c0-2,1.5-3.5,3.5-3.5c2,0,3.4,1.5,3.4,3.7v0.4h-5c0.1,0.8,0.8,1.5,1.9,1.5c0.6,0,1.4-0.2,1.8-0.7
		l0.8,1.2c-0.7,0.6-1.7,0.9-2.8,0.9C20.5,206.4,19,205,19,202.8z M22.5,200.8c-1.1,0-1.6,0.8-1.7,1.4h3.3
		C24.1,201.6,23.7,200.8,22.5,200.8z"/>
	<path fill="#363636" d="M26.9,206.2v-6.8h1.8v0.9c0.5-0.6,1.3-1.1,2.2-1.1v1.7c-0.1,0-0.3,0-0.5,0c-0.6,0-1.4,0.3-1.7,0.8v4.5H26.9
		z"/>
	<path fill="#363636" d="M33.4,206.2l-2.7-6.8h1.9l1.8,4.7l1.8-4.7H38l-2.7,6.8H33.4z"/>
	<path fill="#363636" d="M38.1,202.8c0-2,1.5-3.5,3.5-3.5c2,0,3.4,1.5,3.4,3.7v0.4h-5c0.1,0.8,0.8,1.5,1.9,1.5
		c0.6,0,1.4-0.2,1.8-0.7l0.8,1.2c-0.7,0.6-1.7,0.9-2.8,0.9C39.7,206.4,38.1,205,38.1,202.8z M41.6,200.8c-1.1,0-1.6,0.8-1.7,1.4h3.3
		C43.2,201.6,42.8,200.8,41.6,200.8z"/>
	<path fill="#363636" d="M50.6,206.2v-4.1c0-0.9-0.5-1.3-1.2-1.3c-0.7,0-1.2,0.4-1.5,0.8v4.6H46v-6.8h1.8v0.9c0.4-0.5,1.3-1,2.4-1
		c1.5,0,2.2,0.8,2.2,2.2v4.8H50.6z"/>
	<path fill="#363636" d="M55.5,208.5l0.4-0.7c0.4,0.3,0.8,0.4,1.1,0.4c0.4,0,0.7-0.2,0.7-0.5c0-0.2-0.1-0.4-0.4-0.4
		c-0.2,0-0.3,0.1-0.4,0.2l-0.6-0.4l0.3-0.8c-1.8-0.2-3.1-1.6-3.1-3.5c0-2.1,1.5-3.5,3.6-3.5c1.4,0,2.2,0.6,2.7,1.2l-1.2,1.1
		c-0.3-0.5-0.8-0.7-1.4-0.7c-1.1,0-1.8,0.8-1.8,2s0.8,2,1.8,2c0.6,0,1.1-0.3,1.4-0.7l1.2,1.1c-0.4,0.6-1.1,1.1-2.3,1.2l-0.2,0.5
		c0.1-0.1,0.3-0.1,0.5-0.1c0.5,0,0.9,0.4,0.9,1c0,0.7-0.7,1.2-1.6,1.2C56.4,208.9,55.8,208.7,55.5,208.5z"/>
	<path fill="#363636" d="M60.1,202.8c0-1.9,1.3-3.5,3.6-3.5c2.2,0,3.6,1.6,3.6,3.5s-1.3,3.6-3.6,3.6
		C61.4,206.4,60.1,204.8,60.1,202.8z M62.8,197.5c-0.3,0-0.5,0.3-0.5,0.9h-0.9c0-1.2,0.5-1.9,1.5-1.9c0.9,0,1.1,0.9,1.6,0.9
		c0.3,0,0.5-0.3,0.5-0.9H66c0,1.2-0.5,1.9-1.5,1.9C63.5,198.5,63.4,197.5,62.8,197.5z M65.4,202.8c0-1.1-0.6-2-1.7-2
		c-1.1,0-1.7,0.9-1.7,2c0,1.1,0.6,2,1.7,2C64.8,204.8,65.4,203.9,65.4,202.8z"/>
	<path fill="#363636" d="M67.9,202.8c0-2,1.5-3.5,3.5-3.5c2,0,3.4,1.5,3.4,3.7v0.4h-5c0.1,0.8,0.8,1.5,1.9,1.5
		c0.6,0,1.4-0.2,1.8-0.7l0.8,1.2c-0.7,0.6-1.7,0.9-2.8,0.9C69.4,206.4,67.9,205,67.9,202.8z M71.4,200.8c-1.1,0-1.6,0.8-1.7,1.4h3.3
		C73,201.6,72.6,200.8,71.4,200.8z"/>
	<path fill="#363636" d="M75.2,205.4l0.8-1.3c0.5,0.5,1.5,0.9,2.3,0.9c0.8,0,1.1-0.3,1.1-0.7c0-1.1-4-0.2-4-2.9c0-1.1,1-2.1,2.8-2.1
		c1.1,0,2,0.4,2.7,0.9l-0.7,1.3c-0.4-0.4-1.2-0.8-2-0.8c-0.6,0-1.1,0.3-1.1,0.7c0,1,4,0.2,4,2.9c0,1.2-1.1,2.2-2.9,2.2
		C77,206.4,75.9,206,75.2,205.4z"/>
	<path fill="#363636" d="M92,206.2l-0.6-1.6h-4l-0.6,1.6h-2.3l3.6-9.3h2.5l3.6,9.3H92z M89.4,198.9l-1.5,4h2.9L89.4,198.9z"/>
	<path fill="#363636" d="M95.5,208.2l-0.8-0.6c0.4-0.2,1-0.8,1.1-1.3c0,0-0.2,0-0.3,0c-0.5,0-1-0.4-1-1c0-0.6,0.5-1.1,1.1-1.1
		c0.7,0,1.2,0.5,1.2,1.4C96.9,206.6,96.3,207.5,95.5,208.2z"/>
	<path fill="#363636" d="M101.3,206.2v-9.3h2v7.6h3.9v1.8H101.3z"/>
	<path fill="#363636" d="M109,208.2l-0.8-0.6c0.4-0.2,1-0.8,1.1-1.3c0,0-0.2,0-0.3,0c-0.5,0-1-0.4-1-1c0-0.6,0.5-1.1,1.1-1.1
		c0.7,0,1.2,0.5,1.2,1.4C110.4,206.6,109.9,207.5,109,208.2z"/>
	<path fill="#363636" d="M121.4,206.2l-0.6-1.6h-4l-0.6,1.6H114l3.6-9.3h2.5l3.6,9.3H121.4z M118.8,198.9l-1.5,4h2.9L118.8,198.9z"
		/>
</g>
<g>
	<g>
		<path fill="#363636" d="M582.9,155.8v-0.7c-0.5,0.6-1.3,0.9-2.1,0.9c-1.1,0-2.3-0.7-2.3-2.2c0-1.6,1.3-2.2,2.3-2.2
			c0.9,0,1.7,0.3,2.1,0.8v-0.9c0-0.7-0.6-1.1-1.5-1.1c-0.7,0-1.4,0.3-1.9,0.8l-0.7-1.2c0.8-0.7,1.9-1.1,3-1.1c1.6,0,3,0.6,3,2.6v4.4
			H582.9z M582.9,154.2v-0.8c-0.3-0.4-0.9-0.6-1.4-0.6c-0.7,0-1.3,0.4-1.3,1s0.6,1,1.3,1C582.1,154.8,582.7,154.6,582.9,154.2z"/>
		<path fill="#363636" d="M586.2,155.8v-9.3h1.8v9.3H586.2z"/>
		<path fill="#363636" d="M589.3,157.6l0.8-1.3c0.5,0.6,1.3,0.8,2.1,0.8c0.9,0,1.9-0.4,1.9-1.7v-0.7c-0.5,0.7-1.3,1.1-2.1,1.1
			c-1.7,0-3-1.2-3-3.4c0-2.2,1.3-3.4,3-3.4c0.8,0,1.6,0.3,2.1,1v-0.9h1.8v6.3c0,2.6-2,3.2-3.7,3.2
			C591.1,158.6,590.2,158.3,589.3,157.6z M594.1,153.4v-2.2c-0.3-0.4-1-0.8-1.5-0.8c-1,0-1.7,0.7-1.7,1.9s0.7,1.9,1.7,1.9
			C593.2,154.2,593.8,153.9,594.1,153.4z"/>
		<path fill="#363636" d="M601.9,155.8V155c-0.5,0.5-1.3,1-2.4,1c-1.5,0-2.2-0.8-2.2-2.1v-4.8h1.8v4.1c0,0.9,0.5,1.2,1.2,1.2
			c0.7,0,1.2-0.4,1.5-0.8v-4.6h1.8v6.8H601.9z"/>
		<path fill="#363636" d="M604.8,152.4c0-2,1.5-3.5,3.5-3.5c2,0,3.4,1.5,3.4,3.7v0.4h-5c0.1,0.8,0.8,1.5,1.9,1.5
			c0.6,0,1.4-0.2,1.8-0.7l0.8,1.2c-0.7,0.6-1.7,0.9-2.8,0.9C606.3,156,604.8,154.6,604.8,152.4z M608.3,150.4
			c-1.1,0-1.6,0.8-1.7,1.4h3.3C609.9,151.2,609.4,150.4,608.3,150.4z"/>
		<path fill="#363636" d="M621.1,155.8v-4.3c0-0.6-0.3-1.1-1-1.1c-0.6,0-1.1,0.4-1.4,0.8v4.6h-1.8v-4.3c0-0.6-0.3-1.1-1-1.1
			c-0.6,0-1.1,0.4-1.4,0.8v4.6h-1.8v-6.8h1.8v0.9c0.3-0.4,1.2-1,2.2-1c1,0,1.6,0.5,1.9,1.2c0.4-0.6,1.3-1.2,2.3-1.2c1.2,0,2,0.7,2,2
			v4.9H621.1z"/>
		<path fill="#363636" d="M627.2,152.4c0-2.1,1.5-3.5,3.6-3.5c1.4,0,2.2,0.6,2.7,1.2l-1.2,1.1c-0.3-0.5-0.8-0.7-1.4-0.7
			c-1.1,0-1.8,0.8-1.8,2s0.8,2,1.8,2c0.6,0,1.1-0.3,1.4-0.7l1.2,1.1c-0.4,0.6-1.3,1.2-2.7,1.2C628.7,156,627.2,154.5,627.2,152.4z"
			/>
		<path fill="#363636" d="M633.9,152.4c0-1.9,1.3-3.5,3.6-3.5c2.2,0,3.6,1.6,3.6,3.5c0,1.9-1.3,3.6-3.6,3.6
			C635.3,156,633.9,154.4,633.9,152.4z M639.2,152.4c0-1.1-0.6-2-1.7-2c-1.1,0-1.7,0.9-1.7,2c0,1.1,0.6,2,1.7,2
			C638.6,154.4,639.2,153.5,639.2,152.4z"/>
		<path fill="#363636" d="M650.5,155.8v-4.3c0-0.6-0.3-1.1-1-1.1c-0.6,0-1.1,0.4-1.4,0.8v4.6h-1.8v-4.3c0-0.6-0.3-1.1-1-1.1
			c-0.6,0-1.1,0.4-1.4,0.8v4.6h-1.8v-6.8h1.8v0.9c0.3-0.4,1.2-1,2.2-1c1,0,1.6,0.5,1.9,1.2c0.4-0.6,1.3-1.2,2.3-1.2c1.2,0,2,0.7,2,2
			v4.9H650.5z"/>
		<path fill="#363636" d="M659.3,155.8v-7.6h-2.7v-1.8h7.5v1.8h-2.7v7.6H659.3z"/>
		<path fill="#363636" d="M667.2,155.8v-7.6h-2.7v-1.8h7.5v1.8h-2.7v7.6H667.2z"/>
		<path fill="#363636" d="M677.9,155v3.4h-1.8v-9.3h1.8v0.9c0.5-0.7,1.3-1,2.1-1c1.7,0,3,1.3,3,3.5c0,2.3-1.3,3.6-3,3.6
			C679.2,156,678.5,155.7,677.9,155z M681.2,152.4c0-1.2-0.7-2-1.7-2c-0.6,0-1.2,0.3-1.5,0.8v2.4c0.3,0.4,1,0.8,1.5,0.8
			C680.5,154.4,681.2,153.6,681.2,152.4z"/>
		<path fill="#363636" d="M684,155.8v-6.8h1.8v0.9c0.5-0.6,1.3-1.1,2.2-1.1v1.7c-0.1,0-0.3,0-0.5,0c-0.6,0-1.4,0.3-1.7,0.8v4.5H684z
			"/>
		<path fill="#363636" d="M688.4,152.4c0-2,1.5-3.5,3.5-3.5c2,0,3.4,1.5,3.4,3.7v0.4h-5c0.1,0.8,0.8,1.5,1.9,1.5
			c0.6,0,1.4-0.2,1.8-0.7l0.8,1.2c-0.7,0.6-1.7,0.9-2.8,0.9C689.9,156,688.4,154.6,688.4,152.4z M691.9,150.4
			c-1.1,0-1.6,0.8-1.7,1.4h3.3C693.5,151.2,693,150.4,691.9,150.4z"/>
		<path fill="#363636" d="M695.8,152.4c0-2.1,1.5-3.5,3.6-3.5c1.4,0,2.2,0.6,2.7,1.2l-1.2,1.1c-0.3-0.5-0.8-0.7-1.4-0.7
			c-1.1,0-1.8,0.8-1.8,2s0.8,2,1.8,2c0.6,0,1.1-0.3,1.4-0.7l1.2,1.1c-0.4,0.6-1.3,1.2-2.7,1.2C697.3,156,695.8,154.5,695.8,152.4z"
			/>
		<path fill="#363636" d="M702.8,147.3c0-0.6,0.5-1.1,1.1-1.1c0.6,0,1.1,0.5,1.1,1.1s-0.5,1.1-1.1,1.1
			C703.3,148.3,702.8,147.9,702.8,147.3z M703,155.8v-6.8h1.8v6.8H703z"/>
		<path fill="#363636" d="M705.6,155l0.8-1.3c0.5,0.5,1.5,0.9,2.3,0.9c0.8,0,1.1-0.3,1.1-0.7c0-1.1-4-0.2-4-2.9c0-1.1,1-2.1,2.8-2.1
			c1.1,0,2,0.4,2.7,0.9l-0.7,1.3c-0.4-0.4-1.2-0.8-2-0.8c-0.6,0-1.1,0.3-1.1,0.7c0,1,4,0.2,4,2.9c0,1.2-1.1,2.2-2.9,2.2
			C707.5,156,706.3,155.6,705.6,155z"/>
		<path fill="#363636" d="M716.7,155.8v-0.7c-0.5,0.6-1.3,0.9-2.1,0.9c-1.1,0-2.3-0.7-2.3-2.2c0-1.6,1.3-2.2,2.3-2.2
			c0.9,0,1.7,0.3,2.1,0.8v-0.9c0-0.7-0.6-1.1-1.5-1.1c-0.7,0-1.4,0.3-1.9,0.8l-0.7-1.2c0.8-0.7,1.9-1.1,3-1.1c1.6,0,3,0.6,3,2.6v4.4
			H716.7z M716.7,154.2v-0.8c-0.3-0.4-0.9-0.6-1.4-0.6c-0.7,0-1.3,0.4-1.3,1s0.6,1,1.3,1C715.8,154.8,716.4,154.6,716.7,154.2z"/>
		<path fill="#363636" d="M578.9,172.6v-9.3h2v9.3H578.9z"/>
		<path fill="#363636" d="M587,172.6v-4.1c0-0.9-0.5-1.3-1.2-1.3c-0.7,0-1.2,0.4-1.5,0.8v4.6h-1.8v-6.8h1.8v0.9c0.4-0.5,1.3-1,2.4-1
			c1.5,0,2.2,0.8,2.2,2.2v4.8H587z"/>
		<path fill="#363636" d="M590.6,170.9v-3.5h-1.1v-1.6h1.1V164h1.8v1.8h1.4v1.6h-1.4v3c0,0.4,0.2,0.8,0.6,0.8c0.3,0,0.5-0.1,0.6-0.2
			l0.4,1.4c-0.3,0.2-0.7,0.4-1.5,0.4C591.3,172.8,590.6,172.2,590.6,170.9z"/>
		<path fill="#363636" d="M594.3,169.2c0-2,1.5-3.5,3.5-3.5c2,0,3.4,1.5,3.4,3.7v0.4h-5c0.1,0.8,0.8,1.5,1.9,1.5
			c0.6,0,1.4-0.2,1.8-0.7l0.8,1.2c-0.7,0.6-1.7,0.9-2.8,0.9C595.8,172.8,594.3,171.4,594.3,169.2z M597.8,167.2
			c-1.1,0-1.6,0.8-1.7,1.4h3.3C599.4,168,599,167.2,597.8,167.2z"/>
		<path fill="#363636" d="M602.2,172.6v-6.8h1.8v0.9c0.5-0.6,1.3-1.1,2.2-1.1v1.7c-0.1,0-0.3,0-0.5,0c-0.6,0-1.4,0.3-1.7,0.8v4.5
			H602.2z"/>
		<path fill="#363636" d="M608.7,172.6l-2.7-6.8h1.9l1.8,4.7l1.8-4.7h1.9l-2.7,6.8H608.7z"/>
		<path fill="#363636" d="M613.4,169.2c0-2,1.5-3.5,3.5-3.5c2,0,3.4,1.5,3.4,3.7v0.4h-5c0.1,0.8,0.8,1.5,1.9,1.5
			c0.6,0,1.4-0.2,1.8-0.7l0.8,1.2c-0.7,0.6-1.7,0.9-2.8,0.9C615,172.8,613.4,171.4,613.4,169.2z M616.9,167.2
			c-1.1,0-1.6,0.8-1.7,1.4h3.3C618.5,168,618.1,167.2,616.9,167.2z"/>
		<path fill="#363636" d="M625.9,172.6v-4.1c0-0.9-0.5-1.3-1.2-1.3c-0.7,0-1.2,0.4-1.5,0.8v4.6h-1.8v-6.8h1.8v0.9
			c0.4-0.5,1.3-1,2.4-1c1.5,0,2.2,0.8,2.2,2.2v4.8H625.9z"/>
		<path fill="#363636" d="M630.8,174.9l0.4-0.7c0.3,0.3,0.8,0.4,1.1,0.4c0.4,0,0.7-0.2,0.7-0.5c0-0.2-0.1-0.4-0.4-0.4
			c-0.2,0-0.3,0.1-0.4,0.2l-0.6-0.4l0.3-0.8c-1.8-0.2-3.1-1.6-3.1-3.5c0-2.1,1.5-3.5,3.6-3.5c1.4,0,2.2,0.6,2.7,1.2l-1.2,1.1
			c-0.3-0.5-0.8-0.7-1.4-0.7c-1.1,0-1.8,0.8-1.8,2s0.8,2,1.8,2c0.6,0,1.1-0.3,1.4-0.7l1.2,1.1c-0.4,0.6-1.1,1.1-2.3,1.2l-0.2,0.5
			c0.1-0.1,0.3-0.1,0.5-0.1c0.5,0,0.9,0.4,0.9,1c0,0.7-0.7,1.2-1.6,1.2C631.6,175.3,631.1,175.1,630.8,174.9z"/>
		<path fill="#363636" d="M639.9,172.6v-0.7c-0.5,0.6-1.3,0.9-2.1,0.9c-1.1,0-2.3-0.7-2.3-2.2c0-1.6,1.3-2.2,2.3-2.2
			c0.9,0,1.7,0.3,2.1,0.8v-0.9c0-0.7-0.6-1.1-1.5-1.1c-0.7,0-1.4,0.3-1.9,0.8l-0.7-1.2c0.8-0.7,1.9-1.1,3-1.1c1.6,0,3,0.6,3,2.6v4.4
			H639.9z M637.9,163.9c-0.3,0-0.5,0.3-0.5,0.9h-0.9c0-1.2,0.5-1.9,1.5-1.9c0.9,0,1.1,0.9,1.6,0.9c0.3,0,0.5-0.3,0.5-0.9h0.9
			c0,1.2-0.5,1.9-1.5,1.9C638.6,164.9,638.4,163.9,637.9,163.9z M639.9,171v-0.8c-0.3-0.4-0.9-0.6-1.4-0.6c-0.7,0-1.3,0.4-1.3,1
			s0.6,1,1.3,1C639,171.6,639.6,171.4,639.9,171z"/>
		<path fill="#363636" d="M642.7,169.2c0-1.9,1.3-3.5,3.6-3.5c2.2,0,3.6,1.6,3.6,3.5s-1.3,3.6-3.6,3.6
			C644.1,172.8,642.7,171.2,642.7,169.2z M648,169.2c0-1.1-0.6-2-1.7-2c-1.1,0-1.7,0.9-1.7,2c0,1.1,0.6,2,1.7,2
			C647.4,171.2,648,170.3,648,169.2z"/>
		<path fill="#363636" d="M653.6,171.3l1.1-1.6c0.7,0.7,1.7,1.3,3,1.3c1.1,0,1.6-0.5,1.6-1c0-1.6-5.4-0.5-5.4-4
			c0-1.6,1.3-2.8,3.5-2.8c1.5,0,2.7,0.4,3.6,1.3l-1.1,1.5c-0.8-0.7-1.8-1-2.7-1c-0.8,0-1.3,0.4-1.3,0.9c0,1.5,5.4,0.5,5.4,4
			c0,1.7-1.2,3-3.7,3C655.8,172.8,654.5,172.2,653.6,171.3z"/>
	</g>
</g>
<rect x="768" fill="#181716" stroke="#FFFFFF" stroke-width="2" stroke-miterlimit="10" width="192" height="137"/>
<g>
	<path fill="#FFFFFF" d="M807,36.4c0-8.2,6.2-13.8,14.4-13.8c6.4,0,9.9,3.6,11.6,7.1l-5.9,2.8c-0.9-2.1-3.2-3.9-5.7-3.9
		c-4.4,0-7.4,3.3-7.4,7.7c0,4.4,3.1,7.7,7.4,7.7c2.6,0,4.8-1.8,5.7-3.9l5.9,2.8c-1.7,3.4-5.2,7.2-11.6,7.2
		C813.3,50.2,807,44.6,807,36.4z"/>
	<path fill="#FFFFFF" d="M833.9,36.4c0-8.1,6.1-13.8,14.3-13.8c8.2,0,14.2,5.7,14.2,13.8c0,8.1-6.1,13.8-14.2,13.8
		C840,50.2,833.9,44.5,833.9,36.4z M855.4,36.4c0-4.4-2.8-7.7-7.2-7.7c-4.4,0-7.3,3.4-7.3,7.7c0,4.3,2.9,7.7,7.3,7.7
		C852.6,44.1,855.4,40.7,855.4,36.4z"/>
	<path fill="#FFFFFF" d="M806.5,86.9c0-3.7,2.8-6.2,6.4-6.2s6.4,2.6,6.4,6.2s-2.7,6.2-6.4,6.2S806.5,90.5,806.5,86.9z M816.2,86.9
		c0-2-1.3-3.5-3.3-3.5s-3.3,1.5-3.3,3.5c0,1.9,1.3,3.5,3.3,3.5S816.2,88.8,816.2,86.9z"/>
	<path fill="#FFFFFF" d="M823.2,91.9v4.3h-2.8v-12h2.8v1c0.7-0.8,1.6-1.2,2.6-1.2c2.2,0,3.8,1.6,3.8,4.6c0,3-1.6,4.6-3.8,4.6
		C824.8,93.1,823.9,92.7,823.2,91.9z M826.8,88.5c0-1.3-0.8-2.1-1.9-2.1c-0.6,0-1.3,0.3-1.7,0.8v2.6c0.3,0.4,1.1,0.8,1.7,0.8
		C825.9,90.6,826.8,89.8,826.8,88.5z"/>
	<path fill="#FFFFFF" d="M835.8,92.9V92c-0.5,0.6-1.6,1.1-2.7,1.1c-1.3,0-3-0.9-3-2.9c0-2.1,1.7-2.8,3-2.8c1.2,0,2.2,0.4,2.7,1v-0.9
		c0-0.8-0.6-1.3-1.8-1.3c-0.9,0-1.7,0.3-2.4,0.9l-1-1.9c1.1-1,2.6-1.4,3.9-1.4c2.1,0,4.1,0.8,4.1,3.5v5.4H835.8z M835.8,90.6v-0.8
		c-0.3-0.4-0.9-0.6-1.5-0.6c-0.7,0-1.4,0.3-1.4,1c0,0.7,0.7,1,1.4,1C834.9,91.3,835.5,91.1,835.8,90.6z"/>
	<path fill="#FFFFFF" d="M839.7,88.5c0-2.7,2-4.6,4.7-4.6c1.9,0,3,0.8,3.6,1.6l-1.8,1.7c-0.3-0.5-0.9-0.8-1.6-0.8
		c-1.2,0-2,0.8-2,2.1s0.9,2.1,2,2.1c0.7,0,1.3-0.4,1.6-0.8l1.8,1.7c-0.5,0.8-1.7,1.6-3.6,1.6C841.7,93.1,839.7,91.2,839.7,88.5z"/>
	<path fill="#FFFFFF" d="M848.7,81.8c0-0.9,0.7-1.6,1.6-1.6s1.6,0.7,1.6,1.6c0,0.9-0.7,1.6-1.6,1.6S848.7,82.7,848.7,81.8z
		 M848.9,92.9v-8.7h2.8v8.7H848.9z"/>
	<path fill="#FFFFFF" d="M853.9,92.9v-6.3h-1.4v-2.4h1.4V84c0-2.2,1.4-3.3,3.1-3.3c0.8,0,1.4,0.1,1.9,0.3l-0.5,2.1
		c-0.2-0.1-0.4-0.2-0.7-0.2c-0.5,0-0.9,0.3-0.9,1.1v0.2h1.8v2.4h-1.8v6.3H853.9z M859.4,81.8c0-0.9,0.7-1.6,1.6-1.6
		c0.9,0,1.6,0.7,1.6,1.6c0,0.9-0.7,1.6-1.6,1.6C860.1,83.4,859.4,82.7,859.4,81.8z M859.6,92.9v-8.7h2.8v8.7H859.6z"/>
	<path fill="#FFFFFF" d="M863.5,88.5c0-2.7,2-4.6,4.7-4.6c1.9,0,3,0.8,3.6,1.6l-1.8,1.7c-0.3-0.5-0.9-0.8-1.6-0.8
		c-1.2,0-2,0.8-2,2.1s0.9,2.1,2,2.1c0.7,0,1.3-0.4,1.6-0.8l1.8,1.7c-0.5,0.8-1.7,1.6-3.6,1.6C865.5,93.1,863.5,91.2,863.5,88.5z"/>
	<path fill="#FFFFFF" d="M877.8,92.9V92c-0.5,0.6-1.6,1.1-2.7,1.1c-1.3,0-3-0.9-3-2.9c0-2.1,1.7-2.8,3-2.8c1.2,0,2.2,0.4,2.7,1v-0.9
		c0-0.8-0.6-1.3-1.8-1.3c-0.9,0-1.7,0.3-2.4,0.9l-1-1.9c1.1-1,2.6-1.4,3.9-1.4c2.1,0,4.1,0.8,4.1,3.5v5.4H877.8z M877.8,90.6v-0.8
		c-0.3-0.4-0.9-0.6-1.5-0.6c-0.7,0-1.4,0.3-1.4,1c0,0.7,0.7,1,1.4,1C876.9,91.3,877.5,91.1,877.8,90.6z"/>
	<path fill="#FFFFFF" d="M884.4,95.8l0.5-1c0.5,0.3,1,0.5,1.5,0.5c0.4,0,0.8-0.2,0.8-0.5c0-0.3-0.2-0.4-0.4-0.4
		c-0.2,0-0.4,0.1-0.5,0.2l-0.9-0.5l0.4-1c-2.4-0.3-4.1-2.1-4.1-4.5c0-2.7,2-4.6,4.7-4.6c1.9,0,3,0.8,3.6,1.6l-1.8,1.7
		c-0.3-0.5-0.9-0.8-1.6-0.8c-1.2,0-2,0.8-2,2.1s0.9,2.1,2,2.1c0.7,0,1.3-0.4,1.6-0.8l1.8,1.7c-0.5,0.7-1.4,1.4-3,1.6l-0.3,0.7
		c0.2-0.1,0.4-0.2,0.6-0.2c0.7,0,1.2,0.5,1.2,1.3c0,1-0.9,1.6-2.1,1.6C885.6,96.4,884.8,96.1,884.4,95.8z"/>
	<path fill="#FFFFFF" d="M896,92.9V92c-0.5,0.6-1.6,1.1-2.7,1.1c-1.3,0-3-0.9-3-2.9c0-2.1,1.7-2.8,3-2.8c1.2,0,2.2,0.4,2.7,1v-0.9
		c0-0.8-0.6-1.3-1.8-1.3c-0.9,0-1.7,0.3-2.4,0.9l-1-1.9c1.1-1,2.6-1.4,3.9-1.4c2.1,0,4.1,0.8,4.1,3.5v5.4H896z M893.7,81.9
		c-0.3,0-0.5,0.3-0.5,0.9h-1.4c0-1.6,0.7-2.4,2-2.4c1.2,0,1.5,1,2,1c0.3,0,0.5-0.3,0.5-0.9h1.4c0,1.6-0.7,2.4-2,2.4
		C894.6,82.9,894.3,81.9,893.7,81.9z M896,90.6v-0.8c-0.3-0.4-0.9-0.6-1.5-0.6c-0.7,0-1.4,0.3-1.4,1c0,0.7,0.7,1,1.4,1
		C895,91.3,895.7,91.1,896,90.6z"/>
	<path fill="#FFFFFF" d="M899.9,88.5c0-2.4,1.8-4.6,4.7-4.6c3,0,4.8,2.1,4.8,4.6c0,2.4-1.8,4.6-4.8,4.6
		C901.6,93.1,899.9,91,899.9,88.5z M906.5,88.5c0-1.2-0.7-2.1-1.9-2.1c-1.2,0-1.9,1-1.9,2.1c0,1.2,0.7,2.1,1.9,2.1
		C905.8,90.6,906.5,89.7,906.5,88.5z"/>
	<path fill="#FFFFFF" d="M806.5,108.5c0-3.7,2.8-6.2,6.5-6.2c2.9,0,4.5,1.6,5.2,3.2l-2.7,1.3c-0.4-1-1.4-1.7-2.6-1.7
		c-2,0-3.3,1.5-3.3,3.5c0,2,1.4,3.5,3.3,3.5c1.2,0,2.2-0.8,2.6-1.7l2.7,1.3c-0.8,1.5-2.3,3.2-5.2,3.2
		C809.3,114.7,806.5,112.2,806.5,108.5z"/>
	<path fill="#FFFFFF" d="M818.5,110.1c0-2.4,1.8-4.6,4.7-4.6c3,0,4.8,2.1,4.8,4.6c0,2.4-1.8,4.6-4.8,4.6
		C820.3,114.7,818.5,112.6,818.5,110.1z M825.2,110.1c0-1.2-0.7-2.1-1.9-2.1c-1.2,0-1.9,1-1.9,2.1c0,1.2,0.7,2.1,1.9,2.1
		C824.5,112.2,825.2,111.3,825.2,110.1z M823.5,104.5h-1.9l2.3-2.6h2.4L823.5,104.5z"/>
	<path fill="#FFFFFF" d="M829.1,114.5v-8.7h2.8v1.1c0.6-0.7,1.7-1.3,2.7-1.3v2.7c-0.2-0.1-0.4-0.1-0.7-0.1c-0.7,0-1.7,0.3-2,0.8v5.5
		H829.1z"/>
	<path fill="#FFFFFF" d="M841.4,114.5v-5c0-1.1-0.6-1.4-1.4-1.4c-0.8,0-1.4,0.5-1.7,0.8v5.6h-2.8v-8.7h2.8v1.1
		c0.5-0.6,1.5-1.3,3-1.3c2,0,2.9,1.2,2.9,2.8v6.2H841.4z"/>
	<path fill="#FFFFFF" d="M845.3,110.1c0-2.5,1.9-4.6,4.6-4.6c2.6,0,4.4,1.9,4.4,4.8v0.6h-6.2c0.2,0.8,0.9,1.4,2.2,1.4
		c0.6,0,1.6-0.3,2.1-0.7l1.2,1.8c-0.9,0.8-2.3,1.2-3.6,1.2C847.3,114.7,845.3,112.9,845.3,110.1z M849.9,107.8
		c-1.2,0-1.7,0.7-1.8,1.4h3.6C851.6,108.5,851.1,107.8,849.9,107.8z"/>
	<path fill="#FFFFFF" d="M860.5,114.5v-0.9c-0.5,0.6-1.6,1.1-2.7,1.1c-1.3,0-3-0.9-3-2.9c0-2.1,1.7-2.8,3-2.8c1.2,0,2.2,0.4,2.7,1
		v-0.9c0-0.8-0.6-1.3-1.8-1.3c-0.9,0-1.7,0.3-2.4,0.9l-1-1.9c1.1-1,2.6-1.4,3.9-1.4c2.1,0,4.1,0.8,4.1,3.5v5.4H860.5z M860.5,112.2
		v-0.8c-0.3-0.4-0.9-0.6-1.5-0.6c-0.7,0-1.4,0.3-1.4,1c0,0.7,0.7,1,1.4,1C859.5,112.9,860.2,112.7,860.5,112.2z"/>
</g>
<polygon fill="#2C2136" stroke="#FFFFFF" stroke-width="2" stroke-miterlimit="10" points="795.5,65.5 768,38 768,0 576,0 576,137 
	768,137 768,93 "/>
<polygon fill="#3C2A4F" stroke="#FFFFFF" stroke-width="2" stroke-miterlimit="10" points="603.5,65.5 576,38 576,0 384,0 384,137 
	576,137 576,93 "/>
<g>
	<path fill="#FFFFFF" d="M630.4,49.7V29h-7.5v-6h21.8v6h-7.4v20.7H630.4z"/>
	<path fill="#FFFFFF" d="M653.1,49.7V29h-7.5v-6h21.8v6H660v20.7H653.1z"/>
	<path fill="#FFFFFF" d="M625.8,92.9v-9.3h-3.4v-2.7h9.8v2.7h-3.3v9.3H625.8z"/>
	<path fill="#FFFFFF" d="M633.3,92.9v-8.7h2.8v1.1c0.6-0.7,1.7-1.3,2.7-1.3v2.7c-0.2-0.1-0.4-0.1-0.7-0.1c-0.7,0-1.7,0.3-2,0.8v5.5
		H633.3z"/>
	<path fill="#FFFFFF" d="M639.4,81.8c0-0.9,0.7-1.6,1.6-1.6s1.6,0.7,1.6,1.6c0,0.9-0.7,1.6-1.6,1.6S639.4,82.7,639.4,81.8z
		 M639.6,92.9v-8.7h2.8v8.7H639.6z"/>
	<path fill="#FFFFFF" d="M643.5,88.5c0-2.9,1.6-4.6,3.8-4.6c1,0,1.9,0.4,2.6,1.2v-1h2.8v12h-2.8v-4.3c-0.7,0.9-1.6,1.2-2.6,1.2
		C645.1,93.1,643.5,91.5,643.5,88.5z M649.9,89.9v-2.6c-0.3-0.5-1.1-0.8-1.6-0.8c-1.1,0-1.9,0.8-1.9,2.1c0,1.3,0.8,2.1,1.9,2.1
		C648.8,90.6,649.6,90.3,649.9,89.9z"/>
	<path fill="#FFFFFF" d="M660.2,92.9v-1c-0.5,0.6-1.5,1.3-3,1.3c-2,0-2.9-1.1-2.9-2.7v-6.2h2.8v5c0,1.1,0.5,1.4,1.4,1.4
		c0.8,0,1.3-0.4,1.7-0.8v-5.6h2.8v8.7H660.2z"/>
	<path fill="#FFFFFF" d="M664.4,81.8c0-0.9,0.7-1.6,1.6-1.6s1.6,0.7,1.6,1.6c0,0.9-0.7,1.6-1.6,1.6S664.4,82.7,664.4,81.8z
		 M664.6,92.9v-8.7h2.8v8.7H664.6z"/>
	<path fill="#FFFFFF" d="M674.2,92.9V92c-0.5,0.6-1.6,1.1-2.7,1.1c-1.3,0-3-0.9-3-2.9c0-2.1,1.7-2.8,3-2.8c1.2,0,2.2,0.4,2.7,1v-0.9
		c0-0.8-0.6-1.3-1.8-1.3c-0.9,0-1.7,0.3-2.4,0.9l-1-1.9c1.1-1,2.6-1.4,3.9-1.4c2.1,0,4.1,0.8,4.1,3.5v5.4H674.2z M674.2,90.6v-0.8
		c-0.3-0.4-0.9-0.6-1.5-0.6c-0.7,0-1.4,0.3-1.4,1c0,0.7,0.7,1,1.4,1C673.2,91.3,673.9,91.1,674.2,90.6z"/>
	<path fill="#FFFFFF" d="M677.9,91.7l1.2-2c0.6,0.6,2,1.2,3.1,1.2c0.8,0,1.2-0.2,1.2-0.6c0-1.1-5.1,0-5.1-3.5c0-1.5,1.3-2.9,3.7-2.9
		c1.5,0,2.7,0.5,3.6,1.2l-1.1,2c-0.5-0.5-1.5-1-2.6-1c-0.6,0-1.1,0.3-1.1,0.6c0,1,5,0,5,3.5c0,1.7-1.5,2.8-3.9,2.8
		C680.4,93.1,678.8,92.6,677.9,91.7z"/>
	<path fill="#FFFFFF" d="M686.4,88.5c0-2.5,1.9-4.6,4.6-4.6c2.6,0,4.4,1.9,4.4,4.8v0.6h-6.2c0.2,0.8,0.9,1.4,2.2,1.4
		c0.6,0,1.6-0.3,2.1-0.7l1.2,1.8c-0.9,0.8-2.3,1.2-3.6,1.2C688.4,93.1,686.4,91.3,686.4,88.5z M691,86.2c-1.2,0-1.7,0.7-1.8,1.4h3.6
		C692.7,86.9,692.3,86.2,691,86.2z"/>
	<path fill="#FFFFFF" d="M625.8,114.5v-9.3h-3.4v-2.7h9.8v2.7h-3.3v9.3H625.8z"/>
	<path fill="#FFFFFF" d="M633.3,114.5v-8.7h2.8v1.1c0.6-0.7,1.7-1.3,2.7-1.3v2.7c-0.2-0.1-0.4-0.1-0.7-0.1c-0.7,0-1.7,0.3-2,0.8v5.5
		H633.3z"/>
	<path fill="#FFFFFF" d="M644.8,114.5v-0.9c-0.5,0.6-1.6,1.1-2.7,1.1c-1.3,0-3-0.9-3-2.9c0-2.1,1.7-2.8,3-2.8c1.2,0,2.2,0.4,2.7,1
		v-0.9c0-0.8-0.6-1.3-1.8-1.3c-0.9,0-1.7,0.3-2.4,0.9l-1-1.9c1.1-1,2.6-1.4,3.9-1.4c2.1,0,4.1,0.8,4.1,3.5v5.4H644.8z M644.8,112.2
		v-0.8c-0.3-0.4-0.9-0.6-1.5-0.6c-0.7,0-1.4,0.3-1.4,1c0,0.7,0.7,1,1.4,1C643.8,112.9,644.5,112.7,644.8,112.2z"/>
	<path fill="#FFFFFF" d="M648.6,110.1c0-2.7,2-4.6,4.7-4.6c1.9,0,3,0.8,3.6,1.6l-1.8,1.7c-0.3-0.5-0.9-0.8-1.6-0.8
		c-1.2,0-2,0.8-2,2.1s0.9,2.1,2,2.1c0.7,0,1.3-0.4,1.6-0.8l1.8,1.7c-0.5,0.8-1.7,1.6-3.6,1.6C650.7,114.7,648.6,112.8,648.6,110.1z"
		/>
	<path fill="#FFFFFF" d="M657.3,110.1c0-2.4,1.8-4.6,4.7-4.6c3,0,4.8,2.1,4.8,4.6c0,2.4-1.8,4.6-4.8,4.6
		C659,114.7,657.3,112.6,657.3,110.1z M663.9,110.1c0-1.2-0.7-2.1-1.9-2.1c-1.2,0-1.9,1-1.9,2.1c0,1.2,0.7,2.1,1.9,2.1
		C663.2,112.2,663.9,111.3,663.9,110.1z"/>
	<path fill="#FFFFFF" d="M678.8,114.5v-5.3c0-0.7-0.3-1.2-1.2-1.2c-0.8,0-1.3,0.5-1.6,0.8v5.6h-2.8v-5.3c0-0.7-0.3-1.2-1.1-1.2
		c-0.8,0-1.3,0.5-1.6,0.8v5.6h-2.8v-8.7h2.8v1.1c0.4-0.5,1.5-1.3,2.9-1.3c1.3,0,2.1,0.5,2.5,1.5c0.5-0.8,1.6-1.5,3-1.5
		c1.6,0,2.6,0.8,2.6,2.6v6.3H678.8z"/>
	<path fill="#FFFFFF" d="M688.4,114.5v-0.9c-0.5,0.6-1.6,1.1-2.7,1.1c-1.3,0-3-0.9-3-2.9c0-2.1,1.7-2.8,3-2.8c1.2,0,2.2,0.4,2.7,1
		v-0.9c0-0.8-0.6-1.3-1.8-1.3c-0.9,0-1.7,0.3-2.4,0.9l-1-1.9c1.1-1,2.6-1.4,3.9-1.4c2.1,0,4.1,0.8,4.1,3.5v5.4H688.4z M688.4,112.2
		v-0.8c-0.3-0.4-0.9-0.6-1.5-0.6c-0.7,0-1.4,0.3-1.4,1c0,0.7,0.7,1,1.4,1C687.4,112.9,688.1,112.7,688.4,112.2z"/>
	<path fill="#FFFFFF" d="M693.4,112.1v-4h-1.4v-2.4h1.4v-2.4h2.8v2.4h1.8v2.4h-1.8v3.2c0,0.5,0.3,0.9,0.8,0.9c0.3,0,0.6-0.1,0.7-0.2
		l0.5,2.1c-0.3,0.3-1,0.6-2.1,0.6C694.3,114.7,693.4,113.8,693.4,112.1z"/>
	<path fill="#FFFFFF" d="M698.4,110.1c0-2.4,1.8-4.6,4.7-4.6c3,0,4.8,2.1,4.8,4.6c0,2.4-1.8,4.6-4.8,4.6
		C700.1,114.7,698.4,112.6,698.4,110.1z M705,110.1c0-1.2-0.7-2.1-1.9-2.1c-1.2,0-1.9,1-1.9,2.1c0,1.2,0.7,2.1,1.9,2.1
		C704.3,112.2,705,111.3,705,110.1z"/>
	<path fill="#FFFFFF" d="M708.2,113.3l1.2-2c0.6,0.6,2,1.2,3.1,1.2c0.8,0,1.2-0.2,1.2-0.6c0-1.1-5.1,0-5.1-3.5
		c0-1.5,1.3-2.9,3.7-2.9c1.5,0,2.7,0.5,3.6,1.2l-1.1,2c-0.5-0.5-1.5-1-2.6-1c-0.6,0-1.1,0.3-1.1,0.6c0,1,5,0,5,3.5
		c0,1.7-1.5,2.8-3.9,2.8C710.7,114.7,709.1,114.2,708.2,113.3z"/>
	<path fill="#FFFFFF" d="M722.4,114.5v-0.9c-0.5,0.6-1.6,1.1-2.7,1.1c-1.3,0-3-0.9-3-2.9c0-2.1,1.7-2.8,3-2.8c1.2,0,2.2,0.4,2.7,1
		v-0.9c0-0.8-0.6-1.3-1.8-1.3c-0.9,0-1.7,0.3-2.4,0.9l-1-1.9c1.1-1,2.6-1.4,3.9-1.4c2.1,0,4.1,0.8,4.1,3.5v5.4H722.4z M722.4,112.2
		v-0.8c-0.3-0.4-0.9-0.6-1.5-0.6c-0.7,0-1.4,0.3-1.4,1c0,0.7,0.7,1,1.4,1C721.5,112.9,722.1,112.7,722.4,112.2z"/>
</g>
<polygon fill="#563779" stroke="#FFFFFF" stroke-width="2" stroke-miterlimit="10" points="411.5,65.5 384,38 384,0 192,0 192,137 
	384,137 384,93 "/>
<polygon fill="#653F91" stroke="#FFFFFF" stroke-width="2" stroke-miterlimit="10" points="219.5,65.5 192,38 192,0 0,0 0,137 
	192,137 192,93 "/>
<g>
	<path fill="#FFFFFF" d="M44.4,49.7V29h-7.5v-6h21.8v6h-7.4v20.7H44.4z"/>
	<path fill="#FFFFFF" d="M61.2,49.7V23h19.6v6H68v4.2h12.4v6H68v10.5H61.2z"/>
	<path fill="#FFFFFF" d="M37.1,71.3v-12h3.1v12H37.1z"/>
	<path fill="#FFFFFF" d="M47.8,71.3v-5c0-1.1-0.6-1.4-1.4-1.4c-0.8,0-1.4,0.5-1.7,0.8v5.6h-2.8v-8.7h2.8v1.1c0.5-0.6,1.5-1.3,3-1.3
		c2,0,2.9,1.2,2.9,2.8v6.2H47.8z"/>
	<path fill="#FFFFFF" d="M52.8,71.3V65h-1.4v-2.4h1.4v-0.2c0-2.2,1.4-3.3,3.1-3.3c0.8,0,1.4,0.1,1.9,0.3l-0.5,2.1
		c-0.2-0.1-0.4-0.2-0.7-0.2c-0.5,0-0.9,0.3-0.9,1.1v0.2h1.8V65h-1.8v6.3H52.8z M58.5,71.3v-12h2.8v12H58.5z"/>
	<path fill="#FFFFFF" d="M68.1,71.3v-0.9c-0.5,0.6-1.6,1.1-2.7,1.1c-1.3,0-3-0.9-3-2.9c0-2.1,1.7-2.8,3-2.8c1.2,0,2.2,0.4,2.7,1V66
		c0-0.8-0.6-1.3-1.8-1.3c-0.9,0-1.7,0.3-2.4,0.9l-1-1.9c1.1-1,2.6-1.4,3.9-1.4c2.1,0,4.1,0.8,4.1,3.5v5.4H68.1z M68.1,69v-0.8
		c-0.3-0.4-0.9-0.6-1.5-0.6c-0.7,0-1.4,0.3-1.4,1c0,0.7,0.7,1,1.4,1C67.1,69.7,67.8,69.5,68.1,69z"/>
	<path fill="#FFFFFF" d="M83.5,71.3V66c0-0.7-0.3-1.2-1.2-1.2c-0.8,0-1.3,0.5-1.6,0.8v5.6H78V66c0-0.7-0.3-1.2-1.1-1.2
		c-0.8,0-1.3,0.5-1.6,0.8v5.6h-2.8v-8.7h2.8v1.1c0.4-0.5,1.5-1.3,2.9-1.3c1.3,0,2.1,0.5,2.5,1.5c0.5-0.8,1.6-1.5,3-1.5
		c1.6,0,2.6,0.8,2.6,2.6v6.3H83.5z"/>
	<path fill="#FFFFFF" d="M93,71.3v-0.9c-0.5,0.6-1.6,1.1-2.7,1.1c-1.3,0-3-0.9-3-2.9c0-2.1,1.7-2.8,3-2.8c1.2,0,2.2,0.4,2.7,1V66
		c0-0.8-0.6-1.3-1.8-1.3c-0.9,0-1.7,0.3-2.4,0.9l-1-1.9c1.1-1,2.6-1.4,3.9-1.4c2.1,0,4.1,0.8,4.1,3.5v5.4H93z M93,69v-0.8
		c-0.3-0.4-0.9-0.6-1.5-0.6c-0.7,0-1.4,0.3-1.4,1c0,0.7,0.7,1,1.4,1C92.1,69.7,92.7,69.5,93,69z"/>
	<path fill="#FFFFFF" d="M99.6,74.2l0.5-1c0.5,0.3,1,0.5,1.5,0.5c0.4,0,0.8-0.2,0.8-0.5c0-0.3-0.2-0.4-0.5-0.4
		c-0.2,0-0.4,0.1-0.5,0.2l-0.9-0.5l0.4-1c-2.4-0.3-4.1-2.1-4.1-4.5c0-2.7,2-4.6,4.7-4.6c1.9,0,3,0.8,3.6,1.6l-1.8,1.7
		c-0.3-0.5-0.9-0.8-1.6-0.8c-1.2,0-2,0.8-2,2.1s0.9,2.1,2,2.1c0.7,0,1.3-0.4,1.6-0.8l1.8,1.7c-0.5,0.7-1.4,1.4-3,1.6l-0.3,0.7
		c0.2-0.1,0.4-0.2,0.6-0.2c0.7,0,1.2,0.5,1.2,1.3c0,1-0.9,1.6-2.1,1.6C100.8,74.8,100,74.5,99.6,74.2z"/>
	<path fill="#FFFFFF" d="M111.2,71.3v-0.9c-0.5,0.6-1.6,1.1-2.7,1.1c-1.3,0-3-0.9-3-2.9c0-2.1,1.7-2.8,3-2.8c1.2,0,2.2,0.4,2.7,1V66
		c0-0.8-0.6-1.3-1.8-1.3c-0.9,0-1.7,0.3-2.4,0.9l-1-1.9c1.1-1,2.6-1.4,3.9-1.4c2.1,0,4.1,0.8,4.1,3.5v5.4H111.2z M108.9,60.3
		c-0.3,0-0.5,0.3-0.5,0.9H107c0-1.6,0.7-2.4,2-2.4c1.2,0,1.5,1,2,1c0.3,0,0.5-0.3,0.5-0.9h1.4c0,1.6-0.7,2.4-2,2.4
		C109.8,61.3,109.5,60.3,108.9,60.3z M111.2,69v-0.8c-0.3-0.4-0.9-0.6-1.5-0.6c-0.7,0-1.4,0.3-1.4,1c0,0.7,0.7,1,1.4,1
		C110.3,69.7,110.9,69.5,111.2,69z"/>
	<path fill="#FFFFFF" d="M115.1,66.9c0-2.4,1.8-4.6,4.7-4.6c3,0,4.8,2.1,4.8,4.6c0,2.4-1.8,4.6-4.8,4.6
		C116.8,71.5,115.1,69.4,115.1,66.9z M121.7,66.9c0-1.2-0.7-2.1-1.9-2.1c-1.2,0-1.9,1-1.9,2.1c0,1.2,0.7,2.1,1.9,2.1
		C121,69,121.7,68.1,121.7,66.9z"/>
	<path fill="#FFFFFF" d="M39.8,92.9v-9.3h-3.4v-2.7h9.8v2.7h-3.3v9.3H39.8z"/>
	<path fill="#FFFFFF" d="M47.3,92.9v-8.7H50v1.1c0.6-0.7,1.7-1.3,2.7-1.3v2.7c-0.2-0.1-0.4-0.1-0.7-0.1c-0.7,0-1.7,0.3-2,0.8v5.5
		H47.3z"/>
	<path fill="#FFFFFF" d="M58.8,92.9V92c-0.5,0.6-1.6,1.1-2.7,1.1c-1.3,0-3-0.9-3-2.9c0-2.1,1.7-2.8,3-2.8c1.2,0,2.2,0.4,2.7,1v-0.9
		c0-0.8-0.6-1.3-1.8-1.3c-0.9,0-1.7,0.3-2.4,0.9l-1-1.9c1.1-1,2.6-1.4,3.9-1.4c2.1,0,4.1,0.8,4.1,3.5v5.4H58.8z M58.8,90.6v-0.8
		c-0.3-0.4-0.9-0.6-1.5-0.6c-0.7,0-1.4,0.3-1.4,1c0,0.7,0.7,1,1.4,1C57.8,91.3,58.5,91.1,58.8,90.6z"/>
	<path fill="#FFFFFF" d="M62.6,88.5c0-2.7,2-4.6,4.7-4.6c1.9,0,3,0.8,3.6,1.6l-1.8,1.7c-0.3-0.5-0.9-0.8-1.6-0.8c-1.2,0-2,0.8-2,2.1
		s0.9,2.1,2,2.1c0.7,0,1.3-0.4,1.6-0.8l1.8,1.7c-0.5,0.8-1.7,1.6-3.6,1.6C64.7,93.1,62.6,91.2,62.6,88.5z"/>
	<path fill="#FFFFFF" d="M71.3,88.5c0-2.4,1.8-4.6,4.7-4.6c3,0,4.8,2.1,4.8,4.6c0,2.4-1.8,4.6-4.8,4.6C73,93.1,71.3,91,71.3,88.5z
		 M77.9,88.5c0-1.2-0.7-2.1-1.9-2.1c-1.2,0-1.9,1-1.9,2.1c0,1.2,0.7,2.1,1.9,2.1C77.2,90.6,77.9,89.7,77.9,88.5z"/>
	<path fill="#FFFFFF" d="M92.8,92.9v-5.3c0-0.7-0.3-1.2-1.2-1.2c-0.8,0-1.3,0.5-1.6,0.8v5.6h-2.8v-5.3c0-0.7-0.3-1.2-1.1-1.2
		c-0.8,0-1.3,0.5-1.6,0.8v5.6h-2.8v-8.7h2.8v1.1c0.4-0.5,1.5-1.3,2.9-1.3c1.3,0,2.1,0.5,2.5,1.5c0.5-0.8,1.6-1.5,3-1.5
		c1.6,0,2.6,0.8,2.6,2.6v6.3H92.8z"/>
	<path fill="#FFFFFF" d="M102.4,92.9V92c-0.5,0.6-1.6,1.1-2.7,1.1c-1.3,0-3-0.9-3-2.9c0-2.1,1.7-2.8,3-2.8c1.2,0,2.2,0.4,2.7,1v-0.9
		c0-0.8-0.6-1.3-1.8-1.3c-0.9,0-1.7,0.3-2.4,0.9l-1-1.9c1.1-1,2.6-1.4,3.9-1.4c2.1,0,4.1,0.8,4.1,3.5v5.4H102.4z M102.4,90.6v-0.8
		c-0.3-0.4-0.9-0.6-1.5-0.6c-0.7,0-1.4,0.3-1.4,1c0,0.7,0.7,1,1.4,1C101.4,91.3,102.1,91.1,102.4,90.6z"/>
	<path fill="#FFFFFF" d="M107.4,90.5v-4h-1.4v-2.4h1.4v-2.4h2.8v2.4h1.8v2.4h-1.8v3.2c0,0.5,0.3,0.9,0.8,0.9c0.3,0,0.6-0.1,0.7-0.2
		l0.5,2.1c-0.3,0.3-1,0.6-2.1,0.6C108.3,93.1,107.4,92.2,107.4,90.5z"/>
	<path fill="#FFFFFF" d="M112.4,88.5c0-2.4,1.8-4.6,4.7-4.6c3,0,4.8,2.1,4.8,4.6c0,2.4-1.8,4.6-4.8,4.6
		C114.1,93.1,112.4,91,112.4,88.5z M119,88.5c0-1.2-0.7-2.1-1.9-2.1c-1.2,0-1.9,1-1.9,2.1c0,1.2,0.7,2.1,1.9,2.1
		C118.3,90.6,119,89.7,119,88.5z"/>
	<path fill="#FFFFFF" d="M122.2,91.7l1.2-2c0.6,0.6,2,1.2,3.1,1.2c0.8,0,1.2-0.2,1.2-0.6c0-1.1-5.1,0-5.1-3.5c0-1.5,1.3-2.9,3.7-2.9
		c1.5,0,2.7,0.5,3.6,1.2l-1.1,2c-0.5-0.5-1.5-1-2.6-1c-0.6,0-1.1,0.3-1.1,0.6c0,1,5,0,5,3.5c0,1.7-1.5,2.8-3.9,2.8
		C124.7,93.1,123.1,92.6,122.2,91.7z"/>
	<path fill="#FFFFFF" d="M136.4,92.9V92c-0.5,0.6-1.6,1.1-2.7,1.1c-1.3,0-3-0.9-3-2.9c0-2.1,1.7-2.8,3-2.8c1.2,0,2.2,0.4,2.7,1v-0.9
		c0-0.8-0.6-1.3-1.8-1.3c-0.9,0-1.7,0.3-2.4,0.9l-1-1.9c1.1-1,2.6-1.4,3.9-1.4c2.1,0,4.1,0.8,4.1,3.5v5.4H136.4z M136.4,90.6v-0.8
		c-0.3-0.4-0.9-0.6-1.5-0.6c-0.7,0-1.4,0.3-1.4,1c0,0.7,0.7,1,1.4,1C135.5,91.3,136.1,91.1,136.4,90.6z"/>
	<path fill="#FFFFFF" d="M37.1,114.5v-12h8.8v2.7h-5.7v1.9h5.6v2.7h-5.6v4.7H37.1z"/>
	<path fill="#FFFFFF" d="M46.6,110.1c0-2.4,1.8-4.6,4.7-4.6c3,0,4.8,2.1,4.8,4.6c0,2.4-1.8,4.6-4.8,4.6
		C48.3,114.7,46.6,112.6,46.6,110.1z M53.2,110.1c0-1.2-0.7-2.1-1.9-2.1c-1.2,0-1.9,1-1.9,2.1c0,1.2,0.7,2.1,1.9,2.1
		C52.5,112.2,53.2,111.3,53.2,110.1z"/>
	<path fill="#FFFFFF" d="M57.1,114.5v-12h2.8v12H57.1z"/>
	<path fill="#FFFFFF" d="M61.4,103.4c0-0.9,0.7-1.6,1.6-1.6c0.9,0,1.6,0.7,1.6,1.6c0,0.9-0.7,1.6-1.6,1.6
		C62.1,105,61.4,104.3,61.4,103.4z M61.6,114.5v-8.7h2.8v8.7H61.6z"/>
	<path fill="#FFFFFF" d="M65.4,110.1c0-2.7,2-4.6,4.7-4.6c1.9,0,3,0.8,3.6,1.6l-1.8,1.7c-0.3-0.5-0.9-0.8-1.6-0.8
		c-1.2,0-2,0.8-2,2.1s0.9,2.1,2,2.1c0.7,0,1.3-0.4,1.6-0.8l1.8,1.7c-0.5,0.8-1.7,1.6-3.6,1.6C67.4,114.7,65.4,112.8,65.4,110.1z"/>
	<path fill="#FFFFFF" d="M80.5,114.5v-1c-0.5,0.6-1.5,1.3-3,1.3c-2,0-2.9-1.1-2.9-2.7v-6.2h2.8v5c0,1.1,0.5,1.4,1.4,1.4
		c0.8,0,1.3-0.4,1.7-0.8v-5.6h2.8v8.7H80.5z"/>
	<path fill="#FFFFFF" d="M84.9,114.5v-12h2.8v12H84.9z"/>
	<path fill="#FFFFFF" d="M94.5,114.5v-0.9c-0.5,0.6-1.6,1.1-2.7,1.1c-1.3,0-3-0.9-3-2.9c0-2.1,1.7-2.8,3-2.8c1.2,0,2.2,0.4,2.7,1
		v-0.9c0-0.8-0.6-1.3-1.8-1.3c-0.9,0-1.7,0.3-2.4,0.9l-1-1.9c1.1-1,2.6-1.4,3.9-1.4c2.1,0,4.1,0.8,4.1,3.5v5.4H94.5z M94.5,112.2
		v-0.8c-0.3-0.4-0.9-0.6-1.5-0.6c-0.7,0-1.4,0.3-1.4,1c0,0.7,0.7,1,1.4,1C93.5,112.9,94.2,112.7,94.5,112.2z"/>
	<path fill="#FFFFFF" d="M98.9,114.5v-8.7h2.8v1.1c0.6-0.7,1.7-1.3,2.7-1.3v2.7c-0.2-0.1-0.4-0.1-0.7-0.1c-0.7,0-1.7,0.3-2,0.8v5.5
		H98.9z"/>
</g>
<g>
	<path fill="#FFFFFF" d="M246.4,49.7V29h-7.5v-6h21.8v6h-7.4v20.7H246.4z"/>
	<path fill="#FFFFFF" d="M263.2,49.7V23h6.9v26.7H263.2z"/>
	<path fill="#FFFFFF" d="M239.1,71.3v-12h3.1v12H239.1z"/>
	<path fill="#FFFFFF" d="M249.8,71.3v-5c0-1.1-0.6-1.4-1.4-1.4c-0.8,0-1.4,0.5-1.7,0.8v5.6h-2.8v-8.7h2.8v1.1c0.5-0.6,1.5-1.3,3-1.3
		c2,0,2.9,1.2,2.9,2.8v6.2H249.8z"/>
	<path fill="#FFFFFF" d="M254.8,71.3V65h-1.4v-2.4h1.4v-0.2c0-2.2,1.4-3.3,3.1-3.3c0.8,0,1.4,0.1,1.9,0.3l-0.5,2.1
		c-0.2-0.1-0.4-0.2-0.7-0.2c-0.5,0-0.9,0.3-0.9,1.1v0.2h1.8V65h-1.8v6.3H254.8z M260.5,71.3v-12h2.8v12H260.5z"/>
	<path fill="#FFFFFF" d="M270.1,71.3v-0.9c-0.5,0.6-1.6,1.1-2.7,1.1c-1.3,0-3-0.9-3-2.9c0-2.1,1.7-2.8,3-2.8c1.2,0,2.2,0.4,2.7,1V66
		c0-0.8-0.6-1.3-1.8-1.3c-0.9,0-1.7,0.3-2.4,0.9l-1-1.9c1.1-1,2.6-1.4,3.9-1.4c2.1,0,4.1,0.8,4.1,3.5v5.4H270.1z M270.1,69v-0.8
		c-0.3-0.4-0.9-0.6-1.5-0.6c-0.7,0-1.4,0.3-1.4,1c0,0.7,0.7,1,1.4,1C269.1,69.7,269.8,69.5,270.1,69z"/>
	<path fill="#FFFFFF" d="M285.5,71.3V66c0-0.7-0.3-1.2-1.2-1.2c-0.8,0-1.3,0.5-1.6,0.8v5.6H280V66c0-0.7-0.3-1.2-1.1-1.2
		c-0.8,0-1.3,0.5-1.6,0.8v5.6h-2.8v-8.7h2.8v1.1c0.4-0.5,1.5-1.3,2.9-1.3c1.3,0,2.1,0.5,2.5,1.5c0.5-0.8,1.6-1.5,3-1.5
		c1.6,0,2.6,0.8,2.6,2.6v6.3H285.5z"/>
	<path fill="#FFFFFF" d="M295,71.3v-0.9c-0.5,0.6-1.6,1.1-2.7,1.1c-1.3,0-3-0.9-3-2.9c0-2.1,1.7-2.8,3-2.8c1.2,0,2.2,0.4,2.7,1V66
		c0-0.8-0.6-1.3-1.8-1.3c-0.9,0-1.7,0.3-2.4,0.9l-1-1.9c1.1-1,2.6-1.4,3.9-1.4c2.1,0,4.1,0.8,4.1,3.5v5.4H295z M295,69v-0.8
		c-0.3-0.4-0.9-0.6-1.5-0.6c-0.7,0-1.4,0.3-1.4,1c0,0.7,0.7,1,1.4,1C294.1,69.7,294.7,69.5,295,69z"/>
	<path fill="#FFFFFF" d="M301.6,74.2l0.5-1c0.5,0.3,1,0.5,1.5,0.5c0.4,0,0.8-0.2,0.8-0.5c0-0.3-0.2-0.4-0.5-0.4
		c-0.2,0-0.4,0.1-0.5,0.2l-0.9-0.5l0.4-1c-2.4-0.3-4.1-2.1-4.1-4.5c0-2.7,2-4.6,4.7-4.6c1.9,0,3,0.8,3.6,1.6l-1.8,1.7
		c-0.3-0.5-0.9-0.8-1.6-0.8c-1.2,0-2,0.8-2,2.1s0.9,2.1,2,2.1c0.7,0,1.3-0.4,1.6-0.8l1.8,1.7c-0.5,0.7-1.4,1.4-3,1.6l-0.3,0.7
		c0.2-0.1,0.4-0.2,0.6-0.2c0.7,0,1.2,0.5,1.2,1.3c0,1-0.9,1.6-2.1,1.6C302.8,74.8,302,74.5,301.6,74.2z"/>
	<path fill="#FFFFFF" d="M313.2,71.3v-0.9c-0.5,0.6-1.6,1.1-2.7,1.1c-1.3,0-3-0.9-3-2.9c0-2.1,1.7-2.8,3-2.8c1.2,0,2.2,0.4,2.7,1V66
		c0-0.8-0.6-1.3-1.8-1.3c-0.9,0-1.7,0.3-2.4,0.9l-1-1.9c1.1-1,2.6-1.4,3.9-1.4c2.1,0,4.1,0.8,4.1,3.5v5.4H313.2z M310.9,60.3
		c-0.3,0-0.5,0.3-0.5,0.9H309c0-1.6,0.7-2.4,2-2.4c1.2,0,1.5,1,2,1c0.3,0,0.5-0.3,0.5-0.9h1.4c0,1.6-0.7,2.4-2,2.4
		C311.8,61.3,311.5,60.3,310.9,60.3z M313.2,69v-0.8c-0.3-0.4-0.9-0.6-1.5-0.6c-0.7,0-1.4,0.3-1.4,1c0,0.7,0.7,1,1.4,1
		C312.3,69.7,312.9,69.5,313.2,69z"/>
	<path fill="#FFFFFF" d="M317.1,66.9c0-2.4,1.8-4.6,4.7-4.6c3,0,4.8,2.1,4.8,4.6c0,2.4-1.8,4.6-4.8,4.6
		C318.8,71.5,317.1,69.4,317.1,66.9z M323.7,66.9c0-1.2-0.7-2.1-1.9-2.1c-1.2,0-1.9,1-1.9,2.1c0,1.2,0.7,2.1,1.9,2.1
		C323,69,323.7,68.1,323.7,66.9z"/>
	<path fill="#FFFFFF" d="M241.8,92.9v-9.3h-3.4v-2.7h9.8v2.7h-3.3v9.3H241.8z"/>
	<path fill="#FFFFFF" d="M249.3,92.9v-8.7h2.8v1.1c0.6-0.7,1.7-1.3,2.7-1.3v2.7c-0.2-0.1-0.4-0.1-0.7-0.1c-0.7,0-1.7,0.3-2,0.8v5.5
		H249.3z"/>
	<path fill="#FFFFFF" d="M260.8,92.9V92c-0.5,0.6-1.6,1.1-2.7,1.1c-1.3,0-3-0.9-3-2.9c0-2.1,1.7-2.8,3-2.8c1.2,0,2.2,0.4,2.7,1v-0.9
		c0-0.8-0.6-1.3-1.8-1.3c-0.9,0-1.7,0.3-2.4,0.9l-1-1.9c1.1-1,2.6-1.4,3.9-1.4c2.1,0,4.1,0.8,4.1,3.5v5.4H260.8z M260.8,90.6v-0.8
		c-0.3-0.4-0.9-0.6-1.5-0.6c-0.7,0-1.4,0.3-1.4,1c0,0.7,0.7,1,1.4,1C259.8,91.3,260.5,91.1,260.8,90.6z"/>
	<path fill="#FFFFFF" d="M264.6,88.5c0-2.7,2-4.6,4.7-4.6c1.9,0,3,0.8,3.6,1.6l-1.8,1.7c-0.3-0.5-0.9-0.8-1.6-0.8
		c-1.2,0-2,0.8-2,2.1s0.9,2.1,2,2.1c0.7,0,1.3-0.4,1.6-0.8l1.8,1.7c-0.5,0.8-1.7,1.6-3.6,1.6C266.7,93.1,264.6,91.2,264.6,88.5z"/>
	<path fill="#FFFFFF" d="M273.3,88.5c0-2.4,1.8-4.6,4.7-4.6c3,0,4.8,2.1,4.8,4.6c0,2.4-1.8,4.6-4.8,4.6
		C275,93.1,273.3,91,273.3,88.5z M279.9,88.5c0-1.2-0.7-2.1-1.9-2.1c-1.2,0-1.9,1-1.9,2.1c0,1.2,0.7,2.1,1.9,2.1
		C279.2,90.6,279.9,89.7,279.9,88.5z"/>
	<path fill="#FFFFFF" d="M294.8,92.9v-5.3c0-0.7-0.3-1.2-1.2-1.2c-0.8,0-1.3,0.5-1.6,0.8v5.6h-2.8v-5.3c0-0.7-0.3-1.2-1.1-1.2
		c-0.8,0-1.3,0.5-1.6,0.8v5.6h-2.8v-8.7h2.8v1.1c0.4-0.5,1.5-1.3,2.9-1.3c1.3,0,2.1,0.5,2.5,1.5c0.5-0.8,1.6-1.5,3-1.5
		c1.6,0,2.6,0.8,2.6,2.6v6.3H294.8z"/>
	<path fill="#FFFFFF" d="M304.4,92.9V92c-0.5,0.6-1.6,1.1-2.7,1.1c-1.3,0-3-0.9-3-2.9c0-2.1,1.7-2.8,3-2.8c1.2,0,2.2,0.4,2.7,1v-0.9
		c0-0.8-0.6-1.3-1.8-1.3c-0.9,0-1.7,0.3-2.4,0.9l-1-1.9c1.1-1,2.6-1.4,3.9-1.4c2.1,0,4.1,0.8,4.1,3.5v5.4H304.4z M304.4,90.6v-0.8
		c-0.3-0.4-0.9-0.6-1.5-0.6c-0.7,0-1.4,0.3-1.4,1c0,0.7,0.7,1,1.4,1C303.4,91.3,304.1,91.1,304.4,90.6z"/>
	<path fill="#FFFFFF" d="M309.4,90.5v-4h-1.4v-2.4h1.4v-2.4h2.8v2.4h1.8v2.4h-1.8v3.2c0,0.5,0.3,0.9,0.8,0.9c0.3,0,0.6-0.1,0.7-0.2
		l0.5,2.1c-0.3,0.3-1,0.6-2.1,0.6C310.3,93.1,309.4,92.2,309.4,90.5z"/>
	<path fill="#FFFFFF" d="M314.4,88.5c0-2.4,1.8-4.6,4.7-4.6c3,0,4.8,2.1,4.8,4.6c0,2.4-1.8,4.6-4.8,4.6
		C316.1,93.1,314.4,91,314.4,88.5z M321,88.5c0-1.2-0.7-2.1-1.9-2.1c-1.2,0-1.9,1-1.9,2.1c0,1.2,0.7,2.1,1.9,2.1
		C320.3,90.6,321,89.7,321,88.5z"/>
	<path fill="#FFFFFF" d="M324.2,91.7l1.2-2c0.6,0.6,2,1.2,3.1,1.2c0.8,0,1.2-0.2,1.2-0.6c0-1.1-5.1,0-5.1-3.5c0-1.5,1.3-2.9,3.7-2.9
		c1.5,0,2.7,0.5,3.6,1.2l-1.1,2c-0.5-0.5-1.5-1-2.6-1c-0.6,0-1.1,0.3-1.1,0.6c0,1,5,0,5,3.5c0,1.7-1.5,2.8-3.9,2.8
		C326.7,93.1,325.1,92.6,324.2,91.7z"/>
	<path fill="#FFFFFF" d="M338.4,92.9V92c-0.5,0.6-1.6,1.1-2.7,1.1c-1.3,0-3-0.9-3-2.9c0-2.1,1.7-2.8,3-2.8c1.2,0,2.2,0.4,2.7,1v-0.9
		c0-0.8-0.6-1.3-1.8-1.3c-0.9,0-1.7,0.3-2.4,0.9l-1-1.9c1.1-1,2.6-1.4,3.9-1.4c2.1,0,4.1,0.8,4.1,3.5v5.4H338.4z M338.4,90.6v-0.8
		c-0.3-0.4-0.9-0.6-1.5-0.6c-0.7,0-1.4,0.3-1.4,1c0,0.7,0.7,1,1.4,1C337.5,91.3,338.1,91.1,338.4,90.6z"/>
	<path fill="#FFFFFF" d="M239.1,114.5v-12h3.1v12H239.1z"/>
	<path fill="#FFFFFF" d="M249.8,114.5v-5c0-1.1-0.6-1.4-1.4-1.4c-0.8,0-1.4,0.5-1.7,0.8v5.6h-2.8v-8.7h2.8v1.1
		c0.5-0.6,1.5-1.3,3-1.3c2,0,2.9,1.2,2.9,2.8v6.2H249.8z"/>
	<path fill="#FFFFFF" d="M254.8,112.1v-4h-1.4v-2.4h1.4v-2.4h2.8v2.4h1.8v2.4h-1.8v3.2c0,0.5,0.3,0.9,0.8,0.9c0.3,0,0.6-0.1,0.7-0.2
		l0.5,2.1c-0.3,0.3-1,0.6-2.1,0.6C255.7,114.7,254.8,113.8,254.8,112.1z"/>
	<path fill="#FFFFFF" d="M259.8,110.1c0-2.5,1.9-4.6,4.6-4.6c2.6,0,4.4,1.9,4.4,4.8v0.6h-6.2c0.2,0.8,0.9,1.4,2.2,1.4
		c0.6,0,1.6-0.3,2.1-0.7l1.2,1.8c-0.9,0.8-2.3,1.2-3.6,1.2C261.8,114.7,259.8,112.9,259.8,110.1z M264.4,107.8
		c-1.2,0-1.7,0.7-1.8,1.4h3.6C266.1,108.5,265.7,107.8,264.4,107.8z"/>
	<path fill="#FFFFFF" d="M275.7,114.5v-5c0-1.1-0.6-1.4-1.4-1.4c-0.8,0-1.4,0.5-1.7,0.8v5.6h-2.8v-8.7h2.8v1.1
		c0.5-0.6,1.5-1.3,3-1.3c2,0,2.9,1.2,2.9,2.8v6.2H275.7z"/>
	<path fill="#FFFFFF" d="M279.4,113.3l1.2-2c0.6,0.6,2,1.2,3.1,1.2c0.8,0,1.2-0.2,1.2-0.6c0-1.1-5.1,0-5.1-3.5
		c0-1.5,1.3-2.9,3.7-2.9c1.5,0,2.7,0.5,3.6,1.2l-1.1,2c-0.5-0.5-1.5-1-2.6-1c-0.6,0-1.1,0.3-1.1,0.6c0,1,5,0,5,3.5
		c0,1.7-1.5,2.8-3.9,2.8C281.9,114.7,280.3,114.2,279.4,113.3z"/>
	<path fill="#FFFFFF" d="M293.6,114.5v-0.9c-0.5,0.6-1.6,1.1-2.7,1.1c-1.3,0-3-0.9-3-2.9c0-2.1,1.7-2.8,3-2.8c1.2,0,2.2,0.4,2.7,1
		v-0.9c0-0.8-0.6-1.3-1.8-1.3c-0.9,0-1.7,0.3-2.4,0.9l-1-1.9c1.1-1,2.6-1.4,3.9-1.4c2.1,0,4.1,0.8,4.1,3.5v5.4H293.6z M293.6,112.2
		v-0.8c-0.3-0.4-0.9-0.6-1.5-0.6c-0.7,0-1.4,0.3-1.4,1c0,0.7,0.7,1,1.4,1C292.7,112.9,293.4,112.7,293.6,112.2z"/>
</g>
<g>
	<path fill="#FFFFFF" d="M438.4,49.7V29h-7.5v-6h21.8v6h-7.4v20.7H438.4z"/>
	<path fill="#FFFFFF" d="M453.2,45.9l3.6-5.4c1.9,1.9,4.9,3.5,8.6,3.5c2.3,0,3.8-0.8,3.8-2.1c0-3.5-15.1-0.6-15.1-10.9
		c0-4.5,3.8-8.5,10.6-8.5c4.3,0,8,1.3,10.8,3.7l-3.8,5.2c-2.2-1.9-5.2-2.8-7.8-2.8c-2,0-2.9,0.7-2.9,1.8c0,3.3,15.1,0.8,15.1,10.7
		c0,5.4-4,8.9-11.1,8.9C459.7,50.2,455.9,48.4,453.2,45.9z"/>
	<path fill="#FFFFFF" d="M430.5,65.3c0-3.7,2.8-6.2,6.5-6.2c2.9,0,4.5,1.6,5.2,3.2l-2.7,1.3c-0.4-1-1.4-1.7-2.6-1.7
		c-2,0-3.3,1.5-3.3,3.5c0,2,1.4,3.5,3.3,3.5c1.2,0,2.2-0.8,2.6-1.7l2.7,1.3c-0.8,1.5-2.3,3.2-5.2,3.2
		C433.3,71.5,430.5,69,430.5,65.3z"/>
	<path fill="#FFFFFF" d="M442.9,60.2c0-0.9,0.7-1.6,1.6-1.6c0.9,0,1.6,0.7,1.6,1.6s-0.7,1.6-1.6,1.6
		C443.6,61.8,442.9,61.1,442.9,60.2z M443.1,71.3v-8.7h2.8v8.7H443.1z"/>
	<path fill="#FFFFFF" d="M447,66.9c0-2.7,2-4.6,4.7-4.6c1.9,0,3,0.8,3.6,1.6l-1.8,1.7c-0.3-0.5-0.9-0.8-1.6-0.8c-1.2,0-2,0.8-2,2.1
		s0.9,2.1,2,2.1c0.7,0,1.3-0.4,1.6-0.8l1.8,1.7c-0.5,0.8-1.7,1.6-3.6,1.6C449,71.5,447,69.6,447,66.9z"/>
	<path fill="#FFFFFF" d="M461.3,71.3v-0.9c-0.5,0.6-1.6,1.1-2.7,1.1c-1.3,0-3-0.9-3-2.9c0-2.1,1.7-2.8,3-2.8c1.2,0,2.2,0.4,2.7,1V66
		c0-0.8-0.6-1.3-1.8-1.3c-0.9,0-1.7,0.3-2.4,0.9l-1-1.9c1.1-1,2.6-1.4,3.9-1.4c2.1,0,4.1,0.8,4.1,3.5v5.4H461.3z M461.3,69v-0.8
		c-0.3-0.4-0.9-0.6-1.5-0.6c-0.7,0-1.4,0.3-1.4,1c0,0.7,0.7,1,1.4,1C460.4,69.7,461,69.5,461.3,69z"/>
	<path fill="#FFFFFF" d="M466.3,68.9v-4h-1.4v-2.4h1.4v-2.4h2.8v2.4h1.8V65h-1.8v3.2c0,0.5,0.3,0.9,0.8,0.9c0.3,0,0.6-0.1,0.7-0.2
		l0.5,2.1c-0.3,0.3-1,0.6-2.1,0.6C467.3,71.5,466.3,70.6,466.3,68.9z"/>
	<path fill="#FFFFFF" d="M471.9,71.3v-8.7h2.8v1.1c0.6-0.7,1.7-1.3,2.7-1.3V65c-0.2-0.1-0.4-0.1-0.7-0.1c-0.7,0-1.7,0.3-2,0.8v5.5
		H471.9z"/>
	<path fill="#FFFFFF" d="M478,60.2c0-0.9,0.7-1.6,1.6-1.6c0.9,0,1.6,0.7,1.6,1.6s-0.7,1.6-1.6,1.6C478.7,61.8,478,61.1,478,60.2z
		 M478.2,71.3v-8.7h2.8v8.7H478.2z"/>
	<path fill="#FFFFFF" d="M482.3,71.3v-2.1l3.5-4.2h-3.5v-2.4h7.3v2l-3.6,4.3h3.6v2.4H482.3z"/>
	<path fill="#FFFFFF" d="M496.1,71.3v-0.9c-0.5,0.6-1.6,1.1-2.7,1.1c-1.3,0-3-0.9-3-2.9c0-2.1,1.7-2.8,3-2.8c1.2,0,2.2,0.4,2.7,1V66
		c0-0.8-0.6-1.3-1.8-1.3c-0.9,0-1.7,0.3-2.4,0.9l-1-1.9c1.1-1,2.6-1.4,3.9-1.4c2.1,0,4.1,0.8,4.1,3.5v5.4H496.1z M496.1,69v-0.8
		c-0.3-0.4-0.9-0.6-1.5-0.6c-0.7,0-1.4,0.3-1.4,1c0,0.7,0.7,1,1.4,1C495.2,69.7,495.8,69.5,496.1,69z"/>
	<path fill="#FFFFFF" d="M502.8,74.2l0.5-1c0.5,0.3,1,0.5,1.5,0.5c0.4,0,0.8-0.2,0.8-0.5c0-0.3-0.2-0.4-0.5-0.4
		c-0.2,0-0.4,0.1-0.5,0.2l-0.9-0.5l0.4-1c-2.4-0.3-4.1-2.1-4.1-4.5c0-2.7,2-4.6,4.7-4.6c1.9,0,3,0.8,3.6,1.6l-1.8,1.7
		c-0.3-0.5-0.9-0.8-1.6-0.8c-1.2,0-2,0.8-2,2.1s0.9,2.1,2,2.1c0.7,0,1.3-0.4,1.6-0.8l1.8,1.7c-0.5,0.7-1.4,1.4-3,1.6l-0.3,0.7
		c0.2-0.1,0.4-0.2,0.6-0.2c0.7,0,1.2,0.5,1.2,1.3c0,1-0.9,1.6-2.1,1.6C503.9,74.8,503.1,74.5,502.8,74.2z"/>
	<path fill="#FFFFFF" d="M514.3,71.3v-0.9c-0.5,0.6-1.6,1.1-2.7,1.1c-1.3,0-3-0.9-3-2.9c0-2.1,1.7-2.8,3-2.8c1.2,0,2.2,0.4,2.7,1V66
		c0-0.8-0.6-1.3-1.8-1.3c-0.9,0-1.7,0.3-2.4,0.9l-1-1.9c1.1-1,2.6-1.4,3.9-1.4c2.1,0,4.1,0.8,4.1,3.5v5.4H514.3z M512,60.3
		c-0.3,0-0.5,0.3-0.5,0.9h-1.4c0-1.6,0.7-2.4,2-2.4c1.2,0,1.5,1,2,1c0.3,0,0.5-0.3,0.5-0.9h1.4c0,1.6-0.7,2.4-2,2.4
		C512.9,61.3,512.6,60.3,512,60.3z M514.3,69v-0.8c-0.3-0.4-0.9-0.6-1.5-0.6c-0.7,0-1.4,0.3-1.4,1c0,0.7,0.7,1,1.4,1
		C513.4,69.7,514,69.5,514.3,69z"/>
	<path fill="#FFFFFF" d="M518.2,66.9c0-2.4,1.8-4.6,4.7-4.6c3,0,4.8,2.1,4.8,4.6c0,2.4-1.8,4.6-4.8,4.6
		C520,71.5,518.2,69.4,518.2,66.9z M524.8,66.9c0-1.2-0.7-2.1-1.9-2.1c-1.2,0-1.9,1-1.9,2.1c0,1.2,0.7,2.1,1.9,2.1
		C524.1,69,524.8,68.1,524.8,66.9z"/>
	<path fill="#FFFFFF" d="M430.5,86.9c0-3.7,2.8-6.2,6.5-6.2c2.9,0,4.5,1.6,5.2,3.2l-2.7,1.3c-0.4-1-1.4-1.7-2.6-1.7
		c-2,0-3.3,1.5-3.3,3.5c0,2,1.4,3.5,3.3,3.5c1.2,0,2.2-0.8,2.6-1.7l2.7,1.3c-0.8,1.5-2.3,3.2-5.2,3.2
		C433.3,93.1,430.5,90.6,430.5,86.9z"/>
	<path fill="#FFFFFF" d="M442.5,88.5c0-2.4,1.8-4.6,4.7-4.6c3,0,4.8,2.1,4.8,4.6c0,2.4-1.8,4.6-4.8,4.6
		C444.3,93.1,442.5,91,442.5,88.5z M449.2,88.5c0-1.2-0.7-2.1-1.9-2.1c-1.2,0-1.9,1-1.9,2.1c0,1.2,0.7,2.1,1.9,2.1
		C448.5,90.6,449.2,89.7,449.2,88.5z"/>
	<path fill="#FFFFFF" d="M459,92.9v-5c0-1.1-0.6-1.4-1.4-1.4c-0.8,0-1.4,0.5-1.7,0.8v5.6h-2.8v-8.7h2.8v1.1c0.5-0.6,1.5-1.3,3-1.3
		c2,0,2.9,1.2,2.9,2.8v6.2H459z"/>
	<path fill="#FFFFFF" d="M460.5,95.8l0.7-2c0.3,0.3,0.6,0.4,1.1,0.4c0.6,0,1.1-0.4,1.1-1.4v-8.6h2.8v8.6c0,2.1-1,3.6-3.4,3.6
		C461.6,96.4,461.2,96.2,460.5,95.8z M463.2,81.8c0-0.9,0.7-1.6,1.6-1.6c0.9,0,1.6,0.7,1.6,1.6c0,0.9-0.7,1.6-1.6,1.6
		C463.9,83.4,463.2,82.7,463.2,81.8z"/>
	<path fill="#FFFFFF" d="M473.7,92.9v-1c-0.5,0.6-1.5,1.3-3,1.3c-2,0-2.9-1.1-2.9-2.7v-6.2h2.8v5c0,1.1,0.5,1.4,1.4,1.4
		c0.8,0,1.3-0.4,1.7-0.8v-5.6h2.8v8.7H473.7z"/>
	<path fill="#FFFFFF" d="M484,92.9v-5c0-1.1-0.6-1.4-1.4-1.4c-0.8,0-1.4,0.5-1.7,0.8v5.6h-2.8v-8.7h2.8v1.1c0.5-0.6,1.5-1.3,3-1.3
		c2,0,2.9,1.2,2.9,2.8v6.2H484z"/>
	<path fill="#FFFFFF" d="M489,90.5v-4h-1.4v-2.4h1.4v-2.4h2.8v2.4h1.8v2.4h-1.8v3.2c0,0.5,0.3,0.9,0.8,0.9c0.3,0,0.6-0.1,0.7-0.2
		l0.5,2.1c-0.3,0.3-1,0.6-2.1,0.6C490,93.1,489,92.2,489,90.5z"/>
	<path fill="#FFFFFF" d="M494.4,81.8c0-0.9,0.7-1.6,1.6-1.6s1.6,0.7,1.6,1.6c0,0.9-0.7,1.6-1.6,1.6S494.4,82.7,494.4,81.8z
		 M494.6,92.9v-8.7h2.8v8.7H494.6z"/>
	<path fill="#FFFFFF" d="M501.2,92.9l-3.4-8.7h2.9l2,5.5l2-5.5h2.9l-3.4,8.7H501.2z"/>
	<path fill="#FFFFFF" d="M513.2,92.9V92c-0.5,0.6-1.6,1.1-2.7,1.1c-1.3,0-3-0.9-3-2.9c0-2.1,1.7-2.8,3-2.8c1.2,0,2.2,0.4,2.7,1v-0.9
		c0-0.8-0.6-1.3-1.8-1.3c-0.9,0-1.7,0.3-2.4,0.9l-1-1.9c1.1-1,2.6-1.4,3.9-1.4c2.1,0,4.1,0.8,4.1,3.5v5.4H513.2z M513.2,90.6v-0.8
		c-0.3-0.4-0.9-0.6-1.5-0.6c-0.7,0-1.4,0.3-1.4,1c0,0.7,0.7,1,1.4,1C512.3,91.3,512.9,91.1,513.2,90.6z"/>
	<path fill="#FFFFFF" d="M517.6,92.9v-12h2.8v12H517.6z"/>
	<path fill="#FFFFFF" d="M433.8,114.5v-9.3h-3.4v-2.7h9.8v2.7h-3.3v9.3H433.8z"/>
	<path fill="#FFFFFF" d="M441.3,114.5v-8.7h2.8v1.1c0.6-0.7,1.7-1.3,2.7-1.3v2.7c-0.2-0.1-0.4-0.1-0.7-0.1c-0.7,0-1.7,0.3-2,0.8v5.5
		H441.3z"/>
	<path fill="#FFFFFF" d="M452.8,114.5v-0.9c-0.5,0.6-1.6,1.1-2.7,1.1c-1.3,0-3-0.9-3-2.9c0-2.1,1.7-2.8,3-2.8c1.2,0,2.2,0.4,2.7,1
		v-0.9c0-0.8-0.6-1.3-1.8-1.3c-0.9,0-1.7,0.3-2.4,0.9l-1-1.9c1.1-1,2.6-1.4,3.9-1.4c2.1,0,4.1,0.8,4.1,3.5v5.4H452.8z M452.8,112.2
		v-0.8c-0.3-0.4-0.9-0.6-1.5-0.6c-0.7,0-1.4,0.3-1.4,1c0,0.7,0.7,1,1.4,1C451.8,112.9,452.5,112.7,452.8,112.2z"/>
	<path fill="#FFFFFF" d="M456.6,110.1c0-2.7,2-4.6,4.7-4.6c1.9,0,3,0.8,3.6,1.6l-1.8,1.7c-0.3-0.5-0.9-0.8-1.6-0.8
		c-1.2,0-2,0.8-2,2.1s0.9,2.1,2,2.1c0.7,0,1.3-0.4,1.6-0.8l1.8,1.7c-0.5,0.8-1.7,1.6-3.6,1.6C458.7,114.7,456.6,112.8,456.6,110.1z"
		/>
	<path fill="#FFFFFF" d="M465.3,110.1c0-2.4,1.8-4.6,4.7-4.6c3,0,4.8,2.1,4.8,4.6c0,2.4-1.8,4.6-4.8,4.6
		C467,114.7,465.3,112.6,465.3,110.1z M471.9,110.1c0-1.2-0.7-2.1-1.9-2.1c-1.2,0-1.9,1-1.9,2.1c0,1.2,0.7,2.1,1.9,2.1
		C471.2,112.2,471.9,111.3,471.9,110.1z"/>
	<path fill="#FFFFFF" d="M486.8,114.5v-5.3c0-0.7-0.3-1.2-1.2-1.2c-0.8,0-1.3,0.5-1.6,0.8v5.6h-2.8v-5.3c0-0.7-0.3-1.2-1.1-1.2
		c-0.8,0-1.3,0.5-1.6,0.8v5.6h-2.8v-8.7h2.8v1.1c0.4-0.5,1.5-1.3,2.9-1.3c1.3,0,2.1,0.5,2.5,1.5c0.5-0.8,1.6-1.5,3-1.5
		c1.6,0,2.6,0.8,2.6,2.6v6.3H486.8z"/>
	<path fill="#FFFFFF" d="M496.4,114.5v-0.9c-0.5,0.6-1.6,1.1-2.7,1.1c-1.3,0-3-0.9-3-2.9c0-2.1,1.7-2.8,3-2.8c1.2,0,2.2,0.4,2.7,1
		v-0.9c0-0.8-0.6-1.3-1.8-1.3c-0.9,0-1.7,0.3-2.4,0.9l-1-1.9c1.1-1,2.6-1.4,3.9-1.4c2.1,0,4.1,0.8,4.1,3.5v5.4H496.4z M496.4,112.2
		v-0.8c-0.3-0.4-0.9-0.6-1.5-0.6c-0.7,0-1.4,0.3-1.4,1c0,0.7,0.7,1,1.4,1C495.4,112.9,496.1,112.7,496.4,112.2z"/>
	<path fill="#FFFFFF" d="M501.4,112.1v-4h-1.4v-2.4h1.4v-2.4h2.8v2.4h1.8v2.4h-1.8v3.2c0,0.5,0.3,0.9,0.8,0.9c0.3,0,0.6-0.1,0.7-0.2
		l0.5,2.1c-0.3,0.3-1,0.6-2.1,0.6C502.3,114.7,501.4,113.8,501.4,112.1z"/>
	<path fill="#FFFFFF" d="M506.4,110.1c0-2.4,1.8-4.6,4.7-4.6c3,0,4.8,2.1,4.8,4.6c0,2.4-1.8,4.6-4.8,4.6
		C508.1,114.7,506.4,112.6,506.4,110.1z M513,110.1c0-1.2-0.7-2.1-1.9-2.1c-1.2,0-1.9,1-1.9,2.1c0,1.2,0.7,2.1,1.9,2.1
		C512.3,112.2,513,111.3,513,110.1z"/>
	<path fill="#FFFFFF" d="M516.2,113.3l1.2-2c0.6,0.6,2,1.2,3.1,1.2c0.8,0,1.2-0.2,1.2-0.6c0-1.1-5.1,0-5.1-3.5
		c0-1.5,1.3-2.9,3.7-2.9c1.5,0,2.7,0.5,3.6,1.2l-1.1,2c-0.5-0.5-1.5-1-2.6-1c-0.6,0-1.1,0.3-1.1,0.6c0,1,5,0,5,3.5
		c0,1.7-1.5,2.8-3.9,2.8C518.7,114.7,517.1,114.2,516.2,113.3z"/>
	<path fill="#FFFFFF" d="M530.4,114.5v-0.9c-0.5,0.6-1.6,1.1-2.7,1.1c-1.3,0-3-0.9-3-2.9c0-2.1,1.7-2.8,3-2.8c1.2,0,2.2,0.4,2.7,1
		v-0.9c0-0.8-0.6-1.3-1.8-1.3c-0.9,0-1.7,0.3-2.4,0.9l-1-1.9c1.1-1,2.6-1.4,3.9-1.4c2.1,0,4.1,0.8,4.1,3.5v5.4H530.4z M530.4,112.2
		v-0.8c-0.3-0.4-0.9-0.6-1.5-0.6c-0.7,0-1.4,0.3-1.4,1c0,0.7,0.7,1,1.4,1C529.5,112.9,530.1,112.7,530.4,112.2z"/>
</g>
<g>
	<g>
		<path fill="#363636" d="M857.5,205.1v-8h5.2v0.9h-4.2v2.6h4.2v0.9h-4.2v3.6H857.5z"/>
		<path fill="#363636" d="M863.7,202.2c0-1.7,1.1-3,2.9-3c1.8,0,2.9,1.4,2.9,3s-1.1,3-2.9,3C864.8,205.3,863.7,203.9,863.7,202.2z
			 M868.5,202.2c0-1.2-0.7-2.2-1.9-2.2c-1.2,0-1.9,1.1-1.9,2.2c0,1.2,0.7,2.2,1.9,2.2C867.8,204.5,868.5,203.4,868.5,202.2z"/>
		<path fill="#363636" d="M874.8,205.1v-3.8c0-1-0.5-1.3-1.3-1.3c-0.7,0-1.4,0.4-1.7,0.9v4.2h-0.9v-5.8h0.9v0.8c0.4-0.5,1.2-1,2.1-1
			c1.2,0,1.8,0.6,1.8,1.9v4.1H874.8z"/>
		<path fill="#363636" d="M877.7,203.9v-3.8h-1v-0.8h1v-1.6h0.9v1.6h1.2v0.8h-1.2v3.6c0,0.4,0.2,0.7,0.6,0.7c0.3,0,0.5-0.1,0.6-0.3
			l0.3,0.7c-0.2,0.2-0.6,0.4-1.1,0.4C878.1,205.3,877.7,204.8,877.7,203.9z"/>
		<path fill="#363636" d="M880.7,202.2c0-1.7,1.2-3,2.9-3c1.8,0,2.8,1.4,2.8,3.1v0.2h-4.7c0.1,1.1,0.8,2,2.1,2
			c0.7,0,1.3-0.3,1.8-0.7l0.4,0.6c-0.6,0.6-1.4,0.9-2.3,0.9C882,205.3,880.7,204,880.7,202.2z M883.6,199.9c-1.2,0-1.8,1-1.9,1.9
			h3.8C885.5,201,884.9,199.9,883.6,199.9z"/>
		<path fill="#363636" d="M887.6,199.9c0-0.4,0.3-0.7,0.7-0.7c0.4,0,0.7,0.3,0.7,0.7c0,0.3-0.3,0.7-0.7,0.7
			C887.9,200.6,887.6,200.3,887.6,199.9z M887.6,204.6c0-0.4,0.3-0.7,0.7-0.7c0.4,0,0.7,0.3,0.7,0.7c0,0.4-0.3,0.7-0.7,0.7
			C887.9,205.2,887.6,204.9,887.6,204.6z"/>
		<path fill="#363636" d="M899.8,205.1l-1.8-6.5l-1.8,6.5h-1.1l-2.3-8h1.1l1.8,6.7l1.8-6.7h0.8l1.8,6.7l1.8-6.7h1.1l-2.3,8H899.8z"
			/>
		<path fill="#363636" d="M909.9,205.1v-3.7h-4.7v3.7h-1v-8h1v3.4h4.7v-3.4h1v8H909.9z"/>
		<path fill="#363636" d="M912.5,201.1c0-2.4,1.6-4.1,4-4.1c2.4,0,4,1.8,4,4.1c0,2.4-1.6,4.1-4,4.1
			C914.1,205.3,912.5,203.5,912.5,201.1z M919.4,201.1c0-1.9-1.2-3.2-3-3.2c-1.8,0-2.9,1.4-2.9,3.2c0,1.9,1.1,3.3,2.9,3.3
			C918.2,204.4,919.4,203,919.4,201.1z"/>
		<path fill="#363636" d="M921,205.4l2.8-8.5h0.7l-2.8,8.5H921z"/>
		<path fill="#363636" d="M925.2,201.1c0-2.4,1.6-4.1,4-4.1s4,1.8,4,4.1c0,2.4-1.6,4.1-4,4.1S925.2,203.5,925.2,201.1z M932.1,201.1
			c0-1.9-1.2-3.2-3-3.2c-1.8,0-2.9,1.4-2.9,3.2c0,1.9,1.1,3.3,2.9,3.3C931,204.4,932.1,203,932.1,201.1z"/>
		<path fill="#363636" d="M941.6,205.1v-6.7l-2.7,6.7h-0.4l-2.7-6.7v6.7h-1v-8h1.4l2.5,6.2l2.5-6.2h1.4v8H941.6z"/>
		<path fill="#363636" d="M943.9,204l0.6-0.8c0.5,0.6,1.4,1.2,2.5,1.2c1.4,0,1.9-0.8,1.9-1.4c0-2.1-4.7-0.9-4.7-3.8
			c0-1.3,1.2-2.2,2.8-2.2c1.2,0,2.2,0.4,2.8,1.1l-0.6,0.7c-0.6-0.7-1.4-1-2.3-1c-0.9,0-1.6,0.5-1.6,1.3c0,1.8,4.7,0.8,4.7,3.8
			c0,1.2-0.8,2.4-3,2.4C945.6,205.3,944.6,204.7,943.9,204z"/>
	</g>
</g>
<g>
	<g>
		<path fill="#FFED00" d="M174.1,43C149.4,30.7,124.7,17.8,97.7,11C84.7,7.7,71.4,6.1,58,5.9c-9.5-0.1-18.9,1.3-27.5,5.5
			C-2.9,27.7,3,74.4,18.3,101.1c7.4,12.9,21.6,21.2,35.1,26.5c16.8,6.7,35.6,9,53.4,5.8c21.2-3.8,38-16.6,49.9-34.2
			c9.6-14.2,15.9-32,7.3-48.2c-5.1-9.6-13.4-17-21.7-23.9c-8-6.7-17-13.1-22.5-22.2c-0.8-1.2-5.6-1.8-4.5,0
			c7.2,11.8,19.9,19.6,30,28.8c11.9,10.8,20.4,24,17.2,40.6c-2.2,11.3-8.9,21.7-15.9,30.6c-6.8,8.6-15.6,15.6-25.5,20.3
			c-18.1,8.7-39.4,8.7-58.4,3.2c-14.9-4.3-31.1-12.8-39.5-26.4C13.7,86.4,9.1,66.7,11.5,48.4c2.3-17.5,12.8-32.1,29.9-37.6
			c12.2-4,26.2-2.6,38.7-1c14.2,1.8,27.9,5.9,41.2,11.1c17.1,6.6,33.5,15.1,50,23.3C172.7,45,177,44.5,174.1,43L174.1,43z"/>
	</g>
</g>
<g>
	<g>
		<path fill="#FFED00" d="M735.7,7.5c11.3,19.9,11.7,45,7,66.9c-4.8,22.2-16.7,43.4-39,51.6c-21.1,7.7-45.7,2.6-65.3-7
			c-21.3-10.4-42.6-30.3-45.4-54.9c-2.3-20.3,11.6-39.9,28.8-49.4c15.2-8.4,33.8-7.9,50.5-5c34.2,6,66.5,23.4,95.7,41.5
			c2.8,1.7,3.1-2.5,1-3.9c-33.7-21-72.4-41.8-112.8-44c-20.2-1.1-38.7,4.8-52.6,19.7c-16.8,18-18.8,42.2-6.6,63.2
			c20.6,35.6,73,59.3,112.4,42.8c20.1-8.4,31-28,36.4-48.2c5.6-20.9,5.5-44.1-1.8-64.5c-1.2-3.4-2.8-6.7-4.6-9.8
			C737.9,4.2,734,4.6,735.7,7.5L735.7,7.5z"/>
	</g>
</g>
</svg>
