<?xml version="1.0" encoding="utf-8"?>
<!-- Generator: Adobe Illustrator 16.0.0, SVG Export Plug-In . SVG Version: 6.00 Build 0)  -->
<!DOCTYPE svg PUBLIC "-//W3C//DTD SVG 1.1//EN" "http://www.w3.org/Graphics/SVG/1.1/DTD/svg11.dtd">
<svg version="1.1" id="Layer_1" xmlns="http://www.w3.org/2000/svg" xmlns:xlink="http://www.w3.org/1999/xlink" x="0px" y="0px"
	 width="960px" height="211.666px" viewBox="0 0 960 211.666" enable-background="new 0 0 960 211.666" xml:space="preserve">
<g>
	<path fill="#363636" d="M3.476,151.173c0-2.815,2.059-4.833,4.889-4.833c2.816,0,4.875,2.017,4.875,4.833
		c0,1.317-0.462,2.465-1.219,3.306l0.686,0.798l-1.387,1.135l-0.756-0.868c-0.644,0.294-1.401,0.462-2.199,0.462
		C5.535,156.006,3.476,153.989,3.476,151.173z M9.332,154.087l-1.022-1.205l1.387-1.135l1.022,1.205
		c0.308-0.49,0.476-1.106,0.476-1.779c0-1.751-1.106-3.068-2.83-3.068c-1.737,0-2.843,1.317-2.843,3.068
		c0,1.737,1.106,3.068,2.843,3.068C8.715,154.241,9.037,154.185,9.332,154.087z"/>
	<path fill="#363636" d="M18.879,155.838v-0.854c-0.462,0.504-1.274,1.022-2.381,1.022c-1.485,0-2.186-0.812-2.186-2.129v-4.805
		h1.779v4.104c0,0.939,0.49,1.247,1.247,1.247c0.686,0,1.232-0.378,1.541-0.771v-4.58h1.779v6.766H18.879z"/>
	<path fill="#363636" d="M26.201,155.838v-0.715c-0.462,0.561-1.261,0.883-2.143,0.883c-1.079,0-2.339-0.729-2.339-2.241
		c0-1.597,1.261-2.185,2.339-2.185c0.91,0,1.695,0.294,2.143,0.827v-0.854c0-0.687-0.588-1.135-1.485-1.135
		c-0.714,0-1.387,0.28-1.947,0.798l-0.7-1.247c0.826-0.742,1.891-1.064,2.956-1.064c1.555,0,2.97,0.616,2.97,2.563v4.37H26.201z
		 M26.201,154.213v-0.84c-0.294-0.392-0.854-0.603-1.429-0.603c-0.701,0-1.275,0.378-1.275,1.023s0.574,1.009,1.275,1.009
		C25.346,154.802,25.906,154.605,26.201,154.213z"/>
	<path fill="#363636" d="M34.027,155.838v-4.09c0-0.938-0.49-1.261-1.247-1.261c-0.7,0-1.232,0.393-1.541,0.785v4.566H29.46v-6.766
		h1.779v0.869c0.434-0.504,1.274-1.037,2.367-1.037c1.499,0,2.213,0.84,2.213,2.157v4.776H34.027z"/>
	<path fill="#363636" d="M41.937,155.838v-0.868c-0.533,0.672-1.261,1.036-2.087,1.036c-1.695,0-2.998-1.289-2.998-3.558
		c0-2.199,1.275-3.544,2.998-3.544c0.798,0,1.555,0.336,2.087,1.037v-3.446h1.793v9.343H41.937z M41.937,153.652v-2.395
		c-0.294-0.448-0.939-0.771-1.527-0.771c-1.023,0-1.723,0.799-1.723,1.961c0,1.177,0.7,1.975,1.723,1.975
		C40.998,154.423,41.643,154.101,41.937,153.652z"/>
	<path fill="#363636" d="M44.776,152.448c0-1.919,1.345-3.544,3.572-3.544c2.241,0,3.586,1.625,3.586,3.544
		c0,1.919-1.345,3.558-3.586,3.558C46.121,156.006,44.776,154.367,44.776,152.448z M50.085,152.448c0-1.051-0.617-1.961-1.737-1.961
		c-1.106,0-1.723,0.911-1.723,1.961c0,1.064,0.616,1.975,1.723,1.975C49.469,154.423,50.085,153.513,50.085,152.448z"/>
	<path fill="#363636" d="M58.497,155.838v-7.592h-2.731v-1.751h7.452v1.751H60.5v7.592H58.497z"/>
	<path fill="#363636" d="M64.208,155.838v-9.343h6.612v1.751h-4.623v1.961h4.524v1.751h-4.524v3.88H64.208z"/>
	<path fill="#363636" d="M74.764,152.448c0-1.961,1.457-3.544,3.502-3.544c2.031,0,3.39,1.513,3.39,3.712v0.42h-5.029
		c0.126,0.827,0.799,1.513,1.947,1.513c0.574,0,1.359-0.237,1.793-0.658l0.798,1.177c-0.672,0.616-1.737,0.938-2.788,0.938
		C76.318,156.006,74.764,154.619,74.764,152.448z M78.266,150.361c-1.106,0-1.583,0.771-1.653,1.443h3.333
		C79.891,151.159,79.442,150.361,78.266,150.361z"/>
	<path fill="#363636" d="M82.071,154.955l0.771-1.288c0.504,0.476,1.499,0.938,2.339,0.938c0.771,0,1.135-0.294,1.135-0.715
		c0-1.106-4.006-0.196-4.006-2.857c0-1.135,0.98-2.129,2.773-2.129c1.135,0,2.045,0.392,2.718,0.924l-0.714,1.261
		c-0.406-0.42-1.177-0.785-2.003-0.785c-0.644,0-1.064,0.28-1.064,0.659c0,0.995,4.02,0.154,4.02,2.885
		c0,1.247-1.064,2.157-2.941,2.157C83.92,156.006,82.785,155.613,82.071,154.955z"/>
	<path fill="#363636" d="M89.421,154.143v-3.516h-1.121v-1.555h1.121v-1.849H91.2v1.849h1.373v1.555H91.2v3.04
		c0,0.434,0.225,0.756,0.617,0.756c0.266,0,0.518-0.098,0.616-0.21l0.378,1.358c-0.267,0.238-0.743,0.435-1.485,0.435
		C90.08,156.006,89.421,155.361,89.421,154.143z"/>
	<path fill="#363636" d="M97.571,155.838v-0.715c-0.462,0.561-1.261,0.883-2.144,0.883c-1.078,0-2.339-0.729-2.339-2.241
		c0-1.597,1.261-2.185,2.339-2.185c0.911,0,1.695,0.294,2.144,0.827v-0.854c0-0.687-0.588-1.135-1.485-1.135
		c-0.714,0-1.387,0.28-1.947,0.798l-0.7-1.247c0.826-0.742,1.891-1.064,2.956-1.064c1.555,0,2.97,0.616,2.97,2.563v4.37H97.571z
		 M97.571,154.213v-0.84c-0.294-0.392-0.854-0.603-1.429-0.603c-0.701,0-1.275,0.378-1.275,1.023s0.574,1.009,1.275,1.009
		C96.717,154.802,97.277,154.605,97.571,154.213z M96.562,148.05h-1.247l1.877-2.017h1.639L96.562,148.05z"/>
	<path fill="#363636" d="M105.928,154.97v3.445h-1.779v-9.343h1.779v0.854c0.518-0.658,1.261-1.022,2.087-1.022
		c1.737,0,2.998,1.289,2.998,3.544c0,2.255-1.261,3.558-2.998,3.558C107.216,156.006,106.488,155.67,105.928,154.97z
		 M109.177,152.448c0-1.163-0.7-1.961-1.723-1.961c-0.575,0-1.219,0.322-1.527,0.771v2.381c0.294,0.435,0.952,0.784,1.527,0.784
		C108.477,154.423,109.177,153.625,109.177,152.448z"/>
	<path fill="#363636" d="M112.031,155.838v-6.766h1.779v0.911c0.49-0.588,1.316-1.079,2.157-1.079v1.737
		c-0.126-0.028-0.28-0.042-0.49-0.042c-0.588,0-1.373,0.336-1.667,0.771v4.468H112.031z"/>
	<path fill="#363636" d="M116.356,152.448c0-1.961,1.457-3.544,3.502-3.544c2.031,0,3.39,1.513,3.39,3.712v0.42h-5.029
		c0.126,0.827,0.799,1.513,1.947,1.513c0.574,0,1.359-0.237,1.793-0.658l0.798,1.177c-0.672,0.616-1.737,0.938-2.788,0.938
		C117.911,156.006,116.356,154.619,116.356,152.448z M119.858,150.361c-1.106,0-1.583,0.771-1.653,1.443h3.333
		C121.483,151.159,121.035,150.361,119.858,150.361z"/>
	<path fill="#363636" d="M123.664,154.955l0.771-1.288c0.504,0.476,1.499,0.938,2.339,0.938c0.771,0,1.135-0.294,1.135-0.715
		c0-1.106-4.006-0.196-4.006-2.857c0-1.135,0.98-2.129,2.773-2.129c1.135,0,2.045,0.392,2.718,0.924l-0.714,1.261
		c-0.406-0.42-1.177-0.785-2.003-0.785c-0.644,0-1.064,0.28-1.064,0.659c0,0.995,4.02,0.154,4.02,2.885
		c0,1.247-1.064,2.157-2.941,2.157C125.513,156.006,124.378,155.613,123.664,154.955z"/>
	<path fill="#363636" d="M130.216,152.448c0-1.961,1.457-3.544,3.502-3.544c2.031,0,3.39,1.513,3.39,3.712v0.42h-5.029
		c0.126,0.827,0.799,1.513,1.947,1.513c0.574,0,1.359-0.237,1.793-0.658l0.798,1.177c-0.672,0.616-1.737,0.938-2.788,0.938
		C131.771,156.006,130.216,154.619,130.216,152.448z M133.718,150.361c-1.106,0-1.583,0.771-1.653,1.443h3.333
		C135.343,151.159,134.895,150.361,133.718,150.361z"/>
	<path fill="#363636" d="M142.678,155.838v-4.09c0-0.938-0.49-1.261-1.247-1.261c-0.7,0-1.232,0.393-1.541,0.785v4.566h-1.779
		v-6.766h1.779v0.869c0.434-0.504,1.274-1.037,2.367-1.037c1.499,0,2.213,0.84,2.213,2.157v4.776H142.678z"/>
	<path fill="#363636" d="M146.302,154.143v-3.516h-1.121v-1.555h1.121v-1.849h1.779v1.849h1.373v1.555h-1.373v3.04
		c0,0.434,0.224,0.756,0.616,0.756c0.266,0,0.518-0.098,0.616-0.21l0.378,1.358c-0.266,0.238-0.743,0.435-1.485,0.435
		C146.96,156.006,146.302,155.361,146.302,154.143z"/>
	<path fill="#363636" d="M149.955,152.448c0-1.961,1.457-3.544,3.502-3.544c2.031,0,3.39,1.513,3.39,3.712v0.42h-5.029
		c0.126,0.827,0.799,1.513,1.947,1.513c0.574,0,1.359-0.237,1.793-0.658l0.798,1.177c-0.672,0.616-1.737,0.938-2.788,0.938
		C151.51,156.006,149.955,154.619,149.955,152.448z M153.457,150.361c-1.106,0-1.583,0.771-1.653,1.443h3.333
		C155.082,151.159,154.634,150.361,153.457,150.361z"/>
	<path fill="#363636" d="M3.448,169.248c0-1.961,1.457-3.544,3.502-3.544c2.031,0,3.39,1.513,3.39,3.712v0.42H5.311
		c0.126,0.827,0.799,1.513,1.947,1.513c0.574,0,1.359-0.237,1.793-0.658l0.798,1.177c-0.672,0.616-1.737,0.938-2.788,0.938
		C5.003,172.806,3.448,171.419,3.448,169.248z M6.95,167.161c-1.106,0-1.583,0.771-1.653,1.442h3.333
		C8.575,167.959,8.127,167.161,6.95,167.161z"/>
	<path fill="#363636" d="M19.735,172.638v-4.272c0-0.63-0.28-1.078-1.008-1.078c-0.63,0-1.149,0.42-1.401,0.784v4.566h-1.793v-4.272
		c0-0.63-0.28-1.078-1.009-1.078c-0.616,0-1.134,0.42-1.4,0.784v4.566h-1.779v-6.766h1.779v0.868
		c0.294-0.392,1.176-1.036,2.213-1.036c0.995,0,1.639,0.462,1.877,1.219c0.393-0.603,1.289-1.219,2.326-1.219
		c1.247,0,1.989,0.658,1.989,2.045v4.889H19.735z"/>
	<path fill="#363636" d="M34.714,172.638v-4.272c0-0.63-0.28-1.078-1.008-1.078c-0.63,0-1.149,0.42-1.401,0.784v4.566h-1.793v-4.272
		c0-0.63-0.28-1.078-1.009-1.078c-0.616,0-1.134,0.42-1.4,0.784v4.566h-1.779v-6.766h1.779v0.868
		c0.294-0.392,1.176-1.036,2.213-1.036c0.995,0,1.639,0.462,1.877,1.219c0.393-0.603,1.289-1.219,2.326-1.219
		c1.247,0,1.989,0.658,1.989,2.045v4.889H34.714z"/>
	<path fill="#363636" d="M42.048,172.638v-0.715c-0.462,0.561-1.261,0.883-2.144,0.883c-1.078,0-2.339-0.729-2.339-2.241
		c0-1.597,1.261-2.186,2.339-2.186c0.911,0,1.695,0.295,2.144,0.827v-0.854c0-0.687-0.588-1.135-1.485-1.135
		c-0.714,0-1.387,0.28-1.947,0.799l-0.7-1.247c0.826-0.742,1.891-1.064,2.956-1.064c1.555,0,2.97,0.616,2.97,2.563v4.37H42.048z
		 M42.048,171.013v-0.841c-0.294-0.392-0.854-0.602-1.429-0.602c-0.701,0-1.275,0.378-1.275,1.022s0.574,1.009,1.275,1.009
		C41.193,171.602,41.753,171.405,42.048,171.013z"/>
	<path fill="#363636" d="M45.14,164.079c0-0.588,0.476-1.051,1.051-1.051c0.588,0,1.064,0.463,1.064,1.051s-0.477,1.064-1.064,1.064
		C45.616,165.144,45.14,164.667,45.14,164.079z M45.308,172.638v-6.766h1.779v6.766H45.308z"/>
	<path fill="#363636" d="M47.981,171.755l0.771-1.288c0.504,0.476,1.499,0.938,2.339,0.938c0.771,0,1.135-0.294,1.135-0.715
		c0-1.106-4.006-0.196-4.006-2.857c0-1.135,0.98-2.129,2.773-2.129c1.135,0,2.045,0.392,2.718,0.925l-0.714,1.26
		c-0.406-0.42-1.177-0.784-2.003-0.784c-0.644,0-1.064,0.28-1.064,0.658c0,0.995,4.02,0.154,4.02,2.886
		c0,1.247-1.064,2.157-2.941,2.157C49.83,172.806,48.695,172.414,47.981,171.755z"/>
	<path fill="#363636" d="M62.936,172.638v-0.868c-0.533,0.672-1.261,1.036-2.087,1.036c-1.695,0-2.998-1.288-2.998-3.558
		c0-2.199,1.275-3.544,2.998-3.544c0.798,0,1.555,0.336,2.087,1.036v-3.445h1.793v9.343H62.936z M62.936,170.452v-2.395
		c-0.294-0.448-0.938-0.771-1.527-0.771c-1.023,0-1.723,0.798-1.723,1.961c0,1.177,0.7,1.975,1.723,1.975
		C61.997,171.223,62.641,170.9,62.936,170.452z"/>
	<path fill="#363636" d="M65.775,169.248c0-1.961,1.457-3.544,3.502-3.544c2.031,0,3.39,1.513,3.39,3.712v0.42h-5.029
		c0.126,0.827,0.799,1.513,1.947,1.513c0.574,0,1.359-0.237,1.793-0.658l0.798,1.177c-0.672,0.616-1.737,0.938-2.788,0.938
		C67.33,172.806,65.775,171.419,65.775,169.248z M69.277,167.161c-1.106,0-1.583,0.771-1.653,1.442h3.333
		C70.902,167.959,70.454,167.161,69.277,167.161z"/>
	<path fill="#363636" d="M76.792,171.405l1.106-1.387c0.63,0.658,1.499,1.022,2.479,1.022c1.106,0,1.737-0.631,1.737-1.387
		c0-0.826-0.616-1.387-1.681-1.387c-0.77,0-1.4,0.224-1.961,0.756l-1.387-0.378v-5.351h6.416v1.751h-4.426v2.283
		c0.448-0.448,1.205-0.785,2.059-0.785c1.583,0,2.998,1.135,2.998,3.026c0,1.975-1.485,3.235-3.74,3.235
		C78.768,172.806,77.591,172.273,76.792,171.405z"/>
	<path fill="#363636" d="M84.702,165.494c0-1.317,0.938-2.34,2.367-2.34c1.443,0,2.381,1.022,2.381,2.34
		c0,1.303-0.938,2.311-2.381,2.311C85.641,167.805,84.702,166.797,84.702,165.494z M88.19,165.494c0-0.771-0.476-1.247-1.121-1.247
		c-0.63,0-1.106,0.477-1.106,1.247c0,0.742,0.476,1.219,1.106,1.219C87.714,166.713,88.19,166.236,88.19,165.494z M86.159,172.638
		l5.967-9.343h1.064l-5.981,9.343H86.159z M89.843,170.494c0-1.316,0.938-2.353,2.367-2.353s2.381,1.036,2.381,2.353
		c0,1.303-0.953,2.312-2.381,2.312S89.843,171.797,89.843,170.494z M93.331,170.494c0-0.77-0.476-1.246-1.121-1.246
		c-0.644,0-1.106,0.477-1.106,1.246c0,0.757,0.462,1.219,1.106,1.219C92.854,171.713,93.331,171.251,93.331,170.494z"/>
	<path fill="#363636" d="M103.521,172.638v-0.868c-0.533,0.672-1.261,1.036-2.087,1.036c-1.695,0-2.998-1.288-2.998-3.558
		c0-2.199,1.275-3.544,2.998-3.544c0.798,0,1.555,0.336,2.087,1.036v-3.445h1.793v9.343H103.521z M103.521,170.452v-2.395
		c-0.294-0.448-0.938-0.771-1.527-0.771c-1.023,0-1.723,0.798-1.723,1.961c0,1.177,0.7,1.975,1.723,1.975
		C102.582,171.223,103.226,170.9,103.521,170.452z"/>
	<path fill="#363636" d="M110.856,172.638v-0.715c-0.462,0.561-1.261,0.883-2.143,0.883c-1.079,0-2.339-0.729-2.339-2.241
		c0-1.597,1.261-2.186,2.339-2.186c0.91,0,1.695,0.295,2.143,0.827v-0.854c0-0.687-0.588-1.135-1.485-1.135
		c-0.714,0-1.387,0.28-1.947,0.799l-0.7-1.247c0.826-0.742,1.891-1.064,2.956-1.064c1.555,0,2.97,0.616,2.97,2.563v4.37H110.856z
		 M110.856,171.013v-0.841c-0.294-0.392-0.854-0.602-1.429-0.602c-0.701,0-1.275,0.378-1.275,1.022s0.574,1.009,1.275,1.009
		C110.001,171.602,110.562,171.405,110.856,171.013z"/>
	<path fill="#363636" d="M113.527,171.755l0.771-1.288c0.504,0.476,1.499,0.938,2.339,0.938c0.771,0,1.135-0.294,1.135-0.715
		c0-1.106-4.006-0.196-4.006-2.857c0-1.135,0.98-2.129,2.773-2.129c1.135,0,2.045,0.392,2.718,0.925l-0.714,1.26
		c-0.406-0.42-1.177-0.784-2.003-0.784c-0.644,0-1.064,0.28-1.064,0.658c0,0.995,4.02,0.154,4.02,2.886
		c0,1.247-1.064,2.157-2.941,2.157C115.376,172.806,114.242,172.414,113.527,171.755z"/>
	<path fill="#363636" d="M123.397,169.248c0-2.073,1.513-3.544,3.586-3.544c1.387,0,2.227,0.603,2.675,1.219l-1.163,1.093
		c-0.322-0.477-0.812-0.729-1.429-0.729c-1.079,0-1.835,0.784-1.835,1.961s0.756,1.975,1.835,1.975c0.616,0,1.106-0.28,1.429-0.742
		l1.163,1.093c-0.448,0.616-1.289,1.232-2.675,1.232C124.91,172.806,123.397,171.335,123.397,169.248z"/>
	<path fill="#363636" d="M130.537,172.638v-6.766h1.779v0.91c0.49-0.588,1.316-1.078,2.157-1.078v1.736
		c-0.126-0.027-0.28-0.042-0.491-0.042c-0.588,0-1.373,0.337-1.667,0.771v4.469H130.537z"/>
	<path fill="#363636" d="M135.129,164.079c0-0.588,0.476-1.051,1.051-1.051c0.588,0,1.064,0.463,1.064,1.051
		s-0.477,1.064-1.064,1.064C135.605,165.144,135.129,164.667,135.129,164.079z M135.297,172.638v-6.766h1.779v6.766H135.297z"/>
	<path fill="#363636" d="M142.622,172.638v-0.715c-0.462,0.561-1.261,0.883-2.143,0.883c-1.079,0-2.339-0.729-2.339-2.241
		c0-1.597,1.261-2.186,2.339-2.186c0.91,0,1.695,0.295,2.143,0.827v-0.854c0-0.687-0.588-1.135-1.485-1.135
		c-0.714,0-1.387,0.28-1.947,0.799l-0.7-1.247c0.826-0.742,1.891-1.064,2.956-1.064c1.555,0,2.97,0.616,2.97,2.563v4.37H142.622z
		 M142.622,171.013v-0.841c-0.294-0.392-0.854-0.602-1.429-0.602c-0.701,0-1.275,0.378-1.275,1.022s0.574,1.009,1.275,1.009
		C141.767,171.602,142.327,171.405,142.622,171.013z"/>
	<path fill="#363636" d="M150.447,172.638v-4.09c0-0.938-0.49-1.261-1.247-1.261c-0.7,0-1.232,0.392-1.541,0.784v4.566h-1.779
		v-6.766h1.779v0.868c0.434-0.504,1.274-1.036,2.367-1.036c1.499,0,2.213,0.84,2.213,2.157v4.776H150.447z"/>
	<path fill="#363636" d="M155.36,174.907l0.351-0.715c0.35,0.267,0.756,0.406,1.148,0.406c0.364,0,0.714-0.154,0.714-0.462
		c0-0.225-0.14-0.364-0.406-0.364c-0.182,0-0.336,0.084-0.448,0.196l-0.645-0.364l0.294-0.827c-1.821-0.21-3.096-1.61-3.096-3.529
		c0-2.073,1.513-3.544,3.586-3.544c1.387,0,2.227,0.603,2.675,1.219l-1.163,1.093c-0.322-0.477-0.812-0.729-1.429-0.729
		c-1.079,0-1.835,0.784-1.835,1.961s0.756,1.975,1.835,1.975c0.616,0,1.106-0.28,1.429-0.742l1.163,1.093
		c-0.406,0.561-1.134,1.106-2.297,1.219l-0.21,0.532c0.14-0.099,0.308-0.141,0.49-0.141c0.519,0,0.938,0.393,0.938,0.98
		c0,0.743-0.7,1.177-1.555,1.177C156.229,175.341,155.654,175.146,155.36,174.907z"/>
	<path fill="#363636" d="M164.475,172.638v-0.715c-0.462,0.561-1.261,0.883-2.143,0.883c-1.079,0-2.339-0.729-2.339-2.241
		c0-1.597,1.261-2.186,2.339-2.186c0.91,0,1.695,0.295,2.143,0.827v-0.854c0-0.687-0.588-1.135-1.485-1.135
		c-0.714,0-1.387,0.28-1.947,0.799l-0.7-1.247c0.826-0.742,1.891-1.064,2.956-1.064c1.555,0,2.97,0.616,2.97,2.563v4.37H164.475z
		 M164.475,171.013v-0.841c-0.294-0.392-0.854-0.602-1.429-0.602c-0.701,0-1.275,0.378-1.275,1.022s0.574,1.009,1.275,1.009
		C163.621,171.602,164.181,171.405,164.475,171.013z"/>
	<path fill="#363636" d="M167.146,171.755l0.771-1.288c0.504,0.476,1.499,0.938,2.339,0.938c0.771,0,1.135-0.294,1.135-0.715
		c0-1.106-4.006-0.196-4.006-2.857c0-1.135,0.98-2.129,2.773-2.129c1.135,0,2.045,0.392,2.718,0.925l-0.714,1.26
		c-0.406-0.42-1.177-0.784-2.003-0.784c-0.644,0-1.064,0.28-1.064,0.658c0,0.995,4.02,0.154,4.02,2.886
		c0,1.247-1.064,2.157-2.941,2.157C168.996,172.806,167.861,172.414,167.146,171.755z"/>
	<path fill="#363636" d="M174.819,174.557l-0.771-0.63c0.448-0.238,0.967-0.827,1.079-1.317c-0.042,0.015-0.154,0.042-0.266,0.042
		c-0.532,0-0.953-0.42-0.953-1.008c0-0.617,0.504-1.121,1.107-1.121c0.658,0,1.247,0.519,1.247,1.429
		C176.262,173.002,175.688,173.94,174.819,174.557z"/>
	<path fill="#363636" d="M8.449,189.438v-0.854c-0.462,0.504-1.274,1.022-2.381,1.022c-1.485,0-2.186-0.812-2.186-2.129v-4.805
		h1.779v4.104c0,0.938,0.49,1.246,1.247,1.246c0.687,0,1.232-0.378,1.541-0.771v-4.58h1.779v6.766H8.449z"/>
	<path fill="#363636" d="M20.099,189.438v-4.272c0-0.63-0.28-1.078-1.008-1.078c-0.63,0-1.149,0.42-1.401,0.784v4.566h-1.793v-4.272
		c0-0.63-0.28-1.078-1.009-1.078c-0.616,0-1.134,0.42-1.4,0.784v4.566h-1.779v-6.766h1.779v0.868
		c0.294-0.392,1.176-1.036,2.213-1.036c0.995,0,1.639,0.462,1.877,1.219c0.393-0.603,1.289-1.219,2.326-1.219
		c1.247,0,1.989,0.658,1.989,2.045v4.889H20.099z"/>
	<path fill="#363636" d="M31.339,189.438v-0.868c-0.533,0.672-1.261,1.036-2.087,1.036c-1.695,0-2.998-1.289-2.998-3.558
		c0-2.199,1.275-3.544,2.998-3.544c0.798,0,1.555,0.336,2.087,1.036v-3.445h1.793v9.343H31.339z M31.339,187.252v-2.395
		c-0.294-0.448-0.938-0.771-1.527-0.771c-1.023,0-1.723,0.798-1.723,1.961c0,1.177,0.7,1.975,1.723,1.975
		C30.4,188.022,31.044,187.7,31.339,187.252z"/>
	<path fill="#363636" d="M34.444,180.879c0-0.588,0.476-1.051,1.051-1.051c0.588,0,1.064,0.463,1.064,1.051
		s-0.476,1.064-1.064,1.064C34.92,181.943,34.444,181.467,34.444,180.879z M34.612,189.438v-6.766h1.779v6.766H34.612z"/>
	<path fill="#363636" d="M37.286,188.555l0.771-1.288c0.504,0.476,1.499,0.938,2.339,0.938c0.771,0,1.135-0.294,1.135-0.715
		c0-1.106-4.006-0.196-4.006-2.857c0-1.135,0.98-2.129,2.773-2.129c1.135,0,2.045,0.392,2.718,0.925l-0.714,1.26
		c-0.406-0.42-1.177-0.784-2.003-0.784c-0.644,0-1.064,0.28-1.064,0.658c0,0.995,4.02,0.154,4.02,2.886
		c0,1.247-1.064,2.157-2.941,2.157C39.135,189.605,38,189.213,37.286,188.555z"/>
	<path fill="#363636" d="M44.636,187.742v-3.516h-1.121v-1.555h1.121v-1.849h1.779v1.849h1.373v1.555h-1.373v3.04
		c0,0.434,0.224,0.756,0.616,0.756c0.266,0,0.518-0.098,0.616-0.21l0.378,1.358c-0.266,0.238-0.743,0.435-1.485,0.435
		C45.294,189.605,44.636,188.961,44.636,187.742z"/>
	<path fill="#363636" d="M48.724,189.438v-6.766h1.779v0.91c0.49-0.588,1.316-1.078,2.157-1.078v1.736
		c-0.126-0.027-0.28-0.042-0.491-0.042c-0.588,0-1.373,0.337-1.667,0.771v4.469H48.724z"/>
	<path fill="#363636" d="M53.315,180.879c0-0.588,0.476-1.051,1.051-1.051c0.588,0,1.064,0.463,1.064,1.051
		s-0.476,1.064-1.064,1.064C53.791,181.943,53.315,181.467,53.315,180.879z M53.483,189.438v-6.766h1.779v6.766H53.483z"/>
	<path fill="#363636" d="M57.109,187.742v-3.516h-1.121v-1.555h1.121v-1.849h1.779v1.849h1.373v1.555h-1.373v3.04
		c0,0.434,0.224,0.756,0.616,0.756c0.266,0,0.518-0.098,0.616-0.21l0.378,1.358c-0.266,0.238-0.743,0.435-1.485,0.435
		C57.768,189.605,57.109,188.961,57.109,187.742z"/>
	<path fill="#363636" d="M60.763,186.048c0-1.919,1.345-3.544,3.572-3.544c2.241,0,3.586,1.625,3.586,3.544
		s-1.345,3.558-3.586,3.558C62.108,189.605,60.763,187.967,60.763,186.048z M66.072,186.048c0-1.051-0.617-1.961-1.737-1.961
		c-1.106,0-1.723,0.91-1.723,1.961c0,1.064,0.616,1.975,1.723,1.975C65.456,188.022,66.072,187.112,66.072,186.048z"/>
	<path fill="#363636" d="M74.064,188.569v3.445h-1.779v-9.343h1.779v0.854c0.518-0.658,1.26-1.022,2.087-1.022
		c1.737,0,2.998,1.288,2.998,3.544c0,2.255-1.261,3.558-2.998,3.558C75.353,189.605,74.624,189.27,74.064,188.569z M77.313,186.048
		c0-1.163-0.7-1.961-1.723-1.961c-0.575,0-1.219,0.322-1.527,0.771v2.381c0.294,0.435,0.952,0.784,1.527,0.784
		C76.613,188.022,77.313,187.225,77.313,186.048z"/>
	<path fill="#363636" d="M80.167,189.438v-6.766h1.779v0.91c0.49-0.588,1.316-1.078,2.157-1.078v1.736
		c-0.126-0.027-0.28-0.042-0.49-0.042c-0.588,0-1.373,0.337-1.667,0.771v4.469H80.167z"/>
	<path fill="#363636" d="M84.492,186.048c0-1.961,1.457-3.544,3.502-3.544c2.031,0,3.39,1.513,3.39,3.712v0.42h-5.029
		c0.126,0.827,0.799,1.513,1.947,1.513c0.574,0,1.359-0.237,1.793-0.658l0.798,1.177c-0.672,0.616-1.737,0.938-2.788,0.938
		C86.047,189.605,84.492,188.219,84.492,186.048z M87.994,183.961c-1.106,0-1.583,0.77-1.653,1.442h3.333
		C89.619,184.759,89.171,183.961,87.994,183.961z"/>
	<path fill="#363636" d="M91.954,186.048c0-2.073,1.513-3.544,3.586-3.544c1.387,0,2.227,0.603,2.675,1.219l-1.163,1.093
		c-0.322-0.477-0.812-0.729-1.429-0.729c-1.079,0-1.835,0.784-1.835,1.961s0.756,1.975,1.835,1.975c0.616,0,1.106-0.28,1.429-0.742
		l1.163,1.093c-0.448,0.616-1.289,1.232-2.675,1.232C93.466,189.605,91.954,188.135,91.954,186.048z"/>
	<path fill="#363636" d="M98.926,180.879c0-0.588,0.476-1.051,1.051-1.051c0.588,0,1.064,0.463,1.064,1.051
		s-0.477,1.064-1.064,1.064C99.402,181.943,98.926,181.467,98.926,180.879z M99.094,189.438v-6.766h1.779v6.766H99.094z"/>
	<path fill="#363636" d="M101.768,188.555l0.771-1.288c0.504,0.476,1.499,0.938,2.339,0.938c0.771,0,1.135-0.294,1.135-0.715
		c0-1.106-4.006-0.196-4.006-2.857c0-1.135,0.98-2.129,2.773-2.129c1.135,0,2.045,0.392,2.718,0.925l-0.714,1.26
		c-0.406-0.42-1.177-0.784-2.003-0.784c-0.644,0-1.064,0.28-1.064,0.658c0,0.995,4.02,0.154,4.02,2.886
		c0,1.247-1.064,2.157-2.941,2.157C103.617,189.605,102.482,189.213,101.768,188.555z"/>
	<path fill="#363636" d="M112.816,189.438v-0.715c-0.462,0.561-1.261,0.883-2.143,0.883c-1.079,0-2.339-0.729-2.339-2.241
		c0-1.597,1.261-2.185,2.339-2.185c0.91,0,1.695,0.294,2.143,0.826v-0.854c0-0.687-0.588-1.135-1.485-1.135
		c-0.714,0-1.387,0.28-1.947,0.799l-0.7-1.247c0.826-0.742,1.891-1.064,2.956-1.064c1.555,0,2.97,0.616,2.97,2.563v4.37H112.816z
		 M112.816,187.812v-0.84c-0.294-0.393-0.854-0.603-1.429-0.603c-0.701,0-1.275,0.378-1.275,1.022s0.574,1.009,1.275,1.009
		C111.961,188.401,112.521,188.205,112.816,187.812z"/>
	<path fill="#363636" d="M124.044,189.438v-0.868c-0.533,0.672-1.261,1.036-2.087,1.036c-1.695,0-2.998-1.289-2.998-3.558
		c0-2.199,1.275-3.544,2.998-3.544c0.798,0,1.555,0.336,2.087,1.036v-3.445h1.793v9.343H124.044z M124.044,187.252v-2.395
		c-0.294-0.448-0.938-0.771-1.527-0.771c-1.023,0-1.723,0.798-1.723,1.961c0,1.177,0.7,1.975,1.723,1.975
		C123.105,188.022,123.75,187.7,124.044,187.252z"/>
	<path fill="#363636" d="M126.883,186.048c0-1.961,1.457-3.544,3.502-3.544c2.031,0,3.39,1.513,3.39,3.712v0.42h-5.029
		c0.126,0.827,0.799,1.513,1.947,1.513c0.574,0,1.359-0.237,1.793-0.658l0.798,1.177c-0.672,0.616-1.737,0.938-2.788,0.938
		C128.438,189.605,126.883,188.219,126.883,186.048z M130.385,183.961c-1.106,0-1.583,0.77-1.653,1.442h3.333
		C132.01,184.759,131.562,183.961,130.385,183.961z"/>
	<path fill="#363636" d="M3.714,197.68c0-0.588,0.476-1.051,1.051-1.051c0.588,0,1.064,0.463,1.064,1.051s-0.476,1.064-1.064,1.064
		C4.19,198.744,3.714,198.268,3.714,197.68z M3.882,206.238v-6.766h1.779v6.766H3.882z"/>
	<path fill="#363636" d="M11.711,206.238v-4.09c0-0.938-0.49-1.261-1.247-1.261c-0.7,0-1.232,0.392-1.541,0.784v4.566H7.145v-6.766
		h1.779v0.868c0.434-0.504,1.274-1.036,2.367-1.036c1.499,0,2.213,0.84,2.213,2.157v4.776H11.711z"/>
	<path fill="#363636" d="M15.334,204.543v-3.516h-1.121v-1.555h1.121v-1.849h1.779v1.849h1.373v1.555h-1.373v3.04
		c0,0.434,0.225,0.756,0.617,0.756c0.266,0,0.518-0.098,0.616-0.21l0.378,1.358c-0.267,0.238-0.743,0.435-1.485,0.435
		C15.993,206.406,15.334,205.762,15.334,204.543z"/>
	<path fill="#363636" d="M18.988,202.849c0-1.961,1.457-3.544,3.502-3.544c2.031,0,3.39,1.513,3.39,3.712v0.42h-5.029
		c0.126,0.827,0.799,1.513,1.947,1.513c0.574,0,1.359-0.237,1.793-0.658l0.798,1.177c-0.672,0.616-1.737,0.938-2.788,0.938
		C20.543,206.406,18.988,205.02,18.988,202.849z M22.49,200.762c-1.106,0-1.583,0.77-1.653,1.442h3.333
		C24.115,201.56,23.667,200.762,22.49,200.762z"/>
	<path fill="#363636" d="M26.884,206.238v-6.766h1.779v0.91c0.49-0.588,1.316-1.078,2.157-1.078v1.736
		c-0.126-0.027-0.28-0.042-0.491-0.042c-0.588,0-1.373,0.337-1.667,0.771v4.469H26.884z"/>
	<path fill="#363636" d="M33.395,206.238l-2.717-6.766h1.905l1.765,4.706l1.779-4.706h1.905l-2.718,6.766H33.395z"/>
	<path fill="#363636" d="M38.111,202.849c0-1.961,1.457-3.544,3.502-3.544c2.031,0,3.39,1.513,3.39,3.712v0.42h-5.029
		c0.126,0.827,0.799,1.513,1.947,1.513c0.574,0,1.359-0.237,1.793-0.658l0.798,1.177c-0.672,0.616-1.737,0.938-2.788,0.938
		C39.666,206.406,38.111,205.02,38.111,202.849z M41.613,200.762c-1.106,0-1.583,0.77-1.653,1.442h3.333
		C43.238,201.56,42.79,200.762,41.613,200.762z"/>
	<path fill="#363636" d="M50.573,206.238v-4.09c0-0.938-0.49-1.261-1.247-1.261c-0.7,0-1.232,0.392-1.541,0.784v4.566h-1.779v-6.766
		h1.779v0.868c0.434-0.504,1.274-1.036,2.367-1.036c1.499,0,2.213,0.84,2.213,2.157v4.776H50.573z"/>
	<path fill="#363636" d="M55.485,208.508l0.351-0.715c0.35,0.267,0.756,0.406,1.148,0.406c0.364,0,0.714-0.154,0.714-0.462
		c0-0.225-0.14-0.364-0.406-0.364c-0.182,0-0.336,0.084-0.448,0.196l-0.644-0.364l0.294-0.827c-1.821-0.21-3.096-1.61-3.096-3.529
		c0-2.073,1.513-3.544,3.586-3.544c1.387,0,2.227,0.603,2.675,1.219l-1.163,1.093c-0.322-0.477-0.812-0.729-1.429-0.729
		c-1.079,0-1.835,0.784-1.835,1.961s0.756,1.975,1.835,1.975c0.616,0,1.106-0.28,1.429-0.742l1.163,1.093
		c-0.406,0.561-1.134,1.106-2.297,1.219l-0.21,0.532c0.14-0.099,0.308-0.141,0.49-0.141c0.519,0,0.938,0.393,0.938,0.98
		c0,0.743-0.7,1.177-1.555,1.177C56.354,208.941,55.78,208.746,55.485,208.508z"/>
	<path fill="#363636" d="M60.104,202.849c0-1.919,1.345-3.544,3.572-3.544c2.241,0,3.586,1.625,3.586,3.544
		s-1.345,3.558-3.586,3.558C61.449,206.406,60.104,204.768,60.104,202.849z M62.836,197.525c-0.28,0-0.504,0.267-0.504,0.869h-0.938
		c0-1.191,0.532-1.878,1.513-1.878c0.938,0,1.092,0.938,1.625,0.938c0.28,0,0.504-0.266,0.504-0.854h0.938
		c0,1.19-0.518,1.877-1.499,1.877C63.522,198.479,63.368,197.525,62.836,197.525z M65.414,202.849c0-1.051-0.617-1.961-1.737-1.961
		c-1.106,0-1.723,0.91-1.723,1.961c0,1.064,0.616,1.975,1.723,1.975C64.797,204.823,65.414,203.913,65.414,202.849z"/>
	<path fill="#363636" d="M67.875,202.849c0-1.961,1.457-3.544,3.502-3.544c2.031,0,3.39,1.513,3.39,3.712v0.42h-5.029
		c0.126,0.827,0.799,1.513,1.947,1.513c0.574,0,1.359-0.237,1.793-0.658l0.798,1.177c-0.672,0.616-1.737,0.938-2.788,0.938
		C69.429,206.406,67.875,205.02,67.875,202.849z M71.376,200.762c-1.106,0-1.583,0.77-1.653,1.442h3.333
		C73.001,201.56,72.553,200.762,71.376,200.762z"/>
	<path fill="#363636" d="M75.182,205.355l0.771-1.288c0.504,0.476,1.499,0.938,2.339,0.938c0.771,0,1.135-0.294,1.135-0.715
		c0-1.106-4.006-0.196-4.006-2.857c0-1.135,0.98-2.129,2.773-2.129c1.135,0,2.045,0.392,2.718,0.925l-0.714,1.26
		c-0.406-0.42-1.177-0.784-2.003-0.784c-0.644,0-1.064,0.28-1.064,0.658c0,0.995,4.02,0.154,4.02,2.886
		c0,1.247-1.064,2.157-2.941,2.157C77.031,206.406,75.896,206.014,75.182,205.355z"/>
	<path fill="#363636" d="M91.985,206.238l-0.588-1.583h-4.006l-0.588,1.583h-2.255l3.6-9.343h2.493l3.6,9.343H91.985z
		 M89.394,198.885l-1.457,4.02h2.914L89.394,198.885z"/>
	<path fill="#363636" d="M95.468,208.157l-0.771-0.63c0.448-0.238,0.967-0.827,1.079-1.317c-0.042,0.015-0.154,0.042-0.266,0.042
		c-0.532,0-0.953-0.42-0.953-1.008c0-0.617,0.504-1.121,1.107-1.121c0.658,0,1.247,0.519,1.247,1.429
		C96.911,206.603,96.336,207.541,95.468,208.157z"/>
	<path fill="#363636" d="M101.347,206.238v-9.343h2.003v7.592h3.95v1.751H101.347z"/>
	<path fill="#363636" d="M109.005,208.157l-0.771-0.63c0.448-0.238,0.967-0.827,1.079-1.317c-0.042,0.015-0.154,0.042-0.266,0.042
		c-0.532,0-0.953-0.42-0.953-1.008c0-0.617,0.504-1.121,1.107-1.121c0.658,0,1.247,0.519,1.247,1.429
		C110.448,206.603,109.874,207.541,109.005,208.157z"/>
	<path fill="#363636" d="M121.426,206.238l-0.588-1.583h-4.006l-0.588,1.583h-2.255l3.6-9.343h2.493l3.6,9.343H121.426z
		 M118.834,198.885l-1.457,4.02h2.914L118.834,198.885z"/>
</g>
<g>
	<g>
		<path fill="#363636" d="M582.945,155.838v-0.715c-0.463,0.561-1.261,0.883-2.143,0.883c-1.079,0-2.34-0.729-2.34-2.241
			c0-1.597,1.261-2.185,2.34-2.185c0.91,0,1.694,0.294,2.143,0.827v-0.854c0-0.687-0.588-1.135-1.484-1.135
			c-0.715,0-1.387,0.28-1.947,0.798l-0.701-1.247c0.826-0.742,1.892-1.064,2.956-1.064c1.555,0,2.97,0.616,2.97,2.563v4.37H582.945z
			 M582.945,154.213v-0.84c-0.295-0.392-0.854-0.603-1.429-0.603c-0.7,0-1.274,0.378-1.274,1.023s0.574,1.009,1.274,1.009
			C582.091,154.802,582.65,154.605,582.945,154.213z"/>
		<path fill="#363636" d="M586.205,155.838v-9.343h1.779v9.343H586.205z"/>
		<path fill="#363636" d="M589.326,157.575l0.799-1.275c0.547,0.589,1.275,0.827,2.115,0.827c0.854,0,1.877-0.364,1.877-1.737
			v-0.658c-0.532,0.672-1.26,1.051-2.102,1.051c-1.68,0-2.982-1.177-2.982-3.432c0-2.213,1.274-3.446,2.982-3.446
			c0.812,0,1.556,0.336,2.102,1.037v-0.869h1.779v6.317c0,2.563-1.989,3.193-3.656,3.193
			C591.092,158.583,590.182,158.317,589.326,157.575z M594.117,153.442v-2.199c-0.309-0.434-0.952-0.756-1.526-0.756
			c-1.022,0-1.724,0.701-1.724,1.863s0.701,1.863,1.724,1.863C593.165,154.213,593.809,153.877,594.117,153.442z"/>
		<path fill="#363636" d="M601.943,155.838v-0.854c-0.462,0.504-1.274,1.022-2.381,1.022c-1.484,0-2.186-0.812-2.186-2.129v-4.805
			h1.779v4.104c0,0.939,0.49,1.247,1.246,1.247c0.688,0,1.232-0.378,1.541-0.771v-4.58h1.779v6.766H601.943z"/>
		<path fill="#363636" d="M604.769,152.448c0-1.961,1.456-3.544,3.502-3.544c2.031,0,3.39,1.513,3.39,3.712v0.42h-5.029
			c0.127,0.827,0.799,1.513,1.947,1.513c0.574,0,1.359-0.237,1.793-0.658l0.799,1.177c-0.672,0.616-1.736,0.938-2.787,0.938
			C606.323,156.006,604.769,154.619,604.769,152.448z M608.271,150.361c-1.106,0-1.583,0.771-1.653,1.443h3.334
			C609.896,151.159,609.447,150.361,608.271,150.361z"/>
		<path fill="#363636" d="M621.055,155.838v-4.272c0-0.63-0.279-1.079-1.008-1.079c-0.631,0-1.148,0.42-1.4,0.785v4.566h-1.793
			v-4.272c0-0.63-0.281-1.079-1.01-1.079c-0.615,0-1.134,0.42-1.4,0.785v4.566h-1.779v-6.766h1.779v0.869
			c0.295-0.393,1.177-1.037,2.213-1.037c0.995,0,1.64,0.462,1.877,1.219c0.393-0.603,1.289-1.219,2.326-1.219
			c1.246,0,1.988,0.658,1.988,2.045v4.889H621.055z"/>
		<path fill="#363636" d="M627.21,152.448c0-2.073,1.513-3.544,3.586-3.544c1.387,0,2.228,0.602,2.675,1.219l-1.162,1.092
			c-0.322-0.476-0.812-0.729-1.429-0.729c-1.079,0-1.835,0.785-1.835,1.961s0.756,1.975,1.835,1.975c0.616,0,1.106-0.28,1.429-0.742
			l1.162,1.093c-0.447,0.616-1.288,1.232-2.675,1.232C628.723,156.006,627.21,154.535,627.21,152.448z"/>
		<path fill="#363636" d="M633.916,152.448c0-1.919,1.344-3.544,3.571-3.544c2.241,0,3.586,1.625,3.586,3.544
			c0,1.919-1.345,3.558-3.586,3.558C635.26,156.006,633.916,154.367,633.916,152.448z M639.225,152.448
			c0-1.051-0.617-1.961-1.737-1.961c-1.106,0-1.723,0.911-1.723,1.961c0,1.064,0.616,1.975,1.723,1.975
			C638.607,154.423,639.225,153.513,639.225,152.448z"/>
		<path fill="#363636" d="M650.51,155.838v-4.272c0-0.63-0.279-1.079-1.008-1.079c-0.631,0-1.148,0.42-1.4,0.785v4.566h-1.793
			v-4.272c0-0.63-0.281-1.079-1.01-1.079c-0.615,0-1.134,0.42-1.4,0.785v4.566h-1.779v-6.766h1.779v0.869
			c0.295-0.393,1.177-1.037,2.213-1.037c0.995,0,1.64,0.462,1.877,1.219c0.393-0.603,1.289-1.219,2.326-1.219
			c1.246,0,1.988,0.658,1.988,2.045v4.889H650.51z"/>
		<path fill="#363636" d="M659.299,155.838v-7.592h-2.732v-1.751h7.453v1.751h-2.718v7.592H659.299z"/>
		<path fill="#363636" d="M667.166,155.838v-7.592h-2.73v-1.751h7.451v1.751h-2.717v7.592H667.166z"/>
		<path fill="#363636" d="M677.932,154.97v3.445h-1.779v-9.343h1.779v0.854c0.519-0.658,1.262-1.022,2.088-1.022
			c1.736,0,2.997,1.289,2.997,3.544c0,2.255-1.261,3.558-2.997,3.558C679.221,156.006,678.492,155.67,677.932,154.97z
			 M681.182,152.448c0-1.163-0.7-1.961-1.723-1.961c-0.574,0-1.219,0.322-1.527,0.771v2.381c0.295,0.435,0.953,0.784,1.527,0.784
			C680.481,154.423,681.182,153.625,681.182,152.448z"/>
		<path fill="#363636" d="M684.035,155.838v-6.766h1.779v0.911c0.49-0.588,1.316-1.079,2.156-1.079v1.737
			c-0.126-0.028-0.279-0.042-0.49-0.042c-0.588,0-1.373,0.336-1.666,0.771v4.468H684.035z"/>
		<path fill="#363636" d="M688.36,152.448c0-1.961,1.456-3.544,3.502-3.544c2.031,0,3.39,1.513,3.39,3.712v0.42h-5.029
			c0.127,0.827,0.799,1.513,1.947,1.513c0.574,0,1.359-0.237,1.793-0.658l0.799,1.177c-0.672,0.616-1.736,0.938-2.787,0.938
			C689.915,156.006,688.36,154.619,688.36,152.448z M691.862,150.361c-1.106,0-1.583,0.771-1.653,1.443h3.334
			C693.487,151.159,693.039,150.361,691.862,150.361z"/>
		<path fill="#363636" d="M695.822,152.448c0-2.073,1.513-3.544,3.586-3.544c1.387,0,2.227,0.602,2.676,1.219l-1.163,1.092
			c-0.322-0.476-0.812-0.729-1.429-0.729c-1.078,0-1.835,0.785-1.835,1.961s0.757,1.975,1.835,1.975c0.616,0,1.106-0.28,1.429-0.742
			l1.163,1.093c-0.449,0.616-1.289,1.232-2.676,1.232C697.335,156.006,695.822,154.535,695.822,152.448z"/>
		<path fill="#363636" d="M702.794,147.279c0-0.588,0.476-1.051,1.051-1.051c0.589,0,1.064,0.462,1.064,1.051
			s-0.476,1.064-1.064,1.064C703.27,148.344,702.794,147.868,702.794,147.279z M702.962,155.838v-6.766h1.779v6.766H702.962z"/>
		<path fill="#363636" d="M705.636,154.955l0.771-1.288c0.504,0.476,1.499,0.938,2.34,0.938c0.77,0,1.135-0.294,1.135-0.715
			c0-1.106-4.007-0.196-4.007-2.857c0-1.135,0.98-2.129,2.773-2.129c1.135,0,2.046,0.392,2.718,0.924l-0.715,1.261
			c-0.406-0.42-1.176-0.785-2.003-0.785c-0.644,0-1.064,0.28-1.064,0.659c0,0.995,4.021,0.154,4.021,2.885
			c0,1.247-1.064,2.157-2.941,2.157C707.484,156.006,706.35,155.613,705.636,154.955z"/>
		<path fill="#363636" d="M716.684,155.838v-0.715c-0.462,0.561-1.26,0.883-2.143,0.883c-1.078,0-2.34-0.729-2.34-2.241
			c0-1.597,1.262-2.185,2.34-2.185c0.91,0,1.695,0.294,2.143,0.827v-0.854c0-0.687-0.588-1.135-1.484-1.135
			c-0.715,0-1.387,0.28-1.947,0.798l-0.7-1.247c0.826-0.742,1.892-1.064,2.956-1.064c1.555,0,2.969,0.616,2.969,2.563v4.37H716.684z
			 M716.684,154.213v-0.84c-0.294-0.392-0.854-0.603-1.428-0.603c-0.701,0-1.275,0.378-1.275,1.023s0.574,1.009,1.275,1.009
			C715.83,154.802,716.39,154.605,716.684,154.213z"/>
		<path fill="#363636" d="M578.925,172.638v-9.343h1.989v9.343H578.925z"/>
		<path fill="#363636" d="M587.006,172.638v-4.09c0-0.938-0.49-1.261-1.247-1.261c-0.7,0-1.232,0.392-1.54,0.784v4.566h-1.779
			v-6.766h1.779v0.868c0.434-0.504,1.273-1.036,2.367-1.036c1.498,0,2.213,0.84,2.213,2.157v4.776H587.006z"/>
		<path fill="#363636" d="M590.629,170.942v-3.516h-1.121v-1.555h1.121v-1.849h1.779v1.849h1.373v1.555h-1.373v3.04
			c0,0.434,0.225,0.756,0.616,0.756c0.267,0,0.519-0.098,0.616-0.21l0.379,1.358c-0.268,0.238-0.743,0.435-1.485,0.435
			C591.287,172.806,590.629,172.161,590.629,170.942z"/>
		<path fill="#363636" d="M594.283,169.248c0-1.961,1.457-3.544,3.502-3.544c2.031,0,3.389,1.513,3.389,3.712v0.42h-5.028
			c0.126,0.827,0.799,1.513,1.947,1.513c0.574,0,1.358-0.237,1.793-0.658l0.798,1.177c-0.672,0.616-1.736,0.938-2.787,0.938
			C595.838,172.806,594.283,171.419,594.283,169.248z M597.785,167.161c-1.107,0-1.584,0.771-1.653,1.442h3.333
			C599.41,167.959,598.961,167.161,597.785,167.161z"/>
		<path fill="#363636" d="M602.178,172.638v-6.766h1.779v0.91c0.49-0.588,1.316-1.078,2.158-1.078v1.736
			c-0.127-0.027-0.281-0.042-0.491-0.042c-0.588,0-1.372,0.337-1.667,0.771v4.469H602.178z"/>
		<path fill="#363636" d="M608.689,172.638l-2.718-6.766h1.905l1.765,4.706l1.778-4.706h1.906l-2.719,6.766H608.689z"/>
		<path fill="#363636" d="M613.405,169.248c0-1.961,1.456-3.544,3.502-3.544c2.031,0,3.39,1.513,3.39,3.712v0.42h-5.029
			c0.127,0.827,0.799,1.513,1.947,1.513c0.574,0,1.359-0.237,1.793-0.658l0.799,1.177c-0.672,0.616-1.736,0.938-2.787,0.938
			C614.96,172.806,613.405,171.419,613.405,169.248z M616.907,167.161c-1.106,0-1.583,0.771-1.653,1.442h3.334
			C618.532,167.959,618.084,167.161,616.907,167.161z"/>
		<path fill="#363636" d="M625.867,172.638v-4.09c0-0.938-0.49-1.261-1.246-1.261c-0.7,0-1.232,0.392-1.541,0.784v4.566h-1.779
			v-6.766h1.779v0.868c0.435-0.504,1.275-1.036,2.367-1.036c1.499,0,2.213,0.84,2.213,2.157v4.776H625.867z"/>
		<path fill="#363636" d="M630.779,174.907l0.352-0.715c0.35,0.267,0.756,0.406,1.148,0.406c0.363,0,0.714-0.154,0.714-0.462
			c0-0.225-0.14-0.364-0.406-0.364c-0.183,0-0.336,0.084-0.448,0.196l-0.645-0.364l0.295-0.827c-1.821-0.21-3.096-1.61-3.096-3.529
			c0-2.073,1.512-3.544,3.586-3.544c1.387,0,2.227,0.603,2.675,1.219l-1.163,1.093c-0.322-0.477-0.812-0.729-1.428-0.729
			c-1.079,0-1.836,0.784-1.836,1.961s0.757,1.975,1.836,1.975c0.615,0,1.105-0.28,1.428-0.742l1.163,1.093
			c-0.406,0.561-1.134,1.106-2.297,1.219l-0.21,0.532c0.14-0.099,0.308-0.141,0.49-0.141c0.518,0,0.938,0.393,0.938,0.98
			c0,0.743-0.699,1.177-1.555,1.177C631.648,175.341,631.074,175.146,630.779,174.907z"/>
		<path fill="#363636" d="M639.896,172.638v-0.715c-0.462,0.561-1.261,0.883-2.144,0.883c-1.078,0-2.339-0.729-2.339-2.241
			c0-1.597,1.261-2.186,2.339-2.186c0.91,0,1.695,0.295,2.144,0.827v-0.854c0-0.687-0.589-1.135-1.485-1.135
			c-0.714,0-1.387,0.28-1.947,0.799l-0.699-1.247c0.826-0.742,1.891-1.064,2.955-1.064c1.555,0,2.97,0.616,2.97,2.563v4.37H639.896z
			 M637.893,163.925c-0.28,0-0.504,0.267-0.504,0.868h-0.939c0-1.19,0.533-1.877,1.514-1.877c0.938,0,1.092,0.938,1.625,0.938
			c0.279,0,0.504-0.266,0.504-0.854h0.938c0,1.191-0.518,1.878-1.498,1.878C638.578,164.878,638.424,163.925,637.893,163.925z
			 M639.896,171.013v-0.841c-0.294-0.392-0.854-0.602-1.429-0.602c-0.701,0-1.275,0.378-1.275,1.022s0.574,1.009,1.275,1.009
			C639.041,171.602,639.602,171.405,639.896,171.013z"/>
		<path fill="#363636" d="M642.721,169.248c0-1.919,1.346-3.544,3.572-3.544c2.241,0,3.586,1.625,3.586,3.544
			s-1.345,3.558-3.586,3.558C644.066,172.806,642.721,171.167,642.721,169.248z M648.03,169.248c0-1.051-0.616-1.961-1.737-1.961
			c-1.106,0-1.723,0.91-1.723,1.961c0,1.064,0.616,1.975,1.723,1.975C647.414,171.223,648.03,170.312,648.03,169.248z"/>
		<path fill="#363636" d="M653.641,171.321l1.092-1.555c0.659,0.686,1.682,1.274,2.971,1.274c1.105,0,1.625-0.49,1.625-1.037
			c0-1.625-5.379-0.49-5.379-4.006c0-1.555,1.344-2.844,3.543-2.844c1.485,0,2.718,0.448,3.643,1.303l-1.107,1.485
			c-0.756-0.7-1.764-1.022-2.717-1.022c-0.84,0-1.316,0.364-1.316,0.924c0,1.471,5.365,0.477,5.365,3.965
			c0,1.709-1.233,2.997-3.74,2.997C655.812,172.806,654.523,172.203,653.641,171.321z"/>
	</g>
</g>
<rect x="768" fill="#181716" stroke="#FFFFFF" stroke-width="2" stroke-miterlimit="10" width="192" height="137"/>
<g>
	<path fill="#FFFFFF" d="M807.041,36.362c0-8.239,6.239-13.798,14.438-13.798c6.439,0,9.918,3.639,11.639,7.119l-5.92,2.839
		c-0.879-2.12-3.158-3.879-5.719-3.879c-4.359,0-7.438,3.32-7.438,7.719c0,4.358,3.079,7.719,7.438,7.719
		c2.561,0,4.84-1.76,5.719-3.88l5.92,2.8c-1.721,3.399-5.199,7.158-11.639,7.158C813.28,50.159,807.041,44.561,807.041,36.362z"/>
	<path fill="#FFFFFF" d="M833.922,36.362c0-8.119,6.118-13.798,14.277-13.798c8.158,0,14.237,5.679,14.237,13.798
		c0,8.118-6.079,13.797-14.237,13.797C840.04,50.159,833.922,44.48,833.922,36.362z M855.438,36.362c0-4.359-2.84-7.719-7.238-7.719
		c-4.4,0-7.279,3.36-7.279,7.719c0,4.319,2.879,7.719,7.279,7.719C852.598,44.081,855.438,40.682,855.438,36.362z"/>
	<path fill="#FFFFFF" d="M806.47,86.884c0-3.709,2.809-6.212,6.5-6.212c2.899,0,4.466,1.639,5.239,3.205l-2.664,1.278
		c-0.396-0.954-1.423-1.746-2.575-1.746c-1.963,0-3.349,1.494-3.349,3.475c0,1.963,1.386,3.476,3.349,3.476
		c1.152,0,2.179-0.793,2.575-1.747l2.664,1.261c-0.773,1.53-2.34,3.223-5.239,3.223C809.278,93.096,806.47,90.575,806.47,86.884z"/>
	<path fill="#FFFFFF" d="M818.547,88.522c0-2.448,1.766-4.556,4.718-4.556c2.989,0,4.753,2.107,4.753,4.556
		c0,2.449-1.764,4.573-4.753,4.573C820.312,93.096,818.547,90.972,818.547,88.522z M825.174,88.522c0-1.152-0.685-2.106-1.909-2.106
		c-1.188,0-1.872,0.954-1.872,2.106c0,1.171,0.684,2.125,1.872,2.125C824.489,90.647,825.174,89.693,825.174,88.522z"/>
	<path fill="#FFFFFF" d="M829.113,92.88v-8.696h2.772v1.062c0.576-0.703,1.692-1.297,2.719-1.297v2.665
		c-0.162-0.055-0.396-0.072-0.685-0.072c-0.72,0-1.674,0.306-2.034,0.792v5.546H829.113z"/>
	<path fill="#FFFFFF" d="M841.391,92.88v-5.023c0-1.062-0.559-1.44-1.422-1.44c-0.828,0-1.369,0.45-1.693,0.846v5.618h-2.772v-8.696
		h2.772v1.062c0.522-0.612,1.549-1.279,3.025-1.279c1.963,0,2.863,1.152,2.863,2.755v6.158H841.391z"/>
	<path fill="#FFFFFF" d="M845.259,88.522c0-2.521,1.891-4.556,4.609-4.556c2.575,0,4.447,1.891,4.447,4.844v0.63h-6.194
		c0.199,0.774,0.919,1.423,2.18,1.423c0.611,0,1.62-0.271,2.124-0.738l1.206,1.818c-0.863,0.774-2.305,1.152-3.637,1.152
		C847.312,93.096,845.259,91.35,845.259,88.522z M849.868,86.2c-1.206,0-1.675,0.72-1.782,1.351h3.582
		C851.597,86.938,851.146,86.2,849.868,86.2z"/>
	<path fill="#FFFFFF" d="M860.452,92.88v-0.864c-0.54,0.648-1.585,1.08-2.7,1.08c-1.333,0-2.989-0.918-2.989-2.862
		c0-2.106,1.656-2.81,2.989-2.81c1.152,0,2.178,0.379,2.7,1.026v-0.864c0-0.756-0.647-1.278-1.765-1.278
		c-0.863,0-1.729,0.343-2.43,0.937l-1.027-1.927c1.117-0.954,2.611-1.351,3.943-1.351c2.089,0,4.051,0.774,4.051,3.476v5.438
		H860.452z M860.452,90.647v-0.774c-0.288-0.414-0.937-0.612-1.548-0.612c-0.721,0-1.387,0.324-1.387,1.009
		c0,0.684,0.666,1.008,1.387,1.008C859.516,91.277,860.164,91.062,860.452,90.647z"/>
	<path fill="#FFFFFF" d="M864.879,92.88V80.87h2.772v12.01H864.879z"/>
	<path fill="#FFFFFF" d="M806.47,108.483c0-3.655,2.755-6.212,6.428-6.212s6.41,2.557,6.41,6.212s-2.737,6.212-6.41,6.212
		S806.47,112.139,806.47,108.483z M816.156,108.483c0-1.962-1.278-3.475-3.259-3.475s-3.276,1.513-3.276,3.475
		c0,1.945,1.296,3.476,3.276,3.476S816.156,110.429,816.156,108.483z"/>
	<path fill="#FFFFFF" d="M823.211,113.453v4.34h-2.773v-12.01h2.773v1.008c0.684-0.828,1.584-1.225,2.574-1.225
		c2.18,0,3.817,1.621,3.817,4.556c0,2.953-1.638,4.573-3.817,4.573C824.813,114.695,823.932,114.317,823.211,113.453z
		 M826.775,110.122c0-1.296-0.828-2.106-1.908-2.106c-0.594,0-1.314,0.324-1.656,0.792v2.647c0.342,0.449,1.062,0.792,1.656,0.792
		C825.947,112.247,826.775,111.437,826.775,110.122z"/>
	<path fill="#FFFFFF" d="M835.811,114.479v-0.864c-0.54,0.648-1.584,1.08-2.701,1.08c-1.332,0-2.988-0.918-2.988-2.862
		c0-2.106,1.656-2.81,2.988-2.81c1.152,0,2.18,0.379,2.701,1.026v-0.864c0-0.756-0.648-1.278-1.764-1.278
		c-0.865,0-1.729,0.343-2.432,0.937l-1.025-1.927c1.115-0.954,2.609-1.351,3.942-1.351c2.089,0,4.052,0.774,4.052,3.476v5.438
		H835.811z M835.811,112.247v-0.774c-0.288-0.414-0.936-0.612-1.549-0.612c-0.72,0-1.386,0.324-1.386,1.009
		c0,0.684,0.666,1.008,1.386,1.008C834.875,112.877,835.522,112.661,835.811,112.247z"/>
	<path fill="#FFFFFF" d="M839.68,110.122c0-2.719,2.016-4.556,4.734-4.556c1.891,0,3.043,0.829,3.565,1.603l-1.8,1.675
		c-0.343-0.504-0.9-0.828-1.639-0.828c-1.152,0-2.035,0.792-2.035,2.106s0.883,2.125,2.035,2.125c0.738,0,1.296-0.36,1.639-0.847
		l1.8,1.692c-0.522,0.757-1.675,1.603-3.565,1.603C841.695,114.695,839.68,112.841,839.68,110.122z"/>
	<path fill="#FFFFFF" d="M848.68,103.406c0-0.883,0.701-1.585,1.584-1.585s1.603,0.702,1.603,1.585c0,0.882-0.72,1.603-1.603,1.603
		S848.68,104.288,848.68,103.406z M848.877,114.479v-8.696h2.773v8.696H848.877z"/>
	<path fill="#FFFFFF" d="M859.157,114.479v-1.009c-0.72,0.829-1.603,1.225-2.575,1.225c-2.143,0-3.834-1.62-3.834-4.573
		c0-2.845,1.656-4.556,3.834-4.556c0.955,0,1.891,0.379,2.575,1.243v-4.34h2.755v12.01H859.157z M859.157,111.455v-2.665
		c-0.36-0.469-1.08-0.774-1.675-0.774c-1.098,0-1.908,0.811-1.908,2.106c0,1.297,0.811,2.125,1.908,2.125
		C858.077,112.247,858.797,111.923,859.157,111.455z"/>
	<path fill="#FFFFFF" d="M868.715,114.479v-0.864c-0.541,0.648-1.585,1.08-2.701,1.08c-1.332,0-2.988-0.918-2.988-2.862
		c0-2.106,1.656-2.81,2.988-2.81c1.152,0,2.179,0.379,2.701,1.026v-0.864c0-0.756-0.648-1.278-1.765-1.278
		c-0.864,0-1.729,0.343-2.431,0.937l-1.026-1.927c1.116-0.954,2.61-1.351,3.942-1.351c2.09,0,4.052,0.774,4.052,3.476v5.438H868.715
		z M868.715,112.247v-0.774c-0.289-0.414-0.937-0.612-1.549-0.612c-0.721,0-1.387,0.324-1.387,1.009
		c0,0.684,0.666,1.008,1.387,1.008C867.778,112.877,868.426,112.661,868.715,112.247z"/>
	<path fill="#FFFFFF" d="M878.992,114.479v-1.009c-0.72,0.829-1.602,1.225-2.574,1.225c-2.143,0-3.835-1.62-3.835-4.573
		c0-2.845,1.656-4.556,3.835-4.556c0.955,0,1.891,0.379,2.574,1.243v-4.34h2.756v12.01H878.992z M878.992,111.455v-2.665
		c-0.359-0.469-1.08-0.774-1.674-0.774c-1.098,0-1.908,0.811-1.908,2.106c0,1.297,0.811,2.125,1.908,2.125
		C877.912,112.247,878.633,111.923,878.992,111.455z"/>
	<path fill="#FFFFFF" d="M882.861,110.122c0-2.521,1.891-4.556,4.609-4.556c2.574,0,4.447,1.891,4.447,4.844v0.63h-6.194
		c0.198,0.774,0.919,1.423,2.179,1.423c0.612,0,1.621-0.271,2.125-0.738l1.206,1.818c-0.864,0.774-2.305,1.152-3.638,1.152
		C884.914,114.695,882.861,112.949,882.861,110.122z M887.471,107.8c-1.207,0-1.676,0.72-1.783,1.351h3.583
		C889.199,108.538,888.748,107.8,887.471,107.8z"/>
</g>
<polygon fill="#2C2136" stroke="#FFFFFF" stroke-width="2" stroke-miterlimit="10" points="795.491,65.5 768,38.009 768,0 576,0 
	576,137 768,137 768,92.991 "/>
<polygon fill="#3C2A4F" stroke="#FFFFFF" stroke-width="2" stroke-miterlimit="10" points="603.491,65.5 576,38.009 576,0 384,0 
	384,137 576,137 576,92.991 "/>
<g>
	<path fill="#FFFFFF" d="M630.359,49.68V29.003h-7.479v-5.999h21.797v5.999h-7.439V49.68H630.359z"/>
	<path fill="#FFFFFF" d="M653.119,49.68V29.003h-7.479v-5.999h21.797v5.999h-7.439V49.68H653.119z"/>
	<path fill="#FFFFFF" d="M625.765,92.88v-9.309h-3.367V80.87h9.813v2.701h-3.35v9.309H625.765z"/>
	<path fill="#FFFFFF" d="M633.252,92.88v-8.696h2.772v1.062c0.576-0.703,1.692-1.297,2.719-1.297v2.665
		c-0.162-0.055-0.396-0.072-0.685-0.072c-0.72,0-1.674,0.306-2.034,0.792v5.546H633.252z"/>
	<path fill="#FFFFFF" d="M644.772,92.88v-0.864c-0.54,0.648-1.585,1.08-2.7,1.08c-1.333,0-2.989-0.918-2.989-2.862
		c0-2.106,1.656-2.81,2.989-2.81c1.152,0,2.178,0.379,2.7,1.026v-0.864c0-0.756-0.647-1.278-1.765-1.278
		c-0.863,0-1.729,0.343-2.43,0.937l-1.027-1.927c1.117-0.954,2.611-1.351,3.943-1.351c2.089,0,4.051,0.774,4.051,3.476v5.438
		H644.772z M644.772,90.647v-0.774c-0.288-0.414-0.937-0.612-1.548-0.612c-0.721,0-1.387,0.324-1.387,1.009
		c0,0.684,0.666,1.008,1.387,1.008C643.836,91.277,644.484,91.062,644.772,90.647z"/>
	<path fill="#FFFFFF" d="M648.641,88.522c0-2.719,2.018-4.556,4.736-4.556c1.891,0,3.043,0.829,3.564,1.603l-1.801,1.675
		c-0.342-0.504-0.9-0.828-1.639-0.828c-1.152,0-2.034,0.792-2.034,2.106s0.882,2.125,2.034,2.125c0.738,0,1.297-0.36,1.639-0.847
		l1.801,1.692c-0.521,0.757-1.674,1.603-3.564,1.603C650.658,93.096,648.641,91.241,648.641,88.522z"/>
	<path fill="#FFFFFF" d="M657.281,88.522c0-2.448,1.765-4.556,4.717-4.556c2.989,0,4.754,2.107,4.754,4.556
		c0,2.449-1.765,4.573-4.754,4.573C659.046,93.096,657.281,90.972,657.281,88.522z M663.907,88.522c0-1.152-0.685-2.106-1.909-2.106
		c-1.188,0-1.872,0.954-1.872,2.106c0,1.171,0.685,2.125,1.872,2.125C663.223,90.647,663.907,89.693,663.907,88.522z"/>
	<path fill="#FFFFFF" d="M678.812,92.88v-5.294c0-0.666-0.324-1.17-1.152-1.17c-0.756,0-1.297,0.486-1.566,0.846v5.618h-2.773
		v-5.294c0-0.666-0.306-1.17-1.134-1.17c-0.757,0-1.278,0.486-1.566,0.846v5.618h-2.772v-8.696h2.772v1.062
		c0.378-0.505,1.494-1.279,2.862-1.279c1.261,0,2.107,0.522,2.467,1.549c0.504-0.756,1.639-1.549,3.008-1.549
		c1.602,0,2.61,0.829,2.61,2.611v6.302H678.812z"/>
	<path fill="#FFFFFF" d="M688.368,92.88v-0.864c-0.54,0.648-1.585,1.08-2.7,1.08c-1.333,0-2.989-0.918-2.989-2.862
		c0-2.106,1.656-2.81,2.989-2.81c1.152,0,2.178,0.379,2.7,1.026v-0.864c0-0.756-0.647-1.278-1.765-1.278
		c-0.863,0-1.729,0.343-2.43,0.937l-1.027-1.927c1.117-0.954,2.611-1.351,3.943-1.351c2.089,0,4.051,0.774,4.051,3.476v5.438
		H688.368z M688.368,90.647v-0.774c-0.288-0.414-0.937-0.612-1.548-0.612c-0.721,0-1.387,0.324-1.387,1.009
		c0,0.684,0.666,1.008,1.387,1.008C687.432,91.277,688.08,91.062,688.368,90.647z"/>
	<path fill="#FFFFFF" d="M693.371,90.539v-3.961h-1.44v-2.395h1.44v-2.377h2.773v2.377h1.764v2.395h-1.764v3.187
		c0,0.505,0.287,0.883,0.756,0.883c0.306,0,0.611-0.108,0.702-0.216l0.54,2.088c-0.342,0.324-1.026,0.576-2.053,0.576
		C694.325,93.096,693.371,92.214,693.371,90.539z"/>
	<path fill="#FFFFFF" d="M698.357,88.522c0-2.448,1.764-4.556,4.717-4.556c2.988,0,4.754,2.107,4.754,4.556
		c0,2.449-1.766,4.573-4.754,4.573C700.121,93.096,698.357,90.972,698.357,88.522z M704.982,88.522c0-1.152-0.684-2.106-1.908-2.106
		c-1.188,0-1.873,0.954-1.873,2.106c0,1.171,0.685,2.125,1.873,2.125C704.299,90.647,704.982,89.693,704.982,88.522z"/>
	<path fill="#FFFFFF" d="M708.184,91.745l1.152-1.98c0.648,0.576,2.035,1.171,3.062,1.171c0.828,0,1.171-0.234,1.171-0.612
		c0-1.08-5.061,0.036-5.061-3.493c0-1.53,1.333-2.863,3.728-2.863c1.477,0,2.7,0.469,3.638,1.152l-1.062,1.963
		c-0.522-0.504-1.513-0.954-2.557-0.954c-0.648,0-1.081,0.252-1.081,0.594c0,0.955,5.042-0.036,5.042,3.529
		c0,1.656-1.459,2.845-3.943,2.845C710.705,93.096,709.103,92.574,708.184,91.745z"/>
	<path fill="#FFFFFF" d="M722.406,92.88v-0.864c-0.541,0.648-1.585,1.08-2.701,1.08c-1.332,0-2.988-0.918-2.988-2.862
		c0-2.106,1.656-2.81,2.988-2.81c1.152,0,2.179,0.379,2.701,1.026v-0.864c0-0.756-0.648-1.278-1.765-1.278
		c-0.864,0-1.729,0.343-2.431,0.937l-1.026-1.927c1.116-0.954,2.61-1.351,3.942-1.351c2.09,0,4.052,0.774,4.052,3.476v5.438H722.406
		z M722.406,90.647v-0.774c-0.289-0.414-0.937-0.612-1.549-0.612c-0.721,0-1.387,0.324-1.387,1.009c0,0.684,0.666,1.008,1.387,1.008
		C721.47,91.277,722.117,91.062,722.406,90.647z"/>
	<path fill="#FFFFFF" d="M625.765,114.479v-9.309h-3.367v-2.701h9.813v2.701h-3.35v9.309H625.765z"/>
	<path fill="#FFFFFF" d="M633.252,114.479v-8.696h2.772v1.062c0.576-0.703,1.692-1.297,2.719-1.297v2.665
		c-0.162-0.055-0.396-0.072-0.685-0.072c-0.72,0-1.674,0.306-2.034,0.792v5.546H633.252z"/>
	<path fill="#FFFFFF" d="M639.443,103.406c0-0.883,0.701-1.585,1.584-1.585s1.603,0.702,1.603,1.585c0,0.882-0.72,1.603-1.603,1.603
		S639.443,104.288,639.443,103.406z M639.641,114.479v-8.696h2.773v8.696H639.641z"/>
	<path fill="#FFFFFF" d="M643.493,110.122c0-2.935,1.639-4.556,3.835-4.556c0.973,0,1.873,0.396,2.557,1.225v-1.008h2.773v12.01
		h-2.773v-4.34c-0.72,0.864-1.602,1.242-2.557,1.242C645.132,114.695,643.493,113.075,643.493,110.122z M649.885,111.455v-2.647
		c-0.342-0.468-1.062-0.792-1.639-0.792c-1.098,0-1.926,0.811-1.926,2.106c0,1.314,0.828,2.125,1.926,2.125
		C648.822,112.247,649.561,111.904,649.885,111.455z"/>
	<path fill="#FFFFFF" d="M660.181,114.479v-1.044c-0.54,0.611-1.53,1.26-3.007,1.26c-1.963,0-2.863-1.134-2.863-2.719v-6.193h2.773
		v5.041c0,1.062,0.54,1.423,1.44,1.423c0.792,0,1.333-0.433,1.656-0.847v-5.617h2.772v8.696H660.181z"/>
	<path fill="#FFFFFF" d="M664.408,103.406c0-0.883,0.703-1.585,1.585-1.585s1.603,0.702,1.603,1.585
		c0,0.882-0.721,1.603-1.603,1.603S664.408,104.288,664.408,103.406z M664.607,114.479v-8.696h2.772v8.696H664.607z"/>
	<path fill="#FFFFFF" d="M674.166,114.479v-0.864c-0.541,0.648-1.585,1.08-2.701,1.08c-1.332,0-2.988-0.918-2.988-2.862
		c0-2.106,1.656-2.81,2.988-2.81c1.152,0,2.179,0.379,2.701,1.026v-0.864c0-0.756-0.648-1.278-1.765-1.278
		c-0.864,0-1.729,0.343-2.431,0.937l-1.026-1.927c1.116-0.954,2.61-1.351,3.942-1.351c2.09,0,4.052,0.774,4.052,3.476v5.438H674.166
		z M674.166,112.247v-0.774c-0.289-0.414-0.937-0.612-1.549-0.612c-0.721,0-1.387,0.324-1.387,1.009
		c0,0.684,0.666,1.008,1.387,1.008C673.229,112.877,673.877,112.661,674.166,112.247z"/>
	<path fill="#FFFFFF" d="M677.854,113.345l1.152-1.98c0.648,0.576,2.035,1.171,3.062,1.171c0.828,0,1.171-0.234,1.171-0.612
		c0-1.08-5.061,0.036-5.061-3.493c0-1.53,1.333-2.863,3.728-2.863c1.477,0,2.7,0.469,3.638,1.152l-1.062,1.963
		c-0.522-0.504-1.513-0.954-2.557-0.954c-0.648,0-1.081,0.252-1.081,0.594c0,0.955,5.042-0.036,5.042,3.529
		c0,1.656-1.459,2.845-3.943,2.845C680.375,114.695,678.772,114.174,677.854,113.345z"/>
	<path fill="#FFFFFF" d="M686.387,110.122c0-2.521,1.891-4.556,4.609-4.556c2.574,0,4.447,1.891,4.447,4.844v0.63h-6.194
		c0.198,0.774,0.919,1.423,2.179,1.423c0.612,0,1.621-0.271,2.125-0.738l1.206,1.818c-0.864,0.774-2.305,1.152-3.638,1.152
		C688.439,114.695,686.387,112.949,686.387,110.122z M690.996,107.8c-1.207,0-1.676,0.72-1.783,1.351h3.583
		C692.725,108.538,692.273,107.8,690.996,107.8z"/>
</g>
<polygon fill="#563779" stroke="#FFFFFF" stroke-width="2" stroke-miterlimit="10" points="411.491,65.5 384,38.009 384,0 192,0 
	192,137 384,137 384,92.991 "/>
<polygon fill="#653F91" stroke="#FFFFFF" stroke-width="2" stroke-miterlimit="10" points="219.491,65.5 192,38.009 192,0 0,0 
	0,137 192,137 192,92.991 "/>
<g>
	<path fill="#FFFFFF" d="M44.359,49.68V29.003h-7.479v-5.999h21.796v5.999h-7.439V49.68H44.359z"/>
	<path fill="#FFFFFF" d="M61.16,49.68V23.004h19.557v5.999H68.039v4.159h12.398v5.999H68.039V49.68H61.16z"/>
	<path fill="#FFFFFF" d="M39.764,71.279v-9.309h-3.367V59.27h9.813v2.701h-3.349v9.309H39.764z"/>
	<path fill="#FFFFFF" d="M47.251,71.279v-8.696h2.773v1.062c0.576-0.702,1.692-1.296,2.719-1.296v2.665
		c-0.162-0.055-0.396-0.072-0.684-0.072c-0.72,0-1.675,0.306-2.035,0.792v5.546H47.251z"/>
	<path fill="#FFFFFF" d="M58.772,71.279v-0.864c-0.54,0.648-1.584,1.08-2.701,1.08c-1.333,0-2.989-0.918-2.989-2.862
		c0-2.107,1.656-2.81,2.989-2.81c1.152,0,2.179,0.379,2.701,1.026v-0.864c0-0.756-0.648-1.278-1.764-1.278
		c-0.864,0-1.729,0.343-2.431,0.937l-1.026-1.927c1.116-0.954,2.61-1.351,3.943-1.351c2.089,0,4.051,0.774,4.051,3.476v5.438H58.772
		z M58.772,69.047v-0.774c-0.288-0.414-0.936-0.612-1.548-0.612c-0.72,0-1.386,0.324-1.386,1.009c0,0.684,0.666,1.008,1.386,1.008
		C57.836,69.677,58.484,69.461,58.772,69.047z"/>
	<path fill="#FFFFFF" d="M62.641,66.922c0-2.719,2.017-4.556,4.735-4.556c1.891,0,3.043,0.829,3.565,1.603l-1.8,1.675
		c-0.342-0.504-0.9-0.828-1.639-0.828c-1.152,0-2.035,0.792-2.035,2.106s0.882,2.125,2.035,2.125c0.738,0,1.296-0.36,1.639-0.847
		l1.8,1.692c-0.522,0.757-1.674,1.603-3.565,1.603C64.657,71.495,62.641,69.641,62.641,66.922z"/>
	<path fill="#FFFFFF" d="M71.281,66.922c0-2.448,1.765-4.556,4.717-4.556c2.989,0,4.753,2.107,4.753,4.556
		c0,2.449-1.765,4.573-4.753,4.573C73.045,71.495,71.281,69.371,71.281,66.922z M77.907,66.922c0-1.152-0.684-2.106-1.909-2.106
		c-1.188,0-1.873,0.954-1.873,2.106c0,1.171,0.684,2.125,1.873,2.125C77.223,69.047,77.907,68.093,77.907,66.922z"/>
	<path fill="#FFFFFF" d="M92.812,71.279v-5.294c0-0.666-0.324-1.17-1.152-1.17c-0.756,0-1.296,0.486-1.566,0.847v5.617H87.32v-5.294
		c0-0.666-0.306-1.17-1.134-1.17c-0.756,0-1.278,0.486-1.566,0.847v5.617h-2.773v-8.696h2.773v1.062
		c0.378-0.504,1.494-1.278,2.863-1.278c1.26,0,2.106,0.522,2.467,1.549c0.504-0.756,1.638-1.549,3.007-1.549
		c1.603,0,2.611,0.829,2.611,2.611v6.302H92.812z"/>
	<path fill="#FFFFFF" d="M102.368,71.279v-0.864c-0.54,0.648-1.584,1.08-2.701,1.08c-1.333,0-2.989-0.918-2.989-2.862
		c0-2.107,1.656-2.81,2.989-2.81c1.152,0,2.179,0.379,2.701,1.026v-0.864c0-0.756-0.648-1.278-1.764-1.278
		c-0.864,0-1.729,0.343-2.431,0.937l-1.026-1.927c1.116-0.954,2.61-1.351,3.943-1.351c2.089,0,4.051,0.774,4.051,3.476v5.438
		H102.368z M102.368,69.047v-0.774c-0.288-0.414-0.936-0.612-1.548-0.612c-0.72,0-1.386,0.324-1.386,1.009
		c0,0.684,0.666,1.008,1.386,1.008C101.432,69.677,102.08,69.461,102.368,69.047z"/>
	<path fill="#FFFFFF" d="M107.371,68.938v-3.961h-1.44v-2.395h1.44v-2.377h2.773v2.377h1.765v2.395h-1.765v3.187
		c0,0.505,0.288,0.883,0.756,0.883c0.306,0,0.612-0.108,0.703-0.217l0.54,2.089c-0.342,0.324-1.026,0.576-2.053,0.576
		C108.325,71.495,107.371,70.613,107.371,68.938z"/>
	<path fill="#FFFFFF" d="M112.356,66.922c0-2.448,1.765-4.556,4.717-4.556c2.989,0,4.753,2.107,4.753,4.556
		c0,2.449-1.765,4.573-4.753,4.573C114.121,71.495,112.356,69.371,112.356,66.922z M118.982,66.922c0-1.152-0.684-2.106-1.909-2.106
		c-1.188,0-1.873,0.954-1.873,2.106c0,1.171,0.684,2.125,1.873,2.125C118.298,69.047,118.982,68.093,118.982,66.922z"/>
	<path fill="#FFFFFF" d="M122.184,70.145l1.152-1.98c0.648,0.576,2.035,1.171,3.061,1.171c0.828,0,1.17-0.234,1.17-0.612
		c0-1.08-5.06,0.036-5.06-3.493c0-1.53,1.333-2.863,3.727-2.863c1.477,0,2.701,0.469,3.637,1.152l-1.062,1.963
		c-0.522-0.504-1.512-0.954-2.557-0.954c-0.648,0-1.081,0.252-1.081,0.594c0,0.955,5.042-0.035,5.042,3.529
		c0,1.656-1.458,2.845-3.943,2.845C124.705,71.495,123.102,70.974,122.184,70.145z"/>
	<path fill="#FFFFFF" d="M136.405,71.279v-0.864c-0.54,0.648-1.584,1.08-2.701,1.08c-1.333,0-2.989-0.918-2.989-2.862
		c0-2.107,1.656-2.81,2.989-2.81c1.152,0,2.179,0.379,2.701,1.026v-0.864c0-0.756-0.648-1.278-1.764-1.278
		c-0.864,0-1.729,0.343-2.431,0.937l-1.026-1.927c1.116-0.954,2.611-1.351,3.943-1.351c2.089,0,4.051,0.774,4.051,3.476v5.438
		H136.405z M136.405,69.047v-0.774c-0.288-0.414-0.936-0.612-1.548-0.612c-0.72,0-1.386,0.324-1.386,1.009
		c0,0.684,0.666,1.008,1.386,1.008C135.469,69.677,136.117,69.461,136.405,69.047z"/>
	<path fill="#FFFFFF" d="M37.081,92.88V80.87h3.097v12.01H37.081z"/>
	<path fill="#FFFFFF" d="M47.793,92.88v-5.023c0-1.062-0.558-1.44-1.422-1.44c-0.828,0-1.369,0.45-1.692,0.846v5.618h-2.773v-8.696
		h2.773v1.062c0.522-0.612,1.548-1.279,3.025-1.279c1.962,0,2.863,1.152,2.863,2.755v6.158H47.793z"/>
	<path fill="#FFFFFF" d="M52.813,92.88v-6.302h-1.44v-2.395h1.44v-0.198c0-2.161,1.386-3.295,3.115-3.295
		c0.756,0,1.404,0.107,1.854,0.342l-0.54,2.07c-0.162-0.126-0.432-0.18-0.738-0.18c-0.504,0-0.918,0.342-0.918,1.062v0.198h1.764
		v2.395h-1.764v6.302H52.813z M58.502,92.88V80.87h2.773v12.01H58.502z"/>
	<path fill="#FFFFFF" d="M68.06,92.88v-0.864c-0.54,0.648-1.584,1.08-2.701,1.08c-1.333,0-2.989-0.918-2.989-2.862
		c0-2.106,1.656-2.81,2.989-2.81c1.152,0,2.179,0.379,2.701,1.026v-0.864c0-0.756-0.648-1.278-1.764-1.278
		c-0.864,0-1.729,0.343-2.431,0.937l-1.026-1.927c1.116-0.954,2.61-1.351,3.943-1.351c2.089,0,4.051,0.774,4.051,3.476v5.438H68.06z
		 M68.06,90.647v-0.774c-0.288-0.414-0.936-0.612-1.548-0.612c-0.72,0-1.386,0.324-1.386,1.009c0,0.684,0.666,1.008,1.386,1.008
		C67.124,91.277,67.772,91.062,68.06,90.647z"/>
	<path fill="#FFFFFF" d="M83.452,92.88v-5.294c0-0.666-0.324-1.17-1.152-1.17c-0.756,0-1.296,0.486-1.566,0.846v5.618H77.96v-5.294
		c0-0.666-0.306-1.17-1.134-1.17c-0.756,0-1.278,0.486-1.566,0.846v5.618h-2.773v-8.696h2.773v1.062
		c0.378-0.505,1.494-1.279,2.863-1.279c1.26,0,2.106,0.522,2.467,1.549c0.504-0.756,1.638-1.549,3.007-1.549
		c1.603,0,2.611,0.829,2.611,2.611v6.302H83.452z"/>
	<path fill="#FFFFFF" d="M93.008,92.88v-0.864c-0.54,0.648-1.584,1.08-2.701,1.08c-1.333,0-2.989-0.918-2.989-2.862
		c0-2.106,1.656-2.81,2.989-2.81c1.152,0,2.179,0.379,2.701,1.026v-0.864c0-0.756-0.648-1.278-1.764-1.278
		c-0.864,0-1.729,0.343-2.431,0.937l-1.026-1.927c1.116-0.954,2.61-1.351,3.943-1.351c2.089,0,4.051,0.774,4.051,3.476v5.438H93.008
		z M93.008,90.647v-0.774c-0.288-0.414-0.936-0.612-1.548-0.612c-0.72,0-1.386,0.324-1.386,1.009c0,0.684,0.666,1.008,1.386,1.008
		C92.072,91.277,92.72,91.062,93.008,90.647z"/>
	<path fill="#FFFFFF" d="M99.631,95.814l0.504-1.044c0.468,0.342,0.99,0.54,1.477,0.54c0.432,0,0.846-0.162,0.846-0.504
		c0-0.252-0.162-0.396-0.45-0.396c-0.216,0-0.396,0.09-0.522,0.234l-0.937-0.54l0.378-1.045c-2.359-0.27-4.051-2.052-4.051-4.537
		c0-2.719,2.017-4.556,4.735-4.556c1.891,0,3.043,0.829,3.565,1.603l-1.8,1.675c-0.342-0.504-0.9-0.828-1.639-0.828
		c-1.152,0-2.035,0.792-2.035,2.106s0.882,2.125,2.035,2.125c0.738,0,1.296-0.36,1.639-0.847l1.8,1.692
		c-0.468,0.685-1.44,1.423-2.989,1.566l-0.27,0.667c0.18-0.108,0.378-0.181,0.612-0.181c0.666,0,1.224,0.54,1.224,1.297
		c0,0.99-0.936,1.566-2.071,1.566C100.784,96.409,100.009,96.121,99.631,95.814z"/>
	<path fill="#FFFFFF" d="M111.206,92.88v-0.864c-0.54,0.648-1.584,1.08-2.701,1.08c-1.333,0-2.989-0.918-2.989-2.862
		c0-2.106,1.656-2.81,2.989-2.81c1.152,0,2.179,0.379,2.701,1.026v-0.864c0-0.756-0.648-1.278-1.764-1.278
		c-0.864,0-1.729,0.343-2.431,0.937l-1.026-1.927c1.116-0.954,2.611-1.351,3.943-1.351c2.089,0,4.051,0.774,4.051,3.476v5.438
		H111.206z M108.919,81.915c-0.288,0-0.54,0.27-0.54,0.882h-1.404c0-1.603,0.702-2.413,2.035-2.413c1.152,0,1.458,0.99,2.034,0.99
		c0.288,0,0.541-0.27,0.541-0.882h1.404c0,1.584-0.702,2.413-2.035,2.413C109.802,82.905,109.496,81.915,108.919,81.915z
		 M111.206,90.647v-0.774c-0.288-0.414-0.936-0.612-1.548-0.612c-0.72,0-1.386,0.324-1.386,1.009c0,0.684,0.666,1.008,1.386,1.008
		C110.27,91.277,110.918,91.062,111.206,90.647z"/>
	<path fill="#FFFFFF" d="M115.075,88.522c0-2.448,1.765-4.556,4.717-4.556c2.989,0,4.753,2.107,4.753,4.556
		c0,2.449-1.765,4.573-4.753,4.573C116.839,93.096,115.075,90.972,115.075,88.522z M121.701,88.522c0-1.152-0.684-2.106-1.909-2.106
		c-1.188,0-1.873,0.954-1.873,2.106c0,1.171,0.684,2.125,1.873,2.125C121.017,90.647,121.701,89.693,121.701,88.522z"/>
	<path fill="#FFFFFF" d="M36.541,111.274v-2.322h9.597v2.322H36.541z"/>
	<path fill="#FFFFFF" d="M51.643,114.479v-12.01h8.805v2.701H54.74v1.872h5.582v2.701H54.74v4.735H51.643z"/>
	<path fill="#FFFFFF" d="M61.128,110.122c0-2.448,1.765-4.556,4.717-4.556c2.989,0,4.753,2.107,4.753,4.556
		c0,2.449-1.765,4.573-4.753,4.573C62.893,114.695,61.128,112.571,61.128,110.122z M67.754,110.122c0-1.152-0.684-2.106-1.909-2.106
		c-1.188,0-1.873,0.954-1.873,2.106c0,1.171,0.684,2.125,1.873,2.125C67.07,112.247,67.754,111.293,67.754,110.122z"/>
	<path fill="#FFFFFF" d="M71.694,114.479v-12.01h2.773v12.01H71.694z"/>
	<path fill="#FFFFFF" d="M75.924,103.406c0-0.883,0.703-1.585,1.584-1.585c0.882,0,1.603,0.702,1.603,1.585
		c0,0.882-0.72,1.603-1.603,1.603C76.627,105.009,75.924,104.288,75.924,103.406z M76.123,114.479v-8.696h2.773v8.696H76.123z"/>
	<path fill="#FFFFFF" d="M79.992,110.122c0-2.719,2.017-4.556,4.735-4.556c1.891,0,3.043,0.829,3.565,1.603l-1.8,1.675
		c-0.342-0.504-0.9-0.828-1.639-0.828c-1.152,0-2.035,0.792-2.035,2.106s0.882,2.125,2.035,2.125c0.738,0,1.296-0.36,1.639-0.847
		l1.8,1.692c-0.522,0.757-1.674,1.603-3.565,1.603C82.009,114.695,79.992,112.841,79.992,110.122z"/>
	<path fill="#FFFFFF" d="M95.06,114.479v-1.044c-0.54,0.611-1.53,1.26-3.007,1.26c-1.962,0-2.863-1.134-2.863-2.719v-6.193h2.773
		v5.041c0,1.062,0.54,1.423,1.44,1.423c0.792,0,1.333-0.433,1.656-0.847v-5.617h2.773v8.696H95.06z"/>
	<path fill="#FFFFFF" d="M99.486,114.479v-12.01h2.773v12.01H99.486z"/>
	<path fill="#FFFFFF" d="M109.045,114.479v-0.864c-0.54,0.648-1.584,1.08-2.701,1.08c-1.333,0-2.989-0.918-2.989-2.862
		c0-2.106,1.656-2.81,2.989-2.81c1.152,0,2.179,0.379,2.701,1.026v-0.864c0-0.756-0.648-1.278-1.764-1.278
		c-0.864,0-1.729,0.343-2.431,0.937l-1.026-1.927c1.116-0.954,2.611-1.351,3.943-1.351c2.089,0,4.051,0.774,4.051,3.476v5.438
		H109.045z M109.045,112.247v-0.774c-0.288-0.414-0.936-0.612-1.548-0.612c-0.72,0-1.386,0.324-1.386,1.009
		c0,0.684,0.666,1.008,1.386,1.008C108.109,112.877,108.757,112.661,109.045,112.247z"/>
	<path fill="#FFFFFF" d="M113.472,114.479v-8.696h2.773v1.062c0.576-0.703,1.692-1.297,2.719-1.297v2.665
		c-0.162-0.055-0.396-0.072-0.684-0.072c-0.72,0-1.675,0.306-2.035,0.792v5.546H113.472z"/>
</g>
<g>
	<path fill="#FFFFFF" d="M246.36,49.68V29.003h-7.479v-5.999h21.796v5.999h-7.439V49.68H246.36z"/>
	<path fill="#FFFFFF" d="M263.161,49.68V23.004h6.879V49.68H263.161z"/>
	<path fill="#FFFFFF" d="M241.765,71.279v-9.309h-3.367V59.27h9.813v2.701h-3.349v9.309H241.765z"/>
	<path fill="#FFFFFF" d="M249.251,71.279v-8.696h2.773v1.062c0.576-0.702,1.692-1.296,2.719-1.296v2.665
		c-0.162-0.055-0.396-0.072-0.684-0.072c-0.72,0-1.675,0.306-2.035,0.792v5.546H249.251z"/>
	<path fill="#FFFFFF" d="M260.772,71.279v-0.864c-0.54,0.648-1.584,1.08-2.701,1.08c-1.333,0-2.989-0.918-2.989-2.862
		c0-2.107,1.656-2.81,2.989-2.81c1.152,0,2.179,0.379,2.701,1.026v-0.864c0-0.756-0.648-1.278-1.764-1.278
		c-0.864,0-1.729,0.343-2.431,0.937l-1.026-1.927c1.116-0.954,2.61-1.351,3.943-1.351c2.089,0,4.051,0.774,4.051,3.476v5.438
		H260.772z M260.772,69.047v-0.774c-0.288-0.414-0.936-0.612-1.548-0.612c-0.72,0-1.386,0.324-1.386,1.009
		c0,0.684,0.666,1.008,1.386,1.008C259.836,69.677,260.484,69.461,260.772,69.047z"/>
	<path fill="#FFFFFF" d="M264.641,66.922c0-2.719,2.017-4.556,4.735-4.556c1.891,0,3.043,0.829,3.565,1.603l-1.8,1.675
		c-0.342-0.504-0.9-0.828-1.639-0.828c-1.152,0-2.035,0.792-2.035,2.106s0.882,2.125,2.035,2.125c0.738,0,1.296-0.36,1.639-0.847
		l1.8,1.692c-0.522,0.757-1.674,1.603-3.565,1.603C266.658,71.495,264.641,69.641,264.641,66.922z"/>
	<path fill="#FFFFFF" d="M273.281,66.922c0-2.448,1.765-4.556,4.717-4.556c2.989,0,4.753,2.107,4.753,4.556
		c0,2.449-1.765,4.573-4.753,4.573C275.046,71.495,273.281,69.371,273.281,66.922z M279.907,66.922c0-1.152-0.684-2.106-1.909-2.106
		c-1.188,0-1.873,0.954-1.873,2.106c0,1.171,0.684,2.125,1.873,2.125C279.223,69.047,279.907,68.093,279.907,66.922z"/>
	<path fill="#FFFFFF" d="M294.812,71.279v-5.294c0-0.666-0.324-1.17-1.152-1.17c-0.756,0-1.296,0.486-1.566,0.847v5.617h-2.773
		v-5.294c0-0.666-0.306-1.17-1.134-1.17c-0.756,0-1.278,0.486-1.566,0.847v5.617h-2.773v-8.696h2.773v1.062
		c0.378-0.504,1.494-1.278,2.863-1.278c1.26,0,2.106,0.522,2.467,1.549c0.504-0.756,1.638-1.549,3.007-1.549
		c1.603,0,2.611,0.829,2.611,2.611v6.302H294.812z"/>
	<path fill="#FFFFFF" d="M304.368,71.279v-0.864c-0.54,0.648-1.584,1.08-2.701,1.08c-1.333,0-2.989-0.918-2.989-2.862
		c0-2.107,1.656-2.81,2.989-2.81c1.152,0,2.179,0.379,2.701,1.026v-0.864c0-0.756-0.648-1.278-1.764-1.278
		c-0.864,0-1.729,0.343-2.431,0.937l-1.026-1.927c1.116-0.954,2.61-1.351,3.943-1.351c2.089,0,4.051,0.774,4.051,3.476v5.438
		H304.368z M304.368,69.047v-0.774c-0.288-0.414-0.936-0.612-1.548-0.612c-0.72,0-1.386,0.324-1.386,1.009
		c0,0.684,0.666,1.008,1.386,1.008C303.432,69.677,304.08,69.461,304.368,69.047z"/>
	<path fill="#FFFFFF" d="M309.371,68.938v-3.961h-1.44v-2.395h1.44v-2.377h2.773v2.377h1.765v2.395h-1.765v3.187
		c0,0.505,0.288,0.883,0.756,0.883c0.306,0,0.612-0.108,0.703-0.217l0.54,2.089c-0.342,0.324-1.026,0.576-2.053,0.576
		C310.325,71.495,309.371,70.613,309.371,68.938z"/>
	<path fill="#FFFFFF" d="M314.357,66.922c0-2.448,1.765-4.556,4.717-4.556c2.989,0,4.753,2.107,4.753,4.556
		c0,2.449-1.765,4.573-4.753,4.573C316.122,71.495,314.357,69.371,314.357,66.922z M320.983,66.922c0-1.152-0.684-2.106-1.909-2.106
		c-1.188,0-1.873,0.954-1.873,2.106c0,1.171,0.684,2.125,1.873,2.125C320.299,69.047,320.983,68.093,320.983,66.922z"/>
	<path fill="#FFFFFF" d="M324.184,70.145l1.152-1.98c0.648,0.576,2.035,1.171,3.061,1.171c0.828,0,1.17-0.234,1.17-0.612
		c0-1.08-5.06,0.036-5.06-3.493c0-1.53,1.333-2.863,3.727-2.863c1.477,0,2.701,0.469,3.637,1.152l-1.062,1.963
		c-0.522-0.504-1.512-0.954-2.557-0.954c-0.648,0-1.081,0.252-1.081,0.594c0,0.955,5.042-0.035,5.042,3.529
		c0,1.656-1.458,2.845-3.943,2.845C326.705,71.495,325.103,70.974,324.184,70.145z"/>
	<path fill="#FFFFFF" d="M338.406,71.279v-0.864c-0.54,0.648-1.584,1.08-2.701,1.08c-1.333,0-2.989-0.918-2.989-2.862
		c0-2.107,1.656-2.81,2.989-2.81c1.152,0,2.179,0.379,2.701,1.026v-0.864c0-0.756-0.648-1.278-1.764-1.278
		c-0.864,0-1.729,0.343-2.431,0.937l-1.026-1.927c1.116-0.954,2.611-1.351,3.943-1.351c2.089,0,4.051,0.774,4.051,3.476v5.438
		H338.406z M338.406,69.047v-0.774c-0.288-0.414-0.936-0.612-1.548-0.612c-0.72,0-1.386,0.324-1.386,1.009
		c0,0.684,0.666,1.008,1.386,1.008C337.47,69.677,338.118,69.461,338.406,69.047z"/>
	<path fill="#FFFFFF" d="M239.082,92.88V80.87h3.097v12.01H239.082z"/>
	<path fill="#FFFFFF" d="M249.793,92.88v-5.023c0-1.062-0.558-1.44-1.422-1.44c-0.828,0-1.369,0.45-1.692,0.846v5.618h-2.773v-8.696
		h2.773v1.062c0.522-0.612,1.548-1.279,3.025-1.279c1.962,0,2.863,1.152,2.863,2.755v6.158H249.793z"/>
	<path fill="#FFFFFF" d="M254.813,92.88v-6.302h-1.44v-2.395h1.44v-0.198c0-2.161,1.386-3.295,3.115-3.295
		c0.756,0,1.404,0.107,1.854,0.342l-0.54,2.07c-0.162-0.126-0.432-0.18-0.738-0.18c-0.504,0-0.918,0.342-0.918,1.062v0.198h1.764
		v2.395h-1.764v6.302H254.813z M260.503,92.88V80.87h2.773v12.01H260.503z"/>
	<path fill="#FFFFFF" d="M270.061,92.88v-0.864c-0.54,0.648-1.584,1.08-2.701,1.08c-1.333,0-2.989-0.918-2.989-2.862
		c0-2.106,1.656-2.81,2.989-2.81c1.152,0,2.179,0.379,2.701,1.026v-0.864c0-0.756-0.648-1.278-1.764-1.278
		c-0.864,0-1.729,0.343-2.431,0.937l-1.026-1.927c1.116-0.954,2.61-1.351,3.943-1.351c2.089,0,4.051,0.774,4.051,3.476v5.438
		H270.061z M270.061,90.647v-0.774c-0.288-0.414-0.936-0.612-1.548-0.612c-0.72,0-1.386,0.324-1.386,1.009
		c0,0.684,0.666,1.008,1.386,1.008C269.125,91.277,269.772,91.062,270.061,90.647z"/>
	<path fill="#FFFFFF" d="M285.453,92.88v-5.294c0-0.666-0.324-1.17-1.152-1.17c-0.756,0-1.296,0.486-1.566,0.846v5.618h-2.773
		v-5.294c0-0.666-0.306-1.17-1.134-1.17c-0.756,0-1.278,0.486-1.566,0.846v5.618h-2.773v-8.696h2.773v1.062
		c0.378-0.505,1.494-1.279,2.863-1.279c1.26,0,2.106,0.522,2.467,1.549c0.504-0.756,1.638-1.549,3.007-1.549
		c1.603,0,2.611,0.829,2.611,2.611v6.302H285.453z"/>
	<path fill="#FFFFFF" d="M295.009,92.88v-0.864c-0.54,0.648-1.584,1.08-2.701,1.08c-1.333,0-2.989-0.918-2.989-2.862
		c0-2.106,1.656-2.81,2.989-2.81c1.152,0,2.179,0.379,2.701,1.026v-0.864c0-0.756-0.648-1.278-1.764-1.278
		c-0.864,0-1.729,0.343-2.431,0.937l-1.026-1.927c1.116-0.954,2.61-1.351,3.943-1.351c2.089,0,4.051,0.774,4.051,3.476v5.438
		H295.009z M295.009,90.647v-0.774c-0.288-0.414-0.936-0.612-1.548-0.612c-0.72,0-1.386,0.324-1.386,1.009
		c0,0.684,0.666,1.008,1.386,1.008C294.073,91.277,294.721,91.062,295.009,90.647z"/>
	<path fill="#FFFFFF" d="M301.632,95.814l0.504-1.044c0.468,0.342,0.99,0.54,1.477,0.54c0.432,0,0.846-0.162,0.846-0.504
		c0-0.252-0.162-0.396-0.45-0.396c-0.216,0-0.396,0.09-0.522,0.234l-0.937-0.54l0.378-1.045c-2.359-0.27-4.051-2.052-4.051-4.537
		c0-2.719,2.017-4.556,4.735-4.556c1.891,0,3.043,0.829,3.565,1.603l-1.8,1.675c-0.342-0.504-0.9-0.828-1.639-0.828
		c-1.152,0-2.035,0.792-2.035,2.106s0.882,2.125,2.035,2.125c0.738,0,1.296-0.36,1.639-0.847l1.8,1.692
		c-0.468,0.685-1.44,1.423-2.989,1.566l-0.27,0.667c0.18-0.108,0.378-0.181,0.612-0.181c0.666,0,1.224,0.54,1.224,1.297
		c0,0.99-0.936,1.566-2.071,1.566C302.784,96.409,302.01,96.121,301.632,95.814z"/>
	<path fill="#FFFFFF" d="M313.207,92.88v-0.864c-0.54,0.648-1.584,1.08-2.701,1.08c-1.333,0-2.989-0.918-2.989-2.862
		c0-2.106,1.656-2.81,2.989-2.81c1.152,0,2.179,0.379,2.701,1.026v-0.864c0-0.756-0.648-1.278-1.764-1.278
		c-0.864,0-1.729,0.343-2.431,0.937l-1.026-1.927c1.116-0.954,2.611-1.351,3.943-1.351c2.089,0,4.051,0.774,4.051,3.476v5.438
		H313.207z M310.92,81.915c-0.288,0-0.54,0.27-0.54,0.882h-1.404c0-1.603,0.702-2.413,2.035-2.413c1.152,0,1.458,0.99,2.034,0.99
		c0.288,0,0.541-0.27,0.541-0.882h1.404c0,1.584-0.702,2.413-2.035,2.413C311.802,82.905,311.496,81.915,310.92,81.915z
		 M313.207,90.647v-0.774c-0.288-0.414-0.936-0.612-1.548-0.612c-0.72,0-1.386,0.324-1.386,1.009c0,0.684,0.666,1.008,1.386,1.008
		C312.271,91.277,312.918,91.062,313.207,90.647z"/>
	<path fill="#FFFFFF" d="M317.075,88.522c0-2.448,1.765-4.556,4.717-4.556c2.989,0,4.753,2.107,4.753,4.556
		c0,2.449-1.765,4.573-4.753,4.573C318.84,93.096,317.075,90.972,317.075,88.522z M323.701,88.522c0-1.152-0.684-2.106-1.909-2.106
		c-1.188,0-1.873,0.954-1.873,2.106c0,1.171,0.684,2.125,1.873,2.125C323.017,90.647,323.701,89.693,323.701,88.522z"/>
	<path fill="#FFFFFF" d="M238.542,111.274v-2.322h9.597v2.322H238.542z"/>
	<path fill="#FFFFFF" d="M253.643,114.479v-12.01h3.097v12.01H253.643z"/>
	<path fill="#FFFFFF" d="M264.355,114.479v-5.023c0-1.062-0.558-1.44-1.422-1.44c-0.828,0-1.369,0.45-1.692,0.846v5.618h-2.773
		v-8.696h2.773v1.062c0.522-0.612,1.548-1.279,3.025-1.279c1.962,0,2.863,1.152,2.863,2.755v6.158H264.355z"/>
	<path fill="#FFFFFF" d="M269.357,112.139v-3.961h-1.44v-2.395h1.44v-2.377h2.773v2.377h1.765v2.395h-1.765v3.187
		c0,0.505,0.288,0.883,0.756,0.883c0.306,0,0.612-0.108,0.703-0.216l0.54,2.088c-0.342,0.324-1.026,0.576-2.053,0.576
		C270.312,114.695,269.357,113.813,269.357,112.139z"/>
	<path fill="#FFFFFF" d="M274.343,110.122c0-2.521,1.891-4.556,4.609-4.556c2.575,0,4.447,1.891,4.447,4.844v0.63h-6.194
		c0.198,0.774,0.918,1.423,2.179,1.423c0.612,0,1.621-0.271,2.125-0.738l1.207,1.818c-0.864,0.774-2.305,1.152-3.637,1.152
		C276.396,114.695,274.343,112.949,274.343,110.122z M278.953,107.8c-1.207,0-1.675,0.72-1.783,1.351h3.583
		C280.681,108.538,280.231,107.8,278.953,107.8z"/>
	<path fill="#FFFFFF" d="M290.292,114.479v-5.023c0-1.062-0.558-1.44-1.422-1.44c-0.828,0-1.369,0.45-1.692,0.846v5.618h-2.773
		v-8.696h2.773v1.062c0.522-0.612,1.548-1.279,3.025-1.279c1.962,0,2.863,1.152,2.863,2.755v6.158H290.292z"/>
	<path fill="#FFFFFF" d="M293.98,113.345l1.152-1.98c0.648,0.576,2.035,1.171,3.061,1.171c0.828,0,1.17-0.234,1.17-0.612
		c0-1.08-5.06,0.036-5.06-3.493c0-1.53,1.333-2.863,3.727-2.863c1.477,0,2.701,0.469,3.637,1.152l-1.062,1.963
		c-0.522-0.504-1.512-0.954-2.557-0.954c-0.648,0-1.081,0.252-1.081,0.594c0,0.955,5.042-0.036,5.042,3.529
		c0,1.656-1.458,2.845-3.943,2.845C296.501,114.695,294.899,114.174,293.98,113.345z"/>
	<path fill="#FFFFFF" d="M302.513,110.122c0-2.448,1.765-4.556,4.717-4.556c2.989,0,4.753,2.107,4.753,4.556
		c0,2.449-1.765,4.573-4.753,4.573C304.277,114.695,302.513,112.571,302.513,110.122z M309.139,110.122
		c0-1.152-0.684-2.106-1.909-2.106c-1.188,0-1.873,0.954-1.873,2.106c0,1.171,0.684,2.125,1.873,2.125
		C308.455,112.247,309.139,111.293,309.139,110.122z"/>
</g>
<g>
	<path fill="#FFFFFF" d="M438.36,49.68V29.003h-7.479v-5.999h21.796v5.999h-7.439V49.68H438.36z"/>
	<path fill="#FFFFFF" d="M453.241,45.92l3.639-5.358c1.92,1.919,4.879,3.52,8.559,3.52c2.32,0,3.759-0.8,3.759-2.12
		c0-3.52-15.077-0.6-15.077-10.878c0-4.479,3.759-8.479,10.598-8.479c4.279,0,7.999,1.28,10.838,3.72l-3.76,5.159
		c-2.239-1.879-5.159-2.799-7.798-2.799c-2,0-2.88,0.68-2.88,1.84c0,3.28,15.078,0.8,15.078,10.718
		c0,5.359-3.959,8.918-11.118,8.918C459.68,50.159,455.921,48.439,453.241,45.92z"/>
	<path fill="#FFFFFF" d="M433.765,92.88v-9.309h-3.367V80.87h9.813v2.701h-3.349v9.309H433.765z"/>
	<path fill="#FFFFFF" d="M441.251,92.88v-8.696h2.773v1.062c0.576-0.703,1.692-1.297,2.719-1.297v2.665
		c-0.162-0.055-0.396-0.072-0.684-0.072c-0.72,0-1.675,0.306-2.035,0.792v5.546H441.251z"/>
	<path fill="#FFFFFF" d="M452.772,92.88v-0.864c-0.54,0.648-1.584,1.08-2.701,1.08c-1.333,0-2.989-0.918-2.989-2.862
		c0-2.106,1.656-2.81,2.989-2.81c1.152,0,2.179,0.379,2.701,1.026v-0.864c0-0.756-0.648-1.278-1.764-1.278
		c-0.864,0-1.729,0.343-2.431,0.937l-1.026-1.927c1.116-0.954,2.61-1.351,3.943-1.351c2.089,0,4.051,0.774,4.051,3.476v5.438
		H452.772z M452.772,90.647v-0.774c-0.288-0.414-0.936-0.612-1.548-0.612c-0.72,0-1.386,0.324-1.386,1.009
		c0,0.684,0.666,1.008,1.386,1.008C451.836,91.277,452.484,91.062,452.772,90.647z"/>
	<path fill="#FFFFFF" d="M456.641,88.522c0-2.719,2.017-4.556,4.735-4.556c1.891,0,3.043,0.829,3.565,1.603l-1.8,1.675
		c-0.342-0.504-0.9-0.828-1.639-0.828c-1.152,0-2.035,0.792-2.035,2.106s0.882,2.125,2.035,2.125c0.738,0,1.296-0.36,1.639-0.847
		l1.8,1.692c-0.522,0.757-1.674,1.603-3.565,1.603C458.658,93.096,456.641,91.241,456.641,88.522z"/>
	<path fill="#FFFFFF" d="M465.281,88.522c0-2.448,1.765-4.556,4.717-4.556c2.989,0,4.753,2.107,4.753,4.556
		c0,2.449-1.765,4.573-4.753,4.573C467.046,93.096,465.281,90.972,465.281,88.522z M471.907,88.522c0-1.152-0.684-2.106-1.909-2.106
		c-1.188,0-1.873,0.954-1.873,2.106c0,1.171,0.684,2.125,1.873,2.125C471.223,90.647,471.907,89.693,471.907,88.522z"/>
	<path fill="#FFFFFF" d="M486.812,92.88v-5.294c0-0.666-0.324-1.17-1.152-1.17c-0.756,0-1.297,0.486-1.566,0.846v5.618h-2.773
		v-5.294c0-0.666-0.306-1.17-1.134-1.17c-0.756,0-1.278,0.486-1.566,0.846v5.618h-2.773v-8.696h2.773v1.062
		c0.378-0.505,1.494-1.279,2.862-1.279c1.261,0,2.107,0.522,2.467,1.549c0.504-0.756,1.639-1.549,3.008-1.549
		c1.602,0,2.61,0.829,2.61,2.611v6.302H486.812z"/>
	<path fill="#FFFFFF" d="M496.368,92.88v-0.864c-0.54,0.648-1.585,1.08-2.7,1.08c-1.333,0-2.989-0.918-2.989-2.862
		c0-2.106,1.656-2.81,2.989-2.81c1.152,0,2.178,0.379,2.7,1.026v-0.864c0-0.756-0.647-1.278-1.765-1.278
		c-0.863,0-1.729,0.343-2.43,0.937l-1.027-1.927c1.117-0.954,2.611-1.351,3.943-1.351c2.089,0,4.051,0.774,4.051,3.476v5.438
		H496.368z M496.368,90.647v-0.774c-0.288-0.414-0.937-0.612-1.548-0.612c-0.721,0-1.387,0.324-1.387,1.009
		c0,0.684,0.666,1.008,1.387,1.008C495.432,91.277,496.08,91.062,496.368,90.647z"/>
	<path fill="#FFFFFF" d="M501.371,90.539v-3.961h-1.44v-2.395h1.44v-2.377h2.773v2.377h1.764v2.395h-1.764v3.187
		c0,0.505,0.287,0.883,0.756,0.883c0.306,0,0.611-0.108,0.702-0.216l0.54,2.088c-0.342,0.324-1.026,0.576-2.053,0.576
		C502.325,93.096,501.371,92.214,501.371,90.539z"/>
	<path fill="#FFFFFF" d="M506.357,88.522c0-2.448,1.764-4.556,4.717-4.556c2.988,0,4.754,2.107,4.754,4.556
		c0,2.449-1.766,4.573-4.754,4.573C508.121,93.096,506.357,90.972,506.357,88.522z M512.982,88.522c0-1.152-0.684-2.106-1.908-2.106
		c-1.188,0-1.873,0.954-1.873,2.106c0,1.171,0.685,2.125,1.873,2.125C512.299,90.647,512.982,89.693,512.982,88.522z"/>
	<path fill="#FFFFFF" d="M516.184,91.745l1.152-1.98c0.648,0.576,2.035,1.171,3.062,1.171c0.828,0,1.171-0.234,1.171-0.612
		c0-1.08-5.061,0.036-5.061-3.493c0-1.53,1.333-2.863,3.728-2.863c1.477,0,2.7,0.469,3.638,1.152l-1.062,1.963
		c-0.522-0.504-1.513-0.954-2.557-0.954c-0.648,0-1.081,0.252-1.081,0.594c0,0.955,5.042-0.036,5.042,3.529
		c0,1.656-1.459,2.845-3.943,2.845C518.705,93.096,517.103,92.574,516.184,91.745z"/>
	<path fill="#FFFFFF" d="M530.406,92.88v-0.864c-0.541,0.648-1.585,1.08-2.701,1.08c-1.332,0-2.988-0.918-2.988-2.862
		c0-2.106,1.656-2.81,2.988-2.81c1.152,0,2.179,0.379,2.701,1.026v-0.864c0-0.756-0.648-1.278-1.765-1.278
		c-0.864,0-1.729,0.343-2.431,0.937l-1.026-1.927c1.116-0.954,2.61-1.351,3.942-1.351c2.09,0,4.052,0.774,4.052,3.476v5.438H530.406
		z M530.406,90.647v-0.774c-0.289-0.414-0.937-0.612-1.549-0.612c-0.721,0-1.387,0.324-1.387,1.009c0,0.684,0.666,1.008,1.387,1.008
		C529.47,91.277,530.117,91.062,530.406,90.647z"/>
	<path fill="#FFFFFF" d="M430.47,108.483c0-3.709,2.809-6.212,6.5-6.212c2.899,0,4.465,1.639,5.239,3.205l-2.665,1.278
		c-0.396-0.954-1.422-1.746-2.575-1.746c-1.963,0-3.349,1.494-3.349,3.475c0,1.963,1.386,3.476,3.349,3.476
		c1.152,0,2.178-0.793,2.575-1.747l2.665,1.261c-0.774,1.53-2.34,3.223-5.239,3.223C433.278,114.695,430.47,112.175,430.47,108.483z
		"/>
	<path fill="#FFFFFF" d="M442.907,103.406c0-0.883,0.703-1.585,1.584-1.585c0.882,0,1.603,0.702,1.603,1.585
		c0,0.882-0.72,1.603-1.603,1.603C443.61,105.009,442.907,104.288,442.907,103.406z M443.105,114.479v-8.696h2.773v8.696H443.105z"
		/>
	<path fill="#FFFFFF" d="M446.975,110.122c0-2.719,2.017-4.556,4.735-4.556c1.891,0,3.043,0.829,3.565,1.603l-1.8,1.675
		c-0.342-0.504-0.9-0.828-1.639-0.828c-1.152,0-2.035,0.792-2.035,2.106s0.882,2.125,2.035,2.125c0.738,0,1.296-0.36,1.639-0.847
		l1.8,1.692c-0.522,0.757-1.674,1.603-3.565,1.603C448.991,114.695,446.975,112.841,446.975,110.122z"/>
	<path fill="#FFFFFF" d="M461.304,114.479v-0.864c-0.54,0.648-1.584,1.08-2.701,1.08c-1.333,0-2.989-0.918-2.989-2.862
		c0-2.106,1.656-2.81,2.989-2.81c1.152,0,2.179,0.379,2.701,1.026v-0.864c0-0.756-0.648-1.278-1.764-1.278
		c-0.864,0-1.729,0.343-2.431,0.937l-1.026-1.927c1.116-0.954,2.611-1.351,3.943-1.351c2.089,0,4.051,0.774,4.051,3.476v5.438
		H461.304z M461.304,112.247v-0.774c-0.288-0.414-0.936-0.612-1.548-0.612c-0.72,0-1.386,0.324-1.386,1.009
		c0,0.684,0.666,1.008,1.386,1.008C460.368,112.877,461.016,112.661,461.304,112.247z"/>
	<path fill="#FFFFFF" d="M466.307,112.139v-3.961h-1.44v-2.395h1.44v-2.377h2.773v2.377h1.764v2.395h-1.764v3.187
		c0,0.505,0.288,0.883,0.756,0.883c0.306,0,0.612-0.108,0.702-0.216l0.54,2.088c-0.342,0.324-1.026,0.576-2.053,0.576
		C467.261,114.695,466.307,113.813,466.307,112.139z"/>
	<path fill="#FFFFFF" d="M471.851,114.479v-8.696h2.773v1.062c0.576-0.703,1.692-1.297,2.719-1.297v2.665
		c-0.162-0.055-0.396-0.072-0.684-0.072c-0.72,0-1.675,0.306-2.035,0.792v5.546H471.851z"/>
	<path fill="#FFFFFF" d="M478.042,103.406c0-0.883,0.703-1.585,1.584-1.585c0.882,0,1.602,0.702,1.602,1.585
		c0,0.882-0.72,1.603-1.602,1.603C478.745,105.009,478.042,104.288,478.042,103.406z M478.24,114.479v-8.696h2.773v8.696H478.24z"/>
	<path fill="#FFFFFF" d="M482.344,114.479v-2.053l3.494-4.249h-3.494v-2.395h7.257v1.962l-3.565,4.34h3.637v2.395H482.344z"/>
</g>
<g>
	<g>
		<path fill="#FFED00" d="M174.139,43.048c-24.711-12.36-49.469-25.207-76.389-32.069C84.744,7.664,71.37,6.081,57.961,5.908
			C48.499,5.786,39.061,7.223,30.5,11.403C-2.943,27.73,3.039,74.372,18.326,101.11c7.388,12.922,21.644,21.193,35.072,26.53
			c16.788,6.672,35.554,8.961,53.366,5.751c21.168-3.816,38.05-16.59,49.942-34.164c9.606-14.195,15.9-32.006,7.314-48.174
			c-5.109-9.621-13.417-16.963-21.658-23.862c-8.003-6.699-17.025-13.124-22.541-22.182c-0.755-1.241-5.577-1.838-4.466-0.013
			c7.209,11.84,19.942,19.628,30.033,28.764c11.886,10.762,20.38,24,17.185,40.606c-2.18,11.328-8.86,21.695-15.877,30.609
			c-6.802,8.641-15.562,15.568-25.456,20.326c-18.148,8.728-39.376,8.659-58.433,3.162c-14.9-4.298-31.109-12.764-39.451-26.38
			c-9.615-15.695-14.301-35.369-11.898-53.66C13.76,30.904,24.271,16.365,41.321,10.83c12.23-3.971,26.221-2.586,38.718-0.958
			c14.161,1.844,27.904,5.934,41.192,11.074c17.149,6.634,33.538,15.124,49.963,23.339C172.66,45.018,177.037,44.498,174.139,43.048
			L174.139,43.048z"/>
	</g>
</g>
<g>
	<g>
		<path fill="#FFED00" d="M733.676,6.483c11.322,19.928,11.719,45.04,6.988,66.946c-4.805,22.25-16.663,43.419-38.971,51.578
			c-21.137,7.73-45.683,2.593-65.321-6.985c-21.261-10.37-42.571-30.312-45.391-54.92c-2.323-20.281,11.604-39.89,28.771-49.391
			c15.226-8.426,33.845-7.939,50.468-5.029c34.207,5.988,66.473,23.386,95.657,41.549c2.785,1.734,3.126-2.546,1.025-3.853
			c-33.68-20.962-72.431-41.755-112.807-44.03c-20.176-1.137-38.696,4.773-52.63,19.685c-16.81,17.99-18.774,42.191-6.613,63.219
			c20.601,35.62,72.994,59.27,112.415,42.843c20.134-8.39,31.005-28.01,36.409-48.182c5.593-20.873,5.52-44.136-1.84-64.549
			c-1.229-3.406-2.802-6.675-4.588-9.82C735.904,3.176,732.044,3.61,733.676,6.483L733.676,6.483z"/>
	</g>
</g>
</svg>
