<?xml version="1.0" encoding="utf-8"?>
<!-- Generator: Adobe Illustrator 16.0.0, SVG Export Plug-In . SVG Version: 6.00 Build 0)  -->
<!DOCTYPE svg PUBLIC "-//W3C//DTD SVG 1.1//EN" "http://www.w3.org/Graphics/SVG/1.1/DTD/svg11.dtd">
<svg version="1.1" id="Layer_1" xmlns="http://www.w3.org/2000/svg" xmlns:xlink="http://www.w3.org/1999/xlink" x="0px" y="0px"
	 width="220px" height="157px" viewBox="0 0 220 157" enable-background="new 0 0 220 157" xml:space="preserve">
<rect x="0" fill="#008590" width="220" height="157"/>
<g>
	<path fill="#FFFFFF" d="M15.81,22.732v-6.667h4.887v1.5h-3.168v1.039h3.098v1.5h-3.098v1.129h3.168v1.499H15.81z"/>
	<path fill="#FFFFFF" d="M21.22,21.792l0.909-1.339c0.48,0.48,1.219,0.879,2.139,0.879c0.58,0,0.939-0.2,0.939-0.529
		c0-0.88-3.768-0.15-3.768-2.719c0-1.119,0.939-2.119,2.648-2.119c1.069,0,1.999,0.32,2.708,0.929l-0.939,1.29
		c-0.56-0.47-1.289-0.7-1.949-0.7c-0.5,0-0.72,0.17-0.72,0.459c0,0.82,3.768,0.2,3.768,2.679c0,1.339-0.99,2.229-2.779,2.229
		C22.829,22.852,21.889,22.422,21.22,21.792z"/>
	<path fill="#FFFFFF" d="M29.079,22.732v-5.167h-1.869v-1.5h5.447v1.5h-1.859v5.167H29.079z"/>
	<path fill="#FFFFFF" d="M33.479,22.732v-6.667h1.719v6.667H33.479z"/>
	<path fill="#FFFFFF" d="M42.246,22.732v-4.408l-1.679,4.408h-0.76l-1.689-4.408v4.408h-1.719v-6.667h2.389l1.399,3.678l1.389-3.678
		h2.389v6.667H42.246z"/>
	<path fill="#FFFFFF" d="M49.697,22.732l-0.33-0.959h-2.628l-0.33,0.959H44.46l2.509-6.667h2.168l2.509,6.667H49.697z
		 M48.058,17.765l-0.85,2.509h1.689L48.058,17.765z"/>
	<path fill="#FFFFFF" d="M53.008,22.732v-5.167h-1.869v-1.5h5.447v1.5h-1.859v5.167H53.008z"/>
	<path fill="#FFFFFF" d="M57.409,22.732v-6.667h4.887v1.5h-3.168v1.039h3.098v1.5h-3.098v1.129h3.168v1.499H57.409z"/>
	<path fill="#FFFFFF" d="M63.299,22.732v-6.667h2.798c2.099,0,3.608,1.259,3.608,3.328s-1.509,3.338-3.598,3.338H63.299z
		 M67.946,19.394c0-1.029-0.62-1.829-1.839-1.829h-1.089v3.668h1.079C67.267,21.233,67.946,20.383,67.946,19.394z"/>
	<path fill="#FFFFFF" d="M70.369,18.774c0-0.51,0.439-0.939,0.949-0.939s0.939,0.43,0.939,0.939s-0.43,0.939-0.939,0.939
		S70.369,19.284,70.369,18.774z M70.369,21.902c0-0.5,0.439-0.929,0.949-0.929s0.939,0.43,0.939,0.929
		c0,0.51-0.43,0.939-0.939,0.939S70.369,22.412,70.369,21.902z"/>
</g>
<g>
	<path fill="#FFFFFF" d="M16.041,56.417V34.585h9.624v21.502c0,4.344,2.64,7.479,7.754,7.479c5.059,0,7.699-3.134,7.699-7.479
		V34.585h9.569v21.777c0,9.128-5.499,15.563-17.268,15.563S16.041,65.436,16.041,56.417z"/>
	<path fill="#FFFFFF" d="M51.901,66.096l5.004-7.369c2.64,2.64,6.709,4.839,11.769,4.839c3.189,0,5.169-1.1,5.169-2.915
		c0-4.839-20.732-0.825-20.732-14.958c0-6.159,5.169-11.658,14.573-11.658c5.884,0,10.999,1.76,14.903,5.114l-5.169,7.094
		c-3.08-2.585-7.094-3.85-10.724-3.85c-2.75,0-3.959,0.935-3.959,2.53c0,4.509,20.732,1.1,20.732,14.738
		c0,7.369-5.444,12.264-15.288,12.264C60.754,71.925,55.585,69.561,51.901,66.096z"/>
	<path fill="#FFFFFF" d="M96.338,71.76c-5.829-0.55-10.063-2.695-13.198-5.665l5.004-7.369c1.979,1.979,4.784,3.739,8.194,4.454
		v-6.104c-5.664-1.265-11.988-3.575-11.988-11.384c0-5.554,4.234-10.613,11.988-11.493v-5.169h6.104v5.224
		c4.399,0.605,8.249,2.255,11.384,4.895l-5.17,7.094c-1.869-1.54-4.014-2.585-6.214-3.19v5.334
		c5.719,1.32,12.263,3.629,12.263,11.273c0,6.599-4.344,11.219-12.263,12.099v5.004h-6.104V71.76z M96.338,46.958v-4.399
		c-1.65,0.275-2.365,1.155-2.365,2.365C93.973,45.914,94.853,46.519,96.338,46.958z M102.442,58.452v4.839
		c1.65-0.44,2.64-1.375,2.64-2.64C105.082,59.607,104.037,58.947,102.442,58.452z"/>
	<path fill="#FFFFFF" d="M125.268,71.265V46.684l-6.158,6.214l-5.389-5.664l12.812-12.648h8.193v36.68H125.268z"/>
	<path fill="#FFFFFF" d="M15.82,121.266V84.585h8.469v13.253c2.09-2.639,4.95-3.794,7.864-3.794c6.654,0,11.713,5.224,11.713,13.913
		c0,9.02-5.169,13.969-11.713,13.969c-2.97,0-5.665-1.211-7.864-3.74v3.08H15.82z M29.349,114.445c3.354,0,5.884-2.475,5.884-6.488
		c0-3.959-2.53-6.434-5.884-6.434c-1.815,0-4.015,0.988-5.06,2.42v8.139C25.334,113.512,27.534,114.445,29.349,114.445z"/>
	<path fill="#FFFFFF" d="M44.97,87.445c0-2.695,2.145-4.84,4.839-4.84c2.695,0,4.895,2.145,4.895,4.84
		c0,2.693-2.2,4.894-4.895,4.894C47.115,92.339,44.97,90.139,44.97,87.445z M45.575,121.266V94.703h8.469v26.562H45.575z"/>
	<path fill="#FFFFFF" d="M57.454,121.266V84.585h8.469v36.681H57.454z"/>
	<path fill="#FFFFFF" d="M69.333,121.266V84.585h8.469v36.681H69.333z"/>
	<path fill="#FFFFFF" d="M80.608,87.445c0-2.695,2.145-4.84,4.839-4.84s4.895,2.145,4.895,4.84c0,2.693-2.2,4.894-4.895,4.894
		S80.608,90.139,80.608,87.445z M81.213,121.266V94.703h8.469v26.562H81.213z"/>
	<path fill="#FFFFFF" d="M91.388,107.957c0-7.479,5.389-13.913,14.408-13.913c9.128,0,14.519,6.435,14.519,13.913
		s-5.391,13.969-14.519,13.969C96.777,121.926,91.388,115.436,91.388,107.957z M111.625,107.957c0-3.52-2.09-6.434-5.83-6.434
		c-3.629,0-5.719,2.914-5.719,6.434c0,3.574,2.09,6.488,5.719,6.488C109.535,114.445,111.625,111.531,111.625,107.957z"/>
	<path fill="#FFFFFF" d="M140.004,121.266v-15.344c0-3.244-1.705-4.398-4.344-4.398c-2.529,0-4.18,1.375-5.17,2.584v17.158h-8.469
		V94.703h8.469v3.246c1.596-1.871,4.73-3.905,9.238-3.905c5.994,0,8.744,3.519,8.744,8.413v18.809H140.004z"/>
	<path fill="#FFFFFF" d="M15.927,137.924v-3.961h-1.44v-2.395h1.44v-2.377H18.7v2.377h1.764v2.395H18.7v3.188
		c0,0.504,0.288,0.883,0.756,0.883c0.306,0,0.612-0.109,0.702-0.217l0.54,2.088c-0.342,0.324-1.026,0.576-2.053,0.576
		C16.881,140.48,15.927,139.6,15.927,137.924z"/>
	<path fill="#FFFFFF" d="M21.273,135.908c0-2.449,1.765-4.557,4.717-4.557c2.989,0,4.753,2.107,4.753,4.557
		s-1.765,4.572-4.753,4.572C23.038,140.48,21.273,138.357,21.273,135.908z M27.899,135.908c0-1.152-0.684-2.107-1.909-2.107
		c-1.188,0-1.873,0.955-1.873,2.107c0,1.17,0.684,2.125,1.873,2.125C27.215,138.033,27.899,137.078,27.899,135.908z"/>
	<path fill="#FFFFFF" d="M36.249,135.908c0-2.521,1.891-4.557,4.609-4.557c2.575,0,4.447,1.891,4.447,4.844v0.631h-6.194
		c0.198,0.773,0.918,1.422,2.179,1.422c0.612,0,1.621-0.27,2.125-0.738l1.207,1.818c-0.864,0.775-2.305,1.152-3.637,1.152
		C38.301,140.48,36.249,138.734,36.249,135.908z M40.858,133.586c-1.207,0-1.675,0.719-1.783,1.35h3.583
		C42.586,134.324,42.136,133.586,40.858,133.586z"/>
	<path fill="#FFFFFF" d="M46.67,140.266v-12.01h2.773v12.01H46.67z"/>
	<path fill="#FFFFFF" d="M51.26,129.191c0-0.881,0.703-1.584,1.584-1.584c0.882,0,1.603,0.703,1.603,1.584
		c0,0.883-0.72,1.604-1.603,1.604C51.962,130.795,51.26,130.074,51.26,129.191z M51.458,140.266v-8.697h2.773v8.697H51.458z"/>
	<path fill="#FFFFFF" d="M67.211,140.266v-5.295c0-0.666-0.324-1.17-1.152-1.17c-0.756,0-1.296,0.486-1.566,0.848v5.617H61.72
		v-5.295c0-0.666-0.306-1.17-1.134-1.17c-0.756,0-1.278,0.486-1.566,0.848v5.617h-2.773v-8.697h2.773v1.062
		c0.378-0.504,1.494-1.279,2.863-1.279c1.26,0,2.106,0.523,2.467,1.549c0.504-0.756,1.638-1.549,3.007-1.549
		c1.603,0,2.611,0.83,2.611,2.611v6.303H67.211z"/>
	<path fill="#FFFFFF" d="M71.798,129.191c0-0.881,0.703-1.584,1.584-1.584c0.882,0,1.603,0.703,1.603,1.584
		c0,0.883-0.72,1.604-1.603,1.604C72.5,130.795,71.798,130.074,71.798,129.191z M71.996,140.266v-8.697h2.773v8.697H71.996z"/>
	<path fill="#FFFFFF" d="M82.672,140.266v-5.023c0-1.062-0.558-1.441-1.422-1.441c-0.828,0-1.368,0.451-1.692,0.848v5.617h-2.773
		v-8.697h2.773v1.062c0.522-0.611,1.548-1.279,3.025-1.279c1.962,0,2.863,1.152,2.863,2.756v6.158H82.672z"/>
	<path fill="#FFFFFF" d="M92.589,140.266V139.4c-0.54,0.648-1.584,1.08-2.701,1.08c-1.333,0-2.989-0.918-2.989-2.861
		c0-2.107,1.656-2.811,2.989-2.811c1.152,0,2.179,0.379,2.701,1.027v-0.865c0-0.756-0.648-1.277-1.764-1.277
		c-0.864,0-1.729,0.342-2.431,0.936l-1.026-1.926c1.116-0.955,2.611-1.352,3.943-1.352c2.089,0,4.051,0.775,4.051,3.477v5.438
		H92.589z M92.589,138.033v-0.775c-0.288-0.414-0.936-0.611-1.548-0.611c-0.72,0-1.386,0.324-1.386,1.008s0.666,1.008,1.386,1.008
		C91.653,138.662,92.301,138.447,92.589,138.033z"/>
	<path fill="#FFFFFF" d="M97.952,137.924v-3.961h-1.44v-2.395h1.44v-2.377h2.773v2.377h1.765v2.395h-1.765v3.188
		c0,0.504,0.288,0.883,0.756,0.883c0.306,0,0.612-0.109,0.703-0.217l0.54,2.088c-0.342,0.324-1.026,0.576-2.053,0.576
		C98.906,140.48,97.952,139.6,97.952,137.924z"/>
	<path fill="#FFFFFF" d="M103.297,135.908c0-2.521,1.891-4.557,4.609-4.557c2.575,0,4.447,1.891,4.447,4.844v0.631h-6.193
		c0.198,0.773,0.918,1.422,2.179,1.422c0.612,0,1.621-0.27,2.125-0.738l1.207,1.818c-0.865,0.775-2.305,1.152-3.637,1.152
		C105.35,140.48,103.297,138.734,103.297,135.908z M107.907,133.586c-1.207,0-1.675,0.719-1.783,1.35h3.583
		C109.635,134.324,109.185,133.586,107.907,133.586z"/>
	<path fill="#FFFFFF" d="M118.904,137.924v-3.961h-1.439v-2.395h1.439v-2.377h2.773v2.377h1.764v2.395h-1.764v3.188
		c0,0.504,0.287,0.883,0.756,0.883c0.307,0,0.611-0.109,0.701-0.217l0.541,2.088c-0.342,0.324-1.025,0.576-2.053,0.576
		C119.859,140.48,118.904,139.6,118.904,137.924z"/>
	<path fill="#FFFFFF" d="M124.809,140.266v-8.697h2.771v1.062c0.576-0.703,1.693-1.297,2.719-1.297V134
		c-0.162-0.055-0.396-0.072-0.684-0.072c-0.721,0-1.674,0.305-2.035,0.791v5.547H124.809z"/>
	<path fill="#FFFFFF" d="M136.689,140.266V139.4c-0.541,0.648-1.584,1.08-2.701,1.08c-1.332,0-2.988-0.918-2.988-2.861
		c0-2.107,1.656-2.811,2.988-2.811c1.152,0,2.18,0.379,2.701,1.027v-0.865c0-0.756-0.648-1.277-1.766-1.277
		c-0.863,0-1.729,0.342-2.43,0.936l-1.027-1.926c1.117-0.955,2.611-1.352,3.943-1.352c2.09,0,4.053,0.775,4.053,3.477v5.438H136.689
		z M136.689,138.033v-0.775c-0.289-0.414-0.938-0.611-1.549-0.611c-0.721,0-1.387,0.324-1.387,1.008s0.666,1.008,1.387,1.008
		C135.752,138.662,136.4,138.447,136.689,138.033z"/>
	<path fill="#FFFFFF" d="M140.918,135.908c0-2.719,2.016-4.557,4.734-4.557c1.891,0,3.043,0.83,3.566,1.604l-1.801,1.674
		c-0.342-0.504-0.9-0.828-1.639-0.828c-1.152,0-2.035,0.793-2.035,2.107s0.883,2.125,2.035,2.125c0.738,0,1.297-0.361,1.639-0.848
		l1.801,1.693c-0.523,0.756-1.676,1.602-3.566,1.602C142.934,140.48,140.918,138.627,140.918,135.908z"/>
	<path fill="#FFFFFF" d="M156.381,140.266v-5.061c0-1.062-0.559-1.404-1.439-1.404c-0.811,0-1.352,0.451-1.676,0.848v5.617h-2.771
		v-12.01h2.771v4.375c0.523-0.611,1.549-1.279,3.008-1.279c1.98,0,2.881,1.117,2.881,2.721v6.193H156.381z"/>
	<path fill="#FFFFFF" d="M160.609,135.908c0-2.449,1.766-4.557,4.719-4.557c2.988,0,4.752,2.107,4.752,4.557
		s-1.764,4.572-4.752,4.572C162.375,140.48,160.609,138.357,160.609,135.908z M167.236,135.908c0-1.152-0.686-2.107-1.908-2.107
		c-1.189,0-1.873,0.955-1.873,2.107c0,1.17,0.684,2.125,1.873,2.125C166.551,138.033,167.236,137.078,167.236,135.908z"/>
	<path fill="#FFFFFF" d="M182.502,140.266v-5.295c0-0.666-0.324-1.17-1.152-1.17c-0.756,0-1.297,0.486-1.566,0.848v5.617h-2.773
		v-5.295c0-0.666-0.307-1.17-1.135-1.17c-0.756,0-1.277,0.486-1.566,0.848v5.617h-2.771v-8.697h2.771v1.062
		c0.379-0.504,1.494-1.279,2.863-1.279c1.26,0,2.107,0.523,2.467,1.549c0.504-0.756,1.639-1.549,3.006-1.549
		c1.604,0,2.611,0.83,2.611,2.611v6.303H182.502z"/>
	<path fill="#FFFFFF" d="M192.418,140.266V139.4c-0.541,0.648-1.584,1.08-2.701,1.08c-1.332,0-2.988-0.918-2.988-2.861
		c0-2.107,1.656-2.811,2.988-2.811c1.152,0,2.18,0.379,2.701,1.027v-0.865c0-0.756-0.648-1.277-1.766-1.277
		c-0.863,0-1.729,0.342-2.43,0.936l-1.027-1.926c1.117-0.955,2.611-1.352,3.943-1.352c2.09,0,4.053,0.775,4.053,3.477v5.438H192.418
		z M192.418,138.033v-0.775c-0.289-0.414-0.938-0.611-1.549-0.611c-0.721,0-1.387,0.324-1.387,1.008s0.666,1.008,1.387,1.008
		C191.48,138.662,192.129,138.447,192.418,138.033z"/>
</g>
</svg>
