<?xml version="1.0" encoding="utf-8"?>
<!-- Generator: Adobe Illustrator 16.0.0, SVG Export Plug-In . SVG Version: 6.00 Build 0)  -->
<!DOCTYPE svg PUBLIC "-//W3C//DTD SVG 1.1//EN" "http://www.w3.org/Graphics/SVG/1.1/DTD/svg11.dtd">
<svg version="1.1" id="Layer_1" xmlns="http://www.w3.org/2000/svg" xmlns:xlink="http://www.w3.org/1999/xlink" x="0px" y="0px"
	 width="220px" height="138.766px" viewBox="0 0 220 138.766" enable-background="new 0 0 220 138.766" xml:space="preserve">
<rect x="0" fill="#008590" width="220" height="139.271"/>
<g>
	<path fill="#FFFFFF" d="M15.81,22.732v-6.667h4.887v1.5h-3.168v1.039h3.098v1.5h-3.098v1.129h3.168v1.499H15.81z"/>
	<path fill="#FFFFFF" d="M26.237,22.732l-2.818-3.858v3.858h-1.719v-6.667h1.769l2.699,3.668v-3.668h1.729v6.667H26.237z"/>
	<path fill="#FFFFFF" d="M29.099,22.732v-6.667h2.798c2.099,0,3.608,1.259,3.608,3.328s-1.509,3.338-3.598,3.338H29.099z
		 M33.747,19.394c0-1.029-0.62-1.829-1.839-1.829h-1.089v3.668h1.079C33.067,21.233,33.747,20.383,33.747,19.394z"/>
	<path fill="#FFFFFF" d="M36.369,22.732v-6.667h4.887v1.5h-3.168v1.039h3.098v1.5h-3.098v1.129h3.168v1.499H36.369z"/>
	<path fill="#FFFFFF" d="M48.105,22.732v-4.408l-1.679,4.408h-0.76l-1.689-4.408v4.408h-1.719v-6.667h2.389l1.399,3.678l1.389-3.678
		h2.389v6.667H48.105z"/>
	<path fill="#FFFFFF" d="M51.029,22.732v-6.667h1.719v6.667H51.029z"/>
	<path fill="#FFFFFF" d="M53.609,19.404c0-2.059,1.559-3.448,3.608-3.448c1.609,0,2.479,0.91,2.909,1.779l-1.479,0.709
		c-0.22-0.53-0.79-0.97-1.429-0.97c-1.089,0-1.859,0.83-1.859,1.929c0,1.089,0.77,1.929,1.859,1.929c0.64,0,1.209-0.439,1.429-0.969
		l1.479,0.7c-0.43,0.85-1.299,1.789-2.909,1.789C55.168,22.852,53.609,21.453,53.609,19.404z"/>
	<path fill="#FFFFFF" d="M60.869,22.732v-6.667h1.719v6.667H60.869z"/>
	<path fill="#FFFFFF" d="M65.278,22.732v-5.167h-1.869v-1.5h5.447v1.5h-1.859v5.167H65.278z"/>
	<path fill="#FFFFFF" d="M71.498,22.732v-2.688l-2.528-3.978h1.939l1.449,2.459l1.429-2.459h1.949l-2.519,3.978v2.688H71.498z"/>
	<path fill="#FFFFFF" d="M75.279,18.774c0-0.51,0.439-0.939,0.949-0.939s0.939,0.43,0.939,0.939s-0.43,0.939-0.939,0.939
		S75.279,19.284,75.279,18.774z M75.279,21.902c0-0.5,0.439-0.929,0.949-0.929s0.939,0.43,0.939,0.929
		c0,0.51-0.43,0.939-0.939,0.939S75.279,22.412,75.279,21.902z"/>
	<path fill="#FFFFFF" d="M18.466,84.732v-9.917C39.854,59.348,43.85,55.944,43.85,50.986c0-3.331-3.182-5.106-6.809-5.106
		c-5.477,0-9.621,2.072-13.173,5.402l-7.031-8.437c5.254-5.772,13.099-8.215,19.981-8.215c11.619,0,19.981,6.513,19.981,16.355
		c0,7.622-5.402,14.061-17.687,22.646h18.057v11.101H18.466z"/>
	<path fill="#FFFFFF" d="M60.054,60.088c0-13.025,6.734-25.458,21.165-25.458c14.431,0,21.166,12.433,21.166,25.458
		S95.65,85.619,81.219,85.619C66.788,85.619,60.054,73.113,60.054,60.088z M89.508,60.088c0-8.733-2.368-14.209-8.289-14.209
		c-5.92,0-8.288,5.476-8.288,14.209c0,8.732,2.368,14.283,8.288,14.283C87.14,74.371,89.508,68.821,89.508,60.088z"/>
	<path fill="#FFFFFF" d="M104.231,60.088c0-13.025,6.734-25.458,21.166-25.458c14.431,0,21.165,12.433,21.165,25.458
		s-6.734,25.531-21.165,25.531C110.965,85.619,104.231,73.113,104.231,60.088z M133.685,60.088c0-8.733-2.368-14.209-8.288-14.209
		c-5.921,0-8.289,5.476-8.289,14.209c0,8.732,2.368,14.283,8.289,14.283C131.316,74.371,133.685,68.821,133.685,60.088z"/>
	<path fill="#FFFFFF" d="M195.698,84.732V62.975c0-2.738-1.333-4.811-4.736-4.811c-3.108,0-5.329,1.998-6.438,3.478v23.09h-11.397
		V62.975c0-2.738-1.258-4.811-4.662-4.811c-3.108,0-5.254,1.998-6.438,3.478v23.09h-11.396V48.987h11.396v4.367
		c1.554-2.072,6.143-5.254,11.767-5.254c5.181,0,8.659,2.146,10.139,6.364c2.072-3.108,6.734-6.364,12.359-6.364
		c6.586,0,10.73,3.404,10.73,10.73v25.902H195.698z"/>
	<path fill="#FFFFFF" d="M18.991,102.705v4.34h-2.773v-12.01h2.773v1.008c0.684-0.828,1.584-1.225,2.575-1.225
		c2.179,0,3.817,1.621,3.817,4.557c0,2.953-1.638,4.572-3.817,4.572C20.594,103.947,19.711,103.57,18.991,102.705z M22.556,99.375
		c0-1.297-0.828-2.107-1.909-2.107c-0.594,0-1.314,0.324-1.656,0.793v2.646c0.342,0.449,1.062,0.793,1.656,0.793
		C21.728,101.5,22.556,100.689,22.556,99.375z"/>
	<path fill="#FFFFFF" d="M26.262,99.375c0-2.521,1.891-4.557,4.609-4.557c2.575,0,4.447,1.891,4.447,4.844v0.631h-6.194
		c0.198,0.773,0.918,1.422,2.179,1.422c0.612,0,1.621-0.27,2.125-0.738l1.207,1.818c-0.864,0.775-2.305,1.152-3.637,1.152
		C28.314,103.947,26.262,102.201,26.262,99.375z M30.871,97.053c-1.207,0-1.675,0.719-1.783,1.35h3.583
		C32.6,97.791,32.149,97.053,30.871,97.053z"/>
	<path fill="#FFFFFF" d="M36.125,99.375c0-2.449,1.765-4.557,4.717-4.557c2.989,0,4.753,2.107,4.753,4.557s-1.765,4.572-4.753,4.572
		C37.89,103.947,36.125,101.824,36.125,99.375z M42.751,99.375c0-1.152-0.684-2.107-1.909-2.107c-1.188,0-1.873,0.955-1.873,2.107
		c0,1.17,0.684,2.125,1.873,2.125C42.067,101.5,42.751,100.545,42.751,99.375z"/>
	<path fill="#FFFFFF" d="M49.824,102.705v4.34h-2.773v-12.01h2.773v1.008c0.684-0.828,1.584-1.225,2.575-1.225
		c2.179,0,3.817,1.621,3.817,4.557c0,2.953-1.638,4.572-3.817,4.572C51.427,103.947,50.544,103.57,49.824,102.705z M53.389,99.375
		c0-1.297-0.828-2.107-1.909-2.107c-0.594,0-1.314,0.324-1.656,0.793v2.646c0.342,0.449,1.062,0.793,1.656,0.793
		C52.561,101.5,53.389,100.689,53.389,99.375z"/>
	<path fill="#FFFFFF" d="M57.653,103.732v-12.01h2.773v12.01H57.653z"/>
	<path fill="#FFFFFF" d="M61.883,99.375c0-2.521,1.891-4.557,4.609-4.557c2.575,0,4.447,1.891,4.447,4.844v0.631h-6.194
		c0.198,0.773,0.918,1.422,2.179,1.422c0.612,0,1.621-0.27,2.125-0.738l1.207,1.818c-0.864,0.775-2.305,1.152-3.637,1.152
		C63.936,103.947,61.883,102.201,61.883,99.375z M66.492,97.053c-1.207,0-1.675,0.719-1.783,1.35h3.583
		C68.221,97.791,67.771,97.053,66.492,97.053z"/>
	<path fill="#FFFFFF" d="M82.044,103.732v-0.865c-0.54,0.648-1.584,1.08-2.701,1.08c-1.333,0-2.989-0.918-2.989-2.861
		c0-2.107,1.656-2.811,2.989-2.811c1.152,0,2.179,0.379,2.701,1.027v-0.865c0-0.756-0.648-1.277-1.764-1.277
		c-0.864,0-1.729,0.342-2.431,0.936l-1.026-1.926c1.116-0.955,2.611-1.352,3.943-1.352c2.089,0,4.051,0.775,4.051,3.477v5.438
		H82.044z M82.044,101.5v-0.775c-0.288-0.414-0.936-0.611-1.548-0.611c-0.72,0-1.386,0.324-1.386,1.008s0.666,1.008,1.386,1.008
		C81.108,102.129,81.756,101.914,82.044,101.5z"/>
	<path fill="#FFFFFF" d="M87.407,101.391V97.43h-1.44v-2.395h1.44v-2.377h2.773v2.377h1.765v2.395H90.18v3.188
		c0,0.504,0.288,0.883,0.756,0.883c0.306,0,0.612-0.109,0.703-0.217l0.54,2.088c-0.342,0.324-1.026,0.576-2.053,0.576
		C88.361,103.947,87.407,103.066,87.407,101.391z"/>
	<path fill="#FFFFFF" d="M97.918,103.732v-8.697h2.773v1.062c0.576-0.703,1.692-1.297,2.719-1.297v2.666
		c-0.162-0.055-0.396-0.072-0.684-0.072c-0.72,0-1.675,0.305-2.035,0.791v5.547H97.918z"/>
	<path fill="#FFFFFF" d="M104.47,92.658c0-0.883,0.702-1.584,1.584-1.584s1.603,0.701,1.603,1.584s-0.72,1.604-1.603,1.604
		S104.47,93.541,104.47,92.658z M104.668,103.732v-8.697h2.773v8.697H104.668z"/>
	<path fill="#FFFFFF" d="M108.717,102.598l1.152-1.98c0.648,0.576,2.035,1.17,3.061,1.17c0.828,0,1.17-0.234,1.17-0.611
		c0-1.08-5.059,0.035-5.059-3.494c0-1.529,1.333-2.863,3.727-2.863c1.477,0,2.701,0.469,3.637,1.152l-1.062,1.963
		c-0.522-0.504-1.513-0.953-2.558-0.953c-0.647,0-1.08,0.252-1.08,0.594c0,0.955,5.042-0.037,5.042,3.529
		c0,1.656-1.459,2.844-3.943,2.844C111.238,103.947,109.636,103.426,108.717,102.598z"/>
	<path fill="#FFFFFF" d="M123.677,103.732l-1.908-3.08l-0.828,0.99v2.09h-2.772v-12.01h2.772v6.787l2.646-3.475h3.35l-3.205,3.961
		l3.366,4.736H123.677z"/>
	<path fill="#FFFFFF" d="M132.406,92.658c0-0.883,0.702-1.584,1.584-1.584c0.883,0,1.603,0.701,1.603,1.584s-0.72,1.604-1.603,1.604
		C133.108,94.262,132.406,93.541,132.406,92.658z M132.604,103.732v-8.697h2.773v8.697H132.604z"/>
	<path fill="#FFFFFF" d="M143.28,103.732v-5.023c0-1.062-0.559-1.441-1.423-1.441c-0.828,0-1.368,0.451-1.692,0.846v5.619h-2.772
		v-8.697h2.772v1.062c0.522-0.611,1.548-1.279,3.024-1.279c1.963,0,2.863,1.152,2.863,2.756v6.158H143.28z"/>
	<path fill="#FFFFFF" d="M21.35,122.732v-2.197h-5.744v-2.412l4.556-7.4h4.303v7.094h1.458v2.719h-1.458v2.197H21.35z
		 M21.35,113.424l-2.737,4.393h2.737V113.424z"/>
	<path fill="#FFFFFF" d="M27.09,122.732v-2.414c5.204-3.762,6.176-4.59,6.176-5.797c0-0.811-0.774-1.242-1.657-1.242
		c-1.333,0-2.341,0.504-3.205,1.314l-1.71-2.053c1.278-1.404,3.187-1.998,4.862-1.998c2.827,0,4.861,1.584,4.861,3.979
		c0,1.855-1.314,3.422-4.303,5.51h4.393v2.701H27.09z"/>
	<path fill="#FFFFFF" d="M42.282,118.375c0-2.719,2.017-4.557,4.735-4.557c1.891,0,3.043,0.83,3.565,1.604l-1.8,1.674
		c-0.342-0.504-0.9-0.828-1.639-0.828c-1.152,0-2.035,0.793-2.035,2.107s0.882,2.125,2.035,2.125c0.738,0,1.296-0.361,1.639-0.848
		l1.8,1.693c-0.522,0.756-1.674,1.602-3.565,1.602C44.298,122.947,42.282,121.094,42.282,118.375z"/>
	<path fill="#FFFFFF" d="M51.282,118.375c0-2.449,1.765-4.557,4.717-4.557c2.989,0,4.753,2.107,4.753,4.557
		s-1.765,4.572-4.753,4.572C53.046,122.947,51.282,120.824,51.282,118.375z M57.908,118.375c0-1.152-0.684-2.107-1.909-2.107
		c-1.188,0-1.873,0.955-1.873,2.107c0,1.17,0.684,2.125,1.873,2.125C57.224,120.5,57.908,119.545,57.908,118.375z"/>
	<path fill="#FFFFFF" d="M68.077,122.732v-1.045c-0.54,0.611-1.53,1.26-3.007,1.26c-1.962,0-2.863-1.133-2.863-2.719v-6.193h2.773
		v5.041c0,1.062,0.54,1.424,1.44,1.424c0.792,0,1.332-0.434,1.656-0.848v-5.617h2.773v8.697H68.077z"/>
	<path fill="#FFFFFF" d="M78.751,122.732v-5.023c0-1.062-0.558-1.441-1.422-1.441c-0.828,0-1.369,0.451-1.692,0.846v5.619h-2.773
		v-8.697h2.773v1.062c0.522-0.611,1.548-1.279,3.025-1.279c1.962,0,2.863,1.152,2.863,2.756v6.158H78.751z"/>
	<path fill="#FFFFFF" d="M84.113,120.391v-3.961h-1.44v-2.395h1.44v-2.377h2.773v2.377h1.764v2.395h-1.764v3.188
		c0,0.504,0.288,0.883,0.756,0.883c0.306,0,0.612-0.109,0.702-0.217l0.54,2.088c-0.342,0.324-1.026,0.576-2.053,0.576
		C85.067,122.947,84.113,122.066,84.113,120.391z"/>
	<path fill="#FFFFFF" d="M90.017,122.732v-8.697h2.773v1.062c0.576-0.703,1.692-1.297,2.719-1.297v2.666
		c-0.162-0.055-0.396-0.072-0.684-0.072c-0.72,0-1.675,0.305-2.035,0.791v5.547H90.017z"/>
	<path fill="#FFFFFF" d="M96.569,111.658c0-0.883,0.703-1.584,1.584-1.584c0.882,0,1.603,0.701,1.603,1.584s-0.72,1.604-1.603,1.604
		C97.271,113.262,96.569,112.541,96.569,111.658z M96.767,122.732v-8.697h2.773v8.697H96.767z"/>
	<path fill="#FFFFFF" d="M100.997,118.375c0-2.521,1.891-4.557,4.609-4.557c2.575,0,4.447,1.891,4.447,4.844v0.631h-6.194
		c0.198,0.773,0.918,1.422,2.179,1.422c0.612,0,1.621-0.27,2.125-0.738l1.207,1.818c-0.864,0.775-2.305,1.152-3.637,1.152
		C103.05,122.947,100.997,121.201,100.997,118.375z M105.606,116.053c-1.207,0-1.675,0.719-1.783,1.35h3.583
		C107.335,116.791,106.885,116.053,105.606,116.053z"/>
	<path fill="#FFFFFF" d="M110.681,121.598l1.152-1.98c0.648,0.576,2.034,1.17,3.061,1.17c0.829,0,1.171-0.234,1.171-0.611
		c0-1.08-5.06,0.035-5.06-3.494c0-1.529,1.332-2.863,3.728-2.863c1.476,0,2.7,0.469,3.637,1.152l-1.062,1.963
		c-0.522-0.504-1.513-0.953-2.557-0.953c-0.648,0-1.08,0.252-1.08,0.594c0,0.955,5.041-0.037,5.041,3.529
		c0,1.656-1.458,2.844-3.943,2.844C113.201,122.947,111.599,122.426,110.681,121.598z"/>
</g>
</svg>
