<?xml version="1.0" encoding="utf-8"?>
<!-- Generator: Adobe Illustrator 15.0.0, SVG Export Plug-In . SVG Version: 6.00 Build 0)  -->
<!DOCTYPE svg PUBLIC "-//W3C//DTD SVG 1.1//EN" "http://www.w3.org/Graphics/SVG/1.1/DTD/svg11.dtd">
<svg version="1.1" id="Layer_1" xmlns="http://www.w3.org/2000/svg" xmlns:xlink="http://www.w3.org/1999/xlink" x="0px" y="0px"
	 width="220px" height="157px" viewBox="0 0 220 157" enable-background="new 0 0 220 157" xml:space="preserve">
<rect x="0" fill="#008590" width="220" height="157"/>
<g>
	<path fill="#FFFFFF" d="M15.665,21.906c0-3.08,1.593-6.021,5.005-6.021c3.413,0,5.006,2.94,5.006,6.021
		c0,3.081-1.593,6.038-5.006,6.038C17.258,27.944,15.665,24.987,15.665,21.906z M22.631,21.906c0-2.065-0.56-3.36-1.96-3.36
		c-1.4,0-1.96,1.295-1.96,3.36s0.56,3.378,1.96,3.378C22.071,25.284,22.631,23.972,22.631,21.906z"/>
	<path fill="#FFFFFF" d="M26.13,26.282c0-0.875,0.77-1.628,1.663-1.628s1.645,0.753,1.645,1.628c0,0.893-0.752,1.645-1.645,1.645
		S26.13,27.174,26.13,26.282z"/>
	<path fill="#FFFFFF" d="M29.91,21.906c0-3.08,1.593-6.021,5.005-6.021c3.413,0,5.006,2.94,5.006,6.021
		c0,3.081-1.593,6.038-5.006,6.038C31.502,27.944,29.91,24.987,29.91,21.906z M36.875,21.906c0-2.065-0.56-3.36-1.96-3.36
		c-1.4,0-1.96,1.295-1.96,3.36s0.56,3.378,1.96,3.378C36.315,25.284,36.875,23.972,36.875,21.906z"/>
	<path fill="#FFFFFF" d="M40.392,21.906c0-3.08,1.593-6.021,5.005-6.021c3.413,0,5.006,2.94,5.006,6.021
		c0,3.081-1.593,6.038-5.006,6.038C41.985,27.944,40.392,24.987,40.392,21.906z M47.358,21.906c0-2.065-0.56-3.36-1.96-3.36
		c-1.4,0-1.96,1.295-1.96,3.36s0.56,3.378,1.96,3.378C46.798,25.284,47.358,23.972,47.358,21.906z"/>
	<path fill="#FFFFFF" d="M50.699,26.107l1.523-2.048c0.857,0.822,2.17,1.225,3.185,1.225c1.295,0,1.96-0.49,1.96-1.138
		c0-0.665-0.49-0.998-2.083-0.998c-0.508,0-1.4,0.018-1.575,0.035v-2.678c0.228,0.017,1.137,0.017,1.575,0.017
		c1.208,0,1.89-0.297,1.89-0.91c0-0.735-0.84-1.068-1.96-1.068c-1.067,0-2.083,0.385-2.905,1.12l-1.453-1.89
		c0.998-1.103,2.521-1.89,4.673-1.89c2.976,0,4.638,1.277,4.638,3.203c0,1.365-1.173,2.398-2.555,2.625
		c1.243,0.123,2.748,1.085,2.748,2.765c0,2.048-1.925,3.465-4.831,3.465C53.29,27.944,51.627,27.157,50.699,26.107z"/>
	<path fill="#FFFFFF" d="M60.919,18.826c0-1.646,1.19-2.94,3.028-2.94c1.873,0,3.081,1.295,3.081,2.94
		c0,1.627-1.208,2.905-3.081,2.905C62.109,21.731,60.919,20.454,60.919,18.826z M65.155,18.826c0-0.875-0.525-1.331-1.208-1.331
		c-0.665,0-1.172,0.455-1.172,1.331c0,0.84,0.507,1.295,1.172,1.295C64.629,20.121,65.155,19.666,65.155,18.826z M62.792,27.734
		l7.456-11.674h1.54l-7.473,11.674H62.792z M67.518,25.039c0-1.645,1.19-2.94,3.045-2.94c1.838,0,3.045,1.295,3.045,2.94
		c0,1.628-1.208,2.905-3.045,2.905C68.708,27.944,67.518,26.667,67.518,25.039z M71.753,25.039c0-0.875-0.508-1.33-1.19-1.33
		s-1.19,0.455-1.19,1.33c0,0.857,0.507,1.295,1.19,1.295S71.753,25.896,71.753,25.039z"/>
	<path fill="#FFFFFF" d="M78.052,23.499c0-2.38,1.715-4.428,4.585-4.428c2.905,0,4.621,2.048,4.621,4.428s-1.715,4.445-4.621,4.445
		C79.767,27.944,78.052,25.879,78.052,23.499z M84.493,23.499c0-1.12-0.665-2.048-1.855-2.048c-1.155,0-1.82,0.928-1.82,2.048
		c0,1.138,0.665,2.065,1.82,2.065C83.828,25.564,84.493,24.637,84.493,23.499z"/>
	<path fill="#FFFFFF" d="M88.814,27.734v-6.125h-1.4v-2.328h1.4v-0.192c0-2.013,1.26-3.203,3.028-3.203
		c0.91,0,1.855,0.262,2.415,0.788l-0.98,1.68c-0.21-0.193-0.49-0.298-0.875-0.298c-0.49,0-0.893,0.333-0.893,1.033v0.192h1.715
		v2.328h-1.715v6.125H88.814z"/>
	<path fill="#FFFFFF" d="M97.721,29.905l1.173-1.891c0.665,0.7,1.593,0.98,2.573,0.98c0.893,0,2.153-0.385,2.153-1.995v-0.648
		c-0.7,0.84-1.541,1.243-2.503,1.243c-2.065,0-3.71-1.417-3.71-4.271c0-2.783,1.593-4.253,3.71-4.253
		c0.945,0,1.82,0.368,2.503,1.208v-0.998h2.695V27c0,3.43-2.748,4.165-4.848,4.165C100.014,31.165,98.807,30.797,97.721,29.905z
		 M103.62,24.461v-2.258c-0.333-0.455-1.05-0.752-1.61-0.752c-1.067,0-1.855,0.647-1.855,1.873c0,1.243,0.788,1.891,1.855,1.891
		C102.569,25.214,103.287,24.917,103.62,24.461z"/>
	<path fill="#FFFFFF" d="M107.835,27.734V16.061h2.695v11.674H107.835z"/>
	<path fill="#FFFFFF" d="M111.511,23.499c0-2.38,1.715-4.428,4.586-4.428c2.905,0,4.62,2.048,4.62,4.428s-1.715,4.445-4.62,4.445
		C113.226,27.944,111.511,25.879,111.511,23.499z M117.951,23.499c0-1.12-0.665-2.048-1.854-2.048c-1.155,0-1.82,0.928-1.82,2.048
		c0,1.138,0.665,2.065,1.82,2.065C117.286,25.564,117.951,24.637,117.951,23.499z"/>
	<path fill="#FFFFFF" d="M121.696,27.734V16.061h2.695v4.218c0.665-0.84,1.575-1.208,2.502-1.208c2.118,0,3.729,1.663,3.729,4.428
		c0,2.87-1.646,4.445-3.729,4.445c-0.944,0-1.803-0.385-2.502-1.19v0.98H121.696z M126.001,25.564c1.068,0,1.873-0.788,1.873-2.065
		c0-1.26-0.805-2.048-1.873-2.048c-0.577,0-1.277,0.315-1.609,0.77v2.59C124.724,25.267,125.424,25.564,126.001,25.564z"/>
	<path fill="#FFFFFF" d="M136.589,27.734v-0.84c-0.524,0.63-1.54,1.05-2.625,1.05c-1.295,0-2.905-0.893-2.905-2.783
		c0-2.048,1.61-2.73,2.905-2.73c1.12,0,2.118,0.368,2.625,0.998v-0.84c0-0.735-0.63-1.243-1.715-1.243
		c-0.84,0-1.68,0.333-2.362,0.91l-0.998-1.873c1.085-0.928,2.538-1.313,3.833-1.313c2.03,0,3.938,0.753,3.938,3.378v5.286H136.589z
		 M136.589,25.564v-0.752c-0.279-0.402-0.91-0.595-1.505-0.595c-0.7,0-1.348,0.315-1.348,0.98s0.647,0.98,1.348,0.98
		C135.679,26.177,136.31,25.967,136.589,25.564z"/>
	<path fill="#FFFFFF" d="M140.807,27.734V16.061h2.695v11.674H140.807z"/>
	<path fill="#FFFFFF" d="M15.647,42.499c0-2.45,1.838-4.428,4.48-4.428c2.503,0,4.323,1.838,4.323,4.708v0.613H18.43
		c0.193,0.752,0.893,1.382,2.118,1.382c0.595,0,1.575-0.262,2.065-0.717l1.172,1.768c-0.84,0.752-2.24,1.12-3.535,1.12
		C17.643,46.944,15.647,45.247,15.647,42.499z M20.128,40.241c-1.172,0-1.627,0.7-1.732,1.312h3.482
		C21.808,40.959,21.371,40.241,20.128,40.241z"/>
	<path fill="#FFFFFF" d="M30.47,46.734l-1.61-2.555l-1.663,2.555h-2.94l2.888-4.34l-2.713-4.113h2.958l1.453,2.293l1.435-2.293
		h2.958l-2.695,4.113l2.888,4.34H30.47z"/>
	<path fill="#FFFFFF" d="M36.56,45.737v4.218h-2.695V38.281h2.695v0.98c0.665-0.805,1.54-1.19,2.503-1.19
		c2.118,0,3.71,1.575,3.71,4.428c0,2.87-1.593,4.445-3.71,4.445C38.118,46.944,37.26,46.577,36.56,45.737z M40.025,42.499
		c0-1.26-0.805-2.048-1.855-2.048c-0.578,0-1.278,0.315-1.61,0.77v2.573c0.333,0.438,1.033,0.77,1.61,0.77
		C39.22,44.564,40.025,43.776,40.025,42.499z"/>
	<path fill="#FFFFFF" d="M43.192,42.499c0-2.45,1.838-4.428,4.48-4.428c2.503,0,4.323,1.838,4.323,4.708v0.613h-6.021
		c0.193,0.752,0.893,1.382,2.118,1.382c0.595,0,1.575-0.262,2.065-0.717l1.172,1.768c-0.84,0.752-2.24,1.12-3.535,1.12
		C45.187,46.944,43.192,45.247,43.192,42.499z M47.672,40.241c-1.172,0-1.627,0.7-1.732,1.312h3.482
		C49.353,40.959,48.915,40.241,47.672,40.241z"/>
	<path fill="#FFFFFF" d="M58.61,46.734v-4.883c0-1.033-0.542-1.4-1.382-1.4c-0.805,0-1.331,0.438-1.646,0.823v5.46h-2.695v-8.454
		h2.695v1.033c0.508-0.595,1.505-1.243,2.94-1.243c1.908,0,2.783,1.12,2.783,2.678v5.986H58.61z"/>
	<path fill="#FFFFFF" d="M68.515,46.734v-0.98c-0.7,0.805-1.558,1.19-2.502,1.19c-2.083,0-3.728-1.575-3.728-4.445
		c0-2.765,1.61-4.428,3.728-4.428c0.928,0,1.837,0.368,2.502,1.208v-4.218h2.678v11.674H68.515z M68.515,43.794v-2.59
		c-0.35-0.455-1.05-0.752-1.627-0.752c-1.067,0-1.855,0.788-1.855,2.048s0.788,2.065,1.855,2.065
		C67.465,44.564,68.165,44.249,68.515,43.794z"/>
	<path fill="#FFFFFF" d="M72.539,35.971c0-0.857,0.683-1.54,1.54-1.54c0.858,0,1.558,0.683,1.558,1.54s-0.7,1.558-1.558,1.558
		C73.222,37.528,72.539,36.828,72.539,35.971z M72.731,46.734v-8.454h2.695v8.454H72.731z"/>
	<path fill="#FFFFFF" d="M77.509,44.459v-3.85h-1.4v-2.328h1.4v-2.31h2.695v2.31h1.715v2.328h-1.715v3.098
		c0,0.49,0.28,0.857,0.735,0.857c0.297,0,0.595-0.105,0.683-0.21l0.525,2.03c-0.333,0.315-0.998,0.56-1.995,0.56
		C78.437,46.944,77.509,46.087,77.509,44.459z"/>
	<path fill="#FFFFFF" d="M88.517,46.734v-1.015c-0.525,0.595-1.487,1.225-2.923,1.225c-1.908,0-2.783-1.103-2.783-2.643v-6.021
		h2.695v4.901c0,1.033,0.525,1.382,1.4,1.382c0.77,0,1.295-0.42,1.61-0.822v-5.461h2.695v8.454H88.517z"/>
	<path fill="#FFFFFF" d="M92.733,46.734v-8.454h2.695v1.033c0.56-0.683,1.646-1.26,2.643-1.26v2.59
		c-0.158-0.052-0.385-0.07-0.665-0.07c-0.7,0-1.628,0.297-1.978,0.77v5.391H92.733z"/>
	<path fill="#FFFFFF" d="M98.316,42.499c0-2.45,1.838-4.428,4.48-4.428c2.503,0,4.323,1.838,4.323,4.708v0.613h-6.021
		c0.193,0.752,0.893,1.382,2.118,1.382c0.595,0,1.575-0.262,2.065-0.717l1.172,1.768c-0.84,0.752-2.24,1.12-3.535,1.12
		C100.311,46.944,98.316,45.247,98.316,42.499z M102.796,40.241c-1.172,0-1.627,0.7-1.732,1.312h3.482
		C104.477,40.959,104.039,40.241,102.796,40.241z"/>
	<path fill="#FFFFFF" d="M111.51,42.499c0-2.38,1.715-4.428,4.586-4.428c2.905,0,4.62,2.048,4.62,4.428s-1.715,4.445-4.62,4.445
		C113.225,46.944,111.51,44.879,111.51,42.499z M117.95,42.499c0-1.12-0.665-2.048-1.854-2.048c-1.155,0-1.82,0.928-1.82,2.048
		c0,1.138,0.665,2.065,1.82,2.065C117.285,44.564,117.95,43.637,117.95,42.499z"/>
	<path fill="#FFFFFF" d="M127.418,46.734v-4.883c0-1.033-0.543-1.4-1.383-1.4c-0.805,0-1.33,0.438-1.645,0.823v5.46h-2.695v-8.454
		h2.695v1.033c0.507-0.595,1.505-1.243,2.939-1.243c1.908,0,2.783,1.12,2.783,2.678v5.986H127.418z"/>
	<path fill="#FFFFFF" d="M141.417,46.734v-4.918c0-1.033-0.543-1.365-1.4-1.365c-0.787,0-1.312,0.438-1.627,0.823v5.46h-2.695
		V35.061h2.695v4.253c0.507-0.595,1.505-1.243,2.922-1.243c1.926,0,2.801,1.085,2.801,2.643v6.021H141.417z"/>
	<path fill="#FFFFFF" d="M145.091,42.499c0-2.45,1.838-4.428,4.48-4.428c2.503,0,4.323,1.838,4.323,4.708v0.613h-6.021
		c0.192,0.752,0.893,1.382,2.117,1.382c0.596,0,1.575-0.262,2.065-0.717l1.173,1.768c-0.841,0.752-2.24,1.12-3.536,1.12
		C147.086,46.944,145.091,45.247,145.091,42.499z M149.571,40.241c-1.173,0-1.628,0.7-1.732,1.312h3.482
		C151.252,40.959,150.814,40.241,149.571,40.241z"/>
	<path fill="#FFFFFF" d="M159.773,46.734v-0.84c-0.524,0.63-1.54,1.05-2.625,1.05c-1.295,0-2.905-0.893-2.905-2.783
		c0-2.048,1.61-2.73,2.905-2.73c1.12,0,2.118,0.368,2.625,0.998v-0.84c0-0.735-0.63-1.243-1.715-1.243
		c-0.84,0-1.68,0.333-2.362,0.91l-0.998-1.873c1.085-0.928,2.538-1.313,3.833-1.313c2.03,0,3.938,0.753,3.938,3.378v5.286H159.773z
		 M159.773,44.564v-0.752c-0.279-0.402-0.91-0.595-1.505-0.595c-0.7,0-1.348,0.315-1.348,0.98s0.647,0.98,1.348,0.98
		C158.863,45.177,159.494,44.967,159.773,44.564z"/>
	<path fill="#FFFFFF" d="M163.991,46.734V35.061h2.695v11.674H163.991z"/>
	<path fill="#FFFFFF" d="M168.769,44.459v-3.85h-1.4v-2.328h1.4v-2.31h2.695v2.31h1.715v2.328h-1.715v3.098
		c0,0.49,0.28,0.857,0.735,0.857c0.297,0,0.595-0.105,0.683-0.21l0.524,2.03c-0.332,0.315-0.997,0.56-1.995,0.56
		C169.696,46.944,168.769,46.087,168.769,44.459z"/>
	<path fill="#FFFFFF" d="M179.812,46.734v-4.918c0-1.033-0.543-1.365-1.4-1.365c-0.787,0-1.312,0.438-1.627,0.823v5.46h-2.695
		V35.061h2.695v4.253c0.507-0.595,1.505-1.243,2.922-1.243c1.926,0,2.801,1.085,2.801,2.643v6.021H179.812z"/>
	<path fill="#FFFFFF" d="M188.647,46.734v-6.125h-1.4v-2.328h1.4v-0.192c0-2.013,1.26-3.203,3.028-3.203
		c0.909,0,1.854,0.262,2.415,0.788l-0.98,1.68c-0.21-0.193-0.49-0.298-0.875-0.298c-0.49,0-0.893,0.333-0.893,1.033v0.192h1.715
		v2.328h-1.715v6.125H188.647z"/>
	<path fill="#FFFFFF" d="M193.197,42.499c0-2.38,1.715-4.428,4.586-4.428c2.905,0,4.62,2.048,4.62,4.428s-1.715,4.445-4.62,4.445
		C194.912,46.944,193.197,44.879,193.197,42.499z M199.638,42.499c0-1.12-0.665-2.048-1.854-2.048c-1.155,0-1.82,0.928-1.82,2.048
		c0,1.138,0.665,2.065,1.82,2.065C198.973,44.564,199.638,43.637,199.638,42.499z"/>
	<path fill="#FFFFFF" d="M203.383,46.734v-8.454h2.695v1.033c0.56-0.683,1.645-1.26,2.643-1.26v2.59
		c-0.158-0.052-0.385-0.07-0.665-0.07c-0.7,0-1.628,0.297-1.978,0.77v5.391H203.383z"/>
	<path fill="#FFFFFF" d="M17.186,80.426c0-13.377,6.917-26.146,21.737-26.146S60.66,67.049,60.66,80.426
		s-6.916,26.221-21.737,26.221S17.186,93.803,17.186,80.426z M47.436,80.426c0-8.969-2.432-14.593-8.512-14.593
		c-6.081,0-8.513,5.625-8.513,14.593s2.432,14.668,8.513,14.668C45.003,95.094,47.436,89.395,47.436,80.426z"/>
	<path fill="#FFFFFF" d="M61.493,99.426c0-3.799,3.344-7.068,7.221-7.068c3.876,0,7.144,3.27,7.144,7.068
		c0,3.877-3.268,7.145-7.144,7.145C64.837,106.57,61.493,103.303,61.493,99.426z"/>
	<path fill="#FFFFFF" d="M76.769,80.426c0-13.377,6.917-26.146,21.737-26.146c14.82,0,21.737,12.769,21.737,26.146
		s-6.917,26.221-21.737,26.221C83.685,106.646,76.769,93.803,76.769,80.426z M107.018,80.426c0-8.969-2.432-14.593-8.512-14.593
		c-6.081,0-8.513,5.625-8.513,14.593s2.432,14.668,8.513,14.668C104.586,95.094,107.018,89.395,107.018,80.426z"/>
	<path fill="#FFFFFF" d="M137.037,105.734V71.761l-8.513,8.588l-7.448-7.829l17.709-17.481h11.324v50.694H137.037z"/>
	<path fill="#FFFFFF" d="M153.376,67.049c0-7.145,5.168-12.769,13.148-12.769c8.133,0,13.377,5.624,13.377,12.769
		c0,7.068-5.244,12.617-13.377,12.617C158.544,79.666,153.376,74.117,153.376,67.049z M171.769,67.049
		c0-3.8-2.279-5.776-5.244-5.776c-2.888,0-5.092,1.976-5.092,5.776c0,3.648,2.204,5.625,5.092,5.625
		C169.489,72.673,171.769,70.697,171.769,67.049z M161.509,105.734l32.377-50.694h6.688l-32.453,50.694H161.509z M182.029,94.029
		c0-7.143,5.169-12.768,13.225-12.768c7.98,0,13.225,5.625,13.225,12.768c0,7.068-5.244,12.617-13.225,12.617
		C187.198,106.646,182.029,101.098,182.029,94.029z M200.423,94.029c0-3.799-2.204-5.775-5.169-5.775
		c-2.964,0-5.168,1.977-5.168,5.775c0,3.725,2.204,5.625,5.168,5.625C198.219,99.654,200.423,97.754,200.423,94.029z"/>
	<path fill="#FFFFFF" d="M15.647,120.5c0-2.381,1.715-4.428,4.585-4.428c2.905,0,4.621,2.047,4.621,4.428
		c0,2.379-1.715,4.445-4.621,4.445C17.363,124.945,15.647,122.879,15.647,120.5z M22.088,120.5c0-1.121-0.665-2.049-1.855-2.049
		c-1.155,0-1.82,0.928-1.82,2.049c0,1.137,0.665,2.064,1.82,2.064C21.423,122.564,22.088,121.637,22.088,120.5z"/>
	<path fill="#FFFFFF" d="M26.41,124.734v-6.125h-1.4v-2.328h1.4v-0.191c0-2.014,1.26-3.203,3.028-3.203
		c0.91,0,1.855,0.262,2.415,0.787l-0.98,1.68c-0.21-0.191-0.49-0.297-0.875-0.297c-0.49,0-0.893,0.332-0.893,1.033v0.191h1.715
		v2.328h-1.715v6.125H26.41z"/>
	<path fill="#FFFFFF" d="M35.317,126.904l1.173-1.889c0.665,0.699,1.593,0.979,2.573,0.979c0.893,0,2.153-0.385,2.153-1.994v-0.648
		c-0.7,0.84-1.541,1.244-2.503,1.244c-2.065,0-3.71-1.418-3.71-4.271c0-2.783,1.593-4.252,3.71-4.252
		c0.945,0,1.82,0.367,2.503,1.207v-0.998h2.695V124c0,3.43-2.748,4.166-4.848,4.166C37.61,128.166,36.402,127.797,35.317,126.904z
		 M41.215,121.463v-2.258c-0.333-0.455-1.05-0.754-1.61-0.754c-1.067,0-1.855,0.648-1.855,1.873c0,1.242,0.788,1.891,1.855,1.891
		C40.165,122.215,40.883,121.918,41.215,121.463z"/>
	<path fill="#FFFFFF" d="M45.432,124.734v-11.674h2.695v11.674H45.432z"/>
	<path fill="#FFFFFF" d="M49.106,120.5c0-2.381,1.715-4.428,4.585-4.428c2.905,0,4.621,2.047,4.621,4.428
		c0,2.379-1.715,4.445-4.621,4.445C50.822,124.945,49.106,122.879,49.106,120.5z M55.547,120.5c0-1.121-0.665-2.049-1.855-2.049
		c-1.155,0-1.82,0.928-1.82,2.049c0,1.137,0.665,2.064,1.82,2.064C54.882,122.564,55.547,121.637,55.547,120.5z"/>
	<path fill="#FFFFFF" d="M59.291,124.734v-11.674h2.695v4.219c0.665-0.84,1.575-1.207,2.503-1.207c2.118,0,3.728,1.662,3.728,4.428
		c0,2.869-1.646,4.445-3.728,4.445c-0.945,0-1.803-0.385-2.503-1.191v0.98H59.291z M63.597,122.564c1.067,0,1.873-0.787,1.873-2.064
		c0-1.26-0.805-2.049-1.873-2.049c-0.578,0-1.278,0.316-1.61,0.771v2.59C62.319,122.268,63.019,122.564,63.597,122.564z"/>
	<path fill="#FFFFFF" d="M74.184,124.734v-0.84c-0.525,0.631-1.541,1.051-2.625,1.051c-1.295,0-2.905-0.893-2.905-2.783
		c0-2.047,1.61-2.73,2.905-2.73c1.12,0,2.118,0.367,2.625,0.998v-0.84c0-0.736-0.63-1.242-1.715-1.242
		c-0.84,0-1.68,0.332-2.363,0.908l-0.998-1.871c1.085-0.928,2.538-1.312,3.833-1.312c2.03,0,3.938,0.752,3.938,3.377v5.285H74.184z
		 M74.184,122.564v-0.752c-0.28-0.402-0.91-0.596-1.505-0.596c-0.7,0-1.348,0.314-1.348,0.98c0,0.664,0.647,0.98,1.348,0.98
		C73.274,123.178,73.904,122.967,74.184,122.564z"/>
	<path fill="#FFFFFF" d="M78.401,124.734v-11.674h2.695v11.674H78.401z"/>
	<path fill="#FFFFFF" d="M86.661,124.734v-11.674h2.695v4.219c0.665-0.84,1.575-1.207,2.503-1.207c2.118,0,3.728,1.662,3.728,4.428
		c0,2.869-1.646,4.445-3.728,4.445c-0.945,0-1.803-0.385-2.503-1.191v0.98H86.661z M90.966,122.564c1.067,0,1.873-0.787,1.873-2.064
		c0-1.26-0.805-2.049-1.873-2.049c-0.578,0-1.278,0.316-1.61,0.771v2.59C89.688,122.268,90.389,122.564,90.966,122.564z"/>
	<path fill="#FFFFFF" d="M102.271,124.734v-1.014c-0.525,0.594-1.487,1.225-2.923,1.225c-1.908,0-2.783-1.104-2.783-2.643v-6.021
		h2.695v4.9c0,1.033,0.525,1.383,1.4,1.383c0.77,0,1.295-0.42,1.61-0.822v-5.461h2.695v8.453H102.271z"/>
	<path fill="#FFFFFF" d="M106.488,124.734v-8.453h2.695v1.033c0.56-0.684,1.645-1.26,2.643-1.26v2.59
		c-0.158-0.053-0.385-0.07-0.665-0.07c-0.7,0-1.628,0.297-1.978,0.77v5.391H106.488z"/>
	<path fill="#FFFFFF" d="M118.301,124.734v-0.98c-0.7,0.807-1.558,1.191-2.503,1.191c-2.082,0-3.728-1.576-3.728-4.445
		c0-2.766,1.61-4.428,3.728-4.428c0.928,0,1.838,0.367,2.503,1.207v-4.219h2.678v11.674H118.301z M118.301,121.795v-2.59
		c-0.35-0.455-1.05-0.754-1.627-0.754c-1.068,0-1.855,0.789-1.855,2.049s0.787,2.064,1.855,2.064
		C117.251,122.564,117.951,122.25,118.301,121.795z"/>
	<path fill="#FFFFFF" d="M121.975,120.5c0-2.451,1.838-4.428,4.48-4.428c2.503,0,4.323,1.836,4.323,4.707v0.613h-6.021
		c0.192,0.752,0.893,1.383,2.117,1.383c0.596,0,1.575-0.264,2.065-0.719l1.173,1.768c-0.841,0.754-2.24,1.121-3.535,1.121
		C123.97,124.945,121.975,123.248,121.975,120.5z M126.455,118.242c-1.173,0-1.628,0.699-1.732,1.312h3.482
		C128.136,118.959,127.697,118.242,126.455,118.242z"/>
	<path fill="#FFFFFF" d="M137.393,124.734v-4.883c0-1.033-0.543-1.4-1.383-1.4c-0.805,0-1.33,0.438-1.645,0.822v5.461h-2.695v-8.453
		h2.695v1.033c0.507-0.596,1.505-1.242,2.939-1.242c1.908,0,2.783,1.119,2.783,2.678v5.984H137.393z"/>
	<path fill="#FFFFFF" d="M15.647,139.5c0-2.381,1.715-4.428,4.585-4.428c2.905,0,4.621,2.047,4.621,4.428
		c0,2.379-1.715,4.445-4.621,4.445C17.363,143.945,15.647,141.879,15.647,139.5z M22.088,139.5c0-1.121-0.665-2.049-1.855-2.049
		c-1.155,0-1.82,0.928-1.82,2.049c0,1.137,0.665,2.064,1.82,2.064C21.423,141.564,22.088,140.637,22.088,139.5z"/>
	<path fill="#FFFFFF" d="M26.41,143.734v-6.125h-1.4v-2.328h1.4v-0.191c0-2.014,1.26-3.203,3.028-3.203
		c0.91,0,1.855,0.262,2.415,0.787l-0.98,1.68c-0.21-0.191-0.49-0.297-0.875-0.297c-0.49,0-0.893,0.332-0.893,1.033v0.191h1.715
		v2.328h-1.715v6.125H26.41z"/>
	<path fill="#FFFFFF" d="M41.232,143.734v-0.98c-0.7,0.807-1.558,1.191-2.502,1.191c-2.083,0-3.728-1.576-3.728-4.445
		c0-2.766,1.61-4.428,3.728-4.428c0.928,0,1.837,0.367,2.502,1.207v-4.219h2.678v11.674H41.232z M41.232,140.795v-2.59
		c-0.35-0.455-1.05-0.754-1.627-0.754c-1.067,0-1.855,0.789-1.855,2.049s0.788,2.064,1.855,2.064
		C40.183,141.564,40.883,141.25,41.232,140.795z"/>
	<path fill="#FFFFFF" d="M45.257,132.971c0-0.857,0.683-1.539,1.54-1.539c0.858,0,1.558,0.682,1.558,1.539s-0.7,1.559-1.558,1.559
		C45.939,134.529,45.257,133.828,45.257,132.971z M45.449,143.734v-8.453h2.695v8.453H45.449z"/>
	<path fill="#FFFFFF" d="M48.949,142.633l1.12-1.926c0.63,0.561,1.978,1.137,2.975,1.137c0.805,0,1.138-0.227,1.138-0.594
		c0-1.051-4.918,0.035-4.918-3.396c0-1.486,1.295-2.781,3.623-2.781c1.436,0,2.625,0.455,3.536,1.119L55.39,138.1
		c-0.507-0.49-1.47-0.928-2.485-0.928c-0.63,0-1.05,0.244-1.05,0.578c0,0.928,4.9-0.035,4.9,3.43c0,1.609-1.417,2.766-3.833,2.766
		C51.399,143.945,49.842,143.438,48.949,142.633z"/>
	<path fill="#FFFFFF" d="M57.156,139.5c0-2.451,1.838-4.428,4.48-4.428c2.503,0,4.323,1.836,4.323,4.707v0.613h-6.021
		c0.193,0.752,0.893,1.383,2.118,1.383c0.595,0,1.575-0.264,2.065-0.719l1.172,1.768c-0.84,0.754-2.24,1.121-3.535,1.121
		C59.151,143.945,57.156,142.248,57.156,139.5z M61.637,137.242c-1.172,0-1.627,0.699-1.732,1.312h3.482
		C63.317,137.959,62.879,137.242,61.637,137.242z"/>
	<path fill="#FFFFFF" d="M71.839,143.734v-0.84c-0.525,0.631-1.541,1.051-2.625,1.051c-1.295,0-2.905-0.893-2.905-2.783
		c0-2.047,1.61-2.73,2.905-2.73c1.12,0,2.118,0.367,2.625,0.998v-0.84c0-0.736-0.63-1.242-1.715-1.242
		c-0.84,0-1.68,0.332-2.363,0.908l-0.998-1.871c1.085-0.928,2.538-1.312,3.833-1.312c2.03,0,3.938,0.752,3.938,3.377v5.285H71.839z
		 M71.839,141.564v-0.752c-0.28-0.402-0.91-0.596-1.505-0.596c-0.7,0-1.348,0.314-1.348,0.98c0,0.664,0.647,0.98,1.348,0.98
		C70.929,142.178,71.559,141.967,71.839,141.564z"/>
	<path fill="#FFFFFF" d="M75.339,142.633l1.12-1.926c0.63,0.561,1.978,1.137,2.975,1.137c0.805,0,1.138-0.227,1.138-0.594
		c0-1.051-4.918,0.035-4.918-3.396c0-1.486,1.295-2.781,3.623-2.781c1.436,0,2.625,0.455,3.536,1.119l-1.033,1.908
		c-0.507-0.49-1.47-0.928-2.485-0.928c-0.63,0-1.05,0.244-1.05,0.578c0,0.928,4.9-0.035,4.9,3.43c0,1.609-1.417,2.766-3.833,2.766
		C77.789,143.945,76.231,143.438,75.339,142.633z"/>
	<path fill="#FFFFFF" d="M83.546,139.5c0-2.451,1.838-4.428,4.48-4.428c2.503,0,4.323,1.836,4.323,4.707v0.613h-6.021
		c0.193,0.752,0.893,1.383,2.118,1.383c0.595,0,1.575-0.264,2.065-0.719l1.172,1.768c-0.84,0.754-2.24,1.121-3.535,1.121
		C85.541,143.945,83.546,142.248,83.546,139.5z M88.026,137.242c-1.172,0-1.627,0.699-1.732,1.312h3.482
		C89.707,137.959,89.269,137.242,88.026,137.242z"/>
</g>
</svg>
