<?xml version="1.0" encoding="utf-8"?>
<!-- Generator: Adobe Illustrator 16.0.0, SVG Export Plug-In . SVG Version: 6.00 Build 0)  -->
<!DOCTYPE svg PUBLIC "-//W3C//DTD SVG 1.1//EN" "http://www.w3.org/Graphics/SVG/1.1/DTD/svg11.dtd">
<svg version="1.1" id="Layer_1" xmlns="http://www.w3.org/2000/svg" xmlns:xlink="http://www.w3.org/1999/xlink" x="0px" y="0px"
	 width="220px" height="223.223px" viewBox="0 0 220 223.223" enable-background="new 0 0 220 223.223" xml:space="preserve">
<rect x="0" fill="#259AD6" width="220" height="223.222"/>
<g>
	<path fill="#FFFFFF" d="M16.041,57.195V35.363h9.624v21.502c0,4.344,2.64,7.479,7.754,7.479c5.059,0,7.699-3.134,7.699-7.479
		V35.363h9.569v21.777c0,9.128-5.499,15.563-17.268,15.563S16.041,66.214,16.041,57.195z"/>
	<path fill="#FFFFFF" d="M51.901,66.874l5.004-7.369c2.64,2.64,6.709,4.839,11.769,4.839c3.189,0,5.169-1.1,5.169-2.915
		c0-4.839-20.732-0.825-20.732-14.958c0-6.159,5.169-11.658,14.573-11.658c5.884,0,10.999,1.76,14.903,5.114l-5.169,7.094
		c-3.08-2.585-7.094-3.85-10.724-3.85c-2.75,0-3.959,0.935-3.959,2.53c0,4.509,20.732,1.1,20.732,14.738
		c0,7.369-5.444,12.264-15.288,12.264C60.754,72.704,55.585,70.339,51.901,66.874z"/>
	<path fill="#FFFFFF" d="M96.338,72.539c-5.829-0.55-10.063-2.695-13.198-5.665l5.004-7.369c1.979,1.979,4.784,3.739,8.194,4.454
		v-6.104C90.674,56.59,84.35,54.281,84.35,46.472c0-5.554,4.234-10.613,11.988-11.493v-5.169h6.104v5.224
		c4.399,0.605,8.249,2.255,11.384,4.895l-5.17,7.094c-1.869-1.54-4.014-2.585-6.214-3.19v5.334
		c5.719,1.32,12.263,3.629,12.263,11.273c0,6.599-4.344,11.219-12.263,12.099v5.004h-6.104V72.539z M96.338,47.737v-4.399
		c-1.65,0.275-2.365,1.155-2.365,2.365C93.973,46.692,94.853,47.297,96.338,47.737z M102.442,59.23v4.839
		c1.65-0.44,2.64-1.375,2.64-2.64C105.082,60.385,104.037,59.725,102.442,59.23z"/>
	<path fill="#FFFFFF" d="M120.045,72.043l12.428-28.431H114.6v-8.249h28.762v6.544l-12.924,30.136H120.045z"/>
	<path fill="#FFFFFF" d="M142.924,53.731c0-9.679,5.006-18.917,15.729-18.917s15.729,9.239,15.729,18.917
		s-5.006,18.973-15.729,18.973S142.924,63.41,142.924,53.731z M164.812,53.731c0-6.489-1.76-10.559-6.16-10.559
		c-4.398,0-6.158,4.069-6.158,10.559s1.76,10.613,6.158,10.613C163.053,64.344,164.812,60.22,164.812,53.731z"/>
	<path fill="#FFFFFF" d="M175.594,53.731c0-9.679,5.004-18.917,15.729-18.917c10.723,0,15.727,9.239,15.727,18.917
		s-5.004,18.973-15.727,18.973C180.598,72.704,175.594,63.41,175.594,53.731z M197.48,53.731c0-6.489-1.76-10.559-6.158-10.559
		c-4.4,0-6.16,4.069-6.16,10.559s1.76,10.613,6.16,10.613C195.721,64.344,197.48,60.22,197.48,53.731z"/>
	<path fill="#FFFFFF" d="M15.6,110.254v-7.094h29.311v7.094H15.6z"/>
	<path fill="#FFFFFF" d="M56.574,110.365c0-4.18,3.189-7.59,7.424-9.24c-3.905-1.484-6.819-4.123-6.819-8.523
		c0-7.094,7.809-9.788,14.958-9.788s14.958,2.694,14.958,9.788c0,4.4-2.915,7.039-6.874,8.523c4.29,1.65,7.479,5.061,7.479,9.24
		c0,7.148-7.644,10.338-15.563,10.338S56.574,117.568,56.574,110.365z M78.076,109.045c0-2.199-3.63-3.355-5.939-3.629
		c-2.365,0.273-5.939,1.43-5.939,3.629c0,1.98,2.419,3.299,5.939,3.299C75.546,112.344,78.076,111.025,78.076,109.045z
		 M77.416,94.197c0-1.926-2.09-3.025-5.279-3.025s-5.334,1.1-5.334,3.025c0,1.869,3.08,2.914,5.334,3.244
		C74.392,97.111,77.416,96.066,77.416,94.197z"/>
	<path fill="#FFFFFF" d="M87.813,101.73c0-9.678,5.004-18.917,15.728-18.917c10.724,0,15.728,9.239,15.728,18.917
		c0,9.68-5.004,18.973-15.728,18.973C92.818,120.703,87.813,111.41,87.813,101.73z M109.701,101.73
		c0-6.488-1.76-10.559-6.159-10.559s-6.159,4.07-6.159,10.559c0,6.49,1.76,10.613,6.159,10.613S109.701,108.221,109.701,101.73z"/>
	<path fill="#FFFFFF" d="M120.484,101.73c0-9.678,5.004-18.917,15.729-18.917c10.723,0,15.727,9.239,15.727,18.917
		c0,9.68-5.004,18.973-15.727,18.973C125.488,120.703,120.484,111.41,120.484,101.73z M142.371,101.73
		c0-6.488-1.76-10.559-6.158-10.559c-4.4,0-6.16,4.07-6.16,10.559c0,6.49,1.76,10.613,6.16,10.613
		C140.611,112.344,142.371,108.221,142.371,101.73z"/>
	<path fill="#FFFFFF" d="M49.311,168.043v-16.168c0-2.033-0.99-3.574-3.52-3.574c-2.31,0-3.959,1.484-4.785,2.584v17.158h-8.469
		v-16.168c0-2.033-0.935-3.574-3.464-3.574c-2.31,0-3.905,1.484-4.785,2.584v17.158H15.82v-26.561h8.469v3.244
		c1.155-1.539,4.564-3.904,8.744-3.904c3.849,0,6.434,1.594,7.534,4.729c1.54-2.309,5.004-4.729,9.184-4.729
		c4.894,0,7.974,2.529,7.974,7.975v19.246H49.311z"/>
	<path fill="#FFFFFF" d="M61.305,134.223c0-2.695,2.145-4.84,4.839-4.84s4.895,2.145,4.895,4.84s-2.2,4.895-4.895,4.895
		S61.305,136.918,61.305,134.223z M61.91,168.043v-26.561h8.469v26.561H61.91z"/>
	<path fill="#FFFFFF" d="M74.505,168.043v-36.68h8.469v36.68H74.505z"/>
	<path fill="#FFFFFF" d="M87.099,168.043v-36.68h8.469v36.68H87.099z"/>
	<path fill="#FFFFFF" d="M99.088,134.223c0-2.695,2.145-4.84,4.839-4.84s4.894,2.145,4.894,4.84s-2.199,4.895-4.894,4.895
		S99.088,136.918,99.088,134.223z M99.693,168.043v-26.561h8.469v26.561H99.693z"/>
	<path fill="#FFFFFF" d="M110.583,154.734c0-7.479,5.389-13.912,14.409-13.912c9.129,0,14.518,6.434,14.518,13.912
		c0,7.48-5.389,13.969-14.518,13.969C115.973,168.703,110.583,162.215,110.583,154.734z M130.82,154.734
		c0-3.52-2.09-6.434-5.828-6.434c-3.631,0-5.721,2.914-5.721,6.434c0,3.576,2.09,6.49,5.721,6.49
		C128.73,161.225,130.82,158.311,130.82,154.734z"/>
	<path fill="#FFFFFF" d="M159.916,168.043v-15.342c0-3.246-1.705-4.4-4.346-4.4c-2.529,0-4.18,1.375-5.168,2.584v17.158h-8.469
		v-26.561h8.469v3.244c1.594-1.869,4.729-3.904,9.238-3.904c5.994,0,8.744,3.52,8.744,8.414v18.807H159.916z"/>
	<path fill="#FFFFFF" d="M15.603,187.043v-6.301h-1.44v-2.395h1.44v-0.199c0-2.07,1.296-3.295,3.115-3.295
		c0.937,0,1.909,0.27,2.485,0.811l-1.008,1.729c-0.216-0.197-0.504-0.307-0.9-0.307c-0.504,0-0.918,0.342-0.918,1.062v0.199h1.764
		v2.395h-1.764v6.301H15.603z"/>
	<path fill="#FFFFFF" d="M27.16,187.043V186c-0.54,0.611-1.53,1.26-3.007,1.26c-1.962,0-2.863-1.135-2.863-2.719v-6.193h2.773v5.041
		c0,1.062,0.54,1.422,1.44,1.422c0.792,0,1.333-0.432,1.656-0.846v-5.617h2.773v8.695H27.16z"/>
	<path fill="#FFFFFF" d="M37.834,187.043v-5.023c0-1.062-0.558-1.439-1.422-1.439c-0.828,0-1.368,0.449-1.692,0.846v5.617h-2.773
		v-8.695h2.773v1.061c0.522-0.611,1.548-1.277,3.025-1.277c1.962,0,2.863,1.152,2.863,2.754v6.158H37.834z"/>
	<path fill="#FFFFFF" d="M48.472,187.043v-1.008c-0.72,0.828-1.602,1.225-2.575,1.225c-2.143,0-3.835-1.621-3.835-4.574
		c0-2.844,1.656-4.555,3.835-4.555c0.955,0,1.891,0.379,2.575,1.242v-4.34h2.755v12.01H48.472z M48.472,184.018v-2.664
		c-0.36-0.469-1.08-0.773-1.674-0.773c-1.098,0-1.909,0.811-1.909,2.105c0,1.297,0.811,2.125,1.909,2.125
		C47.392,184.811,48.112,184.486,48.472,184.018z"/>
	<path fill="#FFFFFF" d="M53.06,175.971c0-0.883,0.703-1.586,1.584-1.586c0.882,0,1.603,0.703,1.603,1.586
		c0,0.881-0.72,1.602-1.603,1.602C53.762,177.572,53.06,176.852,53.06,175.971z M53.258,187.043v-8.695h2.773v8.695H53.258z"/>
	<path fill="#FFFFFF" d="M63.933,187.043v-5.023c0-1.062-0.558-1.439-1.422-1.439c-0.828,0-1.369,0.449-1.692,0.846v5.617h-2.773
		v-8.695h2.773v1.061c0.522-0.611,1.548-1.277,3.025-1.277c1.962,0,2.863,1.152,2.863,2.754v6.158H63.933z"/>
	<path fill="#FFFFFF" d="M68.485,189.275l1.206-1.943c0.684,0.719,1.639,1.008,2.647,1.008c0.918,0,2.215-0.396,2.215-2.053v-0.666
		c-0.721,0.863-1.585,1.277-2.575,1.277c-2.125,0-3.817-1.457-3.817-4.393c0-2.863,1.638-4.375,3.817-4.375
		c0.973,0,1.873,0.379,2.575,1.242v-1.025h2.772v7.939c0,3.529-2.827,4.285-4.987,4.285
		C70.844,190.572,69.602,190.195,68.485,189.275z M74.553,183.676v-2.322c-0.342-0.469-1.081-0.773-1.657-0.773
		c-1.098,0-1.909,0.666-1.909,1.926c0,1.279,0.811,1.945,1.909,1.945C73.473,184.451,74.211,184.145,74.553,183.676z"/>
	<path fill="#FFFFFF" d="M89.817,187.043V186c-0.54,0.611-1.53,1.26-3.007,1.26c-1.962,0-2.863-1.135-2.863-2.719v-6.193h2.773
		v5.041c0,1.062,0.54,1.422,1.44,1.422c0.792,0,1.332-0.432,1.656-0.846v-5.617h2.773v8.695H89.817z"/>
	<path fill="#FFFFFF" d="M94.603,187.043v-8.695h2.773v1.061c0.576-0.701,1.692-1.295,2.719-1.295v2.664
		c-0.162-0.055-0.396-0.072-0.684-0.072c-0.72,0-1.675,0.307-2.035,0.793v5.545H94.603z"/>
	<path fill="#FFFFFF" d="M101.119,189.275l1.206-1.943c0.684,0.719,1.639,1.008,2.647,1.008c0.918,0,2.215-0.396,2.215-2.053v-0.666
		c-0.721,0.863-1.585,1.277-2.575,1.277c-2.125,0-3.817-1.457-3.817-4.393c0-2.863,1.638-4.375,3.817-4.375
		c0.973,0,1.873,0.379,2.575,1.242v-1.025h2.772v7.939c0,3.529-2.827,4.285-4.987,4.285
		C103.478,190.572,102.235,190.195,101.119,189.275z M107.187,183.676v-2.322c-0.342-0.469-1.081-0.773-1.657-0.773
		c-1.098,0-1.909,0.666-1.909,1.926c0,1.279,0.811,1.945,1.909,1.945C106.106,184.451,106.845,184.145,107.187,183.676z"/>
	<path fill="#FFFFFF" d="M111.416,182.686c0-2.52,1.891-4.555,4.609-4.555c2.574,0,4.447,1.891,4.447,4.844v0.629h-6.193
		c0.197,0.775,0.918,1.424,2.178,1.424c0.611,0,1.621-0.271,2.125-0.738l1.205,1.818c-0.863,0.773-2.305,1.152-3.637,1.152
		C113.469,187.26,111.416,185.514,111.416,182.686z M116.025,180.363c-1.207,0-1.676,0.721-1.783,1.35h3.584
		C117.754,181.102,117.303,180.363,116.025,180.363z"/>
	<path fill="#FFFFFF" d="M127.727,187.043v-5.023c0-1.062-0.559-1.439-1.424-1.439c-0.828,0-1.367,0.449-1.691,0.846v5.617h-2.773
		v-8.695h2.773v1.061c0.521-0.611,1.549-1.277,3.023-1.277c1.963,0,2.863,1.152,2.863,2.754v6.158H127.727z"/>
	<path fill="#FFFFFF" d="M133.088,184.703v-3.961h-1.439v-2.395h1.439v-2.377h2.773v2.377h1.764v2.395h-1.764v3.186
		c0,0.506,0.287,0.883,0.756,0.883c0.307,0,0.611-0.107,0.701-0.217l0.541,2.09c-0.342,0.324-1.025,0.576-2.053,0.576
		C134.043,187.26,133.088,186.377,133.088,184.703z"/>
	<path fill="#FFFFFF" d="M138.992,187.043v-12.01h2.771v12.01H138.992z"/>
	<path fill="#FFFFFF" d="M143.996,187.961c0.197,0.109,0.467,0.162,0.684,0.162c0.631,0,1.025-0.125,1.188-0.486l0.199-0.467
		l-3.475-8.822h2.916l1.98,5.51l1.963-5.51h2.936l-3.926,9.938c-0.703,1.838-1.998,2.252-3.674,2.287
		c-0.252,0-0.9-0.055-1.188-0.145L143.996,187.961z"/>
	<path fill="#FFFFFF" d="M20.896,206.043v-5.023c0-1.062-0.558-1.439-1.422-1.439c-0.828,0-1.368,0.449-1.692,0.846v5.617h-2.773
		v-8.695h2.773v1.061c0.522-0.611,1.548-1.277,3.025-1.277c1.962,0,2.863,1.152,2.863,2.754v6.158H20.896z"/>
	<path fill="#FFFFFF" d="M25.125,201.686c0-2.52,1.891-4.555,4.609-4.555c2.575,0,4.447,1.891,4.447,4.844v0.629h-6.194
		c0.198,0.775,0.918,1.424,2.179,1.424c0.612,0,1.621-0.271,2.125-0.738l1.207,1.818c-0.864,0.773-2.305,1.152-3.637,1.152
		C27.177,206.26,25.125,204.514,25.125,201.686z M29.734,199.363c-1.207,0-1.675,0.721-1.783,1.35h3.583
		C31.462,200.102,31.012,199.363,29.734,199.363z"/>
	<path fill="#FFFFFF" d="M34.988,201.686c0-2.52,1.891-4.555,4.609-4.555c2.575,0,4.447,1.891,4.447,4.844v0.629h-6.194
		c0.198,0.775,0.918,1.424,2.179,1.424c0.612,0,1.621-0.271,2.125-0.738l1.207,1.818c-0.864,0.773-2.305,1.152-3.637,1.152
		C37.041,206.26,34.988,204.514,34.988,201.686z M39.598,199.363c-1.207,0-1.674,0.721-1.783,1.35h3.583
		C41.326,200.102,40.876,199.363,39.598,199.363z"/>
	<path fill="#FFFFFF" d="M51.262,206.043v-1.008c-0.72,0.828-1.602,1.225-2.575,1.225c-2.143,0-3.835-1.621-3.835-4.574
		c0-2.844,1.656-4.555,3.835-4.555c0.955,0,1.891,0.379,2.575,1.242v-4.34h2.755v12.01H51.262z M51.262,203.018v-2.664
		c-0.36-0.469-1.08-0.773-1.674-0.773c-1.098,0-1.909,0.811-1.909,2.105c0,1.297,0.811,2.125,1.909,2.125
		C50.182,203.811,50.902,203.486,51.262,203.018z"/>
	<path fill="#FFFFFF" d="M55.49,201.686c0-2.52,1.891-4.555,4.609-4.555c2.575,0,4.447,1.891,4.447,4.844v0.629h-6.194
		c0.198,0.775,0.918,1.424,2.179,1.424c0.612,0,1.621-0.271,2.125-0.738l1.207,1.818c-0.864,0.773-2.305,1.152-3.637,1.152
		C57.542,206.26,55.49,204.514,55.49,201.686z M60.099,199.363c-1.207,0-1.675,0.721-1.783,1.35h3.583
		C61.828,200.102,61.377,199.363,60.099,199.363z"/>
	<path fill="#FFFFFF" d="M71.763,206.043v-1.008c-0.72,0.828-1.603,1.225-2.575,1.225c-2.143,0-3.835-1.621-3.835-4.574
		c0-2.844,1.656-4.555,3.835-4.555c0.955,0,1.891,0.379,2.575,1.242v-4.34h2.755v12.01H71.763z M71.763,203.018v-2.664
		c-0.36-0.469-1.08-0.773-1.674-0.773c-1.098,0-1.909,0.811-1.909,2.105c0,1.297,0.811,2.125,1.909,2.125
		C70.683,203.811,71.403,203.486,71.763,203.018z"/>
</g>
<g>
	<path fill="#FFFFFF" d="M15.81,22.732v-6.667h4.887v1.5h-3.168v1.039h3.098v1.5h-3.098v1.129h3.168v1.499H15.81z"/>
	<path fill="#FFFFFF" d="M21.22,21.792l0.909-1.339c0.48,0.48,1.219,0.879,2.139,0.879c0.58,0,0.939-0.2,0.939-0.529
		c0-0.88-3.768-0.15-3.768-2.719c0-1.119,0.939-2.119,2.648-2.119c1.069,0,1.999,0.32,2.708,0.929l-0.939,1.29
		c-0.56-0.47-1.289-0.7-1.949-0.7c-0.5,0-0.72,0.17-0.72,0.459c0,0.82,3.768,0.2,3.768,2.679c0,1.339-0.99,2.229-2.779,2.229
		C22.829,22.852,21.889,22.422,21.22,21.792z"/>
	<path fill="#FFFFFF" d="M29.079,22.732v-5.167h-1.869v-1.5h5.447v1.5h-1.859v5.167H29.079z"/>
	<path fill="#FFFFFF" d="M33.479,22.732v-6.667h1.719v6.667H33.479z"/>
	<path fill="#FFFFFF" d="M42.246,22.732v-4.408l-1.679,4.408h-0.76l-1.689-4.408v4.408h-1.719v-6.667h2.389l1.399,3.678l1.389-3.678
		h2.389v6.667H42.246z"/>
	<path fill="#FFFFFF" d="M49.697,22.732l-0.33-0.959h-2.628l-0.33,0.959H44.46l2.509-6.667h2.168l2.509,6.667H49.697z
		 M48.058,17.765l-0.85,2.509h1.689L48.058,17.765z"/>
	<path fill="#FFFFFF" d="M53.008,22.732v-5.167h-1.869v-1.5h5.447v1.5h-1.859v5.167H53.008z"/>
	<path fill="#FFFFFF" d="M57.409,22.732v-6.667h4.887v1.5h-3.168v1.039h3.098v1.5h-3.098v1.129h3.168v1.499H57.409z"/>
	<path fill="#FFFFFF" d="M63.299,22.732v-6.667h2.798c2.099,0,3.608,1.259,3.608,3.328s-1.509,3.338-3.598,3.338H63.299z
		 M67.946,19.394c0-1.029-0.62-1.829-1.839-1.829h-1.089v3.668h1.079C67.267,21.233,67.946,20.383,67.946,19.394z"/>
	<path fill="#FFFFFF" d="M70.369,18.774c0-0.51,0.439-0.939,0.949-0.939s0.939,0.43,0.939,0.939s-0.43,0.939-0.939,0.939
		S70.369,19.284,70.369,18.774z M70.369,21.902c0-0.5,0.439-0.929,0.949-0.929s0.939,0.43,0.939,0.929
		c0,0.51-0.43,0.939-0.939,0.939S70.369,22.412,70.369,21.902z"/>
</g>
</svg>
