<?xml version="1.0" encoding="utf-8"?>
<!-- Generator: Adobe Illustrator 16.0.0, SVG Export Plug-In . SVG Version: 6.00 Build 0)  -->
<!DOCTYPE svg PUBLIC "-//W3C//DTD SVG 1.1//EN" "http://www.w3.org/Graphics/SVG/1.1/DTD/svg11.dtd">
<svg version="1.1" id="Layer_1" xmlns="http://www.w3.org/2000/svg" xmlns:xlink="http://www.w3.org/1999/xlink" x="0px" y="0px"
	 width="220px" height="161px" viewBox="0 0 220 161" enable-background="new 0 0 220 161" xml:space="preserve">
<rect x="0" fill="#259AD6" width="220" height="161"/>
<g>
	<path fill="#FFFFFF" d="M16.29,23.207v-7.148h3.151v7.04c0,1.423,0.864,2.449,2.539,2.449c1.657,0,2.521-1.026,2.521-2.449v-7.04
		h3.133v7.13c0,2.989-1.801,5.095-5.654,5.095S16.29,26.159,16.29,23.207z"/>
	<path fill="#FFFFFF" d="M28.926,26.375l1.639-2.413c0.864,0.864,2.197,1.585,3.853,1.585c1.044,0,1.693-0.36,1.693-0.955
		c0-1.584-6.788-0.27-6.788-4.897c0-2.017,1.692-3.817,4.771-3.817c1.926,0,3.601,0.576,4.879,1.674l-1.693,2.323
		c-1.008-0.846-2.322-1.26-3.511-1.26c-0.9,0-1.296,0.306-1.296,0.828c0,1.477,6.788,0.36,6.788,4.825
		c0,2.413-1.783,4.015-5.005,4.015C31.825,28.284,30.132,27.51,28.926,26.375z"/>
	<path fill="#FFFFFF" d="M44.371,28.23c-1.909-0.18-3.295-0.882-4.321-1.854l1.639-2.413c0.648,0.648,1.566,1.225,2.683,1.458
		v-1.999c-1.854-0.414-3.925-1.17-3.925-3.727c0-1.818,1.387-3.475,3.925-3.763V14.24h1.999v1.71
		c1.44,0.198,2.701,0.738,3.727,1.603l-1.692,2.323c-0.612-0.504-1.314-0.846-2.035-1.044v1.747
		c1.873,0.432,4.015,1.188,4.015,3.691c0,2.161-1.422,3.673-4.015,3.961v1.639h-1.999V28.23z M44.371,20.109v-1.44
		c-0.54,0.09-0.774,0.378-0.774,0.774C43.597,19.768,43.885,19.965,44.371,20.109z M46.37,23.873v1.584
		c0.54-0.144,0.864-0.45,0.864-0.864C47.234,24.25,46.892,24.035,46.37,23.873z"/>
	<path fill="#FFFFFF" d="M54.739,28.068V20.02l-2.017,2.035L50.958,20.2l4.195-4.142h2.683v12.01H54.739z"/>
	<path fill="#FFFFFF" d="M59.922,28.068v-12.01h2.773v4.339c0.684-0.864,1.621-1.242,2.575-1.242c2.179,0,3.835,1.71,3.835,4.555
		c0,2.953-1.692,4.573-3.835,4.573c-0.972,0-1.854-0.396-2.575-1.224v1.008H59.922z M64.351,25.835c1.099,0,1.927-0.811,1.927-2.125
		c0-1.296-0.828-2.106-1.927-2.106c-0.594,0-1.314,0.324-1.656,0.792v2.665C63.037,25.529,63.757,25.835,64.351,25.835z"/>
	<path fill="#FFFFFF" d="M75.744,25.727v-3.961h-1.44v-2.395h1.44v-2.376h2.773v2.376h1.765v2.395h-1.765v3.187
		c0,0.504,0.288,0.882,0.756,0.882c0.306,0,0.612-0.108,0.703-0.216l0.54,2.088c-0.342,0.324-1.026,0.576-2.053,0.576
		C76.698,28.284,75.744,27.402,75.744,25.727z"/>
	<path fill="#FFFFFF" d="M81.089,23.71c0-2.449,1.765-4.555,4.717-4.555c2.989,0,4.753,2.106,4.753,4.555s-1.765,4.573-4.753,4.573
		C82.854,28.284,81.089,26.159,81.089,23.71z M87.715,23.71c0-1.152-0.684-2.106-1.909-2.106c-1.188,0-1.873,0.954-1.873,2.106
		c0,1.17,0.684,2.125,1.873,2.125C87.031,25.835,87.715,24.881,87.715,23.71z"/>
	<path fill="#FFFFFF" d="M96.064,23.71c0-2.521,1.891-4.555,4.609-4.555c2.575,0,4.447,1.891,4.447,4.843v0.63h-6.194
		c0.198,0.774,0.918,1.422,2.179,1.422c0.612,0,1.621-0.27,2.125-0.738l1.207,1.818c-0.864,0.774-2.305,1.152-3.637,1.152
		C98.117,28.284,96.064,26.538,96.064,23.71z M100.674,21.388c-1.207,0-1.675,0.72-1.783,1.351h3.583
		C102.402,22.126,101.952,21.388,100.674,21.388z"/>
	<path fill="#FFFFFF" d="M106.486,28.068v-12.01h2.773v12.01H106.486z"/>
	<path fill="#FFFFFF" d="M111.076,16.995c0-0.882,0.702-1.584,1.584-1.584c0.883,0,1.603,0.702,1.603,1.584s-0.72,1.603-1.603,1.603
		C111.778,18.597,111.076,17.877,111.076,16.995z M111.273,28.068v-8.697h2.773v8.697H111.273z"/>
	<path fill="#FFFFFF" d="M127.027,28.068v-5.293c0-0.667-0.324-1.17-1.152-1.17c-0.756,0-1.297,0.486-1.566,0.846v5.618h-2.773
		v-5.293c0-0.667-0.306-1.17-1.134-1.17c-0.756,0-1.278,0.486-1.566,0.846v5.618h-2.772v-8.697h2.772v1.062
		c0.378-0.504,1.494-1.278,2.862-1.278c1.261,0,2.107,0.522,2.467,1.548c0.505-0.756,1.639-1.548,3.007-1.548
		c1.603,0,2.611,0.828,2.611,2.611v6.302H127.027z"/>
	<path fill="#FFFFFF" d="M131.614,16.995c0-0.882,0.702-1.584,1.584-1.584c0.883,0,1.603,0.702,1.603,1.584s-0.72,1.603-1.603,1.603
		C132.316,18.597,131.614,17.877,131.614,16.995z M131.812,28.068v-8.697h2.772v8.697H131.812z"/>
	<path fill="#FFFFFF" d="M142.488,28.068v-5.023c0-1.062-0.559-1.44-1.423-1.44c-0.828,0-1.368,0.45-1.692,0.846v5.618H136.6v-8.697
		h2.773v1.062c0.522-0.612,1.549-1.278,3.024-1.278c1.963,0,2.863,1.152,2.863,2.755v6.158H142.488z"/>
	<path fill="#FFFFFF" d="M152.405,28.068v-0.864c-0.54,0.648-1.584,1.08-2.7,1.08c-1.333,0-2.989-0.918-2.989-2.863
		c0-2.106,1.656-2.809,2.989-2.809c1.152,0,2.178,0.378,2.7,1.026v-0.864c0-0.756-0.648-1.278-1.765-1.278
		c-0.864,0-1.729,0.342-2.431,0.936l-1.026-1.927c1.116-0.954,2.611-1.35,3.943-1.35c2.089,0,4.052,0.774,4.052,3.475v5.438H152.405
		z M152.405,25.835v-0.774c-0.288-0.414-0.937-0.612-1.548-0.612c-0.721,0-1.387,0.324-1.387,1.008s0.666,1.008,1.387,1.008
		C151.469,26.465,152.117,26.25,152.405,25.835z"/>
	<path fill="#FFFFFF" d="M157.768,25.727v-3.961h-1.439v-2.395h1.439v-2.376h2.773v2.376h1.765v2.395h-1.765v3.187
		c0,0.504,0.288,0.882,0.756,0.882c0.307,0,0.612-0.108,0.702-0.216l0.54,2.088c-0.342,0.324-1.025,0.576-2.052,0.576
		C158.723,28.284,157.768,27.402,157.768,25.727z"/>
	<path fill="#FFFFFF" d="M163.113,23.71c0-2.521,1.891-4.555,4.609-4.555c2.574,0,4.447,1.891,4.447,4.843v0.63h-6.193
		c0.197,0.774,0.918,1.422,2.178,1.422c0.612,0,1.621-0.27,2.125-0.738l1.206,1.818c-0.864,0.774-2.305,1.152-3.637,1.152
		C165.166,28.284,163.113,26.538,163.113,23.71z M167.723,21.388c-1.206,0-1.675,0.72-1.782,1.351h3.583
		C169.451,22.126,169.001,21.388,167.723,21.388z"/>
	<path fill="#FFFFFF" d="M18.51,63.22V41.388h9.624V62.89c0,4.344,2.64,7.479,7.754,7.479c5.059,0,7.699-3.134,7.699-7.479V41.388
		h9.569v21.777c0,9.128-5.499,15.563-17.268,15.563S18.51,72.239,18.51,63.22z"/>
	<path fill="#FFFFFF" d="M54.37,72.898l5.004-7.369c2.64,2.64,6.709,4.839,11.769,4.839c3.189,0,5.169-1.1,5.169-2.915
		c0-4.839-20.732-0.825-20.732-14.958c0-6.159,5.169-11.658,14.573-11.658c5.884,0,10.999,1.76,14.903,5.114l-5.169,7.094
		c-3.08-2.585-7.094-3.85-10.724-3.85c-2.75,0-3.959,0.935-3.959,2.53c0,4.509,20.732,1.1,20.732,14.738
		c0,7.369-5.444,12.264-15.288,12.264C63.224,78.728,58.054,76.363,54.37,72.898z"/>
	<path fill="#FFFFFF" d="M98.807,78.563c-5.829-0.55-10.063-2.695-13.198-5.665l5.004-7.369c1.979,1.979,4.784,3.739,8.194,4.454
		V63.88c-5.664-1.265-11.988-3.575-11.988-11.384c0-5.554,4.234-10.613,11.988-11.493v-5.169h6.104v5.224
		c4.399,0.605,8.249,2.255,11.384,4.895l-5.17,7.094c-1.869-1.54-4.014-2.585-6.214-3.19v5.334
		c5.719,1.32,12.264,3.629,12.264,11.273c0,6.599-4.345,11.219-12.264,12.099v5.003h-6.104V78.563z M98.807,53.761v-4.399
		c-1.65,0.275-2.365,1.155-2.365,2.365C96.442,52.716,97.322,53.321,98.807,53.761z M104.911,65.254v4.839
		c1.65-0.44,2.64-1.375,2.64-2.64C107.551,66.41,106.506,65.75,104.911,65.254z"/>
	<path fill="#FFFFFF" d="M122.514,78.068l12.428-28.431h-17.872v-8.249h28.761v6.544l-12.923,30.136H122.514z"/>
	<path fill="#FFFFFF" d="M145.394,59.755c0-9.679,5.005-18.917,15.728-18.917c10.724,0,15.729,9.239,15.729,18.917
		s-5.005,18.973-15.729,18.973C150.398,78.728,145.394,69.434,145.394,59.755z M167.281,59.755c0-6.489-1.76-10.559-6.16-10.559
		c-4.398,0-6.158,4.069-6.158,10.559s1.76,10.613,6.158,10.613C165.521,70.369,167.281,66.245,167.281,59.755z"/>
	<path fill="#FFFFFF" d="M178.062,59.755c0-9.679,5.005-18.917,15.729-18.917c10.723,0,15.728,9.239,15.728,18.917
		s-5.005,18.973-15.728,18.973C183.067,78.728,178.062,69.434,178.062,59.755z M199.949,59.755c0-6.489-1.76-10.559-6.158-10.559
		c-4.4,0-6.16,4.069-6.16,10.559s1.76,10.613,6.16,10.613C198.189,70.369,199.949,66.245,199.949,59.755z"/>
	<path fill="#FFFFFF" d="M16.86,116.279v-7.094h13.198v7.094H16.86z"/>
	<path fill="#FFFFFF" d="M30.389,116.389c0-4.18,3.19-7.588,7.424-9.238c-3.905-1.484-6.819-4.125-6.819-8.523
		c0-7.094,7.809-9.789,14.958-9.789s14.958,2.695,14.958,9.789c0,4.398-2.915,7.039-6.874,8.523c4.29,1.65,7.479,5.059,7.479,9.238
		c0,7.15-7.644,10.34-15.563,10.34S30.389,123.594,30.389,116.389z M51.892,115.068c0-2.199-3.63-3.354-5.939-3.629
		c-2.365,0.275-5.939,1.43-5.939,3.629c0,1.98,2.419,3.301,5.939,3.301C49.362,118.369,51.892,117.049,51.892,115.068z
		 M51.231,100.221c0-1.924-2.09-3.023-5.279-3.023s-5.334,1.1-5.334,3.023c0,1.871,3.079,2.916,5.334,3.246
		C48.207,103.137,51.231,102.092,51.231,100.221z"/>
	<path fill="#FFFFFF" d="M61.629,107.756c0-9.68,5.004-18.918,15.728-18.918s15.728,9.238,15.728,18.918
		c0,9.678-5.004,18.973-15.728,18.973S61.629,117.434,61.629,107.756z M83.516,107.756c0-6.49-1.76-10.559-6.159-10.559
		s-6.159,4.068-6.159,10.559c0,6.488,1.76,10.613,6.159,10.613S83.516,114.244,83.516,107.756z"/>
	<path fill="#FFFFFF" d="M94.299,107.756c0-9.68,5.004-18.918,15.728-18.918c10.723,0,15.728,9.238,15.728,18.918
		c0,9.678-5.005,18.973-15.728,18.973C99.303,126.729,94.299,117.434,94.299,107.756z M116.186,107.756
		c0-6.49-1.76-10.559-6.159-10.559c-4.399,0-6.159,4.068-6.159,10.559c0,6.488,1.76,10.613,6.159,10.613
		C114.426,118.369,116.186,114.244,116.186,107.756z"/>
	<path fill="#FFFFFF" d="M162.109,126.068V109.9c0-2.035-0.99-3.574-3.52-3.574c-2.31,0-3.96,1.484-4.784,2.584v17.158h-8.47V109.9
		c0-2.035-0.935-3.574-3.464-3.574c-2.31,0-3.904,1.484-4.784,2.584v17.158h-8.469V99.506h8.469v3.244
		c1.154-1.539,4.564-3.904,8.743-3.904c3.85,0,6.435,1.596,7.534,4.73c1.54-2.311,5.005-4.73,9.184-4.73
		c4.895,0,7.975,2.531,7.975,7.975v19.248H162.109z"/>
	<path fill="#FFFFFF" d="M16.812,145.068v-6.303h-1.44v-2.395h1.44v-0.197c0-2.07,1.296-3.295,3.115-3.295
		c0.937,0,1.909,0.27,2.485,0.809l-1.008,1.729c-0.216-0.197-0.504-0.305-0.9-0.305c-0.504,0-0.918,0.342-0.918,1.062v0.197h1.764
		v2.395h-1.764v6.303H16.812z"/>
	<path fill="#FFFFFF" d="M28.37,145.068v-1.045c-0.54,0.611-1.53,1.26-3.007,1.26c-1.962,0-2.863-1.133-2.863-2.719v-6.193h2.773
		v5.041c0,1.062,0.54,1.424,1.44,1.424c0.792,0,1.332-0.434,1.656-0.848v-5.617h2.773v8.697H28.37z"/>
	<path fill="#FFFFFF" d="M39.044,145.068v-5.023c0-1.062-0.558-1.441-1.422-1.441c-0.828,0-1.369,0.451-1.692,0.846v5.619h-2.773
		v-8.697h2.773v1.062c0.522-0.611,1.548-1.279,3.025-1.279c1.962,0,2.863,1.152,2.863,2.756v6.158H39.044z"/>
	<path fill="#FFFFFF" d="M49.682,145.068v-1.01c-0.72,0.83-1.603,1.225-2.575,1.225c-2.143,0-3.835-1.619-3.835-4.572
		c0-2.846,1.656-4.557,3.835-4.557c0.955,0,1.891,0.379,2.575,1.244v-4.34h2.755v12.01H49.682z M49.682,142.043v-2.664
		c-0.36-0.469-1.08-0.775-1.674-0.775c-1.098,0-1.909,0.811-1.909,2.107s0.811,2.125,1.909,2.125
		C48.602,142.836,49.322,142.512,49.682,142.043z"/>
	<path fill="#FFFFFF" d="M54.27,133.994c0-0.883,0.702-1.584,1.584-1.584s1.603,0.701,1.603,1.584s-0.72,1.604-1.603,1.604
		S54.27,134.877,54.27,133.994z M54.468,145.068v-8.697h2.773v8.697H54.468z"/>
	<path fill="#FFFFFF" d="M65.143,145.068v-5.023c0-1.062-0.558-1.441-1.422-1.441c-0.828,0-1.368,0.451-1.692,0.846v5.619h-2.773
		v-8.697h2.773v1.062c0.522-0.611,1.548-1.279,3.025-1.279c1.962,0,2.863,1.152,2.863,2.756v6.158H65.143z"/>
	<path fill="#FFFFFF" d="M69.695,147.301l1.206-1.945c0.685,0.721,1.639,1.008,2.647,1.008c0.918,0,2.214-0.395,2.214-2.051v-0.668
		c-0.72,0.865-1.584,1.279-2.575,1.279c-2.125,0-3.817-1.459-3.817-4.393c0-2.863,1.639-4.377,3.817-4.377
		c0.973,0,1.873,0.379,2.575,1.244v-1.027h2.773v7.941c0,3.527-2.827,4.285-4.987,4.285
		C72.054,148.598,70.812,148.219,69.695,147.301z M75.763,141.701v-2.322c-0.342-0.469-1.08-0.775-1.656-0.775
		c-1.098,0-1.909,0.666-1.909,1.928c0,1.277,0.811,1.943,1.909,1.943C74.683,142.475,75.421,142.17,75.763,141.701z"/>
	<path fill="#FFFFFF" d="M84.923,147.301l1.206-1.945c0.684,0.721,1.639,1.008,2.647,1.008c0.918,0,2.215-0.395,2.215-2.051v-0.668
		c-0.721,0.865-1.585,1.279-2.575,1.279c-2.125,0-3.817-1.459-3.817-4.393c0-2.863,1.638-4.377,3.817-4.377
		c0.973,0,1.873,0.379,2.575,1.244v-1.027h2.772v7.941c0,3.527-2.827,4.285-4.987,4.285
		C87.282,148.598,86.04,148.219,84.923,147.301z M90.991,141.701v-2.322c-0.342-0.469-1.081-0.775-1.657-0.775
		c-1.098,0-1.909,0.666-1.909,1.928c0,1.277,0.811,1.943,1.909,1.943C89.911,142.475,90.649,142.17,90.991,141.701z"/>
	<path fill="#FFFFFF" d="M100.909,145.068v-0.865c-0.54,0.648-1.584,1.08-2.701,1.08c-1.333,0-2.989-0.918-2.989-2.861
		c0-2.107,1.656-2.811,2.989-2.811c1.152,0,2.179,0.379,2.701,1.027v-0.865c0-0.756-0.648-1.277-1.764-1.277
		c-0.864,0-1.729,0.342-2.431,0.936l-1.026-1.926c1.116-0.955,2.61-1.352,3.943-1.352c2.089,0,4.051,0.775,4.051,3.477v5.438
		H100.909z M100.909,142.836v-0.775c-0.288-0.414-0.936-0.611-1.548-0.611c-0.72,0-1.386,0.324-1.386,1.008s0.666,1.008,1.386,1.008
		C99.973,143.465,100.621,143.25,100.909,142.836z"/>
	<path fill="#FFFFFF" d="M108.468,144.041v4.34h-2.773v-12.01h2.773v1.008c0.684-0.828,1.584-1.225,2.575-1.225
		c2.179,0,3.817,1.621,3.817,4.557c0,2.953-1.639,4.572-3.817,4.572C110.071,145.283,109.188,144.906,108.468,144.041z
		 M112.033,140.711c0-1.297-0.828-2.107-1.909-2.107c-0.594,0-1.314,0.324-1.656,0.793v2.646c0.342,0.449,1.062,0.793,1.656,0.793
		C111.205,142.836,112.033,142.025,112.033,140.711z"/>
</g>
</svg>
