<?xml version="1.0" encoding="utf-8"?>
<!-- Generator: Adobe Illustrator 15.0.0, SVG Export Plug-In . SVG Version: 6.00 Build 0)  -->
<!DOCTYPE svg PUBLIC "-//W3C//DTD SVG 1.1//EN" "http://www.w3.org/Graphics/SVG/1.1/DTD/svg11.dtd">
<svg version="1.1" id="Layer_1" xmlns="http://www.w3.org/2000/svg" xmlns:xlink="http://www.w3.org/1999/xlink" x="0px" y="0px"
	 width="220px" height="135px" viewBox="0 0 220 135" enable-background="new 0 0 220 135" xml:space="preserve">
<rect x="0" fill="#008590" width="220" height="135"/>
<g>
	<defs>
		<rect id="SVGID_1_" x="4.938" y="16.062" width="57.4" height="101.584"/>
	</defs>
	<clipPath id="SVGID_2_">
		<use xlink:href="#SVGID_1_"  overflow="visible"/>
	</clipPath>
	<path clip-path="url(#SVGID_2_)" fill="#FFFFFF" d="M33.928,97.328C27.755,97.387,22,95.561,17.206,92.385l2.731,25.262
		l29.24-0.275l2.152-25.865C46.45,95.107,40.441,97.268,33.928,97.328"/>
	<path clip-path="url(#SVGID_2_)" fill="#FFFFFF" d="M33.352,36.184c6.476-0.061,12.493,1.963,17.423,5.435l-2.764-25.557
		l-29.24,0.276l-2.092,25.139C21.422,38.192,27.16,36.242,33.352,36.184"/>
	<path clip-path="url(#SVGID_2_)" fill="#FFFFFF" d="M33.91,95.455C18.085,95.604,5.089,82.854,4.94,67.027
		c-0.15-15.824,12.604-28.82,28.429-28.97c15.823-0.149,28.819,12.604,28.97,28.429C62.488,82.311,49.734,95.307,33.91,95.455
		 M33.401,41.507C19.477,41.638,8.257,53.071,8.388,66.994c0.132,13.924,11.566,25.145,25.49,25.014
		c13.923-0.133,25.142-11.566,25.011-25.49C58.759,52.595,47.324,41.376,33.401,41.507"/>
	<path clip-path="url(#SVGID_2_)" fill="#FFFFFF" d="M33.612,66.467L11.614,79.445c-7.168-12.149-3.131-27.81,9.019-34.977
		c4.046-2.387,8.041-3.498,12.738-3.542L33.612,66.467z"/>
	<path clip-path="url(#SVGID_2_)" fill="#008590" d="M33.612,66.467l-0.241-25.541c14.106-0.133,25.649,11.193,25.781,25.299
		c0.134,14.107-11.194,25.65-25.299,25.783c-9.396,0.088-17.466-4.473-22.239-12.562L33.612,66.467z"/>
</g>
<g>
	<path fill="#FFFFFF" d="M82.97,28.068V20.02l-2.017,2.035L79.188,20.2l4.195-4.142h2.683v12.01H82.97z"/>
	<path fill="#FFFFFF" d="M95.534,27.042v4.339h-2.773v-12.01h2.773v1.008c0.684-0.828,1.584-1.224,2.575-1.224
		c2.179,0,3.817,1.621,3.817,4.555c0,2.953-1.638,4.574-3.817,4.574C97.136,28.284,96.254,27.906,95.534,27.042z M99.099,23.71
		c0-1.296-0.828-2.106-1.909-2.106c-0.594,0-1.314,0.324-1.656,0.792v2.647c0.342,0.45,1.062,0.792,1.656,0.792
		C98.271,25.835,99.099,25.025,99.099,23.71z"/>
	<path fill="#FFFFFF" d="M102.805,23.71c0-2.521,1.891-4.555,4.609-4.555c2.575,0,4.447,1.891,4.447,4.843v0.63h-6.194
		c0.198,0.774,0.918,1.422,2.179,1.422c0.612,0,1.621-0.27,2.125-0.738l1.207,1.819c-0.865,0.774-2.305,1.152-3.638,1.152
		C104.857,28.284,102.805,26.538,102.805,23.71z M107.414,21.388c-1.207,0-1.675,0.72-1.783,1.351h3.583
		C109.143,22.126,108.692,21.388,107.414,21.388z"/>
	<path fill="#FFFFFF" d="M113.227,28.068v-8.697H116v1.062c0.576-0.702,1.691-1.296,2.719-1.296v2.665
		c-0.162-0.054-0.396-0.072-0.685-0.072c-0.72,0-1.675,0.306-2.034,0.792v5.545H113.227z"/>
	<path fill="#FFFFFF" d="M119.238,26.934l1.152-1.98c0.648,0.576,2.035,1.17,3.061,1.17c0.828,0,1.171-0.234,1.171-0.612
		c0-1.081-5.06,0.036-5.06-3.493c0-1.53,1.332-2.863,3.727-2.863c1.477,0,2.701,0.468,3.638,1.152l-1.062,1.962
		c-0.522-0.504-1.513-0.954-2.557-0.954c-0.648,0-1.081,0.252-1.081,0.594c0,0.954,5.042-0.036,5.042,3.529
		c0,1.657-1.458,2.845-3.942,2.845C121.76,28.284,120.156,27.762,119.238,26.934z"/>
	<path fill="#FFFFFF" d="M128.131,23.71c0-2.449,1.764-4.555,4.717-4.555c2.988,0,4.754,2.106,4.754,4.555s-1.766,4.574-4.754,4.574
		C129.895,28.284,128.131,26.159,128.131,23.71z M134.756,23.71c0-1.152-0.684-2.106-1.908-2.106c-1.188,0-1.873,0.954-1.873,2.106
		c0,1.17,0.685,2.125,1.873,2.125C134.072,25.835,134.756,24.881,134.756,23.71z"/>
	<path fill="#FFFFFF" d="M144.943,28.068v-5.023c0-1.062-0.558-1.44-1.422-1.44c-0.828,0-1.368,0.45-1.692,0.846v5.618h-2.772
		v-8.697h2.772v1.062c0.522-0.612,1.548-1.278,3.024-1.278c1.963,0,2.863,1.152,2.863,2.755v6.158H144.943z"/>
	<path fill="#FFFFFF" d="M153.779,23.71c0-2.521,1.891-4.555,4.609-4.555c2.575,0,4.447,1.891,4.447,4.843v0.63h-6.193
		c0.198,0.774,0.918,1.422,2.179,1.422c0.612,0,1.62-0.27,2.124-0.738l1.207,1.819c-0.864,0.774-2.305,1.152-3.637,1.152
		C155.832,28.284,153.779,26.538,153.779,23.71z M158.389,21.388c-1.206,0-1.674,0.72-1.782,1.351h3.583
		C160.117,22.126,159.668,21.388,158.389,21.388z"/>
	<path fill="#FFFFFF" d="M166.435,28.068l-3.421-8.697h2.916l1.98,5.51l1.963-5.51h2.936l-3.422,8.697H166.435z"/>
	<path fill="#FFFFFF" d="M173.075,23.71c0-2.521,1.891-4.555,4.609-4.555c2.575,0,4.447,1.891,4.447,4.843v0.63h-6.194
		c0.199,0.774,0.919,1.422,2.18,1.422c0.611,0,1.62-0.27,2.124-0.738l1.206,1.819c-0.863,0.774-2.305,1.152-3.637,1.152
		C175.128,28.284,173.075,26.538,173.075,23.71z M177.685,21.388c-1.206,0-1.675,0.72-1.782,1.351h3.582
		C179.413,22.126,178.963,21.388,177.685,21.388z"/>
	<path fill="#FFFFFF" d="M183.497,28.068v-8.697h2.772v1.062c0.576-0.702,1.693-1.296,2.719-1.296v2.665
		c-0.162-0.054-0.396-0.072-0.684-0.072c-0.721,0-1.675,0.306-2.035,0.792v5.545H183.497z"/>
	<path fill="#FFFFFF" d="M190.463,28.986c0.198,0.108,0.469,0.162,0.685,0.162c0.63,0,1.026-0.126,1.188-0.486l0.197-0.468
		l-3.475-8.823h2.917l1.98,5.51l1.963-5.51h2.935l-3.925,9.939c-0.702,1.837-1.999,2.251-3.673,2.287
		c-0.252,0-0.9-0.054-1.189-0.144L190.463,28.986z"/>
</g>
<g>
	<path fill="#FFFFFF" d="M107.562,95.521V84.786H79.491V72.994l22.263-36.167h21.031v34.67h7.128v13.288h-7.128v10.735H107.562z
		 M107.562,50.027L94.186,71.498h13.376V50.027z"/>
	<path fill="#FFFFFF" d="M134.051,66.219c0-15.487,8.008-30.271,25.167-30.271s25.167,14.784,25.167,30.271
		s-8.008,30.359-25.167,30.359S134.051,81.706,134.051,66.219z M169.074,66.219c0-10.384-2.816-16.896-9.856-16.896
		s-9.855,6.512-9.855,16.896s2.815,16.983,9.855,16.983S169.074,76.603,169.074,66.219z"/>
</g>
<g>
	<path fill="#FFFFFF" d="M79.549,115.951l1.92-3.3c1.08,0.96,3.39,1.949,5.1,1.949c1.38,0,1.95-0.39,1.95-1.02
		c0-1.8-8.43,0.06-8.43-5.82c0-2.55,2.22-4.77,6.21-4.77c2.46,0,4.5,0.78,6.06,1.92l-1.77,3.271c-0.87-0.841-2.52-1.591-4.26-1.591
		c-1.08,0-1.8,0.421-1.8,0.99c0,1.59,8.4-0.06,8.4,5.88c0,2.76-2.43,4.74-6.57,4.74C83.749,118.201,81.079,117.331,79.549,115.951z"
		/>
	<path fill="#FFFFFF" d="M94.369,110.581c0-4.2,3.15-7.59,7.68-7.59c4.29,0,7.41,3.15,7.41,8.07v1.05H99.139
		c0.33,1.29,1.53,2.37,3.629,2.37c1.02,0,2.7-0.45,3.54-1.23l2.01,3.03c-1.44,1.29-3.84,1.92-6.06,1.92
		C97.789,118.201,94.369,115.291,94.369,110.581z M102.048,106.711c-2.01,0-2.79,1.2-2.97,2.25h5.97
		C104.928,107.941,104.178,106.711,102.048,106.711z"/>
	<path fill="#FFFFFF" d="M110.808,110.581c0-4.529,3.36-7.59,7.889-7.59c3.15,0,5.07,1.38,5.94,2.67l-3,2.79
		c-0.569-0.84-1.5-1.38-2.729-1.38c-1.92,0-3.391,1.32-3.391,3.51c0,2.19,1.471,3.54,3.391,3.54c1.229,0,2.16-0.601,2.729-1.41
		l3,2.82c-0.87,1.26-2.79,2.67-5.94,2.67C114.168,118.201,110.808,115.111,110.808,110.581z"/>
	<path fill="#FFFFFF" d="M125.809,110.581c0-4.08,2.939-7.59,7.859-7.59c4.979,0,7.92,3.51,7.92,7.59s-2.94,7.62-7.92,7.62
		C128.748,118.201,125.809,114.661,125.809,110.581z M136.848,110.581c0-1.92-1.141-3.51-3.18-3.51c-1.98,0-3.12,1.59-3.12,3.51
		c0,1.95,1.14,3.54,3.12,3.54C135.707,114.121,136.848,112.531,136.848,110.581z"/>
	<path fill="#FFFFFF" d="M153.828,117.841v-8.37c0-1.77-0.931-2.399-2.371-2.399c-1.379,0-2.279,0.75-2.819,1.41v9.359h-4.62
		v-14.489h4.62v1.77c0.87-1.02,2.58-2.13,5.04-2.13c3.27,0,4.77,1.92,4.77,4.59v10.26H153.828z"/>
	<path fill="#FFFFFF" d="M171.557,117.841v-1.68c-1.199,1.38-2.67,2.04-4.289,2.04c-3.57,0-6.391-2.7-6.391-7.62
		c0-4.74,2.76-7.59,6.391-7.59c1.59,0,3.149,0.63,4.289,2.07v-7.229h4.59v20.009H171.557z M171.557,112.801v-4.439
		c-0.6-0.78-1.8-1.29-2.789-1.29c-1.83,0-3.18,1.35-3.18,3.51s1.35,3.54,3.18,3.54C169.757,114.121,170.957,113.581,171.557,112.801
		z"/>
	<path fill="#FFFFFF" d="M178.307,115.951l1.92-3.3c1.08,0.96,3.39,1.949,5.1,1.949c1.381,0,1.95-0.39,1.95-1.02
		c0-1.8-8.43,0.06-8.43-5.82c0-2.55,2.22-4.77,6.21-4.77c2.46,0,4.5,0.78,6.06,1.92l-1.77,3.271c-0.87-0.841-2.521-1.591-4.26-1.591
		c-1.08,0-1.8,0.421-1.8,0.99c0,1.59,8.399-0.06,8.399,5.88c0,2.76-2.43,4.74-6.57,4.74
		C182.507,118.201,179.837,117.331,178.307,115.951z"/>
</g>
</svg>
