<?xml version="1.0" encoding="utf-8"?>
<!-- Generator: Adobe Illustrator 16.0.0, SVG Export Plug-In . SVG Version: 6.00 Build 0)  -->
<!DOCTYPE svg PUBLIC "-//W3C//DTD SVG 1.1//EN" "http://www.w3.org/Graphics/SVG/1.1/DTD/svg11.dtd">
<svg version="1.1" id="Layer_1" xmlns="http://www.w3.org/2000/svg" xmlns:xlink="http://www.w3.org/1999/xlink" x="0px" y="0px"
	 width="220px" height="159.396px" viewBox="0 0 220 159.396" enable-background="new 0 0 220 159.396" xml:space="preserve">
<rect x="0" fill="#008590" width="220" height="159.729"/>
<g>
	<path fill="#FFFFFF" d="M18.378,63.085v-9.649c20.81-15.049,24.698-18.361,24.698-23.186c0-3.24-3.096-4.968-6.625-4.968
		c-5.328,0-9.361,2.016-12.817,5.256l-6.841-8.208c5.113-5.617,12.745-7.993,19.442-7.993c11.305,0,19.441,6.336,19.441,15.913
		c0,7.417-5.256,13.681-17.209,22.034h17.57v10.801H18.378z"/>
	<path fill="#FFFFFF" d="M66.114,73.311l-4.608-3.745c2.304-1.152,5.329-4.248,6.121-6.84c-0.288,0.072-1.008,0.216-1.656,0.216
		c-3.096,0-5.616-2.376-5.616-5.904c0-3.672,3.024-6.625,6.625-6.625c3.888,0,7.345,3.024,7.345,8.28
		C74.323,64.598,71.155,69.782,66.114,73.311z"/>
	<path fill="#FFFFFF" d="M99.883,63.085v-8.785h-22.97v-9.649l18.218-29.595h17.209v28.371h5.833v10.873h-5.833v8.785H99.883z
		 M99.883,25.858L88.938,43.428h10.945V25.858z"/>
	<path fill="#FFFFFF" d="M142.794,63.085v-8.785h-22.97v-9.649l18.218-29.595h17.209v28.371h5.833v10.873h-5.833v8.785H142.794z
		 M142.794,25.858L131.85,43.428h10.944V25.858z"/>
	<path fill="#FFFFFF" d="M163.024,39.107c0-12.673,6.553-24.77,20.594-24.77s20.594,12.097,20.594,24.77
		c0,12.673-6.553,24.842-20.594,24.842S163.024,51.78,163.024,39.107z M191.683,39.107c0-8.497-2.304-13.825-8.064-13.825
		s-8.064,5.329-8.064,13.825s2.304,13.897,8.064,13.897S191.683,47.604,191.683,39.107z"/>
	<path fill="#FFFFFF" d="M15.66,91.195l1.92-3.299c1.08,0.959,3.39,1.949,5.1,1.949c1.38,0,1.95-0.391,1.95-1.02
		c0-1.801-8.43,0.059-8.43-5.82c0-2.551,2.22-4.771,6.21-4.771c2.46,0,4.5,0.78,6.06,1.92l-1.77,3.271
		c-0.87-0.841-2.52-1.591-4.26-1.591c-1.08,0-1.8,0.421-1.8,0.99c0,1.59,8.4-0.06,8.4,5.879c0,2.76-2.43,4.74-6.57,4.74
		C19.86,93.445,17.19,92.576,15.66,91.195z"/>
	<path fill="#FFFFFF" d="M41.189,93.086v-1.74c-0.9,1.02-2.55,2.1-5.01,2.1c-3.27,0-4.77-1.891-4.77-4.529v-10.32h4.62v8.399
		c0,1.77,0.9,2.37,2.4,2.37c1.32,0,2.22-0.719,2.76-1.41v-9.359h4.62v14.49H41.189z"/>
	<path fill="#FFFFFF" d="M49.17,93.086v-14.49h4.62v1.77c0.96-1.17,2.82-2.16,4.53-2.16v4.44c-0.27-0.09-0.66-0.12-1.14-0.12
		c-1.2,0-2.79,0.51-3.39,1.32v9.24H49.17z"/>
	<path fill="#FFFFFF" d="M64.14,93.086l-5.7-14.49h4.86l3.3,9.179l3.27-9.179h4.89l-5.7,14.49H64.14z"/>
	<path fill="#FFFFFF" d="M75.209,85.826c0-4.2,3.15-7.59,7.68-7.59c4.29,0,7.41,3.15,7.41,8.07v1.049H79.979
		c0.33,1.291,1.53,2.369,3.629,2.369c1.02,0,2.7-0.449,3.54-1.229l2.01,3.029c-1.44,1.291-3.84,1.92-6.06,1.92
		C78.629,93.445,75.209,90.535,75.209,85.826z M82.889,81.956c-2.01,0-2.79,1.2-2.97,2.25h5.97
		C85.769,83.186,85.019,81.956,82.889,81.956z"/>
	<path fill="#FFFFFF" d="M92.939,94.615c0.33,0.18,0.78,0.27,1.14,0.27c1.05,0,1.71-0.209,1.98-0.809l0.33-0.781l-5.79-14.699h4.86
		l3.3,9.179l3.27-9.179h4.89l-6.54,16.56c-1.17,3.059-3.33,3.748-6.12,3.809c-0.42,0-1.5-0.09-1.98-0.24L92.939,94.615z"/>
	<path fill="#FFFFFF" d="M107.069,91.195l1.92-3.299c1.08,0.959,3.39,1.949,5.099,1.949c1.381,0,1.95-0.391,1.95-1.02
		c0-1.801-8.43,0.059-8.43-5.82c0-2.551,2.22-4.771,6.21-4.771c2.46,0,4.5,0.78,6.06,1.92l-1.77,3.271
		c-0.87-0.841-2.521-1.591-4.26-1.591c-1.08,0-1.8,0.421-1.8,0.99c0,1.59,8.399-0.06,8.399,5.879c0,2.76-2.43,4.74-6.57,4.74
		C111.269,93.445,108.599,92.576,107.069,91.195z"/>
	<path fill="#FFFFFF" d="M15.994,115.086v-6.766h2.157v0.826c0.448-0.547,1.317-1.01,2.115-1.01v2.074
		c-0.126-0.043-0.308-0.057-0.532-0.057c-0.56,0-1.303,0.238-1.583,0.617v4.314H15.994z"/>
	<path fill="#FFFFFF" d="M20.53,111.695c0-1.961,1.471-3.543,3.586-3.543c2.003,0,3.46,1.471,3.46,3.768v0.49h-4.818
		c0.154,0.602,0.714,1.105,1.695,1.105c0.476,0,1.261-0.209,1.653-0.574l0.938,1.416c-0.672,0.602-1.793,0.896-2.83,0.896
		C22.127,115.254,20.53,113.895,20.53,111.695z M24.116,109.889c-0.938,0-1.303,0.561-1.387,1.051h2.788
		C25.461,110.463,25.111,109.889,24.116,109.889z"/>
	<path fill="#FFFFFF" d="M27.908,111.695c0-2.283,1.274-3.543,2.983-3.543c0.756,0,1.457,0.307,1.989,0.951v-0.783h2.157v9.342
		h-2.157v-3.375c-0.561,0.672-1.247,0.967-1.989,0.967C29.183,115.254,27.908,113.992,27.908,111.695z M32.881,112.732v-2.059
		c-0.267-0.365-0.827-0.617-1.275-0.617c-0.854,0-1.499,0.631-1.499,1.639c0,1.023,0.645,1.652,1.499,1.652
		C32.054,113.348,32.628,113.082,32.881,112.732z"/>
	<path fill="#FFFFFF" d="M40.889,115.086v-0.812c-0.42,0.477-1.191,0.98-2.339,0.98c-1.527,0-2.228-0.883-2.228-2.115v-4.818h2.157
		v3.922c0,0.826,0.42,1.105,1.121,1.105c0.617,0,1.037-0.336,1.289-0.658v-4.369h2.157v6.766H40.889z"/>
	<path fill="#FFFFFF" d="M44.176,106.471c0-0.686,0.546-1.232,1.232-1.232c0.687,0,1.247,0.547,1.247,1.232
		s-0.561,1.246-1.247,1.246C44.723,107.717,44.176,107.156,44.176,106.471z M44.33,115.086v-6.766h2.157v6.766H44.33z"/>
	<path fill="#FFFFFF" d="M47.774,115.086v-6.766h2.157v0.826c0.448-0.547,1.317-1.01,2.115-1.01v2.074
		c-0.126-0.043-0.308-0.057-0.532-0.057c-0.56,0-1.303,0.238-1.583,0.617v4.314H47.774z"/>
	<path fill="#FFFFFF" d="M52.31,111.695c0-1.961,1.471-3.543,3.586-3.543c2.003,0,3.46,1.471,3.46,3.768v0.49h-4.818
		c0.154,0.602,0.714,1.105,1.695,1.105c0.476,0,1.261-0.209,1.653-0.574l0.938,1.416c-0.672,0.602-1.793,0.896-2.83,0.896
		C53.907,115.254,52.31,113.895,52.31,111.695z M55.896,109.889c-0.938,0-1.303,0.561-1.387,1.051h2.788
		C57.24,110.463,56.89,109.889,55.896,109.889z"/>
	<path fill="#FFFFFF" d="M64.688,115.086v-0.785c-0.561,0.645-1.247,0.953-2.003,0.953c-1.667,0-2.984-1.262-2.984-3.559
		c0-2.213,1.289-3.543,2.984-3.543c0.742,0,1.471,0.293,2.003,0.967v-3.377h2.143v9.344H64.688z M64.688,112.732v-2.074
		c-0.28-0.363-0.84-0.602-1.303-0.602c-0.854,0-1.485,0.631-1.485,1.639c0,1.01,0.63,1.652,1.485,1.652
		C63.848,113.348,64.408,113.096,64.688,112.732z"/>
	<path fill="#FFFFFF" d="M71.28,106.471c0-0.686,0.546-1.232,1.232-1.232c0.687,0,1.247,0.547,1.247,1.232s-0.561,1.246-1.247,1.246
		C71.826,107.717,71.28,107.156,71.28,106.471z M71.434,115.086v-6.766h2.157v6.766H71.434z"/>
	<path fill="#FFFFFF" d="M79.458,115.086v-3.908c0-0.826-0.434-1.121-1.106-1.121c-0.645,0-1.064,0.35-1.317,0.658v4.371h-2.157
		v-6.766h2.157v0.826c0.406-0.477,1.205-0.994,2.354-0.994c1.527,0,2.227,0.896,2.227,2.143v4.791H79.458z"/>
	<path fill="#FFFFFF" d="M90.784,115.086v-3.908c0-0.826-0.434-1.121-1.106-1.121c-0.645,0-1.064,0.35-1.317,0.658v4.371h-2.157
		v-6.766h2.157v0.826c0.406-0.477,1.205-0.994,2.354-0.994c1.527,0,2.227,0.896,2.227,2.143v4.791H90.784z"/>
	<path fill="#FFFFFF" d="M93.791,111.695c0-1.961,1.471-3.543,3.586-3.543c2.003,0,3.46,1.471,3.46,3.768v0.49h-4.818
		c0.154,0.602,0.714,1.105,1.695,1.105c0.476,0,1.261-0.209,1.653-0.574l0.938,1.416c-0.672,0.602-1.793,0.896-2.83,0.896
		C95.388,115.254,93.791,113.895,93.791,111.695z M97.377,109.889c-0.938,0-1.303,0.561-1.387,1.051h2.788
		C98.722,110.463,98.372,109.889,97.377,109.889z"/>
	<path fill="#FFFFFF" d="M105.722,115.086l-1.289-2.045l-1.331,2.045h-2.353l2.311-3.475l-2.171-3.291h2.367l1.163,1.834
		l1.148-1.834h2.368l-2.157,3.291l2.311,3.475H105.722z"/>
	<path fill="#FFFFFF" d="M108.953,113.264v-3.08h-1.12v-1.863h1.12v-1.85h2.157v1.85h1.373v1.863h-1.373v2.479
		c0,0.393,0.225,0.686,0.589,0.686c0.237,0,0.476-0.084,0.546-0.168l0.42,1.625c-0.266,0.252-0.798,0.449-1.597,0.449
		C109.696,115.254,108.953,114.566,108.953,113.264z"/>
	<path fill="#FFFFFF" d="M117.032,115.086v-4.902h-1.121v-1.863h1.121v-0.154c0-1.611,1.008-2.564,2.423-2.564
		c0.729,0,1.484,0.211,1.934,0.631l-0.785,1.346c-0.168-0.154-0.392-0.238-0.7-0.238c-0.393,0-0.714,0.266-0.714,0.826v0.154h1.372
		v1.863h-1.372v4.902H117.032z"/>
	<path fill="#FFFFFF" d="M120.741,111.695c0-1.904,1.372-3.543,3.67-3.543c2.325,0,3.697,1.639,3.697,3.543
		c0,1.906-1.372,3.559-3.697,3.559C122.113,115.254,120.741,113.602,120.741,111.695z M125.896,111.695
		c0-0.896-0.532-1.639-1.484-1.639c-0.925,0-1.457,0.742-1.457,1.639c0,0.91,0.532,1.652,1.457,1.652
		C125.363,113.348,125.896,112.605,125.896,111.695z"/>
	<path fill="#FFFFFF" d="M133.524,115.086v-0.812c-0.42,0.477-1.19,0.98-2.339,0.98c-1.527,0-2.228-0.883-2.228-2.115v-4.818h2.157
		v3.922c0,0.826,0.42,1.105,1.121,1.105c0.616,0,1.036-0.336,1.288-0.658v-4.369h2.157v6.766H133.524z"/>
	<path fill="#FFFFFF" d="M136.967,115.086v-6.766h2.157v0.826c0.448-0.547,1.317-1.01,2.115-1.01v2.074
		c-0.126-0.043-0.308-0.057-0.532-0.057c-0.561,0-1.303,0.238-1.583,0.617v4.314H136.967z"/>
	<path fill="#FFFFFF" d="M145.408,115.801c0.154,0.084,0.364,0.125,0.532,0.125c0.49,0,0.799-0.098,0.925-0.379l0.154-0.363
		l-2.703-6.863h2.269l1.541,4.285l1.527-4.285h2.283l-3.054,7.732c-0.547,1.428-1.556,1.75-2.857,1.777
		c-0.196,0-0.701-0.041-0.925-0.111L145.408,115.801z"/>
	<path fill="#FFFFFF" d="M151.862,111.695c0-1.961,1.471-3.543,3.586-3.543c2.003,0,3.46,1.471,3.46,3.768v0.49h-4.819
		c0.154,0.602,0.715,1.105,1.695,1.105c0.477,0,1.261-0.209,1.652-0.574l0.938,1.416c-0.672,0.602-1.793,0.896-2.829,0.896
		C153.459,115.254,151.862,113.895,151.862,111.695z M155.448,109.889c-0.938,0-1.303,0.561-1.387,1.051h2.787
		C156.793,110.463,156.442,109.889,155.448,109.889z"/>
	<path fill="#FFFFFF" d="M163.681,115.086v-0.674c-0.42,0.506-1.232,0.842-2.101,0.842c-1.037,0-2.325-0.715-2.325-2.229
		c0-1.639,1.288-2.184,2.325-2.184c0.896,0,1.694,0.293,2.101,0.797v-0.672c0-0.588-0.504-0.994-1.372-0.994
		c-0.673,0-1.345,0.266-1.892,0.729l-0.798-1.498c0.868-0.744,2.03-1.051,3.067-1.051c1.625,0,3.151,0.602,3.151,2.703v4.23H163.681
		z M163.681,113.348v-0.602c-0.224-0.322-0.729-0.477-1.204-0.477c-0.561,0-1.079,0.252-1.079,0.785
		c0,0.531,0.519,0.783,1.079,0.783C162.952,113.838,163.457,113.67,163.681,113.348z"/>
	<path fill="#FFFFFF" d="M167.122,115.086v-6.766h2.157v0.826c0.448-0.547,1.316-1.01,2.115-1.01v2.074
		c-0.126-0.043-0.308-0.057-0.532-0.057c-0.561,0-1.303,0.238-1.583,0.617v4.314H167.122z"/>
	<path fill="#FFFFFF" d="M171.518,114.203l0.896-1.541c0.505,0.449,1.583,0.91,2.382,0.91c0.644,0,0.91-0.182,0.91-0.477
		c0-0.84-3.937,0.029-3.937-2.717c0-1.191,1.037-2.227,2.9-2.227c1.148,0,2.101,0.363,2.829,0.896l-0.826,1.525
		c-0.406-0.391-1.177-0.742-1.989-0.742c-0.505,0-0.841,0.197-0.841,0.463c0,0.742,3.922-0.027,3.922,2.746
		c0,1.287-1.134,2.213-3.067,2.213C173.479,115.254,172.232,114.848,171.518,114.203z"/>
	<path fill="#FFFFFF" d="M15.84,120.471c0-0.686,0.546-1.232,1.232-1.232c0.687,0,1.247,0.547,1.247,1.232s-0.561,1.246-1.247,1.246
		C16.387,121.717,15.84,121.156,15.84,120.471z M15.994,129.086v-6.766h2.157v6.766H15.994z"/>
	<path fill="#FFFFFF" d="M24.019,129.086v-3.908c0-0.826-0.434-1.121-1.106-1.121c-0.645,0-1.064,0.35-1.317,0.658v4.371h-2.157
		v-6.766h2.157v0.826c0.406-0.477,1.205-0.994,2.354-0.994c1.527,0,2.227,0.896,2.227,2.143v4.791H24.019z"/>
	<path fill="#FFFFFF" d="M35.316,129.086v-0.785c-0.561,0.645-1.247,0.953-2.003,0.953c-1.667,0-2.984-1.262-2.984-3.559
		c0-2.213,1.289-3.543,2.984-3.543c0.742,0,1.471,0.293,2.003,0.967v-3.377h2.143v9.344H35.316z M35.316,126.732v-2.074
		c-0.28-0.363-0.84-0.602-1.303-0.602c-0.854,0-1.485,0.631-1.485,1.639c0,1.01,0.63,1.652,1.485,1.652
		C34.476,127.348,35.036,127.096,35.316,126.732z"/>
	<path fill="#FFFFFF" d="M38.604,120.471c0-0.686,0.546-1.232,1.232-1.232c0.687,0,1.247,0.547,1.247,1.232
		s-0.561,1.246-1.247,1.246C39.15,121.717,38.604,121.156,38.604,120.471z M38.758,129.086v-6.766h2.157v6.766H38.758z"/>
	<path fill="#FFFFFF" d="M41.627,128.203l0.896-1.541c0.504,0.449,1.583,0.91,2.381,0.91c0.645,0,0.911-0.182,0.911-0.477
		c0-0.84-3.936,0.029-3.936-2.717c0-1.191,1.037-2.227,2.899-2.227c1.148,0,2.101,0.363,2.83,0.896l-0.827,1.525
		c-0.406-0.391-1.176-0.742-1.989-0.742c-0.504,0-0.841,0.197-0.841,0.463c0,0.742,3.922-0.027,3.922,2.746
		c0,1.287-1.135,2.213-3.068,2.213C43.589,129.254,42.342,128.848,41.627,128.203z"/>
	<path fill="#FFFFFF" d="M49.146,127.264v-3.08h-1.12v-1.863h1.12v-1.85h2.157v1.85h1.373v1.863h-1.373v2.479
		c0,0.393,0.224,0.686,0.588,0.686c0.238,0,0.477-0.084,0.546-0.168l0.42,1.625c-0.266,0.252-0.798,0.449-1.597,0.449
		C49.888,129.254,49.146,128.566,49.146,127.264z"/>
	<path fill="#FFFFFF" d="M53.457,129.086v-6.766h2.157v0.826c0.448-0.547,1.317-1.01,2.115-1.01v2.074
		c-0.126-0.043-0.308-0.057-0.532-0.057c-0.56,0-1.303,0.238-1.583,0.617v4.314H53.457z"/>
	<path fill="#FFFFFF" d="M58.273,120.471c0-0.686,0.546-1.232,1.232-1.232c0.687,0,1.247,0.547,1.247,1.232
		s-0.561,1.246-1.247,1.246C58.819,121.717,58.273,121.156,58.273,120.471z M58.427,129.086v-6.766h2.157v6.766H58.427z"/>
	<path fill="#FFFFFF" d="M61.437,125.695c0-2.115,1.569-3.543,3.684-3.543c1.471,0,2.367,0.645,2.773,1.246l-1.401,1.303
		c-0.266-0.393-0.7-0.645-1.274-0.645c-0.896,0-1.583,0.617-1.583,1.639c0,1.023,0.687,1.652,1.583,1.652
		c0.574,0,1.008-0.279,1.274-0.658l1.401,1.318c-0.406,0.588-1.303,1.246-2.773,1.246C63.005,129.254,61.437,127.811,61.437,125.695
		z"/>
	<path fill="#FFFFFF" d="M69.039,127.264v-3.08h-1.12v-1.863h1.12v-1.85h2.157v1.85h1.373v1.863h-1.373v2.479
		c0,0.393,0.224,0.686,0.588,0.686c0.238,0,0.477-0.084,0.546-0.168l0.42,1.625c-0.266,0.252-0.798,0.449-1.597,0.449
		C69.782,129.254,69.039,128.566,69.039,127.264z"/>
	<path fill="#FFFFFF" d="M72.776,128.203l0.896-1.541c0.504,0.449,1.583,0.91,2.381,0.91c0.645,0,0.911-0.182,0.911-0.477
		c0-0.84-3.936,0.029-3.936-2.717c0-1.191,1.037-2.227,2.899-2.227c1.148,0,2.101,0.363,2.83,0.896l-0.827,1.525
		c-0.406-0.391-1.176-0.742-1.989-0.742c-0.504,0-0.841,0.197-0.841,0.463c0,0.742,3.922-0.027,3.922,2.746
		c0,1.287-1.135,2.213-3.068,2.213C74.738,129.254,73.491,128.848,72.776,128.203z"/>
	<path fill="#FFFFFF" d="M87.143,129.086v-0.674c-0.42,0.506-1.232,0.842-2.101,0.842c-1.037,0-2.325-0.715-2.325-2.229
		c0-1.639,1.289-2.184,2.325-2.184c0.896,0,1.695,0.293,2.101,0.797v-0.672c0-0.588-0.504-0.994-1.373-0.994
		c-0.672,0-1.345,0.266-1.891,0.729l-0.798-1.498c0.869-0.744,2.031-1.051,3.068-1.051c1.625,0,3.151,0.602,3.151,2.703v4.23H87.143
		z M87.143,127.348v-0.602c-0.224-0.322-0.728-0.477-1.205-0.477c-0.56,0-1.079,0.252-1.079,0.785c0,0.531,0.519,0.783,1.079,0.783
		C86.415,127.838,86.918,127.67,87.143,127.348z"/>
	<path fill="#FFFFFF" d="M90.585,129.086v-9.344h2.157v9.344H90.585z"/>
	<path fill="#FFFFFF" d="M94.028,129.086v-6.766h2.157v0.826c0.448-0.547,1.317-1.01,2.115-1.01v2.074
		c-0.126-0.043-0.308-0.057-0.532-0.057c-0.56,0-1.303,0.238-1.583,0.617v4.314H94.028z"/>
	<path fill="#FFFFFF" d="M98.564,125.695c0-1.961,1.471-3.543,3.586-3.543c2.003,0,3.46,1.471,3.46,3.768v0.49h-4.818
		c0.154,0.602,0.714,1.105,1.695,1.105c0.476,0,1.261-0.209,1.653-0.574l0.938,1.416c-0.672,0.602-1.793,0.896-2.83,0.896
		C100.162,129.254,98.564,127.895,98.564,125.695z M102.15,123.889c-0.938,0-1.303,0.561-1.387,1.051h2.788
		C103.495,124.463,103.145,123.889,102.15,123.889z"/>
	<path fill="#FFFFFF" d="M110.383,129.086v-0.674c-0.42,0.506-1.232,0.842-2.101,0.842c-1.037,0-2.325-0.715-2.325-2.229
		c0-1.639,1.289-2.184,2.325-2.184c0.896,0,1.695,0.293,2.101,0.797v-0.672c0-0.588-0.504-0.994-1.373-0.994
		c-0.672,0-1.345,0.266-1.891,0.729l-0.798-1.498c0.869-0.744,2.031-1.051,3.068-1.051c1.625,0,3.151,0.602,3.151,2.703v4.23
		H110.383z M110.383,127.348v-0.602c-0.224-0.322-0.728-0.477-1.205-0.477c-0.56,0-1.079,0.252-1.079,0.785
		c0,0.531,0.519,0.783,1.079,0.783C109.655,127.838,110.159,127.67,110.383,127.348z"/>
	<path fill="#FFFFFF" d="M118.377,129.086v-0.785c-0.561,0.645-1.247,0.953-2.003,0.953c-1.667,0-2.983-1.262-2.983-3.559
		c0-2.213,1.288-3.543,2.983-3.543c0.742,0,1.471,0.293,2.003,0.967v-3.377h2.144v9.344H118.377z M118.377,126.732v-2.074
		c-0.28-0.363-0.841-0.602-1.303-0.602c-0.854,0-1.484,0.631-1.484,1.639c0,1.01,0.63,1.652,1.484,1.652
		C117.536,127.348,118.097,127.096,118.377,126.732z"/>
	<path fill="#FFFFFF" d="M121.985,129.801c0.154,0.084,0.364,0.125,0.532,0.125c0.49,0,0.799-0.098,0.925-0.379l0.154-0.363
		l-2.703-6.863h2.269l1.541,4.285l1.527-4.285h2.283l-3.054,7.732c-0.547,1.428-1.556,1.75-2.858,1.777
		c-0.195,0-0.7-0.041-0.924-0.111L121.985,129.801z"/>
	<path fill="#FFFFFF" d="M134.335,128.287v3.375h-2.157v-9.342h2.157v0.783c0.532-0.645,1.232-0.951,2.003-0.951
		c1.695,0,2.97,1.26,2.97,3.543c0,2.297-1.274,3.559-2.97,3.559C135.582,129.254,134.896,128.959,134.335,128.287z M137.108,125.695
		c0-1.008-0.645-1.639-1.484-1.639c-0.463,0-1.022,0.252-1.289,0.617v2.059c0.267,0.35,0.826,0.615,1.289,0.615
		C136.464,127.348,137.108,126.719,137.108,125.695z"/>
	<path fill="#FFFFFF" d="M144.136,129.086v-0.674c-0.42,0.506-1.232,0.842-2.101,0.842c-1.037,0-2.325-0.715-2.325-2.229
		c0-1.639,1.288-2.184,2.325-2.184c0.896,0,1.694,0.293,2.101,0.797v-0.672c0-0.588-0.504-0.994-1.372-0.994
		c-0.673,0-1.345,0.266-1.892,0.729l-0.798-1.498c0.868-0.744,2.03-1.051,3.067-1.051c1.625,0,3.151,0.602,3.151,2.703v4.23H144.136
		z M144.136,127.348v-0.602c-0.224-0.322-0.729-0.477-1.204-0.477c-0.561,0-1.079,0.252-1.079,0.785
		c0,0.531,0.519,0.783,1.079,0.783C143.407,127.838,143.912,127.67,144.136,127.348z"/>
	<path fill="#FFFFFF" d="M147.577,129.086v-6.766h2.157v0.826c0.448-0.547,1.316-1.01,2.115-1.01v2.074
		c-0.126-0.043-0.308-0.057-0.532-0.057c-0.561,0-1.303,0.238-1.583,0.617v4.314H147.577z"/>
	<path fill="#FFFFFF" d="M152.996,127.264v-3.08h-1.12v-1.863h1.12v-1.85h2.157v1.85h1.373v1.863h-1.373v2.479
		c0,0.393,0.225,0.686,0.589,0.686c0.237,0,0.476-0.084,0.546-0.168l0.42,1.625c-0.266,0.252-0.798,0.449-1.597,0.449
		C153.738,129.254,152.996,128.566,152.996,127.264z"/>
	<path fill="#FFFFFF" d="M157.153,120.471c0-0.686,0.547-1.232,1.233-1.232s1.246,0.547,1.246,1.232s-0.56,1.246-1.246,1.246
		S157.153,121.156,157.153,120.471z M157.308,129.086v-6.766h2.157v6.766H157.308z"/>
	<path fill="#FFFFFF" d="M160.317,125.695c0-2.115,1.568-3.543,3.684-3.543c1.471,0,2.367,0.645,2.773,1.246l-1.4,1.303
		c-0.267-0.393-0.7-0.645-1.275-0.645c-0.896,0-1.582,0.617-1.582,1.639c0,1.023,0.686,1.652,1.582,1.652
		c0.575,0,1.009-0.279,1.275-0.658l1.4,1.318c-0.406,0.588-1.303,1.246-2.773,1.246
		C161.886,129.254,160.317,127.811,160.317,125.695z"/>
	<path fill="#FFFFFF" d="M167.317,120.471c0-0.686,0.547-1.232,1.233-1.232s1.246,0.547,1.246,1.232s-0.56,1.246-1.246,1.246
		S167.317,121.156,167.317,120.471z M167.472,129.086v-6.766h2.157v6.766H167.472z"/>
	<path fill="#FFFFFF" d="M173.072,128.287v3.375h-2.157v-9.342h2.157v0.783c0.532-0.645,1.232-0.951,2.003-0.951
		c1.695,0,2.97,1.26,2.97,3.543c0,2.297-1.274,3.559-2.97,3.559C174.319,129.254,173.633,128.959,173.072,128.287z M175.846,125.695
		c0-1.008-0.645-1.639-1.484-1.639c-0.463,0-1.022,0.252-1.289,0.617v2.059c0.267,0.35,0.826,0.615,1.289,0.615
		C175.201,127.348,175.846,126.719,175.846,125.695z"/>
	<path fill="#FFFFFF" d="M182.873,129.086v-0.674c-0.42,0.506-1.232,0.842-2.101,0.842c-1.037,0-2.325-0.715-2.325-2.229
		c0-1.639,1.288-2.184,2.325-2.184c0.896,0,1.694,0.293,2.101,0.797v-0.672c0-0.588-0.504-0.994-1.372-0.994
		c-0.673,0-1.345,0.266-1.892,0.729l-0.798-1.498c0.868-0.744,2.03-1.051,3.067-1.051c1.625,0,3.151,0.602,3.151,2.703v4.23H182.873
		z M182.873,127.348v-0.602c-0.224-0.322-0.729-0.477-1.204-0.477c-0.561,0-1.079,0.252-1.079,0.785
		c0,0.531,0.519,0.783,1.079,0.783C182.145,127.838,182.649,127.67,182.873,127.348z"/>
	<path fill="#FFFFFF" d="M186.763,127.264v-3.08h-1.12v-1.863h1.12v-1.85h2.157v1.85h1.373v1.863h-1.373v2.479
		c0,0.393,0.225,0.686,0.589,0.686c0.237,0,0.476-0.084,0.546-0.168l0.42,1.625c-0.266,0.252-0.798,0.449-1.597,0.449
		C187.505,129.254,186.763,128.566,186.763,127.264z"/>
	<path fill="#FFFFFF" d="M190.921,120.471c0-0.686,0.547-1.232,1.233-1.232s1.246,0.547,1.246,1.232s-0.56,1.246-1.246,1.246
		S190.921,121.156,190.921,120.471z M191.075,129.086v-6.766h2.157v6.766H191.075z"/>
	<path fill="#FFFFFF" d="M199.1,129.086v-3.908c0-0.826-0.435-1.121-1.107-1.121c-0.644,0-1.064,0.35-1.316,0.658v4.371h-2.157
		v-6.766h2.157v0.826c0.406-0.477,1.205-0.994,2.354-0.994c1.526,0,2.228,0.896,2.228,2.143v4.791H199.1z"/>
	<path fill="#FFFFFF" d="M202.358,130.822l0.938-1.514c0.532,0.561,1.274,0.785,2.059,0.785c0.715,0,1.724-0.309,1.724-1.596v-0.52
		c-0.561,0.672-1.233,0.994-2.004,0.994c-1.652,0-2.969-1.135-2.969-3.418c0-2.227,1.274-3.402,2.969-3.402
		c0.757,0,1.457,0.293,2.004,0.967v-0.799h2.157v6.178c0,2.744-2.199,3.332-3.881,3.332
		C204.193,131.83,203.227,131.537,202.358,130.822z M207.079,126.467v-1.809c-0.267-0.363-0.841-0.602-1.289-0.602
		c-0.854,0-1.484,0.518-1.484,1.498c0,0.996,0.63,1.514,1.484,1.514C206.238,127.068,206.812,126.83,207.079,126.467z"/>
	<path fill="#FFFFFF" d="M15.84,134.471c0-0.686,0.546-1.232,1.232-1.232c0.687,0,1.247,0.547,1.247,1.232s-0.561,1.246-1.247,1.246
		C16.387,135.717,15.84,135.156,15.84,134.471z M15.994,143.086v-6.766h2.157v6.766H15.994z"/>
	<path fill="#FFFFFF" d="M24.019,143.086v-3.908c0-0.826-0.434-1.121-1.106-1.121c-0.645,0-1.064,0.35-1.317,0.658v4.371h-2.157
		v-6.766h2.157v0.826c0.406-0.477,1.205-0.994,2.354-0.994c1.527,0,2.227,0.896,2.227,2.143v4.791H24.019z"/>
	<path fill="#FFFFFF" d="M31.212,141.264v-3.08h-1.12v-1.863h1.12v-1.85h2.157v1.85h1.373v1.863h-1.373v2.479
		c0,0.393,0.224,0.686,0.588,0.686c0.238,0,0.477-0.084,0.546-0.168l0.42,1.625c-0.266,0.252-0.798,0.449-1.597,0.449
		C31.955,143.254,31.212,142.566,31.212,141.264z"/>
	<path fill="#FFFFFF" d="M40.118,143.086v-3.938c0-0.826-0.434-1.092-1.121-1.092c-0.63,0-1.051,0.35-1.303,0.658v4.371h-2.157
		v-9.344h2.157v3.404c0.406-0.477,1.205-0.994,2.339-0.994c1.541,0,2.241,0.867,2.241,2.115v4.818H40.118z"/>
	<path fill="#FFFFFF" d="M43.125,139.695c0-1.961,1.471-3.543,3.586-3.543c2.003,0,3.46,1.471,3.46,3.768v0.49h-4.819
		c0.154,0.602,0.715,1.105,1.695,1.105c0.476,0,1.261-0.209,1.653-0.574l0.938,1.416c-0.672,0.602-1.793,0.896-2.83,0.896
		C44.723,143.254,43.125,141.895,43.125,139.695z M46.711,137.889c-0.938,0-1.303,0.561-1.387,1.051h2.788
		C48.056,138.463,47.706,137.889,46.711,137.889z"/>
	<path fill="#FFFFFF" d="M58.808,143.086v-0.785c-0.561,0.645-1.247,0.953-2.003,0.953c-1.667,0-2.984-1.262-2.984-3.559
		c0-2.213,1.289-3.543,2.984-3.543c0.742,0,1.471,0.293,2.003,0.967v-3.377h2.143v9.344H58.808z M58.808,140.732v-2.074
		c-0.28-0.363-0.84-0.602-1.303-0.602c-0.854,0-1.485,0.631-1.485,1.639c0,1.01,0.63,1.652,1.485,1.652
		C57.968,141.348,58.528,141.096,58.808,140.732z"/>
	<path fill="#FFFFFF" d="M61.815,139.695c0-1.904,1.373-3.543,3.67-3.543c2.325,0,3.698,1.639,3.698,3.543
		c0,1.906-1.373,3.559-3.698,3.559C63.188,143.254,61.815,141.602,61.815,139.695z M66.97,139.695c0-0.896-0.532-1.639-1.485-1.639
		c-0.924,0-1.457,0.742-1.457,1.639c0,0.91,0.532,1.652,1.457,1.652C66.438,141.348,66.97,140.605,66.97,139.695z"/>
	<path fill="#FFFFFF" d="M74.614,143.086v-3.908c0-0.826-0.434-1.121-1.106-1.121c-0.645,0-1.064,0.35-1.317,0.658v4.371h-2.157
		v-6.766h2.157v0.826c0.406-0.477,1.205-0.994,2.354-0.994c1.527,0,2.227,0.896,2.227,2.143v4.791H74.614z"/>
	<path fill="#FFFFFF" d="M82.047,143.086v-0.674c-0.42,0.506-1.232,0.842-2.101,0.842c-1.037,0-2.325-0.715-2.325-2.229
		c0-1.639,1.289-2.184,2.325-2.184c0.896,0,1.695,0.293,2.101,0.797v-0.672c0-0.588-0.504-0.994-1.373-0.994
		c-0.672,0-1.345,0.266-1.891,0.729l-0.798-1.498c0.869-0.744,2.031-1.051,3.068-1.051c1.625,0,3.151,0.602,3.151,2.703v4.23H82.047
		z M82.047,141.348v-0.602c-0.224-0.322-0.728-0.477-1.205-0.477c-0.56,0-1.079,0.252-1.079,0.785c0,0.531,0.519,0.783,1.079,0.783
		C81.319,141.838,81.823,141.67,82.047,141.348z"/>
	<path fill="#FFFFFF" d="M85.938,141.264v-3.08h-1.121v-1.863h1.121v-1.85h2.157v1.85h1.373v1.863h-1.373v2.479
		c0,0.393,0.224,0.686,0.588,0.686c0.238,0,0.477-0.084,0.546-0.168l0.42,1.625c-0.266,0.252-0.799,0.449-1.597,0.449
		C86.68,143.254,85.938,142.566,85.938,141.264z"/>
	<path fill="#FFFFFF" d="M90.095,134.471c0-0.686,0.546-1.232,1.232-1.232c0.687,0,1.247,0.547,1.247,1.232
		s-0.561,1.246-1.247,1.246C90.641,135.717,90.095,135.156,90.095,134.471z M90.249,143.086v-6.766h2.157v6.766H90.249z"/>
	<path fill="#FFFFFF" d="M93.258,139.695c0-1.904,1.373-3.543,3.67-3.543c2.325,0,3.698,1.639,3.698,3.543
		c0,1.906-1.373,3.559-3.698,3.559C94.631,143.254,93.258,141.602,93.258,139.695z M98.413,139.695c0-0.896-0.532-1.639-1.485-1.639
		c-0.924,0-1.457,0.742-1.457,1.639c0,0.91,0.532,1.652,1.457,1.652C97.88,141.348,98.413,140.605,98.413,139.695z"/>
	<path fill="#FFFFFF" d="M106.057,143.086v-3.908c0-0.826-0.434-1.121-1.106-1.121c-0.645,0-1.064,0.35-1.317,0.658v4.371h-2.157
		v-6.766h2.157v0.826c0.406-0.477,1.205-0.994,2.354-0.994c1.527,0,2.227,0.896,2.227,2.143v4.791H106.057z"/>
	<path fill="#FFFFFF" d="M114.959,142.287v3.375h-2.157v-9.342h2.157v0.783c0.532-0.645,1.232-0.951,2.003-0.951
		c1.695,0,2.97,1.26,2.97,3.543c0,2.297-1.274,3.559-2.97,3.559C116.206,143.254,115.52,142.959,114.959,142.287z M117.732,139.695
		c0-1.008-0.645-1.639-1.484-1.639c-0.463,0-1.022,0.252-1.289,0.617v2.059c0.267,0.35,0.826,0.615,1.289,0.615
		C117.088,141.348,117.732,140.719,117.732,139.695z"/>
	<path fill="#FFFFFF" d="M120.769,143.086v-6.766h2.157v0.826c0.448-0.547,1.316-1.01,2.115-1.01v2.074
		c-0.126-0.043-0.308-0.057-0.532-0.057c-0.561,0-1.303,0.238-1.583,0.617v4.314H120.769z"/>
	<path fill="#FFFFFF" d="M125.305,139.695c0-1.904,1.372-3.543,3.67-3.543c2.325,0,3.697,1.639,3.697,3.543
		c0,1.906-1.372,3.559-3.697,3.559C126.677,143.254,125.305,141.602,125.305,139.695z M130.459,139.695
		c0-0.896-0.532-1.639-1.484-1.639c-0.925,0-1.457,0.742-1.457,1.639c0,0.91,0.532,1.652,1.457,1.652
		C129.927,141.348,130.459,140.605,130.459,139.695z"/>
	<path fill="#FFFFFF" d="M133.34,144.822l0.938-1.514c0.532,0.561,1.274,0.785,2.059,0.785c0.715,0,1.724-0.309,1.724-1.596v-0.52
		c-0.561,0.672-1.233,0.994-2.004,0.994c-1.652,0-2.969-1.135-2.969-3.418c0-2.227,1.274-3.402,2.969-3.402
		c0.757,0,1.457,0.293,2.004,0.967v-0.799h2.157v6.178c0,2.744-2.199,3.332-3.881,3.332
		C135.175,145.83,134.208,145.537,133.34,144.822z M138.061,140.467v-1.809c-0.267-0.363-0.841-0.602-1.289-0.602
		c-0.854,0-1.484,0.518-1.484,1.498c0,0.996,0.63,1.514,1.484,1.514C137.22,141.068,137.794,140.83,138.061,140.467z"/>
	<path fill="#FFFFFF" d="M141.502,143.086v-6.766h2.157v0.826c0.448-0.547,1.317-1.01,2.115-1.01v2.074
		c-0.126-0.043-0.308-0.057-0.532-0.057c-0.561,0-1.303,0.238-1.583,0.617v4.314H141.502z"/>
	<path fill="#FFFFFF" d="M150.464,143.086v-0.674c-0.42,0.506-1.232,0.842-2.101,0.842c-1.037,0-2.325-0.715-2.325-2.229
		c0-1.639,1.288-2.184,2.325-2.184c0.896,0,1.694,0.293,2.101,0.797v-0.672c0-0.588-0.504-0.994-1.372-0.994
		c-0.673,0-1.345,0.266-1.892,0.729l-0.798-1.498c0.868-0.744,2.03-1.051,3.067-1.051c1.625,0,3.151,0.602,3.151,2.703v4.23H150.464
		z M150.464,141.348v-0.602c-0.224-0.322-0.729-0.477-1.204-0.477c-0.561,0-1.079,0.252-1.079,0.785
		c0,0.531,0.519,0.783,1.079,0.783C149.735,141.838,150.24,141.67,150.464,141.348z"/>
	<path fill="#FFFFFF" d="M162.437,143.086v-4.119c0-0.518-0.253-0.91-0.896-0.91c-0.589,0-1.009,0.379-1.219,0.658v4.371h-2.157
		v-4.119c0-0.518-0.238-0.91-0.883-0.91c-0.588,0-0.994,0.379-1.219,0.658v4.371h-2.157v-6.766h2.157v0.826
		c0.294-0.393,1.163-0.994,2.228-0.994c0.98,0,1.639,0.406,1.919,1.203c0.393-0.588,1.274-1.203,2.339-1.203
		c1.247,0,2.031,0.645,2.031,2.031v4.902H162.437z"/>
	<path fill="#FFFFFF" d="M174.406,143.086v-4.119c0-0.518-0.253-0.91-0.896-0.91c-0.589,0-1.009,0.379-1.219,0.658v4.371h-2.157
		v-4.119c0-0.518-0.238-0.91-0.883-0.91c-0.588,0-0.994,0.379-1.219,0.658v4.371h-2.157v-6.766h2.157v0.826
		c0.294-0.393,1.163-0.994,2.228-0.994c0.98,0,1.639,0.406,1.919,1.203c0.393-0.588,1.274-1.203,2.339-1.203
		c1.247,0,2.031,0.645,2.031,2.031v4.902H174.406z"/>
	<path fill="#FFFFFF" d="M177.412,139.695c0-1.961,1.471-3.543,3.586-3.543c2.003,0,3.459,1.471,3.459,3.768v0.49h-4.818
		c0.154,0.602,0.715,1.105,1.695,1.105c0.477,0,1.261-0.209,1.652-0.574l0.938,1.416c-0.672,0.602-1.793,0.896-2.829,0.896
		C179.009,143.254,177.412,141.895,177.412,139.695z M180.998,137.889c-0.938,0-1.303,0.561-1.387,1.051h2.787
		C182.343,138.463,181.992,137.889,180.998,137.889z"/>
</g>
</svg>
