<?xml version="1.0" encoding="utf-8"?>
<!-- Generator: Adobe Illustrator 16.0.0, SVG Export Plug-In . SVG Version: 6.00 Build 0)  -->
<!DOCTYPE svg PUBLIC "-//W3C//DTD SVG 1.1//EN" "http://www.w3.org/Graphics/SVG/1.1/DTD/svg11.dtd">
<svg version="1.1" id="Layer_1" xmlns="http://www.w3.org/2000/svg" xmlns:xlink="http://www.w3.org/1999/xlink" x="0px" y="0px"
	 width="960px" height="225px" viewBox="0 0 960 225" enable-background="new 0 0 960 225" xml:space="preserve">
<rect x="14" y="137" fill="#E1E1E1" width="944" height="87"/>
<rect x="577" y="137" fill="#2C2136" width="191" height="87"/>
<rect y="137" fill="#653F91" width="191" height="87"/>
<g>
	<path fill="#FFFFFF" d="M23.068,159.838l-1.639-6.416l-1.625,6.416h-2.115l-2.675-9.343h2.227l1.639,6.752l1.779-6.752h1.555
		l1.765,6.752l1.639-6.752h2.227l-2.661,9.343H23.068z"/>
	<path fill="#FFFFFF" d="M33.035,159.838v-4.118c0-0.938-0.49-1.233-1.247-1.233c-0.7,0-1.247,0.393-1.541,0.785v4.566h-1.793
		v-9.343h1.793v3.446c0.435-0.504,1.261-1.037,2.368-1.037c1.484,0,2.199,0.812,2.199,2.129v4.805H33.035z"/>
	<path fill="#FFFFFF" d="M35.86,156.448c0-1.961,1.457-3.544,3.502-3.544c2.031,0,3.39,1.513,3.39,3.712v0.42h-5.029
		c0.126,0.827,0.799,1.513,1.947,1.513c0.574,0,1.359-0.237,1.793-0.658l0.798,1.177c-0.672,0.616-1.737,0.938-2.788,0.938
		C37.415,160.006,35.86,158.619,35.86,156.448z M39.362,154.361c-1.106,0-1.583,0.771-1.653,1.443h3.333
		C40.987,155.159,40.539,154.361,39.362,154.361z"/>
	<path fill="#FFFFFF" d="M48.322,159.838v-4.09c0-0.938-0.49-1.261-1.247-1.261c-0.7,0-1.232,0.393-1.541,0.785v4.566h-1.779v-6.766
		h1.779v0.869c0.434-0.504,1.274-1.037,2.367-1.037c1.499,0,2.213,0.84,2.213,2.157v4.776H48.322z"/>
	<path fill="#FFFFFF" d="M57.099,159.838v-7.592h-2.731v-1.751h7.452v1.751h-2.717v7.592H57.099z"/>
	<path fill="#FFFFFF" d="M62.809,159.838v-9.343h6.612v1.751h-4.623v1.961h4.524v1.751h-4.524v3.88H62.809z"/>
	<path fill="#FFFFFF" d="M73.631,151.279c0-0.588,0.476-1.051,1.051-1.051c0.588,0,1.064,0.462,1.064,1.051
		s-0.477,1.064-1.064,1.064C74.107,152.344,73.631,151.868,73.631,151.279z M73.799,159.838v-6.766h1.779v6.766H73.799z"/>
	<path fill="#FFFFFF" d="M76.473,158.955l0.771-1.288c0.504,0.476,1.499,0.938,2.339,0.938c0.771,0,1.135-0.294,1.135-0.715
		c0-1.106-4.006-0.196-4.006-2.857c0-1.135,0.98-2.129,2.773-2.129c1.135,0,2.045,0.392,2.718,0.924l-0.714,1.261
		c-0.406-0.42-1.177-0.785-2.003-0.785c-0.644,0-1.064,0.28-1.064,0.659c0,0.995,4.02,0.154,4.02,2.885
		c0,1.247-1.064,2.157-2.941,2.157C78.322,160.006,77.188,159.613,76.473,158.955z"/>
	<path fill="#FFFFFF" d="M88.556,158.97v3.445h-1.779v-9.343h1.779v0.854c0.518-0.658,1.261-1.022,2.087-1.022
		c1.737,0,2.998,1.289,2.998,3.544c0,2.255-1.261,3.558-2.998,3.558C89.844,160.006,89.116,159.67,88.556,158.97z M91.805,156.448
		c0-1.163-0.7-1.961-1.723-1.961c-0.575,0-1.219,0.322-1.527,0.771v2.381c0.294,0.435,0.952,0.784,1.527,0.784
		C91.105,158.423,91.805,157.625,91.805,156.448z"/>
	<path fill="#FFFFFF" d="M94.659,159.838v-6.766h1.779v0.911c0.49-0.588,1.316-1.079,2.157-1.079v1.737
		c-0.126-0.028-0.28-0.042-0.49-0.042c-0.588,0-1.373,0.336-1.667,0.771v4.468H94.659z"/>
	<path fill="#FFFFFF" d="M98.984,156.448c0-1.961,1.457-3.544,3.502-3.544c2.031,0,3.39,1.513,3.39,3.712v0.42h-5.029
		c0.126,0.827,0.799,1.513,1.947,1.513c0.574,0,1.359-0.237,1.793-0.658l0.798,1.177c-0.672,0.616-1.737,0.938-2.788,0.938
		C100.539,160.006,98.984,158.619,98.984,156.448z M102.486,154.361c-1.106,0-1.583,0.771-1.653,1.443h3.333
		C104.111,155.159,103.663,154.361,102.486,154.361z"/>
	<path fill="#FFFFFF" d="M106.292,158.955l0.771-1.288c0.504,0.476,1.499,0.938,2.339,0.938c0.771,0,1.135-0.294,1.135-0.715
		c0-1.106-4.006-0.196-4.006-2.857c0-1.135,0.98-2.129,2.773-2.129c1.135,0,2.045,0.392,2.718,0.924l-0.714,1.261
		c-0.406-0.42-1.177-0.785-2.003-0.785c-0.644,0-1.064,0.28-1.064,0.659c0,0.995,4.02,0.154,4.02,2.885
		c0,1.247-1.064,2.157-2.941,2.157C108.141,160.006,107.006,159.613,106.292,158.955z"/>
	<path fill="#FFFFFF" d="M112.843,156.448c0-1.961,1.457-3.544,3.502-3.544c2.031,0,3.39,1.513,3.39,3.712v0.42h-5.029
		c0.126,0.827,0.799,1.513,1.947,1.513c0.574,0,1.359-0.237,1.793-0.658l0.798,1.177c-0.672,0.616-1.737,0.938-2.788,0.938
		C114.398,160.006,112.843,158.619,112.843,156.448z M116.345,154.361c-1.106,0-1.583,0.771-1.653,1.443h3.333
		C117.97,155.159,117.522,154.361,116.345,154.361z"/>
	<path fill="#FFFFFF" d="M125.306,159.838v-4.09c0-0.938-0.49-1.261-1.247-1.261c-0.7,0-1.232,0.393-1.541,0.785v4.566h-1.779
		v-6.766h1.779v0.869c0.434-0.504,1.274-1.037,2.367-1.037c1.499,0,2.213,0.84,2.213,2.157v4.776H125.306z"/>
	<path fill="#FFFFFF" d="M128.93,158.143v-3.516h-1.121v-1.555h1.121v-1.849h1.779v1.849h1.373v1.555h-1.373v3.04
		c0,0.434,0.224,0.756,0.616,0.756c0.266,0,0.518-0.098,0.616-0.21l0.378,1.358c-0.266,0.238-0.743,0.435-1.485,0.435
		C129.588,160.006,128.93,159.361,128.93,158.143z"/>
	<path fill="#FFFFFF" d="M136.167,151.279c0-0.588,0.476-1.051,1.051-1.051c0.588,0,1.064,0.462,1.064,1.051
		s-0.477,1.064-1.064,1.064C136.643,152.344,136.167,151.868,136.167,151.279z M136.335,159.838v-6.766h1.779v6.766H136.335z"/>
	<path fill="#FFFFFF" d="M144.163,159.838v-4.09c0-0.938-0.49-1.261-1.247-1.261c-0.7,0-1.232,0.393-1.541,0.785v4.566h-1.779
		v-6.766h1.779v0.869c0.434-0.504,1.274-1.037,2.367-1.037c1.499,0,2.213,0.84,2.213,2.157v4.776H144.163z"/>
	<path fill="#FFFFFF" d="M24.273,176.638v-4.272c0-0.63-0.28-1.078-1.008-1.078c-0.63,0-1.149,0.42-1.401,0.784v4.566h-1.793v-4.272
		c0-0.63-0.28-1.078-1.009-1.078c-0.616,0-1.134,0.42-1.4,0.784v4.566h-1.779v-6.766h1.779v0.868
		c0.294-0.392,1.176-1.036,2.213-1.036c0.995,0,1.639,0.462,1.877,1.219c0.393-0.603,1.289-1.219,2.326-1.219
		c1.247,0,1.989,0.658,1.989,2.045v4.889H24.273z"/>
	<path fill="#FFFFFF" d="M27.11,173.248c0-1.919,1.345-3.544,3.572-3.544c2.241,0,3.586,1.625,3.586,3.544s-1.345,3.558-3.586,3.558
		C28.455,176.806,27.11,175.167,27.11,173.248z M32.419,173.248c0-1.051-0.617-1.961-1.737-1.961c-1.106,0-1.723,0.91-1.723,1.961
		c0,1.064,0.616,1.975,1.723,1.975C31.803,175.223,32.419,174.312,32.419,173.248z"/>
	<path fill="#FFFFFF" d="M35.314,176.638v-6.766h1.779v0.91c0.49-0.588,1.316-1.078,2.157-1.078v1.736
		c-0.126-0.027-0.28-0.042-0.49-0.042c-0.588,0-1.373,0.337-1.667,0.771v4.469H35.314z"/>
	<path fill="#FFFFFF" d="M39.64,173.248c0-1.961,1.457-3.544,3.502-3.544c2.031,0,3.39,1.513,3.39,3.712v0.42h-5.029
		c0.126,0.827,0.799,1.513,1.947,1.513c0.574,0,1.359-0.237,1.793-0.658l0.798,1.177c-0.672,0.616-1.737,0.938-2.788,0.938
		C41.194,176.806,39.64,175.419,39.64,173.248z M43.142,171.161c-1.106,0-1.583,0.771-1.653,1.442h3.333
		C44.767,171.959,44.318,171.161,43.142,171.161z"/>
	<path fill="#FFFFFF" d="M51.217,174.942v-3.516h-1.121v-1.555h1.121v-1.849h1.779v1.849h1.373v1.555h-1.373v3.04
		c0,0.434,0.225,0.756,0.617,0.756c0.266,0,0.518-0.098,0.616-0.21l0.378,1.358c-0.267,0.238-0.743,0.435-1.485,0.435
		C51.876,176.806,51.217,176.161,51.217,174.942z"/>
	<path fill="#FFFFFF" d="M59.885,176.638v-4.118c0-0.938-0.49-1.232-1.247-1.232c-0.7,0-1.247,0.392-1.541,0.784v4.566h-1.793
		v-9.343h1.793v3.445c0.435-0.504,1.261-1.036,2.367-1.036c1.485,0,2.199,0.812,2.199,2.129v4.805H59.885z"/>
	<path fill="#FFFFFF" d="M67.207,176.638v-0.715c-0.462,0.561-1.261,0.883-2.144,0.883c-1.078,0-2.339-0.729-2.339-2.241
		c0-1.597,1.261-2.186,2.339-2.186c0.911,0,1.695,0.295,2.144,0.827v-0.854c0-0.687-0.588-1.135-1.485-1.135
		c-0.714,0-1.387,0.28-1.947,0.799l-0.7-1.247c0.826-0.742,1.891-1.064,2.956-1.064c1.555,0,2.97,0.616,2.97,2.563v4.37H67.207z
		 M67.207,175.013v-0.841c-0.294-0.392-0.854-0.602-1.429-0.602c-0.701,0-1.275,0.378-1.275,1.022s0.574,1.009,1.275,1.009
		C66.353,175.602,66.913,175.405,67.207,175.013z"/>
	<path fill="#FFFFFF" d="M75.033,176.638v-4.09c0-0.938-0.49-1.261-1.247-1.261c-0.7,0-1.232,0.392-1.541,0.784v4.566h-1.779v-6.766
		h1.779v0.868c0.434-0.504,1.274-1.036,2.367-1.036c1.499,0,2.213,0.84,2.213,2.157v4.776H75.033z"/>
	<path fill="#FFFFFF" d="M81.415,175.405l1.106-1.387c0.63,0.658,1.499,1.022,2.479,1.022c1.106,0,1.737-0.631,1.737-1.387
		c0-0.826-0.616-1.387-1.681-1.387c-0.77,0-1.4,0.224-1.961,0.756l-1.387-0.378v-5.351h6.416v1.751h-4.426v2.283
		c0.448-0.448,1.205-0.785,2.059-0.785c1.583,0,2.998,1.135,2.998,3.026c0,1.975-1.485,3.235-3.74,3.235
		C83.39,176.806,82.213,176.273,81.415,175.405z"/>
	<path fill="#FFFFFF" d="M89.324,169.494c0-1.317,0.938-2.34,2.367-2.34c1.443,0,2.381,1.022,2.381,2.34
		c0,1.303-0.938,2.311-2.381,2.311C90.262,171.805,89.324,170.797,89.324,169.494z M92.812,169.494c0-0.771-0.476-1.247-1.121-1.247
		c-0.63,0-1.106,0.477-1.106,1.247c0,0.742,0.476,1.219,1.106,1.219C92.335,170.713,92.812,170.236,92.812,169.494z M90.78,176.638
		l5.967-9.343h1.065l-5.981,9.343H90.78z M94.464,174.494c0-1.316,0.938-2.353,2.367-2.353c1.429,0,2.381,1.036,2.381,2.353
		c0,1.303-0.952,2.312-2.381,2.312C95.403,176.806,94.464,175.797,94.464,174.494z M97.952,174.494c0-0.77-0.476-1.246-1.121-1.246
		c-0.644,0-1.106,0.477-1.106,1.246c0,0.757,0.462,1.219,1.106,1.219C97.476,175.713,97.952,175.251,97.952,174.494z"/>
	<path fill="#FFFFFF" d="M103.057,173.248c0-1.919,1.345-3.544,3.572-3.544c2.241,0,3.586,1.625,3.586,3.544
		s-1.345,3.558-3.586,3.558C104.402,176.806,103.057,175.167,103.057,173.248z M108.366,173.248c0-1.051-0.617-1.961-1.737-1.961
		c-1.106,0-1.723,0.91-1.723,1.961c0,1.064,0.616,1.975,1.723,1.975C107.75,175.223,108.366,174.312,108.366,173.248z"/>
	<path fill="#FFFFFF" d="M111.667,176.638v-5.211h-1.121v-1.555h1.121v-0.28c0-1.526,0.911-2.438,2.27-2.438
		c0.658,0,1.358,0.183,1.765,0.645l-0.672,1.079c-0.182-0.169-0.42-0.267-0.742-0.267c-0.504,0-0.84,0.322-0.84,0.98v0.28h1.373
		v1.555h-1.373v5.211H111.667z"/>
	<path fill="#FFFFFF" d="M118.443,173.248c0-2.073,1.513-3.544,3.586-3.544c1.387,0,2.227,0.603,2.675,1.219l-1.163,1.093
		c-0.322-0.477-0.812-0.729-1.429-0.729c-1.079,0-1.835,0.784-1.835,1.961s0.756,1.975,1.835,1.975c0.616,0,1.106-0.28,1.429-0.742
		l1.163,1.093c-0.448,0.616-1.289,1.232-2.675,1.232C119.956,176.806,118.443,175.335,118.443,173.248z"/>
	<path fill="#FFFFFF" d="M130.164,176.638v-4.118c0-0.938-0.49-1.232-1.247-1.232c-0.7,0-1.247,0.392-1.541,0.784v4.566h-1.793
		v-9.343h1.793v3.445c0.435-0.504,1.261-1.036,2.367-1.036c1.485,0,2.199,0.812,2.199,2.129v4.805H130.164z"/>
	<path fill="#FFFFFF" d="M133.254,168.079c0-0.588,0.476-1.051,1.051-1.051c0.588,0,1.064,0.463,1.064,1.051
		s-0.476,1.064-1.064,1.064C133.73,169.144,133.254,168.667,133.254,168.079z M133.422,176.638v-6.766h1.779v6.766H133.422z"/>
	<path fill="#FFFFFF" d="M136.685,176.638v-9.343h1.779v9.343H136.685z"/>
	<path fill="#FFFFFF" d="M144.597,176.638v-0.868c-0.533,0.672-1.261,1.036-2.087,1.036c-1.695,0-2.998-1.288-2.998-3.558
		c0-2.199,1.275-3.544,2.998-3.544c0.798,0,1.555,0.336,2.087,1.036v-3.445h1.793v9.343H144.597z M144.597,174.452v-2.395
		c-0.294-0.448-0.939-0.771-1.527-0.771c-1.023,0-1.723,0.798-1.723,1.961c0,1.177,0.7,1.975,1.723,1.975
		C143.658,175.223,144.303,174.9,144.597,174.452z"/>
	<path fill="#FFFFFF" d="M147.871,176.638v-6.766h1.779v0.91c0.49-0.588,1.316-1.078,2.157-1.078v1.736
		c-0.126-0.027-0.28-0.042-0.49-0.042c-0.588,0-1.373,0.337-1.667,0.771v4.469H147.871z"/>
	<path fill="#FFFFFF" d="M152.196,173.248c0-1.961,1.457-3.544,3.502-3.544c2.031,0,3.39,1.513,3.39,3.712v0.42h-5.029
		c0.126,0.827,0.799,1.513,1.947,1.513c0.574,0,1.359-0.237,1.793-0.658l0.798,1.177c-0.672,0.616-1.737,0.938-2.788,0.938
		C153.751,176.806,152.196,175.419,152.196,173.248z M155.698,171.161c-1.106,0-1.583,0.771-1.653,1.442h3.333
		C157.323,171.959,156.875,171.161,155.698,171.161z"/>
	<path fill="#FFFFFF" d="M164.659,176.638v-4.09c0-0.938-0.49-1.261-1.247-1.261c-0.7,0-1.232,0.392-1.541,0.784v4.566h-1.779
		v-6.766h1.779v0.868c0.434-0.504,1.274-1.036,2.367-1.036c1.499,0,2.213,0.84,2.213,2.157v4.776H164.659z"/>
	<path fill="#FFFFFF" d="M168.604,178.557l-0.771-0.63c0.448-0.238,0.967-0.827,1.079-1.317c-0.042,0.015-0.154,0.042-0.266,0.042
		c-0.532,0-0.953-0.42-0.953-1.008c0-0.617,0.504-1.121,1.107-1.121c0.658,0,1.247,0.519,1.247,1.429
		C170.047,177.002,169.473,177.94,168.604,178.557z"/>
	<path fill="#FFFFFF" d="M19.945,193.438v-0.715c-0.462,0.561-1.261,0.883-2.143,0.883c-1.079,0-2.339-0.729-2.339-2.241
		c0-1.597,1.261-2.185,2.339-2.185c0.91,0,1.695,0.294,2.143,0.826v-0.854c0-0.687-0.588-1.135-1.485-1.135
		c-0.714,0-1.387,0.28-1.947,0.799l-0.7-1.247c0.826-0.742,1.891-1.064,2.956-1.064c1.555,0,2.97,0.616,2.97,2.563v4.37H19.945z
		 M19.945,191.812v-0.84c-0.294-0.393-0.854-0.603-1.429-0.603c-0.701,0-1.275,0.378-1.275,1.022s0.574,1.009,1.275,1.009
		C19.09,192.401,19.65,192.205,19.945,191.812z"/>
	<path fill="#FFFFFF" d="M31.173,193.438v-0.868c-0.533,0.672-1.261,1.036-2.087,1.036c-1.695,0-2.998-1.289-2.998-3.558
		c0-2.199,1.275-3.544,2.998-3.544c0.798,0,1.555,0.336,2.087,1.036v-3.445h1.793v9.343H31.173z M31.173,191.252v-2.395
		c-0.294-0.448-0.938-0.771-1.527-0.771c-1.023,0-1.723,0.798-1.723,1.961c0,1.177,0.7,1.975,1.723,1.975
		C30.234,192.022,30.878,191.7,31.173,191.252z"/>
	<path fill="#FFFFFF" d="M34.278,184.879c0-0.588,0.476-1.051,1.051-1.051c0.588,0,1.064,0.463,1.064,1.051
		s-0.477,1.064-1.064,1.064C34.754,185.943,34.278,185.467,34.278,184.879z M34.446,193.438v-6.766h1.779v6.766H34.446z"/>
	<path fill="#FFFFFF" d="M37.12,192.555l0.771-1.288c0.504,0.476,1.499,0.938,2.339,0.938c0.771,0,1.135-0.294,1.135-0.715
		c0-1.106-4.006-0.196-4.006-2.857c0-1.135,0.98-2.129,2.773-2.129c1.135,0,2.045,0.392,2.718,0.925l-0.714,1.26
		c-0.406-0.42-1.177-0.784-2.003-0.784c-0.644,0-1.064,0.28-1.064,0.658c0,0.995,4.02,0.154,4.02,2.886
		c0,1.247-1.064,2.157-2.941,2.157C38.969,193.605,37.834,193.213,37.12,192.555z"/>
	<path fill="#FFFFFF" d="M44.47,191.742v-3.516H43.35v-1.555h1.121v-1.849h1.779v1.849h1.373v1.555h-1.373v3.04
		c0,0.434,0.225,0.756,0.617,0.756c0.266,0,0.518-0.098,0.616-0.21l0.378,1.358c-0.267,0.238-0.743,0.435-1.485,0.435
		C45.129,193.605,44.47,192.961,44.47,191.742z"/>
	<path fill="#FFFFFF" d="M48.558,193.438v-6.766h1.779v0.91c0.49-0.588,1.316-1.078,2.157-1.078v1.736
		c-0.126-0.027-0.28-0.042-0.491-0.042c-0.588,0-1.373,0.337-1.667,0.771v4.469H48.558z"/>
	<path fill="#FFFFFF" d="M53.15,184.879c0-0.588,0.476-1.051,1.051-1.051c0.588,0,1.064,0.463,1.064,1.051s-0.476,1.064-1.064,1.064
		C53.626,185.943,53.15,185.467,53.15,184.879z M53.318,193.438v-6.766h1.779v6.766H53.318z"/>
	<path fill="#FFFFFF" d="M56.146,190.048c0-2.073,1.513-3.544,3.586-3.544c1.387,0,2.227,0.603,2.675,1.219l-1.163,1.093
		c-0.322-0.477-0.812-0.729-1.429-0.729c-1.079,0-1.835,0.784-1.835,1.961s0.756,1.975,1.835,1.975c0.616,0,1.106-0.28,1.429-0.742
		l1.163,1.093c-0.448,0.616-1.289,1.232-2.675,1.232C57.658,193.605,56.146,192.135,56.146,190.048z"/>
	<path fill="#FFFFFF" d="M63.65,191.742v-3.516h-1.121v-1.555h1.121v-1.849h1.779v1.849h1.373v1.555h-1.373v3.04
		c0,0.434,0.225,0.756,0.617,0.756c0.266,0,0.518-0.098,0.616-0.21l0.378,1.358c-0.267,0.238-0.743,0.435-1.485,0.435
		C64.309,193.605,63.65,192.961,63.65,191.742z"/>
	<path fill="#FFFFFF" d="M71.055,193.438v-6.766h1.779v0.91c0.49-0.588,1.316-1.078,2.157-1.078v1.736
		c-0.126-0.027-0.28-0.042-0.49-0.042c-0.588,0-1.373,0.337-1.667,0.771v4.469H71.055z"/>
	<path fill="#FFFFFF" d="M75.381,190.048c0-1.961,1.457-3.544,3.502-3.544c2.031,0,3.39,1.513,3.39,3.712v0.42h-5.029
		c0.126,0.827,0.799,1.513,1.947,1.513c0.574,0,1.359-0.237,1.793-0.658l0.798,1.177c-0.672,0.616-1.737,0.938-2.788,0.938
		C76.936,193.605,75.381,192.219,75.381,190.048z M78.883,187.961c-1.106,0-1.583,0.77-1.653,1.442h3.333
		C80.508,188.759,80.06,187.961,78.883,187.961z"/>
	<path fill="#FFFFFF" d="M82.829,190.048c0-2.256,1.261-3.544,2.984-3.544c0.826,0,1.569,0.364,2.087,1.022v-0.854h1.793v9.343
		h-1.793v-3.445c-0.546,0.7-1.274,1.036-2.087,1.036C84.089,193.605,82.829,192.303,82.829,190.048z M87.899,191.238v-2.381
		c-0.294-0.448-0.938-0.771-1.527-0.771c-1.008,0-1.709,0.798-1.709,1.961c0,1.177,0.701,1.975,1.709,1.975
		C86.961,192.022,87.605,191.673,87.899,191.238z"/>
	<path fill="#FFFFFF" d="M95.726,193.438v-0.854c-0.462,0.504-1.274,1.022-2.381,1.022c-1.485,0-2.186-0.812-2.186-2.129v-4.805
		h1.779v4.104c0,0.938,0.49,1.246,1.247,1.246c0.686,0,1.232-0.378,1.541-0.771v-4.58h1.779v6.766H95.726z"/>
	<path fill="#FFFFFF" d="M98.817,184.879c0-0.588,0.476-1.051,1.051-1.051c0.588,0,1.064,0.463,1.064,1.051
		s-0.476,1.064-1.064,1.064C99.293,185.943,98.817,185.467,98.817,184.879z M98.985,193.438v-6.766h1.779v6.766H98.985z"/>
	<path fill="#FFFFFF" d="M102.247,193.438v-6.766h1.779v0.91c0.49-0.588,1.316-1.078,2.157-1.078v1.736
		c-0.126-0.027-0.28-0.042-0.491-0.042c-0.588,0-1.373,0.337-1.667,0.771v4.469H102.247z"/>
	<path fill="#FFFFFF" d="M106.573,190.048c0-1.961,1.457-3.544,3.502-3.544c2.031,0,3.39,1.513,3.39,3.712v0.42h-5.029
		c0.126,0.827,0.799,1.513,1.947,1.513c0.574,0,1.359-0.237,1.793-0.658l0.798,1.177c-0.672,0.616-1.737,0.938-2.788,0.938
		C108.128,193.605,106.573,192.219,106.573,190.048z M110.075,187.961c-1.106,0-1.583,0.77-1.653,1.442h3.333
		C111.7,188.759,111.252,187.961,110.075,187.961z"/>
	<path fill="#FFFFFF" d="M113.88,192.555l0.771-1.288c0.504,0.476,1.499,0.938,2.339,0.938c0.771,0,1.135-0.294,1.135-0.715
		c0-1.106-4.006-0.196-4.006-2.857c0-1.135,0.98-2.129,2.773-2.129c1.135,0,2.045,0.392,2.718,0.925l-0.714,1.26
		c-0.406-0.42-1.177-0.784-2.003-0.784c-0.644,0-1.064,0.28-1.064,0.658c0,0.995,4.02,0.154,4.02,2.886
		c0,1.247-1.064,2.157-2.941,2.157C115.729,193.605,114.595,193.213,113.88,192.555z"/>
	<path fill="#FFFFFF" d="M130.684,193.438l-0.588-1.583h-4.006l-0.588,1.583h-2.255l3.6-9.343h2.493l3.6,9.343H130.684z
		 M128.092,186.084l-1.457,4.02h2.914L128.092,186.084z"/>
	<path fill="#FFFFFF" d="M136.839,193.438v-9.343h6.612v1.751h-4.623v1.961h4.524v1.751h-4.524v3.88H136.839z"/>
	<path fill="#FFFFFF" d="M153.614,193.438c-0.196-0.182-0.434-0.42-0.7-0.7c-0.7,0.532-1.555,0.868-2.549,0.868
		c-1.709,0-3.082-0.896-3.082-2.703c0-1.415,0.938-2.157,2.017-2.704c-0.378-0.686-0.616-1.372-0.616-2.003
		c0-1.261,1.107-2.241,2.662-2.241c1.317,0,2.451,0.715,2.451,1.976c0,1.429-1.134,2.031-2.283,2.563
		c0.28,0.378,0.561,0.729,0.798,1.008c0.266,0.337,0.532,0.659,0.799,0.967c0.392-0.616,0.686-1.274,0.854-1.821l1.415,0.659
		c-0.336,0.742-0.756,1.54-1.303,2.241c0.56,0.616,1.163,1.232,1.807,1.891H153.614z M151.961,191.729
		c-0.42-0.462-0.812-0.91-1.037-1.19c-0.308-0.378-0.644-0.799-0.938-1.232c-0.49,0.35-0.812,0.784-0.812,1.429
		c0,0.91,0.672,1.471,1.443,1.471C151.093,192.205,151.555,192.022,151.961,191.729z M150.855,187.498
		c0.784-0.378,1.401-0.784,1.401-1.471c0-0.49-0.364-0.784-0.827-0.784c-0.546,0-0.98,0.406-0.98,0.994
		C150.449,186.616,150.603,187.05,150.855,187.498z"/>
	<path fill="#FFFFFF" d="M159.967,193.438v-9.343h6.612v1.751h-4.623v1.961h4.524v1.751h-4.524v2.129h4.623v1.751H159.967z"/>
	<path fill="#FFFFFF" d="M15.714,201.68c0-0.588,0.476-1.051,1.051-1.051c0.588,0,1.064,0.463,1.064,1.051s-0.476,1.064-1.064,1.064
		C16.19,202.744,15.714,202.268,15.714,201.68z M15.882,210.238v-6.766h1.779v6.766H15.882z"/>
	<path fill="#FFFFFF" d="M23.711,210.238v-4.09c0-0.938-0.49-1.261-1.247-1.261c-0.7,0-1.232,0.392-1.541,0.784v4.566h-1.779v-6.766
		h1.779v0.868c0.434-0.504,1.274-1.036,2.367-1.036c1.499,0,2.213,0.84,2.213,2.157v4.776H23.711z"/>
	<path fill="#FFFFFF" d="M27.334,208.543v-3.516h-1.121v-1.555h1.121v-1.849h1.779v1.849h1.373v1.555h-1.373v3.04
		c0,0.434,0.225,0.756,0.617,0.756c0.266,0,0.518-0.098,0.616-0.21l0.378,1.358c-0.267,0.238-0.743,0.435-1.485,0.435
		C27.993,210.406,27.334,209.762,27.334,208.543z"/>
	<path fill="#FFFFFF" d="M30.988,206.849c0-1.961,1.457-3.544,3.502-3.544c2.031,0,3.39,1.513,3.39,3.712v0.42h-5.029
		c0.126,0.827,0.799,1.513,1.947,1.513c0.574,0,1.359-0.237,1.793-0.658l0.798,1.177c-0.672,0.616-1.737,0.938-2.788,0.938
		C32.543,210.406,30.988,209.02,30.988,206.849z M34.49,204.762c-1.106,0-1.583,0.77-1.653,1.442h3.333
		C36.115,205.56,35.667,204.762,34.49,204.762z"/>
	<path fill="#FFFFFF" d="M38.884,210.238v-6.766h1.779v0.91c0.49-0.588,1.316-1.078,2.157-1.078v1.736
		c-0.126-0.027-0.28-0.042-0.491-0.042c-0.588,0-1.373,0.337-1.667,0.771v4.469H38.884z"/>
	<path fill="#FFFFFF" d="M45.395,210.238l-2.717-6.766h1.905l1.765,4.706l1.779-4.706h1.905l-2.718,6.766H45.395z"/>
	<path fill="#FFFFFF" d="M50.111,206.849c0-1.961,1.457-3.544,3.502-3.544c2.031,0,3.39,1.513,3.39,3.712v0.42h-5.029
		c0.126,0.827,0.799,1.513,1.947,1.513c0.574,0,1.359-0.237,1.793-0.658l0.798,1.177c-0.672,0.616-1.737,0.938-2.788,0.938
		C51.666,210.406,50.111,209.02,50.111,206.849z M53.613,204.762c-1.106,0-1.583,0.77-1.653,1.442h3.333
		C55.238,205.56,54.79,204.762,53.613,204.762z"/>
	<path fill="#FFFFFF" d="M62.573,210.238v-4.09c0-0.938-0.49-1.261-1.247-1.261c-0.7,0-1.232,0.392-1.541,0.784v4.566h-1.779v-6.766
		h1.779v0.868c0.434-0.504,1.274-1.036,2.367-1.036c1.499,0,2.213,0.84,2.213,2.157v4.776H62.573z"/>
	<path fill="#FFFFFF" d="M66.197,208.543v-3.516h-1.121v-1.555h1.121v-1.849h1.779v1.849h1.373v1.555h-1.373v3.04
		c0,0.434,0.225,0.756,0.617,0.756c0.266,0,0.518-0.098,0.616-0.21l0.378,1.358c-0.267,0.238-0.743,0.435-1.485,0.435
		C66.855,210.406,66.197,209.762,66.197,208.543z"/>
	<path fill="#FFFFFF" d="M70.117,201.68c0-0.588,0.476-1.051,1.051-1.051c0.588,0,1.064,0.463,1.064,1.051s-0.476,1.064-1.064,1.064
		C70.593,202.744,70.117,202.268,70.117,201.68z M70.285,210.238v-6.766h1.779v6.766H70.285z"/>
	<path fill="#FFFFFF" d="M73.113,206.849c0-1.919,1.345-3.544,3.572-3.544c2.241,0,3.586,1.625,3.586,3.544
		s-1.345,3.558-3.586,3.558C74.458,210.406,73.113,208.768,73.113,206.849z M78.422,206.849c0-1.051-0.617-1.961-1.737-1.961
		c-1.106,0-1.723,0.91-1.723,1.961c0,1.064,0.616,1.975,1.723,1.975C77.805,208.823,78.422,207.913,78.422,206.849z"/>
	<path fill="#FFFFFF" d="M85.883,210.238v-4.09c0-0.938-0.49-1.261-1.247-1.261c-0.7,0-1.232,0.392-1.541,0.784v4.566h-1.779v-6.766
		h1.779v0.868c0.434-0.504,1.274-1.036,2.367-1.036c1.499,0,2.213,0.84,2.213,2.157v4.776H85.883z"/>
	<path fill="#FFFFFF" d="M88.554,209.355l0.771-1.288c0.504,0.476,1.499,0.938,2.339,0.938c0.771,0,1.135-0.294,1.135-0.715
		c0-1.106-4.006-0.196-4.006-2.857c0-1.135,0.98-2.129,2.773-2.129c1.135,0,2.045,0.392,2.718,0.925l-0.714,1.26
		c-0.406-0.42-1.177-0.784-2.003-0.784c-0.644,0-1.064,0.28-1.064,0.658c0,0.995,4.02,0.154,4.02,2.886
		c0,1.247-1.064,2.157-2.941,2.157C90.403,210.406,89.269,210.014,88.554,209.355z"/>
</g>
<g>
	<g>
		<path fill="#FFFFFF" d="M593.082,182.838v-7.592h-2.731v-1.751h7.452v1.751h-2.718v7.592H593.082z"/>
		<path fill="#FFFFFF" d="M600.95,182.838v-7.592h-2.731v-1.751h7.452v1.751h-2.718v7.592H600.95z"/>
		<path fill="#FFFFFF" d="M609.937,182.838v-6.766h1.779v0.911c0.49-0.588,1.316-1.079,2.156-1.079v1.737
			c-0.126-0.028-0.279-0.042-0.49-0.042c-0.588,0-1.372,0.336-1.666,0.771v4.468H609.937z"/>
		<path fill="#FFFFFF" d="M614.262,179.448c0-1.961,1.457-3.544,3.502-3.544c2.031,0,3.39,1.513,3.39,3.712v0.42h-5.028
			c0.126,0.827,0.799,1.513,1.947,1.513c0.574,0,1.358-0.237,1.793-0.658l0.798,1.177c-0.672,0.616-1.736,0.938-2.787,0.938
			C615.816,183.006,614.262,181.619,614.262,179.448z M617.764,177.361c-1.106,0-1.583,0.771-1.652,1.443h3.333
			C619.389,178.159,618.94,177.361,617.764,177.361z"/>
		<path fill="#FFFFFF" d="M621.71,179.448c0-2.255,1.261-3.544,2.983-3.544c0.826,0,1.569,0.364,2.087,1.022v-0.854h1.793v9.343
			h-1.793v-3.445c-0.546,0.7-1.274,1.036-2.087,1.036C622.971,183.006,621.71,181.703,621.71,179.448z M626.78,180.639v-2.381
			c-0.294-0.448-0.938-0.771-1.526-0.771c-1.009,0-1.709,0.799-1.709,1.961c0,1.177,0.7,1.975,1.709,1.975
			C625.842,181.423,626.486,181.073,626.78,180.639z"/>
		<path fill="#FFFFFF" d="M634.606,182.838v-0.854c-0.462,0.504-1.274,1.022-2.381,1.022c-1.485,0-2.186-0.812-2.186-2.129v-4.805
			h1.779v4.104c0,0.939,0.49,1.247,1.246,1.247c0.687,0,1.232-0.378,1.541-0.771v-4.58h1.779v6.766H634.606z"/>
		<path fill="#FFFFFF" d="M637.698,174.279c0-0.588,0.476-1.051,1.051-1.051c0.588,0,1.064,0.462,1.064,1.051
			s-0.477,1.064-1.064,1.064C638.174,175.344,637.698,174.868,637.698,174.279z M637.866,182.838v-6.766h1.779v6.766H637.866z"/>
		<path fill="#FFFFFF" d="M641.128,182.838v-6.766h1.779v0.911c0.49-0.588,1.316-1.079,2.156-1.079v1.737
			c-0.126-0.028-0.279-0.042-0.49-0.042c-0.588,0-1.372,0.336-1.666,0.771v4.468H641.128z"/>
		<path fill="#FFFFFF" d="M645.454,179.448c0-1.961,1.456-3.544,3.502-3.544c2.031,0,3.39,1.513,3.39,3.712v0.42h-5.029
			c0.127,0.827,0.799,1.513,1.947,1.513c0.574,0,1.359-0.237,1.793-0.658l0.799,1.177c-0.673,0.616-1.737,0.938-2.788,0.938
			C647.009,183.006,645.454,181.619,645.454,179.448z M648.956,177.361c-1.106,0-1.583,0.771-1.653,1.443h3.334
			C650.581,178.159,650.133,177.361,648.956,177.361z"/>
		<path fill="#FFFFFF" d="M652.762,181.955l0.771-1.288c0.504,0.476,1.499,0.938,2.339,0.938c0.771,0,1.135-0.294,1.135-0.715
			c0-1.106-4.006-0.196-4.006-2.857c0-1.135,0.98-2.129,2.773-2.129c1.135,0,2.045,0.392,2.718,0.924l-0.715,1.261
			c-0.406-0.42-1.177-0.785-2.003-0.785c-0.645,0-1.064,0.28-1.064,0.659c0,0.995,4.02,0.154,4.02,2.885
			c0,1.247-1.064,2.157-2.941,2.157C654.61,183.006,653.476,182.613,652.762,181.955z"/>
		<path fill="#FFFFFF" d="M662.463,181.521l1.093-1.555c0.658,0.686,1.681,1.275,2.97,1.275c1.106,0,1.625-0.49,1.625-1.037
			c0-1.625-5.379-0.49-5.379-4.006c0-1.555,1.345-2.843,3.544-2.843c1.484,0,2.717,0.448,3.642,1.302l-1.106,1.485
			c-0.757-0.7-1.765-1.022-2.718-1.022c-0.84,0-1.316,0.364-1.316,0.925c0,1.471,5.365,0.476,5.365,3.964
			c0,1.708-1.233,2.998-3.74,2.998C664.634,183.006,663.346,182.403,662.463,181.521z"/>
		<path fill="#FFFFFF" d="M674.335,174.279c0-0.588,0.476-1.051,1.051-1.051c0.588,0,1.064,0.462,1.064,1.051
			s-0.477,1.064-1.064,1.064C674.811,175.344,674.335,174.868,674.335,174.279z M674.503,182.838v-6.766h1.779v6.766H674.503z"/>
		<path fill="#FFFFFF" d="M682.331,182.838v-4.09c0-0.938-0.49-1.261-1.247-1.261c-0.7,0-1.232,0.393-1.54,0.785v4.566h-1.779
			v-6.766h1.779v0.869c0.434-0.504,1.274-1.037,2.367-1.037c1.498,0,2.213,0.84,2.213,2.157v4.776H682.331z"/>
		<path fill="#FFFFFF" d="M685.955,181.143v-3.516h-1.121v-1.555h1.121v-1.849h1.778v1.849h1.373v1.555h-1.373v3.04
			c0,0.434,0.225,0.756,0.617,0.756c0.266,0,0.518-0.098,0.616-0.21l0.378,1.358c-0.267,0.238-0.742,0.435-1.484,0.435
			C686.613,183.006,685.955,182.361,685.955,181.143z"/>
		<path fill="#FFFFFF" d="M689.608,179.448c0-1.961,1.457-3.544,3.502-3.544c2.031,0,3.39,1.513,3.39,3.712v0.42h-5.028
			c0.126,0.827,0.799,1.513,1.947,1.513c0.574,0,1.358-0.237,1.793-0.658l0.798,1.177c-0.672,0.616-1.736,0.938-2.787,0.938
			C691.163,183.006,689.608,181.619,689.608,179.448z M693.11,177.361c-1.106,0-1.583,0.771-1.652,1.443h3.333
			C694.735,178.159,694.287,177.361,693.11,177.361z"/>
		<path fill="#FFFFFF" d="M697.504,182.838v-6.766h1.779v0.911c0.49-0.588,1.316-1.079,2.157-1.079v1.737
			c-0.126-0.028-0.28-0.042-0.49-0.042c-0.588,0-1.373,0.336-1.667,0.771v4.468H697.504z"/>
		<path fill="#FFFFFF" d="M704.015,182.838l-2.717-6.766h1.904l1.766,4.706l1.778-4.706h1.905l-2.718,6.766H704.015z"/>
		<path fill="#FFFFFF" d="M708.731,179.448c0-1.961,1.456-3.544,3.502-3.544c2.031,0,3.39,1.513,3.39,3.712v0.42h-5.029
			c0.127,0.827,0.799,1.513,1.947,1.513c0.574,0,1.359-0.237,1.793-0.658l0.799,1.177c-0.673,0.616-1.737,0.938-2.788,0.938
			C710.286,183.006,708.731,181.619,708.731,179.448z M712.233,177.361c-1.106,0-1.583,0.771-1.653,1.443h3.334
			C713.858,178.159,713.41,177.361,712.233,177.361z"/>
		<path fill="#FFFFFF" d="M721.193,182.838v-4.09c0-0.938-0.49-1.261-1.246-1.261c-0.7,0-1.232,0.393-1.541,0.785v4.566h-1.779
			v-6.766h1.779v0.869c0.435-0.504,1.274-1.037,2.367-1.037c1.499,0,2.213,0.84,2.213,2.157v4.776H721.193z"/>
		<path fill="#FFFFFF" d="M724.817,181.143v-3.516h-1.121v-1.555h1.121v-1.849h1.778v1.849h1.373v1.555h-1.373v3.04
			c0,0.434,0.225,0.756,0.617,0.756c0.266,0,0.518-0.098,0.616-0.21l0.378,1.358c-0.267,0.238-0.742,0.435-1.484,0.435
			C725.476,183.006,724.817,182.361,724.817,181.143z"/>
		<path fill="#FFFFFF" d="M728.737,174.279c0-0.588,0.476-1.051,1.051-1.051c0.588,0,1.064,0.462,1.064,1.051
			s-0.477,1.064-1.064,1.064C729.213,175.344,728.737,174.868,728.737,174.279z M728.905,182.838v-6.766h1.779v6.766H728.905z"/>
		<path fill="#FFFFFF" d="M731.732,179.448c0-1.919,1.345-3.544,3.572-3.544c2.241,0,3.586,1.625,3.586,3.544
			c0,1.919-1.345,3.558-3.586,3.558C733.077,183.006,731.732,181.367,731.732,179.448z M737.042,179.448
			c0-1.051-0.617-1.961-1.737-1.961c-1.106,0-1.723,0.911-1.723,1.961c0,1.064,0.616,1.975,1.723,1.975
			C736.425,181.423,737.042,180.513,737.042,179.448z"/>
		<path fill="#FFFFFF" d="M744.503,182.838v-4.09c0-0.938-0.49-1.261-1.246-1.261c-0.7,0-1.232,0.393-1.541,0.785v4.566h-1.779
			v-6.766h1.779v0.869c0.435-0.504,1.274-1.037,2.367-1.037c1.499,0,2.213,0.84,2.213,2.157v4.776H744.503z"/>
	</g>
</g>
<rect x="768" fill="#181716" stroke="#FFFFFF" stroke-width="2" stroke-miterlimit="10" width="192" height="137"/>
<g>
	<path fill="#FFFFFF" d="M815.042,36.362c0-8.239,6.238-13.798,14.438-13.798c6.438,0,9.918,3.639,11.638,7.119l-5.919,2.839
		c-0.88-2.12-3.159-3.879-5.719-3.879c-4.359,0-7.439,3.32-7.439,7.719c0,4.358,3.08,7.719,7.439,7.719
		c2.56,0,4.839-1.76,5.719-3.88l5.919,2.8c-1.72,3.399-5.199,7.158-11.638,7.158C821.28,50.159,815.042,44.561,815.042,36.362z"/>
	<path fill="#FFFFFF" d="M841.922,36.362c0-8.119,6.118-13.798,14.277-13.798c8.158,0,14.237,5.679,14.237,13.798
		c0,8.118-6.079,13.797-14.237,13.797C848.04,50.159,841.922,44.48,841.922,36.362z M863.438,36.362
		c0-4.359-2.839-7.719-7.238-7.719s-7.279,3.36-7.279,7.719c0,4.319,2.88,7.719,7.279,7.719S863.438,40.682,863.438,36.362z"/>
	<path fill="#009DE2" d="M814.47,86.884c0-3.709,2.809-6.212,6.5-6.212c2.899,0,4.466,1.639,5.239,3.205l-2.664,1.278
		c-0.396-0.954-1.423-1.746-2.575-1.746c-1.963,0-3.349,1.494-3.349,3.475c0,1.963,1.386,3.476,3.349,3.476
		c1.152,0,2.179-0.793,2.575-1.747l2.664,1.261c-0.773,1.53-2.34,3.223-5.239,3.223C817.278,93.096,814.47,90.575,814.47,86.884z"/>
	<path fill="#009DE2" d="M826.548,88.522c0-2.448,1.765-4.556,4.717-4.556c2.989,0,4.754,2.107,4.754,4.556
		c0,2.449-1.765,4.573-4.754,4.573C828.312,93.096,826.548,90.972,826.548,88.522z M833.174,88.522c0-1.152-0.685-2.106-1.909-2.106
		c-1.188,0-1.872,0.954-1.872,2.106c0,1.171,0.684,2.125,1.872,2.125C832.489,90.647,833.174,89.693,833.174,88.522z"/>
	<path fill="#009DE2" d="M837.113,92.88v-8.696h2.772v1.062c0.576-0.703,1.692-1.297,2.719-1.297v2.665
		c-0.162-0.055-0.396-0.072-0.684-0.072c-0.721,0-1.675,0.306-2.035,0.792v5.546H837.113z"/>
	<path fill="#009DE2" d="M849.391,92.88v-5.023c0-1.062-0.558-1.44-1.422-1.44c-0.828,0-1.368,0.45-1.692,0.846v5.618h-2.773v-8.696
		h2.773v1.062c0.521-0.612,1.548-1.279,3.024-1.279c1.963,0,2.863,1.152,2.863,2.755v6.158H849.391z"/>
	<path fill="#009DE2" d="M853.259,88.522c0-2.521,1.891-4.556,4.609-4.556c2.575,0,4.447,1.891,4.447,4.844v0.63h-6.193
		c0.198,0.774,0.918,1.423,2.179,1.423c0.612,0,1.62-0.271,2.124-0.738l1.207,1.818c-0.864,0.774-2.305,1.152-3.638,1.152
		C855.312,93.096,853.259,91.35,853.259,88.522z M857.868,86.2c-1.206,0-1.674,0.72-1.782,1.351h3.583
		C859.597,86.938,859.146,86.2,857.868,86.2z"/>
	<path fill="#009DE2" d="M868.452,92.88v-0.864c-0.54,0.648-1.584,1.08-2.7,1.08c-1.333,0-2.989-0.918-2.989-2.862
		c0-2.106,1.656-2.81,2.989-2.81c1.152,0,2.179,0.379,2.7,1.026v-0.864c0-0.756-0.647-1.278-1.764-1.278
		c-0.864,0-1.729,0.343-2.431,0.937l-1.026-1.927c1.116-0.954,2.61-1.351,3.942-1.351c2.089,0,4.052,0.774,4.052,3.476v5.438
		H868.452z M868.452,90.647v-0.774c-0.288-0.414-0.936-0.612-1.548-0.612c-0.721,0-1.387,0.324-1.387,1.009
		c0,0.684,0.666,1.008,1.387,1.008C867.517,91.277,868.164,91.062,868.452,90.647z"/>
	<path fill="#009DE2" d="M872.879,92.88V80.87h2.772v12.01H872.879z"/>
	<path fill="#009DE2" d="M814.47,108.483c0-3.655,2.755-6.212,6.428-6.212c3.674,0,6.41,2.557,6.41,6.212s-2.736,6.212-6.41,6.212
		C817.225,114.695,814.47,112.139,814.47,108.483z M824.157,108.483c0-1.962-1.279-3.475-3.26-3.475s-3.276,1.513-3.276,3.475
		c0,1.945,1.296,3.476,3.276,3.476S824.157,110.429,824.157,108.483z"/>
	<path fill="#009DE2" d="M831.211,113.453v4.34h-2.772v-12.01h2.772v1.008c0.685-0.828,1.585-1.225,2.575-1.225
		c2.179,0,3.816,1.621,3.816,4.556c0,2.953-1.638,4.573-3.816,4.573C832.813,114.695,831.932,114.317,831.211,113.453z
		 M834.776,110.122c0-1.296-0.828-2.106-1.909-2.106c-0.594,0-1.314,0.324-1.656,0.792v2.647c0.342,0.449,1.062,0.792,1.656,0.792
		C833.948,112.247,834.776,111.437,834.776,110.122z"/>
	<path fill="#009DE2" d="M843.811,114.479v-0.864c-0.54,0.648-1.584,1.08-2.7,1.08c-1.333,0-2.989-0.918-2.989-2.862
		c0-2.106,1.656-2.81,2.989-2.81c1.152,0,2.179,0.379,2.7,1.026v-0.864c0-0.756-0.647-1.278-1.764-1.278
		c-0.864,0-1.729,0.343-2.431,0.937l-1.026-1.927c1.116-0.954,2.61-1.351,3.942-1.351c2.089,0,4.052,0.774,4.052,3.476v5.438
		H843.811z M843.811,112.247v-0.774c-0.288-0.414-0.936-0.612-1.548-0.612c-0.721,0-1.387,0.324-1.387,1.009
		c0,0.684,0.666,1.008,1.387,1.008C842.875,112.877,843.522,112.661,843.811,112.247z"/>
	<path fill="#009DE2" d="M847.68,110.122c0-2.719,2.017-4.556,4.735-4.556c1.891,0,3.043,0.829,3.564,1.603l-1.8,1.675
		c-0.343-0.504-0.9-0.828-1.639-0.828c-1.152,0-2.035,0.792-2.035,2.106s0.883,2.125,2.035,2.125c0.738,0,1.296-0.36,1.639-0.847
		l1.8,1.692c-0.521,0.757-1.674,1.603-3.564,1.603C849.696,114.695,847.68,112.841,847.68,110.122z"/>
	<path fill="#009DE2" d="M856.68,103.406c0-0.883,0.702-1.585,1.584-1.585c0.883,0,1.603,0.702,1.603,1.585
		c0,0.882-0.72,1.603-1.603,1.603C857.382,105.009,856.68,104.288,856.68,103.406z M856.878,114.479v-8.696h2.772v8.696H856.878z"/>
	<path fill="#009DE2" d="M861.882,112.139v-3.961h-1.44v-2.395h1.44v-2.377h2.773v2.377h1.765v2.395h-1.765v3.187
		c0,0.505,0.288,0.883,0.756,0.883c0.306,0,0.612-0.108,0.702-0.216l0.54,2.088c-0.342,0.324-1.026,0.576-2.053,0.576
		C862.836,114.695,861.882,113.813,861.882,112.139z"/>
	<path fill="#009DE2" d="M867.642,115.397c0.197,0.108,0.468,0.162,0.684,0.162c0.63,0,1.026-0.126,1.188-0.486l0.198-0.468
		l-3.476-8.822h2.917l1.98,5.51l1.963-5.51h2.935l-3.925,9.938c-0.702,1.837-1.999,2.251-3.673,2.287
		c-0.252,0-0.9-0.055-1.188-0.145L867.642,115.397z"/>
</g>
<polygon fill="#2C2136" stroke="#FFFFFF" stroke-width="2" stroke-miterlimit="10" points="795.491,65.5 768,38.009 768,0 576,0 
	576,137 768,137 768,92.991 "/>
<polygon fill="#3C2A4F" stroke="#FFFFFF" stroke-width="2" stroke-miterlimit="10" points="603.491,65.5 576,38.009 576,0 384,0 
	384,137 576,137 576,92.991 "/>
<g>
	<path fill="#FFFFFF" d="M630.36,49.68V29.003h-7.479v-5.999h21.796v5.999h-7.438V49.68H630.36z"/>
	<path fill="#FFFFFF" d="M653.12,49.68V29.003h-7.479v-5.999h21.796v5.999h-7.438V49.68H653.12z"/>
	<path fill="#FFFFFF" d="M625.765,92.88v-9.309h-3.367V80.87h9.813v2.701h-3.35v9.309H625.765z"/>
	<path fill="#FFFFFF" d="M633.252,92.88v-8.696h2.772v1.062c0.576-0.703,1.692-1.297,2.719-1.297v2.665
		c-0.162-0.055-0.396-0.072-0.684-0.072c-0.721,0-1.675,0.306-2.035,0.792v5.546H633.252z"/>
	<path fill="#FFFFFF" d="M644.772,92.88v-0.864c-0.54,0.648-1.584,1.08-2.7,1.08c-1.333,0-2.989-0.918-2.989-2.862
		c0-2.106,1.656-2.81,2.989-2.81c1.152,0,2.179,0.379,2.7,1.026v-0.864c0-0.756-0.647-1.278-1.764-1.278
		c-0.864,0-1.729,0.343-2.431,0.937l-1.026-1.927c1.116-0.954,2.61-1.351,3.942-1.351c2.089,0,4.052,0.774,4.052,3.476v5.438
		H644.772z M644.772,90.647v-0.774c-0.288-0.414-0.936-0.612-1.548-0.612c-0.721,0-1.387,0.324-1.387,1.009
		c0,0.684,0.666,1.008,1.387,1.008C643.837,91.277,644.484,91.062,644.772,90.647z"/>
	<path fill="#FFFFFF" d="M648.642,88.522c0-2.719,2.017-4.556,4.735-4.556c1.891,0,3.043,0.829,3.564,1.603l-1.8,1.675
		c-0.343-0.504-0.9-0.828-1.639-0.828c-1.152,0-2.035,0.792-2.035,2.106s0.883,2.125,2.035,2.125c0.738,0,1.296-0.36,1.639-0.847
		l1.8,1.692c-0.521,0.757-1.674,1.603-3.564,1.603C650.658,93.096,648.642,91.241,648.642,88.522z"/>
	<path fill="#FFFFFF" d="M663.745,92.88v-5.06c0-1.062-0.558-1.404-1.44-1.404c-0.81,0-1.351,0.45-1.674,0.846v5.618h-2.773V80.87
		h2.773v4.376c0.521-0.612,1.548-1.279,3.007-1.279c1.98,0,2.881,1.117,2.881,2.719v6.194H663.745z"/>
	<path fill="#FFFFFF" d="M667.613,88.522c0-2.448,1.765-4.556,4.718-4.556c2.988,0,4.753,2.107,4.753,4.556
		c0,2.449-1.765,4.573-4.753,4.573C669.378,93.096,667.613,90.972,667.613,88.522z M674.239,88.522c0-1.152-0.684-2.106-1.908-2.106
		c-1.188,0-1.873,0.954-1.873,2.106c0,1.171,0.685,2.125,1.873,2.125C673.556,90.647,674.239,89.693,674.239,88.522z"/>
	<path fill="#FFFFFF" d="M689.145,92.88v-5.294c0-0.666-0.324-1.17-1.152-1.17c-0.757,0-1.297,0.486-1.566,0.846v5.618h-2.773
		v-5.294c0-0.666-0.306-1.17-1.134-1.17c-0.757,0-1.278,0.486-1.566,0.846v5.618h-2.773v-8.696h2.773v1.062
		c0.378-0.505,1.494-1.279,2.862-1.279c1.261,0,2.106,0.522,2.467,1.549c0.504-0.756,1.639-1.549,3.007-1.549
		c1.603,0,2.611,0.829,2.611,2.611v6.302H689.145z"/>
	<path fill="#FFFFFF" d="M698.7,92.88v-0.864c-0.54,0.648-1.584,1.08-2.7,1.08c-1.333,0-2.989-0.918-2.989-2.862
		c0-2.106,1.656-2.81,2.989-2.81c1.152,0,2.179,0.379,2.7,1.026v-0.864c0-0.756-0.647-1.278-1.764-1.278
		c-0.864,0-1.729,0.343-2.431,0.937l-1.026-1.927c1.116-0.954,2.61-1.351,3.942-1.351c2.089,0,4.052,0.774,4.052,3.476v5.438H698.7z
		 M698.7,90.647v-0.774c-0.288-0.414-0.936-0.612-1.548-0.612c-0.721,0-1.387,0.324-1.387,1.009c0,0.684,0.666,1.008,1.387,1.008
		C697.765,91.277,698.412,91.062,698.7,90.647z"/>
	<path fill="#FFFFFF" d="M703.703,90.539v-3.961h-1.44v-2.395h1.44v-2.377h2.773v2.377h1.765v2.395h-1.765v3.187
		c0,0.505,0.288,0.883,0.756,0.883c0.306,0,0.612-0.108,0.702-0.216l0.54,2.088c-0.342,0.324-1.026,0.576-2.053,0.576
		C704.657,93.096,703.703,92.214,703.703,90.539z"/>
	<path fill="#FFFFFF" d="M708.688,88.522c0-2.448,1.765-4.556,4.717-4.556c2.989,0,4.754,2.107,4.754,4.556
		c0,2.449-1.765,4.573-4.754,4.573C710.453,93.096,708.688,90.972,708.688,88.522z M715.314,88.522c0-1.152-0.685-2.106-1.909-2.106
		c-1.188,0-1.872,0.954-1.872,2.106c0,1.171,0.684,2.125,1.872,2.125C714.63,90.647,715.314,89.693,715.314,88.522z"/>
	<path fill="#FFFFFF" d="M725.124,92.88v-1.044c-0.54,0.611-1.53,1.26-3.007,1.26c-1.963,0-2.863-1.134-2.863-2.719v-6.193h2.773
		v5.041c0,1.062,0.54,1.423,1.44,1.423c0.792,0,1.332-0.433,1.656-0.847v-5.617h2.772v8.696H725.124z"/>
	<path fill="#FFFFFF" d="M728.812,91.745l1.152-1.98c0.648,0.576,2.035,1.171,3.062,1.171c0.828,0,1.17-0.234,1.17-0.612
		c0-1.08-5.06,0.036-5.06-3.493c0-1.53,1.333-2.863,3.728-2.863c1.477,0,2.7,0.469,3.637,1.152l-1.062,1.963
		c-0.521-0.504-1.512-0.954-2.557-0.954c-0.648,0-1.08,0.252-1.08,0.594c0,0.955,5.041-0.036,5.041,3.529
		c0,1.656-1.458,2.845-3.942,2.845C731.333,93.096,729.73,92.574,728.812,91.745z"/>
	<path fill="#009DE2" d="M625.765,114.479v-9.309h-3.367v-2.701h9.813v2.701h-3.35v9.309H625.765z"/>
	<path fill="#009DE2" d="M633.252,114.479v-8.696h2.772v1.062c0.576-0.703,1.692-1.297,2.719-1.297v2.665
		c-0.162-0.055-0.396-0.072-0.684-0.072c-0.721,0-1.675,0.306-2.035,0.792v5.546H633.252z"/>
	<path fill="#009DE2" d="M639.443,103.406c0-0.883,0.702-1.585,1.584-1.585c0.883,0,1.603,0.702,1.603,1.585
		c0,0.882-0.72,1.603-1.603,1.603C640.146,105.009,639.443,104.288,639.443,103.406z M639.642,114.479v-8.696h2.772v8.696H639.642z"
		/>
	<path fill="#009DE2" d="M643.512,110.122c0-2.719,2.017-4.556,4.735-4.556c1.891,0,3.043,0.829,3.564,1.603l-1.8,1.675
		c-0.343-0.504-0.9-0.828-1.639-0.828c-1.152,0-2.035,0.792-2.035,2.106s0.883,2.125,2.035,2.125c0.738,0,1.296-0.36,1.639-0.847
		l1.8,1.692c-0.521,0.757-1.674,1.603-3.564,1.603C645.528,114.695,643.512,112.841,643.512,110.122z"/>
	<path fill="#009DE2" d="M658.615,114.479v-5.06c0-1.062-0.558-1.404-1.44-1.404c-0.81,0-1.351,0.45-1.674,0.846v5.618h-2.773
		v-12.01h2.773v4.376c0.521-0.612,1.548-1.279,3.007-1.279c1.98,0,2.881,1.117,2.881,2.719v6.194H658.615z"/>
	<path fill="#009DE2" d="M662.844,103.406c0-0.883,0.702-1.585,1.584-1.585c0.883,0,1.603,0.702,1.603,1.585
		c0,0.882-0.72,1.603-1.603,1.603C663.546,105.009,662.844,104.288,662.844,103.406z M663.042,114.479v-8.696h2.772v8.696H663.042z"
		/>
	<path fill="#009DE2" d="M672.601,114.479v-0.864c-0.54,0.648-1.585,1.08-2.701,1.08c-1.332,0-2.988-0.918-2.988-2.862
		c0-2.106,1.656-2.81,2.988-2.81c1.152,0,2.179,0.379,2.701,1.026v-0.864c0-0.756-0.648-1.278-1.765-1.278
		c-0.864,0-1.729,0.343-2.431,0.937l-1.026-1.927c1.116-0.954,2.611-1.351,3.943-1.351c2.089,0,4.051,0.774,4.051,3.476v5.438
		H672.601z M672.601,112.247v-0.774c-0.288-0.414-0.937-0.612-1.549-0.612c-0.72,0-1.386,0.324-1.386,1.009
		c0,0.684,0.666,1.008,1.386,1.008C671.664,112.877,672.312,112.661,672.601,112.247z"/>
	<path fill="#009DE2" d="M676.289,113.345l1.152-1.98c0.648,0.576,2.034,1.171,3.061,1.171c0.828,0,1.171-0.234,1.171-0.612
		c0-1.08-5.06,0.036-5.06-3.493c0-1.53,1.332-2.863,3.727-2.863c1.477,0,2.701,0.469,3.638,1.152l-1.062,1.963
		c-0.522-0.504-1.513-0.954-2.557-0.954c-0.648,0-1.081,0.252-1.081,0.594c0,0.955,5.042-0.036,5.042,3.529
		c0,1.656-1.458,2.845-3.943,2.845C678.81,114.695,677.207,114.174,676.289,113.345z"/>
	<path fill="#009DE2" d="M685.181,103.406c0-0.883,0.703-1.585,1.585-1.585s1.603,0.702,1.603,1.585
		c0,0.882-0.721,1.603-1.603,1.603S685.181,104.288,685.181,103.406z M685.379,114.479v-8.696h2.773v8.696H685.379z"/>
	<path fill="#009DE2" d="M689.068,113.345l1.152-1.98c0.648,0.576,2.035,1.171,3.062,1.171c0.828,0,1.17-0.234,1.17-0.612
		c0-1.08-5.06,0.036-5.06-3.493c0-1.53,1.333-2.863,3.728-2.863c1.477,0,2.7,0.469,3.637,1.152l-1.062,1.963
		c-0.521-0.504-1.512-0.954-2.557-0.954c-0.648,0-1.08,0.252-1.08,0.594c0,0.955,5.041-0.036,5.041,3.529
		c0,1.656-1.458,2.845-3.942,2.845C691.59,114.695,689.987,114.174,689.068,113.345z"/>
</g>
<polygon fill="#563779" stroke="#FFFFFF" stroke-width="2" stroke-miterlimit="10" points="411.491,65.5 384,38.009 384,0 192,0 
	192,137 384,137 384,92.991 "/>
<polygon fill="#653F91" stroke="#FFFFFF" stroke-width="2" stroke-miterlimit="10" points="219.491,65.5 192,38.009 192,0 0,0 
	0,137 192,137 192,92.991 "/>
<g>
	<path fill="#FFFFFF" d="M44.359,49.68V29.003h-7.479v-5.999h21.796v5.999h-7.439V49.68H44.359z"/>
	<path fill="#FFFFFF" d="M61.16,49.68V23.004h19.557v5.999H68.039v4.159h12.398v5.999H68.039V49.68H61.16z"/>
	<path fill="#FFFFFF" d="M39.764,71.279v-9.309h-3.367V59.27h9.813v2.701h-3.349v9.309H39.764z"/>
	<path fill="#FFFFFF" d="M47.251,71.279v-8.696h2.773v1.062c0.576-0.702,1.692-1.296,2.719-1.296v2.665
		c-0.162-0.055-0.396-0.072-0.684-0.072c-0.72,0-1.675,0.306-2.035,0.792v5.546H47.251z"/>
	<path fill="#FFFFFF" d="M58.772,71.279v-0.864c-0.54,0.648-1.584,1.08-2.701,1.08c-1.333,0-2.989-0.918-2.989-2.862
		c0-2.107,1.656-2.81,2.989-2.81c1.152,0,2.179,0.379,2.701,1.026v-0.864c0-0.756-0.648-1.278-1.764-1.278
		c-0.864,0-1.729,0.343-2.431,0.937l-1.026-1.927c1.116-0.954,2.61-1.351,3.943-1.351c2.089,0,4.051,0.774,4.051,3.476v5.438H58.772
		z M58.772,69.047v-0.774c-0.288-0.414-0.936-0.612-1.548-0.612c-0.72,0-1.386,0.324-1.386,1.009c0,0.684,0.666,1.008,1.386,1.008
		C57.836,69.677,58.484,69.461,58.772,69.047z"/>
	<path fill="#FFFFFF" d="M62.641,66.922c0-2.719,2.017-4.556,4.735-4.556c1.891,0,3.043,0.829,3.565,1.603l-1.8,1.675
		c-0.342-0.504-0.9-0.828-1.639-0.828c-1.152,0-2.035,0.792-2.035,2.106s0.882,2.125,2.035,2.125c0.738,0,1.296-0.36,1.639-0.847
		l1.8,1.692c-0.522,0.757-1.674,1.603-3.565,1.603C64.657,71.495,62.641,69.641,62.641,66.922z"/>
	<path fill="#FFFFFF" d="M77.745,71.279v-5.06c0-1.062-0.558-1.404-1.44-1.404c-0.81,0-1.351,0.45-1.674,0.847v5.617h-2.773V59.27
		h2.773v4.375c0.522-0.611,1.548-1.278,3.007-1.278c1.98,0,2.881,1.117,2.881,2.72v6.193H77.745z"/>
	<path fill="#FFFFFF" d="M81.613,66.922c0-2.448,1.765-4.556,4.717-4.556c2.989,0,4.753,2.107,4.753,4.556
		c0,2.449-1.765,4.573-4.753,4.573C83.377,71.495,81.613,69.371,81.613,66.922z M88.239,66.922c0-1.152-0.684-2.106-1.909-2.106
		c-1.188,0-1.873,0.954-1.873,2.106c0,1.171,0.684,2.125,1.873,2.125C87.555,69.047,88.239,68.093,88.239,66.922z"/>
	<path fill="#FFFFFF" d="M103.144,71.279v-5.294c0-0.666-0.324-1.17-1.152-1.17c-0.756,0-1.296,0.486-1.566,0.847v5.617h-2.773
		v-5.294c0-0.666-0.306-1.17-1.134-1.17c-0.756,0-1.278,0.486-1.566,0.847v5.617h-2.773v-8.696h2.773v1.062
		c0.378-0.504,1.494-1.278,2.863-1.278c1.26,0,2.106,0.522,2.467,1.549c0.504-0.756,1.638-1.549,3.007-1.549
		c1.603,0,2.611,0.829,2.611,2.611v6.302H103.144z"/>
	<path fill="#FFFFFF" d="M112.7,71.279v-0.864c-0.54,0.648-1.584,1.08-2.701,1.08c-1.333,0-2.989-0.918-2.989-2.862
		c0-2.107,1.656-2.81,2.989-2.81c1.152,0,2.179,0.379,2.701,1.026v-0.864c0-0.756-0.648-1.278-1.764-1.278
		c-0.864,0-1.729,0.343-2.431,0.937l-1.026-1.927c1.116-0.954,2.61-1.351,3.943-1.351c2.089,0,4.051,0.774,4.051,3.476v5.438H112.7z
		 M112.7,69.047v-0.774c-0.288-0.414-0.936-0.612-1.548-0.612c-0.72,0-1.386,0.324-1.386,1.009c0,0.684,0.666,1.008,1.386,1.008
		C111.764,69.677,112.412,69.461,112.7,69.047z"/>
	<path fill="#FFFFFF" d="M117.703,68.938v-3.961h-1.44v-2.395h1.44v-2.377h2.773v2.377h1.765v2.395h-1.765v3.187
		c0,0.505,0.288,0.883,0.756,0.883c0.306,0,0.612-0.108,0.703-0.217l0.54,2.089c-0.342,0.324-1.026,0.576-2.053,0.576
		C118.657,71.495,117.703,70.613,117.703,68.938z"/>
	<path fill="#FFFFFF" d="M122.688,66.922c0-2.448,1.765-4.556,4.717-4.556c2.989,0,4.753,2.107,4.753,4.556
		c0,2.449-1.765,4.573-4.753,4.573C124.452,71.495,122.688,69.371,122.688,66.922z M129.313,66.922c0-1.152-0.684-2.106-1.909-2.106
		c-1.188,0-1.873,0.954-1.873,2.106c0,1.171,0.684,2.125,1.873,2.125C128.629,69.047,129.313,68.093,129.313,66.922z"/>
	<path fill="#FFFFFF" d="M139.123,71.279v-1.044c-0.54,0.612-1.53,1.26-3.007,1.26c-1.962,0-2.863-1.134-2.863-2.719v-6.193h2.773
		v5.041c0,1.062,0.54,1.423,1.44,1.423c0.792,0,1.332-0.433,1.656-0.847v-5.617h2.773v8.696H139.123z"/>
	<path fill="#FFFFFF" d="M142.811,70.145l1.152-1.98c0.648,0.576,2.035,1.171,3.061,1.171c0.828,0,1.17-0.234,1.17-0.612
		c0-1.08-5.06,0.036-5.06-3.493c0-1.53,1.333-2.863,3.727-2.863c1.477,0,2.701,0.469,3.637,1.152l-1.062,1.963
		c-0.522-0.504-1.512-0.954-2.557-0.954c-0.648,0-1.081,0.252-1.081,0.594c0,0.955,5.042-0.035,5.042,3.529
		c0,1.656-1.458,2.845-3.943,2.845C145.332,71.495,143.729,70.974,142.811,70.145z"/>
	<path fill="#FFFFFF" d="M37.081,92.88V80.87h3.097v12.01H37.081z"/>
	<path fill="#FFFFFF" d="M47.793,92.88v-5.023c0-1.062-0.558-1.44-1.422-1.44c-0.828,0-1.369,0.45-1.692,0.846v5.618h-2.773v-8.696
		h2.773v1.062c0.522-0.612,1.548-1.279,3.025-1.279c1.962,0,2.863,1.152,2.863,2.755v6.158H47.793z"/>
	<path fill="#FFFFFF" d="M52.813,92.88v-6.302h-1.44v-2.395h1.44v-0.198c0-2.161,1.386-3.295,3.115-3.295
		c0.756,0,1.404,0.107,1.854,0.342l-0.54,2.07c-0.162-0.126-0.432-0.18-0.738-0.18c-0.504,0-0.918,0.342-0.918,1.062v0.198h1.764
		v2.395h-1.764v6.302H52.813z M58.502,92.88V80.87h2.773v12.01H58.502z"/>
	<path fill="#FFFFFF" d="M68.06,92.88v-0.864c-0.54,0.648-1.584,1.08-2.701,1.08c-1.333,0-2.989-0.918-2.989-2.862
		c0-2.106,1.656-2.81,2.989-2.81c1.152,0,2.179,0.379,2.701,1.026v-0.864c0-0.756-0.648-1.278-1.764-1.278
		c-0.864,0-1.729,0.343-2.431,0.937l-1.026-1.927c1.116-0.954,2.61-1.351,3.943-1.351c2.089,0,4.051,0.774,4.051,3.476v5.438H68.06z
		 M68.06,90.647v-0.774c-0.288-0.414-0.936-0.612-1.548-0.612c-0.72,0-1.386,0.324-1.386,1.009c0,0.684,0.666,1.008,1.386,1.008
		C67.124,91.277,67.772,91.062,68.06,90.647z"/>
	<path fill="#FFFFFF" d="M83.452,92.88v-5.294c0-0.666-0.324-1.17-1.152-1.17c-0.756,0-1.296,0.486-1.566,0.846v5.618H77.96v-5.294
		c0-0.666-0.306-1.17-1.134-1.17c-0.756,0-1.278,0.486-1.566,0.846v5.618h-2.773v-8.696h2.773v1.062
		c0.378-0.505,1.494-1.279,2.863-1.279c1.26,0,2.106,0.522,2.467,1.549c0.504-0.756,1.638-1.549,3.007-1.549
		c1.603,0,2.611,0.829,2.611,2.611v6.302H83.452z"/>
	<path fill="#FFFFFF" d="M98.842,92.88v-5.294c0-0.666-0.324-1.17-1.152-1.17c-0.756,0-1.296,0.486-1.566,0.846v5.618h-2.773v-5.294
		c0-0.666-0.306-1.17-1.134-1.17c-0.756,0-1.278,0.486-1.566,0.846v5.618h-2.773v-8.696h2.773v1.062
		c0.378-0.505,1.494-1.279,2.863-1.279c1.26,0,2.106,0.522,2.467,1.549c0.504-0.756,1.638-1.549,3.007-1.549
		c1.603,0,2.611,0.829,2.611,2.611v6.302H98.842z"/>
	<path fill="#FFFFFF" d="M108.398,92.88v-0.864c-0.54,0.648-1.584,1.08-2.701,1.08c-1.333,0-2.989-0.918-2.989-2.862
		c0-2.106,1.656-2.81,2.989-2.81c1.152,0,2.179,0.379,2.701,1.026v-0.864c0-0.756-0.648-1.278-1.764-1.278
		c-0.864,0-1.729,0.343-2.431,0.937l-1.026-1.927c1.116-0.954,2.61-1.351,3.943-1.351c2.089,0,4.051,0.774,4.051,3.476v5.438
		H108.398z M108.398,90.647v-0.774c-0.288-0.414-0.936-0.612-1.548-0.612c-0.72,0-1.386,0.324-1.386,1.009
		c0,0.684,0.666,1.008,1.386,1.008C107.462,91.277,108.11,91.062,108.398,90.647z"/>
	<path fill="#FFFFFF" d="M113.401,90.539v-3.961h-1.44v-2.395h1.44v-2.377h2.773v2.377h1.765v2.395h-1.765v3.187
		c0,0.505,0.288,0.883,0.756,0.883c0.306,0,0.612-0.108,0.703-0.216l0.54,2.088c-0.342,0.324-1.026,0.576-2.053,0.576
		C114.355,93.096,113.401,92.214,113.401,90.539z"/>
	<path fill="#FFFFFF" d="M118.747,81.807c0-0.883,0.703-1.585,1.584-1.585c0.882,0,1.603,0.702,1.603,1.585
		c0,0.882-0.72,1.603-1.603,1.603C119.449,83.409,118.747,82.688,118.747,81.807z M118.945,92.88v-8.696h2.773v8.696H118.945z"/>
	<path fill="#FFFFFF" d="M122.814,88.522c0-2.448,1.765-4.556,4.717-4.556c2.989,0,4.753,2.107,4.753,4.556
		c0,2.449-1.765,4.573-4.753,4.573C124.579,93.096,122.814,90.972,122.814,88.522z M129.44,88.522c0-1.152-0.684-2.106-1.909-2.106
		c-1.188,0-1.873,0.954-1.873,2.106c0,1.171,0.684,2.125,1.873,2.125C128.756,90.647,129.44,89.693,129.44,88.522z"/>
	<path fill="#FFFFFF" d="M139.268,92.88v-5.023c0-1.062-0.558-1.44-1.422-1.44c-0.828,0-1.368,0.45-1.692,0.846v5.618h-2.773v-8.696
		h2.773v1.062c0.522-0.612,1.548-1.279,3.025-1.279c1.962,0,2.863,1.152,2.863,2.755v6.158H139.268z"/>
	<path fill="#009DE2" d="M37.081,114.479v-12.01h8.805v2.701h-5.708v1.872h5.582v2.701h-5.582v4.735H37.081z"/>
	<path fill="#009DE2" d="M46.567,110.122c0-2.448,1.765-4.556,4.717-4.556c2.989,0,4.753,2.107,4.753,4.556
		c0,2.449-1.765,4.573-4.753,4.573C48.332,114.695,46.567,112.571,46.567,110.122z M53.193,110.122c0-1.152-0.684-2.106-1.909-2.106
		c-1.188,0-1.873,0.954-1.873,2.106c0,1.171,0.684,2.125,1.873,2.125C52.509,112.247,53.193,111.293,53.193,110.122z"/>
	<path fill="#009DE2" d="M57.132,114.479v-12.01h2.773v12.01H57.132z"/>
	<path fill="#009DE2" d="M61.56,114.479v-12.01h2.773v12.01H61.56z"/>
	<path fill="#009DE2" d="M65.79,103.406c0-0.883,0.702-1.585,1.584-1.585s1.603,0.702,1.603,1.585c0,0.882-0.72,1.603-1.603,1.603
		S65.79,104.288,65.79,103.406z M65.988,114.479v-8.696h2.773v8.696H65.988z"/>
	<path fill="#009DE2" d="M69.858,110.122c0-2.719,2.017-4.556,4.735-4.556c1.891,0,3.043,0.829,3.565,1.603l-1.8,1.675
		c-0.342-0.504-0.9-0.828-1.639-0.828c-1.152,0-2.035,0.792-2.035,2.106s0.882,2.125,2.035,2.125c0.738,0,1.296-0.36,1.639-0.847
		l1.8,1.692c-0.522,0.757-1.674,1.603-3.565,1.603C71.875,114.695,69.858,112.841,69.858,110.122z"/>
	<path fill="#009DE2" d="M84.926,114.479v-1.044c-0.54,0.611-1.53,1.26-3.007,1.26c-1.962,0-2.863-1.134-2.863-2.719v-6.193h2.773
		v5.041c0,1.062,0.54,1.423,1.44,1.423c0.792,0,1.332-0.433,1.656-0.847v-5.617h2.773v8.696H84.926z"/>
	<path fill="#009DE2" d="M89.352,114.479v-12.01h2.773v12.01H89.352z"/>
	<path fill="#009DE2" d="M98.911,114.479v-0.864c-0.54,0.648-1.584,1.08-2.701,1.08c-1.333,0-2.989-0.918-2.989-2.862
		c0-2.106,1.656-2.81,2.989-2.81c1.152,0,2.179,0.379,2.701,1.026v-0.864c0-0.756-0.648-1.278-1.764-1.278
		c-0.864,0-1.729,0.343-2.431,0.937l-1.026-1.927c1.116-0.954,2.611-1.351,3.943-1.351c2.089,0,4.051,0.774,4.051,3.476v5.438
		H98.911z M98.911,112.247v-0.774c-0.288-0.414-0.936-0.612-1.548-0.612c-0.72,0-1.386,0.324-1.386,1.009
		c0,0.684,0.666,1.008,1.386,1.008C97.975,112.877,98.623,112.661,98.911,112.247z"/>
	<path fill="#009DE2" d="M103.337,114.479v-8.696h2.773v1.062c0.576-0.703,1.692-1.297,2.719-1.297v2.665
		c-0.162-0.055-0.396-0.072-0.684-0.072c-0.72,0-1.675,0.306-2.035,0.792v5.546H103.337z"/>
</g>
<g>
	<path fill="#FFFFFF" d="M246.36,49.68V29.003h-7.479v-5.999h21.796v5.999h-7.439V49.68H246.36z"/>
	<path fill="#FFFFFF" d="M263.161,49.68V23.004h6.879V49.68H263.161z"/>
	<path fill="#FFFFFF" d="M241.765,71.279v-9.309h-3.367V59.27h9.813v2.701h-3.349v9.309H241.765z"/>
	<path fill="#FFFFFF" d="M249.251,71.279v-8.696h2.773v1.062c0.576-0.702,1.692-1.296,2.719-1.296v2.665
		c-0.162-0.055-0.396-0.072-0.684-0.072c-0.72,0-1.675,0.306-2.035,0.792v5.546H249.251z"/>
	<path fill="#FFFFFF" d="M260.772,71.279v-0.864c-0.54,0.648-1.584,1.08-2.701,1.08c-1.333,0-2.989-0.918-2.989-2.862
		c0-2.107,1.656-2.81,2.989-2.81c1.152,0,2.179,0.379,2.701,1.026v-0.864c0-0.756-0.648-1.278-1.764-1.278
		c-0.864,0-1.729,0.343-2.431,0.937l-1.026-1.927c1.116-0.954,2.61-1.351,3.943-1.351c2.089,0,4.051,0.774,4.051,3.476v5.438
		H260.772z M260.772,69.047v-0.774c-0.288-0.414-0.936-0.612-1.548-0.612c-0.72,0-1.386,0.324-1.386,1.009
		c0,0.684,0.666,1.008,1.386,1.008C259.836,69.677,260.484,69.461,260.772,69.047z"/>
	<path fill="#FFFFFF" d="M264.641,66.922c0-2.719,2.017-4.556,4.735-4.556c1.891,0,3.043,0.829,3.565,1.603l-1.8,1.675
		c-0.342-0.504-0.9-0.828-1.639-0.828c-1.152,0-2.035,0.792-2.035,2.106s0.882,2.125,2.035,2.125c0.738,0,1.296-0.36,1.639-0.847
		l1.8,1.692c-0.522,0.757-1.674,1.603-3.565,1.603C266.658,71.495,264.641,69.641,264.641,66.922z"/>
	<path fill="#FFFFFF" d="M279.745,71.279v-5.06c0-1.062-0.558-1.404-1.44-1.404c-0.81,0-1.351,0.45-1.674,0.847v5.617h-2.773V59.27
		h2.773v4.375c0.522-0.611,1.548-1.278,3.007-1.278c1.98,0,2.881,1.117,2.881,2.72v6.193H279.745z"/>
	<path fill="#FFFFFF" d="M283.613,66.922c0-2.448,1.765-4.556,4.717-4.556c2.989,0,4.753,2.107,4.753,4.556
		c0,2.449-1.765,4.573-4.753,4.573C285.378,71.495,283.613,69.371,283.613,66.922z M290.239,66.922c0-1.152-0.684-2.106-1.909-2.106
		c-1.188,0-1.873,0.954-1.873,2.106c0,1.171,0.684,2.125,1.873,2.125C289.555,69.047,290.239,68.093,290.239,66.922z"/>
	<path fill="#FFFFFF" d="M305.144,71.279v-5.294c0-0.666-0.324-1.17-1.152-1.17c-0.756,0-1.296,0.486-1.566,0.847v5.617h-2.773
		v-5.294c0-0.666-0.306-1.17-1.134-1.17c-0.756,0-1.278,0.486-1.566,0.847v5.617h-2.773v-8.696h2.773v1.062
		c0.378-0.504,1.494-1.278,2.863-1.278c1.26,0,2.106,0.522,2.467,1.549c0.504-0.756,1.638-1.549,3.007-1.549
		c1.603,0,2.611,0.829,2.611,2.611v6.302H305.144z"/>
	<path fill="#FFFFFF" d="M314.7,71.279v-0.864c-0.54,0.648-1.584,1.08-2.701,1.08c-1.333,0-2.989-0.918-2.989-2.862
		c0-2.107,1.656-2.81,2.989-2.81c1.152,0,2.179,0.379,2.701,1.026v-0.864c0-0.756-0.648-1.278-1.764-1.278
		c-0.864,0-1.729,0.343-2.431,0.937l-1.026-1.927c1.116-0.954,2.61-1.351,3.943-1.351c2.089,0,4.051,0.774,4.051,3.476v5.438H314.7z
		 M314.7,69.047v-0.774c-0.288-0.414-0.936-0.612-1.548-0.612c-0.72,0-1.386,0.324-1.386,1.009c0,0.684,0.666,1.008,1.386,1.008
		C313.764,69.677,314.412,69.461,314.7,69.047z"/>
	<path fill="#FFFFFF" d="M319.703,68.938v-3.961h-1.44v-2.395h1.44v-2.377h2.773v2.377h1.765v2.395h-1.765v3.187
		c0,0.505,0.288,0.883,0.756,0.883c0.306,0,0.612-0.108,0.703-0.217l0.54,2.089c-0.342,0.324-1.026,0.576-2.053,0.576
		C320.657,71.495,319.703,70.613,319.703,68.938z"/>
	<path fill="#FFFFFF" d="M324.688,66.922c0-2.448,1.765-4.556,4.717-4.556c2.989,0,4.753,2.107,4.753,4.556
		c0,2.449-1.765,4.573-4.753,4.573C326.453,71.495,324.688,69.371,324.688,66.922z M331.314,66.922c0-1.152-0.684-2.106-1.909-2.106
		c-1.188,0-1.873,0.954-1.873,2.106c0,1.171,0.684,2.125,1.873,2.125C330.63,69.047,331.314,68.093,331.314,66.922z"/>
	<path fill="#FFFFFF" d="M341.124,71.279v-1.044c-0.54,0.612-1.53,1.26-3.007,1.26c-1.962,0-2.863-1.134-2.863-2.719v-6.193h2.773
		v5.041c0,1.062,0.54,1.423,1.44,1.423c0.792,0,1.332-0.433,1.656-0.847v-5.617h2.773v8.696H341.124z"/>
	<path fill="#FFFFFF" d="M344.812,70.145l1.152-1.98c0.648,0.576,2.035,1.171,3.061,1.171c0.828,0,1.17-0.234,1.17-0.612
		c0-1.08-5.06,0.036-5.06-3.493c0-1.53,1.333-2.863,3.727-2.863c1.477,0,2.701,0.469,3.637,1.152l-1.062,1.963
		c-0.522-0.504-1.512-0.954-2.557-0.954c-0.648,0-1.081,0.252-1.081,0.594c0,0.955,5.042-0.035,5.042,3.529
		c0,1.656-1.458,2.845-3.943,2.845C347.333,71.495,345.73,70.974,344.812,70.145z"/>
	<path fill="#FFFFFF" d="M239.082,92.88V80.87h3.097v12.01H239.082z"/>
	<path fill="#FFFFFF" d="M249.793,92.88v-5.023c0-1.062-0.558-1.44-1.422-1.44c-0.828,0-1.369,0.45-1.692,0.846v5.618h-2.773v-8.696
		h2.773v1.062c0.522-0.612,1.548-1.279,3.025-1.279c1.962,0,2.863,1.152,2.863,2.755v6.158H249.793z"/>
	<path fill="#FFFFFF" d="M254.813,92.88v-6.302h-1.44v-2.395h1.44v-0.198c0-2.161,1.386-3.295,3.115-3.295
		c0.756,0,1.404,0.107,1.854,0.342l-0.54,2.07c-0.162-0.126-0.432-0.18-0.738-0.18c-0.504,0-0.918,0.342-0.918,1.062v0.198h1.764
		v2.395h-1.764v6.302H254.813z M260.503,92.88V80.87h2.773v12.01H260.503z"/>
	<path fill="#FFFFFF" d="M270.061,92.88v-0.864c-0.54,0.648-1.584,1.08-2.701,1.08c-1.333,0-2.989-0.918-2.989-2.862
		c0-2.106,1.656-2.81,2.989-2.81c1.152,0,2.179,0.379,2.701,1.026v-0.864c0-0.756-0.648-1.278-1.764-1.278
		c-0.864,0-1.729,0.343-2.431,0.937l-1.026-1.927c1.116-0.954,2.61-1.351,3.943-1.351c2.089,0,4.051,0.774,4.051,3.476v5.438
		H270.061z M270.061,90.647v-0.774c-0.288-0.414-0.936-0.612-1.548-0.612c-0.72,0-1.386,0.324-1.386,1.009
		c0,0.684,0.666,1.008,1.386,1.008C269.125,91.277,269.772,91.062,270.061,90.647z"/>
	<path fill="#FFFFFF" d="M285.453,92.88v-5.294c0-0.666-0.324-1.17-1.152-1.17c-0.756,0-1.296,0.486-1.566,0.846v5.618h-2.773
		v-5.294c0-0.666-0.306-1.17-1.134-1.17c-0.756,0-1.278,0.486-1.566,0.846v5.618h-2.773v-8.696h2.773v1.062
		c0.378-0.505,1.494-1.279,2.863-1.279c1.26,0,2.106,0.522,2.467,1.549c0.504-0.756,1.638-1.549,3.007-1.549
		c1.603,0,2.611,0.829,2.611,2.611v6.302H285.453z"/>
	<path fill="#FFFFFF" d="M300.843,92.88v-5.294c0-0.666-0.324-1.17-1.152-1.17c-0.756,0-1.296,0.486-1.566,0.846v5.618h-2.773
		v-5.294c0-0.666-0.306-1.17-1.134-1.17c-0.756,0-1.278,0.486-1.566,0.846v5.618h-2.773v-8.696h2.773v1.062
		c0.378-0.505,1.494-1.279,2.863-1.279c1.26,0,2.106,0.522,2.467,1.549c0.504-0.756,1.638-1.549,3.007-1.549
		c1.603,0,2.611,0.829,2.611,2.611v6.302H300.843z"/>
	<path fill="#FFFFFF" d="M310.398,92.88v-0.864c-0.54,0.648-1.584,1.08-2.701,1.08c-1.333,0-2.989-0.918-2.989-2.862
		c0-2.106,1.656-2.81,2.989-2.81c1.152,0,2.179,0.379,2.701,1.026v-0.864c0-0.756-0.648-1.278-1.764-1.278
		c-0.864,0-1.729,0.343-2.431,0.937l-1.026-1.927c1.116-0.954,2.61-1.351,3.943-1.351c2.089,0,4.051,0.774,4.051,3.476v5.438
		H310.398z M310.398,90.647v-0.774c-0.288-0.414-0.936-0.612-1.548-0.612c-0.72,0-1.386,0.324-1.386,1.009
		c0,0.684,0.666,1.008,1.386,1.008C309.462,91.277,310.11,91.062,310.398,90.647z"/>
	<path fill="#FFFFFF" d="M315.401,90.539v-3.961h-1.44v-2.395h1.44v-2.377h2.773v2.377h1.765v2.395h-1.765v3.187
		c0,0.505,0.288,0.883,0.756,0.883c0.306,0,0.612-0.108,0.703-0.216l0.54,2.088c-0.342,0.324-1.026,0.576-2.053,0.576
		C316.355,93.096,315.401,92.214,315.401,90.539z"/>
	<path fill="#FFFFFF" d="M320.747,81.807c0-0.883,0.703-1.585,1.584-1.585c0.882,0,1.603,0.702,1.603,1.585
		c0,0.882-0.72,1.603-1.603,1.603C321.45,83.409,320.747,82.688,320.747,81.807z M320.945,92.88v-8.696h2.773v8.696H320.945z"/>
	<path fill="#FFFFFF" d="M324.815,88.522c0-2.448,1.765-4.556,4.717-4.556c2.989,0,4.753,2.107,4.753,4.556
		c0,2.449-1.765,4.573-4.753,4.573C326.58,93.096,324.815,90.972,324.815,88.522z M331.441,88.522c0-1.152-0.684-2.106-1.909-2.106
		c-1.188,0-1.873,0.954-1.873,2.106c0,1.171,0.684,2.125,1.873,2.125C330.757,90.647,331.441,89.693,331.441,88.522z"/>
	<path fill="#FFFFFF" d="M341.269,92.88v-5.023c0-1.062-0.558-1.44-1.422-1.44c-0.828,0-1.368,0.45-1.692,0.846v5.618h-2.773v-8.696
		h2.773v1.062c0.522-0.612,1.548-1.279,3.025-1.279c1.962,0,2.863,1.152,2.863,2.755v6.158H341.269z"/>
	<path fill="#009DE2" d="M239.082,114.479v-12.01h3.097v12.01H239.082z"/>
	<path fill="#009DE2" d="M249.793,114.479v-5.023c0-1.062-0.558-1.44-1.422-1.44c-0.828,0-1.369,0.45-1.692,0.846v5.618h-2.773
		v-8.696h2.773v1.062c0.522-0.612,1.548-1.279,3.025-1.279c1.962,0,2.863,1.152,2.863,2.755v6.158H249.793z"/>
	<path fill="#009DE2" d="M254.795,112.139v-3.961h-1.44v-2.395h1.44v-2.377h2.773v2.377h1.764v2.395h-1.764v3.187
		c0,0.505,0.288,0.883,0.756,0.883c0.306,0,0.612-0.108,0.702-0.216l0.54,2.088c-0.342,0.324-1.026,0.576-2.053,0.576
		C255.75,114.695,254.795,113.813,254.795,112.139z"/>
	<path fill="#009DE2" d="M259.781,110.122c0-2.521,1.891-4.556,4.609-4.556c2.575,0,4.447,1.891,4.447,4.844v0.63h-6.194
		c0.198,0.774,0.918,1.423,2.179,1.423c0.612,0,1.621-0.271,2.125-0.738l1.207,1.818c-0.864,0.774-2.305,1.152-3.637,1.152
		C261.833,114.695,259.781,112.949,259.781,110.122z M264.39,107.8c-1.207,0-1.675,0.72-1.783,1.351h3.583
		C266.119,108.538,265.668,107.8,264.39,107.8z"/>
	<path fill="#009DE2" d="M275.73,114.479v-5.023c0-1.062-0.558-1.44-1.422-1.44c-0.828,0-1.368,0.45-1.692,0.846v5.618h-2.773
		v-8.696h2.773v1.062c0.522-0.612,1.548-1.279,3.025-1.279c1.962,0,2.863,1.152,2.863,2.755v6.158H275.73z"/>
	<path fill="#009DE2" d="M279.418,113.345l1.152-1.98c0.648,0.576,2.035,1.171,3.061,1.171c0.828,0,1.17-0.234,1.17-0.612
		c0-1.08-5.06,0.036-5.06-3.493c0-1.53,1.333-2.863,3.727-2.863c1.477,0,2.701,0.469,3.637,1.152l-1.062,1.963
		c-0.522-0.504-1.512-0.954-2.557-0.954c-0.648,0-1.081,0.252-1.081,0.594c0,0.955,5.042-0.036,5.042,3.529
		c0,1.656-1.458,2.845-3.943,2.845C281.939,114.695,280.337,114.174,279.418,113.345z"/>
	<path fill="#009DE2" d="M287.95,110.122c0-2.521,1.891-4.556,4.609-4.556c2.575,0,4.447,1.891,4.447,4.844v0.63h-6.194
		c0.198,0.774,0.918,1.423,2.179,1.423c0.612,0,1.621-0.271,2.125-0.738l1.207,1.818c-0.864,0.774-2.305,1.152-3.637,1.152
		C290.003,114.695,287.95,112.949,287.95,110.122z M292.56,107.8c-1.207,0-1.674,0.72-1.783,1.351h3.583
		C294.288,108.538,293.838,107.8,292.56,107.8z"/>
</g>
<g>
	<path fill="#FFFFFF" d="M438.36,49.68V29.003h-7.479v-5.999h21.796v5.999h-7.439V49.68H438.36z"/>
	<path fill="#FFFFFF" d="M453.241,45.92l3.639-5.358c1.92,1.919,4.879,3.52,8.559,3.52c2.32,0,3.759-0.8,3.759-2.12
		c0-3.52-15.077-0.6-15.077-10.878c0-4.479,3.759-8.479,10.598-8.479c4.279,0,7.999,1.28,10.838,3.72l-3.76,5.159
		c-2.239-1.879-5.159-2.799-7.798-2.799c-2,0-2.88,0.68-2.88,1.84c0,3.28,15.078,0.8,15.078,10.718
		c0,5.359-3.959,8.918-11.118,8.918C459.68,50.159,455.921,48.439,453.241,45.92z"/>
	<path fill="#FFFFFF" d="M433.765,71.279v-9.309h-3.367V59.27h9.813v2.701h-3.349v9.309H433.765z"/>
	<path fill="#FFFFFF" d="M441.251,71.279v-8.696h2.773v1.062c0.576-0.702,1.692-1.296,2.719-1.296v2.665
		c-0.162-0.055-0.396-0.072-0.684-0.072c-0.72,0-1.675,0.306-2.035,0.792v5.546H441.251z"/>
	<path fill="#FFFFFF" d="M452.772,71.279v-0.864c-0.54,0.648-1.584,1.08-2.701,1.08c-1.333,0-2.989-0.918-2.989-2.862
		c0-2.107,1.656-2.81,2.989-2.81c1.152,0,2.179,0.379,2.701,1.026v-0.864c0-0.756-0.648-1.278-1.764-1.278
		c-0.864,0-1.729,0.343-2.431,0.937l-1.026-1.927c1.116-0.954,2.61-1.351,3.943-1.351c2.089,0,4.051,0.774,4.051,3.476v5.438
		H452.772z M452.772,69.047v-0.774c-0.288-0.414-0.936-0.612-1.548-0.612c-0.72,0-1.386,0.324-1.386,1.009
		c0,0.684,0.666,1.008,1.386,1.008C451.836,69.677,452.484,69.461,452.772,69.047z"/>
	<path fill="#FFFFFF" d="M456.641,66.922c0-2.719,2.017-4.556,4.735-4.556c1.891,0,3.043,0.829,3.565,1.603l-1.8,1.675
		c-0.342-0.504-0.9-0.828-1.639-0.828c-1.152,0-2.035,0.792-2.035,2.106s0.882,2.125,2.035,2.125c0.738,0,1.296-0.36,1.639-0.847
		l1.8,1.692c-0.522,0.757-1.674,1.603-3.565,1.603C458.658,71.495,456.641,69.641,456.641,66.922z"/>
	<path fill="#FFFFFF" d="M471.745,71.279v-5.06c0-1.062-0.558-1.404-1.44-1.404c-0.81,0-1.351,0.45-1.674,0.847v5.617h-2.773V59.27
		h2.773v4.375c0.522-0.611,1.548-1.278,3.007-1.278c1.98,0,2.881,1.117,2.881,2.72v6.193H471.745z"/>
	<path fill="#FFFFFF" d="M475.613,66.922c0-2.448,1.765-4.556,4.717-4.556c2.989,0,4.753,2.107,4.753,4.556
		c0,2.449-1.765,4.573-4.753,4.573C477.378,71.495,475.613,69.371,475.613,66.922z M482.239,66.922c0-1.152-0.684-2.106-1.909-2.106
		c-1.188,0-1.873,0.954-1.873,2.106c0,1.171,0.684,2.125,1.873,2.125C481.556,69.047,482.239,68.093,482.239,66.922z"/>
	<path fill="#FFFFFF" d="M497.145,71.279v-5.294c0-0.666-0.324-1.17-1.152-1.17c-0.757,0-1.297,0.486-1.566,0.847v5.617h-2.773
		v-5.294c0-0.666-0.306-1.17-1.134-1.17c-0.757,0-1.278,0.486-1.566,0.847v5.617h-2.773v-8.696h2.773v1.062
		c0.378-0.504,1.494-1.278,2.862-1.278c1.261,0,2.106,0.522,2.467,1.549c0.504-0.756,1.639-1.549,3.007-1.549
		c1.603,0,2.611,0.829,2.611,2.611v6.302H497.145z"/>
	<path fill="#FFFFFF" d="M506.7,71.279v-0.864c-0.54,0.648-1.584,1.08-2.7,1.08c-1.333,0-2.989-0.918-2.989-2.862
		c0-2.107,1.656-2.81,2.989-2.81c1.152,0,2.179,0.379,2.7,1.026v-0.864c0-0.756-0.647-1.278-1.764-1.278
		c-0.864,0-1.729,0.343-2.431,0.937l-1.026-1.927c1.116-0.954,2.61-1.351,3.942-1.351c2.089,0,4.052,0.774,4.052,3.476v5.438H506.7z
		 M506.7,69.047v-0.774c-0.288-0.414-0.936-0.612-1.548-0.612c-0.721,0-1.387,0.324-1.387,1.009c0,0.684,0.666,1.008,1.387,1.008
		C505.765,69.677,506.412,69.461,506.7,69.047z"/>
	<path fill="#FFFFFF" d="M511.703,68.938v-3.961h-1.44v-2.395h1.44v-2.377h2.773v2.377h1.765v2.395h-1.765v3.187
		c0,0.505,0.288,0.883,0.756,0.883c0.306,0,0.612-0.108,0.702-0.217l0.54,2.089c-0.342,0.324-1.026,0.576-2.053,0.576
		C512.657,71.495,511.703,70.613,511.703,68.938z"/>
	<path fill="#FFFFFF" d="M516.688,66.922c0-2.448,1.765-4.556,4.717-4.556c2.989,0,4.754,2.107,4.754,4.556
		c0,2.449-1.765,4.573-4.754,4.573C518.453,71.495,516.688,69.371,516.688,66.922z M523.314,66.922c0-1.152-0.685-2.106-1.909-2.106
		c-1.188,0-1.872,0.954-1.872,2.106c0,1.171,0.684,2.125,1.872,2.125C522.63,69.047,523.314,68.093,523.314,66.922z"/>
	<path fill="#FFFFFF" d="M533.124,71.279v-1.044c-0.54,0.612-1.53,1.26-3.007,1.26c-1.963,0-2.863-1.134-2.863-2.719v-6.193h2.773
		v5.041c0,1.062,0.54,1.423,1.44,1.423c0.792,0,1.332-0.433,1.656-0.847v-5.617h2.772v8.696H533.124z"/>
	<path fill="#FFFFFF" d="M536.812,70.145l1.152-1.98c0.648,0.576,2.035,1.171,3.062,1.171c0.828,0,1.17-0.234,1.17-0.612
		c0-1.08-5.06,0.036-5.06-3.493c0-1.53,1.333-2.863,3.728-2.863c1.477,0,2.7,0.469,3.637,1.152l-1.062,1.963
		c-0.521-0.504-1.512-0.954-2.557-0.954c-0.648,0-1.08,0.252-1.08,0.594c0,0.955,5.041-0.035,5.041,3.529
		c0,1.656-1.458,2.845-3.942,2.845C539.333,71.495,537.73,70.974,536.812,70.145z"/>
	<path fill="#FFFFFF" d="M430.47,86.884c0-3.709,2.809-6.212,6.5-6.212c2.899,0,4.465,1.639,5.239,3.205l-2.665,1.278
		c-0.396-0.954-1.422-1.746-2.575-1.746c-1.963,0-3.349,1.494-3.349,3.475c0,1.963,1.386,3.476,3.349,3.476
		c1.152,0,2.178-0.793,2.575-1.747l2.665,1.261c-0.774,1.53-2.34,3.223-5.239,3.223C433.278,93.096,430.47,90.575,430.47,86.884z"/>
	<path fill="#FFFFFF" d="M442.547,88.522c0-2.448,1.765-4.556,4.717-4.556c2.989,0,4.753,2.107,4.753,4.556
		c0,2.449-1.765,4.573-4.753,4.573C444.312,93.096,442.547,90.972,442.547,88.522z M449.173,88.522c0-1.152-0.684-2.106-1.909-2.106
		c-1.188,0-1.873,0.954-1.873,2.106c0,1.171,0.684,2.125,1.873,2.125C448.489,90.647,449.173,89.693,449.173,88.522z"/>
	<path fill="#FFFFFF" d="M459,92.88v-5.023c0-1.062-0.558-1.44-1.422-1.44c-0.828,0-1.369,0.45-1.692,0.846v5.618h-2.773v-8.696
		h2.773v1.062c0.522-0.612,1.548-1.279,3.025-1.279c1.962,0,2.863,1.152,2.863,2.755v6.158H459z"/>
	<path fill="#FFFFFF" d="M460.546,95.797l0.702-2.017c0.342,0.288,0.594,0.396,1.116,0.396c0.648,0,1.062-0.432,1.062-1.368v-8.624
		h2.773v8.624c0,2.106-1.044,3.602-3.367,3.602C461.644,96.409,461.212,96.229,460.546,95.797z M463.229,81.807
		c0-0.883,0.703-1.585,1.584-1.585c0.882,0,1.603,0.702,1.603,1.585c0,0.882-0.72,1.603-1.603,1.603
		C463.931,83.409,463.229,82.688,463.229,81.807z"/>
	<path fill="#FFFFFF" d="M473.725,92.88v-1.044c-0.54,0.611-1.53,1.26-3.007,1.26c-1.962,0-2.863-1.134-2.863-2.719v-6.193h2.773
		v5.041c0,1.062,0.54,1.423,1.44,1.423c0.792,0,1.333-0.433,1.656-0.847v-5.617h2.773v8.696H473.725z"/>
	<path fill="#FFFFFF" d="M484.039,92.88v-5.023c0-1.062-0.559-1.44-1.423-1.44c-0.828,0-1.368,0.45-1.692,0.846v5.618h-2.773v-8.696
		h2.773v1.062c0.522-0.612,1.549-1.279,3.025-1.279c1.962,0,2.862,1.152,2.862,2.755v6.158H484.039z"/>
	<path fill="#FFFFFF" d="M487.906,88.522c0-2.719,2.017-4.556,4.735-4.556c1.891,0,3.043,0.829,3.565,1.603l-1.801,1.675
		c-0.342-0.504-0.9-0.828-1.639-0.828c-1.152,0-2.034,0.792-2.034,2.106s0.882,2.125,2.034,2.125c0.738,0,1.297-0.36,1.639-0.847
		l1.801,1.692c-0.522,0.757-1.675,1.603-3.565,1.603C489.923,93.096,487.906,91.241,487.906,88.522z"/>
	<path fill="#FFFFFF" d="M497.681,90.539v-3.961h-1.44v-2.395h1.44v-2.377h2.773v2.377h1.765v2.395h-1.765v3.187
		c0,0.505,0.288,0.883,0.756,0.883c0.306,0,0.612-0.108,0.702-0.216l0.54,2.088c-0.342,0.324-1.026,0.576-2.053,0.576
		C498.635,93.096,497.681,92.214,497.681,90.539z"/>
	<path fill="#FFFFFF" d="M503.026,81.807c0-0.883,0.703-1.585,1.585-1.585s1.603,0.702,1.603,1.585c0,0.882-0.721,1.603-1.603,1.603
		S503.026,82.688,503.026,81.807z M503.225,92.88v-8.696h2.773v8.696H503.225z"/>
	<path fill="#FFFFFF" d="M509.886,92.88l-3.422-8.696h2.917l1.98,5.51l1.963-5.51h2.935l-3.421,8.696H509.886z"/>
	<path fill="#FFFFFF" d="M521.855,92.88v-0.864c-0.54,0.648-1.584,1.08-2.7,1.08c-1.333,0-2.989-0.918-2.989-2.862
		c0-2.106,1.656-2.81,2.989-2.81c1.152,0,2.179,0.379,2.7,1.026v-0.864c0-0.756-0.647-1.278-1.764-1.278
		c-0.864,0-1.729,0.343-2.431,0.937l-1.026-1.927c1.116-0.954,2.61-1.351,3.942-1.351c2.089,0,4.052,0.774,4.052,3.476v5.438
		H521.855z M521.855,90.647v-0.774c-0.288-0.414-0.936-0.612-1.548-0.612c-0.721,0-1.387,0.324-1.387,1.009
		c0,0.684,0.666,1.008,1.387,1.008C520.92,91.277,521.567,91.062,521.855,90.647z"/>
	<path fill="#FFFFFF" d="M526.282,92.88V80.87h2.773v12.01H526.282z"/>
	<path fill="#009DE2" d="M430.217,112.787l1.639-2.413c0.864,0.864,2.197,1.585,3.853,1.585c1.044,0,1.693-0.36,1.693-0.954
		c0-1.585-6.788-0.271-6.788-4.897c0-2.017,1.692-3.817,4.771-3.817c1.926,0,3.601,0.576,4.879,1.675l-1.693,2.322
		c-1.008-0.847-2.322-1.261-3.511-1.261c-0.9,0-1.296,0.307-1.296,0.828c0,1.477,6.788,0.36,6.788,4.826
		c0,2.412-1.783,4.015-5.005,4.015C433.116,114.695,431.424,113.921,430.217,112.787z"/>
	<path fill="#009DE2" d="M441,110.122c0-2.719,2.017-4.556,4.735-4.556c1.891,0,3.043,0.829,3.565,1.603l-1.8,1.675
		c-0.342-0.504-0.9-0.828-1.639-0.828c-1.152,0-2.035,0.792-2.035,2.106s0.882,2.125,2.035,2.125c0.738,0,1.296-0.36,1.639-0.847
		l1.8,1.692c-0.522,0.757-1.674,1.603-3.565,1.603C443.016,114.695,441,112.841,441,110.122z"/>
	<path fill="#009DE2" d="M455.329,114.479v-0.864c-0.54,0.648-1.584,1.08-2.701,1.08c-1.333,0-2.989-0.918-2.989-2.862
		c0-2.106,1.656-2.81,2.989-2.81c1.152,0,2.179,0.379,2.701,1.026v-0.864c0-0.756-0.648-1.278-1.764-1.278
		c-0.864,0-1.729,0.343-2.431,0.937l-1.026-1.927c1.116-0.954,2.611-1.351,3.943-1.351c2.089,0,4.051,0.774,4.051,3.476v5.438
		H455.329z M455.329,112.247v-0.774c-0.288-0.414-0.936-0.612-1.548-0.612c-0.72,0-1.386,0.324-1.386,1.009
		c0,0.684,0.666,1.008,1.386,1.008C454.393,112.877,455.041,112.661,455.329,112.247z"/>
	<path fill="#009DE2" d="M459.755,114.479v-8.696h2.773v1.062c0.576-0.703,1.692-1.297,2.719-1.297v2.665
		c-0.162-0.055-0.396-0.072-0.684-0.072c-0.72,0-1.675,0.306-2.035,0.792v5.546H459.755z"/>
	<path fill="#009DE2" d="M466.146,114.479v-8.696h2.773v1.062c0.576-0.703,1.692-1.297,2.719-1.297v2.665
		c-0.162-0.055-0.396-0.072-0.684-0.072c-0.72,0-1.675,0.306-2.035,0.792v5.546H466.146z"/>
	<path fill="#009DE2" d="M472.337,103.406c0-0.883,0.702-1.585,1.584-1.585s1.603,0.702,1.603,1.585c0,0.882-0.72,1.603-1.603,1.603
		S472.337,104.288,472.337,103.406z M472.536,114.479v-8.696h2.773v8.696H472.536z"/>
	<path fill="#009DE2" d="M482.851,114.479v-5.023c0-1.062-0.558-1.44-1.422-1.44c-0.829,0-1.369,0.45-1.693,0.846v5.618h-2.773
		v-8.696h2.773v1.062c0.522-0.612,1.548-1.279,3.025-1.279c1.963,0,2.863,1.152,2.863,2.755v6.158H482.851z"/>
	<path fill="#009DE2" d="M487.043,116.712l1.206-1.944c0.685,0.721,1.639,1.008,2.647,1.008c0.918,0,2.215-0.396,2.215-2.052v-0.667
		c-0.721,0.864-1.585,1.279-2.575,1.279c-2.125,0-3.817-1.459-3.817-4.394c0-2.863,1.639-4.376,3.817-4.376
		c0.973,0,1.872,0.379,2.575,1.243v-1.026h2.772v7.94c0,3.528-2.827,4.285-4.987,4.285
		C489.401,118.009,488.159,117.631,487.043,116.712z M493.111,111.112v-2.322c-0.343-0.469-1.081-0.774-1.657-0.774
		c-1.098,0-1.908,0.666-1.908,1.927c0,1.278,0.811,1.944,1.908,1.944C492.03,111.887,492.769,111.581,493.111,111.112z"/>
</g>
</svg>
