<?xml version="1.0" encoding="utf-8"?>
<!-- Generator: Adobe Illustrator 16.0.0, SVG Export Plug-In . SVG Version: 6.00 Build 0)  -->
<!DOCTYPE svg PUBLIC "-//W3C//DTD SVG 1.1//EN" "http://www.w3.org/Graphics/SVG/1.1/DTD/svg11.dtd">
<svg version="1.1" id="Layer_1" xmlns="http://www.w3.org/2000/svg" xmlns:xlink="http://www.w3.org/1999/xlink" x="0px" y="0px"
	 width="960px" height="211.666px" viewBox="0 0 960 211.666" enable-background="new 0 0 960 211.666" xml:space="preserve">
<g>
	<path fill="#363636" d="M11.068,155.838l-1.639-6.416l-1.625,6.416H5.689l-2.675-9.343h2.227l1.639,6.752l1.779-6.752h1.555
		l1.765,6.752l1.639-6.752h2.227l-2.661,9.343H11.068z"/>
	<path fill="#363636" d="M21.035,155.838v-4.118c0-0.938-0.49-1.233-1.247-1.233c-0.7,0-1.247,0.393-1.541,0.785v4.566h-1.793
		v-9.343h1.793v3.446c0.435-0.504,1.261-1.037,2.368-1.037c1.484,0,2.199,0.812,2.199,2.129v4.805H21.035z"/>
	<path fill="#363636" d="M23.86,152.448c0-1.961,1.457-3.544,3.502-3.544c2.031,0,3.39,1.513,3.39,3.712v0.42h-5.029
		c0.126,0.827,0.799,1.513,1.947,1.513c0.574,0,1.359-0.237,1.793-0.658l0.798,1.177c-0.672,0.616-1.737,0.938-2.788,0.938
		C25.415,156.006,23.86,154.619,23.86,152.448z M27.362,150.361c-1.106,0-1.583,0.771-1.653,1.443h3.333
		C28.987,151.159,28.539,150.361,27.362,150.361z"/>
	<path fill="#363636" d="M36.322,155.838v-4.09c0-0.938-0.49-1.261-1.247-1.261c-0.7,0-1.232,0.393-1.541,0.785v4.566h-1.779v-6.766
		h1.779v0.869c0.434-0.504,1.274-1.037,2.367-1.037c1.499,0,2.213,0.84,2.213,2.157v4.776H36.322z"/>
	<path fill="#363636" d="M45.099,155.838v-7.592h-2.731v-1.751h7.452v1.751h-2.717v7.592H45.099z"/>
	<path fill="#363636" d="M50.809,155.838v-9.343h6.612v1.751h-4.623v1.961h4.524v1.751h-4.524v3.88H50.809z"/>
	<path fill="#363636" d="M61.631,147.279c0-0.588,0.476-1.051,1.051-1.051c0.588,0,1.064,0.462,1.064,1.051
		s-0.477,1.064-1.064,1.064C62.107,148.344,61.631,147.868,61.631,147.279z M61.799,155.838v-6.766h1.779v6.766H61.799z"/>
	<path fill="#363636" d="M64.473,154.955l0.771-1.288c0.504,0.476,1.499,0.938,2.339,0.938c0.771,0,1.135-0.294,1.135-0.715
		c0-1.106-4.006-0.196-4.006-2.857c0-1.135,0.98-2.129,2.773-2.129c1.135,0,2.045,0.392,2.718,0.924l-0.714,1.261
		c-0.406-0.42-1.177-0.785-2.003-0.785c-0.644,0-1.064,0.28-1.064,0.659c0,0.995,4.02,0.154,4.02,2.885
		c0,1.247-1.064,2.157-2.941,2.157C66.322,156.006,65.188,155.613,64.473,154.955z"/>
	<path fill="#363636" d="M76.556,154.97v3.445h-1.779v-9.343h1.779v0.854c0.518-0.658,1.261-1.022,2.087-1.022
		c1.737,0,2.998,1.289,2.998,3.544c0,2.255-1.261,3.558-2.998,3.558C77.844,156.006,77.116,155.67,76.556,154.97z M79.805,152.448
		c0-1.163-0.7-1.961-1.723-1.961c-0.575,0-1.219,0.322-1.527,0.771v2.381c0.294,0.435,0.952,0.784,1.527,0.784
		C79.105,154.423,79.805,153.625,79.805,152.448z"/>
	<path fill="#363636" d="M82.659,155.838v-6.766h1.779v0.911c0.49-0.588,1.316-1.079,2.157-1.079v1.737
		c-0.126-0.028-0.28-0.042-0.49-0.042c-0.588,0-1.373,0.336-1.667,0.771v4.468H82.659z"/>
	<path fill="#363636" d="M86.984,152.448c0-1.961,1.457-3.544,3.502-3.544c2.031,0,3.39,1.513,3.39,3.712v0.42h-5.029
		c0.126,0.827,0.799,1.513,1.947,1.513c0.574,0,1.359-0.237,1.793-0.658l0.798,1.177c-0.672,0.616-1.737,0.938-2.788,0.938
		C88.539,156.006,86.984,154.619,86.984,152.448z M90.486,150.361c-1.106,0-1.583,0.771-1.653,1.443h3.333
		C92.111,151.159,91.663,150.361,90.486,150.361z"/>
	<path fill="#363636" d="M94.292,154.955l0.771-1.288c0.504,0.476,1.499,0.938,2.339,0.938c0.771,0,1.135-0.294,1.135-0.715
		c0-1.106-4.006-0.196-4.006-2.857c0-1.135,0.98-2.129,2.773-2.129c1.135,0,2.045,0.392,2.718,0.924l-0.714,1.261
		c-0.406-0.42-1.177-0.785-2.003-0.785c-0.644,0-1.064,0.28-1.064,0.659c0,0.995,4.02,0.154,4.02,2.885
		c0,1.247-1.064,2.157-2.941,2.157C96.141,156.006,95.006,155.613,94.292,154.955z"/>
	<path fill="#363636" d="M100.843,152.448c0-1.961,1.457-3.544,3.502-3.544c2.031,0,3.39,1.513,3.39,3.712v0.42h-5.029
		c0.126,0.827,0.799,1.513,1.947,1.513c0.574,0,1.359-0.237,1.793-0.658l0.798,1.177c-0.672,0.616-1.737,0.938-2.788,0.938
		C102.398,156.006,100.843,154.619,100.843,152.448z M104.345,150.361c-1.106,0-1.583,0.771-1.653,1.443h3.333
		C105.97,151.159,105.522,150.361,104.345,150.361z"/>
	<path fill="#363636" d="M113.306,155.838v-4.09c0-0.938-0.49-1.261-1.247-1.261c-0.7,0-1.232,0.393-1.541,0.785v4.566h-1.779
		v-6.766h1.779v0.869c0.434-0.504,1.274-1.037,2.367-1.037c1.499,0,2.213,0.84,2.213,2.157v4.776H113.306z"/>
	<path fill="#363636" d="M116.93,154.143v-3.516h-1.121v-1.555h1.121v-1.849h1.779v1.849h1.373v1.555h-1.373v3.04
		c0,0.434,0.224,0.756,0.616,0.756c0.266,0,0.518-0.098,0.616-0.21l0.378,1.358c-0.266,0.238-0.743,0.435-1.485,0.435
		C117.588,156.006,116.93,155.361,116.93,154.143z"/>
	<path fill="#363636" d="M124.167,147.279c0-0.588,0.476-1.051,1.051-1.051c0.588,0,1.064,0.462,1.064,1.051
		s-0.477,1.064-1.064,1.064C124.643,148.344,124.167,147.868,124.167,147.279z M124.335,155.838v-6.766h1.779v6.766H124.335z"/>
	<path fill="#363636" d="M132.163,155.838v-4.09c0-0.938-0.49-1.261-1.247-1.261c-0.7,0-1.232,0.393-1.541,0.785v4.566h-1.779
		v-6.766h1.779v0.869c0.434-0.504,1.274-1.037,2.367-1.037c1.499,0,2.213,0.84,2.213,2.157v4.776H132.163z"/>
	<path fill="#363636" d="M12.273,172.638v-4.272c0-0.63-0.28-1.078-1.008-1.078c-0.63,0-1.149,0.42-1.401,0.784v4.566H8.071v-4.272
		c0-0.63-0.28-1.078-1.009-1.078c-0.616,0-1.134,0.42-1.4,0.784v4.566H3.882v-6.766h1.779v0.868
		c0.294-0.392,1.176-1.036,2.213-1.036c0.995,0,1.639,0.462,1.877,1.219c0.393-0.603,1.289-1.219,2.326-1.219
		c1.247,0,1.989,0.658,1.989,2.045v4.889H12.273z"/>
	<path fill="#363636" d="M15.11,169.248c0-1.919,1.345-3.544,3.572-3.544c2.241,0,3.586,1.625,3.586,3.544s-1.345,3.558-3.586,3.558
		C16.455,172.806,15.11,171.167,15.11,169.248z M20.419,169.248c0-1.051-0.617-1.961-1.737-1.961c-1.106,0-1.723,0.91-1.723,1.961
		c0,1.064,0.616,1.975,1.723,1.975C19.803,171.223,20.419,170.312,20.419,169.248z"/>
	<path fill="#363636" d="M23.314,172.638v-6.766h1.779v0.91c0.49-0.588,1.316-1.078,2.157-1.078v1.736
		c-0.126-0.027-0.28-0.042-0.49-0.042c-0.588,0-1.373,0.337-1.667,0.771v4.469H23.314z"/>
	<path fill="#363636" d="M27.64,169.248c0-1.961,1.457-3.544,3.502-3.544c2.031,0,3.39,1.513,3.39,3.712v0.42h-5.029
		c0.126,0.827,0.799,1.513,1.947,1.513c0.574,0,1.359-0.237,1.793-0.658l0.798,1.177c-0.672,0.616-1.737,0.938-2.788,0.938
		C29.194,172.806,27.64,171.419,27.64,169.248z M31.142,167.161c-1.106,0-1.583,0.771-1.653,1.442h3.333
		C32.767,167.959,32.318,167.161,31.142,167.161z"/>
	<path fill="#363636" d="M39.217,170.942v-3.516h-1.121v-1.555h1.121v-1.849h1.779v1.849h1.373v1.555h-1.373v3.04
		c0,0.434,0.225,0.756,0.617,0.756c0.266,0,0.518-0.098,0.616-0.21l0.378,1.358c-0.267,0.238-0.743,0.435-1.485,0.435
		C39.876,172.806,39.217,172.161,39.217,170.942z"/>
	<path fill="#363636" d="M47.885,172.638v-4.118c0-0.938-0.49-1.232-1.247-1.232c-0.7,0-1.247,0.392-1.541,0.784v4.566h-1.793
		v-9.343h1.793v3.445c0.435-0.504,1.261-1.036,2.367-1.036c1.485,0,2.199,0.812,2.199,2.129v4.805H47.885z"/>
	<path fill="#363636" d="M55.207,172.638v-0.715c-0.462,0.561-1.261,0.883-2.144,0.883c-1.078,0-2.339-0.729-2.339-2.241
		c0-1.597,1.261-2.186,2.339-2.186c0.911,0,1.695,0.295,2.144,0.827v-0.854c0-0.687-0.588-1.135-1.485-1.135
		c-0.714,0-1.387,0.28-1.947,0.799l-0.7-1.247c0.826-0.742,1.891-1.064,2.956-1.064c1.555,0,2.97,0.616,2.97,2.563v4.37H55.207z
		 M55.207,171.013v-0.841c-0.294-0.392-0.854-0.602-1.429-0.602c-0.701,0-1.275,0.378-1.275,1.022s0.574,1.009,1.275,1.009
		C54.353,171.602,54.913,171.405,55.207,171.013z"/>
	<path fill="#363636" d="M63.033,172.638v-4.09c0-0.938-0.49-1.261-1.247-1.261c-0.7,0-1.232,0.392-1.541,0.784v4.566h-1.779v-6.766
		h1.779v0.868c0.434-0.504,1.274-1.036,2.367-1.036c1.499,0,2.213,0.84,2.213,2.157v4.776H63.033z"/>
	<path fill="#363636" d="M69.415,171.405l1.106-1.387c0.63,0.658,1.499,1.022,2.479,1.022c1.106,0,1.737-0.631,1.737-1.387
		c0-0.826-0.616-1.387-1.681-1.387c-0.77,0-1.4,0.224-1.961,0.756l-1.387-0.378v-5.351h6.416v1.751h-4.426v2.283
		c0.448-0.448,1.205-0.785,2.059-0.785c1.583,0,2.998,1.135,2.998,3.026c0,1.975-1.485,3.235-3.74,3.235
		C71.39,172.806,70.213,172.273,69.415,171.405z"/>
	<path fill="#363636" d="M77.324,165.494c0-1.317,0.938-2.34,2.367-2.34c1.443,0,2.381,1.022,2.381,2.34
		c0,1.303-0.938,2.311-2.381,2.311C78.262,167.805,77.324,166.797,77.324,165.494z M80.812,165.494c0-0.771-0.476-1.247-1.121-1.247
		c-0.63,0-1.106,0.477-1.106,1.247c0,0.742,0.476,1.219,1.106,1.219C80.335,166.713,80.812,166.236,80.812,165.494z M78.78,172.638
		l5.967-9.343h1.065l-5.981,9.343H78.78z M82.464,170.494c0-1.316,0.938-2.353,2.367-2.353c1.429,0,2.381,1.036,2.381,2.353
		c0,1.303-0.952,2.312-2.381,2.312C83.403,172.806,82.464,171.797,82.464,170.494z M85.952,170.494c0-0.77-0.476-1.246-1.121-1.246
		c-0.644,0-1.106,0.477-1.106,1.246c0,0.757,0.462,1.219,1.106,1.219C85.476,171.713,85.952,171.251,85.952,170.494z"/>
	<path fill="#363636" d="M91.057,169.248c0-1.919,1.345-3.544,3.572-3.544c2.241,0,3.586,1.625,3.586,3.544
		s-1.345,3.558-3.586,3.558C92.402,172.806,91.057,171.167,91.057,169.248z M96.366,169.248c0-1.051-0.617-1.961-1.737-1.961
		c-1.106,0-1.723,0.91-1.723,1.961c0,1.064,0.616,1.975,1.723,1.975C95.75,171.223,96.366,170.312,96.366,169.248z"/>
	<path fill="#363636" d="M99.667,172.638v-5.211h-1.121v-1.555h1.121v-0.28c0-1.526,0.911-2.438,2.27-2.438
		c0.658,0,1.358,0.183,1.765,0.645l-0.672,1.079c-0.182-0.169-0.42-0.267-0.742-0.267c-0.504,0-0.84,0.322-0.84,0.98v0.28h1.373
		v1.555h-1.373v5.211H99.667z"/>
	<path fill="#363636" d="M106.443,169.248c0-2.073,1.513-3.544,3.586-3.544c1.387,0,2.227,0.603,2.675,1.219l-1.163,1.093
		c-0.322-0.477-0.812-0.729-1.429-0.729c-1.079,0-1.835,0.784-1.835,1.961s0.756,1.975,1.835,1.975c0.616,0,1.106-0.28,1.429-0.742
		l1.163,1.093c-0.448,0.616-1.289,1.232-2.675,1.232C107.956,172.806,106.443,171.335,106.443,169.248z"/>
	<path fill="#363636" d="M118.164,172.638v-4.118c0-0.938-0.49-1.232-1.247-1.232c-0.7,0-1.247,0.392-1.541,0.784v4.566h-1.793
		v-9.343h1.793v3.445c0.435-0.504,1.261-1.036,2.367-1.036c1.485,0,2.199,0.812,2.199,2.129v4.805H118.164z"/>
	<path fill="#363636" d="M121.254,164.079c0-0.588,0.476-1.051,1.051-1.051c0.588,0,1.064,0.463,1.064,1.051
		s-0.476,1.064-1.064,1.064C121.73,165.144,121.254,164.667,121.254,164.079z M121.422,172.638v-6.766h1.779v6.766H121.422z"/>
	<path fill="#363636" d="M124.685,172.638v-9.343h1.779v9.343H124.685z"/>
	<path fill="#363636" d="M132.597,172.638v-0.868c-0.533,0.672-1.261,1.036-2.087,1.036c-1.695,0-2.998-1.288-2.998-3.558
		c0-2.199,1.275-3.544,2.998-3.544c0.798,0,1.555,0.336,2.087,1.036v-3.445h1.793v9.343H132.597z M132.597,170.452v-2.395
		c-0.294-0.448-0.939-0.771-1.527-0.771c-1.023,0-1.723,0.798-1.723,1.961c0,1.177,0.7,1.975,1.723,1.975
		C131.658,171.223,132.303,170.9,132.597,170.452z"/>
	<path fill="#363636" d="M135.871,172.638v-6.766h1.779v0.91c0.49-0.588,1.316-1.078,2.157-1.078v1.736
		c-0.126-0.027-0.28-0.042-0.49-0.042c-0.588,0-1.373,0.337-1.667,0.771v4.469H135.871z"/>
	<path fill="#363636" d="M140.196,169.248c0-1.961,1.457-3.544,3.502-3.544c2.031,0,3.39,1.513,3.39,3.712v0.42h-5.029
		c0.126,0.827,0.799,1.513,1.947,1.513c0.574,0,1.359-0.237,1.793-0.658l0.798,1.177c-0.672,0.616-1.737,0.938-2.788,0.938
		C141.751,172.806,140.196,171.419,140.196,169.248z M143.698,167.161c-1.106,0-1.583,0.771-1.653,1.442h3.333
		C145.323,167.959,144.875,167.161,143.698,167.161z"/>
	<path fill="#363636" d="M152.659,172.638v-4.09c0-0.938-0.49-1.261-1.247-1.261c-0.7,0-1.232,0.392-1.541,0.784v4.566h-1.779
		v-6.766h1.779v0.868c0.434-0.504,1.274-1.036,2.367-1.036c1.499,0,2.213,0.84,2.213,2.157v4.776H152.659z"/>
	<path fill="#363636" d="M156.604,174.557l-0.771-0.63c0.448-0.238,0.967-0.827,1.079-1.317c-0.042,0.015-0.154,0.042-0.266,0.042
		c-0.532,0-0.953-0.42-0.953-1.008c0-0.617,0.504-1.121,1.107-1.121c0.658,0,1.247,0.519,1.247,1.429
		C158.047,173.002,157.473,173.94,156.604,174.557z"/>
	<path fill="#363636" d="M7.945,189.438v-0.715c-0.462,0.561-1.261,0.883-2.143,0.883c-1.079,0-2.339-0.729-2.339-2.241
		c0-1.597,1.261-2.185,2.339-2.185c0.91,0,1.695,0.294,2.143,0.826v-0.854c0-0.687-0.588-1.135-1.485-1.135
		c-0.714,0-1.387,0.28-1.947,0.799l-0.7-1.247c0.826-0.742,1.891-1.064,2.956-1.064c1.555,0,2.97,0.616,2.97,2.563v4.37H7.945z
		 M7.945,187.812v-0.84c-0.294-0.393-0.854-0.603-1.429-0.603c-0.701,0-1.275,0.378-1.275,1.022s0.574,1.009,1.275,1.009
		C7.09,188.401,7.65,188.205,7.945,187.812z"/>
	<path fill="#363636" d="M19.173,189.438v-0.868c-0.533,0.672-1.261,1.036-2.087,1.036c-1.695,0-2.998-1.289-2.998-3.558
		c0-2.199,1.275-3.544,2.998-3.544c0.798,0,1.555,0.336,2.087,1.036v-3.445h1.793v9.343H19.173z M19.173,187.252v-2.395
		c-0.294-0.448-0.938-0.771-1.527-0.771c-1.023,0-1.723,0.798-1.723,1.961c0,1.177,0.7,1.975,1.723,1.975
		C18.234,188.022,18.878,187.7,19.173,187.252z"/>
	<path fill="#363636" d="M22.278,180.879c0-0.588,0.476-1.051,1.051-1.051c0.588,0,1.064,0.463,1.064,1.051
		s-0.477,1.064-1.064,1.064C22.754,181.943,22.278,181.467,22.278,180.879z M22.446,189.438v-6.766h1.779v6.766H22.446z"/>
	<path fill="#363636" d="M25.12,188.555l0.771-1.288c0.504,0.476,1.499,0.938,2.339,0.938c0.771,0,1.135-0.294,1.135-0.715
		c0-1.106-4.006-0.196-4.006-2.857c0-1.135,0.98-2.129,2.773-2.129c1.135,0,2.045,0.392,2.718,0.925l-0.714,1.26
		c-0.406-0.42-1.177-0.784-2.003-0.784c-0.644,0-1.064,0.28-1.064,0.658c0,0.995,4.02,0.154,4.02,2.886
		c0,1.247-1.064,2.157-2.941,2.157C26.969,189.605,25.834,189.213,25.12,188.555z"/>
	<path fill="#363636" d="M32.47,187.742v-3.516H31.35v-1.555h1.121v-1.849h1.779v1.849h1.373v1.555h-1.373v3.04
		c0,0.434,0.225,0.756,0.617,0.756c0.266,0,0.518-0.098,0.616-0.21l0.378,1.358c-0.267,0.238-0.743,0.435-1.485,0.435
		C33.129,189.605,32.47,188.961,32.47,187.742z"/>
	<path fill="#363636" d="M36.558,189.438v-6.766h1.779v0.91c0.49-0.588,1.316-1.078,2.157-1.078v1.736
		c-0.126-0.027-0.28-0.042-0.491-0.042c-0.588,0-1.373,0.337-1.667,0.771v4.469H36.558z"/>
	<path fill="#363636" d="M41.15,180.879c0-0.588,0.476-1.051,1.051-1.051c0.588,0,1.064,0.463,1.064,1.051s-0.476,1.064-1.064,1.064
		C41.626,181.943,41.15,181.467,41.15,180.879z M41.318,189.438v-6.766h1.779v6.766H41.318z"/>
	<path fill="#363636" d="M44.146,186.048c0-2.073,1.513-3.544,3.586-3.544c1.387,0,2.227,0.603,2.675,1.219l-1.163,1.093
		c-0.322-0.477-0.812-0.729-1.429-0.729c-1.079,0-1.835,0.784-1.835,1.961s0.756,1.975,1.835,1.975c0.616,0,1.106-0.28,1.429-0.742
		l1.163,1.093c-0.448,0.616-1.289,1.232-2.675,1.232C45.658,189.605,44.146,188.135,44.146,186.048z"/>
	<path fill="#363636" d="M51.65,187.742v-3.516h-1.121v-1.555h1.121v-1.849h1.779v1.849h1.373v1.555h-1.373v3.04
		c0,0.434,0.225,0.756,0.617,0.756c0.266,0,0.518-0.098,0.616-0.21l0.378,1.358c-0.267,0.238-0.743,0.435-1.485,0.435
		C52.309,189.605,51.65,188.961,51.65,187.742z"/>
	<path fill="#363636" d="M59.055,189.438v-6.766h1.779v0.91c0.49-0.588,1.316-1.078,2.157-1.078v1.736
		c-0.126-0.027-0.28-0.042-0.49-0.042c-0.588,0-1.373,0.337-1.667,0.771v4.469H59.055z"/>
	<path fill="#363636" d="M63.381,186.048c0-1.961,1.457-3.544,3.502-3.544c2.031,0,3.39,1.513,3.39,3.712v0.42h-5.029
		c0.126,0.827,0.799,1.513,1.947,1.513c0.574,0,1.359-0.237,1.793-0.658l0.798,1.177c-0.672,0.616-1.737,0.938-2.788,0.938
		C64.936,189.605,63.381,188.219,63.381,186.048z M66.883,183.961c-1.106,0-1.583,0.77-1.653,1.442h3.333
		C68.508,184.759,68.06,183.961,66.883,183.961z"/>
	<path fill="#363636" d="M70.829,186.048c0-2.256,1.261-3.544,2.984-3.544c0.826,0,1.569,0.364,2.087,1.022v-0.854h1.793v9.343
		h-1.793v-3.445c-0.546,0.7-1.274,1.036-2.087,1.036C72.089,189.605,70.829,188.303,70.829,186.048z M75.899,187.238v-2.381
		c-0.294-0.448-0.938-0.771-1.527-0.771c-1.008,0-1.709,0.798-1.709,1.961c0,1.177,0.701,1.975,1.709,1.975
		C74.961,188.022,75.605,187.673,75.899,187.238z"/>
	<path fill="#363636" d="M83.726,189.438v-0.854c-0.462,0.504-1.274,1.022-2.381,1.022c-1.485,0-2.186-0.812-2.186-2.129v-4.805
		h1.779v4.104c0,0.938,0.49,1.246,1.247,1.246c0.686,0,1.232-0.378,1.541-0.771v-4.58h1.779v6.766H83.726z"/>
	<path fill="#363636" d="M86.817,180.879c0-0.588,0.476-1.051,1.051-1.051c0.588,0,1.064,0.463,1.064,1.051
		s-0.476,1.064-1.064,1.064C87.293,181.943,86.817,181.467,86.817,180.879z M86.985,189.438v-6.766h1.779v6.766H86.985z"/>
	<path fill="#363636" d="M90.247,189.438v-6.766h1.779v0.91c0.49-0.588,1.316-1.078,2.157-1.078v1.736
		c-0.126-0.027-0.28-0.042-0.491-0.042c-0.588,0-1.373,0.337-1.667,0.771v4.469H90.247z"/>
	<path fill="#363636" d="M94.573,186.048c0-1.961,1.457-3.544,3.502-3.544c2.031,0,3.39,1.513,3.39,3.712v0.42h-5.029
		c0.126,0.827,0.799,1.513,1.947,1.513c0.574,0,1.359-0.237,1.793-0.658l0.798,1.177c-0.672,0.616-1.737,0.938-2.788,0.938
		C96.128,189.605,94.573,188.219,94.573,186.048z M98.075,183.961c-1.106,0-1.583,0.77-1.653,1.442h3.333
		C99.7,184.759,99.252,183.961,98.075,183.961z"/>
	<path fill="#363636" d="M101.88,188.555l0.771-1.288c0.504,0.476,1.499,0.938,2.339,0.938c0.771,0,1.135-0.294,1.135-0.715
		c0-1.106-4.006-0.196-4.006-2.857c0-1.135,0.98-2.129,2.773-2.129c1.135,0,2.045,0.392,2.718,0.925l-0.714,1.26
		c-0.406-0.42-1.177-0.784-2.003-0.784c-0.644,0-1.064,0.28-1.064,0.658c0,0.995,4.02,0.154,4.02,2.886
		c0,1.247-1.064,2.157-2.941,2.157C103.729,189.605,102.595,189.213,101.88,188.555z"/>
	<path fill="#363636" d="M10.382,206.238l-0.588-1.583H5.788l-0.588,1.583H2.944l3.6-9.343h2.493l3.6,9.343H10.382z M7.791,198.885
		l-1.457,4.02h2.914L7.791,198.885z"/>
	<path fill="#363636" d="M13.865,208.157l-0.771-0.63c0.448-0.238,0.967-0.827,1.079-1.317c-0.042,0.015-0.154,0.042-0.266,0.042
		c-0.532,0-0.953-0.42-0.953-1.008c0-0.617,0.504-1.121,1.107-1.121c0.658,0,1.247,0.519,1.247,1.429
		C15.308,206.603,14.733,207.541,13.865,208.157z"/>
	<path fill="#363636" d="M16.51,206.238v-9.343h6.612v1.751h-4.623v1.961h4.524v1.751h-4.524v3.88H16.51z"/>
	<path fill="#363636" d="M24.869,208.157l-0.771-0.63c0.448-0.238,0.967-0.827,1.079-1.317c-0.042,0.015-0.154,0.042-0.266,0.042
		c-0.532,0-0.953-0.42-0.953-1.008c0-0.617,0.504-1.121,1.107-1.121c0.658,0,1.247,0.519,1.247,1.429
		C26.312,206.603,25.737,207.541,24.869,208.157z"/>
	<path fill="#363636" d="M27.514,206.238v-9.343h6.612v1.751h-4.623v1.961h4.524v1.751h-4.524v2.129h4.623v1.751H27.514z"/>
	<path fill="#363636" d="M38.503,197.68c0-0.588,0.476-1.051,1.051-1.051c0.588,0,1.064,0.463,1.064,1.051s-0.476,1.064-1.064,1.064
		C38.979,198.744,38.503,198.268,38.503,197.68z M38.671,206.238v-6.766h1.779v6.766H38.671z"/>
	<path fill="#363636" d="M46.5,206.238v-4.09c0-0.938-0.49-1.261-1.247-1.261c-0.7,0-1.232,0.392-1.541,0.784v4.566h-1.779v-6.766
		h1.779v0.868c0.434-0.504,1.274-1.036,2.367-1.036c1.499,0,2.213,0.84,2.213,2.157v4.776H46.5z"/>
	<path fill="#363636" d="M50.124,204.543v-3.516h-1.121v-1.555h1.121v-1.849h1.779v1.849h1.373v1.555h-1.373v3.04
		c0,0.434,0.225,0.756,0.617,0.756c0.266,0,0.518-0.098,0.616-0.21l0.378,1.358c-0.267,0.238-0.743,0.435-1.485,0.435
		C50.782,206.406,50.124,205.762,50.124,204.543z"/>
	<path fill="#363636" d="M53.777,202.849c0-1.961,1.457-3.544,3.502-3.544c2.031,0,3.39,1.513,3.39,3.712v0.42H55.64
		c0.126,0.827,0.799,1.513,1.947,1.513c0.574,0,1.359-0.237,1.793-0.658l0.798,1.177c-0.672,0.616-1.737,0.938-2.788,0.938
		C55.332,206.406,53.777,205.02,53.777,202.849z M57.279,200.762c-1.106,0-1.583,0.77-1.653,1.442h3.333
		C58.904,201.56,58.456,200.762,57.279,200.762z"/>
	<path fill="#363636" d="M61.673,206.238v-6.766h1.779v0.91c0.49-0.588,1.316-1.078,2.157-1.078v1.736
		c-0.126-0.027-0.28-0.042-0.49-0.042c-0.588,0-1.373,0.337-1.667,0.771v4.469H61.673z"/>
	<path fill="#363636" d="M68.184,206.238l-2.717-6.766h1.905l1.765,4.706l1.779-4.706h1.905l-2.718,6.766H68.184z"/>
	<path fill="#363636" d="M72.901,202.849c0-1.961,1.457-3.544,3.502-3.544c2.031,0,3.39,1.513,3.39,3.712v0.42h-5.029
		c0.126,0.827,0.799,1.513,1.947,1.513c0.574,0,1.359-0.237,1.793-0.658l0.798,1.177c-0.672,0.616-1.737,0.938-2.788,0.938
		C74.456,206.406,72.901,205.02,72.901,202.849z M76.403,200.762c-1.106,0-1.583,0.77-1.653,1.442h3.333
		C78.028,201.56,77.58,200.762,76.403,200.762z"/>
	<path fill="#363636" d="M85.363,206.238v-4.09c0-0.938-0.49-1.261-1.247-1.261c-0.7,0-1.232,0.392-1.541,0.784v4.566h-1.779v-6.766
		h1.779v0.868c0.434-0.504,1.274-1.036,2.367-1.036c1.499,0,2.213,0.84,2.213,2.157v4.776H85.363z"/>
	<path fill="#363636" d="M88.987,204.543v-3.516h-1.121v-1.555h1.121v-1.849h1.779v1.849h1.373v1.555h-1.373v3.04
		c0,0.434,0.225,0.756,0.617,0.756c0.266,0,0.518-0.098,0.616-0.21l0.378,1.358c-0.267,0.238-0.743,0.435-1.485,0.435
		C89.646,206.406,88.987,205.762,88.987,204.543z"/>
	<path fill="#363636" d="M92.906,197.68c0-0.588,0.476-1.051,1.051-1.051c0.588,0,1.064,0.463,1.064,1.051s-0.477,1.064-1.064,1.064
		C93.382,198.744,92.906,198.268,92.906,197.68z M93.074,206.238v-6.766h1.779v6.766H93.074z"/>
	<path fill="#363636" d="M95.902,202.849c0-1.919,1.345-3.544,3.572-3.544c2.241,0,3.586,1.625,3.586,3.544
		s-1.345,3.558-3.586,3.558C97.247,206.406,95.902,204.768,95.902,202.849z M101.211,202.849c0-1.051-0.617-1.961-1.737-1.961
		c-1.106,0-1.723,0.91-1.723,1.961c0,1.064,0.616,1.975,1.723,1.975C100.595,204.823,101.211,203.913,101.211,202.849z"/>
	<path fill="#363636" d="M108.673,206.238v-4.09c0-0.938-0.49-1.261-1.247-1.261c-0.7,0-1.232,0.392-1.541,0.784v4.566h-1.779
		v-6.766h1.779v0.868c0.434-0.504,1.274-1.036,2.367-1.036c1.499,0,2.213,0.84,2.213,2.157v4.776H108.673z"/>
	<path fill="#363636" d="M111.344,205.355l0.771-1.288c0.504,0.476,1.499,0.938,2.339,0.938c0.771,0,1.135-0.294,1.135-0.715
		c0-1.106-4.006-0.196-4.006-2.857c0-1.135,0.98-2.129,2.773-2.129c1.135,0,2.045,0.392,2.718,0.925l-0.714,1.26
		c-0.406-0.42-1.177-0.784-2.003-0.784c-0.644,0-1.064,0.28-1.064,0.658c0,0.995,4.02,0.154,4.02,2.886
		c0,1.247-1.064,2.157-2.941,2.157C113.193,206.406,112.059,206.014,111.344,205.355z"/>
</g>
<g>
	<g>
		<path fill="#363636" d="M585.383,155.838l-0.589-1.583h-4.006l-0.589,1.583h-2.255l3.601-9.343h2.492l3.601,9.343H585.383z
			 M582.791,148.484l-1.457,4.02h2.914L582.791,148.484z"/>
		<path fill="#363636" d="M592.745,155.838v-4.09c0-0.938-0.49-1.261-1.247-1.261c-0.699,0-1.232,0.393-1.54,0.785v4.566h-1.779
			v-6.766h1.779v0.869c0.435-0.504,1.274-1.037,2.367-1.037c1.499,0,2.213,0.84,2.213,2.157v4.776H592.745z"/>
		<path fill="#363636" d="M596.033,156.889c0.153,0.07,0.392,0.112,0.56,0.112c0.462,0,0.771-0.127,0.938-0.491l0.252-0.588
			l-2.745-6.85h1.905l1.765,4.706l1.778-4.706h1.906l-3.18,7.872c-0.505,1.274-1.401,1.611-2.564,1.639
			c-0.195,0-0.658-0.042-0.868-0.111L596.033,156.889z"/>
		<path fill="#363636" d="M602.473,152.448c0-1.919,1.344-3.544,3.571-3.544c2.241,0,3.586,1.625,3.586,3.544
			c0,1.919-1.345,3.558-3.586,3.558C603.816,156.006,602.473,154.367,602.473,152.448z M607.781,152.448
			c0-1.051-0.617-1.961-1.737-1.961c-1.106,0-1.723,0.911-1.723,1.961c0,1.064,0.616,1.975,1.723,1.975
			C607.164,154.423,607.781,153.513,607.781,152.448z"/>
		<path fill="#363636" d="M615.242,155.838v-4.09c0-0.938-0.49-1.261-1.246-1.261c-0.701,0-1.232,0.393-1.541,0.785v4.566h-1.779
			v-6.766h1.779v0.869c0.434-0.504,1.274-1.037,2.367-1.037c1.498,0,2.213,0.84,2.213,2.157v4.776H615.242z"/>
		<path fill="#363636" d="M618.068,152.448c0-1.961,1.457-3.544,3.502-3.544c2.031,0,3.389,1.513,3.389,3.712v0.42h-5.028
			c0.126,0.827,0.799,1.513,1.947,1.513c0.574,0,1.358-0.237,1.793-0.658l0.798,1.177c-0.672,0.616-1.736,0.938-2.787,0.938
			C619.623,156.006,618.068,154.619,618.068,152.448z M621.57,150.361c-1.107,0-1.584,0.771-1.653,1.443h3.333
			C623.195,151.159,622.746,150.361,621.57,150.361z"/>
		<path fill="#363636" d="M635.221,155.838l-1.429-4.608l-1.429,4.608h-1.905l-2.06-6.766h1.85l1.261,4.553l1.485-4.553h1.582
			l1.484,4.553l1.262-4.553h1.862l-2.06,6.766H635.221z"/>
		<path fill="#363636" d="M639.613,147.279c0-0.588,0.476-1.051,1.051-1.051c0.588,0,1.064,0.462,1.064,1.051
			s-0.477,1.064-1.064,1.064C640.089,148.344,639.613,147.868,639.613,147.279z M639.781,155.838v-6.766h1.779v6.766H639.781z"/>
		<path fill="#363636" d="M643.407,154.143v-3.516h-1.12v-1.555h1.12v-1.849h1.778v1.849h1.373v1.555h-1.373v3.04
			c0,0.434,0.225,0.756,0.617,0.756c0.266,0,0.518-0.098,0.616-0.21l0.378,1.358c-0.266,0.238-0.742,0.435-1.484,0.435
			C644.066,156.006,643.407,155.361,643.407,154.143z"/>
		<path fill="#363636" d="M652.076,155.838v-4.118c0-0.938-0.49-1.233-1.247-1.233c-0.7,0-1.247,0.393-1.541,0.785v4.566h-1.793
			v-9.343h1.793v3.446c0.435-0.504,1.261-1.037,2.368-1.037c1.484,0,2.198,0.812,2.198,2.129v4.805H652.076z"/>
		<path fill="#363636" d="M660.852,155.838v-7.592h-2.731v-1.751h7.452v1.751h-2.717v7.592H660.852z"/>
		<path fill="#363636" d="M668.719,155.838v-7.592h-2.73v-1.751h7.451v1.751h-2.717v7.592H668.719z"/>
		<path fill="#363636" d="M677.705,155.838v-6.766h1.779v0.911c0.49-0.588,1.316-1.079,2.158-1.079v1.737
			c-0.127-0.028-0.281-0.042-0.491-0.042c-0.588,0-1.372,0.336-1.667,0.771v4.468H677.705z"/>
		<path fill="#363636" d="M682.031,152.448c0-1.961,1.457-3.544,3.502-3.544c2.031,0,3.39,1.513,3.39,3.712v0.42h-5.028
			c0.126,0.827,0.799,1.513,1.947,1.513c0.574,0,1.358-0.237,1.793-0.658l0.798,1.177c-0.673,0.616-1.737,0.938-2.788,0.938
			C683.586,156.006,682.031,154.619,682.031,152.448z M685.533,150.361c-1.106,0-1.583,0.771-1.652,1.443h3.333
			C687.158,151.159,686.71,150.361,685.533,150.361z"/>
		<path fill="#363636" d="M689.479,152.448c0-2.255,1.262-3.544,2.984-3.544c0.826,0,1.568,0.364,2.087,1.022v-0.854h1.793v9.343
			h-1.793v-3.445c-0.546,0.7-1.274,1.036-2.087,1.036C690.74,156.006,689.479,154.703,689.479,152.448z M694.55,153.639v-2.381
			c-0.294-0.448-0.938-0.771-1.526-0.771c-1.009,0-1.709,0.799-1.709,1.961c0,1.177,0.7,1.975,1.709,1.975
			C693.611,154.423,694.256,154.073,694.55,153.639z"/>
		<path fill="#363636" d="M702.375,155.838v-0.854c-0.461,0.504-1.273,1.022-2.381,1.022c-1.484,0-2.186-0.812-2.186-2.129v-4.805
			h1.779v4.104c0,0.939,0.49,1.247,1.247,1.247c0.687,0,1.232-0.378,1.54-0.771v-4.58h1.779v6.766H702.375z"/>
		<path fill="#363636" d="M705.467,147.279c0-0.588,0.477-1.051,1.051-1.051c0.588,0,1.064,0.462,1.064,1.051
			s-0.477,1.064-1.064,1.064C705.943,148.344,705.467,147.868,705.467,147.279z M705.635,155.838v-6.766h1.779v6.766H705.635z"/>
		<path fill="#363636" d="M708.896,155.838v-6.766h1.779v0.911c0.49-0.588,1.316-1.079,2.158-1.079v1.737
			c-0.127-0.028-0.281-0.042-0.491-0.042c-0.588,0-1.372,0.336-1.667,0.771v4.468H708.896z"/>
		<path fill="#363636" d="M713.223,152.448c0-1.961,1.457-3.544,3.502-3.544c2.031,0,3.391,1.513,3.391,3.712v0.42h-5.029
			c0.127,0.827,0.799,1.513,1.947,1.513c0.574,0,1.359-0.237,1.793-0.658l0.799,1.177c-0.673,0.616-1.737,0.938-2.788,0.938
			C714.777,156.006,713.223,154.619,713.223,152.448z M716.725,150.361c-1.105,0-1.582,0.771-1.652,1.443h3.334
			C718.35,151.159,717.902,150.361,716.725,150.361z"/>
		<path fill="#363636" d="M720.53,154.955l0.771-1.288c0.504,0.476,1.499,0.938,2.34,0.938c0.77,0,1.135-0.294,1.135-0.715
			c0-1.106-4.007-0.196-4.007-2.857c0-1.135,0.98-2.129,2.773-2.129c1.135,0,2.046,0.392,2.718,0.924l-0.715,1.261
			c-0.406-0.42-1.176-0.785-2.003-0.785c-0.644,0-1.064,0.28-1.064,0.659c0,0.995,4.021,0.154,4.021,2.885
			c0,1.247-1.064,2.157-2.941,2.157C722.379,156.006,721.244,155.613,720.53,154.955z"/>
		<path fill="#363636" d="M578.281,171.321l1.092-1.555c0.658,0.686,1.682,1.274,2.97,1.274c1.106,0,1.625-0.49,1.625-1.037
			c0-1.625-5.379-0.49-5.379-4.006c0-1.555,1.345-2.844,3.544-2.844c1.484,0,2.717,0.448,3.643,1.303l-1.107,1.485
			c-0.756-0.7-1.765-1.022-2.717-1.022c-0.841,0-1.317,0.364-1.317,0.924c0,1.471,5.365,0.477,5.365,3.965
			c0,1.709-1.233,2.997-3.74,2.997C580.451,172.806,579.163,172.203,578.281,171.321z"/>
		<path fill="#363636" d="M590.152,164.079c0-0.588,0.477-1.051,1.051-1.051c0.588,0,1.064,0.463,1.064,1.051
			s-0.477,1.064-1.064,1.064C590.629,165.144,590.152,164.667,590.152,164.079z M590.32,172.638v-6.766h1.779v6.766H590.32z"/>
		<path fill="#363636" d="M598.148,172.638v-4.09c0-0.938-0.49-1.261-1.246-1.261c-0.7,0-1.232,0.392-1.541,0.784v4.566h-1.779
			v-6.766h1.779v0.868c0.435-0.504,1.275-1.036,2.367-1.036c1.499,0,2.213,0.84,2.213,2.157v4.776H598.148z"/>
		<path fill="#363636" d="M601.772,170.942v-3.516h-1.12v-1.555h1.12v-1.849h1.778v1.849h1.373v1.555h-1.373v3.04
			c0,0.434,0.225,0.756,0.617,0.756c0.266,0,0.518-0.098,0.616-0.21l0.378,1.358c-0.266,0.238-0.742,0.435-1.484,0.435
			C602.432,172.806,601.772,172.161,601.772,170.942z"/>
		<path fill="#363636" d="M605.426,169.248c0-1.961,1.457-3.544,3.502-3.544c2.031,0,3.391,1.513,3.391,3.712v0.42h-5.029
			c0.127,0.827,0.799,1.513,1.947,1.513c0.574,0,1.359-0.237,1.793-0.658l0.799,1.177c-0.673,0.616-1.737,0.938-2.788,0.938
			C606.98,172.806,605.426,171.419,605.426,169.248z M608.928,167.161c-1.105,0-1.582,0.771-1.652,1.442h3.334
			C610.553,167.959,610.105,167.161,608.928,167.161z"/>
		<path fill="#363636" d="M613.322,172.638v-6.766h1.779v0.91c0.49-0.588,1.316-1.078,2.156-1.078v1.736
			c-0.126-0.027-0.279-0.042-0.49-0.042c-0.588,0-1.373,0.337-1.666,0.771v4.469H613.322z"/>
		<path fill="#363636" d="M619.833,172.638l-2.718-6.766h1.905l1.765,4.706l1.779-4.706h1.905l-2.718,6.766H619.833z"/>
		<path fill="#363636" d="M624.549,169.248c0-1.961,1.457-3.544,3.502-3.544c2.031,0,3.391,1.513,3.391,3.712v0.42h-5.029
			c0.127,0.827,0.799,1.513,1.947,1.513c0.574,0,1.359-0.237,1.793-0.658l0.799,1.177c-0.673,0.616-1.737,0.938-2.788,0.938
			C626.104,172.806,624.549,171.419,624.549,169.248z M628.051,167.161c-1.105,0-1.582,0.771-1.652,1.442h3.334
			C629.676,167.959,629.229,167.161,628.051,167.161z"/>
		<path fill="#363636" d="M637.012,172.638v-4.09c0-0.938-0.49-1.261-1.246-1.261c-0.701,0-1.232,0.392-1.541,0.784v4.566h-1.779
			v-6.766h1.779v0.868c0.434-0.504,1.274-1.036,2.367-1.036c1.498,0,2.213,0.84,2.213,2.157v4.776H637.012z"/>
		<path fill="#363636" d="M640.636,170.942v-3.516h-1.12v-1.555h1.12v-1.849h1.778v1.849h1.373v1.555h-1.373v3.04
			c0,0.434,0.225,0.756,0.617,0.756c0.266,0,0.518-0.098,0.616-0.21l0.378,1.358c-0.266,0.238-0.742,0.435-1.484,0.435
			C641.295,172.806,640.636,172.161,640.636,170.942z"/>
		<path fill="#363636" d="M644.555,164.079c0-0.588,0.477-1.051,1.051-1.051c0.588,0,1.064,0.463,1.064,1.051
			s-0.477,1.064-1.064,1.064C645.031,165.144,644.555,164.667,644.555,164.079z M644.723,172.638v-6.766h1.779v6.766H644.723z"/>
		<path fill="#363636" d="M647.551,169.248c0-1.919,1.346-3.544,3.572-3.544c2.241,0,3.586,1.625,3.586,3.544
			s-1.345,3.558-3.586,3.558C648.896,172.806,647.551,171.167,647.551,169.248z M652.86,169.248c0-1.051-0.616-1.961-1.737-1.961
			c-1.106,0-1.723,0.91-1.723,1.961c0,1.064,0.616,1.975,1.723,1.975C652.244,171.223,652.86,170.312,652.86,169.248z"/>
		<path fill="#363636" d="M660.321,172.638v-4.09c0-0.938-0.49-1.261-1.247-1.261c-0.699,0-1.232,0.392-1.54,0.784v4.566h-1.779
			v-6.766h1.779v0.868c0.435-0.504,1.274-1.036,2.367-1.036c1.499,0,2.213,0.84,2.213,2.157v4.776H660.321z"/>
	</g>
</g>
<rect x="768" fill="#181716" stroke="#FFFFFF" stroke-width="2" stroke-miterlimit="10" width="192" height="137"/>
<g>
	<path fill="#FFFFFF" d="M807.041,36.362c0-8.239,6.239-13.798,14.438-13.798c6.439,0,9.918,3.639,11.639,7.119l-5.92,2.839
		c-0.879-2.12-3.158-3.879-5.719-3.879c-4.359,0-7.438,3.32-7.438,7.719c0,4.358,3.079,7.719,7.438,7.719
		c2.561,0,4.84-1.76,5.719-3.88l5.92,2.8c-1.721,3.399-5.199,7.158-11.639,7.158C813.28,50.159,807.041,44.561,807.041,36.362z"/>
	<path fill="#FFFFFF" d="M833.922,36.362c0-8.119,6.118-13.798,14.277-13.798c8.158,0,14.237,5.679,14.237,13.798
		c0,8.118-6.079,13.797-14.237,13.797C840.04,50.159,833.922,44.48,833.922,36.362z M855.438,36.362c0-4.359-2.84-7.719-7.238-7.719
		c-4.4,0-7.279,3.36-7.279,7.719c0,4.319,2.879,7.719,7.279,7.719C852.598,44.081,855.438,40.682,855.438,36.362z"/>
	<path fill="#FFFFFF" d="M806.47,108.483c0-3.709,2.809-6.212,6.5-6.212c2.899,0,4.466,1.639,5.239,3.205l-2.664,1.278
		c-0.396-0.954-1.423-1.746-2.575-1.746c-1.963,0-3.349,1.494-3.349,3.475c0,1.963,1.386,3.476,3.349,3.476
		c1.152,0,2.179-0.793,2.575-1.747l2.664,1.261c-0.773,1.53-2.34,3.223-5.239,3.223C809.278,114.695,806.47,112.175,806.47,108.483z
		"/>
	<path fill="#FFFFFF" d="M818.547,110.122c0-2.448,1.766-4.556,4.718-4.556c2.989,0,4.753,2.107,4.753,4.556
		c0,2.449-1.764,4.573-4.753,4.573C820.312,114.695,818.547,112.571,818.547,110.122z M825.174,110.122
		c0-1.152-0.685-2.106-1.909-2.106c-1.188,0-1.872,0.954-1.872,2.106c0,1.171,0.684,2.125,1.872,2.125
		C824.489,112.247,825.174,111.293,825.174,110.122z"/>
	<path fill="#FFFFFF" d="M829.113,114.479v-8.696h2.772v1.062c0.576-0.703,1.692-1.297,2.719-1.297v2.665
		c-0.162-0.055-0.396-0.072-0.685-0.072c-0.72,0-1.674,0.306-2.034,0.792v5.546H829.113z"/>
	<path fill="#FFFFFF" d="M841.391,114.479v-5.023c0-1.062-0.559-1.44-1.422-1.44c-0.828,0-1.369,0.45-1.693,0.846v5.618h-2.772
		v-8.696h2.772v1.062c0.522-0.612,1.549-1.279,3.025-1.279c1.963,0,2.863,1.152,2.863,2.755v6.158H841.391z"/>
	<path fill="#FFFFFF" d="M845.259,110.122c0-2.521,1.891-4.556,4.609-4.556c2.575,0,4.447,1.891,4.447,4.844v0.63h-6.194
		c0.199,0.774,0.919,1.423,2.18,1.423c0.611,0,1.62-0.271,2.124-0.738l1.206,1.818c-0.863,0.774-2.305,1.152-3.637,1.152
		C847.312,114.695,845.259,112.949,845.259,110.122z M849.868,107.8c-1.206,0-1.675,0.72-1.782,1.351h3.582
		C851.597,108.538,851.146,107.8,849.868,107.8z"/>
	<path fill="#FFFFFF" d="M860.452,114.479v-0.864c-0.54,0.648-1.585,1.08-2.7,1.08c-1.333,0-2.989-0.918-2.989-2.862
		c0-2.106,1.656-2.81,2.989-2.81c1.152,0,2.178,0.379,2.7,1.026v-0.864c0-0.756-0.647-1.278-1.765-1.278
		c-0.863,0-1.729,0.343-2.43,0.937l-1.027-1.927c1.117-0.954,2.611-1.351,3.943-1.351c2.089,0,4.051,0.774,4.051,3.476v5.438
		H860.452z M860.452,112.247v-0.774c-0.288-0.414-0.937-0.612-1.548-0.612c-0.721,0-1.387,0.324-1.387,1.009
		c0,0.684,0.666,1.008,1.387,1.008C859.516,112.877,860.164,112.661,860.452,112.247z"/>
	<path fill="#FFFFFF" d="M864.879,114.479v-12.01h2.772v12.01H864.879z"/>
	<path fill="#FFFFFF" d="M873.014,108.483c0-3.655,2.756-6.212,6.428-6.212c3.674,0,6.41,2.557,6.41,6.212s-2.736,6.212-6.41,6.212
		C875.77,114.695,873.014,112.139,873.014,108.483z M882.701,108.483c0-1.962-1.279-3.475-3.26-3.475s-3.276,1.513-3.276,3.475
		c0,1.945,1.296,3.476,3.276,3.476S882.701,110.429,882.701,108.483z"/>
	<path fill="#FFFFFF" d="M889.754,113.453v4.34h-2.772v-12.01h2.772v1.008c0.685-0.828,1.585-1.225,2.575-1.225
		c2.179,0,3.817,1.621,3.817,4.556c0,2.953-1.639,4.573-3.817,4.573C891.357,114.695,890.475,114.317,889.754,113.453z
		 M893.319,110.122c0-1.296-0.828-2.106-1.909-2.106c-0.594,0-1.314,0.324-1.656,0.792v2.647c0.342,0.449,1.062,0.792,1.656,0.792
		C892.491,112.247,893.319,111.437,893.319,110.122z"/>
	<path fill="#FFFFFF" d="M902.354,114.479v-0.864c-0.54,0.648-1.585,1.08-2.7,1.08c-1.333,0-2.989-0.918-2.989-2.862
		c0-2.106,1.656-2.81,2.989-2.81c1.152,0,2.178,0.379,2.7,1.026v-0.864c0-0.756-0.647-1.278-1.765-1.278
		c-0.863,0-1.729,0.343-2.43,0.937l-1.027-1.927c1.117-0.954,2.611-1.351,3.943-1.351c2.089,0,4.051,0.774,4.051,3.476v5.438
		H902.354z M902.354,112.247v-0.774c-0.288-0.414-0.937-0.612-1.548-0.612c-0.721,0-1.387,0.324-1.387,1.009
		c0,0.684,0.666,1.008,1.387,1.008C901.418,112.877,902.066,112.661,902.354,112.247z"/>
	<path fill="#FFFFFF" d="M906.223,110.122c0-2.719,2.018-4.556,4.736-4.556c1.891,0,3.043,0.829,3.564,1.603l-1.801,1.675
		c-0.342-0.504-0.9-0.828-1.639-0.828c-1.152,0-2.034,0.792-2.034,2.106s0.882,2.125,2.034,2.125c0.738,0,1.297-0.36,1.639-0.847
		l1.801,1.692c-0.521,0.757-1.674,1.603-3.564,1.603C908.24,114.695,906.223,112.841,906.223,110.122z"/>
	<path fill="#FFFFFF" d="M915.223,103.406c0-0.883,0.703-1.585,1.585-1.585s1.603,0.702,1.603,1.585
		c0,0.882-0.721,1.603-1.603,1.603S915.223,104.288,915.223,103.406z M915.422,114.479v-8.696h2.772v8.696H915.422z"/>
	<path fill="#FFFFFF" d="M920.426,112.139v-3.961h-1.441v-2.395h1.441v-2.377h2.772v2.377h1.765v2.395h-1.765v3.187
		c0,0.505,0.288,0.883,0.757,0.883c0.305,0,0.611-0.108,0.701-0.216l0.541,2.088c-0.343,0.324-1.027,0.576-2.053,0.576
		C921.379,114.695,920.426,113.813,920.426,112.139z"/>
	<path fill="#FFFFFF" d="M926.186,115.397c0.197,0.108,0.467,0.162,0.684,0.162c0.63,0,1.026-0.126,1.188-0.486l0.199-0.468
		l-3.476-8.822h2.917l1.98,5.51l1.963-5.51h2.935l-3.925,9.938c-0.703,1.837-1.999,2.251-3.674,2.287
		c-0.252,0-0.9-0.055-1.188-0.145L926.186,115.397z"/>
</g>
<polygon fill="#2C2136" stroke="#FFFFFF" stroke-width="2" stroke-miterlimit="10" points="795.491,65.5 768,38.009 768,0 576,0 
	576,137 768,137 768,92.991 "/>
<polygon fill="#3C2A4F" stroke="#FFFFFF" stroke-width="2" stroke-miterlimit="10" points="603.491,65.5 576,38.009 576,0 384,0 
	384,137 576,137 576,92.991 "/>
<g>
	<path fill="#FFFFFF" d="M630.359,49.68V29.003h-7.479v-5.999h21.797v5.999h-7.439V49.68H630.359z"/>
	<path fill="#FFFFFF" d="M653.119,49.68V29.003h-7.479v-5.999h21.797v5.999h-7.439V49.68H653.119z"/>
	<path fill="#FFFFFF" d="M625.765,92.88v-9.309h-3.367V80.87h9.813v2.701h-3.35v9.309H625.765z"/>
	<path fill="#FFFFFF" d="M633.252,92.88v-8.696h2.772v1.062c0.576-0.703,1.692-1.297,2.719-1.297v2.665
		c-0.162-0.055-0.396-0.072-0.685-0.072c-0.72,0-1.674,0.306-2.034,0.792v5.546H633.252z"/>
	<path fill="#FFFFFF" d="M644.772,92.88v-0.864c-0.54,0.648-1.585,1.08-2.7,1.08c-1.333,0-2.989-0.918-2.989-2.862
		c0-2.106,1.656-2.81,2.989-2.81c1.152,0,2.178,0.379,2.7,1.026v-0.864c0-0.756-0.647-1.278-1.765-1.278
		c-0.863,0-1.729,0.343-2.43,0.937l-1.027-1.927c1.117-0.954,2.611-1.351,3.943-1.351c2.089,0,4.051,0.774,4.051,3.476v5.438
		H644.772z M644.772,90.647v-0.774c-0.288-0.414-0.937-0.612-1.548-0.612c-0.721,0-1.387,0.324-1.387,1.009
		c0,0.684,0.666,1.008,1.387,1.008C643.836,91.277,644.484,91.062,644.772,90.647z"/>
	<path fill="#FFFFFF" d="M648.641,88.522c0-2.719,2.018-4.556,4.736-4.556c1.891,0,3.043,0.829,3.564,1.603l-1.801,1.675
		c-0.342-0.504-0.9-0.828-1.639-0.828c-1.152,0-2.034,0.792-2.034,2.106s0.882,2.125,2.034,2.125c0.738,0,1.297-0.36,1.639-0.847
		l1.801,1.692c-0.521,0.757-1.674,1.603-3.564,1.603C650.658,93.096,648.641,91.241,648.641,88.522z"/>
	<path fill="#FFFFFF" d="M663.745,92.88v-5.06c0-1.062-0.558-1.404-1.44-1.404c-0.811,0-1.351,0.45-1.674,0.846v5.618h-2.773V80.87
		h2.773v4.376c0.521-0.612,1.548-1.279,3.006-1.279c1.98,0,2.881,1.117,2.881,2.719v6.194H663.745z"/>
	<path fill="#FFFFFF" d="M667.613,88.522c0-2.448,1.765-4.556,4.717-4.556c2.989,0,4.754,2.107,4.754,4.556
		c0,2.449-1.765,4.573-4.754,4.573C669.378,93.096,667.613,90.972,667.613,88.522z M674.239,88.522c0-1.152-0.685-2.106-1.909-2.106
		c-1.188,0-1.872,0.954-1.872,2.106c0,1.171,0.685,2.125,1.872,2.125C673.555,90.647,674.239,89.693,674.239,88.522z"/>
	<path fill="#FFFFFF" d="M689.145,92.88v-5.294c0-0.666-0.324-1.17-1.152-1.17c-0.757,0-1.297,0.486-1.566,0.846v5.618h-2.773
		v-5.294c0-0.666-0.307-1.17-1.135-1.17c-0.756,0-1.277,0.486-1.566,0.846v5.618h-2.772v-8.696h2.772v1.062
		c0.379-0.505,1.494-1.279,2.863-1.279c1.26,0,2.106,0.522,2.467,1.549c0.504-0.756,1.639-1.549,3.007-1.549
		c1.603,0,2.61,0.829,2.61,2.611v6.302H689.145z"/>
	<path fill="#FFFFFF" d="M698.7,92.88v-0.864c-0.54,0.648-1.585,1.08-2.7,1.08c-1.333,0-2.989-0.918-2.989-2.862
		c0-2.106,1.656-2.81,2.989-2.81c1.152,0,2.178,0.379,2.7,1.026v-0.864c0-0.756-0.647-1.278-1.765-1.278
		c-0.863,0-1.729,0.343-2.43,0.937l-1.027-1.927c1.117-0.954,2.611-1.351,3.943-1.351c2.089,0,4.051,0.774,4.051,3.476v5.438H698.7z
		 M698.7,90.647v-0.774c-0.288-0.414-0.937-0.612-1.548-0.612c-0.721,0-1.387,0.324-1.387,1.009c0,0.684,0.666,1.008,1.387,1.008
		C697.764,91.277,698.412,91.062,698.7,90.647z"/>
	<path fill="#FFFFFF" d="M703.703,90.539v-3.961h-1.44v-2.395h1.44v-2.377h2.773v2.377h1.764v2.395h-1.764v3.187
		c0,0.505,0.287,0.883,0.756,0.883c0.306,0,0.611-0.108,0.702-0.216l0.54,2.088c-0.342,0.324-1.026,0.576-2.053,0.576
		C704.657,93.096,703.703,92.214,703.703,90.539z"/>
	<path fill="#FFFFFF" d="M708.688,88.522c0-2.448,1.766-4.556,4.718-4.556c2.989,0,4.753,2.107,4.753,4.556
		c0,2.449-1.764,4.573-4.753,4.573C710.453,93.096,708.688,90.972,708.688,88.522z M715.314,88.522c0-1.152-0.685-2.106-1.909-2.106
		c-1.188,0-1.872,0.954-1.872,2.106c0,1.171,0.684,2.125,1.872,2.125C714.63,90.647,715.314,89.693,715.314,88.522z"/>
	<path fill="#FFFFFF" d="M725.123,92.88v-1.044c-0.539,0.611-1.529,1.26-3.006,1.26c-1.963,0-2.863-1.134-2.863-2.719v-6.193h2.773
		v5.041c0,1.062,0.539,1.423,1.439,1.423c0.793,0,1.332-0.433,1.656-0.847v-5.617h2.773v8.696H725.123z"/>
	<path fill="#FFFFFF" d="M728.812,91.745l1.152-1.98c0.648,0.576,2.034,1.171,3.062,1.171c0.828,0,1.17-0.234,1.17-0.612
		c0-1.08-5.06,0.036-5.06-3.493c0-1.53,1.333-2.863,3.728-2.863c1.477,0,2.7,0.469,3.637,1.152l-1.062,1.963
		c-0.521-0.504-1.512-0.954-2.557-0.954c-0.648,0-1.08,0.252-1.08,0.594c0,0.955,5.041-0.036,5.041,3.529
		c0,1.656-1.459,2.845-3.943,2.845C731.332,93.096,729.73,92.574,728.812,91.745z"/>
	<path fill="#FFFFFF" d="M625.765,114.479v-9.309h-3.367v-2.701h9.813v2.701h-3.35v9.309H625.765z"/>
	<path fill="#FFFFFF" d="M633.252,114.479v-8.696h2.772v1.062c0.576-0.703,1.692-1.297,2.719-1.297v2.665
		c-0.162-0.055-0.396-0.072-0.685-0.072c-0.72,0-1.674,0.306-2.034,0.792v5.546H633.252z"/>
	<path fill="#FFFFFF" d="M639.443,103.406c0-0.883,0.701-1.585,1.584-1.585s1.603,0.702,1.603,1.585c0,0.882-0.72,1.603-1.603,1.603
		S639.443,104.288,639.443,103.406z M639.641,114.479v-8.696h2.773v8.696H639.641z"/>
	<path fill="#FFFFFF" d="M643.512,110.122c0-2.719,2.016-4.556,4.734-4.556c1.891,0,3.043,0.829,3.565,1.603l-1.8,1.675
		c-0.343-0.504-0.9-0.828-1.639-0.828c-1.152,0-2.035,0.792-2.035,2.106s0.883,2.125,2.035,2.125c0.738,0,1.296-0.36,1.639-0.847
		l1.8,1.692c-0.522,0.757-1.675,1.603-3.565,1.603C645.527,114.695,643.512,112.841,643.512,110.122z"/>
	<path fill="#FFFFFF" d="M658.615,114.479v-5.06c0-1.062-0.559-1.404-1.44-1.404c-0.81,0-1.351,0.45-1.675,0.846v5.618h-2.772
		v-12.01h2.772v4.376c0.522-0.612,1.549-1.279,3.008-1.279c1.98,0,2.881,1.117,2.881,2.719v6.194H658.615z"/>
	<path fill="#FFFFFF" d="M662.844,103.406c0-0.883,0.701-1.585,1.584-1.585s1.603,0.702,1.603,1.585c0,0.882-0.72,1.603-1.603,1.603
		S662.844,104.288,662.844,103.406z M663.041,114.479v-8.696h2.773v8.696H663.041z"/>
	<path fill="#FFFFFF" d="M672.6,114.479v-0.864c-0.539,0.648-1.584,1.08-2.7,1.08c-1.333,0-2.989-0.918-2.989-2.862
		c0-2.106,1.656-2.81,2.989-2.81c1.152,0,2.179,0.379,2.7,1.026v-0.864c0-0.756-0.647-1.278-1.764-1.278
		c-0.864,0-1.729,0.343-2.432,0.937l-1.025-1.927c1.116-0.954,2.611-1.351,3.943-1.351c2.088,0,4.051,0.774,4.051,3.476v5.438H672.6
		z M672.6,112.247v-0.774c-0.287-0.414-0.936-0.612-1.548-0.612c-0.72,0-1.386,0.324-1.386,1.009c0,0.684,0.666,1.008,1.386,1.008
		C671.664,112.877,672.312,112.661,672.6,112.247z"/>
	<path fill="#FFFFFF" d="M676.289,113.345l1.152-1.98c0.648,0.576,2.034,1.171,3.061,1.171c0.828,0,1.17-0.234,1.17-0.612
		c0-1.08-5.059,0.036-5.059-3.493c0-1.53,1.332-2.863,3.727-2.863c1.477,0,2.701,0.469,3.637,1.152l-1.062,1.963
		c-0.521-0.504-1.512-0.954-2.557-0.954c-0.648,0-1.08,0.252-1.08,0.594c0,0.955,5.041-0.036,5.041,3.529
		c0,1.656-1.457,2.845-3.942,2.845C678.81,114.695,677.207,114.174,676.289,113.345z"/>
	<path fill="#FFFFFF" d="M685.181,103.406c0-0.883,0.702-1.585,1.585-1.585c0.882,0,1.602,0.702,1.602,1.585
		c0,0.882-0.72,1.603-1.602,1.603C685.883,105.009,685.181,104.288,685.181,103.406z M685.379,114.479v-8.696h2.773v8.696H685.379z"
		/>
	<path fill="#FFFFFF" d="M689.068,113.345l1.152-1.98c0.648,0.576,2.035,1.171,3.061,1.171c0.828,0,1.171-0.234,1.171-0.612
		c0-1.08-5.06,0.036-5.06-3.493c0-1.53,1.332-2.863,3.727-2.863c1.477,0,2.701,0.469,3.638,1.152l-1.062,1.963
		c-0.522-0.504-1.513-0.954-2.557-0.954c-0.648,0-1.081,0.252-1.081,0.594c0,0.955,5.042-0.036,5.042,3.529
		c0,1.656-1.458,2.845-3.942,2.845C691.59,114.695,689.986,114.174,689.068,113.345z"/>
</g>
<polygon fill="#563779" stroke="#FFFFFF" stroke-width="2" stroke-miterlimit="10" points="411.491,65.5 384,38.009 384,0 192,0 
	192,137 384,137 384,92.991 "/>
<polygon fill="#653F91" stroke="#FFFFFF" stroke-width="2" stroke-miterlimit="10" points="219.491,65.5 192,38.009 192,0 0,0 
	0,137 192,137 192,92.991 "/>
<g>
	<path fill="#FFFFFF" d="M44.359,49.68V29.003h-7.479v-5.999h21.796v5.999h-7.439V49.68H44.359z"/>
	<path fill="#FFFFFF" d="M61.16,49.68V23.004h19.557v5.999H68.039v4.159h12.398v5.999H68.039V49.68H61.16z"/>
	<path fill="#FFFFFF" d="M39.764,71.279v-9.309h-3.367V59.27h9.813v2.701h-3.349v9.309H39.764z"/>
	<path fill="#FFFFFF" d="M47.251,71.279v-8.696h2.773v1.062c0.576-0.702,1.692-1.296,2.719-1.296v2.665
		c-0.162-0.055-0.396-0.072-0.684-0.072c-0.72,0-1.675,0.306-2.035,0.792v5.546H47.251z"/>
	<path fill="#FFFFFF" d="M58.772,71.279v-0.864c-0.54,0.648-1.584,1.08-2.701,1.08c-1.333,0-2.989-0.918-2.989-2.862
		c0-2.107,1.656-2.81,2.989-2.81c1.152,0,2.179,0.379,2.701,1.026v-0.864c0-0.756-0.648-1.278-1.764-1.278
		c-0.864,0-1.729,0.343-2.431,0.937l-1.026-1.927c1.116-0.954,2.61-1.351,3.943-1.351c2.089,0,4.051,0.774,4.051,3.476v5.438H58.772
		z M58.772,69.047v-0.774c-0.288-0.414-0.936-0.612-1.548-0.612c-0.72,0-1.386,0.324-1.386,1.009c0,0.684,0.666,1.008,1.386,1.008
		C57.836,69.677,58.484,69.461,58.772,69.047z"/>
	<path fill="#FFFFFF" d="M62.641,66.922c0-2.719,2.017-4.556,4.735-4.556c1.891,0,3.043,0.829,3.565,1.603l-1.8,1.675
		c-0.342-0.504-0.9-0.828-1.639-0.828c-1.152,0-2.035,0.792-2.035,2.106s0.882,2.125,2.035,2.125c0.738,0,1.296-0.36,1.639-0.847
		l1.8,1.692c-0.522,0.757-1.674,1.603-3.565,1.603C64.657,71.495,62.641,69.641,62.641,66.922z"/>
	<path fill="#FFFFFF" d="M77.745,71.279v-5.06c0-1.062-0.558-1.404-1.44-1.404c-0.81,0-1.351,0.45-1.674,0.847v5.617h-2.773V59.27
		h2.773v4.375c0.522-0.611,1.548-1.278,3.007-1.278c1.98,0,2.881,1.117,2.881,2.72v6.193H77.745z"/>
	<path fill="#FFFFFF" d="M81.613,66.922c0-2.448,1.765-4.556,4.717-4.556c2.989,0,4.753,2.107,4.753,4.556
		c0,2.449-1.765,4.573-4.753,4.573C83.377,71.495,81.613,69.371,81.613,66.922z M88.239,66.922c0-1.152-0.684-2.106-1.909-2.106
		c-1.188,0-1.873,0.954-1.873,2.106c0,1.171,0.684,2.125,1.873,2.125C87.555,69.047,88.239,68.093,88.239,66.922z"/>
	<path fill="#FFFFFF" d="M103.144,71.279v-5.294c0-0.666-0.324-1.17-1.152-1.17c-0.756,0-1.296,0.486-1.566,0.847v5.617h-2.773
		v-5.294c0-0.666-0.306-1.17-1.134-1.17c-0.756,0-1.278,0.486-1.566,0.847v5.617h-2.773v-8.696h2.773v1.062
		c0.378-0.504,1.494-1.278,2.863-1.278c1.26,0,2.106,0.522,2.467,1.549c0.504-0.756,1.638-1.549,3.007-1.549
		c1.603,0,2.611,0.829,2.611,2.611v6.302H103.144z"/>
	<path fill="#FFFFFF" d="M112.7,71.279v-0.864c-0.54,0.648-1.584,1.08-2.701,1.08c-1.333,0-2.989-0.918-2.989-2.862
		c0-2.107,1.656-2.81,2.989-2.81c1.152,0,2.179,0.379,2.701,1.026v-0.864c0-0.756-0.648-1.278-1.764-1.278
		c-0.864,0-1.729,0.343-2.431,0.937l-1.026-1.927c1.116-0.954,2.61-1.351,3.943-1.351c2.089,0,4.051,0.774,4.051,3.476v5.438H112.7z
		 M112.7,69.047v-0.774c-0.288-0.414-0.936-0.612-1.548-0.612c-0.72,0-1.386,0.324-1.386,1.009c0,0.684,0.666,1.008,1.386,1.008
		C111.764,69.677,112.412,69.461,112.7,69.047z"/>
	<path fill="#FFFFFF" d="M117.703,68.938v-3.961h-1.44v-2.395h1.44v-2.377h2.773v2.377h1.765v2.395h-1.765v3.187
		c0,0.505,0.288,0.883,0.756,0.883c0.306,0,0.612-0.108,0.703-0.217l0.54,2.089c-0.342,0.324-1.026,0.576-2.053,0.576
		C118.657,71.495,117.703,70.613,117.703,68.938z"/>
	<path fill="#FFFFFF" d="M122.688,66.922c0-2.448,1.765-4.556,4.717-4.556c2.989,0,4.753,2.107,4.753,4.556
		c0,2.449-1.765,4.573-4.753,4.573C124.452,71.495,122.688,69.371,122.688,66.922z M129.313,66.922c0-1.152-0.684-2.106-1.909-2.106
		c-1.188,0-1.873,0.954-1.873,2.106c0,1.171,0.684,2.125,1.873,2.125C128.629,69.047,129.313,68.093,129.313,66.922z"/>
	<path fill="#FFFFFF" d="M139.123,71.279v-1.044c-0.54,0.612-1.53,1.26-3.007,1.26c-1.962,0-2.863-1.134-2.863-2.719v-6.193h2.773
		v5.041c0,1.062,0.54,1.423,1.44,1.423c0.792,0,1.332-0.433,1.656-0.847v-5.617h2.773v8.696H139.123z"/>
	<path fill="#FFFFFF" d="M142.811,70.145l1.152-1.98c0.648,0.576,2.035,1.171,3.061,1.171c0.828,0,1.17-0.234,1.17-0.612
		c0-1.08-5.06,0.036-5.06-3.493c0-1.53,1.333-2.863,3.727-2.863c1.477,0,2.701,0.469,3.637,1.152l-1.062,1.963
		c-0.522-0.504-1.512-0.954-2.557-0.954c-0.648,0-1.081,0.252-1.081,0.594c0,0.955,5.042-0.035,5.042,3.529
		c0,1.656-1.458,2.845-3.943,2.845C145.332,71.495,143.729,70.974,142.811,70.145z"/>
	<path fill="#FFFFFF" d="M37.081,92.88V80.87h3.097v12.01H37.081z"/>
	<path fill="#FFFFFF" d="M47.793,92.88v-5.023c0-1.062-0.558-1.44-1.422-1.44c-0.828,0-1.369,0.45-1.692,0.846v5.618h-2.773v-8.696
		h2.773v1.062c0.522-0.612,1.548-1.279,3.025-1.279c1.962,0,2.863,1.152,2.863,2.755v6.158H47.793z"/>
	<path fill="#FFFFFF" d="M52.813,92.88v-6.302h-1.44v-2.395h1.44v-0.198c0-2.161,1.386-3.295,3.115-3.295
		c0.756,0,1.404,0.107,1.854,0.342l-0.54,2.07c-0.162-0.126-0.432-0.18-0.738-0.18c-0.504,0-0.918,0.342-0.918,1.062v0.198h1.764
		v2.395h-1.764v6.302H52.813z M58.502,92.88V80.87h2.773v12.01H58.502z"/>
	<path fill="#FFFFFF" d="M68.06,92.88v-0.864c-0.54,0.648-1.584,1.08-2.701,1.08c-1.333,0-2.989-0.918-2.989-2.862
		c0-2.106,1.656-2.81,2.989-2.81c1.152,0,2.179,0.379,2.701,1.026v-0.864c0-0.756-0.648-1.278-1.764-1.278
		c-0.864,0-1.729,0.343-2.431,0.937l-1.026-1.927c1.116-0.954,2.61-1.351,3.943-1.351c2.089,0,4.051,0.774,4.051,3.476v5.438H68.06z
		 M68.06,90.647v-0.774c-0.288-0.414-0.936-0.612-1.548-0.612c-0.72,0-1.386,0.324-1.386,1.009c0,0.684,0.666,1.008,1.386,1.008
		C67.124,91.277,67.772,91.062,68.06,90.647z"/>
	<path fill="#FFFFFF" d="M83.452,92.88v-5.294c0-0.666-0.324-1.17-1.152-1.17c-0.756,0-1.296,0.486-1.566,0.846v5.618H77.96v-5.294
		c0-0.666-0.306-1.17-1.134-1.17c-0.756,0-1.278,0.486-1.566,0.846v5.618h-2.773v-8.696h2.773v1.062
		c0.378-0.505,1.494-1.279,2.863-1.279c1.26,0,2.106,0.522,2.467,1.549c0.504-0.756,1.638-1.549,3.007-1.549
		c1.603,0,2.611,0.829,2.611,2.611v6.302H83.452z"/>
	<path fill="#FFFFFF" d="M98.842,92.88v-5.294c0-0.666-0.324-1.17-1.152-1.17c-0.756,0-1.296,0.486-1.566,0.846v5.618h-2.773v-5.294
		c0-0.666-0.306-1.17-1.134-1.17c-0.756,0-1.278,0.486-1.566,0.846v5.618h-2.773v-8.696h2.773v1.062
		c0.378-0.505,1.494-1.279,2.863-1.279c1.26,0,2.106,0.522,2.467,1.549c0.504-0.756,1.638-1.549,3.007-1.549
		c1.603,0,2.611,0.829,2.611,2.611v6.302H98.842z"/>
	<path fill="#FFFFFF" d="M108.398,92.88v-0.864c-0.54,0.648-1.584,1.08-2.701,1.08c-1.333,0-2.989-0.918-2.989-2.862
		c0-2.106,1.656-2.81,2.989-2.81c1.152,0,2.179,0.379,2.701,1.026v-0.864c0-0.756-0.648-1.278-1.764-1.278
		c-0.864,0-1.729,0.343-2.431,0.937l-1.026-1.927c1.116-0.954,2.61-1.351,3.943-1.351c2.089,0,4.051,0.774,4.051,3.476v5.438
		H108.398z M108.398,90.647v-0.774c-0.288-0.414-0.936-0.612-1.548-0.612c-0.72,0-1.386,0.324-1.386,1.009
		c0,0.684,0.666,1.008,1.386,1.008C107.462,91.277,108.11,91.062,108.398,90.647z"/>
	<path fill="#FFFFFF" d="M113.401,90.539v-3.961h-1.44v-2.395h1.44v-2.377h2.773v2.377h1.765v2.395h-1.765v3.187
		c0,0.505,0.288,0.883,0.756,0.883c0.306,0,0.612-0.108,0.703-0.216l0.54,2.088c-0.342,0.324-1.026,0.576-2.053,0.576
		C114.355,93.096,113.401,92.214,113.401,90.539z"/>
	<path fill="#FFFFFF" d="M118.747,81.807c0-0.883,0.703-1.585,1.584-1.585c0.882,0,1.603,0.702,1.603,1.585
		c0,0.882-0.72,1.603-1.603,1.603C119.449,83.409,118.747,82.688,118.747,81.807z M118.945,92.88v-8.696h2.773v8.696H118.945z"/>
	<path fill="#FFFFFF" d="M122.814,88.522c0-2.448,1.765-4.556,4.717-4.556c2.989,0,4.753,2.107,4.753,4.556
		c0,2.449-1.765,4.573-4.753,4.573C124.579,93.096,122.814,90.972,122.814,88.522z M129.44,88.522c0-1.152-0.684-2.106-1.909-2.106
		c-1.188,0-1.873,0.954-1.873,2.106c0,1.171,0.684,2.125,1.873,2.125C128.756,90.647,129.44,89.693,129.44,88.522z"/>
	<path fill="#FFFFFF" d="M139.268,92.88v-5.023c0-1.062-0.558-1.44-1.422-1.44c-0.828,0-1.368,0.45-1.692,0.846v5.618h-2.773v-8.696
		h2.773v1.062c0.522-0.612,1.548-1.279,3.025-1.279c1.962,0,2.863,1.152,2.863,2.755v6.158H139.268z"/>
	<path fill="#FFFFFF" d="M36.541,111.274v-2.322h9.597v2.322H36.541z"/>
	<path fill="#FFFFFF" d="M51.643,114.479v-12.01h8.805v2.701H54.74v1.872h5.582v2.701H54.74v4.735H51.643z"/>
	<path fill="#FFFFFF" d="M61.128,110.122c0-2.448,1.765-4.556,4.717-4.556c2.989,0,4.753,2.107,4.753,4.556
		c0,2.449-1.765,4.573-4.753,4.573C62.893,114.695,61.128,112.571,61.128,110.122z M67.754,110.122c0-1.152-0.684-2.106-1.909-2.106
		c-1.188,0-1.873,0.954-1.873,2.106c0,1.171,0.684,2.125,1.873,2.125C67.07,112.247,67.754,111.293,67.754,110.122z"/>
	<path fill="#FFFFFF" d="M71.694,114.479v-12.01h2.773v12.01H71.694z"/>
	<path fill="#FFFFFF" d="M76.123,114.479v-12.01h2.773v12.01H76.123z"/>
	<path fill="#FFFFFF" d="M80.352,103.406c0-0.883,0.703-1.585,1.584-1.585c0.882,0,1.603,0.702,1.603,1.585
		c0,0.882-0.72,1.603-1.603,1.603C81.055,105.009,80.352,104.288,80.352,103.406z M80.55,114.479v-8.696h2.773v8.696H80.55z"/>
	<path fill="#FFFFFF" d="M84.42,110.122c0-2.719,2.017-4.556,4.735-4.556c1.891,0,3.043,0.829,3.565,1.603l-1.8,1.675
		c-0.342-0.504-0.9-0.828-1.639-0.828c-1.152,0-2.035,0.792-2.035,2.106s0.882,2.125,2.035,2.125c0.738,0,1.296-0.36,1.639-0.847
		l1.8,1.692c-0.522,0.757-1.674,1.603-3.565,1.603C86.437,114.695,84.42,112.841,84.42,110.122z"/>
	<path fill="#FFFFFF" d="M99.488,114.479v-1.044c-0.54,0.611-1.53,1.26-3.007,1.26c-1.962,0-2.863-1.134-2.863-2.719v-6.193h2.773
		v5.041c0,1.062,0.54,1.423,1.44,1.423c0.792,0,1.332-0.433,1.656-0.847v-5.617h2.773v8.696H99.488z"/>
	<path fill="#FFFFFF" d="M103.914,114.479v-12.01h2.773v12.01H103.914z"/>
	<path fill="#FFFFFF" d="M113.473,114.479v-0.864c-0.54,0.648-1.584,1.08-2.701,1.08c-1.333,0-2.989-0.918-2.989-2.862
		c0-2.106,1.656-2.81,2.989-2.81c1.152,0,2.179,0.379,2.701,1.026v-0.864c0-0.756-0.648-1.278-1.764-1.278
		c-0.864,0-1.729,0.343-2.431,0.937l-1.026-1.927c1.116-0.954,2.61-1.351,3.943-1.351c2.089,0,4.051,0.774,4.051,3.476v5.438
		H113.473z M113.473,112.247v-0.774c-0.288-0.414-0.936-0.612-1.548-0.612c-0.72,0-1.386,0.324-1.386,1.009
		c0,0.684,0.666,1.008,1.386,1.008C112.537,112.877,113.185,112.661,113.473,112.247z"/>
	<path fill="#FFFFFF" d="M117.9,114.479v-8.696h2.773v1.062c0.576-0.703,1.692-1.297,2.719-1.297v2.665
		c-0.162-0.055-0.396-0.072-0.684-0.072c-0.72,0-1.675,0.306-2.035,0.792v5.546H117.9z"/>
</g>
<g>
	<path fill="#FFFFFF" d="M246.36,49.68V29.003h-7.479v-5.999h21.796v5.999h-7.439V49.68H246.36z"/>
	<path fill="#FFFFFF" d="M263.161,49.68V23.004h6.879V49.68H263.161z"/>
	<path fill="#FFFFFF" d="M241.765,71.279v-9.309h-3.367V59.27h9.813v2.701h-3.349v9.309H241.765z"/>
	<path fill="#FFFFFF" d="M249.251,71.279v-8.696h2.773v1.062c0.576-0.702,1.692-1.296,2.719-1.296v2.665
		c-0.162-0.055-0.396-0.072-0.684-0.072c-0.72,0-1.675,0.306-2.035,0.792v5.546H249.251z"/>
	<path fill="#FFFFFF" d="M260.772,71.279v-0.864c-0.54,0.648-1.584,1.08-2.701,1.08c-1.333,0-2.989-0.918-2.989-2.862
		c0-2.107,1.656-2.81,2.989-2.81c1.152,0,2.179,0.379,2.701,1.026v-0.864c0-0.756-0.648-1.278-1.764-1.278
		c-0.864,0-1.729,0.343-2.431,0.937l-1.026-1.927c1.116-0.954,2.61-1.351,3.943-1.351c2.089,0,4.051,0.774,4.051,3.476v5.438
		H260.772z M260.772,69.047v-0.774c-0.288-0.414-0.936-0.612-1.548-0.612c-0.72,0-1.386,0.324-1.386,1.009
		c0,0.684,0.666,1.008,1.386,1.008C259.836,69.677,260.484,69.461,260.772,69.047z"/>
	<path fill="#FFFFFF" d="M264.641,66.922c0-2.719,2.017-4.556,4.735-4.556c1.891,0,3.043,0.829,3.565,1.603l-1.8,1.675
		c-0.342-0.504-0.9-0.828-1.639-0.828c-1.152,0-2.035,0.792-2.035,2.106s0.882,2.125,2.035,2.125c0.738,0,1.296-0.36,1.639-0.847
		l1.8,1.692c-0.522,0.757-1.674,1.603-3.565,1.603C266.658,71.495,264.641,69.641,264.641,66.922z"/>
	<path fill="#FFFFFF" d="M279.745,71.279v-5.06c0-1.062-0.558-1.404-1.44-1.404c-0.81,0-1.351,0.45-1.674,0.847v5.617h-2.773V59.27
		h2.773v4.375c0.522-0.611,1.548-1.278,3.007-1.278c1.98,0,2.881,1.117,2.881,2.72v6.193H279.745z"/>
	<path fill="#FFFFFF" d="M283.613,66.922c0-2.448,1.765-4.556,4.717-4.556c2.989,0,4.753,2.107,4.753,4.556
		c0,2.449-1.765,4.573-4.753,4.573C285.378,71.495,283.613,69.371,283.613,66.922z M290.239,66.922c0-1.152-0.684-2.106-1.909-2.106
		c-1.188,0-1.873,0.954-1.873,2.106c0,1.171,0.684,2.125,1.873,2.125C289.555,69.047,290.239,68.093,290.239,66.922z"/>
	<path fill="#FFFFFF" d="M305.144,71.279v-5.294c0-0.666-0.324-1.17-1.152-1.17c-0.756,0-1.296,0.486-1.566,0.847v5.617h-2.773
		v-5.294c0-0.666-0.306-1.17-1.134-1.17c-0.756,0-1.278,0.486-1.566,0.847v5.617h-2.773v-8.696h2.773v1.062
		c0.378-0.504,1.494-1.278,2.863-1.278c1.26,0,2.106,0.522,2.467,1.549c0.504-0.756,1.638-1.549,3.007-1.549
		c1.603,0,2.611,0.829,2.611,2.611v6.302H305.144z"/>
	<path fill="#FFFFFF" d="M314.7,71.279v-0.864c-0.54,0.648-1.584,1.08-2.701,1.08c-1.333,0-2.989-0.918-2.989-2.862
		c0-2.107,1.656-2.81,2.989-2.81c1.152,0,2.179,0.379,2.701,1.026v-0.864c0-0.756-0.648-1.278-1.764-1.278
		c-0.864,0-1.729,0.343-2.431,0.937l-1.026-1.927c1.116-0.954,2.61-1.351,3.943-1.351c2.089,0,4.051,0.774,4.051,3.476v5.438H314.7z
		 M314.7,69.047v-0.774c-0.288-0.414-0.936-0.612-1.548-0.612c-0.72,0-1.386,0.324-1.386,1.009c0,0.684,0.666,1.008,1.386,1.008
		C313.764,69.677,314.412,69.461,314.7,69.047z"/>
	<path fill="#FFFFFF" d="M319.703,68.938v-3.961h-1.44v-2.395h1.44v-2.377h2.773v2.377h1.765v2.395h-1.765v3.187
		c0,0.505,0.288,0.883,0.756,0.883c0.306,0,0.612-0.108,0.703-0.217l0.54,2.089c-0.342,0.324-1.026,0.576-2.053,0.576
		C320.657,71.495,319.703,70.613,319.703,68.938z"/>
	<path fill="#FFFFFF" d="M324.688,66.922c0-2.448,1.765-4.556,4.717-4.556c2.989,0,4.753,2.107,4.753,4.556
		c0,2.449-1.765,4.573-4.753,4.573C326.453,71.495,324.688,69.371,324.688,66.922z M331.314,66.922c0-1.152-0.684-2.106-1.909-2.106
		c-1.188,0-1.873,0.954-1.873,2.106c0,1.171,0.684,2.125,1.873,2.125C330.63,69.047,331.314,68.093,331.314,66.922z"/>
	<path fill="#FFFFFF" d="M341.124,71.279v-1.044c-0.54,0.612-1.53,1.26-3.007,1.26c-1.962,0-2.863-1.134-2.863-2.719v-6.193h2.773
		v5.041c0,1.062,0.54,1.423,1.44,1.423c0.792,0,1.332-0.433,1.656-0.847v-5.617h2.773v8.696H341.124z"/>
	<path fill="#FFFFFF" d="M344.812,70.145l1.152-1.98c0.648,0.576,2.035,1.171,3.061,1.171c0.828,0,1.17-0.234,1.17-0.612
		c0-1.08-5.06,0.036-5.06-3.493c0-1.53,1.333-2.863,3.727-2.863c1.477,0,2.701,0.469,3.637,1.152l-1.062,1.963
		c-0.522-0.504-1.512-0.954-2.557-0.954c-0.648,0-1.081,0.252-1.081,0.594c0,0.955,5.042-0.035,5.042,3.529
		c0,1.656-1.458,2.845-3.943,2.845C347.333,71.495,345.73,70.974,344.812,70.145z"/>
	<path fill="#FFFFFF" d="M239.082,92.88V80.87h3.097v12.01H239.082z"/>
	<path fill="#FFFFFF" d="M249.793,92.88v-5.023c0-1.062-0.558-1.44-1.422-1.44c-0.828,0-1.369,0.45-1.692,0.846v5.618h-2.773v-8.696
		h2.773v1.062c0.522-0.612,1.548-1.279,3.025-1.279c1.962,0,2.863,1.152,2.863,2.755v6.158H249.793z"/>
	<path fill="#FFFFFF" d="M254.813,92.88v-6.302h-1.44v-2.395h1.44v-0.198c0-2.161,1.386-3.295,3.115-3.295
		c0.756,0,1.404,0.107,1.854,0.342l-0.54,2.07c-0.162-0.126-0.432-0.18-0.738-0.18c-0.504,0-0.918,0.342-0.918,1.062v0.198h1.764
		v2.395h-1.764v6.302H254.813z M260.503,92.88V80.87h2.773v12.01H260.503z"/>
	<path fill="#FFFFFF" d="M270.061,92.88v-0.864c-0.54,0.648-1.584,1.08-2.701,1.08c-1.333,0-2.989-0.918-2.989-2.862
		c0-2.106,1.656-2.81,2.989-2.81c1.152,0,2.179,0.379,2.701,1.026v-0.864c0-0.756-0.648-1.278-1.764-1.278
		c-0.864,0-1.729,0.343-2.431,0.937l-1.026-1.927c1.116-0.954,2.61-1.351,3.943-1.351c2.089,0,4.051,0.774,4.051,3.476v5.438
		H270.061z M270.061,90.647v-0.774c-0.288-0.414-0.936-0.612-1.548-0.612c-0.72,0-1.386,0.324-1.386,1.009
		c0,0.684,0.666,1.008,1.386,1.008C269.125,91.277,269.772,91.062,270.061,90.647z"/>
	<path fill="#FFFFFF" d="M285.453,92.88v-5.294c0-0.666-0.324-1.17-1.152-1.17c-0.756,0-1.296,0.486-1.566,0.846v5.618h-2.773
		v-5.294c0-0.666-0.306-1.17-1.134-1.17c-0.756,0-1.278,0.486-1.566,0.846v5.618h-2.773v-8.696h2.773v1.062
		c0.378-0.505,1.494-1.279,2.863-1.279c1.26,0,2.106,0.522,2.467,1.549c0.504-0.756,1.638-1.549,3.007-1.549
		c1.603,0,2.611,0.829,2.611,2.611v6.302H285.453z"/>
	<path fill="#FFFFFF" d="M300.843,92.88v-5.294c0-0.666-0.324-1.17-1.152-1.17c-0.756,0-1.296,0.486-1.566,0.846v5.618h-2.773
		v-5.294c0-0.666-0.306-1.17-1.134-1.17c-0.756,0-1.278,0.486-1.566,0.846v5.618h-2.773v-8.696h2.773v1.062
		c0.378-0.505,1.494-1.279,2.863-1.279c1.26,0,2.106,0.522,2.467,1.549c0.504-0.756,1.638-1.549,3.007-1.549
		c1.603,0,2.611,0.829,2.611,2.611v6.302H300.843z"/>
	<path fill="#FFFFFF" d="M310.398,92.88v-0.864c-0.54,0.648-1.584,1.08-2.701,1.08c-1.333,0-2.989-0.918-2.989-2.862
		c0-2.106,1.656-2.81,2.989-2.81c1.152,0,2.179,0.379,2.701,1.026v-0.864c0-0.756-0.648-1.278-1.764-1.278
		c-0.864,0-1.729,0.343-2.431,0.937l-1.026-1.927c1.116-0.954,2.61-1.351,3.943-1.351c2.089,0,4.051,0.774,4.051,3.476v5.438
		H310.398z M310.398,90.647v-0.774c-0.288-0.414-0.936-0.612-1.548-0.612c-0.72,0-1.386,0.324-1.386,1.009
		c0,0.684,0.666,1.008,1.386,1.008C309.462,91.277,310.11,91.062,310.398,90.647z"/>
	<path fill="#FFFFFF" d="M315.401,90.539v-3.961h-1.44v-2.395h1.44v-2.377h2.773v2.377h1.765v2.395h-1.765v3.187
		c0,0.505,0.288,0.883,0.756,0.883c0.306,0,0.612-0.108,0.703-0.216l0.54,2.088c-0.342,0.324-1.026,0.576-2.053,0.576
		C316.355,93.096,315.401,92.214,315.401,90.539z"/>
	<path fill="#FFFFFF" d="M320.747,81.807c0-0.883,0.703-1.585,1.584-1.585c0.882,0,1.603,0.702,1.603,1.585
		c0,0.882-0.72,1.603-1.603,1.603C321.45,83.409,320.747,82.688,320.747,81.807z M320.945,92.88v-8.696h2.773v8.696H320.945z"/>
	<path fill="#FFFFFF" d="M324.815,88.522c0-2.448,1.765-4.556,4.717-4.556c2.989,0,4.753,2.107,4.753,4.556
		c0,2.449-1.765,4.573-4.753,4.573C326.58,93.096,324.815,90.972,324.815,88.522z M331.441,88.522c0-1.152-0.684-2.106-1.909-2.106
		c-1.188,0-1.873,0.954-1.873,2.106c0,1.171,0.684,2.125,1.873,2.125C330.757,90.647,331.441,89.693,331.441,88.522z"/>
	<path fill="#FFFFFF" d="M341.269,92.88v-5.023c0-1.062-0.558-1.44-1.422-1.44c-0.828,0-1.368,0.45-1.692,0.846v5.618h-2.773v-8.696
		h2.773v1.062c0.522-0.612,1.548-1.279,3.025-1.279c1.962,0,2.863,1.152,2.863,2.755v6.158H341.269z"/>
	<path fill="#FFFFFF" d="M238.542,111.274v-2.322h9.597v2.322H238.542z"/>
	<path fill="#FFFFFF" d="M253.643,114.479v-12.01h3.097v12.01H253.643z"/>
	<path fill="#FFFFFF" d="M264.355,114.479v-5.023c0-1.062-0.558-1.44-1.422-1.44c-0.828,0-1.369,0.45-1.692,0.846v5.618h-2.773
		v-8.696h2.773v1.062c0.522-0.612,1.548-1.279,3.025-1.279c1.962,0,2.863,1.152,2.863,2.755v6.158H264.355z"/>
	<path fill="#FFFFFF" d="M269.357,112.139v-3.961h-1.44v-2.395h1.44v-2.377h2.773v2.377h1.765v2.395h-1.765v3.187
		c0,0.505,0.288,0.883,0.756,0.883c0.306,0,0.612-0.108,0.703-0.216l0.54,2.088c-0.342,0.324-1.026,0.576-2.053,0.576
		C270.312,114.695,269.357,113.813,269.357,112.139z"/>
	<path fill="#FFFFFF" d="M274.343,110.122c0-2.521,1.891-4.556,4.609-4.556c2.575,0,4.447,1.891,4.447,4.844v0.63h-6.194
		c0.198,0.774,0.918,1.423,2.179,1.423c0.612,0,1.621-0.271,2.125-0.738l1.207,1.818c-0.864,0.774-2.305,1.152-3.637,1.152
		C276.396,114.695,274.343,112.949,274.343,110.122z M278.953,107.8c-1.207,0-1.675,0.72-1.783,1.351h3.583
		C280.681,108.538,280.231,107.8,278.953,107.8z"/>
	<path fill="#FFFFFF" d="M290.292,114.479v-5.023c0-1.062-0.558-1.44-1.422-1.44c-0.828,0-1.369,0.45-1.692,0.846v5.618h-2.773
		v-8.696h2.773v1.062c0.522-0.612,1.548-1.279,3.025-1.279c1.962,0,2.863,1.152,2.863,2.755v6.158H290.292z"/>
	<path fill="#FFFFFF" d="M293.98,113.345l1.152-1.98c0.648,0.576,2.035,1.171,3.061,1.171c0.828,0,1.17-0.234,1.17-0.612
		c0-1.08-5.06,0.036-5.06-3.493c0-1.53,1.333-2.863,3.727-2.863c1.477,0,2.701,0.469,3.637,1.152l-1.062,1.963
		c-0.522-0.504-1.512-0.954-2.557-0.954c-0.648,0-1.081,0.252-1.081,0.594c0,0.955,5.042-0.036,5.042,3.529
		c0,1.656-1.458,2.845-3.943,2.845C296.501,114.695,294.899,114.174,293.98,113.345z"/>
	<path fill="#FFFFFF" d="M302.513,110.122c0-2.521,1.891-4.556,4.609-4.556c2.575,0,4.447,1.891,4.447,4.844v0.63h-6.194
		c0.198,0.774,0.918,1.423,2.179,1.423c0.612,0,1.621-0.271,2.125-0.738l1.207,1.818c-0.864,0.774-2.305,1.152-3.637,1.152
		C304.565,114.695,302.513,112.949,302.513,110.122z M307.122,107.8c-1.207,0-1.674,0.72-1.783,1.351h3.583
		C308.851,108.538,308.4,107.8,307.122,107.8z"/>
</g>
<g>
	<path fill="#FFFFFF" d="M438.36,49.68V29.003h-7.479v-5.999h21.796v5.999h-7.439V49.68H438.36z"/>
	<path fill="#FFFFFF" d="M453.241,45.92l3.639-5.358c1.92,1.919,4.879,3.52,8.559,3.52c2.32,0,3.759-0.8,3.759-2.12
		c0-3.52-15.077-0.6-15.077-10.878c0-4.479,3.759-8.479,10.598-8.479c4.279,0,7.999,1.28,10.838,3.72l-3.76,5.159
		c-2.239-1.879-5.159-2.799-7.798-2.799c-2,0-2.88,0.68-2.88,1.84c0,3.28,15.078,0.8,15.078,10.718
		c0,5.359-3.959,8.918-11.118,8.918C459.68,50.159,455.921,48.439,453.241,45.92z"/>
	<path fill="#FFFFFF" d="M433.765,92.88v-9.309h-3.367V80.87h9.813v2.701h-3.349v9.309H433.765z"/>
	<path fill="#FFFFFF" d="M441.251,92.88v-8.696h2.773v1.062c0.576-0.703,1.692-1.297,2.719-1.297v2.665
		c-0.162-0.055-0.396-0.072-0.684-0.072c-0.72,0-1.675,0.306-2.035,0.792v5.546H441.251z"/>
	<path fill="#FFFFFF" d="M452.772,92.88v-0.864c-0.54,0.648-1.584,1.08-2.701,1.08c-1.333,0-2.989-0.918-2.989-2.862
		c0-2.106,1.656-2.81,2.989-2.81c1.152,0,2.179,0.379,2.701,1.026v-0.864c0-0.756-0.648-1.278-1.764-1.278
		c-0.864,0-1.729,0.343-2.431,0.937l-1.026-1.927c1.116-0.954,2.61-1.351,3.943-1.351c2.089,0,4.051,0.774,4.051,3.476v5.438
		H452.772z M452.772,90.647v-0.774c-0.288-0.414-0.936-0.612-1.548-0.612c-0.72,0-1.386,0.324-1.386,1.009
		c0,0.684,0.666,1.008,1.386,1.008C451.836,91.277,452.484,91.062,452.772,90.647z"/>
	<path fill="#FFFFFF" d="M456.641,88.522c0-2.719,2.017-4.556,4.735-4.556c1.891,0,3.043,0.829,3.565,1.603l-1.8,1.675
		c-0.342-0.504-0.9-0.828-1.639-0.828c-1.152,0-2.035,0.792-2.035,2.106s0.882,2.125,2.035,2.125c0.738,0,1.296-0.36,1.639-0.847
		l1.8,1.692c-0.522,0.757-1.674,1.603-3.565,1.603C458.658,93.096,456.641,91.241,456.641,88.522z"/>
	<path fill="#FFFFFF" d="M471.745,92.88v-5.06c0-1.062-0.558-1.404-1.44-1.404c-0.81,0-1.351,0.45-1.674,0.846v5.618h-2.773V80.87
		h2.773v4.376c0.522-0.612,1.548-1.279,3.007-1.279c1.98,0,2.881,1.117,2.881,2.719v6.194H471.745z"/>
	<path fill="#FFFFFF" d="M475.613,88.522c0-2.448,1.765-4.556,4.717-4.556c2.989,0,4.753,2.107,4.753,4.556
		c0,2.449-1.765,4.573-4.753,4.573C477.378,93.096,475.613,90.972,475.613,88.522z M482.239,88.522c0-1.152-0.685-2.106-1.909-2.106
		c-1.188,0-1.873,0.954-1.873,2.106c0,1.171,0.684,2.125,1.873,2.125C481.555,90.647,482.239,89.693,482.239,88.522z"/>
	<path fill="#FFFFFF" d="M497.145,92.88v-5.294c0-0.666-0.324-1.17-1.152-1.17c-0.757,0-1.297,0.486-1.566,0.846v5.618h-2.773
		v-5.294c0-0.666-0.307-1.17-1.135-1.17c-0.756,0-1.277,0.486-1.566,0.846v5.618h-2.772v-8.696h2.772v1.062
		c0.379-0.505,1.494-1.279,2.863-1.279c1.26,0,2.106,0.522,2.467,1.549c0.504-0.756,1.639-1.549,3.007-1.549
		c1.603,0,2.61,0.829,2.61,2.611v6.302H497.145z"/>
	<path fill="#FFFFFF" d="M506.7,92.88v-0.864c-0.54,0.648-1.585,1.08-2.7,1.08c-1.333,0-2.989-0.918-2.989-2.862
		c0-2.106,1.656-2.81,2.989-2.81c1.152,0,2.178,0.379,2.7,1.026v-0.864c0-0.756-0.647-1.278-1.765-1.278
		c-0.863,0-1.729,0.343-2.43,0.937l-1.027-1.927c1.117-0.954,2.611-1.351,3.943-1.351c2.089,0,4.051,0.774,4.051,3.476v5.438H506.7z
		 M506.7,90.647v-0.774c-0.288-0.414-0.937-0.612-1.548-0.612c-0.721,0-1.387,0.324-1.387,1.009c0,0.684,0.666,1.008,1.387,1.008
		C505.764,91.277,506.412,91.062,506.7,90.647z"/>
	<path fill="#FFFFFF" d="M511.703,90.539v-3.961h-1.44v-2.395h1.44v-2.377h2.773v2.377h1.764v2.395h-1.764v3.187
		c0,0.505,0.287,0.883,0.756,0.883c0.306,0,0.611-0.108,0.702-0.216l0.54,2.088c-0.342,0.324-1.026,0.576-2.053,0.576
		C512.657,93.096,511.703,92.214,511.703,90.539z"/>
	<path fill="#FFFFFF" d="M516.688,88.522c0-2.448,1.766-4.556,4.718-4.556c2.989,0,4.753,2.107,4.753,4.556
		c0,2.449-1.764,4.573-4.753,4.573C518.453,93.096,516.688,90.972,516.688,88.522z M523.314,88.522c0-1.152-0.685-2.106-1.909-2.106
		c-1.188,0-1.872,0.954-1.872,2.106c0,1.171,0.684,2.125,1.872,2.125C522.63,90.647,523.314,89.693,523.314,88.522z"/>
	<path fill="#FFFFFF" d="M533.123,92.88v-1.044c-0.539,0.611-1.529,1.26-3.006,1.26c-1.963,0-2.863-1.134-2.863-2.719v-6.193h2.773
		v5.041c0,1.062,0.539,1.423,1.439,1.423c0.793,0,1.332-0.433,1.656-0.847v-5.617h2.773v8.696H533.123z"/>
	<path fill="#FFFFFF" d="M536.812,91.745l1.152-1.98c0.648,0.576,2.034,1.171,3.062,1.171c0.828,0,1.17-0.234,1.17-0.612
		c0-1.08-5.06,0.036-5.06-3.493c0-1.53,1.333-2.863,3.728-2.863c1.477,0,2.7,0.469,3.637,1.152l-1.062,1.963
		c-0.521-0.504-1.512-0.954-2.557-0.954c-0.648,0-1.08,0.252-1.08,0.594c0,0.955,5.041-0.036,5.041,3.529
		c0,1.656-1.459,2.845-3.943,2.845C539.332,93.096,537.73,92.574,536.812,91.745z"/>
	<path fill="#FFFFFF" d="M430.217,112.787l1.639-2.413c0.864,0.864,2.197,1.585,3.853,1.585c1.044,0,1.693-0.36,1.693-0.954
		c0-1.585-6.788-0.271-6.788-4.897c0-2.017,1.692-3.817,4.771-3.817c1.926,0,3.601,0.576,4.879,1.675l-1.693,2.322
		c-1.008-0.847-2.322-1.261-3.511-1.261c-0.9,0-1.296,0.307-1.296,0.828c0,1.477,6.788,0.36,6.788,4.826
		c0,2.412-1.783,4.015-5.005,4.015C433.116,114.695,431.424,113.921,430.217,112.787z"/>
	<path fill="#FFFFFF" d="M441,110.122c0-2.719,2.017-4.556,4.735-4.556c1.891,0,3.043,0.829,3.565,1.603l-1.8,1.675
		c-0.342-0.504-0.9-0.828-1.639-0.828c-1.152,0-2.035,0.792-2.035,2.106s0.882,2.125,2.035,2.125c0.738,0,1.296-0.36,1.639-0.847
		l1.8,1.692c-0.522,0.757-1.674,1.603-3.565,1.603C443.016,114.695,441,112.841,441,110.122z"/>
	<path fill="#FFFFFF" d="M455.329,114.479v-0.864c-0.54,0.648-1.584,1.08-2.701,1.08c-1.333,0-2.989-0.918-2.989-2.862
		c0-2.106,1.656-2.81,2.989-2.81c1.152,0,2.179,0.379,2.701,1.026v-0.864c0-0.756-0.648-1.278-1.764-1.278
		c-0.864,0-1.729,0.343-2.431,0.937l-1.026-1.927c1.116-0.954,2.611-1.351,3.943-1.351c2.089,0,4.051,0.774,4.051,3.476v5.438
		H455.329z M455.329,112.247v-0.774c-0.288-0.414-0.936-0.612-1.548-0.612c-0.72,0-1.386,0.324-1.386,1.009
		c0,0.684,0.666,1.008,1.386,1.008C454.393,112.877,455.041,112.661,455.329,112.247z"/>
	<path fill="#FFFFFF" d="M459.755,114.479v-8.696h2.773v1.062c0.576-0.703,1.692-1.297,2.719-1.297v2.665
		c-0.162-0.055-0.396-0.072-0.684-0.072c-0.72,0-1.675,0.306-2.035,0.792v5.546H459.755z"/>
	<path fill="#FFFFFF" d="M466.146,114.479v-8.696h2.773v1.062c0.576-0.703,1.692-1.297,2.719-1.297v2.665
		c-0.162-0.055-0.396-0.072-0.684-0.072c-0.72,0-1.675,0.306-2.035,0.792v5.546H466.146z"/>
	<path fill="#FFFFFF" d="M472.337,103.406c0-0.883,0.702-1.585,1.584-1.585s1.603,0.702,1.603,1.585c0,0.882-0.72,1.603-1.603,1.603
		S472.337,104.288,472.337,103.406z M472.536,114.479v-8.696h2.773v8.696H472.536z"/>
	<path fill="#FFFFFF" d="M482.851,114.479v-5.023c0-1.062-0.558-1.44-1.423-1.44c-0.828,0-1.368,0.45-1.692,0.846v5.618h-2.773
		v-8.696h2.773v1.062c0.522-0.612,1.548-1.279,3.025-1.279c1.962,0,2.862,1.152,2.862,2.755v6.158H482.851z"/>
	<path fill="#FFFFFF" d="M487.043,116.712l1.206-1.944c0.685,0.721,1.639,1.008,2.647,1.008c0.918,0,2.215-0.396,2.215-2.052v-0.667
		c-0.721,0.864-1.586,1.279-2.576,1.279c-2.124,0-3.816-1.459-3.816-4.394c0-2.863,1.639-4.376,3.816-4.376
		c0.973,0,1.873,0.379,2.576,1.243v-1.026h2.771v7.94c0,3.528-2.826,4.285-4.986,4.285
		C489.401,118.009,488.159,117.631,487.043,116.712z M493.111,111.112v-2.322c-0.343-0.469-1.081-0.774-1.657-0.774
		c-1.099,0-1.909,0.666-1.909,1.927c0,1.278,0.811,1.944,1.909,1.944C492.03,111.887,492.769,111.581,493.111,111.112z"/>
</g>
<g>
	<g>
		<path fill="#FFED00" d="M174.139,43.048c-24.711-12.36-49.469-25.207-76.389-32.069C84.744,7.664,71.37,6.081,57.961,5.908
			C48.499,5.786,39.061,7.223,30.5,11.403C-2.943,27.73,3.039,74.372,18.326,101.11c7.388,12.922,21.644,21.193,35.072,26.53
			c16.788,6.672,35.554,8.961,53.366,5.751c21.168-3.816,38.05-16.59,49.942-34.164c9.606-14.195,15.9-32.006,7.314-48.174
			c-5.109-9.621-13.417-16.963-21.658-23.862c-8.003-6.699-17.025-13.124-22.541-22.182c-0.755-1.241-5.577-1.838-4.466-0.013
			c7.209,11.84,19.942,19.628,30.033,28.764c11.886,10.762,20.38,24,17.185,40.606c-2.18,11.328-8.86,21.695-15.877,30.609
			c-6.802,8.641-15.562,15.568-25.456,20.326c-18.148,8.728-39.376,8.659-58.433,3.162c-14.9-4.298-31.109-12.764-39.451-26.38
			c-9.615-15.695-14.301-35.369-11.898-53.66C13.76,30.904,24.271,16.365,41.321,10.83c12.23-3.971,26.221-2.586,38.718-0.958
			c14.161,1.844,27.904,5.934,41.192,11.074c17.149,6.634,33.538,15.124,49.963,23.339C172.66,45.018,177.037,44.498,174.139,43.048
			L174.139,43.048z"/>
	</g>
</g>
<g>
	<g>
		<path fill="#FFED00" d="M733.676,6.483c11.322,19.928,11.719,45.04,6.988,66.946c-4.805,22.25-16.663,43.419-38.971,51.578
			c-21.137,7.73-45.683,2.593-65.321-6.985c-21.261-10.37-42.571-30.312-45.391-54.92c-2.323-20.281,11.604-39.89,28.771-49.391
			c15.226-8.426,33.845-7.939,50.468-5.029c34.207,5.988,66.473,23.386,95.657,41.549c2.785,1.734,3.126-2.546,1.025-3.853
			c-33.68-20.962-72.431-41.755-112.807-44.03c-20.176-1.137-38.696,4.773-52.63,19.685c-16.81,17.99-18.774,42.191-6.613,63.219
			c20.601,35.62,72.994,59.27,112.415,42.843c20.134-8.39,31.005-28.01,36.409-48.182c5.593-20.873,5.52-44.136-1.84-64.549
			c-1.229-3.406-2.802-6.675-4.588-9.82C735.904,3.176,732.044,3.61,733.676,6.483L733.676,6.483z"/>
	</g>
</g>
</svg>
