<?xml version="1.0" encoding="utf-8"?>
<!-- Generator: Adobe Illustrator 15.0.0, SVG Export Plug-In . SVG Version: 6.00 Build 0)  -->
<!DOCTYPE svg PUBLIC "-//W3C//DTD SVG 1.1//EN" "http://www.w3.org/Graphics/SVG/1.1/DTD/svg11.dtd">
<svg version="1.1" id="Layer_1" xmlns="http://www.w3.org/2000/svg" xmlns:xlink="http://www.w3.org/1999/xlink" x="0px" y="0px"
	 width="150px" height="150px" viewBox="0 0 150 150" enable-background="new 0 0 150 150" xml:space="preserve">
<g>
	<rect y="0" fill="#E1E1E1" width="149.997" height="150.001"/>
	<polygon fill="#056CB4" points="14.474,19.653 14.474,42.827 19.563,42.827 19.563,12.553 15.499,12.553 10.81,18.045 
		10.81,23.362 10.855,23.362 14.428,19.653 	"/>
	<path fill="#056CB4" d="M28.18,35.818V19.564c0-1.832,0.67-3.128,2.413-3.128c1.783,0,2.455,1.296,2.455,3.128v16.254
		c0,1.831-0.672,3.124-2.455,3.124C28.85,38.942,28.18,37.649,28.18,35.818 M38.137,35.015V20.367c0-4.732-2.366-8.171-7.544-8.171
		c-5.135,0-7.504,3.439-7.504,8.171v14.647c0,4.689,2.37,8.171,7.504,8.171C35.771,43.186,38.137,39.704,38.137,35.015"/>
	<path fill="#056CB4" d="M90.487,99.086H60.505c-0.18,0-0.325,0.147-0.325,0.326v6.794c0,0.182,0.146,0.327,0.325,0.327h29.982
		c0.182,0,0.328-0.146,0.328-0.327v-6.794C90.815,99.234,90.669,99.086,90.487,99.086"/>
	<path fill="#056CB4" d="M90.815,86.637c0-0.18-0.146-0.325-0.328-0.325H65.63h-5.126c-0.177,0-0.324,0.146-0.324,0.325v2.677v4.121
		c0,0.177,0.147,0.324,0.324,0.324h29.983c0.182,0,0.328-0.147,0.328-0.324V86.637z"/>
	<path fill="#056CB4" d="M108.165,89.297c-1.231-4.94-3.471-9.357-6.431-13.115l-0.065,0.052c0.961,1.433,1.824,2.949,2.56,4.551
		c3.895,7.133,5.083,15.74,2.629,24.156c-4.926,16.887-22.604,26.582-39.49,21.66c-7.095-2.07-12.917-6.401-16.924-11.974
		c-2.501-3.222-4.394-6.994-5.443-11.199c-4.004-16.109,5.804-32.423,21.917-36.432c9.964-2.479,19.992,0.346,27.152,6.664
		c0.063,0.057,0.126,0.115,0.191,0.172c0.194,0.146,0.424,0.249,0.681,0.249c0.293,0,0.546-0.116,0.752-0.291l0.118-0.12
		l3.816-3.769l0.251-0.248c0.142-0.192,0.245-0.418,0.245-0.677c0-0.301-0.121-0.566-0.308-0.775
		c-0.04-0.035-0.081-0.071-0.123-0.105c-8.804-7.872-21.209-11.404-33.533-8.338C46.367,64.684,34.314,84.72,39.24,104.513
		c2.065,8.296,6.788,15.221,13.028,20.117c6.217,5.098,14.135,7.99,22.429,7.905c2.67-0.029,5.374-0.357,8.079-1.03
		C101.445,126.863,112.807,107.965,108.165,89.297"/>
	<rect x="45.638" y="12.599" fill="#056CB4" width="2.127" height="12.642"/>
	<polygon fill="#056CB4" points="50.783,17.299 50.783,25.241 48.993,25.241 48.993,12.6 51.081,12.6 53.376,19.852 53.376,12.6 
		55.146,12.6 55.146,25.241 53.282,25.241 	"/>
	<path fill="#056CB4" d="M60.775,11.707l-3.336,0.426V10.94l3.336-0.708V11.707z M56.357,12.599h5.073v1.735h-2.948v3.617h2.107
		v1.715h-2.107v3.841h2.948v1.733h-5.073V12.599z"/>
	<path fill="#056CB4" d="M65.586,18.491h3.02v6.75h-1.529v-1.38c-0.279,0.954-0.875,1.529-2.032,1.529
		c-1.829,0-2.666-1.453-2.666-3.412v-6.115c0-1.976,0.951-3.414,3.188-3.414c2.352,0,3.04,1.307,3.04,3.171v1.118h-1.937v-1.285
		c0-0.783-0.299-1.231-1.063-1.231s-1.102,0.539-1.102,1.304v6.787c0,0.765,0.318,1.307,1.042,1.307
		c0.694,0,1.046-0.393,1.046-1.212V20.17h-1.006V18.491z"/>
	<path fill="#056CB4" d="M72.149,21.232h1.696l-0.84-5.073h-0.019L72.149,21.232z M69.48,25.241l2.387-12.642h2.424l2.404,12.642
		h-2.181l-0.392-2.312h-2.256l-0.372,2.312H69.48z"/>
	<polygon fill="#056CB4" points="77.569,12.599 79.697,12.599 79.697,23.507 82.233,23.507 82.233,25.241 77.569,25.241 	"/>
	<rect x="83.2" y="12.599" fill="#056CB4" width="2.125" height="12.642"/>
	<polygon fill="#056CB4" points="86.315,12.599 91.962,12.599 91.962,14.333 90.211,14.333 90.211,25.241 88.066,25.241 
		88.066,14.333 86.315,14.333 	"/>
	<path fill="#056CB4" d="M97.369,11.707l-3.339,0.426V10.94l3.339-0.708V11.707z M92.949,12.599h5.072v1.735h-2.943v3.617h2.106
		v1.715h-2.106v3.841h2.943v1.733h-5.072V12.599z"/>
	<path fill="#056CB4" d="M98.953,22.521v-1.697h1.979v1.735c0,0.706,0.315,1.116,1.042,1.116c0.671,0,0.972-0.448,0.972-1.116
		v-0.486c0-0.728-0.301-1.176-0.952-1.792l-1.249-1.249c-1.212-1.195-1.773-1.919-1.773-3.376v-0.43
		c0-1.565,0.914-2.778,2.982-2.778c2.126,0,2.966,1.045,2.966,2.873v1.027h-1.939v-1.102c0-0.726-0.335-1.08-1.006-1.08
		c-0.596,0-1.007,0.335-1.007,1.042v0.262c0,0.708,0.393,1.118,1.007,1.715l1.361,1.344c1.156,1.173,1.717,1.883,1.717,3.281v0.615
		c0,1.733-0.934,2.964-3.099,2.964C99.79,25.39,98.953,24.179,98.953,22.521"/>
	<path fill="#056CB4" d="M47.764,32.044v3.934h0.708c0.727,0,1.042-0.372,1.042-1.045v-1.864c0-0.688-0.315-1.025-1.042-1.025
		H47.764z M47.764,37.154v5.797h-2.127V30.309h3.097c2.144,0,2.926,1.063,2.926,2.836v1.621c0,1.361-0.484,2.163-1.697,2.443
		l2.033,5.742h-2.237L47.764,37.154z"/>
	<path fill="#056CB4" d="M57.235,29.417l-3.339,0.426V28.65l3.339-0.708V29.417z M52.814,30.309h5.072v1.735h-2.945v3.617h2.107
		v1.715h-2.107v3.842h2.945v1.732h-5.072V30.309z"/>
	<path fill="#056CB4" d="M62.045,41.218c0.874,0,1.209-0.521,1.209-1.286v-6.62c0-0.746-0.336-1.269-1.209-1.269h-0.896v9.174
		H62.045z M65.38,33.702v5.855c0,1.941-0.802,3.394-3.077,3.394h-3.28V30.309h3.28C64.578,30.309,65.38,31.747,65.38,33.702"/>
	<path fill="#056CB4" d="M72.764,30.309v9.566c0,1.959-0.837,3.226-3.001,3.226c-2.239,0-3.171-1.267-3.171-3.226v-9.566h2.127
		v9.773c0,0.747,0.298,1.249,1.044,1.249c0.746,0,1.043-0.502,1.043-1.249v-9.773H72.764z"/>
	<rect x="73.975" y="30.309" fill="#056CB4" width="2.124" height="12.642"/>
	<polygon fill="#056CB4" points="77.088,30.309 82.736,30.309 82.736,32.044 80.984,32.044 80.984,42.951 78.84,42.951 
		78.84,32.044 77.088,32.044 	"/>
	<polygon fill="#056CB4" points="83.723,30.309 88.794,30.309 88.794,32.044 85.851,32.044 85.851,35.661 87.957,35.661 
		87.957,37.376 85.851,37.376 85.851,41.218 88.794,41.218 88.794,42.951 83.723,42.951 	"/>
	<path fill="#056CB4" d="M89.727,40.231v-1.697h1.979v1.735c0,0.707,0.315,1.116,1.043,1.116c0.67,0,0.97-0.448,0.97-1.116v-0.485
		c0-0.729-0.3-1.177-0.952-1.792l-1.249-1.249c-1.212-1.194-1.773-1.919-1.773-3.375v-0.43c0-1.565,0.914-2.778,2.982-2.778
		c2.127,0,2.966,1.045,2.966,2.873v1.027h-1.938v-1.102c0-0.726-0.335-1.08-1.005-1.08c-0.597,0-1.008,0.335-1.008,1.042v0.262
		c0,0.708,0.393,1.118,1.008,1.715l1.36,1.344c1.156,1.172,1.717,1.882,1.717,3.28v0.616c0,1.733-0.934,2.964-3.099,2.964
		C90.564,43.1,89.727,41.889,89.727,40.231"/>
</g>
</svg>
