<?xml version="1.0" encoding="utf-8"?>
<!-- Generator: Adobe Illustrator 15.0.0, SVG Export Plug-In . SVG Version: 6.00 Build 0)  -->
<!DOCTYPE svg PUBLIC "-//W3C//DTD SVG 1.1//EN" "http://www.w3.org/Graphics/SVG/1.1/DTD/svg11.dtd">
<svg version="1.1" id="Layer_1" xmlns="http://www.w3.org/2000/svg" xmlns:xlink="http://www.w3.org/1999/xlink" x="0px" y="0px"
	 width="150px" height="150px" viewBox="0 0 150 150" enable-background="new 0 0 150 150" xml:space="preserve">
<g>
	<rect fill="#E1E1E1" width="150.001" height="150.009"/>
	<path fill="#056CB4" d="M20.331,30.5c0.089-1.693,0.803-2.766,2.409-2.766c1.738,0,2.408,1.072,2.408,3.033v5.265
		c0,1.918-0.71,3.035-2.452,3.035c-1.697,0-2.365-1.161-2.365-3.035V30.5z M22.696,43.216c5.398,0,7.496-2.946,7.496-7.631v-4.46
		c0-4.953-1.965-7.448-5.624-7.448c-2.141,0-3.434,0.982-4.193,2.453h-0.044v-6.514c0-1.831,0.581-3.123,2.409-3.123
		c1.828,0,2.365,1.073,2.365,2.944v2.007h4.639v-1.605c0-4.463-1.473-7.582-7.092-7.582c-5.354,0-7.362,3.432-7.362,8.16V35.14
		C15.29,39.825,17.341,43.216,22.696,43.216"/>
	<path fill="#056CB4" d="M98.859,72.292c-1.475-0.647-3.345-0.414-5.14,0.312c-6.752,2.735-11.35,3.719-18.452,1.498
		c-4.47-1.401-8.655-4.333-13.604-2.547c-3.28,1.18-6.341,2.306-10.051,2.277l-2.145-10.99h50.935L98.859,72.292z M81.595,104.926
		c0,0-2.471,2.54-6.495,2.265c-4.03,0.275-6.5-2.265-6.5-2.265c-4.076-4.073-2.623-9.139-1.203-11.757
		c0.876-1.641,7.141-11.048,7.679-11.851v-0.062c0,0,0.011,0.013,0.023,0.028l0.022-0.028v0.062c0.525,0.803,6.8,10.21,7.676,11.851
		C84.218,95.788,85.667,100.853,81.595,104.926 M102.628,60.657c-0.125-0.137-0.298-0.213-0.493-0.213h-54.42
		c-0.189,0-0.359,0.076-0.488,0.213c-0.119,0.154-0.167,0.34-0.139,0.516l9.144,55.297c0.053,0.308,0.318,0.533,0.627,0.533h11.223
		l0.766,9.007l-4.721,0.006l10.987,10.987l11.013-11.011l-4.721,0.003l0.766-8.992h11.419c0.314,0,0.577-0.226,0.624-0.542
		l8.554-55.288C102.8,60.982,102.745,60.801,102.628,60.657"/>
	<polygon fill="#056CB4" points="40.727,12.211 45.801,12.211 45.801,13.945 42.854,13.945 42.854,17.563 44.96,17.563 
		44.96,19.279 42.854,19.279 42.854,23.121 45.801,23.121 45.801,24.854 40.727,24.854 	"/>
	<path fill="#056CB4" d="M49.268,20.845h1.695l-0.839-5.073h-0.02L49.268,20.845z M46.597,24.854l2.389-12.642h2.423l2.405,12.642
		h-2.181l-0.392-2.312h-2.256l-0.373,2.312H46.597z"/>
	<path fill="#056CB4" d="M60.581,12.211v9.565c0,1.96-0.839,3.225-3,3.225c-2.239,0-3.171-1.265-3.171-3.225v-9.565h2.125v9.771
		c0,0.748,0.298,1.25,1.047,1.25c0.745,0,1.043-0.502,1.043-1.25v-9.771H60.581z"/>
	<path fill="#056CB4" d="M65.877,13.945v4.979h0.785c0.725,0,1.041-0.354,1.041-1.044v-2.91c0-0.69-0.316-1.025-1.041-1.025H65.877z
		 M63.75,12.211h3.15c2.145,0,2.93,1.062,2.93,2.835v2.667c0,1.769-0.785,2.85-2.93,2.85h-1.023v4.291H63.75V12.211z"/>
	<path fill="#056CB4" d="M73.054,13.945v3.935h0.708c0.728,0,1.043-0.373,1.043-1.044v-1.864c0-0.691-0.315-1.027-1.043-1.027
		H73.054z M73.054,19.055v5.798h-2.127V12.211h3.097c2.143,0,2.926,1.062,2.926,2.835v1.622c0,1.361-0.484,2.163-1.695,2.443
		l2.032,5.741h-2.238L73.054,19.055z"/>
	<path fill="#056CB4" d="M82.414,21.927v-6.788c0-0.765-0.336-1.306-1.1-1.306c-0.748,0-1.081,0.541-1.081,1.306v6.788
		c0,0.764,0.333,1.305,1.081,1.305C82.077,23.231,82.414,22.69,82.414,21.927 M78.104,21.591v-6.117
		c0-1.976,0.972-3.412,3.209-3.412c2.258,0,3.225,1.436,3.225,3.412v6.117c0,1.957-0.967,3.412-3.225,3.412
		C79.077,25.002,78.104,23.548,78.104,21.591"/>
	<path fill="#056CB4" d="M87.876,13.945v4.979h0.783c0.726,0,1.043-0.354,1.043-1.044v-2.91c0-0.69-0.317-1.025-1.043-1.025H87.876z
		 M85.748,12.211h3.153c2.145,0,2.929,1.062,2.929,2.835v2.667c0,1.769-0.785,2.85-2.929,2.85h-1.025v4.291h-2.128V12.211z"/>
	<path fill="#056CB4" d="M95.051,13.945v3.935h0.71c0.729,0,1.045-0.373,1.045-1.044v-1.864c0-0.691-0.316-1.027-1.045-1.027H95.051
		z M95.051,19.055v5.798h-2.125V12.211h3.097c2.143,0,2.927,1.062,2.927,2.835v1.622c0,1.361-0.486,2.163-1.696,2.443l2.031,5.741
		h-2.239L95.051,19.055z"/>
	<polygon fill="#056CB4" points="100.104,12.211 105.179,12.211 105.179,13.945 102.23,13.945 102.23,17.563 104.338,17.563 
		104.338,19.279 102.23,19.279 102.23,23.121 105.179,23.121 105.179,24.854 100.104,24.854 	"/>
	<polygon fill="#056CB4" points="108.269,12.211 113.343,12.211 113.343,13.945 110.396,13.945 110.396,17.563 112.504,17.563 
		112.504,19.279 110.396,19.279 110.396,23.121 113.343,23.121 113.343,24.854 108.269,24.854 	"/>
	<polygon fill="#056CB4" points="114.234,12.211 119.885,12.211 119.885,13.945 118.133,13.945 118.133,24.854 115.987,24.854 
		115.987,13.945 114.234,13.945 	"/>
	<path fill="#056CB4" d="M43.06,38.556h1.695l-0.837-5.073h-0.022L43.06,38.556z M40.39,42.564l2.387-12.641h2.425l2.405,12.641
		h-2.183l-0.39-2.312h-2.258l-0.371,2.312H40.39z"/>
	<path fill="#056CB4" d="M48.183,39.842v-1.696h1.979v1.735c0,0.705,0.315,1.117,1.042,1.117c0.672,0,0.972-0.448,0.972-1.117
		v-0.486c0-0.727-0.3-1.175-0.954-1.79l-1.249-1.25c-1.211-1.194-1.768-1.92-1.768-3.376v-0.429c0-1.566,0.91-2.777,2.98-2.777
		c2.126,0,2.964,1.044,2.964,2.873v1.023h-1.938v-1.1c0-0.727-0.336-1.083-1.008-1.083c-0.597,0-1.005,0.338-1.005,1.046v0.261
		c0,0.708,0.389,1.118,1.005,1.717l1.364,1.34c1.156,1.175,1.715,1.886,1.715,3.284v0.615c0,1.733-0.932,2.965-3.097,2.965
		C49.021,42.714,48.183,41.502,48.183,39.842"/>
	<path fill="#056CB4" d="M55.194,39.842v-1.696h1.979v1.735c0,0.705,0.315,1.117,1.041,1.117c0.672,0,0.972-0.448,0.972-1.117
		v-0.486c0-0.727-0.3-1.175-0.954-1.79l-1.249-1.25c-1.21-1.194-1.771-1.92-1.771-3.376v-0.429c0-1.566,0.914-2.777,2.982-2.777
		c2.126,0,2.966,1.044,2.966,2.873v1.023h-1.939v-1.1c0-0.727-0.335-1.083-1.007-1.083c-0.597,0-1.006,0.338-1.006,1.046v0.261
		c0,0.708,0.392,1.118,1.006,1.717l1.362,1.34c1.158,1.175,1.717,1.886,1.717,3.284v0.615c0,1.733-0.934,2.965-3.099,2.965
		C56.031,42.714,55.194,41.502,55.194,39.842"/>
	<path fill="#056CB4" d="M64.556,38.556h1.695l-0.838-5.073h-0.02L64.556,38.556z M61.886,42.564l2.387-12.641h2.423l2.407,12.641
		h-2.181l-0.394-2.312h-2.256L63.9,42.564H61.886z"/>
	<rect x="69.977" y="29.922" fill="#056CB4" width="2.126" height="12.642"/>
	<polygon fill="#056CB4" points="75.122,34.621 75.122,42.565 73.333,42.565 73.333,29.921 75.421,29.921 77.717,37.175 
		77.717,29.921 79.486,29.921 79.486,42.565 77.622,42.565 	"/>
	<rect x="80.697" y="29.922" fill="#056CB4" width="2.125" height="12.642"/>
	<path fill="#056CB4" d="M83.939,39.842v-1.696h1.979v1.735c0,0.705,0.315,1.117,1.042,1.117c0.672,0,0.972-0.448,0.972-1.117
		v-0.486c0-0.727-0.3-1.175-0.954-1.79l-1.249-1.25c-1.21-1.194-1.768-1.92-1.768-3.376v-0.429c0-1.566,0.911-2.777,2.98-2.777
		c2.126,0,2.964,1.044,2.964,2.873v1.023h-1.938v-1.1c0-0.727-0.336-1.083-1.008-1.083c-0.597,0-1.005,0.338-1.005,1.046v0.261
		c0,0.708,0.39,1.118,1.005,1.717l1.364,1.34c1.156,1.175,1.715,1.886,1.715,3.284v0.615c0,1.733-0.932,2.965-3.097,2.965
		C84.779,42.714,83.939,41.502,83.939,39.842"/>
	<path fill="#056CB4" d="M90.951,39.842v-1.696h1.979v1.735c0,0.705,0.315,1.117,1.043,1.117c0.669,0,0.97-0.448,0.97-1.117v-0.486
		c0-0.727-0.301-1.175-0.952-1.79l-1.249-1.25c-1.21-1.194-1.773-1.92-1.773-3.376v-0.429c0-1.566,0.914-2.777,2.984-2.777
		c2.124,0,2.966,1.044,2.966,2.873v1.023h-1.94v-1.1c0-0.727-0.336-1.083-1.005-1.083c-0.598,0-1.009,0.338-1.009,1.046v0.261
		c0,0.708,0.393,1.118,1.009,1.717l1.361,1.34c1.156,1.175,1.715,1.886,1.715,3.284v0.615c0,1.733-0.933,2.965-3.097,2.965
		C91.79,42.714,90.951,41.502,90.951,39.842"/>
	<polygon fill="#056CB4" points="98.166,29.922 103.238,29.922 103.238,31.656 100.292,31.656 100.292,35.274 102.4,35.274 
		102.4,36.989 100.292,36.989 100.292,40.832 103.238,40.832 103.238,42.564 98.166,42.564 	"/>
	<polygon fill="#056CB4" points="110.228,34.36 110.175,34.36 108.736,42.563 107.747,42.563 106.164,34.36 106.128,34.36 
		106.128,42.563 104.372,42.563 104.372,29.922 106.854,29.922 108.233,37.043 108.253,37.043 109.484,29.922 112.168,29.922 
		112.168,42.563 110.228,42.563 	"/>
	<polygon fill="#056CB4" points="113.378,29.922 118.451,29.922 118.451,31.656 115.505,31.656 115.505,35.274 117.612,35.274 
		117.612,36.989 115.505,36.989 115.505,40.832 118.451,40.832 118.451,42.564 113.378,42.564 	"/>
	<polygon fill="#056CB4" points="121.375,34.621 121.375,42.565 119.585,42.565 119.585,29.921 121.672,29.921 123.968,37.175 
		123.968,29.921 125.738,29.921 125.738,42.565 123.874,42.565 	"/>
	<polygon fill="#056CB4" points="126.707,29.922 132.357,29.922 132.357,31.656 130.604,31.656 130.604,42.564 128.459,42.564 
		128.459,31.656 126.707,31.656 	"/>
</g>
</svg>
