<?xml version="1.0" encoding="utf-8"?>
<!-- Generator: Adobe Illustrator 15.0.0, SVG Export Plug-In . SVG Version: 6.00 Build 0)  -->
<!DOCTYPE svg PUBLIC "-//W3C//DTD SVG 1.1//EN" "http://www.w3.org/Graphics/SVG/1.1/DTD/svg11.dtd">
<svg version="1.1" id="Layer_1" xmlns="http://www.w3.org/2000/svg" xmlns:xlink="http://www.w3.org/1999/xlink" x="0px" y="0px"
	 width="150px" height="150px" viewBox="0 0 150 150" enable-background="new 0 0 150 150" xml:space="preserve">
<g>
	<rect y="0" fill="#E1E1E1" width="150.001" height="150.007"/>
	<path fill="#056CB4" d="M24.06,35.95c0,1.829-0.67,3.125-2.497,3.125c-1.786,0-2.455-1.295-2.455-3.125v-4.906
		c0-1.827,0.669-3.123,2.455-3.123c1.827,0,2.497,1.296,2.497,3.123V35.95z M19.287,19.224c0-1.831,0.626-2.9,2.276-2.9
		c1.693,0,2.32,1.07,2.32,2.9v2.051c0,1.827-0.626,2.903-2.32,2.903c-1.65,0-2.276-1.076-2.276-2.903V19.224z M29.146,35.415v-3.301
		c0-2.897-1.025-4.994-3.39-6.066c2.004-0.98,2.944-2.765,2.944-5.262v-1.251c0-4.727-2.455-7.271-7.137-7.271
		c-4.64,0-7.05,2.543-7.05,7.271v1.251c0,2.455,0.895,4.282,2.856,5.262c-2.365,1.072-3.347,3.169-3.347,6.066v3.301
		c0,4.596,2.188,7.806,7.541,7.806C26.958,43.221,29.146,40.011,29.146,35.415"/>
	<path fill="#056CB4" d="M95.042,81.318L81.766,93.949c-0.504,0.499-0.757,0.865-0.757,1.897v35.397
		c0,0.415,0.336,0.755,0.757,0.755h13.71c0.421,0,0.76-0.34,0.76-0.755V81.638C96.236,81.219,95.908,80.457,95.042,81.318"/>
	<path fill="#056CB4" d="M56.793,97.774L43.516,110.4c-0.5,0.502-0.757,0.866-0.757,1.896v18.947c0,0.413,0.337,0.751,0.757,0.751
		h13.713c0.419,0,0.756-0.338,0.756-0.751V98.091C57.985,97.672,57.658,96.908,56.793,97.774"/>
	<path fill="#056CB4" d="M101.077,66.003c0.005-0.103-0.033-0.209-0.114-0.287c-0.069-0.069-0.159-0.101-0.245-0.11l-0.072,0.006
		l-0.109,0.005L90.37,67.911l-0.184,0.019c-0.073,0.015-0.142,0.05-0.199,0.106c-0.149,0.149-0.149,0.396,0,0.546l0.117,0.113
		l2.317,2.32L69.39,94.052L58.75,83.415c-0.123-0.123-0.313-0.123-0.434,0l-2.886,2.888c-0.004,0-0.004,0.004-0.004,0.004
		l-17.056,17.05c-0.116,0.122-0.116,0.315,0,0.436l2.891,2.887c0.12,0.12,0.312,0.12,0.432,0L58.535,89.84l7.718,7.72
		c0.009,0.012,0.013,0.025,0.027,0.037l2.887,2.886c0.119,0.122,0.313,0.122,0.433,0l26.145-26.144l2.439,2.437
		c0.146,0.15,0.393,0.15,0.542,0c0.067-0.071,0.105-0.159,0.109-0.252l0.003-0.033l2.232-10.378L101.077,66.003z"/>
	<path fill="#056CB4" d="M75.993,99.99l-6.424,6.478c-0.122,0.099-0.299,0.095-0.415-0.017l-5.819-5.933
		c-1.063-1.061-1.294-0.201-1.294,0.218v30.506c0,0.415,0.334,0.755,0.752,0.755h13.716c0.417,0,0.758-0.34,0.758-0.755V100.23
		C77.266,99.811,76.934,99.046,75.993,99.99"/>
	<polygon fill="#056CB4" points="37.001,12.602 42.65,12.602 42.65,14.336 40.898,14.336 40.898,25.244 38.752,25.244 
		38.752,14.336 37.001,14.336 	"/>
	<path fill="#056CB4" d="M45.762,14.335v3.936h0.711c0.727,0,1.042-0.375,1.042-1.044v-1.864c0-0.69-0.315-1.027-1.042-1.027H45.762
		z M45.762,19.445v5.798h-2.127V12.602h3.099c2.142,0,2.926,1.064,2.926,2.833v1.624c0,1.359-0.487,2.163-1.698,2.443l2.035,5.741
		h-2.24L45.762,19.445z"/>
	<path fill="#056CB4" d="M53.145,21.236h1.697l-0.839-5.073h-0.018L53.145,21.236z M50.478,25.244l2.386-12.641h2.423l2.407,12.641
		h-2.181l-0.393-2.312h-2.256l-0.374,2.312H50.478z"/>
	<polygon fill="#056CB4" points="64.256,12.602 61.851,25.244 59.539,25.244 57.133,12.602 59.296,12.602 60.75,21.421 
		60.769,21.421 62.26,12.602 	"/>
	<path fill="#056CB4" d="M66.342,21.236h1.696l-0.837-5.073h-0.02L66.342,21.236z M63.676,25.244l2.385-12.641h2.425l2.407,12.641
		h-2.183l-0.392-2.312h-2.257l-0.372,2.312H63.676z"/>
	<rect x="71.767" y="12.602" fill="#056CB4" width="2.125" height="12.642"/>
	<polygon fill="#056CB4" points="75.123,12.602 77.248,12.602 77.248,23.511 79.786,23.511 79.786,25.244 75.123,25.244 	"/>
	<path fill="#056CB4" d="M85.731,23.511c0.876,0,1.211-0.522,1.211-1.287v-6.621c0-0.745-0.335-1.269-1.211-1.269h-0.897v9.176
		H85.731z M89.068,15.995v5.856c0,1.939-0.805,3.393-3.077,3.393h-3.283V12.603h3.283C88.264,12.603,89.068,14.036,89.068,15.995"/>
	<path fill="#056CB4" d="M94.695,11.707l-3.337,0.429V10.94l3.337-0.707V11.707z M90.277,12.602h5.072v1.734h-2.948v3.616h2.108
		v1.717h-2.108v3.842h2.948v1.732h-5.072V12.602z"/>
	<path fill="#056CB4" d="M96.298,21.981v-6.116c0-1.978,0.933-3.412,3.172-3.412c2.349,0,3,1.305,3,3.169v1.492h-1.938v-1.66
		c0-0.783-0.261-1.23-1.025-1.23s-1.082,0.541-1.082,1.306v6.788c0,0.764,0.317,1.304,1.082,1.304s1.025-0.484,1.025-1.23v-2.33
		h1.938v2.181c0,1.806-0.745,3.151-3,3.151C97.23,25.393,96.298,23.939,96.298,21.981"/>
	<polygon fill="#056CB4" points="103.623,12.602 108.695,12.602 108.695,14.336 105.75,14.336 105.75,17.952 107.857,17.952 
		107.857,19.669 105.75,19.669 105.75,23.511 108.695,23.511 108.695,25.244 103.623,25.244 	"/>
	<polygon fill="#056CB4" points="111.624,17.3 111.624,25.245 109.832,25.245 109.832,12.602 111.922,12.602 114.216,19.854 
		114.216,12.602 115.985,12.602 115.985,25.245 114.121,25.245 	"/>
	<polygon fill="#056CB4" points="116.954,12.602 122.605,12.602 122.605,14.336 120.852,14.336 120.852,25.244 118.706,25.244 
		118.706,14.336 116.954,14.336 	"/>
	<polygon fill="#056CB4" points="37.242,29.38 42.314,29.38 42.314,31.114 39.368,31.114 39.368,34.73 41.476,34.73 41.476,36.447 
		39.368,36.447 39.368,40.29 42.314,40.29 42.314,42.022 37.242,42.022 	"/>
	<polygon fill="#056CB4" points="43.208,29.38 48.856,29.38 48.856,31.114 47.105,31.114 47.105,42.022 44.96,42.022 44.96,31.114 
		43.208,31.114 	"/>
	<path fill="#056CB4" d="M51.802,38.759v-6.116c0-1.978,0.932-3.412,3.168-3.412c2.351,0,3.005,1.305,3.005,3.169v1.492h-1.94
		v-1.659c0-0.783-0.261-1.231-1.025-1.231c-0.763,0-1.081,0.541-1.081,1.306v6.788c0,0.765,0.318,1.304,1.081,1.304
		c0.765,0,1.025-0.483,1.025-1.23v-2.33h1.94v2.181c0,1.807-0.747,3.151-3.005,3.151C52.734,42.172,51.802,40.717,51.802,38.759"/>
	<path fill="#056CB4" d="M61.252,31.113v3.936h0.709c0.728,0,1.043-0.375,1.043-1.044v-1.864c0-0.69-0.315-1.028-1.043-1.028H61.252
		z M61.252,36.224v5.797h-2.125V29.38h3.096c2.145,0,2.928,1.064,2.928,2.834v1.624c0,1.359-0.485,2.163-1.697,2.443l2.032,5.741
		h-2.238L61.252,36.224z"/>
	<path fill="#056CB4" d="M70.613,39.096v-6.788c0-0.765-0.336-1.306-1.102-1.306c-0.745,0-1.081,0.541-1.081,1.306v6.788
		c0,0.765,0.336,1.304,1.081,1.304C70.276,40.4,70.613,39.861,70.613,39.096 M66.305,38.759v-6.116c0-1.978,0.97-3.412,3.207-3.412
		c2.256,0,3.226,1.434,3.226,3.412v6.116c0,1.958-0.97,3.413-3.226,3.413C67.274,42.172,66.305,40.717,66.305,38.759"/>
	<rect x="73.948" y="29.38" fill="#056CB4" width="2.126" height="12.642"/>
	<path fill="#056CB4" d="M77.19,39.301v-1.699h1.978v1.736c0,0.707,0.315,1.119,1.043,1.119c0.67,0,0.971-0.448,0.971-1.119v-0.484
		c0-0.727-0.301-1.175-0.953-1.79l-1.249-1.251c-1.212-1.192-1.77-1.92-1.77-3.375v-0.429c0-1.565,0.912-2.777,2.98-2.777
		c2.128,0,2.966,1.044,2.966,2.872v1.024H81.22v-1.1c0-0.727-0.339-1.081-1.009-1.081c-0.597,0-1.005,0.334-1.005,1.044v0.261
		c0,0.708,0.39,1.118,1.005,1.715l1.362,1.342c1.156,1.175,1.715,1.883,1.715,3.283v0.615c0,1.733-0.932,2.965-3.097,2.965
		C78.03,42.172,77.19,40.959,77.19,39.301"/>
	<path fill="#056CB4" d="M84.202,39.301v-1.699h1.978v1.736c0,0.707,0.314,1.119,1.044,1.119c0.668,0,0.969-0.448,0.969-1.119
		v-0.484c0-0.727-0.301-1.175-0.95-1.79l-1.25-1.251c-1.212-1.192-1.773-1.92-1.773-3.375v-0.429c0-1.565,0.914-2.777,2.982-2.777
		c2.126,0,2.968,1.044,2.968,2.872v1.024h-1.941v-1.1c0-0.727-0.337-1.081-1.005-1.081c-0.597,0-1.008,0.334-1.008,1.044v0.261
		c0,0.708,0.394,1.118,1.008,1.715l1.36,1.342c1.156,1.175,1.715,1.883,1.715,3.283v0.615c0,1.733-0.932,2.965-3.097,2.965
		C85.041,42.172,84.202,40.959,84.202,39.301"/>
	<path fill="#056CB4" d="M93.562,38.014h1.696l-0.839-5.073h-0.018L93.562,38.014z M90.894,42.022l2.385-12.641h2.425l2.407,12.641
		H95.93l-0.393-2.311h-2.258l-0.371,2.311H90.894z"/>
	<polygon fill="#056CB4" points="100.776,34.079 100.776,42.023 98.984,42.023 98.984,29.38 101.073,29.38 103.367,36.633 
		103.367,29.38 105.139,29.38 105.139,42.023 103.274,42.023 	"/>
	<path fill="#056CB4" d="M106.348,38.759v-6.116c0-1.978,0.932-3.412,3.171-3.412c2.349,0,3.001,1.305,3.001,3.169v1.492h-1.939
		v-1.659c0-0.783-0.26-1.231-1.024-1.231s-1.082,0.541-1.082,1.306v6.788c0,0.765,0.317,1.304,1.082,1.304s1.024-0.483,1.024-1.23
		v-2.33h1.939v2.181c0,1.807-0.745,3.151-3.001,3.151C107.279,42.172,106.348,40.717,106.348,38.759"/>
	<polygon fill="#056CB4" points="113.674,29.38 118.746,29.38 118.746,31.114 115.801,31.114 115.801,34.73 117.906,34.73 
		117.906,36.447 115.801,36.447 115.801,40.29 118.746,40.29 118.746,42.022 113.674,42.022 	"/>
	<path fill="#056CB4" d="M41.661,45.263l-3.338,0.43v-1.195l3.338-0.707V45.263z M37.242,46.159h5.072v1.734h-2.946v3.616h2.107
		v1.717h-2.107v3.842h2.946V58.8h-5.072V46.159z"/>
	<path fill="#056CB4" d="M43.264,55.538v-6.116c0-1.978,0.932-3.411,3.167-3.411c2.351,0,3.005,1.305,3.005,3.169v1.492h-1.94v-1.66
		c0-0.782-0.261-1.23-1.025-1.23c-0.763,0-1.082,0.541-1.082,1.305v6.789c0,0.765,0.318,1.305,1.082,1.305
		c0.764,0,1.025-0.484,1.025-1.23v-2.33h1.94v2.181c0,1.807-0.747,3.151-3.005,3.151C44.196,58.951,43.264,57.496,43.264,55.538"/>
	<path fill="#056CB4" d="M54.898,55.875v-6.789c0-0.764-0.337-1.305-1.102-1.305c-0.746,0-1.082,0.541-1.082,1.305v6.789
		c0,0.765,0.336,1.305,1.082,1.305C54.561,57.179,54.898,56.639,54.898,55.875 M50.589,55.538v-6.116
		c0-1.978,0.969-3.411,3.207-3.411c2.256,0,3.225,1.434,3.225,3.411v6.116c0,1.958-0.969,3.413-3.225,3.413
		C51.559,58.951,50.589,57.496,50.589,55.538"/>
	<polygon fill="#056CB4" points="60.025,50.857 60.025,58.801 58.232,58.801 58.232,46.159 60.32,46.159 62.615,53.412 
		62.615,46.159 64.387,46.159 64.387,58.801 62.522,58.801 	"/>
	<path fill="#056CB4" d="M69.903,55.875v-6.789c0-0.764-0.334-1.305-1.1-1.305c-0.747,0-1.081,0.541-1.081,1.305v6.789
		c0,0.765,0.334,1.305,1.081,1.305C69.568,57.179,69.903,56.639,69.903,55.875 M65.595,55.538v-6.116
		c0-1.978,0.971-3.411,3.208-3.411c2.258,0,3.225,1.434,3.225,3.411v6.116c0,1.958-0.967,3.413-3.225,3.413
		C66.566,58.951,65.595,57.496,65.595,55.538"/>
	<polygon fill="#056CB4" points="79.094,50.597 79.039,50.597 77.602,58.799 76.614,58.799 75.029,50.597 74.994,50.597 
		74.994,58.799 73.237,58.799 73.237,46.159 75.719,46.159 77.098,53.28 77.116,53.28 78.349,46.159 81.034,46.159 81.034,58.799 
		79.094,58.799 	"/>
	<rect x="82.243" y="46.159" fill="#056CB4" width="2.126" height="12.642"/>
	<path fill="#056CB4" d="M89.906,55.986v-6.9c0-0.763-0.336-1.304-1.102-1.304c-0.745,0-1.081,0.541-1.081,1.304v6.9
		c0,0.746,0.336,1.304,1.081,1.304C89.569,57.29,89.906,56.732,89.906,55.986 M88.021,59.658V58.8
		c-1.697-0.297-2.425-1.546-2.425-3.263v-6.116c0-1.978,0.973-3.411,3.208-3.411c2.258,0,3.224,1.434,3.224,3.411v6.116
		c0,1.381-0.482,2.462-1.564,2.984l1.564,0.298v1.585L88.021,59.658z"/>
	<path fill="#056CB4" d="M99.414,46.159v9.565c0,1.96-0.838,3.226-3.003,3.226c-2.238,0-3.17-1.266-3.17-3.226v-9.565h2.127v9.771
		c0,0.746,0.298,1.25,1.043,1.25c0.746,0,1.044-0.504,1.044-1.25v-9.771H99.414z"/>
	<polygon fill="#056CB4" points="100.624,46.159 105.696,46.159 105.696,47.893 102.75,47.893 102.75,51.509 104.856,51.509 
		104.856,53.226 102.75,53.226 102.75,57.068 105.696,57.068 105.696,58.8 100.624,58.8 	"/>
</g>
</svg>
