<?xml version="1.0" encoding="utf-8"?>
<!-- Generator: Adobe Illustrator 16.0.0, SVG Export Plug-In . SVG Version: 6.00 Build 0)  -->
<!DOCTYPE svg PUBLIC "-//W3C//DTD SVG 1.1//EN" "http://www.w3.org/Graphics/SVG/1.1/DTD/svg11.dtd">
<svg version="1.1" id="Layer_1" xmlns="http://www.w3.org/2000/svg" xmlns:xlink="http://www.w3.org/1999/xlink" x="0px" y="0px"
	 width="287px" height="137.759px" viewBox="0 0 287 137.759" enable-background="new 0 0 287 137.759" xml:space="preserve">
<rect y="-0.829" fill="#FFFFFF" width="287" height="138.173"/>
<g>
	<path fill="#3E8EDE" d="M144.462,29.269l0.13,0.191c0,0.703,0.084,1.425,0,2.121c0.635-0.214,1.374-0.179,2.059-0.292
		c-0.137-0.049-0.273-0.086-0.375-0.221c-0.404-0.026-0.596-0.447-0.723-0.766c-0.061-0.233,0.094-0.42,0.188-0.619
		c-0.171-0.352-0.706-0.093-1.015-0.223C144.641,29.39,144.582,29.289,144.462,29.269 M134.65,28.668l-0.026,0.105l-1.768,1.779
		c2.68,2.319,5.705,3.814,9.157,4.285c0.55,0.095,1.178,0.045,1.71,0.207l-0.13-0.207V32.51l0.086-0.13l-0.265,0.07
		C140.062,32.217,137.098,31.032,134.65,28.668 M153.724,28.694l-0.042-0.205c-0.242,0.471-0.774,0.773-1.178,1.134
		c-0.558,0.559-1.469,0.678-1.753,1.486c-0.301,0.275-0.403,0.703-0.823,0.859c-0.154,0.412-0.596,0.387-0.845,0.688
		c-0.723,0.643-1.185-0.414-1.837-0.542l-1.317,0.231c-0.454,0-0.909,0.163-1.337,0.018c0.058,0.876,0.058,1.821,0,2.697
		l0.161-0.102c4.141-0.182,7.716-1.754,10.782-4.537L153.724,28.694z M137.845,27.087c0.053,0.207,0.328,0.337,0.251,0.593
		c-0.146,0.233-0.447,0.242-0.689,0.233c-0.489-0.077-0.85,0.291-1.312,0.343c-0.422,0.13-0.568-0.385-0.955-0.343
		c2.389,2.087,5.123,3.395,8.317,3.564l0.24,0.165l-0.104-0.293v-2.268l-0.207,0.086C141.301,29.064,139.47,28.298,137.845,27.087
		 M137.785,27.019c-0.11-0.068-0.18-0.136-0.205-0.266L137.785,27.019z M137.512,26.649l-0.037-0.06l0.037,0.104V26.649z
		 M151.327,26.323l-0.06-0.163c-0.077,0.207-0.231,0.334-0.386,0.489c0.007,0.137-0.046,0.344,0.119,0.438
		c0.344,0.114,0.789,0.337,0.869,0.74c-0.14,0.377-0.862,0.722-0.413,1.134c0.144,0.207-0.207,0.284-0.147,0.456l0.119-0.163
		c0.519-0.403,1.076-0.782,1.531-1.281h0.06c-0.102-0.033-0.23,0.07-0.351,0.018c-0.241-0.11-0.283-0.326-0.283-0.575
		L151.327,26.323z M139.393,23.925c-0.507,0.619-1.108,1.264-1.71,1.753c0.268,0.019,0.414,0.31,0.638,0.438
		c1.288,1.076,2.894,1.591,4.389,1.961l-0.412-0.191c-0.309-0.352-0.747-0.764-0.764-1.255c0.31-0.102,0.273-0.447,0.378-0.678
		c0.256-0.275,0.566-0.419,0.903-0.5c-0.869,0.363-1.625-0.28-2.347-0.617C140.097,24.563,139.617,24.339,139.393,23.925
		 M147.684,23.686c-0.266,0-0.406,0.207-0.603,0.37c-0.238,0.139-0.36-0.258-0.558-0.163c0.012,0.042,0.053,0.06,0.088,0.077
		c0.049,0.06,0.066,0.189,0,0.249c-0.294,0.268-0.432-0.13-0.707-0.102v0.102c0.009,0.061-0.018,0.154-0.102,0.121
		c-0.174-0.284-0.523-0.181-0.697-0.43c-0.112-0.062-0.214,0.016-0.293,0.086c-0.06,0.13-0.334-0.018-0.266,0.207
		c-0.214,0.077-0.239,0.308-0.395,0.445c-0.267-0.043-0.387,0.258-0.636,0.249c0.028,0.053,0,0.138,0.077,0.147
		c0.154,0.068,0.309,0.086,0.5,0.06c0.258-0.414,0.687-0.068,1.048-0.222c0.223,0.042,0.068,0.284,0.23,0.37
		c0.354-0.114,0.619,0.3,0.904,0.042c-0.019-0.403,0.438-0.37,0.687-0.473c0.386-0.231,0.823-0.54,0.782-1.057L147.684,23.686z
		 M146.713,23.041c-0.024,0.068-0.123,0.191,0,0.233c0.207-0.215,0.646-0.205,0.662-0.517
		C147.075,22.714,146.92,22.877,146.713,23.041 M141.722,21.537c-0.37,0.603-1.074,1.151-1.59,1.71
		c0.918,0.755,1.951,1.229,3.092,1.427c0.061-0.231-0.033-0.524,0.086-0.722c0.087-0.189,0.319-0.18,0.491-0.147
		c0.102-0.007,0.163-0.135,0.102-0.223c-0.247-0.051-0.137-0.326-0.223-0.48c0.009-0.086,0.154-0.07,0.121-0.181
		c-0.172-0.137,0.085-0.293-0.06-0.438c0.06-0.043,0.102-0.138,0.189-0.138c-0.543,0.284-1.125-0.06-1.607-0.275
		C142.098,21.941,141.772,21.813,141.722,21.537 M152.546,21.537c-0.249-0.016-0.551,0.13-0.765-0.043
		c-0.077-0.067-0.129,0.037-0.119,0.105c-0.087,0.13-0.171,0.292-0.371,0.231c-0.154-0.068-0.154-0.231-0.207-0.353
		c0.011,0.097-0.024,0.181-0.042,0.267c-0.183,0.189-0.238,0.37-0.368,0.577c-0.182,0.196-0.473,0.128-0.662,0.291
		c-0.035,0.414-0.491,0.328-0.747,0.458c-0.018,0.049,0.042,0.058,0.067,0.102c0.122,0.033,0.283,0.033,0.371-0.086
		c0.361,0.094,0.284-0.361,0.487-0.516c0.183-0.024,0.354-0.182,0.543-0.06c0.189,0.231,0.231,0.566,0.203,0.868
		c-0.203,0.205-0.102,0.542-0.245,0.782c0.035,0.284-0.312,0.412-0.267,0.694c-0.111,0.13-0.301,0.147-0.473,0.147
		c-0.68-0.258-1.392-0.421-2.149-0.489c-0.066,0.025-0.111,0.086-0.102,0.163c0.309,0.163,0.688,0.172,1.014,0.309
		c0.291,0.077,0.49,0.438,0.858,0.328c0.309-0.173,0.824,0.104,1.03-0.223c-0.031-0.319,0.242-0.552,0.379-0.825l0.102-0.026
		c0.176,0.18,0.165,0.447,0.242,0.645c0.241-0.26,0.428-0.542,0.645-0.808c0.568-0.826,1.048-1.71,1.255-2.657
		C152.995,21.426,152.763,21.468,152.546,21.537 M147.684,21.521c0.008,0.13,0.025,0.3,0.137,0.412
		c0.334-0.051,0.189,0.412,0.498,0.37c0.172-0.051,0.011-0.198,0.06-0.31c-0.049-0.256-0.301-0.284-0.474-0.438
		c-0.014-0.051,0.018-0.095,0.043-0.138C147.821,21.349,147.762,21.426,147.684,21.521 M140.896,20.815
		c-0.052,0.215-0.198,0.405-0.352,0.559l0.026,0.018c0.205-0.146,0.35-0.412,0.619-0.429L140.896,20.815z M138.199,20.136
		c0.24,0.447,0.368,0.954,0.617,1.4c0.154,0.396,0.5,0.707,0.654,1.092c0.163-0.308,0.491-0.559,0.722-0.843
		c0.018-0.128-0.009-0.24-0.077-0.333c-0.077-0.181-0.009-0.44-0.145-0.594c-0.225,0.077,0.077,0.302-0.02,0.431
		c-0.093,0.06-0.196-0.018-0.205-0.105c-0.198-0.033-0.352-0.205-0.412-0.386c0.163-0.104-0.042-0.147-0.086-0.233
		c-0.086-0.041-0.095-0.033-0.163,0.044c-0.044,0-0.095,0.009-0.13-0.018C138.954,20.103,138.406,20.396,138.199,20.136
		 M133.783,19.08l-0.189,0.086c-0.799-0.018-1.632,0.053-2.387-0.058l0.102,0.146l0.188,1.581c0.077,0.61,0.345,1.193,0.328,1.794
		c0.094-0.128,0.033-0.385,0.266-0.412c-0.095-0.189,0.181-0.354,0.026-0.517c0.077-0.41,0.128-0.833,0.489-1.134
		c0.438-0.016,0.473-0.592,0.909-0.617c0.225-0.009,0.363,0.293,0.458,0.395C133.697,20.008,133.714,19.458,133.783,19.08
		 M130.423,19.08l-0.231,0.086l-2.389-0.018c0.137,2.75,0.868,5.251,2.105,7.545c0.61,1.134,1.503,2.157,2.285,3.214l1.71-1.771
		l0.205-0.086c-0.292-0.207-0.55-0.54-0.797-0.824c-0.286-0.077-0.577-0.275-0.724-0.55c-0.086-0.093-0.007-0.267-0.102-0.335
		l-0.105,0.128c-0.3,0.147-0.41-0.163-0.617-0.291c-0.268-0.147-0.139-0.654-0.5-0.559c-0.139-0.007-0.179-0.165-0.265-0.249
		c-0.336,0.035-0.422-0.335-0.603-0.517c-0.035,0.079,0,0.182-0.104,0.235c-0.342,0.077-0.462-0.345-0.696-0.517
		c-0.06,0.026-0.102,0.095-0.189,0.077c-0.205-0.18-0.342-0.438-0.351-0.722c-0.284-0.317-0.154-0.823-0.105-1.211
		c0.052-0.104,0.198-0.163,0.173-0.291c0.077-0.18,0.265-0.2,0.447-0.207c0.068,0.035,0.137,0.104,0.172,0.163
		c0.11-0.07,0.361,0.007,0.266-0.24c0.144-0.13,0.359-0.172,0.558-0.207c0.138,0.172,0.207,0.37,0.387,0.531l-0.119-0.188
		c-0.207-0.841-0.37-1.702-0.414-2.611c0.009-0.053-0.11-0.077-0.044-0.13l0.018,0.026C130.405,19.373,130.39,19.209,130.423,19.08
		 M134.564,19.046l0.128,0.207c0.018,0.566,0.24,1.107,0.121,1.682c0.095-0.163,0.119-0.385,0.326-0.491
		c0.026-0.154-0.207-0.196-0.179-0.351c0.163-0.317,0.007-0.833,0.428-0.971C135.086,19.174,134.822,19.234,134.564,19.046
		 M154.611,19.02c0.049,0.524-0.088,1.031-0.123,1.546l0.284,0.31c0.077,0.121,0.049,0.3-0.06,0.396
		c-0.123,0.077-0.277,0.067-0.396-0.026c-0.36,1.152-0.781,2.277-1.503,3.283c-0.284,0.361-0.558,0.859-0.929,1.048l0.784,0.687
		c0.043-0.042,0.018-0.112,0.025-0.171c0-0.104,0.052-0.225,0.179-0.207c0.378-0.009,0.385,0.395,0.603,0.601
		c-0.042,0.328,0.242,0.585,0.144,0.885c2.166-2.284,3.249-5.086,3.445-8.186l0.123-0.139c-0.774,0.077-1.592,0.024-2.391,0.033
		L154.611,19.02z M158.056,19.08l-0.147-0.102l0.085,0.231c-0.137,2.86-1.091,5.387-2.724,7.629
		c-0.319,0.378-0.617,0.841-1.014,1.109c0.656,0.515,1.374,1.288,1.914,1.88l0.07-0.128c2.629-2.999,4.122-6.469,4.287-10.491
		l0.104-0.207l-0.13,0.062L158.056,19.08z M152.178,18.96l0.267,0.267c0.267,0.18,0.084,0.568,0.368,0.722
		c0.336,0.172,0.455,0.558,0.603,0.85c0.049-0.077,0.049-0.171,0.077-0.249c0.119-0.472,0.102-1.006,0.249-1.471
		C153.226,19.108,152.634,19.157,152.178,18.96 M152.711,18.118c-0.07,0.035-0.165,0.009-0.249,0.019
		C152.54,18.1,152.634,18.118,152.711,18.118 M136.625,17.825c-0.694,0.225,0.112,0.749-0.06,1.178
		c-0.095,0.251-0.351,0.018-0.533,0.121l-0.068,0.456c-0.104,0.265-0.438,0.068-0.594,0.249c-0.11,0.172,0.009,0.352,0.105,0.491
		c-0.242,0.548,0.54,0.72,0.533,1.218c0.24,0.311-0.035,0.757,0.309,1.032c0.077,0.558-0.077,1.313,0.412,1.751l0.087,0.533
		c0.102,0.37-0.438,0.277-0.37,0.601c0.102-0.049,0.128,0.088,0.137,0.123v-0.018c0.661-0.764,1.427-1.572,2.208-2.25l-0.326-0.328
		c-0.612-0.912-1.092-1.882-1.323-2.946l-0.249-0.129c-0.01,0.275-0.138,0.491-0.121,0.764l-0.086,0.103
		c-0.181-0.007-0.293-0.154-0.447-0.247c-0.035-0.096-0.13-0.25,0.018-0.328c0.085-0.009,0.145,0.016,0.207,0.06
		c0.077-0.095,0.042-0.231,0.084-0.352c0.026-0.207-0.154-0.396-0.024-0.575c0.163-0.017,0.282,0.179,0.351,0.291
		c0.165,0.053,0.292-0.086,0.431-0.147c0-0.144,0.207-0.342-0.018-0.428c0.119-0.336,0.033-0.687-0.016-1.015
		C137.175,17.748,136.858,17.8,136.625,17.825 M144.093,15.704c-0.139-0.154-0.438-0.061-0.619,0
		c0.172,0.17,0.104,0.482,0.205,0.696c-0.258,0.43-0.687,0.524-1.09,0.645c-0.112,0.137-0.085,0.438-0.352,0.41
		c-0.086,0.191-0.378,0.303-0.268,0.577c-0.135,0.292-0.067,0.669-0.146,0.988c-0.506,0.319-0.359-0.42-0.619-0.575l-0.086,0.146
		c-0.102,0.026-0.17-0.035-0.24-0.104c-0.077-0.026-0.207-0.051-0.275,0.018c-0.11,0.189-0.284,0.343-0.24,0.603
		c-0.051,0.154-0.309,0.102-0.275,0.265c0.284-0.009,0.592-0.06,0.867-0.119c0.198,0.051,0.361-0.097,0.559-0.105
		c0.068,0.037,0.146,0.105,0.121,0.207h0.068c0.138-0.102,0.198-0.258,0.138-0.412c0.016-0.181,0.214-0.181,0.333-0.233
		c0.112,0.052,0.044,0.163,0.062,0.25c0.386,0.147-0.095,0.43-0.147,0.636c-0.102,0.161,0,0.531-0.326,0.482
		c-0.06-0.019-0.104-0.079-0.084-0.147h-0.044c-0.009,0.136,0.093,0.326,0.231,0.387c0.24-0.198,0.249-0.533,0.592-0.577
		c0.181-0.189-0.077-0.48,0.191-0.634c0.447-0.011,0.927-0.198,1.279,0.163c-0.028,0.154-0.087,0.223,0.042,0.351
		c-0.086,0.198-0.147,0.414-0.308,0.577c0.042,0.112,0.007,0.247-0.086,0.328c-0.121,0.524-0.724,0.273-1.074,0.454
		c0.542,0.412,1.193,0.566,1.898,0.514c0.37-0.016,0.207-0.472,0.396-0.678c0.119-0.602,0.67-0.188,1.006-0.351
		c0.126-0.26,0.256-0.507,0.291-0.799c-0.216-0.139-0.3-0.395-0.232-0.645c-0.145-0.198-0.129-0.559-0.445-0.59
		c-0.053-0.07-0.012-0.158,0.035-0.209c-0.012-0.189,0.178-0.249,0.229-0.396c-0.197-0.128-0.145-0.412-0.127-0.575
		c-0.336,0.095-0.37-0.343-0.619-0.438c-0.062-0.198-0.275-0.231-0.447-0.267c-0.412,0.198-0.48-0.31-0.791-0.428
		c-0.033-0.096-0.104-0.235,0-0.312c0.156-0.128,0.361-0.016,0.542-0.025L144.093,15.704z M139.925,14.278h0.189
		c0.205,0.207,0.542,0.163,0.696,0.438c0.077,0.154-0.146,0.138-0.138,0.266c0.043,0.035,0.104,0.044,0.138,0.104
		c0.163,0.062,0.13-0.095,0.188-0.163c0.216-0.213,0.251,0.205,0.458,0.205c0.147-0.094,0.351-0.102,0.456,0.06
		c0.137-0.119,0.428-0.007,0.472-0.231c0.268-0.284,0.121-0.722,0.517-0.901c0.137,0.077-0.009,0.205,0.04,0.326
		c0.268,0.112,0.568-0.224,0.784,0.042c-0.198-0.559-0.146-1.255-0.13-1.872C142.21,12.73,140.94,13.205,139.925,14.278
		 M144.547,12.481c0.165,0.491,0.017,1.211,0.123,1.779l0.616,0.207c0.182-0.299,0.576-0.361,0.749-0.645
		c0.11-0.093,0.241,0,0.325,0.104c0.027,0.231-0.031,0.463-0.103,0.687c-0.231,0.464-0.782,0.524-1.092,0.861
		c0.198,0.11,0.31-0.095,0.475-0.139c0.238,0.024,0.428,0.231,0.573,0.386c0.156,0.07,0.301-0.025,0.438-0.077
		c0.094-0.712,0.988-0.61,1.254-1.279l-0.16,0.06c-0.07-0.093-0.242-0.051-0.232-0.207c0.148-0.137,0.334-0.352,0.516-0.41
		c-0.774-0.483-1.573-0.894-2.449-1.118C145.235,12.611,144.873,12.602,144.547,12.481 M137.125,12.197
		c-1.187,1.418-1.994,2.983-2.312,4.762c-0.095,0.412-0.044,0.894-0.207,1.279c0.302-0.138,0.74-0.086,1.075-0.043
		c-0.196-0.102-0.034-0.351-0.146-0.489c-0.026-0.215-0.06-0.482,0.146-0.617c-0.025-0.354,0.352-0.535,0.387-0.854
		c0.095-0.361,0.506-0.118,0.705-0.309c0.129-0.068,0.016-0.188,0.016-0.284c0.172-0.231,0.44-0.223,0.646-0.351
		c0.146-0.225,0.333-0.466,0.575-0.601c0.515,0.018,0.522-0.707,1.013-0.722C138.353,13.461,137.717,12.783,137.125,12.197
		 M151.102,12.113l-0.042,0.102c-0.792,0.826-1.658,1.677-2.415,2.519c0.053,0.102,0.141,0.198,0.235,0.249
		c0.031-0.205,0.144-0.387,0.161-0.601c0.206-0.282,0.515-0.103,0.781-0.042c0.414-0.095,0.799,0.093,1.22,0.084
		c0.309,0.154,0.337,0.55,0.62,0.704c0.077,0.112,0.015,0.242-0.087,0.328c0.087,0.643,0.396-0.174,0.722-0.02
		c0.137,0.053,0.309,0.037,0.414,0.182c0.052,0.265,0.375,0.216,0.393,0.472c-0.025,0.129-0.162,0.163-0.249,0.231
		c0.077,0.259-0.263,0.422-0.144,0.697c0.497,0.095,0.515-0.482,0.746-0.738c-0.13-0.447-0.225-0.902-0.48-1.299
		c-0.283-0.06-0.455-0.396-0.739-0.456c-0.551-0.215,0.084-0.557,0.018-0.885C151.96,13.091,151.499,12.602,151.102,12.113
		 M134.667,9.725l-0.018,0.163l-0.929,1.176c-1.52,2.089-2.242,4.502-2.457,7.131l2.355-0.042l0.223,0.086
		c-0.095-0.061-0.068-0.163-0.104-0.249c0.189-2.448,1.048-4.63,2.741-6.453C135.826,10.971,135.216,10.37,134.667,9.725
		 M144.522,9.078l0.086,0.191l-0.016,2.327l0.221-0.042c1.428,0.196,2.731,0.652,3.856,1.574l0.063,0.179
		c0.386-0.542,0.971-1.004,1.427-1.52l0.427-0.25l-0.206-0.086c-0.943-0.791-1.974-1.392-3.092-1.788
		C146.419,9.354,145.467,9.225,144.522,9.078 M143.622,9.062l-0.147,0.086c-2.184,0.154-4.073,1.067-5.731,2.433
		c0.654,0.456,1.236,1.185,1.83,1.708c0.044-0.06,0.088-0.121,0.128-0.189c0.817-0.584,1.658-1.117,2.622-1.356
		c0.429-0.042,0.85-0.249,1.299-0.147C143.525,10.788,143.525,9.895,143.622,9.062 M132.321,7.266
		c-2.448,2.725-3.961,5.834-4.397,9.383c-0.097,0.517-0.037,1.048-0.139,1.572c0.859-0.068,1.796-0.068,2.653,0l-0.06-0.334
		c0.165-2.739,1.04-5.181,2.578-7.362c0.387-0.438,0.671-0.989,1.151-1.316c-0.559-0.524-1.143-1.134-1.728-1.71L132.321,7.266z
		 M155.95,7.206c-0.474,0.636-1.118,1.23-1.711,1.838l-0.29,0.062c0.179,0.042,0.23,0.256,0.35,0.385
		c0.628,0.335,0.793,1.006,1.34,1.383c0.312,0.645,1.023,1.145,1.048,1.884c0.75,1.649,1.255,3.393,1.308,5.334l-0.067,0.102
		c0.077,0,0.144-0.034,0.207-0.077l2.472-0.042c-0.162-0.24-0.095-0.593-0.137-0.885C160.142,13.366,158.508,10.093,155.95,7.206
		 M136.858,7.989c-0.533,0.368-1.024,0.849-1.572,1.176c0.636,0.403,1.16,1.074,1.735,1.607l0.06,0.161
		c1.462-1.398,3.239-2.215,5.156-2.611c0.456-0.042,0.91-0.196,1.356-0.102c-0.033-0.816-0.102-1.667-0.016-2.475
		C141.085,5.892,138.853,6.649,136.858,7.989 M152.28,5.678c-0.179,0.17-0.333-0.154-0.498,0.044
		c-0.007,0.093,0.008,0.179,0.06,0.247c0.361,0.13,0.403,0.654,0.87,0.533c0.137-0.154-0.088-0.317-0.043-0.515
		C152.606,5.806,152.452,5.729,152.28,5.678 M144.504,5.66l0.088,0.163c-0.02,0.799,0.033,1.649-0.045,2.397
		c0.326-0.114,0.663,0.025,0.989,0.033c1.687,0.275,3.274,0.817,4.624,1.856c-0.165-0.171-0.361-0.37-0.396-0.619
		c0.024-0.033,0.06-0.043,0.102-0.033c0.018-0.266-0.263-0.405-0.309-0.645c0.046-0.052,0.102-0.102,0.189-0.077
		c0.291,0.275,0.543,0.577,0.757,0.885c0.189-0.077,0.344,0.042,0.48,0.147c0.249,0.146,0.095,0.463,0.284,0.635
		c0.035,0.506,0.651,0.791,0.617,1.298c0.01,0.12,0.153,0.025,0.206,0.086l0.516,0.635c-0.095,0.121-0.014,0.266,0.088,0.352
		c0.231,0.104,0.36-0.189,0.592-0.146c0.333,0.188-0.053,0.412-0.018,0.617c0.13,0.009,0.291-0.102,0.396,0.028
		c0.042,0.188-0.154,0.309-0.231,0.428c0,0.191,0.154,0.147,0.291,0.191c0.154-0.009,0.249,0.179,0.207,0.309
		c0.428,0.447-0.13,0.927,0.077,1.4c0.137,0.31-0.035,0.61-0.225,0.843c0.011,0.377-0.337,0.608-0.474,0.927l-0.438,0.084
		c-0.231,0.235,0.199,0.517-0.032,0.663l0.961,0.019l-0.105-0.105c-0.137-0.378-0.102-0.885,0.13-1.22
		c0.147-0.309,0.183-0.678,0.456-0.945c0.06-0.018,0.171-0.128,0.224,0c0.018,0.291-0.007,0.627-0.146,0.885
		c0.276,0.394,0.241,0.909,0.266,1.4c0.852-0.052,1.687-0.068,2.517-0.06l-0.077-0.163c-0.126-1.59-0.455-3.095-1.114-4.452
		c-0.183,0.009-0.312,0.154-0.516,0.104c-0.069-0.026-0.111-0.095-0.104-0.174c-0.344-0.324-0.558-0.755-0.943-1.048
		c-0.438,0.044-0.638-0.463-1.03-0.515c-0.354-0.144-0.115-0.711-0.62-0.558c-0.249-0.103-0.491-0.292-0.544-0.576
		c0-0.447-0.084-0.927-0.487-1.22c-0.308-0.112-0.438,0.302-0.746,0.233c-0.176-0.086-0.099-0.31-0.147-0.456
		c-0.06-0.13-0.207-0.225-0.182-0.395c0.406-0.533-0.487-0.524-0.291-1.048c-0.05-0.379-0.438-0.524-0.635-0.826
		c-1.332-0.601-2.664-1.015-4.168-1.195C145.166,5.755,144.824,5.832,144.504,5.66 M146.506,3.538l-1.236,0.531
		c-0.104-0.042-0.301-0.093-0.369,0.044c-0.053,0.044,0,0.104,0.016,0.147c0.455,0.583,1.248,0.256,1.814,0.145
		c0.414,0.172,0.807-0.033,1.115-0.292v-0.06C147.555,3.641,147.004,3.58,146.506,3.538 M143.56,2.241
		c-3.455,0.137-6.521,1.314-9.245,3.273c-0.524,0.361-0.989,0.91-1.521,1.218h0.077c0.678,0.5,1.325,1.213,1.898,1.832l0.044-0.121
		c2.508-2.285,5.429-3.539,8.78-3.693l-0.077-0.207l-0.024-2.063L143.56,2.241z M144.522,2.155c0.104,0.678,0.077,1.605,0.025,2.371
		c0-0.077,0.035-0.146,0.079-0.207c0.121-0.068,0.223,0.033,0.275,0.119c0.009,0.121,0.058,0.328-0.044,0.396
		c0.102,0.018,0.154-0.06,0.249-0.06c1.969,0.146,3.788,0.722,5.421,1.649V6.38c0.333-0.163,0.765-0.376,1.108-0.085
		c0.413-0.154,0.49,0.354,0.827,0.414c0.402,0.24,0.858,0.687,0.907,1.158c0.077,0.156,0.319,0.268,0.354,0.431
		c0.273-0.585,0.823-0.996,1.297-1.503l0.291-0.121c-2.594-2.475-5.679-3.84-9.114-4.312C145.647,2.266,145.046,2.318,144.522,2.155
		 M159.662,11.125c1.784,3.445,2.292,8.188,1.132,12.079c-1.178,4.597-5.044,9.246-9.544,11.136
		c-5.069,2.483-12.271,1.865-16.789-1.374c-6.281-4.306-8.849-11.72-6.95-19.04c1.149-4.348,4.614-8.738,8.849-10.757
		c2.38-1.176,4.984-1.805,7.82-1.854C150.657,1.321,156.843,5.127,159.662,11.125"/>
	<path fill="#3E8EDE" d="M160.261,4.568c1.266,1.125,1.833,2.587,2.201,4.099l0.207,0.48c-1.83-1.314-3.488-3.084-4.658-4.949
		l-1.427-1.442C157.839,3.289,159.188,3.606,160.261,4.568"/>
	<path fill="#3E8EDE" d="M128.318,6.812c-0.841,1.04-1.917,1.727-2.871,2.62c0.515-1.063,0.535-2.336,1.264-3.317
		c1.039-1.812,2.963-2.447,4.683-3.118C130.13,4.106,129.254,5.504,128.318,6.812"/>
	<path fill="#3E8EDE" d="M164.73,8.71c0.403,1.803-0.183,3.566,0.189,5.387l-0.018,0.018c-0.978-1.933-3.067-2.845-4.501-4.39
		c-0.834-0.918-1.195-2.037-1.401-3.221c0.823,1.982,3.039,2.422,4.314,4.087c0.428,0.389,0.564,0.922,0.841,1.36l0.042-0.044
		c-0.729-1.563-0.98-3.324-1.485-4.993c-0.26-0.721-0.765-1.434-1.444-1.89C162.932,5.37,164.386,7.111,164.73,8.71"/>
	<path fill="#3E8EDE" d="M126.755,5.334c-1.702,1.167-1.591,3.263-2.131,5.009c-0.172,0.643-0.473,1.237-0.619,1.898l0.042,0.035
		c0.284-0.747,0.784-1.453,1.4-2.063c1.211-1.116,2.999-1.812,3.593-3.461c-0.026,2.292-1.942,4.096-3.771,5.388
		c-0.755,0.661-1.486,1.417-1.9,2.268c-0.042-0.577,0.086-1.162,0.044-1.779c-0.198-2.003-0.345-4.287,1.072-5.774
		C125.095,6.09,125.878,5.557,126.755,5.334"/>
	<path fill="#3E8EDE" d="M165.802,9.106c1.521,2.061,1.858,5.343,0.75,7.706c-0.413,1.004-0.704,2.07-0.869,3.179
		c-0.077-0.188-0.095-0.447-0.164-0.663c-0.6-2.31-2.79-3.961-3.694-6.143c-0.284-0.712-0.522-1.451-0.659-2.224
		c0.96,1.777,3.333,2.699,3.975,4.656c0.27,0.498,0.252,1.117,0.414,1.649c0.034,0,0.069-0.024,0.069-0.06
		c-0.283-2.019-0.199-4.133,0.077-6.127c-0.018-1.082-0.119-2.129-0.722-2.964C165.365,8.342,165.54,8.77,165.802,9.106"/>
	<path fill="#3E8EDE" d="M123.12,8.461c-1.307,1.986-0.222,4.485-0.284,6.744l-0.172,2.312c0.026,0.017,0.026,0.085,0.086,0.061
		c0.077-0.257,0.095-0.533,0.147-0.801c0.308-1.865,1.924-3.186,3.342-4.476c0.302-0.335,0.566-0.678,0.721-1.073
		c-0.111,0.929-0.403,1.863-0.789,2.724c-1.101,2.147-3.137,3.908-3.507,6.367c-0.18-2.355-1.786-4.117-1.625-6.618
		c-0.051-2.028,0.792-3.686,1.979-5.196C123.051,8.485,123.076,8.452,123.12,8.461"/>
	<path fill="#3E8EDE" d="M167.229,22.483c-0.9,1.28-1.994,2.475-2.825,3.78c0.095-1.03,0.214-2.303-0.189-3.282
		c-0.697-2.105-1.307-4.245-1.503-6.555l0.024-0.885c0.525,2.362,2.846,3.985,2.699,6.631c0.052,0.645-0.147,1.187-0.267,1.752
		l0.042,0.044l0.102-0.121c0.347-1.297,0.519-2.662,1.048-3.875c0.768-1.744,1.711-3.507,1.325-5.61
		C168.845,16.847,168.495,20.163,167.229,22.483"/>
	<path fill="#3E8EDE" d="M122.458,21.658c0.25,0.869,0.31,1.805,0.662,2.62c0.035,0.018,0.06-0.016,0.084-0.042
		c-0.883-2.477,0.389-4.769,1.668-6.702c0.31-0.524,0.489-1.107,0.643-1.71c0.139,1.118-0.146,2.406-0.309,3.567
		c-0.308,1.479-0.773,2.877-1.178,4.311c-0.265,0.896-0.196,1.909-0.06,2.844l-0.128-0.102c-0.938-1.728-2.792-3.076-3.344-4.967
		c-0.454-1.502-0.755-3.248-0.447-4.89c0.147-0.634,0.259-1.288,0.533-1.872C120.06,17.396,121.867,19.33,122.458,21.658"/>
	<path fill="#3E8EDE" d="M163.682,26.547c-0.063,1.158-0.438,2.19-1.048,3.118h0.102c0.827-1.081,1.469-2.233,2.433-3.265
		c1.493-1.442,3.014-2.919,3.214-4.923c0.505,3.344-1.367,6.272-4.143,8.162c-1.144,0.749-2.304,1.444-3.404,2.296V31.83
		c1.687-2.801,0.862-6.639,1.9-9.718l0.389-1.029C162.908,22.999,163.742,24.621,163.682,26.547"/>
	<path fill="#3E8EDE" d="M126.788,30.345c0.182,0.634,0.552,1.202,0.791,1.812c-2.559-1.746-6.048-3.403-7.182-6.598
		c-0.482-1.099-0.533-2.466-0.43-3.728c0.207,2.843,3.265,4.347,4.683,6.7c0.334,0.482,0.625,1.015,1.073,1.418
		c-0.068-0.302-0.353-0.558-0.454-0.868c-0.5-0.988-0.678-2.165-0.561-3.36c0.139-1.453,0.749-2.8,0.517-4.331
		C126.471,24.082,126.092,27.432,126.788,30.345"/>
	<path fill="#3E8EDE" d="M159.869,32.466c-0.441,0.766-1.069,1.505-1.756,2.106c0.224-0.01,0.424-0.207,0.62-0.336
		c1.847-1.837,4.252-2.354,6.246-3.849c0.799-0.636,1.531-1.469,1.882-2.371c-0.378,3.051-3.41,5.911-6.273,6.821
		c-1.477,0.396-3.057,0.524-4.494,1.015c2.433-2.087,2.296-5.317,3.919-7.774c0.519-0.697,0.946-1.426,1.546-2.089
		C160.57,27.972,161,30.543,159.869,32.466"/>
	<path fill="#3E8EDE" d="M129.186,29.89c0.86,2.113,1.187,4.502,3.17,6.099c-2.147-0.703-4.666-0.506-6.555-1.83
		c-2.071-1.271-3.919-3.428-4.306-5.799c1.427,3.23,5,3.497,7.398,5.464c0.438,0.386,0.902,0.722,1.402,0.954l0.024-0.024
		c-0.548-0.5-1.187-1.067-1.572-1.71c-1.4-1.951-0.912-4.683-1.959-6.779C127.743,27.404,128.609,28.591,129.186,29.89"/>
	<path fill="#3E8EDE" d="M154.67,36.178c-0.525,0.343-1.188,0.405-1.729,0.663c0.775,0.016,1.476-0.258,2.244-0.335
		c2.832-0.447,6.081,0.009,8.064-2.408c-0.735,1.686-2.583,3.095-4.269,3.688c-2.896,1.09-5.809-0.249-8.581-0.697l-0.536-0.067
		v-0.019c1.325-0.3,2.611-0.694,3.67-1.649c1.557-1.495,2.938-3.03,4.665-4.209C156.92,32.785,156.784,35.121,154.67,36.178"/>
	<path fill="#3E8EDE" d="M134.795,35.396c1.101,0.962,2.424,1.409,3.815,1.693c-0.335,0.121-0.773,0.086-1.134,0.179
		c-2.5,0.621-5.286,1.626-7.939,0.724c-1.726-0.542-3.505-1.907-4.374-3.609c2.287,2.604,6.023,1.735,9.075,2.414
		c0.427,0.062,0.825,0.233,1.279,0.163c-0.361-0.231-0.868-0.207-1.264-0.412c-2.387-0.843-2.741-3.428-4.038-5.172
		C131.874,32.475,133.267,33.96,134.795,35.396"/>
	<path fill="#3E8EDE" d="M153.458,38.918c1.854,0.687,4.263,0.5,5.851-0.634c-0.817,1.02-1.932,1.751-3.092,2.165
		c-2.576,0.96-5.269-0.044-7.276-1.572c-0.817-0.515-1.539-1.264-2.598-1.193c-0.378-0.011-0.748,0.007-1.072,0.102
		c1.959,0.912,3.771,2.165,5.439,3.771c-0.284,0.319-0.645,0.621-0.988,0.894c-1.599-1.727-3.379-3.386-5.362-4.357
		c-0.388,0.053-0.755,0.284-1.109,0.473c-1.616,1.022-3.212,2.338-4.415,3.943l-1.032-0.85c1.649-1.668,3.472-2.963,5.464-3.893
		c-1.959-0.619-3.238,1.022-4.725,1.858c-1.735,1.211-4.227,1.777-6.325,0.943c-1.125-0.429-2.215-1.055-3.032-2.079
		c1.649,1.136,4.108,1.255,5.979,0.515c2.519-1.09,5.13-2.475,8.162-1.812c0.474,0.009,0.938,0.48,1.385,0.077
		c2.251-0.585,4.803-0.181,6.745,0.85L153.458,38.918z"/>
	<path fill="#00ADED" d="M67.949,129.281c6.264,0,8.623-5.37,8.623-10.13c0-5.124-2.196-10.046-9.111-10.046h-4.678v20.176H67.949z
		 M56.68,103.897h11.513c9.274,0,14.727,5.45,14.727,15.296c0,9.766-6.752,15.297-14.563,15.297H56.68V103.897z"/>
	<path fill="#00ADED" d="M104.965,103.897h6.101v17.9c0,9.559-6.061,13.26-12.732,13.26c-6.67,0-12.732-3.701-12.732-13.26v-17.9
		h6.101v17.938c0,5.086,2.28,7.771,6.632,7.771s6.632-2.686,6.632-7.771V103.897z"/>
	<path fill="#00ADED" d="M125.262,117.444c4.19,0,5.247-2.236,5.247-4.192c0-2.194-1.057-4.146-5.451-4.146h-3.866v8.339H125.262z
		 M124.772,122.407h-3.581v12.083h-6.101v-30.593h11.432c6.427,0,10.089,4.027,10.089,9.113c0,3.214-1.751,7.402-5.696,8.584
		l7.119,12.896h-7.284L124.772,122.407z"/>
	<path fill="#00ADED" d="M151.049,111.261h-0.08l-3.863,11.879h7.849L151.049,111.261z M156.584,128.103h-11.188l-1.995,6.387h-6.59
		l11.146-30.593h6.428l10.981,30.593h-6.712L156.584,128.103z"/>
	<path fill="#00ADED" d="M176.836,129.281c3.866,0,5.247-1.707,5.247-3.862c0-1.953-1.22-3.989-4.756-3.989h-4.519v7.852H176.836z
		 M176.514,116.466c2.889,0,4.841-1.301,4.841-3.744c0-2.52-1.872-3.617-4.312-3.617h-4.234v7.361H176.514z M166.71,103.897h10.858
		c6.51,0,9.889,3.337,9.889,8.3c0,3.375-1.914,5.289-4.111,6.306v0.081c2.727,0.648,5.086,3.133,5.086,6.957
		c0,5.612-4.312,8.949-10.617,8.949H166.71V103.897z"/>
	<polygon fill="#00ADED" points="191.401,103.897 197.5,103.897 197.5,128.793 209.255,128.793 209.255,134.49 191.401,134.49 	"/>
	<polygon fill="#00ADED" points="211.576,103.897 231.099,103.897 231.099,109.347 217.675,109.347 217.675,116.305 
		230.735,116.305 230.735,121.755 217.675,121.755 217.675,129.039 231.099,129.039 231.099,134.49 211.576,134.49 	"/>
	<path fill="#00ADED" d="M61.775,95.039c2.834,0,3.899-2.426,3.899-4.578c0-2.32-0.992-4.546-4.12-4.546h-2.115v9.124H61.775z
		 M56.68,83.563h5.207c4.194,0,6.658,2.464,6.658,6.915c0,4.413-3.053,6.916-6.584,6.916H56.68V83.563z"/>
	<polygon fill="#00ADED" points="69.888,83.563 78.717,83.563 78.717,86.027 72.645,86.027 72.645,89.17 78.55,89.17 78.55,91.638 
		72.645,91.638 72.645,94.929 78.717,94.929 78.717,97.394 69.888,97.394 	"/>
	<path fill="#00ADED" d="M89.125,95.039c2.832,0,3.899-2.426,3.899-4.578c0-2.32-0.992-4.546-4.12-4.546H86.79v9.124H89.125z
		 M84.031,83.563h5.207c4.194,0,6.658,2.464,6.658,6.915c0,4.413-3.053,6.916-6.584,6.916h-5.28V83.563z"/>
	<path fill="#00ADED" d="M101.982,80.194h2.483l-2.577,2.576h-1.524L101.982,80.194z M97.236,83.563h8.83v2.464h-6.071v3.144h5.906
		v2.468h-5.906v3.291h6.071v2.465h-8.83V83.563z"/>
	<polygon fill="#00ADED" points="114.949,83.563 117.931,83.563 113.442,97.394 110.535,97.394 106.029,83.563 109.064,83.563 
		112.024,93.735 112.063,93.735 	"/>
	<polygon fill="#00ADED" points="118.535,83.563 127.365,83.563 127.365,86.027 121.293,86.027 121.293,89.17 127.2,89.17 
		127.2,91.638 121.293,91.638 121.293,94.929 127.365,94.929 127.365,97.394 118.535,97.394 	"/>
	<polygon fill="#00ADED" points="128.67,83.563 131.429,83.563 131.429,94.818 136.746,94.818 136.746,97.394 128.67,97.394 	"/>
	<path fill="#00ADED" d="M143.919,85.767c-2.576,0-3.865,2.226-3.865,4.711c0,2.481,1.289,4.707,3.865,4.707
		c2.573,0,3.863-2.226,3.863-4.707C147.783,87.993,146.493,85.767,143.919,85.767 M143.919,83.303c4.305,0,6.73,3.459,6.73,7.175
		s-2.426,7.175-6.73,7.175c-4.306,0-6.732-3.459-6.732-7.175S139.613,83.303,143.919,83.303"/>
	<path fill="#00ADED" d="M156.296,89.98c1.819,0,2.243-1.104,2.243-2.022c0-0.939-0.645-2.043-2.226-2.043h-1.562v4.065H156.296z
		 M151.993,83.563h4.508c2.169,0,4.802,0.991,4.802,4.395c0,3.183-2.377,4.378-4.581,4.378h-1.97v5.059h-2.759V83.563z"/>
	<path fill="#00ADED" d="M166.433,89.98c1.819,0,2.244-1.104,2.244-2.022c0-0.939-0.646-2.043-2.227-2.043h-1.566v4.065H166.433z
		 M162.125,83.563h4.508c2.173,0,4.802,0.991,4.802,4.395c0,3.183-2.373,4.378-4.581,4.378h-1.97v5.059h-2.759V83.563z"/>
	<polygon fill="#00ADED" points="172.262,83.563 181.092,83.563 181.092,86.027 175.021,86.027 175.021,89.17 180.927,89.17 
		180.927,91.638 175.021,91.638 175.021,94.929 181.092,94.929 181.092,97.394 172.262,97.394 	"/>
	<polygon fill="#00ADED" points="194.057,88.162 194.022,88.162 190.325,97.394 188.779,97.394 185.081,88.343 185.045,88.343 
		185.045,97.394 182.396,97.394 182.396,83.563 185.54,83.563 189.553,92.981 193.563,83.563 196.708,83.563 196.708,97.394 
		194.057,97.394 	"/>
	<polygon fill="#00ADED" points="198.656,83.563 207.486,83.563 207.486,86.027 201.415,86.027 201.415,89.17 207.321,89.17 
		207.321,91.638 201.415,91.638 201.415,94.929 207.486,94.929 207.486,97.394 198.656,97.394 	"/>
	<polygon fill="#00ADED" points="211.474,87.958 211.439,87.958 211.439,97.394 208.79,97.394 208.79,83.559 211.751,83.559 
		217.363,92.851 217.398,92.851 217.398,83.559 220.048,83.559 220.048,97.394 217.198,97.394 	"/>
	<polygon fill="#00ADED" points="224.699,86.027 221.057,86.027 221.057,83.563 231.103,83.563 231.103,86.027 227.458,86.027 
		227.458,97.394 224.699,97.394 	"/>
	<path fill="#5EBA45" d="M62.422,58.88c0.352-0.598,0.778-1.145,1.267-1.628l-4.152-4.553c-1.044,0.999-1.937,2.157-2.638,3.431
		L62.422,58.88z"/>
	<path fill="#E3B533" d="M72.601,55.665c0.629,0.287,1.214,0.655,1.742,1.092l4.162-4.546c-1.095-0.946-2.339-1.726-3.689-2.303
		L72.601,55.665z"/>
	<path fill="#C4212E" d="M82.136,57.033l-5.519,2.751c0.265,0.615,0.45,1.269,0.554,1.949l6.139-0.579
		C83.128,59.703,82.727,58.316,82.136,57.033"/>
	<path fill="#4D9E45" d="M76.221,58.987l5.519-2.751c-0.684-1.269-1.556-2.424-2.578-3.425l-4.164,4.546
		C75.471,57.846,75.885,58.391,76.221,58.987"/>
	<path fill="#408045" d="M61.325,62.91c0-0.125,0.005-0.249,0.01-0.372l-6.139-0.55c-0.021,0.303-0.031,0.609-0.031,0.922
		c0,1.176,0.145,2.322,0.418,3.414l5.929-1.702C61.39,64.07,61.325,63.497,61.325,62.91"/>
	<path fill="#FAC212" d="M75.45,67.956c-0.437,0.53-0.941,1.006-1.499,1.408l3.242,5.25c1.203-0.816,2.273-1.812,3.174-2.947
		L75.45,67.956z"/>
	<path fill="#ED402B" d="M77.255,62.91c0,0.58-0.062,1.147-0.182,1.692l5.929,1.704c0.271-1.089,0.416-2.226,0.416-3.396
		c0-0.291-0.009-0.58-0.028-0.868l-6.139,0.58C77.253,62.718,77.255,62.811,77.255,62.91"/>
	<path fill="#F79E29" d="M63.231,68.073l-4.907,3.73c0.913,1.125,1.995,2.103,3.206,2.902l3.24-5.24
		C64.199,69.068,63.684,68.6,63.231,68.073"/>
	<path fill="#1796D4" d="M61.424,61.651c0.11-0.692,0.311-1.356,0.589-1.979l-5.517-2.748c-0.61,1.297-1.027,2.702-1.218,4.177
		L61.424,61.651z"/>
	<path fill="#A11C45" d="M76.44,75.087l-3.239-5.24c-0.589,0.329-1.222,0.592-1.889,0.768l1.143,6.063
		C73.876,76.352,75.217,75.809,76.44,75.087"/>
	<path fill="#26BDE3" d="M76.836,65.461c-0.214,0.631-0.503,1.225-0.86,1.775l4.923,3.711c0.799-1.146,1.432-2.421,1.865-3.783
		L76.836,65.461z"/>
	<path fill="#F26B2B" d="M70.439,70.79c-0.375,0.057-0.759,0.084-1.148,0.084c-0.315,0-0.624-0.018-0.929-0.056l-1.141,6.063
		c0.674,0.102,1.365,0.154,2.069,0.154c0.778,0,1.544-0.062,2.289-0.186L70.439,70.79z"/>
	<path fill="#E8213D" d="M69.8,54.96c0.684,0.042,1.346,0.173,1.97,0.38l2.217-5.755c-1.32-0.466-2.724-0.742-4.187-0.794V54.96z"/>
	<path fill="#DB1769" d="M67.487,70.667c-0.692-0.161-1.346-0.41-1.956-0.74l-3.244,5.247c1.248,0.716,2.613,1.245,4.059,1.55
		L67.487,70.667z"/>
	<path fill="#17476B" d="M66.898,55.312c0.638-0.203,1.312-0.326,2.012-0.357v-6.169c-1.482,0.04-2.908,0.31-4.243,0.774
		L66.898,55.312z"/>
	<path fill="#C7992E" d="M62.691,67.365c-0.391-0.579-0.709-1.211-0.938-1.884l-5.929,1.699c0.449,1.415,1.114,2.733,1.959,3.915
		L62.691,67.365z"/>
	<path fill="#03699C" d="M64.356,56.662c0.519-0.414,1.094-0.761,1.707-1.034l-2.228-5.748c-1.329,0.555-2.552,1.311-3.635,2.226
		L64.356,56.662z"/>
	<path fill="#3E8EDE" d="M94.196,71.2c3.419,0,4.644-1.511,4.644-3.42c0-1.728-1.081-3.529-4.213-3.529h-3.998V71.2H94.196z
		 M93.906,59.857c2.557,0,4.285-1.151,4.285-3.313c0-2.232-1.656-3.205-3.817-3.205h-3.745v6.518H93.906z M85.228,48.729h9.615
		c5.763,0,8.75,2.953,8.75,7.347c0,2.988-1.691,4.681-3.635,5.582v0.07c2.412,0.577,4.5,2.776,4.5,6.16
		c0,4.97-3.817,7.925-9.399,7.925h-9.832V48.729z"/>
	<path fill="#3E8EDE" d="M104.96,48.729h12.389V66.59c0,8.57-5.114,9.437-10.589,9.437h-1.728v-4.609h2.772
		c2.631,0,4.143-0.792,4.143-3.601V53.554h-6.987V48.729z"/>
	<polygon fill="#3E8EDE" points="120.912,48.729 138.199,48.729 138.199,53.554 126.315,53.554 126.315,59.714 137.875,59.714 
		137.875,64.54 126.315,64.54 126.315,70.986 138.199,70.986 138.199,75.813 120.912,75.813 	"/>
	<path fill="#3E8EDE" d="M158.508,58.344c-0.792-3.493-3.172-5.295-6.267-5.295c-4.396,0-7.059,4.215-7.059,9.256
		c0,5.727,2.807,9.183,7.202,9.183c2.594,0,5.113-1.729,6.05-4.789l5.545,0.396c-1.872,6.051-6.264,9.22-11.812,9.22
		c-7.344,0-12.604-4.971-12.604-14.044c0-8.176,5.149-14.045,12.604-14.045c5.692,0,10.375,2.808,11.777,9.758L158.508,58.344z"/>
	<polygon fill="#3E8EDE" points="171.902,53.554 164.772,53.554 164.772,48.729 184.432,48.729 184.432,53.554 177.303,53.554 
		177.303,75.809 171.902,75.809 	"/>
	<rect x="186.7" y="48.729" fill="#3E8EDE" width="5.401" height="27.083"/>
	<polygon fill="#3E8EDE" points="196.207,48.729 212.087,48.729 212.087,53.554 201.607,53.554 201.607,59.714 211.835,59.714 
		211.835,64.54 201.607,64.54 201.607,75.813 196.207,75.813 	"/>
	<path fill="#3E8EDE" d="M227.173,55.859c0-1.872-1.798-3.023-3.96-3.023c-2.699,0-4.322,1.188-4.322,2.988
		c0,1.872,1.802,2.772,3.134,3.206l4.97,1.584c3.601,1.151,6.159,3.24,6.159,7.418c0,3.312-2.377,8.282-9.867,8.282
		c-9.4,0-10.263-6.085-10.263-8.499l5.401-0.107c0,2.879,2.268,3.997,4.896,3.997c1.837,0,4.431-0.9,4.431-2.989
		c0-1.44-0.613-2.195-3.277-3.168l-5.906-2.126c-2.99-1.08-5.079-3.709-5.079-6.769c0-3.458,2.377-8.428,9.4-8.428
		c8.354,0,9.686,5.545,9.686,7.527L227.173,55.859z"/>
</g>
</svg>
