<?xml version="1.0" encoding="utf-8"?>
<!-- Generator: Adobe Illustrator 15.0.0, SVG Export Plug-In . SVG Version: 6.00 Build 0)  -->
<!DOCTYPE svg PUBLIC "-//W3C//DTD SVG 1.1//EN" "http://www.w3.org/Graphics/SVG/1.1/DTD/svg11.dtd">
<svg version="1.1" id="Layer_1" xmlns="http://www.w3.org/2000/svg" xmlns:xlink="http://www.w3.org/1999/xlink" x="0px" y="0px"
	 width="150px" height="150px" viewBox="0 0 150 150" enable-background="new 0 0 150 150" xml:space="preserve">
<g>
	<rect y="0" fill="#E1E1E1" width="150.001" height="150.008"/>
	<polygon fill="#056CB4" points="22.445,12.569 22.445,42.813 17.359,42.813 17.359,19.662 17.314,19.662 13.746,23.365 
		13.703,23.365 13.703,18.057 18.386,12.569 	"/>
	<polygon fill="#056CB4" points="24.765,12.569 37.524,12.569 37.524,17.255 30.876,42.813 25.833,42.813 32.615,16.716 
		24.765,16.716 	"/>
	<path fill="#056CB4" d="M86.301,108.028c2.829-2.627,4.606-6.372,4.606-10.527c0-0.622-0.045-1.234-0.122-1.835
		c5.748,0.615,10.243,5.495,10.243,11.405c0,3.358-1.459,6.375-3.768,8.477C95.1,111.494,91.054,108.599,86.301,108.028
		 M96.052,122.287c0,6.323-5.145,11.47-11.473,11.47c-2.058,0-3.983-0.553-5.653-1.505c2.438-2.577,3.941-6.05,3.941-9.871
		c0-0.939-0.095-1.858-0.268-2.748c2.063,1.145,4.433,1.802,6.957,1.802c2.243,0,4.371-0.519,6.262-1.441
		C95.973,120.736,96.052,121.5,96.052,122.287 M57.03,122.38c0-0.814,0.088-1.608,0.25-2.379c1.89,0.918,4.01,1.433,6.246,1.433
		c2.516,0,4.878-0.653,6.937-1.791c-0.16,0.855-0.248,1.74-0.248,2.644c0,3.878,1.552,7.402,4.061,9.988
		c-1.696,0.997-3.667,1.576-5.771,1.576C62.176,133.851,57.03,128.705,57.03,122.38 M52.056,107.071
		c0-5.91,4.494-10.79,10.241-11.405c-0.076,0.601-0.121,1.213-0.121,1.835c0,4.198,1.812,7.981,4.693,10.611
		c-4.764,0.542-8.828,3.42-11.013,7.462C53.531,113.473,52.056,110.444,52.056,107.071 M76.539,86.027
		c4.701,0,8.746,2.844,10.518,6.9c-4.667,0.821-8.562,3.903-10.518,8.072c-1.95-4.169-5.848-7.251-10.514-8.072
		C67.796,88.871,71.84,86.027,76.539,86.027 M79.271,112.124c1.59-0.833,3.394-1.31,5.308-1.31c4.512,0,8.413,2.62,10.287,6.416
		c-1.591,0.833-3.397,1.313-5.309,1.313C85.044,118.543,81.145,115.918,79.271,112.124 M73.771,112.201
		c-1.886,3.754-5.764,6.343-10.246,6.343c-1.9,0-3.688-0.474-5.269-1.295c1.889-3.752,5.768-6.341,10.247-6.341
		C70.403,110.908,72.191,111.381,73.771,112.201 M65.218,95.737c5.524,0.821,9.78,5.583,9.78,11.334c0,0.601-0.06,1.187-0.149,1.761
		c-5.525-0.82-9.78-5.582-9.78-11.331C65.069,96.9,65.128,96.311,65.218,95.737 M76.595,130.503
		c-2.15-2.086-3.487-4.998-3.487-8.217c0-3.172,1.294-6.049,3.379-8.125c2.149,2.084,3.487,4.998,3.487,8.219
		C79.974,125.55,78.68,128.426,76.595,130.503 M88.014,97.5c0,5.749-4.255,10.511-9.78,11.331c-0.091-0.574-0.149-1.16-0.149-1.761
		c0-5.751,4.255-10.513,9.78-11.333C87.954,96.311,88.014,96.9,88.014,97.5 M103.921,107.071c0-7.746-6.161-14.074-13.837-14.354
		c-1.974-5.576-7.301-9.58-13.545-9.58c-6.24,0-11.566,4.004-13.542,9.58c-7.675,0.28-13.834,6.608-13.834,14.354
		c0,4.594,2.172,8.69,5.544,11.323c-0.369,1.268-0.568,2.604-0.568,3.986c0,7.917,6.443,14.361,14.365,14.361
		c3.007,0,5.796-0.929,8.108-2.514c2.28,1.527,5.021,2.419,7.967,2.419c7.919,0,14.365-6.444,14.365-14.36
		c0-1.356-0.191-2.665-0.545-3.909C101.756,115.745,103.921,111.658,103.921,107.071"/>
	<path fill="#056CB4" d="M49.507,14.182v4.981h0.785c0.726,0,1.042-0.357,1.042-1.045v-2.911c0-0.688-0.316-1.025-1.042-1.025
		H49.507z M47.381,12.449h3.152c2.146,0,2.928,1.063,2.928,2.831v2.67c0,1.77-0.783,2.85-2.928,2.85h-1.026v4.291h-2.125V12.449z"/>
	<path fill="#056CB4" d="M56.145,21.083h1.697l-0.839-5.072h-0.02L56.145,21.083z M53.477,25.091l2.387-12.642h2.425l2.405,12.642
		h-2.183l-0.39-2.312h-2.257l-0.372,2.312H53.477z"/>
	<path fill="#056CB4" d="M63.692,14.182v3.936h0.711c0.726,0,1.044-0.375,1.044-1.045v-1.865c0-0.689-0.318-1.026-1.044-1.026
		H63.692z M63.692,19.292v5.799h-2.125V12.449h3.096c2.145,0,2.93,1.061,2.93,2.833v1.624c0,1.362-0.487,2.163-1.699,2.443
		l2.031,5.743h-2.238L63.692,19.292z"/>
	<polygon fill="#056CB4" points="68.317,12.449 73.968,12.449 73.968,14.182 72.216,14.182 72.216,25.091 70.07,25.091 
		70.07,14.182 68.317,14.182 	"/>
	<polygon fill="#056CB4" points="74.955,12.449 80.029,12.449 80.029,14.182 77.081,14.182 77.081,17.802 79.188,17.802 
		79.188,19.517 77.081,19.517 77.081,23.358 80.029,23.358 80.029,25.091 74.955,25.091 	"/>
	<polygon fill="#056CB4" points="82.953,17.148 82.953,25.091 81.163,25.091 81.163,12.447 83.249,12.447 85.545,19.702 
		85.545,12.447 87.317,12.447 87.317,25.091 85.453,25.091 	"/>
	<path fill="#056CB4" d="M90.858,21.083h1.695l-0.836-5.072h-0.022L90.858,21.083z M88.191,25.091l2.385-12.642h2.425l2.406,12.642
		h-2.183l-0.391-2.312h-2.258l-0.372,2.312H88.191z"/>
	<path fill="#056CB4" d="M98.406,14.182v3.936h0.708c0.73,0,1.046-0.375,1.046-1.045v-1.865c0-0.689-0.315-1.026-1.046-1.026H98.406
		z M98.406,19.292v5.799h-2.125V12.449h3.097c2.144,0,2.926,1.061,2.926,2.833v1.624c0,1.362-0.484,2.163-1.694,2.443l2.031,5.743
		h-2.239L98.406,19.292z"/>
	<rect x="103.459" y="12.449" fill="#056CB4" width="2.125" height="12.642"/>
	<path fill="#056CB4" d="M109.147,21.083h1.695l-0.838-5.072h-0.021L109.147,21.083z M106.479,25.091l2.387-12.642h2.426
		l2.405,12.642h-2.184l-0.39-2.312h-2.258l-0.371,2.312H106.479z"/>
	<polygon fill="#056CB4" points="113.396,12.449 119.046,12.449 119.046,14.182 117.294,14.182 117.294,25.091 115.148,25.091 
		115.148,14.182 113.396,14.182 	"/>
	<path fill="#056CB4" d="M119.734,22.369v-1.698h1.979v1.736c0,0.707,0.314,1.118,1.041,1.118c0.672,0,0.972-0.448,0.972-1.118
		v-0.486c0-0.727-0.3-1.174-0.954-1.79l-1.248-1.249c-1.211-1.194-1.77-1.922-1.77-3.375v-0.43c0-1.566,0.912-2.778,2.979-2.778
		c2.127,0,2.967,1.044,2.967,2.873v1.023h-1.939v-1.1c0-0.727-0.335-1.082-1.007-1.082c-0.597,0-1.007,0.335-1.007,1.045v0.262
		c0,0.707,0.392,1.118,1.007,1.715l1.361,1.34c1.159,1.176,1.718,1.886,1.718,3.284v0.615c0,1.733-0.935,2.964-3.1,2.964
		C120.572,25.241,119.734,24.028,119.734,22.369"/>
	<path fill="#056CB4" d="M49.507,30.961v4.981h0.785c0.726,0,1.042-0.357,1.042-1.045v-2.911c0-0.688-0.316-1.025-1.042-1.025
		H49.507z M47.381,29.228h3.152c2.146,0,2.928,1.063,2.928,2.831v2.671c0,1.769-0.783,2.849-2.928,2.849h-1.026v4.291h-2.125V29.228
		z"/>
	<path fill="#056CB4" d="M58.867,38.943v-6.788c0-0.764-0.336-1.305-1.101-1.305c-0.746,0-1.082,0.541-1.082,1.305v6.788
		c0,0.764,0.336,1.308,1.082,1.308C58.53,40.25,58.867,39.707,58.867,38.943 M54.559,38.607V32.49c0-1.978,0.971-3.412,3.207-3.412
		c2.257,0,3.225,1.435,3.225,3.412v6.117c0,1.958-0.968,3.412-3.225,3.412C55.53,42.019,54.559,40.566,54.559,38.607"/>
	<path fill="#056CB4" d="M68.374,29.228v9.565c0,1.959-0.839,3.226-3.002,3.226c-2.238,0-3.171-1.267-3.171-3.226v-9.565h2.125
		v9.771c0,0.745,0.298,1.251,1.046,1.251c0.746,0,1.044-0.507,1.044-1.251v-9.771H68.374z"/>
	<path fill="#056CB4" d="M71.71,30.961v3.936h0.711c0.727,0,1.042-0.375,1.042-1.045v-1.864c0-0.69-0.315-1.027-1.042-1.027H71.71z
		 M71.71,36.071v5.798h-2.126V29.228h3.098c2.143,0,2.928,1.062,2.928,2.833v1.624c0,1.362-0.487,2.163-1.699,2.443l2.034,5.742
		h-2.239L71.71,36.071z"/>
	<polygon fill="#056CB4" points="47.381,46.006 49.507,46.006 49.507,56.917 52.045,56.917 52.045,58.649 47.381,58.649 	"/>
	<path fill="#056CB4" d="M55.344,54.64h1.697L56.2,49.568h-0.018L55.344,54.64z M52.675,58.649l2.388-12.643h2.424l2.405,12.643
		H57.71l-0.392-2.312h-2.256l-0.373,2.312H52.675z"/>
	<path fill="#056CB4" d="M64.85,47.74v3.936h0.709c0.727,0,1.043-0.375,1.043-1.045v-1.864c0-0.689-0.316-1.026-1.043-1.026H64.85z
		 M64.85,52.85v5.799h-2.126V46.006h3.096c2.145,0,2.927,1.062,2.927,2.833v1.624c0,1.362-0.485,2.162-1.696,2.443l2.031,5.742
		h-2.236L64.85,52.85z"/>
	<path fill="#056CB4" d="M74.321,45.109l-3.339,0.432v-1.195l3.339-0.707V45.109z M69.901,46.006h5.073v1.733h-2.946v3.62h2.106
		v1.714h-2.106v3.843h2.946v1.732h-5.073V46.006z"/>
	<path fill="#056CB4" d="M78.441,54.64h1.695l-0.838-5.072h-0.021L78.441,54.64z M75.772,58.649l2.387-12.643h2.425l2.405,12.643
		h-2.183l-0.39-2.312h-2.257l-0.372,2.312H75.772z"/>
	<polygon fill="#056CB4" points="83.863,46.006 85.989,46.006 85.989,56.917 88.525,56.917 88.525,58.649 83.863,58.649 	"/>
	<rect x="89.494" y="46.006" fill="#056CB4" width="2.125" height="12.643"/>
	<path fill="#056CB4" d="M92.738,55.926v-1.697h1.979v1.735c0,0.707,0.315,1.119,1.041,1.119c0.672,0,0.972-0.448,0.972-1.119
		v-0.485c0-0.727-0.3-1.174-0.953-1.789l-1.249-1.249c-1.211-1.195-1.772-1.923-1.772-3.375v-0.431c0-1.565,0.915-2.777,2.982-2.777
		c2.127,0,2.967,1.044,2.967,2.872v1.023h-1.939v-1.1c0-0.727-0.335-1.082-1.007-1.082c-0.597,0-1.007,0.335-1.007,1.046v0.262
		c0,0.707,0.392,1.118,1.007,1.715l1.361,1.341c1.159,1.175,1.718,1.886,1.718,3.284v0.614c0,1.734-0.935,2.965-3.1,2.965
		C93.575,58.798,92.738,57.585,92.738,55.926"/>
	<path fill="#056CB4" d="M102.099,54.64h1.694l-0.835-5.072h-0.021L102.099,54.64z M99.431,58.649l2.385-12.643h2.425l2.408,12.643
		h-2.184l-0.392-2.312h-2.258l-0.371,2.312H99.431z"/>
	<polygon fill="#056CB4" points="106.348,46.006 111.997,46.006 111.997,47.74 110.245,47.74 110.245,58.649 108.102,58.649 
		108.102,47.74 106.348,47.74 	"/>
	<rect x="112.983" y="46.006" fill="#056CB4" width="2.129" height="12.643"/>
	<path fill="#056CB4" d="M120.648,55.721v-6.787c0-0.765-0.339-1.305-1.102-1.305c-0.746,0-1.081,0.54-1.081,1.305v6.787
		c0,0.765,0.335,1.308,1.081,1.308C120.31,57.029,120.648,56.486,120.648,55.721 M116.339,55.386v-6.117
		c0-1.977,0.973-3.411,3.208-3.411c2.258,0,3.225,1.435,3.225,3.411v6.117c0,1.959-0.967,3.412-3.225,3.412
		C117.312,58.798,116.339,57.345,116.339,55.386"/>
	<polygon fill="#056CB4" points="125.773,50.706 125.773,58.649 123.984,58.649 123.984,46.004 126.07,46.004 128.366,53.26 
		128.366,46.004 130.138,46.004 130.138,58.649 128.273,58.649 	"/>
	<path fill="#056CB4" d="M50.402,73.695c0.878,0,1.212-0.522,1.212-1.287v-6.62c0-0.745-0.334-1.269-1.212-1.269h-0.895v9.176
		H50.402z M53.741,66.178v5.855c0,1.94-0.803,3.394-3.076,3.394h-3.283V62.785h3.283C52.938,62.785,53.741,64.219,53.741,66.178"/>
	<polygon fill="#056CB4" points="54.951,62.785 60.023,62.785 60.023,64.519 57.077,64.519 57.077,68.138 59.185,68.138 
		59.185,69.852 57.077,69.852 57.077,73.695 60.023,73.695 60.023,75.427 54.951,75.427 	"/>
	<path fill="#056CB4" d="M60.952,72.707v-1.699h1.979v1.737c0,0.706,0.315,1.117,1.042,1.117c0.672,0,0.972-0.448,0.972-1.117
		v-0.486c0-0.727-0.3-1.175-0.952-1.79l-1.25-1.249c-1.212-1.194-1.769-1.923-1.769-3.375v-0.43c0-1.566,0.911-2.778,2.981-2.778
		c2.127,0,2.964,1.045,2.964,2.873v1.022h-1.937v-1.1c0-0.727-0.337-1.081-1.009-1.081c-0.596,0-1.005,0.335-1.005,1.045v0.262
		c0,0.707,0.39,1.118,1.005,1.716l1.363,1.34c1.156,1.176,1.716,1.886,1.716,3.284v0.615c0,1.733-0.932,2.965-3.097,2.965
		C61.792,75.578,60.952,74.365,60.952,72.707"/>
	<path fill="#056CB4" d="M74.435,72.5v-6.787c0-0.764-0.337-1.305-1.102-1.305c-0.745,0-1.082,0.541-1.082,1.305V72.5
		c0,0.766,0.336,1.308,1.082,1.308C74.098,73.807,74.435,73.265,74.435,72.5 M70.126,72.165v-6.117c0-1.977,0.969-3.411,3.207-3.411
		c2.255,0,3.225,1.435,3.225,3.411v6.117c0,1.96-0.97,3.413-3.225,3.413C71.096,75.578,70.126,74.125,70.126,72.165"/>
	<path fill="#056CB4" d="M79.896,69.738v3.957h0.934c0.706,0,1.042-0.355,1.042-1.027v-1.901c0-0.671-0.319-1.028-1.063-1.028
		H79.896z M79.896,68.12h0.744c0.69,0,1.007-0.356,1.007-1.029v-1.547c0-0.688-0.317-1.024-1.027-1.024h-0.725V68.12z M77.77,62.785
		h3.077c2.125,0,2.833,0.989,2.833,2.778v1.286c0,1.062-0.391,1.737-1.267,2.015c1.065,0.243,1.584,0.95,1.584,2.107v1.678
		c0,1.792-0.801,2.778-2.926,2.778H77.77V62.785z"/>
	<path fill="#056CB4" d="M90.707,62.785v9.771c0,1.826-0.801,3.021-2.926,3.021c-2.201,0-2.796-1.213-2.796-2.815v-2.519h2.014
		v2.556c0,0.633,0.222,1.008,0.782,1.008c0.577,0,0.801-0.375,0.801-1.026v-9.996H90.707z"/>
	<polygon fill="#056CB4" points="91.899,62.785 96.974,62.785 96.974,64.519 94.025,64.519 94.025,68.138 96.134,68.138 
		96.134,69.852 94.025,69.852 94.025,73.695 96.974,73.695 96.974,75.427 91.899,75.427 	"/>
	<path fill="#056CB4" d="M97.922,72.165v-6.117c0-1.977,0.933-3.411,3.17-3.411c2.349,0,3.004,1.306,3.004,3.172v1.488h-1.939
		v-1.658c0-0.782-0.264-1.23-1.026-1.23s-1.082,0.541-1.082,1.305V72.5c0,0.766,0.319,1.308,1.082,1.308s1.026-0.485,1.026-1.23
		v-2.333h1.939v2.184c0,1.807-0.746,3.15-3.004,3.15C98.854,75.578,97.922,74.125,97.922,72.165"/>
	<polygon fill="#056CB4" points="104.82,62.785 110.47,62.785 110.47,64.519 108.716,64.519 108.716,75.427 106.571,75.427 
		106.571,64.519 104.82,64.519 	"/>
	<rect x="111.454" y="62.785" fill="#056CB4" width="2.127" height="12.643"/>
	<polygon fill="#056CB4" points="114.812,62.785 119.789,62.785 119.789,64.519 116.938,64.519 116.938,68.138 119.062,68.138 
		119.062,69.852 116.938,69.852 116.938,75.427 114.812,75.427 	"/>
	<path fill="#056CB4" d="M120.608,72.707v-1.699h1.979v1.737c0,0.706,0.315,1.117,1.043,1.117c0.67,0,0.97-0.448,0.97-1.117v-0.486
		c0-0.727-0.3-1.175-0.952-1.79l-1.248-1.249c-1.211-1.194-1.773-1.923-1.773-3.375v-0.43c0-1.566,0.914-2.778,2.983-2.778
		c2.125,0,2.967,1.045,2.967,2.873v1.022h-1.941v-1.1c0-0.727-0.335-1.081-1.005-1.081c-0.598,0-1.009,0.335-1.009,1.045v0.262
		c0,0.707,0.394,1.118,1.009,1.716l1.361,1.34c1.157,1.176,1.716,1.886,1.716,3.284v0.615c0,1.733-0.933,2.965-3.098,2.965
		C121.447,75.578,120.608,74.365,120.608,72.707"/>
</g>
</svg>
