<?xml version="1.0" encoding="utf-8"?>
<!-- Generator: Adobe Illustrator 16.0.0, SVG Export Plug-In . SVG Version: 6.00 Build 0)  -->
<!DOCTYPE svg PUBLIC "-//W3C//DTD SVG 1.1//EN" "http://www.w3.org/Graphics/SVG/1.1/DTD/svg11.dtd">
<svg version="1.1" id="Layer_1" xmlns="http://www.w3.org/2000/svg" xmlns:xlink="http://www.w3.org/1999/xlink" x="0px" y="0px"
	 width="150px" height="150px" viewBox="0 0 150 150" enable-background="new 0 0 150 150" xml:space="preserve">
<g>
	<rect fill="#E1E1E1" width="149.993" height="150"/>
	<polygon fill="#056CB4" points="20.943,19.727 20.987,19.727 20.987,42.878 26.071,42.878 26.071,12.633 22.011,12.633 
		17.33,18.121 17.33,23.427 17.373,23.427 	"/>
	<path fill="#056CB4" d="M115.516,71.562c0-2.294,1.862-4.153,4.155-4.153c2.291,0,4.146,1.859,4.146,4.153
		c0,2.293-1.854,4.154-4.146,4.154C117.378,75.716,115.516,73.855,115.516,71.562"/>
	<path fill="#056CB4" d="M124.518,77.315c2.816,0.259,5.025,2.625,5.025,5.517v1.38v0.604v9.528c0,0.885-0.721,1.605-1.608,1.605
		c-0.893,0-1.611-0.721-1.611-1.605v-9.889c0-0.368-0.105-0.871-0.784-0.871c-0.47,0-0.566,0.496-0.584,0.812v29.63
		c0,1.274-1.03,2.316-2.311,2.316c-1.281,0-2.317-1.042-2.317-2.316V96.951c-0.006-0.186-0.069-0.677-0.656-0.677h-0.004
		c-0.589,0-0.662,0.491-0.667,0.677v17.076c0,1.274-1.031,2.316-2.311,2.316c-1.282,0-2.312-1.042-2.312-2.316v-29.63
		c-0.018-0.316-0.118-0.812-0.582-0.812c-0.683,0-0.784,0.503-0.784,0.871v9.889c0,0.885-0.724,1.605-1.613,1.605
		s-1.606-0.721-1.606-1.605v-9.528v-0.604v-1.38c0-2.892,2.211-5.258,5.031-5.517c0.094-0.011,0.193-0.025,0.304-0.025h4.545h4.532
		C124.322,77.29,124.418,77.304,124.518,77.315"/>
	<path fill="#056CB4" d="M90.822,73.743c0-2.171-1.756-3.937-3.928-3.937c-2.174,0-3.936,1.766-3.936,3.937
		c0,2.175,1.762,3.933,3.936,3.933C89.066,77.675,90.822,75.917,90.822,73.743"/>
	<path fill="#056CB4" d="M78.97,82.649l-3.268,10.643c0,0-0.583,1.952,1.071,2.439c1.647,0.484,2.146-1.416,2.146-1.416l2.635-8.884
		c0,0,0.144-0.685,0.656-0.535c0.515,0.146,0.323,0.881,0.323,0.881l-4.589,16.64h4.266v11.92c0,1.129,0.919,2.047,2.051,2.047
		s2.047-0.918,2.047-2.047v-11.92h0.583h0.58v11.92c0,1.129,0.913,2.047,2.046,2.047c1.136,0,2.052-0.918,2.052-2.047v-11.92h4.264
		l-4.584-16.64c0,0-0.192-0.735,0.32-0.881c0.515-0.149,0.656,0.535,0.656,0.535l2.636,8.884c0,0,0.502,1.9,2.146,1.416
		c1.658-0.487,1.072-2.439,1.072-2.439l-3.268-10.643c0,0-1.167-3.072-3.754-3.072h-4.167h-4.166
		C80.141,79.577,78.97,82.649,78.97,82.649"/>
	<path fill="#056CB4" d="M67.271,73.743c0-2.171-1.758-3.937-3.93-3.937c-2.173,0-3.934,1.766-3.934,3.937
		c0,2.175,1.76,3.933,3.934,3.933C65.514,77.675,67.271,75.917,67.271,73.743"/>
	<path fill="#056CB4" d="M55.417,82.649l-3.266,10.643c0,0-0.585,1.952,1.07,2.439c1.646,0.484,2.146-1.416,2.146-1.416l2.636-8.884
		c0,0,0.144-0.685,0.656-0.535c0.517,0.146,0.321,0.881,0.321,0.881l-4.586,16.64h4.265v11.92c0,1.129,0.921,2.047,2.051,2.047
		c1.133,0,2.049-0.918,2.049-2.047v-11.92h0.585h0.578v11.92c0,1.129,0.911,2.047,2.049,2.047c1.135,0,2.048-0.918,2.048-2.047
		v-11.92h4.265l-4.582-16.64c0,0-0.196-0.735,0.317-0.881c0.512-0.149,0.658,0.535,0.658,0.535l2.633,8.884
		c0,0,0.501,1.9,2.147,1.416c1.658-0.487,1.072-2.439,1.072-2.439l-3.268-10.643c0,0-1.165-3.072-3.755-3.072h-4.163h-4.168
		C56.59,79.577,55.417,82.649,55.417,82.649"/>
	<path fill="#056CB4" d="M104.028,95.75c1.81,0,3.271-1.464,3.271-3.273s-1.462-3.27-3.271-3.27c-1.811,0-3.273,1.46-3.273,3.27
		S102.218,95.75,104.028,95.75"/>
	<path fill="#056CB4" d="M96.181,105.918c-0.16,0.383-0.291,1.194,0.478,1.552c0.899,0.411,1.401-0.459,1.401-0.459l1.78-5.673
		c0,0,0.308-0.383,0.308,0.011v13.358h0.01c0,0.929,0.747,1.679,1.679,1.679c0.929,0,1.679-0.75,1.679-1.679v-5.271
		c0,0-0.098-0.747,0.504-0.747c0.6,0,0.509,0.747,0.509,0.747v5.271c0,0.929,0.752,1.679,1.681,1.679
		c0.927,0,1.684-0.75,1.684-1.679v-13.358c0-0.394,0.207-0.112,0.207-0.112l1.395,3.885c0,0,0.605,1.736,0.792,1.812
		c0.628,0.267,1.355-0.036,1.622-0.67c0.173-0.415,0.107-0.858-0.133-1.194l0.012-0.014c-0.039-0.124-2.085-5.138-2.325-5.841
		c-0.738-2.155-2.082-2.137-3.376-2.174c-1.294-0.028-2.066,0-2.066,0s-0.827-0.032-2.536,0.019
		c-1.704,0.055-2.242,0.925-4.125,5.768c-0.269,0.699-1.177,2.953-1.188,3.091H96.181z"/>
	<path fill="#056CB4" d="M32.154,71.562c0-2.294-1.864-4.153-4.155-4.153s-4.148,1.859-4.148,4.153c0,2.293,1.857,4.154,4.148,4.154
		S32.154,73.855,32.154,71.562"/>
	<path fill="#056CB4" d="M23.15,77.315c-2.817,0.259-5.028,2.625-5.028,5.517v1.38v0.604v9.528c0,0.885,0.722,1.605,1.611,1.605
		c0.891,0,1.61-0.721,1.61-1.605v-9.889c0-0.368,0.108-0.871,0.787-0.871c0.469,0,0.565,0.496,0.586,0.812v29.63
		c0,1.274,1.029,2.316,2.31,2.316c1.279,0,2.314-1.042,2.314-2.316V96.951c0.009-0.186,0.07-0.677,0.66-0.677h0.002
		c0.589,0,0.662,0.491,0.666,0.677v17.076c0,1.274,1.032,2.316,2.311,2.316c1.282,0,2.313-1.042,2.313-2.316v-29.63
		c0.013-0.316,0.12-0.812,0.583-0.812c0.682,0,0.783,0.503,0.783,0.871v9.889c0,0.885,0.724,1.605,1.613,1.605
		c0.888,0,1.606-0.721,1.606-1.605v-9.528v-0.604v-1.38c0-2.892-2.209-5.258-5.03-5.517c-0.095-0.011-0.194-0.025-0.305-0.025
		h-4.543h-4.532C23.348,77.29,23.249,77.304,23.15,77.315"/>
	
		<line fill="none" stroke="#056CB4" stroke-width="0.653" stroke-linecap="round" stroke-miterlimit="10" x1="19.529" y1="96.015" x2="15.842" y2="115.56"/>
	<path fill="#056CB4" d="M39.85,94.035c-0.215-0.335-0.583-0.558-1.01-0.558c-0.658,0-1.193,0.535-1.193,1.188
		c0,0.192,0.117,0.524,0.117,0.524l3.3,5.971c0,0,0.201,0.412,0.201,0.787v12.823h0.007c0,0.896,0.722,1.613,1.613,1.613
		s1.608-0.718,1.608-1.613v-5.062c0,0-0.091-0.713,0.487-0.713c0.578,0,0.486,0.713,0.486,0.713v5.062
		c0,0.896,0.724,1.613,1.615,1.613s1.617-0.718,1.617-1.613v-12.823c0-0.375,0.199-0.787,0.199-0.787l3.049-5.512
		c0,0,0.373-0.791,0.373-0.983c0-0.652-0.533-1.188-1.193-1.188c-0.43,0-0.8,0.223-1.008,0.558l-0.015-0.008
		c-0.096,0.084-1.622,2.804-2.127,3.31c-0.533,0.536-1.01,0.478-1.01,0.478h-1.985H43c0,0-0.481,0.059-1.012-0.478
		c-0.509-0.506-2.03-3.226-2.129-3.31L39.85,94.035z"/>
	<path fill="#056CB4" d="M44.98,95.75c1.81,0,3.271-1.464,3.271-3.273s-1.462-3.27-3.271-3.27c-1.811,0-3.272,1.46-3.272,3.27
		S43.17,95.75,44.98,95.75"/>
	<polygon fill="#056CB4" points="44.986,100.344 48.685,103.042 50.442,109.516 44.986,109.516 39.523,109.516 41.288,103.042 	"/>
	<path fill="#056CB4" d="M42.241,13.943v4.98h0.785c0.727,0,1.044-0.354,1.044-1.044v-2.91c0-0.69-0.317-1.026-1.044-1.026H42.241z
		 M40.115,12.21h3.15c2.146,0,2.928,1.062,2.928,2.833v2.668c0,1.771-0.783,2.852-2.928,2.852h-1.025v4.287h-2.125V12.21z"/>
	<path fill="#056CB4" d="M48.878,20.844h1.697l-0.838-5.073h-0.021L48.878,20.844z M46.211,24.852l2.386-12.641h2.426l2.405,12.641
		h-2.182l-0.391-2.311h-2.257l-0.371,2.311H46.211z"/>
	<path fill="#056CB4" d="M54.003,22.13v-1.697h1.978v1.734c0,0.708,0.315,1.119,1.044,1.119c0.669,0,0.969-0.448,0.969-1.119v-0.485
		c0-0.727-0.3-1.174-0.953-1.79l-1.249-1.251c-1.211-1.193-1.771-1.919-1.771-3.374v-0.429c0-1.566,0.914-2.777,2.983-2.777
		c2.125,0,2.966,1.044,2.966,2.871v1.025h-1.939v-1.1c0-0.727-0.337-1.082-1.006-1.082c-0.599,0-1.007,0.336-1.007,1.044v0.26
		c0,0.709,0.392,1.119,1.007,1.716l1.361,1.341c1.155,1.177,1.715,1.885,1.715,3.284v0.615c0,1.733-0.932,2.964-3.097,2.964
		C54.841,25.001,54.003,23.789,54.003,22.13"/>
	<path fill="#056CB4" d="M43.136,40.828c0.876,0,1.212-0.522,1.212-1.287v-6.619c0-0.747-0.336-1.268-1.212-1.268H42.24v9.174
		H43.136z M46.474,33.313v5.855c0,1.938-0.802,3.393-3.077,3.393h-3.283V29.92h3.283C45.671,29.92,46.474,31.355,46.474,33.313"/>
	<polygon fill="#056CB4" points="47.684,29.92 52.756,29.92 52.756,31.653 49.809,31.653 49.809,35.272 51.917,35.272 
		51.917,36.987 49.809,36.987 49.809,40.828 52.756,40.828 52.756,42.56 47.684,42.56 	"/>
	<path fill="#056CB4" d="M57.974,31.653v4.98h0.785c0.727,0,1.044-0.354,1.044-1.044v-2.91c0-0.69-0.318-1.026-1.044-1.026H57.974z
		 M55.849,29.92h3.15c2.146,0,2.929,1.062,2.929,2.833v2.668c0,1.77-0.783,2.852-2.929,2.852h-1.025v4.287h-2.125V29.92z"/>
	<path fill="#056CB4" d="M64.612,38.553h1.696l-0.838-5.073h-0.021L64.612,38.553z M61.944,42.561L64.33,29.92h2.426l2.405,12.641
		h-2.182l-0.392-2.311H64.33l-0.371,2.311H61.944z"/>
	<path fill="#056CB4" d="M75.926,29.92v9.564c0,1.958-0.839,3.227-3.002,3.227c-2.238,0-3.17-1.27-3.17-3.227V29.92h2.126v9.769
		c0,0.747,0.299,1.25,1.044,1.25c0.746,0,1.044-0.503,1.044-1.25V29.92H75.926z"/>
	<polygon fill="#056CB4" points="83.943,29.92 81.536,42.56 79.224,42.56 76.819,29.92 78.982,29.92 80.438,38.739 80.455,38.739 
		81.947,29.92 	"/>
	<path fill="#056CB4" d="M86.942,31.653v3.936h0.708c0.729,0,1.044-0.374,1.044-1.044v-1.864c0-0.692-0.315-1.028-1.044-1.028
		H86.942z M86.942,36.763v5.799h-2.125V29.92h3.097c2.142,0,2.926,1.062,2.926,2.833v1.623c0,1.361-0.484,2.163-1.698,2.442
		l2.034,5.744h-2.239L86.942,36.763z"/>
	<polygon fill="#056CB4" points="91.994,29.92 97.065,29.92 97.065,31.653 94.119,31.653 94.119,35.272 96.228,35.272 
		96.228,36.987 94.119,36.987 94.119,40.828 97.065,40.828 97.065,42.56 91.994,42.56 	"/>
	<polygon fill="#056CB4" points="97.959,29.92 103.608,29.92 103.608,31.653 101.854,31.653 101.854,42.56 99.711,42.56 
		99.711,31.653 97.959,31.653 	"/>
	<path fill="#056CB4" d="M109.015,29.025l-3.339,0.429V28.26l3.339-0.708V29.025z M104.595,29.92h5.071v1.733h-2.946v3.619h2.108
		v1.715h-2.108v3.841h2.946v1.732h-5.071V29.92z"/>
</g>
</svg>
