<?xml version="1.0" encoding="utf-8"?>
<!-- Generator: Adobe Illustrator 15.0.0, SVG Export Plug-In . SVG Version: 6.00 Build 0)  -->
<!DOCTYPE svg PUBLIC "-//W3C//DTD SVG 1.1//EN" "http://www.w3.org/Graphics/SVG/1.1/DTD/svg11.dtd">
<svg version="1.1" id="Layer_1" xmlns="http://www.w3.org/2000/svg" xmlns:xlink="http://www.w3.org/1999/xlink" x="0px" y="0px"
	 width="150px" height="150px" viewBox="0 0 150 150" enable-background="new 0 0 150 150" xml:space="preserve">
<g>
	<rect fill="#E1E1E1" width="150.001" height="150.007"/>
	<path fill="#056CB4" d="M21.406,43.223c5.13,0,7.361-2.724,7.361-6.913v-4.461c0-2.765-1.202-4.551-3.747-5.131
		c2.098-0.667,3.481-2.363,3.481-4.907v-2.63c0-4.283-2.054-6.915-6.738-6.915c-5.266,0-7.092,3.121-7.092,7.583v2.675h4.637v-3.076
		c0-1.874,0.584-2.944,2.189-2.944c1.605,0,2.185,1.071,2.185,2.72v3.257c0,1.607-1.071,2.451-2.719,2.451h-1.922v3.884h2.143
		c1.784,0,2.498,0.847,2.498,2.453v4.997c0,1.604-0.714,2.72-2.276,2.72c-1.741,0-2.365-1.16-2.365-2.944v-4.327h-4.637v3.969
		C14.403,40.281,16.233,43.223,21.406,43.223"/>
	<path fill="#056CB4" d="M125.384,93.75c0-4.221-2.709-7.644-6.808-7.644c-2.053,0-4.527,2.243-5.871,3.627
		c-1.342-1.384-3.654-3.631-5.705-3.631c-4.103,0-6.979,3.423-6.979,7.647c0,2.107,0.831,4.021,2.178,5.399l10.515,10.538
		l10.5-10.522l-0.008-0.009C124.552,97.773,125.384,95.861,125.384,93.75"/>
	<path fill="#056CB4" d="M80.616,126.885c-0.035,0-0.071,0-0.107-0.004c-0.798-0.047-1.46-0.641-1.595-1.435l-5.34-31.104
		l-8.093,15.002c-0.354,0.656-1.093,1.01-1.821,0.878c-0.733-0.127-1.3-0.717-1.407-1.453l-3.434-24.008l-6.285,14.115
		c-0.279,0.622-0.896,1.026-1.579,1.026H26.533c-0.954,0-1.728-0.776-1.728-1.729c0-0.951,0.774-1.726,1.728-1.726h23.301
		l8.265-18.565c0.313-0.705,1.055-1.113,1.817-1.007c0.763,0.104,1.362,0.702,1.473,1.464l3.54,24.753l7.98-14.791
		c0.351-0.651,1.071-1.005,1.799-0.885c0.729,0.116,1.296,0.686,1.424,1.409l4.945,28.811l18.026-59.881
		c0.206-0.68,0.811-1.167,1.518-1.223c0.713-0.054,1.385,0.327,1.694,0.972l9.486,19.662c0.411,0.859,0.051,1.894-0.808,2.305
		c-0.859,0.415-1.893,0.057-2.305-0.803l-7.56-15.666l-18.86,62.652C82.05,126.386,81.373,126.885,80.616,126.885"/>
	<path fill="#056CB4" d="M41.132,19.167v3.954h0.933c0.708,0,1.043-0.356,1.043-1.025v-1.904c0-0.672-0.319-1.025-1.063-1.025
		H41.132z M41.132,17.546h0.745c0.688,0,1.005-0.355,1.005-1.026v-1.55c0-0.689-0.317-1.023-1.025-1.023h-0.725V17.546z
		 M39.004,12.211h3.077c2.126,0,2.834,0.988,2.834,2.78v1.286c0,1.062-0.391,1.734-1.269,2.014c1.065,0.242,1.586,0.95,1.586,2.106
		v1.68c0,1.79-0.803,2.778-2.926,2.778h-3.302V12.211z"/>
	<path fill="#056CB4" d="M50.604,21.927v-6.789c0-0.764-0.339-1.304-1.102-1.304c-0.746,0-1.081,0.541-1.081,1.304v6.789
		c0,0.765,0.335,1.305,1.081,1.305C50.265,23.232,50.604,22.692,50.604,21.927 M46.294,21.591v-6.115
		c0-1.978,0.971-3.414,3.208-3.414c2.256,0,3.225,1.436,3.225,3.414v6.115c0,1.958-0.968,3.414-3.225,3.414
		C47.265,25.005,46.294,23.549,46.294,21.591"/>
	<polygon fill="#056CB4" points="55.727,16.911 55.727,24.855 53.937,24.855 53.937,12.21 56.024,12.21 58.32,19.467 58.32,12.21 
		60.091,12.21 60.091,24.855 58.227,24.855 	"/>
	<polygon fill="#056CB4" points="63.092,16.911 63.092,24.855 61.3,24.855 61.3,12.21 63.39,12.21 65.686,19.467 65.686,12.21 
		67.454,12.21 67.454,24.855 65.589,24.855 	"/>
	<polygon fill="#056CB4" points="68.665,12.211 73.739,12.211 73.739,13.947 70.792,13.947 70.792,17.564 72.899,17.564 
		72.899,19.279 70.792,19.279 70.792,23.122 73.739,23.122 73.739,24.856 68.665,24.856 	"/>
	<path fill="#056CB4" d="M76.717,22.132v-1.696h1.979v1.735c0,0.708,0.315,1.117,1.043,1.117c0.67,0,0.971-0.448,0.971-1.117v-0.486
		c0-0.728-0.301-1.175-0.953-1.79l-1.249-1.25c-1.211-1.194-1.772-1.92-1.772-3.375v-0.429c0-1.567,0.912-2.778,2.984-2.778
		c2.125,0,2.964,1.044,2.964,2.873v1.023h-1.938v-1.098c0-0.729-0.337-1.083-1.007-1.083c-0.597,0-1.007,0.336-1.007,1.044v0.261
		c0,0.71,0.392,1.119,1.007,1.717l1.364,1.341c1.154,1.176,1.713,1.884,1.713,3.283v0.615c0,1.733-0.932,2.964-3.095,2.964
		S76.717,23.793,76.717,22.132"/>
	<path fill="#056CB4" d="M86.082,20.847h1.695l-0.839-5.073h-0.02L86.082,20.847z M83.41,24.855l2.389-12.644h2.424l2.405,12.644
		h-2.181l-0.392-2.312h-2.256l-0.373,2.312H83.41z"/>
	<polygon fill="#056CB4" points="93.293,16.911 93.293,24.855 91.503,24.855 91.503,12.21 93.592,12.21 95.887,19.467 95.887,12.21 
		97.657,12.21 97.657,24.855 95.793,24.855 	"/>
	<polygon fill="#056CB4" points="98.623,12.211 104.275,12.211 104.275,13.947 102.522,13.947 102.522,24.856 100.377,24.856 
		100.377,13.947 98.623,13.947 	"/>
	<path fill="#056CB4" d="M109.681,11.318l-3.337,0.427v-1.193l3.337-0.709V11.318z M105.263,12.211h5.074v1.736h-2.948v3.617h2.106
		v1.715h-2.106v3.842h2.948v1.734h-5.074V12.211z"/>
	<polygon fill="#056CB4" points="39.004,29.923 44.079,29.923 44.079,31.659 41.132,31.659 41.132,35.275 43.239,35.275 
		43.239,36.99 41.132,36.99 41.132,40.833 44.079,40.833 44.079,42.568 39.004,42.568 	"/>
	<polygon fill="#056CB4" points="44.969,29.923 50.62,29.923 50.62,31.659 48.867,31.659 48.867,42.568 46.722,42.568 
		46.722,31.659 44.969,31.659 	"/>
	<path fill="#056CB4" d="M55.691,36.879v3.955h0.934c0.708,0,1.041-0.356,1.041-1.025v-1.904c0-0.672-0.317-1.025-1.063-1.025
		H55.691z M55.691,35.257h0.744c0.692,0,1.009-0.355,1.009-1.026v-1.549c0-0.689-0.317-1.023-1.027-1.023h-0.726V35.257z
		 M53.564,29.923h3.077c2.125,0,2.834,0.988,2.834,2.78v1.286c0,1.063-0.393,1.735-1.267,2.014c1.063,0.242,1.583,0.95,1.583,2.106
		v1.68c0,1.79-0.801,2.778-2.926,2.778h-3.302V29.923z"/>
	<rect x="60.854" y="29.924" fill="#056CB4" width="2.126" height="12.644"/>
	<polygon fill="#056CB4" points="64.21,29.923 69.282,29.923 69.282,31.659 66.336,31.659 66.336,35.275 68.443,35.275 
		68.443,36.99 66.336,36.99 66.336,40.833 69.282,40.833 69.282,42.568 64.21,42.568 	"/>
	<polygon fill="#056CB4" points="72.208,34.622 72.208,42.567 70.418,42.567 70.418,29.922 72.504,29.922 74.8,37.178 74.8,29.922 
		76.572,29.922 76.572,42.567 74.708,42.567 	"/>
	<rect x="77.651" y="35.833" fill="#056CB4" width="2.982" height="1.717"/>
	<path fill="#056CB4" d="M82.593,29.457v-1.025l1.341-0.988h0.932l1.344,0.988v1.025l-1.791-0.541L82.593,29.457z M81.715,29.923
		h5.074v1.736h-2.948v3.617h2.108v1.715h-2.108v3.843h2.948v1.734h-5.074V29.923z"/>
	<polygon fill="#056CB4" points="87.682,29.923 93.331,29.923 93.331,31.659 91.578,31.659 91.578,42.568 89.433,42.568 
		89.433,31.659 87.682,31.659 	"/>
	<path fill="#056CB4" d="M96.443,31.659v3.934h0.709c0.729,0,1.043-0.373,1.043-1.044v-1.864c0-0.692-0.314-1.025-1.043-1.025
		H96.443z M96.443,36.767v5.801h-2.127V29.923h3.099c2.141,0,2.926,1.063,2.926,2.835v1.622c0,1.361-0.486,2.162-1.697,2.443
		l2.034,5.745h-2.239L96.443,36.767z"/>
	<polygon fill="#056CB4" points="101.494,29.923 106.567,29.923 106.567,31.659 103.621,31.659 103.621,35.275 105.729,35.275 
		105.729,36.99 103.621,36.99 103.621,40.833 106.567,40.833 106.567,42.568 101.494,42.568 	"/>
</g>
</svg>
