<?xml version="1.0" encoding="utf-8"?>
<!-- Generator: Adobe Illustrator 15.0.0, SVG Export Plug-In . SVG Version: 6.00 Build 0)  -->
<!DOCTYPE svg PUBLIC "-//W3C//DTD SVG 1.1//EN" "http://www.w3.org/Graphics/SVG/1.1/DTD/svg11.dtd">
<svg version="1.1" id="Layer_1" xmlns="http://www.w3.org/2000/svg" xmlns:xlink="http://www.w3.org/1999/xlink" x="0px" y="0px"
	 width="150px" height="150px" viewBox="0 0 150 150" enable-background="new 0 0 150 150" xml:space="preserve">
<g>
	<rect y="0" fill="#E1E1E1" width="150.001" height="150.008"/>
	<path fill="#056CB4" d="M23.917,22.148c-2.005,0-3.478,0.712-4.282,2.095H19.59v-7.539h8.744v-4.148H14.952v17.042h4.638v-0.67
		c0-1.785,0.804-2.767,2.229-2.767c1.563,0,2.189,1.073,2.189,2.723v7.315c0,1.605-0.582,2.72-2.144,2.72
		c-1.739,0-2.362-1.158-2.362-2.942v-3.791H14.86v3.435c0,4.592,1.829,7.538,7.005,7.538c5.13,0,7.226-2.721,7.226-6.915v-7.404
		C29.091,24.065,26.64,22.148,23.917,22.148"/>
	<path fill="#056CB4" d="M74.741,108.851c-9.909,0-17.97-8.063-17.97-17.971c0-9.912,8.062-17.975,17.97-17.975
		c9.914,0,17.975,8.062,17.975,17.975C92.715,100.788,84.654,108.851,74.741,108.851 M109.257,56.761H90.614
		c-0.125,0-0.236,0.105-0.236,0.236v6.195c0,0.134,0.111,0.239,0.236,0.239h7.425l-8.242,8.243
		c-4.153-3.263-9.378-5.214-15.057-5.214c-13.462,0-24.417,10.954-24.417,24.419c0,12.394,9.286,22.654,21.266,24.206v7.137h-7.353
		c-0.138,0-0.241,0.107-0.241,0.237v6.641c0,0.131,0.103,0.236,0.241,0.236h7.353v7.025c0,0.131,0.105,0.235,0.236,0.235h6.637
		c0.133,0,0.24-0.104,0.24-0.235v-7.025h7.354c0.129,0,0.237-0.105,0.237-0.236v-6.641c0-0.13-0.107-0.237-0.237-0.237h-7.354
		v-7.251c11.584-1.903,20.452-11.978,20.452-24.092c0-5.226-1.652-10.072-4.458-14.045l8.125-8.128v6.936
		c0,0.13,0.109,0.236,0.242,0.236h6.191c0.134,0,0.243-0.106,0.243-0.236V56.998C109.5,56.867,109.391,56.761,109.257,56.761"/>
	<path fill="#056CB4" d="M85.719,83.503H63.92c-0.132,0-0.237,0.096-0.237,0.21v5.277c0,0.125,0.105,0.218,0.237,0.218h21.799
		c0.137,0,0.242-0.093,0.242-0.218v-5.277C85.961,83.599,85.855,83.503,85.719,83.503"/>
	<path fill="#056CB4" d="M85.719,92.926H63.92c-0.132,0-0.237,0.1-0.237,0.219v5.275c0,0.12,0.105,0.215,0.237,0.215h21.799
		c0.137,0,0.242-0.095,0.242-0.215v-5.275C85.961,93.026,85.855,92.926,85.719,92.926"/>
	<path fill="#056CB4" d="M45.165,11.316l-3.339,0.429v-1.194l3.339-0.709V11.316z M40.746,12.211h5.072v1.734h-2.945v3.619h2.107
		v1.715h-2.107v3.842h2.945v1.732h-5.072V12.211z"/>
	<path fill="#056CB4" d="M49.974,18.103h3.02v6.751h-1.528v-1.379c-0.28,0.952-0.877,1.529-2.032,1.529
		c-1.829,0-2.667-1.455-2.667-3.412v-6.116c0-1.977,0.95-3.412,3.188-3.412c2.352,0,3.039,1.305,3.039,3.169v1.12h-1.937v-1.288
		c0-0.783-0.297-1.23-1.062-1.23c-0.764,0-1.101,0.541-1.101,1.305v6.788c0,0.764,0.318,1.304,1.042,1.304
		c0.693,0,1.045-0.392,1.045-1.209V19.78h-1.006V18.103z"/>
	<path fill="#056CB4" d="M56.538,20.845h1.697l-0.841-5.073h-0.018L56.538,20.845z M53.868,24.854l2.389-12.641h2.423l2.405,12.641
		h-2.181l-0.392-2.312h-2.256l-0.373,2.312H53.868z"/>
	<polygon fill="#056CB4" points="61.96,12.211 64.086,12.211 64.086,23.121 66.623,23.121 66.623,24.854 61.96,24.854 	"/>
	<rect x="67.591" y="12.21" fill="#056CB4" width="2.125" height="12.642"/>
	<polygon fill="#056CB4" points="70.705,12.211 76.354,12.211 76.354,13.945 74.602,13.945 74.602,24.854 72.456,24.854 
		72.456,13.945 70.705,13.945 	"/>
	<path fill="#056CB4" d="M81.759,11.316l-3.339,0.429v-1.194l3.339-0.709V11.316z M77.339,12.211h5.074v1.734h-2.946v3.619h2.106
		v1.715h-2.106v3.842h2.946v1.732h-5.074V12.211z"/>
	<polygon fill="#056CB4" points="85.506,12.211 90.58,12.211 90.58,13.945 87.632,13.945 87.632,17.564 89.739,17.564 
		89.739,19.279 87.632,19.279 87.632,23.121 90.58,23.121 90.58,24.854 85.506,24.854 	"/>
	<polygon fill="#056CB4" points="93.504,16.911 93.504,24.854 91.714,24.854 91.714,12.21 93.801,12.21 96.097,19.464 96.097,12.21 
		97.868,12.21 97.868,24.854 96.004,24.854 	"/>
	<polygon fill="#056CB4" points="98.835,12.211 104.483,12.211 104.483,13.945 102.732,13.945 102.732,24.854 100.588,24.854 
		100.588,13.945 98.835,13.945 	"/>
	<path fill="#056CB4" d="M107.598,13.945v3.935h0.707c0.729,0,1.043-0.373,1.043-1.044v-1.865c0-0.692-0.313-1.026-1.043-1.026
		H107.598z M107.598,19.055v5.799h-2.127V12.211h3.097c2.143,0,2.926,1.062,2.926,2.835v1.622c0,1.361-0.484,2.163-1.695,2.442
		l2.032,5.743h-2.237L107.598,19.055z"/>
	<polygon fill="#056CB4" points="112.647,12.211 117.721,12.211 117.721,13.945 114.775,13.945 114.775,17.564 116.883,17.564 
		116.883,19.279 114.775,19.279 114.775,23.121 117.721,23.121 117.721,24.854 112.647,24.854 	"/>
	<polygon fill="#056CB4" points="40.746,29.922 42.873,29.922 42.873,40.832 45.409,40.832 45.409,42.564 40.746,42.564 	"/>
	<polygon fill="#056CB4" points="46.377,29.922 51.449,29.922 51.449,31.656 48.501,31.656 48.501,35.274 50.611,35.274 
		50.611,36.989 48.501,36.989 48.501,40.832 51.449,40.832 51.449,42.564 46.377,42.564 	"/>
	<path fill="#056CB4" d="M52.379,39.842v-1.696h1.978v1.735c0,0.704,0.316,1.117,1.044,1.117c0.669,0,0.969-0.447,0.969-1.117
		v-0.486c0-0.727-0.3-1.174-0.95-1.79l-1.249-1.249c-1.212-1.196-1.773-1.921-1.773-3.376v-0.429c0-1.567,0.913-2.778,2.982-2.778
		c2.125,0,2.966,1.044,2.966,2.873v1.023h-1.94v-1.1c0-0.727-0.335-1.083-1.005-1.083c-0.597,0-1.009,0.337-1.009,1.046v0.261
		c0,0.708,0.393,1.119,1.009,1.717l1.36,1.341c1.156,1.174,1.716,1.884,1.716,3.283v0.615c0,1.733-0.932,2.964-3.097,2.964
		C53.218,42.713,52.379,41.501,52.379,39.842"/>
	<path fill="#056CB4" d="M61.44,39.842v-1.696h1.978v1.735c0,0.704,0.315,1.117,1.042,1.117c0.67,0,0.971-0.447,0.971-1.117v-0.486
		c0-0.727-0.301-1.174-0.952-1.79l-1.25-1.249c-1.211-1.196-1.769-1.921-1.769-3.376v-0.429c0-1.567,0.912-2.778,2.981-2.778
		c2.127,0,2.964,1.044,2.964,2.873v1.023h-1.937v-1.1c0-0.727-0.338-1.083-1.009-1.083c-0.596,0-1.005,0.337-1.005,1.046v0.261
		c0,0.708,0.39,1.119,1.005,1.717l1.362,1.341c1.156,1.174,1.715,1.884,1.715,3.283v0.615c0,1.733-0.932,2.964-3.096,2.964
		C62.279,42.713,61.44,41.501,61.44,39.842"/>
	<polygon fill="#056CB4" points="68.656,29.922 73.728,29.922 73.728,31.656 70.782,31.656 70.782,35.274 72.889,35.274 
		72.889,36.989 70.782,36.989 70.782,40.832 73.728,40.832 73.728,42.564 68.656,42.564 	"/>
	<polygon fill="#056CB4" points="76.616,35.87 74.75,29.923 76.971,29.923 78.144,34.099 79.358,29.923 81.37,29.923 79.505,35.963 
		81.575,42.565 79.358,42.565 77.96,37.773 76.616,42.565 74.602,42.565 	"/>
	<polygon fill="#056CB4" points="82.524,29.922 87.598,29.922 87.598,31.656 84.652,31.656 84.652,35.274 86.759,35.274 
		86.759,36.989 84.652,36.989 84.652,40.832 87.598,40.832 87.598,42.564 82.524,42.564 	"/>
	<path fill="#056CB4" d="M88.528,39.842v-1.696h1.979v1.735c0,0.704,0.315,1.117,1.043,1.117c0.67,0,0.97-0.447,0.97-1.117v-0.486
		c0-0.727-0.3-1.174-0.952-1.79l-1.249-1.249c-1.211-1.196-1.773-1.921-1.773-3.376v-0.429c0-1.567,0.914-2.778,2.984-2.778
		c2.125,0,2.966,1.044,2.966,2.873v1.023h-1.94v-1.1c0-0.727-0.335-1.083-1.005-1.083c-0.597,0-1.008,0.337-1.008,1.046v0.261
		c0,0.708,0.393,1.119,1.008,1.717l1.362,1.341c1.156,1.174,1.715,1.884,1.715,3.283v0.615c0,1.733-0.932,2.964-3.097,2.964
		C89.368,42.713,88.528,41.501,88.528,39.842"/>
</g>
</svg>
