<?xml version="1.0" encoding="utf-8"?>
<!-- Generator: Adobe Illustrator 15.0.0, SVG Export Plug-In . SVG Version: 6.00 Build 0)  -->
<!DOCTYPE svg PUBLIC "-//W3C//DTD SVG 1.1//EN" "http://www.w3.org/Graphics/SVG/1.1/DTD/svg11.dtd">
<svg version="1.1" id="Layer_1" xmlns="http://www.w3.org/2000/svg" xmlns:xlink="http://www.w3.org/1999/xlink" x="0px" y="0px"
	 width="150px" height="150px" viewBox="0 0 150 150" enable-background="new 0 0 150 150" xml:space="preserve">
<g>
	<rect fill="#E1E1E1" width="149.998" height="150.004"/>
	<polygon fill="#056CB4" points="20.943,19.728 20.988,19.728 20.988,42.878 26.072,42.878 26.072,12.634 22.011,12.634 
		17.331,18.122 17.331,23.428 17.374,23.428 	"/>
	<path fill="#056CB4" d="M115.519,71.565c0-2.295,1.862-4.153,4.156-4.153c2.291,0,4.146,1.858,4.146,4.153
		c0,2.293-1.854,4.154-4.146,4.154C117.381,75.719,115.519,73.858,115.519,71.565"/>
	<path fill="#056CB4" d="M124.522,77.318c2.816,0.257,5.023,2.626,5.023,5.517v1.38v0.604v9.528c0,0.885-0.721,1.605-1.607,1.605
		c-0.894,0-1.61-0.721-1.61-1.605v-9.89c0-0.368-0.106-0.87-0.785-0.87c-0.47,0-0.565,0.495-0.584,0.812v29.631
		c0,1.274-1.031,2.315-2.311,2.315c-1.28,0-2.317-1.041-2.317-2.315V96.955c-0.006-0.187-0.069-0.678-0.656-0.678h-0.003
		c-0.59,0-0.663,0.491-0.668,0.678v17.076c0,1.274-1.032,2.315-2.311,2.315c-1.282,0-2.312-1.041-2.312-2.315V84.4
		c-0.018-0.317-0.117-0.812-0.582-0.812c-0.684,0-0.785,0.502-0.785,0.87v9.89c0,0.885-0.722,1.605-1.612,1.605
		s-1.608-0.721-1.608-1.605v-9.528v-0.604v-1.38c0-2.891,2.213-5.26,5.032-5.517c0.095-0.011,0.193-0.025,0.305-0.025h4.545h4.532
		C124.325,77.292,124.423,77.307,124.522,77.318"/>
	<path fill="#056CB4" d="M90.826,73.746c0-2.172-1.757-3.938-3.927-3.938c-2.174,0-3.936,1.766-3.936,3.938
		c0,2.174,1.762,3.933,3.936,3.933C89.068,77.678,90.826,75.919,90.826,73.746"/>
	<path fill="#056CB4" d="M78.972,82.652l-3.266,10.643c0,0-0.584,1.952,1.071,2.439c1.646,0.484,2.146-1.416,2.146-1.416
		l2.634-8.885c0,0,0.146-0.684,0.658-0.535c0.515,0.146,0.322,0.882,0.322,0.882l-4.587,16.64h4.266v11.921
		c0,1.128,0.919,2.046,2.052,2.046c1.13,0,2.046-0.918,2.046-2.046v-11.921h0.583h0.58v11.921c0,1.128,0.912,2.046,2.047,2.046
		c1.136,0,2.052-0.918,2.052-2.046v-11.921h4.263l-4.584-16.64c0,0-0.191-0.736,0.321-0.882c0.517-0.148,0.657,0.535,0.657,0.535
		l2.635,8.885c0,0,0.501,1.9,2.147,1.416c1.657-0.487,1.07-2.439,1.07-2.439l-3.267-10.643c0,0-1.168-3.074-3.755-3.074h-4.167
		h-4.166C80.144,79.578,78.972,82.652,78.972,82.652"/>
	<path fill="#056CB4" d="M67.274,73.746c0-2.172-1.758-3.938-3.93-3.938c-2.173,0-3.934,1.766-3.934,3.938
		c0,2.174,1.761,3.933,3.934,3.933C65.516,77.678,67.274,75.919,67.274,73.746"/>
	<path fill="#056CB4" d="M55.419,82.652l-3.266,10.643c0,0-0.585,1.952,1.069,2.439c1.646,0.484,2.146-1.416,2.146-1.416
		l2.636-8.885c0,0,0.144-0.684,0.656-0.535c0.517,0.146,0.322,0.882,0.322,0.882l-4.587,16.64h4.266v11.921
		c0,1.128,0.921,2.046,2.051,2.046c1.133,0,2.049-0.918,2.049-2.046v-11.921h0.585h0.579v11.921c0,1.128,0.911,2.046,2.048,2.046
		c1.135,0,2.048-0.918,2.048-2.046v-11.921h4.266l-4.582-16.64c0,0-0.196-0.736,0.316-0.882c0.512-0.148,0.658,0.535,0.658,0.535
		l2.632,8.885c0,0,0.501,1.9,2.147,1.416c1.657-0.487,1.072-2.439,1.072-2.439l-3.268-10.643c0,0-1.166-3.074-3.755-3.074h-4.163
		h-4.168C56.591,79.578,55.419,82.652,55.419,82.652"/>
	<path fill="#056CB4" d="M104.031,95.752c1.811,0,3.271-1.464,3.271-3.273s-1.461-3.27-3.271-3.27c-1.812,0-3.273,1.46-3.273,3.27
		S102.22,95.752,104.031,95.752"/>
	<path fill="#056CB4" d="M96.183,105.922c-0.159,0.382-0.29,1.194,0.478,1.551c0.901,0.411,1.401-0.459,1.401-0.459l1.781-5.673
		c0,0,0.31-0.383,0.31,0.011v13.36h0.007c0,0.928,0.748,1.678,1.68,1.678c0.929,0,1.68-0.75,1.68-1.678v-5.272
		c0,0-0.097-0.747,0.504-0.747c0.599,0,0.508,0.747,0.508,0.747v5.272c0,0.928,0.752,1.678,1.681,1.678s1.684-0.75,1.684-1.678
		v-13.36c0-0.394,0.208-0.112,0.208-0.112l1.395,3.885c0,0,0.606,1.737,0.791,1.813c0.629,0.266,1.354-0.036,1.623-0.67
		c0.173-0.415,0.107-0.859-0.134-1.194l0.011-0.015c-0.038-0.124-2.082-5.138-2.322-5.84c-0.739-2.156-2.083-2.138-3.378-2.174
		c-1.293-0.029-2.065,0-2.065,0s-0.827-0.033-2.537,0.018c-1.705,0.055-2.241,0.925-4.126,5.768
		c-0.268,0.699-1.177,2.953-1.188,3.092H96.183z"/>
	<path fill="#056CB4" d="M32.155,71.565c0-2.295-1.864-4.153-4.155-4.153s-4.148,1.858-4.148,4.153c0,2.293,1.857,4.154,4.148,4.154
		S32.155,73.858,32.155,71.565"/>
	<path fill="#056CB4" d="M23.151,77.318c-2.817,0.257-5.028,2.626-5.028,5.517v1.38v0.604v9.528c0,0.885,0.722,1.605,1.611,1.605
		c0.891,0,1.61-0.721,1.61-1.605v-9.89c0-0.368,0.108-0.87,0.786-0.87c0.469,0,0.565,0.495,0.586,0.812v29.631
		c0,1.274,1.028,2.315,2.31,2.315c1.279,0,2.314-1.041,2.314-2.315V96.955c0.009-0.187,0.07-0.678,0.66-0.678h0.001
		c0.589,0,0.662,0.491,0.666,0.678v17.076c0,1.274,1.033,2.315,2.312,2.315c1.283,0,2.314-1.041,2.314-2.315V84.4
		c0.013-0.317,0.119-0.812,0.583-0.812c0.682,0,0.783,0.502,0.783,0.87v9.89c0,0.885,0.724,1.605,1.613,1.605
		c0.888,0,1.606-0.721,1.606-1.605v-9.528v-0.604v-1.38c0-2.891-2.209-5.26-5.03-5.517c-0.095-0.011-0.194-0.025-0.305-0.025H28
		h-4.532C23.349,77.292,23.249,77.307,23.151,77.318"/>
	
		<line fill="none" stroke="#056CB4" stroke-width="1.2173" stroke-linecap="round" stroke-miterlimit="10" x1="19.53" y1="96.018" x2="15.843" y2="115.564"/>
	<path fill="#056CB4" d="M39.851,94.038c-0.215-0.335-0.583-0.558-1.01-0.558c-0.659,0-1.193,0.536-1.193,1.188
		c0,0.192,0.117,0.524,0.117,0.524l3.299,5.972c0,0,0.202,0.411,0.202,0.786v12.824h0.007c0,0.896,0.722,1.612,1.613,1.612
		s1.608-0.717,1.608-1.612v-5.062c0,0-0.091-0.713,0.487-0.713c0.578,0,0.486,0.713,0.486,0.713v5.062
		c0,0.896,0.724,1.612,1.615,1.612s1.617-0.717,1.617-1.612V101.95c0-0.375,0.2-0.786,0.2-0.786l3.049-5.513
		c0,0,0.373-0.791,0.373-0.983c0-0.651-0.534-1.188-1.193-1.188c-0.431,0-0.8,0.223-1.009,0.558l-0.014-0.007
		c-0.096,0.083-1.623,2.804-2.127,3.31c-0.534,0.535-1.011,0.477-1.011,0.477h-1.985h-1.98c0,0-0.481,0.059-1.012-0.477
		c-0.508-0.506-2.03-3.227-2.129-3.31L39.851,94.038z"/>
	<path fill="#056CB4" d="M44.982,95.752c1.81,0,3.271-1.464,3.271-3.273s-1.461-3.27-3.271-3.27c-1.811,0-3.272,1.46-3.272,3.27
		S43.171,95.752,44.982,95.752"/>
	<polygon fill="#056CB4" points="44.987,100.347 48.686,103.045 50.443,109.52 44.987,109.52 39.525,109.52 41.289,103.045 	"/>
	<path fill="#056CB4" d="M42.242,13.944v4.98h0.785c0.727,0,1.044-0.354,1.044-1.044v-2.91c0-0.69-0.317-1.026-1.044-1.026H42.242z
		 M40.117,12.21h3.15c2.146,0,2.928,1.062,2.928,2.833v2.668c0,1.77-0.783,2.852-2.928,2.852h-1.025v4.288h-2.125V12.21z"/>
	<path fill="#056CB4" d="M48.88,20.844h1.697l-0.838-5.073h-0.021L48.88,20.844z M46.213,24.852l2.385-12.641h2.426l2.405,12.641
		h-2.182l-0.392-2.311h-2.258l-0.37,2.311H46.213z"/>
	<path fill="#056CB4" d="M54.004,22.13v-1.697h1.979v1.734c0,0.708,0.314,1.119,1.044,1.119c0.669,0,0.969-0.448,0.969-1.119v-0.485
		c0-0.727-0.3-1.174-0.953-1.79l-1.249-1.25c-1.212-1.194-1.772-1.92-1.772-3.375v-0.429c0-1.565,0.914-2.777,2.983-2.777
		c2.125,0,2.966,1.044,2.966,2.871v1.025h-1.939v-1.1c0-0.728-0.337-1.082-1.006-1.082c-0.599,0-1.007,0.336-1.007,1.044v0.26
		c0,0.709,0.392,1.119,1.007,1.716l1.361,1.341c1.155,1.177,1.715,1.885,1.715,3.284v0.615c0,1.733-0.932,2.964-3.097,2.964
		C54.843,25.002,54.004,23.79,54.004,22.13"/>
	<path fill="#056CB4" d="M43.138,40.829c0.876,0,1.211-0.521,1.211-1.286v-6.62c0-0.746-0.335-1.268-1.211-1.268h-0.896v9.174
		H43.138z M46.475,33.314v5.856c0,1.938-0.802,3.393-3.077,3.393h-3.282V29.921h3.282C45.673,29.921,46.475,31.356,46.475,33.314"/>
	<polygon fill="#056CB4" points="47.686,29.921 52.757,29.921 52.757,31.654 49.811,31.654 49.811,35.273 51.919,35.273 
		51.919,36.988 49.811,36.988 49.811,40.829 52.757,40.829 52.757,42.562 47.686,42.562 	"/>
	<path fill="#056CB4" d="M57.975,31.654v4.98h0.786c0.726,0,1.043-0.354,1.043-1.044v-2.91c0-0.69-0.317-1.026-1.043-1.026H57.975z
		 M55.851,29.921h3.151c2.146,0,2.928,1.062,2.928,2.833v2.668c0,1.771-0.782,2.852-2.928,2.852h-1.026v4.288h-2.125V29.921z"/>
	<path fill="#056CB4" d="M64.614,38.555h1.695l-0.838-5.073H65.45L64.614,38.555z M61.946,42.563l2.386-12.641h2.426l2.405,12.641
		h-2.182l-0.392-2.312h-2.258l-0.37,2.312H61.946z"/>
	<path fill="#056CB4" d="M75.928,29.921v9.565c0,1.957-0.838,3.226-3.001,3.226c-2.238,0-3.17-1.27-3.17-3.226v-9.565h2.126v9.77
		c0,0.746,0.298,1.249,1.043,1.249c0.747,0,1.044-0.503,1.044-1.249v-9.77H75.928z"/>
	<polygon fill="#056CB4" points="83.945,29.921 81.539,42.562 79.227,42.562 76.822,29.921 78.984,29.921 80.439,38.74 
		80.457,38.74 81.95,29.921 	"/>
	<path fill="#056CB4" d="M86.946,31.654v3.936h0.706c0.73,0,1.045-0.374,1.045-1.044v-1.864c0-0.691-0.315-1.027-1.045-1.027H86.946
		z M86.946,36.764v5.8h-2.126V29.921h3.097c2.143,0,2.926,1.062,2.926,2.833v1.623c0,1.361-0.484,2.163-1.697,2.442l2.034,5.744
		h-2.239L86.946,36.764z"/>
	<polygon fill="#056CB4" points="91.996,29.921 97.067,29.921 97.067,31.654 94.122,31.654 94.122,35.273 96.23,35.273 
		96.23,36.988 94.122,36.988 94.122,40.829 97.067,40.829 97.067,42.562 91.996,42.562 	"/>
	<polygon fill="#056CB4" points="97.962,29.921 103.611,29.921 103.611,31.654 101.857,31.654 101.857,42.562 99.715,42.562 
		99.715,31.654 97.962,31.654 	"/>
	<path fill="#056CB4" d="M109.019,29.026l-3.34,0.429v-1.193l3.34-0.708V29.026z M104.598,29.921h5.072v1.733h-2.945v3.62h2.107
		v1.715h-2.107v3.84h2.945v1.733h-5.072V29.921z"/>
</g>
</svg>
