<?xml version="1.0" encoding="utf-8"?>
<!-- Generator: Adobe Illustrator 15.0.0, SVG Export Plug-In . SVG Version: 6.00 Build 0)  -->
<!DOCTYPE svg PUBLIC "-//W3C//DTD SVG 1.1//EN" "http://www.w3.org/Graphics/SVG/1.1/DTD/svg11.dtd">
<svg version="1.1" id="Layer_1" xmlns="http://www.w3.org/2000/svg" xmlns:xlink="http://www.w3.org/1999/xlink" x="0px" y="0px"
	 width="150px" height="150px" viewBox="0 0 150 150" enable-background="new 0 0 150 150" xml:space="preserve">
<g>
	<rect fill="#E1E1E1" width="150.001" height="150.007"/>
	<path fill="#056CB4" d="M28.053,38.667H19.71v-1.429c0-2.361,0.849-3.256,2.142-4.638l3.255-3.436
		c2.631-2.81,3.214-4.593,3.214-7.628v-2.944c0-4.325-2.097-6.377-6.65-6.377c-4.458,0-6.734,2.364-6.734,6.603v3.654h4.641V18.68
		c0-1.825,0.894-2.362,1.963-2.362c0.979,0,1.827,0.402,1.827,2.274v2.499c0,2.5-0.223,3.48-1.873,5.219l-2.856,3.033
		c-2.764,2.946-3.791,4.909-3.791,7.895v5.578h13.205V38.667z"/>
	<path fill="#056CB4" d="M59.832,127.461v2.112c-0.001,0.015-0.007,0.029-0.007,0.047c0,0.019,0.005,0.033,0.007,0.048
		c0.023,0.523,0.447,0.938,0.971,0.946c0,0,0.013,0.004,0.021,0.004l0.024-0.004h24.746c0.005,0,0.013,0.004,0.02,0.004
		c0,0,0.015-0.004,0.022-0.004c0.541-0.008,0.972-0.448,0.976-0.986c0-0.004,0.004-0.004,0.004-0.008c0,0-0.004-0.004-0.004-0.007
		v-2.389c13.929-4.566,24.365-15.854,26.659-29.614c0.005-0.028,0.009-0.054,0.015-0.083c0.007-0.048,0.013-0.091,0.013-0.135
		c0-0.554-0.446-1.001-1-1.001H33.906h-0.471c-0.555,0-1.003,0.447-1.003,1.001l0.051,0.444
		C34.893,111.732,45.616,123.082,59.832,127.461"/>
	<path fill="#056CB4" d="M86.587,62.732c-0.324,0.462-7.943,11.431,0.171,20.304c3.721,4.071,3.397,7.661,2.335,10.087h5.205
		c1.054-3.583,0.619-8.073-3.606-12.69c-5.979-6.537,0.077-15.372,0.167-15.507c0.713-1.009,0.332-2.309-0.845-2.914
		C88.833,61.408,87.304,61.731,86.587,62.732"/>
	<path fill="#056CB4" d="M73.406,93.123h5.207c1.052-3.583,0.615-8.073-3.611-12.694c-5.98-6.533,0.073-15.363,0.166-15.509
		c0.711-1.003,0.335-2.301-0.846-2.908c-1.177-0.601-2.709-0.281-3.423,0.722c-0.327,0.46-7.952,11.432,0.169,20.303
		C74.79,87.103,74.465,90.7,73.406,93.123"/>
	<path fill="#056CB4" d="M55.208,62.732c-0.331,0.462-7.95,11.431,0.167,20.304c3.723,4.071,3.401,7.661,2.342,10.087h5.205
		c1.052-3.583,0.617-8.073-3.612-12.69c-5.98-6.537,0.074-15.372,0.169-15.512c0.708-1.004,0.332-2.304-0.849-2.909
		C57.454,61.405,55.921,61.729,55.208,62.732"/>
	<polygon fill="#056CB4" points="40.038,12.21 45.018,12.21 45.018,13.946 42.166,13.946 42.166,17.562 44.291,17.562 
		44.291,19.277 42.166,19.277 42.166,24.854 40.038,24.854 	"/>
	<path fill="#056CB4" d="M47.537,20.845h1.696l-0.841-5.073h-0.019L47.537,20.845z M44.866,24.853l2.389-12.643h2.423l2.405,12.643
		h-2.181l-0.392-2.311h-2.256l-0.373,2.311H44.866z"/>
	<rect x="52.957" y="12.211" fill="#056CB4" width="2.127" height="12.644"/>
	<polygon fill="#056CB4" points="62.169,16.648 62.115,16.648 60.676,24.853 59.689,24.853 58.104,16.648 58.067,16.648 
		58.067,24.853 56.313,24.853 56.313,12.21 58.793,12.21 60.175,19.333 60.191,19.333 61.424,12.21 64.11,12.21 64.11,24.853 
		62.169,24.853 	"/>
	<path fill="#056CB4" d="M44.608,35.515l-1.007,2.722l1.007,2.725h-1.473l-1.044-2.725l1.044-2.722H44.608z M42.445,35.515
		l-1.009,2.722l1.009,2.725H40.97l-1.044-2.725l1.044-2.722H42.445z"/>
	<polygon fill="#056CB4" points="47.776,40.83 51.001,40.83 51.001,42.564 45.557,42.564 45.557,40.83 48.895,31.655 45.893,31.655 
		45.893,29.919 51.133,29.919 51.133,31.655 	"/>
	<path fill="#056CB4" d="M56.667,29.027l-3.337,0.427v-1.193l3.337-0.708V29.027z M52.249,29.92h5.073v1.736h-2.947v3.617h2.108
		v1.715h-2.108v3.843h2.947v1.734h-5.073V29.92z"/>
	<path fill="#056CB4" d="M60.583,31.656v3.933h0.708c0.729,0,1.044-0.373,1.044-1.044v-1.864c0-0.691-0.314-1.025-1.044-1.025
		H60.583z M60.583,36.764v5.8h-2.125V29.92h3.097c2.144,0,2.927,1.062,2.927,2.835v1.622c0,1.361-0.484,2.162-1.696,2.443
		l2.032,5.743h-2.24L60.583,36.764z"/>
	<path fill="#056CB4" d="M69.944,39.636v-6.789c0-0.764-0.335-1.304-1.1-1.304c-0.748,0-1.081,0.541-1.081,1.304v6.789
		c0,0.765,0.333,1.305,1.081,1.305C69.608,40.941,69.944,40.401,69.944,39.636 M65.636,39.3v-6.114c0-1.978,0.969-3.414,3.208-3.414
		c2.256,0,3.225,1.436,3.225,3.414V39.3c0,1.958-0.969,3.414-3.225,3.414C66.605,42.713,65.636,41.258,65.636,39.3"/>
	<path fill="#056CB4" d="M76.803,35.515l1.045,2.722l-1.045,2.725h-1.475l1.009-2.725l-1.009-2.722H76.803z M74.64,35.515
		l1.046,2.722l-1.046,2.725h-1.475l1.008-2.725l-1.008-2.722H74.64z"/>
</g>
</svg>
