<?xml version="1.0" encoding="utf-8"?>
<!-- Generator: Adobe Illustrator 15.0.0, SVG Export Plug-In . SVG Version: 6.00 Build 0)  -->
<!DOCTYPE svg PUBLIC "-//W3C//DTD SVG 1.1//EN" "http://www.w3.org/Graphics/SVG/1.1/DTD/svg11.dtd">
<svg version="1.1" id="Layer_1" xmlns="http://www.w3.org/2000/svg" xmlns:xlink="http://www.w3.org/1999/xlink" x="0px" y="0px"
	 width="150px" height="150px" viewBox="0 0 150 150" enable-background="new 0 0 150 150" xml:space="preserve">
<g>
	<rect fill="#E1E1E1" width="149.994" height="150"/>
	<path fill="#056CB4" d="M18.992,33.939l4.548-12.445h0.046v12.445H18.992z M23.498,42.812h4.817v-4.904h2.054v-3.969h-2.054v-21.37
		h-4.999l-8.786,22.214v3.124h8.967V42.812z"/>
	<polygon fill="#056CB4" points="66.513,80.429 39.611,64.894 39.611,115.144 66.513,123.261 	"/>
	<polygon fill="#056CB4" points="69.471,80.531 69.471,123.28 96.547,115.137 96.547,64.895 	"/>
	<path fill="#056CB4" d="M117.666,63.624c0-1.761-1.427-3.185-3.182-3.185c-1.759,0-3.183,1.424-3.183,3.185v3.43h6.364V63.624z"/>
	<polygon fill="#056CB4" points="112.092,114.253 111.3,114.253 114.484,125.377 117.663,114.253 116.873,114.253 117.663,114.253 
		117.663,69.546 116.873,69.546 116.084,69.546 115.245,69.546 113.661,69.546 112.882,69.546 112.092,69.546 111.298,69.546 
		111.298,114.253 	"/>
	<polygon fill="#056CB4" points="102.327,67.053 99.443,64.773 99.443,116.505 69.551,126.167 68.167,126.167 67.894,126.167 
		66.513,126.167 36.754,117.851 36.754,64.773 33.869,67.053 33.869,119.875 66.376,128.875 67.894,128.875 68.167,128.875 
		69.685,128.875 99.677,119.351 102.327,118.572 	"/>
	<path fill="#056CB4" d="M44.462,11.315l-3.338,0.429v-1.195l3.338-0.708V11.315z M40.043,12.21h5.072v1.733h-2.945v3.619h2.107
		v1.716h-2.107v3.842h2.945v1.731h-5.072V12.21z"/>
	<path fill="#056CB4" d="M49.273,23.118c0.874,0,1.209-0.522,1.209-1.287v-6.619c0-0.746-0.335-1.27-1.209-1.27h-0.896v9.175H49.273
		z M52.608,15.604v5.854c0,1.939-0.802,3.394-3.076,3.394h-3.281V12.21h3.281C51.806,12.21,52.608,13.646,52.608,15.604"/>
	<path fill="#056CB4" d="M59.992,12.21v9.565c0,1.959-0.839,3.225-3.003,3.225c-2.237,0-3.169-1.266-3.169-3.225V12.21h2.125v9.77
		c0,0.749,0.298,1.249,1.043,1.249c0.746,0,1.044-0.5,1.044-1.249v-9.77H59.992z"/>
	<path fill="#056CB4" d="M61.203,21.589v-6.117c0-1.976,0.932-3.412,3.168-3.412c2.349,0,3.004,1.306,3.004,3.169v1.493h-1.939
		v-1.661c0-0.784-0.263-1.23-1.028-1.23c-0.762,0-1.081,0.541-1.081,1.304v6.788c0,0.765,0.319,1.305,1.081,1.305
		c0.765,0,1.028-0.485,1.028-1.231v-2.33h1.939v2.181c0,1.809-0.747,3.15-3.004,3.15C62.135,25,61.203,23.546,61.203,21.589"/>
	<path fill="#056CB4" d="M70.673,20.843h1.697l-0.839-5.072h-0.018L70.673,20.843z M68.006,24.852l2.386-12.642h2.424l2.406,12.642
		H73.04l-0.393-2.312h-2.255l-0.373,2.312H68.006z"/>
	<polygon fill="#056CB4" points="74.923,12.21 80.572,12.21 80.572,13.943 78.821,13.943 78.821,24.851 76.674,24.851 
		76.674,13.943 74.923,13.943 	"/>
	<rect x="81.557" y="12.21" fill="#056CB4" width="2.128" height="12.642"/>
	<path fill="#056CB4" d="M89.223,21.924v-6.788c0-0.764-0.339-1.304-1.104-1.304c-0.745,0-1.081,0.541-1.081,1.304v6.788
		c0,0.765,0.336,1.305,1.081,1.305C88.884,23.229,89.223,22.689,89.223,21.924 M84.916,21.589v-6.117
		c0-1.976,0.968-3.412,3.204-3.412c2.258,0,3.226,1.436,3.226,3.412v6.117c0,1.957-0.968,3.411-3.226,3.411
		C85.884,25,84.916,23.546,84.916,21.589"/>
	<polygon fill="#056CB4" points="94.35,16.909 94.35,24.852 92.558,24.852 92.558,12.209 94.645,12.209 96.94,19.462 96.94,12.209 
		98.712,12.209 98.712,24.852 96.848,24.852 	"/>
	<path fill="#056CB4" d="M45.022,40.828c0.876,0,1.21-0.522,1.21-1.286v-6.619c0-0.747-0.334-1.27-1.21-1.27h-0.896v9.175H45.022z
		 M48.359,33.313v5.855c0,1.938-0.802,3.393-3.076,3.393h-3.281V29.92h3.281C47.557,29.92,48.359,31.355,48.359,33.313"/>
	<polygon fill="#056CB4" points="49.568,29.92 54.64,29.92 54.64,31.653 51.695,31.653 51.695,35.271 53.801,35.271 53.801,36.987 
		51.695,36.987 51.695,40.829 54.64,40.829 54.64,42.56 49.568,42.56 	"/>
	<path fill="#056CB4" d="M62.042,39.746v-6.899c0-0.764-0.337-1.304-1.102-1.304c-0.744,0-1.082,0.541-1.082,1.304v6.899
		c0,0.746,0.338,1.306,1.082,1.306C61.705,41.051,62.042,40.492,62.042,39.746 M60.158,43.42v-0.859
		c-1.697-0.299-2.424-1.547-2.424-3.262v-6.117c0-1.976,0.97-3.412,3.207-3.412c2.255,0,3.225,1.436,3.225,3.412v6.117
		c0,1.379-0.482,2.46-1.564,2.981l1.564,0.299v1.585L60.158,43.42z"/>
	<path fill="#056CB4" d="M71.548,29.92v9.564c0,1.959-0.839,3.225-3.004,3.225c-2.236,0-3.168-1.266-3.168-3.225V29.92H67.5v9.769
		c0,0.749,0.299,1.249,1.044,1.249c0.747,0,1.044-0.5,1.044-1.249V29.92H71.548z"/>
	<path fill="#056CB4" d="M74.812,38.553h1.697l-0.842-5.072h-0.018L74.812,38.553z M72.142,42.561l2.387-12.641h2.424l2.407,12.641
		h-2.183l-0.392-2.312h-2.256l-0.372,2.312H72.142z"/>
	<polygon fill="#056CB4" points="80.233,29.92 82.36,29.92 82.36,40.829 84.894,40.829 84.894,42.56 80.233,42.56 	"/>
	<rect x="85.862" y="29.92" fill="#056CB4" width="2.126" height="12.641"/>
	<polygon fill="#056CB4" points="88.976,29.92 94.624,29.92 94.624,31.653 92.875,31.653 92.875,42.56 90.729,42.56 90.729,31.653 
		88.976,31.653 	"/>
	<path fill="#056CB4" d="M100.033,29.025l-3.339,0.429v-1.195l3.339-0.708V29.025z M95.613,29.92h5.071v1.733h-2.945v3.618h2.106
		v1.716h-2.106v3.841h2.945v1.731h-5.071V29.92z"/>
</g>
</svg>
