<?xml version="1.0" encoding="utf-8"?>
<!-- Generator: Adobe Illustrator 19.0.0, SVG Export Plug-In . SVG Version: 6.00 Build 0)  -->
<svg version="1.1" xmlns="http://www.w3.org/2000/svg" xmlns:xlink="http://www.w3.org/1999/xlink" x="0px" y="0px"
	 viewBox="0 0 623 384.5" style="enable-background:new 0 0 623 384.5;" xml:space="preserve">
<style type="text/css">
	.st0{fill:#00848F;}
	.st1{fill:#009CE1;}
	.st2{fill:#FFFFFF;}
</style>
<g id="Layer_1">
	<path class="st0" d="M81.6,192.2c0-0.1,0-0.1,0-0.2H15.4c0,0.1,0,0.1,0,0.2c0,98.7,79.8,178.7,178.4,179V305
		C131.7,304.7,81.6,254.3,81.6,192.2z"/>
	<g>
		<path class="st1" d="M373.5,192h-66.2c0,0.1,0,0.1,0,0.2c0,62.3-50.5,112.9-112.9,112.9c-0.2,0-0.4,0-0.6,0v66.2
			c0.2,0,0.4,0,0.6,0c98.9,0,179.1-80.2,179.1-179.1C373.5,192.1,373.5,192,373.5,192z"/>
		<polygon class="st1" points="194.1,384.3 194.1,288.6 154.7,336.5 		"/>
	</g>
	<path class="st0" d="M194.4,79.3c62.3,0,112.8,50.4,112.9,112.7h66.2c-0.1-98.8-80.2-178.9-179-178.9c-0.2,0-0.4,0-0.6,0v66.2
		C194,79.3,194.2,79.3,194.4,79.3z"/>
	<polygon class="st0" points="386.6,191.8 290.9,191.8 338.7,231.2 	"/>
	<path class="st1" d="M15.4,192h66.2c0.1-62,50.2-112.3,112.2-112.7V13.1C95.2,13.5,15.4,93.4,15.4,192z"/>
	<polygon class="st1" points="193,0 193,95.7 232.4,47.8 	"/>
	<polygon class="st0" points="2.3,192.9 97.9,192.9 50.1,153.4 	"/>
</g>
<g id="Layer_5">
	<g>
		<g>
			<g>
				<path class="st2" d="M63.7,146.1l-7.9-3l2.1-5.6l1.5,0.6L58,142l1.7,0.6l1.4-3.8l1.5,0.6l-1.4,3.8l1.8,0.7l1.5-3.9l1.5,0.6
					L63.7,146.1z"/>
				<path class="st2" d="M65,139.4l-0.9-1.5c0.8-0.3,1.7-0.9,2.1-2c0.4-0.9,0.2-1.5-0.3-1.7c-1.3-0.6-2.3,4.3-5.2,3
					c-1.3-0.6-1.9-2.1-1.1-3.9c0.5-1.2,1.3-2.1,2.4-2.5l0.8,1.4c-0.8,0.4-1.5,1.1-1.8,1.9c-0.3,0.7-0.2,1.2,0.3,1.4
					c1.2,0.5,2.3-4.3,5.2-3c1.4,0.6,2,2.1,1.1,4.2C67,138.1,66,139,65,139.4z"/>
				<path class="st2" d="M70.2,130.8l-6.1-3.1l-1.1,2.2l-1.4-0.7l3-6L66,124l-1.1,2.2l6.1,3.1L70.2,130.8z"/>
				<path class="st2" d="M72.6,126.1l-7.4-4.1l0.9-1.6l7.4,4.1L72.6,126.1z"/>
				<path class="st2" d="M70.4,121.3c-2.3-1.4-2.7-4-1.4-6.1c0.9-1.5,2.2-2,3.4-2l-0.1,1.7c-0.7,0-1.5,0.4-2,1.1
					c-0.8,1.3-0.4,2.9,1,3.7c1.4,0.8,2.9,0.5,3.7-0.8c0.4-0.6,0.5-1.4,0.4-1.9l-0.9-0.5l-1.2,1.9l-1.3-0.8l2.1-3.4l2.8,1.7
					c0.4,1.2,0.3,2.6-0.5,3.9C75.2,121.9,72.7,122.7,70.4,121.3z"/>
				<path class="st2" d="M83.1,109.6l-4.9-3.5l3.6,5.4l-0.5,0.6l-6.3-1.6l4.9,3.5l-1,1.5l-6.8-4.9l1.5-2l5.5,1.4l-3.1-4.7l1.5-2.1
					l6.8,4.9L83.1,109.6z"/>
				<path class="st2" d="M88.8,102.5l-1.4-0.5l-2.3,2.8l0.8,1.3l-1.3,1.6l-4.4-7.8l1.4-1.7l8.5,2.8L88.8,102.5z M82.2,100l2,3.3
					l1.7-2L82.2,100z"/>
				<path class="st2" d="M94.3,96.4L91.8,94L86,92.8l1.4-1.5l3.9,0.9l-1-3.8l1.4-1.5l1.3,5.8l2.5,2.4L94.3,96.4z"/>
				<path class="st2" d="M100.6,90.2l-5.6-6.3l4.5-3.9l1,1.2l-3.1,2.7l1.2,1.3l3.1-2.7l1,1.2l-3.1,2.7l1.3,1.4l3.1-2.7l1,1.2
					L100.6,90.2z"/>
				<path class="st2" d="M110.4,82l-3.6-1.1l0.2,3.7l-1.7,1.3l-0.3-5.3l-4.8-1.5l1.7-1.3l3.3,1.1l-0.3-3.4l1.7-1.3l0.3,5l5.1,1.5
					L110.4,82z"/>
				<path class="st2" d="M109.9,77.1c-1.5-2.1-0.9-4.7,1.2-6.1c1.5-1,3-0.8,4.1-0.3l-0.8,1.5c-0.7-0.4-1.6-0.4-2.3,0.1
					c-1.3,0.9-1.5,2.5-0.6,3.8c0.9,1.3,2.5,1.6,3.7,0.8c0.7-0.5,1-1.4,0.9-2.1l1.7-0.3c0.1,1.2-0.2,2.6-1.7,3.7
					C114,79.6,111.4,79.2,109.9,77.1z"/>
				<path class="st2" d="M119.6,75.6l-4.4-7.1l1.5-0.9l3.6,5.8l3-1.9l0.8,1.3L119.6,75.6z"/>
				<path class="st2" d="M123.5,69.2l-2.4-4.4l1.6-0.9l2.4,4.4c0.6,1,1.5,1.4,2.7,0.8c1.1-0.6,1.3-1.6,0.8-2.7l-2.4-4.4l1.6-0.9
					l2.4,4.4c1,1.8,0.6,3.7-1.7,4.9C126.3,71.7,124.5,71.1,123.5,69.2z"/>
				<path class="st2" d="M132.1,67.1l0.3-1.7c0.8,0.3,1.9,0.4,2.9-0.1c0.9-0.4,1.1-1,0.9-1.5c-0.6-1.3-4.6,1.7-5.9-1.2
					c-0.6-1.3,0-2.8,1.8-3.7c1.2-0.6,2.4-0.7,3.5-0.3l-0.3,1.6c-0.9-0.3-1.8-0.2-2.6,0.2c-0.7,0.3-0.9,0.8-0.7,1.3
					c0.6,1.2,4.6-1.7,5.9,1.2c0.7,1.4,0.1,2.9-1.9,3.9C134.4,67.5,133.2,67.5,132.1,67.1z"/>
				<path class="st2" d="M139.9,64.8l-3.3-7.8l1.7-0.7l3.3,7.8L139.9,64.8z"/>
				<path class="st2" d="M141.2,59.7c-0.9-2.4,0.2-4.7,2.6-5.6c2.4-0.9,4.7,0.2,5.6,2.6c0.9,2.4-0.2,4.7-2.6,5.6
					C144.4,63.1,142.1,62.1,141.2,59.7z M143.7,53.5l-1.1,0.4l1-2.3L145,51L143.7,53.5z M147.7,57.3c-0.5-1.5-1.9-2.2-3.3-1.7
					c-1.5,0.5-2,2-1.4,3.5c0.5,1.5,1.9,2.2,3.4,1.7C147.7,60.2,148.2,58.7,147.7,57.3z"/>
				<path class="st2" d="M157.5,58.6l-5.4-4.1l1.5,5.3l-1.7,0.5l-2.4-8.1l1.8-0.5l5.2,4l-1.5-5.1l1.7-0.5l2.4,8.1L157.5,58.6z"/>
			</g>
		</g>
		<g>
			<g>
				<path class="st2" d="M51.9,141.7l-7.9-3l1.2-3.1c0.9-2.5,3.1-3.6,5.5-2.7c2.4,0.9,3.3,3.2,2.4,5.6L51.9,141.7z M50.1,134.7
					c-1.4-0.5-2.8-0.1-3.4,1.5l-0.5,1.4l4.9,1.9l0.5-1.4C52.2,136.5,51.4,135.2,50.1,134.7z"/>
				<path class="st2" d="M55.2,133.4l-7.7-3.3l0.7-1.6l7.7,3.3L55.2,133.4z"/>
				<path class="st2" d="M55.2,130.3l-0.8-1.5c0.8-0.3,1.7-0.9,2.2-1.9c0.4-0.9,0.2-1.5-0.2-1.7c-1.3-0.6-2.5,4.2-5.3,2.8
					c-1.3-0.6-1.8-2.2-1-4c0.6-1.2,1.4-2,2.5-2.5l0.8,1.5c-0.9,0.3-1.5,1-1.9,1.8c-0.3,0.7-0.2,1.2,0.2,1.4c1.2,0.6,2.4-4.2,5.3-2.8
					c1.4,0.7,2,2.2,1,4.2C57.2,129.1,56.3,129.9,55.2,130.3z"/>
				<path class="st2" d="M55.8,121.9c-2.3-1.2-2.9-3.8-1.7-6c0.9-1.6,2.3-2.1,3.5-2.1l-0.1,1.7c-0.8,0-1.6,0.4-2,1.2
					c-0.7,1.4-0.2,2.9,1.2,3.6c1.4,0.8,3,0.3,3.7-1c0.4-0.8,0.3-1.7-0.1-2.3l1.4-1c0.6,1,1,2.4,0.2,4.1
					C60.6,122.3,58.1,123.2,55.8,121.9z"/>
				<path class="st2" d="M66.8,111.1l-1.5-0.3l-1.9,3.1l0.9,1.2l-1.1,1.7l-5.5-7.2l1.2-1.9l8.9,1.6L66.8,111.1z M60,109.6l2.4,3
					l1.4-2.2L60,109.6z"/>
				<path class="st2" d="M68.3,108.9l-6.9-4.8l2.2-3.2c1-1.5,2.6-1.6,3.8-0.8c1.2,0.8,1.6,2.4,0.6,3.9l-1.2,1.8l2.5,1.7L68.3,108.9z
					 M66.4,101.6c-0.6-0.4-1.2-0.2-1.6,0.4l-1.1,1.6l1.9,1.3l1.1-1.6C67,102.6,67,102,66.4,101.6z"/>
				<path class="st2" d="M76.3,97.9l-1.4-0.5l-2.2,2.9l0.8,1.3l-1.2,1.6l-4.7-7.7l1.4-1.8l8.6,2.6L76.3,97.9z M69.6,95.7l2.1,3.2
					l1.6-2.1L69.6,95.7z"/>
				<path class="st2" d="M74.5,93.3c-2-1.7-2-4.3-0.3-6.2c1.2-1.4,2.7-1.5,3.8-1.3l-0.4,1.7c-0.7-0.2-1.7,0-2.2,0.7
					c-1,1.2-0.9,2.8,0.3,3.8c1.2,1,2.8,1,3.8-0.2c0.6-0.6,0.6-1.6,0.4-2.3l1.6-0.7c0.4,1.1,0.5,2.6-0.7,4
					C79.1,94.7,76.5,95,74.5,93.3z"/>
				<path class="st2" d="M83.6,89.4l-6.1-5.8l1.2-1.3l6.1,5.8L83.6,89.4z"/>
				<path class="st2" d="M85.9,86.9l-5.9-6l2.4-2.3c1.9-1.8,4.4-1.9,6.1-0.1c1.8,1.8,1.6,4.3-0.2,6.1L85.9,86.9z M87.2,79.8
					c-1-1.1-2.5-1.2-3.7,0l-1.1,1.1l3.7,3.8l1.1-1.1C88.3,82.3,88.2,80.8,87.2,79.8z"/>
				<path class="st2" d="M96.7,76.9l-1.3-0.7l-2.7,2.4l0.5,1.4l-1.5,1.3l-3.1-8.5l1.7-1.5l8,4.2L96.7,76.9z M90.6,73.4L92,77l2-1.7
					L90.6,73.4z"/>
				<path class="st2" d="M98.7,75.1l-5.1-6.6l2.6-2c2.1-1.6,4.5-1.4,6.1,0.6c1.6,2,1.1,4.4-0.9,6L98.7,75.1z M100.9,68.2
					c-0.9-1.2-2.3-1.5-3.7-0.5L96,68.6l3.2,4.2l1.2-0.9C101.7,70.8,101.7,69.3,100.9,68.2z"/>
				<path class="st2" d="M107.3,70.8l-0.9-0.1c0.2-0.4,0.3-1.1,0.1-1.5c0,0-0.1,0.1-0.2,0.2c-0.4,0.3-0.9,0.2-1.2-0.2
					c-0.3-0.5-0.2-1.1,0.2-1.4c0.5-0.3,1.2-0.3,1.7,0.4C107.6,68.9,107.7,69.9,107.3,70.8z"/>
				<path class="st2" d="M108.5,62.7c-1.4-2.3-0.6-4.8,1.5-6.1c1.5-0.9,2.9-0.8,3.9-0.2l-0.8,1.5c-0.6-0.3-1.5-0.3-2.3,0.1
					c-1.3,0.8-1.6,2.4-0.8,3.7c0.8,1.3,2.4,1.7,3.7,0.9c0.6-0.4,1-1,1.2-1.5l-0.5-0.9l-1.9,1.2l-0.8-1.3l3.4-2.1l1.7,2.7
					c-0.2,1.3-0.9,2.4-2.2,3.2C112.5,65.4,109.9,65,108.5,62.7z"/>
				<path class="st2" d="M123.8,58.6l-1.1-1l-3.2,1.7l0.2,1.5l-1.8,1l-1.2-8.9l2-1.1l6.9,5.8L123.8,58.6z M118.5,53.9l0.6,3.8
					l2.3-1.3L118.5,53.9z"/>
				<path class="st2" d="M125.1,56.5l0.3-1.7c0.8,0.3,1.9,0.4,2.9-0.1c0.9-0.4,1.1-1,0.9-1.5c-0.6-1.3-4.6,1.7-5.9-1.1
					c-0.6-1.3,0-2.8,1.8-3.7c1.2-0.6,2.4-0.7,3.5-0.4l-0.3,1.6c-0.9-0.3-1.8-0.1-2.6,0.2c-0.7,0.3-0.9,0.8-0.7,1.3
					c0.6,1.2,4.5-1.7,5.9,1.1c0.7,1.4,0.2,2.9-1.9,3.9C127.4,56.9,126.1,56.9,125.1,56.5z"/>
				<path class="st2" d="M134.6,53.4l-2.7-6.3l-2.3,1l-0.6-1.4l6.2-2.6l0.6,1.4l-2.2,1l2.7,6.3L134.6,53.4z"/>
				<path class="st2" d="M137.7,47.5c-0.9-2.4,0.3-4.7,2.7-5.6c2.4-0.9,4.7,0.2,5.6,2.6c0.9,2.4-0.3,4.7-2.6,5.6
					C140.9,51,138.5,49.9,137.7,47.5z M144.2,45.2c-0.5-1.5-1.9-2.3-3.3-1.7c-1.5,0.5-2,2-1.5,3.5c0.5,1.5,1.9,2.3,3.3,1.7
					C144.2,48.1,144.7,46.6,144.2,45.2z"/>
				<path class="st2" d="M147.6,47.2l0.5-1.6c0.7,0.4,1.8,0.7,2.9,0.3c1-0.3,1.3-0.8,1.1-1.3c-0.4-1.4-4.8,1-5.7-2.1
					c-0.4-1.3,0.4-2.8,2.3-3.4c1.3-0.4,2.5-0.3,3.5,0.2l-0.6,1.6c-0.8-0.4-1.8-0.4-2.6-0.2c-0.7,0.2-1,0.7-0.9,1.1
					c0.4,1.3,4.7-1,5.6,2c0.4,1.5-0.3,2.9-2.5,3.5C149.8,47.9,148.6,47.7,147.6,47.2z"/>
				<path class="st2" d="M165.8,43.7l-1.3-5.9l-1.1,6.4l-0.8,0.2l-3.6-5.4l1.3,5.9l-1.7,0.4L157,37l2.5-0.5l3.1,4.7l0.9-5.6l2.5-0.5
					l1.7,8.2L165.8,43.7z"/>
				<path class="st2" d="M169.1,43.1l-1.3-8.3l5.9-0.9l0.2,1.6l-4.1,0.6l0.3,1.7l4-0.6l0.2,1.6l-4,0.6l0.3,1.9l4.1-0.6l0.2,1.6
					L169.1,43.1z M170.8,33.6l-1.1,0.2l1.4-2l1.5-0.2L170.8,33.6z"/>
				<path class="st2" d="M176.3,42.1l-0.8-8.4l3.3-0.3c2.6-0.3,4.6,1.2,4.8,3.8c0.2,2.5-1.4,4.4-4,4.6L176.3,42.1z M181.8,37.3
					c-0.1-1.5-1.2-2.5-2.9-2.4l-1.5,0.1l0.5,5.2l1.5-0.1C181.1,40,181.9,38.8,181.8,37.3z"/>
				<path class="st2" d="M185.2,41.3l-0.5-8.4l1.8-0.1l0.5,8.4L185.2,41.3z"/>
				<path class="st2" d="M188.1,36.9c0-2.6,1.9-4.4,4.4-4.4c1.8,0,2.9,1,3.5,2l-1.5,0.8c-0.4-0.7-1.1-1.2-2-1.2
					c-1.5,0-2.6,1.2-2.6,2.8c0,1.6,1.1,2.7,2.7,2.7c0.9,0,1.6-0.6,1.9-1.2l1.5,0.7c-0.6,1.1-1.6,2.1-3.5,2.1
					C190.1,41.2,188.1,39.5,188.1,36.9z"/>
				<path class="st2" d="M196.9,36.8c0.1-2.5,2-4.3,4.6-4.1c2.5,0.1,4.3,2,4.2,4.5c-0.1,2.5-2,4.3-4.6,4.1
					C198.5,41.2,196.8,39.3,196.9,36.8z M203.8,37.1c0.1-1.6-0.9-2.8-2.4-2.9c-1.6-0.1-2.6,1.1-2.7,2.6c-0.1,1.6,0.9,2.8,2.4,2.9
					C202.7,39.8,203.7,38.7,203.8,37.1z"/>
				<path class="st2" d="M206.1,40.3l1.1-1.3c0.5,0.7,1.4,1.3,2.5,1.4c1,0.1,1.5-0.3,1.5-0.8c0.1-1.5-4.8-0.9-4.4-4.1
					c0.1-1.4,1.5-2.4,3.4-2.2c1.3,0.1,2.4,0.6,3.1,1.5l-1.1,1.2c-0.6-0.7-1.5-1.1-2.3-1.2c-0.8-0.1-1.2,0.2-1.3,0.7
					c-0.1,1.3,4.8,0.9,4.4,4c-0.2,1.5-1.4,2.6-3.6,2.3C207.9,41.8,206.8,41.2,206.1,40.3z"/>
				<path class="st2" d="M214.4,44.1l-0.6-0.7c0.4-0.2,1-0.6,1.1-1c0,0-0.1,0-0.2,0c-0.5-0.1-0.8-0.5-0.7-1c0.1-0.5,0.6-0.9,1.1-0.9
					c0.6,0.1,1,0.6,0.9,1.4C215.8,42.9,215.2,43.7,214.4,44.1z"/>
			</g>
		</g>
	</g>
</g>
<g id="Layer_2">
	<g>
		<g>
			<path class="st2" d="M236.2,60l2.7-8l5.6,1.9l-0.5,1.5l-3.9-1.3l-0.6,1.7l3.9,1.3l-0.5,1.5l-3.9-1.3l-1.1,3.3L236.2,60z"/>
			<path class="st2" d="M248.2,64.5l0-1.5l-3.3-1.3l-1,1.1L242,62l6.1-6.6l2.1,0.8l-0.1,9L248.2,64.5z M248.5,57.5l-2.6,2.9l2.4,1
				L248.5,57.5z"/>
			<path class="st2" d="M250.7,65.5l3.5-7.6l1.6,0.8l-2.9,6.2l3.2,1.5l-0.7,1.4L250.7,65.5z"/>
			<path class="st2" d="M258.2,69.2l3.2-6l-2.2-1.1l0.7-1.4l5.9,3.1l-0.7,1.4l-2.2-1.1l-3.2,6L258.2,69.2z"/>
			<path class="st2" d="M267.8,74.6l0.3-1.5l-3.1-1.9l-1.2,0.9l-1.7-1l7.1-5.5l1.9,1.2l-1.6,8.9L267.8,74.6z M269.2,67.8l-3,2.4
				l2.2,1.4L269.2,67.8z"/>
			<path class="st2" d="M272.8,77.8l4.9-6.8l2.7,1.9c2.1,1.5,2.6,4,1.1,6c-1.5,2.1-4,2.3-6.1,0.8L272.8,77.8z M280,77.9
				c0.9-1.2,0.8-2.7-0.6-3.7l-1.2-0.9l-3.1,4.3l1.2,0.9C277.7,79.5,279.2,79.1,280,77.9z"/>
			<path class="st2" d="M279.9,83.1l5.3-6.5l4.6,3.8l-1,1.2l-3.2-2.6l-1.1,1.4l3.1,2.6l-1,1.2l-3.1-2.6l-1.2,1.5l3.2,2.6l-1,1.2
				L279.9,83.1z"/>
			<path class="st2" d="M292.1,93.9l0.6-1.4l-2.6-2.5l-1.4,0.7l-1.5-1.4l8.2-3.8L297,87l-3.5,8.3L292.1,93.9z M295,87.5l-3.5,1.7
				l1.9,1.8L295,87.5z"/>
			<path class="st2" d="M296.8,92.6c2-1.8,4.6-1.4,6.2,0.4c1.2,1.3,1.3,2.7,1,3.8l-1.6-0.5c0.2-0.7,0.1-1.6-0.5-2.2
				c-1-1.1-2.7-1.2-3.8-0.1c-1.2,1.1-1.3,2.7-0.2,3.8c0.5,0.5,1.2,0.8,1.7,0.9l0.7-0.7l-1.5-1.6l1.2-1.1l2.7,3l-2.4,2.2
				c-1.3,0-2.5-0.5-3.6-1.6C294.9,97,294.8,94.4,296.8,92.6z"/>
			<path class="st2" d="M302.6,100.3l3.9-3.2l1.1,1.4l-3.9,3.1c-0.9,0.7-1.1,1.8-0.3,2.8c0.8,1,1.9,1,2.8,0.3l3.9-3.1l1.1,1.4
				l-3.9,3.2c-1.6,1.3-3.5,1.2-5.1-0.8C300.6,103.4,301,101.6,302.6,100.3z"/>
			<path class="st2" d="M309,114.3l0.9-1.3l-2.1-2.9l-1.5,0.4l-1.2-1.7l8.7-2.2l1.3,1.8l-5,7.5L309,114.3z M313,108.5l-3.7,1
				l1.5,2.1L313,108.5z"/>
			<path class="st2" d="M312.2,119.2l7.2-4.3l2.2,3.8c0.8,1.4,0.3,2.6-0.6,3.2c-0.9,0.5-1.9,0.3-2.4-0.3c0.3,0.9-0.1,1.9-1,2.4
				c-1.1,0.6-2.4,0.4-3.2-1L312.2,119.2z M317,122.4c0.5-0.3,0.6-0.8,0.3-1.4l-1.2-2l-1.7,1l1.2,2C316,122.5,316.5,122.7,317,122.4z
				 M319.8,120.5c0.4-0.3,0.6-0.8,0.3-1.3l-1.1-1.9l-1.5,0.9l1.1,1.9C318.9,120.6,319.4,120.8,319.8,120.5z"/>
			<path class="st2" d="M318.9,131.5l1-1.1l-1.6-3.2l-1.5,0.2l-0.9-1.8l9-0.9l1,2l-6,6.7L318.9,131.5z M323.8,126.4l-3.8,0.5
				l1.2,2.3L323.8,126.4z M326.1,125.3l-0.5-1l2.4,0.7l0.7,1.3L326.1,125.3z"/>
			<path class="st2" d="M320.9,132.9l1.7,0.3c-0.3,0.8-0.4,1.8,0,2.9c0.4,0.9,1,1.2,1.4,1c1.3-0.6-1.5-4.6,1.4-5.9
				c1.3-0.6,2.8,0.1,3.6,1.9c0.5,1.2,0.6,2.4,0.2,3.5l-1.6-0.4c0.3-0.9,0.2-1.8-0.1-2.6c-0.3-0.7-0.8-1-1.2-0.8
				c-1.2,0.5,1.5,4.6-1.3,5.9c-1.4,0.6-2.9,0.1-3.8-2C320.5,135.2,320.5,133.9,320.9,132.9z"/>
			<path class="st2" d="M323,140.7l7.8-3.1l0.7,1.7l-7.8,3.1L323,140.7z"/>
			<path class="st2" d="M328.1,142.1c2.5-0.8,4.7,0.4,5.6,2.8c0.6,1.7,0,3.1-0.8,4l-1.2-1.2c0.5-0.6,0.8-1.4,0.5-2.3
				c-0.5-1.5-2-2.1-3.5-1.6c-1.5,0.5-2.2,1.9-1.7,3.4c0.3,0.8,1,1.3,1.8,1.5l-0.2,1.7c-1.2-0.2-2.5-0.9-3.1-2.6
				C324.6,145.4,325.7,143,328.1,142.1z"/>
			<path class="st2" d="M328.6,157.5l1.2-0.9l-1-3.5l-1.5-0.1l-0.5-2l9,0.9l0.6,2.2l-7.2,5.4L328.6,157.5z M334.3,153.5l-3.8-0.3
				l0.7,2.5L334.3,153.5z"/>
		</g>
	</g>
	<g>
		<g>
			<path class="st2" d="M232.2,71.1l1.4-1c0.4,0.8,1.1,1.6,2.2,1.9c0.9,0.3,1.5,0.1,1.7-0.4c0.5-1.4-4.4-2-3.4-5
				c0.5-1.3,2-2,3.8-1.4c1.3,0.4,2.2,1.2,2.7,2.2l-1.4,0.9c-0.4-0.8-1.2-1.4-2-1.7c-0.7-0.2-1.2-0.1-1.4,0.4c-0.4,1.3,4.4,2,3.4,4.9
				c-0.5,1.5-1.9,2.2-4.1,1.5C233.6,73,232.7,72.1,232.2,71.1z"/>
			<path class="st2" d="M239.4,74.8l3.2-7.8l5.5,2.2l-0.6,1.5l-3.9-1.6l-0.7,1.6l3.8,1.5l-0.6,1.5l-3.8-1.5l-0.7,1.8l3.9,1.6
				l-0.6,1.5L239.4,74.8z"/>
			<path class="st2" d="M250.4,79.6l-0.2-3.4l-1.2-0.6l-1.3,2.7l-1.6-0.8l3.6-7.6l3.5,1.7c1.6,0.8,2.1,2.3,1.4,3.7
				c-0.6,1.3-1.8,1.6-2.7,1.4l0.3,3.7L250.4,79.6z M253,74.6c0.3-0.6,0-1.2-0.6-1.6l-1.7-0.8l-1,2l1.7,0.8
				C252,75.4,252.7,75.2,253,74.6z"/>
			<path class="st2" d="M255.3,82.2l1.3-8.9l1.8,1l-1.1,6.8l5.2-4.5l1.8,1l-7,5.7L255.3,82.2z"/>
			<path class="st2" d="M260.6,85.3l4.5-7.1l1.5,1l-4.5,7.1L260.6,85.3z"/>
			<path class="st2" d="M265.5,83.4c1.5-2.1,4.1-2.4,6.2-1c1.5,1.1,1.8,2.5,1.7,3.7l-1.7-0.3c0.1-0.8-0.2-1.6-0.9-2.1
				c-1.3-0.9-2.8-0.6-3.7,0.7c-0.9,1.3-0.7,2.9,0.6,3.8c0.7,0.5,1.6,0.5,2.3,0.1l0.8,1.5c-1.1,0.5-2.5,0.7-4.1-0.3
				C264.6,88.1,264,85.5,265.5,83.4z"/>
			<path class="st2" d="M270.4,92.1l5.1-6.7l1.4,1.1l-5.1,6.7L270.4,92.1z"/>
			<path class="st2" d="M275.5,90.6c1.6-1.9,4.2-2.1,6.2-0.4c1.9,1.6,2.1,4.2,0.5,6.2c-1.6,1.9-4.2,2.1-6.2,0.4
				C274.1,95.1,273.8,92.6,275.5,90.6z M280.8,95.2c1-1.2,1-2.7-0.1-3.8c-1.2-1-2.7-0.8-3.7,0.4c-1,1.2-1,2.7,0.1,3.8
				C278.2,96.6,279.8,96.3,280.8,95.2z"/>
			<path class="st2" d="M280.6,99.1l1.7-0.3c0,0.9,0.3,1.9,1.1,2.7c0.7,0.7,1.4,0.7,1.7,0.4c1-1-3.1-3.7-0.9-6c1-1,2.7-1,4.1,0.4
				c1,0.9,1.5,2,1.5,3.1l-1.6,0.3c0-0.9-0.5-1.8-1.1-2.4c-0.5-0.5-1.1-0.6-1.4-0.2c-0.9,0.9,3.1,3.7,1,5.9c-1.1,1.1-2.7,1.1-4.3-0.4
				C281.1,101.4,280.7,100.2,280.6,99.1z"/>
			<path class="st2" d="M287.7,107.9l6.4-5.4l2.1,2.5c1.7,2,1.6,4.5-0.3,6.1c-1.9,1.7-4.4,1.3-6.1-0.7L287.7,107.9z M294.7,109.7
				c1.1-1,1.4-2.4,0.3-3.7l-1-1.2l-4,3.4l1,1.2C292.1,110.7,293.6,110.6,294.7,109.7z"/>
			<path class="st2" d="M293.4,114.7l6.7-5l3.6,4.8l-1.3,0.9l-2.5-3.3l-1.4,1.1l2.4,3.3l-1.3,0.9l-2.4-3.3l-1.5,1.1l2.5,3.3
				l-1.3,0.9L293.4,114.7z"/>
			<path class="st2" d="M300.1,122l1.7,0.1c-0.2,0.8-0.2,1.9,0.4,2.9c0.5,0.8,1.1,1,1.6,0.7c1.2-0.8-2.2-4.3,0.5-6
				c1.2-0.7,2.8-0.3,3.9,1.4c0.7,1.1,1,2.3,0.7,3.4l-1.7-0.1c0.2-0.9-0.1-1.8-0.5-2.6c-0.4-0.6-0.9-0.8-1.3-0.6
				c-1.1,0.7,2.2,4.3-0.5,6c-1.3,0.8-2.9,0.5-4.1-1.4C300,124.4,299.9,123.1,300.1,122z"/>
			<path class="st2" d="M306.1,134.6l1-1.1l-1.7-3.2l-1.5,0.2l-1-1.8l8.9-1.1l1.1,2l-5.9,6.8L306.1,134.6z M310.8,129.4L307,130
				l1.2,2.3L310.8,129.4z"/>
			<path class="st2" d="M309.7,142.2l3.3-5.9l-5,2.3l-0.7-1.6l7.7-3.5l0.8,1.7l-3.2,5.7l4.8-2.2l0.7,1.6l-7.7,3.5L309.7,142.2z"/>
			<path class="st2" d="M311,145.2l7.9-3l2.1,5.6l-1.5,0.6l-1.5-3.9l-1.6,0.6l1.4,3.8l-1.5,0.6l-1.4-3.8l-1.8,0.7l1.5,3.9l-1.5,0.6
				L311,145.2z"/>
			<path class="st2" d="M315.2,157.5l1.2-0.9l-1.1-3.4l-1.5-0.1l-0.6-1.9l9,0.6l0.7,2.1l-7.1,5.6L315.2,157.5z M320.9,153.3
				l-3.8-0.2l0.8,2.5L320.9,153.3z"/>
			<path class="st2" d="M317.6,167.2l5.9-1.3l-6.4-1l-0.2-0.8l5.4-3.6l-5.9,1.3L316,160l8.2-1.9l0.6,2.4l-4.7,3.2l5.6,0.8l0.6,2.5
				l-8.2,1.9L317.6,167.2z"/>
			<path class="st2" d="M318.2,170.5l8.3-1.4l0.3,1.8l-8.3,1.4L318.2,170.5z"/>
			<path class="st2" d="M318.8,173.8l8.3-1l0.7,5.9l-1.6,0.2l-0.5-4.1l-1.8,0.2l0.5,4l-1.6,0.2l-0.5-4l-1.9,0.2l0.5,4.1l-1.6,0.2
				L318.8,173.8z"/>
			<path class="st2" d="M320,186.7l5.2-4.3l-5.5,0.3l-0.1-1.8l8.4-0.5l0.1,1.8l-5,4.2l5.3-0.3l0.1,1.8l-8.4,0.5L320,186.7z"/>
			<path class="st2" d="M320.1,191.9l6.8,0l0-2.5l1.6,0l0,6.7l-1.6,0l0-2.4l-6.8,0L320.1,191.9z"/>
			<path class="st2" d="M324.2,197.1c2.5,0.2,4.2,2.2,4,4.7c-0.2,2.5-2.1,4.2-4.7,4.1c-2.5-0.2-4.2-2.2-4-4.7
				C319.8,198.6,321.7,196.9,324.2,197.1z M323.7,204c1.6,0.1,2.8-0.8,2.9-2.3c0.1-1.6-1-2.6-2.6-2.8c-1.6-0.1-2.8,0.8-2.9,2.3
				C321.1,202.8,322.2,203.9,323.7,204z"/>
		</g>
	</g>
	<g>
		<g>
			<path class="st2" d="M240.2,48.2l2.7-8l3.7,1.3c1.7,0.6,2.3,2.1,1.8,3.5c-0.5,1.4-1.8,2.2-3.5,1.6l-2-0.7l-1,2.8L240.2,48.2z
				 M246.6,44.4c0.2-0.7-0.1-1.2-0.8-1.5l-1.8-0.6l-0.7,2.1l1.8,0.6C245.8,45.3,246.4,45.1,246.6,44.4z"/>
			<path class="st2" d="M248.7,46.7c0.9-2.3,3.3-3.3,5.7-2.4c2.3,0.9,3.4,3.3,2.4,5.7c-1,2.3-3.3,3.3-5.7,2.4
				C248.8,51.4,247.7,49,248.7,46.7z M255.1,49.3c0.6-1.5,0.1-2.9-1.3-3.5c-1.5-0.6-2.8,0.1-3.4,1.6c-0.6,1.4-0.1,2.9,1.3,3.5
				C253.2,51.5,254.5,50.7,255.1,49.3z"/>
			<path class="st2" d="M256.3,54.3l3.6-7.6l4,1.9c1.4,0.7,1.7,2,1.3,3c-0.4,0.9-1.3,1.3-2.1,1.1c0.8,0.5,1,1.6,0.6,2.5
				c-0.5,1.1-1.7,1.7-3.2,1L256.3,54.3z M262,54.3c0.2-0.5,0.1-1-0.6-1.3l-2.1-1l-0.8,1.7l2.1,1C261.2,55,261.8,54.8,262,54.3z
				 M263.3,51.1c0.2-0.5,0-1-0.5-1.2l-2-1l-0.8,1.6l2,1C262.6,51.7,263.1,51.6,263.3,51.1z"/>
			<path class="st2" d="M267.9,60.2l0-3.4l-1.2-0.6l-1.4,2.6l-1.6-0.9l4-7.4l3.5,1.9c1.5,0.8,1.9,2.4,1.2,3.7
				c-0.7,1.3-1.9,1.6-2.8,1.3l0.1,3.7L267.9,60.2z M270.8,55.2c0.3-0.6,0.1-1.2-0.6-1.6l-1.7-0.9l-1.1,2l1.7,0.9
				C269.7,56,270.4,55.9,270.8,55.2z"/>
			<path class="st2" d="M270.7,61.8l4.4-7.2l5.1,3.1l-0.8,1.3l-3.5-2.2l-0.9,1.5l3.5,2.1l-0.8,1.3l-3.5-2.1l-1,1.6l3.5,2.2l-0.8,1.3
				L270.7,61.8z"/>
			<path class="st2" d="M276.6,65.4l0.8-1.2l6.3-2.2l-3.3-2.2l0.9-1.3l5.2,3.5l-0.8,1.2l-6.3,2.2l3.4,2.3l-0.9,1.3L276.6,65.4z"/>
			<path class="st2" d="M287.5,73.2l0.4-1.5l-2.9-2.2l-1.3,0.8l-1.6-1.2l7.7-4.7l1.8,1.4l-2.5,8.7L287.5,73.2z M289.7,66.5l-3.2,2.1
				l2.1,1.6L289.7,66.5z"/>
			<path class="st2" d="M289,76.6l-0.2-0.9c0.4,0.1,1.1,0,1.5-0.3c0,0-0.1-0.1-0.2-0.1c-0.4-0.3-0.4-0.8-0.1-1.2
				c0.4-0.4,1-0.5,1.4-0.1c0.5,0.4,0.6,1.1,0,1.7C290.9,76.4,290,76.7,289,76.6z"/>
			<path class="st2" d="M298.7,82.9l2.4-2.6l-2.9-2.7l-2.4,2.6l-1.3-1.2l5.7-6.2l1.3,1.2l-2.2,2.4l2.9,2.7l2.2-2.4l1.3,1.2l-5.7,6.2
				L298.7,82.9z"/>
			<path class="st2" d="M301.1,85.3l6-5.9l1.3,1.3l-6,5.9L301.1,85.3z"/>
			<path class="st2" d="M306.3,84.5c2-1.8,4.6-1.4,6.2,0.4c1.2,1.3,1.3,2.7,0.9,3.8l-1.6-0.5c0.2-0.7,0.1-1.6-0.5-2.2
				c-1-1.1-2.6-1.2-3.8-0.1c-1.2,1.1-1.3,2.7-0.3,3.8c0.5,0.5,1.2,0.8,1.7,0.9l0.7-0.7l-1.5-1.6l1.2-1.1l2.7,3l-2.4,2.2
				c-1.3,0-2.5-0.5-3.6-1.6C304.5,88.9,304.4,86.3,306.3,84.5z"/>
			<path class="st2" d="M309.5,94.3l6.4-5.4l1.2,1.4l-6.4,5.4L309.5,94.3z"/>
			<path class="st2" d="M311.7,96.9l6.6-5.2l3.7,4.7l-1.2,1l-2.6-3.3l-1.4,1.1l2.5,3.2l-1.2,1l-2.5-3.2l-1.5,1.2l2.6,3.3l-1.2,1
				L311.7,96.9z"/>
			<path class="st2" d="M319.4,107.4l2.2-6.4l-4.5,3.1l-1-1.5l6.9-4.8l1.1,1.5l-2.1,6.2l4.3-3l1,1.5l-6.9,4.8L319.4,107.4z"/>
			<path class="st2" d="M321.2,110.1l7.1-4.4l3.1,5l-1.3,0.8L328,108l-1.5,0.9l2.1,3.5l-1.3,0.8l-2.1-3.5l-1.6,1l2.2,3.5l-1.3,0.8
				L321.2,110.1z"/>
			<path class="st2" d="M326.6,119.1l7.4-4l0.9,1.6l-7.4,4L326.6,119.1z"/>
			<path class="st2" d="M330.8,127.2l3.1-6l-4.9,2.4l-0.8-1.6l7.5-3.7l0.8,1.7l-3,5.8l4.7-2.3l0.8,1.6l-7.5,3.7L330.8,127.2z"/>
			<path class="st2" d="M334.4,135.5l1.1-1l-1.4-3.3l-1.5,0.1l-0.8-1.9l9-0.3l0.9,2.1l-6.5,6.3L334.4,135.5z M339.6,130.8l-3.8,0.2
				l1,2.4L339.6,130.8z"/>
			<path class="st2" d="M335.5,138l7.9-2.8l1.1,3.1c0.9,2.5-0.1,4.8-2.4,5.6c-2.4,0.9-4.6-0.3-5.5-2.8L335.5,138z M341.4,142.2
				c1.4-0.5,2.2-1.7,1.6-3.3l-0.5-1.4l-4.9,1.8l0.5,1.4C338.6,142.1,340.1,142.7,341.4,142.2z"/>
			<path class="st2" d="M338.4,146.4l8.1-2.4l1.7,5.7l-1.5,0.5l-1.2-4l-1.7,0.5l1.2,3.9l-1.5,0.5l-1.2-3.9l-1.8,0.5l1.2,4l-1.5,0.5
				L338.4,146.4z"/>
			<path class="st2" d="M344.4,152c2.5-0.6,4.7,0.9,5.3,3.3c0.4,1.8-0.3,3.1-1.2,3.9l-1.1-1.3c0.6-0.5,0.9-1.4,0.7-2.2
				c-0.4-1.5-1.8-2.3-3.3-1.9s-2.4,1.7-2.1,3.2c0.2,0.8,0.9,1.4,1.6,1.6l-0.4,1.7c-1.2-0.3-2.4-1.1-2.8-2.9
				C340.7,154.9,341.9,152.6,344.4,152z"/>
			<path class="st2" d="M345.7,161.1l5-0.9l0.3,1.8l-4.9,0.9c-1.2,0.2-1.8,1-1.6,2.3c0.2,1.3,1.1,1.8,2.3,1.6l4.9-0.9l0.3,1.8
				l-5,0.9c-2,0.4-3.7-0.6-4.1-3.1C342.5,162.9,343.7,161.4,345.7,161.1z"/>
			<path class="st2" d="M344.7,176.4l1.3-0.7l-0.4-3.6l-1.5-0.4l-0.2-2l8.7,2.2l0.3,2.2l-8,4.2L344.7,176.4z M351,173.3l-3.7-0.9
				l0.3,2.6L351,173.3z"/>
			<path class="st2" d="M345,179.1l8.4-0.5l0.2,3.3c0.2,2.6-1.4,4.6-3.9,4.7c-2.5,0.2-4.3-1.6-4.5-4.2L345,179.1z M349.5,184.8
				c1.5-0.1,2.6-1.1,2.5-2.8l-0.1-1.5l-5.2,0.3l0.1,1.5C346.9,184,348.1,184.8,349.5,184.8z"/>
			<path class="st2" d="M345.5,193.8l1.4-0.5l0-3.6l-1.4-0.5l0-2l8.4,3.2l0,2.2l-8.4,3.3L345.5,193.8z M352.1,191.5l-3.6-1.3l0,2.6
				L352.1,191.5z"/>
			<path class="st2" d="M343.7,197.1l0.6-0.7c0.2,0.4,0.7,0.9,1.2,1c0,0,0-0.1,0-0.2c0-0.5,0.4-0.8,0.9-0.8c0.6,0,1,0.5,1,1
				c0,0.6-0.5,1.1-1.3,1.1C345,198.4,344.2,197.9,343.7,197.1z"/>
		</g>
	</g>
</g>
<g id="Layer_2_copy">
	<g>
		<g>
			<path class="st2" d="M185.5,332.7c0.1-2.6,2.1-4.3,4.6-4.2c1.8,0.1,2.9,1.1,3.4,2.2l-1.6,0.7c-0.3-0.7-1.1-1.3-1.9-1.3
				c-1.5-0.1-2.7,1.1-2.7,2.7c-0.1,1.6,1,2.8,2.5,2.8c0.9,0,1.6-0.5,2-1.2l1.5,0.8c-0.6,1-1.7,2-3.6,1.9
				C187.3,337.1,185.4,335.3,185.5,332.7z"/>
			<path class="st2" d="M194.3,333c-0.1-2.5,1.7-4.4,4.3-4.5c2.5-0.1,4.4,1.7,4.5,4.2c0.1,2.5-1.7,4.4-4.3,4.5
				C196.2,337.3,194.3,335.5,194.3,333z M201.2,332.8c0-1.6-1.1-2.7-2.6-2.7c-1.6,0-2.5,1.3-2.5,2.8c0,1.6,1.1,2.7,2.6,2.7
				C200.3,335.6,201.2,334.3,201.2,332.8z"/>
			<path class="st2" d="M210.6,336.2l-4.5-5.1l0.5,5.5l-1.8,0.2l-0.8-8.4l1.8-0.2l4.4,4.9l-0.5-5.3l1.8-0.2l0.8,8.4L210.6,336.2z"/>
			<path class="st2" d="M216.2,335.5l-1.1-6.7l-2.4,0.4l-0.2-1.6l6.6-1l0.2,1.6l-2.4,0.4l1.1,6.7L216.2,335.5z"/>
			<path class="st2" d="M227.5,333.3l-0.8-1.3l-3.5,0.8l-0.2,1.5l-2,0.4l1.4-8.9l2.2-0.5l4.9,7.5L227.5,333.3z M223.8,327.4
				l-0.5,3.8l2.6-0.6L223.8,327.4z"/>
			<path class="st2" d="M237.6,330.6l-1.7-5.8l-0.6,6.5l-0.8,0.2l-4-5.2l1.7,5.8l-1.7,0.5l-2.3-8.1l2.4-0.7l3.4,4.5l0.5-5.6l2.4-0.7
				l2.3,8.1L237.6,330.6z"/>
			<path class="st2" d="M241.1,329.4l-2.7-7.9l1.7-0.6l2.7,7.9L241.1,329.4z"/>
			<path class="st2" d="M250.1,326.1l-5.7-3.6l2,5.1l-1.7,0.7l-3.1-7.8l1.7-0.7l5.6,3.5l-2-4.9l1.7-0.7l3.1,7.8L250.1,326.1z"/>
			<path class="st2" d="M258.7,322.1l-1.1-1.1l-3.3,1.5l0.1,1.5l-1.8,0.9l-0.7-9l2-1l6.5,6.2L258.7,322.1z M253.8,317.1l0.4,3.8
				l2.4-1.1L253.8,317.1z"/>
			<path class="st2" d="M259.2,317.2c-1.3-2.3-0.4-4.7,1.8-6c1.6-0.9,3-0.5,4.1,0.1l-1,1.4c-0.6-0.4-1.6-0.5-2.3-0.1
				c-1.3,0.7-1.7,2.3-1,3.7s2.3,1.9,3.7,1.1c0.7-0.4,1.1-1.3,1.1-2l1.7-0.1c0,1.2-0.5,2.6-2.1,3.5
				C263,320.1,260.5,319.5,259.2,317.2z"/>
			<path class="st2" d="M269.3,316.3l-4.4-7.2l1.5-0.9l4.4,7.2L269.3,316.3z"/>
			<path class="st2" d="M269.8,311.2c-1.4-2.1-0.9-4.6,1.2-6.1c2.1-1.4,4.6-1,6.1,1.1c1.4,2.1,0.9,4.6-1.2,6.1
				C273.8,313.7,271.2,313.2,269.8,311.2z M270.7,304.5l-0.9,0.6l0.4-2.5l1.2-0.8L270.7,304.5z M275.5,307.2
				c-0.9-1.3-2.4-1.7-3.7-0.9c-1.3,0.9-1.4,2.4-0.6,3.7c0.9,1.3,2.4,1.7,3.7,0.8C276.3,310.1,276.4,308.5,275.5,307.2z"/>
			<path class="st2" d="M285.3,305.1l-6.5-1.8l3.4,4.3l-1.4,1.1l-5.2-6.6l1.4-1.1l6.3,1.8l-3.3-4.2l1.4-1.1l5.2,6.6L285.3,305.1z"/>
			<path class="st2" d="M293.3,298.3l-5.9-6l2.4-2.3c1.9-1.8,4.4-1.9,6.1-0.1c1.8,1.8,1.6,4.3-0.2,6.1L293.3,298.3z M294.5,291.1
				c-1-1.1-2.5-1.2-3.7,0l-1.1,1.1l3.7,3.8l1.1-1.1C295.7,293.7,295.6,292.1,294.5,291.1z"/>
			<path class="st2" d="M299.9,291.6l-6.3-5.6l3.9-4.5l1.2,1l-2.8,3.1l1.3,1.2l2.7-3l1.2,1l-2.7,3l1.4,1.3l2.8-3.1l1.2,1
				L299.9,291.6z"/>
			<path class="st2" d="M304.9,286l-6.5-5.3l1.1-1.4l5.3,4.3l2.3-2.7l1.2,1L304.9,286z"/>
		</g>
	</g>
	<g>
		<g>
			<path class="st2" d="M189.8,350.2l-0.5-1.4l-3.6-0.2l-0.6,1.4l-2-0.1l3.6-8.3l2.2,0.1l2.9,8.5L189.8,350.2z M187.8,343.5
				l-1.5,3.6l2.6,0.1L187.8,343.5z"/>
			<path class="st2" d="M200.3,350.1l-0.1-6.1l-2.2,6.1l-0.8,0l-2.5-6l0.1,6.1l-1.8,0l-0.2-8.4l2.5-0.1l2.1,5.2l1.9-5.3l2.5-0.1
				l0.2,8.4L200.3,350.1z"/>
			<path class="st2" d="M204.1,350l-0.7-8.4l4.4-0.4c1.6-0.1,2.5,0.8,2.6,1.9c0.1,1-0.5,1.8-1.3,2c0.9,0.1,1.7,0.9,1.8,1.9
				c0.1,1.3-0.6,2.3-2.2,2.5L204.1,350z M208.6,343.6c0-0.5-0.5-0.8-1.1-0.8l-2.2,0.2l0.1,1.8l2.2-0.2
				C208.3,344.5,208.6,344.1,208.6,343.6z M209,347c0-0.5-0.5-0.9-1.1-0.9l-2.3,0.2l0.2,1.9l2.3-0.2C208.7,348,209.1,347.6,209,347z
				"/>
			<path class="st2" d="M212.6,349.2l-1-8.3l1.8-0.2l1,8.3L212.6,349.2z"/>
			<path class="st2" d="M216.2,348.7l-1.3-8.3l5.9-0.9l0.2,1.6l-4.1,0.6l0.3,1.7l4-0.6l0.2,1.6l-4,0.6l0.3,1.9l4.1-0.6l0.2,1.6
				L216.2,348.7z"/>
			<path class="st2" d="M229.5,346.3l-5.1-4.5l1.1,5.4l-1.8,0.4l-1.8-8.2l1.8-0.4l4.9,4.3l-1.1-5.2l1.8-0.4l1.8,8.2L229.5,346.3z"/>
			<path class="st2" d="M234.9,344.9l-1.8-6.6l-2.4,0.6l-0.4-1.5l6.5-1.8l0.4,1.5l-2.4,0.6l1.8,6.6L234.9,344.9z"/>
			<path class="st2" d="M240.4,343.4l-2.6-8l5.7-1.8l0.5,1.5l-4,1.3l0.5,1.7l3.9-1.3l0.5,1.5l-3.9,1.3l0.6,1.8l4-1.3l0.5,1.5
				L240.4,343.4z"/>
			<path class="st2" d="M250.7,339.8l-3.1-7.8l5.5-2.2l0.6,1.5l-3.9,1.5l0.7,1.6l3.8-1.5l0.6,1.5l-3.8,1.5l0.7,1.8l3.9-1.5l0.6,1.5
				L250.7,339.8z"/>
			<path class="st2" d="M263.1,334.5l-5.9-3.3l2.3,5l-1.6,0.8l-3.6-7.6l1.7-0.8l5.8,3.1l-2.2-4.8l1.6-0.8l3.6,7.6L263.1,334.5z"/>
			<path class="st2" d="M269.3,331.4l-4.1-7.3l1.6-0.9l3.3,6l3.1-1.7l0.8,1.4L269.3,331.4z"/>
			<path class="st2" d="M280.2,324.9L279,324l-3.1,1.9l0.3,1.5l-1.7,1.1l-1.7-8.8l1.9-1.2l7.2,5.4L280.2,324.9z M274.7,320.6
				l0.8,3.8l2.2-1.4L274.7,320.6z"/>
			<path class="st2" d="M281.6,322.6l0-1.7c0.8,0.2,1.9,0.1,2.8-0.6c0.8-0.6,0.9-1.2,0.7-1.6c-0.8-1.2-4.2,2.4-6-0.2
				c-0.8-1.1-0.5-2.8,1.1-3.9c1.1-0.8,2.2-1.1,3.4-0.9l0,1.7c-0.9-0.1-1.8,0.2-2.5,0.7c-0.6,0.4-0.8,0.9-0.5,1.4
				c0.8,1.1,4.2-2.4,6,0.1c0.9,1.3,0.6,2.8-1.2,4.1C284,322.6,282.7,322.8,281.6,322.6z"/>
			<path class="st2" d="M288.9,313.7c-1.6-2-1.2-4.6,0.7-6.2c1.4-1.2,2.9-1.1,4-0.6l-0.7,1.6c-0.7-0.3-1.6-0.2-2.3,0.3
				c-1.2,1-1.3,2.6-0.3,3.8c1,1.2,2.6,1.4,3.8,0.5c0.7-0.5,0.9-1.4,0.7-2.2l1.7-0.4c0.2,1.2,0,2.7-1.4,3.8
				C293.2,315.8,290.5,315.7,288.9,313.7z"/>
			<path class="st2" d="M295.6,308.1c-1.7-1.9-1.6-4.5,0.3-6.2c1.9-1.7,4.5-1.6,6.2,0.2s1.6,4.4-0.3,6.2
				C300,310,297.4,310,295.6,308.1z M300.7,303.4c-1.1-1.2-2.6-1.3-3.7-0.3c-1.1,1.1-1.1,2.6,0,3.8c1.1,1.1,2.6,1.3,3.8,0.3
				C301.9,306.1,301.8,304.5,300.7,303.4z"/>
			<path class="st2" d="M311.1,298.7l-4.4-4.2l2.8,5.9l-0.5,0.6l-6-2.4l4.4,4.2l-1.2,1.3l-6.1-5.8l1.7-1.8l5.2,2.1l-2.4-5.1l1.7-1.8
				l6.1,5.8L311.1,298.7z"/>
			<path class="st2" d="M311.1,293.7l-3.9-3.2l1.2-1.4l3.8,3.2c0.9,0.7,2,0.7,2.8-0.3c0.8-1,0.6-2-0.3-2.8l-3.8-3.2l1.2-1.4l3.9,3.2
				c1.6,1.3,1.9,3.2,0.3,5.2C314.6,295,312.7,295.1,311.1,293.7z"/>
			<path class="st2" d="M323.2,283.8l-6.8,0l4.4,3.2l-1.1,1.4l-6.8-5l1.1-1.5l6.6,0l-4.3-3.1l1.1-1.4l6.8,5L323.2,283.8z"/>
			<path class="st2" d="M325.1,280.9l-6.9-4.8l1-1.5l6.9,4.8L325.1,280.9z"/>
			<path class="st2" d="M327.2,277.8l-7.2-4.4l1.7-2.8c1.4-2.2,3.8-2.9,5.9-1.6c2.2,1.3,2.6,3.8,1.3,6L327.2,277.8z M326.8,270.5
				c-1.3-0.8-2.7-0.6-3.6,0.9l-0.8,1.3l4.5,2.7l0.8-1.3C328.5,272.7,328,271.3,326.8,270.5z"/>
			<path class="st2" d="M334.8,264.6l-1.5-0.2l-1.7,3.2l1,1.1l-1,1.8l-5.9-6.8l1.1-2l8.9,1.1L334.8,264.6z M327.9,263.5l2.6,2.9
				l1.2-2.3L327.9,263.5z"/>
			<path class="st2" d="M336.3,261.8l-7.6-3.5l1.4-3c1.1-2.4,3.4-3.3,5.7-2.3c2.3,1.1,3.1,3.4,2,5.8L336.3,261.8z M335,254.7
				c-1.3-0.6-2.8-0.3-3.5,1.3l-0.6,1.4l4.8,2.2l0.6-1.4C336.9,256.6,336.3,255.3,335,254.7z"/>
			<path class="st2" d="M340.1,253.3l-7.8-3.1l2.2-5.5l1.5,0.6l-1.5,3.9l1.6,0.7l1.5-3.8l1.5,0.6l-1.5,3.8l1.8,0.7l1.5-3.9l1.5,0.6
				L340.1,253.3z"/>
			<path class="st2" d="M341.6,246.4l-1-1.4c0.8-0.4,1.6-1.1,2-2.2c0.3-0.9,0.1-1.5-0.4-1.7c-1.4-0.5-2,4.4-5,3.4
				c-1.3-0.5-2-2-1.4-3.8c0.4-1.3,1.2-2.2,2.2-2.7l0.9,1.4c-0.8,0.4-1.4,1.2-1.7,2c-0.2,0.7-0.1,1.2,0.4,1.4c1.3,0.4,2-4.4,4.9-3.4
				c1.5,0.5,2.2,1.9,1.5,4.1C343.5,245,342.6,245.9,341.6,246.4z"/>
		</g>
	</g>
</g>
<g id="Layer_2_copy_2">
	<g>
		<g>
			<path class="st2" d="M42.9,193.8l8.4-0.3l0.2,5.9l-1.6,0l-0.1-4.2l-1.8,0.1l0.1,4.1l-1.6,0l-0.1-4.1l-1.9,0.1l0.1,4.2l-1.6,0
				L42.9,193.8z"/>
			<path class="st2" d="M43.7,206.9l2.9-2.4l-3.2-1.8l-0.2-2.1l4.6,2.7l3.8-3.2l0.2,2.1l-2.7,2.2l3,1.7l0.2,2.1l-4.3-2.5l-4,3.4
				L43.7,206.9z"/>
			<path class="st2" d="M44,210.1l8.3-1.2l0.5,3.9c0.3,1.8-0.8,3-2.3,3.2c-1.4,0.2-2.8-0.6-3.1-2.4l-0.3-2.1l-3,0.4L44,210.1z
				 M50.3,214.2c0.7-0.1,1-0.7,0.9-1.4l-0.3-1.9l-2.2,0.3l0.3,1.9C49.2,213.8,49.7,214.3,50.3,214.2z"/>
			<path class="st2" d="M49.2,217c2.5-0.5,4.6,1,5.1,3.4c0.5,2.5-0.9,4.7-3.4,5.2s-4.6-0.9-5.1-3.4C45.3,219.7,46.7,217.5,49.2,217z
				 M50.6,223.8c1.5-0.3,2.5-1.5,2.2-3c-0.3-1.5-1.7-2.3-3.2-2c-1.5,0.3-2.5,1.5-2.2,3.1C47.7,223.4,49.1,224.2,50.6,223.8z"/>
			<path class="st2" d="M48.3,227.2l1.6,0.6c-0.4,0.7-0.7,1.8-0.4,2.9c0.3,1,0.8,1.3,1.3,1.2c1.4-0.4-0.8-4.8,2.2-5.6
				c1.4-0.4,2.8,0.5,3.3,2.4c0.3,1.3,0.2,2.5-0.3,3.5l-1.5-0.6c0.4-0.8,0.5-1.8,0.3-2.6c-0.2-0.7-0.6-1.1-1.1-0.9
				c-1.3,0.3,0.8,4.8-2.2,5.6c-1.5,0.4-2.9-0.4-3.5-2.6C47.5,229.4,47.7,228.1,48.3,227.2z"/>
			<path class="st2" d="M49.3,235.5l8-2.5l0.5,1.7l-8,2.5L49.3,235.5z"/>
			<path class="st2" d="M54.2,237.3c2.4-0.9,4.7,0.4,5.6,2.8c0.6,1.7,0,3.1-0.8,4l-1.2-1.2c0.5-0.6,0.8-1.5,0.5-2.3
				c-0.5-1.5-2-2.1-3.5-1.6c-1.5,0.5-2.2,2-1.7,3.4c0.3,0.8,1,1.3,1.8,1.4l-0.2,1.7c-1.2-0.2-2.5-0.9-3.1-2.6
				C50.8,240.6,51.8,238.1,54.2,237.3z"/>
			<path class="st2" d="M53.4,247.4l7.8-3.1l0.7,1.7l-7.8,3.1L53.4,247.4z"/>
			<path class="st2" d="M58.4,248.8c2.3-1,4.7-0.1,5.8,2.2c1,2.3,0.1,4.7-2.2,5.8c-2.3,1-4.7,0.1-5.8-2.2
				C55.2,252.2,56.1,249.8,58.4,248.8z M61.3,255.1c1.4-0.6,2.1-2,1.5-3.5c-0.6-1.4-2.1-1.8-3.6-1.2c-1.4,0.6-2.1,2-1.5,3.5
				C58.4,255.3,59.9,255.7,61.3,255.1z M64.8,250.8l-0.5-1l2.3,0.8l0.6,1.3L64.8,250.8z"/>
			<path class="st2" d="M61.7,265l3-6.1l-4.8,2.6l-0.8-1.6l7.4-3.9l0.9,1.6l-2.8,5.9l4.7-2.5l0.8,1.6l-7.4,3.9L61.7,265z"/>
			<path class="st2" d="M68.3,276.1l0.9-1.2l-1.9-3l-1.5,0.3l-1.1-1.7l8.8-1.8l1.2,1.9l-5.3,7.3L68.3,276.1z M72.6,270.5l-3.7,0.9
				l1.4,2.2L72.6,270.5z"/>
			<path class="st2" d="M72,281.3l6.7-5.1l1.1,1.4l-5.5,4.1l2.1,2.8l-1.3,0.9L72,281.3z"/>
			<path class="st2" d="M79.8,291.2l0.8-1.3l-2.3-2.8l-1.4,0.5l-1.3-1.6l8.5-2.9l1.4,1.7l-4.4,7.9L79.8,291.2z M83.4,285.2l-3.6,1.3
				l1.7,2L83.4,285.2z"/>
			<path class="st2" d="M84.1,296l6.1-5.8l1.2,1.3l-6.1,5.8L84.1,296z"/>
			<path class="st2" d="M90.9,302.7l0.9-6.7l-3.8,4l-1.3-1.2l5.8-6.1l1.3,1.3l-0.9,6.5l3.7-3.8l1.3,1.2l-5.8,6.1L90.9,302.7z"/>
			<path class="st2" d="M93.6,305.2l5.5-6.4l4.5,3.9l-1,1.2l-3.2-2.7l-1.1,1.3l3.1,2.7l-1,1.2l-3.1-2.6l-2.3,2.6L93.6,305.2z"/>
			<path class="st2" d="M99.3,310l5.1-6.6l4.7,3.6l-1,1.2l-3.3-2.5l-1.1,1.4l3.2,2.5l-1,1.2l-3.2-2.5l-1.2,1.5l3.3,2.5l-1,1.2
				L99.3,310z"/>
			<path class="st2" d="M107.4,311c1.5-2.1,4.1-2.5,6.2-1c1.5,1,1.8,2.5,1.7,3.7l-1.7-0.2c0.1-0.8-0.2-1.6-0.9-2.1
				c-1.3-0.9-2.8-0.5-3.7,0.8c-0.9,1.3-0.7,2.9,0.6,3.8c0.7,0.5,1.6,0.5,2.3,0.1l0.8,1.5c-1.1,0.5-2.5,0.8-4.1-0.3
				C106.6,315.7,106,313.1,107.4,311z"/>
			<path class="st2" d="M114.6,315.9c1.3-2.2,3.9-2.7,6.1-1.4c1.6,1,2,2.4,1.9,3.6l-1.7-0.1c0.1-0.8-0.3-1.6-1-2.1
				c-1.3-0.8-2.9-0.4-3.7,1c-0.8,1.4-0.5,2.9,0.8,3.7c0.7,0.4,1.7,0.4,2.3,0l0.9,1.4c-1,0.6-2.5,0.9-4.1,0
				C114,320.7,113.3,318.2,114.6,315.9z"/>
			<path class="st2" d="M120.5,324.3l4.1-7.4l1.6,0.9l-4.1,7.4L120.5,324.3z"/>
			<path class="st2" d="M125.2,322.1c1.1-2.3,3.6-3.1,5.9-1.9c2.3,1.1,3.1,3.6,2,5.8c-1.1,2.3-3.6,3.1-5.9,1.9
				C124.9,326.8,124.1,324.4,125.2,322.1z M131.4,325.2c0.7-1.4,0.3-2.9-1.1-3.6c-1.4-0.7-2.8-0.1-3.5,1.3c-0.7,1.4-0.3,2.9,1.1,3.6
				C129.3,327.2,130.7,326.6,131.4,325.2z M131.4,319.7l-1-0.5l2.3-0.9l1.3,0.7L131.4,319.7z"/>
			<path class="st2" d="M138,332.7l-1.6-6.6l-2.1,5.1l-1.7-0.7l3.2-7.8l1.7,0.7l1.6,6.4l2-4.9l1.7,0.7l-3.2,7.8L138,332.7z"/>
		</g>
	</g>
</g>
</svg>
