<?xml version="1.0" encoding="utf-8"?>
<!-- Generator: Adobe Illustrator 16.0.0, SVG Export Plug-In . SVG Version: 6.00 Build 0)  -->
<!DOCTYPE svg PUBLIC "-//W3C//DTD SVG 1.1//EN" "http://www.w3.org/Graphics/SVG/1.1/DTD/svg11.dtd">
<svg version="1.1" xmlns="http://www.w3.org/2000/svg" xmlns:xlink="http://www.w3.org/1999/xlink" x="0px" y="0px" width="623px"
	 height="384.549px" viewBox="0 0 623 384.549" enable-background="new 0 0 623 384.549" xml:space="preserve">
<g id="Layer_1">
	<path fill="#00848F" d="M81.551,192.153c0-0.055,0.002-0.109,0.002-0.165H15.359c0,0.056-0.002,0.11-0.002,0.165
		c0,98.673,79.821,178.699,178.415,179.042V305C131.736,304.658,81.551,254.268,81.551,192.153z"/>
	<g>
		<path fill="#009CE1" d="M373.455,191.988H307.26c0,0.056,0.003,0.11,0.003,0.165c0,62.328-50.527,112.855-112.856,112.855
			c-0.212,0-0.423-0.006-0.635-0.008v66.195c0.212,0,0.423,0.008,0.635,0.008c98.886,0,179.05-80.164,179.05-179.05
			C373.457,192.098,373.455,192.043,373.455,191.988z"/>
		<polygon fill="#009CE1" points="194.108,384.307 194.108,288.633 154.671,336.471 		"/>
	</g>
	<path fill="#00848F" d="M194.407,79.297c62.273,0,112.764,50.438,112.853,112.69h66.195
		c-0.09-98.811-80.217-178.884-179.048-178.884c-0.212,0-0.423,0.007-0.635,0.008v66.194
		C193.983,79.304,194.194,79.297,194.407,79.297z"/>
	<polygon fill="#00848F" points="386.56,191.75 290.885,191.75 338.723,231.188 	"/>
	<path fill="#009CE1" d="M15.359,191.988h66.194c0.089-62.04,50.238-112.34,112.218-112.682V13.111
		C95.233,13.454,15.449,93.39,15.359,191.988z"/>
	<polygon fill="#009CE1" points="193.002,0 193.002,95.675 232.439,47.837 	"/>
	<polygon fill="#00848F" points="2.252,192.856 97.926,192.856 50.088,153.42 	"/>
</g>
<g id="Layer_5">
	<g>
		<g>
			<g>
				<path fill="#FFFFFF" d="M62.42,146.22l-0.964-1.412c0.786-0.338,1.604-1.014,2.012-2.1c0.349-0.932,0.1-1.524-0.361-1.696
					c-1.369-0.513-2.112,4.377-5.075,3.267c-1.31-0.49-1.971-2.031-1.276-3.885c0.468-1.251,1.236-2.147,2.248-2.657l0.9,1.401
					c-0.828,0.416-1.418,1.164-1.719,1.967c-0.265,0.708-0.109,1.224,0.363,1.402c1.239,0.464,2.096-4.37,5.035-3.269
					c1.439,0.539,2.136,1.985,1.345,4.098C64.356,144.858,63.442,145.755,62.42,146.22z"/>
				<path fill="#FFFFFF" d="M67.161,137.375l-6.258-2.73l-0.982,2.251l-1.443-0.629l2.68-6.142l1.442,0.629l-0.977,2.239l6.257,2.73
					L67.161,137.375z"/>
				<path fill="#FFFFFF" d="M69.352,132.529l-7.563-3.662l0.779-1.611l7.564,3.662L69.352,132.529z"/>
				<path fill="#FFFFFF" d="M66.911,127.849c-2.337-1.264-2.863-3.839-1.688-6.01c0.827-1.529,2.123-2.074,3.297-2.155l0.009,1.68
					c-0.708,0.062-1.492,0.453-1.911,1.229c-0.731,1.352-0.229,2.883,1.167,3.639c1.396,0.754,2.954,0.337,3.686-1.015
					c0.354-0.653,0.395-1.418,0.279-1.868l-0.886-0.479l-1.053,1.95l-1.375-0.743l1.905-3.522l2.836,1.534
					c0.434,1.208,0.408,2.555-0.311,3.884C71.692,128.144,69.238,129.107,66.911,127.849z"/>
				<path fill="#FFFFFF" d="M78.964,115.507l-5.11-3.252l3.84,5.249l-0.42,0.659l-6.381-1.255l5.111,3.253l-0.96,1.508l-7.087-4.509
					l1.346-2.115l5.526,1.099l-3.335-4.541l1.351-2.125l7.088,4.51L78.964,115.507z"/>
				<path fill="#FFFFFF" d="M84.264,108.078l-1.459-0.418l-2.138,2.9l0.832,1.27l-1.203,1.632l-4.842-7.592l1.331-1.805l8.684,2.381
					L84.264,108.078z M77.558,106.029l2.133,3.2l1.555-2.108L77.558,106.029z"/>
				<path fill="#FFFFFF" d="M91.738,99.124l-1.418-0.542l-2.379,2.707l0.721,1.338l-1.339,1.523l-4.175-7.979l1.48-1.685
					l8.449,3.116L91.738,99.124z M85.23,96.508l1.852,3.372l1.73-1.968L85.23,96.508z"/>
				<path fill="#FFFFFF" d="M97.617,93.031l-6.713-1.029l3.885,3.87l-1.263,1.268l-5.957-5.933l1.298-1.304l6.491,0.967
					l-3.743-3.728l1.263-1.268l5.958,5.933L97.617,93.031z"/>
				<path fill="#FFFFFF" d="M99.942,90.775l-5.553-6.306l2.486-2.19c1.976-1.739,4.454-1.689,6.12,0.201
					c1.681,1.91,1.41,4.366-0.558,6.098L99.942,90.775z M101.624,83.688c-0.975-1.106-2.414-1.367-3.699-0.234l-1.152,1.016
					l3.471,3.942l1.144-1.007C102.636,86.305,102.573,84.766,101.624,83.688z"/>
				<path fill="#FFFFFF" d="M109.194,82.923l-5.032-6.734l4.768-3.56l0.942,1.262l-3.332,2.489l1.056,1.414l3.261-2.436l0.943,1.262
					l-3.262,2.436l1.147,1.535l3.332-2.489l0.942,1.262L109.194,82.923z"/>
				<path fill="#FFFFFF" d="M119.553,75.608l-3.452-1.401l-0.066,3.732l-1.775,1.176l0.163-5.276l-4.646-1.835l1.776-1.176
					l3.194,1.331v-3.446l1.796-1.189l-0.13,4.983l4.927,1.919L119.553,75.608z"/>
				<path fill="#FFFFFF" d="M119.467,70.659c-1.3-2.245-0.487-4.738,1.703-6.007c1.59-0.921,3.016-0.597,4.058,0.021l-0.95,1.425
					c-0.646-0.412-1.572-0.502-2.312-0.072c-1.33,0.77-1.703,2.339-0.907,3.712c0.794,1.373,2.342,1.831,3.671,1.061
					c0.74-0.429,1.124-1.277,1.088-2.042l1.701-0.127c0.013,1.201-0.402,2.62-1.994,3.542
					C123.334,73.44,120.761,72.893,119.467,70.659z"/>
				<path fill="#FFFFFF" d="M129.27,69.898l-3.822-7.489l1.606-0.819l3.105,6.086l3.167-1.616l0.716,1.404L129.27,69.898z"/>
				<path fill="#FFFFFF" d="M133.649,63.897l-2.036-4.612l1.661-0.733l2.017,4.566c0.472,1.072,1.422,1.534,2.609,1.011
					c1.187-0.525,1.473-1.533,0.999-2.604l-2.017-4.566l1.671-0.738l2.037,4.612c0.84,1.903,0.291,3.716-2.05,4.75
					C136.201,66.615,134.49,65.8,133.649,63.897z"/>
				<path fill="#FFFFFF" d="M142.423,62.445l0.433-1.653c0.77,0.372,1.816,0.546,2.901,0.142c0.934-0.348,1.216-0.923,1.045-1.384
					c-0.511-1.369-4.686,1.276-5.792-1.686c-0.487-1.31,0.241-2.818,2.094-3.508c1.251-0.466,2.43-0.477,3.477-0.046l-0.466,1.598
					c-0.856-0.353-1.808-0.307-2.611-0.008c-0.708,0.264-0.995,0.721-0.819,1.192c0.462,1.239,4.669-1.284,5.765,1.655
					c0.537,1.44-0.097,2.913-2.208,3.701C144.719,63.015,143.444,62.911,142.423,62.445z"/>
				<path fill="#FFFFFF" d="M150.409,60.809l-2.624-7.985l1.701-0.559l2.624,7.985L150.409,60.809z"/>
				<path fill="#FFFFFF" d="M152.079,55.792c-0.678-2.439,0.619-4.683,3.07-5.365c2.439-0.679,4.709,0.573,5.389,3.012
					c0.678,2.439-0.621,4.683-3.059,5.362C155.028,59.482,152.758,58.231,152.079,55.792z M158.767,53.932
					c-0.422-1.517-1.699-2.391-3.192-1.976c-1.504,0.419-2.145,1.826-1.723,3.343c0.418,1.505,1.698,2.392,3.203,1.973
					C158.546,56.856,159.185,55.437,158.767,53.932z"/>
				<path fill="#FFFFFF" d="M168.42,56.068l-5.038-4.558l1.113,5.371l-1.753,0.362l-1.705-8.234l1.803-0.374l4.885,4.383
					l-1.07-5.172l1.753-0.363l1.704,8.233L168.42,56.068z"/>
			</g>
		</g>
		<g>
			<g>
				<path fill="#FFFFFF" d="M51.927,141.73l-7.853-2.98l1.176-3.097c0.933-2.46,3.147-3.574,5.501-2.68
					c2.379,0.903,3.285,3.2,2.356,5.649L51.927,141.73z M50.104,134.68c-1.376-0.523-2.77-0.082-3.378,1.519l-0.544,1.437
					l4.909,1.863l0.542-1.424C52.221,136.521,51.447,135.189,50.104,134.68z"/>
				<path fill="#FFFFFF" d="M55.186,133.405l-7.732-3.308l0.705-1.646l7.732,3.307L55.186,133.405z"/>
				<path fill="#FFFFFF" d="M55.197,130.295l-0.847-1.484c0.811-0.273,1.682-0.879,2.175-1.928c0.424-0.901,0.224-1.51-0.221-1.72
					c-1.322-0.622-2.46,4.188-5.32,2.842c-1.265-0.596-1.799-2.184-0.957-3.974c0.569-1.208,1.406-2.039,2.456-2.464l0.784,1.469
					c-0.859,0.348-1.509,1.044-1.874,1.82c-0.321,0.683-0.208,1.21,0.248,1.425c1.197,0.564,2.443-4.183,5.282-2.846
					c1.39,0.654,1.966,2.151,1.004,4.191C57.238,129.098,56.254,129.915,55.197,130.295z"/>
				<path fill="#FFFFFF" d="M62.461,118.44l-1.504-0.208l-1.708,3.173l1.003,1.141l-0.96,1.786l-5.867-6.833l1.063-1.975l8.934,1.13
					L62.461,118.44z M55.531,117.359l2.563,2.867l1.242-2.307L55.531,117.359z"/>
				<path fill="#FFFFFF" d="M63.767,116.107l-7.167-4.385l2.308-3.771c0.835-1.365,2.132-1.53,3.088-0.945
					c0.892,0.546,1.163,1.479,0.888,2.241c0.592-0.701,1.702-0.849,2.593-0.304c1.086,0.664,1.511,1.899,0.669,3.274L63.767,116.107
					z M61.312,108.729c-0.44-0.269-0.95-0.138-1.265,0.378l-1.169,1.912l1.503,0.92l1.17-1.913
					C61.867,109.512,61.773,109.012,61.312,108.729z M64.309,110.371c-0.451-0.276-1.014-0.178-1.375,0.414l-1.209,1.976l1.633,1
					l1.209-1.977C64.915,111.214,64.824,110.687,64.309,110.371z"/>
				<path fill="#FFFFFF" d="M68.144,109.097l-6.995-4.657l0.991-1.489l6.995,4.657L68.144,109.097z"/>
				<path fill="#FFFFFF" d="M69.978,106.344l-6.836-4.88l1.047-1.465l5.555,3.965l2.062-2.89l1.281,0.914L69.978,106.344z"/>
				<path fill="#FFFFFF" d="M73.803,101.078l-6.677-5.104l1.087-1.421l6.677,5.104L73.803,101.078z"/>
				<path fill="#FFFFFF" d="M77.076,96.903L71.8,92.562l-1.562,1.898l-1.217-1.001l4.261-5.178l1.217,1.001l-1.555,1.889l5.276,4.34
					L77.076,96.903z"/>
				<path fill="#FFFFFF" d="M82.042,91.101l-2.544-2.317l-5.845-0.959l1.376-1.509l3.888,0.729L77.83,83.24l1.366-1.5l1.507,5.72
					l2.545,2.317L82.042,91.101z"/>
				<path fill="#FFFFFF" d="M87.574,87.737l-0.889,0.097c0.129-0.438,0.078-1.141-0.166-1.522c-0.017,0.036-0.07,0.125-0.14,0.197
					c-0.335,0.342-0.87,0.346-1.248-0.024c-0.395-0.388-0.401-1.03-0.021-1.416c0.416-0.422,1.119-0.474,1.703,0.102
					C87.486,85.832,87.727,86.792,87.574,87.737z"/>
				<path fill="#FFFFFF" d="M95.821,77.61l-4.035-4.526l2.266,6.102l-0.583,0.521l-5.803-2.949l4.034,4.526l-1.335,1.191
					l-5.595-6.275l1.872-1.669l5.022,2.564l-1.974-5.282l1.882-1.678l5.594,6.275L95.821,77.61z"/>
				<path fill="#FFFFFF" d="M98.379,75.459l-5.214-6.591l4.665-3.689l0.977,1.235l-3.261,2.579l1.095,1.384l3.192-2.525l0.977,1.235
					l-3.192,2.525l1.189,1.502l3.26-2.579l0.977,1.234L98.379,75.459z"/>
				<path fill="#FFFFFF" d="M104.061,70.992l-4.856-6.86l2.705-1.915c2.15-1.521,4.609-1.209,6.065,0.848
					c1.47,2.077,0.939,4.49-1.199,6.004L104.061,70.992z M106.484,64.122c-0.852-1.204-2.256-1.616-3.653-0.625l-1.256,0.888
					l3.036,4.289l1.244-0.881C107.213,66.831,107.314,65.294,106.484,64.122z"/>
				<path fill="#FFFFFF" d="M111.435,65.884l-4.568-7.051l1.501-0.973l4.568,7.052L111.435,65.884z"/>
				<path fill="#FFFFFF" d="M111.761,60.631c-1.326-2.232-0.542-4.736,1.636-6.03c1.581-0.94,3.011-0.632,4.061-0.024l-0.935,1.436
					c-0.651-0.404-1.578-0.484-2.315-0.046c-1.322,0.785-1.676,2.359-0.865,3.725c0.812,1.365,2.364,1.806,3.686,1.021
					c0.737-0.438,1.11-1.29,1.065-2.055l1.701-0.147c0.026,1.202-0.374,2.627-1.955,3.567
					C115.662,63.37,113.081,62.851,111.761,60.631z"/>
				<path fill="#FFFFFF" d="M126.746,57.037l-1.127-1.018l-3.197,1.666l0.189,1.506l-1.798,0.938l-1.014-8.948l1.989-1.036
					l6.754,5.955L126.746,57.037z M121.621,52.249l0.51,3.812l2.325-1.211L121.621,52.249z"/>
				<path fill="#FFFFFF" d="M129.11,55.878l-3.516-7.634l1.637-0.753l2.855,6.202l3.228-1.486l0.659,1.432L129.11,55.878z"/>
				<path fill="#FFFFFF" d="M136.083,48.176c-0.917-2.43,0.293-4.758,2.664-5.652c1.722-0.649,3.076-0.096,4.005,0.686l-1.173,1.25
					c-0.57-0.512-1.469-0.753-2.271-0.451c-1.438,0.543-2.062,2.03-1.503,3.517c0.561,1.486,2.012,2.192,3.451,1.649
					c0.802-0.303,1.318-1.076,1.408-1.838l1.702,0.153c-0.186,1.188-0.828,2.521-2.55,3.17
					C139.445,51.555,136.994,50.593,136.083,48.176z"/>
				<path fill="#FFFFFF" d="M144.301,45.097c-0.75-2.417,0.482-4.697,2.91-5.451c2.418-0.75,4.724,0.433,5.473,2.851
					c0.749,2.417-0.481,4.697-2.9,5.447C147.356,48.698,145.051,47.514,144.301,45.097z M150.928,43.042
					c-0.467-1.504-1.767-2.339-3.247-1.881c-1.492,0.463-2.09,1.888-1.625,3.391c0.463,1.492,1.767,2.339,3.259,1.877
					C150.794,45.97,151.391,44.533,150.928,43.042z"/>
				<path fill="#FFFFFF" d="M154.182,45.224l0.614-1.595c0.725,0.455,1.745,0.746,2.87,0.465c0.966-0.241,1.311-0.782,1.192-1.259
					c-0.354-1.418-4.8,0.745-5.567-2.323c-0.339-1.357,0.553-2.774,2.472-3.254c1.296-0.324,2.47-0.201,3.463,0.342l-0.643,1.538
					c-0.812-0.446-1.762-0.508-2.594-0.3c-0.733,0.183-1.07,0.605-0.948,1.094c0.32,1.283,4.786-0.754,5.545,2.29
					c0.374,1.491-0.421,2.884-2.609,3.431C156.4,46.046,155.145,45.802,154.182,45.224z"/>
				<path fill="#FFFFFF" d="M164.163,44.091l-1.331-6.7l-2.411,0.479l-0.307-1.545l6.577-1.306l0.307,1.545L164.6,37.04l1.33,6.699
					L164.163,44.091z"/>
				<path fill="#FFFFFF" d="M168.617,42.007l0.767-1.528c0.676,0.523,1.665,0.913,2.81,0.742c0.986-0.146,1.382-0.65,1.309-1.137
					c-0.214-1.446-4.851,0.273-5.314-2.854c-0.206-1.384,0.821-2.708,2.777-2.999c1.321-0.195,2.478,0.041,3.413,0.68l-0.789,1.467
					c-0.766-0.523-1.705-0.677-2.553-0.551c-0.747,0.111-1.124,0.498-1.049,0.997c0.194,1.309,4.837-0.284,5.298,2.819
					c0.225,1.521-0.702,2.83-2.933,3.161C170.746,43.042,169.519,42.676,168.617,42.007z"/>
				<path fill="#FFFFFF" d="M177.539,43.716l-0.752-0.487c0.377-0.257,0.781-0.836,0.833-1.286
					c-0.036,0.017-0.133,0.053-0.234,0.064c-0.477,0.054-0.895-0.28-0.953-0.806c-0.062-0.552,0.337-1.053,0.877-1.114
					c0.588-0.066,1.167,0.338,1.258,1.153C178.674,42.179,178.253,43.077,177.539,43.716z"/>
			</g>
		</g>
	</g>
</g>
<g id="Layer_2">
	<g>
		<g>
			<path fill="#FFFFFF" d="M236.09,60.01l2.663-7.971l1.709,0.57l-2.165,6.477l3.371,1.126l-0.499,1.494L236.09,60.01z"/>
			<path fill="#FFFFFF" d="M247.626,64.206l0.031-1.519l-3.354-1.325l-1.016,1.13l-1.888-0.746l6.102-6.629l2.088,0.824
				l-0.077,9.011L247.626,64.206z M247.888,57.194l-2.548,2.883l2.438,0.963L247.888,57.194z"/>
			<path fill="#FFFFFF" d="M251.499,61.26c1.102-2.35,3.611-3.106,5.905-2.032c1.664,0.781,2.211,2.135,2.298,3.345l-1.712,0.032
				c-0.03-0.766-0.484-1.577-1.261-1.94c-1.392-0.652-2.893-0.062-3.565,1.375c-0.673,1.438-0.166,2.968,1.225,3.62
				c0.776,0.364,1.69,0.194,2.298-0.272l1.077,1.325c-0.98,0.695-2.384,1.164-4.048,0.384
				C251.424,66.023,250.404,63.598,251.499,61.26z"/>
			<path fill="#FFFFFF" d="M262.173,71.283l-0.623-4.186l-0.956,0.385l-1.234,2.271l-1.572-0.855l4.019-7.388l1.572,0.854
				l-1.79,3.29l4.403-1.868l1.938,1.054l-4.82,1.871l1.002,5.625L262.173,71.283z"/>
			<path fill="#FFFFFF" d="M269.407,70.606c1.396-2.113,3.942-2.604,6.065-1.2c2.113,1.397,2.656,3.932,1.259,6.045
				c-1.396,2.112-3.942,2.604-6.055,1.207C268.555,75.254,268.01,72.719,269.407,70.606z M275.197,74.436
				c0.87-1.314,0.691-2.851-0.601-3.705c-1.304-0.862-2.787-0.423-3.656,0.891c-0.861,1.303-0.692,2.85,0.611,3.712
				C272.846,76.188,274.335,75.739,275.197,74.436z"/>
			<path fill="#FFFFFF" d="M275.298,79.63l5.043-6.718l4.755,3.569l-0.945,1.259l-3.324-2.495l-1.059,1.41l3.253,2.442l-0.944,1.259
				l-3.253-2.442l-2.095,2.79L275.298,79.63z"/>
			<path fill="#FFFFFF" d="M283.41,85.928l5.559-6.299l3.315,2.925c1.199,1.058,1.139,2.365,0.396,3.206
				c-0.692,0.784-1.657,0.889-2.361,0.486c0.589,0.704,0.542,1.822-0.149,2.605c-0.842,0.954-2.132,1.159-3.341,0.093L283.41,85.928
				z M288.967,87.454c0.351-0.396,0.351-0.967-0.169-1.425l-1.738-1.534l-1.267,1.436l1.737,1.533
				C288.031,87.905,288.567,87.908,288.967,87.454z M291.104,84.787c0.342-0.387,0.3-0.911-0.154-1.312l-1.68-1.483l-1.168,1.322
				l1.682,1.483C290.235,85.198,290.745,85.193,291.104,84.787z"/>
			<path fill="#FFFFFF" d="M293.663,95.49l0.629-1.381l-2.554-2.54l-1.378,0.636l-1.437-1.43l8.218-3.671l1.588,1.581l-3.63,8.235
				L293.663,95.49z M296.674,89.161l-3.477,1.638l1.856,1.848L296.674,89.161z"/>
			<path fill="#FFFFFF" d="M296.023,96.212l1.697-0.201c-0.064,0.853,0.154,1.89,0.927,2.753c0.664,0.742,1.305,0.794,1.669,0.467
				c1.088-0.975-2.897-3.896-0.543-6.004c1.042-0.933,2.711-0.805,4.03,0.667c0.891,0.995,1.329,2.089,1.311,3.22l-1.657,0.15
				c0.016-0.927-0.373-1.795-0.945-2.433c-0.503-0.563-1.033-0.663-1.408-0.327c-0.985,0.882,2.898,3.877,0.563,5.97
				c-1.146,1.024-2.747,0.972-4.251-0.707C296.333,98.557,295.963,97.332,296.023,96.212z"/>
			<path fill="#FFFFFF" d="M300.454,103.039l6.477-5.36l1.141,1.379l-6.477,5.359L300.454,103.039z"/>
			<path fill="#FFFFFF" d="M305.725,102.769c2.068-1.568,4.643-1.069,6.172,0.95c1.111,1.466,0.965,2.921,0.479,4.032l-1.531-0.769
				c0.329-0.692,0.305-1.622-0.213-2.305c-0.928-1.225-2.531-1.401-3.797-0.442c-1.265,0.958-1.53,2.55-0.602,3.775
				c0.518,0.683,1.405,0.958,2.162,0.829l0.335,1.674c-1.191,0.159-2.652-0.078-3.763-1.544
				C303.439,106.95,303.665,104.329,305.725,102.769z"/>
			<path fill="#FFFFFF" d="M312.939,120.491l4.13-4.289l-5.675,1.793l-1-1.617l5.878-6.467l1.054,1.703l-4.387,4.448l6.004-1.835
				l0.736,1.189l-4.328,4.544l5.938-1.941l1.054,1.703l-8.403,2.386L312.939,120.491z"/>
			<path fill="#FFFFFF" d="M318.163,129.916l1.015-1.13l-1.673-3.19l-1.507,0.192l-0.941-1.796l8.945-1.034l1.041,1.986l-5.938,6.77
				L318.163,129.916z M322.938,124.781l-3.812,0.519l1.218,2.32L322.938,124.781z"/>
			<path fill="#FFFFFF" d="M320.159,134.093l6.221-2.823l-1.016-2.237l1.435-0.651l2.771,6.105l-1.436,0.65l-1.01-2.226l-6.22,2.822
				L320.159,134.093z"/>
			<path fill="#FFFFFF" d="M322.314,138.927l7.822-3.074l2.175,5.534l-1.465,0.576l-1.522-3.869l-1.641,0.645l1.489,3.788
				l-1.467,0.576l-1.488-3.787l-1.782,0.7l1.521,3.87l-1.466,0.576L322.314,138.927z"/>
			<path fill="#FFFFFF" d="M326.414,150.165l2.316-2.504l-0.41-1.244l-2.836,0.937l-0.561-1.699l7.979-2.636l1.233,3.732
				c0.549,1.663-0.2,3.052-1.683,3.542c-1.4,0.463-2.462-0.182-2.95-0.976l-2.441,2.811L326.414,150.165z M331.889,148.543
				c0.657-0.218,0.895-0.867,0.673-1.537l-0.593-1.795l-2.153,0.711l0.593,1.794C330.63,148.388,331.206,148.768,331.889,148.543z"
				/>
			<path fill="#FFFFFF" d="M329.621,161.96l1.262-0.849l-0.846-3.505l-1.51-0.181l-0.477-1.973l8.935,1.177l0.526,2.182
				l-7.414,5.122L329.621,161.96z M335.509,158.14l-3.824-0.426l0.614,2.549L335.509,158.14z"/>
			<path fill="#FFFFFF" d="M331.214,170.276l4.703-4.893l-5.396,0.948l-0.308-1.761l8.273-1.452l0.317,1.811l-4.525,4.746
				l5.197-0.913l0.31,1.762l-8.273,1.453L331.214,170.276z"/>
			<path fill="#FFFFFF" d="M331.716,173.467l8.358-0.905l0.356,3.295c0.284,2.619-1.187,4.617-3.691,4.888
				c-2.532,0.274-4.383-1.364-4.664-3.97L331.716,173.467z M336.542,178.929c1.466-0.159,2.509-1.185,2.324-2.889l-0.165-1.529
				l-5.226,0.566l0.164,1.517C333.819,178.248,335.113,179.083,336.542,178.929z"/>
		</g>
	</g>
	<g>
		<g>
			<path fill="#FFFFFF" d="M232.232,71.067l1.38-1.006c0.361,0.775,1.061,1.572,2.157,1.946c0.941,0.321,1.524,0.054,1.684-0.411
				c0.472-1.383-4.436-1.978-3.415-4.97c0.451-1.322,1.97-2.029,3.841-1.391c1.264,0.431,2.183,1.17,2.721,2.165l-1.372,0.943
				c-0.44-0.815-1.205-1.383-2.016-1.659c-0.716-0.244-1.227-0.071-1.389,0.405c-0.428,1.251,4.428,1.962,3.415,4.93
				c-0.495,1.455-1.919,2.193-4.053,1.465C233.648,72.96,232.728,72.074,232.232,71.067z"/>
			<path fill="#FFFFFF" d="M244.782,77.024l0.056-1.518l-3.329-1.377l-1.033,1.113l-1.873-0.775l6.203-6.526l2.072,0.857l-0.222,9
				L244.782,77.024z M245.157,70.022l-2.592,2.84l2.42,1.002L245.157,70.022z"/>
			<path fill="#FFFFFF" d="M252.41,80.672l-1.136-6.691l-2.449,4.902l-1.6-0.799l3.754-7.516l1.646,0.821l1.124,6.46l2.357-4.721
				l1.601,0.798l-3.754,7.516L252.41,80.672z"/>
			<path fill="#FFFFFF" d="M255.304,82.234l4.119-7.326l1.561,0.877l-4.119,7.326L255.304,82.234z"/>
			<path fill="#FFFFFF" d="M259.88,84.893l3.597-5.808l-2.09-1.293l0.83-1.34l5.7,3.53l-0.829,1.339l-2.079-1.287l-3.596,5.808
				L259.88,84.893z"/>
			<path fill="#FFFFFF" d="M269.056,91.04l0.393-1.466l-2.936-2.085l-1.255,0.854l-1.653-1.174l7.501-4.975l1.828,1.297
				l-2.224,8.723L269.056,91.04z M270.983,84.3l-3.159,2.189l2.136,1.516L270.983,84.3z"/>
			<path fill="#FFFFFF" d="M272.705,93.866l4.294-5.308l-1.908-1.545l0.989-1.224l5.211,4.215l-0.991,1.224L278.4,89.69
				l-4.296,5.308L272.705,93.866z"/>
			<path fill="#FFFFFF" d="M276.788,97.268l5.56-6.299l1.342,1.184l-5.56,6.299L276.788,97.268z"/>
			<path fill="#FFFFFF" d="M281.972,96.173c1.769-1.81,4.359-1.812,6.179-0.034c1.81,1.77,1.865,4.361,0.097,6.17
				c-1.771,1.81-4.362,1.812-6.171,0.042C280.257,100.574,280.201,97.983,281.972,96.173z M286.932,101.024
				c1.101-1.125,1.217-2.667,0.109-3.75c-1.116-1.091-2.655-0.941-3.756,0.185c-1.091,1.117-1.217,2.667-0.101,3.759
				C284.293,102.301,285.84,102.141,286.932,101.024z"/>
			<path fill="#FFFFFF" d="M289.887,110.458l1.456-6.632l-4.108,3.628l-1.185-1.341l6.3-5.563l1.217,1.379l-1.38,6.413l3.959-3.495
				l1.183,1.341l-6.299,5.563L289.887,110.458z"/>
			<path fill="#FFFFFF" d="M294.573,114.283l1.712-0.035c-0.148,0.844-0.031,1.898,0.655,2.834c0.59,0.803,1.221,0.918,1.617,0.627
				c1.18-0.866-2.508-4.165,0.044-6.037c1.128-0.828,2.78-0.538,3.95,1.058c0.791,1.078,1.122,2.211,0.994,3.337l-1.666-0.013
				c0.105-0.921-0.198-1.825-0.705-2.517c-0.447-0.61-0.966-0.761-1.373-0.463c-1.067,0.783,2.512,4.147-0.021,6.004
				c-1.239,0.91-2.831,0.701-4.166-1.118C294.652,116.648,294.403,115.393,294.573,114.283z"/>
			<path fill="#FFFFFF" d="M298.306,121.45l7.053-4.576l3.237,4.99l-1.322,0.857l-2.264-3.489l-1.48,0.96l2.217,3.416l-1.322,0.857
				l-2.216-3.415l-1.606,1.043l2.265,3.489l-1.322,0.858L298.306,121.45z"/>
			<path fill="#FFFFFF" d="M304.545,131.668l1.786-2.906l-0.645-1.141l-2.599,1.47l-0.881-1.557l7.313-4.137l1.936,3.421
				c0.861,1.524,0.396,3.031-0.963,3.8c-1.282,0.726-2.449,0.3-3.082-0.384l-1.849,3.231L304.545,131.668z M309.599,129.012
				c0.604-0.341,0.71-1.023,0.362-1.638l-0.931-1.645l-1.973,1.116l0.93,1.645C308.335,129.105,308.975,129.366,309.599,129.012z"/>
			<path fill="#FFFFFF" d="M307.12,136.609l6.159-6.573l0.882,1.826l-4.794,4.907l6.823-0.708l0.884,1.827l-8.978,0.741
				L307.12,136.609z"/>
			<path fill="#FFFFFF" d="M309.705,142.188l7.729-3.291l0.701,1.646l-7.73,3.291L309.705,142.188z"/>
			<path fill="#FFFFFF" d="M314.838,143.426c2.436-0.904,4.758,0.318,5.64,2.694c0.641,1.727,0.08,3.077-0.707,4.001l-1.244-1.179
				c0.515-0.568,0.76-1.466,0.463-2.27c-0.536-1.441-2.021-2.073-3.511-1.521s-2.203,2.001-1.667,3.443
				c0.298,0.804,1.069,1.324,1.83,1.418l-0.161,1.701c-1.188-0.191-2.518-0.84-3.158-2.566
				C311.439,146.772,312.415,144.326,314.838,143.426z"/>
			<path fill="#FFFFFF" d="M313.943,153.277l8.051-2.424l1.715,5.696l-1.509,0.455l-1.199-3.982l-1.689,0.508l1.174,3.898
				l-1.509,0.455l-1.173-3.898l-1.836,0.552l1.199,3.983l-1.508,0.454L313.943,153.277z"/>
			<path fill="#FFFFFF" d="M317.004,159.361l1.588,0.63c-0.462,0.719-0.763,1.736-0.494,2.863c0.231,0.968,0.768,1.318,1.247,1.204
				c1.421-0.34-0.696-4.806,2.378-5.541c1.359-0.324,2.769,0.582,3.228,2.505c0.311,1.298,0.176,2.47-0.378,3.457l-1.529-0.657
				c0.454-0.808,0.524-1.757,0.326-2.59c-0.176-0.735-0.594-1.075-1.084-0.958c-1.287,0.307,0.705,4.79-2.346,5.52
				c-1.494,0.357-2.879-0.452-3.402-2.644C316.159,161.57,316.416,160.318,317.004,159.361z"/>
		</g>
	</g>
	<g>
		<g>
			<path fill="#FFFFFF" d="M240.153,48.209l2.694-7.962l3.725,1.261c1.732,0.586,2.278,2.075,1.805,3.472
				c-0.468,1.384-1.819,2.231-3.538,1.649l-2.03-0.687l-0.961,2.841L240.153,48.209z M246.646,44.394
				c0.227-0.668-0.148-1.248-0.817-1.474l-1.791-0.606l-0.724,2.137l1.791,0.606C245.773,45.283,246.425,45.051,246.646,44.394z"/>
			<path fill="#FFFFFF" d="M248.683,46.671c0.949-2.349,3.347-3.337,5.708-2.384c2.349,0.949,3.386,3.326,2.438,5.675
				c-0.95,2.349-3.348,3.337-5.696,2.389C248.772,51.397,247.733,49.02,248.683,46.671z M255.122,49.273
				c0.59-1.461,0.11-2.932-1.326-3.513c-1.45-0.585-2.817,0.14-3.407,1.601c-0.586,1.449-0.111,2.932,1.338,3.518
				C253.165,51.459,254.536,50.722,255.122,49.273z"/>
			<path fill="#FFFFFF" d="M258.399,55.341l0.681-8.985l1.834,0.871l-0.662,6.83l4.875-4.83l1.833,0.871l-6.533,6.205
				L258.399,55.341z"/>
			<path fill="#FFFFFF" d="M263.929,58.035l4-7.388l5.228,2.83l-0.749,1.385l-3.656-1.979l-0.839,1.551l3.578,1.938l-0.751,1.384
				l-3.577-1.937l-0.911,1.684l3.655,1.979l-0.75,1.384L263.929,58.035z"/>
			<path fill="#FFFFFF" d="M274.34,63.982l0.144-3.408l-1.118-0.682l-1.554,2.549l-1.527-0.931l4.371-7.174l3.357,2.045
				c1.494,0.91,1.822,2.453,1.011,3.787c-0.768,1.258-1.993,1.455-2.879,1.166l-0.04,3.722L274.34,63.982z M277.459,59.201
				c0.36-0.592,0.121-1.239-0.481-1.606l-1.613-0.983l-1.179,1.936l1.612,0.983C276.4,59.898,277.085,59.814,277.459,59.201z"/>
			<path fill="#FFFFFF" d="M278.665,66.79l3.841-5.643l-2.028-1.382l0.886-1.302l5.538,3.771l-0.886,1.302l-2.021-1.375
				l-3.841,5.643L278.665,66.79z"/>
			<path fill="#FFFFFF" d="M284.895,71.21l2.076-2.741l0.426-5.902l1.627,1.232l-0.374,3.935l3.687-1.426l1.616,1.224l-5.556,2.016
				l-2.075,2.74L284.895,71.21z"/>
			<path fill="#FFFFFF" d="M288.741,76.413l-0.177-0.878c0.448,0.09,1.144-0.024,1.502-0.302c-0.038-0.015-0.132-0.059-0.21-0.123
				c-0.371-0.303-0.424-0.835-0.089-1.245c0.352-0.43,0.99-0.493,1.409-0.15c0.458,0.375,0.573,1.072,0.055,1.705
				C290.633,76.152,289.697,76.479,288.741,76.413z"/>
			<path fill="#FFFFFF" d="M294.241,78.812l5.596-6.273l1.337,1.191l-5.597,6.273L294.241,78.812z"/>
			<path fill="#FFFFFF" d="M300.935,85.07l0.937-6.723l-3.812,3.936l-1.285-1.245l5.848-6.034l1.321,1.279l-0.879,6.5l3.674-3.791
				l1.284,1.246l-5.848,6.033L300.935,85.07z"/>
			<path fill="#FFFFFF" d="M307.17,91.662l0.691-1.352l-2.436-2.654l-1.407,0.572l-1.371-1.494l8.378-3.297l1.518,1.652
				l-4.001,8.066L307.17,91.662z M310.467,85.474l-3.55,1.479l1.772,1.93L310.467,85.474z"/>
			<path fill="#FFFFFF" d="M308.96,93.667l6.51-5.323l2.1,2.567c1.667,2.04,1.526,4.517-0.425,6.113
				c-1.972,1.612-4.418,1.251-6.079-0.78L308.96,93.667z M315.987,95.608c1.143-0.934,1.455-2.363,0.37-3.691l-0.975-1.19
				l-4.07,3.329l0.966,1.181C313.332,96.525,314.874,96.519,315.987,95.608z"/>
			<path fill="#FFFFFF" d="M314.56,100.616l6.779-4.966l3.514,4.797l-1.271,0.931l-2.457-3.354l-1.423,1.043l2.405,3.282
				l-1.271,0.931l-2.405-3.283l-1.544,1.132l2.457,3.354l-1.271,0.931L314.56,100.616z"/>
			<path fill="#FFFFFF" d="M322.106,103.808c2.122-1.383,4.653-0.821,6.043,1.312c1.383,2.123,0.874,4.666-1.248,6.048
				c-0.993,0.646-2.087,0.862-3.092,0.705l-0.265,0.91l-1.535-0.488l0.282-0.997c-0.538-0.342-1.036-0.829-1.428-1.431
				C319.475,107.733,319.983,105.19,322.106,103.808z M322.785,109.652l0.405-1.363l1.536,0.489l-0.405,1.363
				c0.521-0.009,1.068-0.185,1.575-0.515c1.32-0.86,1.77-2.341,0.923-3.64c-0.854-1.31-2.389-1.497-3.708-0.637
				c-1.311,0.853-1.771,2.34-0.917,3.649C322.366,109.264,322.566,109.479,322.785,109.652z"/>
			<path fill="#FFFFFF" d="M326.885,112.776l4.387-2.487l0.895,1.579l-4.343,2.462c-1.02,0.578-1.386,1.568-0.746,2.698
				c0.641,1.129,1.672,1.313,2.691,0.734l4.343-2.461l0.901,1.59l-4.386,2.487c-1.81,1.026-3.669,0.661-4.931-1.566
				C324.434,115.585,325.075,113.802,326.885,112.776z"/>
			<path fill="#FFFFFF" d="M330.981,127.61l1.043-1.104l-1.594-3.231l-1.511,0.155l-0.897-1.819l8.968-0.812l0.992,2.011
				l-6.104,6.619L330.981,127.61z M335.883,122.595l-3.822,0.424l1.158,2.351L335.883,122.595z"/>
			<path fill="#FFFFFF" d="M332.889,131.835l6.276-2.7l-0.972-2.258l1.448-0.623l2.649,6.162l-1.447,0.622l-0.966-2.247l-6.277,2.7
				L332.889,131.835z"/>
			<path fill="#FFFFFF" d="M334.945,136.719l7.875-2.948l2.086,5.572l-1.476,0.553L341.973,136l-1.653,0.618l1.428,3.813
				l-1.477,0.552l-1.427-3.813l-1.795,0.672l1.459,3.896l-1.476,0.552L334.945,136.719z"/>
			<path fill="#FFFFFF" d="M340.068,152.047l3.399-0.988l-1.106-3.812l-3.4,0.988l-0.499-1.718l8.071-2.346l0.5,1.718l-3.172,0.921
				l1.107,3.812l3.171-0.922l0.503,1.73l-8.07,2.346L340.068,152.047z"/>
			<path fill="#FFFFFF" d="M341.469,157.552l3.354-0.771l4.116-4.258l0.458,1.99l-2.814,2.781l3.745,1.273l0.455,1.978l-5.56-2.02
				l-3.353,0.771L341.469,157.552z"/>
			<path fill="#FFFFFF" d="M346.775,161.97c2.621-0.448,4.625,1.253,5.041,3.688c0.294,1.713-0.391,2.942-1.266,3.731l-1.044-1.317
				c0.519-0.484,0.895-1.277,0.745-2.146c-0.259-1.515-1.601-2.41-3.165-2.142c-1.565,0.268-2.532,1.558-2.274,3.073
				c0.127,0.733,0.565,1.36,0.934,1.642l0.994-0.17l-0.374-2.186l1.54-0.263l0.675,3.949l-3.179,0.544
				c-1.089-0.683-1.898-1.759-2.154-3.249C342.832,164.689,344.169,162.416,346.775,161.97z"/>
			<path fill="#FFFFFF" d="M344.138,171.945l8.337-1.074l0.229,1.774l-8.336,1.074L344.138,171.945z"/>
			<path fill="#FFFFFF" d="M344.576,175.272l8.368-0.786l0.557,5.922l-1.569,0.147l-0.388-4.141l-1.757,0.165l0.38,4.053
				l-1.568,0.147l-0.38-4.053l-1.907,0.179l0.389,4.141l-1.568,0.147L344.576,175.272z"/>
			<path fill="#FFFFFF" d="M345.455,188.269l5.32-4.213l-5.475,0.21l-0.069-1.788l8.396-0.323l0.069,1.838l-5.124,4.092l5.274-0.203
				l0.069,1.788l-8.396,0.323L345.455,188.269z"/>
			<path fill="#FFFFFF" d="M345.516,191.55l8.406,0.126l-0.09,5.948l-1.575-0.023l0.062-4.159l-1.766-0.026l-0.06,4.071
				l-1.576-0.024l0.062-4.071l-1.916-0.029l-0.062,4.16l-1.576-0.024L345.516,191.55z"/>
			<path fill="#FFFFFF" d="M343.584,199.302l0.602-0.664c0.194,0.414,0.699,0.906,1.135,1.029c-0.011-0.039-0.031-0.141-0.026-0.241
				c0.024-0.478,0.422-0.837,0.95-0.81c0.555,0.027,0.984,0.504,0.957,1.045c-0.03,0.591-0.523,1.096-1.34,1.055
				C344.917,200.67,344.1,200.111,343.584,199.302z"/>
		</g>
	</g>
</g>
<g id="Layer_2_copy">
	<g>
		<g>
			<path fill="#FFFFFF" d="M193.135,332.973c-0.049-2.594,1.869-4.382,4.4-4.43c1.839-0.035,2.928,0.939,3.54,1.986l-1.521,0.784
				c-0.366-0.673-1.131-1.2-1.988-1.184c-1.536,0.029-2.622,1.221-2.592,2.808c0.03,1.587,1.161,2.737,2.697,2.708
				c0.856-0.017,1.602-0.572,1.941-1.259l1.55,0.714c-0.571,1.057-1.623,2.097-3.461,2.132
				C195.17,337.28,193.185,335.554,193.135,332.973z"/>
			<path fill="#FFFFFF" d="M201.852,332.793c-0.213-2.523,1.48-4.488,4.017-4.702c2.524-0.212,4.522,1.44,4.735,3.964
				c0.213,2.524-1.48,4.488-4.004,4.701C204.062,336.97,202.064,335.316,201.852,332.793z M208.77,332.209
				c-0.132-1.569-1.225-2.666-2.768-2.536c-1.557,0.132-2.45,1.396-2.317,2.966c0.131,1.557,1.224,2.666,2.78,2.535
				C208.01,335.043,208.902,333.767,208.77,332.209z"/>
			<path fill="#FFFFFF" d="M218.333,335.152l-4.786-4.814l0.826,5.418l-1.77,0.269l-1.265-8.308l1.819-0.276l4.643,4.633
				l-0.794-5.219l1.768-0.27l1.266,8.308L218.333,335.152z"/>
			<path fill="#FFFFFF" d="M223.876,334.107l-1.423-6.675l-2.402,0.512l-0.328-1.54l6.552-1.396l0.328,1.54l-2.389,0.509
				l1.423,6.675L223.876,334.107z"/>
			<path fill="#FFFFFF" d="M235.08,331.338l-0.889-1.234l-3.475,0.953l-0.135,1.513l-1.957,0.537l0.902-8.964l2.164-0.593
				l5.345,7.252L235.08,331.338z M231.082,325.572l-0.308,3.835l2.527-0.693L231.082,325.572z"/>
			<path fill="#FFFFFF" d="M245.058,328.04l-2.007-5.721l-0.229,6.505l-0.738,0.258l-4.241-4.935l2.006,5.719l-1.688,0.593
				l-2.783-7.931l2.367-0.831l3.665,4.283l0.187-5.635l2.379-0.834l2.783,7.932L245.058,328.04z"/>
			<path fill="#FFFFFF" d="M248.558,326.666l-3.186-7.776l1.655-0.679l3.186,7.776L248.558,326.666z"/>
			<path fill="#FFFFFF" d="M257.238,322.854l-5.939-3.289l2.305,4.974l-1.623,0.752l-3.534-7.625l1.669-0.773l5.752,3.153
				l-2.22-4.79l1.624-0.752l3.533,7.624L257.238,322.854z"/>
			<path fill="#FFFFFF" d="M265.718,318.431l-1.146-0.998l-3.165,1.724l0.217,1.504l-1.781,0.97l-1.177-8.929l1.971-1.072
				l6.862,5.832L265.718,318.431z M260.506,313.736l0.579,3.802l2.302-1.253L260.506,313.736z"/>
			<path fill="#FFFFFF" d="M270.082,315.848l-3.604-5.802l-2.087,1.297l-0.831-1.338l5.694-3.537l0.831,1.338l-2.076,1.29
				l3.604,5.801L270.082,315.848z"/>
			<path fill="#FFFFFF" d="M274.8,312.829l-4.706-6.961l1.481-1.003l4.707,6.962L274.8,312.829z"/>
			<path fill="#FFFFFF" d="M275.068,307.645c-1.515-2.028-1.117-4.59,0.922-6.112c2.028-1.515,4.597-1.171,6.112,0.857
				c1.515,2.028,1.117,4.59-0.911,6.105C279.153,310.018,276.584,309.673,275.068,307.645z M280.629,303.49
				c-0.942-1.261-2.447-1.614-3.688-0.687c-1.252,0.935-1.341,2.479-0.398,3.739c0.936,1.252,2.449,1.615,3.699,0.681
				C281.483,306.296,281.563,304.742,280.629,303.49z"/>
			<path fill="#FFFFFF" d="M290.265,300.928l-6.612-1.542l3.575,4.156l-1.357,1.166l-5.48-6.372l1.396-1.199l6.394,1.464
				l-3.441-4.003l1.356-1.167l5.48,6.372L290.265,300.928z"/>
			<path fill="#FFFFFF" d="M292.23,293.477c-1.815-1.763-1.826-4.354-0.055-6.18c1.763-1.816,4.354-1.881,6.171-0.118
				c1.815,1.764,1.827,4.355,0.063,6.171C296.639,295.176,294.047,295.24,292.23,293.477z M297.065,288.498
				c-1.131-1.097-2.673-1.207-3.752-0.096c-1.087,1.12-0.931,2.659,0.199,3.755c1.119,1.088,2.672,1.208,3.76,0.088
				C298.351,291.133,298.186,289.586,297.065,288.498z"/>
			<path fill="#FFFFFF" d="M302.372,288.925l-6.357-5.491l3.887-4.498l1.19,1.029l-2.717,3.145l1.335,1.152l2.659-3.078l1.191,1.029
				l-2.66,3.078l2.641,2.281L302.372,288.925z"/>
			<path fill="#FFFFFF" d="M310.466,279.026l-5.486-4.062l-1.461,1.974l-1.267-0.937l3.987-5.386l1.266,0.937l-1.455,1.964
				l5.488,4.062L310.466,279.026z"/>
			<path fill="#FFFFFF" d="M317,269.569l-2.969-1.934l-2.167,3.327l2.968,1.933l-0.977,1.5l-7.045-4.589l0.977-1.5l2.768,1.803
				l2.168-3.327l-2.769-1.803l0.984-1.51l7.046,4.589L317,269.569z"/>
			<path fill="#FFFFFF" d="M318.997,266.352l-7.299-4.16l2.944-5.166l1.367,0.78l-2.058,3.611l1.532,0.873l2.014-3.535l1.369,0.78
				l-2.016,3.534l1.664,0.948l2.059-3.611l1.368,0.78L318.997,266.352z"/>
		</g>
	</g>
	<g>
		<g>
			<path fill="#FFFFFF" d="M193.109,350.247l-0.092-8.408l5.95-0.066l0.018,1.576l-4.16,0.047l0.02,1.765l4.072-0.046l0.017,1.576
				l-4.072,0.045l0.021,1.916l4.16-0.046l0.017,1.575L193.109,350.247z"/>
			<path fill="#FFFFFF" d="M206.553,349.755l-4.355-5.205l0.359,5.467l-1.784,0.118l-0.55-8.384l1.834-0.119l4.229,5.01
				l-0.345-5.266l1.784-0.117l0.551,8.383L206.553,349.755z"/>
			<path fill="#FFFFFF" d="M212.591,349.16l-4.246-7.939l2.013-0.249l3.105,6.113l1.52-6.687l2.012-0.249l-2.18,8.735
				L212.591,349.16z"/>
			<path fill="#FFFFFF" d="M219.011,348.277l-1.354-8.294l1.766-0.289l1.354,8.294L219.011,348.277z"/>
			<path fill="#FFFFFF" d="M227.28,346.746l-2.213-2.598l-1.284,0.261l0.595,2.928l-1.754,0.355l-1.674-8.237l3.854-0.782
				c1.716-0.35,3.006,0.559,3.317,2.09c0.294,1.445-0.472,2.424-1.318,2.814l2.502,2.758L227.28,346.746z M226.316,341.117
				c-0.137-0.679-0.754-0.991-1.446-0.851l-1.852,0.377l0.452,2.223l1.852-0.377C226.014,342.349,226.459,341.821,226.316,341.117z"
				/>
			<path fill="#FFFFFF" d="M229.406,342.032c-0.646-2.447,0.682-4.673,3.142-5.321c2.446-0.646,4.698,0.636,5.345,3.084
				c0.646,2.447-0.682,4.672-3.13,5.317C232.304,345.762,230.052,344.48,229.406,342.032z M236.114,340.264
				c-0.4-1.522-1.665-2.413-3.162-2.019c-1.51,0.398-2.17,1.797-1.769,3.318c0.397,1.51,1.665,2.413,3.175,2.015
				C235.856,343.184,236.512,341.772,236.114,340.264z"/>
			<path fill="#FFFFFF" d="M246.028,341.542l-5.525-3.942l1.723,5.202l-1.698,0.562l-2.641-7.977l1.746-0.578l5.354,3.787
				l-1.659-5.012l1.698-0.562l2.641,7.977L246.028,341.542z"/>
			<path fill="#FFFFFF" d="M256.349,337.586l-2.275-5.62l0.079,6.509l-0.725,0.294l-4.472-4.73l2.274,5.619l-1.657,0.672
				l-3.156-7.793l2.325-0.94l3.865,4.105l-0.079-5.638l2.336-0.946l3.155,7.792L256.349,337.586z"/>
			<path fill="#FFFFFF" d="M259.834,336.056l-3.605-7.592l5.371-2.552l0.676,1.423l-3.756,1.784l0.757,1.593l3.676-1.746
				l0.677,1.423l-3.676,1.746l0.82,1.729l3.757-1.783l0.676,1.423L259.834,336.056z"/>
			<path fill="#FFFFFF" d="M271.811,329.973l-6.137-2.895l2.62,4.811l-1.57,0.855l-4.019-7.376l1.615-0.88l5.941,2.772l-2.523-4.634
				l1.569-0.855l4.019,7.376L271.811,329.973z"/>
			<path fill="#FFFFFF" d="M276.673,327.121l-3.587-5.811l-2.09,1.29l-0.828-1.34l5.704-3.52l0.827,1.34l-2.08,1.284l3.587,5.81
				L276.673,327.121z"/>
			<path fill="#FFFFFF" d="M284.163,322.261l-4.815-6.893l1.467-1.024l4.816,6.892L284.163,322.261z"/>
			<path fill="#FFFFFF" d="M291.807,316.656l-6.506-1.933l3.32,4.359l-1.424,1.083l-5.09-6.683l1.463-1.114l6.293,1.84l-3.196-4.197
				l1.423-1.084l5.09,6.684L291.807,316.656z"/>
			<path fill="#FFFFFF" d="M294.197,309.325c-1.736-1.932-1.455-4.54,0.43-6.234c1.369-1.23,2.832-1.205,3.98-0.813l-0.639,1.591
				c-0.717-0.271-1.643-0.169-2.279,0.404c-1.145,1.028-1.186,2.642-0.124,3.823c1.062,1.181,2.671,1.312,3.813,0.283
				c0.639-0.573,0.838-1.481,0.646-2.224l1.641-0.475c0.258,1.174,0.144,2.649-1.225,3.88
				C298.557,311.253,295.924,311.247,294.197,309.325z"/>
			<path fill="#FFFFFF" d="M300.685,303.479c-1.805-1.778-1.798-4.372-0.011-6.186c1.778-1.806,4.372-1.852,6.178-0.073
				c1.805,1.778,1.797,4.372,0.019,6.177C305.083,305.21,302.49,305.256,300.685,303.479z M305.56,298.53
				c-1.124-1.105-2.666-1.228-3.754-0.123c-1.098,1.113-0.952,2.654,0.172,3.761c1.112,1.096,2.665,1.228,3.761,0.114
				C306.827,301.178,306.673,299.628,305.56,298.53z"/>
			<path fill="#FFFFFF" d="M315.738,293.431l-4.588-3.958l3.04,5.751l-0.51,0.591l-6.135-2.164l4.588,3.957l-1.168,1.354
				l-6.361-5.487l1.637-1.897l5.31,1.885l-2.645-4.976l1.646-1.907l6.362,5.487L315.738,293.431z"/>
			<path fill="#FFFFFF" d="M322.574,284.595l-4.859-3.627l3.441,5.526l-0.467,0.626l-6.277-1.727l4.859,3.627l-1.072,1.435
				l-6.738-5.03l1.501-2.011l5.436,1.509l-2.992-4.781l1.509-2.021l6.738,5.03L322.574,284.595z"/>
			<path fill="#FFFFFF" d="M321.988,279.65l-4.242-2.726l0.981-1.527l4.2,2.698c0.985,0.634,2.032,0.497,2.734-0.596
				c0.701-1.093,0.383-2.091-0.603-2.725l-4.2-2.697l0.988-1.538l4.242,2.725c1.75,1.125,2.291,2.94,0.908,5.094
				C325.616,280.512,323.738,280.774,321.988,279.65z"/>
			<path fill="#FFFFFF" d="M332.818,268.392l-6.747,0.77l4.765,2.713l-0.887,1.555l-7.304-4.159l0.91-1.599l6.516-0.771
				l-4.589-2.613l0.886-1.555l7.306,4.16L332.818,268.392z"/>
			<path fill="#FFFFFF" d="M334.521,265.192l-7.471-3.854l0.82-1.591l7.472,3.854L334.521,265.192z"/>
			<path fill="#FFFFFF" d="M337.015,260.21l-6.176-2.914l-1.049,2.222l-1.426-0.672l2.861-6.062l1.424,0.673l-1.043,2.21
				l6.177,2.914L337.015,260.21z"/>
			<path fill="#FFFFFF" d="M339.34,255.114l-7.722-3.312l0.705-1.645l7.722,3.313L339.34,255.114z"/>
			<path fill="#FFFFFF" d="M340.783,251.757l-7.835-3.033l2.147-5.543l1.467,0.567l-1.5,3.877l1.645,0.636l1.468-3.794l1.469,0.568
				l-1.469,3.794l1.785,0.691l1.5-3.877l1.47,0.569L340.783,251.757z"/>
			<path fill="#FFFFFF" d="M342.18,244.827l-1.018-1.375c0.772-0.367,1.564-1.073,1.93-2.174c0.314-0.945,0.043-1.526-0.424-1.682
				c-1.387-0.461-1.944,4.454-4.946,3.456c-1.327-0.44-2.047-1.955-1.423-3.833c0.422-1.268,1.155-2.193,2.146-2.739l0.954,1.365
				c-0.813,0.447-1.374,1.218-1.645,2.03c-0.239,0.719-0.062,1.229,0.416,1.387c1.255,0.417,1.929-4.445,4.907-3.456
				c1.46,0.485,2.209,1.903,1.499,4.045C344.063,243.394,343.184,244.324,342.18,244.827z"/>
		</g>
	</g>
</g>
<g id="Layer_2_copy_2">
	<g>
		<g>
			<path fill="#FFFFFF" d="M44.291,212.286l8.303-1.277l0.903,5.876l-1.555,0.239l-0.632-4.108l-1.743,0.268l0.618,4.021
				l-1.555,0.24l-0.619-4.021l-1.893,0.291l0.632,4.107l-1.556,0.24L44.291,212.286z"/>
			<path fill="#FFFFFF" d="M46.616,225.184l2.577-2.688l-3.442-1.442l-0.436-2.083l4.841,2.101l3.421-3.637l0.436,2.083
				l-2.416,2.475l3.2,1.273l0.442,2.107l-4.581-1.962l-3.603,3.869L46.616,225.184z"/>
			<path fill="#FFFFFF" d="M47.348,228.359l8.113-2.18l1.02,3.796c0.474,1.764-0.46,3.046-1.884,3.428
				c-1.411,0.379-2.864-0.274-3.335-2.026l-0.556-2.067l-2.896,0.777L47.348,228.359z M54.124,231.639
				c0.68-0.183,0.954-0.816,0.771-1.498l-0.49-1.824l-2.178,0.585l0.49,1.824C52.901,231.406,53.455,231.819,54.124,231.639z"/>
			<path fill="#FFFFFF" d="M53.361,234.562c2.402-0.804,4.711,0.379,5.518,2.794c0.802,2.402-0.332,4.734-2.734,5.538
				c-2.404,0.802-4.712-0.38-5.514-2.782C49.823,237.696,50.957,235.364,53.361,234.562z M55.561,241.148
				c1.495-0.5,2.303-1.82,1.811-3.29c-0.495-1.482-1.934-2.052-3.428-1.552c-1.483,0.495-2.303,1.819-1.807,3.301
				C52.627,241.078,54.078,241.643,55.561,241.148z"/>
			<path fill="#FFFFFF" d="M53.634,244.733l1.663,0.393c-0.354,0.778-0.502,1.829-0.072,2.904c0.37,0.923,0.953,1.192,1.408,1.009
				c1.357-0.542-1.388-4.652,1.546-5.826c1.298-0.52,2.823,0.172,3.558,2.008c0.495,1.238,0.534,2.418,0.129,3.475l-1.608-0.428
				c0.331-0.865,0.263-1.814-0.055-2.609c-0.281-0.701-0.744-0.978-1.211-0.79c-1.228,0.491,1.395,4.636-1.517,5.801
				c-1.427,0.571-2.913-0.027-3.751-2.12C53.12,247.041,53.192,245.765,53.634,244.733z"/>
			<path fill="#FFFFFF" d="M58.754,251.586l4.565-2.135l0.768,1.644l-4.519,2.112c-1.062,0.497-1.503,1.454-0.955,2.63
				c0.55,1.176,1.563,1.438,2.625,0.942l4.52-2.112l0.773,1.654l-4.564,2.134c-1.883,0.881-3.708,0.371-4.791-1.945
				C56.093,254.193,56.871,252.467,58.754,251.586z"/>
			<path fill="#FFFFFF" d="M62.106,265.832l1.838-2.873l-0.625-1.152l-2.625,1.423l-0.853-1.572l7.385-4.006l1.875,3.455
				c0.835,1.539,0.344,3.038-1.029,3.782c-1.297,0.703-2.455,0.257-3.076-0.438l-1.905,3.197L62.106,265.832z M67.206,263.266
				c0.609-0.329,0.727-1.01,0.391-1.63l-0.901-1.661l-1.994,1.081l0.901,1.661C65.939,263.336,66.575,263.609,67.206,263.266z"/>
			<path fill="#FFFFFF" d="M63.893,268.992l7.164-4.394l3.109,5.069l-1.343,0.824l-2.173-3.545l-1.503,0.922l2.126,3.47
				l-1.342,0.823l-2.127-3.469l-1.633,1l2.173,3.545l-1.342,0.824L63.893,268.992z"/>
			<path fill="#FFFFFF" d="M70.935,279.844l5.551-3.984l-1.433-1.997l1.281-0.918l3.909,5.448l-1.28,0.919l-1.426-1.987
				l-5.552,3.983L70.935,279.844z"/>
			<path fill="#FFFFFF" d="M77.307,281.529c1.969-1.595,4.546-1.297,6.149,0.682c1.595,1.969,1.351,4.552-0.619,6.146
				s-4.545,1.297-6.14-0.672C75.093,285.707,75.338,283.125,77.307,281.529z M81.679,286.927c1.224-0.992,1.518-2.511,0.542-3.717
				c-0.984-1.214-2.531-1.241-3.756-0.25c-1.215,0.983-1.518,2.511-0.534,3.727C78.907,287.891,80.464,287.91,81.679,286.927z"/>
			<path fill="#FFFFFF" d="M82.842,294.58l6.162-5.719l1.217,1.312l-6.161,5.718L82.842,294.58z"/>
			<path fill="#FFFFFF" d="M89.467,301.377l0.999-6.713l-3.849,3.898l-1.273-1.257l5.902-5.978l1.309,1.292l-0.938,6.489
				l3.708-3.755l1.272,1.257l-5.902,5.977L89.467,301.377z"/>
			<path fill="#FFFFFF" d="M92.18,303.93l5.551-6.305l4.459,3.929l-1.04,1.181l-3.119-2.746l-1.165,1.323L99.919,304l-1.04,1.182
				l-3.054-2.688l-2.304,2.618L92.18,303.93z"/>
			<path fill="#FFFFFF" d="M97.822,308.836l5.231-6.581l4.657,3.702l-0.98,1.233l-3.255-2.589l-1.099,1.382l3.187,2.533
				l-0.979,1.233l-3.187-2.533l-1.192,1.499l3.255,2.589l-0.98,1.233L97.822,308.836z"/>
			<path fill="#FFFFFF" d="M105.916,309.899c1.5-2.118,4.106-2.42,6.173-0.956c1.502,1.062,1.801,2.495,1.673,3.701l-1.692-0.271
				c0.105-0.759-0.198-1.638-0.898-2.134c-1.255-0.889-2.838-0.573-3.755,0.724c-0.917,1.295-0.689,2.893,0.565,3.782
				c0.699,0.495,1.63,0.489,2.311,0.138l0.826,1.495c-1.089,0.512-2.553,0.726-4.054-0.337
				C104.998,314.576,104.422,312.008,105.916,309.899z"/>
			<path fill="#FFFFFF" d="M112.839,319.73l3.633-5.781l-2.079-1.307l0.837-1.333l5.673,3.566l-0.837,1.333l-2.069-1.301
				l-3.633,5.78L112.839,319.73z"/>
			<path fill="#FFFFFF" d="M117.6,322.644l4.207-7.272l1.549,0.896l-4.208,7.272L117.6,322.644z"/>
			<path fill="#FFFFFF" d="M122.38,320.621c1.171-2.245,3.652-2.996,5.907-1.819c2.245,1.172,3.047,3.637,1.876,5.881
				c-1.171,2.245-3.652,2.996-5.896,1.825C122.012,325.33,121.209,322.865,122.38,320.621z M128.534,323.832
				c0.729-1.396,0.394-2.906-0.979-3.623c-1.385-0.723-2.814-0.133-3.544,1.263c-0.722,1.385-0.394,2.905,0.991,3.629
				C126.375,325.816,127.811,325.217,128.534,323.832z"/>
			<path fill="#FFFFFF" d="M134.989,331.426l-1.444-6.631l-2.218,5.01l-1.635-0.724l3.4-7.682l1.681,0.744l1.423,6.401l2.136-4.826
				l1.635,0.724l-3.4,7.682L134.989,331.426z"/>
		</g>
	</g>
</g>
</svg>
