<?xml version="1.0" encoding="utf-8"?>
<!-- Generator: Adobe Illustrator 19.0.0, SVG Export Plug-In . SVG Version: 6.00 Build 0)  -->
<svg version="1.1" id="Layer_2" xmlns="http://www.w3.org/2000/svg" xmlns:xlink="http://www.w3.org/1999/xlink" x="0px" y="0px"
	 viewBox="0 0 623 442.3" style="enable-background:new 0 0 623 442.3;" xml:space="preserve">
<style type="text/css">
	.st0{fill:#E1E1E1;}
	.st1{fill:none;stroke:#FFFFFF;stroke-linejoin:round;stroke-miterlimit:10;}
	.st2{fill:#00848F;}
	.st3{fill-rule:evenodd;clip-rule:evenodd;fill:#363636;}
	.st4{fill:#FFFFFF;}
	.st5{fill:#363636;}
	.st6{fill:#131413;}
</style>
<rect x="92.3" y="9.9" class="st0" width="526.2" height="303"/>
<path class="st1" d="M86,9.7h536.9 M86,40.7h536.9 M86,70.7h536.9 M86,100.7h536.9 M86,130.7h536.9 M86,161.7h536.9 M86,191.7h536.9
	 M86,221.7h536.9 M86,252.7h536.9 M86,282.7h536.9"/>
<path class="st2" d="M573.1,138.7h45.4v174h-45.4V138.7z M512.9,163.7h46.3v149h-46.3V163.7z M452.7,157.7H499v155h-46.3V157.7z
	 M392.5,169.7h46.3v143h-46.3V169.7z M332.3,208.7h46.3v104h-46.3V208.7z M273,245.7h45.4v67H273V245.7z M212.8,270.7h46.3v42h-46.3
	V270.7z M152.6,303.7h46.3v9h-46.3V303.7z M92.4,308.7h46.3v4H92.4V308.7z"/>
<rect x="573.1" y="36.7" class="st3" width="45.4" height="102"/>
<g>
	<path class="st2" d="M109.8,303.7v-1.4c5-3.9,7.8-6.3,7.8-8.7c0-1.8-1.5-2.6-2.9-2.6c-1.7,0-3,0.7-3.8,1.8l-1.1-1.1
		c1.1-1.4,2.9-2.2,4.9-2.2c2.3,0,4.7,1.3,4.7,4.1c0,2.9-2.9,5.5-6.8,8.5h6.9v1.6H109.8z"/>
</g>
<g>
	<path class="st2" d="M171.9,290.8c0-3.8,1.8-7.2,5.7-7.2c1.8,0,3,0.7,3.9,1.7l-0.9,1.3c-0.7-0.8-1.5-1.4-3-1.4
		c-2.7,0-3.9,2.8-3.9,5.5c0,0.2,0,0.4,0,0.5c0.6-1,2.2-2.2,4-2.2c2.5,0,4.6,1.5,4.6,4.5c0,2.4-1.8,4.6-4.9,4.6
		C173.4,298,171.9,294.6,171.9,290.8z M180.5,293.5c0-2.1-1.4-3-3.2-3c-1.4,0-2.8,0.9-3.5,2.1c0.1,1.7,1.1,3.9,3.5,3.9
		C179.4,296.5,180.5,294.8,180.5,293.5z"/>
</g>
<g>
	<g>
		<path class="st4" d="M223.6,291.4V290c5-3.9,7.8-6.3,7.8-8.7c0-1.8-1.5-2.6-2.9-2.6c-1.7,0-3,0.7-3.8,1.8l-1.1-1.1
			c1.1-1.4,2.9-2.2,4.9-2.2c2.3,0,4.7,1.3,4.7,4.1c0,2.9-2.9,5.5-6.8,8.5h6.9v1.6H223.6z"/>
		<path class="st4" d="M235.9,287.9c0-1.9,1.6-3.1,3.3-3.7c-1.6-0.5-3.1-1.5-3.1-3.4c0-2.5,2.5-3.6,4.8-3.6c2.3,0,4.8,1.1,4.8,3.6
			c0,1.8-1.5,2.9-3.1,3.4c1.7,0.5,3.3,1.8,3.3,3.7c0,2.4-2.3,3.8-5,3.8C238.1,291.7,235.9,290.3,235.9,287.9z M244.2,287.7
			c0-1.8-2.4-2.6-3.3-2.7c-0.9,0.1-3.3,0.9-3.3,2.7c0,1.5,1.5,2.4,3.3,2.4C242.6,290.1,244.2,289.2,244.2,287.7z M244,281.1
			c0-1.4-1.4-2.3-3-2.3c-1.7,0-3,0.9-3,2.3c0,1.7,2.2,2.3,3,2.4C241.8,283.3,244,282.8,244,281.1z"/>
	</g>
</g>
<g>
	<g>
		<path class="st4" d="M289.4,268.8v-3.5h-6.7v-1.4l6-9h2.4v8.9h2v1.5h-2v3.5H289.4z M289.4,256.5l-4.9,7.3h4.9V256.5z"/>
		<path class="st4" d="M294.9,265.3c0-1.9,1.6-3.2,3.3-3.7c-1.6-0.5-3.1-1.5-3.1-3.4c0-2.5,2.5-3.6,4.8-3.6c2.3,0,4.8,1.1,4.8,3.6
			c0,1.8-1.5,2.9-3.1,3.4c1.7,0.5,3.3,1.8,3.3,3.7c0,2.4-2.3,3.8-5,3.8C297.2,269.1,294.9,267.7,294.9,265.3z M303.2,265.1
			c0-1.8-2.4-2.6-3.3-2.7c-0.9,0.1-3.3,0.9-3.3,2.7c0,1.5,1.5,2.4,3.3,2.4C301.7,267.5,303.2,266.6,303.2,265.1z M303,258.5
			c0-1.4-1.4-2.3-3-2.3c-1.7,0-3,0.9-3,2.3c0,1.7,2.2,2.3,3,2.4C300.8,260.8,303,260.2,303,258.5z"/>
	</g>
</g>
<g>
	<g>
		<path class="st4" d="M343.4,224.8c0-3.8,1.8-7.2,5.7-7.2c1.8,0,3,0.7,3.9,1.7l-0.9,1.3c-0.7-0.8-1.5-1.4-3-1.4
			c-2.7,0-3.9,2.8-3.9,5.5c0,0.2,0,0.4,0,0.5c0.6-1,2.2-2.2,4-2.2c2.5,0,4.6,1.5,4.6,4.5c0,2.4-1.8,4.6-4.9,4.6
			C344.9,232,343.4,228.6,343.4,224.8z M351.9,227.5c0-2.1-1.4-3-3.2-3c-1.4,0-2.8,0.9-3.5,2.1c0.1,1.7,1.1,3.9,3.5,3.9
			C350.9,230.5,351.9,228.8,351.9,227.5z"/>
		<path class="st4" d="M356.5,230.3l0.9-1.3c0.7,0.8,1.6,1.4,3,1.4c2.8,0,3.9-2.8,3.9-5.5c0-0.2,0-0.4,0-0.5c-0.6,1-2.2,2.2-3.9,2.2
			c-2.5,0-4.6-1.5-4.6-4.5c0-2.4,1.8-4.6,4.9-4.6c3.9,0,5.4,3.4,5.4,7.2c0,3.8-1.8,7.2-5.7,7.2C358.6,232,357.4,231.3,356.5,230.3z
			 M364.2,223c-0.2-1.7-1.1-3.9-3.5-3.9c-2.1,0-3.2,1.6-3.2,3c0,2.1,1.4,3,3.2,3C362.1,225.1,363.5,224.2,364.2,223z"/>
	</g>
</g>
<g>
	<g>
		<path class="st4" d="M404.4,192.2l0.9-1.3c0.7,0.8,1.6,1.4,3,1.4c2.8,0,3.9-2.8,3.9-5.5c0-0.2,0-0.4,0-0.5c-0.6,1-2.2,2.2-3.9,2.2
			c-2.5,0-4.6-1.5-4.6-4.5c0-2.4,1.8-4.6,4.9-4.6c3.9,0,5.4,3.4,5.4,7.2c0,3.8-1.8,7.2-5.7,7.2C406.5,193.8,405.3,193.1,404.4,192.2
			z M412.2,184.8c-0.2-1.7-1.1-3.9-3.5-3.9c-2.1,0-3.2,1.6-3.2,3c0,2.1,1.4,3,3.2,3C410,186.9,411.4,186,412.2,184.8z"/>
		<path class="st4" d="M422.4,193.6v-3.5h-6.7v-1.4l6-9h2.4v8.9h2v1.5h-2v3.5H422.4z M422.4,181.2l-4.9,7.3h4.9V181.2z"/>
	</g>
</g>
<g>
	<g>
		<path class="st4" d="M462.1,181.1v-11.7l-2.2,2.4l-1-1.1l3.5-3.6h1.5v14H462.1z"/>
		<path class="st4" d="M466.6,174.1c0-3.4,1.5-7.2,5.4-7.2c3.8,0,5.4,3.8,5.4,7.2c0,3.4-1.5,7.2-5.4,7.2
			C468.1,181.4,466.6,177.5,466.6,174.1z M475.5,174.1c0-2.8-0.9-5.7-3.6-5.7s-3.6,2.9-3.6,5.7s0.9,5.7,3.6,5.7
			S475.5,176.9,475.5,174.1z"/>
		<path class="st4" d="M479.5,181.1v-1.4c5-3.9,7.8-6.3,7.8-8.7c0-1.8-1.5-2.6-2.9-2.6c-1.7,0-3,0.7-3.8,1.8l-1.1-1.1
			c1.1-1.4,2.9-2.2,4.9-2.2c2.3,0,4.7,1.3,4.7,4.1c0,2.9-2.9,5.5-6.8,8.5h6.9v1.6H479.5z"/>
	</g>
</g>
<g>
	<g>
		<path class="st4" d="M524.4,186.1l0.9-1.3c0.7,0.8,1.6,1.4,3,1.4c2.8,0,3.9-2.8,3.9-5.5c0-0.2,0-0.4,0-0.5c-0.6,1-2.2,2.2-3.9,2.2
			c-2.5,0-4.6-1.5-4.6-4.5c0-2.4,1.8-4.6,4.9-4.6c3.9,0,5.4,3.4,5.4,7.2c0,3.8-1.8,7.2-5.7,7.2C526.5,187.7,525.3,187,524.4,186.1z
			 M532.2,178.7c-0.2-1.7-1.1-3.9-3.5-3.9c-2.1,0-3.2,1.6-3.2,3c0,2.1,1.4,3,3.2,3C530,180.8,531.4,180,532.2,178.7z"/>
		<path class="st4" d="M536.1,184c0-1.9,1.6-3.1,3.3-3.7c-1.6-0.5-3.1-1.5-3.1-3.4c0-2.5,2.5-3.6,4.8-3.6c2.3,0,4.8,1.1,4.8,3.6
			c0,1.8-1.5,2.9-3.1,3.4c1.7,0.5,3.3,1.8,3.3,3.7c0,2.4-2.3,3.8-5,3.8C538.4,187.8,536.1,186.4,536.1,184z M544.4,183.8
			c0-1.8-2.4-2.6-3.3-2.7c-0.9,0.1-3.3,0.9-3.3,2.7c0,1.5,1.5,2.4,3.3,2.4C542.9,186.2,544.4,185.3,544.4,183.8z M544.2,177.2
			c0-1.4-1.4-2.3-3-2.3c-1.7,0-3,0.9-3,2.3c0,1.7,2.2,2.3,3,2.4C542,179.4,544.2,178.9,544.2,177.2z"/>
	</g>
</g>
<g>
	<g>
		<path class="st4" d="M586.8,162.1v-11.7l-2.2,2.4l-1.1-1.1l3.5-3.6h1.5v14H586.8z"/>
		<path class="st4" d="M593.9,162.1v-11.7l-2.2,2.4l-1.1-1.1l3.5-3.6h1.5v14H593.9z"/>
		<path class="st4" d="M598.7,160.1l1.1-1.2c0.9,1.2,2.2,1.9,3.9,1.9c1.9,0,3.2-1.3,3.2-3c0-1.8-1.3-3-3.2-3c-1.2,0-2.3,0.4-3.2,1.3
			l-1.3-0.4v-7.5h8.6v1.6h-6.8v4.9c0.7-0.7,1.9-1.3,3.3-1.3c2.4,0,4.5,1.6,4.5,4.5c0,2.8-2.2,4.6-5,4.6
			C601.2,162.4,599.7,161.5,598.7,160.1z"/>
	</g>
</g>
<g>
	<g>
		<path class="st4" d="M585.8,50.7c0-3.8,1.8-7.2,5.7-7.2c1.8,0,3,0.7,3.9,1.7l-0.9,1.3c-0.7-0.8-1.5-1.4-3-1.4
			c-2.7,0-3.9,2.8-3.9,5.5c0,0.2,0,0.4,0,0.5c0.6-1,2.2-2.2,4-2.2c2.5,0,4.6,1.5,4.6,4.5c0,2.4-1.8,4.6-4.9,4.6
			C587.3,57.9,585.8,54.5,585.8,50.7z M594.3,53.4c0-2.1-1.4-3-3.2-3c-1.4,0-2.8,0.9-3.5,2.1c0.1,1.7,1.1,3.9,3.5,3.9
			C593.3,56.4,594.3,54.7,594.3,53.4z"/>
		<path class="st4" d="M599.7,57.7l5.6-12.5h-7.5v-1.6h9.6v1.2l-5.7,12.8H599.7z"/>
	</g>
</g>
<g>
	<g>
		<path class="st5" d="M56,288.9v-1.5c4.1-3.1,5.8-4.5,5.8-6.1c0-1.1-1-1.6-2-1.6c-1.2,0-2.2,0.5-2.9,1.3l-1.1-1.2
			c0.9-1.2,2.4-1.7,4-1.7c2.1,0,3.9,1.2,3.9,3.3c0,2-1.8,3.7-4.7,5.9h4.7v1.6H56z"/>
		<path class="st5" d="M65.4,283.6c0-2.7,1.3-5.5,4.3-5.5c3,0,4.3,2.8,4.3,5.5c0,2.7-1.3,5.5-4.3,5.5
			C66.6,289.1,65.4,286.2,65.4,283.6z M72,283.6c0-2-0.6-3.8-2.4-3.8c-1.7,0-2.4,1.8-2.4,3.8c0,2,0.6,3.9,2.4,3.9
			C71.4,287.4,72,285.6,72,283.6z"/>
	</g>
</g>
<g>
	<g>
		<path class="st5" d="M60.9,258.6v-2.4h-5.1v-1.5l4.4-6.8h2.6v6.6h1.4v1.6h-1.4v2.4H60.9z M60.9,249.6l-3.2,4.9h3.2V249.6z"/>
		<path class="st5" d="M65.4,253.3c0-2.7,1.3-5.5,4.3-5.5c3,0,4.3,2.8,4.3,5.5c0,2.7-1.3,5.5-4.3,5.5
			C66.6,258.8,65.4,255.9,65.4,253.3z M72,253.3c0-2-0.6-3.8-2.4-3.8c-1.7,0-2.4,1.8-2.4,3.8c0,2,0.6,3.9,2.4,3.9
			C71.4,257.1,72,255.3,72,253.3z"/>
	</g>
</g>
<g>
	<g>
		<path class="st5" d="M55.7,223c0-3.1,1.6-5.5,4.7-5.5c1.3,0,2.3,0.5,3.1,1.2l-0.9,1.4c-0.6-0.6-1.2-0.9-2.2-0.9
			c-1.8,0-2.8,1.6-2.8,3.5c0,0.1,0,0.2,0,0.3c0.5-0.7,1.6-1.5,2.9-1.5c1.9,0,3.6,1.2,3.6,3.5c0,2-1.6,3.6-3.9,3.6
			C57,228.5,55.7,226,55.7,223z M62.2,225c0-1.3-1-1.9-2.2-1.9c-0.9,0-1.8,0.5-2.3,1.2c0.1,1.2,0.7,2.5,2.4,2.5
			C61.4,226.8,62.2,225.8,62.2,225z"/>
		<path class="st5" d="M65.4,223c0-2.7,1.3-5.5,4.3-5.5c3,0,4.3,2.8,4.3,5.5c0,2.7-1.3,5.5-4.3,5.5C66.6,228.5,65.4,225.7,65.4,223z
			 M72,223c0-2-0.6-3.8-2.4-3.8c-1.7,0-2.4,1.8-2.4,3.8c0,2,0.6,3.9,2.4,3.9C71.4,226.8,72,225,72,223z"/>
	</g>
</g>
<g>
	<g>
		<path class="st5" d="M55.8,195.3c0-1.3,1.1-2.3,2.4-2.8c-1.2-0.4-2.2-1.2-2.2-2.5c0-2,2-2.8,3.9-2.8s3.9,0.8,3.9,2.8
			c0,1.3-1,2.1-2.2,2.5c1.3,0.4,2.4,1.4,2.4,2.8c0,1.9-1.9,2.9-4.1,2.9C57.7,198.2,55.8,197.2,55.8,195.3z M62.1,195
			c0-1.1-1.5-1.6-2.2-1.7c-0.7,0.1-2.2,0.6-2.2,1.7c0,0.9,1,1.5,2.2,1.5C61.1,196.6,62.1,196,62.1,195z M61.9,190.3
			c0-0.9-0.9-1.4-2-1.4s-2,0.5-2,1.4c0,1,1.4,1.4,2,1.5C60.6,191.7,61.9,191.3,61.9,190.3z"/>
		<path class="st5" d="M65.4,192.7c0-2.7,1.3-5.5,4.3-5.5c3,0,4.3,2.8,4.3,5.5c0,2.7-1.3,5.5-4.3,5.5
			C66.6,198.2,65.4,195.4,65.4,192.7z M72,192.7c0-2-0.6-3.8-2.4-3.8c-1.7,0-2.4,1.8-2.4,3.8c0,2,0.6,3.9,2.4,3.9
			C71.4,196.6,72,194.7,72,192.7z"/>
	</g>
</g>
<g>
	<g>
		<path class="st5" d="M51.8,167.7v-8.3l-1.7,1.8l-1.1-1.1l3.1-3.1h1.6v10.7H51.8z"/>
		<path class="st5" d="M55.5,162.4c0-2.7,1.3-5.5,4.3-5.5c3,0,4.3,2.8,4.3,5.5c0,2.7-1.3,5.5-4.3,5.5
			C56.8,167.9,55.5,165.1,55.5,162.4z M62.1,162.4c0-2-0.6-3.8-2.4-3.8c-1.7,0-2.4,1.8-2.4,3.8c0,2,0.6,3.9,2.4,3.9
			C61.5,166.3,62.1,164.4,62.1,162.4z"/>
		<path class="st5" d="M65.4,162.4c0-2.7,1.3-5.5,4.3-5.5c3,0,4.3,2.8,4.3,5.5c0,2.7-1.3,5.5-4.3,5.5
			C66.6,167.9,65.4,165.1,65.4,162.4z M72,162.4c0-2-0.6-3.8-2.4-3.8c-1.7,0-2.4,1.8-2.4,3.8c0,2,0.6,3.9,2.4,3.9
			C71.4,166.3,72,164.4,72,162.4z"/>
	</g>
</g>
<g>
	<g>
		<path class="st5" d="M52.2,137.4v-8.3l-1.7,1.8l-1.1-1.1l3.1-3.1H54v10.7H52.2z"/>
		<path class="st5" d="M56,137.4V136c4.1-3.1,5.8-4.5,5.8-6.1c0-1.1-1-1.6-2-1.6c-1.2,0-2.2,0.5-2.9,1.3l-1.1-1.2
			c0.9-1.2,2.4-1.7,4-1.7c2.1,0,3.9,1.2,3.9,3.3c0,2-1.8,3.7-4.7,5.9h4.7v1.6H56z"/>
		<path class="st5" d="M65.4,132.1c0-2.7,1.3-5.5,4.3-5.5c3,0,4.3,2.8,4.3,5.5c0,2.7-1.3,5.5-4.3,5.5
			C66.6,137.6,65.4,134.8,65.4,132.1z M72,132.1c0-2-0.6-3.8-2.4-3.8c-1.7,0-2.4,1.8-2.4,3.8c0,2,0.6,3.9,2.4,3.9
			C71.4,136,72,134.1,72,132.1z"/>
	</g>
</g>
<g>
	<g>
		<path class="st5" d="M52.4,107.2v-8.3l-1.7,1.8l-1.1-1.1l3.1-3.1h1.6v10.7H52.4z"/>
		<path class="st5" d="M60.9,107.2v-2.4h-5.1v-1.5l4.4-6.8h2.6v6.6h1.4v1.6h-1.4v2.4H60.9z M60.9,98.2l-3.2,4.9h3.2V98.2z"/>
		<path class="st5" d="M65.4,101.8c0-2.7,1.3-5.5,4.3-5.5c3,0,4.3,2.8,4.3,5.5c0,2.7-1.3,5.5-4.3,5.5
			C66.6,107.3,65.4,104.5,65.4,101.8z M72,101.8c0-2-0.6-3.8-2.4-3.8c-1.7,0-2.4,1.8-2.4,3.8c0,2,0.6,3.9,2.4,3.9
			C71.4,105.7,72,103.9,72,101.8z"/>
	</g>
</g>
<g>
	<g>
		<path class="st5" d="M52.1,76.9v-8.3l-1.7,1.8l-1.1-1.1l3.1-3.1h1.6v10.7H52.1z"/>
		<path class="st5" d="M55.7,71.5c0-3.1,1.6-5.5,4.7-5.5c1.3,0,2.3,0.5,3.1,1.2l-0.9,1.4c-0.6-0.6-1.2-0.9-2.2-0.9
			c-1.8,0-2.8,1.6-2.8,3.5c0,0.1,0,0.2,0,0.3c0.5-0.7,1.6-1.5,2.9-1.5c1.9,0,3.6,1.2,3.6,3.5c0,2-1.6,3.6-3.9,3.6
			C57,77.1,55.7,74.5,55.7,71.5z M62.2,73.5c0-1.3-1-1.9-2.2-1.9c-0.9,0-1.8,0.5-2.3,1.2c0.1,1.2,0.7,2.5,2.4,2.5
			C61.4,75.4,62.2,74.4,62.2,73.5z"/>
		<path class="st5" d="M65.4,71.5c0-2.7,1.3-5.5,4.3-5.5c3,0,4.3,2.8,4.3,5.5c0,2.7-1.3,5.5-4.3,5.5C66.6,77.1,65.4,74.2,65.4,71.5z
			 M72,71.5c0-2-0.6-3.8-2.4-3.8c-1.7,0-2.4,1.8-2.4,3.8c0,2,0.6,3.9,2.4,3.9C71.4,75.4,72,73.6,72,71.5z"/>
	</g>
</g>
<g>
	<g>
		<path class="st5" d="M52.1,46.6v-8.3l-1.7,1.8L49.3,39l3.1-3.1H54v10.7H52.1z"/>
		<path class="st5" d="M55.8,43.8c0-1.3,1.1-2.3,2.4-2.8C57,40.7,56,39.9,56,38.5c0-2,2-2.8,3.9-2.8s3.9,0.8,3.9,2.8
			c0,1.3-1,2.1-2.2,2.5c1.3,0.4,2.4,1.4,2.4,2.8c0,1.9-1.9,2.9-4.1,2.9C57.7,46.8,55.8,45.7,55.8,43.8z M62.1,43.6
			c0-1.1-1.5-1.6-2.2-1.7c-0.7,0.1-2.2,0.6-2.2,1.7c0,0.9,1,1.5,2.2,1.5C61.1,45.1,62.1,44.5,62.1,43.6z M61.9,38.8
			c0-0.9-0.9-1.4-2-1.4s-2,0.5-2,1.4c0,1,1.4,1.4,2,1.5C60.6,40.2,61.9,39.8,61.9,38.8z"/>
		<path class="st5" d="M65.4,41.2c0-2.7,1.3-5.5,4.3-5.5c3,0,4.3,2.8,4.3,5.5c0,2.7-1.3,5.5-4.3,5.5C66.6,46.8,65.4,43.9,65.4,41.2z
			 M72,41.2c0-2-0.6-3.8-2.4-3.8c-1.7,0-2.4,1.8-2.4,3.8c0,2,0.6,3.9,2.4,3.9C71.4,45.1,72,43.3,72,41.2z"/>
	</g>
</g>
<g>
	<g>
		<path class="st5" d="M46.1,16.3v-1.5c4.1-3.1,5.8-4.5,5.8-6.1c0-1.1-1-1.6-2-1.6c-1.2,0-2.2,0.5-2.9,1.3L46,7.2
			c0.9-1.2,2.4-1.7,4-1.7c2.1,0,3.9,1.2,3.9,3.3c0,2-1.8,3.7-4.7,5.9h4.7v1.6H46.1z"/>
		<path class="st5" d="M55.5,11c0-2.7,1.3-5.5,4.3-5.5c3,0,4.3,2.8,4.3,5.5c0,2.7-1.3,5.5-4.3,5.5C56.8,16.5,55.5,13.6,55.5,11z
			 M62.1,11c0-2-0.6-3.8-2.4-3.8c-1.7,0-2.4,1.8-2.4,3.8c0,2,0.6,3.9,2.4,3.9C61.5,14.8,62.1,13,62.1,11z"/>
		<path class="st5" d="M65.4,11c0-2.7,1.3-5.5,4.3-5.5c3,0,4.3,2.8,4.3,5.5c0,2.7-1.3,5.5-4.3,5.5C66.6,16.5,65.4,13.6,65.4,11z
			 M72,11c0-2-0.6-3.8-2.4-3.8c-1.7,0-2.4,1.8-2.4,3.8c0,2,0.6,3.9,2.4,3.9C71.4,14.8,72,13,72,11z"/>
	</g>
</g>
<g>
	<path class="st6" d="M129.6,60.1v-9.3h6.1v1h-5v3h4.9v1h-4.9v3.2h5v1H129.6z"/>
	<path class="st6" d="M142.1,60.1v-4.4c0-1.2-0.6-1.6-1.5-1.6c-0.8,0-1.6,0.5-2,1.1v4.9h-1.1v-6.8h1.1v1c0.5-0.6,1.4-1.1,2.4-1.1
		c1.4,0,2.1,0.7,2.1,2.2v4.7H142.1z"/>
	<path class="st6" d="M147.1,60.1l-2.8-6.8h1.1l2.2,5.5l2.3-5.5h1.1l-2.8,6.8H147.1z"/>
	<path class="st6" d="M152.6,52.3h-0.8l2.1-2h1.1L152.6,52.3z M152.2,60.1v-6.8h1.1v6.8H152.2z"/>
	<path class="st6" d="M154.9,56.7c0-2,1.3-3.5,3.3-3.5s3.3,1.6,3.3,3.5c0,2-1.3,3.6-3.3,3.6S154.9,58.7,154.9,56.7z M160.5,56.7
		c0-1.4-0.8-2.6-2.2-2.6c-1.4,0-2.2,1.2-2.2,2.6c0,1.4,0.8,2.6,2.2,2.6C159.7,59.4,160.5,58.1,160.5,56.7z"/>
	<path class="st6" d="M168,59.1v3.6h-1.1v-9.3h1.1v1c0.5-0.7,1.3-1.2,2.3-1.2c1.8,0,3,1.3,3,3.5c0,2.2-1.2,3.6-3,3.6
		C169.3,60.3,168.5,59.9,168,59.1z M172.2,56.7c0-1.5-0.8-2.6-2.2-2.6c-0.8,0-1.7,0.5-2,1.1v3.1c0.4,0.6,1.2,1.1,2,1.1
		C171.4,59.4,172.2,58.2,172.2,56.7z"/>
	<path class="st6" d="M174.9,60.1v-6.8h1.1v1.1c0.5-0.7,1.3-1.2,2.3-1.2v1.1c-0.1,0-0.3,0-0.4,0c-0.7,0-1.5,0.5-1.8,1.1v4.8H174.9z"
		/>
	<path class="st6" d="M179.2,56.7c0-2,1.3-3.5,3.3-3.5s3.3,1.6,3.3,3.5c0,2-1.3,3.6-3.3,3.6S179.2,58.7,179.2,56.7z M184.8,56.7
		c0-1.4-0.8-2.6-2.2-2.6c-1.4,0-2.2,1.2-2.2,2.6c0,1.4,0.8,2.6,2.2,2.6C184,59.4,184.8,58.1,184.8,56.7z"/>
	<path class="st6" d="M187.6,61.9l0.5-0.8c0.6,0.7,1.2,0.9,2.2,0.9c1.1,0,2.2-0.5,2.2-2v-1c-0.5,0.7-1.3,1.2-2.3,1.2
		c-1.8,0-3-1.3-3-3.5c0-2.2,1.2-3.5,3-3.5c0.9,0,1.7,0.4,2.3,1.2v-1h1.1V60c0,2.1-1.6,2.8-3.2,2.8C189.2,62.9,188.4,62.7,187.6,61.9
		z M192.5,58.2v-3c-0.4-0.6-1.2-1.1-2-1.1c-1.4,0-2.2,1.1-2.2,2.6c0,1.5,0.8,2.6,2.2,2.6C191.3,59.3,192.1,58.8,192.5,58.2z"/>
	<path class="st6" d="M195.6,60.1v-6.8h1.1v1.1c0.5-0.7,1.3-1.2,2.3-1.2v1.1c-0.1,0-0.3,0-0.4,0c-0.7,0-1.5,0.5-1.8,1.1v4.8H195.6z"
		/>
	<path class="st6" d="M204.5,60.1v-0.8c-0.5,0.6-1.3,0.9-2.2,0.9c-1.1,0-2.4-0.8-2.4-2.2c0-1.5,1.2-2.2,2.4-2.2
		c0.9,0,1.7,0.3,2.2,0.9v-1.2c0-0.9-0.7-1.4-1.7-1.4c-0.8,0-1.5,0.3-2.1,0.9l-0.5-0.7c0.7-0.8,1.6-1.1,2.7-1.1
		c1.4,0,2.6,0.6,2.6,2.3v4.7H204.5z M204.5,58.7v-1.3c-0.4-0.5-1.1-0.8-1.8-0.8c-1,0-1.7,0.6-1.7,1.5c0,0.9,0.7,1.5,1.7,1.5
		C203.4,59.5,204.1,59.3,204.5,58.7z"/>
	<path class="st6" d="M215.8,60.1v-4.6c0-0.9-0.4-1.4-1.2-1.4c-0.7,0-1.4,0.5-1.8,1v5h-1.1v-4.6c0-0.9-0.4-1.4-1.2-1.4
		c-0.7,0-1.4,0.5-1.8,1.1v4.9h-1.1v-6.8h1.1v1c0.3-0.4,1.2-1.1,2.2-1.1c1,0,1.6,0.6,1.8,1.3c0.4-0.6,1.3-1.3,2.3-1.3
		c1.2,0,1.9,0.7,1.9,2v4.9H215.8z"/>
	<path class="st6" d="M223.2,60.1v-0.8c-0.5,0.6-1.3,0.9-2.2,0.9c-1.1,0-2.4-0.8-2.4-2.2c0-1.5,1.2-2.2,2.4-2.2
		c0.9,0,1.7,0.3,2.2,0.9v-1.2c0-0.9-0.7-1.4-1.7-1.4c-0.8,0-1.5,0.3-2.1,0.9l-0.5-0.7c0.7-0.8,1.6-1.1,2.7-1.1
		c1.4,0,2.6,0.6,2.6,2.3v4.7H223.2z M223.2,58.7v-1.3c-0.4-0.5-1.1-0.8-1.8-0.8c-1,0-1.7,0.6-1.7,1.5c0,0.9,0.7,1.5,1.7,1.5
		C222.1,59.5,222.8,59.3,223.2,58.7z"/>
	<path class="st6" d="M231.2,60.1v-1c-0.5,0.7-1.3,1.2-2.3,1.2c-1.8,0-3-1.3-3-3.5c0-2.2,1.2-3.6,3-3.6c0.9,0,1.7,0.4,2.3,1.2v-3.6
		h1.1v9.3H231.2z M231.2,58.3v-3.1c-0.4-0.6-1.2-1.1-2-1.1c-1.4,0-2.2,1.1-2.2,2.6c0,1.5,0.8,2.6,2.2,2.6
		C230.1,59.4,230.9,58.9,231.2,58.3z"/>
	<path class="st6" d="M234,56.7c0-2,1.3-3.5,3.3-3.5s3.3,1.6,3.3,3.5c0,2-1.3,3.6-3.3,3.6S234,58.7,234,56.7z M239.6,56.7
		c0-1.4-0.8-2.6-2.2-2.6c-1.4,0-2.2,1.2-2.2,2.6c0,1.4,0.8,2.6,2.2,2.6C238.8,59.4,239.6,58.1,239.6,56.7z"/>
</g>
<g>
	<path class="st6" d="M129.1,90.3V81h6.1v1h-5v3h4.9v1h-4.9v3.2h5v1H129.1z"/>
	<path class="st6" d="M141.6,90.3v-4.4c0-1.2-0.6-1.6-1.5-1.6c-0.8,0-1.6,0.5-2,1.1v4.9H137v-6.8h1.1v1c0.5-0.6,1.4-1.1,2.4-1.1
		c1.4,0,2.1,0.7,2.1,2.2v4.7H141.6z"/>
	<path class="st6" d="M146.6,90.3l-2.8-6.8h1.1l2.2,5.5l2.3-5.5h1.1l-2.8,6.8H146.6z"/>
	<path class="st6" d="M152,82.5h-0.8l2.1-2h1.1L152,82.5z M151.6,90.3v-6.8h1.1v6.8H151.6z"/>
	<path class="st6" d="M154.4,86.9c0-2,1.3-3.5,3.3-3.5s3.3,1.6,3.3,3.5c0,2-1.3,3.6-3.3,3.6S154.4,88.9,154.4,86.9z M160,86.9
		c0-1.4-0.8-2.6-2.2-2.6c-1.4,0-2.2,1.2-2.2,2.6c0,1.4,0.8,2.6,2.2,2.6C159.2,89.6,160,88.3,160,86.9z"/>
	<path class="st6" d="M166.4,90.3v-6.8h1.1v1.1c0.5-0.7,1.3-1.2,2.3-1.2v1.1c-0.1,0-0.3,0-0.4,0c-0.7,0-1.5,0.5-1.8,1.1v4.8H166.4z"
		/>
	<path class="st6" d="M170.6,86.9c0-2,1.4-3.5,3.3-3.5c2,0,3.2,1.6,3.2,3.6v0.3h-5.5c0.1,1.3,1,2.3,2.4,2.3c0.8,0,1.6-0.3,2.1-0.9
		l0.5,0.7c-0.7,0.7-1.6,1.1-2.7,1.1C172.1,90.5,170.6,89.1,170.6,86.9z M174,84.3c-1.4,0-2.2,1.2-2.2,2.2h4.4
		C176.2,85.5,175.5,84.3,174,84.3z"/>
	<path class="st6" d="M183.2,90.3v-0.8c-0.5,0.6-1.3,0.9-2.2,0.9c-1.1,0-2.4-0.8-2.4-2.2c0-1.5,1.2-2.2,2.4-2.2
		c0.9,0,1.7,0.3,2.2,0.9v-1.2c0-0.9-0.7-1.4-1.7-1.4c-0.8,0-1.5,0.3-2.1,0.9l-0.5-0.7c0.7-0.8,1.6-1.1,2.7-1.1
		c1.4,0,2.6,0.6,2.6,2.3v4.7H183.2z M183.2,88.9v-1.3c-0.4-0.5-1.1-0.8-1.8-0.8c-1,0-1.7,0.6-1.7,1.5c0,0.9,0.7,1.5,1.7,1.5
		C182,89.7,182.7,89.5,183.2,88.9z"/>
	<path class="st6" d="M186.3,90.3V81h1.1v9.3H186.3z"/>
</g>
<rect x="104.2" y="46.2" class="st5" width="16.2" height="16.2"/>
<rect x="104.2" y="76.6" class="st2" width="16.2" height="16.2"/>
<g>
	<path class="st5" d="M16.7,283.4h-1.9l-9.4-6.8v6.8H3.3v-9.9h1.9l9.4,6.8v-7h2.1V283.4z"/>
	<path class="st5" d="M4.5,271.4c-0.7,0-1.3-0.6-1.3-1.3s0.6-1.3,1.3-1.3s1.3,0.6,1.3,1.3S5.2,271.4,4.5,271.4z M16.7,271.1H7V269
		h9.7V271.1z"/>
	<path class="st5" d="M14.4,265.9H8.8v1.6H7v-1.6H4.4v-2.1H7v-2h1.8v2h5.1c0.7,0,1.2-0.3,1.2-0.9c0-0.4-0.2-0.8-0.4-0.9l1.6-0.5
		c0.3,0.4,0.6,1,0.6,2C16.9,265,16,265.9,14.4,265.9z"/>
	<path class="st5" d="M16.7,253.4h-6.1c-1.5,0-2,0.8-2,1.9c0,1.1,0.6,2,1.3,2.5h6.8v2.1H3.3v-2.1h5c-0.8-0.6-1.5-1.9-1.5-3.4
		c0-2.1,1.1-3.1,3.1-3.1h6.8V253.4z"/>
	<path class="st5" d="M16.7,248.6H7v-2.1h1.4c-0.9-0.7-1.6-1.9-1.6-3.1h2.1c0,0.2-0.1,0.4-0.1,0.6c0,0.9,0.6,2.1,1.3,2.5h6.6V248.6z
		"/>
	<path class="st5" d="M11.8,242.2c-2.8,0-5.1-1.9-5.1-5c0-3.1,2.3-5,5.1-5c2.8,0,5.1,1.9,5.1,5C16.9,240.3,14.6,242.2,11.8,242.2z
		 M11.8,234.5c-1.7,0-3.2,1-3.2,2.8c0,1.8,1.5,2.8,3.2,2.8c1.7,0,3.2-1,3.2-2.8C15,235.4,13.5,234.5,11.8,234.5z"/>
	<path class="st5" d="M16.7,218.3h-6.3c-1,0-1.7,0.5-1.7,1.6c0,0.9,0.6,1.8,1.3,2.2h6.8v2.1h-6.3c-1,0-1.7,0.4-1.7,1.6
		c0,0.9,0.7,1.8,1.3,2.2h6.8v2.1H7V228h1.3c-0.6-0.4-1.5-1.7-1.5-3.2c0-1.4,0.7-2.3,1.8-2.6c-0.9-0.5-1.8-1.8-1.8-3.3
		c0-1.8,1-2.8,2.9-2.8h7V218.3z"/>
	<path class="st5" d="M16.7,207.5h-1.1c0.8,0.7,1.3,1.9,1.3,3.1c0,1.6-1.1,3.3-3.2,3.3c-2.2,0-3.2-1.8-3.2-3.3
		c0-1.3,0.4-2.4,1.2-3.1h-1.4c-1.1,0-1.8,0.9-1.8,2.3c0,1.1,0.4,2,1.2,2.9l-1.5,0.9c-1.1-1.1-1.6-2.5-1.6-4.1c0-2.2,0.9-4,3.5-4h6.4
		V207.5z M14.5,207.5H13c-0.7,0.5-1,1.4-1,2.3c0,1.2,0.7,2.1,1.7,2.1c1.1,0,1.7-0.9,1.7-2.1C15.5,208.9,15.1,208,14.5,207.5z"/>
	<path class="st5" d="M16.7,196.6l-3.6,2.5l3.6,2.5v2.4l-5-3.6L7,203.8v-2.4l3.3-2.3L7,196.8v-2.4l4.7,3.3l5-3.6V196.6z"/>
	<path class="st5" d="M11.6,189.2c0,2.3-1.9,4.2-4.2,4.2c-2.4,0-4.2-1.9-4.2-4.2c0-2.4,1.9-4.2,4.2-4.2
		C9.7,185,11.6,186.8,11.6,189.2z M3.7,189.2c0,2,1.6,3.6,3.6,3.6c2,0,3.6-1.6,3.6-3.6c0-2-1.6-3.6-3.6-3.6
		C5.3,185.6,3.7,187.2,3.7,189.2z M9.8,188l-1.9,1.3v0.9h1.9v0.7H4.9v-2c0-0.8,0.6-1.6,1.5-1.6c1.1,0,1.4,1,1.4,1.2l1.9-1.3V188z
		 M5.5,188.8v1.3h1.8v-1.3c0-0.4-0.4-0.9-0.9-0.9C5.9,188,5.5,188.4,5.5,188.8z"/>
	<path class="st5" d="M11.8,178.3c-2.8,0-5.1-2-5.1-4.9c0-2.9,2.2-4.7,5.2-4.7h0.5v7.4c1.4-0.2,2.7-1.2,2.7-3.1c0-1-0.4-2.1-1.1-2.8
		l1.4-1c0.9,1,1.4,2.4,1.4,3.9C16.9,176.2,14.9,178.3,11.8,178.3z M8.5,173.4c0,1.8,1.4,2.6,2.5,2.7v-5.4
		C9.9,170.8,8.5,171.5,8.5,173.4z"/>
	<path class="st5" d="M16.7,160.1h-6c-1.5,0-2,0.8-2,2c0,1.1,0.6,2,1.3,2.5h6.8v2.1H7v-2.1h1.3c-0.8-0.6-1.5-1.9-1.5-3.4
		c0-2.1,1.1-3.1,3.1-3.1h6.8V160.1z"/>
	<path class="st5" d="M16.7,152.7L7,156.6v-2.3l7.2-2.8L7,148.7v-2.2l9.7,3.9V152.7z"/>
	<path class="st5" d="M4.5,145.4c-0.7,0-1.3-0.6-1.3-1.3s0.6-1.3,1.3-1.3s1.3,0.6,1.3,1.3S5.2,145.4,4.5,145.4z M16.7,145.2H7v-2.1
		h9.7V145.2z"/>
	<path class="st5" d="M16.7,134.4h-1.1c0.8,0.7,1.3,1.9,1.3,3.1c0,1.6-1.1,3.3-3.2,3.3c-2.2,0-3.2-1.8-3.2-3.3
		c0-1.3,0.4-2.4,1.2-3.1h-1.4c-1.1,0-1.8,0.9-1.8,2.3c0,1.1,0.4,2,1.2,2.9l-1.5,0.9c-1.1-1.1-1.6-2.5-1.6-4.1c0-2.2,0.9-4,3.5-4h6.4
		V134.4z M14.5,134.4H13c-0.7,0.5-1,1.4-1,2.3c0,1.2,0.7,2.1,1.7,2.1c1.1,0,1.7-0.9,1.7-2.1C15.5,135.8,15.1,134.9,14.5,134.4z"/>
	<path class="st5" d="M16.7,122.8h-1.3c1,0.7,1.6,1.8,1.6,3.1c0,2.5-1.9,4.3-5.1,4.3c-3.1,0-5.1-1.8-5.1-4.3c0-1.2,0.5-2.3,1.6-3.1
		h-5v-2.1h13.3V122.8z M13.7,122.8H9.9c-0.7,0.5-1.3,1.5-1.3,2.5c0,1.7,1.3,2.7,3.2,2.7c1.9,0,3.2-1.1,3.2-2.7
		C15,124.3,14.5,123.3,13.7,122.8z"/>
	<path class="st5" d="M11.8,118.6c-2.8,0-5.1-1.9-5.1-5s2.3-5,5.1-5c2.8,0,5.1,1.9,5.1,5S14.6,118.6,11.8,118.6z M11.8,110.8
		c-1.7,0-3.2,1-3.2,2.8c0,1.8,1.5,2.8,3.2,2.8c1.7,0,3.2-1,3.2-2.8C15,111.8,13.5,110.8,11.8,110.8z"/>
	<path class="st5" d="M20.7,98.8c-2.3,1.9-5.6,3-8.8,3s-6.5-1.1-8.8-3l1-1.3c2.5,1.3,4.7,2.1,7.9,2.1c3.1,0,5.4-0.7,7.8-2.1
		L20.7,98.8z"/>
	<path class="st5" d="M16.7,84h-6.3c-1,0-1.7,0.5-1.7,1.6c0,0.9,0.6,1.8,1.3,2.2h6.8v2.1h-6.3c-1,0-1.7,0.4-1.7,1.6
		c0,0.9,0.7,1.8,1.3,2.2h6.8v2.1H7v-2.1h1.3c-0.6-0.4-1.5-1.7-1.5-3.2c0-1.4,0.7-2.3,1.8-2.6c-0.9-0.5-1.8-1.8-1.8-3.3
		c0-1.8,1-2.8,2.9-2.8h7V84z"/>
	<path class="st5" d="M4.5,79.4c-0.7,0-1.3-0.6-1.3-1.3s0.6-1.3,1.3-1.3s1.3,0.6,1.3,1.3S5.2,79.4,4.5,79.4z M16.7,79.2H7v-2.1h9.7
		V79.2z"/>
	<path class="st5" d="M16.7,74.3H3.3v-2.1h13.3V74.3z"/>
	<path class="st5" d="M16.7,69.5H3.3v-2.1h13.3V69.5z"/>
	<path class="st5" d="M11.8,65.3c-2.8,0-5.1-1.9-5.1-5s2.3-5,5.1-5c2.8,0,5.1,1.9,5.1,5S14.6,65.3,11.8,65.3z M11.8,57.5
		c-1.7,0-3.2,1-3.2,2.8c0,1.8,1.5,2.8,3.2,2.8c1.7,0,3.2-1,3.2-2.8C15,58.5,13.5,57.5,11.8,57.5z"/>
	<path class="st5" d="M16.7,46.7h-6c-1.5,0-2,0.8-2,2c0,1.1,0.6,2,1.3,2.5h6.8v2.1H7v-2.1h1.3c-0.8-0.6-1.5-1.9-1.5-3.4
		c0-2.1,1.1-3.1,3.1-3.1h6.8V46.7z"/>
	<path class="st5" d="M11.8,42.4c-2.8,0-5.1-2-5.1-4.9c0-2.9,2.2-4.7,5.2-4.7h0.5v7.4c1.4-0.2,2.7-1.2,2.7-3.1c0-1-0.4-2.1-1.1-2.8
		l1.4-1c0.9,1,1.4,2.4,1.4,3.9C16.9,40.3,14.9,42.4,11.8,42.4z M8.5,37.6c0,1.8,1.4,2.6,2.5,2.7v-5.4C9.9,34.9,8.5,35.7,8.5,37.6z"
		/>
	<path class="st5" d="M15.4,31.5l-1.5-1c0.7-0.7,1.3-2,1.3-3.3c0-1.3-0.5-1.9-1.3-1.9c-1.9,0-0.5,5.8-4.3,5.8
		c-1.6,0-2.9-1.4-2.9-3.8c0-1.6,0.6-2.9,1.3-3.7l1.5,0.9c-0.6,0.6-1.2,1.6-1.2,2.9c0,1.1,0.5,1.8,1.2,1.8c1.7,0,0.4-5.8,4.3-5.8
		c1.7,0,3,1.4,3,4C16.9,29.1,16.4,30.5,15.4,31.5z"/>
	<path class="st5" d="M19.7,22.3c-2.5-1.3-4.7-2-7.8-2c-3.2,0-5.4,0.7-7.9,2L3,21c2.3-1.9,5.6-3,8.8-3s6.5,1.1,8.8,3L19.7,22.3z"/>
</g>
<g>
	<g>
		<path class="st5" d="M4.5,432.5v-8h5.2v0.9H5.5v2.6h4.2v0.9H5.5v3.6H4.5z"/>
		<path class="st5" d="M15,432.5v-0.8c-0.4,0.5-1.2,1-2.1,1c-1.2,0-1.8-0.6-1.8-1.8v-4.1h0.9v3.8c0,1,0.5,1.3,1.3,1.3
			c0.7,0,1.4-0.4,1.7-0.9v-4.3h0.9v5.8H15z"/>
		<path class="st5" d="M17.3,429.6c0-1.7,1.2-3,2.9-3c1.8,0,2.8,1.4,2.8,3.1v0.2h-4.7c0.1,1.1,0.8,2,2.1,2c0.7,0,1.3-0.3,1.8-0.7
			l0.4,0.6c-0.6,0.6-1.4,0.9-2.3,0.9C18.6,432.6,17.3,431.4,17.3,429.6z M20.2,427.3c-1.2,0-1.8,1-1.9,1.9h3.8
			C22.1,428.4,21.5,427.3,20.2,427.3z"/>
		<path class="st5" d="M28.3,432.5v-3.8c0-1-0.5-1.3-1.3-1.3c-0.7,0-1.4,0.4-1.7,0.9v4.2h-0.9v-5.8h0.9v0.8c0.4-0.5,1.2-1,2.1-1
			c1.2,0,1.8,0.6,1.8,1.9v4.1H28.3z"/>
		<path class="st5" d="M31.2,431.3v-3.8h-1v-0.8h1v-1.6h0.9v1.6h1.2v0.8h-1.2v3.6c0,0.4,0.2,0.7,0.6,0.7c0.3,0,0.5-0.1,0.6-0.3
			l0.3,0.7c-0.2,0.2-0.6,0.4-1.1,0.4C31.7,432.6,31.2,432.1,31.2,431.3z"/>
		<path class="st5" d="M34.2,429.6c0-1.7,1.2-3,2.9-3c1.8,0,2.8,1.4,2.8,3.1v0.2h-4.7c0.1,1.1,0.8,2,2.1,2c0.7,0,1.3-0.3,1.8-0.7
			l0.4,0.6c-0.6,0.6-1.4,0.9-2.3,0.9C35.5,432.6,34.2,431.4,34.2,429.6z M37.1,427.3c-1.2,0-1.8,1-1.9,1.9H39
			C39,428.4,38.4,427.3,37.1,427.3z"/>
		<path class="st5" d="M41.1,427.3c0-0.4,0.3-0.7,0.7-0.7s0.7,0.3,0.7,0.7c0,0.3-0.3,0.7-0.7,0.7S41.1,427.6,41.1,427.3z
			 M41.1,431.9c0-0.4,0.3-0.7,0.7-0.7s0.7,0.3,0.7,0.7c0,0.4-0.3,0.7-0.7,0.7S41.1,432.3,41.1,431.9z"/>
		<path class="st5" d="M47.2,432.5v-8h1v8H47.2z"/>
		<path class="st5" d="M52,432.5v-7.1h-2.5v-0.9h6.1v0.9H53v7.1H52z"/>
		<path class="st5" d="M56.9,432.5v-8h1v8H56.9z"/>
		<path class="st5" d="M59.9,434l-0.5-0.4c0.4-0.3,0.7-0.7,0.8-1.1c0,0-0.1,0-0.2,0c-0.3,0-0.6-0.3-0.6-0.6s0.3-0.6,0.6-0.6
			c0.4,0,0.8,0.3,0.8,0.9C60.9,432.9,60.5,433.6,59.9,434z"/>
		<path class="st5" d="M69.2,432.5v-0.7c-0.5,0.5-1.1,0.8-1.9,0.8c-1,0-2-0.7-2-1.9c0-1.3,1-1.9,2-1.9c0.8,0,1.5,0.3,1.9,0.8v-1
			c0-0.8-0.6-1.2-1.5-1.2c-0.7,0-1.3,0.2-1.8,0.8l-0.4-0.6c0.6-0.6,1.4-1,2.3-1c1.2,0,2.2,0.6,2.2,2v4H69.2z M69.2,431.3v-1.1
			c-0.3-0.5-1-0.7-1.6-0.7c-0.9,0-1.4,0.5-1.4,1.3c0,0.7,0.6,1.3,1.4,1.3C68.2,432,68.9,431.7,69.2,431.3z"/>
		<path class="st5" d="M71.9,432.5v-8h0.9v8H71.9z"/>
		<path class="st5" d="M77.5,432.5v-0.8c2.9-2.3,4.4-3.6,4.4-5c0-1-0.9-1.5-1.7-1.5c-1,0-1.7,0.4-2.2,1l-0.6-0.6
			c0.6-0.8,1.7-1.3,2.8-1.3c1.3,0,2.7,0.8,2.7,2.4c0,1.6-1.7,3.1-3.9,4.9H83v0.9H77.5z"/>
		<path class="st5" d="M86,432.5v-6.7l-1.3,1.4l-0.6-0.6l2-2.1H87v8H86z"/>
		<path class="st5" d="M96.1,432.5v-0.9c-0.4,0.6-1.1,1-2,1c-1.5,0-2.6-1.2-2.6-3c0-1.9,1.1-3,2.6-3c0.8,0,1.5,0.4,2,1v-3.1H97v8
			H96.1z M96.1,430.9v-2.6c-0.3-0.5-1-0.9-1.7-0.9c-1.2,0-1.9,1-1.9,2.2s0.7,2.2,1.9,2.2C95.1,431.8,95.8,431.4,96.1,430.9z"/>
		<path class="st5" d="M98.5,429.6c0-1.7,1.2-3,2.9-3c1.8,0,2.8,1.4,2.8,3.1v0.2h-4.7c0.1,1.1,0.8,2,2.1,2c0.7,0,1.3-0.3,1.8-0.7
			l0.4,0.6c-0.6,0.6-1.4,0.9-2.3,0.9C99.8,432.6,98.5,431.4,98.5,429.6z M101.4,427.3c-1.2,0-1.8,1-1.9,1.9h3.8
			C103.3,428.4,102.7,427.3,101.4,427.3z"/>
		<path class="st5" d="M106.6,434.4l0.3-0.7c0.2,0.2,0.5,0.4,0.8,0.4c0.5,0,0.9-0.3,0.9-1v-6.4h0.9v6.4c0,1.1-0.6,1.8-1.7,1.8
			C107.3,434.8,107,434.7,106.6,434.4z M108.6,425.3c0-0.3,0.3-0.6,0.6-0.6c0.3,0,0.6,0.3,0.6,0.6s-0.3,0.6-0.6,0.6
			C108.8,425.9,108.6,425.6,108.6,425.3z"/>
		<path class="st5" d="M115.3,432.5v-0.8c-0.4,0.5-1.2,1-2.1,1c-1.2,0-1.8-0.6-1.8-1.8v-4.1h0.9v3.8c0,1,0.5,1.3,1.3,1.3
			c0.7,0,1.4-0.4,1.7-0.9v-4.3h0.9v5.8H115.3z"/>
		<path class="st5" d="M121.9,432.5v-3.8c0-1-0.5-1.3-1.3-1.3c-0.7,0-1.4,0.4-1.7,0.9v4.2H118v-5.8h0.9v0.8c0.4-0.5,1.2-1,2.1-1
			c1.2,0,1.8,0.6,1.8,1.9v4.1H121.9z"/>
		<path class="st5" d="M124.5,425.3c0-0.3,0.3-0.6,0.6-0.6c0.3,0,0.6,0.3,0.6,0.6s-0.3,0.6-0.6,0.6
			C124.8,425.9,124.5,425.6,124.5,425.3z M124.7,432.5v-5.8h0.9v5.8H124.7z"/>
		<path class="st5" d="M127,429.6c0-1.7,1.1-3,2.9-3s2.9,1.4,2.9,3s-1.1,3-2.9,3S127,431.3,127,429.6z M131.8,429.6
			c0-1.2-0.7-2.2-1.9-2.2s-1.9,1.1-1.9,2.2c0,1.2,0.7,2.2,1.9,2.2S131.8,430.8,131.8,429.6z"/>
		<path class="st5" d="M141.5,432.5v-0.9c-0.4,0.6-1.1,1-2,1c-1.5,0-2.6-1.2-2.6-3c0-1.9,1.1-3,2.6-3c0.8,0,1.5,0.4,2,1v-3.1h0.9v8
			H141.5z M141.5,430.9v-2.6c-0.3-0.5-1-0.9-1.7-0.9c-1.2,0-1.9,1-1.9,2.2s0.7,2.2,1.9,2.2C140.5,431.8,141.2,431.4,141.5,430.9z"/>
		<path class="st5" d="M143.9,429.6c0-1.7,1.2-3,2.9-3c1.8,0,2.8,1.4,2.8,3.1v0.2h-4.7c0.1,1.1,0.8,2,2.1,2c0.7,0,1.3-0.3,1.8-0.7
			l0.4,0.6c-0.6,0.6-1.4,0.9-2.3,0.9C145.1,432.6,143.9,431.4,143.9,429.6z M146.7,427.3c-1.2,0-1.8,1-1.9,1.9h3.8
			C148.6,428.4,148,427.3,146.7,427.3z"/>
		<path class="st5" d="M153.8,432.5v-0.8c2.9-2.3,4.5-3.6,4.5-5c0-1-0.9-1.5-1.7-1.5c-1,0-1.7,0.4-2.2,1l-0.6-0.6
			c0.6-0.8,1.7-1.3,2.8-1.3c1.3,0,2.7,0.8,2.7,2.4c0,1.6-1.7,3.1-3.9,4.9h3.9v0.9H153.8z"/>
		<path class="st5" d="M160.9,428.5c0-2,0.9-4.1,3.1-4.1c2.2,0,3.1,2.2,3.1,4.1c0,1.9-0.9,4.1-3.1,4.1
			C161.7,432.6,160.9,430.4,160.9,428.5z M166,428.5c0-1.6-0.5-3.2-2-3.2s-2,1.6-2,3.2c0,1.6,0.5,3.3,2,3.3S166,430.1,166,428.5z"/>
		<path class="st5" d="M169.7,432.5v-6.7l-1.3,1.4l-0.6-0.6l2-2.1h0.9v8H169.7z"/>
		<path class="st5" d="M172.3,428.5c0-2.2,1-4.1,3.3-4.1c1,0,1.7,0.4,2.2,1l-0.5,0.7c-0.4-0.5-0.9-0.8-1.7-0.8
			c-1.6,0-2.3,1.6-2.3,3.1c0,0.1,0,0.2,0,0.3c0.3-0.6,1.2-1.2,2.3-1.2c1.4,0,2.6,0.9,2.6,2.6c0,1.4-1.1,2.6-2.8,2.6
			C173.1,432.6,172.3,430.7,172.3,428.5z M177.1,430c0-1.2-0.8-1.7-1.8-1.7c-0.8,0-1.6,0.5-2,1.2c0.1,1,0.6,2.2,2,2.2
			C176.5,431.7,177.1,430.8,177.1,430z"/>
	</g>
</g>
<g>
	<g>
		<path class="st5" d="M68,370.4l-4.5-5.6l-0.2,2.2l-1.4-0.2l0.4-3.8l1.1-0.9l5.8,7.3L68,370.4z"/>
		<path class="st5" d="M70.3,367.4l-0.2-1.5c0.7,0.1,1.3,0,2-0.6c1.3-1.1,1-2.8,0-3.9c-0.1-0.1-0.1-0.1-0.2-0.2
			c0.1,0.8-0.3,1.9-1.1,2.6c-1.3,1.1-3.1,1.2-4.3-0.4c-1.1-1.4-0.9-3.3,0.7-4.6c2.1-1.7,4.4-0.7,6,1.4c1.7,2.1,1.9,4.7-0.2,6.3
			C72.2,367.3,71.2,367.5,70.3,367.4z M71.2,360.3c-0.7-0.7-1.9-1.3-3-0.4c-1,0.8-0.9,1.9-0.4,2.4c0.7,0.9,1.7,0.7,2.5,0.1
			C70.9,362,71.3,361.1,71.2,360.3z"/>
		<path class="st5" d="M76.9,362.1l-0.2-1.5c0.7,0.1,1.3,0,2-0.6c1.3-1.1,1-2.8,0-3.9c-0.1-0.1-0.1-0.1-0.2-0.2
			c0.1,0.8-0.3,1.9-1.1,2.6c-1.3,1.1-3.1,1.2-4.3-0.4c-1.1-1.4-0.9-3.3,0.7-4.6c2.1-1.7,4.4-0.7,6,1.4c1.7,2.1,1.9,4.7-0.2,6.3
			C78.7,362,77.8,362.2,76.9,362.1z M77.8,355.1c-0.7-0.7-1.9-1.3-3-0.4c-1,0.8-0.9,1.9-0.4,2.4c0.7,0.9,1.7,0.7,2.5,0.1
			C77.5,356.7,77.8,355.9,77.8,355.1z"/>
		<path class="st5" d="M83.5,356.9l-0.2-1.5c0.7,0.1,1.3,0,2-0.6c1.3-1.1,1-2.8,0-3.9c-0.1-0.1-0.1-0.1-0.2-0.2
			c0.1,0.8-0.3,1.9-1.1,2.6c-1.3,1.1-3.1,1.2-4.3-0.4c-1.1-1.4-0.9-3.3,0.7-4.6c2.1-1.7,4.4-0.7,6,1.4c1.7,2.1,1.9,4.7-0.2,6.3
			C85.3,356.7,84.3,357,83.5,356.9z M84.4,349.8c-0.7-0.7-1.9-1.3-3-0.4c-1,0.8-0.9,1.9-0.4,2.4c0.7,0.9,1.7,0.7,2.5,0.1
			C84.1,351.4,84.4,350.6,84.4,349.8z"/>
	</g>
	<g>
		<path class="st5" d="M88.4,350.5l-0.8-1l2.6-2.1l0.8,1L88.4,350.5z"/>
	</g>
	<g>
		<path class="st5" d="M93.2,350.2l-0.8-1c1.1-4.4,1.5-6.2,0.6-7.3c-0.6-0.8-1.6-0.6-2.2,0c-0.9,0.7-1.2,1.5-1.3,2.4l-1.4-0.2
			c0-1.3,0.7-2.5,1.8-3.3c1.4-1.1,3.3-1.3,4.4,0.1c1.1,1.4,0.8,3.5,0.1,6.6l3.2-2.6l0.9,1.1L93.2,350.2z"/>
	</g>
	<g>
		<path class="st5" d="M96.6,341.5c-1.5-1.8-2.1-4.5-0.1-6.1c2-1.6,4.4-0.4,5.9,1.4c1.5,1.8,2.2,4.5,0.1,6.1
			C100.5,344.6,98.1,343.3,96.6,341.5z M101.1,337.9c-1.1-1.4-2.5-2.3-3.7-1.3s-0.6,2.5,0.5,3.9c1.1,1.4,2.5,2.3,3.7,1.3
			C102.8,340.9,102.2,339.3,101.1,337.9z"/>
		<path class="st5" d="M103.3,336.1c-1.5-1.8-2.2-4.5-0.1-6.1c2-1.6,4.4-0.4,5.9,1.4c1.5,1.8,2.2,4.5,0.1,6.1
			C107.2,339.2,104.8,337.9,103.3,336.1z M107.9,332.5c-1.1-1.4-2.5-2.3-3.7-1.3c-1.2,1-0.6,2.5,0.5,3.9c1.1,1.4,2.5,2.3,3.7,1.3
			C109.6,335.5,109,333.9,107.9,332.5z"/>
		<path class="st5" d="M110.1,330.7c-1.5-1.8-2.2-4.5-0.1-6.1c2-1.6,4.4-0.4,5.9,1.4c1.5,1.8,2.2,4.5,0.1,6.1
			C114,333.8,111.6,332.5,110.1,330.7z M114.6,327.1c-1.1-1.4-2.5-2.3-3.7-1.3c-1.2,1-0.6,2.5,0.5,3.9c1.1,1.4,2.5,2.3,3.7,1.3
			C116.3,330,115.7,328.5,114.6,327.1z"/>
	</g>
	<g>
		<path class="st5" d="M151.3,361.2l-0.8-1c1.1-4.4,1.5-6.2,0.6-7.3c-0.6-0.8-1.6-0.6-2.2,0c-0.9,0.7-1.2,1.5-1.3,2.4l-1.4-0.2
			c0-1.3,0.7-2.5,1.8-3.3c1.4-1.1,3.3-1.3,4.4,0.1c1.1,1.4,0.8,3.5,0.1,6.6l3.2-2.6l0.9,1.1L151.3,361.2z"/>
	</g>
	<g>
		<path class="st5" d="M156.4,352.5c-1.5-1.8-2.1-4.5-0.1-6.1c2-1.6,4.4-0.4,5.9,1.4c1.5,1.8,2.2,4.5,0.1,6.1
			C160.3,355.6,157.9,354.3,156.4,352.5z M161,348.9c-1.1-1.4-2.5-2.3-3.7-1.3c-1.2,1-0.6,2.5,0.5,3.9c1.1,1.4,2.5,2.3,3.7,1.3
			C162.7,351.9,162.1,350.3,161,348.9z"/>
		<path class="st5" d="M163.2,347.1c-1.5-1.8-2.2-4.5-0.1-6.1c2-1.6,4.4-0.4,5.9,1.4c1.5,1.8,2.2,4.5,0.1,6.1
			C167.1,350.2,164.6,348.9,163.2,347.1z M167.7,343.5c-1.1-1.4-2.5-2.3-3.7-1.3c-1.2,1-0.6,2.5,0.5,3.9c1.1,1.4,2.5,2.3,3.7,1.3
			C169.4,346.5,168.8,344.9,167.7,343.5z"/>
		<path class="st5" d="M174.5,344l-4.5-5.6l-0.2,2.2l-1.4-0.2l0.4-3.8l1.1-0.9l5.8,7.3L174.5,344z"/>
		<path class="st5" d="M175.1,340l-0.8-1l2.6-2.1l0.8,1L175.1,340z"/>
	</g>
	<g>
		<path class="st5" d="M177.4,335.7c-1.5-1.8-2.2-4.5-0.1-6.1c2-1.6,4.4-0.4,5.9,1.4c1.5,1.8,2.2,4.5,0.1,6.1
			C181.2,338.8,178.8,337.6,177.4,335.7z M181.9,332.1c-1.1-1.4-2.5-2.3-3.7-1.3s-0.6,2.5,0.5,3.9c1.1,1.4,2.5,2.3,3.7,1.3
			C183.6,335.1,183,333.5,181.9,332.1z"/>
	</g>
	<g>
		<path class="st5" d="M186.9,334.1l-0.8-1c1.1-4.4,1.5-6.2,0.6-7.3c-0.6-0.8-1.6-0.6-2.2,0c-0.9,0.7-1.2,1.5-1.3,2.4l-1.4-0.2
			c0-1.3,0.7-2.5,1.8-3.3c1.4-1.1,3.3-1.3,4.4,0.1c1.1,1.4,0.8,3.5,0.1,6.6l3.2-2.6l0.9,1.1L186.9,334.1z"/>
	</g>
	<g>
		<path class="st5" d="M206.5,362.7l-0.8-1c1.1-4.4,1.5-6.2,0.6-7.3c-0.6-0.8-1.6-0.6-2.2,0c-0.9,0.7-1.2,1.5-1.3,2.4l-1.4-0.2
			c0-1.3,0.7-2.5,1.8-3.3c1.4-1.1,3.3-1.3,4.4,0.1c1.1,1.4,0.8,3.5,0.1,6.6l3.2-2.6l0.9,1.1L206.5,362.7z"/>
	</g>
	<g>
		<path class="st5" d="M211.6,354c-1.5-1.8-2.2-4.5-0.1-6.1c2-1.6,4.4-0.4,5.9,1.4c1.5,1.8,2.2,4.5,0.1,6.1
			C215.5,357.1,213.1,355.8,211.6,354z M216.2,350.4c-1.1-1.4-2.5-2.3-3.7-1.3s-0.6,2.5,0.5,3.9c1.1,1.4,2.5,2.3,3.7,1.3
			C217.8,353.4,217.3,351.8,216.2,350.4z"/>
	</g>
	<g>
		<path class="st5" d="M218.4,348.6c-1.5-1.8-2.2-4.5-0.1-6.1c2-1.6,4.4-0.4,5.9,1.4c1.5,1.8,2.2,4.5,0.1,6.1
			C222.3,351.7,219.8,350.4,218.4,348.6z M222.9,345c-1.1-1.4-2.5-2.3-3.7-1.3s-0.6,2.5,0.5,3.9c1.1,1.4,2.5,2.3,3.7,1.3
			C224.6,348,224,346.4,222.9,345z"/>
	</g>
	<g>
		<path class="st5" d="M226.7,346.2l0-1.4c0.9,0.2,1.9-0.1,2.7-0.7c1-0.8,1.2-1.7,0.6-2.3c-0.6-0.7-1.4-0.6-2.5,0.3
			c-0.3,0.2-0.7,0.6-0.8,0.7l-0.9-1.2c0.1-0.1,0.6-0.4,0.8-0.7c0.9-0.7,1.3-1.5,0.7-2.2c-0.5-0.7-1.5-0.5-2.3,0.2
			c-0.8,0.6-1.1,1.4-1.2,2.3l-1.3-0.3c0-1.1,0.5-2.3,1.7-3.3c1.6-1.3,3.2-1.4,4.2-0.1c0.8,1,0.4,2.2-0.2,2.9
			c0.8-0.5,2.2-0.7,3.1,0.4c1,1.2,0.6,3-1,4.3C229.1,346.2,227.7,346.4,226.7,346.2z"/>
		<path class="st5" d="M232.2,340l-0.8-1l2.6-2.1l0.8,1L232.2,340z"/>
		<path class="st5" d="M234.4,335.8c-1.5-1.8-2.2-4.5-0.1-6.1c2-1.6,4.4-0.4,5.9,1.4c1.5,1.8,2.2,4.5,0.1,6.1
			C238.3,338.9,235.8,337.6,234.4,335.8z M238.9,332.2c-1.1-1.4-2.5-2.3-3.7-1.3s-0.6,2.5,0.5,3.9c1.1,1.4,2.5,2.3,3.7,1.3
			C240.6,335.1,240,333.5,238.9,332.2z"/>
		<path class="st5" d="M247.4,331.4l-1.3-1.7l-3.5,2.8l-0.8-1l-0.7-7l1.8-1.4l3.6,4.5l1-0.8l0.9,1.1l-1,0.8l1.3,1.7L247.4,331.4z
			 M242.4,325.2l0.5,5.1l2.2-1.8L242.4,325.2z"/>
	</g>
	<g>
		<path class="st5" d="M264.4,363.3l-0.8-1c1.1-4.4,1.5-6.2,0.6-7.3c-0.6-0.8-1.6-0.6-2.2,0c-0.9,0.7-1.2,1.5-1.3,2.4l-1.4-0.2
			c0-1.3,0.7-2.5,1.8-3.3c1.4-1.1,3.3-1.3,4.4,0.1c1.1,1.4,0.8,3.5,0.1,6.6l3.2-2.6l0.9,1.1L264.4,363.3z"/>
	</g>
	<g>
		<path class="st5" d="M269.5,354.6c-1.5-1.8-2.2-4.5-0.1-6.1c2-1.6,4.4-0.4,5.9,1.4c1.5,1.8,2.2,4.5,0.1,6.1
			C273.4,357.7,271,356.5,269.5,354.6z M274.1,351c-1.1-1.4-2.5-2.3-3.7-1.3s-0.6,2.5,0.5,3.9c1.1,1.4,2.5,2.3,3.7,1.3
			C275.7,354,275.2,352.4,274.1,351z"/>
		<path class="st5" d="M276.3,349.2c-1.5-1.8-2.2-4.5-0.1-6.1c2-1.6,4.4-0.4,5.9,1.4c1.5,1.8,2.2,4.5,0.1,6.1
			C280.2,352.3,277.7,351.1,276.3,349.2z M280.8,345.6c-1.1-1.4-2.5-2.3-3.7-1.3c-1.2,1-0.6,2.5,0.5,3.9c1.1,1.4,2.5,2.3,3.7,1.3
			C282.5,348.6,281.9,347,280.8,345.6z"/>
		<path class="st5" d="M285.3,346.4l0-1.5c0.9,0.2,1.8,0,2.7-0.7c0.9-0.7,1-1.8,0.5-2.5c-0.6-0.8-1.6-0.8-2.5-0.1
			c-0.6,0.5-1,1.1-1.1,1.9l-1.1,0.5l-3.3-4.1l4.8-3.8l0.9,1.1l-3.5,2.8l1.7,2.1c0.1-0.6,0.5-1.4,1.2-1.9c1.2-1,3-1,4.2,0.5
			c1.2,1.5,0.8,3.4-0.8,4.7C287.7,346.3,286.4,346.6,285.3,346.4z"/>
		<path class="st5" d="M290.6,340.2l-0.8-1l2.6-2.1l0.8,1L290.6,340.2z"/>
		<path class="st5" d="M292.9,336c-1.5-1.8-2.2-4.5-0.1-6.1c2-1.6,4.4-0.4,5.9,1.4c1.5,1.8,2.2,4.5,0.1,6.1
			C296.7,339,294.3,337.8,292.9,336z M297.4,332.3c-1.1-1.4-2.5-2.3-3.7-1.3s-0.6,2.5,0.5,3.9c1.1,1.4,2.5,2.3,3.7,1.3
			C299.1,335.3,298.5,333.7,297.4,332.3z"/>
		<path class="st5" d="M299.6,330.6c-1.7-2.1-1.9-4.6,0.2-6.3c0.9-0.7,1.8-1,2.7-0.9l0.2,1.4c-0.7-0.1-1.3,0-2,0.6
			c-1.2,1-1,2.7,0,3.9c0.1,0.1,0.1,0.1,0.2,0.2c-0.1-0.8,0.3-1.9,1.1-2.6c1.3-1.1,3.1-1.2,4.3,0.4c1.1,1.3,0.9,3.3-0.7,4.6
			C303.5,333.6,301.2,332.6,299.6,330.6z M305.1,328.4c-0.7-0.9-1.7-0.7-2.5-0.1c-0.6,0.5-1,1.3-0.9,2.1c0.7,0.7,1.9,1.3,3,0.4
			C305.6,330.1,305.5,329,305.1,328.4z"/>
	</g>
	<g>
		<path class="st5" d="M327.6,362l-0.8-1c1.1-4.4,1.5-6.2,0.6-7.3c-0.6-0.8-1.6-0.6-2.2,0c-0.9,0.7-1.2,1.5-1.3,2.4l-1.4-0.2
			c0-1.3,0.7-2.5,1.8-3.3c1.4-1.1,3.3-1.3,4.4,0.1c1.1,1.4,0.8,3.5,0.1,6.6l3.2-2.6l0.9,1.1L327.6,362z"/>
	</g>
	<g>
		<path class="st5" d="M332.7,353.3c-1.5-1.8-2.1-4.5-0.1-6.1c2-1.6,4.4-0.4,5.9,1.4c1.5,1.8,2.2,4.5,0.1,6.1
			C336.6,356.4,334.1,355.1,332.7,353.3z M337.2,349.7c-1.1-1.4-2.5-2.3-3.7-1.3c-1.2,1-0.6,2.5,0.5,3.9c1.1,1.4,2.5,2.3,3.7,1.3
			C338.9,352.6,338.3,351.1,337.2,349.7z"/>
	</g>
	<g>
		<path class="st5" d="M339.4,347.9c-1.5-1.8-2.2-4.5-0.1-6.1c2-1.6,4.5-0.4,5.9,1.4c1.5,1.8,2.2,4.5,0.1,6.1
			C343.3,351,340.9,349.7,339.4,347.9z M343.9,344.3c-1.1-1.4-2.5-2.3-3.7-1.3c-1.2,1-0.6,2.5,0.5,3.9c1.1,1.4,2.5,2.3,3.7,1.3
			C345.6,347.2,345.1,345.7,343.9,344.3z"/>
	</g>
	<g>
		<path class="st5" d="M349.6,345.7l-2.2-8.4l-3.8,3l-0.9-1.1l5.3-4.2l0.7,0.9l2.3,8.7L349.6,345.7z"/>
	</g>
	<g>
		<path class="st5" d="M352.2,340.1l-0.8-1l2.6-2.1l0.8,1L352.2,340.1z"/>
		<path class="st5" d="M354.4,335.9c-1.5-1.8-2.1-4.5-0.1-6.1c2-1.6,4.5-0.4,5.9,1.4c1.5,1.8,2.2,4.5,0.1,6.1
			C358.3,339,355.8,337.7,354.4,335.9z M358.9,332.3c-1.1-1.4-2.5-2.3-3.7-1.3s-0.6,2.5,0.5,3.9c1.1,1.4,2.5,2.3,3.7,1.3
			C360.6,335.3,360,333.7,358.9,332.3z"/>
		<path class="st5" d="M362.5,332.3c-0.7-0.9-0.5-2.2,0.1-3.2c-1,0.4-2.2,0.4-2.9-0.5c-1.1-1.4-0.1-3,1.1-4.1c1.3-1,3.1-1.6,4.2-0.2
			c0.7,0.9,0.5,2-0.1,2.9c1.1-0.4,2.4-0.4,3.1,0.6c1.1,1.3,0.3,3.1-1.2,4.3C365.4,333.2,363.6,333.6,362.5,332.3z M364,325.5
			c-0.5-0.6-1.4-0.5-2.2,0.1c-0.8,0.6-1.1,1.5-0.6,2.1c0.5,0.7,1.7,0.2,2.2-0.1C363.8,327.2,364.5,326.2,364,325.5z M366.7,328.7
			c-0.6-0.8-1.9-0.2-2.4,0.1c-0.4,0.4-1.2,1.6-0.6,2.3c0.5,0.6,1.5,0.5,2.3-0.2C366.8,330.3,367.2,329.3,366.7,328.7z"/>
	</g>
	<g>
		<path class="st5" d="M390.4,361.2l-0.8-1c1.1-4.4,1.5-6.2,0.6-7.3c-0.6-0.8-1.6-0.6-2.2,0c-0.9,0.7-1.2,1.5-1.3,2.4l-1.4-0.2
			c0-1.3,0.7-2.5,1.8-3.3c1.4-1.1,3.3-1.3,4.4,0.1c1.1,1.4,0.8,3.5,0.1,6.6l3.2-2.6l0.9,1.1L390.4,361.2z"/>
	</g>
	<g>
		<path class="st5" d="M395.5,352.5c-1.5-1.8-2.2-4.5-0.1-6.1c2-1.6,4.5-0.4,5.9,1.4c1.5,1.8,2.2,4.5,0.1,6.1
			C399.4,355.6,397,354.4,395.5,352.5z M400,348.9c-1.1-1.4-2.5-2.3-3.7-1.3c-1.2,1-0.6,2.5,0.5,3.9c1.1,1.4,2.5,2.3,3.7,1.3
			C401.7,351.9,401.1,350.3,400,348.9z"/>
		<path class="st5" d="M402.2,347.1c-1.5-1.8-2.2-4.5-0.1-6.1c2-1.6,4.5-0.4,5.9,1.4c1.5,1.8,2.2,4.5,0.1,6.1
			C406.1,350.2,403.7,349,402.2,347.1z M406.8,343.5c-1.1-1.4-2.5-2.3-3.7-1.3c-1.2,1-0.6,2.5,0.5,3.9c1.1,1.4,2.5,2.3,3.7,1.3
			C408.4,346.5,407.9,344.9,406.8,343.5z"/>
		<path class="st5" d="M411.7,344.4l-0.2-1.5c0.7,0.1,1.3,0,2-0.6c1.3-1.1,1-2.8,0-3.9c-0.1-0.1-0.1-0.1-0.2-0.2
			c0.1,0.8-0.3,1.9-1.1,2.6c-1.3,1.1-3.1,1.2-4.3-0.4c-1.1-1.4-0.9-3.3,0.7-4.6c2.1-1.7,4.4-0.7,6,1.4c1.7,2.1,1.9,4.7-0.2,6.3
			C413.5,344.3,412.6,344.5,411.7,344.4z M412.6,337.3c-0.7-0.7-1.9-1.3-3-0.4c-1,0.8-0.9,1.9-0.4,2.4c0.7,0.9,1.7,0.7,2.5,0.1
			C412.3,339,412.6,338.1,412.6,337.3z"/>
	</g>
	<g>
		<path class="st5" d="M416.6,338.1l-0.8-1l2.6-2.1l0.8,1L416.6,338.1z"/>
	</g>
	<g>
		<path class="st5" d="M423.2,336.4l-4.5-5.6l-0.2,2.2l-1.4-0.2l0.4-3.8l1.1-0.9l5.8,7.3L423.2,336.4z"/>
		<path class="st5" d="M422.8,330.7c-1.5-1.8-2.1-4.5-0.1-6.1c2-1.6,4.5-0.4,5.9,1.4c1.5,1.8,2.2,4.5,0.1,6.1
			C426.6,333.8,424.2,332.5,422.8,330.7z M427.3,327.1c-1.1-1.4-2.5-2.3-3.7-1.3c-1.2,1-0.6,2.5,0.5,3.9c1.1,1.4,2.5,2.3,3.7,1.3
			C429,330,428.4,328.5,427.3,327.1z"/>
	</g>
	<g>
		<path class="st5" d="M461.1,357l-0.8-1c1.1-4.4,1.5-6.2,0.6-7.3c-0.6-0.8-1.6-0.6-2.2,0c-0.9,0.7-1.2,1.5-1.3,2.4l-1.4-0.2
			c0-1.3,0.7-2.5,1.8-3.3c1.4-1.1,3.3-1.3,4.4,0.1c1.1,1.4,0.8,3.5,0.1,6.6l3.2-2.6l0.9,1.1L461.1,357z"/>
	</g>
	<g>
		<path class="st5" d="M464.4,348.3c-1.5-1.8-2.1-4.5-0.1-6.1c2-1.6,4.5-0.4,5.9,1.4c1.5,1.8,2.2,4.5,0.1,6.1
			C468.3,351.4,465.9,350.2,464.4,348.3z M469,344.7c-1.1-1.4-2.5-2.3-3.7-1.3c-1.2,1-0.6,2.5,0.5,3.9c1.1,1.4,2.5,2.3,3.7,1.3
			C470.6,347.7,470.1,346.1,469,344.7z"/>
		<path class="st5" d="M475.7,345.3l-4.5-5.6l-0.2,2.2l-1.4-0.2l0.4-3.8l1.1-0.9l5.8,7.3L475.7,345.3z"/>
		<path class="st5" d="M479.9,341.9l-4.5-5.6l-0.2,2.2l-1.4-0.2l0.4-3.8l1.1-0.9l5.8,7.3L479.9,341.9z"/>
	</g>
	<g>
		<path class="st5" d="M480.5,337.9l-0.8-1l2.6-2.1l0.8,1L480.5,337.9z"/>
	</g>
	<g>
		<path class="st5" d="M487.1,336.2l-4.5-5.6l-0.2,2.2l-1.4-0.2l0.4-3.8l1.1-0.9l5.8,7.3L487.1,336.2z"/>
		<path class="st5" d="M489.7,334.1l-0.8-1c1.1-4.4,1.5-6.2,0.6-7.3c-0.6-0.8-1.6-0.6-2.2,0c-0.9,0.7-1.2,1.5-1.3,2.4l-1.4-0.2
			c0-1.3,0.7-2.5,1.8-3.3c1.4-1.1,3.3-1.3,4.4,0.1c1.1,1.4,0.8,3.5,0.1,6.6l3.2-2.6l0.9,1.1L489.7,334.1z"/>
	</g>
	<g>
		<path class="st5" d="M518.6,358.6l-0.8-1c1.1-4.4,1.5-6.2,0.6-7.3c-0.6-0.8-1.6-0.6-2.2,0c-0.9,0.7-1.2,1.5-1.3,2.4l-1.4-0.2
			c0-1.3,0.7-2.5,1.8-3.3c1.4-1.1,3.3-1.3,4.4,0.1c1.1,1.4,0.8,3.5,0.1,6.6l3.2-2.6l0.9,1.1L518.6,358.6z"/>
	</g>
	<g>
		<path class="st5" d="M522,349.9c-1.5-1.8-2.1-4.5-0.1-6.1c2-1.6,4.4-0.4,5.9,1.4c1.5,1.8,2.2,4.5,0.1,6.1
			C525.9,353,523.5,351.7,522,349.9z M526.5,346.3c-1.1-1.4-2.5-2.3-3.7-1.3c-1.2,1-0.6,2.5,0.5,3.9c1.1,1.4,2.5,2.3,3.7,1.3
			C528.2,349.3,527.6,347.7,526.5,346.3z"/>
		<path class="st5" d="M533.3,346.8l-4.5-5.6l-0.2,2.2l-1.4-0.2l0.4-3.8l1.1-0.9l5.8,7.3L533.3,346.8z"/>
		<path class="st5" d="M534.8,343.9l0-1.4c0.9,0.2,1.9-0.1,2.7-0.7c1-0.8,1.2-1.7,0.6-2.3c-0.6-0.7-1.4-0.6-2.4,0.3
			c-0.3,0.2-0.7,0.6-0.8,0.7l-0.9-1.2c0.1-0.1,0.6-0.4,0.8-0.7c0.9-0.7,1.3-1.5,0.7-2.2c-0.5-0.7-1.5-0.5-2.3,0.2
			c-0.8,0.6-1.1,1.4-1.2,2.3l-1.3-0.3c0-1.1,0.5-2.3,1.7-3.3c1.6-1.3,3.2-1.4,4.2-0.1c0.8,1,0.4,2.2-0.2,2.9
			c0.8-0.5,2.2-0.7,3.1,0.4c1,1.2,0.6,3-1,4.3C537.2,343.9,535.8,344.2,534.8,343.9z"/>
	</g>
	<g>
		<path class="st5" d="M540.2,337.7l-0.8-1l2.6-2.1l0.8,1L540.2,337.7z"/>
	</g>
	<g>
		<path class="st5" d="M546.8,336l-4.5-5.6l-0.2,2.2l-1.4-0.2l0.4-3.8l1.1-0.9l5.8,7.3L546.8,336z"/>
		<path class="st5" d="M552.6,331.3l-1.3-1.7l-3.5,2.8l-0.8-1l-0.7-7l1.8-1.4l3.6,4.5l1-0.8l0.9,1.1l-1,0.8l1.3,1.7L552.6,331.3z
			 M547.7,325.2l0.5,5.1l2.2-1.8L547.7,325.2z"/>
	</g>
	<g>
		<path class="st5" d="M577.7,359l-0.8-1c1.1-4.4,1.5-6.2,0.6-7.3c-0.6-0.8-1.6-0.6-2.2,0c-0.9,0.7-1.2,1.5-1.3,2.4l-1.4-0.2
			c0-1.3,0.7-2.5,1.8-3.3c1.4-1.1,3.3-1.3,4.4,0.1c1.1,1.4,0.8,3.5,0.1,6.6l3.2-2.6l0.9,1.1L577.7,359z"/>
	</g>
	<g>
		<path class="st5" d="M581.1,350.3c-1.5-1.8-2.1-4.5-0.1-6.1c2-1.6,4.5-0.4,5.9,1.4c1.5,1.8,2.2,4.5,0.1,6.1
			C585,353.4,582.6,352.1,581.1,350.3z M585.6,346.7c-1.1-1.4-2.5-2.3-3.7-1.3s-0.6,2.5,0.5,3.9c1.1,1.4,2.5,2.3,3.7,1.3
			C587.3,349.7,586.7,348.1,585.6,346.7z"/>
		<path class="st5" d="M592.4,347.2l-4.5-5.6l-0.2,2.2l-1.4-0.2l0.4-3.8l1.1-0.9l5.8,7.3L592.4,347.2z"/>
		<path class="st5" d="M594.3,344.1l0-1.5c0.9,0.2,1.8,0,2.7-0.7c0.9-0.7,1-1.8,0.5-2.5c-0.6-0.8-1.6-0.8-2.5-0.1
			c-0.6,0.5-1,1.1-1.1,1.9l-1.1,0.5l-3.3-4.1l4.8-3.8l0.9,1.1l-3.5,2.8l1.7,2.1c0.1-0.6,0.5-1.4,1.2-1.9c1.2-1,3-1,4.2,0.5
			c1.2,1.5,0.8,3.4-0.8,4.7C596.6,344.1,595.4,344.3,594.3,344.1z"/>
	</g>
	<g>
		<path class="st5" d="M599.6,337.9l-0.8-1l2.6-2.1l0.8,1L599.6,337.9z"/>
	</g>
	<g>
		<path class="st5" d="M606.2,336.2l-4.5-5.6l-0.2,2.2l-1.4-0.2l0.4-3.8l1.1-0.9l5.8,7.3L606.2,336.2z"/>
		<path class="st5" d="M605.8,330.6c-1.7-2.1-1.9-4.6,0.2-6.3c0.9-0.7,1.8-1,2.7-0.9l0.2,1.4c-0.7-0.1-1.3,0-2,0.6
			c-1.2,1-1,2.7,0,3.9c0.1,0.1,0.1,0.1,0.2,0.2c-0.1-0.8,0.3-1.9,1.1-2.6c1.3-1.1,3.1-1.2,4.3,0.4c1.1,1.3,0.9,3.3-0.7,4.6
			C609.7,333.6,607.4,332.6,605.8,330.6z M611.3,328.4c-0.7-0.9-1.7-0.7-2.5-0.1c-0.6,0.5-1,1.3-0.9,2.1c0.7,0.7,1.9,1.3,3,0.4
			C611.8,330.1,611.7,329,611.3,328.4z"/>
	</g>
</g>
<g>
	<path class="st5" d="M3.7,397.6v-8H7c1.6,0,2.5,1.1,2.5,2.4s-0.9,2.4-2.5,2.4H4.7v3.2H3.7z M8.4,392c0-0.9-0.6-1.5-1.6-1.5H4.7v3
		h2.1C7.8,393.5,8.4,392.9,8.4,392z"/>
	<path class="st5" d="M14.4,397.6v-0.7c-0.5,0.5-1.1,0.8-1.9,0.8c-1,0-2-0.7-2-1.9c0-1.3,1-1.9,2-1.9c0.8,0,1.5,0.3,1.9,0.8v-1
		c0-0.8-0.6-1.2-1.5-1.2c-0.7,0-1.3,0.2-1.8,0.8l-0.4-0.6c0.6-0.6,1.4-1,2.3-1c1.2,0,2.2,0.6,2.2,2v4H14.4z M14.4,396.4v-1.1
		c-0.3-0.5-1-0.7-1.6-0.7c-0.9,0-1.4,0.5-1.4,1.3c0,0.7,0.6,1.3,1.4,1.3C13.4,397.1,14,396.8,14.4,396.4z"/>
	<path class="st5" d="M17.1,397.6v-5.8H18v0.9c0.5-0.6,1.1-1.1,1.9-1.1v0.9c-0.1,0-0.2,0-0.3,0c-0.6,0-1.3,0.5-1.6,0.9v4.1H17.1z"/>
	<path class="st5" d="M24.7,397.6v-0.7c-0.5,0.5-1.1,0.8-1.9,0.8c-1,0-2-0.7-2-1.9c0-1.3,1-1.9,2-1.9c0.8,0,1.5,0.3,1.9,0.8v-1
		c0-0.8-0.6-1.2-1.5-1.2c-0.7,0-1.3,0.2-1.8,0.8l-0.4-0.6c0.6-0.6,1.4-1,2.3-1c1.2,0,2.2,0.6,2.2,2v4H24.7z M24.7,396.4v-1.1
		c-0.3-0.5-1-0.7-1.6-0.7c-0.9,0-1.4,0.5-1.4,1.3c0,0.7,0.6,1.3,1.4,1.3C23.7,397.1,24.3,396.8,24.7,396.4z"/>
	<path class="st5" d="M30.2,397.6v-0.8c2.9-2.3,4.4-3.6,4.4-5c0-1-0.9-1.5-1.7-1.5c-1,0-1.7,0.4-2.2,1l-0.6-0.6
		c0.6-0.8,1.7-1.3,2.8-1.3c1.3,0,2.7,0.8,2.7,2.4c0,1.6-1.7,3.1-3.9,4.9h3.9v0.9H30.2z"/>
	<path class="st5" d="M37.3,393.6c0-2,0.9-4.1,3.1-4.1c2.2,0,3.1,2.2,3.1,4.1c0,1.9-0.9,4.1-3.1,4.1
		C38.1,397.7,37.3,395.5,37.3,393.6z M42.4,393.6c0-1.6-0.5-3.2-2-3.2c-1.5,0-2,1.6-2,3.2c0,1.6,0.5,3.3,2,3.3
		C41.8,396.8,42.4,395.2,42.4,393.6z"/>
	<path class="st5" d="M46.1,397.6v-6.7l-1.3,1.4l-0.6-0.6l2-2.1h0.9v8H46.1z"/>
	<path class="st5" d="M48.9,396.5l0.6-0.7c0.5,0.7,1.2,1.1,2.2,1.1c1.1,0,1.8-0.7,1.8-1.7c0-1.1-0.8-1.7-1.8-1.7
		c-0.7,0-1.3,0.2-1.8,0.7l-0.7-0.3v-4.3H54v0.9h-3.9v2.8c0.4-0.4,1.1-0.7,1.9-0.7c1.3,0,2.6,0.9,2.6,2.6c0,1.6-1.2,2.6-2.9,2.6
		C50.3,397.7,49.5,397.2,48.9,396.5z"/>
	<path class="st5" d="M55.5,395.1v-0.8h2.9v0.8H55.5z"/>
	<path class="st5" d="M59.4,397.6v-0.8c2.9-2.3,4.4-3.6,4.4-5c0-1-0.9-1.5-1.7-1.5c-1,0-1.7,0.4-2.2,1l-0.6-0.6
		c0.6-0.8,1.7-1.3,2.8-1.3c1.3,0,2.7,0.8,2.7,2.4c0,1.6-1.7,3.1-3.9,4.9h3.9v0.9H59.4z"/>
	<path class="st5" d="M66.4,393.6c0-2,0.9-4.1,3.1-4.1c2.2,0,3.1,2.2,3.1,4.1c0,1.9-0.9,4.1-3.1,4.1
		C67.3,397.7,66.4,395.5,66.4,393.6z M71.5,393.6c0-1.6-0.5-3.2-2-3.2c-1.5,0-2,1.6-2,3.2c0,1.6,0.5,3.3,2,3.3
		C71,396.8,71.5,395.2,71.5,393.6z"/>
	<path class="st5" d="M75.3,397.6v-6.7l-1.3,1.4l-0.6-0.6l2-2.1h0.9v8H75.3z"/>
	<path class="st5" d="M77.8,393.6c0-2.2,1-4.1,3.3-4.1c1,0,1.7,0.4,2.2,1l-0.5,0.7c-0.4-0.5-0.9-0.8-1.7-0.8c-1.6,0-2.3,1.6-2.3,3.1
		c0,0.1,0,0.2,0,0.3c0.3-0.6,1.2-1.2,2.3-1.2c1.4,0,2.6,0.9,2.6,2.6c0,1.4-1.1,2.6-2.8,2.6C78.7,397.7,77.8,395.8,77.8,393.6z
		 M82.7,395.2c0-1.2-0.8-1.7-1.8-1.7c-0.8,0-1.6,0.5-2,1.2c0.1,1,0.6,2.2,2,2.2C82.1,396.8,82.7,395.9,82.7,395.2z"/>
	<path class="st5" d="M85,392.4c0-0.4,0.3-0.7,0.7-0.7s0.7,0.3,0.7,0.7c0,0.3-0.3,0.7-0.7,0.7S85,392.7,85,392.4z M85,397
		c0-0.4,0.3-0.7,0.7-0.7s0.7,0.3,0.7,0.7c0,0.4-0.3,0.7-0.7,0.7S85,397.4,85,397z"/>
	<path class="st5" d="M91,397.6v-8h5.2v0.9H92v2.6h4.2v0.9H92v2.8h4.2v0.9H91z"/>
	<path class="st5" d="M97.3,396.8l0.5-0.6c0.4,0.4,1.1,0.8,1.9,0.8c0.9,0,1.4-0.4,1.4-1c0-1.4-3.6-0.5-3.6-2.7
		c0-0.9,0.8-1.7,2.1-1.7c1,0,1.7,0.4,2.1,0.8l-0.4,0.6c-0.3-0.4-1-0.7-1.7-0.7c-0.8,0-1.3,0.4-1.3,0.9c0,1.3,3.6,0.4,3.6,2.7
		c0,1-0.8,1.8-2.3,1.8C98.7,397.7,97.9,397.4,97.3,396.8z"/>
	<path class="st5" d="M103.6,396.4v-3.8h-1v-0.8h1v-1.6h0.9v1.6h1.2v0.8h-1.2v3.6c0,0.4,0.2,0.7,0.6,0.7c0.3,0,0.5-0.1,0.6-0.3
		l0.3,0.7c-0.2,0.2-0.6,0.4-1.1,0.4C104,397.7,103.6,397.2,103.6,396.4z"/>
	<path class="st5" d="M110.6,397.6v-0.7c-0.5,0.5-1.1,0.8-1.9,0.8c-1,0-2-0.7-2-1.9c0-1.3,1-1.9,2-1.9c0.8,0,1.5,0.3,1.9,0.8v-1
		c0-0.8-0.6-1.2-1.5-1.2c-0.7,0-1.3,0.2-1.8,0.8l-0.4-0.6c0.6-0.6,1.4-1,2.3-1c1.2,0,2.2,0.6,2.2,2v4H110.6z M110.6,396.4v-1.1
		c-0.3-0.5-1-0.7-1.6-0.7c-0.9,0-1.4,0.5-1.4,1.3c0,0.7,0.6,1.3,1.4,1.3C109.6,397.1,110.2,396.8,110.6,396.4z"/>
	<path class="st5" d="M116.6,397.6v-5h-1v-0.8h1v-0.4c0-1.2,0.7-1.9,1.7-1.9c0.3,0,0.6,0.1,0.9,0.2l-0.2,0.7
		c-0.1-0.1-0.3-0.1-0.5-0.1c-0.6,0-0.9,0.4-0.9,1.1v0.4h1.2v0.8h-1.2v5H116.6z M119.6,390.4c0-0.3,0.3-0.6,0.6-0.6
		c0.3,0,0.6,0.3,0.6,0.6s-0.3,0.6-0.6,0.6C119.9,391,119.6,390.7,119.6,390.4z M119.8,397.6v-5.8h0.9v5.8H119.8z"/>
	<path class="st5" d="M122.5,399.1l0.5-0.6c0.5,0.6,1.1,0.8,1.9,0.8c1,0,1.9-0.5,1.9-1.7v-0.9c-0.4,0.6-1.1,1-2,1
		c-1.5,0-2.6-1.1-2.6-3c0-1.9,1.1-3,2.6-3c0.8,0,1.5,0.4,2,1v-0.9h0.9v5.7c0,1.8-1.4,2.4-2.8,2.4
		C123.9,399.9,123.2,399.7,122.5,399.1z M126.7,395.9v-2.5c-0.3-0.5-1-0.9-1.7-0.9c-1.2,0-1.9,0.9-1.9,2.2c0,1.3,0.7,2.2,1.9,2.2
		C125.7,396.9,126.4,396.4,126.7,395.9z"/>
	<path class="st5" d="M133.3,397.6v-0.8c-0.4,0.5-1.2,1-2.1,1c-1.2,0-1.8-0.6-1.8-1.8v-4.1h0.9v3.8c0,1,0.5,1.3,1.3,1.3
		c0.7,0,1.4-0.4,1.7-0.9v-4.3h0.9v5.8H133.3z"/>
	<path class="st5" d="M136,397.6v-5.8h0.9v0.9c0.5-0.6,1.1-1.1,1.9-1.1v0.9c-0.1,0-0.2,0-0.3,0c-0.6,0-1.3,0.5-1.6,0.9v4.1H136z"/>
	<path class="st5" d="M143.6,397.6v-0.7c-0.5,0.5-1.1,0.8-1.9,0.8c-1,0-2-0.7-2-1.9c0-1.3,1-1.9,2-1.9c0.8,0,1.5,0.3,1.9,0.8v-1
		c0-0.8-0.6-1.2-1.5-1.2c-0.7,0-1.3,0.2-1.8,0.8l-0.4-0.6c0.6-0.6,1.4-1,2.3-1c1.2,0,2.2,0.6,2.2,2v4H143.6z M143.6,396.4v-1.1
		c-0.3-0.5-1-0.7-1.6-0.7c-0.9,0-1.4,0.5-1.4,1.3c0,0.7,0.6,1.3,1.4,1.3C142.6,397.1,143.2,396.8,143.6,396.4z"/>
	<path class="st5" d="M149.3,390.4c0-0.3,0.3-0.6,0.6-0.6c0.3,0,0.6,0.3,0.6,0.6s-0.3,0.6-0.6,0.6
		C149.5,391,149.3,390.7,149.3,390.4z M149.4,397.6v-5.8h0.9v5.8H149.4z"/>
	<path class="st5" d="M156,397.6v-3.8c0-1-0.5-1.3-1.3-1.3c-0.7,0-1.4,0.4-1.7,0.9v4.2h-0.9v-5.8h0.9v0.8c0.4-0.5,1.2-1,2.1-1
		c1.2,0,1.8,0.6,1.8,1.9v4.1H156z"/>
	<path class="st5" d="M158.4,394.7c0-1.7,1.2-3,2.9-3c1.1,0,1.7,0.4,2.1,1l-0.6,0.5c-0.4-0.5-0.9-0.7-1.5-0.7c-1.2,0-2,0.9-2,2.2
		s0.8,2.2,2,2.2c0.6,0,1.1-0.2,1.5-0.8l0.6,0.6c-0.4,0.6-1.1,1-2.1,1C159.6,397.7,158.4,396.4,158.4,394.7z"/>
	<path class="st5" d="M164.7,397.6v-8h0.9v8H164.7z"/>
	<path class="st5" d="M171.3,397.6v-0.8c-0.4,0.5-1.2,1-2.1,1c-1.2,0-1.8-0.6-1.8-1.8v-4.1h0.9v3.8c0,1,0.5,1.3,1.3,1.3
		c0.7,0,1.4-0.4,1.7-0.9v-4.3h0.9v5.8H171.3z"/>
	<path class="st5" d="M173.8,399c0.1,0.1,0.3,0.1,0.5,0.1c0.4,0,0.7-0.1,0.9-0.6l0.4-0.9l-2.4-5.9h1l1.9,4.8l1.9-4.8h1l-2.9,7
		c-0.3,0.8-0.9,1.2-1.7,1.2c-0.2,0-0.5,0-0.6-0.1L173.8,399z"/>
	<path class="st5" d="M179.5,394.7c0-1.7,1.2-3,2.9-3c1.8,0,2.8,1.4,2.8,3.1v0.2h-4.7c0.1,1.1,0.8,2,2.1,2c0.7,0,1.3-0.3,1.8-0.7
		l0.4,0.6c-0.6,0.6-1.4,0.9-2.3,0.9C180.8,397.7,179.5,396.5,179.5,394.7z M182.4,392.4c-1.2,0-1.8,1-1.9,1.9h3.8
		C184.3,393.5,183.7,392.4,182.4,392.4z"/>
	<path class="st5" d="M189.5,393.6c0-2.2,1-4.1,3.3-4.1c1,0,1.7,0.4,2.2,1l-0.5,0.7c-0.4-0.5-0.9-0.8-1.7-0.8
		c-1.6,0-2.3,1.6-2.3,3.1c0,0.1,0,0.2,0,0.3c0.3-0.6,1.2-1.2,2.3-1.2c1.4,0,2.6,0.9,2.6,2.6c0,1.4-1.1,2.6-2.8,2.6
		C190.3,397.7,189.5,395.8,189.5,393.6z M194.3,395.2c0-1.2-0.8-1.7-1.8-1.7c-0.8,0-1.6,0.5-2,1.2c0.1,1,0.6,2.2,2,2.2
		C193.7,396.8,194.3,395.9,194.3,395.2z"/>
	<path class="st5" d="M196.6,397.6v-0.8c2.9-2.3,4.4-3.6,4.4-5c0-1-0.9-1.5-1.7-1.5c-1,0-1.7,0.4-2.2,1l-0.6-0.6
		c0.6-0.8,1.7-1.3,2.8-1.3c1.3,0,2.7,0.8,2.7,2.4c0,1.6-1.7,3.1-3.9,4.9h3.9v0.9H196.6z"/>
	<path class="st5" d="M203.7,397c0-0.4,0.3-0.7,0.7-0.7s0.7,0.3,0.7,0.7c0,0.4-0.3,0.7-0.7,0.7S203.7,397.4,203.7,397z"/>
	<path class="st5" d="M210,397.6v-2h-3.8v-0.8l3.4-5.1h1.4v5.1h1.1v0.9h-1.1v2H210z M210,390.5l-2.8,4.2h2.8V390.5z"/>
	<path class="st5" d="M223.5,397.6v-3.9c0-0.7-0.3-1.2-1.1-1.2c-0.6,0-1.2,0.4-1.5,0.9v4.2H220v-3.9c0-0.7-0.3-1.2-1.1-1.2
		c-0.6,0-1.2,0.4-1.5,0.9v4.2h-0.9v-5.8h0.9v0.8c0.3-0.4,1-1,1.9-1c0.9,0,1.4,0.5,1.5,1.1c0.3-0.5,1.1-1.1,1.9-1.1
		c1.1,0,1.6,0.6,1.6,1.8v4.2H223.5z"/>
	<path class="st5" d="M226,390.4c0-0.3,0.3-0.6,0.6-0.6c0.3,0,0.6,0.3,0.6,0.6s-0.3,0.6-0.6,0.6C226.3,391,226,390.7,226,390.4z
		 M226.2,397.6v-5.8h0.9v5.8H226.2z"/>
	<path class="st5" d="M228.9,397.6v-8h0.9v8H228.9z"/>
	<path class="st5" d="M231.6,397.6v-8h0.9v8H231.6z"/>
	<path class="st5" d="M233.9,394.7c0-1.7,1.1-3,2.9-3s2.9,1.4,2.9,3s-1.1,3-2.9,3S233.9,396.4,233.9,394.7z M238.7,394.7
		c0-1.2-0.7-2.2-1.9-2.2s-1.9,1.1-1.9,2.2c0,1.2,0.7,2.2,1.9,2.2S238.7,395.9,238.7,394.7z"/>
	<path class="st5" d="M245.1,397.6v-3.8c0-1-0.5-1.3-1.3-1.3c-0.7,0-1.4,0.4-1.7,0.9v4.2h-0.9v-5.8h0.9v0.8c0.4-0.5,1.2-1,2.1-1
		c1.2,0,1.8,0.6,1.8,1.9v4.1H245.1z"/>
	<path class="st5" d="M247.4,394.7c0-1.7,1.2-3,2.9-3c1.8,0,2.8,1.4,2.8,3.1v0.2h-4.7c0.1,1.1,0.8,2,2.1,2c0.7,0,1.3-0.3,1.8-0.7
		l0.4,0.6c-0.6,0.6-1.4,0.9-2.3,0.9C248.7,397.7,247.4,396.5,247.4,394.7z M250.3,392.4c-1.2,0-1.8,1-1.9,1.9h3.8
		C252.2,393.5,251.6,392.4,250.3,392.4z"/>
	<path class="st5" d="M254,396.8l0.5-0.6c0.4,0.4,1.1,0.8,1.9,0.8c0.9,0,1.4-0.4,1.4-1c0-1.4-3.6-0.5-3.6-2.7c0-0.9,0.8-1.7,2.1-1.7
		c1,0,1.7,0.4,2.1,0.8l-0.4,0.6c-0.3-0.4-1-0.7-1.7-0.7c-0.8,0-1.3,0.4-1.3,0.9c0,1.3,3.6,0.4,3.6,2.7c0,1-0.8,1.8-2.3,1.8
		C255.4,397.7,254.6,397.4,254,396.8z"/>
	<path class="st5" d="M267.4,397.6v-0.9c-0.4,0.6-1.1,1-2,1c-1.5,0-2.6-1.2-2.6-3c0-1.9,1.1-3,2.6-3c0.8,0,1.5,0.4,2,1v-3.1h0.9v8
		H267.4z M267.4,396v-2.6c-0.3-0.5-1-0.9-1.7-0.9c-1.2,0-1.9,1-1.9,2.2s0.7,2.2,1.9,2.2C266.4,396.9,267.1,396.5,267.4,396z"/>
	<path class="st5" d="M269.8,394.7c0-1.7,1.2-3,2.9-3c1.8,0,2.8,1.4,2.8,3.1v0.2h-4.7c0.1,1.1,0.8,2,2.1,2c0.7,0,1.3-0.3,1.8-0.7
		l0.4,0.6c-0.6,0.6-1.4,0.9-2.3,0.9C271,397.7,269.8,396.5,269.8,394.7z M272.6,392.4c-1.2,0-1.8,1-1.9,1.9h3.8
		C274.5,393.5,273.9,392.4,272.6,392.4z"/>
	<path class="st5" d="M280.1,396.4v-3.8h-1v-0.8h1v-1.6h0.9v1.6h1.2v0.8h-1.2v3.6c0,0.4,0.2,0.7,0.6,0.7c0.3,0,0.5-0.1,0.6-0.3
		l0.3,0.7c-0.2,0.2-0.6,0.4-1.1,0.4C280.6,397.7,280.1,397.2,280.1,396.4z"/>
	<path class="st5" d="M283.5,397.6v-5.8h0.9v0.9c0.5-0.6,1.1-1.1,1.9-1.1v0.9c-0.1,0-0.2,0-0.3,0c-0.6,0-1.3,0.5-1.6,0.9v4.1H283.5z
		"/>
	<path class="st5" d="M291.1,397.6v-0.7c-0.5,0.5-1.1,0.8-1.9,0.8c-1,0-2-0.7-2-1.9c0-1.3,1-1.9,2-1.9c0.8,0,1.5,0.3,1.9,0.8v-1
		c0-0.8-0.6-1.2-1.5-1.2c-0.7,0-1.3,0.2-1.8,0.8l-0.4-0.6c0.6-0.6,1.4-1,2.3-1c1.2,0,2.2,0.6,2.2,2v4H291.1z M291.1,396.4v-1.1
		c-0.3-0.5-1-0.7-1.6-0.7c-0.9,0-1.4,0.5-1.4,1.3c0,0.7,0.6,1.3,1.4,1.3C290.1,397.1,290.7,396.8,291.1,396.4z"/>
	<path class="st5" d="M294,396.4v-3.8h-1v-0.8h1v-1.6h0.9v1.6h1.2v0.8h-1.2v3.6c0,0.4,0.2,0.7,0.6,0.7c0.3,0,0.5-0.1,0.6-0.3
		l0.3,0.7c-0.2,0.2-0.6,0.4-1.1,0.4C294.4,397.7,294,397.2,294,396.4z"/>
	<path class="st5" d="M300.9,397.6v-0.7c-0.5,0.5-1.1,0.8-1.9,0.8c-1,0-2-0.7-2-1.9c0-1.3,1-1.9,2-1.9c0.8,0,1.5,0.3,1.9,0.8v-1
		c0-0.8-0.6-1.2-1.5-1.2c-0.7,0-1.3,0.2-1.8,0.8l-0.4-0.6c0.6-0.6,1.4-1,2.3-1c1.2,0,2.2,0.6,2.2,2v4H300.9z M300.9,396.4v-1.1
		c-0.3-0.5-1-0.7-1.6-0.7c-0.9,0-1.4,0.5-1.4,1.3c0,0.7,0.6,1.3,1.4,1.3C300,397.1,300.6,396.8,300.9,396.4z"/>
	<path class="st5" d="M310.6,397.6v-3.9c0-0.7-0.3-1.2-1.1-1.2c-0.6,0-1.2,0.4-1.5,0.9v4.2h-0.9v-3.9c0-0.7-0.3-1.2-1.1-1.2
		c-0.6,0-1.2,0.4-1.5,0.9v4.2h-0.9v-5.8h0.9v0.8c0.3-0.4,1-1,1.9-1c0.9,0,1.4,0.5,1.5,1.1c0.3-0.5,1.1-1.1,1.9-1.1
		c1.1,0,1.6,0.6,1.6,1.8v4.2H310.6z"/>
	<path class="st5" d="M313.2,390.4c0-0.3,0.3-0.6,0.6-0.6s0.6,0.3,0.6,0.6s-0.3,0.6-0.6,0.6S313.2,390.7,313.2,390.4z M313.3,397.6
		v-5.8h0.9v5.8H313.3z"/>
	<path class="st5" d="M315.7,394.7c0-1.7,1.2-3,2.9-3c1.8,0,2.8,1.4,2.8,3.1v0.2h-4.7c0.1,1.1,0.8,2,2.1,2c0.7,0,1.3-0.3,1.8-0.7
		l0.4,0.6c-0.6,0.6-1.4,0.9-2.3,0.9C316.9,397.7,315.7,396.5,315.7,394.7z M318.6,392.4c-1.2,0-1.8,1-1.9,1.9h3.8
		C320.4,393.5,319.9,392.4,318.6,392.4z"/>
	<path class="st5" d="M326.7,397.6v-3.8c0-1-0.5-1.3-1.3-1.3c-0.7,0-1.4,0.4-1.7,0.9v4.2h-0.9v-5.8h0.9v0.8c0.4-0.5,1.2-1,2.1-1
		c1.2,0,1.8,0.6,1.8,1.9v4.1H326.7z"/>
	<path class="st5" d="M329.6,396.4v-3.8h-1v-0.8h1v-1.6h0.9v1.6h1.2v0.8h-1.2v3.6c0,0.4,0.2,0.7,0.6,0.7c0.3,0,0.5-0.1,0.6-0.3
		l0.3,0.7c-0.2,0.2-0.6,0.4-1.1,0.4C330,397.7,329.6,397.2,329.6,396.4z"/>
	<path class="st5" d="M332.6,394.7c0-1.7,1.1-3,2.9-3c1.8,0,2.9,1.4,2.9,3s-1.1,3-2.9,3C333.7,397.7,332.6,396.4,332.6,394.7z
		 M337.4,394.7c0-1.2-0.7-2.2-1.9-2.2s-1.9,1.1-1.9,2.2c0,1.2,0.7,2.2,1.9,2.2S337.4,395.9,337.4,394.7z"/>
	<path class="st5" d="M339.3,396.8l0.5-0.6c0.4,0.4,1.1,0.8,1.9,0.8c0.9,0,1.4-0.4,1.4-1c0-1.4-3.6-0.5-3.6-2.7
		c0-0.9,0.8-1.7,2.1-1.7c1,0,1.7,0.4,2.1,0.8l-0.4,0.6c-0.3-0.4-1-0.7-1.7-0.7c-0.8,0-1.3,0.4-1.3,0.9c0,1.3,3.6,0.4,3.6,2.7
		c0,1-0.8,1.8-2.3,1.8C340.7,397.7,339.9,397.4,339.3,396.8z"/>
	<path class="st5" d="M348.2,394.7c0-1.7,1.2-3,2.9-3c1.8,0,2.8,1.4,2.8,3.1v0.2h-4.7c0.1,1.1,0.8,2,2.1,2c0.7,0,1.3-0.3,1.8-0.7
		l0.4,0.6c-0.6,0.6-1.4,0.9-2.3,0.9C349.4,397.7,348.2,396.5,348.2,394.7z M351,392.4c-1.2,0-1.8,1-1.9,1.9h3.8
		C352.9,393.5,352.3,392.4,351,392.4z"/>
	<path class="st5" d="M362.3,397.6v-3.9c0-0.7-0.3-1.2-1.1-1.2c-0.6,0-1.2,0.4-1.5,0.9v4.2h-0.9v-3.9c0-0.7-0.3-1.2-1.1-1.2
		c-0.6,0-1.2,0.4-1.5,0.9v4.2h-0.9v-5.8h0.9v0.8c0.3-0.4,1-1,1.9-1c0.9,0,1.4,0.5,1.5,1.1c0.3-0.5,1.1-1.1,1.9-1.1
		c1.1,0,1.6,0.6,1.6,1.8v4.2H362.3z"/>
	<path class="st5" d="M365,397.6v-8h0.9v3.1c0.5-0.6,1.2-1,2-1c1.5,0,2.6,1.2,2.6,3c0,1.9-1.1,3-2.6,3c-0.8,0-1.5-0.4-2-1v0.9H365z
		 M367.6,396.9c1.2,0,1.9-0.9,1.9-2.2s-0.7-2.2-1.9-2.2c-0.7,0-1.4,0.4-1.7,0.9v2.6C366.2,396.5,366.9,396.9,367.6,396.9z"/>
	<path class="st5" d="M375.5,397.6v-0.7c-0.5,0.5-1.1,0.8-1.9,0.8c-1,0-2-0.7-2-1.9c0-1.3,1-1.9,2-1.9c0.8,0,1.5,0.3,1.9,0.8v-1
		c0-0.8-0.6-1.2-1.5-1.2c-0.7,0-1.3,0.2-1.8,0.8l-0.4-0.6c0.6-0.6,1.4-1,2.3-1c1.2,0,2.2,0.6,2.2,2v4H375.5z M375.5,396.4v-1.1
		c-0.3-0.5-1-0.7-1.6-0.7c-0.9,0-1.4,0.5-1.4,1.3c0,0.7,0.6,1.3,1.4,1.3C374.5,397.1,375.1,396.8,375.5,396.4z"/>
	<path class="st5" d="M378.2,397.6v-5.8h0.9v0.9c0.5-0.6,1.1-1.1,1.9-1.1v0.9c-0.1,0-0.2,0-0.3,0c-0.6,0-1.3,0.5-1.6,0.9v4.1H378.2z
		"/>
	<path class="st5" d="M381.8,394.7c0-1.7,1.2-3,2.9-3c1.1,0,1.7,0.4,2.1,1l-0.6,0.5c-0.4-0.5-0.9-0.7-1.5-0.7c-1.2,0-2,0.9-2,2.2
		s0.8,2.2,2,2.2c0.6,0,1.1-0.2,1.5-0.8l0.6,0.6c-0.4,0.6-1.1,1-2.1,1C383,397.7,381.8,396.4,381.8,394.7z"/>
	<path class="st5" d="M391.7,397.6v-0.7c-0.5,0.5-1.1,0.8-1.9,0.8c-1,0-2-0.7-2-1.9c0-1.3,1-1.9,2-1.9c0.8,0,1.5,0.3,1.9,0.8v-1
		c0-0.8-0.6-1.2-1.5-1.2c-0.7,0-1.3,0.2-1.8,0.8l-0.4-0.6c0.6-0.6,1.4-1,2.3-1c1.2,0,2.2,0.6,2.2,2v4H391.7z M391.7,396.4v-1.1
		c-0.3-0.5-1-0.7-1.6-0.7c-0.9,0-1.4,0.5-1.4,1.3c0,0.7,0.6,1.3,1.4,1.3C390.8,397.1,391.4,396.8,391.7,396.4z"/>
	<path class="st5" d="M398.6,397.6v-0.9c-0.4,0.6-1.1,1-2,1c-1.5,0-2.6-1.2-2.6-3c0-1.9,1.1-3,2.6-3c0.8,0,1.5,0.4,2,1v-3.1h0.9v8
		H398.6z M398.6,396v-2.6c-0.3-0.5-1-0.9-1.7-0.9c-1.2,0-1.9,1-1.9,2.2s0.7,2.2,1.9,2.2C397.6,396.9,398.3,396.5,398.6,396z"/>
	<path class="st5" d="M401,394.7c0-1.7,1.1-3,2.9-3c1.8,0,2.9,1.4,2.9,3s-1.1,3-2.9,3C402.1,397.7,401,396.4,401,394.7z
		 M405.8,394.7c0-1.2-0.7-2.2-1.9-2.2s-1.9,1.1-1.9,2.2c0,1.2,0.7,2.2,1.9,2.2S405.8,395.9,405.8,394.7z"/>
	<path class="st5" d="M407.7,396.8l0.5-0.6c0.4,0.4,1.1,0.8,1.9,0.8c0.9,0,1.4-0.4,1.4-1c0-1.4-3.6-0.5-3.6-2.7
		c0-0.9,0.8-1.7,2.1-1.7c1,0,1.7,0.4,2.1,0.8l-0.4,0.6c-0.3-0.4-1-0.7-1.7-0.7c-0.8,0-1.3,0.4-1.3,0.9c0,1.3,3.6,0.4,3.6,2.7
		c0,1-0.8,1.8-2.3,1.8C409.1,397.7,408.3,397.4,407.7,396.8z"/>
	<path class="st5" d="M416.6,394.7c0-1.7,1.2-3,2.9-3c1.8,0,2.8,1.4,2.8,3.1v0.2h-4.7c0.1,1.1,0.8,2,2.1,2c0.7,0,1.3-0.3,1.8-0.7
		l0.4,0.6c-0.6,0.6-1.4,0.9-2.3,0.9C417.8,397.7,416.6,396.5,416.6,394.7z M419.4,392.4c-1.2,0-1.8,1-1.9,1.9h3.8
		C421.3,393.5,420.7,392.4,419.4,392.4z"/>
	<path class="st5" d="M427.6,397.6v-3.8c0-1-0.5-1.3-1.3-1.3c-0.7,0-1.4,0.4-1.7,0.9v4.2h-0.9v-5.8h0.9v0.8c0.4-0.5,1.2-1,2.1-1
		c1.2,0,1.8,0.6,1.8,1.9v4.1H427.6z"/>
	<path class="st5" d="M433,394.7c0-1.7,1.2-3,2.9-3c1.8,0,2.8,1.4,2.8,3.1v0.2H434c0.1,1.1,0.8,2,2.1,2c0.7,0,1.3-0.3,1.8-0.7
		l0.4,0.6c-0.6,0.6-1.4,0.9-2.3,0.9C434.3,397.7,433,396.5,433,394.7z M435.9,392.4c-1.2,0-1.8,1-1.9,1.9h3.8
		C437.8,393.5,437.2,392.4,435.9,392.4z"/>
	<path class="st5" d="M440.1,397.6v-8h0.9v8H440.1z"/>
	<path class="st5" d="M449.6,397.6v-0.7c-0.5,0.5-1.1,0.8-1.9,0.8c-1,0-2-0.7-2-1.9c0-1.3,1-1.9,2-1.9c0.8,0,1.5,0.3,1.9,0.8v-1
		c0-0.8-0.6-1.2-1.5-1.2c-0.7,0-1.3,0.2-1.8,0.8l-0.4-0.6c0.6-0.6,1.4-1,2.3-1c1.2,0,2.2,0.6,2.2,2v4H449.6z M449.6,396.4v-1.1
		c-0.3-0.5-1-0.7-1.6-0.7c-0.9,0-1.4,0.5-1.4,1.3c0,0.7,0.6,1.3,1.4,1.3C448.6,397.1,449.2,396.8,449.6,396.4z"/>
	<path class="st5" d="M456.2,397.6v-3.8c0-1-0.5-1.3-1.3-1.3c-0.7,0-1.4,0.4-1.7,0.9v4.2h-0.9v-5.8h0.9v0.8c0.4-0.5,1.2-1,2.1-1
		c1.2,0,1.8,0.6,1.8,1.9v4.1H456.2z M453.9,389.8c-0.3,0-0.6,0.3-0.6,1h-0.5c0-0.9,0.4-1.6,1.2-1.6c0.9,0,0.9,1.1,1.5,1.1
		c0.3,0,0.6-0.3,0.6-1h0.5c0,0.9-0.4,1.6-1.2,1.6C454.5,390.9,454.5,389.8,453.9,389.8z"/>
	<path class="st5" d="M458.6,394.7c0-1.7,1.1-3,2.9-3c1.8,0,2.9,1.4,2.9,3s-1.1,3-2.9,3C459.7,397.7,458.6,396.4,458.6,394.7z
		 M463.4,394.7c0-1.2-0.7-2.2-1.9-2.2s-1.9,1.1-1.9,2.2c0,1.2,0.7,2.2,1.9,2.2S463.4,395.9,463.4,394.7z"/>
	<path class="st5" d="M468.5,394.7c0-1.7,1.2-3,2.9-3c1.1,0,1.7,0.4,2.1,1l-0.6,0.5c-0.4-0.5-0.9-0.7-1.5-0.7c-1.2,0-2,0.9-2,2.2
		s0.8,2.2,2,2.2c0.6,0,1.1-0.2,1.5-0.8l0.6,0.6c-0.4,0.6-1.1,1-2.1,1C469.7,397.7,468.5,396.4,468.5,394.7z"/>
	<path class="st5" d="M478.4,397.6v-0.7c-0.5,0.5-1.1,0.8-1.9,0.8c-1,0-2-0.7-2-1.9c0-1.3,1-1.9,2-1.9c0.8,0,1.5,0.3,1.9,0.8v-1
		c0-0.8-0.6-1.2-1.5-1.2c-0.7,0-1.3,0.2-1.8,0.8l-0.4-0.6c0.6-0.6,1.4-1,2.3-1c1.2,0,2.2,0.6,2.2,2v4H478.4z M478.4,396.4v-1.1
		c-0.3-0.5-1-0.7-1.6-0.7c-0.9,0-1.4,0.5-1.4,1.3c0,0.7,0.6,1.3,1.4,1.3C477.5,397.1,478.1,396.8,478.4,396.4z"/>
	<path class="st5" d="M481.2,397.6v-8h0.9v8H481.2z"/>
	<path class="st5" d="M483.5,394.7c0-1.7,1.2-3,2.9-3c1.8,0,2.8,1.4,2.8,3.1v0.2h-4.7c0.1,1.1,0.8,2,2.1,2c0.7,0,1.3-0.3,1.8-0.7
		l0.4,0.6c-0.6,0.6-1.4,0.9-2.3,0.9C484.8,397.7,483.5,396.5,483.5,394.7z M486.4,392.4c-1.2,0-1.8,1-1.9,1.9h3.8
		C488.3,393.5,487.7,392.4,486.4,392.4z"/>
	<path class="st5" d="M494.5,397.6v-3.8c0-1-0.5-1.3-1.3-1.3c-0.7,0-1.4,0.4-1.7,0.9v4.2h-0.9v-5.8h0.9v0.8c0.4-0.5,1.2-1,2.1-1
		c1.2,0,1.8,0.6,1.8,1.9v4.1H494.5z"/>
	<path class="st5" d="M501.4,397.6v-0.9c-0.4,0.6-1.1,1-2,1c-1.5,0-2.6-1.2-2.6-3c0-1.9,1.1-3,2.6-3c0.8,0,1.5,0.4,2,1v-3.1h0.9v8
		H501.4z M501.4,396v-2.6c-0.3-0.5-1-0.9-1.7-0.9c-1.2,0-1.9,1-1.9,2.2s0.7,2.2,1.9,2.2C500.4,396.9,501.1,396.5,501.4,396z"/>
	<path class="st5" d="M507.8,397.6v-0.7c-0.5,0.5-1.1,0.8-1.9,0.8c-1,0-2-0.7-2-1.9c0-1.3,1-1.9,2-1.9c0.8,0,1.5,0.3,1.9,0.8v-1
		c0-0.8-0.6-1.2-1.5-1.2c-0.7,0-1.3,0.2-1.8,0.8l-0.4-0.6c0.6-0.6,1.4-1,2.3-1c1.2,0,2.2,0.6,2.2,2v4H507.8z M507.8,396.4v-1.1
		c-0.3-0.5-1-0.7-1.6-0.7c-0.9,0-1.4,0.5-1.4,1.3c0,0.7,0.6,1.3,1.4,1.3C506.8,397.1,507.4,396.8,507.8,396.4z"/>
	<path class="st5" d="M510.5,397.6v-5.8h0.9v0.9c0.5-0.6,1.1-1.1,1.9-1.1v0.9c-0.1,0-0.2,0-0.3,0c-0.6,0-1.3,0.5-1.6,0.9v4.1H510.5z
		"/>
	<path class="st5" d="M514.3,390.4c0-0.3,0.3-0.6,0.6-0.6s0.6,0.3,0.6,0.6s-0.3,0.6-0.6,0.6S514.3,390.7,514.3,390.4z M514.4,397.6
		v-5.8h0.9v5.8H514.4z"/>
	<path class="st5" d="M516.8,394.7c0-1.7,1.1-3,2.9-3c1.8,0,2.9,1.4,2.9,3s-1.1,3-2.9,3C517.9,397.7,516.8,396.4,516.8,394.7z
		 M521.6,394.7c0-1.2-0.7-2.2-1.9-2.2s-1.9,1.1-1.9,2.2c0,1.2,0.7,2.2,1.9,2.2S521.6,395.9,521.6,394.7z"/>
	<path class="st5" d="M531.3,397.6v-0.9c-0.4,0.6-1.1,1-2,1c-1.5,0-2.6-1.2-2.6-3c0-1.9,1.1-3,2.6-3c0.8,0,1.5,0.4,2,1v-3.1h0.9v8
		H531.3z M531.3,396v-2.6c-0.3-0.5-1-0.9-1.7-0.9c-1.2,0-1.9,1-1.9,2.2s0.7,2.2,1.9,2.2C530.3,396.9,531,396.5,531.3,396z"/>
	<path class="st5" d="M533.7,394.7c0-1.7,1.2-3,2.9-3c1.8,0,2.8,1.4,2.8,3.1v0.2h-4.7c0.1,1.1,0.8,2,2.1,2c0.7,0,1.3-0.3,1.8-0.7
		l0.4,0.6c-0.6,0.6-1.4,0.9-2.3,0.9C534.9,397.7,533.7,396.5,533.7,394.7z M536.5,392.4c-1.2,0-1.8,1-1.9,1.9h3.8
		C538.4,393.5,537.8,392.4,536.5,392.4z"/>
	<path class="st5" d="M543.6,397.6v-0.8c2.9-2.3,4.5-3.6,4.5-5c0-1-0.9-1.5-1.7-1.5c-1,0-1.7,0.4-2.2,1l-0.6-0.6
		c0.6-0.8,1.7-1.3,2.8-1.3c1.3,0,2.7,0.8,2.7,2.4c0,1.6-1.7,3.1-3.9,4.9h3.9v0.9H543.6z"/>
	<path class="st5" d="M550.6,393.6c0-2,0.9-4.1,3.1-4.1c2.2,0,3.1,2.2,3.1,4.1c0,1.9-0.9,4.1-3.1,4.1
		C551.5,397.7,550.6,395.5,550.6,393.6z M555.7,393.6c0-1.6-0.5-3.2-2-3.2s-2,1.6-2,3.2c0,1.6,0.5,3.3,2,3.3
		S555.7,395.2,555.7,393.6z"/>
	<path class="st5" d="M559.5,397.6v-6.7l-1.3,1.4l-0.6-0.6l2-2.1h0.9v8H559.5z"/>
	<path class="st5" d="M562.2,396.5l0.6-0.7c0.5,0.7,1.2,1.1,2.2,1.1c1.1,0,1.8-0.7,1.8-1.7c0-1.1-0.8-1.7-1.8-1.7
		c-0.7,0-1.3,0.2-1.8,0.7l-0.7-0.3v-4.3h4.9v0.9h-3.9v2.8c0.4-0.4,1.1-0.7,1.9-0.7c1.3,0,2.6,0.9,2.6,2.6c0,1.6-1.2,2.6-2.9,2.6
		C563.7,397.7,562.8,397.2,562.2,396.5z"/>
	<path class="st5" d="M572.3,399c0.1,0.1,0.3,0.1,0.5,0.1c0.4,0,0.7-0.1,0.9-0.6l0.4-0.9l-2.4-5.9h1l1.9,4.8l1.9-4.8h1l-2.9,7
		c-0.3,0.8-0.9,1.2-1.7,1.2c-0.2,0-0.5,0-0.6-0.1L572.3,399z"/>
	<path class="st5" d="M582.8,397.6v-6.7l-1.3,1.4l-0.6-0.6l2-2.1h0.9v8H582.8z"/>
	<path class="st5" d="M585.3,397.6v-0.8c2.9-2.3,4.5-3.6,4.5-5c0-1-0.9-1.5-1.7-1.5c-1,0-1.7,0.4-2.2,1l-0.6-0.6
		c0.6-0.8,1.7-1.3,2.8-1.3c1.3,0,2.7,0.8,2.7,2.4c0,1.6-1.7,3.1-3.9,4.9h3.9v0.9H585.3z"/>
	<path class="st5" d="M592.4,393.6c0-2,0.9-4.1,3.1-4.1c2.2,0,3.1,2.2,3.1,4.1c0,1.9-0.9,4.1-3.1,4.1
		C593.2,397.7,592.4,395.5,592.4,393.6z M597.4,393.6c0-1.6-0.5-3.2-2-3.2s-2,1.6-2,3.2c0,1.6,0.5,3.3,2,3.3
		S597.4,395.2,597.4,393.6z"/>
	<path class="st5" d="M10.7,411.6v-3.9c0-0.7-0.3-1.2-1.1-1.2c-0.6,0-1.2,0.4-1.5,0.9v4.2H7.2v-3.9c0-0.7-0.3-1.2-1.1-1.2
		c-0.6,0-1.2,0.4-1.5,0.9v4.2H3.7v-5.8h0.9v0.8c0.3-0.4,1-1,1.9-1c0.9,0,1.4,0.5,1.5,1.1c0.3-0.5,1.1-1.1,1.9-1.1
		c1.1,0,1.6,0.6,1.6,1.8v4.2H10.7z"/>
	<path class="st5" d="M13.3,404.4c0-0.3,0.3-0.6,0.6-0.6c0.3,0,0.6,0.3,0.6,0.6s-0.3,0.6-0.6,0.6C13.5,405,13.3,404.7,13.3,404.4z
		 M13.4,411.6v-5.8h0.9v5.8H13.4z"/>
	<path class="st5" d="M16.1,411.6v-8H17v8H16.1z"/>
	<path class="st5" d="M18.8,411.6v-8h0.9v8H18.8z"/>
	<path class="st5" d="M21.2,408.7c0-1.7,1.1-3,2.9-3s2.9,1.4,2.9,3s-1.1,3-2.9,3S21.2,410.4,21.2,408.7z M26,408.7
		c0-1.2-0.7-2.2-1.9-2.2s-1.9,1.1-1.9,2.2c0,1.2,0.7,2.2,1.9,2.2S26,409.9,26,408.7z"/>
	<path class="st5" d="M32.3,411.6v-3.8c0-1-0.5-1.3-1.3-1.3c-0.7,0-1.4,0.4-1.7,0.9v4.2h-0.9v-5.8h0.9v0.8c0.4-0.5,1.2-1,2.1-1
		c1.2,0,1.8,0.6,1.8,1.9v4.1H32.3z"/>
	<path class="st5" d="M34.7,408.7c0-1.7,1.2-3,2.9-3c1.8,0,2.8,1.4,2.8,3.1v0.2h-4.7c0.1,1.1,0.8,2,2.1,2c0.7,0,1.3-0.3,1.8-0.7
		l0.4,0.6c-0.6,0.6-1.4,0.9-2.3,0.9C35.9,411.7,34.7,410.5,34.7,408.7z M37.5,406.4c-1.2,0-1.8,1-1.9,1.9h3.8
		C39.4,407.5,38.8,406.4,37.5,406.4z"/>
	<path class="st5" d="M41.3,410.8l0.5-0.6c0.4,0.4,1.1,0.8,1.9,0.8c0.9,0,1.4-0.4,1.4-1c0-1.4-3.6-0.5-3.6-2.7
		c0-0.9,0.8-1.7,2.1-1.7c1,0,1.7,0.4,2.1,0.8l-0.4,0.6c-0.3-0.4-1-0.7-1.7-0.7c-0.8,0-1.3,0.4-1.3,0.9c0,1.3,3.6,0.4,3.6,2.7
		c0,1-0.8,1.8-2.3,1.8C42.6,411.7,41.8,411.4,41.3,410.8z"/>
	<path class="st5" d="M54.6,411.6v-0.9c-0.4,0.6-1.1,1-2,1c-1.5,0-2.6-1.2-2.6-3c0-1.9,1.1-3,2.6-3c0.8,0,1.5,0.4,2,1v-3.1h0.9v8
		H54.6z M54.6,410v-2.6c-0.3-0.5-1-0.9-1.7-0.9c-1.2,0-1.9,1-1.9,2.2s0.7,2.2,1.9,2.2C53.6,410.9,54.3,410.5,54.6,410z"/>
	<path class="st5" d="M57,408.7c0-1.7,1.2-3,2.9-3c1.8,0,2.8,1.4,2.8,3.1v0.2H58c0.1,1.1,0.8,2,2.1,2c0.7,0,1.3-0.3,1.8-0.7l0.4,0.6
		c-0.6,0.6-1.4,0.9-2.3,0.9C58.2,411.7,57,410.5,57,408.7z M59.8,406.4c-1.2,0-1.8,1-1.9,1.9h3.8C61.7,407.5,61.2,406.4,59.8,406.4z
		"/>
	<path class="st5" d="M67.4,410.4v-3.8h-1v-0.8h1v-1.6h0.9v1.6h1.2v0.8h-1.2v3.6c0,0.4,0.2,0.7,0.6,0.7c0.3,0,0.5-0.1,0.6-0.3
		l0.3,0.7c-0.2,0.2-0.6,0.4-1.1,0.4C67.8,411.7,67.4,411.2,67.4,410.4z"/>
	<path class="st5" d="M70.7,411.6v-5.8h0.9v0.9c0.5-0.6,1.1-1.1,1.9-1.1v0.9c-0.1,0-0.2,0-0.3,0c-0.6,0-1.3,0.5-1.6,0.9v4.1H70.7z"
		/>
	<path class="st5" d="M78.3,411.6v-0.7c-0.5,0.5-1.1,0.8-1.9,0.8c-1,0-2-0.7-2-1.9c0-1.3,1-1.9,2-1.9c0.8,0,1.5,0.3,1.9,0.8v-1
		c0-0.8-0.6-1.2-1.5-1.2c-0.7,0-1.3,0.2-1.8,0.8l-0.4-0.6c0.6-0.6,1.4-1,2.3-1c1.2,0,2.2,0.6,2.2,2v4H78.3z M78.3,410.4v-1.1
		c-0.3-0.5-1-0.7-1.6-0.7c-0.9,0-1.4,0.5-1.4,1.3c0,0.7,0.6,1.3,1.4,1.3C77.4,411.1,78,410.8,78.3,410.4z"/>
	<path class="st5" d="M81.2,410.4v-3.8h-1v-0.8h1v-1.6h0.9v1.6h1.2v0.8h-1.2v3.6c0,0.4,0.2,0.7,0.6,0.7c0.3,0,0.5-0.1,0.6-0.3
		l0.3,0.7c-0.2,0.2-0.6,0.4-1.1,0.4C81.6,411.7,81.2,411.2,81.2,410.4z"/>
	<path class="st5" d="M88.2,411.6v-0.7c-0.5,0.5-1.1,0.8-1.9,0.8c-1,0-2-0.7-2-1.9c0-1.3,1-1.9,2-1.9c0.8,0,1.5,0.3,1.9,0.8v-1
		c0-0.8-0.6-1.2-1.5-1.2c-0.7,0-1.3,0.2-1.8,0.8l-0.4-0.6c0.6-0.6,1.4-1,2.3-1c1.2,0,2.2,0.6,2.2,2v4H88.2z M88.2,410.4v-1.1
		c-0.3-0.5-1-0.7-1.6-0.7c-0.9,0-1.4,0.5-1.4,1.3c0,0.7,0.6,1.3,1.4,1.3C87.2,411.1,87.8,410.8,88.2,410.4z"/>
	<path class="st5" d="M97.9,411.6v-3.9c0-0.7-0.3-1.2-1.1-1.2c-0.6,0-1.2,0.4-1.5,0.9v4.2h-0.9v-3.9c0-0.7-0.3-1.2-1.1-1.2
		c-0.6,0-1.2,0.4-1.5,0.9v4.2h-0.9v-5.8h0.9v0.8c0.3-0.4,1-1,1.9-1c0.9,0,1.4,0.5,1.5,1.1c0.3-0.5,1.1-1.1,1.9-1.1
		c1.1,0,1.6,0.6,1.6,1.8v4.2H97.9z"/>
	<path class="st5" d="M100.4,404.4c0-0.3,0.3-0.6,0.6-0.6c0.3,0,0.6,0.3,0.6,0.6s-0.3,0.6-0.6,0.6
		C100.7,405,100.4,404.7,100.4,404.4z M100.6,411.6v-5.8h0.9v5.8H100.6z"/>
	<path class="st5" d="M103,408.7c0-1.7,1.2-3,2.9-3c1.8,0,2.8,1.4,2.8,3.1v0.2h-4.7c0.1,1.1,0.8,2,2.1,2c0.7,0,1.3-0.3,1.8-0.7
		l0.4,0.6c-0.6,0.6-1.4,0.9-2.3,0.9C104.2,411.7,103,410.5,103,408.7z M105.8,406.4c-1.2,0-1.8,1-1.9,1.9h3.8
		C107.7,407.5,107.1,406.4,105.8,406.4z"/>
	<path class="st5" d="M114,411.6v-3.8c0-1-0.5-1.3-1.3-1.3c-0.7,0-1.4,0.4-1.7,0.9v4.2H110v-5.8h0.9v0.8c0.4-0.5,1.2-1,2.1-1
		c1.2,0,1.8,0.6,1.8,1.9v4.1H114z"/>
	<path class="st5" d="M116.8,410.4v-3.8h-1v-0.8h1v-1.6h0.9v1.6h1.2v0.8h-1.2v3.6c0,0.4,0.2,0.7,0.6,0.7c0.3,0,0.5-0.1,0.6-0.3
		l0.3,0.7c-0.2,0.2-0.6,0.4-1.1,0.4C117.3,411.7,116.8,411.2,116.8,410.4z"/>
	<path class="st5" d="M119.9,408.7c0-1.7,1.1-3,2.9-3s2.9,1.4,2.9,3s-1.1,3-2.9,3S119.9,410.4,119.9,408.7z M124.6,408.7
		c0-1.2-0.7-2.2-1.9-2.2s-1.9,1.1-1.9,2.2c0,1.2,0.7,2.2,1.9,2.2S124.6,409.9,124.6,408.7z"/>
	<path class="st5" d="M126.6,410.8l0.5-0.6c0.4,0.4,1.1,0.8,1.9,0.8c0.9,0,1.4-0.4,1.4-1c0-1.4-3.6-0.5-3.6-2.7
		c0-0.9,0.8-1.7,2.1-1.7c1,0,1.7,0.4,2.1,0.8l-0.4,0.6c-0.3-0.4-1-0.7-1.7-0.7c-0.8,0-1.3,0.4-1.3,0.9c0,1.3,3.6,0.4,3.6,2.7
		c0,1-0.8,1.8-2.3,1.8C127.9,411.7,127.2,411.4,126.6,410.8z"/>
	<path class="st5" d="M136.6,410.7v3.1h-0.9v-8h0.9v0.9c0.4-0.6,1.1-1,2-1c1.5,0,2.6,1.2,2.6,3c0,1.9-1.1,3-2.6,3
		C137.8,411.7,137.1,411.3,136.6,410.7z M140.2,408.7c0-1.3-0.7-2.2-1.9-2.2c-0.7,0-1.4,0.4-1.7,0.9v2.6c0.3,0.5,1,0.9,1.7,0.9
		C139.5,410.9,140.2,410,140.2,408.7z"/>
	<path class="st5" d="M142.6,411.6v-8h0.9v8H142.6z"/>
	<path class="st5" d="M148.9,411.6v-0.7c-0.5,0.5-1.1,0.8-1.9,0.8c-1,0-2-0.7-2-1.9c0-1.3,1-1.9,2-1.9c0.8,0,1.5,0.3,1.9,0.8v-1
		c0-0.8-0.6-1.2-1.5-1.2c-0.7,0-1.3,0.2-1.8,0.8l-0.4-0.6c0.6-0.6,1.4-1,2.3-1c1.2,0,2.2,0.6,2.2,2v4H148.9z M148.9,410.4v-1.1
		c-0.3-0.5-1-0.7-1.6-0.7c-0.9,0-1.4,0.5-1.4,1.3c0,0.7,0.6,1.3,1.4,1.3C148,411.1,148.6,410.8,148.9,410.4z"/>
	<path class="st5" d="M155.6,411.6v-3.8c0-1-0.5-1.3-1.3-1.3c-0.7,0-1.4,0.4-1.7,0.9v4.2h-0.9v-5.8h0.9v0.8c0.4-0.5,1.2-1,2.1-1
		c1.2,0,1.8,0.6,1.8,1.9v4.1H155.6z"/>
	<path class="st5" d="M158.1,404.4c0-0.3,0.3-0.6,0.6-0.6c0.3,0,0.6,0.3,0.6,0.6s-0.3,0.6-0.6,0.6
		C158.4,405,158.1,404.7,158.1,404.4z M158.3,411.6v-5.8h0.9v5.8H158.3z"/>
	<path class="st5" d="M161.2,411.6v-5h-1v-0.8h1v-0.4c0-1.2,0.7-1.9,1.7-1.9c0.3,0,0.6,0.1,0.9,0.2l-0.2,0.7
		c-0.1-0.1-0.3-0.1-0.5-0.1c-0.6,0-0.9,0.4-0.9,1.1v0.4h1.2v0.8h-1.2v5H161.2z M164.2,404.4c0-0.3,0.3-0.6,0.6-0.6
		c0.3,0,0.6,0.3,0.6,0.6s-0.3,0.6-0.6,0.6C164.5,405,164.2,404.7,164.2,404.4z M164.4,411.6v-5.8h0.9v5.8H164.4z"/>
	<path class="st5" d="M166.7,408.7c0-1.7,1.2-3,2.9-3c1.1,0,1.7,0.4,2.1,1l-0.6,0.5c-0.4-0.5-0.9-0.7-1.5-0.7c-1.2,0-2,0.9-2,2.2
		s0.8,2.2,2,2.2c0.6,0,1.1-0.2,1.5-0.8l0.6,0.6c-0.4,0.6-1.1,1-2.1,1C167.9,411.7,166.7,410.4,166.7,408.7z"/>
	<path class="st5" d="M176.7,411.6v-0.7c-0.5,0.5-1.1,0.8-1.9,0.8c-1,0-2-0.7-2-1.9c0-1.3,1-1.9,2-1.9c0.8,0,1.5,0.3,1.9,0.8v-1
		c0-0.8-0.6-1.2-1.5-1.2c-0.7,0-1.3,0.2-1.8,0.8l-0.4-0.6c0.6-0.6,1.4-1,2.3-1c1.2,0,2.2,0.6,2.2,2v4H176.7z M176.7,410.4v-1.1
		c-0.3-0.5-1-0.7-1.6-0.7c-0.9,0-1.4,0.5-1.4,1.3c0,0.7,0.6,1.3,1.4,1.3C175.7,411.1,176.3,410.8,176.7,410.4z"/>
	<path class="st5" d="M183.6,411.6v-0.9c-0.4,0.6-1.1,1-2,1c-1.5,0-2.6-1.2-2.6-3c0-1.9,1.1-3,2.6-3c0.8,0,1.5,0.4,2,1v-3.1h0.9v8
		H183.6z M183.6,410v-2.6c-0.3-0.5-1-0.9-1.7-0.9c-1.2,0-1.9,1-1.9,2.2s0.7,2.2,1.9,2.2C182.5,410.9,183.2,410.5,183.6,410z"/>
	<path class="st5" d="M185.9,408.7c0-1.7,1.1-3,2.9-3s2.9,1.4,2.9,3s-1.1,3-2.9,3S185.9,410.4,185.9,408.7z M190.7,408.7
		c0-1.2-0.7-2.2-1.9-2.2s-1.9,1.1-1.9,2.2c0,1.2,0.7,2.2,1.9,2.2S190.7,409.9,190.7,408.7z"/>
	<path class="st5" d="M192.6,410.8l0.5-0.6c0.4,0.4,1.1,0.8,1.9,0.8c0.9,0,1.4-0.4,1.4-1c0-1.4-3.6-0.5-3.6-2.7
		c0-0.9,0.8-1.7,2.1-1.7c1,0,1.7,0.4,2.1,0.8l-0.4,0.6c-0.3-0.4-1-0.7-1.7-0.7c-0.8,0-1.3,0.4-1.3,0.9c0,1.3,3.6,0.4,3.6,2.7
		c0,1-0.8,1.8-2.3,1.8C194,411.7,193.2,411.4,192.6,410.8z"/>
	<path class="st5" d="M202.7,410.7v3.1h-0.9v-8h0.9v0.9c0.4-0.6,1.1-1,2-1c1.5,0,2.6,1.2,2.6,3c0,1.9-1.1,3-2.6,3
		C203.9,411.7,203.2,411.3,202.7,410.7z M206.3,408.7c0-1.3-0.7-2.2-1.9-2.2c-0.7,0-1.4,0.4-1.7,0.9v2.6c0.3,0.5,1,0.9,1.7,0.9
		C205.6,410.9,206.3,410,206.3,408.7z"/>
	<path class="st5" d="M212.3,411.6v-0.7c-0.5,0.5-1.1,0.8-1.9,0.8c-1,0-2-0.7-2-1.9c0-1.3,1-1.9,2-1.9c0.8,0,1.5,0.3,1.9,0.8v-1
		c0-0.8-0.6-1.2-1.5-1.2c-0.7,0-1.3,0.2-1.8,0.8l-0.4-0.6c0.6-0.6,1.4-1,2.3-1c1.2,0,2.2,0.6,2.2,2v4H212.3z M212.3,410.4v-1.1
		c-0.3-0.5-1-0.7-1.6-0.7c-0.9,0-1.4,0.5-1.4,1.3c0,0.7,0.6,1.3,1.4,1.3C211.3,411.1,212,410.8,212.3,410.4z"/>
	<path class="st5" d="M215,411.6v-5.8h0.9v0.9c0.5-0.6,1.1-1.1,1.9-1.1v0.9c-0.1,0-0.2,0-0.3,0c-0.6,0-1.3,0.5-1.6,0.9v4.1H215z"/>
	<path class="st5" d="M222.6,411.6v-0.7c-0.5,0.5-1.1,0.8-1.9,0.8c-1,0-2-0.7-2-1.9c0-1.3,1-1.9,2-1.9c0.8,0,1.5,0.3,1.9,0.8v-1
		c0-0.8-0.6-1.2-1.5-1.2c-0.7,0-1.3,0.2-1.8,0.8l-0.4-0.6c0.6-0.6,1.4-1,2.3-1c1.2,0,2.2,0.6,2.2,2v4H222.6z M222.6,410.4v-1.1
		c-0.3-0.5-1-0.7-1.6-0.7c-0.9,0-1.4,0.5-1.4,1.3c0,0.7,0.6,1.3,1.4,1.3C221.6,411.1,222.2,410.8,222.6,410.4z"/>
	<path class="st5" d="M228.2,411.6v-0.8c2.9-2.3,4.4-3.6,4.4-5c0-1-0.9-1.5-1.7-1.5c-1,0-1.7,0.4-2.2,1l-0.6-0.6
		c0.6-0.8,1.7-1.3,2.8-1.3c1.3,0,2.7,0.8,2.7,2.4c0,1.6-1.7,3.1-3.9,4.9h3.9v0.9H228.2z"/>
	<path class="st5" d="M235.2,407.6c0-2,0.9-4.1,3.1-4.1c2.2,0,3.1,2.2,3.1,4.1c0,1.9-0.9,4.1-3.1,4.1
		C236.1,411.7,235.2,409.5,235.2,407.6z M240.3,407.6c0-1.6-0.5-3.2-2-3.2c-1.5,0-2,1.6-2,3.2c0,1.6,0.5,3.3,2,3.3
		C239.8,410.8,240.3,409.2,240.3,407.6z"/>
	<path class="st5" d="M244.1,411.6v-6.7l-1.3,1.4l-0.6-0.6l2-2.1h0.9v8H244.1z"/>
	<path class="st5" d="M246.6,407.6c0-2.2,1-4.1,3.3-4.1c1,0,1.7,0.4,2.2,1l-0.5,0.7c-0.4-0.5-0.9-0.8-1.7-0.8
		c-1.6,0-2.3,1.6-2.3,3.1c0,0.1,0,0.2,0,0.3c0.3-0.6,1.2-1.2,2.3-1.2c1.4,0,2.6,0.9,2.6,2.6c0,1.4-1.1,2.6-2.8,2.6
		C247.5,411.7,246.6,409.8,246.6,407.6z M251.5,409.2c0-1.2-0.8-1.7-1.8-1.7c-0.8,0-1.6,0.5-2,1.2c0.1,1,0.6,2.2,2,2.2
		C250.9,410.8,251.5,409.9,251.5,409.2z"/>
	<path class="st5" d="M254.2,413.1l-0.5-0.4c0.4-0.3,0.7-0.7,0.8-1.1c0,0-0.1,0-0.2,0c-0.3,0-0.6-0.3-0.6-0.6s0.3-0.6,0.6-0.6
		c0.4,0,0.8,0.3,0.8,0.9C255.2,412,254.8,412.7,254.2,413.1z"/>
	<path class="st5" d="M264,411.6v-0.9c-0.4,0.6-1.1,1-2,1c-1.5,0-2.6-1.2-2.6-3c0-1.9,1.1-3,2.6-3c0.8,0,1.5,0.4,2,1v-3.1h0.9v8H264
		z M264,410v-2.6c-0.3-0.5-1-0.9-1.7-0.9c-1.2,0-1.9,1-1.9,2.2s0.7,2.2,1.9,2.2C263,410.9,263.7,410.5,264,410z"/>
	<path class="st5" d="M266.4,408.7c0-1.7,1.2-3,2.9-3c1.8,0,2.8,1.4,2.8,3.1v0.2h-4.7c0.1,1.1,0.8,2,2.1,2c0.7,0,1.3-0.3,1.8-0.7
		l0.4,0.6c-0.6,0.6-1.4,0.9-2.3,0.9C267.6,411.7,266.4,410.5,266.4,408.7z M269.3,406.4c-1.2,0-1.8,1-1.9,1.9h3.8
		C271.1,407.5,270.6,406.4,269.3,406.4z"/>
	<path class="st5" d="M276.6,411.6v-8h0.9v8H276.6z"/>
	<path class="st5" d="M279,408.7c0-1.7,1.1-3,2.9-3s2.9,1.4,2.9,3s-1.1,3-2.9,3S279,410.4,279,408.7z M283.8,408.7
		c0-1.2-0.7-2.2-1.9-2.2s-1.9,1.1-1.9,2.2c0,1.2,0.7,2.2,1.9,2.2S283.8,409.9,283.8,408.7z"/>
	<path class="st5" d="M285.7,410.8l0.5-0.6c0.4,0.4,1.1,0.8,1.9,0.8c0.9,0,1.4-0.4,1.4-1c0-1.4-3.6-0.5-3.6-2.7
		c0-0.9,0.8-1.7,2.1-1.7c1,0,1.7,0.4,2.1,0.8l-0.4,0.6c-0.3-0.4-1-0.7-1.7-0.7c-0.8,0-1.3,0.4-1.3,0.9c0,1.3,3.6,0.4,3.6,2.7
		c0,1-0.8,1.8-2.3,1.8C287.1,411.7,286.3,411.4,285.7,410.8z"/>
	<path class="st5" d="M294.5,408.7c0-1.7,1.2-3,2.9-3c1.1,0,1.7,0.4,2.1,1l-0.6,0.5c-0.4-0.5-0.9-0.7-1.5-0.7c-1.2,0-2,0.9-2,2.2
		s0.8,2.2,2,2.2c0.6,0,1.1-0.2,1.5-0.8l0.6,0.6c-0.4,0.6-1.1,1-2.1,1C295.7,411.7,294.5,410.4,294.5,408.7z"/>
	<path class="st5" d="M304.7,411.6v-0.8c-0.4,0.5-1.2,1-2.1,1c-1.2,0-1.8-0.6-1.8-1.8v-4.1h0.9v3.8c0,1,0.5,1.3,1.3,1.3
		c0.7,0,1.4-0.4,1.7-0.9v-4.3h0.9v5.8H304.7z"/>
	<path class="st5" d="M311,411.6v-0.7c-0.5,0.5-1.1,0.8-1.9,0.8c-1,0-2-0.7-2-1.9c0-1.3,1-1.9,2-1.9c0.8,0,1.5,0.3,1.9,0.8v-1
		c0-0.8-0.6-1.2-1.5-1.2c-0.7,0-1.3,0.2-1.8,0.8l-0.4-0.6c0.6-0.6,1.4-1,2.3-1c1.2,0,2.2,0.6,2.2,2v4H311z M311,410.4v-1.1
		c-0.3-0.5-1-0.7-1.6-0.7c-0.9,0-1.4,0.5-1.4,1.3c0,0.7,0.6,1.3,1.4,1.3C310.1,411.1,310.7,410.8,311,410.4z"/>
	<path class="st5" d="M313.8,411.6v-8h0.9v8H313.8z"/>
	<path class="st5" d="M316.1,408.7c0-1.7,1.2-3,2.9-3c1.8,0,2.8,1.4,2.8,3.1v0.2h-4.7c0.1,1.1,0.8,2,2.1,2c0.7,0,1.3-0.3,1.8-0.7
		l0.4,0.6c-0.6,0.6-1.4,0.9-2.3,0.9C317.4,411.7,316.1,410.5,316.1,408.7z M319,406.4c-1.2,0-1.8,1-1.9,1.9h3.8
		C320.9,407.5,320.3,406.4,319,406.4z"/>
	<path class="st5" d="M322.7,410.8l0.5-0.6c0.4,0.4,1.1,0.8,1.9,0.8c0.9,0,1.4-0.4,1.4-1c0-1.4-3.6-0.5-3.6-2.7
		c0-0.9,0.8-1.7,2.1-1.7c1,0,1.7,0.4,2.1,0.8l-0.4,0.6c-0.3-0.4-1-0.7-1.7-0.7c-0.8,0-1.3,0.4-1.3,0.9c0,1.3,3.6,0.4,3.6,2.7
		c0,1-0.8,1.8-2.3,1.8C324.1,411.7,323.3,411.4,322.7,410.8z"/>
	<path class="st5" d="M331.8,410.5l0.6-0.7c0.5,0.7,1.2,1.1,2.2,1.1c1.1,0,1.8-0.7,1.8-1.7c0-1.1-0.8-1.7-1.8-1.7
		c-0.7,0-1.3,0.2-1.8,0.7l-0.7-0.3v-4.3h4.9v0.9H333v2.8c0.4-0.4,1.1-0.7,1.9-0.7c1.3,0,2.6,0.9,2.6,2.6c0,1.6-1.2,2.6-2.9,2.6
		C333.3,411.7,332.4,411.2,331.8,410.5z"/>
	<path class="st5" d="M338.7,411.6v-0.8c2.9-2.3,4.5-3.6,4.5-5c0-1-0.9-1.5-1.7-1.5c-1,0-1.7,0.4-2.2,1l-0.6-0.6
		c0.6-0.8,1.7-1.3,2.8-1.3c1.3,0,2.7,0.8,2.7,2.4c0,1.6-1.7,3.1-3.9,4.9h3.9v0.9H338.7z"/>
	<path class="st5" d="M345.9,411c0-0.4,0.3-0.7,0.7-0.7c0.4,0,0.7,0.3,0.7,0.7c0,0.4-0.3,0.7-0.7,0.7
		C346.2,411.7,345.9,411.4,345.9,411z"/>
	<path class="st5" d="M348.5,407.6c0-2.2,1-4.1,3.3-4.1c1,0,1.7,0.4,2.2,1l-0.5,0.7c-0.4-0.5-0.9-0.8-1.7-0.8
		c-1.6,0-2.3,1.6-2.3,3.1c0,0.1,0,0.2,0,0.3c0.3-0.6,1.2-1.2,2.3-1.2c1.4,0,2.6,0.9,2.6,2.6c0,1.4-1.1,2.6-2.8,2.6
		C349.4,411.7,348.5,409.8,348.5,407.6z M353.4,409.2c0-1.2-0.8-1.7-1.8-1.7c-0.8,0-1.6,0.5-2,1.2c0.1,1,0.6,2.2,2,2.2
		C352.8,410.8,353.4,409.9,353.4,409.2z"/>
	<path class="st5" d="M366,411.6v-3.9c0-0.7-0.3-1.2-1.1-1.2c-0.6,0-1.2,0.4-1.5,0.9v4.2h-0.9v-3.9c0-0.7-0.3-1.2-1.1-1.2
		c-0.6,0-1.2,0.4-1.5,0.9v4.2H359v-5.8h0.9v0.8c0.3-0.4,1-1,1.9-1c0.9,0,1.4,0.5,1.5,1.1c0.3-0.5,1.1-1.1,1.9-1.1
		c1.1,0,1.6,0.6,1.6,1.8v4.2H366z"/>
	<path class="st5" d="M368.6,404.4c0-0.3,0.3-0.6,0.6-0.6s0.6,0.3,0.6,0.6s-0.3,0.6-0.6,0.6S368.6,404.7,368.6,404.4z M368.7,411.6
		v-5.8h0.9v5.8H368.7z"/>
	<path class="st5" d="M371.4,411.6v-8h0.9v8H371.4z"/>
	<path class="st5" d="M374.1,411.6v-8h0.9v8H374.1z"/>
	<path class="st5" d="M376.5,408.7c0-1.7,1.1-3,2.9-3c1.8,0,2.9,1.4,2.9,3s-1.1,3-2.9,3C377.6,411.7,376.5,410.4,376.5,408.7z
		 M381.3,408.7c0-1.2-0.7-2.2-1.9-2.2s-1.9,1.1-1.9,2.2c0,1.2,0.7,2.2,1.9,2.2S381.3,409.9,381.3,408.7z"/>
	<path class="st5" d="M387.6,411.6v-3.8c0-1-0.5-1.3-1.3-1.3c-0.7,0-1.4,0.4-1.7,0.9v4.2h-0.9v-5.8h0.9v0.8c0.4-0.5,1.2-1,2.1-1
		c1.2,0,1.8,0.6,1.8,1.9v4.1H387.6z"/>
	<path class="st5" d="M390,408.7c0-1.7,1.2-3,2.9-3c1.8,0,2.8,1.4,2.8,3.1v0.2h-4.7c0.1,1.1,0.8,2,2.1,2c0.7,0,1.3-0.3,1.8-0.7
		l0.4,0.6c-0.6,0.6-1.4,0.9-2.3,0.9C391.2,411.7,390,410.5,390,408.7z M392.8,406.4c-1.2,0-1.8,1-1.9,1.9h3.8
		C394.7,407.5,394.1,406.4,392.8,406.4z"/>
	<path class="st5" d="M396.6,410.8l0.5-0.6c0.4,0.4,1.1,0.8,1.9,0.8c0.9,0,1.4-0.4,1.4-1c0-1.4-3.6-0.5-3.6-2.7
		c0-0.9,0.8-1.7,2.1-1.7c1,0,1.7,0.4,2.1,0.8l-0.4,0.6c-0.3-0.4-1-0.7-1.7-0.7c-0.8,0-1.3,0.4-1.3,0.9c0,1.3,3.6,0.4,3.6,2.7
		c0,1-0.8,1.8-2.3,1.8C397.9,411.7,397.1,411.4,396.6,410.8z"/>
	<path class="st5" d="M409.7,411.6v-3.8c0-1-0.5-1.3-1.3-1.3c-0.7,0-1.4,0.4-1.7,0.9v4.2h-0.9v-8h0.9v3c0.4-0.5,1.2-1,2.1-1
		c1.2,0,1.8,0.6,1.8,1.8v4.1H409.7z"/>
	<path class="st5" d="M416,411.6v-0.7c-0.5,0.5-1.1,0.8-1.9,0.8c-1,0-2-0.7-2-1.9c0-1.3,1-1.9,2-1.9c0.8,0,1.5,0.3,1.9,0.8v-1
		c0-0.8-0.6-1.2-1.5-1.2c-0.7,0-1.3,0.2-1.8,0.8l-0.4-0.6c0.6-0.6,1.4-1,2.3-1c1.2,0,2.2,0.6,2.2,2v4H416z M416,410.4v-1.1
		c-0.3-0.5-1-0.7-1.6-0.7c-0.9,0-1.4,0.5-1.4,1.3c0,0.7,0.6,1.3,1.4,1.3C415,411.1,415.6,410.8,416,410.4z"/>
	<path class="st5" d="M422.6,411.6v-3.8c0-1-0.5-1.3-1.3-1.3c-0.7,0-1.4,0.4-1.7,0.9v4.2h-0.9v-5.8h0.9v0.8c0.4-0.5,1.2-1,2.1-1
		c1.2,0,1.8,0.6,1.8,1.9v4.1H422.6z"/>
	<path class="st5" d="M427.9,410.8l0.5-0.6c0.4,0.4,1.1,0.8,1.9,0.8c0.9,0,1.4-0.4,1.4-1c0-1.4-3.6-0.5-3.6-2.7
		c0-0.9,0.8-1.7,2.1-1.7c1,0,1.7,0.4,2.1,0.8l-0.4,0.6c-0.3-0.4-1-0.7-1.7-0.7c-0.8,0-1.3,0.4-1.3,0.9c0,1.3,3.6,0.4,3.6,2.7
		c0,1-0.8,1.8-2.3,1.8C429.3,411.7,428.5,411.4,427.9,410.8z"/>
	<path class="st5" d="M433.9,404.4c0-0.3,0.3-0.6,0.6-0.6s0.6,0.3,0.6,0.6s-0.3,0.6-0.6,0.6S433.9,404.7,433.9,404.4z M434,411.6
		v-5.8h0.9v5.8H434z"/>
	<path class="st5" d="M440.9,411.6v-0.9c-0.4,0.6-1.1,1-2,1c-1.5,0-2.6-1.2-2.6-3c0-1.9,1.1-3,2.6-3c0.8,0,1.5,0.4,2,1v-3.1h0.9v8
		H440.9z M440.9,410v-2.6c-0.3-0.5-1-0.9-1.7-0.9c-1.2,0-1.9,1-1.9,2.2s0.7,2.2,1.9,2.2C439.9,410.9,440.6,410.5,440.9,410z"/>
	<path class="st5" d="M443.3,408.7c0-1.7,1.1-3,2.9-3c1.8,0,2.9,1.4,2.9,3s-1.1,3-2.9,3C444.4,411.7,443.3,410.4,443.3,408.7z
		 M448.1,408.7c0-1.2-0.7-2.2-1.9-2.2s-1.9,1.1-1.9,2.2c0,1.2,0.7,2.2,1.9,2.2S448.1,409.9,448.1,408.7z"/>
	<path class="st5" d="M453.2,408.7c0-1.7,1.2-3,2.9-3c1.8,0,2.8,1.4,2.8,3.1v0.2h-4.7c0.1,1.1,0.8,2,2.1,2c0.7,0,1.3-0.3,1.8-0.7
		l0.4,0.6c-0.6,0.6-1.4,0.9-2.3,0.9C454.5,411.7,453.2,410.5,453.2,408.7z M456.1,406.4c-1.2,0-1.8,1-1.9,1.9h3.8
		C458,407.5,457.4,406.4,456.1,406.4z"/>
	<path class="st5" d="M467.3,411.6v-3.9c0-0.7-0.3-1.2-1.1-1.2c-0.6,0-1.2,0.4-1.5,0.9v4.2h-0.9v-3.9c0-0.7-0.3-1.2-1.1-1.2
		c-0.6,0-1.2,0.4-1.5,0.9v4.2h-0.9v-5.8h0.9v0.8c0.3-0.4,1-1,1.9-1c0.9,0,1.4,0.5,1.5,1.1c0.3-0.5,1.1-1.1,1.9-1.1
		c1.1,0,1.6,0.6,1.6,1.8v4.2H467.3z"/>
	<path class="st5" d="M470,411.6v-8h0.9v3.1c0.5-0.6,1.2-1,2-1c1.5,0,2.6,1.2,2.6,3c0,1.9-1.1,3-2.6,3c-0.8,0-1.5-0.4-2-1v0.9H470z
		 M472.7,410.9c1.2,0,1.9-0.9,1.9-2.2s-0.7-2.2-1.9-2.2c-0.7,0-1.4,0.4-1.7,0.9v2.6C471.2,410.5,472,410.9,472.7,410.9z"/>
	<path class="st5" d="M480.6,411.6v-0.7c-0.5,0.5-1.1,0.8-1.9,0.8c-1,0-2-0.7-2-1.9c0-1.3,1-1.9,2-1.9c0.8,0,1.5,0.3,1.9,0.8v-1
		c0-0.8-0.6-1.2-1.5-1.2c-0.7,0-1.3,0.2-1.8,0.8l-0.4-0.6c0.6-0.6,1.4-1,2.3-1c1.2,0,2.2,0.6,2.2,2v4H480.6z M480.6,410.4v-1.1
		c-0.3-0.5-1-0.7-1.6-0.7c-0.9,0-1.4,0.5-1.4,1.3c0,0.7,0.6,1.3,1.4,1.3C479.6,411.1,480.2,410.8,480.6,410.4z"/>
	<path class="st5" d="M483.3,411.6v-5.8h0.9v0.9c0.5-0.6,1.1-1.1,1.9-1.1v0.9c-0.1,0-0.2,0-0.3,0c-0.6,0-1.3,0.5-1.6,0.9v4.1H483.3z
		"/>
	<path class="st5" d="M486.9,408.7c0-1.7,1.2-3,2.9-3c1.1,0,1.7,0.4,2.1,1l-0.6,0.5c-0.4-0.5-0.9-0.7-1.5-0.7c-1.2,0-2,0.9-2,2.2
		s0.8,2.2,2,2.2c0.6,0,1.1-0.2,1.5-0.8l0.6,0.6c-0.4,0.6-1.1,1-2.1,1C488.1,411.7,486.9,410.4,486.9,408.7z"/>
	<path class="st5" d="M496.8,411.6v-0.7c-0.5,0.5-1.1,0.8-1.9,0.8c-1,0-2-0.7-2-1.9c0-1.3,1-1.9,2-1.9c0.8,0,1.5,0.3,1.9,0.8v-1
		c0-0.8-0.6-1.2-1.5-1.2c-0.7,0-1.3,0.2-1.8,0.8l-0.4-0.6c0.6-0.6,1.4-1,2.3-1c1.2,0,2.2,0.6,2.2,2v4H496.8z M496.8,410.4v-1.1
		c-0.3-0.5-1-0.7-1.6-0.7c-0.9,0-1.4,0.5-1.4,1.3c0,0.7,0.6,1.3,1.4,1.3C495.8,411.1,496.5,410.8,496.8,410.4z"/>
	<path class="st5" d="M503.7,411.6v-0.9c-0.4,0.6-1.1,1-2,1c-1.5,0-2.6-1.2-2.6-3c0-1.9,1.1-3,2.6-3c0.8,0,1.5,0.4,2,1v-3.1h0.9v8
		H503.7z M503.7,410v-2.6c-0.3-0.5-1-0.9-1.7-0.9c-1.2,0-1.9,1-1.9,2.2s0.7,2.2,1.9,2.2C502.7,410.9,503.4,410.5,503.7,410z"/>
	<path class="st5" d="M506.1,408.7c0-1.7,1.1-3,2.9-3c1.8,0,2.9,1.4,2.9,3s-1.1,3-2.9,3C507.2,411.7,506.1,410.4,506.1,408.7z
		 M510.9,408.7c0-1.2-0.7-2.2-1.9-2.2s-1.9,1.1-1.9,2.2c0,1.2,0.7,2.2,1.9,2.2S510.9,409.9,510.9,408.7z"/>
	<path class="st5" d="M512.8,410.8l0.5-0.6c0.4,0.4,1.1,0.8,1.9,0.8c0.9,0,1.4-0.4,1.4-1c0-1.4-3.6-0.5-3.6-2.7
		c0-0.9,0.8-1.7,2.1-1.7c1,0,1.7,0.4,2.1,0.8l-0.4,0.6c-0.3-0.4-1-0.7-1.7-0.7c-0.8,0-1.3,0.4-1.3,0.9c0,1.3,3.6,0.4,3.6,2.7
		c0,1-0.8,1.8-2.3,1.8C514.2,411.7,513.4,411.4,512.8,410.8z"/>
	<path class="st5" d="M525.6,411.6v-0.7c-0.5,0.5-1.1,0.8-1.9,0.8c-1,0-2-0.7-2-1.9c0-1.3,1-1.9,2-1.9c0.8,0,1.5,0.3,1.9,0.8v-1
		c0-0.8-0.6-1.2-1.5-1.2c-0.7,0-1.3,0.2-1.8,0.8l-0.4-0.6c0.6-0.6,1.4-1,2.3-1c1.2,0,2.2,0.6,2.2,2v4H525.6z M525.6,410.4v-1.1
		c-0.3-0.5-1-0.7-1.6-0.7c-0.9,0-1.4,0.5-1.4,1.3c0,0.7,0.6,1.3,1.4,1.3C524.6,411.1,525.2,410.8,525.6,410.4z"/>
	<path class="st5" d="M531.4,411.6v-8h0.9v8H531.4z"/>
	<path class="st5" d="M537.7,411.6v-0.7c-0.5,0.5-1.1,0.8-1.9,0.8c-1,0-2-0.7-2-1.9c0-1.3,1-1.9,2-1.9c0.8,0,1.5,0.3,1.9,0.8v-1
		c0-0.8-0.6-1.2-1.5-1.2c-0.7,0-1.3,0.2-1.8,0.8l-0.4-0.6c0.6-0.6,1.4-1,2.3-1c1.2,0,2.2,0.6,2.2,2v4H537.7z M537.7,410.4v-1.1
		c-0.3-0.5-1-0.7-1.6-0.7c-0.9,0-1.4,0.5-1.4,1.3c0,0.7,0.6,1.3,1.4,1.3C536.8,411.1,537.4,410.8,537.7,410.4z"/>
	<path class="st5" d="M543.8,411.6v-5h-1v-0.8h1v-0.4c0-1.2,0.7-1.9,1.7-1.9c0.5,0,0.9,0.1,1.2,0.4l-0.4,0.6
		c-0.2-0.2-0.4-0.3-0.7-0.3c-0.6,0-0.9,0.4-0.9,1.1v0.4h1.2v0.8h-1.2v5H543.8z"/>
	<path class="st5" d="M546.6,408.7c0-1.7,1.2-3,2.9-3c1.8,0,2.8,1.4,2.8,3.1v0.2h-4.7c0.1,1.1,0.8,2,2.1,2c0.7,0,1.3-0.3,1.8-0.7
		l0.4,0.6c-0.6,0.6-1.4,0.9-2.3,0.9C547.9,411.7,546.6,410.5,546.6,408.7z M549.5,406.4c-1.2,0-1.8,1-1.9,1.9h3.8
		C551.4,407.5,550.8,406.4,549.5,406.4z"/>
	<path class="st5" d="M553.4,408.7c0-1.7,1.2-3,2.9-3c1.1,0,1.7,0.4,2.1,1l-0.6,0.5c-0.4-0.5-0.9-0.7-1.5-0.7c-1.2,0-2,0.9-2,2.2
		s0.8,2.2,2,2.2c0.6,0,1.1-0.2,1.5-0.8l0.6,0.6c-0.4,0.6-1.1,1-2.1,1C554.6,411.7,553.4,410.4,553.4,408.7z"/>
	<path class="st5" d="M563.6,411.6v-3.8c0-1-0.5-1.3-1.3-1.3c-0.7,0-1.4,0.4-1.7,0.9v4.2h-0.9v-8h0.9v3c0.4-0.5,1.2-1,2.1-1
		c1.2,0,1.8,0.6,1.8,1.8v4.1H563.6z"/>
	<path class="st5" d="M569.9,411.6v-0.7c-0.5,0.5-1.1,0.8-1.9,0.8c-1,0-2-0.7-2-1.9c0-1.3,1-1.9,2-1.9c0.8,0,1.5,0.3,1.9,0.8v-1
		c0-0.8-0.6-1.2-1.5-1.2c-0.7,0-1.3,0.2-1.8,0.8l-0.4-0.6c0.6-0.6,1.4-1,2.3-1c1.2,0,2.2,0.6,2.2,2v4H569.9z M569.9,410.4v-1.1
		c-0.3-0.5-1-0.7-1.6-0.7c-0.9,0-1.4,0.5-1.4,1.3c0,0.7,0.6,1.3,1.4,1.3C569,411.1,569.6,410.8,569.9,410.4z"/>
	<path class="st5" d="M572.5,411c0-0.4,0.3-0.7,0.7-0.7c0.4,0,0.7,0.3,0.7,0.7c0,0.4-0.3,0.7-0.7,0.7
		C572.8,411.7,572.5,411.4,572.5,411z"/>
</g>
</svg>
