<?xml version="1.0" encoding="utf-8"?>
<!-- Generator: Adobe Illustrator 16.0.0, SVG Export Plug-In . SVG Version: 6.00 Build 0)  -->
<!DOCTYPE svg PUBLIC "-//W3C//DTD SVG 1.1//EN" "http://www.w3.org/Graphics/SVG/1.1/DTD/svg11.dtd">
<svg version="1.1" id="Layer_1" xmlns="http://www.w3.org/2000/svg" xmlns:xlink="http://www.w3.org/1999/xlink" x="0px" y="0px"
	 width="220px" height="242.4px" viewBox="0 0 220 242.4" enable-background="new 0 0 220 242.4" xml:space="preserve">
<rect fill="#018590" width="220" height="242.4"/>
<g>
	<path fill="#FFFFFF" d="M15.5,19.4c0-2.1,1.6-3.4,3.6-3.4c1.6,0,2.5,0.9,2.9,1.8l-1.5,0.7c-0.2-0.5-0.8-1-1.4-1
		c-1.1,0-1.9,0.8-1.9,1.9c0,1.1,0.8,1.9,1.9,1.9c0.6,0,1.2-0.4,1.4-1l1.5,0.7c-0.4,0.8-1.3,1.8-2.9,1.8C17,22.9,15.5,21.5,15.5,19.4
		z"/>
	<path fill="#FFFFFF" d="M27.2,22.7v-2.7h-2.8v2.7h-1.7v-6.7h1.7v2.5h2.8v-2.5h1.7v6.7H27.2z"/>
	<path fill="#FFFFFF" d="M34.7,22.7l-0.3-1h-2.6l-0.3,1h-1.9l2.5-6.7h2.2l2.5,6.7H34.7z M33,17.8l-0.8,2.5h1.7L33,17.8z"/>
	<path fill="#FFFFFF" d="M40.8,22.7l-1.1-2.2h-0.9v2.2h-1.7v-6.7h3.3c1.5,0,2.3,1,2.3,2.2c0,1.2-0.7,1.8-1.3,2l1.4,2.4H40.8z
		 M41,18.3c0-0.5-0.4-0.7-0.8-0.7h-1.4V19h1.4C40.6,19,41,18.7,41,18.3z"/>
	<path fill="#FFFFFF" d="M43.4,19.4c0-2.1,1.6-3.4,3.6-3.4c1.5,0,2.4,0.8,2.8,1.6l-1.4,0.7c-0.2-0.4-0.8-0.8-1.4-0.8
		c-1.1,0-1.9,0.8-1.9,1.9c0,1.1,0.8,1.9,1.9,1.9c0.5,0,1-0.2,1.2-0.4v-0.5h-1.5v-1.5h3.2v2.6c-0.7,0.8-1.7,1.3-2.9,1.3
		C45,22.9,43.4,21.5,43.4,19.4z"/>
	<path fill="#FFFFFF" d="M51,22.7v-6.7h4.9v1.5h-3.2v1h3.1v1.5h-3.1v1.1h3.2v1.5H51z"/>
	<path fill="#FFFFFF" d="M59.4,22.7v-6.7h2.8c2.1,0,3.6,1.3,3.6,3.3s-1.5,3.3-3.6,3.3H59.4z M64,19.4c0-1-0.6-1.8-1.8-1.8h-1.1v3.7
		h1.1C63.4,21.2,64,20.4,64,19.4z"/>
	<path fill="#FFFFFF" d="M66.7,22.7v-6.7h4.9v1.5h-3.2v1h3.1v1.5h-3.1v1.1h3.2v1.5H66.7z"/>
	<path fill="#FFFFFF" d="M75.1,22.7v-6.7h1.7v5.2h2.7v1.5H75.1z"/>
	<path fill="#FFFFFF" d="M84.9,22.7l-0.3-1h-2.6l-0.3,1h-1.9l2.5-6.7h2.2l2.5,6.7H84.9z M83.3,17.8l-0.8,2.5h1.7L83.3,17.8z"/>
	<path fill="#FFFFFF" d="M95.7,22.7v-4.4l-1.7,4.4h-0.8l-1.7-4.4v4.4h-1.7v-6.7h2.4l1.4,3.7l1.4-3.7h2.4v6.7H95.7z"/>
	<path fill="#FFFFFF" d="M103.2,22.7l-0.3-1h-2.6l-0.3,1H98l2.5-6.7h2.2l2.5,6.7H103.2z M101.6,17.8l-0.8,2.5h1.7L101.6,17.8z"/>
	<path fill="#FFFFFF" d="M105.6,22.7v-6.7h1.7v5.2h2.7v1.5H105.6z"/>
	<path fill="#FFFFFF" d="M115.4,22.7l-0.3-1h-2.6l-0.3,1h-1.9l2.5-6.7h2.2l2.5,6.7H115.4z M113.8,17.8l-0.8,2.5h1.7L113.8,17.8z"/>
	<path fill="#FFFFFF" d="M117.9,22.7v-6.7h2.8c2.1,0,3.6,1.3,3.6,3.3s-1.5,3.3-3.6,3.3H117.9z M122.5,19.4c0-1-0.6-1.8-1.8-1.8h-1.1
		v3.7h1.1C121.8,21.2,122.5,20.4,122.5,19.4z"/>
	<path fill="#FFFFFF" d="M125.1,22.7v-6.7h1.7v6.7H125.1z"/>
	<path fill="#FFFFFF" d="M128,22.7v-6.7h4.9v1.5h-3.2v1h3.1v1.5h-3.1v1.1h3.2v1.5H128z"/>
	<path fill="#FFFFFF" d="M136.3,18.8c0-0.5,0.4-0.9,1-0.9s0.9,0.4,0.9,0.9s-0.4,0.9-0.9,0.9S136.3,19.3,136.3,18.8z M136.3,21.9
		c0-0.5,0.4-0.9,1-0.9s0.9,0.4,0.9,0.9c0,0.5-0.4,0.9-0.9,0.9S136.3,22.4,136.3,21.9z"/>
</g>
<g>
	<path fill="#FFFFFF" d="M16.6,84.5L24.4,74c4.4,4.2,11,6.2,16.2,6.2c6.6,0,10-2.5,10-5.8c0-3.4-2.5-5.1-10.6-5.1
		c-2.6,0-7.1,0.1-8,0.2V56c1.2,0.1,5.8,0.1,8,0.1c6.1,0,9.6-1.5,9.6-4.6c0-3.7-4.3-5.4-10-5.4c-5.4,0-10.6,2-14.8,5.7l-7.4-9.6
		c5.1-5.6,12.8-9.6,23.8-9.6c15.1,0,23.6,6.5,23.6,16.3c0,6.9-6,12.2-13,13.4c6.3,0.6,14,5.5,14,14.1c0,10.4-9.8,17.6-24.6,17.6
		C29.8,93.8,21.4,89.8,16.6,84.5z"/>
</g>
<g>
	<path fill="#FFFFFF" d="M75.1,105.4l-5.7-4.6c2.8-1.4,6.6-5.3,7.6-8.5c-0.4,0.1-1.2,0.3-2,0.3c-3.8,0-6.9-2.9-6.9-7.3
		c0-4.5,3.7-8.2,8.2-8.2c4.8,0,9.1,3.7,9.1,10.2C85.3,94.6,81.3,101,75.1,105.4z"/>
</g>
<g>
	<path fill="#FFFFFF" d="M87.1,92.7V80.8c25.7-18.6,30.5-22.7,30.5-28.7c0-4-3.8-6.1-8.2-6.1c-6.6,0-11.6,2.5-15.8,6.5l-8.5-10.1
		c6.3-6.9,15.8-9.9,24-9.9c14,0,24,7.8,24,19.7c0,9.2-6.5,16.9-21.3,27.2h21.7v13.4H87.1z"/>
</g>
<g>
	<path fill="#FFFFFF" d="M52.5,151.7v-16.5c0-2.1-1-3.6-3.6-3.6c-2.4,0-4,1.5-4.9,2.6v17.5h-8.6v-16.5c0-2.1-1-3.6-3.5-3.6
		c-2.4,0-4,1.5-4.9,2.6v17.5h-8.6v-27H27v3.3c1.2-1.6,4.6-4,8.9-4c3.9,0,6.6,1.6,7.7,4.8c1.6-2.4,5.1-4.8,9.4-4.8
		c5,0,8.1,2.6,8.1,8.1v19.6H52.5z"/>
	<path fill="#FFFFFF" d="M65.7,117.3c0-2.7,2.2-4.9,4.9-4.9c2.7,0,5,2.2,5,4.9s-2.2,5-5,5C67.9,122.3,65.7,120,65.7,117.3z
		 M66.3,151.7v-27H75v27H66.3z"/>
	<path fill="#FFFFFF" d="M80.2,151.7v-37.4h8.6v37.4H80.2z"/>
	<path fill="#FFFFFF" d="M94.1,151.7v-37.4h8.6v37.4H94.1z"/>
	<path fill="#FFFFFF" d="M107.4,117.3c0-2.7,2.2-4.9,4.9-4.9s5,2.2,5,4.9s-2.2,5-5,5S107.4,120,107.4,117.3z M108,151.7v-27h8.6v27
		H108z"/>
	<path fill="#FFFFFF" d="M120.2,138.2c0-7.6,5.5-14.2,14.7-14.2c9.3,0,14.8,6.6,14.8,14.2s-5.5,14.2-14.8,14.2
		C125.6,152.4,120.2,145.8,120.2,138.2z M140.8,138.2c0-3.6-2.1-6.6-5.9-6.6c-3.7,0-5.8,3-5.8,6.6c0,3.6,2.1,6.6,5.8,6.6
		C138.6,144.8,140.8,141.8,140.8,138.2z"/>
	<path fill="#FFFFFF" d="M171.4,151.7v-15.6c0-3.3-1.7-4.5-4.4-4.5c-2.6,0-4.3,1.4-5.3,2.6v17.5h-8.6v-27h8.6v3.3
		c1.6-1.9,4.8-4,9.4-4c6.1,0,8.9,3.6,8.9,8.6v19.2H171.4z"/>
	<path fill="#FFFFFF" d="M183,148.2l3.6-6.2c2,1.8,6.3,3.6,9.5,3.6c2.6,0,3.6-0.7,3.6-1.9c0-3.4-15.7,0.1-15.7-10.9
		c0-4.8,4.1-8.9,11.6-8.9c4.6,0,8.4,1.5,11.3,3.6l-3.3,6.1c-1.6-1.6-4.7-3-8-3c-2,0-3.4,0.8-3.4,1.8c0,3,15.7-0.1,15.7,11
		c0,5.2-4.5,8.8-12.3,8.8C190.9,152.4,185.9,150.8,183,148.2z"/>
</g>
<g>
	<path fill="#FFFFFF" d="M22.1,170.7v-1c-0.7,0.8-1.6,1.2-2.6,1.2c-2.1,0-3.8-1.6-3.8-4.6c0-2.8,1.7-4.6,3.8-4.6
		c1,0,1.9,0.4,2.6,1.2v-4.3h2.8v12H22.1z M22.1,167.7V165c-0.4-0.5-1.1-0.8-1.7-0.8c-1.1,0-1.9,0.8-1.9,2.1c0,1.3,0.8,2.1,1.9,2.1
		C21,168.5,21.7,168.2,22.1,167.7z"/>
	<path fill="#FFFFFF" d="M26.3,166.4c0-2.5,1.9-4.6,4.6-4.6c2.6,0,4.4,1.9,4.4,4.8v0.6h-6.2c0.2,0.8,0.9,1.4,2.2,1.4
		c0.6,0,1.6-0.3,2.1-0.7l1.2,1.8c-0.9,0.8-2.3,1.2-3.6,1.2C28.4,170.9,26.3,169.2,26.3,166.4z M30.9,164.1c-1.2,0-1.7,0.7-1.8,1.4
		h3.6C32.6,164.8,32.2,164.1,30.9,164.1z"/>
	<path fill="#FFFFFF" d="M44.1,169.7v4.3h-2.8v-12h2.8v1c0.7-0.8,1.6-1.2,2.6-1.2c2.2,0,3.8,1.6,3.8,4.6c0,3-1.6,4.6-3.8,4.6
		C45.7,170.9,44.8,170.6,44.1,169.7z M47.7,166.4c0-1.3-0.8-2.1-1.9-2.1c-0.6,0-1.3,0.3-1.7,0.8v2.6c0.3,0.4,1.1,0.8,1.7,0.8
		C46.8,168.5,47.7,167.7,47.7,166.4z"/>
	<path fill="#FFFFFF" d="M51.4,166.4c0-2.5,1.9-4.6,4.6-4.6c2.6,0,4.4,1.9,4.4,4.8v0.6h-6.2c0.2,0.8,0.9,1.4,2.2,1.4
		c0.6,0,1.6-0.3,2.1-0.7l1.2,1.8c-0.9,0.8-2.3,1.2-3.6,1.2C53.4,170.9,51.4,169.2,51.4,166.4z M56,164.1c-1.2,0-1.7,0.7-1.8,1.4h3.6
		C57.7,164.8,57.3,164.1,56,164.1z"/>
	<path fill="#FFFFFF" d="M61.8,170.7V162h2.8v1.1c0.6-0.7,1.7-1.3,2.7-1.3v2.7c-0.2-0.1-0.4-0.1-0.7-0.1c-0.7,0-1.7,0.3-2,0.8v5.5
		H61.8z"/>
	<path fill="#FFFFFF" d="M67.8,169.6l1.2-2c0.6,0.6,2,1.2,3.1,1.2c0.8,0,1.2-0.2,1.2-0.6c0-1.1-5.1,0-5.1-3.5c0-1.5,1.3-2.9,3.7-2.9
		c1.5,0,2.7,0.5,3.6,1.2l-1.1,2c-0.5-0.5-1.5-1-2.6-1c-0.6,0-1.1,0.3-1.1,0.6c0,1,5,0,5,3.5c0,1.7-1.5,2.8-3.9,2.8
		C70.3,170.9,68.7,170.4,67.8,169.6z"/>
	<path fill="#FFFFFF" d="M76.7,166.4c0-2.4,1.8-4.6,4.7-4.6c3,0,4.8,2.1,4.8,4.6c0,2.4-1.8,4.6-4.8,4.6
		C78.5,170.9,76.7,168.8,76.7,166.4z M83.3,166.4c0-1.2-0.7-2.1-1.9-2.1c-1.2,0-1.9,1-1.9,2.1c0,1.2,0.7,2.1,1.9,2.1
		C82.6,168.5,83.3,167.5,83.3,166.4z"/>
	<path fill="#FFFFFF" d="M93.5,170.7v-5c0-1.1-0.6-1.4-1.4-1.4c-0.8,0-1.4,0.5-1.7,0.8v5.6h-2.8V162h2.8v1.1c0.5-0.6,1.5-1.3,3-1.3
		c2,0,2.9,1.2,2.9,2.8v6.2H93.5z"/>
	<path fill="#FFFFFF" d="M104.2,170.7v-5c0-1.1-0.6-1.4-1.4-1.4c-0.8,0-1.4,0.5-1.7,0.8v5.6h-2.8V162h2.8v1.1c0.5-0.6,1.5-1.3,3-1.3
		c2,0,2.9,1.2,2.9,2.8v6.2H104.2z"/>
	<path fill="#FFFFFF" d="M108.4,166.4c0-2.5,1.9-4.6,4.6-4.6c2.6,0,4.4,1.9,4.4,4.8v0.6h-6.2c0.2,0.8,0.9,1.4,2.2,1.4
		c0.6,0,1.6-0.3,2.1-0.7l1.2,1.8c-0.9,0.8-2.3,1.2-3.6,1.2C110.5,170.9,108.4,169.2,108.4,166.4z M113,164.1c-1.2,0-1.7,0.7-1.8,1.4
		h3.6C114.8,164.8,114.3,164.1,113,164.1z"/>
	<path fill="#FFFFFF" d="M118.1,169.6l1.2-2c0.6,0.6,2,1.2,3.1,1.2c0.8,0,1.2-0.2,1.2-0.6c0-1.1-5.1,0-5.1-3.5
		c0-1.5,1.3-2.9,3.7-2.9c1.5,0,2.7,0.5,3.6,1.2l-1.1,2c-0.5-0.5-1.5-1-2.6-1c-0.6,0-1.1,0.3-1.1,0.6c0,1,5,0,5,3.5
		c0,1.7-1.5,2.8-3.9,2.8C120.6,170.9,119,170.4,118.1,169.6z"/>
	<path fill="#FFFFFF" d="M137.3,170.7v-0.9c-0.5,0.6-1.6,1.1-2.7,1.1c-1.3,0-3-0.9-3-2.9c0-2.1,1.7-2.8,3-2.8c1.2,0,2.2,0.4,2.7,1
		v-0.9c0-0.8-0.6-1.3-1.8-1.3c-0.9,0-1.7,0.3-2.4,0.9l-1-1.9c1.1-1,2.6-1.4,3.9-1.4c2.1,0,4.1,0.8,4.1,3.5v5.4H137.3z M137.3,168.5
		v-0.8c-0.3-0.4-0.9-0.6-1.5-0.6c-0.7,0-1.4,0.3-1.4,1c0,0.7,0.7,1,1.4,1C136.4,169.1,137,168.9,137.3,168.5z"/>
	<path fill="#FFFFFF" d="M142.3,171.7c0.2,0.1,0.5,0.2,0.7,0.2c0.6,0,1-0.1,1.2-0.5l0.2-0.5l-3.5-8.8h2.9l2,5.5l2-5.5h2.9l-3.9,9.9
		c-0.7,1.8-2,2.3-3.7,2.3c-0.3,0-0.9-0.1-1.2-0.1L142.3,171.7z"/>
	<path fill="#FFFFFF" d="M156.6,170.7v-0.9c-0.5,0.6-1.6,1.1-2.7,1.1c-1.3,0-3-0.9-3-2.9c0-2.1,1.7-2.8,3-2.8c1.2,0,2.2,0.4,2.7,1
		v-0.9c0-0.8-0.6-1.3-1.8-1.3c-0.9,0-1.7,0.3-2.4,0.9l-1-1.9c1.1-1,2.6-1.4,3.9-1.4c2.1,0,4.1,0.8,4.1,3.5v5.4H156.6z M156.6,168.5
		v-0.8c-0.3-0.4-0.9-0.6-1.5-0.6c-0.7,0-1.4,0.3-1.4,1c0,0.7,0.7,1,1.4,1C155.7,169.1,156.3,168.9,156.6,168.5z"/>
	<path fill="#FFFFFF" d="M167.3,170.7v-5c0-1.1-0.6-1.4-1.4-1.4c-0.8,0-1.4,0.5-1.7,0.8v5.6h-2.8V162h2.8v1.1c0.5-0.6,1.5-1.3,3-1.3
		c2,0,2.9,1.2,2.9,2.8v6.2H167.3z"/>
	<path fill="#FFFFFF" d="M172.7,168.4v-4h-1.4V162h1.4v-2.4h2.8v2.4h1.8v2.4h-1.8v3.2c0,0.5,0.3,0.9,0.8,0.9c0.3,0,0.6-0.1,0.7-0.2
		l0.5,2.1c-0.3,0.3-1,0.6-2.1,0.6C173.6,170.9,172.7,170.1,172.7,168.4z"/>
</g>
<g>
	<path fill="#FFFFFF" d="M16.2,189.7v-12H19v4.3c0.7-0.9,1.6-1.2,2.6-1.2c2.2,0,3.8,1.7,3.8,4.6c0,3-1.7,4.6-3.8,4.6
		c-1,0-1.9-0.4-2.6-1.2v1H16.2z M20.6,187.5c1.1,0,1.9-0.8,1.9-2.1c0-1.3-0.8-2.1-1.9-2.1c-0.6,0-1.3,0.3-1.7,0.8v2.7
		C19.3,187.2,20.1,187.5,20.6,187.5z"/>
	<path fill="#FFFFFF" d="M26.3,185.4c0-2.5,1.9-4.6,4.6-4.6c2.6,0,4.4,1.9,4.4,4.8v0.6h-6.2c0.2,0.8,0.9,1.4,2.2,1.4
		c0.6,0,1.6-0.3,2.1-0.7l1.2,1.8c-0.9,0.8-2.3,1.2-3.6,1.2C28.4,190,26.3,188.2,26.3,185.4z M30.9,183.1c-1.2,0-1.7,0.7-1.8,1.4h3.6
		C32.6,183.8,32.2,183.1,30.9,183.1z"/>
	<path fill="#FFFFFF" d="M36,188.6l1.2-2c0.6,0.6,2,1.2,3.1,1.2c0.8,0,1.2-0.2,1.2-0.6c0-1.1-5.1,0-5.1-3.5c0-1.5,1.3-2.9,3.7-2.9
		c1.5,0,2.7,0.5,3.6,1.2l-1.1,2c-0.5-0.5-1.5-1-2.6-1c-0.6,0-1.1,0.3-1.1,0.6c0,1,5,0,5,3.5c0,1.7-1.5,2.8-3.9,2.8
		C38.5,190,36.9,189.4,36,188.6z"/>
	<path fill="#FFFFFF" d="M44.9,185.4c0-2.4,1.8-4.6,4.7-4.6c3,0,4.8,2.1,4.8,4.6c0,2.4-1.8,4.6-4.8,4.6
		C46.6,190,44.9,187.8,44.9,185.4z M51.5,185.4c0-1.2-0.7-2.1-1.9-2.1c-1.2,0-1.9,1-1.9,2.1c0,1.2,0.7,2.1,1.9,2.1
		C50.8,187.5,51.5,186.6,51.5,185.4z"/>
	<path fill="#FFFFFF" d="M55.6,178.7c0-0.9,0.7-1.6,1.6-1.6c0.9,0,1.6,0.7,1.6,1.6c0,0.9-0.7,1.6-1.6,1.6
		C56.3,180.3,55.6,179.5,55.6,178.7z M55.8,189.7V181h2.8v8.7H55.8z"/>
	<path fill="#FFFFFF" d="M66.5,189.7v-5c0-1.1-0.6-1.4-1.4-1.4c-0.8,0-1.4,0.5-1.7,0.8v5.6h-2.8V181h2.8v1.1c0.5-0.6,1.5-1.3,3-1.3
		c2,0,2.9,1.2,2.9,2.8v6.2H66.5z"/>
	<path fill="#FFFFFF" d="M81.7,189.7v-1c-0.7,0.8-1.6,1.2-2.6,1.2c-2.1,0-3.8-1.6-3.8-4.6c0-2.8,1.7-4.6,3.8-4.6
		c1,0,1.9,0.4,2.6,1.2v-4.3h2.8v12H81.7z M81.7,186.7v-2.7c-0.4-0.5-1.1-0.8-1.7-0.8c-1.1,0-1.9,0.8-1.9,2.1c0,1.3,0.8,2.1,1.9,2.1
		C80.6,187.5,81.4,187.2,81.7,186.7z"/>
	<path fill="#FFFFFF" d="M87.7,183.3l-1.2-0.9c0.6-0.3,1.3-1.1,1.5-1.7c-0.1,0-0.3,0.1-0.4,0.1c-0.8,0-1.4-0.6-1.4-1.5
		c0-0.9,0.8-1.7,1.7-1.7c1,0,1.8,0.8,1.8,2.1C89.7,181.1,88.9,182.4,87.7,183.3z"/>
	<path fill="#FFFFFF" d="M97.2,189.7v-1c-0.5,0.6-1.5,1.3-3,1.3c-2,0-2.9-1.1-2.9-2.7V181h2.8v5c0,1.1,0.5,1.4,1.4,1.4
		c0.8,0,1.3-0.4,1.7-0.8V181h2.8v8.7H97.2z"/>
	<path fill="#FFFFFF" d="M107.9,189.7v-5c0-1.1-0.6-1.4-1.4-1.4c-0.8,0-1.4,0.5-1.7,0.8v5.6H102V181h2.8v1.1c0.5-0.6,1.5-1.3,3-1.3
		c2,0,2.9,1.2,2.9,2.8v6.2H107.9z"/>
	<path fill="#FFFFFF" d="M112.1,185.4c0-2.5,1.9-4.6,4.6-4.6c2.6,0,4.4,1.9,4.4,4.8v0.6H115c0.2,0.8,0.9,1.4,2.2,1.4
		c0.6,0,1.6-0.3,2.1-0.7l1.2,1.8c-0.9,0.8-2.3,1.2-3.6,1.2C114.2,190,112.1,188.2,112.1,185.4z M116.7,183.1c-1.2,0-1.7,0.7-1.8,1.4
		h3.6C118.4,183.8,118,183.1,116.7,183.1z"/>
	<path fill="#FFFFFF" d="M126.6,185.4c0-2.4,1.8-4.6,4.7-4.6c3,0,4.8,2.1,4.8,4.6c0,2.4-1.8,4.6-4.8,4.6
		C128.3,190,126.6,187.8,126.6,185.4z M133.2,185.4c0-1.2-0.7-2.1-1.9-2.1c-1.2,0-1.9,1-1.9,2.1c0,1.2,0.7,2.1,1.9,2.1
		C132.5,187.5,133.2,186.6,133.2,185.4z"/>
	<path fill="#FFFFFF" d="M140.3,188.7v4.3h-2.8v-12h2.8v1c0.7-0.8,1.6-1.2,2.6-1.2c2.2,0,3.8,1.6,3.8,4.6c0,3-1.6,4.6-3.8,4.6
		C141.9,190,141,189.6,140.3,188.7z M143.8,185.4c0-1.3-0.8-2.1-1.9-2.1c-0.6,0-1.3,0.3-1.7,0.8v2.6c0.3,0.4,1.1,0.8,1.7,0.8
		C143,187.5,143.8,186.7,143.8,185.4z"/>
	<path fill="#FFFFFF" d="M147.5,185.4c0-2.5,1.9-4.6,4.6-4.6c2.6,0,4.4,1.9,4.4,4.8v0.6h-6.2c0.2,0.8,0.9,1.4,2.2,1.4
		c0.6,0,1.6-0.3,2.1-0.7l1.2,1.8c-0.9,0.8-2.3,1.2-3.6,1.2C149.6,190,147.5,188.2,147.5,185.4z M152.2,183.1c-1.2,0-1.7,0.7-1.8,1.4
		h3.6C153.9,183.8,153.4,183.1,152.2,183.1z M152.5,179.7h-1.9l2.3-2.6h2.4L152.5,179.7z"/>
	<path fill="#FFFFFF" d="M158,189.7V181h2.8v1.1c0.6-0.7,1.7-1.3,2.7-1.3v2.7c-0.2-0.1-0.4-0.1-0.7-0.1c-0.7,0-1.7,0.3-2,0.8v5.5
		H158z"/>
	<path fill="#FFFFFF" d="M169.8,189.7v-0.9c-0.5,0.6-1.6,1.1-2.7,1.1c-1.3,0-3-0.9-3-2.9c0-2.1,1.7-2.8,3-2.8c1.2,0,2.2,0.4,2.7,1
		v-0.9c0-0.8-0.6-1.3-1.8-1.3c-0.9,0-1.7,0.3-2.4,0.9l-1-1.9c1.1-1,2.6-1.4,3.9-1.4c2.1,0,4.1,0.8,4.1,3.5v5.4H169.8z M169.8,187.5
		v-0.8c-0.3-0.4-0.9-0.6-1.5-0.6c-0.7,0-1.4,0.3-1.4,1c0,0.7,0.7,1,1.4,1C168.9,188.1,169.6,187.9,169.8,187.5z"/>
	<path fill="#FFFFFF" d="M175.2,187.4v-4h-1.4V181h1.4v-2.4h2.8v2.4h1.8v2.4H178v3.2c0,0.5,0.3,0.9,0.8,0.9c0.3,0,0.6-0.1,0.7-0.2
		l0.5,2.1c-0.3,0.3-1,0.6-2.1,0.6C176.2,190,175.2,189.1,175.2,187.4z"/>
	<path fill="#FFFFFF" d="M180.9,178.7c0-0.9,0.7-1.6,1.6-1.6c0.9,0,1.6,0.7,1.6,1.6c0,0.9-0.7,1.6-1.6,1.6
		C181.6,180.3,180.9,179.5,180.9,178.7z M181.1,189.7V181h2.8v8.7H181.1z"/>
	<path fill="#FFFFFF" d="M185.3,185.4c0-2.4,1.8-4.6,4.7-4.6c3,0,4.8,2.1,4.8,4.6c0,2.4-1.8,4.6-4.8,4.6
		C187.1,190,185.3,187.8,185.3,185.4z M192,185.4c0-1.2-0.7-2.1-1.9-2.1c-1.2,0-1.9,1-1.9,2.1c0,1.2,0.7,2.1,1.9,2.1
		C191.3,187.5,192,186.6,192,185.4z"/>
	<path fill="#FFFFFF" d="M202.2,189.7v-5c0-1.1-0.6-1.4-1.4-1.4c-0.8,0-1.4,0.5-1.7,0.8v5.6h-2.8V181h2.8v1.1c0.5-0.6,1.5-1.3,3-1.3
		c2,0,2.9,1.2,2.9,2.8v6.2H202.2z"/>
</g>
<g>
	<path fill="#FFFFFF" d="M15.7,204.4c0-2.7,2-4.6,4.7-4.6c1.9,0,3,0.8,3.6,1.6l-1.8,1.7c-0.3-0.5-0.9-0.8-1.6-0.8
		c-1.2,0-2,0.8-2,2.1s0.9,2.1,2,2.1c0.7,0,1.3-0.4,1.6-0.8l1.8,1.7c-0.5,0.8-1.7,1.6-3.6,1.6C17.7,209,15.7,207.1,15.7,204.4z"/>
	<path fill="#FFFFFF" d="M31.1,208.7v-5.1c0-1.1-0.6-1.4-1.4-1.4c-0.8,0-1.4,0.5-1.7,0.8v5.6h-2.8v-12H28v4.4c0.5-0.6,1.5-1.3,3-1.3
		c2,0,2.9,1.1,2.9,2.7v6.2H31.1z"/>
	<path fill="#FFFFFF" d="M35.7,197.7c0-0.9,0.7-1.6,1.6-1.6s1.6,0.7,1.6,1.6c0,0.9-0.7,1.6-1.6,1.6S35.7,198.6,35.7,197.7z
		 M35.9,208.7v-8.7h2.8v8.7H35.9z"/>
	<path fill="#FFFFFF" d="M40.7,208.7v-8.7h2.8v1.1c0.6-0.7,1.7-1.3,2.7-1.3v2.7c-0.2-0.1-0.4-0.1-0.7-0.1c-0.7,0-1.7,0.3-2,0.8v5.5
		H40.7z"/>
	<path fill="#FFFFFF" d="M53.3,208.7v-1c-0.5,0.6-1.5,1.3-3,1.3c-2,0-2.9-1.1-2.9-2.7v-6.2h2.8v5c0,1.1,0.5,1.4,1.4,1.4
		c0.8,0,1.3-0.4,1.7-0.8v-5.6h2.8v8.7H53.3z"/>
	<path fill="#FFFFFF" d="M58.1,208.7v-8.7h2.8v1.1c0.6-0.7,1.7-1.3,2.7-1.3v2.7c-0.2-0.1-0.4-0.1-0.7-0.1c-0.7,0-1.7,0.3-2,0.8v5.5
		H58.1z"/>
	<path fill="#FFFFFF" d="M64.6,211l1.2-1.9c0.7,0.7,1.6,1,2.6,1c0.9,0,2.2-0.4,2.2-2.1v-0.7c-0.7,0.9-1.6,1.3-2.6,1.3
		c-2.1,0-3.8-1.5-3.8-4.4c0-2.9,1.6-4.4,3.8-4.4c1,0,1.9,0.4,2.6,1.2v-1h2.8v7.9c0,3.5-2.8,4.3-5,4.3C67,212.3,65.7,211.9,64.6,211z
		 M70.7,205.4v-2.3c-0.3-0.5-1.1-0.8-1.7-0.8c-1.1,0-1.9,0.7-1.9,1.9c0,1.3,0.8,1.9,1.9,1.9C69.6,206.2,70.3,205.9,70.7,205.4z"/>
	<path fill="#FFFFFF" d="M75.3,197.7c0-0.9,0.7-1.6,1.6-1.6s1.6,0.7,1.6,1.6c0,0.9-0.7,1.6-1.6,1.6S75.3,198.6,75.3,197.7z
		 M75.5,208.7v-8.7h2.8v8.7H75.5z"/>
	<path fill="#FFFFFF" d="M79.7,204.4c0-2.7,2-4.6,4.7-4.6c1.9,0,3,0.8,3.6,1.6l-1.8,1.7c-0.3-0.5-0.9-0.8-1.6-0.8
		c-1.2,0-2,0.8-2,2.1s0.9,2.1,2,2.1c0.7,0,1.3-0.4,1.6-0.8l1.8,1.7c-0.5,0.8-1.7,1.6-3.6,1.6C81.7,209,79.7,207.1,79.7,204.4z"/>
	<path fill="#FFFFFF" d="M94.4,208.7v-0.9c-0.5,0.6-1.6,1.1-2.7,1.1c-1.3,0-3-0.9-3-2.9c0-2.1,1.7-2.8,3-2.8c1.2,0,2.2,0.4,2.7,1
		v-0.9c0-0.8-0.6-1.3-1.8-1.3c-0.9,0-1.7,0.3-2.4,0.9l-1-1.9c1.1-1,2.6-1.4,3.9-1.4c2.1,0,4.1,0.8,4.1,3.5v5.4H94.4z M94.4,206.5
		v-0.8c-0.3-0.4-0.9-0.6-1.5-0.6c-0.7,0-1.4,0.3-1.4,1c0,0.7,0.7,1,1.4,1C93.5,207.1,94.1,206.9,94.4,206.5z"/>
	<path fill="#FFFFFF" d="M99.2,208.7v-12h2.8v12H99.2z"/>
	<path fill="#FFFFFF" d="M103.4,204.4c0-2.5,1.9-4.6,4.6-4.6c2.6,0,4.4,1.9,4.4,4.8v0.6h-6.2c0.2,0.8,0.9,1.4,2.2,1.4
		c0.6,0,1.6-0.3,2.1-0.7l1.2,1.8c-0.9,0.8-2.3,1.2-3.6,1.2C105.5,209,103.4,207.2,103.4,204.4z M108,202.1c-1.2,0-1.7,0.7-1.8,1.4
		h3.6C109.7,202.8,109.3,202.1,108,202.1z"/>
	<path fill="#FFFFFF" d="M121.2,207.7v4.3h-2.8v-12h2.8v1c0.7-0.8,1.6-1.2,2.6-1.2c2.2,0,3.8,1.6,3.8,4.6c0,3-1.6,4.6-3.8,4.6
		C122.8,209,121.9,208.6,121.2,207.7z M124.8,204.4c0-1.3-0.8-2.1-1.9-2.1c-0.6,0-1.3,0.3-1.7,0.8v2.6c0.3,0.4,1.1,0.8,1.7,0.8
		C124,206.5,124.8,205.7,124.8,204.4z"/>
	<path fill="#FFFFFF" d="M128.5,204.4c0-2.4,1.8-4.6,4.7-4.6c3,0,4.8,2.1,4.8,4.6c0,2.4-1.8,4.6-4.8,4.6
		C130.2,209,128.5,206.8,128.5,204.4z M135.1,204.4c0-1.2-0.7-2.1-1.9-2.1c-1.2,0-1.9,1-1.9,2.1c0,1.2,0.7,2.1,1.9,2.1
		C134.4,206.5,135.1,205.6,135.1,204.4z"/>
	<path fill="#FFFFFF" d="M145.3,208.7v-1c-0.5,0.6-1.5,1.3-3,1.3c-2,0-2.9-1.1-2.9-2.7v-6.2h2.8v5c0,1.1,0.5,1.4,1.4,1.4
		c0.8,0,1.3-0.4,1.7-0.8v-5.6h2.8v8.7H145.3z"/>
	<path fill="#FFFFFF" d="M150.1,208.7v-8.7h2.8v1.1c0.6-0.7,1.7-1.3,2.7-1.3v2.7c-0.2-0.1-0.4-0.1-0.7-0.1c-0.7,0-1.7,0.3-2,0.8v5.5
		H150.1z"/>
	<path fill="#FFFFFF" d="M160.9,204.4c0-2.5,1.9-4.6,4.6-4.6c2.6,0,4.4,1.9,4.4,4.8v0.6h-6.2c0.2,0.8,0.9,1.4,2.2,1.4
		c0.6,0,1.6-0.3,2.1-0.7l1.2,1.8c-0.9,0.8-2.3,1.2-3.6,1.2C162.9,209,160.9,207.2,160.9,204.4z M165.5,202.1c-1.2,0-1.7,0.7-1.8,1.4
		h3.6C167.2,202.8,166.8,202.1,165.5,202.1z M165.8,198.7h-1.9l2.3-2.6h2.4L165.8,198.7z"/>
	<path fill="#FFFFFF" d="M173.5,208.7l-3.4-8.7h2.9l2,5.5l2-5.5h2.9l-3.4,8.7H173.5z"/>
	<path fill="#FFFFFF" d="M180.5,197.7c0-0.9,0.7-1.6,1.6-1.6c0.9,0,1.6,0.7,1.6,1.6c0,0.9-0.7,1.6-1.6,1.6
		C181.2,199.3,180.5,198.6,180.5,197.7z M180.7,208.7v-8.7h2.8v8.7H180.7z"/>
	<path fill="#FFFFFF" d="M186.1,206.4v-4h-1.4v-2.4h1.4v-2.4h2.8v2.4h1.8v2.4h-1.8v3.2c0,0.5,0.3,0.9,0.8,0.9c0.3,0,0.6-0.1,0.7-0.2
		l0.5,2.1c-0.3,0.3-1,0.6-2.1,0.6C187,209,186.1,208.1,186.1,206.4z"/>
	<path fill="#FFFFFF" d="M191.4,204.4c0-2.5,1.9-4.6,4.6-4.6c2.6,0,4.4,1.9,4.4,4.8v0.6h-6.2c0.2,0.8,0.9,1.4,2.2,1.4
		c0.6,0,1.6-0.3,2.1-0.7l1.2,1.8c-0.9,0.8-2.3,1.2-3.6,1.2C193.5,209,191.4,207.2,191.4,204.4z M196,202.1c-1.2,0-1.7,0.7-1.8,1.4
		h3.6C197.8,202.8,197.3,202.1,196,202.1z"/>
	<path fill="#FFFFFF" d="M201.9,208.7v-8.7h2.8v1.1c0.6-0.7,1.7-1.3,2.7-1.3v2.7c-0.2-0.1-0.4-0.1-0.7-0.1c-0.7,0-1.7,0.3-2,0.8v5.5
		H201.9z"/>
</g>
<g>
	<path fill="#FFFFFF" d="M22.1,227.8v-1c-0.7,0.8-1.6,1.2-2.6,1.2c-2.1,0-3.8-1.6-3.8-4.6c0-2.8,1.7-4.6,3.8-4.6
		c1,0,1.9,0.4,2.6,1.2v-4.3h2.8v12H22.1z M22.1,224.7v-2.7c-0.4-0.5-1.1-0.8-1.7-0.8c-1.1,0-1.9,0.8-1.9,2.1c0,1.3,0.8,2.1,1.9,2.1
		C21,225.5,21.7,225.2,22.1,224.7z"/>
	<path fill="#FFFFFF" d="M26.3,223.4c0-2.5,1.9-4.6,4.6-4.6c2.6,0,4.4,1.9,4.4,4.8v0.6h-6.2c0.2,0.8,0.9,1.4,2.2,1.4
		c0.6,0,1.6-0.3,2.1-0.7l1.2,1.8c-0.9,0.8-2.3,1.2-3.6,1.2C28.4,228,26.3,226.2,26.3,223.4z M30.9,221.1c-1.2,0-1.7,0.7-1.8,1.3h3.6
		C32.6,221.8,32.2,221.1,30.9,221.1z"/>
	<path fill="#FFFFFF" d="M44.1,226.7v4.3h-2.8v-12h2.8v1c0.7-0.8,1.6-1.2,2.6-1.2c2.2,0,3.8,1.6,3.8,4.6c0,3-1.6,4.6-3.8,4.6
		C45.7,228,44.8,227.6,44.1,226.7z M47.7,223.4c0-1.3-0.8-2.1-1.9-2.1c-0.6,0-1.3,0.3-1.7,0.8v2.6c0.3,0.5,1.1,0.8,1.7,0.8
		C46.8,225.5,47.7,224.7,47.7,223.4z"/>
	<path fill="#FFFFFF" d="M51.4,223.4c0-2.5,1.9-4.6,4.6-4.6c2.6,0,4.4,1.9,4.4,4.8v0.6h-6.2c0.2,0.8,0.9,1.4,2.2,1.4
		c0.6,0,1.6-0.3,2.1-0.7l1.2,1.8c-0.9,0.8-2.3,1.2-3.6,1.2C53.4,228,51.4,226.2,51.4,223.4z M56,221.1c-1.2,0-1.7,0.7-1.8,1.3h3.6
		C57.7,221.8,57.3,221.1,56,221.1z"/>
	<path fill="#FFFFFF" d="M61.8,227.8v-8.7h2.8v1.1c0.6-0.7,1.7-1.3,2.7-1.3v2.7c-0.2-0.1-0.4-0.1-0.7-0.1c-0.7,0-1.7,0.3-2,0.8v5.5
		H61.8z"/>
	<path fill="#FFFFFF" d="M74.4,227.8v-1c-0.7,0.8-1.6,1.2-2.6,1.2c-2.1,0-3.8-1.6-3.8-4.6c0-2.8,1.7-4.6,3.8-4.6
		c1,0,1.9,0.4,2.6,1.2v-4.3h2.8v12H74.4z M74.4,224.7v-2.7c-0.4-0.5-1.1-0.8-1.7-0.8c-1.1,0-1.9,0.8-1.9,2.1c0,1.3,0.8,2.1,1.9,2.1
		C73.3,225.5,74,225.2,74.4,224.7z"/>
	<path fill="#FFFFFF" d="M79.2,227.8v-8.7H82v1.1c0.6-0.7,1.7-1.3,2.7-1.3v2.7c-0.2-0.1-0.4-0.1-0.7-0.1c-0.7,0-1.7,0.3-2,0.8v5.5
		H79.2z"/>
	<path fill="#FFFFFF" d="M85.4,223.4c0-2.5,1.9-4.6,4.6-4.6c2.6,0,4.4,1.9,4.4,4.8v0.6h-6.2c0.2,0.8,0.9,1.4,2.2,1.4
		c0.6,0,1.6-0.3,2.1-0.7l1.2,1.8c-0.9,0.8-2.3,1.2-3.6,1.2C87.4,228,85.4,226.2,85.4,223.4z M90,221.1c-1.2,0-1.7,0.7-1.8,1.3h3.6
		C91.7,221.8,91.3,221.1,90,221.1z"/>
	<path fill="#FFFFFF" d="M100.4,227.8v-12h2.8v12H100.4z"/>
	<path fill="#FFFFFF" d="M110.3,227.8v-0.9c-0.5,0.6-1.6,1.1-2.7,1.1c-1.3,0-3-0.9-3-2.9c0-2.1,1.7-2.8,3-2.8c1.2,0,2.2,0.4,2.7,1
		v-0.9c0-0.8-0.6-1.3-1.8-1.3c-0.9,0-1.7,0.3-2.4,0.9l-1-1.9c1.1-1,2.6-1.4,3.9-1.4c2.1,0,4.1,0.8,4.1,3.5v5.4H110.3z M110.3,225.5
		v-0.8c-0.3-0.4-0.9-0.6-1.5-0.6c-0.7,0-1.4,0.3-1.4,1c0,0.7,0.7,1,1.4,1C109.4,226.2,110,225.9,110.3,225.5z"/>
	<path fill="#FFFFFF" d="M122,227.8l-3.4-8.7h2.9l2,5.5l2-5.5h2.9l-3.4,8.7H122z"/>
	<path fill="#FFFFFF" d="M135,227.8v-1c-0.5,0.6-1.5,1.3-3,1.3c-2,0-2.9-1.1-2.9-2.7v-6.2h2.8v5c0,1.1,0.5,1.4,1.4,1.4
		c0.8,0,1.3-0.4,1.7-0.8v-5.6h2.8v8.7H135z"/>
	<path fill="#FFFFFF" d="M139.2,223.4c0-2.5,1.9-4.6,4.6-4.6c2.6,0,4.4,1.9,4.4,4.8v0.6h-6.2c0.2,0.8,0.9,1.4,2.2,1.4
		c0.6,0,1.6-0.3,2.1-0.7l1.2,1.8c-0.9,0.8-2.3,1.2-3.6,1.2C141.3,228,139.2,226.2,139.2,223.4z M143.9,221.1c-1.2,0-1.7,0.7-1.8,1.3
		h3.6C145.6,221.8,145.1,221.1,143.9,221.1z"/>
</g>
</svg>
