<?xml version="1.0" encoding="utf-8"?>
<!-- Generator: Adobe Illustrator 19.0.0, SVG Export Plug-In . SVG Version: 6.00 Build 0)  -->
<svg version="1.1" id="Layer_1" xmlns="http://www.w3.org/2000/svg" xmlns:xlink="http://www.w3.org/1999/xlink" x="0px" y="0px"
	 viewBox="0 0 220 232.4" style="enable-background:new 0 0 220 232.4;" xml:space="preserve">
<style type="text/css">
	.st0{fill:#008590;}
	.st1{fill:#FFFFFF;}
</style>
<rect x="0" class="st0" width="220" height="232.4"/>
<g>
	<path class="st1" d="M15.5,19.4c0-2.1,1.6-3.4,3.6-3.4c1.6,0,2.5,0.9,2.9,1.8l-1.5,0.7c-0.2-0.5-0.8-1-1.4-1
		c-1.1,0-1.9,0.8-1.9,1.9c0,1.1,0.8,1.9,1.9,1.9c0.6,0,1.2-0.4,1.4-1l1.5,0.7c-0.4,0.8-1.3,1.8-2.9,1.8C17,22.9,15.5,21.5,15.5,19.4
		z"/>
	<path class="st1" d="M27.2,22.7v-2.7h-2.8v2.7h-1.7v-6.7h1.7v2.5h2.8v-2.5h1.7v6.7H27.2z"/>
	<path class="st1" d="M34.7,22.7l-0.3-1h-2.6l-0.3,1h-1.9l2.5-6.7h2.2l2.5,6.7H34.7z M33,17.8l-0.8,2.5h1.7L33,17.8z"/>
	<path class="st1" d="M40.8,22.7l-1.1-2.2h-0.9v2.2h-1.7v-6.7h3.3c1.5,0,2.3,1,2.3,2.2c0,1.2-0.7,1.8-1.3,2l1.4,2.4H40.8z M41,18.3
		c0-0.5-0.4-0.7-0.8-0.7h-1.4V19h1.4C40.6,19,41,18.7,41,18.3z"/>
	<path class="st1" d="M43.4,19.4c0-2.1,1.6-3.4,3.6-3.4c1.5,0,2.4,0.8,2.8,1.6l-1.4,0.7c-0.2-0.4-0.8-0.8-1.4-0.8
		c-1.1,0-1.9,0.8-1.9,1.9c0,1.1,0.8,1.9,1.9,1.9c0.5,0,1-0.2,1.2-0.4v-0.5h-1.5v-1.5h3.2v2.6c-0.7,0.8-1.7,1.3-2.9,1.3
		C45,22.9,43.4,21.5,43.4,19.4z"/>
	<path class="st1" d="M50.9,22.7v-6.7h4.9v1.5h-3.2v1h3.1v1.5h-3.1v1.1h3.2v1.5H50.9z"/>
	<path class="st1" d="M59.4,22.7v-6.7h2.8c2.1,0,3.6,1.3,3.6,3.3s-1.5,3.3-3.6,3.3H59.4z M64,19.4c0-1-0.6-1.8-1.8-1.8h-1.1v3.7h1.1
		C63.4,21.2,64,20.4,64,19.4z"/>
	<path class="st1" d="M66.7,22.7v-6.7h4.9v1.5h-3.2v1h3.1v1.5h-3.1v1.1h3.2v1.5H66.7z"/>
	<path class="st1" d="M75.1,22.7v-6.7h1.7v5.2h2.7v1.5H75.1z"/>
	<path class="st1" d="M84.9,22.7l-0.3-1h-2.6l-0.3,1h-1.9l2.5-6.7h2.2l2.5,6.7H84.9z M83.3,17.8l-0.8,2.5h1.7L83.3,17.8z"/>
	<path class="st1" d="M95.7,22.7v-4.4l-1.7,4.4h-0.8l-1.7-4.4v4.4h-1.7v-6.7h2.4l1.4,3.7l1.4-3.7h2.4v6.7H95.7z"/>
	<path class="st1" d="M103.2,22.7l-0.3-1h-2.6l-0.3,1H98l2.5-6.7h2.2l2.5,6.7H103.2z M101.6,17.8l-0.8,2.5h1.7L101.6,17.8z"/>
	<path class="st1" d="M105.6,22.7v-6.7h1.7v5.2h2.7v1.5H105.6z"/>
	<path class="st1" d="M115.4,22.7l-0.3-1h-2.6l-0.3,1h-1.9l2.5-6.7h2.2l2.5,6.7H115.4z M113.8,17.8l-0.8,2.5h1.7L113.8,17.8z"/>
	<path class="st1" d="M117.9,22.7v-6.7h2.8c2.1,0,3.6,1.3,3.6,3.3s-1.5,3.3-3.6,3.3H117.9z M122.5,19.4c0-1-0.6-1.8-1.8-1.8h-1.1
		v3.7h1.1C121.8,21.2,122.5,20.4,122.5,19.4z"/>
	<path class="st1" d="M125.1,22.7v-6.7h1.7v6.7H125.1z"/>
	<path class="st1" d="M128,22.7v-6.7h4.9v1.5h-3.2v1h3.1v1.5h-3.1v1.1h3.2v1.5H128z"/>
	<path class="st1" d="M136.3,18.8c0-0.5,0.4-0.9,1-0.9s0.9,0.4,0.9,0.9s-0.4,0.9-0.9,0.9S136.3,19.3,136.3,18.8z M136.3,21.9
		c0-0.5,0.4-0.9,1-0.9s0.9,0.4,0.9,0.9c0,0.5-0.4,0.9-0.9,0.9S136.3,22.4,136.3,21.9z"/>
	<path class="st1" d="M16.6,84.5L24.4,74c4.4,4.2,11,6.2,16.2,6.2c6.6,0,10-2.5,10-5.8c0-3.4-2.5-5.1-10.6-5.1c-2.6,0-7.1,0.1-8,0.2
		V56c1.2,0.1,5.8,0.1,8,0.1c6.1,0,9.6-1.5,9.6-4.6c0-3.7-4.3-5.4-10-5.4c-5.4,0-10.6,2-14.8,5.7l-7.4-9.6c5.1-5.6,12.8-9.6,23.8-9.6
		c15.1,0,23.6,6.5,23.6,16.3c0,6.9-6,12.2-13,13.4c6.3,0.6,14,5.5,14,14.1c0,10.4-9.8,17.6-24.6,17.6C29.8,93.8,21.4,89.8,16.6,84.5
		z"/>
	<path class="st1" d="M75.1,105.4l-5.7-4.6c2.8-1.4,6.6-5.3,7.6-8.5c-0.4,0.1-1.2,0.3-2,0.3c-3.8,0-6.9-2.9-6.9-7.3
		c0-4.5,3.7-8.2,8.2-8.2c4.8,0,9.1,3.7,9.1,10.2C85.3,94.6,81.3,101,75.1,105.4z"/>
	<path class="st1" d="M87.1,92.7V80.8c25.7-18.6,30.5-22.7,30.5-28.7c0-4-3.8-6.1-8.2-6.1c-6.6,0-11.6,2.5-15.8,6.5l-8.5-10.1
		c6.3-6.9,15.8-9.9,24-9.9c14,0,24,7.8,24,19.7c0,9.2-6.5,16.9-21.3,27.2h21.7v13.4H87.1z"/>
	<path class="st1" d="M52.4,143.7v-16.5c0-2.1-1-3.6-3.6-3.6c-2.4,0-4,1.5-4.9,2.6v17.5h-8.6v-16.5c0-2.1-1-3.6-3.5-3.6
		c-2.4,0-4,1.5-4.9,2.6v17.5h-8.6v-27H27v3.3c1.2-1.6,4.6-4,8.9-4c3.9,0,6.6,1.6,7.7,4.8c1.6-2.4,5.1-4.8,9.4-4.8
		c5,0,8.1,2.6,8.1,8.1v19.6H52.4z"/>
	<path class="st1" d="M65.7,109.3c0-2.7,2.2-4.9,4.9-4.9c2.7,0,5,2.2,5,4.9c0,2.7-2.2,5-5,5C67.9,114.3,65.7,112,65.7,109.3z
		 M66.3,143.7v-27h8.6v27H66.3z"/>
	<path class="st1" d="M80.1,143.7v-37.4h8.6v37.4H80.1z"/>
	<path class="st1" d="M93.9,143.7v-37.4h8.6v37.4H93.9z"/>
	<path class="st1" d="M107.2,109.3c0-2.7,2.2-4.9,4.9-4.9s5,2.2,5,4.9c0,2.7-2.2,5-5,5S107.2,112,107.2,109.3z M107.8,143.7v-27h8.6
		v27H107.8z"/>
	<path class="st1" d="M119.9,130.2c0-7.6,5.5-14.2,14.7-14.2c9.3,0,14.8,6.6,14.8,14.2s-5.5,14.2-14.8,14.2
		C125.4,144.4,119.9,137.8,119.9,130.2z M140.5,130.2c0-3.6-2.1-6.6-5.9-6.6c-3.7,0-5.8,3-5.8,6.6c0,3.6,2.1,6.6,5.8,6.6
		C138.4,136.8,140.5,133.8,140.5,130.2z"/>
	<path class="st1" d="M171.1,143.7v-15.6c0-3.3-1.7-4.5-4.4-4.5c-2.6,0-4.3,1.4-5.3,2.6v17.5h-8.6v-27h8.6v3.3c1.6-1.9,4.8-4,9.4-4
		c6.1,0,8.9,3.6,8.9,8.6v19.2H171.1z"/>
	<path class="st1" d="M182.6,140.2l3.6-6.2c2,1.8,6.3,3.6,9.5,3.6c2.6,0,3.6-0.7,3.6-1.9c0-3.4-15.7,0.1-15.7-10.9
		c0-4.8,4.1-8.9,11.6-8.9c4.6,0,8.4,1.5,11.3,3.6l-3.3,6.1c-1.6-1.6-4.7-3-8-3c-2,0-3.4,0.8-3.4,1.8c0,3,15.7-0.1,15.7,11
		c0,5.2-4.5,8.8-12.3,8.8C190.5,144.4,185.5,142.8,182.6,140.2z"/>
	<path class="st1" d="M22.1,162.7v-1c-0.7,0.8-1.6,1.2-2.6,1.2c-2.1,0-3.8-1.6-3.8-4.6c0-2.8,1.7-4.6,3.8-4.6c1,0,1.9,0.4,2.6,1.2
		v-4.3h2.8v12H22.1z M22.1,159.7V157c-0.4-0.5-1.1-0.8-1.7-0.8c-1.1,0-1.9,0.8-1.9,2.1c0,1.3,0.8,2.1,1.9,2.1
		C21,160.5,21.7,160.2,22.1,159.7z"/>
	<path class="st1" d="M26.3,158.4c0-2.5,1.9-4.6,4.6-4.6c2.6,0,4.4,1.9,4.4,4.8v0.6h-6.2c0.2,0.8,0.9,1.4,2.2,1.4
		c0.6,0,1.6-0.3,2.1-0.7l1.2,1.8c-0.9,0.8-2.3,1.2-3.6,1.2C28.4,162.9,26.3,161.2,26.3,158.4z M30.9,156.1c-1.2,0-1.7,0.7-1.8,1.4
		h3.6C32.6,156.8,32.2,156.1,30.9,156.1z"/>
	<path class="st1" d="M44.1,161.7v4.3h-2.8v-12h2.8v1c0.7-0.8,1.6-1.2,2.6-1.2c2.2,0,3.8,1.6,3.8,4.6c0,3-1.6,4.6-3.8,4.6
		C45.7,162.9,44.8,162.6,44.1,161.7z M47.7,158.4c0-1.3-0.8-2.1-1.9-2.1c-0.6,0-1.3,0.3-1.7,0.8v2.6c0.3,0.4,1.1,0.8,1.7,0.8
		C46.8,160.5,47.7,159.7,47.7,158.4z"/>
	<path class="st1" d="M51.4,158.4c0-2.5,1.9-4.6,4.6-4.6c2.6,0,4.4,1.9,4.4,4.8v0.6h-6.2c0.2,0.8,0.9,1.4,2.2,1.4
		c0.6,0,1.6-0.3,2.1-0.7l1.2,1.8c-0.9,0.8-2.3,1.2-3.6,1.2C53.4,162.9,51.4,161.2,51.4,158.4z M56,156.1c-1.2,0-1.7,0.7-1.8,1.4h3.6
		C57.7,156.8,57.3,156.1,56,156.1z"/>
	<path class="st1" d="M61.8,162.7V154h2.8v1.1c0.6-0.7,1.7-1.3,2.7-1.3v2.7c-0.2-0.1-0.4-0.1-0.7-0.1c-0.7,0-1.7,0.3-2,0.8v5.5H61.8
		z"/>
	<path class="st1" d="M67.8,161.6l1.2-2c0.6,0.6,2,1.2,3.1,1.2c0.8,0,1.2-0.2,1.2-0.6c0-1.1-5.1,0-5.1-3.5c0-1.5,1.3-2.9,3.7-2.9
		c1.5,0,2.7,0.5,3.6,1.2l-1.1,2c-0.5-0.5-1.5-1-2.6-1c-0.6,0-1.1,0.3-1.1,0.6c0,1,5,0,5,3.5c0,1.7-1.5,2.8-3.9,2.8
		C70.3,162.9,68.7,162.4,67.8,161.6z"/>
	<path class="st1" d="M76.7,158.4c0-2.4,1.8-4.6,4.7-4.6c3,0,4.8,2.1,4.8,4.6c0,2.4-1.8,4.6-4.8,4.6
		C78.5,162.9,76.7,160.8,76.7,158.4z M83.3,158.4c0-1.2-0.7-2.1-1.9-2.1c-1.2,0-1.9,1-1.9,2.1c0,1.2,0.7,2.1,1.9,2.1
		C82.6,160.5,83.3,159.5,83.3,158.4z"/>
	<path class="st1" d="M93.5,162.7v-5c0-1.1-0.6-1.4-1.4-1.4c-0.8,0-1.4,0.5-1.7,0.8v5.6h-2.8V154h2.8v1.1c0.5-0.6,1.5-1.3,3-1.3
		c2,0,2.9,1.2,2.9,2.8v6.2H93.5z"/>
	<path class="st1" d="M104.2,162.7v-5c0-1.1-0.6-1.4-1.4-1.4c-0.8,0-1.4,0.5-1.7,0.8v5.6h-2.8V154h2.8v1.1c0.5-0.6,1.5-1.3,3-1.3
		c2,0,2.9,1.2,2.9,2.8v6.2H104.2z"/>
	<path class="st1" d="M108.4,158.4c0-2.5,1.9-4.6,4.6-4.6c2.6,0,4.4,1.9,4.4,4.8v0.6h-6.2c0.2,0.8,0.9,1.4,2.2,1.4
		c0.6,0,1.6-0.3,2.1-0.7l1.2,1.8c-0.9,0.8-2.3,1.2-3.6,1.2C110.5,162.9,108.4,161.2,108.4,158.4z M113,156.1c-1.2,0-1.7,0.7-1.8,1.4
		h3.6C114.8,156.8,114.3,156.1,113,156.1z"/>
	<path class="st1" d="M118.1,161.6l1.2-2c0.6,0.6,2,1.2,3.1,1.2c0.8,0,1.2-0.2,1.2-0.6c0-1.1-5.1,0-5.1-3.5c0-1.5,1.3-2.9,3.7-2.9
		c1.5,0,2.7,0.5,3.6,1.2l-1.1,2c-0.5-0.5-1.5-1-2.6-1c-0.6,0-1.1,0.3-1.1,0.6c0,1,5,0,5,3.5c0,1.7-1.5,2.8-3.9,2.8
		C120.6,162.9,119,162.4,118.1,161.6z"/>
	<path class="st1" d="M137.3,162.7v-0.9c-0.5,0.6-1.6,1.1-2.7,1.1c-1.3,0-3-0.9-3-2.9c0-2.1,1.7-2.8,3-2.8c1.2,0,2.2,0.4,2.7,1v-0.9
		c0-0.8-0.6-1.3-1.8-1.3c-0.9,0-1.7,0.3-2.4,0.9l-1-1.9c1.1-1,2.6-1.4,3.9-1.4c2.1,0,4.1,0.8,4.1,3.5v5.4H137.3z M137.3,160.5v-0.8
		c-0.3-0.4-0.9-0.6-1.5-0.6c-0.7,0-1.4,0.3-1.4,1c0,0.7,0.7,1,1.4,1C136.3,161.1,137,160.9,137.3,160.5z"/>
	<path class="st1" d="M142.3,163.7c0.2,0.1,0.5,0.2,0.7,0.2c0.6,0,1-0.1,1.2-0.5l0.2-0.5l-3.5-8.8h2.9l2,5.5l2-5.5h2.9l-3.9,9.9
		c-0.7,1.8-2,2.3-3.7,2.3c-0.3,0-0.9-0.1-1.2-0.1L142.3,163.7z"/>
	<path class="st1" d="M156.6,162.7v-0.9c-0.5,0.6-1.6,1.1-2.7,1.1c-1.3,0-3-0.9-3-2.9c0-2.1,1.7-2.8,3-2.8c1.2,0,2.2,0.4,2.7,1v-0.9
		c0-0.8-0.6-1.3-1.8-1.3c-0.9,0-1.7,0.3-2.4,0.9l-1-1.9c1.1-1,2.6-1.4,3.9-1.4c2.1,0,4.1,0.8,4.1,3.5v5.4H156.6z M156.6,160.5v-0.8
		c-0.3-0.4-0.9-0.6-1.5-0.6c-0.7,0-1.4,0.3-1.4,1c0,0.7,0.7,1,1.4,1C155.7,161.1,156.3,160.9,156.6,160.5z"/>
	<path class="st1" d="M167.3,162.7v-5c0-1.1-0.6-1.4-1.4-1.4c-0.8,0-1.4,0.5-1.7,0.8v5.6h-2.8V154h2.8v1.1c0.5-0.6,1.5-1.3,3-1.3
		c2,0,2.9,1.2,2.9,2.8v6.2H167.3z"/>
	<path class="st1" d="M172.7,160.4v-4h-1.4V154h1.4v-2.4h2.8v2.4h1.8v2.4h-1.8v3.2c0,0.5,0.3,0.9,0.8,0.9c0.3,0,0.6-0.1,0.7-0.2
		l0.5,2.1c-0.3,0.3-1,0.6-2.1,0.6C173.6,162.9,172.7,162.1,172.7,160.4z"/>
	<path class="st1" d="M16.2,181.7v-12H19v4.3c0.7-0.9,1.6-1.2,2.6-1.2c2.2,0,3.8,1.7,3.8,4.6c0,3-1.7,4.6-3.8,4.6
		c-1,0-1.9-0.4-2.6-1.2v1H16.2z M20.6,179.5c1.1,0,1.9-0.8,1.9-2.1c0-1.3-0.8-2.1-1.9-2.1c-0.6,0-1.3,0.3-1.7,0.8v2.7
		C19.3,179.2,20.1,179.5,20.6,179.5z"/>
	<path class="st1" d="M26.3,177.4c0-2.5,1.9-4.6,4.6-4.6c2.6,0,4.4,1.9,4.4,4.8v0.6h-6.2c0.2,0.8,0.9,1.4,2.2,1.4
		c0.6,0,1.6-0.3,2.1-0.7l1.2,1.8c-0.9,0.8-2.3,1.2-3.6,1.2C28.4,181.9,26.3,180.2,26.3,177.4z M30.9,175.1c-1.2,0-1.7,0.7-1.8,1.4
		h3.6C32.6,175.8,32.2,175.1,30.9,175.1z"/>
	<path class="st1" d="M36,180.6l1.2-2c0.6,0.6,2,1.2,3.1,1.2c0.8,0,1.2-0.2,1.2-0.6c0-1.1-5.1,0-5.1-3.5c0-1.5,1.3-2.9,3.7-2.9
		c1.5,0,2.7,0.5,3.6,1.2l-1.1,2c-0.5-0.5-1.5-1-2.6-1c-0.6,0-1.1,0.3-1.1,0.6c0,1,5,0,5,3.5c0,1.7-1.5,2.8-3.9,2.8
		C38.5,181.9,36.9,181.4,36,180.6z"/>
	<path class="st1" d="M44.9,177.4c0-2.4,1.8-4.6,4.7-4.6c3,0,4.8,2.1,4.8,4.6c0,2.4-1.8,4.6-4.8,4.6
		C46.6,181.9,44.9,179.8,44.9,177.4z M51.5,177.4c0-1.2-0.7-2.1-1.9-2.1c-1.2,0-1.9,1-1.9,2.1c0,1.2,0.7,2.1,1.9,2.1
		C50.8,179.5,51.5,178.5,51.5,177.4z"/>
	<path class="st1" d="M55.6,170.7c0-0.9,0.7-1.6,1.6-1.6c0.9,0,1.6,0.7,1.6,1.6c0,0.9-0.7,1.6-1.6,1.6
		C56.3,172.3,55.6,171.5,55.6,170.7z M55.8,181.7V173h2.8v8.7H55.8z"/>
	<path class="st1" d="M66.5,181.7v-5c0-1.1-0.6-1.4-1.4-1.4c-0.8,0-1.4,0.5-1.7,0.8v5.6h-2.8V173h2.8v1.1c0.5-0.6,1.5-1.3,3-1.3
		c2,0,2.9,1.2,2.9,2.8v6.2H66.5z"/>
	<path class="st1" d="M81.7,181.7v-1c-0.7,0.8-1.6,1.2-2.6,1.2c-2.1,0-3.8-1.6-3.8-4.6c0-2.8,1.7-4.6,3.8-4.6c1,0,1.9,0.4,2.6,1.2
		v-4.3h2.8v12H81.7z M81.7,178.7V176c-0.4-0.5-1.1-0.8-1.7-0.8c-1.1,0-1.9,0.8-1.9,2.1c0,1.3,0.8,2.1,1.9,2.1
		C80.6,179.5,81.4,179.2,81.7,178.7z"/>
	<path class="st1" d="M87.7,175.3l-1.2-0.9c0.6-0.3,1.3-1.1,1.5-1.7c-0.1,0-0.3,0.1-0.4,0.1c-0.8,0-1.4-0.6-1.4-1.5
		c0-0.9,0.8-1.7,1.7-1.7c1,0,1.8,0.8,1.8,2.1C89.7,173.1,88.9,174.4,87.7,175.3z"/>
	<path class="st1" d="M97.2,181.7v-1c-0.5,0.6-1.5,1.3-3,1.3c-2,0-2.9-1.1-2.9-2.7V173h2.8v5c0,1.1,0.5,1.4,1.4,1.4
		c0.8,0,1.3-0.4,1.7-0.8V173h2.8v8.7H97.2z"/>
	<path class="st1" d="M107.9,181.7v-5c0-1.1-0.6-1.4-1.4-1.4c-0.8,0-1.4,0.5-1.7,0.8v5.6H102V173h2.8v1.1c0.5-0.6,1.5-1.3,3-1.3
		c2,0,2.9,1.2,2.9,2.8v6.2H107.9z"/>
	<path class="st1" d="M112.1,177.4c0-2.5,1.9-4.6,4.6-4.6c2.6,0,4.4,1.9,4.4,4.8v0.6H115c0.2,0.8,0.9,1.4,2.2,1.4
		c0.6,0,1.6-0.3,2.1-0.7l1.2,1.8c-0.9,0.8-2.3,1.2-3.6,1.2C114.2,181.9,112.1,180.2,112.1,177.4z M116.7,175.1
		c-1.2,0-1.7,0.7-1.8,1.4h3.6C118.4,175.8,118,175.1,116.7,175.1z"/>
	<path class="st1" d="M126.6,177.4c0-2.4,1.8-4.6,4.7-4.6c3,0,4.8,2.1,4.8,4.6c0,2.4-1.8,4.6-4.8,4.6
		C128.3,181.9,126.6,179.8,126.6,177.4z M133.2,177.4c0-1.2-0.7-2.1-1.9-2.1c-1.2,0-1.9,1-1.9,2.1c0,1.2,0.7,2.1,1.9,2.1
		C132.5,179.5,133.2,178.5,133.2,177.4z"/>
	<path class="st1" d="M140.3,180.7v4.3h-2.8v-12h2.8v1c0.7-0.8,1.6-1.2,2.6-1.2c2.2,0,3.8,1.6,3.8,4.6c0,3-1.6,4.6-3.8,4.6
		C141.9,181.9,141,181.6,140.3,180.7z M143.8,177.4c0-1.3-0.8-2.1-1.9-2.1c-0.6,0-1.3,0.3-1.7,0.8v2.6c0.3,0.4,1.1,0.8,1.7,0.8
		C143,179.5,143.8,178.7,143.8,177.4z"/>
	<path class="st1" d="M147.5,177.4c0-2.5,1.9-4.6,4.6-4.6c2.6,0,4.4,1.9,4.4,4.8v0.6h-6.2c0.2,0.8,0.9,1.4,2.2,1.4
		c0.6,0,1.6-0.3,2.1-0.7l1.2,1.8c-0.9,0.8-2.3,1.2-3.6,1.2C149.6,181.9,147.5,180.2,147.5,177.4z M152.2,175.1
		c-1.2,0-1.7,0.7-1.8,1.4h3.6C153.9,175.8,153.4,175.1,152.2,175.1z M152.5,171.7h-1.9l2.3-2.6h2.4L152.5,171.7z"/>
	<path class="st1" d="M158,181.7V173h2.8v1.1c0.6-0.7,1.7-1.3,2.7-1.3v2.7c-0.2-0.1-0.4-0.1-0.7-0.1c-0.7,0-1.7,0.3-2,0.8v5.5H158z"
		/>
	<path class="st1" d="M169.8,181.7v-0.9c-0.5,0.6-1.6,1.1-2.7,1.1c-1.3,0-3-0.9-3-2.9c0-2.1,1.7-2.8,3-2.8c1.2,0,2.2,0.4,2.7,1v-0.9
		c0-0.8-0.6-1.3-1.8-1.3c-0.9,0-1.7,0.3-2.4,0.9l-1-1.9c1.1-1,2.6-1.4,3.9-1.4c2.1,0,4.1,0.8,4.1,3.5v5.4H169.8z M169.8,179.5v-0.8
		c-0.3-0.4-0.9-0.6-1.5-0.6c-0.7,0-1.4,0.3-1.4,1c0,0.7,0.7,1,1.4,1C168.9,180.1,169.6,179.9,169.8,179.5z"/>
	<path class="st1" d="M175.2,179.4v-4h-1.4V173h1.4v-2.4h2.8v2.4h1.8v2.4H178v3.2c0,0.5,0.3,0.9,0.8,0.9c0.3,0,0.6-0.1,0.7-0.2
		l0.5,2.1c-0.3,0.3-1,0.6-2.1,0.6C176.2,181.9,175.2,181.1,175.2,179.4z"/>
	<path class="st1" d="M180.9,170.7c0-0.9,0.7-1.6,1.6-1.6c0.9,0,1.6,0.7,1.6,1.6c0,0.9-0.7,1.6-1.6,1.6
		C181.6,172.3,180.9,171.5,180.9,170.7z M181.1,181.7V173h2.8v8.7H181.1z"/>
	<path class="st1" d="M185.3,177.4c0-2.4,1.8-4.6,4.7-4.6c3,0,4.8,2.1,4.8,4.6c0,2.4-1.8,4.6-4.8,4.6
		C187.1,181.9,185.3,179.8,185.3,177.4z M192,177.4c0-1.2-0.7-2.1-1.9-2.1c-1.2,0-1.9,1-1.9,2.1c0,1.2,0.7,2.1,1.9,2.1
		C191.3,179.5,192,178.5,192,177.4z"/>
	<path class="st1" d="M202.2,181.7v-5c0-1.1-0.6-1.4-1.4-1.4c-0.8,0-1.4,0.5-1.7,0.8v5.6h-2.8V173h2.8v1.1c0.5-0.6,1.5-1.3,3-1.3
		c2,0,2.9,1.2,2.9,2.8v6.2H202.2z"/>
	<path class="st1" d="M15.7,196.4c0-2.7,2-4.6,4.7-4.6c1.9,0,3,0.8,3.6,1.6l-1.8,1.7c-0.3-0.5-0.9-0.8-1.6-0.8c-1.2,0-2,0.8-2,2.1
		s0.9,2.1,2,2.1c0.7,0,1.3-0.4,1.6-0.8l1.8,1.7c-0.5,0.8-1.7,1.6-3.6,1.6C17.7,200.9,15.7,199.1,15.7,196.4z"/>
	<path class="st1" d="M31.1,200.7v-5.1c0-1.1-0.6-1.4-1.4-1.4c-0.8,0-1.4,0.5-1.7,0.8v5.6h-2.8v-12H28v4.4c0.5-0.6,1.5-1.3,3-1.3
		c2,0,2.9,1.1,2.9,2.7v6.2H31.1z"/>
	<path class="st1" d="M35.7,189.7c0-0.9,0.7-1.6,1.6-1.6s1.6,0.7,1.6,1.6c0,0.9-0.7,1.6-1.6,1.6S35.7,190.5,35.7,189.7z M35.9,200.7
		V192h2.8v8.7H35.9z"/>
	<path class="st1" d="M40.7,200.7V192h2.8v1.1c0.6-0.7,1.7-1.3,2.7-1.3v2.7c-0.2-0.1-0.4-0.1-0.7-0.1c-0.7,0-1.7,0.3-2,0.8v5.5H40.7
		z"/>
	<path class="st1" d="M53.3,200.7v-1c-0.5,0.6-1.5,1.3-3,1.3c-2,0-2.9-1.1-2.9-2.7V192h2.8v5c0,1.1,0.5,1.4,1.4,1.4
		c0.8,0,1.3-0.4,1.7-0.8V192h2.8v8.7H53.3z"/>
	<path class="st1" d="M58.1,200.7V192h2.8v1.1c0.6-0.7,1.7-1.3,2.7-1.3v2.7c-0.2-0.1-0.4-0.1-0.7-0.1c-0.7,0-1.7,0.3-2,0.8v5.5H58.1
		z"/>
	<path class="st1" d="M64.6,203l1.2-1.9c0.7,0.7,1.6,1,2.6,1c0.9,0,2.2-0.4,2.2-2.1v-0.7c-0.7,0.9-1.6,1.3-2.6,1.3
		c-2.1,0-3.8-1.5-3.8-4.4c0-2.9,1.6-4.4,3.8-4.4c1,0,1.9,0.4,2.6,1.2v-1h2.8v7.9c0,3.5-2.8,4.3-5,4.3C67,204.3,65.7,203.9,64.6,203z
		 M70.7,197.4V195c-0.3-0.5-1.1-0.8-1.7-0.8c-1.1,0-1.9,0.7-1.9,1.9c0,1.3,0.8,1.9,1.9,1.9C69.6,198.1,70.3,197.8,70.7,197.4z"/>
	<path class="st1" d="M75.3,189.7c0-0.9,0.7-1.6,1.6-1.6s1.6,0.7,1.6,1.6c0,0.9-0.7,1.6-1.6,1.6S75.3,190.5,75.3,189.7z M75.5,200.7
		V192h2.8v8.7H75.5z"/>
	<path class="st1" d="M79.7,196.4c0-2.7,2-4.6,4.7-4.6c1.9,0,3,0.8,3.6,1.6l-1.8,1.7c-0.3-0.5-0.9-0.8-1.6-0.8c-1.2,0-2,0.8-2,2.1
		s0.9,2.1,2,2.1c0.7,0,1.3-0.4,1.6-0.8l1.8,1.7c-0.5,0.8-1.7,1.6-3.6,1.6C81.7,200.9,79.7,199.1,79.7,196.4z"/>
	<path class="st1" d="M94.4,200.7v-0.9c-0.5,0.6-1.6,1.1-2.7,1.1c-1.3,0-3-0.9-3-2.9c0-2.1,1.7-2.8,3-2.8c1.2,0,2.2,0.4,2.7,1v-0.9
		c0-0.8-0.6-1.3-1.8-1.3c-0.9,0-1.7,0.3-2.4,0.9l-1-1.9c1.1-1,2.6-1.4,3.9-1.4c2.1,0,4.1,0.8,4.1,3.5v5.4H94.4z M94.4,198.5v-0.8
		c-0.3-0.4-0.9-0.6-1.5-0.6c-0.7,0-1.4,0.3-1.4,1c0,0.7,0.7,1,1.4,1C93.5,199.1,94.1,198.9,94.4,198.5z"/>
	<path class="st1" d="M99.2,200.7v-12h2.8v12H99.2z"/>
	<path class="st1" d="M103.4,196.4c0-2.5,1.9-4.6,4.6-4.6c2.6,0,4.4,1.9,4.4,4.8v0.6h-6.2c0.2,0.8,0.9,1.4,2.2,1.4
		c0.6,0,1.6-0.3,2.1-0.7l1.2,1.8c-0.9,0.8-2.3,1.2-3.6,1.2C105.5,200.9,103.4,199.2,103.4,196.4z M108,194.1c-1.2,0-1.7,0.7-1.8,1.4
		h3.6C109.7,194.8,109.3,194.1,108,194.1z"/>
	<path class="st1" d="M121.2,199.7v4.3h-2.8v-12h2.8v1c0.7-0.8,1.6-1.2,2.6-1.2c2.2,0,3.8,1.6,3.8,4.6c0,3-1.6,4.6-3.8,4.6
		C122.8,200.9,121.9,200.6,121.2,199.7z M124.8,196.4c0-1.3-0.8-2.1-1.9-2.1c-0.6,0-1.3,0.3-1.7,0.8v2.6c0.3,0.4,1.1,0.8,1.7,0.8
		C123.9,198.5,124.8,197.7,124.8,196.4z"/>
	<path class="st1" d="M128.5,196.4c0-2.4,1.8-4.6,4.7-4.6c3,0,4.8,2.1,4.8,4.6c0,2.4-1.8,4.6-4.8,4.6
		C130.2,200.9,128.5,198.8,128.5,196.4z M135.1,196.4c0-1.2-0.7-2.1-1.9-2.1c-1.2,0-1.9,1-1.9,2.1c0,1.2,0.7,2.1,1.9,2.1
		C134.4,198.5,135.1,197.5,135.1,196.4z"/>
	<path class="st1" d="M145.3,200.7v-1c-0.5,0.6-1.5,1.3-3,1.3c-2,0-2.9-1.1-2.9-2.7V192h2.8v5c0,1.1,0.5,1.4,1.4,1.4
		c0.8,0,1.3-0.4,1.7-0.8V192h2.8v8.7H145.3z"/>
	<path class="st1" d="M150.1,200.7V192h2.8v1.1c0.6-0.7,1.7-1.3,2.7-1.3v2.7c-0.2-0.1-0.4-0.1-0.7-0.1c-0.7,0-1.7,0.3-2,0.8v5.5
		H150.1z"/>
	<path class="st1" d="M160.9,196.4c0-2.5,1.9-4.6,4.6-4.6c2.6,0,4.4,1.9,4.4,4.8v0.6h-6.2c0.2,0.8,0.9,1.4,2.2,1.4
		c0.6,0,1.6-0.3,2.1-0.7l1.2,1.8c-0.9,0.8-2.3,1.2-3.6,1.2C162.9,200.9,160.9,199.2,160.9,196.4z M165.5,194.1
		c-1.2,0-1.7,0.7-1.8,1.4h3.6C167.2,194.8,166.8,194.1,165.5,194.1z M165.8,190.7h-1.9l2.3-2.6h2.4L165.8,190.7z"/>
	<path class="st1" d="M173.5,200.7l-3.4-8.7h2.9l2,5.5l2-5.5h2.9l-3.4,8.7H173.5z"/>
	<path class="st1" d="M180.5,189.7c0-0.9,0.7-1.6,1.6-1.6c0.9,0,1.6,0.7,1.6,1.6c0,0.9-0.7,1.6-1.6,1.6
		C181.2,191.3,180.5,190.5,180.5,189.7z M180.7,200.7V192h2.8v8.7H180.7z"/>
	<path class="st1" d="M186.1,198.4v-4h-1.4V192h1.4v-2.4h2.8v2.4h1.8v2.4h-1.8v3.2c0,0.5,0.3,0.9,0.8,0.9c0.3,0,0.6-0.1,0.7-0.2
		l0.5,2.1c-0.3,0.3-1,0.6-2.1,0.6C187,200.9,186.1,200.1,186.1,198.4z"/>
	<path class="st1" d="M191.4,196.4c0-2.5,1.9-4.6,4.6-4.6c2.6,0,4.4,1.9,4.4,4.8v0.6h-6.2c0.2,0.8,0.9,1.4,2.2,1.4
		c0.6,0,1.6-0.3,2.1-0.7l1.2,1.8c-0.9,0.8-2.3,1.2-3.6,1.2C193.5,200.9,191.4,199.2,191.4,196.4z M196,194.1c-1.2,0-1.7,0.7-1.8,1.4
		h3.6C197.8,194.8,197.3,194.1,196,194.1z"/>
	<path class="st1" d="M201.9,200.7V192h2.8v1.1c0.6-0.7,1.7-1.3,2.7-1.3v2.7c-0.2-0.1-0.4-0.1-0.7-0.1c-0.7,0-1.7,0.3-2,0.8v5.5
		H201.9z"/>
	<path class="st1" d="M22.1,219.7v-1c-0.7,0.8-1.6,1.2-2.6,1.2c-2.1,0-3.8-1.6-3.8-4.6c0-2.8,1.7-4.6,3.8-4.6c1,0,1.9,0.4,2.6,1.2
		v-4.3h2.8v12H22.1z M22.1,216.7V214c-0.4-0.5-1.1-0.8-1.7-0.8c-1.1,0-1.9,0.8-1.9,2.1c0,1.3,0.8,2.1,1.9,2.1
		C21,217.5,21.7,217.2,22.1,216.7z"/>
	<path class="st1" d="M26.3,215.4c0-2.5,1.9-4.6,4.6-4.6c2.6,0,4.4,1.9,4.4,4.8v0.6h-6.2c0.2,0.8,0.9,1.4,2.2,1.4
		c0.6,0,1.6-0.3,2.1-0.7l1.2,1.8c-0.9,0.8-2.3,1.2-3.6,1.2C28.4,219.9,26.3,218.2,26.3,215.4z M30.9,213.1c-1.2,0-1.7,0.7-1.8,1.4
		h3.6C32.6,213.8,32.2,213.1,30.9,213.1z"/>
	<path class="st1" d="M44.1,218.7v4.3h-2.8v-12h2.8v1c0.7-0.8,1.6-1.2,2.6-1.2c2.2,0,3.8,1.6,3.8,4.6c0,3-1.6,4.6-3.8,4.6
		C45.7,219.9,44.8,219.6,44.1,218.7z M47.7,215.4c0-1.3-0.8-2.1-1.9-2.1c-0.6,0-1.3,0.3-1.7,0.8v2.6c0.3,0.4,1.1,0.8,1.7,0.8
		C46.8,217.5,47.7,216.7,47.7,215.4z"/>
	<path class="st1" d="M51.4,215.4c0-2.5,1.9-4.6,4.6-4.6c2.6,0,4.4,1.9,4.4,4.8v0.6h-6.2c0.2,0.8,0.9,1.4,2.2,1.4
		c0.6,0,1.6-0.3,2.1-0.7l1.2,1.8c-0.9,0.8-2.3,1.2-3.6,1.2C53.4,219.9,51.4,218.2,51.4,215.4z M56,213.1c-1.2,0-1.7,0.7-1.8,1.4h3.6
		C57.7,213.8,57.3,213.1,56,213.1z"/>
	<path class="st1" d="M61.8,219.7V211h2.8v1.1c0.6-0.7,1.7-1.3,2.7-1.3v2.7c-0.2-0.1-0.4-0.1-0.7-0.1c-0.7,0-1.7,0.3-2,0.8v5.5H61.8
		z"/>
	<path class="st1" d="M74.4,219.7v-1c-0.7,0.8-1.6,1.2-2.6,1.2c-2.1,0-3.8-1.6-3.8-4.6c0-2.8,1.7-4.6,3.8-4.6c1,0,1.9,0.4,2.6,1.2
		v-4.3h2.8v12H74.4z M74.4,216.7V214c-0.4-0.5-1.1-0.8-1.7-0.8c-1.1,0-1.9,0.8-1.9,2.1c0,1.3,0.8,2.1,1.9,2.1
		C73.3,217.5,74,217.2,74.4,216.7z"/>
	<path class="st1" d="M79.2,219.7V211H82v1.1c0.6-0.7,1.7-1.3,2.7-1.3v2.7c-0.2-0.1-0.4-0.1-0.7-0.1c-0.7,0-1.7,0.3-2,0.8v5.5H79.2z
		"/>
	<path class="st1" d="M85.4,215.4c0-2.5,1.9-4.6,4.6-4.6c2.6,0,4.4,1.9,4.4,4.8v0.6h-6.2c0.2,0.8,0.9,1.4,2.2,1.4
		c0.6,0,1.6-0.3,2.1-0.7l1.2,1.8c-0.9,0.8-2.3,1.2-3.6,1.2C87.4,219.9,85.4,218.2,85.4,215.4z M90,213.1c-1.2,0-1.7,0.7-1.8,1.4h3.6
		C91.7,213.8,91.3,213.1,90,213.1z"/>
	<path class="st1" d="M100.4,219.7v-12h2.8v12H100.4z"/>
	<path class="st1" d="M110.3,219.7v-0.9c-0.5,0.6-1.6,1.1-2.7,1.1c-1.3,0-3-0.9-3-2.9c0-2.1,1.7-2.8,3-2.8c1.2,0,2.2,0.4,2.7,1v-0.9
		c0-0.8-0.6-1.3-1.8-1.3c-0.9,0-1.7,0.3-2.4,0.9l-1-1.9c1.1-1,2.6-1.4,3.9-1.4c2.1,0,4.1,0.8,4.1,3.5v5.4H110.3z M110.3,217.5v-0.8
		c-0.3-0.4-0.9-0.6-1.5-0.6c-0.7,0-1.4,0.3-1.4,1c0,0.7,0.7,1,1.4,1C109.4,218.1,110,217.9,110.3,217.5z"/>
	<path class="st1" d="M121.9,219.7l-3.4-8.7h2.9l2,5.5l2-5.5h2.9l-3.4,8.7H121.9z"/>
	<path class="st1" d="M135,219.7v-1c-0.5,0.6-1.5,1.3-3,1.3c-2,0-2.9-1.1-2.9-2.7V211h2.8v5c0,1.1,0.5,1.4,1.4,1.4
		c0.8,0,1.3-0.4,1.7-0.8V211h2.8v8.7H135z"/>
	<path class="st1" d="M139.2,215.4c0-2.5,1.9-4.6,4.6-4.6c2.6,0,4.4,1.9,4.4,4.8v0.6h-6.2c0.2,0.8,0.9,1.4,2.2,1.4
		c0.6,0,1.6-0.3,2.1-0.7l1.2,1.8c-0.9,0.8-2.3,1.2-3.6,1.2C141.3,219.9,139.2,218.2,139.2,215.4z M143.9,213.1
		c-1.2,0-1.7,0.7-1.8,1.4h3.6C145.6,213.8,145.1,213.1,143.9,213.1z"/>
</g>
</svg>
