<?xml version="1.0" encoding="utf-8"?>
<!-- Generator: Adobe Illustrator 16.0.0, SVG Export Plug-In . SVG Version: 6.00 Build 0)  -->
<!DOCTYPE svg PUBLIC "-//W3C//DTD SVG 1.1//EN" "http://www.w3.org/Graphics/SVG/1.1/DTD/svg11.dtd">
<svg version="1.1" id="Layer_1" xmlns="http://www.w3.org/2000/svg" xmlns:xlink="http://www.w3.org/1999/xlink" x="0px" y="0px"
	 width="220px" height="140.1px" viewBox="0 0 220 140.1" enable-background="new 0 0 220 140.1" xml:space="preserve">
<rect x="0" fill="#008590" width="220" height="140.1"/>
<g>
	<path fill="#FFFFFF" d="M18.1,90.1V78.3C43.5,59.9,48.3,55.9,48.3,50c0-4-3.8-6.1-8.1-6.1c-6.5,0-11.4,2.5-15.7,6.4l-8.4-10
		c6.2-6.9,15.6-9.8,23.8-9.8c13.8,0,23.8,7.7,23.8,19.4c0,9.1-6.4,16.7-21,26.9h21.5v13.2H18.1z"/>
	<path fill="#FFFFFF" d="M72.7,85.5l6.5-11.6c3.3,2.6,6.5,3.9,11.3,3.9c8.6,0,13.7-6.2,13.7-13.4v-0.7c-2.8,3.9-8.4,6.7-14.3,6.7
		c-10.6,0-20.4-6.8-20.4-19.3c0-12.1,9.9-20.6,23.4-20.6c18.6,0,26.7,13.4,26.7,30.3c0,18.7-11.3,30.4-29,30.4
		C83.6,91.1,77.1,88.9,72.7,85.5z M104.2,53.5c-0.4-4.8-3.2-9.7-10.5-9.7c-5.5,0-8.9,3.4-8.9,6.7c0,4.9,5,7,9.5,7
		C98.1,57.5,101.7,56.2,104.2,53.5z"/>
</g>
<g>
	<path fill="#FFFFFF" d="M20.9,24.6v-1c-0.7,0.8-1.6,1.2-2.5,1.2c-2.1,0-3.7-1.6-3.7-4.4c0-2.8,1.6-4.4,3.7-4.4
		c0.9,0,1.8,0.4,2.5,1.2V13h2.7v11.7H20.9z M20.9,21.7v-2.6c-0.3-0.5-1-0.8-1.6-0.8c-1.1,0-1.9,0.8-1.9,2s0.8,2.1,1.9,2.1
		C19.8,22.5,20.5,22.1,20.9,21.7z"/>
	<path fill="#FFFFFF" d="M30.3,24.6v-0.8c-0.5,0.6-1.5,1-2.6,1c-1.3,0-2.9-0.9-2.9-2.8c0-2,1.6-2.7,2.9-2.7c1.1,0,2.1,0.4,2.6,1
		v-0.8c0-0.7-0.6-1.2-1.7-1.2c-0.8,0-1.7,0.3-2.4,0.9l-1-1.9c1.1-0.9,2.5-1.3,3.8-1.3c2,0,3.9,0.8,3.9,3.4v5.3H30.3z M30.3,22.5
		v-0.8c-0.3-0.4-0.9-0.6-1.5-0.6c-0.7,0-1.3,0.3-1.3,1s0.6,1,1.3,1C29.4,23.1,30.1,22.9,30.3,22.5z"/>
	<path fill="#FFFFFF" d="M40.5,24.6v-4.9c0-1-0.5-1.4-1.4-1.4c-0.8,0-1.3,0.4-1.6,0.8v5.5h-2.7v-8.5h2.7v1C38,16.6,39,16,40.5,16
		c1.9,0,2.8,1.1,2.8,2.7v6H40.5z"/>
	<path fill="#FFFFFF" d="M44.3,23.5l1.1-1.9c0.6,0.6,2,1.1,3,1.1c0.8,0,1.1-0.2,1.1-0.6c0-1-4.9,0-4.9-3.4c0-1.5,1.3-2.8,3.6-2.8
		c1.4,0,2.6,0.5,3.5,1.1l-1,1.9c-0.5-0.5-1.5-0.9-2.5-0.9c-0.6,0-1,0.2-1,0.6c0,0.9,4.9,0,4.9,3.4c0,1.6-1.4,2.8-3.8,2.8
		C46.8,24.8,45.2,24.3,44.3,23.5z"/>
</g>
<g>
	<path fill="#FFFFFF" d="M17.9,107.2v4.2h-2.7V99.7h2.7v1c0.7-0.8,1.5-1.2,2.5-1.2c2.1,0,3.7,1.6,3.7,4.4c0,2.9-1.6,4.4-3.7,4.4
		C19.4,108.4,18.6,108,17.9,107.2z M21.4,104c0-1.3-0.8-2-1.9-2c-0.6,0-1.3,0.3-1.6,0.8v2.6c0.3,0.4,1,0.8,1.6,0.8
		C20.5,106,21.4,105.2,21.4,104z"/>
	<path fill="#FFFFFF" d="M30.3,108.2v-0.8c-0.5,0.6-1.5,1-2.6,1c-1.3,0-2.9-0.9-2.9-2.8c0-2,1.6-2.7,2.9-2.7c1.1,0,2.1,0.4,2.6,1
		V103c0-0.7-0.6-1.2-1.7-1.2c-0.8,0-1.7,0.3-2.4,0.9l-1-1.9c1.1-0.9,2.5-1.3,3.8-1.3c2,0,3.9,0.8,3.9,3.4v5.3H30.3z M30.3,106v-0.8
		c-0.3-0.4-0.9-0.6-1.5-0.6c-0.7,0-1.3,0.3-1.3,1s0.6,1,1.3,1C29.4,106.6,30,106.4,30.3,106z"/>
	<path fill="#FFFFFF" d="M35,109.1c0.2,0.1,0.5,0.2,0.7,0.2c0.6,0,1-0.1,1.2-0.5l0.2-0.5l-3.4-8.6h2.8l1.9,5.4l1.9-5.4h2.9l-3.8,9.7
		c-0.7,1.8-1.9,2.2-3.6,2.2c-0.2,0-0.9-0.1-1.2-0.1L35,109.1z"/>
	<path fill="#FFFFFF" d="M43.1,107.1l1.1-1.9c0.6,0.6,2,1.1,3,1.1c0.8,0,1.1-0.2,1.1-0.6c0-1-4.9,0-4.9-3.4c0-1.5,1.3-2.8,3.6-2.8
		c1.4,0,2.6,0.5,3.5,1.1l-1,1.9c-0.5-0.5-1.5-0.9-2.5-0.9c-0.6,0-1,0.2-1,0.6c0,0.9,4.9,0,4.9,3.4c0,1.6-1.4,2.8-3.8,2.8
		C45.5,108.4,44,107.9,43.1,107.1z"/>
	<path fill="#FFFFFF" d="M55.7,107.1l1.1-1.9c0.6,0.6,2,1.1,3,1.1c0.8,0,1.1-0.2,1.1-0.6c0-1-4.9,0-4.9-3.4c0-1.5,1.3-2.8,3.6-2.8
		c1.4,0,2.6,0.5,3.5,1.1l-1,1.9c-0.5-0.5-1.5-0.9-2.5-0.9c-0.6,0-1,0.2-1,0.6c0,0.9,4.9,0,4.9,3.4c0,1.6-1.4,2.8-3.8,2.8
		C58.1,108.4,56.6,107.9,55.7,107.1z"/>
	<path fill="#FFFFFF" d="M70.4,108.2v-1c-0.5,0.6-1.5,1.2-2.9,1.2c-1.9,0-2.8-1.1-2.8-2.6v-6h2.7v4.9c0,1,0.5,1.4,1.4,1.4
		c0.8,0,1.3-0.4,1.6-0.8v-5.5h2.7v8.5H70.4z"/>
	<path fill="#FFFFFF" d="M74.9,108.2v-8.5h2.7v1c0.6-0.7,1.6-1.3,2.6-1.3v2.6c-0.2-0.1-0.4-0.1-0.7-0.1c-0.7,0-1.6,0.3-2,0.8v5.4
		H74.9z"/>
	<path fill="#FFFFFF" d="M91.3,108.2v-1c-0.5,0.6-1.5,1.2-2.9,1.2c-1.9,0-2.8-1.1-2.8-2.6v-6h2.7v4.9c0,1,0.5,1.4,1.4,1.4
		c0.8,0,1.3-0.4,1.6-0.8v-5.5H94v8.5H91.3z"/>
	<path fill="#FFFFFF" d="M101.5,108.2v-4.9c0-1-0.5-1.4-1.4-1.4c-0.8,0-1.3,0.4-1.6,0.8v5.5h-2.7v-8.5h2.7v1
		c0.5-0.6,1.5-1.2,2.9-1.2c1.9,0,2.8,1.1,2.8,2.7v6H101.5z"/>
	<path fill="#FFFFFF" d="M105.4,104c0-2.4,1.8-4.4,4.5-4.4c2.5,0,4.3,1.8,4.3,4.7v0.6h-6c0.2,0.8,0.9,1.4,2.1,1.4
		c0.6,0,1.6-0.3,2.1-0.7l1.2,1.8c-0.8,0.8-2.2,1.1-3.5,1.1C107.4,108.4,105.4,106.7,105.4,104z M109.9,101.7c-1.2,0-1.6,0.7-1.7,1.3
		h3.5C111.6,102.4,111.1,101.7,109.9,101.7z"/>
	<path fill="#FFFFFF" d="M122.4,107.2v4.2h-2.7V99.7h2.7v1c0.7-0.8,1.5-1.2,2.5-1.2c2.1,0,3.7,1.6,3.7,4.4c0,2.9-1.6,4.4-3.7,4.4
		C123.9,108.4,123.1,108,122.4,107.2z M125.8,104c0-1.3-0.8-2-1.9-2c-0.6,0-1.3,0.3-1.6,0.8v2.6c0.3,0.4,1,0.8,1.6,0.8
		C125,106,125.8,105.2,125.8,104z"/>
	<path fill="#FFFFFF" d="M129.3,104c0-2.4,1.8-4.4,4.5-4.4c2.5,0,4.3,1.8,4.3,4.7v0.6h-6c0.2,0.8,0.9,1.4,2.1,1.4
		c0.6,0,1.6-0.3,2.1-0.7l1.2,1.8c-0.8,0.8-2.2,1.1-3.5,1.1C131.2,108.4,129.3,106.7,129.3,104z M133.7,101.7c-1.2,0-1.6,0.7-1.7,1.3
		h3.5C135.4,102.4,135,101.7,133.7,101.7z M134,98.5h-1.8l2.2-2.5h2.4L134,98.5z"/>
	<path fill="#FFFFFF" d="M139.2,108.2v-8.5h2.7v1c0.6-0.7,1.6-1.3,2.6-1.3v2.6c-0.2-0.1-0.4-0.1-0.7-0.1c-0.7,0-1.6,0.3-2,0.8v5.4
		H139.2z"/>
	<path fill="#FFFFFF" d="M145.4,97.4c0-0.9,0.7-1.5,1.5-1.5c0.9,0,1.6,0.7,1.6,1.5s-0.7,1.6-1.6,1.6C146.1,99,145.4,98.3,145.4,97.4
		z M145.6,108.2v-8.5h2.7v8.5H145.6z"/>
	<path fill="#FFFFFF" d="M149.5,104c0-2.4,1.7-4.4,4.6-4.4c2.9,0,4.6,2,4.6,4.4c0,2.4-1.7,4.4-4.6,4.4
		C151.2,108.4,149.5,106.3,149.5,104z M156,104c0-1.1-0.7-2-1.9-2c-1.2,0-1.8,0.9-1.8,2c0,1.1,0.7,2.1,1.8,2.1
		C155.3,106,156,105.1,156,104z"/>
	<path fill="#FFFFFF" d="M165.7,108.2v-1c-0.7,0.8-1.6,1.2-2.5,1.2c-2.1,0-3.7-1.6-3.7-4.4c0-2.8,1.6-4.4,3.7-4.4
		c0.9,0,1.8,0.4,2.5,1.2v-4.2h2.7v11.7H165.7z M165.7,105.2v-2.6c-0.3-0.5-1-0.8-1.6-0.8c-1.1,0-1.9,0.8-1.9,2
		c0,1.3,0.8,2.1,1.9,2.1C164.6,106,165.3,105.7,165.7,105.2z"/>
	<path fill="#FFFFFF" d="M169.6,104c0-2.4,1.8-4.4,4.5-4.4c2.5,0,4.3,1.8,4.3,4.7v0.6h-6c0.2,0.8,0.9,1.4,2.1,1.4
		c0.6,0,1.6-0.3,2.1-0.7l1.2,1.8c-0.8,0.8-2.2,1.1-3.5,1.1C171.6,108.4,169.6,106.7,169.6,104z M174.1,101.7c-1.2,0-1.6,0.7-1.7,1.3
		h3.5C175.8,102.4,175.3,101.7,174.1,101.7z"/>
	<path fill="#FFFFFF" d="M20.9,127.2v-1c-0.7,0.8-1.6,1.2-2.5,1.2c-2.1,0-3.7-1.6-3.7-4.4c0-2.8,1.6-4.4,3.7-4.4
		c0.9,0,1.8,0.4,2.5,1.2v-4.2h2.7v11.7H20.9z M20.9,124.2v-2.6c-0.3-0.5-1-0.8-1.6-0.8c-1.1,0-1.9,0.8-1.9,2c0,1.3,0.8,2.1,1.9,2.1
		C19.8,125,20.5,124.7,20.9,124.2z"/>
	<path fill="#FFFFFF" d="M24.8,123c0-2.4,1.8-4.4,4.5-4.4c2.5,0,4.3,1.8,4.3,4.7v0.6h-6c0.2,0.8,0.9,1.4,2.1,1.4
		c0.6,0,1.6-0.3,2.1-0.7l1.2,1.8c-0.8,0.8-2.2,1.1-3.5,1.1C26.8,127.4,24.8,125.7,24.8,123z M29.3,120.7c-1.2,0-1.6,0.7-1.7,1.3H31
		C31,121.4,30.5,120.7,29.3,120.7z"/>
	<path fill="#FFFFFF" d="M38.4,125.6l1.5-2c0.9,0.8,2.2,1.2,3.2,1.2c1.3,0,2-0.5,2-1.1c0-0.7-0.5-1-2.1-1c-0.5,0-1.4,0-1.6,0V120
		c0.2,0,1.1,0,1.6,0c1.2,0,1.9-0.3,1.9-0.9c0-0.7-0.8-1.1-2-1.1c-1.1,0-2.1,0.4-2.9,1.1l-1.5-1.9c1-1.1,2.5-1.9,4.7-1.9
		c3,0,4.6,1.3,4.6,3.2c0,1.4-1.2,2.4-2.6,2.6c1.2,0.1,2.7,1.1,2.7,2.8c0,2-1.9,3.5-4.8,3.5C41,127.4,39.3,126.6,38.4,125.6z"/>
	<path fill="#FFFFFF" d="M58.7,127.2v-0.8c-0.5,0.6-1.5,1-2.6,1c-1.3,0-2.9-0.9-2.9-2.8c0-2,1.6-2.7,2.9-2.7c1.1,0,2.1,0.4,2.6,1
		V122c0-0.7-0.6-1.2-1.7-1.2c-0.8,0-1.7,0.3-2.4,0.9l-1-1.9c1.1-0.9,2.5-1.3,3.8-1.3c2,0,3.9,0.8,3.9,3.4v5.3H58.7z M58.7,125v-0.8
		c-0.3-0.4-0.9-0.6-1.5-0.6c-0.7,0-1.3,0.3-1.3,1s0.6,1,1.3,1C57.8,125.6,58.4,125.4,58.7,125z"/>
	<path fill="#FFFFFF" d="M68.9,127.2v-4.9c0-1-0.5-1.4-1.4-1.4c-0.8,0-1.3,0.4-1.6,0.8v5.5h-2.7v-8.5h2.7v1c0.5-0.6,1.5-1.2,2.9-1.2
		c1.9,0,2.8,1.1,2.8,2.7v6H68.9z"/>
	<path fill="#FFFFFF" d="M72.7,126.1l1.1-1.9c0.6,0.6,2,1.1,3,1.1c0.8,0,1.1-0.2,1.1-0.6c0-1-4.9,0-4.9-3.4c0-1.5,1.3-2.8,3.6-2.8
		c1.4,0,2.6,0.5,3.5,1.1l-1,1.9c-0.5-0.5-1.5-0.9-2.5-0.9c-0.6,0-1,0.2-1,0.6c0,0.9,4.9,0,4.9,3.4c0,1.6-1.4,2.8-3.8,2.8
		C75.1,127.4,73.6,126.9,72.7,126.1z"/>
</g>
<g>
	<defs>
		<rect id="SVGID_1_" x="138.4" y="16" width="67.5" height="67.5"/>
	</defs>
	<clipPath id="SVGID_2_">
		<use xlink:href="#SVGID_1_"  overflow="visible"/>
	</clipPath>
	<path clip-path="url(#SVGID_2_)" fill="#FFFFFF" d="M172.2,16c-18.6,0-33.8,15.1-33.8,33.8c0,18.6,15.1,33.8,33.8,33.8
		s33.8-15.1,33.8-33.8C205.9,31.1,190.8,16,172.2,16 M172.2,80.2c-16.8,0-30.5-13.7-30.5-30.5c0-3.4,0.6-6.7,1.6-9.7
		c0.8-0.2,0.7-0.6,0.8,0.5c0.1,1.4-1.2,1,0,2.2c1.2,1.2,1.6,2.4,2.5,2.7c0.9,0.2,1.7,0.5,2.1,1.1c0.4,0.6,0.5,0.6,0.9,0.6
		s0.5,0,1,0.3c0.5,0.3,0.7,0.2,1,0.7c0.2,0.4-0.3-0.4,0.2,0.4c0.6,0.8,0.4,1.3,0.9,1.3c0.5,0-0.2-0.3,0.5,0c0.7,0.3,0.7,0.6,1,0.7
		c0.2,0.2,0.4,0.2,0.6,0.5c0.2,0.3-0.2,0.7,0,1.1c0.2,0.4,0.3,0.4,0,0.7c-0.3,0.2-0.1-0.4-0.3,0.2c-0.2,0.7-0.2,0.6,0.1,1.4
		c0.3,0.8,0.1,0.8,0.4,1.3s-0.3,0.9,0,1.3c0.3,0.4-0.1-0.1,0.3,0.4c0.3,0.5,0.3,0.4,0.4,0.9s-0.6,0.6,0,0.9s0.5,0.1,1,0.5
		c0.5,0.4-0.2,0.1,0.5,0.4c0.7,0.3,0.2,0,0.7,0.3c0.5,0.3,0.9,0,0.8,0.5c-0.1,0.5,0.2-0.2-0.1,0.5c-0.2,0.7-0.3,0.7-0.2,1.3
		c0.1,0.7,0.6,2.2,0.4,2.6c-0.2,0.4-0.2,0.9,0,1.2c0.3,0.3,0.3,1.1,0.3,1.3c0.1,0.2-0.1,0.6,0,0.8c0.1,0.2-0.2,0.8,0,1.1
		s0.2,0.5,0.5,0.8c0.2,0.3,0.3,0.5,0.3,1c0,0.5-0.2,0.8,0,1.1c0.2,0.2,0.2,1.1,0.5,1.3c0.3,0.2,0.7,0.7,0.7,0.7s0.2,0.5,0.6,0.6
		c0.3,0.1-0.2-0.3,0.3,0.1c0.6,0.4,0.5,0.2,0.9,0.6c0.4,0.4,0.7,0.2,0.8,0.5s0.7,0.6,1,0.7s0.3-0.2,0.6,0c0.2,0.2,0.1,0.7,0.2,0.2
		s0.2-0.6,0-1.1c-0.2-0.5-0.4-0.7-0.6-1c-0.2-0.3-0.1,0.4-0.2-0.3c-0.1-0.7-0.1-0.7-0.2-1.3c-0.2-0.6-0.2,0-0.2-0.6
		c0-0.6,0.1-1.3,0.1-1.3s-0.2,0.2,0.2-0.6c0.4-0.7-0.2,0,0.4-0.7c0.6-0.7,0.3-1.2,0.7-1.3c0.3-0.2,0.3-0.7,0.7-1.2
		c0.3-0.5,0.7-1.1,0.7-1.1s0.2-0.5,0.6-0.7c0.4-0.2,0.2-0.3,0.7-0.7c0.6-0.4,0.6-0.7,0.8-0.9c0.2-0.2,0.2-0.7,0.6-1.1
		c0.3-0.3,0.4-1,0.7-1.4c0.2-0.4,0.3-0.6,0.5-0.9c0.2-0.3,0.2-0.7,0.3-1c0.2-0.2,0.9-0.7,0.8-1c-0.1-0.2-0.3-0.1,0-0.4
		c0.4-0.3,0.6-1.1,0.7-1.7c0.1-0.6,0.3-1.7,0-2s-0.6-0.5-1.4-0.7c-0.8-0.2-1.9-0.2-2.3-0.3c-0.4-0.1-1-0.1-1.3-0.3
		c-0.3-0.2-0.7-0.4-1-0.7c-0.3-0.2-0.6-0.3-0.7-0.7c-0.2-0.3-0.7-1-0.9-1.4c-0.2-0.4-0.6-0.8-0.8-1c-0.2-0.2-1-0.3-1.3-0.7
		c-0.3-0.3-1.2-0.8-1.5-1.1c-0.3-0.2-0.5-0.2-0.8-0.5c-0.3-0.2-0.9-0.7-0.9-0.7s-0.2-0.4-0.5,0c-0.3,0.4-0.2,0.3-0.7,0.6
		c-0.5,0.2-0.1,0.2-0.7,0.4c-0.5,0.2-0.5,0.2-0.9,0.3c-0.4,0.1-0.4,0.2-0.8,0.1s0.2,0.2-0.4-0.1c-0.6-0.2-1.2-0.6-1.2-0.6
		s-0.4,0.1-0.5-0.3c-0.1-0.4-0.2-0.8-0.2-0.8l-0.5-0.7l-0.1-0.5l0.2-0.8c0,0,0.1-0.2,0.1-0.5s0.1-0.5-0.2-0.7l-0.3-0.2
		c0,0,0-0.3-0.5-0.1l-0.5,0.2c0,0-0.4,0.5-0.7,0.6c-0.2,0.1,0.3-0.1-0.2,0.1c-0.6,0.2-0.8,0.1-1.1,0.1c-0.2,0-1-0.5-1-0.5
		s-0.1-0.2-0.1-0.5c0-0.2-0.2-0.4-0.2-0.7c0.1-0.3,0.2-0.7,0.2-0.7s0.1-0.5,0.2-0.9c0.1-0.4-0.2-0.1,0.1-0.4
		c0.2-0.3,0.4-0.7,0.4-0.7l1,0.1c0,0,0.2-0.1,0.6-0.1l0.3,0c0,0-0.3,0.6,0.3,0l0.7-0.6h0.6c0.6,0.1,0.2-0.8,0.6,0.1
		s-0.1,0.2,0.4,0.9c0.5,0.7,0.8,0.3,0.8,0.8c0,0.5-0.2,0.7,0,0.9c0.2,0.2-0.2,0.5,0.5,0.6c0.7,0.1,0.9-0.7,0.9-0.7s-0.5-0.5-0.4-0.9
		c0.1-0.4-0.1-0.6,0-0.8c0.1-0.2,0.1-0.7,0.1-0.7l0.2-0.5c0,0-0.2-0.6,0.4-0.8c0.7-0.2,0.9-0.5,1.1-0.5s-0.3,0.2,0.2,0l0.5-0.2
		l0.2-0.7c0,0-0.1-0.3,0-0.6c0.1-0.2-0.2-0.4,0-0.6l0.2-0.2l1.1-0.9l0.7-0.3l0.4-0.5c0,0,0,0.2,0.4,0c0.4-0.2,0.3,0.3,0.9,0
		c0.6-0.3,0.9-0.2,1.4-0.4l0.5-0.2c0,0,0.6-0.3,0.5-1.1l-0.1-0.7v-0.9c0.9-0.1,0.7,0.1,1.2,0c0.5-0.1,0.6,0.2,0.9,0
		c0.3-0.2-0.1,0.2,0.3-0.2c0.4-0.4,0.5-0.5,0.5-0.8c0-0.3,0-0.6-0.1-0.8c-0.1-0.2-0.8-1-0.8-1l-0.4-0.6l-0.7-0.5l-0.6-0.4h-0.9h-0.9
		c0,0,0.1,0.1-0.1,0.5c-0.2,0.4,0.2,0-0.2,0.4c-0.3,0.4-0.7,0.9-0.7,0.9s-0.2,0.2-0.6,0.5s-0.7,0.7-0.7,0.7l-0.7,0.5
		c0,0-0.5-0.3-0.7-0.6c-0.2-0.2,0.6,0.2-0.2-0.2l-0.8-0.5l-0.5-0.7c0,0-0.5-0.2-0.4-0.5l0.1-0.2l-0.1-0.3c0,0-0.1-0.2,0.5-0.4
		c0.7-0.2,1.1-0.4,1.1-0.4s0.2-0.4,0.6-0.4h0.7c0,0,0.2-0.2,0.6-0.5l0.4-0.3l0.2-0.7v-0.5l-0.7-0.7l-0.3-0.5v-0.3
		c0.2-0.1,0.3-0.1,0.5-0.2h0.4l0.3-0.3c0.3-0.1,0.6-0.2,0.9-0.3l0.5,0.4c0,0,0.3,0,0.5,0.3l0.2,0.3c0,0,0.3,0,0.4,0.5
		c0.1,0.5-0.1,0.1,0.1,0.5c0.2,0.4,0.6,1.3,0.6,1.3l1.1,0.6l1.1,0.2c0.4-0.2,0.6-0.5,0.6-0.5s0-0.2,0.3-0.3c0.3-0.1,0.7-0.4,0.7-0.4
		v-0.4l-0.1-0.6l-0.4-0.6l-0.7-0.7l-0.4-0.3l-0.4-1v-0.3c0.1,0,0.2,0,0.4-0.1h0.8h0h0.7h1.7h0.4c0.2,0,0.7-0.5,0.8,0l0.2,0.5
		c0.2,0.5,0.2,0.9,0.2,0.9v1.7l0,0.8c0,0,0.1,0.2,0,0.6l0,0.4c0,0,0.7,0.2,0.8,0.5l0.1,0.2l0.7,0.2c0,0,0.6-0.2,0.8-0.2
		c0.2,0,0.2-0.2,0.5-0.4c0.3-0.2,0.2-0.1,0.7-0.5c0.6-0.4,0.9-0.7,0.9-0.7s-0.6-0.3,0-0.4s1-0.5,1-0.5l0.3-0.2l0.7-0.2
		c0,0,0.7-0.1,1.2,0c0.4,0.1,1.3-0.1,1.3-0.1l0.7-0.2v-0.7v-0.3c0,0,0.5-0.2,0.7-0.1l0.2,0c0.2,0.1,0.4,0.2,0.6,0.3
		c0,0.1-0.1,0.2,0,0.4c0.2,0.3-0.7-0.2,0.2,0.3l0.9,0.6c0,0,0.4,0.2,0.7,0.2c0.2,0-0.2-0.2,0.2,0l0,0l0,0c0.1,0.1,0.3,0.1,0.5,0.2
		l1.5,0.7c0,0,0.4,0.1,0.7,0.2c0.3,0.2,0.2-0.3,0.3,0.2c0.2,0.5,0,0.8,0,0.8l0.1,0.3h-0.9c0,0-0.3,0-0.6,0.2l-0.2,0.2l-0.4,0.4
		c0,0-0.6,0.2-0.8,0.5c-0.2,0.2-0.5,0-0.6,0.2c-0.1,0.2,0.3-0.2-0.1,0.2c-0.4,0.4-0.2,0.1-0.4,0.4l-0.2,0.3v0.7v0.9l-0.2,0.7
		l-0.5,0.5l-0.5,0.2h-0.8h-0.8h-0.7l-0.5,0.7c0,0-0.1-0.2-0.2,0.3c-0.2,0.5,0-0.2-0.2,0.5s-0.4,0.2-0.2,0.7c0.2,0.5,0.5,0.9,0.5,0.9
		s0.1,0.3,0.3,0.4c0.2,0.1,0.3,0.2,0.7,0.2s-0.7,0.1,0.3,0.1h1c0.5,0,0.7,0.1,0.9-0.2c0.2-0.2,0.1-0.6,0.6-0.7
		c0.5-0.2-0.3,0.2,0.5-0.2c0.8-0.4-0.2,0.1,0.8-0.4c1.1-0.5,0.7,0.1,1.1-0.5c0.4-0.6,0.5-1.1,0.7-1.2s-0.2,0.2,0.2-0.1
		c0.4-0.2,0.9-0.6,1.2-0.5l0.1,0c0,0,0.2,0,0.6,0h1c0,0,0.4-0.2,0.9,0s0.5-0.3,0.5,0.2c0,0.5-0.2,0.6,0,1s0,1.2,0,1.2l-0.2,0.4
		l-0.1,0.7c0,0,0.3,0.1,0.4,0.2c0.1,0.2-0.2,0.1,0.1,0.2l0.3,0.1l0.5-0.1l0.3-0.1l1-0.6l0.7-0.1c0.5-0.2,0.7-0.2,1.2-0.2
		s0.6-0.2,0.9,0c0.3,0.2-0.2-0.1,0.3,0.2c0.5,0.2,1,0.2,1.2,0.5c0.2,0.3,0.1-0.2,0.2,0.3c0.1,0.6-0.6,0.9,0,1.2
		c0.6,0.3,0.7,0.7,0.7,0.9s0.1-0.3,0,0.2l-0.1,0.6c0,0-0.7,0.2-0.9,0.2c-0.2,0.1-1,0-1,0l-0.7-0.3l-0.6-0.2l-0.7,0.2
		c-0.4,0.3-0.8,0.5-0.8,0.5s0.3,0.3-0.3,0.3s-1.3-0.2-1.3-0.2s-0.9-0.4-1.2-0.7l-0.3-0.2c0,0-0.6-0.5-0.6-0.7c0-0.2-0.2-0.6-0.2-0.6
		l-0.7-0.4H189l-1,0.1l-0.9,0.6l-0.7,0.2l-0.7-0.1l-0.7,0.2c0,0-0.6,0.7-0.9,0.7c-0.3,0.1,0-0.2-0.3,0.1c-0.3,0.2-0.6-0.1-0.7,0.5
		l-0.2,0.6c0,0-0.2,0.2-0.5,0.5l-0.2,0.2c0,0-0.3,0-0.5,0.3c-0.2,0.3-0.4,0.2-0.5,0.5c-0.1,0.2,0.2-0.4-0.1,0.2
		c-0.3,0.7,0.1,0-0.3,0.7c-0.4,0.7-1,1.7-1,1.7c0,0.6,0.1,0.5,0.1,1.1v0.3v0v0.3c0,0.7,0.1,0.4,0,1.1c-0.1,0.7,0-0.2-0.1,0.7
		s-0.4,0.5,0,0.8c0.4,0.3,0,0,0.4,0.3c0.4,0.3-0.3-0.6,0.4,0.3c0.7,0.9,0.2,0.5,0.7,0.9c0.5,0.4-0.2,0,0.5,0.4
		c0.7,0.4,0.6,0.5,0.9,0.7c0.3,0.3-0.2-0.2,0.3,0.3c0.6,0.4-0.4,0.7,0.6,0.4c1-0.3,0.7-0.2,1-0.3s-1.2-0.2,0.3-0.2
		c1.5,0,1.1,0.2,1.5,0c0.4-0.2-0.2,0.3,0.7-0.2l1-0.5c0,0,0.4-0.4,0.7-0.2c0.2,0.2,0.1,0.5,0.7,0.8c0.7,0.3,0,0.1,0.7,0.3
		c0.7,0.2,0.3-0.2,0.7,0.2c0.3,0.4,0.3-0.2,0.3,0.4c0,0.6,0.2-0.1,0,0.6c-0.2,0.7-0.4,0.1-0.2,0.7c0.2,0.6,0.2,1.2,0.2,1.2
		s-0.2,0.5,0,0.7c0.2,0.2-0.1-0.3,0.2,0.2c0.2,0.6,0,0.2,0.2,0.6c0.2,0.4-0.2-0.1,0.2,0.4l0.4,0.5c0,0,0.3,0.2,0.5,0.5l0.2,0.3
		c0,0-0.1,0.2-0.2,0.5c-0.1,0.3,0.2-0.1-0.1,0.3c-0.3,0.4-0.2-0.1-0.3,0.4C192,58.3,192,59,192,59s-0.3,0.2-0.4,0.7
		c-0.1,0.4,0.1,0-0.1,0.4c-0.2,0.4-0.2-0.2-0.2,0.4l0.1,0.6c0,0,0.1,0.2,0.2,0.5c0.2,0.2,0.1-0.3,0.2,0.2c0.1,0.6,0.1,0,0.1,0.6
		c0,0.6-0.1,0.7,0.1,0.9l0.2,0.2l0.5,1.4c0,0,0.4,1.2,0.4,1.5s-0.2,0.3,0,0.6c0.2,0.2-0.6-0.4,0.2,0.2l0.8,0.7c0,0-0.5,0.4-0.1,0.5
		l0.4,0.1l0.5-0.1c0.5,0.5,0.1,0.2,0.5,0.5c0.1,0.1,0.2,0.1,0.2,0.1C190.1,75.9,181.6,80.2,172.2,80.2"/>
</g>
</svg>
