<?xml version="1.0" encoding="utf-8"?>
<!-- Generator: Adobe Illustrator 19.0.0, SVG Export Plug-In . SVG Version: 6.00 Build 0)  -->
<svg version="1.1" id="Layer_1" xmlns="http://www.w3.org/2000/svg" xmlns:xlink="http://www.w3.org/1999/xlink" x="0px" y="0px"
	 viewBox="0 0 220 168" style="enable-background:new 0 0 220 168;" xml:space="preserve">
<style type="text/css">
	.st0{fill:#008590;}
	.st1{fill:#FFFFFF;}
</style>
<rect x="0" class="st0" width="220" height="168"/>
<g>
	<path class="st1" d="M21.7,22.7v-4.4L20,22.7h-0.8l-1.7-4.4v4.4h-1.7v-6.7h2.4l1.4,3.7l1.4-3.7h2.4v6.7H21.7z"/>
	<path class="st1" d="M24.2,19.4c0-2,1.5-3.4,3.6-3.4c2,0,3.6,1.4,3.6,3.4s-1.5,3.4-3.6,3.4C25.8,22.9,24.2,21.4,24.2,19.4z
		 M29.6,19.4c0-1.1-0.7-1.9-1.8-1.9c-1.1,0-1.8,0.8-1.8,1.9c0,1.1,0.7,1.9,1.8,1.9C28.9,21.3,29.6,20.5,29.6,19.4z"/>
	<path class="st1" d="M36.8,22.7L34,18.9v3.9h-1.7v-6.7H34l2.7,3.7v-3.7h1.7v6.7H36.8z"/>
	<path class="st1" d="M41.1,22.7v-5.2h-1.9v-1.5h5.4v1.5h-1.9v5.2H41.1z"/>
	<path class="st1" d="M49.4,22.7l-0.3-1h-2.6l-0.3,1h-1.9l2.5-6.7h2.2l2.5,6.7H49.4z M47.8,17.8l-0.8,2.5h1.7L47.8,17.8z"/>
	<path class="st1" d="M56.4,22.7l-2.8-3.9v3.9h-1.7v-6.7h1.8l2.7,3.7v-3.7h1.7v6.7H56.4z"/>
	<path class="st1" d="M60.8,22.7v-5.2h-1.9v-1.5h5.4v1.5h-1.9v5.2H60.8z"/>
	<path class="st1" d="M67.7,22.7v-6.7h4.9v1.5h-3.2v1h3.1v1.5h-3.1v1.1h3.2v1.5H67.7z"/>
	<path class="st1" d="M73.1,21.8l0.9-1.3c0.5,0.5,1.2,0.9,2.1,0.9c0.6,0,0.9-0.2,0.9-0.5c0-0.9-3.8-0.2-3.8-2.7
		c0-1.1,0.9-2.1,2.6-2.1c1.1,0,2,0.3,2.7,0.9l-0.9,1.3c-0.6-0.5-1.3-0.7-1.9-0.7c-0.5,0-0.7,0.2-0.7,0.5c0,0.8,3.8,0.2,3.8,2.7
		c0,1.3-1,2.2-2.8,2.2C74.7,22.9,73.8,22.4,73.1,21.8z"/>
	<path class="st1" d="M81,22.7v-5.2h-1.9v-1.5h5.4v1.5h-1.9v5.2H81z"/>
	<path class="st1" d="M85.4,22.7v-6.7h1.7v6.7H85.4z"/>
	<path class="st1" d="M94.2,22.7v-4.4l-1.7,4.4h-0.8L90,18.3v4.4h-1.7v-6.7h2.4l1.4,3.7l1.4-3.7h2.4v6.7H94.2z"/>
	<path class="st1" d="M97.1,22.7v-6.7h4.9v1.5h-3.2v1h3.1v1.5h-3.1v1.1h3.2v1.5H97.1z M99.7,15.5h-1l1.3-1.4h1.4L99.7,15.5z"/>
	<path class="st1" d="M105.3,18.8c0-0.5,0.4-0.9,0.9-0.9s0.9,0.4,0.9,0.9s-0.4,0.9-0.9,0.9S105.3,19.3,105.3,18.8z M105.3,21.9
		c0-0.5,0.4-0.9,0.9-0.9s0.9,0.4,0.9,0.9c0,0.5-0.4,0.9-0.9,0.9S105.3,22.4,105.3,21.9z"/>
</g>
<g>
	<path class="st1" d="M24.4,71.3V47.1l-6,6.1L13,47.7l12.6-12.4h8v36H24.4z"/>
	<path class="st1" d="M81.2,71.3V55.4c0-2-1-3.5-3.5-3.5c-2.3,0-3.9,1.5-4.7,2.5v16.8h-8.3V55.4c0-2-0.9-3.5-3.4-3.5
		c-2.3,0-3.8,1.5-4.7,2.5v16.8h-8.3V45.2h8.3v3.2c1.1-1.5,4.5-3.8,8.6-3.8c3.8,0,6.3,1.6,7.4,4.6c1.5-2.3,4.9-4.6,9-4.6
		c4.8,0,7.8,2.5,7.8,7.8v18.9H81.2z"/>
	<path class="st1" d="M92.3,38.1c0-2.6,2.1-4.8,4.8-4.8s4.8,2.1,4.8,4.8s-2.2,4.8-4.8,4.8S92.3,40.7,92.3,38.1z M92.9,71.3V45.2h8.3
		v26.1H92.9z"/>
	<path class="st1" d="M104.5,71.3v-36h8.3v36H104.5z"/>
	<path class="st1" d="M116.2,71.3v-36h8.3v36H116.2z"/>
	<path class="st1" d="M127.3,38.1c0-2.6,2.1-4.8,4.8-4.8c2.6,0,4.8,2.1,4.8,4.8s-2.2,4.8-4.8,4.8C129.4,42.9,127.3,40.7,127.3,38.1z
		 M127.9,71.3V45.2h8.3v26.1H127.9z"/>
	<path class="st1" d="M154.9,71.3v-2.6c-1.6,1.9-4.8,3.2-8.1,3.2c-4,0-9-2.8-9-8.6c0-6.3,5-8.4,9-8.4c3.5,0,6.5,1.1,8.1,3.1v-2.6
		c0-2.3-1.9-3.8-5.3-3.8c-2.6,0-5.2,1-7.3,2.8l-3.1-5.8c3.3-2.9,7.8-4.1,11.8-4.1c6.3,0,12.2,2.3,12.2,10.4v16.3H154.9z M154.9,64.6
		v-2.3c-0.9-1.2-2.8-1.8-4.6-1.8c-2.2,0-4.2,1-4.2,3c0,2.1,2,3,4.2,3C152.1,66.5,154.1,65.8,154.9,64.6z"/>
	<path class="st1" d="M166.6,71.3V45.2h8.3v3.2c1.7-2.1,5.1-3.9,8.2-3.9v8c-0.5-0.2-1.2-0.2-2.1-0.2c-2.2,0-5,0.9-6.1,2.4v16.6
		H166.6z"/>
	<path class="st1" d="M201.7,71.3v-3c-2.2,2.5-4.8,3.7-7.7,3.7c-6.4,0-11.5-4.9-11.5-13.7c0-8.5,5-13.7,11.5-13.7
		c2.9,0,5.7,1.1,7.7,3.7v-13h8.3v36H201.7z M201.7,62.2v-8c-1.1-1.4-3.2-2.3-5-2.3c-3.3,0-5.7,2.4-5.7,6.3c0,3.9,2.4,6.4,5.7,6.4
		C198.4,64.6,200.6,63.6,201.7,62.2z"/>
	<path class="st1" d="M16,100.7V79.2h9.5v21.1c0,4.3,2.6,7.3,7.6,7.3c5,0,7.6-3.1,7.6-7.3V79.2H50v21.4c0,9-5.4,15.3-17,15.3
		S16,109.5,16,100.7z"/>
	<path class="st1" d="M51.2,110.2l4.9-7.2c2.6,2.6,6.6,4.8,11.6,4.8c3.1,0,5.1-1.1,5.1-2.9c0-4.8-20.4-0.8-20.4-14.7
		c0-6,5.1-11.4,14.3-11.4c5.8,0,10.8,1.7,14.6,5l-5.1,7c-3-2.5-7-3.8-10.5-3.8c-2.7,0-3.9,0.9-3.9,2.5c0,4.4,20.4,1.1,20.4,14.5
		c0,7.2-5.3,12-15,12C59.9,115.9,54.8,113.6,51.2,110.2z"/>
	<path class="st1" d="M83.8,115.3v-36h15.1c11.3,0,19.5,6.8,19.5,18s-8.2,18-19.4,18H83.8z M108.9,97.2c0-5.6-3.3-9.9-9.9-9.9h-5.9
		v19.8h5.8C105.2,107.2,108.9,102.6,108.9,97.2z"/>
	<path class="st1" d="M18.1,133.2v4.3h-2.8v-12h2.8v1c0.7-0.8,1.6-1.2,2.6-1.2c2.2,0,3.8,1.6,3.8,4.6c0,3-1.6,4.6-3.8,4.6
		C19.7,134.5,18.8,134.1,18.1,133.2z M21.7,129.9c0-1.3-0.8-2.1-1.9-2.1c-0.6,0-1.3,0.3-1.7,0.8v2.6c0.3,0.5,1.1,0.8,1.7,0.8
		C20.9,132,21.7,131.2,21.7,129.9z"/>
	<path class="st1" d="M25.4,129.9c0-2.4,1.8-4.6,4.7-4.6c3,0,4.8,2.1,4.8,4.6c0,2.4-1.8,4.6-4.8,4.6
		C27.2,134.5,25.4,132.4,25.4,129.9z M32,129.9c0-1.2-0.7-2.1-1.9-2.1c-1.2,0-1.9,1-1.9,2.1c0,1.2,0.7,2.1,1.9,2.1
		C31.3,132,32,131.1,32,129.9z"/>
	<path class="st1" d="M42.2,134.3v-1c-0.5,0.6-1.5,1.3-3,1.3c-2,0-2.9-1.1-2.9-2.7v-6.2h2.8v5c0,1.1,0.5,1.4,1.4,1.4
		c0.8,0,1.3-0.4,1.7-0.8v-5.6H45v8.7H42.2z"/>
	<path class="st1" d="M47,134.3v-8.7h2.8v1.1c0.6-0.7,1.7-1.3,2.7-1.3v2.7c-0.2-0.1-0.4-0.1-0.7-0.1c-0.7,0-1.7,0.3-2,0.8v5.5H47z"
		/>
	<path class="st1" d="M57.8,129.9c0-2.5,1.9-4.6,4.6-4.6c2.6,0,4.4,1.9,4.4,4.8v0.6h-6.2c0.2,0.8,0.9,1.4,2.2,1.4
		c0.6,0,1.6-0.3,2.1-0.7l1.2,1.8c-0.9,0.8-2.3,1.2-3.6,1.2C59.8,134.5,57.8,132.7,57.8,129.9z M62.4,127.6c-1.2,0-1.7,0.7-1.8,1.3
		h3.6C64.1,128.3,63.7,127.6,62.4,127.6z M62.7,124.3h-1.9l2.3-2.6h2.4L62.7,124.3z"/>
	<path class="st1" d="M68.2,134.3v-12H71v12H68.2z"/>
	<path class="st1" d="M72.8,123.2c0-0.9,0.7-1.6,1.6-1.6c0.9,0,1.6,0.7,1.6,1.6s-0.7,1.6-1.6,1.6C73.5,124.8,72.8,124.1,72.8,123.2z
		 M73,134.3v-8.7h2.8v8.7H73z"/>
	<path class="st1" d="M88.7,134.3V129c0-0.7-0.3-1.2-1.2-1.2c-0.8,0-1.3,0.5-1.6,0.8v5.6h-2.8V129c0-0.7-0.3-1.2-1.1-1.2
		c-0.8,0-1.3,0.5-1.6,0.8v5.6h-2.8v-8.7h2.8v1.1c0.4-0.5,1.5-1.3,2.9-1.3c1.3,0,2.1,0.5,2.5,1.5c0.5-0.8,1.6-1.5,3-1.5
		c1.6,0,2.6,0.8,2.6,2.6v6.3H88.7z"/>
	<path class="st1" d="M93.3,123.2c0-0.9,0.7-1.6,1.6-1.6c0.9,0,1.6,0.7,1.6,1.6s-0.7,1.6-1.6,1.6C94,124.8,93.3,124.1,93.3,123.2z
		 M93.5,134.3v-8.7h2.8v8.7H93.5z"/>
	<path class="st1" d="M104.2,134.3v-5c0-1.1-0.6-1.4-1.4-1.4c-0.8,0-1.4,0.5-1.7,0.8v5.6h-2.8v-8.7h2.8v1.1c0.5-0.6,1.5-1.3,3-1.3
		c2,0,2.9,1.2,2.9,2.8v6.2H104.2z"/>
	<path class="st1" d="M108.4,129.9c0-2.5,1.9-4.6,4.6-4.6c2.6,0,4.4,1.9,4.4,4.8v0.6h-6.2c0.2,0.8,0.9,1.4,2.2,1.4
		c0.6,0,1.6-0.3,2.1-0.7l1.2,1.8c-0.9,0.8-2.3,1.2-3.6,1.2C110.5,134.5,108.4,132.7,108.4,129.9z M113,127.6c-1.2,0-1.7,0.7-1.8,1.3
		h3.6C114.8,128.3,114.3,127.6,113,127.6z"/>
	<path class="st1" d="M118.9,134.3v-8.7h2.8v1.1c0.6-0.7,1.7-1.3,2.7-1.3v2.7c-0.2-0.1-0.4-0.1-0.7-0.1c-0.7,0-1.7,0.3-2,0.8v5.5
		H118.9z"/>
	<path class="st1" d="M13.7,153.3v-12h2.8v12H13.7z"/>
	<path class="st1" d="M18,148.9c0-2.5,1.9-4.6,4.6-4.6c2.6,0,4.4,1.9,4.4,4.8v0.6h-6.2c0.2,0.8,0.9,1.4,2.2,1.4
		c0.6,0,1.6-0.3,2.1-0.7l1.2,1.8c-0.9,0.8-2.3,1.2-3.6,1.2C20,153.5,18,151.7,18,148.9z M22.6,146.6c-1.2,0-1.7,0.7-1.8,1.3h3.6
		C24.3,147.3,23.9,146.6,22.6,146.6z"/>
	<path class="st1" d="M33.6,150.9v-4h-1.4v-2.4h1.4v-2.4h2.8v2.4h1.8v2.4h-1.8v3.2c0,0.5,0.3,0.9,0.8,0.9c0.3,0,0.6-0.1,0.7-0.2
		l0.5,2.1c-0.3,0.3-1,0.6-2.1,0.6C34.5,153.5,33.6,152.6,33.6,150.9z"/>
	<path class="st1" d="M39.5,153.3v-8.7h2.8v1.1c0.6-0.7,1.7-1.3,2.7-1.3v2.7c-0.2-0.1-0.4-0.1-0.7-0.1c-0.7,0-1.7,0.3-2,0.8v5.5
		H39.5z"/>
	<path class="st1" d="M51.4,153.3v-0.9c-0.5,0.6-1.6,1.1-2.7,1.1c-1.3,0-3-0.9-3-2.9c0-2.1,1.7-2.8,3-2.8c1.2,0,2.2,0.4,2.7,1V148
		c0-0.8-0.6-1.3-1.8-1.3c-0.9,0-1.7,0.3-2.4,0.9l-1-1.9c1.1-1,2.6-1.4,3.9-1.4c2.1,0,4.1,0.8,4.1,3.5v5.4H51.4z M51.4,151v-0.8
		c-0.3-0.4-0.9-0.6-1.5-0.6c-0.7,0-1.4,0.3-1.4,1c0,0.7,0.7,1,1.4,1C50.4,151.7,51.1,151.4,51.4,151z"/>
	<path class="st1" d="M55.6,148.9c0-2.7,2-4.6,4.7-4.6c1.9,0,3,0.8,3.6,1.6l-1.8,1.7c-0.3-0.5-0.9-0.8-1.6-0.8c-1.2,0-2,0.8-2,2.1
		s0.9,2.1,2,2.1c0.7,0,1.3-0.4,1.6-0.8l1.8,1.7c-0.5,0.8-1.7,1.6-3.6,1.6C57.6,153.5,55.6,151.6,55.6,148.9z"/>
	<path class="st1" d="M71.1,153.3v-5.1c0-1.1-0.6-1.4-1.4-1.4c-0.8,0-1.4,0.5-1.7,0.8v5.6h-2.8v-12h2.8v4.4c0.5-0.6,1.5-1.3,3-1.3
		c2,0,2.9,1.1,2.9,2.7v6.2H71.1z"/>
	<path class="st1" d="M75.3,148.9c0-2.4,1.8-4.6,4.7-4.6c3,0,4.8,2.1,4.8,4.6c0,2.4-1.8,4.6-4.8,4.6
		C77.1,153.5,75.3,151.4,75.3,148.9z M81.9,148.9c0-1.2-0.7-2.1-1.9-2.1c-1.2,0-1.9,1-1.9,2.1c0,1.2,0.7,2.1,1.9,2.1
		C81.2,151,81.9,150.1,81.9,148.9z"/>
	<path class="st1" d="M97.2,153.3V148c0-0.7-0.3-1.2-1.2-1.2c-0.8,0-1.3,0.5-1.6,0.8v5.6h-2.8V148c0-0.7-0.3-1.2-1.1-1.2
		c-0.8,0-1.3,0.5-1.6,0.8v5.6h-2.8v-8.7H89v1.1c0.4-0.5,1.5-1.3,2.9-1.3c1.3,0,2.1,0.5,2.5,1.5c0.5-0.8,1.6-1.5,3-1.5
		c1.6,0,2.6,0.8,2.6,2.6v6.3H97.2z"/>
	<path class="st1" d="M101.4,148.9c0-2.5,1.9-4.6,4.6-4.6c2.6,0,4.4,1.9,4.4,4.8v0.6h-6.2c0.2,0.8,0.9,1.4,2.2,1.4
		c0.6,0,1.6-0.3,2.1-0.7l1.2,1.8c-0.9,0.8-2.3,1.2-3.6,1.2C103.5,153.5,101.4,151.7,101.4,148.9z M106,146.6c-1.2,0-1.7,0.7-1.8,1.3
		h3.6C107.7,147.3,107.3,146.6,106,146.6z"/>
</g>
</svg>
