<?xml version="1.0" encoding="utf-8"?>
<!-- Generator: Adobe Illustrator 16.0.0, SVG Export Plug-In . SVG Version: 6.00 Build 0)  -->
<!DOCTYPE svg PUBLIC "-//W3C//DTD SVG 1.1//EN" "http://www.w3.org/Graphics/SVG/1.1/DTD/svg11.dtd">
<svg version="1.1" id="Layer_1" xmlns="http://www.w3.org/2000/svg" xmlns:xlink="http://www.w3.org/1999/xlink" x="0px" y="0px"
	 width="220px" height="180.7px" viewBox="0 0 220 180.7" enable-background="new 0 0 220 180.7" xml:space="preserve">
<rect x="0" fill="#008590" width="220" height="180.7"/>
<g>
	<path fill="#FFFFFF" d="M15.8,22.7v-6.7h4.9v1.5h-3.2v1h3.1v1.5h-3.1v1.1h3.2v1.5H15.8z"/>
	<path fill="#FFFFFF" d="M26.2,22.7l-2.8-3.9v3.9h-1.7v-6.7h1.8l2.7,3.7v-3.7h1.7v6.7H26.2z"/>
	<path fill="#FFFFFF" d="M29.1,22.7v-6.7h2.8c2.1,0,3.6,1.3,3.6,3.3s-1.5,3.3-3.6,3.3H29.1z M33.7,19.4c0-1-0.6-1.8-1.8-1.8h-1.1
		v3.7h1.1C33.1,21.2,33.7,20.4,33.7,19.4z"/>
	<path fill="#FFFFFF" d="M36.4,22.7v-6.7h4.9v1.5h-3.2v1h3.1v1.5h-3.1v1.1h3.2v1.5H36.4z M39,15.5h-1l1.3-1.4h1.4L39,15.5z"/>
	<path fill="#FFFFFF" d="M48.1,22.7v-4.4l-1.7,4.4h-0.8L44,18.3v4.4h-1.7v-6.7h2.4l1.4,3.7l1.4-3.7h2.4v6.7H48.1z"/>
	<path fill="#FFFFFF" d="M51,22.7v-6.7h1.7v6.7H51z"/>
	<path fill="#FFFFFF" d="M53.6,19.4c0-2.1,1.6-3.4,3.6-3.4c1.6,0,2.5,0.9,2.9,1.8l-1.5,0.7c-0.2-0.5-0.8-1-1.4-1
		c-1.1,0-1.9,0.8-1.9,1.9c0,1.1,0.8,1.9,1.9,1.9c0.6,0,1.2-0.4,1.4-1l1.5,0.7c-0.4,0.8-1.3,1.8-2.9,1.8
		C55.2,22.9,53.6,21.5,53.6,19.4z"/>
	<path fill="#FFFFFF" d="M60.9,22.7v-6.7h1.7v6.7H60.9z"/>
	<path fill="#FFFFFF" d="M65.3,22.7v-5.2h-1.9v-1.5h5.4v1.5H67v5.2H65.3z"/>
	<path fill="#FFFFFF" d="M69.7,22.7v-6.7h4.9v1.5h-3.2v1h3.1v1.5h-3.1v1.1h3.2v1.5H69.7z M72.3,15.5h-1l1.3-1.4h1.4L72.3,15.5z"/>
	<path fill="#FFFFFF" d="M77.9,18.8c0-0.5,0.4-0.9,0.9-0.9s0.9,0.4,0.9,0.9s-0.4,0.9-0.9,0.9S77.9,19.3,77.9,18.8z M77.9,21.9
		c0-0.5,0.4-0.9,0.9-0.9s0.9,0.4,0.9,0.9c0,0.5-0.4,0.9-0.9,0.9S77.9,22.4,77.9,21.9z"/>
	<path fill="#FFFFFF" d="M18.5,84.7v-9.9C39.9,59.3,43.9,55.9,43.9,51c0-3.3-3.2-5.1-6.8-5.1c-5.5,0-9.6,2.1-13.2,5.4l-7-8.4
		c5.3-5.8,13.1-8.2,20-8.2c11.6,0,20,6.5,20,16.4c0,7.6-5.4,14.1-17.7,22.6h18.1v11.1H18.5z"/>
	<path fill="#FFFFFF" d="M60.1,60.1c0-13,6.7-25.5,21.2-25.5c14.4,0,21.2,12.4,21.2,25.5s-6.7,25.5-21.2,25.5
		C66.8,85.6,60.1,73.1,60.1,60.1z M89.5,60.1c0-8.7-2.4-14.2-8.3-14.2c-5.9,0-8.3,5.5-8.3,14.2c0,8.7,2.4,14.3,8.3,14.3
		C87.1,74.4,89.5,68.8,89.5,60.1z"/>
	<path fill="#FFFFFF" d="M104.2,60.1c0-13,6.7-25.5,21.2-25.5c14.4,0,21.2,12.4,21.2,25.5s-6.7,25.5-21.2,25.5
		C111,85.6,104.2,73.1,104.2,60.1z M133.7,60.1c0-8.7-2.4-14.2-8.3-14.2c-5.9,0-8.3,5.5-8.3,14.2c0,8.7,2.4,14.3,8.3,14.3
		C131.3,74.4,133.7,68.8,133.7,60.1z"/>
	<path fill="#FFFFFF" d="M52.4,127.7v-16.5c0-2.1-1-3.6-3.6-3.6c-2.4,0-4,1.5-4.9,2.6v17.5h-8.6v-16.5c0-2.1-1-3.6-3.5-3.6
		c-2.4,0-4,1.5-4.9,2.6v17.5h-8.6v-27H27v3.3c1.2-1.6,4.6-4,8.9-4c3.9,0,6.6,1.6,7.7,4.8c1.6-2.4,5.1-4.8,9.4-4.8
		c5,0,8.1,2.6,8.1,8.1v19.6H52.4z"/>
	<path fill="#FFFFFF" d="M65.2,93.3c0-2.7,2.2-4.9,4.9-4.9c2.7,0,5,2.2,5,4.9c0,2.7-2.2,5-5,5C67.4,98.3,65.2,96,65.2,93.3z
		 M65.8,127.7v-27h8.6v27H65.8z"/>
	<path fill="#FFFFFF" d="M79.2,127.7V90.4h8.6v37.4H79.2z"/>
	<path fill="#FFFFFF" d="M92.6,127.7V90.4h8.6v37.4H92.6z"/>
	<path fill="#FFFFFF" d="M105.4,93.3c0-2.7,2.2-4.9,4.9-4.9c2.7,0,5,2.2,5,4.9c0,2.7-2.2,5-5,5C107.6,98.3,105.4,96,105.4,93.3z
		 M106,127.7v-27h8.6v27H106z"/>
	<path fill="#FFFFFF" d="M117.6,114.2c0-7.6,5.5-14.2,14.7-14.2c9.3,0,14.8,6.6,14.8,14.2c0,7.6-5.5,14.2-14.8,14.2
		C123.1,128.4,117.6,121.8,117.6,114.2z M138.2,114.2c0-3.6-2.1-6.6-5.9-6.6c-3.7,0-5.8,3-5.8,6.6c0,3.6,2.1,6.6,5.8,6.6
		C136.1,120.8,138.2,117.8,138.2,114.2z"/>
	<path fill="#FFFFFF" d="M168.4,127.7v-15.6c0-3.3-1.7-4.5-4.4-4.5c-2.6,0-4.3,1.4-5.3,2.6v17.5h-8.6v-27h8.6v3.3
		c1.6-1.9,4.8-4,9.4-4c6.1,0,8.9,3.6,8.9,8.6v19.2H168.4z"/>
	<path fill="#FFFFFF" d="M179.5,124.2l3.6-6.2c2,1.8,6.3,3.6,9.5,3.6c2.6,0,3.6-0.7,3.6-1.9c0-3.4-15.7,0.1-15.7-10.9
		c0-4.8,4.1-8.9,11.6-8.9c4.6,0,8.4,1.5,11.3,3.6l-3.3,6.1c-1.6-1.6-4.7-3-8-3c-2,0-3.4,0.8-3.4,1.8c0,3,15.7-0.1,15.7,11
		c0,5.2-4.5,8.8-12.3,8.8C187.3,128.4,182.4,126.8,179.5,124.2z"/>
	<path fill="#FFFFFF" d="M22.1,146.7v-1c-0.7,0.8-1.6,1.2-2.6,1.2c-2.1,0-3.8-1.6-3.8-4.6c0-2.8,1.7-4.6,3.8-4.6
		c1,0,1.9,0.4,2.6,1.2v-4.3h2.8v12H22.1z M22.1,143.7V141c-0.4-0.5-1.1-0.8-1.7-0.8c-1.1,0-1.9,0.8-1.9,2.1s0.8,2.1,1.9,2.1
		C21,144.5,21.7,144.2,22.1,143.7z"/>
	<path fill="#FFFFFF" d="M26.3,142.4c0-2.5,1.9-4.6,4.6-4.6c2.6,0,4.4,1.9,4.4,4.8v0.6h-6.2c0.2,0.8,0.9,1.4,2.2,1.4
		c0.6,0,1.6-0.3,2.1-0.7l1.2,1.8c-0.9,0.8-2.3,1.2-3.6,1.2C28.4,146.9,26.3,145.2,26.3,142.4z M30.9,140.1c-1.2,0-1.7,0.7-1.8,1.3
		h3.6C32.6,140.8,32.2,140.1,30.9,140.1z"/>
	<path fill="#FFFFFF" d="M44.1,145.7v4.3h-2.8v-12h2.8v1c0.7-0.8,1.6-1.2,2.6-1.2c2.2,0,3.8,1.6,3.8,4.6c0,3-1.6,4.6-3.8,4.6
		C45.7,146.9,44.8,146.6,44.1,145.7z M47.7,142.4c0-1.3-0.8-2.1-1.9-2.1c-0.6,0-1.3,0.3-1.7,0.8v2.6c0.3,0.4,1.1,0.8,1.7,0.8
		C46.8,144.5,47.7,143.7,47.7,142.4z"/>
	<path fill="#FFFFFF" d="M51.4,142.4c0-2.5,1.9-4.6,4.6-4.6c2.6,0,4.4,1.9,4.4,4.8v0.6h-6.2c0.2,0.8,0.9,1.4,2.2,1.4
		c0.6,0,1.6-0.3,2.1-0.7l1.2,1.8c-0.9,0.8-2.3,1.2-3.6,1.2C53.4,146.9,51.4,145.2,51.4,142.4z M56,140.1c-1.2,0-1.7,0.7-1.8,1.3h3.6
		C57.7,140.8,57.3,140.1,56,140.1z"/>
	<path fill="#FFFFFF" d="M61.8,146.7V138h2.8v1.1c0.6-0.7,1.7-1.3,2.7-1.3v2.7c-0.2-0.1-0.4-0.1-0.7-0.1c-0.7,0-1.7,0.3-2,0.8v5.5
		H61.8z"/>
	<path fill="#FFFFFF" d="M67.8,145.6l1.2-2c0.6,0.6,2,1.2,3.1,1.2c0.8,0,1.2-0.2,1.2-0.6c0-1.1-5.1,0-5.1-3.5c0-1.5,1.3-2.9,3.7-2.9
		c1.5,0,2.7,0.5,3.6,1.2l-1.1,2c-0.5-0.5-1.5-1-2.6-1c-0.6,0-1.1,0.3-1.1,0.6c0,1,5,0,5,3.5c0,1.7-1.5,2.8-3.9,2.8
		C70.3,146.9,68.7,146.4,67.8,145.6z"/>
	<path fill="#FFFFFF" d="M76.7,142.4c0-2.4,1.8-4.6,4.7-4.6c3,0,4.8,2.1,4.8,4.6s-1.8,4.6-4.8,4.6C78.5,146.9,76.7,144.8,76.7,142.4
		z M83.3,142.4c0-1.2-0.7-2.1-1.9-2.1c-1.2,0-1.9,1-1.9,2.1c0,1.2,0.7,2.1,1.9,2.1C82.6,144.5,83.3,143.5,83.3,142.4z"/>
	<path fill="#FFFFFF" d="M93.5,146.7v-5c0-1.1-0.6-1.4-1.4-1.4c-0.8,0-1.4,0.5-1.7,0.8v5.6h-2.8V138h2.8v1.1c0.5-0.6,1.5-1.3,3-1.3
		c2,0,2.9,1.2,2.9,2.8v6.2H93.5z"/>
	<path fill="#FFFFFF" d="M104.2,146.7v-5c0-1.1-0.6-1.4-1.4-1.4c-0.8,0-1.4,0.5-1.7,0.8v5.6h-2.8V138h2.8v1.1c0.5-0.6,1.5-1.3,3-1.3
		c2,0,2.9,1.2,2.9,2.8v6.2H104.2z"/>
	<path fill="#FFFFFF" d="M108.4,142.4c0-2.5,1.9-4.6,4.6-4.6c2.6,0,4.4,1.9,4.4,4.8v0.6h-6.2c0.2,0.8,0.9,1.4,2.2,1.4
		c0.6,0,1.6-0.3,2.1-0.7l1.2,1.8c-0.9,0.8-2.3,1.2-3.6,1.2C110.5,146.9,108.4,145.2,108.4,142.4z M113,140.1c-1.2,0-1.7,0.7-1.8,1.3
		h3.6C114.8,140.8,114.3,140.1,113,140.1z"/>
	<path fill="#FFFFFF" d="M118.1,145.6l1.2-2c0.6,0.6,2,1.2,3.1,1.2c0.8,0,1.2-0.2,1.2-0.6c0-1.1-5.1,0-5.1-3.5
		c0-1.5,1.3-2.9,3.7-2.9c1.5,0,2.7,0.5,3.6,1.2l-1.1,2c-0.5-0.5-1.5-1-2.6-1c-0.6,0-1.1,0.3-1.1,0.6c0,1,5,0,5,3.5
		c0,1.7-1.5,2.8-3.9,2.8C120.6,146.9,119,146.4,118.1,145.6z"/>
	<path fill="#FFFFFF" d="M137.3,146.7v-0.9c-0.5,0.6-1.6,1.1-2.7,1.1c-1.3,0-3-0.9-3-2.9c0-2.1,1.7-2.8,3-2.8c1.2,0,2.2,0.4,2.7,1
		v-0.9c0-0.8-0.6-1.3-1.8-1.3c-0.9,0-1.7,0.3-2.4,0.9l-1-1.9c1.1-1,2.6-1.4,3.9-1.4c2.1,0,4.1,0.8,4.1,3.5v5.4H137.3z M135.8,136.7
		l-2.9-2.6h2.4l2.3,2.6H135.8z M137.3,144.5v-0.8c-0.3-0.4-0.9-0.6-1.5-0.6c-0.7,0-1.4,0.3-1.4,1s0.7,1,1.4,1
		C136.3,145.1,137,144.9,137.3,144.5z"/>
	<path fill="#FFFFFF" d="M146.7,146.7V138h2.8v1.1c0.6-0.7,1.7-1.3,2.7-1.3v2.7c-0.2-0.1-0.4-0.1-0.7-0.1c-0.7,0-1.7,0.3-2,0.8v5.5
		H146.7z"/>
	<path fill="#FFFFFF" d="M153.2,135.7c0-0.9,0.7-1.6,1.6-1.6c0.9,0,1.6,0.7,1.6,1.6s-0.7,1.6-1.6,1.6
		C153.9,137.3,153.2,136.5,153.2,135.7z M153.4,146.7V138h2.8v8.7H153.4z"/>
	<path fill="#FFFFFF" d="M157.5,145.6l1.2-2c0.6,0.6,2,1.2,3.1,1.2c0.8,0,1.2-0.2,1.2-0.6c0-1.1-5.1,0-5.1-3.5
		c0-1.5,1.3-2.9,3.7-2.9c1.5,0,2.7,0.5,3.6,1.2l-1.1,2c-0.5-0.5-1.5-1-2.6-1c-0.6,0-1.1,0.3-1.1,0.6c0,1,5,0,5,3.5
		c0,1.7-1.5,2.8-3.9,2.8C160,146.9,158.4,146.4,157.5,145.6z"/>
	<path fill="#FFFFFF" d="M166.4,142.4c0-2.9,1.6-4.6,3.8-4.6c1,0,1.9,0.4,2.6,1.2v-1h2.8v12h-2.8v-4.3c-0.7,0.9-1.6,1.2-2.6,1.2
		C168,146.9,166.4,145.3,166.4,142.4z M172.7,143.7v-2.6c-0.3-0.5-1.1-0.8-1.6-0.8c-1.1,0-1.9,0.8-1.9,2.1c0,1.3,0.8,2.1,1.9,2.1
		C171.7,144.5,172.4,144.2,172.7,143.7z"/>
	<path fill="#FFFFFF" d="M183.4,146.7v-1c-0.5,0.6-1.5,1.3-3,1.3c-2,0-2.9-1.1-2.9-2.7V138h2.8v5c0,1.1,0.5,1.4,1.4,1.4
		c0.8,0,1.3-0.4,1.7-0.8V138h2.8v8.7H183.4z"/>
	<path fill="#FFFFFF" d="M187.6,142.4c0-2.5,1.9-4.6,4.6-4.6c2.6,0,4.4,1.9,4.4,4.8v0.6h-6.2c0.2,0.8,0.9,1.4,2.2,1.4
		c0.6,0,1.6-0.3,2.1-0.7l1.2,1.8c-0.9,0.8-2.3,1.2-3.6,1.2C189.7,146.9,187.6,145.2,187.6,142.4z M192.2,140.1
		c-1.2,0-1.7,0.7-1.8,1.3h3.6C194,140.8,193.5,140.1,192.2,140.1z"/>
	<path fill="#FFFFFF" d="M22.1,165.7v-1c-0.7,0.8-1.6,1.2-2.6,1.2c-2.1,0-3.8-1.6-3.8-4.6c0-2.8,1.7-4.6,3.8-4.6
		c1,0,1.9,0.4,2.6,1.2v-4.3h2.8v12H22.1z M22.1,162.7V160c-0.4-0.5-1.1-0.8-1.7-0.8c-1.1,0-1.9,0.8-1.9,2.1s0.8,2.1,1.9,2.1
		C21,163.5,21.7,163.2,22.1,162.7z"/>
	<path fill="#FFFFFF" d="M32,165.7v-0.9c-0.5,0.6-1.6,1.1-2.7,1.1c-1.3,0-3-0.9-3-2.9c0-2.1,1.7-2.8,3-2.8c1.2,0,2.2,0.4,2.7,1v-0.9
		c0-0.8-0.6-1.3-1.8-1.3c-0.9,0-1.7,0.3-2.4,0.9l-1-1.9c1.1-1,2.6-1.4,3.9-1.4c2.1,0,4.1,0.8,4.1,3.5v5.4H32z M32,163.5v-0.8
		c-0.3-0.4-0.9-0.6-1.5-0.6c-0.7,0-1.4,0.3-1.4,1s0.7,1,1.4,1C31.1,164.1,31.7,163.9,32,163.5z"/>
	<path fill="#FFFFFF" d="M42.7,165.7v-5c0-1.1-0.6-1.4-1.4-1.4c-0.8,0-1.4,0.5-1.7,0.8v5.6h-2.8V157h2.8v1.1c0.5-0.6,1.5-1.3,3-1.3
		c2,0,2.9,1.2,2.9,2.8v6.2H42.7z"/>
	<path fill="#FFFFFF" d="M46.7,164.6l1.2-2c0.6,0.6,2,1.2,3.1,1.2c0.8,0,1.2-0.2,1.2-0.6c0-1.1-5.1,0-5.1-3.5c0-1.5,1.3-2.9,3.7-2.9
		c1.5,0,2.7,0.5,3.6,1.2l-1.1,2c-0.5-0.5-1.5-1-2.6-1c-0.6,0-1.1,0.3-1.1,0.6c0,1,5,0,5,3.5c0,1.7-1.5,2.8-3.9,2.8
		C49.2,165.9,47.6,165.4,46.7,164.6z"/>
	<path fill="#FFFFFF" d="M65.9,165.7v-2.2h-5.7v-2.4l4.6-7.4H69v7.1h1.5v2.7H69v2.2H65.9z M65.9,156.4l-2.7,4.4h2.7V156.4z"/>
	<path fill="#FFFFFF" d="M71.6,165.7v-2.4c5.2-3.8,6.2-4.6,6.2-5.8c0-0.8-0.8-1.2-1.7-1.2c-1.3,0-2.3,0.5-3.2,1.3l-1.7-2.1
		c1.3-1.4,3.2-2,4.9-2c2.8,0,4.9,1.6,4.9,4c0,1.9-1.3,3.4-4.3,5.5h4.4v2.7H71.6z"/>
	<path fill="#FFFFFF" d="M90.2,164.7v4.3h-2.8v-12h2.8v1c0.7-0.8,1.6-1.2,2.6-1.2c2.2,0,3.8,1.6,3.8,4.6c0,3-1.6,4.6-3.8,4.6
		C91.8,165.9,90.9,165.6,90.2,164.7z M93.7,161.4c0-1.3-0.8-2.1-1.9-2.1c-0.6,0-1.3,0.3-1.7,0.8v2.6c0.3,0.4,1.1,0.8,1.7,0.8
		C92.9,163.5,93.7,162.7,93.7,161.4z"/>
	<path fill="#FFFFFF" d="M103.1,165.7v-0.9c-0.5,0.6-1.6,1.1-2.7,1.1c-1.3,0-3-0.9-3-2.9c0-2.1,1.7-2.8,3-2.8c1.2,0,2.2,0.4,2.7,1
		v-0.9c0-0.8-0.6-1.3-1.8-1.3c-0.9,0-1.7,0.3-2.4,0.9l-1-1.9c1.1-1,2.6-1.4,3.9-1.4c2.1,0,4.1,0.8,4.1,3.5v5.4H103.1z M103.1,163.5
		v-0.8c-0.3-0.4-0.9-0.6-1.5-0.6c-0.7,0-1.4,0.3-1.4,1s0.7,1,1.4,1C102.2,164.1,102.8,163.9,103.1,163.5z"/>
	<path fill="#FFFFFF" d="M108.1,166.7c0.2,0.1,0.5,0.2,0.7,0.2c0.6,0,1-0.1,1.2-0.5l0.2-0.5l-3.5-8.8h2.9l2,5.5l2-5.5h2.9l-3.9,9.9
		c-0.7,1.8-2,2.2-3.7,2.3c-0.3,0-0.9-0.1-1.2-0.1L108.1,166.7z"/>
	<path fill="#FFFFFF" d="M116.6,164.6l1.2-2c0.6,0.6,2,1.2,3.1,1.2c0.8,0,1.2-0.2,1.2-0.6c0-1.1-5.1,0-5.1-3.5
		c0-1.5,1.3-2.9,3.7-2.9c1.5,0,2.7,0.5,3.6,1.2l-1.1,2c-0.5-0.5-1.5-1-2.6-1c-0.6,0-1.1,0.3-1.1,0.6c0,1,5,0,5,3.5
		c0,1.7-1.5,2.8-3.9,2.8C119.1,165.9,117.5,165.4,116.6,164.6z"/>
</g>
</svg>
