<?xml version="1.0" encoding="utf-8"?>
<!-- Generator: Adobe Illustrator 16.0.0, SVG Export Plug-In . SVG Version: 6.00 Build 0)  -->
<!DOCTYPE svg PUBLIC "-//W3C//DTD SVG 1.1//EN" "http://www.w3.org/Graphics/SVG/1.1/DTD/svg11.dtd">
<svg version="1.1" id="Layer_1" xmlns="http://www.w3.org/2000/svg" xmlns:xlink="http://www.w3.org/1999/xlink" x="0px" y="0px"
	 width="220px" height="161px" viewBox="0 0 220 161" enable-background="new 0 0 220 161" xml:space="preserve">
<rect x="0" fill="#259AD6" width="220" height="161"/>
<g>
	<path fill="#FFFFFF" d="M16.041,59.195V37.363h9.624v21.502c0,4.344,2.64,7.479,7.754,7.479c5.059,0,7.699-3.134,7.699-7.479
		V37.363h9.569v21.777c0,9.128-5.499,15.563-17.268,15.563S16.041,68.214,16.041,59.195z"/>
	<path fill="#FFFFFF" d="M51.901,68.874l5.004-7.369c2.64,2.64,6.709,4.839,11.769,4.839c3.189,0,5.169-1.1,5.169-2.915
		c0-4.839-20.732-0.825-20.732-14.958c0-6.159,5.169-11.658,14.573-11.658c5.884,0,10.999,1.76,14.903,5.114l-5.169,7.094
		c-3.08-2.585-7.094-3.85-10.724-3.85c-2.75,0-3.959,0.935-3.959,2.53c0,4.509,20.732,1.1,20.732,14.738
		c0,7.369-5.444,12.264-15.288,12.264C60.754,74.704,55.585,72.339,51.901,68.874z"/>
	<path fill="#FFFFFF" d="M96.338,74.539c-5.829-0.55-10.063-2.695-13.198-5.665l5.004-7.369c1.979,1.979,4.784,3.739,8.194,4.454
		v-6.104C90.674,58.59,84.35,56.281,84.35,48.472c0-5.554,4.234-10.613,11.988-11.493v-5.169h6.104v5.224
		c4.399,0.605,8.249,2.255,11.384,4.895l-5.17,7.094c-1.869-1.54-4.014-2.585-6.214-3.19v5.334
		c5.719,1.32,12.263,3.629,12.263,11.273c0,6.599-4.344,11.219-12.263,12.099v5.004h-6.104V74.539z M96.338,49.737v-4.399
		c-1.65,0.275-2.365,1.155-2.365,2.365C93.973,48.692,94.853,49.297,96.338,49.737z M102.442,61.23v4.839
		c1.65-0.44,2.64-1.375,2.64-2.64C105.082,62.385,104.037,61.725,102.442,61.23z"/>
	<path fill="#FFFFFF" d="M120.045,74.043l12.428-28.431H114.6v-8.249h28.762v6.544l-12.924,30.136H120.045z"/>
	<path fill="#FFFFFF" d="M142.924,55.731c0-9.679,5.006-18.917,15.729-18.917s15.729,9.239,15.729,18.917
		s-5.006,18.973-15.729,18.973S142.924,65.41,142.924,55.731z M164.812,55.731c0-6.489-1.76-10.559-6.16-10.559
		c-4.398,0-6.158,4.069-6.158,10.559s1.76,10.613,6.158,10.613C163.053,66.344,164.812,62.22,164.812,55.731z"/>
	<path fill="#FFFFFF" d="M175.594,55.731c0-9.679,5.004-18.917,15.729-18.917c10.723,0,15.727,9.239,15.727,18.917
		s-5.004,18.973-15.727,18.973C180.598,74.704,175.594,65.41,175.594,55.731z M197.48,55.731c0-6.489-1.76-10.559-6.158-10.559
		c-4.4,0-6.16,4.069-6.16,10.559s1.76,10.613,6.16,10.613C195.721,66.344,197.48,62.22,197.48,55.731z"/>
	<path fill="#FFFFFF" d="M14.391,112.254v-7.094h13.198v7.094H14.391z"/>
	<path fill="#FFFFFF" d="M27.92,112.365c0-4.18,3.19-7.59,7.424-9.24c-3.905-1.484-6.819-4.123-6.819-8.523
		c0-7.094,7.809-9.788,14.958-9.788s14.958,2.694,14.958,9.788c0,4.4-2.915,7.039-6.874,8.523c4.29,1.65,7.479,5.061,7.479,9.24
		c0,7.148-7.644,10.338-15.563,10.338S27.92,119.568,27.92,112.365z M49.422,111.045c0-2.199-3.63-3.355-5.939-3.629
		c-2.365,0.273-5.939,1.43-5.939,3.629c0,1.98,2.419,3.299,5.939,3.299C46.893,114.344,49.422,113.025,49.422,111.045z
		 M48.762,96.197c0-1.926-2.09-3.025-5.279-3.025s-5.334,1.1-5.334,3.025c0,1.869,3.079,2.914,5.334,3.244
		C45.738,99.111,48.762,98.066,48.762,96.197z"/>
	<path fill="#FFFFFF" d="M59.16,103.73c0-9.678,5.004-18.917,15.728-18.917s15.728,9.239,15.728,18.917
		c0,9.68-5.004,18.973-15.728,18.973S59.16,113.41,59.16,103.73z M81.047,103.73c0-6.488-1.76-10.559-6.159-10.559
		s-6.159,4.07-6.159,10.559c0,6.49,1.76,10.613,6.159,10.613S81.047,110.221,81.047,103.73z"/>
	<path fill="#FFFFFF" d="M91.83,103.73c0-9.678,5.004-18.917,15.728-18.917s15.728,9.239,15.728,18.917
		c0,9.68-5.004,18.973-15.728,18.973S91.83,113.41,91.83,103.73z M113.717,103.73c0-6.488-1.76-10.559-6.159-10.559
		s-6.159,4.07-6.159,10.559c0,6.49,1.76,10.613,6.159,10.613S113.717,110.221,113.717,103.73z"/>
	<path fill="#FFFFFF" d="M159.641,122.043v-16.168c0-2.033-0.99-3.574-3.52-3.574c-2.311,0-3.961,1.484-4.785,2.584v17.158h-8.469
		v-16.168c0-2.033-0.936-3.574-3.465-3.574c-2.309,0-3.904,1.484-4.783,2.584v17.158h-8.469V95.482h8.469v3.244
		c1.154-1.539,4.564-3.904,8.742-3.904c3.85,0,6.436,1.595,7.535,4.729c1.539-2.309,5.004-4.729,9.184-4.729
		c4.895,0,7.975,2.529,7.975,7.975v19.246H159.641z"/>
	<path fill="#FFFFFF" d="M14.343,141.043v-6.301h-1.44v-2.395h1.44v-0.199c0-2.07,1.296-3.295,3.115-3.295
		c0.937,0,1.909,0.27,2.485,0.811l-1.008,1.729c-0.216-0.197-0.504-0.307-0.9-0.307c-0.504,0-0.918,0.342-0.918,1.062v0.199h1.764
		v2.395h-1.764v6.301H14.343z"/>
	<path fill="#FFFFFF" d="M25.901,141.043V140c-0.54,0.611-1.53,1.26-3.007,1.26c-1.962,0-2.863-1.135-2.863-2.719v-6.193h2.773
		v5.041c0,1.062,0.54,1.422,1.44,1.422c0.792,0,1.332-0.432,1.656-0.846v-5.617h2.773v8.695H25.901z"/>
	<path fill="#FFFFFF" d="M36.575,141.043v-5.023c0-1.062-0.558-1.439-1.422-1.439c-0.828,0-1.369,0.449-1.692,0.846v5.617h-2.773
		v-8.695h2.773v1.061c0.522-0.611,1.548-1.277,3.025-1.277c1.962,0,2.863,1.152,2.863,2.754v6.158H36.575z"/>
	<path fill="#FFFFFF" d="M47.212,141.043v-1.008c-0.72,0.828-1.603,1.225-2.575,1.225c-2.143,0-3.835-1.621-3.835-4.574
		c0-2.844,1.656-4.555,3.835-4.555c0.955,0,1.891,0.379,2.575,1.242v-4.34h2.755v12.01H47.212z M47.212,138.018v-2.664
		c-0.36-0.469-1.08-0.773-1.674-0.773c-1.098,0-1.909,0.811-1.909,2.105c0,1.297,0.811,2.125,1.909,2.125
		C46.132,138.811,46.853,138.486,47.212,138.018z"/>
	<path fill="#FFFFFF" d="M51.8,129.971c0-0.883,0.702-1.586,1.584-1.586s1.603,0.703,1.603,1.586c0,0.881-0.72,1.602-1.603,1.602
		S51.8,130.852,51.8,129.971z M51.999,141.043v-8.695h2.773v8.695H51.999z"/>
	<path fill="#FFFFFF" d="M62.674,141.043v-5.023c0-1.062-0.558-1.439-1.422-1.439c-0.828,0-1.368,0.449-1.692,0.846v5.617h-2.773
		v-8.695h2.773v1.061c0.522-0.611,1.548-1.277,3.025-1.277c1.962,0,2.863,1.152,2.863,2.754v6.158H62.674z"/>
	<path fill="#FFFFFF" d="M67.226,143.275l1.206-1.943c0.685,0.719,1.639,1.008,2.647,1.008c0.918,0,2.214-0.396,2.214-2.053v-0.666
		c-0.72,0.863-1.584,1.277-2.575,1.277c-2.125,0-3.817-1.457-3.817-4.393c0-2.863,1.639-4.375,3.817-4.375
		c0.973,0,1.873,0.379,2.575,1.242v-1.025h2.773v7.939c0,3.529-2.827,4.285-4.987,4.285
		C69.584,144.572,68.342,144.195,67.226,143.275z M73.293,137.676v-2.322c-0.342-0.469-1.08-0.773-1.656-0.773
		c-1.098,0-1.909,0.666-1.909,1.926c0,1.279,0.811,1.945,1.909,1.945C72.213,138.451,72.952,138.145,73.293,137.676z"/>
	<path fill="#FFFFFF" d="M82.454,143.275l1.206-1.943c0.684,0.719,1.639,1.008,2.647,1.008c0.918,0,2.215-0.396,2.215-2.053v-0.666
		c-0.721,0.863-1.585,1.277-2.575,1.277c-2.125,0-3.817-1.457-3.817-4.393c0-2.863,1.638-4.375,3.817-4.375
		c0.973,0,1.873,0.379,2.575,1.242v-1.025h2.772v7.939c0,3.529-2.827,4.285-4.987,4.285
		C84.812,144.572,83.57,144.195,82.454,143.275z M88.522,137.676v-2.322c-0.342-0.469-1.081-0.773-1.657-0.773
		c-1.098,0-1.909,0.666-1.909,1.926c0,1.279,0.811,1.945,1.909,1.945C87.441,138.451,88.18,138.145,88.522,137.676z"/>
	<path fill="#FFFFFF" d="M98.439,141.043v-0.863c-0.54,0.648-1.584,1.08-2.701,1.08c-1.333,0-2.989-0.918-2.989-2.863
		c0-2.107,1.656-2.809,2.989-2.809c1.152,0,2.179,0.379,2.701,1.025v-0.863c0-0.756-0.648-1.279-1.764-1.279
		c-0.864,0-1.729,0.344-2.431,0.938l-1.026-1.928c1.116-0.953,2.61-1.35,3.943-1.35c2.089,0,4.051,0.773,4.051,3.475v5.438H98.439z
		 M98.439,138.811v-0.773c-0.288-0.414-0.936-0.613-1.548-0.613c-0.72,0-1.386,0.324-1.386,1.01c0,0.684,0.666,1.008,1.386,1.008
		C97.503,139.441,98.151,139.225,98.439,138.811z"/>
	<path fill="#FFFFFF" d="M105.999,140.018v4.338h-2.773v-12.008h2.773v1.008c0.684-0.828,1.584-1.225,2.575-1.225
		c2.179,0,3.817,1.621,3.817,4.555c0,2.953-1.638,4.574-3.817,4.574C107.602,141.26,106.719,140.881,105.999,140.018z
		 M109.564,136.686c0-1.295-0.828-2.105-1.909-2.105c-0.594,0-1.314,0.324-1.656,0.791v2.646c0.342,0.451,1.062,0.793,1.656,0.793
		C108.736,138.811,109.564,138,109.564,136.686z"/>
</g>
<g>
	<path fill="#FFFFFF" d="M15.81,22.732v-6.667h4.887v1.5h-3.168v1.039h3.098v1.5h-3.098v1.129h3.168v1.499H15.81z"/>
	<path fill="#FFFFFF" d="M21.22,21.792l0.909-1.339c0.48,0.48,1.219,0.879,2.139,0.879c0.58,0,0.939-0.2,0.939-0.529
		c0-0.88-3.768-0.15-3.768-2.719c0-1.119,0.939-2.119,2.648-2.119c1.069,0,1.999,0.32,2.708,0.929l-0.939,1.29
		c-0.56-0.47-1.289-0.7-1.949-0.7c-0.5,0-0.72,0.17-0.72,0.459c0,0.82,3.768,0.2,3.768,2.679c0,1.339-0.99,2.229-2.779,2.229
		C22.829,22.852,21.889,22.422,21.22,21.792z"/>
	<path fill="#FFFFFF" d="M29.079,22.732v-5.167h-1.869v-1.5h5.447v1.5h-1.859v5.167H29.079z"/>
	<path fill="#FFFFFF" d="M33.479,22.732v-6.667h1.719v6.667H33.479z"/>
	<path fill="#FFFFFF" d="M42.246,22.732v-4.408l-1.679,4.408h-0.76l-1.689-4.408v4.408h-1.719v-6.667h2.389l1.399,3.678l1.389-3.678
		h2.389v6.667H42.246z"/>
	<path fill="#FFFFFF" d="M49.697,22.732l-0.33-0.959h-2.628l-0.33,0.959H44.46l2.509-6.667h2.168l2.509,6.667H49.697z
		 M48.058,17.765l-0.85,2.509h1.689L48.058,17.765z"/>
	<path fill="#FFFFFF" d="M53.008,22.732v-5.167h-1.869v-1.5h5.447v1.5h-1.859v5.167H53.008z"/>
	<path fill="#FFFFFF" d="M57.409,22.732v-6.667h4.887v1.5h-3.168v1.039h3.098v1.5h-3.098v1.129h3.168v1.499H57.409z"/>
	<path fill="#FFFFFF" d="M63.299,22.732v-6.667h2.798c2.099,0,3.608,1.259,3.608,3.328s-1.509,3.338-3.598,3.338H63.299z
		 M67.946,19.394c0-1.029-0.62-1.829-1.839-1.829h-1.089v3.668h1.079C67.267,21.233,67.946,20.383,67.946,19.394z"/>
	<path fill="#FFFFFF" d="M70.369,18.774c0-0.51,0.439-0.939,0.949-0.939s0.939,0.43,0.939,0.939s-0.43,0.939-0.939,0.939
		S70.369,19.284,70.369,18.774z M70.369,21.902c0-0.5,0.439-0.929,0.949-0.929s0.939,0.43,0.939,0.929
		c0,0.51-0.43,0.939-0.939,0.939S70.369,22.412,70.369,21.902z"/>
</g>
</svg>
