<?xml version="1.0" encoding="utf-8"?>
<!-- Generator: Adobe Illustrator 16.0.0, SVG Export Plug-In . SVG Version: 6.00 Build 0)  -->
<!DOCTYPE svg PUBLIC "-//W3C//DTD SVG 1.1//EN" "http://www.w3.org/Graphics/SVG/1.1/DTD/svg11.dtd">
<svg version="1.1" id="Layer_1" xmlns="http://www.w3.org/2000/svg" xmlns:xlink="http://www.w3.org/1999/xlink" x="0px" y="0px"
	 width="220px" height="223.2px" viewBox="0 0 220 223.2" enable-background="new 0 0 220 223.2" xml:space="preserve">
<rect x="0" fill="#259AD6" width="220" height="223.2"/>
<g>
	<path fill="#FFFFFF" d="M19.3,72l12.4-28.4H13.9v-8.2h28.8v6.5L29.7,72H19.3z"/>
	<path fill="#FFFFFF" d="M42.2,53.7c0-9.7,5-18.9,15.7-18.9s15.7,9.2,15.7,18.9s-5,19-15.7,19S42.2,63.4,42.2,53.7z M64.1,53.7
		c0-6.5-1.8-10.6-6.2-10.6s-6.2,4.1-6.2,10.6s1.8,10.6,6.2,10.6S64.1,60.2,64.1,53.7z"/>
	<path fill="#FFFFFF" d="M73.8,53.7c0-9.7,5-18.9,15.7-18.9s15.7,9.2,15.7,18.9s-5,19-15.7,19S73.8,63.4,73.8,53.7z M95.7,53.7
		c0-6.5-1.8-10.6-6.2-10.6s-6.2,4.1-6.2,10.6s1.8,10.6,6.2,10.6S95.7,60.2,95.7,53.7z"/>
	<path fill="#FFFFFF" d="M105.6,62.3v-7.1h13.2v7.1H105.6z"/>
	<path fill="#FFFFFF" d="M119.1,62.4c0-4.2,3.2-7.6,7.4-9.2c-3.9-1.5-6.8-4.1-6.8-8.5c0-7.1,7.8-9.8,15-9.8s15,2.7,15,9.8
		c0,4.4-2.9,7-6.9,8.5c4.3,1.6,7.5,5.1,7.5,9.2c0,7.1-7.6,10.3-15.6,10.3C126.8,72.7,119.1,69.6,119.1,62.4z M140.6,61
		c0-2.2-3.6-3.4-5.9-3.6c-2.4,0.3-5.9,1.4-5.9,3.6c0,2,2.4,3.3,5.9,3.3C138.1,64.3,140.6,63,140.6,61z M140,46.2c0-1.9-2.1-3-5.3-3
		s-5.3,1.1-5.3,3c0,1.9,3.1,2.9,5.3,3.2C136.9,49.1,140,48.1,140,46.2z"/>
	<path fill="#FFFFFF" d="M150.3,53.7c0-9.7,5-18.9,15.7-18.9c10.7,0,15.7,9.2,15.7,18.9s-5,19-15.7,19
		C155.4,72.7,150.3,63.4,150.3,53.7z M172.2,53.7c0-6.5-1.8-10.6-6.2-10.6c-4.4,0-6.2,4.1-6.2,10.6s1.8,10.6,6.2,10.6
		C170.5,64.3,172.2,60.2,172.2,53.7z"/>
	<path fill="#FFFFFF" d="M181.9,53.7c0-9.7,5-18.9,15.7-18.9s15.7,9.2,15.7,18.9s-5,19-15.7,19S181.9,63.4,181.9,53.7z M203.8,53.7
		c0-6.5-1.8-10.6-6.2-10.6c-4.4,0-6.2,4.1-6.2,10.6s1.8,10.6,6.2,10.6C202,64.3,203.8,60.2,203.8,53.7z"/>
	<path fill="#FFFFFF" d="M49.3,120v-16.2c0-2-1-3.6-3.5-3.6c-2.3,0-4,1.5-4.8,2.6V120h-8.5v-16.2c0-2-0.9-3.6-3.5-3.6
		c-2.3,0-3.9,1.5-4.8,2.6V120h-8.5V93.5h8.5v3.2c1.2-1.5,4.6-3.9,8.7-3.9c3.8,0,6.4,1.6,7.5,4.7c1.5-2.3,5-4.7,9.2-4.7
		c4.9,0,8,2.5,8,8V120H49.3z"/>
	<path fill="#FFFFFF" d="M61.3,86.2c0-2.7,2.1-4.8,4.8-4.8s4.9,2.1,4.9,4.8c0,2.7-2.2,4.9-4.9,4.9S61.3,88.9,61.3,86.2z M61.9,120
		V93.5h8.5V120H61.9z"/>
	<path fill="#FFFFFF" d="M74.5,120V83.4H83V120H74.5z"/>
	<path fill="#FFFFFF" d="M87.1,120V83.4h8.5V120H87.1z"/>
	<path fill="#FFFFFF" d="M99.1,86.2c0-2.7,2.1-4.8,4.8-4.8s4.9,2.1,4.9,4.8c0,2.7-2.2,4.9-4.9,4.9S99.1,88.9,99.1,86.2z M99.7,120
		V93.5h8.5V120H99.7z"/>
	<path fill="#FFFFFF" d="M110.6,106.7c0-7.5,5.4-13.9,14.4-13.9c9.1,0,14.5,6.4,14.5,13.9c0,7.5-5.4,14-14.5,14
		C116,120.7,110.6,114.2,110.6,106.7z M130.8,106.7c0-3.5-2.1-6.4-5.8-6.4c-3.6,0-5.7,2.9-5.7,6.4c0,3.6,2.1,6.5,5.7,6.5
		C128.7,113.2,130.8,110.3,130.8,106.7z"/>
	<path fill="#FFFFFF" d="M159.9,120v-15.3c0-3.2-1.7-4.4-4.3-4.4c-2.5,0-4.2,1.4-5.2,2.6V120h-8.5V93.5h8.5v3.2
		c1.6-1.9,4.7-3.9,9.2-3.9c6,0,8.7,3.5,8.7,8.4V120H159.9z"/>
	<path fill="#FFFFFF" d="M170.3,116.6l3.5-6c2,1.8,6.2,3.6,9.3,3.6c2.5,0,3.6-0.7,3.6-1.9c0-3.3-15.5,0.1-15.5-10.7
		c0-4.7,4.1-8.7,11.4-8.7c4.5,0,8.2,1.4,11.1,3.5l-3.2,6c-1.6-1.5-4.6-2.9-7.8-2.9c-2,0-3.3,0.8-3.3,1.8c0,2.9,15.4-0.1,15.4,10.8
		c0,5.1-4.5,8.7-12,8.7C178,120.7,173.1,119.1,170.3,116.6z"/>
	<path fill="#FFFFFF" d="M16,153.2v-21.8h9.6v21.5c0,4.3,2.6,7.5,7.8,7.5c5.1,0,7.7-3.1,7.7-7.5v-21.5h9.6v21.8
		c0,9.1-5.5,15.6-17.3,15.6S16,162.2,16,153.2z"/>
	<path fill="#FFFFFF" d="M52.6,162.9l5-7.4c2.6,2.6,6.7,4.8,11.8,4.8c3.2,0,5.2-1.1,5.2-2.9c0-4.8-20.7-0.8-20.7-15
		c0-6.2,5.2-11.7,14.6-11.7c5.9,0,11,1.8,14.9,5.1l-5.2,7.1c-3.1-2.6-7.1-3.8-10.7-3.8c-2.8,0-4,0.9-4,2.5c0,4.5,20.7,1.1,20.7,14.7
		c0,7.4-5.4,12.3-15.3,12.3C61.5,168.7,56.3,166.3,52.6,162.9z"/>
	<path fill="#FFFFFF" d="M86.5,168v-36.7h15.4c11.5,0,19.9,6.9,19.9,18.3S113.5,168,102,168H86.5z M112.1,149.7
		c0-5.7-3.4-10.1-10.1-10.1h-6v20.2h5.9C108.4,159.8,112.1,155.1,112.1,149.7z"/>
	<path fill="#FFFFFF" d="M15.6,187v-6.3h-1.4v-2.4h1.4v-0.2c0-2.2,1.4-3.3,3.1-3.3c0.8,0,1.4,0.1,1.9,0.3l-0.5,2.1
		c-0.2-0.1-0.4-0.2-0.7-0.2c-0.5,0-0.9,0.3-0.9,1.1v0.2h1.8v2.4h-1.8v6.3H15.6z M21.1,176c0-0.9,0.7-1.6,1.6-1.6s1.6,0.7,1.6,1.6
		c0,0.9-0.7,1.6-1.6,1.6S21.1,176.9,21.1,176z M21.3,187v-8.7h2.8v8.7H21.3z"/>
	<path fill="#FFFFFF" d="M32,187v-5c0-1.1-0.6-1.4-1.4-1.4c-0.8,0-1.4,0.4-1.7,0.8v5.6h-2.8v-8.7h2.8v1.1c0.5-0.6,1.5-1.3,3-1.3
		c2,0,2.9,1.2,2.9,2.8v6.2H32z"/>
	<path fill="#FFFFFF" d="M41.9,187v-0.9c-0.5,0.6-1.6,1.1-2.7,1.1c-1.3,0-3-0.9-3-2.9c0-2.1,1.7-2.8,3-2.8c1.2,0,2.2,0.4,2.7,1v-0.9
		c0-0.8-0.6-1.3-1.8-1.3c-0.9,0-1.7,0.3-2.4,0.9l-1-1.9c1.1-1,2.6-1.3,3.9-1.3c2.1,0,4.1,0.8,4.1,3.5v5.4H41.9z M41.9,184.8V184
		c-0.3-0.4-0.9-0.6-1.5-0.6c-0.7,0-1.4,0.3-1.4,1c0,0.7,0.7,1,1.4,1C40.9,185.4,41.6,185.2,41.9,184.8z"/>
	<path fill="#FFFFFF" d="M52.6,187v-5c0-1.1-0.6-1.4-1.4-1.4c-0.8,0-1.4,0.4-1.7,0.8v5.6h-2.8v-8.7h2.8v1.1c0.5-0.6,1.5-1.3,3-1.3
		c2,0,2.9,1.2,2.9,2.8v6.2H52.6z"/>
	<path fill="#FFFFFF" d="M56.8,182.7c0-2.7,2-4.6,4.7-4.6c1.9,0,3,0.8,3.6,1.6l-1.8,1.7c-0.3-0.5-0.9-0.8-1.6-0.8
		c-1.2,0-2,0.8-2,2.1s0.9,2.1,2,2.1c0.7,0,1.3-0.4,1.6-0.8l1.8,1.7c-0.5,0.8-1.7,1.6-3.6,1.6C58.8,187.3,56.8,185.4,56.8,182.7z"/>
	<path fill="#FFFFFF" d="M65.8,182.7c0-2.5,1.9-4.6,4.6-4.6c2.6,0,4.4,1.9,4.4,4.8v0.6h-6.2c0.2,0.8,0.9,1.4,2.2,1.4
		c0.6,0,1.6-0.3,2.1-0.7l1.2,1.8c-0.9,0.8-2.3,1.2-3.6,1.2C67.8,187.3,65.8,185.5,65.8,182.7z M70.4,180.4c-1.2,0-1.7,0.7-1.8,1.3
		h3.6C72.1,181.1,71.7,180.4,70.4,180.4z"/>
	<path fill="#FFFFFF" d="M87.2,187v-5.3c0-0.7-0.3-1.2-1.2-1.2c-0.8,0-1.3,0.5-1.6,0.8v5.6h-2.8v-5.3c0-0.7-0.3-1.2-1.1-1.2
		c-0.8,0-1.3,0.5-1.6,0.8v5.6h-2.8v-8.7H79v1.1c0.4-0.5,1.5-1.3,2.9-1.3c1.3,0,2.1,0.5,2.5,1.5c0.5-0.8,1.6-1.5,3-1.5
		c1.6,0,2.6,0.8,2.6,2.6v6.3H87.2z"/>
	<path fill="#FFFFFF" d="M91.4,182.7c0-2.5,1.9-4.6,4.6-4.6c2.6,0,4.4,1.9,4.4,4.8v0.6h-6.2c0.2,0.8,0.9,1.4,2.2,1.4
		c0.6,0,1.6-0.3,2.1-0.7l1.2,1.8c-0.9,0.8-2.3,1.2-3.6,1.2C93.5,187.3,91.4,185.5,91.4,182.7z M96,180.4c-1.2,0-1.7,0.7-1.8,1.3h3.6
		C97.7,181.1,97.3,180.4,96,180.4z"/>
	<path fill="#FFFFFF" d="M107.7,187v-5c0-1.1-0.6-1.4-1.4-1.4c-0.8,0-1.4,0.4-1.7,0.8v5.6h-2.8v-8.7h2.8v1.1c0.5-0.6,1.5-1.3,3-1.3
		c2,0,2.9,1.2,2.9,2.8v6.2H107.7z"/>
	<path fill="#FFFFFF" d="M113.1,184.7v-4h-1.4v-2.4h1.4V176h2.8v2.4h1.8v2.4h-1.8v3.2c0,0.5,0.3,0.9,0.8,0.9c0.3,0,0.6-0.1,0.7-0.2
		l0.5,2.1c-0.3,0.3-1,0.6-2.1,0.6C114,187.3,113.1,186.4,113.1,184.7z"/>
	<path fill="#FFFFFF" d="M129.5,187v-5c0-1.1-0.6-1.4-1.4-1.4c-0.8,0-1.4,0.4-1.7,0.8v5.6h-2.8v-8.7h2.8v1.1c0.5-0.6,1.5-1.3,3-1.3
		c2,0,2.9,1.2,2.9,2.8v6.2H129.5z"/>
	<path fill="#FFFFFF" d="M133.7,182.7c0-2.5,1.9-4.6,4.6-4.6c2.6,0,4.4,1.9,4.4,4.8v0.6h-6.2c0.2,0.8,0.9,1.4,2.2,1.4
		c0.6,0,1.6-0.3,2.1-0.7l1.2,1.8c-0.9,0.8-2.3,1.2-3.6,1.2C135.8,187.3,133.7,185.5,133.7,182.7z M138.3,180.4
		c-1.2,0-1.7,0.7-1.8,1.3h3.6C140,181.1,139.6,180.4,138.3,180.4z M138.6,177h-1.9l2.3-2.6h2.4L138.6,177z"/>
	<path fill="#FFFFFF" d="M143.6,182.7c0-2.7,2-4.6,4.7-4.6c1.9,0,3,0.8,3.6,1.6l-1.8,1.7c-0.3-0.5-0.9-0.8-1.6-0.8
		c-1.2,0-2,0.8-2,2.1s0.9,2.1,2,2.1c0.7,0,1.3-0.4,1.6-0.8l1.8,1.7c-0.5,0.8-1.7,1.6-3.6,1.6C145.6,187.3,143.6,185.4,143.6,182.7z"
		/>
	<path fill="#FFFFFF" d="M152.6,182.7c0-2.5,1.9-4.6,4.6-4.6c2.6,0,4.4,1.9,4.4,4.8v0.6h-6.2c0.2,0.8,0.9,1.4,2.2,1.4
		c0.6,0,1.6-0.3,2.1-0.7l1.2,1.8c-0.9,0.8-2.3,1.2-3.6,1.2C154.6,187.3,152.6,185.5,152.6,182.7z M157.2,180.4
		c-1.2,0-1.7,0.7-1.8,1.3h3.6C158.9,181.1,158.5,180.4,157.2,180.4z"/>
	<path fill="#FFFFFF" d="M162.2,185.9l1.2-2c0.6,0.6,2,1.2,3.1,1.2c0.8,0,1.2-0.2,1.2-0.6c0-1.1-5.1,0-5.1-3.5
		c0-1.5,1.3-2.9,3.7-2.9c1.5,0,2.7,0.5,3.6,1.2l-1.1,2c-0.5-0.5-1.5-1-2.6-1c-0.6,0-1.1,0.3-1.1,0.6c0,1,5,0,5,3.5
		c0,1.7-1.5,2.8-3.9,2.8C164.8,187.3,163.2,186.7,162.2,185.9z"/>
	<path fill="#FFFFFF" d="M171,185.9l1.2-2c0.6,0.6,2,1.2,3.1,1.2c0.8,0,1.2-0.2,1.2-0.6c0-1.1-5.1,0-5.1-3.5c0-1.5,1.3-2.9,3.7-2.9
		c1.5,0,2.7,0.5,3.6,1.2l-1.1,2c-0.5-0.5-1.5-1-2.6-1c-0.6,0-1.1,0.3-1.1,0.6c0,1,5,0,5,3.5c0,1.7-1.5,2.8-3.9,2.8
		C173.5,187.3,171.9,186.7,171,185.9z"/>
	<path fill="#FFFFFF" d="M185.5,187v-0.9c-0.5,0.6-1.6,1.1-2.7,1.1c-1.3,0-3-0.9-3-2.9c0-2.1,1.7-2.8,3-2.8c1.2,0,2.2,0.4,2.7,1
		v-0.9c0-0.8-0.6-1.3-1.8-1.3c-0.9,0-1.7,0.3-2.4,0.9l-1-1.9c1.1-1,2.6-1.3,3.9-1.3c2.1,0,4.1,0.8,4.1,3.5v5.4H185.5z M185.5,184.8
		V184c-0.3-0.4-0.9-0.6-1.5-0.6c-0.7,0-1.4,0.3-1.4,1c0,0.7,0.7,1,1.4,1C184.6,185.4,185.3,185.2,185.5,184.8z"/>
	<path fill="#FFFFFF" d="M190.1,176c0-0.9,0.7-1.6,1.6-1.6s1.6,0.7,1.6,1.6c0,0.9-0.7,1.6-1.6,1.6S190.1,176.9,190.1,176z
		 M190.3,187v-8.7h2.8v8.7H190.3z"/>
	<path fill="#FFFFFF" d="M195.1,187v-8.7h2.8v1.1c0.6-0.7,1.7-1.3,2.7-1.3v2.7c-0.2-0.1-0.4-0.1-0.7-0.1c-0.7,0-1.7,0.3-2,0.8v5.5
		H195.1z"/>
	<path fill="#FFFFFF" d="M201.3,182.7c0-2.5,1.9-4.6,4.6-4.6c2.6,0,4.4,1.9,4.4,4.8v0.6h-6.2c0.2,0.8,0.9,1.4,2.2,1.4
		c0.6,0,1.6-0.3,2.1-0.7l1.2,1.8c-0.9,0.8-2.3,1.2-3.6,1.2C203.4,187.3,201.3,185.5,201.3,182.7z M205.9,180.4
		c-1.2,0-1.7,0.7-1.8,1.3h3.6C207.6,181.1,207.2,180.4,205.9,180.4z"/>
	<path fill="#FFFFFF" d="M13.2,201.7c0-2.5,1.9-4.6,4.6-4.6c2.6,0,4.4,1.9,4.4,4.8v0.6h-6.2c0.2,0.8,0.9,1.4,2.2,1.4
		c0.6,0,1.6-0.3,2.1-0.7l1.2,1.8c-0.9,0.8-2.3,1.2-3.6,1.2C15.2,206.3,13.2,204.5,13.2,201.7z M17.8,199.4c-1.2,0-1.7,0.7-1.8,1.3
		h3.6C19.5,200.1,19.1,199.4,17.8,199.4z"/>
	<path fill="#FFFFFF" d="M29.5,206v-5c0-1.1-0.6-1.4-1.4-1.4c-0.8,0-1.4,0.4-1.7,0.8v5.6h-2.8v-8.7h2.8v1.1c0.5-0.6,1.5-1.3,3-1.3
		c2,0,2.9,1.2,2.9,2.8v6.2H29.5z"/>
	<path fill="#FFFFFF" d="M44.8,206v-1c-0.5,0.6-1.5,1.3-3,1.3c-2,0-2.9-1.1-2.9-2.7v-6.2h2.8v5c0,1.1,0.5,1.4,1.4,1.4
		c0.8,0,1.3-0.4,1.7-0.8v-5.6h2.8v8.7H44.8z"/>
	<path fill="#FFFFFF" d="M49.6,206v-8.7h2.8v1.1c0.6-0.7,1.7-1.3,2.7-1.3v2.7c-0.2-0.1-0.4-0.1-0.7-0.1c-0.7,0-1.7,0.3-2,0.8v5.5
		H49.6z"/>
	<path fill="#FFFFFF" d="M56.1,208.3l1.2-1.9c0.7,0.7,1.6,1,2.6,1c0.9,0,2.2-0.4,2.2-2.1v-0.7c-0.7,0.9-1.6,1.3-2.6,1.3
		c-2.1,0-3.8-1.5-3.8-4.4c0-2.9,1.6-4.4,3.8-4.4c1,0,1.9,0.4,2.6,1.2v-1h2.8v7.9c0,3.5-2.8,4.3-5,4.3
		C58.4,209.6,57.2,209.2,56.1,208.3z M62.1,202.7v-2.3c-0.3-0.5-1.1-0.8-1.7-0.8c-1.1,0-1.9,0.7-1.9,1.9c0,1.3,0.8,1.9,1.9,1.9
		C61.1,203.5,61.8,203.1,62.1,202.7z"/>
	<path fill="#FFFFFF" d="M66.4,201.7c0-2.5,1.9-4.6,4.6-4.6c2.6,0,4.4,1.9,4.4,4.8v0.6h-6.2c0.2,0.8,0.9,1.4,2.2,1.4
		c0.6,0,1.6-0.3,2.1-0.7l1.2,1.8c-0.9,0.8-2.3,1.2-3.6,1.2C68.4,206.3,66.4,204.5,66.4,201.7z M71,199.4c-1.2,0-1.7,0.7-1.8,1.3h3.6
		C72.7,200.1,72.2,199.4,71,199.4z"/>
	<path fill="#FFFFFF" d="M82.7,206v-5c0-1.1-0.6-1.4-1.4-1.4c-0.8,0-1.4,0.4-1.7,0.8v5.6h-2.8v-8.7h2.8v1.1c0.5-0.6,1.5-1.3,3-1.3
		c2,0,2.9,1.2,2.9,2.8v6.2H82.7z"/>
	<path fill="#FFFFFF" d="M86.9,201.7c0-2.7,2-4.6,4.7-4.6c1.9,0,3,0.8,3.6,1.6l-1.8,1.7c-0.3-0.5-0.9-0.8-1.6-0.8
		c-1.2,0-2,0.8-2,2.1s0.9,2.1,2,2.1c0.7,0,1.3-0.4,1.6-0.8l1.8,1.7c-0.5,0.8-1.7,1.6-3.6,1.6C88.9,206.3,86.9,204.4,86.9,201.7z"/>
	<path fill="#FFFFFF" d="M95.9,201.7c0-2.5,1.9-4.6,4.6-4.6c2.6,0,4.4,1.9,4.4,4.8v0.6h-6.2c0.2,0.8,0.9,1.4,2.2,1.4
		c0.6,0,1.6-0.3,2.1-0.7l1.2,1.8c-0.9,0.8-2.3,1.2-3.6,1.2C98,206.3,95.9,204.5,95.9,201.7z M100.5,199.4c-1.2,0-1.7,0.7-1.8,1.3
		h3.6C102.2,200.1,101.8,199.4,100.5,199.4z"/>
</g>
<g>
	<path fill="#FFFFFF" d="M21.7,22.7v-4.4L20,22.7h-0.8l-1.7-4.4v4.4h-1.7v-6.7h2.4l1.4,3.7l1.4-3.7h2.4v6.7H21.7z"/>
	<path fill="#FFFFFF" d="M24.2,19.4c0-2,1.5-3.4,3.6-3.4c2,0,3.6,1.4,3.6,3.4s-1.5,3.4-3.6,3.4C25.8,22.9,24.2,21.4,24.2,19.4z
		 M29.6,19.4c0-1.1-0.7-1.9-1.8-1.9c-1.1,0-1.8,0.8-1.8,1.9c0,1.1,0.7,1.9,1.8,1.9C28.9,21.3,29.6,20.5,29.6,19.4z"/>
	<path fill="#FFFFFF" d="M36.8,22.7L34,18.9v3.9h-1.7v-6.7H34l2.7,3.7v-3.7h1.7v6.7H36.8z"/>
	<path fill="#FFFFFF" d="M41.1,22.7v-5.2h-1.9v-1.5h5.4v1.5h-1.9v5.2H41.1z"/>
	<path fill="#FFFFFF" d="M49.4,22.7l-0.3-1h-2.6l-0.3,1h-1.9l2.5-6.7h2.2l2.5,6.7H49.4z M47.8,17.8l-0.8,2.5h1.7L47.8,17.8z"/>
	<path fill="#FFFFFF" d="M56.4,22.7l-2.8-3.9v3.9h-1.7v-6.7h1.8l2.7,3.7v-3.7h1.7v6.7H56.4z"/>
	<path fill="#FFFFFF" d="M60.8,22.7v-5.2h-1.9v-1.5h5.4v1.5h-1.9v5.2H60.8z"/>
	<path fill="#FFFFFF" d="M67.7,22.7v-6.7h4.9v1.5h-3.2v1h3.1v1.5h-3.1v1.1h3.2v1.5H67.7z"/>
	<path fill="#FFFFFF" d="M73.1,21.8l0.9-1.3c0.5,0.5,1.2,0.9,2.1,0.9c0.6,0,0.9-0.2,0.9-0.5c0-0.9-3.8-0.2-3.8-2.7
		c0-1.1,0.9-2.1,2.6-2.1c1.1,0,2,0.3,2.7,0.9l-0.9,1.3c-0.6-0.5-1.3-0.7-1.9-0.7c-0.5,0-0.7,0.2-0.7,0.5c0,0.8,3.8,0.2,3.8,2.7
		c0,1.3-1,2.2-2.8,2.2C74.7,22.9,73.8,22.4,73.1,21.8z"/>
	<path fill="#FFFFFF" d="M81,22.7v-5.2h-1.9v-1.5h5.4v1.5h-1.9v5.2H81z"/>
	<path fill="#FFFFFF" d="M85.4,22.7v-6.7h1.7v6.7H85.4z"/>
	<path fill="#FFFFFF" d="M94.2,22.7v-4.4l-1.7,4.4h-0.8L90,18.3v4.4h-1.7v-6.7h2.4l1.4,3.7l1.4-3.7h2.4v6.7H94.2z"/>
	<path fill="#FFFFFF" d="M97.1,22.7v-6.7h4.9v1.5h-3.2v1h3.1v1.5h-3.1v1.1h3.2v1.5H97.1z M99.7,15.5h-1l1.3-1.4h1.4L99.7,15.5z"/>
	<path fill="#FFFFFF" d="M105.3,18.8c0-0.5,0.4-0.9,0.9-0.9s0.9,0.4,0.9,0.9s-0.4,0.9-0.9,0.9S105.3,19.3,105.3,18.8z M105.3,21.9
		c0-0.5,0.4-0.9,0.9-0.9s0.9,0.4,0.9,0.9c0,0.5-0.4,0.9-0.9,0.9S105.3,22.4,105.3,21.9z"/>
</g>
</svg>
