<?xml version="1.0" encoding="utf-8"?>
<!-- Generator: Adobe Illustrator 16.0.0, SVG Export Plug-In . SVG Version: 6.00 Build 0)  -->
<!DOCTYPE svg PUBLIC "-//W3C//DTD SVG 1.1//EN" "http://www.w3.org/Graphics/SVG/1.1/DTD/svg11.dtd">
<svg version="1.1" id="Layer_1" xmlns="http://www.w3.org/2000/svg" xmlns:xlink="http://www.w3.org/1999/xlink" x="0px" y="0px"
	 width="220px" height="135px" viewBox="0 0 220 135" enable-background="new 0 0 220 135" xml:space="preserve">
<rect fill="#008590" width="220" height="135"/>
<g>
	<path fill="#FFFFFF" d="M75.3,74.4V62.6c25.4-18.4,30.2-22.4,30.2-28.3c0-4-3.8-6.1-8.1-6.1c-6.5,0-11.4,2.5-15.7,6.4l-8.4-10
		c6.2-6.9,15.6-9.8,23.8-9.8c13.8,0,23.8,7.7,23.8,19.4c0,9.1-6.4,16.7-21,26.9h21.5v13.2H75.3z"/>
	<path fill="#FFFFFF" d="M135.4,86.9l-5.6-4.6c2.8-1.4,6.5-5.2,7.5-8.4c-0.4,0.1-1.2,0.3-2,0.3c-3.8,0-6.9-2.9-6.9-7.2
		c0-4.5,3.7-8.1,8.1-8.1c4.8,0,9,3.7,9,10.1C145.4,76.2,141.5,82.6,135.4,86.9z"/>
	<path fill="#FFFFFF" d="M149.4,45.2c0-18.7,11.4-30.4,29.1-30.4c6.9,0,13.4,2.2,17.8,5.6L189.7,32c-3.3-2.6-6.5-3.9-11.3-3.9
		c-7.2,0-13.8,5.2-13.8,13.4v0.7c2.9-3.9,8.5-6.7,14.4-6.7c10.6,0,20.3,6.8,20.3,19.3c0,12.1-9.8,20.6-23.4,20.6
		C157.4,75.4,149.4,62,149.4,45.2z M184.1,55.4c0-4.9-5-7-9.6-7c-3.7,0-7.3,1.2-9.9,4c0.4,4.8,3.3,9.7,10.4,9.7
		C180.7,62.1,184.1,58.6,184.1,55.4z"/>
</g>
<g>
	<path fill="#FFFFFF" d="M25.8,101.5v-5.1c0-0.6-0.3-1.1-1.1-1.1c-0.7,0-1.3,0.5-1.5,0.8v5.5h-2.7v-5.1c0-0.6-0.3-1.1-1.1-1.1
		c-0.7,0-1.2,0.5-1.5,0.8v5.5h-2.7v-8.5h2.7v1c0.4-0.5,1.5-1.2,2.8-1.2c1.2,0,2,0.5,2.4,1.5c0.5-0.7,1.6-1.5,2.9-1.5
		c1.6,0,2.5,0.8,2.5,2.5v6.1H25.8z"/>
	<path fill="#FFFFFF" d="M30.1,90.8c0-0.9,0.7-1.5,1.5-1.5c0.9,0,1.6,0.7,1.6,1.5s-0.7,1.6-1.6,1.6C30.8,92.3,30.1,91.6,30.1,90.8z
		 M30.3,101.5v-8.5H33v8.5H30.3z"/>
	<path fill="#FFFFFF" d="M34.8,101.5V89.9h2.7v11.7H34.8z"/>
	<path fill="#FFFFFF" d="M39.3,101.5V89.9H42v11.7H39.3z"/>
	<path fill="#FFFFFF" d="M43.6,90.8c0-0.9,0.7-1.5,1.5-1.5c0.9,0,1.6,0.7,1.6,1.5s-0.7,1.6-1.6,1.6C44.3,92.3,43.6,91.6,43.6,90.8z
		 M43.8,101.5v-8.5h2.7v8.5H43.8z"/>
	<path fill="#FFFFFF" d="M47.7,97.3c0-2.4,1.7-4.4,4.6-4.4c2.9,0,4.6,2,4.6,4.4s-1.7,4.4-4.6,4.4C49.4,101.8,47.7,99.7,47.7,97.3z
		 M54.1,97.3c0-1.1-0.7-2-1.9-2c-1.2,0-1.8,0.9-1.8,2c0,1.1,0.7,2.1,1.8,2.1C53.5,99.4,54.1,98.4,54.1,97.3z"/>
	<path fill="#FFFFFF" d="M63.9,101.5v-4.9c0-1-0.5-1.4-1.4-1.4c-0.8,0-1.3,0.4-1.6,0.8v5.5h-2.7v-8.5h2.7v1c0.5-0.6,1.5-1.2,2.9-1.2
		c1.9,0,2.8,1.1,2.8,2.7v6H63.9z"/>
	<path fill="#FFFFFF" d="M67.6,100.4l1.1-1.9c0.6,0.6,2,1.1,3,1.1c0.8,0,1.1-0.2,1.1-0.6c0-1-4.9,0-4.9-3.4c0-1.5,1.3-2.8,3.6-2.8
		c1.4,0,2.6,0.5,3.5,1.1l-1,1.9c-0.5-0.5-1.5-0.9-2.5-0.9c-0.6,0-1,0.2-1,0.6c0,0.9,4.9,0,4.9,3.4c0,1.6-1.4,2.8-3.8,2.8
		C70.1,101.8,68.5,101.2,67.6,100.4z"/>
	<path fill="#FFFFFF" d="M86.6,101.5v-1c-0.7,0.8-1.6,1.2-2.5,1.2c-2.1,0-3.7-1.6-3.7-4.4c0-2.8,1.6-4.4,3.7-4.4
		c0.9,0,1.8,0.4,2.5,1.2v-4.2h2.7v11.7H86.6z M86.6,98.6V96c-0.3-0.5-1-0.8-1.6-0.8c-1.1,0-1.9,0.8-1.9,2s0.8,2.1,1.9,2.1
		C85.6,99.4,86.3,99.1,86.6,98.6z"/>
	<path fill="#FFFFFF" d="M90.6,97.3c0-2.5,1.8-4.4,4.5-4.4c2.5,0,4.3,1.8,4.3,4.7v0.6h-6c0.2,0.8,0.9,1.4,2.1,1.4
		c0.6,0,1.6-0.3,2.1-0.7l1.2,1.8c-0.8,0.8-2.2,1.1-3.5,1.1C92.6,101.8,90.6,100.1,90.6,97.3z M95.1,95.1c-1.2,0-1.6,0.7-1.7,1.3h3.5
		C96.7,95.8,96.3,95.1,95.1,95.1z"/>
	<path fill="#FFFFFF" d="M107.5,100.5v4.2h-2.7V93.1h2.7v1c0.7-0.8,1.5-1.2,2.5-1.2c2.1,0,3.7,1.6,3.7,4.4c0,2.9-1.6,4.4-3.7,4.4
		C109.1,101.8,108.2,101.4,107.5,100.5z M111,97.3c0-1.3-0.8-2-1.9-2c-0.6,0-1.3,0.3-1.6,0.8v2.6c0.3,0.4,1,0.8,1.6,0.8
		C110.2,99.4,111,98.6,111,97.3z"/>
	<path fill="#FFFFFF" d="M114.4,97.3c0-2.5,1.8-4.4,4.5-4.4c2.5,0,4.3,1.8,4.3,4.7v0.6h-6c0.2,0.8,0.9,1.4,2.1,1.4
		c0.6,0,1.6-0.3,2.1-0.7l1.2,1.8c-0.8,0.8-2.2,1.1-3.5,1.1C116.4,101.8,114.4,100.1,114.4,97.3z M118.9,95.1c-1.2,0-1.6,0.7-1.7,1.3
		h3.5C120.6,95.8,120.2,95.1,118.9,95.1z"/>
	<path fill="#FFFFFF" d="M124.4,101.5v-8.5h2.7v1c0.6-0.7,1.6-1.3,2.6-1.3v2.6c-0.2-0.1-0.4-0.1-0.7-0.1c-0.7,0-1.6,0.3-2,0.8v5.4
		H124.4z"/>
	<path fill="#FFFFFF" d="M130.1,100.4l1.1-1.9c0.6,0.6,2,1.1,3,1.1c0.8,0,1.1-0.2,1.1-0.6c0-1-4.9,0-4.9-3.4c0-1.5,1.3-2.8,3.6-2.8
		c1.4,0,2.6,0.5,3.5,1.1l-1,1.9C136,95.4,135,95,134,95c-0.6,0-1,0.2-1,0.6c0,0.9,4.9,0,4.9,3.4c0,1.6-1.4,2.8-3.8,2.8
		C132.5,101.8,131,101.2,130.1,100.4z"/>
	<path fill="#FFFFFF" d="M138.5,97.3c0-2.4,1.7-4.4,4.6-4.4c2.9,0,4.6,2,4.6,4.4s-1.7,4.4-4.6,4.4
		C140.2,101.8,138.5,99.7,138.5,97.3z M145,97.3c0-1.1-0.7-2-1.9-2c-1.2,0-1.8,0.9-1.8,2c0,1.1,0.7,2.1,1.8,2.1
		C144.3,99.4,145,98.4,145,97.3z"/>
	<path fill="#FFFFFF" d="M154.7,101.5v-4.9c0-1-0.5-1.4-1.4-1.4c-0.8,0-1.3,0.4-1.6,0.8v5.5H149v-8.5h2.7v1c0.5-0.6,1.5-1.2,2.9-1.2
		c1.9,0,2.8,1.1,2.8,2.7v6H154.7z"/>
	<path fill="#FFFFFF" d="M164.9,101.5v-4.9c0-1-0.5-1.4-1.4-1.4c-0.8,0-1.3,0.4-1.6,0.8v5.5h-2.7v-8.5h2.7v1
		c0.5-0.6,1.5-1.2,2.9-1.2c1.9,0,2.8,1.1,2.8,2.7v6H164.9z"/>
	<path fill="#FFFFFF" d="M168.8,97.3c0-2.5,1.8-4.4,4.5-4.4c2.5,0,4.3,1.8,4.3,4.7v0.6h-6c0.2,0.8,0.9,1.4,2.1,1.4
		c0.6,0,1.6-0.3,2.1-0.7l1.2,1.8c-0.8,0.8-2.2,1.1-3.5,1.1C170.8,101.8,168.8,100.1,168.8,97.3z M173.3,95.1c-1.2,0-1.6,0.7-1.7,1.3
		h3.5C175,95.8,174.6,95.1,173.3,95.1z"/>
	<path fill="#FFFFFF" d="M178.1,100.4l1.1-1.9c0.6,0.6,2,1.1,3,1.1c0.8,0,1.1-0.2,1.1-0.6c0-1-4.9,0-4.9-3.4c0-1.5,1.3-2.8,3.6-2.8
		c1.4,0,2.6,0.5,3.5,1.1l-1,1.9C184,95.4,183,95,182,95c-0.6,0-1,0.2-1,0.6c0,0.9,4.9,0,4.9,3.4c0,1.6-1.4,2.8-3.8,2.8
		C180.5,101.8,179,101.2,178.1,100.4z"/>
	<path fill="#FFFFFF" d="M14.6,116.3c0-2.5,1.8-4.4,4.5-4.4c2.5,0,4.3,1.8,4.3,4.7v0.6h-6c0.2,0.8,0.9,1.4,2.1,1.4
		c0.6,0,1.6-0.3,2.1-0.7l1.2,1.8c-0.8,0.8-2.2,1.1-3.5,1.1C16.6,120.8,14.6,119.1,14.6,116.3z M19.1,114.1c-1.2,0-1.6,0.7-1.7,1.3
		h3.5C20.8,114.8,20.4,114.1,19.1,114.1z"/>
	<path fill="#FFFFFF" d="M29.7,120.5l-1.6-2.6l-1.7,2.6h-2.9l2.9-4.3l-2.7-4.1h3l1.5,2.3l1.4-2.3h3l-2.7,4.1l2.9,4.3H29.7z"/>
	<path fill="#FFFFFF" d="M38.4,120.5v-0.8c-0.5,0.6-1.5,1-2.6,1c-1.3,0-2.9-0.9-2.9-2.8c0-2,1.6-2.7,2.9-2.7c1.1,0,2.1,0.4,2.6,1
		v-0.8c0-0.7-0.6-1.2-1.7-1.2c-0.8,0-1.7,0.3-2.4,0.9l-1-1.9c1.1-0.9,2.5-1.3,3.8-1.3c2,0,3.9,0.8,3.9,3.4v5.3H38.4z M38.4,118.4
		v-0.8c-0.3-0.4-0.9-0.6-1.5-0.6c-0.7,0-1.3,0.3-1.3,1s0.6,1,1.3,1C37.5,119,38.1,118.8,38.4,118.4z"/>
	<path fill="#FFFFFF" d="M53.5,120.5v-5.1c0-0.6-0.3-1.1-1.1-1.1c-0.7,0-1.3,0.5-1.5,0.8v5.5h-2.7v-5.1c0-0.6-0.3-1.1-1.1-1.1
		c-0.7,0-1.2,0.5-1.5,0.8v5.5h-2.7v-8.5h2.7v1c0.4-0.5,1.5-1.2,2.8-1.2c1.2,0,2,0.5,2.4,1.5c0.5-0.7,1.6-1.5,2.9-1.5
		c1.6,0,2.5,0.8,2.5,2.5v6.1H53.5z"/>
	<path fill="#FFFFFF" d="M57.8,109.8c0-0.9,0.7-1.5,1.5-1.5c0.9,0,1.6,0.7,1.6,1.5s-0.7,1.6-1.6,1.6
		C58.5,111.3,57.8,110.6,57.8,109.8z M58,120.5v-8.5h2.7v8.5H58z"/>
	<path fill="#FFFFFF" d="M68.2,120.5v-4.9c0-1-0.5-1.4-1.4-1.4c-0.8,0-1.3,0.4-1.6,0.8v5.5h-2.7v-8.5h2.7v1c0.5-0.6,1.5-1.2,2.9-1.2
		c1.9,0,2.8,1.1,2.8,2.7v6H68.2z"/>
	<path fill="#FFFFFF" d="M72.1,116.3c0-2.5,1.8-4.4,4.5-4.4c2.5,0,4.3,1.8,4.3,4.7v0.6h-6c0.2,0.8,0.9,1.4,2.1,1.4
		c0.6,0,1.6-0.3,2.1-0.7l1.2,1.8c-0.8,0.8-2.2,1.1-3.5,1.1C74.1,120.8,72.1,119.1,72.1,116.3z M76.6,114.1c-1.2,0-1.6,0.7-1.7,1.3
		h3.5C78.3,114.8,77.9,114.1,76.6,114.1z M76.9,110.8h-1.8l2.2-2.5h2.4L76.9,110.8z"/>
	<path fill="#FFFFFF" d="M81.5,116.3c0-2.5,1.8-4.4,4.5-4.4c2.5,0,4.3,1.8,4.3,4.7v0.6h-6c0.2,0.8,0.9,1.4,2.1,1.4
		c0.6,0,1.6-0.3,2.1-0.7l1.2,1.8c-0.8,0.8-2.2,1.1-3.5,1.1C83.5,120.8,81.5,119.1,81.5,116.3z M86,114.1c-1.2,0-1.6,0.7-1.7,1.3h3.5
		C87.7,114.8,87.3,114.1,86,114.1z"/>
	<path fill="#FFFFFF" d="M90.8,119.4l1.1-1.9c0.6,0.6,2,1.1,3,1.1c0.8,0,1.1-0.2,1.1-0.6c0-1-4.9,0-4.9-3.4c0-1.5,1.3-2.8,3.6-2.8
		c1.4,0,2.6,0.5,3.5,1.1l-1,1.9c-0.5-0.5-1.5-0.9-2.5-0.9c-0.6,0-1,0.2-1,0.6c0,0.9,4.9,0,4.9,3.4c0,1.6-1.4,2.8-3.8,2.8
		C93.2,120.8,91.7,120.2,90.8,119.4z"/>
</g>
<g>
	<defs>
		<rect id="SVGID_1_" x="15.2" y="16.1" width="50.3" height="57.9"/>
	</defs>
	<clipPath id="SVGID_2_">
		<use xlink:href="#SVGID_1_"  overflow="visible"/>
	</clipPath>
	<path clip-path="url(#SVGID_2_)" fill="#FFFFFF" d="M60.2,30.4c0,1.8-0.8,3.6-2.5,5.3l-0.3,0.3L43,51.1c-3.1,3.2-5.7,5.7-7.8,7.5
		c-2.2,1.8-3.7,2.6-4.6,2.6c-0.9,0-2.1-0.4-3.5-1.3c-1.4-0.9-2.3-1.8-2.7-2.7c-0.3-0.8-0.7-2.4-1-4.9C23.2,49.7,23,47,23,44.1
		c0-1.6,0.7-3.1,2-4.4c1.3-1.4,2.8-2,4.4-2c1.5,0,2.5,1.4,2.8,4.2c0,0.3,0.1,0.6,0.1,0.7c0.2,2.2,0.5,3.7,0.9,4.5s0.8,1.3,1.3,1.3
		c0.2,0,0.7-0.3,1.3-0.8c0.6-0.5,1.4-1.2,2.3-2.1l14.8-14.7c1.2-1.2,2.4-2.2,3.3-2.8c1-0.6,1.8-1,2.5-1c0.5,0,0.9,0.2,1.1,0.6
		c0.2,0.4,0.3,1,0.3,2V30.4z M65.5,16.1H15.2V74h50.3V16.1z"/>
</g>
</svg>
