<?xml version="1.0" encoding="utf-8"?>
<!-- Generator: Adobe Illustrator 19.0.0, SVG Export Plug-In . SVG Version: 6.00 Build 0)  -->
<svg version="1.1" id="Layer_1" xmlns="http://www.w3.org/2000/svg" xmlns:xlink="http://www.w3.org/1999/xlink" x="0px" y="0px"
	 viewBox="0 0 220 141" style="enable-background:new 0 0 220 141;" xml:space="preserve">
<style type="text/css">
	.st0{fill:#008590;}
	.st1{clip-path:url(#SVGID_2_);fill:#FFFFFF;}
	.st2{clip-path:url(#SVGID_2_);fill:#008590;}
	.st3{fill:#FFFFFF;}
</style>
<rect x="0" class="st0" width="220" height="141"/>
<g>
	<defs>
		<rect id="SVGID_1_" x="4.9" y="16.1" width="57.4" height="101.6"/>
	</defs>
	<clipPath id="SVGID_2_">
		<use xlink:href="#SVGID_1_"  style="overflow:visible;"/>
	</clipPath>
	<path class="st1" d="M33.9,97.3c-6.2,0.1-11.9-1.8-16.7-4.9l2.7,25.3l29.2-0.3l2.2-25.9C46.5,95.1,40.4,97.3,33.9,97.3"/>
	<path class="st1" d="M33.4,36.2c6.5-0.1,12.5,2,17.4,5.4L48,16.1l-29.2,0.3l-2.1,25.1C21.4,38.2,27.2,36.2,33.4,36.2"/>
	<path class="st1" d="M33.9,95.5C18.1,95.6,5.1,82.9,4.9,67c-0.1-15.8,12.6-28.8,28.4-29c15.8-0.1,28.8,12.6,29,28.4
		C62.5,82.3,49.7,95.3,33.9,95.5 M33.4,41.5C19.5,41.6,8.3,53.1,8.4,67C8.5,80.9,20,92.1,33.9,92c13.9-0.1,25.1-11.6,25-25.5
		C58.8,52.6,47.3,41.4,33.4,41.5"/>
	<path class="st1" d="M33.6,66.5l-22,13c-7.2-12.1-3.1-27.8,9-35c4-2.4,8-3.5,12.7-3.5L33.6,66.5z"/>
	<path class="st2" d="M33.6,66.5l-0.2-25.5C47.5,40.8,59,52.1,59.2,66.2C59.3,80.3,48,91.9,33.9,92c-9.4,0.1-17.5-4.5-22.2-12.6
		L33.6,66.5z"/>
</g>
<g>
	<path class="st3" d="M60.1,22.1V17h2.3v5.1c0,1,0.6,1.8,1.8,1.8c1.2,0,1.8-0.7,1.8-1.8V17h2.3v5.1c0,2.2-1.3,3.7-4.1,3.7
		S60.1,24.3,60.1,22.1z"/>
	<path class="st3" d="M74.1,25.7V22c0-0.8-0.4-1-1-1c-0.6,0-1,0.3-1.2,0.6v4.1h-2v-6.3h2v0.8c0.4-0.4,1.1-0.9,2.2-0.9
		c1.4,0,2.1,0.8,2.1,2v4.4H74.1z"/>
	<path class="st3" d="M77.1,22.5c0-1.8,1.4-3.3,3.3-3.3c1.9,0,3.2,1.4,3.2,3.5v0.5h-4.5c0.1,0.6,0.7,1,1.6,1c0.4,0,1.2-0.2,1.5-0.5
		l0.9,1.3c-0.6,0.6-1.7,0.8-2.6,0.8C78.6,25.8,77.1,24.6,77.1,22.5z M80.5,20.8c-0.9,0-1.2,0.5-1.3,1h2.6
		C81.7,21.4,81.4,20.8,80.5,20.8z"/>
	<path class="st3" d="M90,24.9v3.1h-2v-8.7h2v0.7c0.5-0.6,1.1-0.9,1.9-0.9c1.6,0,2.8,1.2,2.8,3.3c0,2.1-1.2,3.3-2.8,3.3
		C91.1,25.8,90.5,25.5,90,24.9z M92.6,22.5c0-0.9-0.6-1.5-1.4-1.5c-0.4,0-0.9,0.2-1.2,0.6v1.9c0.2,0.3,0.8,0.6,1.2,0.6
		C92,24,92.6,23.5,92.6,22.5z"/>
	<path class="st3" d="M95.2,22.5c0-1.8,1.4-3.3,3.3-3.3c1.9,0,3.2,1.4,3.2,3.5v0.5h-4.5c0.1,0.6,0.7,1,1.6,1c0.4,0,1.2-0.2,1.5-0.5
		l0.9,1.3c-0.6,0.6-1.7,0.8-2.6,0.8C96.7,25.8,95.2,24.6,95.2,22.5z M98.6,20.8c-0.9,0-1.2,0.5-1.3,1h2.6
		C99.8,21.4,99.5,20.8,98.6,20.8z"/>
	<path class="st3" d="M102.8,25.7v-6.3h2v0.8c0.4-0.5,1.2-0.9,2-0.9v1.9c-0.1,0-0.3-0.1-0.5-0.1c-0.5,0-1.2,0.2-1.5,0.6v4H102.8z"/>
	<path class="st3" d="M107.1,24.8l0.8-1.4c0.5,0.4,1.5,0.8,2.2,0.8c0.6,0,0.8-0.2,0.8-0.4c0-0.8-3.7,0-3.7-2.5c0-1.1,1-2.1,2.7-2.1
		c1.1,0,1.9,0.3,2.6,0.8l-0.8,1.4c-0.4-0.4-1.1-0.7-1.8-0.7c-0.5,0-0.8,0.2-0.8,0.4c0,0.7,3.6,0,3.6,2.5c0,1.2-1.1,2.1-2.8,2.1
		C108.9,25.8,107.8,25.4,107.1,24.8z"/>
	<path class="st3" d="M113.5,22.5c0-1.8,1.3-3.3,3.4-3.3c2.2,0,3.4,1.5,3.4,3.3s-1.3,3.3-3.4,3.3C114.8,25.8,113.5,24.3,113.5,22.5z
		 M118.3,22.5c0-0.8-0.5-1.5-1.4-1.5c-0.9,0-1.4,0.7-1.4,1.5c0,0.8,0.5,1.5,1.4,1.5C117.8,24,118.3,23.4,118.3,22.5z"/>
	<path class="st3" d="M125.7,25.7V22c0-0.8-0.4-1-1-1c-0.6,0-1,0.3-1.2,0.6v4.1h-2v-6.3h2v0.8c0.4-0.4,1.1-0.9,2.2-0.9
		c1.4,0,2.1,0.8,2.1,2v4.4H125.7z"/>
	<path class="st3" d="M133.4,25.7V22c0-0.8-0.4-1-1-1c-0.6,0-1,0.3-1.2,0.6v4.1h-2v-6.3h2v0.8c0.4-0.4,1.1-0.9,2.2-0.9
		c1.4,0,2.1,0.8,2.1,2v4.4H133.4z"/>
	<path class="st3" d="M136.4,22.5c0-1.8,1.4-3.3,3.3-3.3c1.9,0,3.2,1.4,3.2,3.5v0.5h-4.5c0.1,0.6,0.7,1,1.6,1c0.4,0,1.2-0.2,1.5-0.5
		l0.9,1.3c-0.6,0.6-1.7,0.8-2.6,0.8C137.9,25.8,136.4,24.6,136.4,22.5z M139.8,20.8c-0.9,0-1.2,0.5-1.3,1h2.6
		C141,21.4,140.7,20.8,139.8,20.8z"/>
	<path class="st3" d="M146.9,22.5c0-1.8,1.4-3.3,3.3-3.3c1.9,0,3.2,1.4,3.2,3.5v0.5H149c0.1,0.6,0.7,1,1.6,1c0.4,0,1.2-0.2,1.5-0.5
		l0.9,1.3c-0.6,0.6-1.7,0.8-2.6,0.8C148.4,25.8,146.9,24.6,146.9,22.5z M150.2,20.8c-0.9,0-1.2,0.5-1.3,1h2.6
		C151.5,21.4,151.1,20.8,150.2,20.8z"/>
	<path class="st3" d="M158.2,25.7l-1.2-1.9l-1.2,1.9h-2.2l2.1-3.2l-2-3.1h2.2l1.1,1.7l1.1-1.7h2.2l-2,3.1l2.1,3.2H158.2z"/>
	<path class="st3" d="M164.8,25.7V25c-0.4,0.5-1.1,0.8-2,0.8c-1,0-2.2-0.7-2.2-2.1c0-1.5,1.2-2,2.2-2c0.8,0,1.6,0.3,2,0.7v-0.6
		c0-0.5-0.5-0.9-1.3-0.9c-0.6,0-1.2,0.2-1.8,0.7l-0.7-1.4c0.8-0.7,1.9-1,2.8-1c1.5,0,2.9,0.6,2.9,2.5v3.9H164.8z M164.8,24v-0.6
		c-0.2-0.3-0.7-0.4-1.1-0.4c-0.5,0-1,0.2-1,0.7c0,0.5,0.5,0.7,1,0.7C164.1,24.5,164.6,24.3,164.8,24z"/>
	<path class="st3" d="M176.2,25.7v-3.8c0-0.5-0.2-0.8-0.8-0.8c-0.5,0-0.9,0.4-1.1,0.6v4.1h-2v-3.8c0-0.5-0.2-0.8-0.8-0.8
		c-0.5,0-0.9,0.4-1.1,0.6v4.1h-2v-6.3h2v0.8c0.3-0.4,1.1-0.9,2.1-0.9c0.9,0,1.5,0.4,1.8,1.1c0.4-0.5,1.2-1.1,2.2-1.1
		c1.2,0,1.9,0.6,1.9,1.9v4.6H176.2z"/>
	<path class="st3" d="M179.5,17.7c0-0.6,0.5-1.1,1.1-1.1s1.2,0.5,1.2,1.1c0,0.6-0.5,1.2-1.2,1.2S179.5,18.3,179.5,17.7z M179.6,25.7
		v-6.3h2v6.3H179.6z"/>
	<path class="st3" d="M187.3,25.7V22c0-0.8-0.4-1-1-1c-0.6,0-1,0.3-1.2,0.6v4.1h-2v-6.3h2v0.8c0.4-0.4,1.1-0.9,2.2-0.9
		c1.4,0,2.1,0.8,2.1,2v4.4H187.3z"/>
	<path class="st3" d="M190.4,22.5c0-1.8,1.4-3.3,3.3-3.3c1.9,0,3.2,1.4,3.2,3.5v0.5h-4.5c0.1,0.6,0.7,1,1.6,1c0.4,0,1.2-0.2,1.5-0.5
		l0.9,1.3c-0.6,0.6-1.7,0.8-2.6,0.8C191.9,25.8,190.4,24.6,190.4,22.5z M193.7,20.8c-0.9,0-1.2,0.5-1.3,1h2.6
		C194.9,21.4,194.6,20.8,193.7,20.8z M193.9,18.4h-1.4l1.7-1.9h1.8L193.9,18.4z"/>
	<path class="st3" d="M197.5,22.5c0-1.8,1.4-3.3,3.3-3.3c1.9,0,3.2,1.4,3.2,3.5v0.5h-4.5c0.1,0.6,0.7,1,1.6,1c0.4,0,1.2-0.2,1.5-0.5
		l0.9,1.3c-0.6,0.6-1.7,0.8-2.6,0.8C199,25.8,197.5,24.6,197.5,22.5z M200.8,20.8c-0.9,0-1.2,0.5-1.3,1h2.6
		C202.1,21.4,201.7,20.8,200.8,20.8z"/>
	<path class="st3" d="M60.5,40v-2.9h-1v-1.7h1v-1.7h2v1.7h1.3v1.7h-1.3v2.3c0,0.4,0.2,0.6,0.5,0.6c0.2,0,0.4-0.1,0.5-0.2l0.4,1.5
		c-0.2,0.2-0.7,0.4-1.5,0.4C61.2,41.8,60.5,41.2,60.5,40z"/>
	<path class="st3" d="M64.4,38.5c0-1.8,1.3-3.3,3.4-3.3c2.2,0,3.4,1.5,3.4,3.3s-1.3,3.3-3.4,3.3C65.6,41.8,64.4,40.3,64.4,38.5z
		 M69.1,38.5c0-0.8-0.5-1.5-1.4-1.5c-0.9,0-1.4,0.7-1.4,1.5c0,0.8,0.5,1.5,1.4,1.5C68.6,40,69.1,39.4,69.1,38.5z"/>
	<path class="st3" d="M76.5,41.7v-0.8c-0.4,0.4-1.1,0.9-2.2,0.9c-1.4,0-2.1-0.8-2.1-2v-4.5h2V39c0,0.8,0.4,1,1,1
		c0.6,0,1-0.3,1.2-0.6v-4.1h2v6.3H76.5z"/>
	<path class="st3" d="M80.4,40v-2.9h-1v-1.7h1v-1.7h2v1.7h1.3v1.7h-1.3v2.3c0,0.4,0.2,0.6,0.5,0.6c0.2,0,0.4-0.1,0.5-0.2l0.4,1.5
		c-0.2,0.2-0.7,0.4-1.5,0.4C81,41.8,80.4,41.2,80.4,40z"/>
	<path class="st3" d="M84.2,38.5c0-1.8,1.4-3.3,3.3-3.3c1.9,0,3.2,1.4,3.2,3.5v0.5h-4.5c0.1,0.6,0.7,1,1.6,1c0.4,0,1.2-0.2,1.5-0.5
		l0.9,1.3c-0.6,0.6-1.7,0.8-2.6,0.8C85.7,41.8,84.2,40.6,84.2,38.5z M87.5,36.8c-0.9,0-1.2,0.5-1.3,1h2.6
		C88.8,37.4,88.5,36.8,87.5,36.8z"/>
	<path class="st3" d="M91.2,40.8l0.8-1.4c0.5,0.4,1.5,0.8,2.2,0.8c0.6,0,0.8-0.2,0.8-0.4c0-0.8-3.7,0-3.7-2.5c0-1.1,1-2.1,2.7-2.1
		c1.1,0,2,0.3,2.6,0.8L96,37.5c-0.4-0.4-1.1-0.7-1.8-0.7c-0.5,0-0.8,0.2-0.8,0.4c0,0.7,3.6,0,3.6,2.5c0,1.2-1.1,2.1-2.8,2.1
		C93,41.8,91.9,41.4,91.2,40.8z"/>
	<path class="st3" d="M101.4,41.7V33h2v8.7H101.4z"/>
	<path class="st3" d="M104.4,38.5c0-1.8,1.4-3.3,3.3-3.3c1.9,0,3.2,1.4,3.2,3.5v0.5h-4.5c0.1,0.6,0.7,1,1.6,1c0.4,0,1.2-0.2,1.5-0.5
		l0.9,1.3c-0.6,0.6-1.7,0.8-2.6,0.8C105.9,41.8,104.4,40.6,104.4,38.5z M107.7,36.8c-0.9,0-1.2,0.5-1.3,1h2.6
		C109,37.4,108.7,36.8,107.7,36.8z"/>
	<path class="st3" d="M111.4,40.8l0.8-1.4c0.5,0.4,1.5,0.8,2.2,0.8c0.6,0,0.8-0.2,0.8-0.4c0-0.8-3.7,0-3.7-2.5c0-1.1,1-2.1,2.7-2.1
		c1.1,0,2,0.3,2.6,0.8l-0.8,1.4c-0.4-0.4-1.1-0.7-1.8-0.7c-0.5,0-0.8,0.2-0.8,0.4c0,0.7,3.6,0,3.6,2.5c0,1.2-1.1,2.1-2.8,2.1
		C113.2,41.8,112.1,41.4,111.4,40.8z"/>
</g>
<g>
	<path class="st3" d="M107.6,107.2V96.5H79.5V84.7l22.3-36.2h21v34.7h7.1v13.3h-7.1v10.7H107.6z M107.6,61.8L94.2,83.2h13.4V61.8z"
		/>
	<path class="st3" d="M134.1,77.9c0-15.5,8-30.3,25.2-30.3s25.2,14.8,25.2,30.3s-8,30.4-25.2,30.4S134.1,93.4,134.1,77.9z
		 M169.1,77.9c0-10.4-2.8-16.9-9.9-16.9s-9.9,6.5-9.9,16.9s2.8,17,9.9,17S169.1,88.3,169.1,77.9z"/>
</g>
<g>
	<path class="st3" d="M79.5,127.7l1.9-3.3c1.1,1,3.4,1.9,5.1,1.9c1.4,0,1.9-0.4,1.9-1c0-1.8-8.4,0.1-8.4-5.8c0-2.5,2.2-4.8,6.2-4.8
		c2.5,0,4.5,0.8,6.1,1.9l-1.8,3.3c-0.9-0.8-2.5-1.6-4.3-1.6c-1.1,0-1.8,0.4-1.8,1c0,1.6,8.4-0.1,8.4,5.9c0,2.8-2.4,4.7-6.6,4.7
		C83.7,129.9,81.1,129.1,79.5,127.7z"/>
	<path class="st3" d="M94.4,122.3c0-4.2,3.1-7.6,7.7-7.6c4.3,0,7.4,3.2,7.4,8.1v1H99.1c0.3,1.3,1.5,2.4,3.6,2.4c1,0,2.7-0.5,3.5-1.2
		l2,3c-1.4,1.3-3.8,1.9-6.1,1.9C97.8,129.9,94.4,127,94.4,122.3z M102,118.4c-2,0-2.8,1.2-3,2.2h6
		C104.9,119.7,104.2,118.4,102,118.4z"/>
	<path class="st3" d="M110.8,122.3c0-4.5,3.4-7.6,7.9-7.6c3.2,0,5.1,1.4,5.9,2.7l-3,2.8c-0.6-0.8-1.5-1.4-2.7-1.4
		c-1.9,0-3.4,1.3-3.4,3.5c0,2.2,1.5,3.5,3.4,3.5c1.2,0,2.2-0.6,2.7-1.4l3,2.8c-0.9,1.3-2.8,2.7-5.9,2.7
		C114.2,129.9,110.8,126.8,110.8,122.3z"/>
	<path class="st3" d="M125.8,122.3c0-4.1,2.9-7.6,7.9-7.6c5,0,7.9,3.5,7.9,7.6s-2.9,7.6-7.9,7.6
		C128.7,129.9,125.8,126.4,125.8,122.3z M136.8,122.3c0-1.9-1.1-3.5-3.2-3.5c-2,0-3.1,1.6-3.1,3.5c0,2,1.1,3.5,3.1,3.5
		C135.7,125.8,136.8,124.3,136.8,122.3z"/>
	<path class="st3" d="M153.8,129.6v-8.4c0-1.8-0.9-2.4-2.4-2.4c-1.4,0-2.3,0.8-2.8,1.4v9.4H144v-14.5h4.6v1.8c0.9-1,2.6-2.1,5-2.1
		c3.3,0,4.8,1.9,4.8,4.6v10.3H153.8z"/>
	<path class="st3" d="M171.6,129.6v-1.7c-1.2,1.4-2.7,2-4.3,2c-3.6,0-6.4-2.7-6.4-7.6c0-4.7,2.8-7.6,6.4-7.6c1.6,0,3.1,0.6,4.3,2.1
		v-7.2h4.6v20H171.6z M171.6,124.5v-4.4c-0.6-0.8-1.8-1.3-2.8-1.3c-1.8,0-3.2,1.3-3.2,3.5s1.3,3.5,3.2,3.5
		C169.8,125.8,171,125.3,171.6,124.5z"/>
	<path class="st3" d="M178.6,122.3c0-4.2,3.1-7.6,7.7-7.6c4.3,0,7.4,3.2,7.4,8.1v1h-10.3c0.3,1.3,1.5,2.4,3.6,2.4
		c1,0,2.7-0.5,3.5-1.2l2,3c-1.4,1.3-3.8,1.9-6.1,1.9C182,129.9,178.6,127,178.6,122.3z M186.3,118.4c-2,0-2.8,1.2-3,2.2h6
		C189.2,119.7,188.4,118.4,186.3,118.4z"/>
	<path class="st3" d="M194.7,127.7l1.9-3.3c1.1,1,3.4,1.9,5.1,1.9c1.4,0,2-0.4,2-1c0-1.8-8.4,0.1-8.4-5.8c0-2.5,2.2-4.8,6.2-4.8
		c2.5,0,4.5,0.8,6.1,1.9l-1.8,3.3c-0.9-0.8-2.5-1.6-4.3-1.6c-1.1,0-1.8,0.4-1.8,1c0,1.6,8.4-0.1,8.4,5.9c0,2.8-2.4,4.7-6.6,4.7
		C198.9,129.9,196.3,129.1,194.7,127.7z"/>
</g>
</svg>
