<?xml version="1.0" encoding="utf-8"?>
<!-- Generator: Adobe Illustrator 19.0.0, SVG Export Plug-In . SVG Version: 6.00 Build 0)  -->
<svg version="1.1" id="Layer_1" xmlns="http://www.w3.org/2000/svg" xmlns:xlink="http://www.w3.org/1999/xlink" x="0px" y="0px"
	 viewBox="0 0 220 189.3" style="enable-background:new 0 0 220 189.3;" xml:space="preserve">
<style type="text/css">
	.st0{fill:#008590;}
	.st1{fill:#FFFFFF;}
</style>
<rect x="0" class="st0" width="220" height="189.3"/>
<g>
	<path class="st1" d="M22.4,24.4l-0.5-1.3h-3.7l-0.5,1.3h-2.7l3.5-9.3h3l3.5,9.3H22.4z M20.1,17.4L18.9,21h2.4L20.1,17.4z"/>
	<path class="st1" d="M29.8,24.4v-0.8c-0.4,0.5-1.2,1-2.3,1c-1.5,0-2.2-0.9-2.2-2.1v-4.8h2.2v3.9c0,0.8,0.4,1.1,1.1,1.1
		c0.6,0,1-0.3,1.3-0.7v-4.4H32v6.8H29.8z"/>
	<path class="st1" d="M36.2,21c0-2.1,1.6-3.5,3.7-3.5c1.5,0,2.4,0.6,2.8,1.2L41.2,20c-0.3-0.4-0.7-0.6-1.3-0.6
		c-0.9,0-1.6,0.6-1.6,1.6c0,1,0.7,1.7,1.6,1.7c0.6,0,1-0.3,1.3-0.7l1.4,1.3c-0.4,0.6-1.3,1.2-2.8,1.2C37.7,24.6,36.2,23.1,36.2,21z"
		/>
	<path class="st1" d="M42.9,21c0-1.9,1.4-3.5,3.7-3.5c2.3,0,3.7,1.6,3.7,3.5c0,1.9-1.4,3.6-3.7,3.6C44.2,24.6,42.9,22.9,42.9,21z
		 M48,21c0-0.9-0.5-1.6-1.5-1.6c-0.9,0-1.5,0.7-1.5,1.6c0,0.9,0.5,1.7,1.5,1.7C47.5,22.7,48,21.9,48,21z"/>
	<path class="st1" d="M55.7,24.4v-0.8c-0.4,0.5-1.2,1-2.3,1c-1.5,0-2.2-0.9-2.2-2.1v-4.8h2.2v3.9c0,0.8,0.4,1.1,1.1,1.1
		c0.6,0,1-0.3,1.3-0.7v-4.4h2.2v6.8H55.7z"/>
	<path class="st1" d="M59.1,24.4v-6.8h2.2v0.8c0.4-0.5,1.3-1,2.1-1v2.1c-0.1,0-0.3-0.1-0.5-0.1c-0.6,0-1.3,0.2-1.6,0.6v4.3H59.1z"/>
	<path class="st1" d="M63.5,23.5l0.9-1.5c0.5,0.4,1.6,0.9,2.4,0.9c0.6,0,0.9-0.2,0.9-0.5c0-0.8-3.9,0-3.9-2.7c0-1.2,1-2.2,2.9-2.2
		c1.1,0,2.1,0.4,2.8,0.9l-0.8,1.5c-0.4-0.4-1.2-0.7-2-0.7c-0.5,0-0.8,0.2-0.8,0.5c0,0.7,3.9,0,3.9,2.7c0,1.3-1.1,2.2-3.1,2.2
		C65.5,24.6,64.2,24.2,63.5,23.5z"/>
	<path class="st1" d="M78.4,24.4v-0.8c-0.6,0.6-1.2,1-2,1c-1.7,0-3-1.3-3-3.6c0-2.2,1.3-3.5,3-3.5c0.7,0,1.5,0.3,2,1v-3.4h2.1v9.3
		H78.4z M78.4,22V20c-0.3-0.4-0.8-0.6-1.3-0.6c-0.9,0-1.5,0.6-1.5,1.6c0,1,0.6,1.7,1.5,1.7C77.6,22.7,78.1,22.4,78.4,22z"/>
	<path class="st1" d="M81.4,21c0-2,1.5-3.5,3.6-3.5c2,0,3.5,1.5,3.5,3.8v0.5h-4.8c0.2,0.6,0.7,1.1,1.7,1.1c0.5,0,1.3-0.2,1.7-0.6
		l0.9,1.4c-0.7,0.6-1.8,0.9-2.8,0.9C83,24.6,81.4,23.2,81.4,21z M85,19.2c-0.9,0-1.3,0.6-1.4,1.1h2.8C86.4,19.8,86,19.2,85,19.2z"/>
	<path class="st1" d="M88.7,23.5l0.9-1.5c0.5,0.4,1.6,0.9,2.4,0.9c0.6,0,0.9-0.2,0.9-0.5c0-0.8-3.9,0-3.9-2.7c0-1.2,1-2.2,2.9-2.2
		c1.1,0,2.1,0.4,2.8,0.9l-0.8,1.5c-0.4-0.4-1.2-0.7-2-0.7c-0.5,0-0.8,0.2-0.8,0.5c0,0.7,3.9,0,3.9,2.7c0,1.3-1.1,2.2-3.1,2.2
		C90.6,24.6,89.4,24.2,88.7,23.5z"/>
	<path class="st1" d="M98.6,21c0-2.3,1.3-3.5,3-3.5c0.8,0,1.5,0.3,2,1v-0.8h2.2V27h-2.2v-3.4c-0.6,0.7-1.2,1-2,1
		C99.9,24.6,98.6,23.3,98.6,21z M103.6,22V20c-0.3-0.4-0.8-0.6-1.3-0.6c-0.9,0-1.5,0.6-1.5,1.6c0,1,0.6,1.7,1.5,1.7
		C102.8,22.7,103.3,22.4,103.6,22z"/>
	<path class="st1" d="M111.6,24.4v-0.8c-0.4,0.5-1.2,1-2.3,1c-1.5,0-2.2-0.9-2.2-2.1v-4.8h2.2v3.9c0,0.8,0.4,1.1,1.1,1.1
		c0.6,0,1-0.3,1.3-0.7v-4.4h2.2v6.8H111.6z"/>
	<path class="st1" d="M119,24.4v-0.7c-0.4,0.5-1.2,0.8-2.1,0.8c-1,0-2.3-0.7-2.3-2.2c0-1.6,1.3-2.2,2.3-2.2c0.9,0,1.7,0.3,2.1,0.8
		v-0.7c0-0.6-0.5-1-1.4-1c-0.7,0-1.3,0.3-1.9,0.7l-0.8-1.5c0.9-0.7,2-1.1,3.1-1.1c1.6,0,3.2,0.6,3.2,2.7v4.2H119z M119,22.7v-0.6
		c-0.2-0.3-0.7-0.5-1.2-0.5c-0.6,0-1.1,0.3-1.1,0.8s0.5,0.8,1.1,0.8C118.3,23.2,118.8,23,119,22.7z"/>
	<path class="st1" d="M122.9,22.6v-3.1h-1.1v-1.9h1.1v-1.8h2.2v1.8h1.4v1.9h-1.4V22c0,0.4,0.2,0.7,0.6,0.7c0.2,0,0.5-0.1,0.5-0.2
		l0.4,1.6c-0.3,0.3-0.8,0.4-1.6,0.4C123.7,24.6,122.9,23.9,122.9,22.6z"/>
	<path class="st1" d="M127.2,24.4v-6.8h2.2v0.8c0.4-0.5,1.3-1,2.1-1v2.1c-0.1,0-0.3-0.1-0.5-0.1c-0.6,0-1.3,0.2-1.6,0.6v4.3H127.2z"
		/>
	<path class="st1" d="M131.8,21c0-2,1.5-3.5,3.6-3.5c2,0,3.5,1.5,3.5,3.8v0.5H134c0.2,0.6,0.7,1.1,1.7,1.1c0.5,0,1.3-0.2,1.7-0.6
		l0.9,1.4c-0.7,0.6-1.8,0.9-2.8,0.9C133.4,24.6,131.8,23.2,131.8,21z M135.3,19.2c-0.9,0-1.3,0.6-1.4,1.1h2.8
		C136.7,19.8,136.3,19.2,135.3,19.2z"/>
	<path class="st1" d="M145,23.6V27h-2.2v-9.3h2.2v0.8c0.5-0.6,1.2-1,2-1c1.7,0,3,1.3,3,3.5c0,2.3-1.3,3.6-3,3.6
		C146.3,24.6,145.6,24.3,145,23.6z M147.8,21c0-1-0.6-1.6-1.5-1.6c-0.5,0-1,0.3-1.3,0.6V22c0.3,0.4,0.8,0.6,1.3,0.6
		C147.2,22.7,147.8,22,147.8,21z"/>
	<path class="st1" d="M150.9,24.4v-6.8h2.2v0.8c0.4-0.5,1.3-1,2.1-1v2.1c-0.1,0-0.3-0.1-0.5-0.1c-0.6,0-1.3,0.2-1.6,0.6v4.3H150.9z"
		/>
	<path class="st1" d="M155.4,21c0-1.9,1.4-3.5,3.7-3.5c2.3,0,3.7,1.6,3.7,3.5c0,1.9-1.4,3.6-3.7,3.6C156.8,24.6,155.4,22.9,155.4,21
		z M160.5,21c0-0.9-0.5-1.6-1.5-1.6c-0.9,0-1.5,0.7-1.5,1.6c0,0.9,0.5,1.7,1.5,1.7C160,22.7,160.5,21.9,160.5,21z"/>
	<path class="st1" d="M163.2,21c0-2.1,1.6-3.5,3.7-3.5c1.5,0,2.4,0.6,2.8,1.2l-1.4,1.3c-0.3-0.4-0.7-0.6-1.3-0.6
		c-0.9,0-1.6,0.6-1.6,1.6c0,1,0.7,1.7,1.6,1.7c0.6,0,1-0.3,1.3-0.7l1.4,1.3c-0.4,0.6-1.3,1.2-2.8,1.2
		C164.7,24.6,163.2,23.1,163.2,21z"/>
	<path class="st1" d="M174.9,24.4v-3.9c0-0.8-0.4-1.1-1.1-1.1c-0.6,0-1,0.4-1.3,0.7v4.4h-2.2v-9.3h2.2v3.4c0.4-0.5,1.2-1,2.3-1
		c1.5,0,2.2,0.9,2.2,2.1v4.8H174.9z"/>
	<path class="st1" d="M182.4,24.4v-0.7c-0.4,0.5-1.2,0.8-2.1,0.8c-1,0-2.3-0.7-2.3-2.2c0-1.6,1.3-2.2,2.3-2.2c0.9,0,1.7,0.3,2.1,0.8
		v-0.7c0-0.6-0.5-1-1.4-1c-0.7,0-1.3,0.3-1.9,0.7l-0.8-1.5c0.9-0.7,2-1.1,3.1-1.1c1.6,0,3.2,0.6,3.2,2.7v4.2H182.4z M182.4,22.7
		v-0.6c-0.2-0.3-0.7-0.5-1.2-0.5c-0.6,0-1.1,0.3-1.1,0.8s0.5,0.8,1.1,0.8C181.6,23.2,182.1,23,182.4,22.7z"/>
	<path class="st1" d="M185.6,15.8c0-0.7,0.5-1.2,1.2-1.2s1.2,0.5,1.2,1.2c0,0.7-0.6,1.2-1.2,1.2S185.6,16.5,185.6,15.8z M185.8,24.4
		v-6.8h2.2v6.8H185.8z"/>
	<path class="st1" d="M193.8,24.4v-3.9c0-0.8-0.4-1.1-1.1-1.1c-0.6,0-1.1,0.4-1.3,0.7v4.4h-2.2v-6.8h2.2v0.8c0.4-0.5,1.2-1,2.4-1
		c1.5,0,2.2,0.9,2.2,2.1v4.8H193.8z"/>
	<path class="st1" d="M196.8,21c0-2,1.5-3.5,3.6-3.5c2,0,3.5,1.5,3.5,3.8v0.5h-4.8c0.2,0.6,0.7,1.1,1.7,1.1c0.5,0,1.3-0.2,1.7-0.6
		l0.9,1.4c-0.7,0.6-1.8,0.9-2.8,0.9C198.4,24.6,196.8,23.2,196.8,21z M200.4,19.2c-0.9,0-1.3,0.6-1.4,1.1h2.8
		C201.8,19.8,201.4,19.2,200.4,19.2z"/>
	<path class="st1" d="M204.1,23.5L205,22c0.5,0.4,1.6,0.9,2.4,0.9c0.6,0,0.9-0.2,0.9-0.5c0-0.8-3.9,0-3.9-2.7c0-1.2,1-2.2,2.9-2.2
		c1.1,0,2.1,0.4,2.8,0.9l-0.8,1.5c-0.4-0.4-1.2-0.7-2-0.7c-0.5,0-0.8,0.2-0.8,0.5c0,0.7,3.9,0,3.9,2.7c0,1.3-1.1,2.2-3.1,2.2
		C206,24.6,204.8,24.2,204.1,23.5z"/>
	<path class="st1" d="M20,38.4v-0.7c-0.4,0.5-1.2,0.8-2.1,0.8c-1,0-2.3-0.7-2.3-2.2c0-1.6,1.3-2.2,2.3-2.2c0.9,0,1.7,0.3,2.1,0.8
		v-0.7c0-0.6-0.5-1-1.4-1c-0.7,0-1.3,0.3-1.9,0.7l-0.8-1.5c0.9-0.7,2-1.1,3.1-1.1c1.6,0,3.2,0.6,3.2,2.7v4.2H20z M20,36.7v-0.6
		c-0.2-0.3-0.7-0.5-1.2-0.5c-0.6,0-1.1,0.3-1.1,0.8s0.5,0.8,1.1,0.8C19.3,37.2,19.8,37,20,36.7z"/>
	<path class="st1" d="M28,38.4v-3.9c0-0.8-0.4-1.1-1.1-1.1c-0.6,0-1.1,0.4-1.3,0.7v4.4h-2.2v-6.8h2.2v0.8c0.4-0.5,1.2-1,2.4-1
		c1.5,0,2.2,0.9,2.2,2.1v4.8H28z"/>
	<path class="st1" d="M36,38.4v-3.9c0-0.8-0.4-1.1-1.1-1.1c-0.6,0-1.1,0.4-1.3,0.7v4.4h-2.2v-6.8h2.2v0.8c0.4-0.5,1.2-1,2.4-1
		c1.5,0,2.2,0.9,2.2,2.1v4.8H36z"/>
	<path class="st1" d="M39,35c0-2,1.5-3.5,3.6-3.5c2,0,3.5,1.5,3.5,3.8v0.5h-4.8c0.2,0.6,0.7,1.1,1.7,1.1c0.5,0,1.3-0.2,1.7-0.6
		l0.9,1.4c-0.7,0.6-1.8,0.9-2.8,0.9C40.6,38.6,39,37.2,39,35z M42.6,33.2c-0.9,0-1.3,0.6-1.4,1.1H44C44,33.8,43.6,33.2,42.6,33.2z
		 M42.9,30.6h-1.5l1.8-2h1.9L42.9,30.6z"/>
	<path class="st1" d="M46.4,35c0-2,1.5-3.5,3.6-3.5c2,0,3.5,1.5,3.5,3.8v0.5h-4.8c0.2,0.6,0.7,1.1,1.7,1.1c0.5,0,1.3-0.2,1.7-0.6
		l0.9,1.4c-0.7,0.6-1.8,0.9-2.8,0.9C48,38.6,46.4,37.2,46.4,35z M50,33.2c-0.9,0-1.3,0.6-1.4,1.1h2.8C51.4,33.8,51,33.2,50,33.2z"/>
	<path class="st1" d="M53.7,37.5l0.9-1.5c0.5,0.4,1.6,0.9,2.4,0.9c0.6,0,0.9-0.2,0.9-0.5c0-0.8-3.9,0-3.9-2.7c0-1.2,1-2.2,2.9-2.2
		c1.1,0,2.1,0.4,2.8,0.9l-0.8,1.5c-0.4-0.4-1.2-0.7-2-0.7c-0.5,0-0.8,0.2-0.8,0.5c0,0.7,3.9,0,3.9,2.7c0,1.3-1.1,2.2-3.1,2.2
		C55.6,38.6,54.4,38.2,53.7,37.5z"/>
	<path class="st1" d="M61.6,40.4l-0.9-0.7c0.4-0.2,1-0.8,1.2-1.3c-0.1,0-0.2,0-0.3,0c-0.6,0-1.1-0.5-1.1-1.1c0-0.7,0.6-1.3,1.3-1.3
		c0.8,0,1.4,0.6,1.4,1.6C63.2,38.7,62.6,39.7,61.6,40.4z"/>
	<path class="st1" d="M18.4,95.4v-9.6c20.8-15,24.7-18.4,24.7-23.2c0-3.2-3.1-5-6.6-5c-5.3,0-9.4,2-12.8,5.3l-6.8-8.2
		c5.1-5.6,12.7-8,19.4-8c11.3,0,19.4,6.3,19.4,15.9c0,7.4-5.3,13.7-17.2,22H56v10.8H18.4z"/>
	<path class="st1" d="M66.1,105.6l-4.6-3.7c2.3-1.2,5.3-4.2,6.1-6.8c-0.3,0.1-1,0.2-1.7,0.2c-3.1,0-5.6-2.4-5.6-5.9
		c0-3.7,3-6.6,6.6-6.6c3.9,0,7.3,3,7.3,8.3C74.3,96.9,71.2,102.1,66.1,105.6z"/>
	<path class="st1" d="M99.9,95.4v-8.8h-23V77l18.2-29.6h17.2v28.4h5.8v10.9h-5.8v8.8H99.9z M99.9,58.2L88.9,75.7h10.9V58.2z"/>
	<path class="st1" d="M142.8,95.4v-8.8h-23V77L138,47.4h17.2v28.4h5.8v10.9h-5.8v8.8H142.8z M142.8,58.2l-10.9,17.6h10.9V58.2z"/>
	<path class="st1" d="M163,71.4c0-12.7,6.6-24.8,20.6-24.8s20.6,12.1,20.6,24.8s-6.6,24.8-20.6,24.8S163,84.1,163,71.4z M191.7,71.4
		c0-8.5-2.3-13.8-8.1-13.8s-8.1,5.3-8.1,13.8s2.3,13.9,8.1,13.9S191.7,79.9,191.7,71.4z"/>
	<path class="st1" d="M16,118.1c0-4.2,3.1-7.6,7.7-7.6c4.3,0,7.4,3.2,7.4,8.1v1H20.7c0.3,1.3,1.5,2.4,3.6,2.4c1,0,2.7-0.4,3.5-1.2
		l2,3c-1.4,1.3-3.8,1.9-6.1,1.9C19.4,125.8,16,122.9,16,118.1z M23.6,114.3c-2,0-2.8,1.2-3,2.2h6C26.5,115.5,25.8,114.3,23.6,114.3z
		 M24.1,108.7H21l3.8-4.3h4.1L24.1,108.7z"/>
	<path class="st1" d="M34.3,121.5v-6.6h-2.4v-4h2.4v-4h4.6v4h2.9v4h-2.9v5.3c0,0.8,0.5,1.5,1.3,1.5c0.5,0,1-0.2,1.2-0.4l0.9,3.5
		c-0.6,0.5-1.7,1-3.4,1C35.9,125.8,34.3,124.3,34.3,121.5z"/>
	<path class="st1" d="M53.9,125.4v-1.7c-0.9,1-2.5,2.1-5,2.1c-3.3,0-4.8-1.9-4.8-4.5v-10.3h4.6v8.4c0,1.8,0.9,2.4,2.4,2.4
		c1.3,0,2.2-0.7,2.8-1.4v-9.4h4.6v14.5H53.9z"/>
	<path class="st1" d="M71.6,125.4v-1.7c-1.2,1.4-2.7,2-4.3,2c-3.6,0-6.4-2.7-6.4-7.6c0-4.7,2.8-7.6,6.4-7.6c1.6,0,3.1,0.6,4.3,2.1
		v-7.2h4.6v20H71.6z M71.6,120.4v-4.4c-0.6-0.8-1.8-1.3-2.8-1.3c-1.8,0-3.2,1.3-3.2,3.5s1.3,3.5,3.2,3.5
		C69.8,121.7,71,121.1,71.6,120.4z"/>
	<path class="st1" d="M78.7,118.1c0-4.2,3.1-7.6,7.7-7.6c4.3,0,7.4,3.2,7.4,8.1v1H83.5c0.3,1.3,1.5,2.4,3.6,2.4c1,0,2.7-0.4,3.5-1.2
		l2,3c-1.4,1.3-3.8,1.9-6.1,1.9C82.1,125.8,78.7,122.9,78.7,118.1z M86.4,114.3c-2,0-2.8,1.2-3,2.2h6
		C89.2,115.5,88.5,114.3,86.4,114.3z"/>
	<path class="st1" d="M94.8,123.5l1.9-3.3c1.1,1,3.4,1.9,5.1,1.9c1.4,0,1.9-0.4,1.9-1c0-1.8-8.4,0.1-8.4-5.8c0-2.6,2.2-4.8,6.2-4.8
		c2.5,0,4.5,0.8,6.1,1.9l-1.8,3.3c-0.9-0.8-2.5-1.6-4.3-1.6c-1.1,0-1.8,0.4-1.8,1c0,1.6,8.4-0.1,8.4,5.9c0,2.8-2.4,4.7-6.6,4.7
		C99,125.8,96.4,124.9,94.8,123.5z"/>
	<path class="st1" d="M15.4,146.5l0.9-1.5c0.5,0.4,1.6,0.9,2.4,0.9c0.6,0,0.9-0.2,0.9-0.5c0-0.8-3.9,0-3.9-2.7c0-1.2,1-2.2,2.9-2.2
		c1.1,0,2.1,0.4,2.8,0.9l-0.8,1.5c-0.4-0.4-1.2-0.7-2-0.7c-0.5,0-0.8,0.2-0.8,0.5c0,0.7,3.9,0,3.9,2.7c0,1.3-1.1,2.2-3.1,2.2
		C17.4,147.6,16.1,147.2,15.4,146.5z"/>
	<path class="st1" d="M22.1,144c0-2,1.5-3.5,3.6-3.5c2,0,3.5,1.5,3.5,3.8v0.5h-4.8c0.2,0.6,0.7,1.1,1.7,1.1c0.5,0,1.3-0.2,1.7-0.6
		l0.9,1.4c-0.7,0.6-1.8,0.9-2.8,0.9C23.7,147.6,22.1,146.2,22.1,144z M25.6,142.2c-0.9,0-1.3,0.6-1.4,1.1H27
		C27,142.8,26.6,142.2,25.6,142.2z"/>
	<path class="st1" d="M29.9,147.4v-6.8H32v0.8c0.4-0.5,1.3-1,2.1-1v2.1c-0.1,0-0.3-0.1-0.5-0.1c-0.6,0-1.3,0.2-1.6,0.6v4.3H29.9z"/>
	<path class="st1" d="M34.4,144c0-1.9,1.4-3.5,3.7-3.5c2.3,0,3.7,1.6,3.7,3.5s-1.4,3.6-3.7,3.6C35.8,147.6,34.4,145.9,34.4,144z
		 M39.6,144c0-0.9-0.5-1.6-1.5-1.6c-0.9,0-1.5,0.7-1.5,1.6c0,0.9,0.5,1.7,1.5,1.7C39,145.7,39.6,144.9,39.6,144z"/>
	<path class="st1" d="M47.2,147.4v-3.9c0-0.8-0.4-1.1-1.1-1.1c-0.6,0-1.1,0.3-1.3,0.7v4.4h-2.2v-6.8h2.2v0.8c0.4-0.5,1.2-1,2.4-1
		c1.5,0,2.2,0.9,2.2,2.1v4.8H47.2z"/>
	<path class="st1" d="M51.1,145.6v-3.1H50v-1.9h1.1v-1.8h2.2v1.8h1.4v1.9h-1.4v2.5c0,0.4,0.2,0.7,0.6,0.7c0.2,0,0.5-0.1,0.5-0.2
		l0.4,1.6c-0.3,0.3-0.8,0.4-1.6,0.4C51.8,147.6,51.1,146.9,51.1,145.6z"/>
	<path class="st1" d="M63.3,147.4v-3.9c0-0.8-0.4-1.1-1.1-1.1c-0.6,0-1.1,0.3-1.3,0.7v4.4h-2.2v-6.8h2.2v0.8c0.4-0.5,1.2-1,2.4-1
		c1.5,0,2.2,0.9,2.2,2.1v4.8H63.3z"/>
	<path class="st1" d="M66.3,144c0-2,1.5-3.5,3.6-3.5c2,0,3.5,1.5,3.5,3.8v0.5h-4.8c0.2,0.6,0.7,1.1,1.7,1.1c0.5,0,1.3-0.2,1.7-0.6
		l0.9,1.4c-0.7,0.6-1.8,0.9-2.8,0.9C67.9,147.6,66.3,146.2,66.3,144z M69.9,142.2c-0.9,0-1.3,0.6-1.4,1.1h2.8
		C71.2,142.8,70.9,142.2,69.9,142.2z M70.1,139.6h-1.5l1.8-2h1.9L70.1,139.6z"/>
	<path class="st1" d="M73.7,144c0-2.1,1.6-3.5,3.7-3.5c1.5,0,2.4,0.6,2.8,1.2l-1.4,1.3c-0.3-0.4-0.7-0.6-1.3-0.6
		c-0.9,0-1.6,0.6-1.6,1.6s0.7,1.7,1.6,1.7c0.6,0,1-0.3,1.3-0.7l1.4,1.3c-0.4,0.6-1.3,1.2-2.8,1.2C75.3,147.6,73.7,146.1,73.7,144z"
		/>
	<path class="st1" d="M80.4,144c0-2,1.5-3.5,3.6-3.5c2,0,3.5,1.5,3.5,3.8v0.5h-4.8c0.2,0.6,0.7,1.1,1.7,1.1c0.5,0,1.3-0.2,1.7-0.6
		l0.9,1.4c-0.7,0.6-1.8,0.9-2.8,0.9C82,147.6,80.4,146.2,80.4,144z M84,142.2c-0.9,0-1.3,0.6-1.4,1.1h2.8
		C85.4,142.8,85,142.2,84,142.2z"/>
	<path class="st1" d="M87.7,146.5l0.9-1.5c0.5,0.4,1.6,0.9,2.4,0.9c0.6,0,0.9-0.2,0.9-0.5c0-0.8-3.9,0-3.9-2.7c0-1.2,1-2.2,2.9-2.2
		c1.1,0,2.1,0.4,2.8,0.9l-0.8,1.5c-0.4-0.4-1.2-0.7-2-0.7c-0.5,0-0.8,0.2-0.8,0.5c0,0.7,3.9,0,3.9,2.7c0,1.3-1.1,2.2-3.1,2.2
		C89.6,147.6,88.4,147.2,87.7,146.5z"/>
	<path class="st1" d="M94.2,146.5l0.9-1.5c0.5,0.4,1.6,0.9,2.4,0.9c0.6,0,0.9-0.2,0.9-0.5c0-0.8-3.9,0-3.9-2.7c0-1.2,1-2.2,2.9-2.2
		c1.1,0,2.1,0.4,2.8,0.9l-0.8,1.5c-0.4-0.4-1.2-0.7-2-0.7c-0.5,0-0.8,0.2-0.8,0.5c0,0.7,3.9,0,3.9,2.7c0,1.3-1.1,2.2-3.1,2.2
		C96.1,147.6,94.9,147.2,94.2,146.5z"/>
	<path class="st1" d="M105.2,147.4v-0.7c-0.4,0.5-1.2,0.8-2.1,0.8c-1,0-2.3-0.7-2.3-2.2c0-1.6,1.3-2.2,2.3-2.2
		c0.9,0,1.7,0.3,2.1,0.8v-0.7c0-0.6-0.5-1-1.4-1c-0.7,0-1.3,0.3-1.9,0.7l-0.8-1.5c0.9-0.7,2-1.1,3.1-1.1c1.6,0,3.2,0.6,3.2,2.7v4.2
		H105.2z M105.2,145.7v-0.6c-0.2-0.3-0.7-0.5-1.2-0.5c-0.6,0-1.1,0.3-1.1,0.8s0.5,0.8,1.1,0.8C104.5,146.2,105,146,105.2,145.7z"/>
	<path class="st1" d="M108.5,138.8c0-0.7,0.5-1.2,1.2-1.2c0.7,0,1.2,0.5,1.2,1.2c0,0.7-0.6,1.2-1.2,1.2
		C109.1,140,108.5,139.5,108.5,138.8z M108.7,147.4v-6.8h2.2v6.8H108.7z"/>
	<path class="st1" d="M112.1,147.4v-6.8h2.2v0.8c0.4-0.5,1.3-1,2.1-1v2.1c-0.1,0-0.3-0.1-0.5-0.1c-0.6,0-1.3,0.2-1.6,0.6v4.3H112.1z
		"/>
	<path class="st1" d="M116.7,144c0-2,1.5-3.5,3.6-3.5c2,0,3.5,1.5,3.5,3.8v0.5h-4.8c0.2,0.6,0.7,1.1,1.7,1.1c0.5,0,1.3-0.2,1.7-0.6
		l0.9,1.4c-0.7,0.6-1.8,0.9-2.8,0.9C118.2,147.6,116.7,146.2,116.7,144z M120.2,142.2c-0.9,0-1.3,0.6-1.4,1.1h2.8
		C121.6,142.8,121.2,142.2,120.2,142.2z"/>
	<path class="st1" d="M123.9,146.5l0.9-1.5c0.5,0.4,1.6,0.9,2.4,0.9c0.6,0,0.9-0.2,0.9-0.5c0-0.8-3.9,0-3.9-2.7c0-1.2,1-2.2,2.9-2.2
		c1.1,0,2.1,0.4,2.8,0.9l-0.8,1.5c-0.4-0.4-1.2-0.7-2-0.7c-0.5,0-0.8,0.2-0.8,0.5c0,0.7,3.9,0,3.9,2.7c0,1.3-1.1,2.2-3.1,2.2
		C125.9,147.6,124.6,147.2,123.9,146.5z"/>
	<path class="st1" d="M138.8,147.4v-0.8c-0.6,0.6-1.2,1-2,1c-1.7,0-3-1.3-3-3.6c0-2.2,1.3-3.5,3-3.5c0.7,0,1.5,0.3,2,1v-3.4h2.1v9.3
		H138.8z M138.8,145V143c-0.3-0.4-0.8-0.6-1.3-0.6c-0.9,0-1.5,0.6-1.5,1.6s0.6,1.7,1.5,1.7C138,145.7,138.6,145.4,138.8,145z"/>
	<path class="st1" d="M146.3,147.4v-0.7c-0.4,0.5-1.2,0.8-2.1,0.8c-1,0-2.3-0.7-2.3-2.2c0-1.6,1.3-2.2,2.3-2.2
		c0.9,0,1.7,0.3,2.1,0.8v-0.7c0-0.6-0.5-1-1.4-1c-0.7,0-1.3,0.3-1.9,0.7l-0.8-1.5c0.9-0.7,2-1.1,3.1-1.1c1.6,0,3.2,0.6,3.2,2.7v4.2
		H146.3z M146.3,145.7v-0.6c-0.2-0.3-0.7-0.5-1.2-0.5c-0.6,0-1.1,0.3-1.1,0.8s0.5,0.8,1.1,0.8C145.5,146.2,146,146,146.3,145.7z"/>
	<path class="st1" d="M154.3,147.4v-3.9c0-0.8-0.4-1.1-1.1-1.1c-0.6,0-1.1,0.3-1.3,0.7v4.4h-2.2v-6.8h2.2v0.8c0.4-0.5,1.2-1,2.4-1
		c1.5,0,2.2,0.9,2.2,2.1v4.8H154.3z"/>
	<path class="st1" d="M157.2,146.5l0.9-1.5c0.5,0.4,1.6,0.9,2.4,0.9c0.6,0,0.9-0.2,0.9-0.5c0-0.8-3.9,0-3.9-2.7c0-1.2,1-2.2,2.9-2.2
		c1.1,0,2.1,0.4,2.8,0.9l-0.8,1.5c-0.4-0.4-1.2-0.7-2-0.7c-0.5,0-0.8,0.2-0.8,0.5c0,0.7,3.9,0,3.9,2.7c0,1.3-1.1,2.2-3.1,2.2
		C159.1,147.6,157.9,147.2,157.2,146.5z"/>
	<path class="st1" d="M172.1,147.4v-0.8c-0.6,0.6-1.2,1-2,1c-1.7,0-3-1.3-3-3.6c0-2.2,1.3-3.5,3-3.5c0.7,0,1.5,0.3,2,1v-3.4h2.1v9.3
		H172.1z M172.1,145V143c-0.3-0.4-0.8-0.6-1.3-0.6c-0.9,0-1.5,0.6-1.5,1.6s0.6,1.7,1.5,1.7C171.2,145.7,171.8,145.4,172.1,145z"/>
	<path class="st1" d="M175.1,144c0-2,1.5-3.5,3.6-3.5c2,0,3.5,1.5,3.5,3.8v0.5h-4.8c0.2,0.6,0.7,1.1,1.7,1.1c0.5,0,1.3-0.2,1.7-0.6
		l0.9,1.4c-0.7,0.6-1.8,0.9-2.8,0.9C176.7,147.6,175.1,146.2,175.1,144z M178.7,142.2c-0.9,0-1.3,0.6-1.4,1.1h2.8
		C180,142.8,179.7,142.2,178.7,142.2z"/>
	<path class="st1" d="M182.3,146.5l0.9-1.5c0.5,0.4,1.6,0.9,2.4,0.9c0.6,0,0.9-0.2,0.9-0.5c0-0.8-3.9,0-3.9-2.7c0-1.2,1-2.2,2.9-2.2
		c1.1,0,2.1,0.4,2.8,0.9l-0.8,1.5c-0.4-0.4-1.2-0.7-2-0.7c-0.5,0-0.8,0.2-0.8,0.5c0,0.7,3.9,0,3.9,2.7c0,1.3-1.1,2.2-3.1,2.2
		C184.3,147.6,183.1,147.2,182.3,146.5z"/>
	<path class="st1" d="M20.5,161.4v-0.8c-0.6,0.6-1.2,1-2,1c-1.7,0-3-1.3-3-3.6c0-2.2,1.3-3.5,3-3.5c0.7,0,1.5,0.3,2,1v-3.4h2.1v9.3
		H20.5z M20.5,159V157c-0.3-0.4-0.8-0.6-1.3-0.6c-0.9,0-1.5,0.6-1.5,1.6s0.6,1.7,1.5,1.7C19.7,159.7,20.3,159.4,20.5,159z"/>
	<path class="st1" d="M23.8,152.8c0-0.7,0.5-1.2,1.2-1.2c0.7,0,1.2,0.5,1.2,1.2c0,0.7-0.6,1.2-1.2,1.2
		C24.4,154,23.8,153.5,23.8,152.8z M24,161.4v-6.8h2.2v6.8H24z"/>
	<path class="st1" d="M26.9,160.5l0.9-1.5c0.5,0.4,1.6,0.9,2.4,0.9c0.6,0,0.9-0.2,0.9-0.5c0-0.8-3.9,0-3.9-2.7c0-1.2,1-2.2,2.9-2.2
		c1.1,0,2.1,0.4,2.8,0.9l-0.8,1.5c-0.4-0.4-1.2-0.7-2-0.7c-0.5,0-0.8,0.2-0.8,0.5c0,0.7,3.9,0,3.9,2.7c0,1.3-1.1,2.2-3.1,2.2
		C28.8,161.6,27.6,161.2,26.9,160.5z"/>
	<path class="st1" d="M34.4,159.6v-3.1h-1.1v-1.9h1.1v-1.8h2.2v1.8h1.4v1.9h-1.4v2.5c0,0.4,0.2,0.7,0.6,0.7c0.2,0,0.5-0.1,0.5-0.2
		l0.4,1.6c-0.3,0.3-0.8,0.4-1.6,0.4C35.1,161.6,34.4,160.9,34.4,159.6z"/>
	<path class="st1" d="M38.7,161.4v-6.8h2.2v0.8c0.4-0.5,1.3-1,2.1-1v2.1c-0.1,0-0.3-0.1-0.5-0.1c-0.6,0-1.3,0.2-1.6,0.6v4.3H38.7z"
		/>
	<path class="st1" d="M43.5,152.8c0-0.7,0.5-1.2,1.2-1.2c0.7,0,1.2,0.5,1.2,1.2c0,0.7-0.6,1.2-1.2,1.2
		C44.1,154,43.5,153.5,43.5,152.8z M43.7,161.4v-6.8h2.2v6.8H43.7z"/>
	<path class="st1" d="M46.7,158c0-2.1,1.6-3.5,3.7-3.5c1.5,0,2.4,0.6,2.8,1.2l-1.4,1.3c-0.3-0.4-0.7-0.6-1.3-0.6
		c-0.9,0-1.6,0.6-1.6,1.6s0.7,1.7,1.6,1.7c0.6,0,1-0.3,1.3-0.7l1.4,1.3c-0.4,0.6-1.3,1.2-2.8,1.2C48.2,161.6,46.7,160.1,46.7,158z"
		/>
	<path class="st1" d="M54.3,159.6v-3.1h-1.1v-1.9h1.1v-1.8h2.2v1.8h1.4v1.9h-1.4v2.5c0,0.4,0.2,0.7,0.6,0.7c0.2,0,0.5-0.1,0.5-0.2
		l0.4,1.6c-0.3,0.3-0.8,0.4-1.6,0.4C55,161.6,54.3,160.9,54.3,159.6z"/>
	<path class="st1" d="M58,160.5l0.9-1.5c0.5,0.4,1.6,0.9,2.4,0.9c0.6,0,0.9-0.2,0.9-0.5c0-0.8-3.9,0-3.9-2.7c0-1.2,1-2.2,2.9-2.2
		c1.1,0,2.1,0.4,2.8,0.9l-0.8,1.5c-0.4-0.4-1.2-0.7-2-0.7c-0.5,0-0.8,0.2-0.8,0.5c0,0.7,3.9,0,3.9,2.7c0,1.3-1.1,2.2-3.1,2.2
		C60,161.6,58.7,161.2,58,160.5z"/>
	<path class="st1" d="M70.5,160.6v3.4h-2.2v-9.3h2.2v0.8c0.5-0.6,1.2-1,2-1c1.7,0,3,1.3,3,3.5c0,2.3-1.3,3.6-3,3.6
		C71.8,161.6,71.1,161.3,70.5,160.6z M73.3,158c0-1-0.6-1.6-1.5-1.6c-0.5,0-1,0.3-1.3,0.6v2.1c0.3,0.4,0.8,0.6,1.3,0.6
		C72.7,159.7,73.3,159,73.3,158z"/>
	<path class="st1" d="M80.3,161.4v-0.7c-0.4,0.5-1.2,0.8-2.1,0.8c-1,0-2.3-0.7-2.3-2.2c0-1.6,1.3-2.2,2.3-2.2c0.9,0,1.7,0.3,2.1,0.8
		v-0.7c0-0.6-0.5-1-1.4-1c-0.7,0-1.3,0.3-1.9,0.7l-0.8-1.5c0.9-0.7,2-1.1,3.1-1.1c1.6,0,3.2,0.6,3.2,2.7v4.2H80.3z M80.3,159.7v-0.6
		c-0.2-0.3-0.7-0.5-1.2-0.5c-0.6,0-1.1,0.3-1.1,0.8s0.5,0.8,1.1,0.8C79.6,160.2,80.1,160,80.3,159.7z"/>
	<path class="st1" d="M83.8,161.4v-6.8h2.2v0.8c0.4-0.5,1.3-1,2.1-1v2.1c-0.1,0-0.3-0.1-0.5-0.1c-0.6,0-1.3,0.2-1.6,0.6v4.3H83.8z"
		/>
	<path class="st1" d="M89.2,159.6v-3.1h-1.1v-1.9h1.1v-1.8h2.2v1.8h1.4v1.9h-1.4v2.5c0,0.4,0.2,0.7,0.6,0.7c0.2,0,0.5-0.1,0.5-0.2
		l0.4,1.6c-0.3,0.3-0.8,0.4-1.6,0.4C89.9,161.6,89.2,160.9,89.2,159.6z"/>
	<path class="st1" d="M93.4,152.8c0-0.7,0.5-1.2,1.2-1.2c0.7,0,1.2,0.5,1.2,1.2c0,0.7-0.6,1.2-1.2,1.2
		C93.9,154,93.4,153.5,93.4,152.8z M93.5,161.4v-6.8h2.2v6.8H93.5z"/>
	<path class="st1" d="M96.5,158c0-2.1,1.6-3.5,3.7-3.5c1.5,0,2.4,0.6,2.8,1.2l-1.4,1.3c-0.3-0.4-0.7-0.6-1.3-0.6
		c-0.9,0-1.6,0.6-1.6,1.6s0.7,1.7,1.6,1.7c0.6,0,1-0.3,1.3-0.7l1.4,1.3c-0.4,0.6-1.3,1.2-2.8,1.2C98.1,161.6,96.5,160.1,96.5,158z"
		/>
	<path class="st1" d="M103.5,152.8c0-0.7,0.5-1.2,1.2-1.2c0.7,0,1.2,0.5,1.2,1.2c0,0.7-0.6,1.2-1.2,1.2
		C104.1,154,103.5,153.5,103.5,152.8z M103.7,161.4v-6.8h2.2v6.8H103.7z"/>
	<path class="st1" d="M109.3,160.6v3.4h-2.2v-9.3h2.2v0.8c0.5-0.6,1.2-1,2-1c1.7,0,3,1.3,3,3.5c0,2.3-1.3,3.6-3,3.6
		C110.5,161.6,109.8,161.3,109.3,160.6z M112,158c0-1-0.6-1.6-1.5-1.6c-0.5,0-1,0.3-1.3,0.6v2.1c0.3,0.4,0.8,0.6,1.3,0.6
		C111.4,159.7,112,159,112,158z"/>
	<path class="st1" d="M119.1,161.4v-0.7c-0.4,0.5-1.2,0.8-2.1,0.8c-1,0-2.3-0.7-2.3-2.2c0-1.6,1.3-2.2,2.3-2.2
		c0.9,0,1.7,0.3,2.1,0.8v-0.7c0-0.6-0.5-1-1.4-1c-0.7,0-1.3,0.3-1.9,0.7l-0.8-1.5c0.9-0.7,2-1.1,3.1-1.1c1.6,0,3.2,0.6,3.2,2.7v4.2
		H119.1z M119.1,159.7v-0.6c-0.2-0.3-0.7-0.5-1.2-0.5c-0.6,0-1.1,0.3-1.1,0.8s0.5,0.8,1.1,0.8C118.3,160.2,118.9,160,119.1,159.7z"
		/>
	<path class="st1" d="M127.1,161.4v-3.9c0-0.8-0.4-1.1-1.1-1.1c-0.6,0-1.1,0.3-1.3,0.7v4.4h-2.2v-6.8h2.2v0.8c0.4-0.5,1.2-1,2.4-1
		c1.5,0,2.2,0.9,2.2,2.1v4.8H127.1z"/>
	<path class="st1" d="M131,159.6v-3.1h-1.1v-1.9h1.1v-1.8h2.2v1.8h1.4v1.9h-1.4v2.5c0,0.4,0.2,0.7,0.6,0.7c0.2,0,0.5-0.1,0.5-0.2
		l0.4,1.6c-0.3,0.3-0.8,0.4-1.6,0.4C131.7,161.6,131,160.9,131,159.6z"/>
	<path class="st1" d="M143.2,161.4v-0.8c-0.6,0.6-1.2,1-2,1c-1.7,0-3-1.3-3-3.6c0-2.2,1.3-3.5,3-3.5c0.7,0,1.5,0.3,2,1v-3.4h2.1v9.3
		H143.2z M143.2,159V157c-0.3-0.4-0.8-0.6-1.3-0.6c-0.9,0-1.5,0.6-1.5,1.6s0.6,1.7,1.5,1.7C142.3,159.7,142.9,159.4,143.2,159z"/>
	<path class="st1" d="M146.2,158c0-2,1.5-3.5,3.6-3.5c2,0,3.5,1.5,3.5,3.8v0.5h-4.8c0.2,0.6,0.7,1.1,1.7,1.1c0.5,0,1.3-0.2,1.7-0.6
		l0.9,1.4c-0.7,0.6-1.8,0.9-2.8,0.9C147.8,161.6,146.2,160.2,146.2,158z M149.7,156.2c-0.9,0-1.3,0.6-1.4,1.1h2.8
		C151.1,156.8,150.7,156.2,149.7,156.2z M150,153.6h-1.5l1.8-2h1.9L150,153.6z"/>
	<path class="st1" d="M151.7,163.7l0.5-1.6c0.3,0.2,0.5,0.3,0.9,0.3c0.5,0,0.8-0.3,0.8-1.1v-6.7h2.2v6.7c0,1.6-0.8,2.8-2.6,2.8
		C152.6,164.1,152.3,164,151.7,163.7z M153.8,152.8c0-0.7,0.5-1.2,1.2-1.2s1.2,0.5,1.2,1.2c0,0.7-0.6,1.2-1.2,1.2
		S153.8,153.5,153.8,152.8z"/>
	<path class="st1" d="M161.4,161.4v-0.7c-0.4,0.5-1.2,0.8-2.1,0.8c-1,0-2.3-0.7-2.3-2.2c0-1.6,1.3-2.2,2.3-2.2
		c0.9,0,1.7,0.3,2.1,0.8v-0.7c0-0.6-0.5-1-1.4-1c-0.7,0-1.3,0.3-1.9,0.7l-0.8-1.5c0.9-0.7,2-1.1,3.1-1.1c1.6,0,3.2,0.6,3.2,2.7v4.2
		H161.4z M160.2,153.6l-2.2-2h1.9l1.8,2H160.2z M161.4,159.7v-0.6c-0.2-0.3-0.7-0.5-1.2-0.5c-0.6,0-1.1,0.3-1.1,0.8s0.5,0.8,1.1,0.8
		C160.7,160.2,161.2,160,161.4,159.7z"/>
	<path class="st1" d="M172.2,161.4v-0.7c-0.4,0.5-1.2,0.8-2.1,0.8c-1,0-2.3-0.7-2.3-2.2c0-1.6,1.3-2.2,2.3-2.2
		c0.9,0,1.7,0.3,2.1,0.8v-0.7c0-0.6-0.5-1-1.4-1c-0.7,0-1.3,0.3-1.9,0.7l-0.8-1.5c0.9-0.7,2-1.1,3.1-1.1c1.6,0,3.2,0.6,3.2,2.7v4.2
		H172.2z M172.2,159.7v-0.6c-0.2-0.3-0.7-0.5-1.2-0.5c-0.6,0-1.1,0.3-1.1,0.8s0.5,0.8,1.1,0.8C171.4,160.2,171.9,160,172.2,159.7z"
		/>
	<path class="st1" d="M180.2,161.4v-0.8c-0.4,0.5-1.2,1-2.3,1c-1.5,0-2.2-0.9-2.2-2.1v-4.8h2.2v3.9c0,0.8,0.4,1.1,1.1,1.1
		c0.6,0,1-0.3,1.3-0.7v-4.4h2.2v6.8H180.2z"/>
	<path class="st1" d="M18.2,174.6v3.4H16v-9.3h2.2v0.8c0.5-0.6,1.2-1,2-1c1.7,0,3,1.3,3,3.5c0,2.3-1.3,3.6-3,3.6
		C19.4,175.6,18.7,175.3,18.2,174.6z M20.9,172c0-1-0.6-1.6-1.5-1.6c-0.5,0-1,0.3-1.3,0.6v2.1c0.3,0.4,0.8,0.6,1.3,0.6
		C20.3,173.7,20.9,173,20.9,172z"/>
	<path class="st1" d="M24,175.4v-6.8h2.2v0.8c0.4-0.5,1.3-1,2.1-1v2.1c-0.1,0-0.3-0.1-0.5-0.1c-0.6,0-1.3,0.2-1.6,0.6v4.3H24z"/>
	<path class="st1" d="M28.5,172c0-1.9,1.4-3.5,3.7-3.5c2.3,0,3.7,1.6,3.7,3.5s-1.4,3.6-3.7,3.6C29.9,175.6,28.5,173.9,28.5,172z
		 M33.7,172c0-0.9-0.5-1.6-1.5-1.6c-0.9,0-1.5,0.7-1.5,1.6c0,0.9,0.5,1.7,1.5,1.7C33.1,173.7,33.7,172.9,33.7,172z"/>
	<path class="st1" d="M36.5,177.1l0.9-1.5c0.5,0.6,1.3,0.8,2.1,0.8c0.7,0,1.7-0.3,1.7-1.6v-0.5c-0.6,0.7-1.2,1-2,1
		c-1.7,0-3-1.1-3-3.4c0-2.2,1.3-3.4,3-3.4c0.8,0,1.5,0.3,2,1v-0.8h2.2v6.2c0,2.7-2.2,3.3-3.9,3.3C38.4,178.1,37.4,177.9,36.5,177.1z
		 M41.3,172.8V171c-0.3-0.4-0.8-0.6-1.3-0.6c-0.9,0-1.5,0.5-1.5,1.5c0,1,0.6,1.5,1.5,1.5C40.4,173.4,41,173.1,41.3,172.8z"/>
	<path class="st1" d="M44.7,175.4v-6.8h2.2v0.8c0.4-0.5,1.3-1,2.1-1v2.1c-0.1,0-0.3-0.1-0.5-0.1c-0.6,0-1.3,0.2-1.6,0.6v4.3H44.7z"
		/>
	<path class="st1" d="M53.7,175.4v-0.7c-0.4,0.5-1.2,0.8-2.1,0.8c-1,0-2.3-0.7-2.3-2.2c0-1.6,1.3-2.2,2.3-2.2c0.9,0,1.7,0.3,2.1,0.8
		v-0.7c0-0.6-0.5-1-1.4-1c-0.7,0-1.3,0.3-1.9,0.7l-0.8-1.5c0.9-0.7,2-1.1,3.1-1.1c1.6,0,3.2,0.6,3.2,2.7v4.2H53.7z M53.7,173.7v-0.6
		c-0.2-0.3-0.7-0.5-1.2-0.5c-0.6,0-1.1,0.3-1.1,0.8s0.5,0.8,1.1,0.8C52.9,174.2,53.4,174,53.7,173.7z"/>
	<path class="st1" d="M65.6,175.4v-4.1c0-0.5-0.3-0.9-0.9-0.9c-0.6,0-1,0.4-1.2,0.7v4.4h-2.2v-4.1c0-0.5-0.2-0.9-0.9-0.9
		c-0.6,0-1,0.4-1.2,0.7v4.4h-2.2v-6.8h2.2v0.8c0.3-0.4,1.2-1,2.2-1c1,0,1.6,0.4,1.9,1.2c0.4-0.6,1.3-1.2,2.3-1.2c1.2,0,2,0.6,2,2
		v4.9H65.6z"/>
	<path class="st1" d="M77.6,175.4v-4.1c0-0.5-0.3-0.9-0.9-0.9c-0.6,0-1,0.4-1.2,0.7v4.4h-2.2v-4.1c0-0.5-0.2-0.9-0.9-0.9
		c-0.6,0-1,0.4-1.2,0.7v4.4h-2.2v-6.8h2.2v0.8c0.3-0.4,1.2-1,2.2-1c1,0,1.6,0.4,1.9,1.2c0.4-0.6,1.3-1.2,2.3-1.2c1.2,0,2,0.6,2,2
		v4.9H77.6z"/>
	<path class="st1" d="M80.6,172c0-2,1.5-3.5,3.6-3.5c2,0,3.5,1.5,3.5,3.8v0.5h-4.8c0.2,0.6,0.7,1.1,1.7,1.1c0.5,0,1.3-0.2,1.7-0.6
		l0.9,1.4c-0.7,0.6-1.8,0.9-2.8,0.9C82.2,175.6,80.6,174.2,80.6,172z M84.2,170.2c-0.9,0-1.3,0.6-1.4,1.1h2.8
		C85.5,170.8,85.2,170.2,84.2,170.2z"/>
	<path class="st1" d="M96.3,175.4v-0.8c-0.6,0.6-1.2,1-2,1c-1.7,0-3-1.3-3-3.6c0-2.2,1.3-3.5,3-3.5c0.7,0,1.5,0.3,2,1v-3.4h2.1v9.3
		H96.3z M96.3,173V171c-0.3-0.4-0.8-0.6-1.3-0.6c-0.9,0-1.5,0.6-1.5,1.6s0.6,1.7,1.5,1.7C95.4,173.7,96,173.4,96.3,173z"/>
	<path class="st1" d="M99.3,172c0-2,1.5-3.5,3.6-3.5c2,0,3.5,1.5,3.5,3.8v0.5h-4.8c0.2,0.6,0.7,1.1,1.7,1.1c0.5,0,1.3-0.2,1.7-0.6
		l0.9,1.4c-0.7,0.6-1.8,0.9-2.8,0.9C100.9,175.6,99.3,174.2,99.3,172z M102.9,170.2c-0.9,0-1.3,0.6-1.4,1.1h2.8
		C104.2,170.8,103.9,170.2,102.9,170.2z"/>
	<path class="st1" d="M115,175.4v-0.8c-0.6,0.6-1.2,1-2,1c-1.7,0-3-1.3-3-3.6c0-2.2,1.3-3.5,3-3.5c0.7,0,1.5,0.3,2,1v-3.4h2.1v9.3
		H115z M115,173V171c-0.3-0.4-0.8-0.6-1.3-0.6c-0.9,0-1.5,0.6-1.5,1.6s0.6,1.7,1.5,1.7C114.1,173.7,114.7,173.4,115,173z"/>
	<path class="st1" d="M118,172c0-1.9,1.4-3.5,3.7-3.5c2.3,0,3.7,1.6,3.7,3.5s-1.4,3.6-3.7,3.6C119.4,175.6,118,173.9,118,172z
		 M123.1,172c0-0.9-0.5-1.6-1.5-1.6c-0.9,0-1.5,0.7-1.5,1.6c0,0.9,0.5,1.7,1.5,1.7C122.6,173.7,123.1,172.9,123.1,172z"/>
	<path class="st1" d="M130.8,175.4v-3.9c0-0.8-0.4-1.1-1.1-1.1c-0.6,0-1.1,0.3-1.3,0.7v4.4h-2.2v-6.8h2.2v0.8c0.4-0.5,1.2-1,2.4-1
		c1.5,0,2.2,0.9,2.2,2.1v4.8H130.8z"/>
</g>
</svg>
