<?xml version="1.0" encoding="utf-8"?>
<!-- Generator: Adobe Illustrator 19.0.0, SVG Export Plug-In . SVG Version: 6.00 Build 0)  -->
<svg version="1.1" id="Layer_1" xmlns="http://www.w3.org/2000/svg" xmlns:xlink="http://www.w3.org/1999/xlink" x="0px" y="0px"
	 viewBox="0 0 220 159.9" style="enable-background:new 0 0 220 159.9;" xml:space="preserve">
<style type="text/css">
	.st0{fill:#259AD6;}
	.st1{fill:#FFFFFF;}
</style>
<rect x="0" class="st0" width="220" height="159.9"/>
<g>
	<path class="st1" d="M15.5,19.4c0-2.1,1.6-3.4,3.6-3.4c1.6,0,2.5,0.9,2.9,1.8l-1.5,0.7c-0.2-0.5-0.8-1-1.4-1
		c-1.1,0-1.9,0.8-1.9,1.9c0,1.1,0.8,1.9,1.9,1.9c0.6,0,1.2-0.4,1.4-1l1.5,0.7c-0.4,0.8-1.3,1.8-2.9,1.8C17,22.9,15.5,21.5,15.5,19.4
		z"/>
	<path class="st1" d="M22.7,22.7v-6.7h1.7v6.7H22.7z"/>
	<path class="st1" d="M25.6,22.7v-6.7h3.8c1.3,0,1.9,0.9,1.9,1.7c0,0.8-0.5,1.4-1.1,1.5c0.7,0.1,1.3,0.8,1.3,1.6c0,1-0.6,1.8-2,1.8
		H25.6z M29.6,18.1c0-0.3-0.2-0.5-0.6-0.5h-1.7v1H29C29.4,18.6,29.6,18.4,29.6,18.1z M29.8,20.7c0-0.3-0.2-0.6-0.7-0.6h-1.7v1.1h1.7
		C29.5,21.2,29.8,21,29.8,20.7z"/>
	<path class="st1" d="M32.4,22.7v-6.7h1.7v5.2h2.7v1.5H32.4z"/>
	<path class="st1" d="M37.7,22.7v-6.7h4.9v1.5h-3.2v1h3.1v1.5h-3.1v1.1h3.2v1.5H37.7z"/>
	<path class="st1" d="M45.9,18.8c0-0.5,0.4-0.9,0.9-0.9s0.9,0.4,0.9,0.9s-0.4,0.9-0.9,0.9S45.9,19.3,45.9,18.8z M45.9,21.9
		c0-0.5,0.4-0.9,0.9-0.9s0.9,0.4,0.9,0.9c0,0.5-0.4,0.9-0.9,0.9S45.9,22.4,45.9,21.9z"/>
	<path class="st1" d="M18.9,87.7V76.6c24-17.3,28.5-21.2,28.5-26.7c0-3.7-3.6-5.7-7.6-5.7c-6.1,0-10.8,2.3-14.8,6.1L17,40.8
		c5.9-6.5,14.7-9.2,22.4-9.2c13,0,22.4,7.3,22.4,18.3c0,8.5-6.1,15.8-19.8,25.4h20.2v12.4H18.9z"/>
	<path class="st1" d="M63.2,60.1c0-14.6,7.6-28.5,23.7-28.5s23.7,13.9,23.7,28.5c0,14.6-7.6,28.6-23.7,28.6S63.2,74.7,63.2,60.1z
		 M96.2,60.1c0-9.8-2.7-15.9-9.3-15.9c-6.6,0-9.3,6.1-9.3,15.9c0,9.8,2.7,16,9.3,16C93.6,76.1,96.2,69.9,96.2,60.1z"/>
	<path class="st1" d="M111.9,87.7V76.6c24-17.3,28.5-21.2,28.5-26.7c0-3.7-3.6-5.7-7.6-5.7c-6.1,0-10.8,2.3-14.8,6.1l-7.9-9.5
		c5.9-6.5,14.7-9.2,22.4-9.2c13,0,22.4,7.3,22.4,18.3c0,8.5-6.1,15.8-19.8,25.4h20.2v12.4H111.9z"/>
	<path class="st1" d="M156.2,60.1c0-14.6,7.6-28.5,23.7-28.5s23.7,13.9,23.7,28.5c0,14.6-7.6,28.6-23.7,28.6S156.2,74.7,156.2,60.1z
		 M189.3,60.1c0-9.8-2.7-15.9-9.3-15.9s-9.3,6.1-9.3,15.9c0,9.8,2.7,16,9.3,16S189.3,69.9,189.3,60.1z"/>
	<path class="st1" d="M15.7,102.4c0-2.5,1.9-4.6,4.6-4.6c2.6,0,4.4,1.9,4.4,4.8v0.6h-6.2c0.2,0.8,0.9,1.4,2.2,1.4
		c0.6,0,1.6-0.3,2.1-0.7l1.2,1.8c-0.9,0.8-2.3,1.2-3.6,1.2C17.7,106.9,15.7,105.2,15.7,102.4z M20.3,100.1c-1.2,0-1.7,0.7-1.8,1.4
		h3.6C22,100.8,21.5,100.1,20.3,100.1z M20.6,96.7h-1.9l2.3-2.6h2.4L20.6,96.7z"/>
	<path class="st1" d="M26.1,106.7v-12h2.8v12H26.1z"/>
	<path class="st1" d="M30.7,95.7c0-0.9,0.7-1.6,1.6-1.6c0.9,0,1.6,0.7,1.6,1.6c0,0.9-0.7,1.6-1.6,1.6C31.4,97.3,30.7,96.5,30.7,95.7
		z M30.9,106.7V98h2.8v8.7H30.9z"/>
	<path class="st1" d="M46.6,106.7v-5.3c0-0.7-0.3-1.2-1.2-1.2c-0.8,0-1.3,0.5-1.6,0.8v5.6h-2.8v-5.3c0-0.7-0.3-1.2-1.1-1.2
		c-0.8,0-1.3,0.5-1.6,0.8v5.6h-2.8V98h2.8v1.1c0.4-0.5,1.5-1.3,2.9-1.3c1.3,0,2.1,0.5,2.5,1.5c0.5-0.8,1.6-1.5,3-1.5
		c1.6,0,2.6,0.8,2.6,2.6v6.3H46.6z"/>
	<path class="st1" d="M51.2,95.7c0-0.9,0.7-1.6,1.6-1.6c0.9,0,1.6,0.7,1.6,1.6c0,0.9-0.7,1.6-1.6,1.6C51.9,97.3,51.2,96.5,51.2,95.7
		z M51.4,106.7V98h2.8v8.7H51.4z"/>
	<path class="st1" d="M62.1,106.7v-5c0-1.1-0.6-1.4-1.4-1.4c-0.8,0-1.4,0.5-1.7,0.8v5.6h-2.8V98H59v1.1c0.5-0.6,1.5-1.3,3-1.3
		c2,0,2.9,1.2,2.9,2.8v6.2H62.1z"/>
	<path class="st1" d="M72,106.7v-0.9c-0.5,0.6-1.6,1.1-2.7,1.1c-1.3,0-3-0.9-3-2.9c0-2.1,1.7-2.8,3-2.8c1.2,0,2.2,0.4,2.7,1v-0.9
		c0-0.8-0.6-1.3-1.8-1.3c-0.9,0-1.7,0.3-2.4,0.9l-1-1.9c1.1-1,2.6-1.4,3.9-1.4c2.1,0,4.1,0.8,4.1,3.5v5.4H72z M72,104.5v-0.8
		c-0.3-0.4-0.9-0.6-1.5-0.6c-0.7,0-1.4,0.3-1.4,1c0,0.7,0.7,1,1.4,1C71.1,105.1,71.7,104.9,72,104.5z"/>
	<path class="st1" d="M77.4,104.4v-4h-1.4V98h1.4v-2.4h2.8V98h1.8v2.4h-1.8v3.2c0,0.5,0.3,0.9,0.8,0.9c0.3,0,0.6-0.1,0.7-0.2
		l0.5,2.1c-0.3,0.3-1,0.6-2.1,0.6C78.3,106.9,77.4,106.1,77.4,104.4z"/>
	<path class="st1" d="M83.1,95.7c0-0.9,0.7-1.6,1.6-1.6c0.9,0,1.6,0.7,1.6,1.6c0,0.9-0.7,1.6-1.6,1.6C83.8,97.3,83.1,96.5,83.1,95.7
		z M83.3,106.7V98H86v8.7H83.3z"/>
	<path class="st1" d="M87.5,102.4c0-2.4,1.8-4.6,4.7-4.6c3,0,4.8,2.1,4.8,4.6c0,2.4-1.8,4.6-4.8,4.6
		C89.3,106.9,87.5,104.8,87.5,102.4z M94.1,102.4c0-1.2-0.7-2.1-1.9-2.1c-1.2,0-1.9,1-1.9,2.1c0,1.2,0.7,2.1,1.9,2.1
		C93.4,104.5,94.1,103.5,94.1,102.4z"/>
	<path class="st1" d="M104.3,106.7v-5c0-1.1-0.6-1.4-1.4-1.4c-0.8,0-1.4,0.5-1.7,0.8v5.6h-2.8V98h2.8v1.1c0.5-0.6,1.5-1.3,3-1.3
		c2,0,2.9,1.2,2.9,2.8v6.2H104.3z"/>
	<path class="st1" d="M113.1,102.4c0-2.5,1.9-4.6,4.6-4.6c2.6,0,4.4,1.9,4.4,4.8v0.6H116c0.2,0.8,0.9,1.4,2.2,1.4
		c0.6,0,1.6-0.3,2.1-0.7l1.2,1.8c-0.9,0.8-2.3,1.2-3.6,1.2C115.2,106.9,113.1,105.2,113.1,102.4z M117.8,100.1
		c-1.2,0-1.7,0.7-1.8,1.4h3.6C119.5,100.8,119,100.1,117.8,100.1z"/>
	<path class="st1" d="M129.5,106.7v-5c0-1.1-0.6-1.4-1.4-1.4c-0.8,0-1.4,0.5-1.7,0.8v5.6h-2.8V98h2.8v1.1c0.5-0.6,1.5-1.3,3-1.3
		c2,0,2.9,1.2,2.9,2.8v6.2H129.5z"/>
	<path class="st1" d="M139.4,104.4v-4H138V98h1.4v-2.4h2.8V98h1.8v2.4h-1.8v3.2c0,0.5,0.3,0.9,0.8,0.9c0.3,0,0.6-0.1,0.7-0.2
		l0.5,2.1c-0.3,0.3-1,0.6-2.1,0.6C140.4,106.9,139.4,106.1,139.4,104.4z"/>
	<path class="st1" d="M150.5,106.7v-0.9c-0.5,0.6-1.6,1.1-2.7,1.1c-1.3,0-3-0.9-3-2.9c0-2.1,1.7-2.8,3-2.8c1.2,0,2.2,0.4,2.7,1v-0.9
		c0-0.8-0.6-1.3-1.8-1.3c-0.9,0-1.7,0.3-2.4,0.9l-1-1.9c1.1-1,2.6-1.4,3.9-1.4c2.1,0,4.1,0.8,4.1,3.5v5.4H150.5z M150.5,104.5v-0.8
		c-0.3-0.4-0.9-0.6-1.5-0.6c-0.7,0-1.4,0.3-1.4,1c0,0.7,0.7,1,1.4,1C149.5,105.1,150.2,104.9,150.5,104.5z"/>
	<path class="st1" d="M161.1,106.7v-5c0-1.1-0.6-1.4-1.4-1.4c-0.8,0-1.4,0.5-1.7,0.8v5.6h-2.8V98h2.8v1.1c0.5-0.6,1.5-1.3,3-1.3
		c2,0,2.9,1.2,2.9,2.8v6.2H161.1z"/>
	<path class="st1" d="M166.5,104.4v-4h-1.4V98h1.4v-2.4h2.8V98h1.8v2.4h-1.8v3.2c0,0.5,0.3,0.9,0.8,0.9c0.3,0,0.6-0.1,0.7-0.2
		l0.5,2.1c-0.3,0.3-1,0.6-2.1,0.6C167.5,106.9,166.5,106.1,166.5,104.4z"/>
	<path class="st1" d="M15.6,121.4c0-2.9,1.6-4.6,3.8-4.6c1,0,1.9,0.4,2.6,1.2v-1h2.8v12H22v-4.3c-0.7,0.9-1.6,1.2-2.6,1.2
		C17.3,125.9,15.6,124.3,15.6,121.4z M22,122.7v-2.6c-0.3-0.5-1.1-0.8-1.6-0.8c-1.1,0-1.9,0.8-1.9,2.1c0,1.3,0.8,2.1,1.9,2.1
		C21,123.5,21.7,123.2,22,122.7z"/>
	<path class="st1" d="M32.7,125.7v-1c-0.5,0.6-1.5,1.3-3,1.3c-2,0-2.9-1.1-2.9-2.7V117h2.8v5c0,1.1,0.5,1.4,1.4,1.4
		c0.8,0,1.3-0.4,1.7-0.8V117h2.8v8.7H32.7z"/>
	<path class="st1" d="M36.9,121.4c0-2.5,1.9-4.6,4.6-4.6c2.6,0,4.4,1.9,4.4,4.8v0.6h-6.2c0.2,0.8,0.9,1.4,2.2,1.4
		c0.6,0,1.6-0.3,2.1-0.7l1.2,1.8c-0.9,0.8-2.3,1.2-3.6,1.2C39,125.9,36.9,124.2,36.9,121.4z M41.5,119.1c-1.2,0-1.7,0.7-1.8,1.4h3.6
		C43.3,119.8,42.8,119.1,41.5,119.1z"/>
	<path class="st1" d="M54.7,124.7v4.3h-2.8v-12h2.8v1c0.7-0.8,1.6-1.2,2.6-1.2c2.2,0,3.8,1.6,3.8,4.6c0,3-1.6,4.6-3.8,4.6
		C56.3,125.9,55.4,125.6,54.7,124.7z M58.3,121.4c0-1.3-0.8-2.1-1.9-2.1c-0.6,0-1.3,0.3-1.7,0.8v2.6c0.3,0.4,1.1,0.8,1.7,0.8
		C57.5,123.5,58.3,122.7,58.3,121.4z"/>
	<path class="st1" d="M62.5,125.7V117h2.8v1.1c0.6-0.7,1.7-1.3,2.7-1.3v2.7c-0.2-0.1-0.4-0.1-0.7-0.1c-0.7,0-1.7,0.3-2,0.8v5.5H62.5
		z"/>
	<path class="st1" d="M68.7,121.4c0-2.4,1.8-4.6,4.7-4.6c3,0,4.8,2.1,4.8,4.6c0,2.4-1.8,4.6-4.8,4.6
		C70.5,125.9,68.7,123.8,68.7,121.4z M75.4,121.4c0-1.2-0.7-2.1-1.9-2.1c-1.2,0-1.9,1-1.9,2.1c0,1.2,0.7,2.1,1.9,2.1
		C74.7,123.5,75.4,122.5,75.4,121.4z"/>
	<path class="st1" d="M79.7,125.7v-12h2.8v4.3c0.7-0.9,1.6-1.2,2.6-1.2c2.2,0,3.8,1.7,3.8,4.6c0,3-1.7,4.6-3.8,4.6
		c-1,0-1.9-0.4-2.6-1.2v1H79.7z M84.1,123.5c1.1,0,1.9-0.8,1.9-2.1c0-1.3-0.8-2.1-1.9-2.1c-0.6,0-1.3,0.3-1.7,0.8v2.7
		C82.8,123.2,83.5,123.5,84.1,123.5z"/>
	<path class="st1" d="M90.3,125.7v-12h2.8v12H90.3z"/>
	<path class="st1" d="M94.5,121.4c0-2.5,1.9-4.6,4.6-4.6c2.6,0,4.4,1.9,4.4,4.8v0.6h-6.2c0.2,0.8,0.9,1.4,2.2,1.4
		c0.6,0,1.6-0.3,2.1-0.7l1.2,1.8c-0.9,0.8-2.3,1.2-3.6,1.2C96.6,125.9,94.5,124.2,94.5,121.4z M98.9,115.7l-2.9-2.6h2.4l2.3,2.6
		H98.9z M99.1,119.1c-1.2,0-1.7,0.7-1.8,1.4h3.6C100.9,119.8,100.4,119.1,99.1,119.1z"/>
	<path class="st1" d="M115.9,125.7v-5.3c0-0.7-0.3-1.2-1.2-1.2c-0.8,0-1.3,0.5-1.6,0.8v5.6h-2.8v-5.3c0-0.7-0.3-1.2-1.1-1.2
		c-0.8,0-1.3,0.5-1.6,0.8v5.6H105V117h2.8v1.1c0.4-0.5,1.5-1.3,2.9-1.3c1.3,0,2.1,0.5,2.5,1.5c0.5-0.8,1.6-1.5,3-1.5
		c1.6,0,2.6,0.8,2.6,2.6v6.3H115.9z"/>
	<path class="st1" d="M120.1,121.4c0-2.5,1.9-4.6,4.6-4.6c2.6,0,4.4,1.9,4.4,4.8v0.6H123c0.2,0.8,0.9,1.4,2.2,1.4
		c0.6,0,1.6-0.3,2.1-0.7l1.2,1.8c-0.9,0.8-2.3,1.2-3.6,1.2C122.2,125.9,120.1,124.2,120.1,121.4z M124.8,119.1
		c-1.2,0-1.7,0.7-1.8,1.4h3.6C126.5,119.8,126,119.1,124.8,119.1z"/>
	<path class="st1" d="M141,125.7v-1c-0.7,0.8-1.6,1.2-2.6,1.2c-2.1,0-3.8-1.6-3.8-4.6c0-2.8,1.7-4.6,3.8-4.6c1,0,1.9,0.4,2.6,1.2
		v-4.3h2.8v12H141z M141,122.7V120c-0.4-0.5-1.1-0.8-1.7-0.8c-1.1,0-1.9,0.8-1.9,2.1c0,1.3,0.8,2.1,1.9,2.1
		C139.9,123.5,140.7,123.2,141,122.7z"/>
	<path class="st1" d="M145.3,121.4c0-2.5,1.9-4.6,4.6-4.6c2.6,0,4.4,1.9,4.4,4.8v0.6h-6.2c0.2,0.8,0.9,1.4,2.2,1.4
		c0.6,0,1.6-0.3,2.1-0.7l1.2,1.8c-0.9,0.8-2.3,1.2-3.6,1.2C147.3,125.9,145.3,124.2,145.3,121.4z M149.9,119.1
		c-1.2,0-1.7,0.7-1.8,1.4h3.6C151.6,119.8,151.1,119.1,149.9,119.1z"/>
	<path class="st1" d="M159.6,124.6l1.2-2c0.6,0.6,2,1.2,3.1,1.2c0.8,0,1.2-0.2,1.2-0.6c0-1.1-5.1,0-5.1-3.5c0-1.5,1.3-2.9,3.7-2.9
		c1.5,0,2.7,0.5,3.6,1.2l-1.1,2c-0.5-0.5-1.5-1-2.6-1c-0.6,0-1.1,0.3-1.1,0.6c0,1,5,0,5,3.5c0,1.7-1.5,2.8-3.9,2.8
		C162.1,125.9,160.5,125.4,159.6,124.6z"/>
	<path class="st1" d="M174.1,125.7v-0.9c-0.5,0.6-1.6,1.1-2.7,1.1c-1.3,0-3-0.9-3-2.9c0-2.1,1.7-2.8,3-2.8c1.2,0,2.2,0.4,2.7,1v-0.9
		c0-0.8-0.6-1.3-1.8-1.3c-0.9,0-1.7,0.3-2.4,0.9l-1-1.9c1.1-1,2.6-1.4,3.9-1.4c2.1,0,4.1,0.8,4.1,3.5v5.4H174.1z M174.1,123.5v-0.8
		c-0.3-0.4-0.9-0.6-1.5-0.6c-0.7,0-1.4,0.3-1.4,1c0,0.7,0.7,1,1.4,1C173.2,124.1,173.8,123.9,174.1,123.5z"/>
	<path class="st1" d="M184.8,125.7v-5c0-1.1-0.6-1.4-1.4-1.4c-0.8,0-1.4,0.5-1.7,0.8v5.6h-2.8V117h2.8v1.1c0.5-0.6,1.5-1.3,3-1.3
		c2,0,2.9,1.2,2.9,2.8v6.2H184.8z"/>
	<path class="st1" d="M190.2,123.4v-4h-1.4V117h1.4v-2.4h2.8v2.4h1.8v2.4h-1.8v3.2c0,0.5,0.3,0.9,0.8,0.9c0.3,0,0.6-0.1,0.7-0.2
		l0.5,2.1c-0.3,0.3-1,0.6-2.1,0.6C191.1,125.9,190.2,125.1,190.2,123.4z"/>
	<path class="st1" d="M195.5,121.4c0-2.5,1.9-4.6,4.6-4.6c2.6,0,4.4,1.9,4.4,4.8v0.6h-6.2c0.2,0.8,0.9,1.4,2.2,1.4
		c0.6,0,1.6-0.3,2.1-0.7l1.2,1.8c-0.9,0.8-2.3,1.2-3.6,1.2C197.6,125.9,195.5,124.2,195.5,121.4z M200.1,119.1
		c-1.2,0-1.7,0.7-1.8,1.4h3.6C201.9,119.8,201.4,119.1,200.1,119.1z M200.4,115.7h-1.9l2.3-2.6h2.4L200.4,115.7z"/>
	<path class="st1" d="M19,143.7v4.3h-2.8v-12H19v1c0.7-0.8,1.6-1.2,2.6-1.2c2.2,0,3.8,1.6,3.8,4.6c0,3-1.6,4.6-3.8,4.6
		C20.6,144.9,19.7,144.6,19,143.7z M22.6,140.4c0-1.3-0.8-2.1-1.9-2.1c-0.6,0-1.3,0.3-1.7,0.8v2.6c0.3,0.4,1.1,0.8,1.7,0.8
		C21.7,142.5,22.6,141.7,22.6,140.4z"/>
	<path class="st1" d="M32.7,144.7v-1c-0.5,0.6-1.5,1.3-3,1.3c-2,0-2.9-1.1-2.9-2.7V136h2.8v5c0,1.1,0.5,1.4,1.4,1.4
		c0.8,0,1.3-0.4,1.7-0.8V136h2.8v8.7H32.7z"/>
	<path class="st1" d="M37.5,144.7v-12h2.8v4.3c0.7-0.9,1.6-1.2,2.6-1.2c2.2,0,3.8,1.7,3.8,4.6c0,3-1.7,4.6-3.8,4.6
		c-1,0-1.9-0.4-2.6-1.2v1H37.5z M41.9,142.5c1.1,0,1.9-0.8,1.9-2.1c0-1.3-0.8-2.1-1.9-2.1c-0.6,0-1.3,0.3-1.7,0.8v2.7
		C40.6,142.2,41.3,142.5,41.9,142.5z"/>
	<path class="st1" d="M48.1,144.7v-12h2.8v12H48.1z"/>
	<path class="st1" d="M52.7,133.7c0-0.9,0.7-1.6,1.6-1.6c0.9,0,1.6,0.7,1.6,1.6c0,0.9-0.7,1.6-1.6,1.6
		C53.4,135.3,52.7,134.5,52.7,133.7z M52.9,144.7V136h2.8v8.7H52.9z"/>
	<path class="st1" d="M57.1,140.4c0-2.9,1.6-4.6,3.8-4.6c1,0,1.9,0.4,2.6,1.2v-1h2.8v12h-2.8v-4.3c-0.7,0.9-1.6,1.2-2.6,1.2
		C58.8,144.9,57.1,143.3,57.1,140.4z M63.5,141.7v-2.6c-0.3-0.5-1.1-0.8-1.6-0.8c-1.1,0-1.9,0.8-1.9,2.1c0,1.3,0.8,2.1,1.9,2.1
		C62.4,142.5,63.2,142.2,63.5,141.7z"/>
	<path class="st1" d="M74.2,144.7v-1c-0.5,0.6-1.5,1.3-3,1.3c-2,0-2.9-1.1-2.9-2.7V136h2.8v5c0,1.1,0.5,1.4,1.4,1.4
		c0.8,0,1.3-0.4,1.7-0.8V136h2.8v8.7H74.2z"/>
	<path class="st1" d="M78.4,140.4c0-2.5,1.9-4.6,4.6-4.6c2.6,0,4.4,1.9,4.4,4.8v0.6h-6.2c0.2,0.8,0.9,1.4,2.2,1.4
		c0.6,0,1.6-0.3,2.1-0.7l1.2,1.8c-0.9,0.8-2.3,1.2-3.6,1.2C80.4,144.9,78.4,143.2,78.4,140.4z M83,138.1c-1.2,0-1.7,0.7-1.8,1.4h3.6
		C84.7,138.8,84.3,138.1,83,138.1z"/>
</g>
<path class="st1" d="M-123.1-41.6"/>
</svg>
