<?xml version="1.0" encoding="utf-8"?>
<!-- Generator: Adobe Illustrator 16.0.0, SVG Export Plug-In . SVG Version: 6.00 Build 0)  -->
<!DOCTYPE svg PUBLIC "-//W3C//DTD SVG 1.1//EN" "http://www.w3.org/Graphics/SVG/1.1/DTD/svg11.dtd">
<svg version="1.1" id="Layer_1" xmlns="http://www.w3.org/2000/svg" xmlns:xlink="http://www.w3.org/1999/xlink" x="0px" y="0px"
	 width="960px" height="211.7px" viewBox="0 0 960 211.7" enable-background="new 0 0 960 211.7" xml:space="preserve">
<path fill="#363636" d="M3.8,155.8v-9.3h2v7.6h3.9v1.8H3.8z M10.4,152.4c0-1.9,1.3-3.5,3.6-3.5c2.2,0,3.6,1.6,3.6,3.5
	S16.2,156,14,156C11.7,156,10.4,154.4,10.4,152.4z M15.7,152.4c0-1.1-0.6-2-1.7-2c-1.1,0-1.7,0.9-1.7,2c0,1.1,0.6,2,1.7,2
	C15.1,154.4,15.7,153.5,15.7,152.4z M18.6,155.8v-6.8h1.8v0.9c0.5-0.6,1.3-1.1,2.2-1.1v1.7c-0.1,0-0.3,0-0.5,0
	c-0.6,0-1.4,0.3-1.7,0.8v4.5H18.6z M22.8,155l0.8-1.3c0.5,0.5,1.5,0.9,2.3,0.9c0.8,0,1.1-0.3,1.1-0.7c0-1.1-4-0.2-4-2.9
	c0-1.1,1-2.1,2.8-2.1c1.1,0,2,0.4,2.7,0.9l-0.7,1.3c-0.4-0.4-1.2-0.8-2-0.8c-0.6,0-1.1,0.3-1.1,0.7c0,1,4,0.2,4,2.9
	c0,1.2-1.1,2.2-2.9,2.2C24.6,156,23.5,155.6,22.8,155z M29.3,152.4c0-2.3,1.3-3.5,3-3.5c0.8,0,1.6,0.4,2.1,1v-0.9h1.8v9.3h-1.8V155
	c-0.5,0.7-1.3,1-2.1,1C30.6,156,29.3,154.7,29.3,152.4z M34.4,153.6v-2.4c-0.3-0.4-0.9-0.8-1.5-0.8c-1,0-1.7,0.8-1.7,2
	c0,1.2,0.7,2,1.7,2C33.4,154.4,34.1,154.1,34.4,153.6z M42.2,155.8V155c-0.5,0.5-1.3,1-2.4,1c-1.5,0-2.2-0.8-2.2-2.1v-4.8h1.8v4.1
	c0,0.9,0.5,1.2,1.2,1.2c0.7,0,1.2-0.4,1.5-0.8v-4.6H44v6.8H42.2z M45,152.4c0-2,1.5-3.5,3.5-3.5c2,0,3.4,1.5,3.4,3.7v0.4h-5
	c0.1,0.8,0.8,1.5,1.9,1.5c0.6,0,1.4-0.2,1.8-0.7l0.8,1.2c-0.7,0.6-1.7,0.9-2.8,0.9C46.6,156,45,154.6,45,152.4z M48.5,150.4
	c-1.1,0-1.6,0.8-1.7,1.4h3.3C50.1,151.2,49.7,150.4,48.5,150.4z M56.2,155.8v-9.3H58v9.3H56.2z M59.1,152.4c0-2,1.5-3.5,3.5-3.5
	c2,0,3.4,1.5,3.4,3.7v0.4h-5c0.1,0.8,0.8,1.5,1.9,1.5c0.6,0,1.4-0.2,1.8-0.7l0.8,1.2c-0.7,0.6-1.7,0.9-2.8,0.9
	C60.6,156,59.1,154.6,59.1,152.4z M62.6,150.4c-1.1,0-1.6,0.8-1.7,1.4h3.3C64.2,151.2,63.7,150.4,62.6,150.4z M72.5,155.8v-7.6h-2.7
	v-1.8h7.5v1.8h-2.7v7.6H72.5z M78.2,155.8v-9.3h6.6v1.8h-4.6v2h4.5v1.8h-4.5v3.9H78.2z M93.2,155.8v-0.7c-0.5,0.6-1.3,0.9-2.1,0.9
	c-1.1,0-2.3-0.7-2.3-2.2c0-1.6,1.3-2.2,2.3-2.2c0.9,0,1.7,0.3,2.1,0.8v-0.9c0-0.7-0.6-1.1-1.5-1.1c-0.7,0-1.4,0.3-1.9,0.8l-0.7-1.2
	c0.8-0.7,1.9-1.1,3-1.1c1.6,0,3,0.6,3,2.6v4.4H93.2z M93.2,154.2v-0.8c-0.3-0.4-0.9-0.6-1.4-0.6c-0.7,0-1.3,0.4-1.3,1s0.6,1,1.3,1
	C92.4,154.8,92.9,154.6,93.2,154.2z M96.9,155.8v-5.2h-1.1v-1.6h1.1v-0.3c0-1.5,0.9-2.4,2.3-2.4c0.7,0,1.4,0.2,1.8,0.6l-0.7,1.1
	c-0.2-0.2-0.4-0.3-0.7-0.3c-0.5,0-0.8,0.3-0.8,1v0.3h1.4v1.6h-1.4v5.2H96.9z M101.5,155.8v-5.2h-1.1v-1.6h1.1v-0.3
	c0-1.5,0.9-2.4,2.3-2.4c0.7,0,1.4,0.2,1.8,0.6l-0.7,1.1c-0.2-0.2-0.4-0.3-0.7-0.3c-0.5,0-0.8,0.3-0.8,1v0.3h1.4v1.6h-1.4v5.2H101.5z
	 M104.9,152.4c0-2,1.5-3.5,3.5-3.5c2,0,3.4,1.5,3.4,3.7v0.4h-5c0.1,0.8,0.8,1.5,1.9,1.5c0.6,0,1.4-0.2,1.8-0.7l0.8,1.2
	c-0.7,0.6-1.7,0.9-2.8,0.9C106.5,156,104.9,154.6,104.9,152.4z M108.5,150.4c-1.1,0-1.6,0.8-1.7,1.4h3.3
	C110.1,151.2,109.6,150.4,108.5,150.4z M112.4,152.4c0-2.1,1.5-3.5,3.6-3.5c1.4,0,2.2,0.6,2.7,1.2l-1.2,1.1
	c-0.3-0.5-0.8-0.7-1.4-0.7c-1.1,0-1.8,0.8-1.8,2s0.8,2,1.8,2c0.6,0,1.1-0.3,1.4-0.7l1.2,1.1c-0.4,0.6-1.3,1.2-2.7,1.2
	C113.9,156,112.4,154.5,112.4,152.4z M119.9,154.1v-3.5h-1.1v-1.6h1.1v-1.8h1.8v1.8h1.4v1.6h-1.4v3c0,0.4,0.2,0.8,0.6,0.8
	c0.3,0,0.5-0.1,0.6-0.2l0.4,1.4c-0.3,0.2-0.7,0.4-1.5,0.4C120.6,156,119.9,155.4,119.9,154.1z M123.6,152.4c0-2,1.5-3.5,3.5-3.5
	c2,0,3.4,1.5,3.4,3.7v0.4h-5c0.1,0.8,0.8,1.5,1.9,1.5c0.6,0,1.4-0.2,1.8-0.7l0.8,1.2c-0.7,0.6-1.7,0.9-2.8,0.9
	C125.1,156,123.6,154.6,123.6,152.4z M127.1,150.4c-1.1,0-1.6,0.8-1.7,1.4h3.3C128.7,151.2,128.2,150.4,127.1,150.4z M136.6,155v3.4
	h-1.8v-9.3h1.8v0.9c0.5-0.7,1.3-1,2.1-1c1.7,0,3,1.3,3,3.5c0,2.3-1.3,3.6-3,3.6C137.8,156,137.1,155.7,136.6,155z M139.8,152.4
	c0-1.2-0.7-2-1.7-2c-0.6,0-1.2,0.3-1.5,0.8v2.4c0.3,0.4,1,0.8,1.5,0.8C139.1,154.4,139.8,153.6,139.8,152.4z M142.7,155.8v-9.3h1.8
	v9.3H142.7z M150.5,155.8V155c-0.5,0.5-1.3,1-2.4,1c-1.5,0-2.2-0.8-2.2-2.1v-4.8h1.8v4.1c0,0.9,0.5,1.2,1.2,1.2
	c0.7,0,1.2-0.4,1.5-0.8v-4.6h1.8v6.8H150.5z M153.2,155l0.8-1.3c0.5,0.5,1.5,0.9,2.3,0.9c0.8,0,1.1-0.3,1.1-0.7c0-1.1-4-0.2-4-2.9
	c0-1.1,1-2.1,2.8-2.1c1.1,0,2,0.4,2.7,0.9l-0.7,1.3c-0.4-0.4-1.2-0.8-2-0.8c-0.6,0-1.1,0.3-1.1,0.7c0,1,4,0.2,4,2.9
	c0,1.2-1.1,2.2-2.9,2.2C155,156,153.9,155.6,153.2,155z"/>
<g>
	<path fill="#363636" d="M8.5,172.6v-0.9c-0.5,0.7-1.3,1-2.1,1c-1.7,0-3-1.3-3-3.6c0-2.2,1.3-3.5,3-3.5c0.8,0,1.6,0.3,2.1,1v-3.4
		h1.8v9.3H8.5z M8.5,170.5v-2.4c-0.3-0.4-0.9-0.8-1.5-0.8c-1,0-1.7,0.8-1.7,2c0,1.2,0.7,2,1.7,2C7.6,171.2,8.2,170.9,8.5,170.5z"/>
	<path fill="#363636" d="M11.4,169.2c0-2,1.5-3.5,3.5-3.5c2,0,3.4,1.5,3.4,3.7v0.4h-5c0.1,0.8,0.8,1.5,1.9,1.5
		c0.6,0,1.4-0.2,1.8-0.7l0.8,1.2c-0.7,0.6-1.7,0.9-2.8,0.9C12.9,172.8,11.4,171.4,11.4,169.2z M14.9,167.2c-1.1,0-1.6,0.8-1.7,1.4
		h3.3C16.5,168,16.1,167.2,14.9,167.2z"/>
	<path fill="#363636" d="M22.4,171.4l1.1-1.4c0.6,0.7,1.5,1,2.5,1c1.1,0,1.7-0.6,1.7-1.4c0-0.8-0.6-1.4-1.7-1.4
		c-0.8,0-1.4,0.2-2,0.8l-1.4-0.4v-5.4h6.4v1.8h-4.4v2.3c0.4-0.4,1.2-0.8,2.1-0.8c1.6,0,3,1.1,3,3c0,2-1.5,3.2-3.7,3.2
		C24.4,172.8,23.2,172.3,22.4,171.4z"/>
	<path fill="#363636" d="M33.7,165.5c0-1.3,0.9-2.3,2.4-2.3c1.4,0,2.4,1,2.4,2.3c0,1.3-0.9,2.3-2.4,2.3
		C34.6,167.8,33.7,166.8,33.7,165.5z M37.2,165.5c0-0.8-0.5-1.2-1.1-1.2c-0.6,0-1.1,0.5-1.1,1.2c0,0.7,0.5,1.2,1.1,1.2
		C36.7,166.7,37.2,166.2,37.2,165.5z M35.1,172.6l6-9.3h1.1l-6,9.3H35.1z M38.8,170.5c0-1.3,0.9-2.4,2.4-2.4s2.4,1,2.4,2.4
		c0,1.3-1,2.3-2.4,2.3S38.8,171.8,38.8,170.5z M42.3,170.5c0-0.8-0.5-1.2-1.1-1.2c-0.6,0-1.1,0.5-1.1,1.2c0,0.8,0.5,1.2,1.1,1.2
		C41.8,171.7,42.3,171.3,42.3,170.5z"/>
	<path fill="#363636" d="M52.5,172.6v-0.9c-0.5,0.7-1.3,1-2.1,1c-1.7,0-3-1.3-3-3.6c0-2.2,1.3-3.5,3-3.5c0.8,0,1.6,0.3,2.1,1v-3.4
		h1.8v9.3H52.5z M52.5,170.5v-2.4c-0.3-0.4-0.9-0.8-1.5-0.8c-1,0-1.7,0.8-1.7,2c0,1.2,0.7,2,1.7,2C51.6,171.2,52.2,170.9,52.5,170.5
		z"/>
	<path fill="#363636" d="M55.4,169.2c0-2,1.5-3.5,3.5-3.5c2,0,3.4,1.5,3.4,3.7v0.4h-5c0.1,0.8,0.8,1.5,1.9,1.5
		c0.6,0,1.4-0.2,1.8-0.7l0.8,1.2c-0.7,0.6-1.7,0.9-2.8,0.9C56.9,172.8,55.4,171.4,55.4,169.2z M58.9,167.2c-1.1,0-1.6,0.8-1.7,1.4
		h3.3C60.5,168,60.1,167.2,58.9,167.2z"/>
	<path fill="#363636" d="M62.7,171.8l0.8-1.3c0.5,0.5,1.5,0.9,2.3,0.9c0.8,0,1.1-0.3,1.1-0.7c0-1.1-4-0.2-4-2.9c0-1.1,1-2.1,2.8-2.1
		c1.1,0,2,0.4,2.7,0.9l-0.7,1.3c-0.4-0.4-1.2-0.8-2-0.8c-0.6,0-1.1,0.3-1.1,0.7c0,1,4,0.2,4,2.9c0,1.2-1.1,2.2-2.9,2.2
		C64.5,172.8,63.4,172.4,62.7,171.8z"/>
	<path fill="#363636" d="M72.6,169.2c0-2,1.5-3.5,3.5-3.5c2,0,3.4,1.5,3.4,3.7v0.4h-5c0.1,0.8,0.8,1.5,1.9,1.5
		c0.6,0,1.4-0.2,1.8-0.7l0.8,1.2c-0.7,0.6-1.7,0.9-2.8,0.9C74.1,172.8,72.6,171.4,72.6,169.2z M76.1,167.2c-1.1,0-1.6,0.8-1.7,1.4
		h3.3C77.7,168,77.3,167.2,76.1,167.2z"/>
	<path fill="#363636" d="M85.1,172.6v-4.1c0-0.9-0.5-1.3-1.2-1.3c-0.7,0-1.2,0.4-1.5,0.8v4.6h-1.8v-6.8h1.8v0.9c0.4-0.5,1.3-1,2.4-1
		c1.5,0,2.2,0.8,2.2,2.2v4.8H85.1z"/>
	<path fill="#363636" d="M88.7,172.6v-5.2h-1.1v-1.6h1.1v-0.3c0-1.5,0.9-2.4,2.3-2.4c0.7,0,1.4,0.2,1.8,0.6l-0.7,1.1
		c-0.2-0.2-0.4-0.3-0.7-0.3c-0.5,0-0.8,0.3-0.8,1v0.3h1.4v1.6h-1.4v5.2H88.7z"/>
	<path fill="#363636" d="M96.7,172.6v-0.7c-0.5,0.6-1.3,0.9-2.1,0.9c-1.1,0-2.3-0.7-2.3-2.2c0-1.6,1.3-2.2,2.3-2.2
		c0.9,0,1.7,0.3,2.1,0.8v-0.9c0-0.7-0.6-1.1-1.5-1.1c-0.7,0-1.4,0.3-1.9,0.8l-0.7-1.2c0.8-0.7,1.9-1.1,3-1.1c1.6,0,3,0.6,3,2.6v4.4
		H96.7z M96.7,171v-0.8c-0.3-0.4-0.9-0.6-1.4-0.6c-0.7,0-1.3,0.4-1.3,1s0.6,1,1.3,1C95.8,171.6,96.4,171.4,96.7,171z"/>
	<path fill="#363636" d="M104.5,172.6v-4.1c0-0.9-0.5-1.3-1.2-1.3c-0.7,0-1.2,0.4-1.5,0.8v4.6H100v-6.8h1.8v0.9c0.4-0.5,1.3-1,2.4-1
		c1.5,0,2.2,0.8,2.2,2.2v4.8H104.5z"/>
	<path fill="#363636" d="M108.2,170.9v-3.5h-1.1v-1.6h1.1V164h1.8v1.8h1.4v1.6H110v3c0,0.4,0.2,0.8,0.6,0.8c0.3,0,0.5-0.1,0.6-0.2
		l0.4,1.4c-0.3,0.2-0.7,0.4-1.5,0.4C108.8,172.8,108.2,172.2,108.2,170.9z"/>
	<path fill="#363636" d="M111.7,171.8l0.8-1.3c0.5,0.5,1.5,0.9,2.3,0.9c0.8,0,1.1-0.3,1.1-0.7c0-1.1-4-0.2-4-2.9
		c0-1.1,1-2.1,2.8-2.1c1.1,0,2,0.4,2.7,0.9l-0.7,1.3c-0.4-0.4-1.2-0.8-2-0.8c-0.6,0-1.1,0.3-1.1,0.7c0,1,4,0.2,4,2.9
		c0,1.2-1.1,2.2-2.9,2.2C113.5,172.8,112.4,172.4,111.7,171.8z"/>
	<path fill="#363636" d="M119.4,174.6l-0.8-0.6c0.4-0.2,1-0.8,1.1-1.3c0,0-0.2,0-0.3,0c-0.5,0-1-0.4-1-1c0-0.6,0.5-1.1,1.1-1.1
		c0.7,0,1.2,0.5,1.2,1.4C120.8,173,120.2,173.9,119.4,174.6z"/>
</g>
<g>
	<path fill="#363636" d="M8.4,189.4v-0.9c-0.5,0.5-1.3,1-2.4,1c-1.5,0-2.2-0.8-2.2-2.1v-4.8h1.8v4.1c0,0.9,0.5,1.2,1.2,1.2
		c0.7,0,1.2-0.4,1.5-0.8v-4.6h1.8v6.8H8.4z"/>
	<path fill="#363636" d="M16.3,189.4v-4.1c0-0.9-0.5-1.3-1.2-1.3c-0.7,0-1.2,0.4-1.5,0.8v4.6h-1.8v-6.8h1.8v0.9c0.4-0.5,1.3-1,2.4-1
		c1.5,0,2.2,0.8,2.2,2.2v4.8H16.3z"/>
	<path fill="#363636" d="M27.5,189.4v-0.9c-0.5,0.7-1.3,1-2.1,1c-1.7,0-3-1.3-3-3.6c0-2.2,1.3-3.5,3-3.5c0.8,0,1.6,0.3,2.1,1v-3.4
		h1.8v9.3H27.5z M27.5,187.3v-2.4c-0.3-0.4-0.9-0.8-1.5-0.8c-1,0-1.7,0.8-1.7,2c0,1.2,0.7,2,1.7,2C26.6,188,27.3,187.7,27.5,187.3z"
		/>
	<path fill="#363636" d="M30.7,180.9c0-0.6,0.5-1.1,1.1-1.1c0.6,0,1.1,0.5,1.1,1.1s-0.5,1.1-1.1,1.1
		C31.1,181.9,30.7,181.5,30.7,180.9z M30.8,189.4v-6.8h1.8v6.8H30.8z"/>
	<path fill="#363636" d="M33.5,188.6l0.8-1.3c0.5,0.5,1.5,0.9,2.3,0.9c0.8,0,1.1-0.3,1.1-0.7c0-1.1-4-0.2-4-2.9c0-1.1,1-2.1,2.8-2.1
		c1.1,0,2,0.4,2.7,0.9l-0.7,1.3c-0.4-0.4-1.2-0.8-2-0.8c-0.6,0-1.1,0.3-1.1,0.7c0,1,4,0.2,4,2.9c0,1.2-1.1,2.2-2.9,2.2
		C35.4,189.6,34.2,189.2,33.5,188.6z"/>
	<path fill="#363636" d="M40.9,187.7v-3.5h-1.1v-1.6h1.1v-1.8h1.8v1.8H44v1.6h-1.4v3c0,0.4,0.2,0.8,0.6,0.8c0.3,0,0.5-0.1,0.6-0.2
		l0.4,1.4c-0.3,0.2-0.7,0.4-1.5,0.4C41.5,189.6,40.9,189,40.9,187.7z"/>
	<path fill="#363636" d="M45,189.4v-6.8h1.8v0.9c0.5-0.6,1.3-1.1,2.2-1.1v1.7c-0.1,0-0.3,0-0.5,0c-0.6,0-1.4,0.3-1.7,0.8v4.5H45z"/>
	<path fill="#363636" d="M49.6,180.9c0-0.6,0.5-1.1,1.1-1.1c0.6,0,1.1,0.5,1.1,1.1s-0.5,1.1-1.1,1.1
		C50.1,181.9,49.6,181.5,49.6,180.9z M49.8,189.4v-6.8h1.8v6.8H49.8z"/>
	<path fill="#363636" d="M52.6,186c0-2.1,1.5-3.5,3.6-3.5c1.4,0,2.2,0.6,2.7,1.2l-1.2,1.1c-0.3-0.5-0.8-0.7-1.4-0.7
		c-1.1,0-1.8,0.8-1.8,2s0.8,2,1.8,2c0.6,0,1.1-0.3,1.4-0.7l1.2,1.1c-0.4,0.6-1.3,1.2-2.7,1.2C54.1,189.6,52.6,188.1,52.6,186z"/>
	<path fill="#363636" d="M60.1,187.7v-3.5H59v-1.6h1.1v-1.8h1.8v1.8h1.4v1.6h-1.4v3c0,0.4,0.2,0.8,0.6,0.8c0.3,0,0.5-0.1,0.6-0.2
		l0.4,1.4c-0.3,0.2-0.7,0.4-1.5,0.4C60.8,189.6,60.1,189,60.1,187.7z"/>
	<path fill="#363636" d="M72.1,189.4v-4.1c0-0.9-0.5-1.3-1.2-1.3c-0.7,0-1.2,0.4-1.5,0.8v4.6h-1.8v-6.8h1.8v0.9c0.4-0.5,1.3-1,2.4-1
		c1.5,0,2.2,0.8,2.2,2.2v4.8H72.1z"/>
	<path fill="#363636" d="M74.9,186c0-2,1.5-3.5,3.5-3.5c2,0,3.4,1.5,3.4,3.7v0.4h-5c0.1,0.8,0.8,1.5,1.9,1.5c0.6,0,1.4-0.2,1.8-0.7
		l0.8,1.2c-0.7,0.6-1.7,0.9-2.8,0.9C76.5,189.6,74.9,188.2,74.9,186z M78.4,184c-1.1,0-1.6,0.8-1.7,1.4h3.3
		C80.1,184.8,79.6,184,78.4,184z M78.6,181.6h-1.2l1.9-2h1.6L78.6,181.6z"/>
	<path fill="#363636" d="M82.4,186c0-2.1,1.5-3.5,3.6-3.5c1.4,0,2.2,0.6,2.7,1.2l-1.2,1.1c-0.3-0.5-0.8-0.7-1.4-0.7
		c-1.1,0-1.8,0.8-1.8,2s0.8,2,1.8,2c0.6,0,1.1-0.3,1.4-0.7l1.2,1.1c-0.4,0.6-1.3,1.2-2.7,1.2C83.9,189.6,82.4,188.1,82.4,186z"/>
	<path fill="#363636" d="M89.1,186c0-2,1.5-3.5,3.5-3.5c2,0,3.4,1.5,3.4,3.7v0.4h-5c0.1,0.8,0.8,1.5,1.9,1.5c0.6,0,1.4-0.2,1.8-0.7
		l0.8,1.2c-0.7,0.6-1.7,0.9-2.8,0.9C90.7,189.6,89.1,188.2,89.1,186z M92.6,184c-1.1,0-1.6,0.8-1.7,1.4h3.3
		C94.3,184.8,93.8,184,92.6,184z"/>
	<path fill="#363636" d="M96.5,188.6l0.8-1.3c0.5,0.5,1.5,0.9,2.3,0.9c0.8,0,1.1-0.3,1.1-0.7c0-1.1-4-0.2-4-2.9c0-1.1,1-2.1,2.8-2.1
		c1.1,0,2,0.4,2.7,0.9l-0.7,1.3c-0.4-0.4-1.2-0.8-2-0.8c-0.6,0-1.1,0.3-1.1,0.7c0,1,4,0.2,4,2.9c0,1.2-1.1,2.2-2.9,2.2
		C98.3,189.6,97.2,189.2,96.5,188.6z"/>
	<path fill="#363636" d="M102.9,188.6l0.8-1.3c0.5,0.5,1.5,0.9,2.3,0.9c0.8,0,1.1-0.3,1.1-0.7c0-1.1-4-0.2-4-2.9
		c0-1.1,1-2.1,2.8-2.1c1.1,0,2,0.4,2.7,0.9l-0.7,1.3c-0.4-0.4-1.2-0.8-2-0.8c-0.6,0-1.1,0.3-1.1,0.7c0,1,4,0.2,4,2.9
		c0,1.2-1.1,2.2-2.9,2.2C104.7,189.6,103.6,189.2,102.9,188.6z"/>
	<path fill="#363636" d="M109.7,180.9c0-0.6,0.5-1.1,1.1-1.1c0.6,0,1.1,0.5,1.1,1.1s-0.5,1.1-1.1,1.1
		C110.2,181.9,109.7,181.5,109.7,180.9z M109.9,189.4v-6.8h1.8v6.8H109.9z"/>
	<path fill="#363636" d="M113.5,187.7v-3.5h-1.1v-1.6h1.1v-1.8h1.8v1.8h1.4v1.6h-1.4v3c0,0.4,0.2,0.8,0.6,0.8c0.3,0,0.5-0.1,0.6-0.2
		l0.4,1.4c-0.3,0.2-0.7,0.4-1.5,0.4C114.2,189.6,113.5,189,113.5,187.7z"/>
	<path fill="#363636" d="M117.2,186c0-2,1.5-3.5,3.5-3.5c2,0,3.4,1.5,3.4,3.7v0.4h-5c0.1,0.8,0.8,1.5,1.9,1.5c0.6,0,1.4-0.2,1.8-0.7
		l0.8,1.2c-0.7,0.6-1.7,0.9-2.8,0.9C118.7,189.6,117.2,188.2,117.2,186z M120.7,184c-1.1,0-1.6,0.8-1.7,1.4h3.3
		C122.3,184.8,121.9,184,120.7,184z"/>
	<path fill="#363636" d="M133.1,189.4v-0.9c-0.5,0.7-1.3,1-2.1,1c-1.7,0-3-1.3-3-3.6c0-2.2,1.3-3.5,3-3.5c0.8,0,1.6,0.3,2.1,1v-3.4
		h1.8v9.3H133.1z M133.1,187.3v-2.4c-0.3-0.4-0.9-0.8-1.5-0.8c-1,0-1.7,0.8-1.7,2c0,1.2,0.7,2,1.7,2
		C132.1,188,132.8,187.7,133.1,187.3z"/>
	<path fill="#363636" d="M135.9,186c0-2,1.5-3.5,3.5-3.5c2,0,3.4,1.5,3.4,3.7v0.4h-5c0.1,0.8,0.8,1.5,1.9,1.5c0.6,0,1.4-0.2,1.8-0.7
		l0.8,1.2c-0.7,0.6-1.7,0.9-2.8,0.9C137.5,189.6,135.9,188.2,135.9,186z M139.4,184c-1.1,0-1.6,0.8-1.7,1.4h3.3
		C141,184.8,140.6,184,139.4,184z"/>
	<path fill="#363636" d="M143.2,188.6l0.8-1.3c0.5,0.5,1.5,0.9,2.3,0.9c0.8,0,1.1-0.3,1.1-0.7c0-1.1-4-0.2-4-2.9
		c0-1.1,1-2.1,2.8-2.1c1.1,0,2,0.4,2.7,0.9l-0.7,1.3c-0.4-0.4-1.2-0.8-2-0.8c-0.6,0-1.1,0.3-1.1,0.7c0,1,4,0.2,4,2.9
		c0,1.2-1.1,2.2-2.9,2.2C145.1,189.6,143.9,189.2,143.2,188.6z"/>
</g>
<g>
	<path fill="#363636" d="M3.7,197.7c0-0.6,0.5-1.1,1.1-1.1c0.6,0,1.1,0.5,1.1,1.1s-0.5,1.1-1.1,1.1C4.2,198.7,3.7,198.3,3.7,197.7z
		 M3.9,206.2v-6.8h1.8v6.8H3.9z"/>
	<path fill="#363636" d="M11.7,206.2v-4.1c0-0.9-0.5-1.3-1.2-1.3c-0.7,0-1.2,0.4-1.5,0.8v4.6H7.2v-6.8h1.8v0.9c0.4-0.5,1.3-1,2.4-1
		c1.5,0,2.2,0.8,2.2,2.2v4.8H11.7z"/>
	<path fill="#363636" d="M15.4,204.5V201h-1.1v-1.6h1.1v-1.8h1.8v1.8h1.4v1.6h-1.4v3c0,0.4,0.2,0.8,0.6,0.8c0.3,0,0.5-0.1,0.6-0.2
		l0.4,1.4c-0.3,0.2-0.7,0.4-1.5,0.4C16,206.4,15.4,205.8,15.4,204.5z"/>
	<path fill="#363636" d="M19,202.8c0-2,1.5-3.5,3.5-3.5c2,0,3.4,1.5,3.4,3.7v0.4h-5c0.1,0.8,0.8,1.5,1.9,1.5c0.6,0,1.4-0.2,1.8-0.7
		l0.8,1.2c-0.7,0.6-1.7,0.9-2.8,0.9C20.6,206.4,19,205,19,202.8z M22.5,200.8c-1.1,0-1.6,0.8-1.7,1.4h3.3
		C24.1,201.6,23.7,200.8,22.5,200.8z"/>
	<path fill="#363636" d="M26.9,206.2v-6.8h1.8v0.9c0.5-0.6,1.3-1.1,2.2-1.1v1.7c-0.1,0-0.3,0-0.5,0c-0.6,0-1.4,0.3-1.7,0.8v4.5H26.9
		z"/>
	<path fill="#363636" d="M33.5,206.2l-2.7-6.8h1.9l1.8,4.7l1.8-4.7h1.9l-2.7,6.8H33.5z"/>
	<path fill="#363636" d="M38.2,202.8c0-2,1.5-3.5,3.5-3.5c2,0,3.4,1.5,3.4,3.7v0.4h-5c0.1,0.8,0.8,1.5,1.9,1.5
		c0.6,0,1.4-0.2,1.8-0.7l0.8,1.2c-0.7,0.6-1.7,0.9-2.8,0.9C39.7,206.4,38.2,205,38.2,202.8z M41.7,200.8c-1.1,0-1.6,0.8-1.7,1.4h3.3
		C43.3,201.6,42.9,200.8,41.7,200.8z"/>
	<path fill="#363636" d="M50.7,206.2v-4.1c0-0.9-0.5-1.3-1.2-1.3c-0.7,0-1.2,0.4-1.5,0.8v4.6h-1.8v-6.8h1.8v0.9c0.4-0.5,1.3-1,2.4-1
		c1.5,0,2.2,0.8,2.2,2.2v4.8H50.7z"/>
	<path fill="#363636" d="M54.3,204.5V201h-1.1v-1.6h1.1v-1.8h1.8v1.8h1.4v1.6h-1.4v3c0,0.4,0.2,0.8,0.6,0.8c0.3,0,0.5-0.1,0.6-0.2
		l0.4,1.4c-0.3,0.2-0.7,0.4-1.5,0.4C55,206.4,54.3,205.8,54.3,204.5z"/>
	<path fill="#363636" d="M58.2,197.7c0-0.6,0.5-1.1,1.1-1.1c0.6,0,1.1,0.5,1.1,1.1s-0.5,1.1-1.1,1.1
		C58.7,198.7,58.2,198.3,58.2,197.7z M58.4,206.2v-6.8h1.8v6.8H58.4z"/>
	<path fill="#363636" d="M61.2,202.8c0-1.9,1.3-3.5,3.6-3.5c2.2,0,3.6,1.6,3.6,3.5s-1.3,3.6-3.6,3.6
		C62.6,206.4,61.2,204.8,61.2,202.8z M66.5,202.8c0-1.1-0.6-2-1.7-2c-1.1,0-1.7,0.9-1.7,2c0,1.1,0.6,2,1.7,2
		C65.9,204.8,66.5,203.9,66.5,202.8z"/>
	<path fill="#363636" d="M74,206.2v-4.1c0-0.9-0.5-1.3-1.2-1.3c-0.7,0-1.2,0.4-1.5,0.8v4.6h-1.8v-6.8h1.8v0.9c0.4-0.5,1.3-1,2.4-1
		c1.5,0,2.2,0.8,2.2,2.2v4.8H74z"/>
	<path fill="#363636" d="M76.7,205.4l0.8-1.3c0.5,0.5,1.5,0.9,2.3,0.9c0.8,0,1.1-0.3,1.1-0.7c0-1.1-4-0.2-4-2.9c0-1.1,1-2.1,2.8-2.1
		c1.1,0,2,0.4,2.7,0.9l-0.7,1.3c-0.4-0.4-1.2-0.8-2-0.8c-0.6,0-1.1,0.3-1.1,0.7c0,1,4,0.2,4,2.9c0,1.2-1.1,2.2-2.9,2.2
		C78.5,206.4,77.4,206,76.7,205.4z"/>
	<path fill="#363636" d="M93.5,206.2l-0.6-1.6h-4l-0.6,1.6h-2.3l3.6-9.3h2.5l3.6,9.3H93.5z M90.9,198.9l-1.5,4h2.9L90.9,198.9z"/>
	<path fill="#363636" d="M97,208.2l-0.8-0.6c0.4-0.2,1-0.8,1.1-1.3c0,0-0.2,0-0.3,0c-0.5,0-1-0.4-1-1c0-0.6,0.5-1.1,1.1-1.1
		c0.7,0,1.2,0.5,1.2,1.4C98.5,206.6,97.9,207.5,97,208.2z"/>
	<path fill="#363636" d="M109.5,206.2l-4.5-6.1v6.1h-2v-9.3h2l4.3,5.9v-5.9h2v9.3H109.5z"/>
	<path fill="#363636" d="M113.6,208.2l-0.8-0.6c0.4-0.2,1-0.8,1.1-1.3c0,0-0.2,0-0.3,0c-0.5,0-1-0.4-1-1c0-0.6,0.5-1.1,1.1-1.1
		c0.7,0,1.2,0.5,1.2,1.4C115,206.6,114.5,207.5,113.6,208.2z"/>
	<path fill="#363636" d="M119.1,201.6c0-2.9,2.2-4.8,5-4.8c2,0,3.2,1.1,3.9,2.3l-1.7,0.8c-0.4-0.8-1.2-1.4-2.2-1.4
		c-1.7,0-2.9,1.3-2.9,3.1c0,1.8,1.2,3.1,2.9,3.1c1,0,1.8-0.6,2.2-1.4l1.7,0.8c-0.7,1.2-1.8,2.3-3.9,2.3
		C121.3,206.4,119.1,204.4,119.1,201.6z"/>
	<path fill="#363636" d="M128.9,206.2v-9.3h6.6v1.8h-4.6v2h4.5v1.8h-4.5v2.1h4.6v1.8H128.9z"/>
	<path fill="#363636" d="M136.6,205.3c0-0.6,0.5-1.1,1.1-1.1s1.1,0.5,1.1,1.1s-0.5,1.1-1.1,1.1S136.6,205.9,136.6,205.3z"/>
</g>
<g>
	<path fill="#363636" d="M581.1,155.8v-7.6h-2.7v-1.8h7.5v1.8h-2.7v7.6H581.1z"/>
	<path fill="#363636" d="M586.3,152.4c0-1.9,1.3-3.5,3.6-3.5c2.2,0,3.6,1.6,3.6,3.5s-1.3,3.6-3.6,3.6
		C587.7,156,586.3,154.4,586.3,152.4z M591.6,152.4c0-1.1-0.6-2-1.7-2c-1.1,0-1.7,0.9-1.7,2c0,1.1,0.6,2,1.7,2
		C591,154.4,591.6,153.5,591.6,152.4z"/>
	<path fill="#363636" d="M599.1,155.8V155c-0.5,0.5-1.3,1-2.4,1c-1.5,0-2.2-0.8-2.2-2.1v-4.8h1.8v4.1c0,0.9,0.5,1.2,1.2,1.2
		c0.7,0,1.2-0.4,1.5-0.8v-4.6h1.8v6.8H599.1z"/>
	<path fill="#363636" d="M602.7,154.1v-3.5h-1.1v-1.6h1.1v-1.8h1.8v1.8h1.4v1.6h-1.4v3c0,0.4,0.2,0.8,0.6,0.8c0.3,0,0.5-0.1,0.6-0.2
		l0.4,1.4c-0.3,0.2-0.7,0.4-1.5,0.4C603.4,156,602.7,155.4,602.7,154.1z"/>
	<path fill="#363636" d="M606.4,152.4c0-2,1.5-3.5,3.5-3.5c2,0,3.4,1.5,3.4,3.7v0.4h-5c0.1,0.8,0.8,1.5,1.9,1.5
		c0.6,0,1.4-0.2,1.8-0.7l0.8,1.2c-0.7,0.6-1.7,0.9-2.8,0.9C608,156,606.4,154.6,606.4,152.4z M609.9,150.4c-1.1,0-1.6,0.8-1.7,1.4
		h3.3C611.5,151.2,611.1,150.4,609.9,150.4z"/>
	<path fill="#363636" d="M619.4,155v3.4h-1.8v-9.3h1.8v0.9c0.5-0.7,1.3-1,2.1-1c1.7,0,3,1.3,3,3.5c0,2.3-1.3,3.6-3,3.6
		C620.7,156,620,155.7,619.4,155z M622.7,152.4c0-1.2-0.7-2-1.7-2c-0.6,0-1.2,0.3-1.5,0.8v2.4c0.3,0.4,1,0.8,1.5,0.8
		C622,154.4,622.7,153.6,622.7,152.4z"/>
	<path fill="#363636" d="M625.1,152.4c0-2,1.5-3.5,3.5-3.5c2,0,3.4,1.5,3.4,3.7v0.4h-5c0.1,0.8,0.8,1.5,1.9,1.5
		c0.6,0,1.4-0.2,1.8-0.7l0.8,1.2c-0.7,0.6-1.7,0.9-2.8,0.9C626.6,156,625.1,154.6,625.1,152.4z M628.6,150.4c-1.1,0-1.6,0.8-1.7,1.4
		h3.3C630.2,151.2,629.8,150.4,628.6,150.4z"/>
	<path fill="#363636" d="M633,155.8v-6.8h1.8v0.9c0.5-0.6,1.3-1.1,2.2-1.1v1.7c-0.1,0-0.3,0-0.5,0c-0.6,0-1.4,0.3-1.7,0.8v4.5H633z"
		/>
	<path fill="#363636" d="M637.2,155l0.8-1.3c0.5,0.5,1.5,0.9,2.3,0.9c0.8,0,1.1-0.3,1.1-0.7c0-1.1-4-0.2-4-2.9c0-1.1,1-2.1,2.8-2.1
		c1.1,0,2,0.4,2.7,0.9l-0.7,1.3c-0.4-0.4-1.2-0.8-2-0.8c-0.6,0-1.1,0.3-1.1,0.7c0,1,4,0.2,4,2.9c0,1.2-1.1,2.2-2.9,2.2
		C639,156,637.9,155.6,637.2,155z"/>
	<path fill="#363636" d="M643.7,152.4c0-1.9,1.3-3.5,3.6-3.5c2.2,0,3.6,1.6,3.6,3.5s-1.3,3.6-3.6,3.6
		C645.1,156,643.7,154.4,643.7,152.4z M649,152.4c0-1.1-0.6-2-1.7-2c-1.1,0-1.7,0.9-1.7,2c0,1.1,0.6,2,1.7,2
		C648.4,154.4,649,153.5,649,152.4z"/>
	<path fill="#363636" d="M656.5,155.8v-4.1c0-0.9-0.5-1.3-1.2-1.3c-0.7,0-1.2,0.4-1.5,0.8v4.6h-1.8v-6.8h1.8v0.9
		c0.4-0.5,1.3-1,2.4-1c1.5,0,2.2,0.8,2.2,2.2v4.8H656.5z"/>
	<path fill="#363636" d="M664.3,155.8v-4.1c0-0.9-0.5-1.3-1.2-1.3c-0.7,0-1.2,0.4-1.5,0.8v4.6h-1.8v-6.8h1.8v0.9
		c0.4-0.5,1.3-1,2.4-1c1.5,0,2.2,0.8,2.2,2.2v4.8H664.3z"/>
	<path fill="#363636" d="M667.2,152.4c0-2,1.5-3.5,3.5-3.5c2,0,3.4,1.5,3.4,3.7v0.4h-5c0.1,0.8,0.8,1.5,1.9,1.5
		c0.6,0,1.4-0.2,1.8-0.7l0.8,1.2c-0.7,0.6-1.7,0.9-2.8,0.9C668.7,156,667.2,154.6,667.2,152.4z M670.7,150.4c-1.1,0-1.6,0.8-1.7,1.4
		h3.3C672.3,151.2,671.9,150.4,670.7,150.4z"/>
	<path fill="#363636" d="M682.5,155.8v-0.7c-0.5,0.6-1.3,0.9-2.1,0.9c-1.1,0-2.3-0.7-2.3-2.2c0-1.6,1.3-2.2,2.3-2.2
		c0.9,0,1.7,0.3,2.1,0.8v-0.9c0-0.7-0.6-1.1-1.5-1.1c-0.7,0-1.4,0.3-1.9,0.8l-0.7-1.2c0.8-0.7,1.9-1.1,3-1.1c1.6,0,3,0.6,3,2.6v4.4
		H682.5z M682.5,154.2v-0.8c-0.3-0.4-0.9-0.6-1.4-0.6c-0.7,0-1.3,0.4-1.3,1s0.6,1,1.3,1C681.6,154.8,682.2,154.6,682.5,154.2z"/>
	<path fill="#363636" d="M686.1,154.1v-3.5H685v-1.6h1.1v-1.8h1.8v1.8h1.4v1.6h-1.4v3c0,0.4,0.2,0.8,0.6,0.8c0.3,0,0.5-0.1,0.6-0.2
		l0.4,1.4c-0.3,0.2-0.7,0.4-1.5,0.4C686.7,156,686.1,155.4,686.1,154.1z"/>
	<path fill="#363636" d="M690.6,154.1v-3.5h-1.1v-1.6h1.1v-1.8h1.8v1.8h1.4v1.6h-1.4v3c0,0.4,0.2,0.8,0.6,0.8c0.3,0,0.5-0.1,0.6-0.2
		l0.4,1.4c-0.3,0.2-0.7,0.4-1.5,0.4C691.2,156,690.6,155.4,690.6,154.1z"/>
	<path fill="#363636" d="M694.2,152.4c0-2,1.5-3.5,3.5-3.5c2,0,3.4,1.5,3.4,3.7v0.4h-5c0.1,0.8,0.8,1.5,1.9,1.5
		c0.6,0,1.4-0.2,1.8-0.7l0.8,1.2c-0.7,0.6-1.7,0.9-2.8,0.9C695.8,156,694.2,154.6,694.2,152.4z M697.7,150.4c-1.1,0-1.6,0.8-1.7,1.4
		h3.3C699.3,151.2,698.9,150.4,697.7,150.4z"/>
	<path fill="#363636" d="M701.9,147.3c0-0.6,0.5-1.1,1-1.1c0.6,0,1.1,0.5,1.1,1.1s-0.5,1.1-1.1,1.1
		C702.4,148.3,701.9,147.9,701.9,147.3z M702.1,155.8v-6.8h1.8v6.8H702.1z"/>
	<path fill="#363636" d="M710,155.8v-4.1c0-0.9-0.5-1.3-1.2-1.3c-0.7,0-1.2,0.4-1.5,0.8v4.6h-1.8v-6.8h1.8v0.9c0.4-0.5,1.3-1,2.4-1
		c1.5,0,2.2,0.8,2.2,2.2v4.8H710z"/>
	<path fill="#363636" d="M713.6,154.1v-3.5h-1.1v-1.6h1.1v-1.8h1.8v1.8h1.4v1.6h-1.4v3c0,0.4,0.2,0.8,0.6,0.8c0.3,0,0.5-0.1,0.6-0.2
		l0.4,1.4c-0.3,0.2-0.7,0.4-1.5,0.4C714.2,156,713.6,155.4,713.6,154.1z"/>
	<path fill="#363636" d="M717.2,152.4c0-2,1.5-3.5,3.5-3.5c2,0,3.4,1.5,3.4,3.7v0.4h-5c0.1,0.8,0.8,1.5,1.9,1.5
		c0.6,0,1.4-0.2,1.8-0.7l0.8,1.2c-0.7,0.6-1.7,0.9-2.8,0.9C718.8,156,717.2,154.6,717.2,152.4z M720.8,150.4c-1.1,0-1.6,0.8-1.7,1.4
		h3.3C722.4,151.2,721.9,150.4,720.8,150.4z"/>
</g>
<g>
	<path fill="#363636" d="M583.5,172.6v-0.9c-0.5,0.7-1.3,1-2.1,1c-1.7,0-3-1.3-3-3.6c0-2.2,1.3-3.5,3-3.5c0.8,0,1.6,0.3,2.1,1v-3.4
		h1.8v9.3H583.5z M583.5,170.5v-2.4c-0.3-0.4-0.9-0.8-1.5-0.8c-1,0-1.7,0.8-1.7,2c0,1.2,0.7,2,1.7,2
		C582.6,171.2,583.2,170.9,583.5,170.5z"/>
	<path fill="#363636" d="M591.4,172.6v-0.9c-0.5,0.5-1.3,1-2.4,1c-1.5,0-2.2-0.8-2.2-2.1v-4.8h1.8v4.1c0,0.9,0.5,1.2,1.2,1.2
		c0.7,0,1.2-0.4,1.5-0.8v-4.6h1.8v6.8H591.4z"/>
	<path fill="#363636" d="M600.2,172.6V165h-2.7v-1.8h7.5v1.8h-2.7v7.6H600.2z"/>
	<path fill="#363636" d="M608,172.6V165h-2.7v-1.8h7.5v1.8H610v7.6H608z"/>
	<path fill="#363636" d="M621.1,172.6v-0.7c-0.5,0.6-1.3,0.9-2.1,0.9c-1.1,0-2.3-0.7-2.3-2.2c0-1.6,1.3-2.2,2.3-2.2
		c0.9,0,1.7,0.3,2.1,0.8v-0.9c0-0.7-0.6-1.1-1.5-1.1c-0.7,0-1.4,0.3-1.9,0.8l-0.7-1.2c0.8-0.7,1.9-1.1,3-1.1c1.6,0,3,0.6,3,2.6v4.4
		H621.1z M621.1,171v-0.8c-0.3-0.4-0.9-0.6-1.4-0.6c-0.7,0-1.3,0.4-1.3,1s0.6,1,1.3,1C620.3,171.6,620.8,171.4,621.1,171z"/>
	<path fill="#363636" d="M627.7,172.6v-9.3h1.8v3.4c0.5-0.7,1.3-1,2.1-1c1.7,0,3,1.3,3,3.5c0,2.3-1.3,3.6-3,3.6
		c-0.8,0-1.6-0.4-2.1-1v0.9H627.7z M631,171.2c1,0,1.7-0.8,1.7-2c0-1.2-0.7-2-1.7-2c-0.6,0-1.2,0.3-1.5,0.8v2.4
		C629.8,170.9,630.4,171.2,631,171.2z"/>
	<path fill="#363636" d="M635.2,169.2c0-2,1.5-3.5,3.5-3.5c2,0,3.4,1.5,3.4,3.7v0.4h-5c0.1,0.8,0.8,1.5,1.9,1.5
		c0.6,0,1.4-0.2,1.8-0.7l0.8,1.2c-0.7,0.6-1.7,0.9-2.8,0.9C636.8,172.8,635.2,171.4,635.2,169.2z M638.7,167.2
		c-1.1,0-1.6,0.8-1.7,1.4h3.3C640.3,168,639.9,167.2,638.7,167.2z"/>
	<path fill="#363636" d="M642.5,171.8l0.8-1.3c0.5,0.5,1.5,0.9,2.3,0.9c0.8,0,1.1-0.3,1.1-0.7c0-1.1-4-0.2-4-2.9
		c0-1.1,1-2.1,2.8-2.1c1.1,0,2,0.4,2.7,0.9l-0.7,1.3c-0.4-0.4-1.2-0.8-2-0.8c-0.6,0-1.1,0.3-1.1,0.7c0,1,4,0.2,4,2.9
		c0,1.2-1.1,2.2-2.9,2.2C644.4,172.8,643.2,172.4,642.5,171.8z"/>
	<path fill="#363636" d="M649.1,169.2c0-1.9,1.3-3.5,3.6-3.5c2.2,0,3.6,1.6,3.6,3.5s-1.3,3.6-3.6,3.6
		C650.4,172.8,649.1,171.2,649.1,169.2z M654.4,169.2c0-1.1-0.6-2-1.7-2c-1.1,0-1.7,0.9-1.7,2c0,1.1,0.6,2,1.7,2
		C653.8,171.2,654.4,170.3,654.4,169.2z"/>
	<path fill="#363636" d="M657.1,164.1c0-0.6,0.5-1.1,1-1.1c0.6,0,1.1,0.5,1.1,1.1s-0.5,1.1-1.1,1.1
		C657.6,165.1,657.1,164.7,657.1,164.1z M657.3,172.6v-6.8h1.8v6.8H657.3z"/>
	<path fill="#363636" d="M665.1,172.6v-4.1c0-0.9-0.5-1.3-1.2-1.3c-0.7,0-1.2,0.4-1.5,0.8v4.6h-1.8v-6.8h1.8v0.9
		c0.4-0.5,1.3-1,2.4-1c1.5,0,2.2,0.8,2.2,2.2v4.8H665.1z"/>
	<path fill="#363636" d="M676.4,172.6v-0.9c-0.5,0.7-1.3,1-2.1,1c-1.7,0-3-1.3-3-3.6c0-2.2,1.3-3.5,3-3.5c0.8,0,1.6,0.3,2.1,1v-3.4
		h1.8v9.3H676.4z M676.4,170.5v-2.4c-0.3-0.4-0.9-0.8-1.5-0.8c-1,0-1.7,0.8-1.7,2c0,1.2,0.7,2,1.7,2
		C675.4,171.2,676.1,170.9,676.4,170.5z"/>
	<path fill="#363636" d="M680.3,167.2l-0.8-0.6c0.4-0.2,1-0.8,1.1-1.3c0,0-0.2,0-0.3,0c-0.5,0-1-0.4-1-1c0-0.6,0.5-1.1,1.1-1.1
		c0.7,0,1.2,0.5,1.2,1.4C681.8,165.6,681.2,166.6,680.3,167.2z"/>
	<path fill="#363636" d="M687.5,172.6v-0.9c-0.5,0.5-1.3,1-2.4,1c-1.5,0-2.2-0.8-2.2-2.1v-4.8h1.8v4.1c0,0.9,0.5,1.2,1.2,1.2
		c0.7,0,1.2-0.4,1.5-0.8v-4.6h1.8v6.8H687.5z"/>
	<path fill="#363636" d="M695.4,172.6v-4.1c0-0.9-0.5-1.3-1.2-1.3c-0.7,0-1.2,0.4-1.5,0.8v4.6h-1.8v-6.8h1.8v0.9
		c0.4-0.5,1.3-1,2.4-1c1.5,0,2.2,0.8,2.2,2.2v4.8H695.4z"/>
	<path fill="#363636" d="M698.2,169.2c0-2,1.5-3.5,3.5-3.5c2,0,3.4,1.5,3.4,3.7v0.4h-5c0.1,0.8,0.8,1.5,1.9,1.5
		c0.6,0,1.4-0.2,1.8-0.7l0.8,1.2c-0.7,0.6-1.7,0.9-2.8,0.9C699.8,172.8,698.2,171.4,698.2,169.2z M701.7,167.2
		c-1.1,0-1.6,0.8-1.7,1.4h3.3C703.3,168,702.9,167.2,701.7,167.2z"/>
</g>
<g>
	<path fill="#363636" d="M578.7,180.9c0-0.6,0.5-1.1,1-1.1c0.6,0,1.1,0.5,1.1,1.1s-0.5,1.1-1.1,1.1
		C579.2,181.9,578.7,181.5,578.7,180.9z M578.9,189.4v-6.8h1.8v6.8H578.9z"/>
	<path fill="#363636" d="M586.7,189.4v-4.1c0-0.9-0.5-1.3-1.2-1.3c-0.7,0-1.2,0.4-1.5,0.8v4.6h-1.8v-6.8h1.8v0.9
		c0.4-0.5,1.3-1,2.4-1c1.5,0,2.2,0.8,2.2,2.2v4.8H586.7z"/>
	<path fill="#363636" d="M590.3,187.7v-3.5h-1.1v-1.6h1.1v-1.8h1.8v1.8h1.4v1.6h-1.4v3c0,0.4,0.2,0.8,0.6,0.8c0.3,0,0.5-0.1,0.6-0.2
		l0.4,1.4c-0.3,0.2-0.7,0.4-1.5,0.4C591,189.6,590.3,189,590.3,187.7z"/>
	<path fill="#363636" d="M594,186c0-2,1.5-3.5,3.5-3.5c2,0,3.4,1.5,3.4,3.7v0.4h-5c0.1,0.8,0.8,1.5,1.9,1.5c0.6,0,1.4-0.2,1.8-0.7
		l0.8,1.2c-0.7,0.6-1.7,0.9-2.8,0.9C595.6,189.6,594,188.2,594,186z M597.5,184c-1.1,0-1.6,0.8-1.7,1.4h3.3
		C599.1,184.8,598.7,184,597.5,184z"/>
	<path fill="#363636" d="M601.9,189.4v-6.8h1.8v0.9c0.5-0.6,1.3-1.1,2.2-1.1v1.7c-0.1,0-0.3,0-0.5,0c-0.6,0-1.4,0.3-1.7,0.8v4.5
		H601.9z"/>
	<path fill="#363636" d="M608.4,189.4l-2.7-6.8h1.9l1.8,4.7l1.8-4.7h1.9l-2.7,6.8H608.4z"/>
	<path fill="#363636" d="M613.2,186c0-2,1.5-3.5,3.5-3.5c2,0,3.4,1.5,3.4,3.7v0.4h-5c0.1,0.8,0.8,1.5,1.9,1.5c0.6,0,1.4-0.2,1.8-0.7
		l0.8,1.2c-0.7,0.6-1.7,0.9-2.8,0.9C614.7,189.6,613.2,188.2,613.2,186z M616.7,184c-1.1,0-1.6,0.8-1.7,1.4h3.3
		C618.3,184.8,617.8,184,616.7,184z"/>
	<path fill="#363636" d="M625.6,189.4v-4.1c0-0.9-0.5-1.3-1.2-1.3c-0.7,0-1.2,0.4-1.5,0.8v4.6h-1.8v-6.8h1.8v0.9
		c0.4-0.5,1.3-1,2.4-1c1.5,0,2.2,0.8,2.2,2.2v4.8H625.6z"/>
	<path fill="#363636" d="M629.3,187.7v-3.5h-1.1v-1.6h1.1v-1.8h1.8v1.8h1.4v1.6H631v3c0,0.4,0.2,0.8,0.6,0.8c0.3,0,0.5-0.1,0.6-0.2
		l0.4,1.4c-0.3,0.2-0.7,0.4-1.5,0.4C629.9,189.6,629.3,189,629.3,187.7z"/>
	<path fill="#363636" d="M633.2,180.9c0-0.6,0.5-1.1,1-1.1c0.6,0,1.1,0.5,1.1,1.1s-0.5,1.1-1.1,1.1
		C633.7,181.9,633.2,181.5,633.2,180.9z M633.3,189.4v-6.8h1.8v6.8H633.3z"/>
	<path fill="#363636" d="M636.2,186c0-1.9,1.3-3.5,3.6-3.5c2.2,0,3.6,1.6,3.6,3.5s-1.3,3.6-3.6,3.6C637.5,189.6,636.2,188,636.2,186
		z M641.5,186c0-1.1-0.6-2-1.7-2c-1.1,0-1.7,0.9-1.7,2c0,1.1,0.6,2,1.7,2C640.9,188,641.5,187.1,641.5,186z"/>
	<path fill="#363636" d="M649,189.4v-4.1c0-0.9-0.5-1.3-1.2-1.3c-0.7,0-1.2,0.4-1.5,0.8v4.6h-1.8v-6.8h1.8v0.9c0.4-0.5,1.3-1,2.4-1
		c1.5,0,2.2,0.8,2.2,2.2v4.8H649z"/>
	<path fill="#363636" d="M655.2,184.8c0-2.9,2.2-4.8,5-4.8c2,0,3.2,1.1,3.9,2.3l-1.7,0.8c-0.4-0.8-1.2-1.4-2.2-1.4
		c-1.7,0-2.9,1.3-2.9,3.1c0,1.8,1.2,3.1,2.9,3.1c1,0,1.8-0.6,2.2-1.4l1.7,0.8c-0.7,1.2-1.8,2.3-3.9,2.3
		C657.3,189.6,655.2,187.6,655.2,184.8z"/>
	<path fill="#363636" d="M671.3,189.4v-3.9h-4.4v3.9h-2v-9.3h2v3.7h4.4v-3.7h2v9.3H671.3z"/>
	<path fill="#363636" d="M674.6,188.5c0-0.6,0.5-1.1,1.1-1.1s1.1,0.5,1.1,1.1s-0.5,1.1-1.1,1.1S674.6,189.1,674.6,188.5z"/>
</g>
<rect x="768" fill="#181716" width="192" height="137"/>
<g>
	<defs>
		<rect id="SVGID_1_" width="960" height="211.7"/>
	</defs>
	<clipPath id="SVGID_2_">
		<use xlink:href="#SVGID_1_"  overflow="visible"/>
	</clipPath>
	
		<rect x="768" clip-path="url(#SVGID_2_)" fill="none" stroke="#FFFFFF" stroke-width="2" stroke-miterlimit="10" width="192" height="137"/>
</g>
<g>
	<path fill="#FFFFFF" d="M807,36.4c0-8.2,6.2-13.8,14.4-13.8c6.4,0,9.9,3.6,11.6,7.1l-5.9,2.8c-0.9-2.1-3.2-3.9-5.7-3.9
		c-4.4,0-7.4,3.3-7.4,7.7c0,4.4,3.1,7.7,7.4,7.7c2.6,0,4.8-1.8,5.7-3.9l5.9,2.8c-1.7,3.4-5.2,7.2-11.6,7.2
		C813.3,50.2,807,44.6,807,36.4z"/>
	<path fill="#FFFFFF" d="M834,36.4c0-8.1,6.1-13.8,14.3-13.8s14.2,5.7,14.2,13.8s-6.1,13.8-14.2,13.8S834,44.5,834,36.4z
		 M855.5,36.4c0-4.4-2.8-7.7-7.2-7.7S841,32,841,36.4c0,4.3,2.9,7.7,7.3,7.7S855.5,40.7,855.5,36.4z"/>
</g>
<g>
	<path fill="#FFFFFF" d="M806.5,65.3c0-3.7,2.8-6.2,6.4-6.2c3.7,0,6.4,2.6,6.4,6.2c0,3.7-2.7,6.2-6.4,6.2
		C809.2,71.5,806.5,68.9,806.5,65.3z M816.2,65.3c0-2-1.3-3.5-3.3-3.5c-2,0-3.3,1.5-3.3,3.5c0,1.9,1.3,3.5,3.3,3.5
		C814.9,68.8,816.2,67.2,816.2,65.3z"/>
	<path fill="#FFFFFF" d="M823.2,70.3v4.3h-2.8v-12h2.8v1c0.7-0.8,1.6-1.2,2.6-1.2c2.2,0,3.8,1.6,3.8,4.6c0,3-1.6,4.6-3.8,4.6
		C824.8,71.5,823.9,71.1,823.2,70.3z M826.8,66.9c0-1.3-0.8-2.1-1.9-2.1c-0.6,0-1.3,0.3-1.7,0.8v2.6c0.3,0.5,1.1,0.8,1.7,0.8
		C826,69,826.8,68.2,826.8,66.9z"/>
	<path fill="#FFFFFF" d="M835.8,71.3v-0.9c-0.5,0.6-1.6,1.1-2.7,1.1c-1.3,0-3-0.9-3-2.9c0-2.1,1.7-2.8,3-2.8c1.2,0,2.2,0.4,2.7,1V66
		c0-0.8-0.6-1.3-1.8-1.3c-0.9,0-1.7,0.3-2.4,0.9l-1-1.9c1.1-1,2.6-1.4,3.9-1.4c2.1,0,4.1,0.8,4.1,3.5v5.4H835.8z M835.8,69v-0.8
		c-0.3-0.4-0.9-0.6-1.5-0.6c-0.7,0-1.4,0.3-1.4,1s0.7,1,1.4,1C834.9,69.7,835.6,69.5,835.8,69z"/>
	<path fill="#FFFFFF" d="M839.7,66.9c0-2.7,2-4.6,4.7-4.6c1.9,0,3,0.8,3.6,1.6l-1.8,1.7c-0.3-0.5-0.9-0.8-1.6-0.8
		c-1.2,0-2,0.8-2,2.1s0.9,2.1,2,2.1c0.7,0,1.3-0.4,1.6-0.8l1.8,1.7c-0.5,0.8-1.7,1.6-3.6,1.6C841.7,71.5,839.7,69.6,839.7,66.9z"/>
	<path fill="#FFFFFF" d="M848.7,60.2c0-0.9,0.7-1.6,1.6-1.6c0.9,0,1.6,0.7,1.6,1.6s-0.7,1.6-1.6,1.6
		C849.4,61.8,848.7,61.1,848.7,60.2z M848.9,71.3v-8.7h2.8v8.7H848.9z"/>
	<path fill="#FFFFFF" d="M854,68.9v-4h-1.4v-2.4h1.4v-2.4h2.8v2.4h1.8V65h-1.8v3.2c0,0.5,0.3,0.9,0.8,0.9c0.3,0,0.6-0.1,0.7-0.2
		l0.5,2.1c-0.3,0.3-1,0.6-2.1,0.6C854.9,71.5,854,70.6,854,68.9z"/>
	<path fill="#FFFFFF" d="M859,66.9c0-2.5,1.9-4.6,4.6-4.6c2.6,0,4.4,1.9,4.4,4.8v0.6h-6.2c0.2,0.8,0.9,1.4,2.2,1.4
		c0.6,0,1.6-0.3,2.1-0.7l1.2,1.8c-0.9,0.8-2.3,1.2-3.6,1.2C861,71.5,859,69.7,859,66.9z M863.6,64.6c-1.2,0-1.7,0.7-1.8,1.4h3.6
		C865.3,65.3,864.8,64.6,863.6,64.6z M863.9,61.3H862l2.3-2.6h2.4L863.9,61.3z"/>
</g>
<g>
	<path fill="#FFFFFF" d="M810.7,88.5c0-2.7,2-4.6,4.7-4.6c1.9,0,3,0.8,3.6,1.6l-1.8,1.7c-0.3-0.5-0.9-0.8-1.6-0.8
		c-1.2,0-2,0.8-2,2.1s0.9,2.1,2,2.1c0.7,0,1.3-0.4,1.6-0.8l1.8,1.7c-0.5,0.8-1.7,1.6-3.6,1.6C812.7,93.1,810.7,91.2,810.7,88.5z"/>
	<path fill="#FFFFFF" d="M819.4,88.5c0-2.4,1.8-4.6,4.7-4.6c3,0,4.8,2.1,4.8,4.6s-1.8,4.6-4.8,4.6C821.1,93.1,819.4,91,819.4,88.5z
		 M826,88.5c0-1.2-0.7-2.1-1.9-2.1c-1.2,0-1.9,1-1.9,2.1c0,1.2,0.7,2.1,1.9,2.1C825.3,90.6,826,89.7,826,88.5z"/>
	<path fill="#FFFFFF" d="M829.9,92.9v-8.7h2.8v1.1c0.6-0.7,1.7-1.3,2.7-1.3v2.7c-0.2-0.1-0.4-0.1-0.7-0.1c-0.7,0-1.7,0.3-2,0.8v5.5
		H829.9z"/>
	<path fill="#FFFFFF" d="M842.2,92.9v-5c0-1.1-0.6-1.4-1.4-1.4c-0.8,0-1.4,0.5-1.7,0.8v5.6h-2.8v-8.7h2.8v1.1c0.5-0.6,1.5-1.3,3-1.3
		c2,0,2.9,1.2,2.9,2.8v6.2H842.2z"/>
	<path fill="#FFFFFF" d="M846.1,88.5c0-2.5,1.9-4.6,4.6-4.6c2.6,0,4.4,1.9,4.4,4.8v0.6H849c0.2,0.8,0.9,1.4,2.2,1.4
		c0.6,0,1.6-0.3,2.1-0.7l1.2,1.8c-0.9,0.8-2.3,1.2-3.6,1.2C848.2,93.1,846.1,91.3,846.1,88.5z M850.7,86.2c-1.2,0-1.7,0.7-1.8,1.4
		h3.6C852.5,86.9,852,86.2,850.7,86.2z M851,82.9h-1.9l2.3-2.6h2.4L851,82.9z"/>
	<path fill="#FFFFFF" d="M855.6,88.5c0-2.5,1.9-4.6,4.6-4.6c2.6,0,4.4,1.9,4.4,4.8v0.6h-6.2c0.2,0.8,0.9,1.4,2.2,1.4
		c0.6,0,1.6-0.3,2.1-0.7l1.2,1.8c-0.9,0.8-2.3,1.2-3.6,1.2C857.7,93.1,855.6,91.3,855.6,88.5z M860.3,86.2c-1.2,0-1.7,0.7-1.8,1.4
		h3.6C862,86.9,861.5,86.2,860.3,86.2z"/>
	<path fill="#FFFFFF" d="M871.6,92.9v-5c0-1.1-0.6-1.4-1.4-1.4c-0.8,0-1.4,0.5-1.7,0.8v5.6h-2.8v-8.7h2.8v1.1c0.5-0.6,1.5-1.3,3-1.3
		c2,0,2.9,1.2,2.9,2.8v6.2H871.6z"/>
	<path fill="#FFFFFF" d="M881.9,92.9v-5c0-1.1-0.6-1.4-1.4-1.4c-0.8,0-1.4,0.5-1.7,0.8v5.6h-2.8v-8.7h2.8v1.1c0.5-0.6,1.5-1.3,3-1.3
		c2,0,2.9,1.2,2.9,2.8v6.2H881.9z"/>
	<path fill="#FFFFFF" d="M885.8,88.5c0-2.5,1.9-4.6,4.6-4.6c2.6,0,4.4,1.9,4.4,4.8v0.6h-6.2c0.2,0.8,0.9,1.4,2.2,1.4
		c0.6,0,1.6-0.3,2.1-0.7l1.2,1.8c-0.9,0.8-2.3,1.2-3.6,1.2C887.9,93.1,885.8,91.3,885.8,88.5z M890.4,86.2c-1.2,0-1.7,0.7-1.8,1.4
		h3.6C892.2,86.9,891.7,86.2,890.4,86.2z"/>
</g>
<polygon fill="#2C2136" points="576,0 576,137 768,137 768,93 795.5,65.5 768,38 768,0 "/>
<g>
	<defs>
		<rect id="SVGID_3_" width="960" height="211.7"/>
	</defs>
	<clipPath id="SVGID_4_">
		<use xlink:href="#SVGID_3_"  overflow="visible"/>
	</clipPath>
	<polygon clip-path="url(#SVGID_4_)" fill="none" stroke="#FFFFFF" stroke-width="2" stroke-miterlimit="10" points="795.5,65.5 
		768,38 768,0 576,0 576,137 768,137 768,93 	"/>
</g>
<polygon fill="#3C2A4F" points="384,0 384,137 576,137 576,93 603.5,65.5 576,38 576,0 "/>
<g>
	<defs>
		<rect id="SVGID_5_" width="960" height="211.7"/>
	</defs>
	<clipPath id="SVGID_6_">
		<use xlink:href="#SVGID_5_"  overflow="visible"/>
	</clipPath>
	<polygon clip-path="url(#SVGID_6_)" fill="none" stroke="#FFFFFF" stroke-width="2" stroke-miterlimit="10" points="603.5,65.5 
		576,38 576,0 384,0 384,137 576,137 576,93 	"/>
</g>
<g>
	<path fill="#FFFFFF" d="M630.4,49.7V29h-7.5v-6h21.8v6h-7.4v20.7H630.4z"/>
	<path fill="#FFFFFF" d="M653.2,49.7V29h-7.5v-6h21.8v6H660v20.7H653.2z"/>
</g>
<g>
	<path fill="#FFFFFF" d="M625.8,71.3V62h-3.4v-2.7h9.8V62h-3.3v9.3H625.8z"/>
	<path fill="#FFFFFF" d="M633.3,71.3v-8.7h2.8v1.1c0.6-0.7,1.7-1.3,2.7-1.3V65c-0.2-0.1-0.4-0.1-0.7-0.1c-0.7,0-1.7,0.3-2,0.8v5.5
		H633.3z"/>
	<path fill="#FFFFFF" d="M639.5,60.2c0-0.9,0.7-1.6,1.6-1.6c0.9,0,1.6,0.7,1.6,1.6s-0.7,1.6-1.6,1.6
		C640.2,61.8,639.5,61.1,639.5,60.2z M639.7,71.3v-8.7h2.8v8.7H639.7z"/>
	<path fill="#FFFFFF" d="M643.6,66.9c0-2.7,2-4.6,4.7-4.6c1.9,0,3,0.8,3.6,1.6l-1.8,1.7c-0.3-0.5-0.9-0.8-1.6-0.8
		c-1.2,0-2,0.8-2,2.1s0.9,2.1,2,2.1c0.7,0,1.3-0.4,1.6-0.8l1.8,1.7c-0.5,0.8-1.7,1.6-3.6,1.6C645.6,71.5,643.6,69.6,643.6,66.9z"/>
	<path fill="#FFFFFF" d="M658.7,71.3v-5.1c0-1.1-0.6-1.4-1.4-1.4c-0.8,0-1.4,0.5-1.7,0.8v5.6h-2.8v-12h2.8v4.4
		c0.5-0.6,1.5-1.3,3-1.3c2,0,2.9,1.1,2.9,2.7v6.2H658.7z"/>
	<path fill="#FFFFFF" d="M662.9,60.2c0-0.9,0.7-1.6,1.6-1.6c0.9,0,1.6,0.7,1.6,1.6s-0.7,1.6-1.6,1.6
		C663.6,61.8,662.9,61.1,662.9,60.2z M663.1,71.3v-8.7h2.8v8.7H663.1z"/>
	<path fill="#FFFFFF" d="M672.7,71.3v-0.9c-0.5,0.6-1.6,1.1-2.7,1.1c-1.3,0-3-0.9-3-2.9c0-2.1,1.7-2.8,3-2.8c1.2,0,2.2,0.4,2.7,1V66
		c0-0.8-0.6-1.3-1.8-1.3c-0.9,0-1.7,0.3-2.4,0.9l-1-1.9c1.1-1,2.6-1.4,3.9-1.4c2.1,0,4.1,0.8,4.1,3.5v5.4H672.7z M672.7,69v-0.8
		c-0.3-0.4-0.9-0.6-1.5-0.6c-0.7,0-1.4,0.3-1.4,1s0.7,1,1.4,1C671.8,69.7,672.4,69.5,672.7,69z"/>
	<path fill="#FFFFFF" d="M676.4,70.1l1.2-2c0.6,0.6,2,1.2,3.1,1.2c0.8,0,1.2-0.2,1.2-0.6c0-1.1-5.1,0-5.1-3.5c0-1.5,1.3-2.9,3.7-2.9
		c1.5,0,2.7,0.5,3.6,1.2l-1.1,2c-0.5-0.5-1.5-1-2.6-1c-0.6,0-1.1,0.3-1.1,0.6c0,1,5,0,5,3.5c0,1.7-1.5,2.8-3.9,2.8
		C678.9,71.5,677.3,71,676.4,70.1z"/>
	<path fill="#FFFFFF" d="M685.3,60.2c0-0.9,0.7-1.6,1.6-1.6c0.9,0,1.6,0.7,1.6,1.6s-0.7,1.6-1.6,1.6C686,61.8,685.3,61.1,685.3,60.2
		z M685.5,71.3v-8.7h2.8v8.7H685.5z"/>
	<path fill="#FFFFFF" d="M689.2,70.1l1.2-2c0.6,0.6,2,1.2,3.1,1.2c0.8,0,1.2-0.2,1.2-0.6c0-1.1-5.1,0-5.1-3.5c0-1.5,1.3-2.9,3.7-2.9
		c1.5,0,2.7,0.5,3.6,1.2l-1.1,2c-0.5-0.5-1.5-1-2.6-1c-0.6,0-1.1,0.3-1.1,0.6c0,1,5,0,5,3.5c0,1.7-1.5,2.8-3.9,2.8
		C691.7,71.5,690.1,71,689.2,70.1z"/>
</g>
<g>
	<path fill="#FFFFFF" d="M623.6,90.5v-4h-1.4v-2.4h1.4v-2.4h2.8v2.4h1.8v2.4h-1.8v3.2c0,0.5,0.3,0.9,0.8,0.9c0.3,0,0.6-0.1,0.7-0.2
		l0.5,2.1c-0.3,0.3-1,0.6-2.1,0.6C624.5,93.1,623.6,92.2,623.6,90.5z"/>
	<path fill="#FFFFFF" d="M629.1,92.9v-8.7h2.8v1.1c0.6-0.7,1.7-1.3,2.7-1.3v2.7c-0.2-0.1-0.4-0.1-0.7-0.1c-0.7,0-1.7,0.3-2,0.8v5.5
		H629.1z"/>
	<path fill="#FFFFFF" d="M640.7,92.9V92c-0.5,0.6-1.6,1.1-2.7,1.1c-1.3,0-3-0.9-3-2.9c0-2.1,1.7-2.8,3-2.8c1.2,0,2.2,0.4,2.7,1v-0.9
		c0-0.8-0.6-1.3-1.8-1.3c-0.9,0-1.7,0.3-2.4,0.9l-1-1.9c1.1-1,2.6-1.4,3.9-1.4c2.1,0,4.1,0.8,4.1,3.5v5.4H640.7z M640.7,90.6v-0.8
		c-0.3-0.4-0.9-0.6-1.5-0.6c-0.7,0-1.4,0.3-1.4,1s0.7,1,1.4,1C639.8,91.3,640.4,91.1,640.7,90.6z"/>
	<path fill="#FFFFFF" d="M644.6,88.5c0-2.7,2-4.6,4.7-4.6c1.9,0,3,0.8,3.6,1.6l-1.8,1.7c-0.3-0.5-0.9-0.8-1.6-0.8
		c-1.2,0-2,0.8-2,2.1s0.9,2.1,2,2.1c0.7,0,1.3-0.4,1.6-0.8l1.8,1.7c-0.5,0.8-1.7,1.6-3.6,1.6C646.6,93.1,644.6,91.2,644.6,88.5z"/>
	<path fill="#FFFFFF" d="M659.7,92.9v-5.1c0-1.1-0.6-1.4-1.4-1.4c-0.8,0-1.4,0.5-1.7,0.8v5.6h-2.8v-12h2.8v4.4
		c0.5-0.6,1.5-1.3,3-1.3c2,0,2.9,1.1,2.9,2.7v6.2H659.7z"/>
	<path fill="#FFFFFF" d="M663.6,88.5c0-2.4,1.8-4.6,4.7-4.6c3,0,4.8,2.1,4.8,4.6s-1.8,4.6-4.8,4.6C665.3,93.1,663.6,91,663.6,88.5z
		 M670.2,88.5c0-1.2-0.7-2.1-1.9-2.1c-1.2,0-1.9,1-1.9,2.1c0,1.2,0.7,2.1,1.9,2.1C669.5,90.6,670.2,89.7,670.2,88.5z"/>
	<path fill="#FFFFFF" d="M685.1,92.9v-5.3c0-0.7-0.3-1.2-1.2-1.2c-0.8,0-1.3,0.5-1.6,0.8v5.6h-2.8v-5.3c0-0.7-0.3-1.2-1.1-1.2
		c-0.8,0-1.3,0.5-1.6,0.8v5.6h-2.8v-8.7h2.8v1.1c0.4-0.5,1.5-1.3,2.9-1.3c1.3,0,2.1,0.5,2.5,1.5c0.5-0.8,1.6-1.5,3-1.5
		c1.6,0,2.6,0.8,2.6,2.6v6.3H685.1z"/>
	<path fill="#FFFFFF" d="M694.7,92.9V92c-0.5,0.6-1.6,1.1-2.7,1.1c-1.3,0-3-0.9-3-2.9c0-2.1,1.7-2.8,3-2.8c1.2,0,2.2,0.4,2.7,1v-0.9
		c0-0.8-0.6-1.3-1.8-1.3c-0.9,0-1.7,0.3-2.4,0.9l-1-1.9c1.1-1,2.6-1.4,3.9-1.4c2.1,0,4.1,0.8,4.1,3.5v5.4H694.7z M694.7,90.6v-0.8
		c-0.3-0.4-0.9-0.6-1.5-0.6c-0.7,0-1.4,0.3-1.4,1s0.7,1,1.4,1C693.7,91.3,694.4,91.1,694.7,90.6z"/>
	<path fill="#FFFFFF" d="M699.7,90.5v-4h-1.4v-2.4h1.4v-2.4h2.8v2.4h1.8v2.4h-1.8v3.2c0,0.5,0.3,0.9,0.8,0.9c0.3,0,0.6-0.1,0.7-0.2
		l0.5,2.1c-0.3,0.3-1,0.6-2.1,0.6C700.6,93.1,699.7,92.2,699.7,90.5z"/>
	<path fill="#FFFFFF" d="M704.7,88.5c0-2.5,1.9-4.6,4.6-4.6c2.6,0,4.4,1.9,4.4,4.8v0.6h-6.2c0.2,0.8,0.9,1.4,2.2,1.4
		c0.6,0,1.6-0.3,2.1-0.7l1.2,1.8c-0.9,0.8-2.3,1.2-3.6,1.2C706.7,93.1,704.7,91.3,704.7,88.5z M709.3,86.2c-1.2,0-1.7,0.7-1.8,1.4
		h3.6C711,86.9,710.6,86.2,709.3,86.2z"/>
	<path fill="#FFFFFF" d="M720.6,92.9v-1c-0.5,0.6-1.5,1.3-3,1.3c-2,0-2.9-1.1-2.9-2.7v-6.2h2.8v5c0,1.1,0.5,1.4,1.4,1.4
		c0.8,0,1.3-0.4,1.7-0.8v-5.6h2.8v8.7H720.6z"/>
	<path fill="#FFFFFF" d="M730.4,92.9l-1.7-2.6l-1.7,2.6h-3l3-4.5l-2.8-4.2h3l1.5,2.4l1.5-2.4h3l-2.8,4.2l3,4.5H730.4z"/>
</g>
<polygon fill="#563779" points="192,0 192,137 384,137 384,93 411.5,65.5 384,38 384,0 "/>
<g>
	<defs>
		<rect id="SVGID_7_" width="960" height="211.7"/>
	</defs>
	<clipPath id="SVGID_8_">
		<use xlink:href="#SVGID_7_"  overflow="visible"/>
	</clipPath>
	<polygon clip-path="url(#SVGID_8_)" fill="none" stroke="#FFFFFF" stroke-width="2" stroke-miterlimit="10" points="411.5,65.5 
		384,38 384,0 192,0 192,137 384,137 384,93 	"/>
</g>
<polygon fill="#653F91" points="0,0 0,137 192,137 192,93 219.5,65.5 192,38 192,0 "/>
<g>
	<defs>
		<rect id="SVGID_9_" width="960" height="211.7"/>
	</defs>
	<clipPath id="SVGID_10_">
		<use xlink:href="#SVGID_9_"  overflow="visible"/>
	</clipPath>
	<polygon clip-path="url(#SVGID_10_)" fill="none" stroke="#FFFFFF" stroke-width="2" stroke-miterlimit="10" points="219.5,65.5 
		192,38 192,0 0,0 0,137 192,137 192,93 	"/>
</g>
<g>
	<path fill="#FFFFFF" d="M44.4,49.7V29h-7.5v-6h21.8v6h-7.4v20.7H44.4z"/>
	<path fill="#FFFFFF" d="M61.2,49.7V23h19.6v6H68.1v4.2h12.4v6H68.1v10.5H61.2z"/>
</g>
<g>
	<path fill="#FFFFFF" d="M37.1,71.3v-12h3.1v12H37.1z"/>
	<path fill="#FFFFFF" d="M47.8,71.3v-5c0-1.1-0.6-1.4-1.4-1.4c-0.8,0-1.4,0.5-1.7,0.8v5.6h-2.8v-8.7h2.8v1.1c0.5-0.6,1.5-1.3,3-1.3
		c2,0,2.9,1.2,2.9,2.8v6.2H47.8z"/>
	<path fill="#FFFFFF" d="M52.8,71.3V65h-1.4v-2.4h1.4v-0.2c0-2.2,1.4-3.3,3.1-3.3c0.8,0,1.4,0.1,1.9,0.3l-0.5,2.1
		c-0.2-0.1-0.4-0.2-0.7-0.2c-0.5,0-0.9,0.3-0.9,1.1v0.2h1.8V65h-1.8v6.3H52.8z M58.5,71.3v-12h2.8v12H58.5z"/>
	<path fill="#FFFFFF" d="M68.1,71.3v-0.9c-0.5,0.6-1.6,1.1-2.7,1.1c-1.3,0-3-0.9-3-2.9c0-2.1,1.7-2.8,3-2.8c1.2,0,2.2,0.4,2.7,1V66
		c0-0.8-0.6-1.3-1.8-1.3c-0.9,0-1.7,0.3-2.4,0.9l-1-1.9c1.1-1,2.6-1.4,3.9-1.4c2.1,0,4.1,0.8,4.1,3.5v5.4H68.1z M68.1,69v-0.8
		c-0.3-0.4-0.9-0.6-1.5-0.6c-0.7,0-1.4,0.3-1.4,1s0.7,1,1.4,1C67.2,69.7,67.8,69.5,68.1,69z"/>
	<path fill="#FFFFFF" d="M83.5,71.3V66c0-0.7-0.3-1.2-1.2-1.2c-0.8,0-1.3,0.5-1.6,0.8v5.6H78V66c0-0.7-0.3-1.2-1.1-1.2
		c-0.8,0-1.3,0.5-1.6,0.8v5.6h-2.8v-8.7h2.8v1.1c0.4-0.5,1.5-1.3,2.9-1.3c1.3,0,2.1,0.5,2.5,1.5c0.5-0.8,1.6-1.5,3-1.5
		c1.6,0,2.6,0.8,2.6,2.6v6.3H83.5z"/>
	<path fill="#FFFFFF" d="M98.9,71.3V66c0-0.7-0.3-1.2-1.2-1.2c-0.8,0-1.3,0.5-1.6,0.8v5.6h-2.8V66c0-0.7-0.3-1.2-1.1-1.2
		c-0.8,0-1.3,0.5-1.6,0.8v5.6h-2.8v-8.7h2.8v1.1c0.4-0.5,1.5-1.3,2.9-1.3c1.3,0,2.1,0.5,2.5,1.5c0.5-0.8,1.6-1.5,3-1.5
		c1.6,0,2.6,0.8,2.6,2.6v6.3H98.9z"/>
	<path fill="#FFFFFF" d="M108.5,71.3v-0.9c-0.5,0.6-1.6,1.1-2.7,1.1c-1.3,0-3-0.9-3-2.9c0-2.1,1.7-2.8,3-2.8c1.2,0,2.2,0.4,2.7,1V66
		c0-0.8-0.6-1.3-1.8-1.3c-0.9,0-1.7,0.3-2.4,0.9l-1-1.9c1.1-1,2.6-1.4,3.9-1.4c2.1,0,4.1,0.8,4.1,3.5v5.4H108.5z M108.5,69v-0.8
		c-0.3-0.4-0.9-0.6-1.5-0.6c-0.7,0-1.4,0.3-1.4,1s0.7,1,1.4,1C107.5,69.7,108.2,69.5,108.5,69z"/>
	<path fill="#FFFFFF" d="M113.5,68.9v-4H112v-2.4h1.4v-2.4h2.8v2.4h1.8V65h-1.8v3.2c0,0.5,0.3,0.9,0.8,0.9c0.3,0,0.6-0.1,0.7-0.2
		l0.5,2.1c-0.3,0.3-1,0.6-2.1,0.6C114.4,71.5,113.5,70.6,113.5,68.9z"/>
	<path fill="#FFFFFF" d="M118.8,60.2c0-0.9,0.7-1.6,1.6-1.6s1.6,0.7,1.6,1.6s-0.7,1.6-1.6,1.6S118.8,61.1,118.8,60.2z M119,71.3
		v-8.7h2.8v8.7H119z"/>
	<path fill="#FFFFFF" d="M122.9,66.9c0-2.4,1.8-4.6,4.7-4.6c3,0,4.8,2.1,4.8,4.6s-1.8,4.6-4.8,4.6C124.7,71.5,122.9,69.4,122.9,66.9
		z M129.5,66.9c0-1.2-0.7-2.1-1.9-2.1c-1.2,0-1.9,1-1.9,2.1c0,1.2,0.7,2.1,1.9,2.1C128.9,69,129.5,68.1,129.5,66.9z"/>
	<path fill="#FFFFFF" d="M139.4,71.3v-5c0-1.1-0.6-1.4-1.4-1.4c-0.8,0-1.4,0.5-1.7,0.8v5.6h-2.8v-8.7h2.8v1.1c0.5-0.6,1.5-1.3,3-1.3
		c2,0,2.9,1.2,2.9,2.8v6.2H139.4z"/>
</g>
<g>
	<path fill="#FFFFFF" d="M37.6,90.5v-4h-1.4v-2.4h1.4v-2.4h2.8v2.4h1.8v2.4h-1.8v3.2c0,0.5,0.3,0.9,0.8,0.9c0.3,0,0.6-0.1,0.7-0.2
		l0.5,2.1c-0.3,0.3-1,0.6-2.1,0.6C38.5,93.1,37.6,92.2,37.6,90.5z"/>
	<path fill="#FFFFFF" d="M43.1,92.9v-8.7h2.8v1.1c0.6-0.7,1.7-1.3,2.7-1.3v2.7c-0.2-0.1-0.4-0.1-0.7-0.1c-0.7,0-1.7,0.3-2,0.8v5.5
		H43.1z"/>
	<path fill="#FFFFFF" d="M54.7,92.9V92c-0.5,0.6-1.6,1.1-2.7,1.1c-1.3,0-3-0.9-3-2.9c0-2.1,1.7-2.8,3-2.8c1.2,0,2.2,0.4,2.7,1v-0.9
		c0-0.8-0.6-1.3-1.8-1.3c-0.9,0-1.7,0.3-2.4,0.9l-1-1.9c1.1-1,2.6-1.4,3.9-1.4c2.1,0,4.1,0.8,4.1,3.5v5.4H54.7z M54.7,90.6v-0.8
		c-0.3-0.4-0.9-0.6-1.5-0.6c-0.7,0-1.4,0.3-1.4,1s0.7,1,1.4,1C53.7,91.3,54.4,91.1,54.7,90.6z"/>
	<path fill="#FFFFFF" d="M58.6,88.5c0-2.7,2-4.6,4.7-4.6c1.9,0,3,0.8,3.6,1.6l-1.8,1.7c-0.3-0.5-0.9-0.8-1.6-0.8c-1.2,0-2,0.8-2,2.1
		s0.9,2.1,2,2.1c0.7,0,1.3-0.4,1.6-0.8l1.8,1.7c-0.5,0.8-1.7,1.6-3.6,1.6C60.6,93.1,58.6,91.2,58.6,88.5z"/>
	<path fill="#FFFFFF" d="M73.7,92.9v-5.1c0-1.1-0.6-1.4-1.4-1.4c-0.8,0-1.4,0.5-1.7,0.8v5.6h-2.8v-12h2.8v4.4c0.5-0.6,1.5-1.3,3-1.3
		c2,0,2.9,1.1,2.9,2.7v6.2H73.7z"/>
	<path fill="#FFFFFF" d="M77.5,88.5c0-2.4,1.8-4.6,4.7-4.6c3,0,4.8,2.1,4.8,4.6s-1.8,4.6-4.8,4.6C79.3,93.1,77.5,91,77.5,88.5z
		 M84.2,88.5c0-1.2-0.7-2.1-1.9-2.1c-1.2,0-1.9,1-1.9,2.1c0,1.2,0.7,2.1,1.9,2.1C83.5,90.6,84.2,89.7,84.2,88.5z"/>
	<path fill="#FFFFFF" d="M99.1,92.9v-5.3c0-0.7-0.3-1.2-1.2-1.2c-0.8,0-1.3,0.5-1.6,0.8v5.6h-2.8v-5.3c0-0.7-0.3-1.2-1.1-1.2
		c-0.8,0-1.3,0.5-1.6,0.8v5.6h-2.8v-8.7h2.8v1.1c0.4-0.5,1.5-1.3,2.9-1.3c1.3,0,2.1,0.5,2.5,1.5c0.5-0.8,1.6-1.5,3-1.5
		c1.6,0,2.6,0.8,2.6,2.6v6.3H99.1z"/>
	<path fill="#FFFFFF" d="M108.6,92.9V92c-0.5,0.6-1.6,1.1-2.7,1.1c-1.3,0-3-0.9-3-2.9c0-2.1,1.7-2.8,3-2.8c1.2,0,2.2,0.4,2.7,1v-0.9
		c0-0.8-0.6-1.3-1.8-1.3c-0.9,0-1.7,0.3-2.4,0.9l-1-1.9c1.1-1,2.6-1.4,3.9-1.4c2.1,0,4.1,0.8,4.1,3.5v5.4H108.6z M108.6,90.6v-0.8
		c-0.3-0.4-0.9-0.6-1.5-0.6c-0.7,0-1.4,0.3-1.4,1s0.7,1,1.4,1C107.7,91.3,108.4,91.1,108.6,90.6z"/>
	<path fill="#FFFFFF" d="M113.7,90.5v-4h-1.4v-2.4h1.4v-2.4h2.8v2.4h1.8v2.4h-1.8v3.2c0,0.5,0.3,0.9,0.8,0.9c0.3,0,0.6-0.1,0.7-0.2
		l0.5,2.1c-0.3,0.3-1,0.6-2.1,0.6C114.6,93.1,113.7,92.2,113.7,90.5z"/>
	<path fill="#FFFFFF" d="M118.7,88.5c0-2.5,1.9-4.6,4.6-4.6c2.6,0,4.4,1.9,4.4,4.8v0.6h-6.2c0.2,0.8,0.9,1.4,2.2,1.4
		c0.6,0,1.6-0.3,2.1-0.7l1.2,1.8c-0.9,0.8-2.3,1.2-3.6,1.2C120.7,93.1,118.7,91.3,118.7,88.5z M123.3,86.2c-1.2,0-1.7,0.7-1.8,1.4
		h3.6C125,86.9,124.5,86.2,123.3,86.2z"/>
	<path fill="#FFFFFF" d="M134.6,92.9v-1c-0.5,0.6-1.5,1.3-3,1.3c-2,0-2.9-1.1-2.9-2.7v-6.2h2.8v5c0,1.1,0.5,1.4,1.4,1.4
		c0.8,0,1.3-0.4,1.7-0.8v-5.6h2.8v8.7H134.6z"/>
	<path fill="#FFFFFF" d="M138.3,91.7l1.2-2c0.6,0.6,2,1.2,3.1,1.2c0.8,0,1.2-0.2,1.2-0.6c0-1.1-5.1,0-5.1-3.5c0-1.5,1.3-2.9,3.7-2.9
		c1.5,0,2.7,0.5,3.6,1.2l-1.1,2c-0.5-0.5-1.5-1-2.6-1c-0.6,0-1.1,0.3-1.1,0.6c0,1,5,0,5,3.5c0,1.7-1.5,2.8-3.9,2.8
		C140.8,93.1,139.2,92.6,138.3,91.7z"/>
	<path fill="#FFFFFF" d="M146.8,88.5c0-2.5,1.9-4.6,4.6-4.6c2.6,0,4.4,1.9,4.4,4.8v0.6h-6.2c0.2,0.8,0.9,1.4,2.2,1.4
		c0.6,0,1.6-0.3,2.1-0.7l1.2,1.8c-0.9,0.8-2.3,1.2-3.6,1.2C148.9,93.1,146.8,91.3,146.8,88.5z M151.4,86.2c-1.2,0-1.7,0.7-1.8,1.4
		h3.6C153.2,86.9,152.7,86.2,151.4,86.2z"/>
</g>
<g>
	<path fill="#FFFFFF" d="M36.5,111.3V109h9.6v2.3H36.5z"/>
	<path fill="#FFFFFF" d="M51.7,114.5v-12h8.8v2.7h-5.7v1.9h5.6v2.7h-5.6v4.7H51.7z"/>
	<path fill="#FFFFFF" d="M61.2,110.1c0-2.4,1.8-4.6,4.7-4.6c3,0,4.8,2.1,4.8,4.6c0,2.4-1.8,4.6-4.8,4.6
		C62.9,114.7,61.2,112.6,61.2,110.1z M67.8,110.1c0-1.2-0.7-2.1-1.9-2.1c-1.2,0-1.9,1-1.9,2.1c0,1.2,0.7,2.1,1.9,2.1
		C67.1,112.2,67.8,111.3,67.8,110.1z"/>
	<path fill="#FFFFFF" d="M71.7,114.5v-12h2.8v12H71.7z"/>
	<path fill="#FFFFFF" d="M76.2,114.5v-12H79v12H76.2z"/>
	<path fill="#FFFFFF" d="M80.4,103.4c0-0.9,0.7-1.6,1.6-1.6c0.9,0,1.6,0.7,1.6,1.6S82.9,105,82,105C81.1,105,80.4,104.3,80.4,103.4z
		 M80.6,114.5v-8.7h2.8v8.7H80.6z"/>
	<path fill="#FFFFFF" d="M84.5,110.1c0-2.7,2-4.6,4.7-4.6c1.9,0,3,0.8,3.6,1.6l-1.8,1.7c-0.3-0.5-0.9-0.8-1.6-0.8
		c-1.2,0-2,0.8-2,2.1s0.9,2.1,2,2.1c0.7,0,1.3-0.4,1.6-0.8l1.8,1.7c-0.5,0.8-1.7,1.6-3.6,1.6C86.5,114.7,84.5,112.8,84.5,110.1z"/>
	<path fill="#FFFFFF" d="M99.6,114.5v-1c-0.5,0.6-1.5,1.3-3,1.3c-2,0-2.9-1.1-2.9-2.7v-6.2h2.8v5c0,1.1,0.5,1.4,1.4,1.4
		c0.8,0,1.3-0.4,1.7-0.8v-5.6h2.8v8.7H99.6z"/>
	<path fill="#FFFFFF" d="M104,114.5v-12h2.8v12H104z"/>
	<path fill="#FFFFFF" d="M113.6,114.5v-0.9c-0.5,0.6-1.6,1.1-2.7,1.1c-1.3,0-3-0.9-3-2.9c0-2.1,1.7-2.8,3-2.8c1.2,0,2.2,0.4,2.7,1
		v-0.9c0-0.8-0.6-1.3-1.8-1.3c-0.9,0-1.7,0.3-2.4,0.9l-1-1.9c1.1-1,2.6-1.4,3.9-1.4c2.1,0,4.1,0.8,4.1,3.5v5.4H113.6z M113.6,112.2
		v-0.8c-0.3-0.4-0.9-0.6-1.5-0.6c-0.7,0-1.4,0.3-1.4,1c0,0.7,0.7,1,1.4,1C112.7,112.9,113.3,112.7,113.6,112.2z"/>
	<path fill="#FFFFFF" d="M117.8,103.4c0-0.9,0.7-1.6,1.6-1.6c0.9,0,1.6,0.7,1.6,1.6s-0.7,1.6-1.6,1.6
		C118.5,105,117.8,104.3,117.8,103.4z M118,114.5v-8.7h2.8v8.7H118z"/>
	<path fill="#FFFFFF" d="M122.5,114.5v-8.7h2.8v1.1c0.6-0.7,1.7-1.3,2.7-1.3v2.7c-0.2-0.1-0.4-0.1-0.7-0.1c-0.7,0-1.7,0.3-2,0.8v5.5
		H122.5z"/>
	<path fill="#FFFFFF" d="M128.3,110.1c0-2.5,1.9-4.6,4.6-4.6c2.6,0,4.4,1.9,4.4,4.8v0.6h-6.2c0.2,0.8,0.9,1.4,2.2,1.4
		c0.6,0,1.6-0.3,2.1-0.7l1.2,1.8c-0.9,0.8-2.3,1.2-3.6,1.2C130.4,114.7,128.3,112.9,128.3,110.1z M132.9,107.8
		c-1.2,0-1.7,0.7-1.8,1.4h3.6C134.6,108.5,134.2,107.8,132.9,107.8z"/>
</g>
<g>
	<path fill="#FFFFFF" d="M246.4,49.7V29h-7.5v-6h21.8v6h-7.4v20.7H246.4z"/>
	<path fill="#FFFFFF" d="M263.2,49.7V23h6.9v26.7H263.2z"/>
</g>
<g>
	<path fill="#FFFFFF" d="M243.3,71.3v-12h3.1v12H243.3z"/>
	<path fill="#FFFFFF" d="M254.1,71.3v-5c0-1.1-0.6-1.4-1.4-1.4c-0.8,0-1.4,0.5-1.7,0.8v5.6h-2.8v-8.7h2.8v1.1c0.5-0.6,1.5-1.3,3-1.3
		c2,0,2.9,1.2,2.9,2.8v6.2H254.1z"/>
	<path fill="#FFFFFF" d="M259.1,71.3V65h-1.4v-2.4h1.4v-0.2c0-2.2,1.4-3.3,3.1-3.3c0.8,0,1.4,0.1,1.9,0.3l-0.5,2.1
		c-0.2-0.1-0.4-0.2-0.7-0.2c-0.5,0-0.9,0.3-0.9,1.1v0.2h1.8V65h-1.8v6.3H259.1z M264.8,71.3v-12h2.8v12H264.8z"/>
	<path fill="#FFFFFF" d="M274.4,71.3v-0.9c-0.5,0.6-1.6,1.1-2.7,1.1c-1.3,0-3-0.9-3-2.9c0-2.1,1.7-2.8,3-2.8c1.2,0,2.2,0.4,2.7,1V66
		c0-0.8-0.6-1.3-1.8-1.3c-0.9,0-1.7,0.3-2.4,0.9l-1-1.9c1.1-1,2.6-1.4,3.9-1.4c2.1,0,4.1,0.8,4.1,3.5v5.4H274.4z M274.4,69v-0.8
		c-0.3-0.4-0.9-0.6-1.5-0.6c-0.7,0-1.4,0.3-1.4,1s0.7,1,1.4,1C273.4,69.7,274.1,69.5,274.4,69z"/>
	<path fill="#FFFFFF" d="M289.8,71.3V66c0-0.7-0.3-1.2-1.2-1.2c-0.8,0-1.3,0.5-1.6,0.8v5.6h-2.8V66c0-0.7-0.3-1.2-1.1-1.2
		c-0.8,0-1.3,0.5-1.6,0.8v5.6h-2.8v-8.7h2.8v1.1c0.4-0.5,1.5-1.3,2.9-1.3c1.3,0,2.1,0.5,2.5,1.5c0.5-0.8,1.6-1.5,3-1.5
		c1.6,0,2.6,0.8,2.6,2.6v6.3H289.8z"/>
	<path fill="#FFFFFF" d="M305.2,71.3V66c0-0.7-0.3-1.2-1.2-1.2c-0.8,0-1.3,0.5-1.6,0.8v5.6h-2.8V66c0-0.7-0.3-1.2-1.1-1.2
		c-0.8,0-1.3,0.5-1.6,0.8v5.6h-2.8v-8.7h2.8v1.1c0.4-0.5,1.5-1.3,2.9-1.3c1.3,0,2.1,0.5,2.5,1.5c0.5-0.8,1.6-1.5,3-1.5
		c1.6,0,2.6,0.8,2.6,2.6v6.3H305.2z"/>
	<path fill="#FFFFFF" d="M314.7,71.3v-0.9c-0.5,0.6-1.6,1.1-2.7,1.1c-1.3,0-3-0.9-3-2.9c0-2.1,1.7-2.8,3-2.8c1.2,0,2.2,0.4,2.7,1V66
		c0-0.8-0.6-1.3-1.8-1.3c-0.9,0-1.7,0.3-2.4,0.9l-1-1.9c1.1-1,2.6-1.4,3.9-1.4c2.1,0,4.1,0.8,4.1,3.5v5.4H314.7z M314.7,69v-0.8
		c-0.3-0.4-0.9-0.6-1.5-0.6c-0.7,0-1.4,0.3-1.4,1s0.7,1,1.4,1C313.8,69.7,314.4,69.5,314.7,69z"/>
	<path fill="#FFFFFF" d="M319.7,68.9v-4h-1.4v-2.4h1.4v-2.4h2.8v2.4h1.8V65h-1.8v3.2c0,0.5,0.3,0.9,0.8,0.9c0.3,0,0.6-0.1,0.7-0.2
		l0.5,2.1c-0.3,0.3-1,0.6-2.1,0.6C320.7,71.5,319.7,70.6,319.7,68.9z"/>
	<path fill="#FFFFFF" d="M325.1,60.2c0-0.9,0.7-1.6,1.6-1.6s1.6,0.7,1.6,1.6s-0.7,1.6-1.6,1.6S325.1,61.1,325.1,60.2z M325.3,71.3
		v-8.7h2.8v8.7H325.3z"/>
	<path fill="#FFFFFF" d="M329.2,66.9c0-2.4,1.8-4.6,4.7-4.6c3,0,4.8,2.1,4.8,4.6s-1.8,4.6-4.8,4.6C331,71.5,329.2,69.4,329.2,66.9z
		 M335.8,66.9c0-1.2-0.7-2.1-1.9-2.1c-1.2,0-1.9,1-1.9,2.1c0,1.2,0.7,2.1,1.9,2.1C335.1,69,335.8,68.1,335.8,66.9z"/>
	<path fill="#FFFFFF" d="M345.7,71.3v-5c0-1.1-0.6-1.4-1.4-1.4c-0.8,0-1.4,0.5-1.7,0.8v5.6h-2.8v-8.7h2.8v1.1c0.5-0.6,1.5-1.3,3-1.3
		c2,0,2.9,1.2,2.9,2.8v6.2H345.7z"/>
</g>
<g>
	<path fill="#FFFFFF" d="M239.6,90.5v-4h-1.4v-2.4h1.4v-2.4h2.8v2.4h1.8v2.4h-1.8v3.2c0,0.5,0.3,0.9,0.8,0.9c0.3,0,0.6-0.1,0.7-0.2
		l0.5,2.1c-0.3,0.3-1,0.6-2.1,0.6C240.5,93.1,239.6,92.2,239.6,90.5z"/>
	<path fill="#FFFFFF" d="M245.1,92.9v-8.7h2.8v1.1c0.6-0.7,1.7-1.3,2.7-1.3v2.7c-0.2-0.1-0.4-0.1-0.7-0.1c-0.7,0-1.7,0.3-2,0.8v5.5
		H245.1z"/>
	<path fill="#FFFFFF" d="M256.7,92.9V92c-0.5,0.6-1.6,1.1-2.7,1.1c-1.3,0-3-0.9-3-2.9c0-2.1,1.7-2.8,3-2.8c1.2,0,2.2,0.4,2.7,1v-0.9
		c0-0.8-0.6-1.3-1.8-1.3c-0.9,0-1.7,0.3-2.4,0.9l-1-1.9c1.1-1,2.6-1.4,3.9-1.4c2.1,0,4.1,0.8,4.1,3.5v5.4H256.7z M256.7,90.6v-0.8
		c-0.3-0.4-0.9-0.6-1.5-0.6c-0.7,0-1.4,0.3-1.4,1s0.7,1,1.4,1C255.7,91.3,256.4,91.1,256.7,90.6z"/>
	<path fill="#FFFFFF" d="M260.6,88.5c0-2.7,2-4.6,4.7-4.6c1.9,0,3,0.8,3.6,1.6l-1.8,1.7c-0.3-0.5-0.9-0.8-1.6-0.8
		c-1.2,0-2,0.8-2,2.1s0.9,2.1,2,2.1c0.7,0,1.3-0.4,1.6-0.8l1.8,1.7c-0.5,0.8-1.7,1.6-3.6,1.6C262.6,93.1,260.6,91.2,260.6,88.5z"/>
	<path fill="#FFFFFF" d="M275.7,92.9v-5.1c0-1.1-0.6-1.4-1.4-1.4c-0.8,0-1.4,0.5-1.7,0.8v5.6h-2.8v-12h2.8v4.4
		c0.5-0.6,1.5-1.3,3-1.3c2,0,2.9,1.1,2.9,2.7v6.2H275.7z"/>
	<path fill="#FFFFFF" d="M279.5,88.5c0-2.4,1.8-4.6,4.7-4.6c3,0,4.8,2.1,4.8,4.6s-1.8,4.6-4.8,4.6C281.3,93.1,279.5,91,279.5,88.5z
		 M286.2,88.5c0-1.2-0.7-2.1-1.9-2.1c-1.2,0-1.9,1-1.9,2.1c0,1.2,0.7,2.1,1.9,2.1C285.5,90.6,286.2,89.7,286.2,88.5z"/>
	<path fill="#FFFFFF" d="M301.1,92.9v-5.3c0-0.7-0.3-1.2-1.2-1.2c-0.8,0-1.3,0.5-1.6,0.8v5.6h-2.8v-5.3c0-0.7-0.3-1.2-1.1-1.2
		c-0.8,0-1.3,0.5-1.6,0.8v5.6h-2.8v-8.7h2.8v1.1c0.4-0.5,1.5-1.3,2.9-1.3c1.3,0,2.1,0.5,2.5,1.5c0.5-0.8,1.6-1.5,3-1.5
		c1.6,0,2.6,0.8,2.6,2.6v6.3H301.1z"/>
	<path fill="#FFFFFF" d="M310.7,92.9V92c-0.5,0.6-1.6,1.1-2.7,1.1c-1.3,0-3-0.9-3-2.9c0-2.1,1.7-2.8,3-2.8c1.2,0,2.2,0.4,2.7,1v-0.9
		c0-0.8-0.6-1.3-1.8-1.3c-0.9,0-1.7,0.3-2.4,0.9l-1-1.9c1.1-1,2.6-1.4,3.9-1.4c2.1,0,4.1,0.8,4.1,3.5v5.4H310.7z M310.7,90.6v-0.8
		c-0.3-0.4-0.9-0.6-1.5-0.6c-0.7,0-1.4,0.3-1.4,1s0.7,1,1.4,1C309.7,91.3,310.4,91.1,310.7,90.6z"/>
	<path fill="#FFFFFF" d="M315.7,90.5v-4h-1.4v-2.4h1.4v-2.4h2.8v2.4h1.8v2.4h-1.8v3.2c0,0.5,0.3,0.9,0.8,0.9c0.3,0,0.6-0.1,0.7-0.2
		l0.5,2.1c-0.3,0.3-1,0.6-2.1,0.6C316.6,93.1,315.7,92.2,315.7,90.5z"/>
	<path fill="#FFFFFF" d="M320.7,88.5c0-2.5,1.9-4.6,4.6-4.6c2.6,0,4.4,1.9,4.4,4.8v0.6h-6.2c0.2,0.8,0.9,1.4,2.2,1.4
		c0.6,0,1.6-0.3,2.1-0.7l1.2,1.8c-0.9,0.8-2.3,1.2-3.6,1.2C322.7,93.1,320.7,91.3,320.7,88.5z M325.3,86.2c-1.2,0-1.7,0.7-1.8,1.4
		h3.6C327,86.9,326.6,86.2,325.3,86.2z"/>
	<path fill="#FFFFFF" d="M336.6,92.9v-1c-0.5,0.6-1.5,1.3-3,1.3c-2,0-2.9-1.1-2.9-2.7v-6.2h2.8v5c0,1.1,0.5,1.4,1.4,1.4
		c0.8,0,1.3-0.4,1.7-0.8v-5.6h2.8v8.7H336.6z"/>
	<path fill="#FFFFFF" d="M340.3,91.7l1.2-2c0.6,0.6,2,1.2,3.1,1.2c0.8,0,1.2-0.2,1.2-0.6c0-1.1-5.1,0-5.1-3.5c0-1.5,1.3-2.9,3.7-2.9
		c1.5,0,2.7,0.5,3.6,1.2l-1.1,2c-0.5-0.5-1.5-1-2.6-1c-0.6,0-1.1,0.3-1.1,0.6c0,1,5,0,5,3.5c0,1.7-1.5,2.8-3.9,2.8
		C342.9,93.1,341.2,92.6,340.3,91.7z"/>
	<path fill="#FFFFFF" d="M348.9,88.5c0-2.5,1.9-4.6,4.6-4.6c2.6,0,4.4,1.9,4.4,4.8v0.6h-6.2c0.2,0.8,0.9,1.4,2.2,1.4
		c0.6,0,1.6-0.3,2.1-0.7l1.2,1.8c-0.9,0.8-2.3,1.2-3.6,1.2C350.9,93.1,348.9,91.3,348.9,88.5z M353.5,86.2c-1.2,0-1.7,0.7-1.8,1.4
		h3.6C355.2,86.9,354.8,86.2,353.5,86.2z"/>
</g>
<g>
	<path fill="#FFFFFF" d="M238.5,111.3V109h9.6v2.3H238.5z"/>
	<path fill="#FFFFFF" d="M253.7,114.5v-12h3.1v12H253.7z"/>
	<path fill="#FFFFFF" d="M264.4,114.5v-5c0-1.1-0.6-1.4-1.4-1.4c-0.8,0-1.4,0.5-1.7,0.8v5.6h-2.8v-8.7h2.8v1.1
		c0.5-0.6,1.5-1.3,3-1.3c2,0,2.9,1.2,2.9,2.8v6.2H264.4z"/>
	<path fill="#FFFFFF" d="M269.4,112.1v-4H268v-2.4h1.4v-2.4h2.8v2.4h1.8v2.4h-1.8v3.2c0,0.5,0.3,0.9,0.8,0.9c0.3,0,0.6-0.1,0.7-0.2
		l0.5,2.1c-0.3,0.3-1,0.6-2.1,0.6C270.4,114.7,269.4,113.8,269.4,112.1z"/>
	<path fill="#FFFFFF" d="M274.4,110.1c0-2.5,1.9-4.6,4.6-4.6c2.6,0,4.4,1.9,4.4,4.8v0.6h-6.2c0.2,0.8,0.9,1.4,2.2,1.4
		c0.6,0,1.6-0.3,2.1-0.7l1.2,1.8c-0.9,0.8-2.3,1.2-3.6,1.2C276.5,114.7,274.4,112.9,274.4,110.1z M279,107.8c-1.2,0-1.7,0.7-1.8,1.4
		h3.6C280.8,108.5,280.3,107.8,279,107.8z"/>
	<path fill="#FFFFFF" d="M290.4,114.5v-5c0-1.1-0.6-1.4-1.4-1.4c-0.8,0-1.4,0.5-1.7,0.8v5.6h-2.8v-8.7h2.8v1.1
		c0.5-0.6,1.5-1.3,3-1.3c2,0,2.9,1.2,2.9,2.8v6.2H290.4z"/>
	<path fill="#FFFFFF" d="M294.1,113.3l1.2-2c0.6,0.6,2,1.2,3.1,1.2c0.8,0,1.2-0.2,1.2-0.6c0-1.1-5.1,0-5.1-3.5
		c0-1.5,1.3-2.9,3.7-2.9c1.5,0,2.7,0.5,3.6,1.2l-1.1,2c-0.5-0.5-1.5-1-2.6-1c-0.6,0-1.1,0.3-1.1,0.6c0,1,5,0,5,3.5
		c0,1.7-1.5,2.8-3.9,2.8C296.6,114.7,295,114.2,294.1,113.3z"/>
	<path fill="#FFFFFF" d="M302.6,110.1c0-2.5,1.9-4.6,4.6-4.6c2.6,0,4.4,1.9,4.4,4.8v0.6h-6.2c0.2,0.8,0.9,1.4,2.2,1.4
		c0.6,0,1.6-0.3,2.1-0.7l1.2,1.8c-0.9,0.8-2.3,1.2-3.6,1.2C304.7,114.7,302.6,112.9,302.6,110.1z M307.2,107.8
		c-1.2,0-1.7,0.7-1.8,1.4h3.6C309,108.5,308.5,107.8,307.2,107.8z"/>
</g>
<g>
	<path fill="#FFFFFF" d="M438.4,49.7V29h-7.5v-6h21.8v6h-7.4v20.7H438.4z"/>
	<path fill="#FFFFFF" d="M453.3,45.9l3.6-5.4c1.9,1.9,4.9,3.5,8.6,3.5c2.3,0,3.8-0.8,3.8-2.1c0-3.5-15.1-0.6-15.1-10.9
		c0-4.5,3.8-8.5,10.6-8.5c4.3,0,8,1.3,10.8,3.7l-3.8,5.2c-2.2-1.9-5.2-2.8-7.8-2.8c-2,0-2.9,0.7-2.9,1.8c0,3.3,15.1,0.8,15.1,10.7
		c0,5.4-4,8.9-11.1,8.9C459.7,50.2,456,48.4,453.3,45.9z"/>
</g>
<g>
	<path fill="#FFFFFF" d="M430.5,65.3c0-3.7,2.8-6.2,6.5-6.2c2.9,0,4.5,1.6,5.2,3.2l-2.7,1.3c-0.4-1-1.4-1.7-2.6-1.7
		c-2,0-3.3,1.5-3.3,3.5c0,2,1.4,3.5,3.3,3.5c1.2,0,2.2-0.8,2.6-1.7l2.7,1.3c-0.8,1.5-2.3,3.2-5.2,3.2
		C433.3,71.5,430.5,69,430.5,65.3z"/>
	<path fill="#FFFFFF" d="M442.9,60.2c0-0.9,0.7-1.6,1.6-1.6c0.9,0,1.6,0.7,1.6,1.6s-0.7,1.6-1.6,1.6
		C443.6,61.8,442.9,61.1,442.9,60.2z M443.1,71.3v-8.7h2.8v8.7H443.1z"/>
	<path fill="#FFFFFF" d="M447,66.9c0-2.7,2-4.6,4.7-4.6c1.9,0,3,0.8,3.6,1.6l-1.8,1.7c-0.3-0.5-0.9-0.8-1.6-0.8c-1.2,0-2,0.8-2,2.1
		s0.9,2.1,2,2.1c0.7,0,1.3-0.4,1.6-0.8l1.8,1.7c-0.5,0.8-1.7,1.6-3.6,1.6C449,71.5,447,69.6,447,66.9z"/>
	<path fill="#FFFFFF" d="M461.4,71.3v-0.9c-0.5,0.6-1.6,1.1-2.7,1.1c-1.3,0-3-0.9-3-2.9c0-2.1,1.7-2.8,3-2.8c1.2,0,2.2,0.4,2.7,1V66
		c0-0.8-0.6-1.3-1.8-1.3c-0.9,0-1.7,0.3-2.4,0.9l-1-1.9c1.1-1,2.6-1.4,3.9-1.4c2.1,0,4.1,0.8,4.1,3.5v5.4H461.4z M461.4,69v-0.8
		c-0.3-0.4-0.9-0.6-1.5-0.6c-0.7,0-1.4,0.3-1.4,1s0.7,1,1.4,1C460.4,69.7,461.1,69.5,461.4,69z"/>
	<path fill="#FFFFFF" d="M466.4,68.9v-4h-1.4v-2.4h1.4v-2.4h2.8v2.4h1.8V65h-1.8v3.2c0,0.5,0.3,0.9,0.8,0.9c0.3,0,0.6-0.1,0.7-0.2
		l0.5,2.1c-0.3,0.3-1,0.6-2.1,0.6C467.3,71.5,466.4,70.6,466.4,68.9z"/>
	<path fill="#FFFFFF" d="M471.9,71.3v-8.7h2.8v1.1c0.6-0.7,1.7-1.3,2.7-1.3V65c-0.2-0.1-0.4-0.1-0.7-0.1c-0.7,0-1.7,0.3-2,0.8v5.5
		H471.9z"/>
	<path fill="#FFFFFF" d="M478.1,60.2c0-0.9,0.7-1.6,1.6-1.6c0.9,0,1.6,0.7,1.6,1.6s-0.7,1.6-1.6,1.6
		C478.8,61.8,478.1,61.1,478.1,60.2z M478.3,71.3v-8.7h2.8v8.7H478.3z"/>
	<path fill="#FFFFFF" d="M482.2,66.9c0-2.7,2-4.6,4.7-4.6c1.9,0,3,0.8,3.6,1.6l-1.8,1.7c-0.3-0.5-0.9-0.8-1.6-0.8
		c-1.2,0-2,0.8-2,2.1s0.9,2.1,2,2.1c0.7,0,1.3-0.4,1.6-0.8l1.8,1.7c-0.5,0.8-1.7,1.6-3.6,1.6C484.2,71.5,482.2,69.6,482.2,66.9z"/>
	<path fill="#FFFFFF" d="M490.8,66.9c0-2.5,1.9-4.6,4.6-4.6c2.6,0,4.4,1.9,4.4,4.8v0.6h-6.2c0.2,0.8,0.9,1.4,2.2,1.4
		c0.6,0,1.6-0.3,2.1-0.7l1.2,1.8c-0.9,0.8-2.3,1.2-3.6,1.2C492.9,71.5,490.8,69.7,490.8,66.9z M495.5,64.6c-1.2,0-1.7,0.7-1.8,1.4
		h3.6C497.2,65.3,496.7,64.6,495.5,64.6z"/>
</g>
<g>
	<path fill="#FFFFFF" d="M430.5,88.5c0-2.7,2-4.6,4.7-4.6c1.9,0,3,0.8,3.6,1.6l-1.8,1.7c-0.3-0.5-0.9-0.8-1.6-0.8
		c-1.2,0-2,0.8-2,2.1s0.9,2.1,2,2.1c0.7,0,1.3-0.4,1.6-0.8l1.8,1.7c-0.5,0.8-1.7,1.6-3.6,1.6C432.5,93.1,430.5,91.2,430.5,88.5z"/>
	<path fill="#FFFFFF" d="M439.1,88.5c0-2.4,1.8-4.6,4.7-4.6c3,0,4.8,2.1,4.8,4.6s-1.8,4.6-4.8,4.6C440.9,93.1,439.1,91,439.1,88.5z
		 M445.7,88.5c0-1.2-0.7-2.1-1.9-2.1c-1.2,0-1.9,1-1.9,2.1c0,1.2,0.7,2.1,1.9,2.1C445,90.6,445.7,89.7,445.7,88.5z"/>
	<path fill="#FFFFFF" d="M455.6,92.9v-5c0-1.1-0.6-1.4-1.4-1.4c-0.8,0-1.4,0.5-1.7,0.8v5.6h-2.8v-8.7h2.8v1.1c0.5-0.6,1.5-1.3,3-1.3
		c2,0,2.9,1.2,2.9,2.8v6.2H455.6z"/>
	<path fill="#FFFFFF" d="M457.1,95.8l0.7-2c0.3,0.3,0.6,0.4,1.1,0.4c0.6,0,1.1-0.4,1.1-1.4v-8.6h2.8v8.6c0,2.1-1,3.6-3.4,3.6
		C458.2,96.4,457.8,96.2,457.1,95.8z M459.8,81.8c0-0.9,0.7-1.6,1.6-1.6c0.9,0,1.6,0.7,1.6,1.6s-0.7,1.6-1.6,1.6
		C460.5,83.4,459.8,82.7,459.8,81.8z"/>
	<path fill="#FFFFFF" d="M463.9,88.5c0-2.4,1.8-4.6,4.7-4.6c3,0,4.8,2.1,4.8,4.6s-1.8,4.6-4.8,4.6C465.7,93.1,463.9,91,463.9,88.5z
		 M470.5,88.5c0-1.2-0.7-2.1-1.9-2.1c-1.2,0-1.9,1-1.9,2.1c0,1.2,0.7,2.1,1.9,2.1C469.8,90.6,470.5,89.7,470.5,88.5z"/>
	<path fill="#FFFFFF" d="M480.4,92.9v-5c0-1.1-0.6-1.4-1.4-1.4c-0.8,0-1.4,0.5-1.7,0.8v5.6h-2.8v-8.7h2.8v1.1c0.5-0.6,1.5-1.3,3-1.3
		c2,0,2.9,1.2,2.9,2.8v6.2H480.4z"/>
	<path fill="#FFFFFF" d="M484.3,88.5c0-2.7,2-4.6,4.7-4.6c1.9,0,3,0.8,3.6,1.6l-1.8,1.7c-0.3-0.5-0.9-0.8-1.6-0.8
		c-1.2,0-2,0.8-2,2.1s0.9,2.1,2,2.1c0.7,0,1.3-0.4,1.6-0.8l1.8,1.7c-0.5,0.8-1.7,1.6-3.6,1.6C486.3,93.1,484.3,91.2,484.3,88.5z"/>
	<path fill="#FFFFFF" d="M494,90.5v-4h-1.4v-2.4h1.4v-2.4h2.8v2.4h1.8v2.4h-1.8v3.2c0,0.5,0.3,0.9,0.8,0.9c0.3,0,0.6-0.1,0.7-0.2
		l0.5,2.1c-0.3,0.3-1,0.6-2.1,0.6C495,93.1,494,92.2,494,90.5z"/>
	<path fill="#FFFFFF" d="M499.4,81.8c0-0.9,0.7-1.6,1.6-1.6c0.9,0,1.6,0.7,1.6,1.6s-0.7,1.6-1.6,1.6
		C500.1,83.4,499.4,82.7,499.4,81.8z M499.6,92.9v-8.7h2.8v8.7H499.6z"/>
	<path fill="#FFFFFF" d="M506.3,92.9l-3.4-8.7h2.9l2,5.5l2-5.5h2.9l-3.4,8.7H506.3z"/>
	<path fill="#FFFFFF" d="M518.3,92.9V92c-0.5,0.6-1.6,1.1-2.7,1.1c-1.3,0-3-0.9-3-2.9c0-2.1,1.7-2.8,3-2.8c1.2,0,2.2,0.4,2.7,1v-0.9
		c0-0.8-0.6-1.3-1.8-1.3c-0.9,0-1.7,0.3-2.4,0.9l-1-1.9c1.1-1,2.6-1.4,3.9-1.4c2.1,0,4.1,0.8,4.1,3.5v5.4H518.3z M518.3,90.6v-0.8
		c-0.3-0.4-0.9-0.6-1.5-0.6c-0.7,0-1.4,0.3-1.4,1s0.7,1,1.4,1C517.3,91.3,518,91.1,518.3,90.6z"/>
	<path fill="#FFFFFF" d="M522.7,92.9v-12h2.8v12H522.7z"/>
	<path fill="#FFFFFF" d="M526.6,88.5c0-2.5,1.9-4.6,4.6-4.6c2.6,0,4.4,1.9,4.4,4.8v0.6h-6.2c0.2,0.8,0.9,1.4,2.2,1.4
		c0.6,0,1.6-0.3,2.1-0.7l1.2,1.8c-0.9,0.8-2.3,1.2-3.6,1.2C528.6,93.1,526.6,91.3,526.6,88.5z M531.2,86.2c-1.2,0-1.7,0.7-1.8,1.4
		h3.6C532.9,86.9,532.5,86.2,531.2,86.2z"/>
</g>
<g>
	<path fill="#FFFFFF" d="M431.6,112.1v-4h-1.4v-2.4h1.4v-2.4h2.8v2.4h1.8v2.4h-1.8v3.2c0,0.5,0.3,0.9,0.8,0.9c0.3,0,0.6-0.1,0.7-0.2
		l0.5,2.1c-0.3,0.3-1,0.6-2.1,0.6C432.5,114.7,431.6,113.8,431.6,112.1z"/>
	<path fill="#FFFFFF" d="M437.1,114.5v-8.7h2.8v1.1c0.6-0.7,1.7-1.3,2.7-1.3v2.7c-0.2-0.1-0.4-0.1-0.7-0.1c-0.7,0-1.7,0.3-2,0.8v5.5
		H437.1z"/>
	<path fill="#FFFFFF" d="M448.7,114.5v-0.9c-0.5,0.6-1.6,1.1-2.7,1.1c-1.3,0-3-0.9-3-2.9c0-2.1,1.7-2.8,3-2.8c1.2,0,2.2,0.4,2.7,1
		v-0.9c0-0.8-0.6-1.3-1.8-1.3c-0.9,0-1.7,0.3-2.4,0.9l-1-1.9c1.1-1,2.6-1.4,3.9-1.4c2.1,0,4.1,0.8,4.1,3.5v5.4H448.7z M448.7,112.2
		v-0.8c-0.3-0.4-0.9-0.6-1.5-0.6c-0.7,0-1.4,0.3-1.4,1c0,0.7,0.7,1,1.4,1C447.7,112.9,448.4,112.7,448.7,112.2z"/>
	<path fill="#FFFFFF" d="M452.6,110.1c0-2.7,2-4.6,4.7-4.6c1.9,0,3,0.8,3.6,1.6l-1.8,1.7c-0.3-0.5-0.9-0.8-1.6-0.8
		c-1.2,0-2,0.8-2,2.1s0.9,2.1,2,2.1c0.7,0,1.3-0.4,1.6-0.8l1.8,1.7c-0.5,0.8-1.7,1.6-3.6,1.6C454.6,114.7,452.6,112.8,452.6,110.1z"
		/>
	<path fill="#FFFFFF" d="M467.7,114.5v-5.1c0-1.1-0.6-1.4-1.4-1.4c-0.8,0-1.4,0.5-1.7,0.8v5.6h-2.8v-12h2.8v4.4
		c0.5-0.6,1.5-1.3,3-1.3c2,0,2.9,1.1,2.9,2.7v6.2H467.7z"/>
	<path fill="#FFFFFF" d="M471.5,110.1c0-2.4,1.8-4.6,4.7-4.6c3,0,4.8,2.1,4.8,4.6c0,2.4-1.8,4.6-4.8,4.6
		C473.3,114.7,471.5,112.6,471.5,110.1z M478.2,110.1c0-1.2-0.7-2.1-1.9-2.1c-1.2,0-1.9,1-1.9,2.1c0,1.2,0.7,2.1,1.9,2.1
		C477.5,112.2,478.2,111.3,478.2,110.1z"/>
	<path fill="#FFFFFF" d="M493.1,114.5v-5.3c0-0.7-0.3-1.2-1.2-1.2c-0.8,0-1.3,0.5-1.6,0.8v5.6h-2.8v-5.3c0-0.7-0.3-1.2-1.1-1.2
		c-0.8,0-1.3,0.5-1.6,0.8v5.6h-2.8v-8.7h2.8v1.1c0.4-0.5,1.5-1.3,2.9-1.3c1.3,0,2.1,0.5,2.5,1.5c0.5-0.8,1.6-1.5,3-1.5
		c1.6,0,2.6,0.8,2.6,2.6v6.3H493.1z"/>
	<path fill="#FFFFFF" d="M502.7,114.5v-0.9c-0.5,0.6-1.6,1.1-2.7,1.1c-1.3,0-3-0.9-3-2.9c0-2.1,1.7-2.8,3-2.8c1.2,0,2.2,0.4,2.7,1
		v-0.9c0-0.8-0.6-1.3-1.8-1.3c-0.9,0-1.7,0.3-2.4,0.9l-1-1.9c1.1-1,2.6-1.4,3.9-1.4c2.1,0,4.1,0.8,4.1,3.5v5.4H502.7z M502.7,112.2
		v-0.8c-0.3-0.4-0.9-0.6-1.5-0.6c-0.7,0-1.4,0.3-1.4,1c0,0.7,0.7,1,1.4,1C501.7,112.9,502.4,112.7,502.7,112.2z"/>
	<path fill="#FFFFFF" d="M507.7,112.1v-4h-1.4v-2.4h1.4v-2.4h2.8v2.4h1.8v2.4h-1.8v3.2c0,0.5,0.3,0.9,0.8,0.9c0.3,0,0.6-0.1,0.7-0.2
		l0.5,2.1c-0.3,0.3-1,0.6-2.1,0.6C508.6,114.7,507.7,113.8,507.7,112.1z"/>
	<path fill="#FFFFFF" d="M512.7,110.1c0-2.5,1.9-4.6,4.6-4.6c2.6,0,4.4,1.9,4.4,4.8v0.6h-6.2c0.2,0.8,0.9,1.4,2.2,1.4
		c0.6,0,1.6-0.3,2.1-0.7l1.2,1.8c-0.9,0.8-2.3,1.2-3.6,1.2C514.7,114.7,512.7,112.9,512.7,110.1z M517.3,107.8
		c-1.2,0-1.7,0.7-1.8,1.4h3.6C519,108.5,518.6,107.8,517.3,107.8z"/>
	<path fill="#FFFFFF" d="M528.6,114.5v-1c-0.5,0.6-1.5,1.3-3,1.3c-2,0-2.9-1.1-2.9-2.7v-6.2h2.8v5c0,1.1,0.5,1.4,1.4,1.4
		c0.8,0,1.3-0.4,1.7-0.8v-5.6h2.8v8.7H528.6z"/>
	<path fill="#FFFFFF" d="M532.3,113.3l1.2-2c0.6,0.6,2,1.2,3.1,1.2c0.8,0,1.2-0.2,1.2-0.6c0-1.1-5.1,0-5.1-3.5
		c0-1.5,1.3-2.9,3.7-2.9c1.5,0,2.7,0.5,3.6,1.2l-1.1,2c-0.5-0.5-1.5-1-2.6-1c-0.6,0-1.1,0.3-1.1,0.6c0,1,5,0,5,3.5
		c0,1.7-1.5,2.8-3.9,2.8C534.8,114.7,533.2,114.2,532.3,113.3z"/>
	<path fill="#FFFFFF" d="M540.9,110.1c0-2.5,1.9-4.6,4.6-4.6c2.6,0,4.4,1.9,4.4,4.8v0.6h-6.2c0.2,0.8,0.9,1.4,2.2,1.4
		c0.6,0,1.6-0.3,2.1-0.7l1.2,1.8c-0.9,0.8-2.3,1.2-3.6,1.2C542.9,114.7,540.9,112.9,540.9,110.1z M545.5,107.8
		c-1.2,0-1.7,0.7-1.8,1.4h3.6C547.2,108.5,546.8,107.8,545.5,107.8z"/>
</g>
<g>
	<path fill="#363636" d="M879.7,204l0.6-0.8c0.5,0.6,1.4,1.2,2.5,1.2c1.4,0,1.9-0.8,1.9-1.4c0-2.1-4.7-0.9-4.7-3.8
		c0-1.3,1.2-2.2,2.8-2.2c1.2,0,2.2,0.4,2.8,1.1l-0.6,0.7c-0.6-0.7-1.4-1-2.3-1c-0.9,0-1.6,0.5-1.6,1.3c0,1.8,4.7,0.8,4.7,3.8
		c0,1.2-0.8,2.4-3,2.4C881.4,205.3,880.3,204.7,879.7,204z"/>
	<path fill="#363636" d="M886.8,202.2c0-1.7,1.1-3,2.9-3c1.8,0,2.9,1.4,2.9,3s-1.1,3-2.9,3C887.9,205.3,886.8,203.9,886.8,202.2z
		 M891.6,202.2c0-1.2-0.7-2.2-1.9-2.2s-1.9,1.1-1.9,2.2c0,1.2,0.7,2.2,1.9,2.2S891.6,203.4,891.6,202.2z"/>
	<path fill="#363636" d="M897.9,205.1v-0.8c-0.4,0.5-1.2,1-2.1,1c-1.2,0-1.8-0.6-1.8-1.8v-4.1h0.9v3.8c0,1,0.5,1.3,1.3,1.3
		c0.7,0,1.4-0.4,1.7-0.9v-4.3h0.9v5.8H897.9z"/>
	<path fill="#363636" d="M900.6,205.1v-5.8h0.9v0.9c0.5-0.6,1.1-1.1,1.9-1.1v0.9c-0.1,0-0.2,0-0.3,0c-0.6,0-1.3,0.5-1.6,0.9v4.1
		H900.6z"/>
	<path fill="#363636" d="M904.2,202.2c0-1.7,1.2-3,2.9-3c1.1,0,1.7,0.4,2.1,1l-0.6,0.5c-0.4-0.5-0.9-0.7-1.5-0.7c-1.2,0-2,0.9-2,2.2
		s0.8,2.2,2,2.2c0.6,0,1.1-0.2,1.5-0.8l0.6,0.6c-0.4,0.6-1.1,1-2.1,1C905.4,205.3,904.2,203.9,904.2,202.2z"/>
	<path fill="#363636" d="M910.2,202.2c0-1.7,1.2-3,2.9-3c1.8,0,2.8,1.4,2.8,3.1v0.2h-4.7c0.1,1.1,0.8,2,2.1,2c0.7,0,1.3-0.3,1.8-0.7
		l0.4,0.6c-0.6,0.6-1.4,0.9-2.3,0.9C911.4,205.3,910.2,204,910.2,202.2z M913,199.9c-1.2,0-1.8,1-1.9,1.9h3.8
		C914.9,201,914.3,199.9,913,199.9z"/>
	<path fill="#363636" d="M920.2,199.9c0-0.4,0.3-0.7,0.7-0.7c0.4,0,0.7,0.3,0.7,0.7c0,0.3-0.3,0.7-0.7,0.7
		C920.5,200.6,920.2,200.3,920.2,199.9z M920.2,204.6c0-0.4,0.3-0.7,0.7-0.7c0.4,0,0.7,0.3,0.7,0.7c0,0.4-0.3,0.7-0.7,0.7
		C920.5,205.2,920.2,204.9,920.2,204.6z"/>
	<path fill="#363636" d="M925.9,201.1c0-2.4,1.6-4.1,4-4.1c2.4,0,4,1.8,4,4.1c0,2.4-1.6,4.1-4,4.1
		C927.5,205.3,925.9,203.5,925.9,201.1z M932.8,201.1c0-1.9-1.2-3.2-3-3.2c-1.8,0-2.9,1.4-2.9,3.2c0,1.9,1.1,3.3,2.9,3.3
		C931.7,204.4,932.8,203,932.8,201.1z"/>
	<path fill="#363636" d="M942.2,205.1v-6.7l-2.7,6.7h-0.4l-2.7-6.7v6.7h-1v-8h1.4l2.5,6.2l2.5-6.2h1.4v8H942.2z"/>
	<path fill="#363636" d="M944.6,204l0.6-0.8c0.5,0.6,1.4,1.2,2.5,1.2c1.4,0,1.9-0.8,1.9-1.4c0-2.1-4.7-0.9-4.7-3.8
		c0-1.3,1.2-2.2,2.8-2.2c1.2,0,2.2,0.4,2.8,1.1l-0.6,0.7c-0.6-0.7-1.4-1-2.3-1c-0.9,0-1.6,0.5-1.6,1.3c0,1.8,4.7,0.8,4.7,3.8
		c0,1.2-0.8,2.4-3,2.4C946.3,205.3,945.3,204.7,944.6,204z"/>
</g>
<g>
	<defs>
		<rect id="SVGID_11_" width="960" height="211.7"/>
	</defs>
	<clipPath id="SVGID_12_">
		<use xlink:href="#SVGID_11_"  overflow="visible"/>
	</clipPath>
	<path clip-path="url(#SVGID_12_)" fill="#FFED00" d="M174.1,43C149.4,30.7,124.7,17.8,97.7,11C84.7,7.7,71.4,6.1,58,5.9
		c-9.5-0.1-18.9,1.3-27.5,5.5C-2.9,27.7,3,74.4,18.3,101.1c7.4,12.9,21.6,21.2,35.1,26.5c16.8,6.7,35.6,9,53.4,5.8
		c21.2-3.8,38-16.6,49.9-34.2c9.6-14.2,15.9-32,7.3-48.2c-5.1-9.6-13.4-17-21.7-23.9c-8-6.7-17-13.1-22.5-22.2
		c-0.8-1.2-5.6-1.8-4.5,0c7.2,11.8,19.9,19.6,30,28.8c11.9,10.8,20.4,24,17.2,40.6c-2.2,11.3-8.9,21.7-15.9,30.6
		c-6.8,8.6-15.6,15.6-25.5,20.3c-18.1,8.7-39.4,8.7-58.4,3.2c-14.9-4.3-31.1-12.8-39.5-26.4C13.7,86.4,9.1,66.7,11.5,48.4
		c2.3-17.5,12.8-32.1,29.9-37.6c12.2-4,26.2-2.6,38.7-1c14.2,1.8,27.9,5.9,41.2,11.1c17.1,6.6,33.5,15.1,50,23.3
		C172.7,45,177,44.5,174.1,43"/>
	<path clip-path="url(#SVGID_12_)" fill="#FFED00" d="M733.7,6.5c11.3,19.9,11.7,45,7,66.9c-4.8,22.2-16.7,43.4-39,51.6
		c-21.1,7.7-45.7,2.6-65.3-7c-21.3-10.4-42.6-30.3-45.4-54.9c-2.3-20.3,11.6-39.9,28.8-49.4c15.2-8.4,33.8-7.9,50.5-5
		c34.2,6,66.5,23.4,95.7,41.5c2.8,1.7,3.1-2.5,1-3.9c-33.7-21-72.4-41.8-112.8-44c-20.2-1.1-38.7,4.8-52.6,19.7
		c-16.8,18-18.8,42.2-6.6,63.2c20.6,35.6,73,59.3,112.4,42.8c20.1-8.4,31-28,36.4-48.2c5.6-20.9,5.5-44.1-1.8-64.6
		c-1.2-3.4-2.8-6.7-4.6-9.8C735.9,3.2,732,3.6,733.7,6.5"/>
</g>
</svg>
