<?xml version="1.0" encoding="utf-8"?>
<!-- Generator: Adobe Illustrator 16.0.0, SVG Export Plug-In . SVG Version: 6.00 Build 0)  -->
<!DOCTYPE svg PUBLIC "-//W3C//DTD SVG 1.1//EN" "http://www.w3.org/Graphics/SVG/1.1/DTD/svg11.dtd">
<svg version="1.1" id="Layer_1" xmlns="http://www.w3.org/2000/svg" xmlns:xlink="http://www.w3.org/1999/xlink" x="0px" y="0px"
	 width="960px" height="211.666px" viewBox="0 0 960 211.666" enable-background="new 0 0 960 211.666" xml:space="preserve">
<path fill="#363636" d="M3.84,155.838v-9.343h2.003v7.592h3.95v1.751H3.84z M10.378,152.448c0-1.919,1.345-3.544,3.572-3.544
	c2.241,0,3.586,1.625,3.586,3.544s-1.345,3.558-3.586,3.558C11.723,156.006,10.378,154.367,10.378,152.448z M15.687,152.448
	c0-1.051-0.616-1.961-1.737-1.961c-1.106,0-1.723,0.91-1.723,1.961c0,1.064,0.617,1.975,1.723,1.975
	C15.071,154.423,15.687,153.513,15.687,152.448z M18.583,155.838v-6.766h1.779v0.91c0.49-0.588,1.317-1.078,2.157-1.078v1.736
	c-0.126-0.027-0.28-0.042-0.49-0.042c-0.588,0-1.373,0.337-1.667,0.771v4.469H18.583z M22.754,154.955l0.771-1.288
	c0.504,0.476,1.499,0.938,2.339,0.938c0.771,0,1.135-0.294,1.135-0.715c0-1.106-4.006-0.196-4.006-2.857
	c0-1.135,0.98-2.129,2.773-2.129c1.135,0,2.045,0.392,2.718,0.925l-0.714,1.26c-0.406-0.42-1.177-0.784-2.003-0.784
	c-0.644,0-1.064,0.28-1.064,0.658c0,0.995,4.02,0.154,4.02,2.886c0,1.247-1.064,2.157-2.941,2.157
	C24.603,156.006,23.468,155.614,22.754,154.955z M29.292,152.448c0-2.256,1.26-3.544,2.983-3.544c0.827,0,1.569,0.364,2.087,1.022
	v-0.854h1.793v9.343h-1.793v-3.445c-0.546,0.7-1.274,1.036-2.087,1.036C30.553,156.006,29.292,154.703,29.292,152.448z
	 M34.363,153.639v-2.381c-0.294-0.448-0.938-0.771-1.527-0.771c-1.008,0-1.708,0.798-1.708,1.961c0,1.177,0.7,1.975,1.708,1.975
	C33.424,154.423,34.069,154.073,34.363,153.639z M42.189,155.838v-0.854c-0.462,0.504-1.275,1.022-2.381,1.022
	c-1.485,0-2.185-0.812-2.185-2.129v-4.805h1.779v4.104c0,0.938,0.49,1.246,1.247,1.246c0.687,0,1.233-0.378,1.541-0.771v-4.58h1.779
	v6.766H42.189z M45.014,152.448c0-1.961,1.457-3.544,3.502-3.544c2.031,0,3.39,1.513,3.39,3.712v0.42h-5.029
	c0.126,0.827,0.798,1.513,1.947,1.513c0.574,0,1.359-0.237,1.793-0.658l0.798,1.177c-0.672,0.616-1.737,0.938-2.788,0.938
	C46.569,156.006,45.014,154.619,45.014,152.448z M48.516,150.361c-1.107,0-1.583,0.771-1.653,1.442h3.333
	C50.141,151.159,49.692,150.361,48.516,150.361z M56.229,155.838v-9.343h1.779v9.343H56.229z M59.056,152.448
	c0-1.961,1.457-3.544,3.502-3.544c2.031,0,3.39,1.513,3.39,3.712v0.42h-5.029c0.126,0.827,0.799,1.513,1.947,1.513
	c0.574,0,1.359-0.237,1.793-0.658l0.798,1.177c-0.672,0.616-1.737,0.938-2.788,0.938C60.611,156.006,59.056,154.619,59.056,152.448z
	 M62.558,150.361c-1.106,0-1.583,0.771-1.653,1.442h3.333C64.183,151.159,63.735,150.361,62.558,150.361z M72.47,155.838v-7.592
	h-2.731v-1.751h7.452v1.751h-2.717v7.592H72.47z M78.18,155.838v-9.343h6.612v1.751h-4.623v1.961h4.524v1.751h-4.524v3.88H78.18z
	 M93.232,155.838v-0.715c-0.462,0.561-1.261,0.883-2.143,0.883c-1.079,0-2.339-0.729-2.339-2.241c0-1.597,1.261-2.185,2.339-2.185
	c0.911,0,1.695,0.294,2.143,0.826v-0.854c0-0.687-0.588-1.135-1.485-1.135c-0.714,0-1.387,0.28-1.947,0.799l-0.7-1.247
	c0.826-0.742,1.891-1.064,2.956-1.064c1.555,0,2.969,0.616,2.969,2.563v4.37H93.232z M93.232,154.213v-0.84
	c-0.294-0.393-0.854-0.603-1.429-0.603c-0.7,0-1.274,0.378-1.274,1.022s0.574,1.009,1.274,1.009
	C92.378,154.802,92.938,154.605,93.232,154.213z M96.898,155.838v-5.211h-1.121v-1.555h1.121v-0.28c0-1.526,0.911-2.438,2.27-2.438
	c0.658,0,1.358,0.183,1.765,0.645l-0.672,1.079c-0.182-0.169-0.42-0.267-0.742-0.267c-0.504,0-0.84,0.322-0.84,0.98v0.28h1.373
	v1.555h-1.373v5.211H96.898z M101.479,155.838v-5.211h-1.121v-1.555h1.121v-0.28c0-1.526,0.911-2.438,2.27-2.438
	c0.658,0,1.358,0.183,1.765,0.645l-0.672,1.079c-0.182-0.169-0.42-0.267-0.742-0.267c-0.504,0-0.841,0.322-0.841,0.98v0.28h1.373
	v1.555h-1.373v5.211H101.479z M104.948,152.448c0-1.961,1.457-3.544,3.502-3.544c2.031,0,3.39,1.513,3.39,3.712v0.42h-5.029
	c0.126,0.827,0.798,1.513,1.947,1.513c0.574,0,1.358-0.237,1.793-0.658l0.798,1.177c-0.672,0.616-1.737,0.938-2.788,0.938
	C106.503,156.006,104.948,154.619,104.948,152.448z M108.45,150.361c-1.107,0-1.583,0.771-1.653,1.442h3.333
	C110.075,151.159,109.626,150.361,108.45,150.361z M112.41,152.448c0-2.073,1.513-3.544,3.586-3.544
	c1.387,0,2.227,0.603,2.675,1.219l-1.163,1.093c-0.322-0.477-0.812-0.729-1.429-0.729c-1.079,0-1.835,0.784-1.835,1.961
	s0.756,1.975,1.835,1.975c0.616,0,1.106-0.28,1.429-0.742l1.163,1.093c-0.448,0.616-1.289,1.232-2.675,1.232
	C113.923,156.006,112.41,154.535,112.41,152.448z M119.915,154.143v-3.516h-1.121v-1.555h1.121v-1.849h1.779v1.849h1.373v1.555
	h-1.373v3.04c0,0.434,0.224,0.756,0.616,0.756c0.266,0,0.519-0.098,0.616-0.21l0.378,1.358c-0.266,0.238-0.742,0.435-1.485,0.435
	C120.573,156.006,119.915,155.361,119.915,154.143z M123.568,152.448c0-1.961,1.457-3.544,3.502-3.544
	c2.031,0,3.39,1.513,3.39,3.712v0.42h-5.028c0.126,0.827,0.798,1.513,1.947,1.513c0.574,0,1.359-0.237,1.793-0.658l0.798,1.177
	c-0.672,0.616-1.737,0.938-2.788,0.938C125.123,156.006,123.568,154.619,123.568,152.448z M127.07,150.361
	c-1.106,0-1.583,0.771-1.653,1.442h3.333C128.695,151.159,128.247,150.361,127.07,150.361z M136.561,154.97v3.445h-1.779v-9.343
	h1.779v0.854c0.518-0.658,1.261-1.022,2.087-1.022c1.737,0,2.998,1.288,2.998,3.544c0,2.255-1.261,3.558-2.998,3.558
	C137.85,156.006,137.122,155.67,136.561,154.97z M139.811,152.448c0-1.163-0.701-1.961-1.723-1.961
	c-0.574,0-1.219,0.322-1.527,0.771v2.381c0.294,0.435,0.953,0.784,1.527,0.784C139.11,154.423,139.811,153.625,139.811,152.448z
	 M142.664,155.838v-9.343h1.779v9.343H142.664z M150.493,155.838v-0.854c-0.462,0.504-1.275,1.022-2.381,1.022
	c-1.485,0-2.185-0.812-2.185-2.129v-4.805h1.779v4.104c0,0.938,0.49,1.246,1.247,1.246c0.687,0,1.233-0.378,1.541-0.771v-4.58h1.779
	v6.766H150.493z M153.164,154.955l0.771-1.288c0.504,0.476,1.499,0.938,2.339,0.938c0.771,0,1.135-0.294,1.135-0.715
	c0-1.106-4.006-0.196-4.006-2.857c0-1.135,0.98-2.129,2.773-2.129c1.135,0,2.045,0.392,2.717,0.925l-0.714,1.26
	c-0.406-0.42-1.176-0.784-2.003-0.784c-0.645,0-1.064,0.28-1.064,0.658c0,0.995,4.02,0.154,4.02,2.886
	c0,1.247-1.064,2.157-2.941,2.157C155.013,156.006,153.878,155.614,153.164,154.955z"/>
<g>
	<path fill="#363636" d="M8.533,172.638v-0.868c-0.533,0.672-1.261,1.036-2.087,1.036c-1.695,0-2.998-1.288-2.998-3.558
		c0-2.199,1.275-3.544,2.998-3.544c0.798,0,1.555,0.336,2.087,1.036v-3.445h1.793v9.343H8.533z M8.533,170.452v-2.395
		c-0.294-0.448-0.938-0.771-1.527-0.771c-1.023,0-1.723,0.798-1.723,1.961c0,1.177,0.7,1.975,1.723,1.975
		C7.595,171.223,8.239,170.9,8.533,170.452z"/>
	<path fill="#363636" d="M11.386,169.248c0-1.961,1.457-3.544,3.502-3.544c2.031,0,3.39,1.513,3.39,3.712v0.42h-5.029
		c0.126,0.827,0.799,1.513,1.947,1.513c0.574,0,1.359-0.237,1.793-0.658l0.798,1.177c-0.672,0.616-1.737,0.938-2.788,0.938
		C12.941,172.806,11.386,171.419,11.386,169.248z M14.888,167.161c-1.106,0-1.583,0.771-1.653,1.442h3.333
		C16.513,167.959,16.065,167.161,14.888,167.161z"/>
	<path fill="#363636" d="M22.432,171.405l1.106-1.387c0.63,0.658,1.499,1.022,2.479,1.022c1.106,0,1.737-0.631,1.737-1.387
		c0-0.826-0.616-1.387-1.681-1.387c-0.77,0-1.4,0.224-1.961,0.756l-1.387-0.378v-5.351h6.416v1.751h-4.426v2.283
		c0.448-0.448,1.205-0.785,2.059-0.785c1.583,0,2.998,1.135,2.998,3.026c0,1.975-1.485,3.235-3.74,3.235
		C24.407,172.806,23.23,172.273,22.432,171.405z"/>
	<path fill="#363636" d="M33.688,165.494c0-1.317,0.938-2.34,2.367-2.34c1.443,0,2.381,1.022,2.381,2.34
		c0,1.303-0.938,2.311-2.381,2.311C34.626,167.805,33.688,166.797,33.688,165.494z M37.175,165.494c0-0.771-0.476-1.247-1.121-1.247
		c-0.63,0-1.106,0.477-1.106,1.247c0,0.742,0.476,1.219,1.106,1.219C36.699,166.713,37.175,166.236,37.175,165.494z M35.144,172.638
		l5.967-9.343h1.064l-5.981,9.343H35.144z M38.828,170.494c0-1.316,0.938-2.353,2.367-2.353s2.381,1.036,2.381,2.353
		c0,1.303-0.953,2.312-2.381,2.312S38.828,171.797,38.828,170.494z M42.316,170.494c0-0.77-0.476-1.246-1.121-1.246
		c-0.644,0-1.106,0.477-1.106,1.246c0,0.757,0.462,1.219,1.106,1.219C41.84,171.713,42.316,171.251,42.316,170.494z"/>
	<path fill="#363636" d="M52.521,172.638v-0.868c-0.533,0.672-1.261,1.036-2.087,1.036c-1.695,0-2.998-1.288-2.998-3.558
		c0-2.199,1.275-3.544,2.998-3.544c0.798,0,1.555,0.336,2.087,1.036v-3.445h1.793v9.343H52.521z M52.521,170.452v-2.395
		c-0.294-0.448-0.938-0.771-1.527-0.771c-1.023,0-1.723,0.798-1.723,1.961c0,1.177,0.7,1.975,1.723,1.975
		C51.582,171.223,52.226,170.9,52.521,170.452z"/>
	<path fill="#363636" d="M55.374,169.248c0-1.961,1.457-3.544,3.502-3.544c2.031,0,3.39,1.513,3.39,3.712v0.42h-5.029
		c0.126,0.827,0.799,1.513,1.947,1.513c0.574,0,1.359-0.237,1.793-0.658l0.798,1.177c-0.672,0.616-1.737,0.938-2.788,0.938
		C56.928,172.806,55.374,171.419,55.374,169.248z M58.875,167.161c-1.106,0-1.583,0.771-1.653,1.442h3.333
		C60.5,167.959,60.052,167.161,58.875,167.161z"/>
	<path fill="#363636" d="M62.695,171.755l0.771-1.288c0.504,0.476,1.499,0.938,2.339,0.938c0.771,0,1.135-0.294,1.135-0.715
		c0-1.106-4.006-0.196-4.006-2.857c0-1.135,0.98-2.129,2.773-2.129c1.135,0,2.045,0.392,2.718,0.925l-0.714,1.26
		c-0.406-0.42-1.177-0.784-2.003-0.784c-0.644,0-1.064,0.28-1.064,0.658c0,0.995,4.02,0.154,4.02,2.886
		c0,1.247-1.064,2.157-2.941,2.157C64.544,172.806,63.409,172.414,62.695,171.755z"/>
	<path fill="#363636" d="M72.593,169.248c0-1.961,1.457-3.544,3.502-3.544c2.031,0,3.39,1.513,3.39,3.712v0.42h-5.029
		c0.126,0.827,0.799,1.513,1.947,1.513c0.574,0,1.359-0.237,1.793-0.658l0.798,1.177c-0.672,0.616-1.737,0.938-2.788,0.938
		C74.147,172.806,72.593,171.419,72.593,169.248z M76.095,167.161c-1.106,0-1.583,0.771-1.653,1.442h3.333
		C77.72,167.959,77.271,167.161,76.095,167.161z"/>
	<path fill="#363636" d="M85.055,172.638v-4.09c0-0.938-0.49-1.261-1.247-1.261c-0.7,0-1.232,0.392-1.541,0.784v4.566h-1.779v-6.766
		h1.779v0.868c0.434-0.504,1.274-1.036,2.367-1.036c1.499,0,2.213,0.84,2.213,2.157v4.776H85.055z"/>
	<path fill="#363636" d="M88.735,172.638v-5.211h-1.121v-1.555h1.121v-0.28c0-1.526,0.911-2.438,2.27-2.438
		c0.658,0,1.358,0.183,1.765,0.645l-0.672,1.079c-0.182-0.169-0.42-0.267-0.742-0.267c-0.504,0-0.84,0.322-0.84,0.98v0.28h1.373
		v1.555h-1.373v5.211H88.735z"/>
	<path fill="#363636" d="M96.703,172.638v-0.715c-0.462,0.561-1.261,0.883-2.144,0.883c-1.078,0-2.339-0.729-2.339-2.241
		c0-1.597,1.261-2.186,2.339-2.186c0.911,0,1.695,0.295,2.144,0.827v-0.854c0-0.687-0.588-1.135-1.485-1.135
		c-0.714,0-1.387,0.28-1.947,0.799l-0.7-1.247c0.826-0.742,1.891-1.064,2.956-1.064c1.555,0,2.97,0.616,2.97,2.563v4.37H96.703z
		 M96.703,171.013v-0.841c-0.294-0.392-0.854-0.602-1.429-0.602c-0.701,0-1.275,0.378-1.275,1.022s0.574,1.009,1.275,1.009
		C95.849,171.602,96.409,171.405,96.703,171.013z"/>
	<path fill="#363636" d="M104.543,172.638v-4.09c0-0.938-0.49-1.261-1.247-1.261c-0.7,0-1.232,0.392-1.541,0.784v4.566h-1.779
		v-6.766h1.779v0.868c0.434-0.504,1.274-1.036,2.367-1.036c1.499,0,2.213,0.84,2.213,2.157v4.776H104.543z"/>
	<path fill="#363636" d="M108.181,170.942v-3.516h-1.121v-1.555h1.121v-1.849h1.779v1.849h1.373v1.555h-1.373v3.04
		c0,0.434,0.225,0.756,0.617,0.756c0.266,0,0.518-0.098,0.616-0.21l0.378,1.358c-0.267,0.238-0.743,0.435-1.485,0.435
		C108.84,172.806,108.181,172.161,108.181,170.942z"/>
	<path fill="#363636" d="M111.694,171.755l0.771-1.288c0.504,0.476,1.499,0.938,2.339,0.938c0.771,0,1.135-0.294,1.135-0.715
		c0-1.106-4.006-0.196-4.006-2.857c0-1.135,0.98-2.129,2.773-2.129c1.135,0,2.045,0.392,2.718,0.925l-0.714,1.26
		c-0.406-0.42-1.177-0.784-2.003-0.784c-0.644,0-1.064,0.28-1.064,0.658c0,0.995,4.02,0.154,4.02,2.886
		c0,1.247-1.064,2.157-2.941,2.157C113.543,172.806,112.409,172.414,111.694,171.755z"/>
	<path fill="#363636" d="M119.381,174.557l-0.771-0.63c0.448-0.238,0.967-0.827,1.079-1.317c-0.042,0.015-0.154,0.042-0.266,0.042
		c-0.532,0-0.953-0.42-0.953-1.008c0-0.617,0.504-1.121,1.107-1.121c0.658,0,1.247,0.519,1.247,1.429
		C120.824,173.002,120.25,173.94,119.381,174.557z"/>
</g>
<g>
	<path fill="#363636" d="M8.449,189.438v-0.854c-0.462,0.504-1.274,1.022-2.381,1.022c-1.485,0-2.186-0.812-2.186-2.129v-4.805
		h1.779v4.104c0,0.938,0.49,1.246,1.247,1.246c0.687,0,1.232-0.378,1.541-0.771v-4.58h1.779v6.766H8.449z"/>
	<path fill="#363636" d="M16.289,189.438v-4.09c0-0.938-0.49-1.261-1.247-1.261c-0.7,0-1.232,0.392-1.541,0.784v4.566h-1.779v-6.766
		h1.779v0.868c0.434-0.504,1.274-1.036,2.367-1.036c1.499,0,2.213,0.84,2.213,2.157v4.776H16.289z"/>
	<path fill="#363636" d="M27.545,189.438v-0.868c-0.533,0.672-1.261,1.036-2.087,1.036c-1.695,0-2.998-1.289-2.998-3.558
		c0-2.199,1.275-3.544,2.998-3.544c0.798,0,1.555,0.336,2.087,1.036v-3.445h1.793v9.343H27.545z M27.545,187.252v-2.395
		c-0.294-0.448-0.938-0.771-1.527-0.771c-1.023,0-1.723,0.798-1.723,1.961c0,1.177,0.7,1.975,1.723,1.975
		C26.606,188.022,27.25,187.7,27.545,187.252z"/>
	<path fill="#363636" d="M30.664,180.879c0-0.588,0.476-1.051,1.051-1.051c0.588,0,1.064,0.463,1.064,1.051
		s-0.477,1.064-1.064,1.064C31.14,181.943,30.664,181.467,30.664,180.879z M30.832,189.438v-6.766h1.779v6.766H30.832z"/>
	<path fill="#363636" d="M33.52,188.555l0.771-1.288c0.504,0.476,1.499,0.938,2.339,0.938c0.771,0,1.135-0.294,1.135-0.715
		c0-1.106-4.006-0.196-4.006-2.857c0-1.135,0.98-2.129,2.773-2.129c1.135,0,2.045,0.392,2.718,0.925l-0.714,1.26
		c-0.406-0.42-1.177-0.784-2.003-0.784c-0.644,0-1.064,0.28-1.064,0.658c0,0.995,4.02,0.154,4.02,2.886
		c0,1.247-1.064,2.157-2.941,2.157C35.369,189.605,34.234,189.213,33.52,188.555z"/>
	<path fill="#363636" d="M40.884,187.742v-3.516h-1.121v-1.555h1.121v-1.849h1.779v1.849h1.373v1.555h-1.373v3.04
		c0,0.434,0.224,0.756,0.616,0.756c0.266,0,0.518-0.098,0.616-0.21l0.378,1.358c-0.266,0.238-0.743,0.435-1.485,0.435
		C41.542,189.605,40.884,188.961,40.884,187.742z"/>
	<path fill="#363636" d="M44.986,189.438v-6.766h1.779v0.91c0.49-0.588,1.316-1.078,2.157-1.078v1.736
		c-0.126-0.027-0.28-0.042-0.49-0.042c-0.588,0-1.373,0.337-1.667,0.771v4.469H44.986z"/>
	<path fill="#363636" d="M49.591,180.879c0-0.588,0.476-1.051,1.051-1.051c0.588,0,1.064,0.463,1.064,1.051
		s-0.476,1.064-1.064,1.064C50.067,181.943,49.591,181.467,49.591,180.879z M49.759,189.438v-6.766h1.779v6.766H49.759z"/>
	<path fill="#363636" d="M52.601,186.048c0-2.073,1.513-3.544,3.586-3.544c1.387,0,2.227,0.603,2.675,1.219l-1.163,1.093
		c-0.322-0.477-0.812-0.729-1.429-0.729c-1.079,0-1.835,0.784-1.835,1.961s0.756,1.975,1.835,1.975c0.616,0,1.106-0.28,1.429-0.742
		l1.163,1.093c-0.448,0.616-1.289,1.232-2.675,1.232C54.114,189.605,52.601,188.135,52.601,186.048z"/>
	<path fill="#363636" d="M60.12,187.742v-3.516h-1.121v-1.555h1.121v-1.849h1.779v1.849h1.373v1.555h-1.373v3.04
		c0,0.434,0.225,0.756,0.617,0.756c0.266,0,0.518-0.098,0.616-0.21l0.378,1.358c-0.267,0.238-0.743,0.435-1.485,0.435
		C60.778,189.605,60.12,188.961,60.12,187.742z"/>
	<path fill="#363636" d="M72.105,189.438v-4.09c0-0.938-0.49-1.261-1.247-1.261c-0.7,0-1.232,0.392-1.541,0.784v4.566h-1.779v-6.766
		h1.779v0.868c0.434-0.504,1.274-1.036,2.367-1.036c1.499,0,2.213,0.84,2.213,2.157v4.776H72.105z"/>
	<path fill="#363636" d="M74.945,186.048c0-1.961,1.457-3.544,3.502-3.544c2.031,0,3.39,1.513,3.39,3.712v0.42h-5.029
		c0.126,0.827,0.799,1.513,1.947,1.513c0.574,0,1.359-0.237,1.793-0.658l0.798,1.177c-0.672,0.616-1.737,0.938-2.788,0.938
		C76.5,189.605,74.945,188.219,74.945,186.048z M78.447,183.961c-1.106,0-1.583,0.77-1.653,1.442h3.333
		C80.072,184.759,79.624,183.961,78.447,183.961z M78.587,181.649H77.34l1.877-2.018h1.639L78.587,181.649z"/>
	<path fill="#363636" d="M82.421,186.048c0-2.073,1.513-3.544,3.586-3.544c1.387,0,2.227,0.603,2.675,1.219l-1.163,1.093
		c-0.322-0.477-0.812-0.729-1.429-0.729c-1.079,0-1.835,0.784-1.835,1.961s0.756,1.975,1.835,1.975c0.616,0,1.106-0.28,1.429-0.742
		l1.163,1.093c-0.448,0.616-1.289,1.232-2.675,1.232C83.934,189.605,82.421,188.135,82.421,186.048z"/>
	<path fill="#363636" d="M89.141,186.048c0-1.961,1.457-3.544,3.502-3.544c2.031,0,3.39,1.513,3.39,3.712v0.42h-5.029
		c0.126,0.827,0.799,1.513,1.947,1.513c0.574,0,1.359-0.237,1.793-0.658l0.798,1.177c-0.672,0.616-1.737,0.938-2.788,0.938
		C90.695,189.605,89.141,188.219,89.141,186.048z M92.643,183.961c-1.106,0-1.583,0.77-1.653,1.442h3.333
		C94.268,184.759,93.819,183.961,92.643,183.961z"/>
	<path fill="#363636" d="M96.462,188.555l0.771-1.288c0.504,0.476,1.499,0.938,2.339,0.938c0.771,0,1.135-0.294,1.135-0.715
		c0-1.106-4.006-0.196-4.006-2.857c0-1.135,0.98-2.129,2.773-2.129c1.135,0,2.045,0.392,2.718,0.925l-0.714,1.26
		c-0.406-0.42-1.177-0.784-2.003-0.784c-0.644,0-1.064,0.28-1.064,0.658c0,0.995,4.02,0.154,4.02,2.886
		c0,1.247-1.064,2.157-2.941,2.157C98.312,189.605,97.177,189.213,96.462,188.555z"/>
	<path fill="#363636" d="M102.874,188.555l0.771-1.288c0.504,0.476,1.499,0.938,2.339,0.938c0.771,0,1.135-0.294,1.135-0.715
		c0-1.106-4.006-0.196-4.006-2.857c0-1.135,0.98-2.129,2.773-2.129c1.135,0,2.045,0.392,2.718,0.925l-0.714,1.26
		c-0.406-0.42-1.177-0.784-2.003-0.784c-0.644,0-1.064,0.28-1.064,0.658c0,0.995,4.02,0.154,4.02,2.886
		c0,1.247-1.064,2.157-2.941,2.157C104.723,189.605,103.589,189.213,102.874,188.555z"/>
	<path fill="#363636" d="M109.707,180.879c0-0.588,0.476-1.051,1.051-1.051c0.588,0,1.064,0.463,1.064,1.051
		s-0.476,1.064-1.064,1.064C110.183,181.943,109.707,181.467,109.707,180.879z M109.875,189.438v-6.766h1.779v6.766H109.875z"/>
	<path fill="#363636" d="M113.515,187.742v-3.516h-1.121v-1.555h1.121v-1.849h1.779v1.849h1.373v1.555h-1.373v3.04
		c0,0.434,0.224,0.756,0.616,0.756c0.266,0,0.518-0.098,0.616-0.21l0.378,1.358c-0.266,0.238-0.743,0.435-1.485,0.435
		C114.173,189.605,113.515,188.961,113.515,187.742z"/>
	<path fill="#363636" d="M117.182,186.048c0-1.961,1.457-3.544,3.502-3.544c2.031,0,3.39,1.513,3.39,3.712v0.42h-5.029
		c0.126,0.827,0.799,1.513,1.947,1.513c0.574,0,1.359-0.237,1.793-0.658l0.798,1.177c-0.672,0.616-1.737,0.938-2.788,0.938
		C118.737,189.605,117.182,188.219,117.182,186.048z M120.684,183.961c-1.106,0-1.583,0.77-1.653,1.442h3.333
		C122.309,184.759,121.861,183.961,120.684,183.961z"/>
	<path fill="#363636" d="M133.061,189.438v-0.868c-0.533,0.672-1.261,1.036-2.087,1.036c-1.695,0-2.998-1.289-2.998-3.558
		c0-2.199,1.275-3.544,2.998-3.544c0.798,0,1.555,0.336,2.087,1.036v-3.445h1.793v9.343H133.061z M133.061,187.252v-2.395
		c-0.294-0.448-0.939-0.771-1.527-0.771c-1.023,0-1.723,0.798-1.723,1.961c0,1.177,0.7,1.975,1.723,1.975
		C132.122,188.022,132.767,187.7,133.061,187.252z"/>
	<path fill="#363636" d="M135.9,186.048c0-1.961,1.457-3.544,3.502-3.544c2.031,0,3.39,1.513,3.39,3.712v0.42h-5.029
		c0.126,0.827,0.799,1.513,1.947,1.513c0.574,0,1.359-0.237,1.793-0.658l0.798,1.177c-0.672,0.616-1.737,0.938-2.788,0.938
		C137.455,189.605,135.9,188.219,135.9,186.048z M139.402,183.961c-1.106,0-1.583,0.77-1.653,1.442h3.333
		C141.027,184.759,140.579,183.961,139.402,183.961z"/>
	<path fill="#363636" d="M143.222,188.555l0.771-1.288c0.504,0.476,1.499,0.938,2.339,0.938c0.771,0,1.135-0.294,1.135-0.715
		c0-1.106-4.006-0.196-4.006-2.857c0-1.135,0.98-2.129,2.773-2.129c1.135,0,2.045,0.392,2.718,0.925l-0.714,1.26
		c-0.406-0.42-1.177-0.784-2.003-0.784c-0.644,0-1.064,0.28-1.064,0.658c0,0.995,4.02,0.154,4.02,2.886
		c0,1.247-1.064,2.157-2.941,2.157C145.071,189.605,143.937,189.213,143.222,188.555z"/>
</g>
<g>
	<path fill="#363636" d="M3.714,197.68c0-0.588,0.476-1.051,1.051-1.051c0.588,0,1.064,0.463,1.064,1.051s-0.476,1.064-1.064,1.064
		C4.19,198.744,3.714,198.268,3.714,197.68z M3.882,206.238v-6.766h1.779v6.766H3.882z"/>
	<path fill="#363636" d="M11.725,206.238v-4.09c0-0.938-0.49-1.261-1.247-1.261c-0.7,0-1.232,0.392-1.541,0.784v4.566H7.158v-6.766
		h1.779v0.868c0.434-0.504,1.274-1.036,2.367-1.036c1.499,0,2.213,0.84,2.213,2.157v4.776H11.725z"/>
	<path fill="#363636" d="M15.362,204.543v-3.516h-1.121v-1.555h1.121v-1.849h1.779v1.849h1.373v1.555h-1.373v3.04
		c0,0.434,0.224,0.756,0.616,0.756c0.266,0,0.518-0.098,0.616-0.21l0.378,1.358c-0.266,0.238-0.743,0.435-1.485,0.435
		C16.021,206.406,15.362,205.762,15.362,204.543z"/>
	<path fill="#363636" d="M19.016,202.849c0-1.961,1.457-3.544,3.502-3.544c2.031,0,3.39,1.513,3.39,3.712v0.42h-5.029
		c0.126,0.827,0.799,1.513,1.947,1.513c0.574,0,1.359-0.237,1.793-0.658l0.798,1.177c-0.672,0.616-1.737,0.938-2.788,0.938
		C20.571,206.406,19.016,205.02,19.016,202.849z M22.518,200.762c-1.106,0-1.583,0.77-1.653,1.442h3.333
		C24.143,201.56,23.695,200.762,22.518,200.762z"/>
	<path fill="#363636" d="M26.926,206.238v-6.766h1.779v0.91c0.49-0.588,1.316-1.078,2.157-1.078v1.736
		c-0.126-0.027-0.28-0.042-0.491-0.042c-0.588,0-1.373,0.337-1.667,0.771v4.469H26.926z"/>
	<path fill="#363636" d="M33.451,206.238l-2.717-6.766h1.905l1.765,4.706l1.779-4.706h1.905l-2.718,6.766H33.451z"/>
	<path fill="#363636" d="M38.182,202.849c0-1.961,1.457-3.544,3.502-3.544c2.031,0,3.39,1.513,3.39,3.712v0.42h-5.029
		c0.126,0.827,0.799,1.513,1.947,1.513c0.574,0,1.359-0.237,1.793-0.658l0.798,1.177c-0.672,0.616-1.737,0.938-2.788,0.938
		C39.736,206.406,38.182,205.02,38.182,202.849z M41.684,200.762c-1.106,0-1.583,0.77-1.653,1.442h3.333
		C43.309,201.56,42.86,200.762,41.684,200.762z"/>
	<path fill="#363636" d="M50.658,206.238v-4.09c0-0.938-0.49-1.261-1.247-1.261c-0.7,0-1.232,0.392-1.541,0.784v4.566h-1.779v-6.766
		h1.779v0.868c0.434-0.504,1.274-1.036,2.367-1.036c1.499,0,2.213,0.84,2.213,2.157v4.776H50.658z"/>
	<path fill="#363636" d="M54.296,204.543v-3.516h-1.121v-1.555h1.121v-1.849h1.779v1.849h1.373v1.555h-1.373v3.04
		c0,0.434,0.224,0.756,0.616,0.756c0.266,0,0.518-0.098,0.616-0.21l0.378,1.358c-0.266,0.238-0.743,0.435-1.485,0.435
		C54.954,206.406,54.296,205.762,54.296,204.543z"/>
	<path fill="#363636" d="M58.229,197.68c0-0.588,0.476-1.051,1.051-1.051c0.588,0,1.064,0.463,1.064,1.051s-0.477,1.064-1.064,1.064
		C58.706,198.744,58.229,198.268,58.229,197.68z M58.397,206.238v-6.766h1.779v6.766H58.397z"/>
	<path fill="#363636" d="M61.239,202.849c0-1.919,1.345-3.544,3.572-3.544c2.241,0,3.586,1.625,3.586,3.544
		s-1.345,3.558-3.586,3.558C62.584,206.406,61.239,204.768,61.239,202.849z M66.548,202.849c0-1.051-0.617-1.961-1.737-1.961
		c-1.106,0-1.723,0.91-1.723,1.961c0,1.064,0.616,1.975,1.723,1.975C65.932,204.823,66.548,203.913,66.548,202.849z"/>
	<path fill="#363636" d="M74.023,206.238v-4.09c0-0.938-0.49-1.261-1.247-1.261c-0.7,0-1.232,0.392-1.541,0.784v4.566h-1.779v-6.766
		h1.779v0.868c0.434-0.504,1.274-1.036,2.367-1.036c1.499,0,2.213,0.84,2.213,2.157v4.776H74.023z"/>
	<path fill="#363636" d="M76.695,205.355l0.771-1.288c0.504,0.476,1.499,0.938,2.339,0.938c0.771,0,1.135-0.294,1.135-0.715
		c0-1.106-4.006-0.196-4.006-2.857c0-1.135,0.98-2.129,2.773-2.129c1.135,0,2.045,0.392,2.718,0.925l-0.714,1.26
		c-0.406-0.42-1.177-0.784-2.003-0.784c-0.644,0-1.064,0.28-1.064,0.658c0,0.995,4.02,0.154,4.02,2.886
		c0,1.247-1.064,2.157-2.941,2.157C78.544,206.406,77.409,206.014,76.695,205.355z"/>
	<path fill="#363636" d="M93.526,206.238l-0.588-1.583h-4.006l-0.588,1.583h-2.255l3.6-9.343h2.493l3.6,9.343H93.526z
		 M90.935,198.885l-1.457,4.02h2.914L90.935,198.885z"/>
	<path fill="#363636" d="M97.023,208.157l-0.771-0.63c0.448-0.238,0.967-0.827,1.079-1.317c-0.042,0.015-0.154,0.042-0.266,0.042
		c-0.532,0-0.953-0.42-0.953-1.008c0-0.617,0.504-1.121,1.107-1.121c0.658,0,1.247,0.519,1.247,1.429
		C98.466,206.603,97.892,207.541,97.023,208.157z"/>
	<path fill="#363636" d="M109.458,206.238l-4.455-6.094v6.094h-1.989v-9.343h2.045l4.328,5.869v-5.869h1.989v9.343H109.458z"/>
	<path fill="#363636" d="M113.599,208.157l-0.771-0.63c0.448-0.238,0.967-0.827,1.079-1.317c-0.042,0.015-0.154,0.042-0.266,0.042
		c-0.532,0-0.953-0.42-0.953-1.008c0-0.617,0.504-1.121,1.107-1.121c0.658,0,1.247,0.519,1.247,1.429
		C115.042,206.603,114.467,207.541,113.599,208.157z"/>
	<path fill="#363636" d="M119.142,201.574c0-2.886,2.171-4.833,4.987-4.833c2.045,0,3.236,1.106,3.894,2.283l-1.709,0.841
		c-0.392-0.757-1.232-1.359-2.185-1.359c-1.709,0-2.941,1.303-2.941,3.068c0,1.765,1.232,3.067,2.941,3.067
		c0.953,0,1.793-0.603,2.185-1.359l1.709,0.827c-0.658,1.162-1.849,2.297-3.894,2.297
		C121.313,206.406,119.142,204.445,119.142,201.574z"/>
	<path fill="#363636" d="M128.942,206.238v-9.343h6.612v1.751h-4.623v1.961h4.524v1.751h-4.524v2.129h4.623v1.751H128.942z"/>
	<path fill="#363636" d="M136.572,205.258c0-0.616,0.519-1.135,1.135-1.135s1.135,0.519,1.135,1.135s-0.519,1.135-1.135,1.135
		S136.572,205.874,136.572,205.258z"/>
</g>
<g>
	<path fill="#363636" d="M581.076,155.838v-7.592h-2.731v-1.751h7.451v1.751h-2.717v7.592H581.076z"/>
	<path fill="#363636" d="M586.324,152.448c0-1.919,1.345-3.544,3.572-3.544c2.241,0,3.586,1.625,3.586,3.544
		s-1.345,3.558-3.586,3.558C587.669,156.006,586.324,154.367,586.324,152.448z M591.633,152.448c0-1.051-0.616-1.961-1.736-1.961
		c-1.107,0-1.724,0.91-1.724,1.961c0,1.064,0.616,1.975,1.724,1.975C591.017,154.423,591.633,153.513,591.633,152.448z"/>
	<path fill="#363636" d="M599.109,155.838v-0.854c-0.463,0.504-1.275,1.022-2.382,1.022c-1.484,0-2.185-0.812-2.185-2.129v-4.805
		h1.778v4.104c0,0.938,0.49,1.246,1.247,1.246c0.687,0,1.232-0.378,1.541-0.771v-4.58h1.778v6.766H599.109z"/>
	<path fill="#363636" d="M602.732,154.143v-3.516h-1.121v-1.555h1.121v-1.849h1.778v1.849h1.373v1.555h-1.373v3.04
		c0,0.434,0.225,0.756,0.616,0.756c0.267,0,0.519-0.098,0.617-0.21l0.378,1.358c-0.267,0.238-0.742,0.435-1.485,0.435
		C603.391,156.006,602.732,155.361,602.732,154.143z"/>
	<path fill="#363636" d="M606.4,152.448c0-1.961,1.457-3.544,3.502-3.544c2.031,0,3.39,1.513,3.39,3.712v0.42h-5.028
		c0.126,0.827,0.798,1.513,1.947,1.513c0.574,0,1.358-0.237,1.793-0.658l0.798,1.177c-0.672,0.616-1.737,0.938-2.787,0.938
		C607.955,156.006,606.4,154.619,606.4,152.448z M609.902,150.361c-1.106,0-1.583,0.77-1.653,1.442h3.334
		C611.527,151.159,611.079,150.361,609.902,150.361z"/>
	<path fill="#363636" d="M619.406,154.97v3.445h-1.778v-9.343h1.778v0.854c0.519-0.658,1.261-1.022,2.088-1.022
		c1.736,0,2.997,1.288,2.997,3.544c0,2.255-1.261,3.558-2.997,3.558C620.695,156.006,619.967,155.67,619.406,154.97z
		 M622.656,152.448c0-1.163-0.7-1.961-1.723-1.961c-0.574,0-1.219,0.322-1.527,0.771v2.381c0.295,0.435,0.953,0.784,1.527,0.784
		C621.956,154.423,622.656,153.625,622.656,152.448z"/>
	<path fill="#363636" d="M625.075,152.448c0-1.961,1.457-3.544,3.502-3.544c2.031,0,3.39,1.513,3.39,3.712v0.42h-5.028
		c0.126,0.827,0.798,1.513,1.946,1.513c0.575,0,1.359-0.237,1.793-0.658l0.799,1.177c-0.672,0.616-1.737,0.938-2.787,0.938
		C626.63,156.006,625.075,154.619,625.075,152.448z M628.577,150.361c-1.106,0-1.583,0.77-1.653,1.442h3.334
		C630.202,151.159,629.754,150.361,628.577,150.361z"/>
	<path fill="#363636" d="M632.986,155.838v-6.766h1.778v0.91c0.49-0.588,1.317-1.078,2.157-1.078v1.736
		c-0.126-0.027-0.28-0.042-0.49-0.042c-0.588,0-1.372,0.337-1.667,0.771v4.469H632.986z"/>
	<path fill="#363636" d="M637.171,154.955l0.771-1.288c0.504,0.476,1.499,0.938,2.34,0.938c0.77,0,1.134-0.294,1.134-0.715
		c0-1.106-4.006-0.196-4.006-2.857c0-1.135,0.98-2.129,2.773-2.129c1.135,0,2.045,0.392,2.718,0.925l-0.715,1.26
		c-0.406-0.42-1.177-0.784-2.003-0.784c-0.645,0-1.064,0.28-1.064,0.658c0,0.995,4.021,0.154,4.021,2.886
		c0,1.247-1.064,2.157-2.942,2.157C639.021,156.006,637.886,155.613,637.171,154.955z"/>
	<path fill="#363636" d="M643.737,152.448c0-1.919,1.345-3.544,3.572-3.544c2.241,0,3.586,1.625,3.586,3.544
		s-1.345,3.558-3.586,3.558C645.082,156.006,643.737,154.367,643.737,152.448z M649.046,152.448c0-1.051-0.616-1.961-1.736-1.961
		c-1.106,0-1.724,0.91-1.724,1.961c0,1.064,0.617,1.975,1.724,1.975C648.43,154.423,649.046,153.513,649.046,152.448z"/>
	<path fill="#363636" d="M656.508,155.838v-4.09c0-0.938-0.49-1.261-1.247-1.261c-0.7,0-1.232,0.392-1.541,0.784v4.566h-1.778
		v-6.766h1.778v0.868c0.435-0.504,1.275-1.036,2.367-1.036c1.499,0,2.214,0.84,2.214,2.157v4.776H656.508z"/>
	<path fill="#363636" d="M664.348,155.838v-4.09c0-0.938-0.49-1.261-1.247-1.261c-0.7,0-1.232,0.392-1.541,0.784v4.566h-1.778
		v-6.766h1.778v0.868c0.435-0.504,1.275-1.036,2.367-1.036c1.499,0,2.214,0.84,2.214,2.157v4.776H664.348z"/>
	<path fill="#363636" d="M667.173,152.448c0-1.961,1.457-3.544,3.502-3.544c2.031,0,3.39,1.513,3.39,3.712v0.42h-5.028
		c0.126,0.827,0.798,1.513,1.946,1.513c0.575,0,1.359-0.237,1.793-0.658l0.799,1.177c-0.672,0.616-1.737,0.938-2.787,0.938
		C668.728,156.006,667.173,154.619,667.173,152.448z M670.675,150.361c-1.106,0-1.583,0.77-1.653,1.442h3.334
		C672.3,151.159,671.852,150.361,670.675,150.361z"/>
	<path fill="#363636" d="M682.463,155.838v-0.715c-0.462,0.561-1.261,0.883-2.143,0.883c-1.079,0-2.34-0.729-2.34-2.241
		c0-1.597,1.261-2.185,2.34-2.185c0.91,0,1.694,0.294,2.143,0.826v-0.854c0-0.687-0.588-1.135-1.484-1.135
		c-0.715,0-1.387,0.28-1.947,0.799l-0.7-1.247c0.826-0.742,1.891-1.064,2.955-1.064c1.556,0,2.97,0.616,2.97,2.563v4.37H682.463z
		 M682.463,154.213v-0.84c-0.294-0.393-0.854-0.603-1.429-0.603c-0.7,0-1.274,0.378-1.274,1.022s0.574,1.009,1.274,1.009
		C681.608,154.802,682.169,154.605,682.463,154.213z"/>
	<path fill="#363636" d="M686.088,154.143v-3.516h-1.121v-1.555h1.121v-1.849h1.778v1.849h1.373v1.555h-1.373v3.04
		c0,0.434,0.225,0.756,0.616,0.756c0.267,0,0.519-0.098,0.617-0.21l0.378,1.358c-0.267,0.238-0.742,0.435-1.485,0.435
		C686.746,156.006,686.088,155.361,686.088,154.143z"/>
	<path fill="#363636" d="M690.554,154.143v-3.516h-1.121v-1.555h1.121v-1.849h1.778v1.849h1.373v1.555h-1.373v3.04
		c0,0.434,0.225,0.756,0.616,0.756c0.267,0,0.519-0.098,0.616-0.21l0.379,1.358c-0.267,0.238-0.742,0.435-1.485,0.435
		C691.212,156.006,690.554,155.361,690.554,154.143z"/>
	<path fill="#363636" d="M694.221,152.448c0-1.961,1.457-3.544,3.502-3.544c2.031,0,3.39,1.513,3.39,3.712v0.42h-5.028
		c0.126,0.827,0.798,1.513,1.947,1.513c0.574,0,1.358-0.237,1.793-0.658l0.798,1.177c-0.672,0.616-1.737,0.938-2.787,0.938
		C695.775,156.006,694.221,154.619,694.221,152.448z M697.723,150.361c-1.106,0-1.583,0.77-1.653,1.442h3.334
		C699.348,151.159,698.899,150.361,697.723,150.361z"/>
	<path fill="#363636" d="M701.949,147.279c0-0.588,0.476-1.051,1.05-1.051c0.589,0,1.064,0.463,1.064,1.051
		s-0.476,1.064-1.064,1.064C702.425,148.344,701.949,147.867,701.949,147.279z M702.117,155.838v-6.766h1.778v6.766H702.117z"/>
	<path fill="#363636" d="M709.96,155.838v-4.09c0-0.938-0.49-1.261-1.247-1.261c-0.7,0-1.232,0.392-1.541,0.784v4.566h-1.778v-6.766
		h1.778v0.868c0.435-0.504,1.275-1.036,2.367-1.036c1.499,0,2.214,0.84,2.214,2.157v4.776H709.96z"/>
	<path fill="#363636" d="M713.583,154.143v-3.516h-1.121v-1.555h1.121v-1.849h1.778v1.849h1.373v1.555h-1.373v3.04
		c0,0.434,0.225,0.756,0.616,0.756c0.267,0,0.519-0.098,0.616-0.21l0.379,1.358c-0.267,0.238-0.742,0.435-1.485,0.435
		C714.241,156.006,713.583,155.361,713.583,154.143z"/>
	<path fill="#363636" d="M717.25,152.448c0-1.961,1.457-3.544,3.502-3.544c2.031,0,3.39,1.513,3.39,3.712v0.42h-5.028
		c0.126,0.827,0.798,1.513,1.947,1.513c0.574,0,1.358-0.237,1.793-0.658l0.798,1.177c-0.672,0.616-1.737,0.938-2.787,0.938
		C718.805,156.006,717.25,154.619,717.25,152.448z M720.752,150.361c-1.106,0-1.583,0.77-1.653,1.442h3.334
		C722.377,151.159,721.929,150.361,720.752,150.361z"/>
</g>
<g>
	<path fill="#363636" d="M583.527,172.638v-0.868c-0.532,0.672-1.261,1.036-2.087,1.036c-1.695,0-2.998-1.288-2.998-3.558
		c0-2.199,1.274-3.544,2.998-3.544c0.798,0,1.555,0.336,2.087,1.036v-3.445h1.793v9.343H583.527z M583.527,170.452v-2.395
		c-0.294-0.448-0.938-0.771-1.527-0.771c-1.022,0-1.723,0.798-1.723,1.961c0,1.177,0.7,1.975,1.723,1.975
		C582.589,171.223,583.233,170.9,583.527,170.452z"/>
	<path fill="#363636" d="M591.367,172.638v-0.854c-0.463,0.504-1.275,1.022-2.382,1.022c-1.484,0-2.185-0.812-2.185-2.129v-4.805
		h1.778v4.104c0,0.938,0.49,1.246,1.247,1.246c0.687,0,1.232-0.378,1.541-0.771v-4.58h1.778v6.766H591.367z"/>
	<path fill="#363636" d="M600.158,172.638v-7.592h-2.731v-1.751h7.451v1.751h-2.717v7.592H600.158z"/>
	<path fill="#363636" d="M608.04,172.638v-7.592h-2.731v-1.751h7.451v1.751h-2.717v7.592H608.04z"/>
	<path fill="#363636" d="M621.115,172.638v-0.715c-0.462,0.561-1.261,0.883-2.143,0.883c-1.079,0-2.34-0.729-2.34-2.241
		c0-1.597,1.261-2.186,2.34-2.186c0.91,0,1.694,0.295,2.143,0.827v-0.854c0-0.687-0.588-1.135-1.484-1.135
		c-0.715,0-1.387,0.28-1.947,0.799l-0.7-1.247c0.826-0.742,1.891-1.064,2.955-1.064c1.556,0,2.97,0.616,2.97,2.563v4.37H621.115z
		 M621.115,171.013v-0.841c-0.294-0.392-0.854-0.602-1.429-0.602c-0.7,0-1.274,0.378-1.274,1.022s0.574,1.009,1.274,1.009
		C620.261,171.602,620.821,171.405,621.115,171.013z"/>
	<path fill="#363636" d="M627.708,172.638v-9.343h1.778v3.445c0.532-0.7,1.289-1.036,2.088-1.036c1.723,0,2.997,1.345,2.997,3.544
		c0,2.27-1.289,3.558-2.997,3.558c-0.812,0-1.556-0.364-2.088-1.036v0.868H627.708z M631.027,171.223
		c1.022,0,1.709-0.798,1.709-1.975c0-1.163-0.687-1.961-1.709-1.961c-0.588,0-1.232,0.336-1.541,0.784v2.396
		C629.795,170.9,630.439,171.223,631.027,171.223z"/>
	<path fill="#363636" d="M635.197,169.248c0-1.961,1.457-3.544,3.502-3.544c2.031,0,3.39,1.513,3.39,3.712v0.42h-5.028
		c0.126,0.827,0.798,1.513,1.947,1.513c0.574,0,1.358-0.237,1.793-0.658l0.798,1.177c-0.672,0.616-1.737,0.938-2.787,0.938
		C636.752,172.806,635.197,171.419,635.197,169.248z M638.699,167.161c-1.106,0-1.583,0.771-1.653,1.442h3.334
		C640.324,167.959,639.876,167.161,638.699,167.161z"/>
	<path fill="#363636" d="M642.505,171.755l0.771-1.288c0.504,0.476,1.499,0.938,2.34,0.938c0.77,0,1.134-0.294,1.134-0.715
		c0-1.106-4.006-0.196-4.006-2.857c0-1.135,0.98-2.129,2.773-2.129c1.135,0,2.045,0.392,2.718,0.925l-0.715,1.26
		c-0.406-0.42-1.177-0.784-2.003-0.784c-0.645,0-1.064,0.28-1.064,0.658c0,0.995,4.021,0.154,4.021,2.886
		c0,1.247-1.064,2.157-2.942,2.157C644.354,172.806,643.22,172.414,642.505,171.755z"/>
	<path fill="#363636" d="M649.071,169.248c0-1.919,1.345-3.544,3.572-3.544c2.241,0,3.586,1.625,3.586,3.544
		s-1.345,3.558-3.586,3.558C650.416,172.806,649.071,171.167,649.071,169.248z M654.38,169.248c0-1.051-0.616-1.961-1.736-1.961
		c-1.106,0-1.724,0.91-1.724,1.961c0,1.064,0.617,1.975,1.724,1.975C653.764,171.223,654.38,170.312,654.38,169.248z"/>
	<path fill="#363636" d="M657.122,164.079c0-0.588,0.476-1.051,1.05-1.051c0.589,0,1.064,0.463,1.064,1.051
		s-0.476,1.064-1.064,1.064C657.598,165.144,657.122,164.667,657.122,164.079z M657.29,172.638v-6.766h1.778v6.766H657.29z"/>
	<path fill="#363636" d="M665.132,172.638v-4.09c0-0.938-0.49-1.261-1.247-1.261c-0.7,0-1.232,0.392-1.541,0.784v4.566h-1.778
		v-6.766h1.778v0.868c0.435-0.504,1.275-1.036,2.367-1.036c1.499,0,2.214,0.84,2.214,2.157v4.776H665.132z"/>
	<path fill="#363636" d="M676.374,172.638v-0.868c-0.532,0.672-1.261,1.036-2.087,1.036c-1.695,0-2.998-1.288-2.998-3.558
		c0-2.199,1.274-3.544,2.998-3.544c0.798,0,1.555,0.336,2.087,1.036v-3.445h1.793v9.343H676.374z M676.374,170.452v-2.395
		c-0.294-0.448-0.938-0.771-1.527-0.771c-1.022,0-1.723,0.798-1.723,1.961c0,1.177,0.7,1.975,1.723,1.975
		C675.436,171.223,676.08,170.9,676.374,170.452z"/>
	<path fill="#363636" d="M680.348,167.188l-0.771-0.63c0.448-0.238,0.966-0.826,1.078-1.331c-0.042,0.028-0.154,0.042-0.266,0.042
		c-0.533,0-0.953-0.406-0.953-1.009c0-0.602,0.505-1.106,1.106-1.106c0.658,0,1.247,0.519,1.247,1.429
		C681.79,165.634,681.216,166.572,680.348,167.188z"/>
	<path fill="#363636" d="M687.531,172.638v-0.854c-0.463,0.504-1.275,1.022-2.382,1.022c-1.484,0-2.185-0.812-2.185-2.129v-4.805
		h1.778v4.104c0,0.938,0.49,1.246,1.247,1.246c0.687,0,1.232-0.378,1.541-0.771v-4.58h1.778v6.766H687.531z"/>
	<path fill="#363636" d="M695.371,172.638v-4.09c0-0.938-0.49-1.261-1.247-1.261c-0.7,0-1.232,0.392-1.541,0.784v4.566h-1.778
		v-6.766h1.778v0.868c0.435-0.504,1.275-1.036,2.367-1.036c1.499,0,2.214,0.84,2.214,2.157v4.776H695.371z"/>
	<path fill="#363636" d="M698.21,169.248c0-1.961,1.457-3.544,3.502-3.544c2.031,0,3.39,1.513,3.39,3.712v0.42h-5.028
		c0.126,0.827,0.798,1.513,1.946,1.513c0.575,0,1.359-0.237,1.793-0.658l0.799,1.177c-0.672,0.616-1.737,0.938-2.787,0.938
		C699.765,172.806,698.21,171.419,698.21,169.248z M701.712,167.161c-1.106,0-1.583,0.771-1.653,1.442h3.334
		C703.337,167.959,702.889,167.161,701.712,167.161z"/>
</g>
<g>
	<path fill="#363636" d="M578.709,180.879c0-0.588,0.476-1.051,1.05-1.051c0.589,0,1.064,0.463,1.064,1.051
		s-0.476,1.064-1.064,1.064C579.185,181.943,578.709,181.467,578.709,180.879z M578.877,189.438v-6.766h1.778v6.766H578.877z"/>
	<path fill="#363636" d="M586.719,189.438v-4.09c0-0.938-0.49-1.261-1.247-1.261c-0.7,0-1.232,0.392-1.541,0.784v4.566h-1.778
		v-6.766h1.778v0.868c0.435-0.504,1.275-1.036,2.367-1.036c1.499,0,2.214,0.84,2.214,2.157v4.776H586.719z"/>
	<path fill="#363636" d="M590.343,187.742v-3.516h-1.121v-1.555h1.121v-1.849h1.778v1.849h1.373v1.555h-1.373v3.04
		c0,0.434,0.225,0.756,0.616,0.756c0.267,0,0.519-0.098,0.616-0.21l0.379,1.358c-0.267,0.238-0.742,0.435-1.485,0.435
		C591.001,189.605,590.343,188.961,590.343,187.742z"/>
	<path fill="#363636" d="M594.01,186.048c0-1.961,1.457-3.544,3.502-3.544c2.031,0,3.39,1.513,3.39,3.712v0.42h-5.028
		c0.126,0.827,0.798,1.513,1.947,1.513c0.574,0,1.358-0.237,1.793-0.658l0.798,1.177c-0.672,0.616-1.737,0.938-2.787,0.938
		C595.564,189.605,594.01,188.219,594.01,186.048z M597.512,183.961c-1.106,0-1.583,0.77-1.653,1.442h3.334
		C599.137,184.759,598.688,183.961,597.512,183.961z"/>
	<path fill="#363636" d="M601.906,189.438v-6.766h1.778v0.91c0.49-0.588,1.317-1.078,2.157-1.078v1.736
		c-0.126-0.027-0.28-0.042-0.49-0.042c-0.588,0-1.372,0.337-1.667,0.771v4.469H601.906z"/>
	<path fill="#363636" d="M608.432,189.438l-2.718-6.766h1.905l1.765,4.706l1.779-4.706h1.904l-2.717,6.766H608.432z"/>
	<path fill="#363636" d="M613.162,186.048c0-1.961,1.457-3.544,3.502-3.544c2.031,0,3.39,1.513,3.39,3.712v0.42h-5.028
		c0.126,0.827,0.798,1.513,1.947,1.513c0.574,0,1.358-0.237,1.793-0.658l0.798,1.177c-0.672,0.616-1.737,0.938-2.787,0.938
		C614.717,189.605,613.162,188.219,613.162,186.048z M616.664,183.961c-1.106,0-1.583,0.77-1.653,1.442h3.334
		C618.289,184.759,617.841,183.961,616.664,183.961z"/>
	<path fill="#363636" d="M625.625,189.438v-4.09c0-0.938-0.49-1.261-1.247-1.261c-0.7,0-1.232,0.392-1.541,0.784v4.566h-1.778
		v-6.766h1.778v0.868c0.435-0.504,1.275-1.036,2.367-1.036c1.499,0,2.214,0.84,2.214,2.157v4.776H625.625z"/>
	<path fill="#363636" d="M629.263,187.742v-3.516h-1.121v-1.555h1.121v-1.849h1.778v1.849h1.373v1.555h-1.373v3.04
		c0,0.434,0.225,0.756,0.616,0.756c0.267,0,0.519-0.098,0.616-0.21l0.379,1.358c-0.267,0.238-0.742,0.435-1.485,0.435
		C629.921,189.605,629.263,188.961,629.263,187.742z"/>
	<path fill="#363636" d="M633.182,180.879c0-0.588,0.476-1.051,1.05-1.051c0.589,0,1.064,0.463,1.064,1.051
		s-0.476,1.064-1.064,1.064C633.657,181.943,633.182,181.467,633.182,180.879z M633.35,189.438v-6.766h1.778v6.766H633.35z"/>
	<path fill="#363636" d="M636.191,186.048c0-1.919,1.345-3.544,3.572-3.544c2.241,0,3.586,1.625,3.586,3.544
		s-1.345,3.558-3.586,3.558C637.536,189.605,636.191,187.967,636.191,186.048z M641.5,186.048c0-1.051-0.616-1.961-1.736-1.961
		c-1.107,0-1.724,0.91-1.724,1.961c0,1.064,0.616,1.975,1.724,1.975C640.884,188.022,641.5,187.112,641.5,186.048z"/>
	<path fill="#363636" d="M648.977,189.438v-4.09c0-0.938-0.49-1.261-1.247-1.261c-0.7,0-1.232,0.392-1.541,0.784v4.566h-1.778
		v-6.766h1.778v0.868c0.435-0.504,1.275-1.036,2.367-1.036c1.499,0,2.214,0.84,2.214,2.157v4.776H648.977z"/>
	<path fill="#363636" d="M655.161,184.773c0-2.886,2.171-4.833,4.986-4.833c2.045,0,3.235,1.106,3.895,2.283l-1.709,0.841
		c-0.393-0.757-1.233-1.359-2.186-1.359c-1.709,0-2.941,1.303-2.941,3.068c0,1.765,1.232,3.067,2.941,3.067
		c0.952,0,1.793-0.603,2.186-1.359l1.709,0.827c-0.659,1.162-1.85,2.297-3.895,2.297
		C657.332,189.605,655.161,187.645,655.161,184.773z"/>
	<path fill="#363636" d="M671.349,189.438v-3.937h-4.413v3.937h-1.988v-9.343h1.988v3.67h4.413v-3.67h2.003v9.343H671.349z"/>
	<path fill="#363636" d="M674.648,188.457c0-0.616,0.519-1.135,1.135-1.135s1.135,0.519,1.135,1.135s-0.519,1.135-1.135,1.135
		S674.648,189.073,674.648,188.457z"/>
</g>
<rect x="768" fill="#181716" width="192.001" height="137"/>
<g>
	<defs>
		<rect id="SVGID_1_" width="960" height="211.666"/>
	</defs>
	<clipPath id="SVGID_2_">
		<use xlink:href="#SVGID_1_"  overflow="visible"/>
	</clipPath>
	
		<rect x="768" clip-path="url(#SVGID_2_)" fill="none" stroke="#FFFFFF" stroke-width="2" stroke-miterlimit="10" width="192" height="137"/>
</g>
<g>
	<path fill="#FFFFFF" d="M807.042,36.362c0-8.238,6.238-13.797,14.438-13.797c6.438,0,9.918,3.639,11.638,7.119l-5.919,2.839
		c-0.88-2.12-3.159-3.879-5.719-3.879c-4.359,0-7.438,3.32-7.438,7.719c0,4.359,3.079,7.719,7.438,7.719
		c2.56,0,4.839-1.76,5.719-3.879l5.919,2.8c-1.72,3.399-5.199,7.159-11.638,7.159C813.28,50.16,807.042,44.561,807.042,36.362z"/>
	<path fill="#FFFFFF" d="M833.962,36.362c0-8.119,6.119-13.797,14.277-13.797s14.237,5.679,14.237,13.797
		s-6.079,13.798-14.237,13.798S833.962,44.48,833.962,36.362z M855.479,36.362c0-4.359-2.84-7.719-7.239-7.719
		s-7.278,3.359-7.278,7.719c0,4.319,2.879,7.719,7.278,7.719S855.479,40.681,855.479,36.362z"/>
</g>
<g>
	<path fill="#FFFFFF" d="M806.47,65.284c0-3.655,2.755-6.212,6.429-6.212c3.673,0,6.409,2.557,6.409,6.212
		c0,3.655-2.736,6.211-6.409,6.211C809.225,71.495,806.47,68.938,806.47,65.284z M816.157,65.284c0-1.963-1.278-3.475-3.259-3.475
		c-1.981,0-3.277,1.512-3.277,3.475c0,1.944,1.296,3.475,3.277,3.475C814.879,68.759,816.157,67.228,816.157,65.284z"/>
	<path fill="#FFFFFF" d="M823.229,70.253v4.339h-2.772v-12.01h2.772v1.008c0.685-0.828,1.584-1.224,2.574-1.224
		c2.179,0,3.817,1.621,3.817,4.555c0,2.953-1.639,4.573-3.817,4.573C824.832,71.495,823.949,71.117,823.229,70.253z M826.795,66.922
		c0-1.296-0.829-2.106-1.909-2.106c-0.594,0-1.314,0.324-1.656,0.792v2.647c0.342,0.45,1.062,0.792,1.656,0.792
		C825.966,69.047,826.795,68.236,826.795,66.922z"/>
	<path fill="#FFFFFF" d="M835.848,71.279v-0.864c-0.54,0.648-1.584,1.08-2.7,1.08c-1.333,0-2.989-0.918-2.989-2.863
		c0-2.106,1.656-2.809,2.989-2.809c1.152,0,2.179,0.378,2.7,1.026v-0.864c0-0.756-0.648-1.278-1.765-1.278
		c-0.864,0-1.729,0.342-2.431,0.936l-1.026-1.927c1.116-0.954,2.611-1.35,3.943-1.35c2.089,0,4.052,0.774,4.052,3.475v5.438H835.848
		z M835.848,69.047v-0.774c-0.288-0.414-0.937-0.612-1.548-0.612c-0.721,0-1.387,0.324-1.387,1.008s0.666,1.008,1.387,1.008
		C834.911,69.677,835.56,69.461,835.848,69.047z"/>
	<path fill="#FFFFFF" d="M839.716,66.922c0-2.719,2.017-4.555,4.735-4.555c1.891,0,3.043,0.828,3.565,1.603l-1.801,1.674
		c-0.342-0.504-0.9-0.828-1.639-0.828c-1.152,0-2.034,0.792-2.034,2.106s0.882,2.125,2.034,2.125c0.738,0,1.297-0.36,1.639-0.847
		l1.801,1.693c-0.522,0.756-1.675,1.602-3.565,1.602C841.732,71.495,839.716,69.641,839.716,66.922z"/>
	<path fill="#FFFFFF" d="M848.734,60.206c0-0.882,0.702-1.584,1.584-1.584c0.883,0,1.603,0.702,1.603,1.584s-0.72,1.603-1.603,1.603
		C849.437,61.809,848.734,61.088,848.734,60.206z M848.932,71.279v-8.697h2.773v8.697H848.932z"/>
	<path fill="#FFFFFF" d="M853.953,68.938v-3.961h-1.439v-2.395h1.439v-2.376h2.773v2.376h1.765v2.395h-1.765v3.187
		c0,0.504,0.288,0.882,0.756,0.882c0.307,0,0.612-0.108,0.702-0.216l0.54,2.088c-0.342,0.324-1.025,0.576-2.052,0.576
		C854.908,71.495,853.953,70.613,853.953,68.938z"/>
	<path fill="#FFFFFF" d="M858.957,66.922c0-2.521,1.891-4.555,4.609-4.555c2.574,0,4.447,1.891,4.447,4.843v0.63h-6.193
		c0.197,0.774,0.918,1.422,2.178,1.422c0.612,0,1.621-0.27,2.125-0.738l1.206,1.818c-0.864,0.774-2.305,1.152-3.637,1.152
		C861.01,71.495,858.957,69.749,858.957,66.922z M863.566,64.599c-1.206,0-1.675,0.72-1.782,1.351h3.583
		C865.295,65.337,864.845,64.599,863.566,64.599z M863.872,61.269H862l2.286-2.593h2.449L863.872,61.269z"/>
</g>
<g>
	<path fill="#FFFFFF" d="M810.7,88.522c0-2.719,2.017-4.555,4.735-4.555c1.891,0,3.043,0.828,3.565,1.603l-1.801,1.674
		c-0.342-0.504-0.9-0.828-1.639-0.828c-1.152,0-2.034,0.792-2.034,2.106s0.882,2.125,2.034,2.125c0.738,0,1.297-0.36,1.639-0.846
		l1.801,1.693c-0.522,0.756-1.675,1.603-3.565,1.603C812.717,93.096,810.7,91.241,810.7,88.522z"/>
	<path fill="#FFFFFF" d="M819.358,88.522c0-2.449,1.765-4.555,4.718-4.555c2.988,0,4.753,2.106,4.753,4.555
		s-1.765,4.574-4.753,4.574C821.123,93.096,819.358,90.971,819.358,88.522z M825.984,88.522c0-1.152-0.685-2.106-1.908-2.106
		c-1.188,0-1.873,0.954-1.873,2.106c0,1.17,0.685,2.125,1.873,2.125C825.3,90.646,825.984,89.692,825.984,88.522z"/>
	<path fill="#FFFFFF" d="M829.941,92.879v-8.697h2.773v1.062c0.576-0.702,1.692-1.296,2.719-1.296v2.665
		c-0.162-0.054-0.396-0.072-0.685-0.072c-0.72,0-1.674,0.306-2.034,0.792v5.545H829.941z"/>
	<path fill="#FFFFFF" d="M842.238,92.879v-5.023c0-1.062-0.559-1.44-1.423-1.44c-0.828,0-1.368,0.45-1.692,0.846v5.618h-2.773
		v-8.697h2.773v1.062c0.522-0.612,1.549-1.278,3.024-1.278c1.963,0,2.863,1.152,2.863,2.755v6.158H842.238z"/>
	<path fill="#FFFFFF" d="M846.124,88.522c0-2.521,1.891-4.555,4.609-4.555c2.575,0,4.447,1.891,4.447,4.843v0.63h-6.194
		c0.198,0.774,0.919,1.422,2.179,1.422c0.612,0,1.621-0.27,2.125-0.738l1.206,1.819c-0.864,0.774-2.305,1.152-3.637,1.152
		C848.177,93.096,846.124,91.349,846.124,88.522z M850.733,86.199c-1.206,0-1.675,0.72-1.782,1.351h3.583
		C852.462,86.938,852.012,86.199,850.733,86.199z M851.039,82.868h-1.872l2.286-2.593h2.449L851.039,82.868z"/>
	<path fill="#FFFFFF" d="M855.646,88.522c0-2.521,1.891-4.555,4.609-4.555c2.575,0,4.447,1.891,4.447,4.843v0.63h-6.194
		c0.198,0.774,0.919,1.422,2.179,1.422c0.612,0,1.621-0.27,2.125-0.738l1.206,1.819c-0.864,0.774-2.305,1.152-3.637,1.152
		C857.698,93.096,855.646,91.349,855.646,88.522z M860.255,86.199c-1.206,0-1.675,0.72-1.782,1.351h3.583
		C861.983,86.938,861.533,86.199,860.255,86.199z"/>
	<path fill="#FFFFFF" d="M871.613,92.879v-5.023c0-1.062-0.559-1.44-1.423-1.44c-0.828,0-1.368,0.45-1.692,0.846v5.618h-2.773
		v-8.697h2.773v1.062c0.522-0.612,1.549-1.278,3.024-1.278c1.963,0,2.863,1.152,2.863,2.755v6.158H871.613z"/>
	<path fill="#FFFFFF" d="M881.945,92.879v-5.023c0-1.062-0.559-1.44-1.423-1.44c-0.828,0-1.368,0.45-1.692,0.846v5.618h-2.773
		v-8.697h2.773v1.062c0.522-0.612,1.549-1.278,3.024-1.278c1.963,0,2.863,1.152,2.863,2.755v6.158H881.945z"/>
	<path fill="#FFFFFF" d="M885.831,88.522c0-2.521,1.891-4.555,4.609-4.555c2.575,0,4.447,1.891,4.447,4.843v0.63h-6.194
		c0.198,0.774,0.919,1.422,2.179,1.422c0.612,0,1.621-0.27,2.125-0.738l1.206,1.819c-0.864,0.774-2.305,1.152-3.637,1.152
		C887.884,93.096,885.831,91.349,885.831,88.522z M890.44,86.199c-1.206,0-1.675,0.72-1.782,1.351h3.583
		C892.169,86.938,891.719,86.199,890.44,86.199z"/>
</g>
<polygon fill="#2C2136" points="576,0 576,137 768,137 768,92.991 795.491,65.5 768,38.009 768,0 "/>
<g>
	<defs>
		<rect id="SVGID_3_" width="960" height="211.666"/>
	</defs>
	<clipPath id="SVGID_4_">
		<use xlink:href="#SVGID_3_"  overflow="visible"/>
	</clipPath>
	<polygon clip-path="url(#SVGID_4_)" fill="none" stroke="#FFFFFF" stroke-width="2" stroke-miterlimit="10" points="795.491,65.5 
		768,38.009 768,0 576,0 576,137 768,137 768,92.991 	"/>
</g>
<polygon fill="#3C2A4F" points="384,0 384,137 576,137 576,92.991 603.491,65.5 576,38.009 576,0 "/>
<g>
	<defs>
		<rect id="SVGID_5_" width="960" height="211.666"/>
	</defs>
	<clipPath id="SVGID_6_">
		<use xlink:href="#SVGID_5_"  overflow="visible"/>
	</clipPath>
	<polygon clip-path="url(#SVGID_6_)" fill="none" stroke="#FFFFFF" stroke-width="2" stroke-miterlimit="10" points="603.491,65.5 
		576,38.009 576,0 384,0 384,137 576,137 576,92.991 	"/>
</g>
<g>
	<path fill="#FFFFFF" d="M630.36,49.68V29.003h-7.479v-5.999h21.796v5.999h-7.438V49.68H630.36z"/>
	<path fill="#FFFFFF" d="M653.16,49.68V29.003h-7.479v-5.999h21.796v5.999h-7.438V49.68H653.16z"/>
</g>
<g>
	<path fill="#FFFFFF" d="M625.765,71.279v-9.309h-3.366V59.27h9.812v2.701h-3.349v9.309H625.765z"/>
	<path fill="#FFFFFF" d="M633.27,71.279v-8.697h2.773v1.062c0.576-0.702,1.692-1.296,2.719-1.296v2.665
		c-0.162-0.054-0.396-0.072-0.685-0.072c-0.72,0-1.674,0.306-2.034,0.792v5.546H633.27z"/>
	<path fill="#FFFFFF" d="M639.48,60.206c0-0.882,0.702-1.584,1.584-1.584c0.883,0,1.603,0.702,1.603,1.584s-0.72,1.603-1.603,1.603
		C640.183,61.809,639.48,61.088,639.48,60.206z M639.678,71.279v-8.697h2.773v8.697H639.678z"/>
	<path fill="#FFFFFF" d="M643.565,66.922c0-2.719,2.017-4.555,4.735-4.555c1.891,0,3.043,0.828,3.565,1.603l-1.801,1.674
		c-0.342-0.504-0.9-0.828-1.639-0.828c-1.152,0-2.034,0.792-2.034,2.106s0.882,2.125,2.034,2.125c0.738,0,1.297-0.36,1.639-0.847
		l1.801,1.693c-0.522,0.756-1.675,1.602-3.565,1.602C645.582,71.495,643.565,69.641,643.565,66.922z"/>
	<path fill="#FFFFFF" d="M658.688,71.279v-5.06c0-1.062-0.559-1.404-1.44-1.404c-0.811,0-1.351,0.45-1.675,0.846v5.618H652.8V59.27
		h2.772v4.375c0.522-0.612,1.549-1.278,3.007-1.278c1.981,0,2.881,1.116,2.881,2.719v6.194H658.688z"/>
	<path fill="#FFFFFF" d="M662.934,60.206c0-0.882,0.702-1.584,1.584-1.584c0.883,0,1.603,0.702,1.603,1.584s-0.72,1.603-1.603,1.603
		C663.636,61.809,662.934,61.088,662.934,60.206z M663.131,71.279v-8.697h2.773v8.697H663.131z"/>
	<path fill="#FFFFFF" d="M672.709,71.279v-0.864c-0.54,0.648-1.584,1.08-2.7,1.08c-1.333,0-2.989-0.918-2.989-2.863
		c0-2.106,1.656-2.809,2.989-2.809c1.152,0,2.179,0.378,2.7,1.026v-0.864c0-0.756-0.648-1.278-1.765-1.278
		c-0.864,0-1.729,0.342-2.431,0.936l-1.026-1.927c1.116-0.954,2.611-1.35,3.943-1.35c2.089,0,4.052,0.774,4.052,3.475v5.438H672.709
		z M672.709,69.047v-0.774c-0.288-0.414-0.937-0.612-1.548-0.612c-0.721,0-1.387,0.324-1.387,1.008s0.666,1.008,1.387,1.008
		C671.772,69.677,672.421,69.461,672.709,69.047z"/>
	<path fill="#FFFFFF" d="M676.416,70.145l1.152-1.98c0.647,0.576,2.034,1.17,3.061,1.17c0.828,0,1.17-0.234,1.17-0.612
		c0-1.081-5.06,0.036-5.06-3.493c0-1.53,1.333-2.863,3.728-2.863c1.477,0,2.701,0.468,3.637,1.152l-1.062,1.962
		c-0.522-0.504-1.513-0.954-2.558-0.954c-0.647,0-1.08,0.252-1.08,0.594c0,0.954,5.042-0.036,5.042,3.529
		c0,1.657-1.459,2.845-3.943,2.845C678.937,71.495,677.334,70.973,676.416,70.145z"/>
	<path fill="#FFFFFF" d="M685.308,60.206c0-0.882,0.702-1.584,1.584-1.584c0.883,0,1.603,0.702,1.603,1.584s-0.72,1.603-1.603,1.603
		C686.01,61.809,685.308,61.088,685.308,60.206z M685.506,71.279v-8.697h2.772v8.697H685.506z"/>
	<path fill="#FFFFFF" d="M689.214,70.145l1.152-1.98c0.647,0.576,2.034,1.17,3.061,1.17c0.828,0,1.17-0.234,1.17-0.612
		c0-1.081-5.06,0.036-5.06-3.493c0-1.53,1.333-2.863,3.728-2.863c1.477,0,2.701,0.468,3.637,1.152l-1.062,1.962
		c-0.522-0.504-1.513-0.954-2.558-0.954c-0.647,0-1.08,0.252-1.08,0.594c0,0.954,5.042-0.036,5.042,3.529
		c0,1.657-1.459,2.845-3.943,2.845C691.734,71.495,690.132,70.973,689.214,70.145z"/>
</g>
<g>
	<path fill="#FFFFFF" d="M623.586,90.539v-3.961h-1.439v-2.395h1.439v-2.376h2.773v2.376h1.765v2.395h-1.765v3.187
		c0,0.504,0.288,0.882,0.756,0.882c0.307,0,0.612-0.108,0.702-0.216l0.54,2.089c-0.342,0.324-1.025,0.576-2.052,0.576
		C624.541,93.096,623.586,92.213,623.586,90.539z"/>
	<path fill="#FFFFFF" d="M629.148,92.879v-8.697h2.772v1.062c0.576-0.702,1.692-1.296,2.719-1.296v2.665
		c-0.162-0.054-0.396-0.072-0.685-0.072c-0.72,0-1.674,0.306-2.034,0.792v5.545H629.148z"/>
	<path fill="#FFFFFF" d="M640.688,92.879v-0.864c-0.54,0.648-1.584,1.081-2.7,1.081c-1.333,0-2.989-0.918-2.989-2.863
		c0-2.106,1.656-2.809,2.989-2.809c1.152,0,2.179,0.378,2.7,1.026v-0.864c0-0.756-0.648-1.278-1.765-1.278
		c-0.864,0-1.729,0.342-2.431,0.936l-1.026-1.926c1.116-0.955,2.611-1.351,3.943-1.351c2.089,0,4.052,0.774,4.052,3.475v5.438
		H640.688z M640.688,90.646v-0.774c-0.288-0.414-0.937-0.612-1.548-0.612c-0.721,0-1.387,0.324-1.387,1.008s0.666,1.008,1.387,1.008
		C639.751,91.277,640.399,91.061,640.688,90.646z"/>
	<path fill="#FFFFFF" d="M644.574,88.522c0-2.719,2.017-4.555,4.735-4.555c1.891,0,3.043,0.828,3.565,1.603l-1.801,1.674
		c-0.342-0.504-0.9-0.828-1.639-0.828c-1.152,0-2.034,0.792-2.034,2.106s0.882,2.125,2.034,2.125c0.738,0,1.297-0.36,1.639-0.846
		l1.801,1.693c-0.522,0.756-1.675,1.603-3.565,1.603C646.591,93.096,644.574,91.241,644.574,88.522z"/>
	<path fill="#FFFFFF" d="M659.695,92.879v-5.06c0-1.062-0.559-1.404-1.44-1.404c-0.811,0-1.351,0.45-1.675,0.846v5.618h-2.772V80.87
		h2.772v4.375c0.522-0.612,1.549-1.278,3.007-1.278c1.981,0,2.881,1.116,2.881,2.719v6.194H659.695z"/>
	<path fill="#FFFFFF" d="M663.563,88.522c0-2.449,1.765-4.555,4.718-4.555c2.988,0,4.753,2.106,4.753,4.555
		s-1.765,4.574-4.753,4.574C665.328,93.096,663.563,90.971,663.563,88.522z M670.189,88.522c0-1.152-0.685-2.106-1.908-2.106
		c-1.188,0-1.873,0.954-1.873,2.106c0,1.17,0.685,2.125,1.873,2.125C669.505,90.646,670.189,89.692,670.189,88.522z"/>
	<path fill="#FFFFFF" d="M685.113,92.879v-5.293c0-0.667-0.324-1.17-1.152-1.17c-0.756,0-1.297,0.486-1.566,0.846v5.618h-2.773
		v-5.293c0-0.667-0.306-1.17-1.134-1.17c-0.756,0-1.278,0.486-1.566,0.846v5.618h-2.772v-8.697h2.772v1.062
		c0.378-0.504,1.494-1.278,2.862-1.278c1.261,0,2.107,0.522,2.467,1.548c0.505-0.756,1.639-1.548,3.007-1.548
		c1.603,0,2.611,0.828,2.611,2.611v6.302H685.113z"/>
	<path fill="#FFFFFF" d="M694.669,92.879v-0.864c-0.54,0.648-1.584,1.081-2.7,1.081c-1.333,0-2.989-0.918-2.989-2.863
		c0-2.106,1.656-2.809,2.989-2.809c1.152,0,2.178,0.378,2.7,1.026v-0.864c0-0.756-0.648-1.278-1.765-1.278
		c-0.864,0-1.729,0.342-2.431,0.936l-1.026-1.926c1.116-0.955,2.611-1.351,3.943-1.351c2.089,0,4.052,0.774,4.052,3.475v5.438
		H694.669z M694.669,90.646v-0.774c-0.288-0.414-0.937-0.612-1.548-0.612c-0.721,0-1.387,0.324-1.387,1.008s0.666,1.008,1.387,1.008
		C693.732,91.277,694.381,91.061,694.669,90.646z"/>
	<path fill="#FFFFFF" d="M699.689,90.539v-3.961h-1.439v-2.395h1.439v-2.376h2.773v2.376h1.765v2.395h-1.765v3.187
		c0,0.504,0.288,0.882,0.756,0.882c0.307,0,0.612-0.108,0.702-0.216l0.54,2.089c-0.342,0.324-1.025,0.576-2.052,0.576
		C700.645,93.096,699.689,92.213,699.689,90.539z"/>
	<path fill="#FFFFFF" d="M704.693,88.522c0-2.521,1.891-4.555,4.609-4.555c2.574,0,4.447,1.891,4.447,4.843v0.63h-6.193
		c0.197,0.774,0.918,1.422,2.178,1.422c0.612,0,1.621-0.27,2.125-0.738l1.206,1.819c-0.864,0.774-2.305,1.152-3.637,1.152
		C706.746,93.096,704.693,91.349,704.693,88.522z M709.303,86.199c-1.206,0-1.675,0.72-1.782,1.351h3.583
		C711.031,86.938,710.581,86.199,709.303,86.199z"/>
	<path fill="#FFFFFF" d="M720.643,92.879v-1.044c-0.54,0.612-1.53,1.261-3.007,1.261c-1.963,0-2.862-1.135-2.862-2.719v-6.194h2.772
		v5.042c0,1.062,0.54,1.422,1.44,1.422c0.792,0,1.332-0.432,1.656-0.846v-5.618h2.773v8.697H720.643z"/>
	<path fill="#FFFFFF" d="M730.363,92.879l-1.657-2.629l-1.71,2.629h-3.025l2.972-4.465l-2.791-4.231h3.043l1.494,2.359l1.477-2.359
		h3.043l-2.773,4.231l2.972,4.465H730.363z"/>
</g>
<polygon fill="#563779" points="192,0 192,137 384,137 384,92.991 411.491,65.5 384,38.009 384,0 "/>
<g>
	<defs>
		<rect id="SVGID_7_" width="960" height="211.666"/>
	</defs>
	<clipPath id="SVGID_8_">
		<use xlink:href="#SVGID_7_"  overflow="visible"/>
	</clipPath>
	<polygon clip-path="url(#SVGID_8_)" fill="none" stroke="#FFFFFF" stroke-width="2" stroke-miterlimit="10" points="411.491,65.5 
		384,38.009 384,0 192,0 192,137 384,137 384,92.991 	"/>
</g>
<polygon fill="#653F91" points="0,0 0,137 192,137 192,92.991 219.491,65.5 192,38.009 192,0 "/>
<g>
	<defs>
		<rect id="SVGID_9_" width="960" height="211.666"/>
	</defs>
	<clipPath id="SVGID_10_">
		<use xlink:href="#SVGID_9_"  overflow="visible"/>
	</clipPath>
	<polygon clip-path="url(#SVGID_10_)" fill="none" stroke="#FFFFFF" stroke-width="2" stroke-miterlimit="10" points="219.491,65.5 
		192,38.009 192,0 0,0 0,137 192,137 192,92.991 	"/>
</g>
<g>
	<path fill="#FFFFFF" d="M44.359,49.68V29.003h-7.479v-5.999h21.796v5.999h-7.439V49.68H44.359z"/>
	<path fill="#FFFFFF" d="M61.2,49.68V23.004h19.557v5.999H68.079v4.16h12.398v5.999H68.079V49.68H61.2z"/>
</g>
<g>
	<path fill="#FFFFFF" d="M37.081,71.279V59.27h3.097v12.01H37.081z"/>
	<path fill="#FFFFFF" d="M47.811,71.279v-5.023c0-1.062-0.558-1.44-1.422-1.44c-0.828,0-1.368,0.45-1.692,0.846v5.618h-2.773v-8.697
		h2.773v1.062c0.522-0.612,1.548-1.278,3.025-1.278c1.962,0,2.863,1.152,2.863,2.755v6.158H47.811z"/>
	<path fill="#FFFFFF" d="M52.849,71.279v-6.302h-1.44v-2.395h1.44v-0.198c0-2.161,1.386-3.295,3.115-3.295
		c0.756,0,1.404,0.108,1.854,0.342l-0.54,2.071c-0.162-0.126-0.432-0.18-0.738-0.18c-0.504,0-0.918,0.342-0.918,1.062v0.198h1.764
		v2.395h-1.764v6.302H52.849z M58.539,71.279V59.27h2.773v12.01H58.539z"/>
	<path fill="#FFFFFF" d="M68.114,71.279v-0.864c-0.54,0.648-1.584,1.08-2.701,1.08c-1.333,0-2.989-0.918-2.989-2.863
		c0-2.106,1.656-2.809,2.989-2.809c1.152,0,2.179,0.378,2.701,1.026v-0.864c0-0.756-0.648-1.278-1.764-1.278
		c-0.864,0-1.729,0.342-2.431,0.936l-1.026-1.927c1.116-0.954,2.611-1.35,3.943-1.35c2.089,0,4.051,0.774,4.051,3.475v5.438H68.114z
		 M68.114,69.047v-0.774c-0.288-0.414-0.936-0.612-1.548-0.612c-0.72,0-1.386,0.324-1.386,1.008s0.666,1.008,1.386,1.008
		C67.178,69.677,67.826,69.461,68.114,69.047z"/>
	<path fill="#FFFFFF" d="M83.524,71.279v-5.293c0-0.667-0.324-1.17-1.152-1.17c-0.756,0-1.296,0.486-1.566,0.846v5.618h-2.773
		v-5.293c0-0.667-0.306-1.17-1.134-1.17c-0.756,0-1.278,0.486-1.566,0.846v5.618h-2.773v-8.697h2.773v1.062
		c0.378-0.504,1.494-1.278,2.863-1.278c1.26,0,2.106,0.522,2.467,1.548c0.504-0.756,1.638-1.548,3.007-1.548
		c1.603,0,2.611,0.828,2.611,2.611v6.302H83.524z"/>
	<path fill="#FFFFFF" d="M98.914,71.279v-5.293c0-0.667-0.324-1.17-1.152-1.17c-0.756,0-1.296,0.486-1.566,0.846v5.618h-2.773
		v-5.293c0-0.667-0.306-1.17-1.134-1.17c-0.756,0-1.278,0.486-1.566,0.846v5.618h-2.773v-8.697h2.773v1.062
		c0.378-0.504,1.494-1.278,2.863-1.278c1.26,0,2.106,0.522,2.467,1.548c0.504-0.756,1.638-1.548,3.007-1.548
		c1.603,0,2.611,0.828,2.611,2.611v6.302H98.914z"/>
	<path fill="#FFFFFF" d="M108.47,71.279v-0.864c-0.54,0.648-1.584,1.08-2.701,1.08c-1.333,0-2.989-0.918-2.989-2.863
		c0-2.106,1.656-2.809,2.989-2.809c1.152,0,2.179,0.378,2.701,1.026v-0.864c0-0.756-0.648-1.278-1.764-1.278
		c-0.864,0-1.729,0.342-2.431,0.936l-1.026-1.927c1.116-0.954,2.61-1.35,3.943-1.35c2.089,0,4.051,0.774,4.051,3.475v5.438H108.47z
		 M108.47,69.047v-0.774c-0.288-0.414-0.936-0.612-1.548-0.612c-0.72,0-1.386,0.324-1.386,1.008s0.666,1.008,1.386,1.008
		C107.534,69.677,108.182,69.461,108.47,69.047z"/>
	<path fill="#FFFFFF" d="M113.473,68.938v-3.961h-1.44v-2.395h1.44v-2.376h2.773v2.376h1.764v2.395h-1.764v3.187
		c0,0.504,0.288,0.882,0.756,0.882c0.306,0,0.612-0.108,0.702-0.216l0.54,2.088c-0.342,0.324-1.026,0.576-2.053,0.576
		C114.427,71.495,113.473,70.613,113.473,68.938z"/>
	<path fill="#FFFFFF" d="M118.836,60.206c0-0.882,0.702-1.584,1.584-1.584s1.603,0.702,1.603,1.584s-0.72,1.603-1.603,1.603
		S118.836,61.088,118.836,60.206z M119.034,71.279v-8.697h2.773v8.697H119.034z"/>
	<path fill="#FFFFFF" d="M122.922,66.922c0-2.449,1.765-4.555,4.717-4.555c2.989,0,4.753,2.106,4.753,4.555
		s-1.765,4.573-4.753,4.573C124.687,71.495,122.922,69.371,122.922,66.922z M129.548,66.922c0-1.152-0.684-2.106-1.909-2.106
		c-1.188,0-1.873,0.954-1.873,2.106c0,1.17,0.684,2.125,1.873,2.125C128.864,69.047,129.548,68.092,129.548,66.922z"/>
	<path fill="#FFFFFF" d="M139.394,71.279v-5.023c0-1.062-0.558-1.44-1.422-1.44c-0.828,0-1.369,0.45-1.692,0.846v5.618h-2.773
		v-8.697h2.773v1.062c0.522-0.612,1.548-1.278,3.025-1.278c1.962,0,2.863,1.152,2.863,2.755v6.158H139.394z"/>
</g>
<g>
	<path fill="#FFFFFF" d="M37.585,90.539v-3.961h-1.44v-2.395h1.44v-2.376h2.773v2.376h1.765v2.395h-1.765v3.187
		c0,0.504,0.288,0.882,0.756,0.882c0.306,0,0.612-0.108,0.703-0.216l0.54,2.089c-0.342,0.324-1.026,0.576-2.053,0.576
		C38.54,93.096,37.585,92.213,37.585,90.539z"/>
	<path fill="#FFFFFF" d="M43.147,92.879v-8.697h2.773v1.062c0.576-0.702,1.692-1.296,2.719-1.296v2.665
		c-0.162-0.054-0.396-0.072-0.684-0.072c-0.72,0-1.675,0.306-2.035,0.792v5.545H43.147z"/>
	<path fill="#FFFFFF" d="M54.668,92.879v-0.864c-0.54,0.648-1.584,1.081-2.701,1.081c-1.333,0-2.989-0.918-2.989-2.863
		c0-2.106,1.656-2.809,2.989-2.809c1.152,0,2.179,0.378,2.701,1.026v-0.864c0-0.756-0.648-1.278-1.764-1.278
		c-0.864,0-1.729,0.342-2.431,0.936l-1.026-1.926c1.116-0.955,2.61-1.351,3.943-1.351c2.089,0,4.051,0.774,4.051,3.475v5.438H54.668
		z M54.668,90.646v-0.774c-0.288-0.414-0.936-0.612-1.548-0.612c-0.72,0-1.386,0.324-1.386,1.008s0.666,1.008,1.386,1.008
		C53.732,91.277,54.38,91.061,54.668,90.646z"/>
	<path fill="#FFFFFF" d="M58.555,88.522c0-2.719,2.017-4.555,4.735-4.555c1.891,0,3.043,0.828,3.565,1.603l-1.8,1.674
		c-0.342-0.504-0.9-0.828-1.639-0.828c-1.152,0-2.035,0.792-2.035,2.106s0.882,2.125,2.035,2.125c0.738,0,1.296-0.36,1.639-0.846
		l1.8,1.693c-0.522,0.756-1.674,1.603-3.565,1.603C60.571,93.096,58.555,91.241,58.555,88.522z"/>
	<path fill="#FFFFFF" d="M73.677,92.879v-5.06c0-1.062-0.558-1.404-1.44-1.404c-0.81,0-1.351,0.45-1.674,0.846v5.618h-2.773V80.87
		h2.773v4.375c0.522-0.612,1.548-1.278,3.007-1.278c1.98,0,2.881,1.116,2.881,2.719v6.194H73.677z"/>
	<path fill="#FFFFFF" d="M77.545,88.522c0-2.449,1.765-4.555,4.717-4.555c2.989,0,4.753,2.106,4.753,4.555s-1.765,4.574-4.753,4.574
		C79.31,93.096,77.545,90.971,77.545,88.522z M84.171,88.522c0-1.152-0.684-2.106-1.909-2.106c-1.188,0-1.873,0.954-1.873,2.106
		c0,1.17,0.684,2.125,1.873,2.125C83.487,90.646,84.171,89.692,84.171,88.522z"/>
	<path fill="#FFFFFF" d="M99.094,92.879v-5.293c0-0.667-0.324-1.17-1.152-1.17c-0.756,0-1.296,0.486-1.566,0.846v5.618h-2.773
		v-5.293c0-0.667-0.306-1.17-1.134-1.17c-0.756,0-1.278,0.486-1.566,0.846v5.618h-2.773v-8.697h2.773v1.062
		c0.378-0.504,1.494-1.278,2.863-1.278c1.26,0,2.106,0.522,2.467,1.548c0.504-0.756,1.638-1.548,3.007-1.548
		c1.603,0,2.611,0.828,2.611,2.611v6.302H99.094z"/>
	<path fill="#FFFFFF" d="M108.65,92.879v-0.864c-0.54,0.648-1.584,1.081-2.701,1.081c-1.333,0-2.989-0.918-2.989-2.863
		c0-2.106,1.656-2.809,2.989-2.809c1.152,0,2.179,0.378,2.701,1.026v-0.864c0-0.756-0.648-1.278-1.764-1.278
		c-0.864,0-1.729,0.342-2.431,0.936l-1.026-1.926c1.116-0.955,2.61-1.351,3.943-1.351c2.089,0,4.051,0.774,4.051,3.475v5.438H108.65
		z M108.65,90.646v-0.774c-0.288-0.414-0.936-0.612-1.548-0.612c-0.72,0-1.386,0.324-1.386,1.008s0.666,1.008,1.386,1.008
		C107.714,91.277,108.362,91.061,108.65,90.646z"/>
	<path fill="#FFFFFF" d="M113.653,90.539v-3.961h-1.44v-2.395h1.44v-2.376h2.773v2.376h1.765v2.395h-1.765v3.187
		c0,0.504,0.288,0.882,0.756,0.882c0.306,0,0.612-0.108,0.703-0.216l0.54,2.089c-0.342,0.324-1.026,0.576-2.053,0.576
		C114.607,93.096,113.653,92.213,113.653,90.539z"/>
	<path fill="#FFFFFF" d="M118.656,88.522c0-2.521,1.891-4.555,4.609-4.555c2.575,0,4.447,1.891,4.447,4.843v0.63h-6.194
		c0.198,0.774,0.918,1.422,2.179,1.422c0.612,0,1.621-0.27,2.125-0.738l1.207,1.819c-0.864,0.774-2.305,1.152-3.637,1.152
		C120.709,93.096,118.656,91.349,118.656,88.522z M123.266,86.199c-1.207,0-1.675,0.72-1.783,1.351h3.583
		C124.994,86.938,124.544,86.199,123.266,86.199z"/>
	<path fill="#FFFFFF" d="M134.605,92.879v-1.044c-0.54,0.612-1.53,1.261-3.007,1.261c-1.962,0-2.863-1.135-2.863-2.719v-6.194h2.773
		v5.042c0,1.062,0.54,1.422,1.44,1.422c0.792,0,1.332-0.432,1.656-0.846v-5.618h2.773v8.697H134.605z"/>
	<path fill="#FFFFFF" d="M138.293,91.745l1.152-1.98c0.648,0.576,2.035,1.17,3.061,1.17c0.828,0,1.17-0.234,1.17-0.612
		c0-1.081-5.06,0.036-5.06-3.493c0-1.53,1.333-2.863,3.727-2.863c1.477,0,2.701,0.468,3.637,1.152l-1.062,1.962
		c-0.522-0.504-1.512-0.954-2.557-0.954c-0.648,0-1.081,0.252-1.081,0.594c0,0.954,5.042-0.036,5.042,3.529
		c0,1.657-1.458,2.845-3.943,2.845C140.814,93.096,139.212,92.573,138.293,91.745z"/>
	<path fill="#FFFFFF" d="M146.826,88.522c0-2.521,1.891-4.555,4.609-4.555c2.575,0,4.447,1.891,4.447,4.843v0.63h-6.194
		c0.198,0.774,0.918,1.422,2.179,1.422c0.612,0,1.621-0.27,2.125-0.738l1.207,1.819c-0.864,0.774-2.305,1.152-3.637,1.152
		C148.878,93.096,146.826,91.349,146.826,88.522z M151.435,86.199c-1.207,0-1.674,0.72-1.783,1.351h3.583
		C153.164,86.938,152.713,86.199,151.435,86.199z"/>
</g>
<g>
	<path fill="#FFFFFF" d="M36.541,111.274v-2.322h9.597v2.322H36.541z"/>
	<path fill="#FFFFFF" d="M51.661,114.479v-12.01h8.804v2.701h-5.708v1.872h5.582v2.701h-5.582v4.735H51.661z"/>
	<path fill="#FFFFFF" d="M61.165,110.122c0-2.448,1.765-4.555,4.717-4.555c2.989,0,4.753,2.107,4.753,4.555
		c0,2.449-1.765,4.573-4.753,4.573C62.929,114.695,61.165,112.571,61.165,110.122z M67.791,110.122c0-1.152-0.684-2.106-1.909-2.106
		c-1.188,0-1.873,0.954-1.873,2.106c0,1.171,0.684,2.125,1.873,2.125C67.106,112.247,67.791,111.293,67.791,110.122z"/>
	<path fill="#FFFFFF" d="M71.749,114.479v-12.01h2.773v12.01H71.749z"/>
	<path fill="#FFFFFF" d="M76.194,114.479v-12.01h2.773v12.01H76.194z"/>
	<path fill="#FFFFFF" d="M80.442,103.406c0-0.882,0.703-1.584,1.584-1.584c0.882,0,1.603,0.702,1.603,1.584s-0.72,1.603-1.603,1.603
		C81.145,105.009,80.442,104.289,80.442,103.406z M80.64,114.479v-8.697h2.773v8.697H80.64z"/>
	<path fill="#FFFFFF" d="M84.528,110.122c0-2.719,2.017-4.555,4.735-4.555c1.891,0,3.043,0.828,3.565,1.602l-1.8,1.675
		c-0.342-0.504-0.9-0.828-1.639-0.828c-1.152,0-2.035,0.792-2.035,2.106s0.882,2.125,2.035,2.125c0.738,0,1.296-0.36,1.639-0.847
		l1.8,1.692c-0.522,0.757-1.674,1.603-3.565,1.603C86.544,114.695,84.528,112.841,84.528,110.122z"/>
	<path fill="#FFFFFF" d="M99.596,114.479v-1.044c-0.54,0.611-1.53,1.26-3.007,1.26c-1.962,0-2.863-1.134-2.863-2.719v-6.194h2.773
		v5.042c0,1.062,0.54,1.423,1.44,1.423c0.792,0,1.332-0.433,1.656-0.847v-5.618h2.773v8.697H99.596z"/>
	<path fill="#FFFFFF" d="M104.022,114.479v-12.01h2.773v12.01H104.022z"/>
	<path fill="#FFFFFF" d="M113.599,114.479v-0.864c-0.54,0.648-1.584,1.08-2.701,1.08c-1.333,0-2.989-0.918-2.989-2.862
		c0-2.106,1.656-2.81,2.989-2.81c1.152,0,2.179,0.379,2.701,1.026v-0.864c0-0.756-0.648-1.278-1.764-1.278
		c-0.864,0-1.729,0.343-2.431,0.937l-1.026-1.927c1.116-0.954,2.61-1.35,3.943-1.35c2.089,0,4.051,0.774,4.051,3.475v5.438H113.599z
		 M113.599,112.247v-0.774c-0.288-0.414-0.936-0.612-1.548-0.612c-0.72,0-1.386,0.324-1.386,1.009c0,0.684,0.666,1.008,1.386,1.008
		C112.663,112.877,113.311,112.661,113.599,112.247z"/>
	<path fill="#FFFFFF" d="M117.828,103.406c0-0.882,0.703-1.584,1.584-1.584c0.882,0,1.603,0.702,1.603,1.584
		s-0.72,1.603-1.603,1.603C118.53,105.009,117.828,104.289,117.828,103.406z M118.026,114.479v-8.697h2.773v8.697H118.026z"/>
	<path fill="#FFFFFF" d="M122.472,114.479v-8.697h2.773v1.063c0.576-0.703,1.692-1.297,2.719-1.297v2.665
		c-0.162-0.055-0.396-0.072-0.684-0.072c-0.72,0-1.675,0.306-2.035,0.792v5.546H122.472z"/>
	<path fill="#FFFFFF" d="M128.303,110.122c0-2.521,1.891-4.555,4.609-4.555c2.575,0,4.447,1.89,4.447,4.843v0.63h-6.194
		c0.198,0.774,0.918,1.423,2.179,1.423c0.612,0,1.621-0.271,2.125-0.738l1.207,1.818c-0.864,0.774-2.305,1.152-3.637,1.152
		C130.356,114.695,128.303,112.949,128.303,110.122z M132.913,107.8c-1.207,0-1.674,0.72-1.783,1.351h3.583
		C134.641,108.538,134.191,107.8,132.913,107.8z"/>
</g>
<g>
	<path fill="#FFFFFF" d="M246.36,49.68V29.003h-7.479v-5.999h21.796v5.999h-7.439V49.68H246.36z"/>
	<path fill="#FFFFFF" d="M263.201,49.68V23.004h6.879V49.68H263.201z"/>
</g>
<g>
	<path fill="#FFFFFF" d="M243.33,71.279V59.27h3.097v12.01H243.33z"/>
	<path fill="#FFFFFF" d="M254.059,71.279v-5.023c0-1.062-0.558-1.44-1.422-1.44c-0.828,0-1.368,0.45-1.692,0.846v5.618h-2.773
		v-8.697h2.773v1.062c0.522-0.612,1.548-1.278,3.025-1.278c1.962,0,2.863,1.152,2.863,2.755v6.158H254.059z"/>
	<path fill="#FFFFFF" d="M259.098,71.279v-6.302h-1.44v-2.395h1.44v-0.198c0-2.161,1.386-3.295,3.115-3.295
		c0.756,0,1.405,0.108,1.854,0.342l-0.54,2.071c-0.162-0.126-0.432-0.18-0.738-0.18c-0.504,0-0.918,0.342-0.918,1.062v0.198h1.764
		v2.395h-1.764v6.302H259.098z M264.787,71.279V59.27h2.773v12.01H264.787z"/>
	<path fill="#FFFFFF" d="M274.362,71.279v-0.864c-0.54,0.648-1.584,1.08-2.701,1.08c-1.333,0-2.989-0.918-2.989-2.863
		c0-2.106,1.656-2.809,2.989-2.809c1.152,0,2.179,0.378,2.701,1.026v-0.864c0-0.756-0.648-1.278-1.764-1.278
		c-0.864,0-1.729,0.342-2.431,0.936l-1.026-1.927c1.116-0.954,2.611-1.35,3.943-1.35c2.089,0,4.051,0.774,4.051,3.475v5.438H274.362
		z M274.362,69.047v-0.774c-0.288-0.414-0.936-0.612-1.548-0.612c-0.72,0-1.386,0.324-1.386,1.008s0.666,1.008,1.386,1.008
		C273.426,69.677,274.074,69.461,274.362,69.047z"/>
	<path fill="#FFFFFF" d="M289.772,71.279v-5.293c0-0.667-0.324-1.17-1.152-1.17c-0.756,0-1.296,0.486-1.566,0.846v5.618h-2.773
		v-5.293c0-0.667-0.306-1.17-1.134-1.17c-0.756,0-1.278,0.486-1.566,0.846v5.618h-2.773v-8.697h2.773v1.062
		c0.378-0.504,1.494-1.278,2.863-1.278c1.26,0,2.106,0.522,2.467,1.548c0.504-0.756,1.638-1.548,3.007-1.548
		c1.603,0,2.611,0.828,2.611,2.611v6.302H289.772z"/>
	<path fill="#FFFFFF" d="M305.163,71.279v-5.293c0-0.667-0.324-1.17-1.152-1.17c-0.756,0-1.296,0.486-1.566,0.846v5.618h-2.773
		v-5.293c0-0.667-0.306-1.17-1.134-1.17c-0.756,0-1.278,0.486-1.566,0.846v5.618h-2.773v-8.697h2.773v1.062
		c0.378-0.504,1.494-1.278,2.863-1.278c1.26,0,2.106,0.522,2.467,1.548c0.504-0.756,1.638-1.548,3.007-1.548
		c1.603,0,2.611,0.828,2.611,2.611v6.302H305.163z"/>
	<path fill="#FFFFFF" d="M314.736,71.279v-0.864c-0.54,0.648-1.584,1.08-2.701,1.08c-1.333,0-2.989-0.918-2.989-2.863
		c0-2.106,1.656-2.809,2.989-2.809c1.152,0,2.179,0.378,2.701,1.026v-0.864c0-0.756-0.648-1.278-1.764-1.278
		c-0.864,0-1.729,0.342-2.431,0.936l-1.026-1.927c1.116-0.954,2.611-1.35,3.943-1.35c2.089,0,4.051,0.774,4.051,3.475v5.438H314.736
		z M314.736,69.047v-0.774c-0.288-0.414-0.936-0.612-1.548-0.612c-0.72,0-1.386,0.324-1.386,1.008s0.666,1.008,1.386,1.008
		C313.8,69.677,314.448,69.461,314.736,69.047z"/>
	<path fill="#FFFFFF" d="M319.739,68.938v-3.961h-1.44v-2.395h1.44v-2.376h2.773v2.376h1.764v2.395h-1.764v3.187
		c0,0.504,0.288,0.882,0.756,0.882c0.306,0,0.612-0.108,0.702-0.216l0.54,2.088c-0.342,0.324-1.026,0.576-2.053,0.576
		C320.693,71.495,319.739,70.613,319.739,68.938z"/>
	<path fill="#FFFFFF" d="M325.103,60.206c0-0.882,0.702-1.584,1.584-1.584s1.603,0.702,1.603,1.584s-0.72,1.603-1.603,1.603
		S325.103,61.088,325.103,60.206z M325.301,71.279v-8.697h2.773v8.697H325.301z"/>
	<path fill="#FFFFFF" d="M329.188,66.922c0-2.449,1.765-4.555,4.717-4.555c2.989,0,4.753,2.106,4.753,4.555
		s-1.765,4.573-4.753,4.573C330.953,71.495,329.188,69.371,329.188,66.922z M335.814,66.922c0-1.152-0.684-2.106-1.909-2.106
		c-1.188,0-1.873,0.954-1.873,2.106c0,1.17,0.684,2.125,1.873,2.125C335.13,69.047,335.814,68.092,335.814,66.922z"/>
	<path fill="#FFFFFF" d="M345.66,71.279v-5.023c0-1.062-0.558-1.44-1.422-1.44c-0.828,0-1.369,0.45-1.692,0.846v5.618h-2.773v-8.697
		h2.773v1.062c0.522-0.612,1.548-1.278,3.025-1.278c1.962,0,2.863,1.152,2.863,2.755v6.158H345.66z"/>
</g>
<g>
	<path fill="#FFFFFF" d="M239.586,90.539v-3.961h-1.44v-2.395h1.44v-2.376h2.773v2.376h1.764v2.395h-1.764v3.187
		c0,0.504,0.288,0.882,0.756,0.882c0.306,0,0.612-0.108,0.702-0.216l0.54,2.089c-0.342,0.324-1.026,0.576-2.053,0.576
		C240.54,93.096,239.586,92.213,239.586,90.539z"/>
	<path fill="#FFFFFF" d="M245.147,92.879v-8.697h2.773v1.062c0.576-0.702,1.692-1.296,2.719-1.296v2.665
		c-0.162-0.054-0.396-0.072-0.684-0.072c-0.72,0-1.675,0.306-2.035,0.792v5.545H245.147z"/>
	<path fill="#FFFFFF" d="M256.669,92.879v-0.864c-0.54,0.648-1.584,1.081-2.701,1.081c-1.333,0-2.989-0.918-2.989-2.863
		c0-2.106,1.656-2.809,2.989-2.809c1.152,0,2.179,0.378,2.701,1.026v-0.864c0-0.756-0.648-1.278-1.764-1.278
		c-0.864,0-1.729,0.342-2.431,0.936l-1.026-1.926c1.116-0.955,2.611-1.351,3.943-1.351c2.089,0,4.051,0.774,4.051,3.475v5.438
		H256.669z M256.669,90.646v-0.774c-0.288-0.414-0.936-0.612-1.548-0.612c-0.72,0-1.386,0.324-1.386,1.008s0.666,1.008,1.386,1.008
		C255.733,91.277,256.381,91.061,256.669,90.646z"/>
	<path fill="#FFFFFF" d="M260.555,88.522c0-2.719,2.017-4.555,4.735-4.555c1.891,0,3.043,0.828,3.565,1.603l-1.8,1.674
		c-0.342-0.504-0.9-0.828-1.639-0.828c-1.152,0-2.035,0.792-2.035,2.106s0.882,2.125,2.035,2.125c0.738,0,1.296-0.36,1.639-0.846
		l1.8,1.693c-0.522,0.756-1.674,1.603-3.565,1.603C262.572,93.096,260.555,91.241,260.555,88.522z"/>
	<path fill="#FFFFFF" d="M275.659,92.879v-5.06c0-1.062-0.558-1.404-1.44-1.404c-0.81,0-1.351,0.45-1.674,0.846v5.618h-2.773V80.87
		h2.773v4.375c0.522-0.612,1.548-1.278,3.007-1.278c1.98,0,2.881,1.116,2.881,2.719v6.194H275.659z"/>
	<path fill="#FFFFFF" d="M279.545,88.522c0-2.449,1.765-4.555,4.717-4.555c2.989,0,4.753,2.106,4.753,4.555
		s-1.765,4.574-4.753,4.574C281.31,93.096,279.545,90.971,279.545,88.522z M286.171,88.522c0-1.152-0.684-2.106-1.909-2.106
		c-1.188,0-1.873,0.954-1.873,2.106c0,1.17,0.684,2.125,1.873,2.125C285.487,90.646,286.171,89.692,286.171,88.522z"/>
	<path fill="#FFFFFF" d="M301.094,92.879v-5.293c0-0.667-0.324-1.17-1.152-1.17c-0.756,0-1.296,0.486-1.566,0.846v5.618h-2.773
		v-5.293c0-0.667-0.306-1.17-1.134-1.17c-0.756,0-1.278,0.486-1.566,0.846v5.618h-2.773v-8.697h2.773v1.062
		c0.378-0.504,1.494-1.278,2.863-1.278c1.26,0,2.106,0.522,2.467,1.548c0.504-0.756,1.638-1.548,3.007-1.548
		c1.603,0,2.611,0.828,2.611,2.611v6.302H301.094z"/>
	<path fill="#FFFFFF" d="M310.668,92.879v-0.864c-0.54,0.648-1.584,1.081-2.701,1.081c-1.333,0-2.989-0.918-2.989-2.863
		c0-2.106,1.656-2.809,2.989-2.809c1.152,0,2.179,0.378,2.701,1.026v-0.864c0-0.756-0.648-1.278-1.764-1.278
		c-0.864,0-1.729,0.342-2.431,0.936l-1.026-1.926c1.116-0.955,2.61-1.351,3.943-1.351c2.089,0,4.051,0.774,4.051,3.475v5.438
		H310.668z M310.668,90.646v-0.774c-0.288-0.414-0.936-0.612-1.548-0.612c-0.72,0-1.386,0.324-1.386,1.008s0.666,1.008,1.386,1.008
		C309.732,91.277,310.38,91.061,310.668,90.646z"/>
	<path fill="#FFFFFF" d="M315.671,90.539v-3.961h-1.44v-2.395h1.44v-2.376h2.773v2.376h1.765v2.395h-1.765v3.187
		c0,0.504,0.288,0.882,0.756,0.882c0.306,0,0.612-0.108,0.703-0.216l0.54,2.089c-0.342,0.324-1.026,0.576-2.053,0.576
		C316.625,93.096,315.671,92.213,315.671,90.539z"/>
	<path fill="#FFFFFF" d="M320.675,88.522c0-2.521,1.891-4.555,4.609-4.555c2.575,0,4.447,1.891,4.447,4.843v0.63h-6.194
		c0.198,0.774,0.918,1.422,2.179,1.422c0.612,0,1.621-0.27,2.125-0.738l1.207,1.819c-0.864,0.774-2.305,1.152-3.637,1.152
		C322.728,93.096,320.675,91.349,320.675,88.522z M325.284,86.199c-1.207,0-1.675,0.72-1.783,1.351h3.583
		C327.013,86.938,326.562,86.199,325.284,86.199z"/>
	<path fill="#FFFFFF" d="M336.624,92.879v-1.044c-0.54,0.612-1.53,1.261-3.007,1.261c-1.962,0-2.863-1.135-2.863-2.719v-6.194h2.773
		v5.042c0,1.062,0.54,1.422,1.44,1.422c0.792,0,1.332-0.432,1.656-0.846v-5.618h2.773v8.697H336.624z"/>
	<path fill="#FFFFFF" d="M340.33,91.745l1.152-1.98c0.648,0.576,2.035,1.17,3.061,1.17c0.828,0,1.17-0.234,1.17-0.612
		c0-1.081-5.06,0.036-5.06-3.493c0-1.53,1.333-2.863,3.727-2.863c1.477,0,2.701,0.468,3.637,1.152l-1.062,1.962
		c-0.522-0.504-1.512-0.954-2.557-0.954c-0.648,0-1.081,0.252-1.081,0.594c0,0.954,5.042-0.036,5.042,3.529
		c0,1.657-1.458,2.845-3.943,2.845C342.851,93.096,341.249,92.573,340.33,91.745z"/>
	<path fill="#FFFFFF" d="M348.862,88.522c0-2.521,1.891-4.555,4.609-4.555c2.575,0,4.447,1.891,4.447,4.843v0.63h-6.194
		c0.198,0.774,0.918,1.422,2.179,1.422c0.612,0,1.621-0.27,2.125-0.738l1.207,1.819c-0.864,0.774-2.305,1.152-3.637,1.152
		C350.915,93.096,348.862,91.349,348.862,88.522z M353.472,86.199c-1.207,0-1.675,0.72-1.783,1.351h3.583
		C355.2,86.938,354.75,86.199,353.472,86.199z"/>
</g>
<g>
	<path fill="#FFFFFF" d="M238.542,111.274v-2.322h9.597v2.322H238.542z"/>
	<path fill="#FFFFFF" d="M253.661,114.479v-12.01h3.097v12.01H253.661z"/>
	<path fill="#FFFFFF" d="M264.391,114.479v-5.023c0-1.062-0.558-1.44-1.422-1.44c-0.828,0-1.368,0.45-1.692,0.846v5.618h-2.773
		v-8.697h2.773v1.063c0.522-0.613,1.548-1.279,3.025-1.279c1.962,0,2.863,1.152,2.863,2.754v6.158H264.391z"/>
	<path fill="#FFFFFF" d="M269.411,112.139v-3.961h-1.44v-2.395h1.44v-2.376h2.773v2.376h1.764v2.395h-1.764v3.187
		c0,0.505,0.288,0.883,0.756,0.883c0.306,0,0.612-0.108,0.702-0.216l0.54,2.088c-0.342,0.324-1.026,0.576-2.053,0.576
		C270.365,114.695,269.411,113.813,269.411,112.139z"/>
	<path fill="#FFFFFF" d="M274.415,110.122c0-2.521,1.891-4.555,4.609-4.555c2.575,0,4.447,1.89,4.447,4.843v0.63h-6.194
		c0.198,0.774,0.918,1.423,2.179,1.423c0.612,0,1.621-0.271,2.125-0.738l1.207,1.818c-0.864,0.774-2.305,1.152-3.637,1.152
		C276.467,114.695,274.415,112.949,274.415,110.122z M279.024,107.8c-1.207,0-1.674,0.72-1.783,1.351h3.583
		C280.752,108.538,280.302,107.8,279.024,107.8z"/>
	<path fill="#FFFFFF" d="M290.382,114.479v-5.023c0-1.062-0.558-1.44-1.422-1.44c-0.828,0-1.368,0.45-1.692,0.846v5.618h-2.773
		v-8.697h2.773v1.063c0.522-0.613,1.548-1.279,3.025-1.279c1.962,0,2.863,1.152,2.863,2.754v6.158H290.382z"/>
	<path fill="#FFFFFF" d="M294.088,113.345l1.152-1.98c0.648,0.576,2.035,1.171,3.061,1.171c0.828,0,1.17-0.234,1.17-0.612
		c0-1.08-5.06,0.036-5.06-3.493c0-1.53,1.333-2.863,3.727-2.863c1.477,0,2.701,0.468,3.637,1.152l-1.062,1.963
		c-0.522-0.504-1.512-0.954-2.557-0.954c-0.648,0-1.081,0.252-1.081,0.594c0,0.955,5.042-0.036,5.042,3.529
		c0,1.656-1.458,2.845-3.943,2.845C296.609,114.695,295.006,114.174,294.088,113.345z"/>
	<path fill="#FFFFFF" d="M302.62,110.122c0-2.521,1.891-4.555,4.609-4.555c2.575,0,4.447,1.89,4.447,4.843v0.63h-6.194
		c0.198,0.774,0.918,1.423,2.179,1.423c0.612,0,1.621-0.271,2.125-0.738l1.207,1.818c-0.864,0.774-2.305,1.152-3.637,1.152
		C304.673,114.695,302.62,112.949,302.62,110.122z M307.229,107.8c-1.207,0-1.675,0.72-1.783,1.351h3.583
		C308.958,108.538,308.508,107.8,307.229,107.8z"/>
</g>
<g>
	<path fill="#FFFFFF" d="M438.36,49.68V29.003h-7.479v-5.999h21.796v5.999h-7.439V49.68H438.36z"/>
	<path fill="#FFFFFF" d="M453.281,45.92l3.639-5.359c1.92,1.92,4.879,3.52,8.559,3.52c2.32,0,3.759-0.8,3.759-2.12
		c0-3.52-15.077-0.6-15.077-10.878c0-4.479,3.759-8.479,10.598-8.479c4.279,0,7.999,1.28,10.838,3.72l-3.76,5.159
		c-2.239-1.88-5.159-2.8-7.798-2.8c-2,0-2.88,0.68-2.88,1.84c0,3.279,15.078,0.8,15.078,10.718c0,5.359-3.959,8.918-11.118,8.918
		C459.72,50.16,455.961,48.44,453.281,45.92z"/>
</g>
<g>
	<path fill="#FFFFFF" d="M430.47,65.284c0-3.709,2.809-6.212,6.5-6.212c2.898,0,4.465,1.638,5.239,3.205l-2.665,1.279
		c-0.396-0.955-1.422-1.747-2.575-1.747c-1.963,0-3.349,1.494-3.349,3.475c0,1.962,1.386,3.475,3.349,3.475
		c1.152,0,2.179-0.792,2.575-1.747l2.665,1.26c-0.774,1.53-2.341,3.223-5.239,3.223C433.278,71.495,430.47,68.975,430.47,65.284z"/>
	<path fill="#FFFFFF" d="M442.925,60.206c0-0.882,0.703-1.584,1.584-1.584c0.882,0,1.603,0.702,1.603,1.584s-0.72,1.603-1.603,1.603
		C443.628,61.809,442.925,61.088,442.925,60.206z M443.124,71.279v-8.697h2.773v8.697H443.124z"/>
	<path fill="#FFFFFF" d="M447.011,66.922c0-2.719,2.017-4.555,4.735-4.555c1.891,0,3.043,0.828,3.565,1.603l-1.8,1.674
		c-0.342-0.504-0.9-0.828-1.639-0.828c-1.152,0-2.035,0.792-2.035,2.106s0.882,2.125,2.035,2.125c0.738,0,1.296-0.36,1.639-0.847
		l1.8,1.693c-0.522,0.756-1.674,1.602-3.565,1.602C449.028,71.495,447.011,69.641,447.011,66.922z"/>
	<path fill="#FFFFFF" d="M461.359,71.279v-0.864c-0.54,0.648-1.584,1.08-2.701,1.08c-1.333,0-2.989-0.918-2.989-2.863
		c0-2.106,1.656-2.809,2.989-2.809c1.152,0,2.179,0.378,2.701,1.026v-0.864c0-0.756-0.648-1.278-1.764-1.278
		c-0.864,0-1.729,0.342-2.431,0.936l-1.026-1.927c1.116-0.954,2.61-1.35,3.943-1.35c2.089,0,4.051,0.774,4.051,3.475v5.438H461.359z
		 M461.359,69.047v-0.774c-0.288-0.414-0.936-0.612-1.548-0.612c-0.72,0-1.386,0.324-1.386,1.008s0.666,1.008,1.386,1.008
		C460.423,69.677,461.071,69.461,461.359,69.047z"/>
	<path fill="#FFFFFF" d="M466.361,68.938v-3.961h-1.44v-2.395h1.44v-2.376h2.773v2.376h1.764v2.395h-1.764v3.187
		c0,0.504,0.288,0.882,0.756,0.882c0.306,0,0.612-0.108,0.702-0.216l0.54,2.088c-0.342,0.324-1.026,0.576-2.053,0.576
		C467.315,71.495,466.361,70.613,466.361,68.938z"/>
	<path fill="#FFFFFF" d="M471.923,71.279v-8.697h2.773v1.062c0.576-0.702,1.692-1.296,2.719-1.296v2.665
		c-0.162-0.054-0.396-0.072-0.684-0.072c-0.72,0-1.675,0.306-2.035,0.792v5.546H471.923z"/>
	<path fill="#FFFFFF" d="M478.115,60.206c0-0.882,0.703-1.584,1.584-1.584c0.883,0,1.603,0.702,1.603,1.584s-0.72,1.603-1.603,1.603
		C478.817,61.809,478.115,61.088,478.115,60.206z M478.313,71.279v-8.697h2.773v8.697H478.313z"/>
	<path fill="#FFFFFF" d="M482.201,66.922c0-2.719,2.017-4.555,4.735-4.555c1.891,0,3.043,0.828,3.565,1.603l-1.801,1.674
		c-0.342-0.504-0.9-0.828-1.639-0.828c-1.152,0-2.034,0.792-2.034,2.106s0.882,2.125,2.034,2.125c0.738,0,1.297-0.36,1.639-0.847
		l1.801,1.693c-0.522,0.756-1.675,1.602-3.565,1.602C484.218,71.495,482.201,69.641,482.201,66.922z"/>
	<path fill="#FFFFFF" d="M490.841,66.922c0-2.521,1.891-4.555,4.609-4.555c2.575,0,4.447,1.891,4.447,4.843v0.63h-6.194
		c0.198,0.774,0.919,1.422,2.179,1.422c0.612,0,1.621-0.27,2.125-0.738l1.206,1.818c-0.864,0.774-2.305,1.152-3.637,1.152
		C492.894,71.495,490.841,69.749,490.841,66.922z M495.45,64.599c-1.206,0-1.675,0.72-1.782,1.351h3.583
		C497.179,65.337,496.729,64.599,495.45,64.599z"/>
</g>
<g>
	<path fill="#FFFFFF" d="M430.452,88.522c0-2.719,2.017-4.555,4.735-4.555c1.891,0,3.043,0.828,3.565,1.603l-1.8,1.674
		c-0.342-0.504-0.9-0.828-1.639-0.828c-1.152,0-2.035,0.792-2.035,2.106s0.882,2.125,2.035,2.125c0.738,0,1.296-0.36,1.639-0.846
		l1.8,1.693c-0.522,0.756-1.674,1.603-3.565,1.603C432.468,93.096,430.452,91.241,430.452,88.522z"/>
	<path fill="#FFFFFF" d="M439.092,88.522c0-2.449,1.765-4.555,4.717-4.555c2.989,0,4.753,2.106,4.753,4.555
		s-1.765,4.574-4.753,4.574C440.856,93.096,439.092,90.971,439.092,88.522z M445.718,88.522c0-1.152-0.684-2.106-1.909-2.106
		c-1.188,0-1.873,0.954-1.873,2.106c0,1.17,0.684,2.125,1.873,2.125C445.034,90.646,445.718,89.692,445.718,88.522z"/>
	<path fill="#FFFFFF" d="M455.563,92.879v-5.023c0-1.062-0.558-1.44-1.422-1.44c-0.828,0-1.369,0.45-1.692,0.846v5.618h-2.773
		v-8.697h2.773v1.062c0.522-0.612,1.548-1.278,3.025-1.278c1.962,0,2.863,1.152,2.863,2.755v6.158H455.563z"/>
	<path fill="#FFFFFF" d="M457.126,95.796l0.702-2.017c0.342,0.288,0.594,0.396,1.116,0.396c0.648,0,1.062-0.432,1.062-1.368v-8.625
		h2.773v8.625c0,2.106-1.044,3.601-3.367,3.601C458.225,96.408,457.792,96.229,457.126,95.796z M459.809,81.806
		c0-0.882,0.703-1.584,1.584-1.584c0.882,0,1.603,0.702,1.603,1.584s-0.72,1.603-1.603,1.603
		C460.512,83.409,459.809,82.688,459.809,81.806z"/>
	<path fill="#FFFFFF" d="M463.895,88.522c0-2.449,1.765-4.555,4.717-4.555c2.989,0,4.753,2.106,4.753,4.555
		s-1.765,4.574-4.753,4.574C465.66,93.096,463.895,90.971,463.895,88.522z M470.521,88.522c0-1.152-0.684-2.106-1.909-2.106
		c-1.188,0-1.873,0.954-1.873,2.106c0,1.17,0.684,2.125,1.873,2.125C469.837,90.646,470.521,89.692,470.521,88.522z"/>
	<path fill="#FFFFFF" d="M480.367,92.879v-5.023c0-1.062-0.559-1.44-1.423-1.44c-0.828,0-1.368,0.45-1.692,0.846v5.618h-2.773
		v-8.697h2.773v1.062c0.522-0.612,1.548-1.278,3.024-1.278c1.963,0,2.863,1.152,2.863,2.755v6.158H480.367z"/>
	<path fill="#FFFFFF" d="M484.253,88.522c0-2.719,2.017-4.555,4.735-4.555c1.891,0,3.043,0.828,3.565,1.603l-1.801,1.674
		c-0.342-0.504-0.9-0.828-1.639-0.828c-1.152,0-2.034,0.792-2.034,2.106s0.882,2.125,2.034,2.125c0.738,0,1.297-0.36,1.639-0.846
		l1.801,1.693c-0.522,0.756-1.675,1.603-3.565,1.603C486.27,93.096,484.253,91.241,484.253,88.522z"/>
	<path fill="#FFFFFF" d="M494.045,90.539v-3.961h-1.441v-2.395h1.441v-2.376h2.772v2.376h1.765v2.395h-1.765v3.187
		c0,0.504,0.288,0.882,0.756,0.882c0.307,0,0.612-0.108,0.702-0.216l0.54,2.089c-0.342,0.324-1.026,0.576-2.052,0.576
		C494.999,93.096,494.045,92.213,494.045,90.539z"/>
	<path fill="#FFFFFF" d="M499.409,81.806c0-0.882,0.702-1.584,1.584-1.584c0.883,0,1.603,0.702,1.603,1.584s-0.72,1.603-1.603,1.603
		C500.111,83.409,499.409,82.688,499.409,81.806z M499.607,92.879v-8.697h2.772v8.697H499.607z"/>
	<path fill="#FFFFFF" d="M506.285,92.879l-3.421-8.697h2.917l1.98,5.51l1.962-5.51h2.936l-3.421,8.697H506.285z"/>
	<path fill="#FFFFFF" d="M518.273,92.879v-0.864c-0.54,0.648-1.584,1.081-2.7,1.081c-1.333,0-2.989-0.918-2.989-2.863
		c0-2.106,1.656-2.809,2.989-2.809c1.152,0,2.179,0.378,2.7,1.026v-0.864c0-0.756-0.648-1.278-1.765-1.278
		c-0.864,0-1.729,0.342-2.431,0.936l-1.026-1.926c1.116-0.955,2.611-1.351,3.943-1.351c2.089,0,4.052,0.774,4.052,3.475v5.438
		H518.273z M518.273,90.646v-0.774c-0.288-0.414-0.937-0.612-1.548-0.612c-0.721,0-1.387,0.324-1.387,1.008s0.666,1.008,1.387,1.008
		C517.337,91.277,517.985,91.061,518.273,90.646z"/>
	<path fill="#FFFFFF" d="M522.699,92.879V80.87h2.773v12.01H522.699z"/>
	<path fill="#FFFFFF" d="M526.588,88.522c0-2.521,1.891-4.555,4.609-4.555c2.574,0,4.447,1.891,4.447,4.843v0.63h-6.193
		c0.197,0.774,0.918,1.422,2.178,1.422c0.612,0,1.621-0.27,2.125-0.738l1.206,1.819c-0.864,0.774-2.305,1.152-3.637,1.152
		C528.641,93.096,526.588,91.349,526.588,88.522z M531.197,86.199c-1.206,0-1.675,0.72-1.782,1.351h3.583
		C532.926,86.938,532.476,86.199,531.197,86.199z"/>
</g>
<g>
	<path fill="#FFFFFF" d="M431.586,112.139v-3.961h-1.44v-2.395h1.44v-2.376h2.773v2.376h1.764v2.395h-1.764v3.187
		c0,0.505,0.288,0.883,0.756,0.883c0.306,0,0.612-0.108,0.702-0.216l0.54,2.088c-0.342,0.324-1.026,0.576-2.053,0.576
		C432.54,114.695,431.586,113.813,431.586,112.139z"/>
	<path fill="#FFFFFF" d="M437.147,114.479v-8.697h2.773v1.063c0.576-0.703,1.692-1.297,2.719-1.297v2.665
		c-0.162-0.055-0.396-0.072-0.684-0.072c-0.72,0-1.675,0.306-2.035,0.792v5.546H437.147z"/>
	<path fill="#FFFFFF" d="M448.669,114.479v-0.864c-0.54,0.648-1.584,1.08-2.701,1.08c-1.333,0-2.989-0.918-2.989-2.862
		c0-2.106,1.656-2.81,2.989-2.81c1.152,0,2.179,0.379,2.701,1.026v-0.864c0-0.756-0.648-1.278-1.764-1.278
		c-0.864,0-1.729,0.343-2.431,0.937l-1.026-1.927c1.116-0.954,2.611-1.35,3.943-1.35c2.089,0,4.051,0.774,4.051,3.475v5.438H448.669
		z M448.669,112.247v-0.774c-0.288-0.414-0.936-0.612-1.548-0.612c-0.72,0-1.386,0.324-1.386,1.009c0,0.684,0.666,1.008,1.386,1.008
		C447.733,112.877,448.381,112.661,448.669,112.247z"/>
	<path fill="#FFFFFF" d="M452.555,110.122c0-2.719,2.017-4.555,4.735-4.555c1.891,0,3.043,0.828,3.565,1.602l-1.8,1.675
		c-0.342-0.504-0.9-0.828-1.639-0.828c-1.152,0-2.035,0.792-2.035,2.106s0.882,2.125,2.035,2.125c0.738,0,1.296-0.36,1.639-0.847
		l1.8,1.692c-0.522,0.757-1.674,1.603-3.565,1.603C454.572,114.695,452.555,112.841,452.555,110.122z"/>
	<path fill="#FFFFFF" d="M467.659,114.479v-5.06c0-1.062-0.558-1.404-1.44-1.404c-0.81,0-1.351,0.45-1.674,0.846v5.618h-2.773
		v-12.01h2.773v4.376c0.522-0.613,1.548-1.279,3.007-1.279c1.98,0,2.881,1.117,2.881,2.718v6.194H467.659z"/>
	<path fill="#FFFFFF" d="M471.545,110.122c0-2.448,1.765-4.555,4.717-4.555c2.989,0,4.754,2.107,4.754,4.555
		c0,2.449-1.765,4.573-4.754,4.573C473.31,114.695,471.545,112.571,471.545,110.122z M478.171,110.122
		c0-1.152-0.684-2.106-1.909-2.106c-1.188,0-1.873,0.954-1.873,2.106c0,1.171,0.684,2.125,1.873,2.125
		C477.487,112.247,478.171,111.293,478.171,110.122z"/>
	<path fill="#FFFFFF" d="M493.095,114.479v-5.294c0-0.666-0.324-1.17-1.152-1.17c-0.756,0-1.297,0.486-1.566,0.846v5.618h-2.772
		v-5.294c0-0.666-0.307-1.17-1.135-1.17c-0.756,0-1.278,0.486-1.566,0.846v5.618h-2.773v-8.697h2.773v1.063
		c0.378-0.505,1.494-1.279,2.862-1.279c1.261,0,2.107,0.522,2.467,1.548c0.505-0.756,1.639-1.548,3.007-1.548
		c1.603,0,2.611,0.828,2.611,2.611v6.302H493.095z"/>
	<path fill="#FFFFFF" d="M502.668,114.479v-0.864c-0.54,0.648-1.584,1.08-2.7,1.08c-1.333,0-2.989-0.918-2.989-2.862
		c0-2.106,1.656-2.81,2.989-2.81c1.152,0,2.179,0.379,2.7,1.026v-0.864c0-0.756-0.648-1.278-1.765-1.278
		c-0.864,0-1.729,0.343-2.431,0.937l-1.026-1.927c1.116-0.954,2.611-1.35,3.943-1.35c2.089,0,4.052,0.774,4.052,3.475v5.438H502.668
		z M502.668,112.247v-0.774c-0.288-0.414-0.937-0.612-1.548-0.612c-0.721,0-1.387,0.324-1.387,1.009
		c0,0.684,0.666,1.008,1.387,1.008C501.731,112.877,502.38,112.661,502.668,112.247z"/>
	<path fill="#FFFFFF" d="M507.672,112.139v-3.961h-1.441v-2.395h1.441v-2.376h2.772v2.376h1.765v2.395h-1.765v3.187
		c0,0.505,0.288,0.883,0.756,0.883c0.307,0,0.612-0.108,0.702-0.216l0.54,2.088c-0.342,0.324-1.026,0.576-2.052,0.576
		C508.626,114.695,507.672,113.813,507.672,112.139z"/>
	<path fill="#FFFFFF" d="M512.675,110.122c0-2.521,1.891-4.555,4.609-4.555c2.575,0,4.447,1.89,4.447,4.843v0.63h-6.194
		c0.198,0.774,0.919,1.423,2.179,1.423c0.612,0,1.621-0.271,2.125-0.738l1.206,1.818c-0.864,0.774-2.305,1.152-3.637,1.152
		C514.728,114.695,512.675,112.949,512.675,110.122z M517.284,107.8c-1.206,0-1.675,0.72-1.782,1.351h3.583
		C519.013,108.538,518.562,107.8,517.284,107.8z"/>
	<path fill="#FFFFFF" d="M528.624,114.479v-1.044c-0.54,0.611-1.53,1.26-3.007,1.26c-1.963,0-2.863-1.134-2.863-2.719v-6.194h2.773
		v5.042c0,1.062,0.54,1.423,1.44,1.423c0.792,0,1.332-0.433,1.656-0.847v-5.618h2.772v8.697H528.624z"/>
	<path fill="#FFFFFF" d="M532.312,113.345l1.152-1.98c0.647,0.576,2.034,1.171,3.061,1.171c0.828,0,1.17-0.234,1.17-0.612
		c0-1.08-5.06,0.036-5.06-3.493c0-1.53,1.333-2.863,3.728-2.863c1.477,0,2.701,0.468,3.637,1.152l-1.062,1.963
		c-0.522-0.504-1.513-0.954-2.558-0.954c-0.647,0-1.08,0.252-1.08,0.594c0,0.955,5.042-0.036,5.042,3.529
		c0,1.656-1.459,2.845-3.943,2.845C534.833,114.695,533.23,114.174,532.312,113.345z"/>
	<path fill="#FFFFFF" d="M540.862,110.122c0-2.521,1.891-4.555,4.609-4.555c2.575,0,4.447,1.89,4.447,4.843v0.63h-6.194
		c0.198,0.774,0.919,1.423,2.179,1.423c0.612,0,1.621-0.271,2.125-0.738l1.206,1.818c-0.864,0.774-2.305,1.152-3.637,1.152
		C542.915,114.695,540.862,112.949,540.862,110.122z M545.472,107.8c-1.206,0-1.675,0.72-1.782,1.351h3.583
		C547.2,108.538,546.75,107.8,545.472,107.8z"/>
</g>
<g>
	<defs>
		<rect id="SVGID_11_" width="960" height="211.666"/>
	</defs>
	<clipPath id="SVGID_12_">
		<use xlink:href="#SVGID_11_"  overflow="visible"/>
	</clipPath>
	<path clip-path="url(#SVGID_12_)" fill="#FFED00" d="M174.139,43.048c-24.711-12.36-49.469-25.206-76.389-32.069
		C84.744,7.663,71.37,6.08,57.962,5.908C48.499,5.786,39.061,7.223,30.5,11.403C-2.943,27.73,3.039,74.372,18.326,101.11
		c7.388,12.921,21.644,21.193,35.072,26.529c16.788,6.672,35.554,8.962,53.367,5.751c21.167-3.816,38.049-16.589,49.942-34.165
		c9.606-14.195,15.9-32.006,7.314-48.174c-5.109-9.621-13.417-16.963-21.658-23.862c-8.003-6.699-17.026-13.124-22.541-22.182
		c-0.755-1.24-5.577-1.837-4.466-0.012c7.209,11.84,19.943,19.628,30.033,28.764c11.886,10.762,20.38,24,17.184,40.606
		c-2.18,11.328-8.859,21.695-15.876,30.609c-6.803,8.64-15.562,15.568-25.456,20.327c-18.148,8.727-39.376,8.657-58.433,3.16
		c-14.899-4.298-31.108-12.764-39.451-26.379C13.742,86.387,9.056,66.714,11.458,48.423c2.301-17.52,12.812-32.058,29.863-37.594
		c12.23-3.971,26.22-2.586,38.717-0.958c14.161,1.844,27.905,5.933,41.193,11.074c17.149,6.634,33.537,15.124,49.963,23.339
		C172.66,45.017,177.037,44.499,174.139,43.048"/>
	<path clip-path="url(#SVGID_12_)" fill="#FFED00" d="M733.676,6.483c11.322,19.928,11.719,45.04,6.988,66.946
		c-4.805,22.249-16.663,43.419-38.971,51.578c-21.137,7.73-45.683,2.593-65.321-6.985c-21.262-10.369-42.571-30.312-45.391-54.919
		c-2.323-20.282,11.604-39.891,28.771-49.392c15.226-8.426,33.845-7.939,50.468-5.029c34.207,5.988,66.473,23.386,95.657,41.549
		c2.785,1.734,3.126-2.546,1.024-3.853c-33.679-20.961-72.43-41.755-112.806-44.03c-20.176-1.136-38.696,4.774-52.63,19.685
		c-16.811,17.991-18.774,42.191-6.613,63.22c20.601,35.619,72.994,59.27,112.415,42.843c20.134-8.39,31.005-28.01,36.409-48.182
		c5.593-20.873,5.52-44.136-1.84-64.55c-1.229-3.406-2.802-6.675-4.588-9.819C735.904,3.176,732.044,3.61,733.676,6.483"/>
</g>
</svg>
