<?xml version="1.0" encoding="utf-8"?>
<!-- Generator: Adobe Illustrator 19.0.0, SVG Export Plug-In . SVG Version: 6.00 Build 0)  -->
<svg version="1.1" xmlns="http://www.w3.org/2000/svg" xmlns:xlink="http://www.w3.org/1999/xlink" x="0px" y="0px"
	 viewBox="0 0 623 384.5" style="enable-background:new 0 0 623 384.5;" xml:space="preserve">
<style type="text/css">
	.st0{fill:#00848F;}
	.st1{fill:#009CE1;}
	.st2{fill:#FFFFFF;}
</style>
<g id="Layer_1">
	<path class="st0" d="M81.6,192.2c0-0.1,0-0.1,0-0.2H15.4c0,0.1,0,0.1,0,0.2c0,98.7,79.8,178.7,178.4,179V305
		C131.7,304.7,81.6,254.3,81.6,192.2z"/>
	<g>
		<path class="st1" d="M373.5,192h-66.2c0,0.1,0,0.1,0,0.2c0,62.3-50.5,112.9-112.9,112.9c-0.2,0-0.4,0-0.6,0v66.2
			c0.2,0,0.4,0,0.6,0c98.9,0,179.1-80.2,179.1-179.1C373.5,192.1,373.5,192,373.5,192z"/>
		<polygon class="st1" points="194.1,384.3 194.1,288.6 154.7,336.5 		"/>
	</g>
	<path class="st0" d="M194.4,79.3c62.3,0,112.8,50.4,112.9,112.7h66.2c-0.1-98.8-80.2-178.9-179-178.9c-0.2,0-0.4,0-0.6,0v66.2
		C194,79.3,194.2,79.3,194.4,79.3z"/>
	<polygon class="st0" points="386.6,191.8 290.9,191.8 338.7,231.2 	"/>
	<path class="st1" d="M15.4,192h66.2c0.1-62,50.2-112.3,112.2-112.7V13.1C95.2,13.5,15.4,93.4,15.4,192z"/>
	<polygon class="st1" points="193,0 193,95.7 232.4,47.8 	"/>
	<polygon class="st0" points="2.3,192.9 97.9,192.9 50.1,153.4 	"/>
</g>
<g id="Layer_5">
	<g>
		<g>
			<g>
				<path class="st2" d="M63.7,146.1l-7.9-3l1.4-3.7c0.6-1.7,2.2-2.2,3.5-1.7c1.4,0.5,2.2,1.9,1.5,3.6l-0.8,2l2.8,1.1L63.7,146.1z
					 M60.1,139.5c-0.7-0.2-1.3,0.1-1.5,0.8L58,142l2.1,0.8l0.7-1.8C61,140.4,60.8,139.7,60.1,139.5z"/>
				<path class="st2" d="M68.4,134.5l-3.4,0.3l-0.5,1.2l2.7,1.2l-0.7,1.6l-7.7-3.4l1.6-3.6c0.7-1.6,2.2-2.1,3.6-1.5
					c1.3,0.6,1.7,1.8,1.5,2.7l3.7-0.4L68.4,134.5z M63.3,132.1c-0.6-0.3-1.2,0-1.5,0.7l-0.8,1.7l2.1,0.9l0.8-1.7
					C64.1,133,63.9,132.4,63.3,132.1z"/>
				<path class="st2" d="M69.8,131.6l-7.5-3.8l2.7-5.3l1.4,0.7l-1.9,3.7l1.6,0.8l1.9-3.6l1.4,0.7l-1.9,3.6l1.7,0.9l1.9-3.7l1.4,0.7
					L69.8,131.6z"/>
				<path class="st2" d="M69.3,123.4c-2.2-1.3-2.8-3.9-1.5-6.1c0.9-1.6,2.3-2,3.5-2l-0.1,1.7c-0.8,0-1.6,0.3-2,1.1
					c-0.8,1.3-0.3,2.9,1,3.7c1.4,0.8,2.9,0.4,3.7-0.9c0.4-0.7,0.3-1.7-0.1-2.3l1.4-1c0.6,1,0.9,2.5,0,4.1
					C74,123.9,71.5,124.7,69.3,123.4z"/>
				<path class="st2" d="M73.7,115.8c-2.1-1.4-2.6-4-1.1-6.1c1.4-2.1,4-2.6,6.1-1.2c2.1,1.4,2.6,4,1.1,6.1
					C78.3,116.7,75.8,117.3,73.7,115.8z M77.6,110.1c-1.3-0.9-2.8-0.7-3.7,0.6c-0.9,1.3-0.5,2.8,0.9,3.7c1.3,0.9,2.8,0.7,3.7-0.6
					C79.3,112.4,78.9,111,77.6,110.1z"/>
				<path class="st2" d="M86.3,105.4l-6.8-0.2l4.3,3.4l-1.1,1.4l-6.6-5.2l1.1-1.5l6.6,0.2l-4.2-3.2l1.1-1.4l6.6,5.2L86.3,105.4z"/>
				<path class="st2" d="M85,100.4c-1.9-1.7-2-4.3-0.3-6.2c1.2-1.4,2.7-1.5,3.9-1.3l-0.5,1.7c-0.7-0.2-1.6,0-2.2,0.7
					c-1,1.1-0.9,2.8,0.3,3.8c1.2,1.1,2.8,1,3.8-0.1c0.6-0.6,0.7-1.6,0.4-2.3L92,96c0.4,1.1,0.4,2.6-0.8,4
					C89.5,101.9,86.9,102.1,85,100.4z"/>
				<path class="st2" d="M94.1,96.6l-6-5.9l4.2-4.2l1.1,1.1l-2.9,2.9l1.3,1.2l2.9-2.9l1.1,1.1l-2.9,2.9l1.4,1.4l2.9-2.9l1.1,1.1
					L94.1,96.6z"/>
				<path class="st2" d="M99.3,91.5l-5.7-6.1l1.3-1.2l5.7,6.1L99.3,91.5z"/>
				<path class="st2" d="M103.2,87.9l-4.5-5.2l-1.9,1.6l-1-1.2l5.1-4.4l1,1.2l-1.9,1.6l4.5,5.2L103.2,87.9z"/>
				<path class="st2" d="M104.3,81.4c-1.5-2-1.2-4.6,0.9-6.1c2-1.5,4.6-1.2,6.1,0.8c1.5,2,1.2,4.6-0.9,6.1
					C108.4,83.7,105.9,83.4,104.3,81.4z M109.8,77.2c-1-1.3-2.5-1.6-3.7-0.7c-1.2,0.9-1.3,2.5-0.4,3.7c0.9,1.2,2.5,1.6,3.7,0.6
					C110.7,80,110.8,78.4,109.8,77.2z"/>
				<path class="st2" d="M116.3,79.9l-0.9-0.1c0.2-0.4,0.3-1.1,0.1-1.5c0,0-0.1,0.1-0.2,0.2c-0.4,0.3-0.9,0.2-1.2-0.3
					c-0.3-0.5-0.2-1.1,0.2-1.4c0.5-0.3,1.2-0.3,1.7,0.4C116.6,78,116.6,79,116.3,79.9z"/>
				<path class="st2" d="M120.1,75.3l-4.4-7.2l5.1-3.1l0.8,1.3l-3.6,2.2L119,70l3.5-2.1l0.8,1.3l-3.5,2.1l1,1.6l3.6-2.2l0.8,1.3
					L120.1,75.3z"/>
				<path class="st2" d="M125.2,70.8l0.2-1.7c0.8,0.3,1.9,0.3,2.9-0.3c0.9-0.5,1.1-1.1,0.8-1.5c-0.7-1.3-4.5,1.9-6-0.9
					c-0.7-1.2-0.1-2.8,1.6-3.8c1.2-0.6,2.3-0.8,3.4-0.5l-0.2,1.6c-0.9-0.2-1.8-0.1-2.6,0.3c-0.7,0.4-0.9,0.8-0.6,1.3
					c0.6,1.2,4.5-1.9,5.9,0.9c0.7,1.4,0.3,2.9-1.7,4C127.6,71,126.3,71.1,125.2,70.8z"/>
				<path class="st2" d="M134.6,67.2l-2.9-6.2l-2.2,1l-0.7-1.4l6.1-2.9l0.7,1.4l-2.2,1l2.9,6.2L134.6,67.2z"/>
				<path class="st2" d="M139.4,65l-3.3-7.7l1.6-0.7l3.3,7.7L139.4,65z"/>
				<path class="st2" d="M140.7,59.9c-0.9-2.5,0.4-4.8,2.7-5.6c1.6-0.6,3-0.2,3.9,0.5l-1.1,1.3c-0.6-0.4-1.4-0.6-2.2-0.3
					c-1.4,0.5-2.1,2-1.5,3.5c0.6,1.5,2,2.2,3.4,1.7c0.7-0.3,1.2-0.8,1.4-1.2l-0.4-0.9l-2.1,0.8l-0.5-1.5l3.8-1.4l1.1,3
					c-0.5,1.2-1.4,2.2-2.8,2.7C144.1,63.3,141.6,62.4,140.7,59.9z"/>
				<path class="st2" d="M157.9,58.5l-1.7-5.8l-0.6,6.5l-0.7,0.2l-4-5.1l1.7,5.8l-1.7,0.5l-2.4-8.1l2.4-0.7l3.4,4.5l0.5-5.6l2.4-0.7
					l2.4,8.1L157.9,58.5z"/>
				<path class="st2" d="M166.8,56.4l-0.8-1.3l-3.5,0.8l-0.2,1.5l-2,0.4l1.3-8.9l2.2-0.5l5,7.5L166.8,56.4z M163.1,50.4l-0.5,3.8
					l2.6-0.6L163.1,50.4z"/>
				<path class="st2" d="M172.5,55.3l-1.2-8.3l5.9-0.8l0.2,1.6l-4.1,0.6l0.2,1.7l4-0.6l0.2,1.6l-4,0.6l0.3,1.9l4.1-0.6l0.2,1.6
					L172.5,55.3z"/>
			</g>
		</g>
		<g>
			<g>
				<path class="st2" d="M51.9,141.7l-7.9-3l1.2-3.1c0.9-2.5,3.1-3.6,5.5-2.7c2.4,0.9,3.3,3.2,2.4,5.6L51.9,141.7z M50.1,134.7
					c-1.4-0.5-2.8-0.1-3.4,1.5l-0.5,1.4l4.9,1.9l0.5-1.4C52.2,136.5,51.4,135.2,50.1,134.7z"/>
				<path class="st2" d="M55.2,133.4l-7.7-3.4l2.4-5.4l1.4,0.6l-1.7,3.8l1.6,0.7l1.6-3.7l1.4,0.6l-1.6,3.7l1.8,0.8l1.7-3.8l1.4,0.6
					L55.2,133.4z"/>
				<path class="st2" d="M58.1,126.8l-7.5-3.8l2.7-5.3l1.4,0.7l-1.9,3.7l1.6,0.8l1.8-3.6l1.4,0.7l-1.8,3.6l3.1,1.6L58.1,126.8z"/>
				<path class="st2" d="M61.4,120.5l-7.4-4l0.9-1.6l7.4,4L61.4,120.5z"/>
				<path class="st2" d="M59.2,115.7c-2.2-1.3-2.7-3.9-1.4-6.1c0.9-1.6,2.3-2,3.6-2l-0.1,1.7c-0.8,0-1.6,0.3-2.1,1.1
					c-0.8,1.3-0.4,2.9,1,3.7c1.4,0.8,2.9,0.5,3.7-0.9c0.4-0.7,0.4-1.7,0-2.3l1.4-0.9c0.6,1,0.9,2.5,0,4.1
					C63.9,116.2,61.4,117,59.2,115.7z"/>
				<path class="st2" d="M67.4,110.2l-7-4.6l1-1.5l7,4.6L67.4,110.2z"/>
				<path class="st2" d="M64,98.9L62.6,99l0.4,1.4l-0.6,0.8l-0.8-2l0.8-1.2l2.2,0.1L64,98.9z M69.3,107.4l-6.9-4.8l3.4-4.9l1.3,0.9
					l-2.4,3.4l1.4,1l2.3-3.3l1.3,0.9l-2.3,3.3L69,105l2.4-3.4l1.3,0.9L69.3,107.4z"/>
				<path class="st2" d="M77.1,96.9l-6.8-0.3l4.3,3.4l-1.1,1.4l-6.6-5.2l1.1-1.4l6.6,0.2l-4.1-3.3l1.1-1.4l6.6,5.2L77.1,96.9z"/>
				<path class="st2" d="M75.7,91.9c-1.9-1.7-1.9-4.3-0.3-6.2c1.2-1.4,2.7-1.5,3.9-1.3l-0.5,1.6c-0.7-0.2-1.6,0-2.2,0.7
					c-1,1.1-0.9,2.8,0.3,3.8c1.2,1.1,2.8,1,3.8-0.1c0.6-0.6,0.7-1.6,0.4-2.3l1.6-0.7c0.4,1.1,0.4,2.6-0.8,4
					C80.3,93.3,77.6,93.6,75.7,91.9z"/>
				<path class="st2" d="M84.9,88.1l-6-5.8l1.2-1.3l6,5.8L84.9,88.1z"/>
				<path class="st2" d="M91.4,81.6L90,80.9l-2.6,2.5l0.6,1.4l-1.5,1.4l-3.5-8.3l1.6-1.6l8.2,3.8L91.4,81.6z M85.1,78.4l1.6,3.5
					l1.9-1.8L85.1,78.4z"/>
				<path class="st2" d="M95,80.7l-0.9,0c0.2-0.4,0.2-1.1-0.1-1.5c0,0-0.1,0.1-0.2,0.2c-0.4,0.3-0.9,0.3-1.2-0.1
					c-0.4-0.4-0.3-1.1,0.1-1.4c0.4-0.4,1.1-0.4,1.7,0.2C95,78.8,95.2,79.7,95,80.7z"/>
				<path class="st2" d="M95.3,72.6c-1.6-2-1.2-4.6,0.8-6.2c1.4-1.1,2.9-1,4-0.6l-0.7,1.5c-0.7-0.3-1.6-0.3-2.3,0.3
					c-1.2,1-1.4,2.6-0.4,3.8c1,1.2,2.6,1.5,3.8,0.5c0.7-0.5,0.9-1.4,0.8-2.2l1.7-0.4c0.2,1.2,0,2.7-1.5,3.8
					C99.5,74.8,96.9,74.6,95.3,72.6z"/>
				<path class="st2" d="M103,67.6l-2.9-4.1l1.5-1l2.9,4.1c0.7,1,1.7,1.2,2.8,0.5c1.1-0.7,1.2-1.8,0.5-2.7l-2.9-4.1l1.5-1l2.9,4.1
					c1.2,1.7,1,3.6-1.1,5.1S104.2,69.3,103,67.6z"/>
				<path class="st2" d="M111.3,64.5l0.1-1.7c0.8,0.2,1.9,0.2,2.9-0.4c0.8-0.5,1-1.1,0.8-1.6c-0.8-1.2-4.3,2.2-6-0.5
					c-0.7-1.2-0.3-2.8,1.4-3.9c1.1-0.7,2.3-0.9,3.4-0.7l-0.1,1.7c-0.9-0.2-1.8,0.1-2.6,0.5c-0.6,0.4-0.8,0.9-0.6,1.3
					c0.7,1.1,4.3-2.2,6,0.5c0.8,1.3,0.5,2.9-1.4,4.1C113.7,64.6,112.4,64.8,111.3,64.5z"/>
				<path class="st2" d="M120.5,60.4l-3.3-6l-2.1,1.2l-0.8-1.4l5.9-3.2l0.8,1.4l-2.1,1.2l3.3,6L120.5,60.4z"/>
				<path class="st2" d="M122.9,54.2c-1.1-2.3-0.2-4.7,2.1-5.8c2.3-1.1,4.7-0.3,5.8,2c1.1,2.3,0.2,4.7-2.1,5.8
					C126.5,57.3,124,56.5,122.9,54.2z M129.2,51.2c-0.7-1.4-2.1-2.1-3.5-1.4c-1.4,0.7-1.8,2.2-1.1,3.6c0.7,1.4,2.1,2.1,3.5,1.4
					C129.5,54.1,129.9,52.6,129.2,51.2z"/>
				<path class="st2" d="M132.7,52.9l0.4-1.7c0.8,0.3,1.8,0.5,2.9,0c0.9-0.4,1.2-1,1-1.4c-0.6-1.4-4.6,1.5-5.9-1.5
					c-0.5-1.3,0.1-2.8,2-3.6c1.2-0.5,2.4-0.6,3.5-0.2l-0.4,1.6c-0.9-0.3-1.8-0.2-2.6,0.1c-0.7,0.3-1,0.8-0.8,1.2
					c0.5,1.2,4.6-1.5,5.8,1.4c0.6,1.4,0,2.9-2.1,3.8C135,53.4,133.8,53.3,132.7,52.9z"/>
				<path class="st2" d="M150.5,47.5l-1.9-5.8l-0.4,6.5l-0.7,0.2l-4.1-5l1.9,5.8l-1.7,0.6l-2.6-8l2.4-0.8l3.6,4.4l0.3-5.6l2.4-0.8
					l2.6,8L150.5,47.5z"/>
				<path class="st2" d="M153.7,46.6l-2.1-8.1l5.8-1.5l0.4,1.5l-4,1l0.4,1.7l3.9-1l0.4,1.5l-3.9,1l0.5,1.9l4-1l0.4,1.5L153.7,46.6z
					 M154.4,37l-1.1,0.3l1.2-2.2l1.4-0.4L154.4,37z"/>
				<path class="st2" d="M160.7,44.8l-1.7-8.2l3.2-0.7c2.6-0.5,4.7,0.8,5.2,3.2c0.5,2.5-1,4.5-3.5,5L160.7,44.8z M165.7,39.5
					c-0.3-1.4-1.4-2.4-3.1-2l-1.5,0.3l1,5.1l1.5-0.3C165.3,42.3,166,40.9,165.7,39.5z"/>
				<path class="st2" d="M169.5,43.1l-1.3-8.3l1.8-0.3l1.3,8.3L169.5,43.1z"/>
				<path class="st2" d="M171.9,38.4c-0.3-2.6,1.4-4.5,3.9-4.9c1.8-0.2,3,0.6,3.7,1.6l-1.4,0.9c-0.4-0.6-1.2-1.1-2.1-1
					c-1.5,0.2-2.5,1.5-2.3,3.1c0.2,1.6,1.4,2.6,3,2.4c0.8-0.1,1.5-0.7,1.8-1.4l1.6,0.6c-0.5,1.1-1.4,2.2-3.2,2.5
					C174.4,42.5,172.2,41,171.9,38.4z"/>
				<path class="st2" d="M180.6,37.4c-0.2-2.5,1.6-4.4,4.1-4.6c2.5-0.2,4.5,1.5,4.6,4.1c0.2,2.5-1.6,4.4-4.1,4.6
					C182.7,41.6,180.8,39.9,180.6,37.4z M187.6,37c-0.1-1.6-1.2-2.7-2.7-2.6c-1.6,0.1-2.5,1.3-2.4,2.9c0.1,1.6,1.2,2.7,2.7,2.6
					C186.7,39.8,187.7,38.5,187.6,37z"/>
				<path class="st2" d="M190.2,39.9l1-1.4c0.6,0.6,1.5,1.1,2.7,1.1c1,0,1.5-0.4,1.5-0.9c0-1.5-4.8-0.4-4.9-3.6
					c0-1.4,1.2-2.6,3.2-2.6c1.3,0,2.4,0.4,3.3,1.2l-1,1.3c-0.7-0.6-1.6-0.9-2.4-0.9c-0.8,0-1.2,0.3-1.2,0.8c0,1.3,4.8,0.4,4.8,3.6
					c0,1.5-1.1,2.7-3.4,2.7C192.2,41.2,191,40.7,190.2,39.9z"/>
				<path class="st2" d="M198.8,42.8l-0.7-0.6c0.4-0.2,0.9-0.7,1-1.2c0,0-0.1,0-0.2,0c-0.5,0-0.8-0.4-0.8-0.9c0-0.6,0.5-1,1-1
					c0.6,0,1.1,0.5,1.1,1.3C200.1,41.5,199.6,42.3,198.8,42.8z"/>
			</g>
		</g>
	</g>
	<g>
		<g>
			<g>
				<path class="st2" d="M63.7,146.1l-7.9-3l1.4-3.7c0.6-1.7,2.2-2.2,3.5-1.7c1.4,0.5,2.2,1.9,1.5,3.6l-0.8,2l2.8,1.1L63.7,146.1z
					 M60.1,139.5c-0.7-0.2-1.3,0.1-1.5,0.8L58,142l2.1,0.8l0.7-1.8C61,140.4,60.8,139.7,60.1,139.5z"/>
				<path class="st2" d="M68.4,134.5l-3.4,0.3l-0.5,1.2l2.7,1.2l-0.7,1.6l-7.7-3.4l1.6-3.6c0.7-1.6,2.2-2.1,3.6-1.5
					c1.3,0.6,1.7,1.8,1.5,2.7l3.7-0.4L68.4,134.5z M63.3,132.1c-0.6-0.3-1.2,0-1.5,0.7l-0.8,1.7l2.1,0.9l0.8-1.7
					C64.1,133,63.9,132.4,63.3,132.1z"/>
				<path class="st2" d="M69.8,131.6l-7.5-3.8l2.7-5.3l1.4,0.7l-1.9,3.7l1.6,0.8l1.9-3.6l1.4,0.7l-1.9,3.6l1.7,0.9l1.9-3.7l1.4,0.7
					L69.8,131.6z"/>
				<path class="st2" d="M69.3,123.4c-2.2-1.3-2.8-3.9-1.5-6.1c0.9-1.6,2.3-2,3.5-2l-0.1,1.7c-0.8,0-1.6,0.3-2,1.1
					c-0.8,1.3-0.3,2.9,1,3.7c1.4,0.8,2.9,0.4,3.7-0.9c0.4-0.7,0.3-1.7-0.1-2.3l1.4-1c0.6,1,0.9,2.5,0,4.1
					C74,123.9,71.5,124.7,69.3,123.4z"/>
				<path class="st2" d="M73.7,115.8c-2.1-1.4-2.6-4-1.1-6.1c1.4-2.1,4-2.6,6.1-1.2c2.1,1.4,2.6,4,1.1,6.1
					C78.3,116.7,75.8,117.3,73.7,115.8z M77.6,110.1c-1.3-0.9-2.8-0.7-3.7,0.6c-0.9,1.3-0.5,2.8,0.9,3.7c1.3,0.9,2.8,0.7,3.7-0.6
					C79.3,112.4,78.9,111,77.6,110.1z"/>
				<path class="st2" d="M86.3,105.4l-6.8-0.2l4.3,3.4l-1.1,1.4l-6.6-5.2l1.1-1.5l6.6,0.2l-4.2-3.2l1.1-1.4l6.6,5.2L86.3,105.4z"/>
				<path class="st2" d="M85,100.4c-1.9-1.7-2-4.3-0.3-6.2c1.2-1.4,2.7-1.5,3.9-1.3l-0.5,1.7c-0.7-0.2-1.6,0-2.2,0.7
					c-1,1.1-0.9,2.8,0.3,3.8c1.2,1.1,2.8,1,3.8-0.1c0.6-0.6,0.7-1.6,0.4-2.3L92,96c0.4,1.1,0.4,2.6-0.8,4
					C89.5,101.9,86.9,102.1,85,100.4z"/>
				<path class="st2" d="M94.1,96.6l-6-5.9l4.2-4.2l1.1,1.1l-2.9,2.9l1.3,1.2l2.9-2.9l1.1,1.1l-2.9,2.9l1.4,1.4l2.9-2.9l1.1,1.1
					L94.1,96.6z"/>
				<path class="st2" d="M99.3,91.5l-5.7-6.1l1.3-1.2l5.7,6.1L99.3,91.5z"/>
				<path class="st2" d="M103.2,87.9l-4.5-5.2l-1.9,1.6l-1-1.2l5.1-4.4l1,1.2l-1.9,1.6l4.5,5.2L103.2,87.9z"/>
				<path class="st2" d="M104.3,81.4c-1.5-2-1.2-4.6,0.9-6.1c2-1.5,4.6-1.2,6.1,0.8c1.5,2,1.2,4.6-0.9,6.1
					C108.4,83.7,105.9,83.4,104.3,81.4z M109.8,77.2c-1-1.3-2.5-1.6-3.7-0.7c-1.2,0.9-1.3,2.5-0.4,3.7c0.9,1.2,2.5,1.6,3.7,0.6
					C110.7,80,110.8,78.4,109.8,77.2z"/>
				<path class="st2" d="M116.3,79.9l-0.9-0.1c0.2-0.4,0.3-1.1,0.1-1.5c0,0-0.1,0.1-0.2,0.2c-0.4,0.3-0.9,0.2-1.2-0.3
					c-0.3-0.5-0.2-1.1,0.2-1.4c0.5-0.3,1.2-0.3,1.7,0.4C116.6,78,116.6,79,116.3,79.9z"/>
				<path class="st2" d="M120.1,75.3l-4.4-7.2l5.1-3.1l0.8,1.3l-3.6,2.2L119,70l3.5-2.1l0.8,1.3l-3.5,2.1l1,1.6l3.6-2.2l0.8,1.3
					L120.1,75.3z"/>
				<path class="st2" d="M125.2,70.8l0.2-1.7c0.8,0.3,1.9,0.3,2.9-0.3c0.9-0.5,1.1-1.1,0.8-1.5c-0.7-1.3-4.5,1.9-6-0.9
					c-0.7-1.2-0.1-2.8,1.6-3.8c1.2-0.6,2.3-0.8,3.4-0.5l-0.2,1.6c-0.9-0.2-1.8-0.1-2.6,0.3c-0.7,0.4-0.9,0.8-0.6,1.3
					c0.6,1.2,4.5-1.9,5.9,0.9c0.7,1.4,0.3,2.9-1.7,4C127.6,71,126.3,71.1,125.2,70.8z"/>
				<path class="st2" d="M134.6,67.2l-2.9-6.2l-2.2,1l-0.7-1.4l6.1-2.9l0.7,1.4l-2.2,1l2.9,6.2L134.6,67.2z"/>
				<path class="st2" d="M139.4,65l-3.3-7.7l1.6-0.7l3.3,7.7L139.4,65z"/>
				<path class="st2" d="M140.7,59.9c-0.9-2.5,0.4-4.8,2.7-5.6c1.6-0.6,3-0.2,3.9,0.5l-1.1,1.3c-0.6-0.4-1.4-0.6-2.2-0.3
					c-1.4,0.5-2.1,2-1.5,3.5c0.6,1.5,2,2.2,3.4,1.7c0.7-0.3,1.2-0.8,1.4-1.2l-0.4-0.9l-2.1,0.8l-0.5-1.5l3.8-1.4l1.1,3
					c-0.5,1.2-1.4,2.2-2.8,2.7C144.1,63.3,141.6,62.4,140.7,59.9z"/>
				<path class="st2" d="M157.9,58.5l-1.7-5.8l-0.6,6.5l-0.7,0.2l-4-5.1l1.7,5.8l-1.7,0.5l-2.4-8.1l2.4-0.7l3.4,4.5l0.5-5.6l2.4-0.7
					l2.4,8.1L157.9,58.5z"/>
				<path class="st2" d="M166.8,56.4l-0.8-1.3l-3.5,0.8l-0.2,1.5l-2,0.4l1.3-8.9l2.2-0.5l5,7.5L166.8,56.4z M163.1,50.4l-0.5,3.8
					l2.6-0.6L163.1,50.4z"/>
			</g>
		</g>
		<g>
			<g>
				<path class="st2" d="M75.3,150.1l-7.9-3l2.1-5.6l1.5,0.6l-1.5,3.9l1.6,0.6l1.4-3.8l1.5,0.6l-1.4,3.8l1.8,0.7l1.5-3.9l1.5,0.6
					L75.3,150.1z"/>
				<path class="st2" d="M81.6,135.2l-1.5-0.1l-1.6,3.2l1.1,1.1l-0.9,1.8l-6.2-6.6l1-2l9,0.7L81.6,135.2z M74.7,134.5l2.7,2.7
					l1.1-2.4L74.7,134.5z"/>
				<path class="st2" d="M84.4,130l-7.2-4.3l3-5.1l1.4,0.8l-2.1,3.6l1.5,0.9l2.1-3.5l1.4,0.8l-2.1,3.5l1.6,1l2.1-3.6l1.4,0.8
					L84.4,130z"/>
				<path class="st2" d="M91.2,119.3l-3.7,0l1.4,3.5l-1.2,1.8l-1.8-4.9l-5,0.1l1.2-1.8l3.5,0l-1.3-3.2l1.2-1.8l1.8,4.7l5.3-0.1
					L91.2,119.3z"/>
				<path class="st2" d="M89.2,114.8c-2-1.6-2.2-4.2-0.7-6.2c1.1-1.4,2.6-1.7,3.8-1.5l-0.4,1.7c-0.8-0.1-1.6,0.1-2.2,0.8
					c-0.9,1.2-0.7,2.8,0.5,3.8c1.2,1,2.9,0.8,3.8-0.4c0.5-0.7,0.6-1.6,0.3-2.3l1.5-0.8c0.5,1.1,0.6,2.6-0.5,4
					C93.8,115.9,91.3,116.4,89.2,114.8z"/>
				<path class="st2" d="M98,110.4l-6.3-5.6l1.2-1.4l5.1,4.5l2.4-2.7l1.2,1L98,110.4z"/>
				<path class="st2" d="M99.9,103.2l-3.6-3.6l1.3-1.3l3.5,3.5c0.8,0.8,1.9,0.9,2.8,0c0.9-0.9,0.8-2,0-2.8l-3.5-3.5l1.3-1.3l3.6,3.6
					c1.5,1.5,1.6,3.4-0.2,5.2C103.3,104.9,101.4,104.7,99.9,103.2z"/>
				<path class="st2" d="M107.6,98.7l-0.2-1.7c0.9,0.1,1.9-0.1,2.8-0.9c0.7-0.7,0.8-1.3,0.5-1.7c-1-1.1-3.9,2.9-6,0.5
					c-0.9-1.1-0.8-2.7,0.7-4c1-0.9,2.1-1.3,3.2-1.3l0.1,1.7c-0.9,0-1.8,0.4-2.4,0.9c-0.6,0.5-0.7,1-0.3,1.4c0.9,1,3.9-2.9,6-0.5
					c1,1.2,0.9,2.8-0.7,4.2C109.9,98.5,108.7,98.8,107.6,98.7z"/>
				<path class="st2" d="M110.5,84.8c-0.2,0.2-0.2,0.5,0.1,0.9l-0.7,0.5c-0.7-0.8-0.7-1.6,0-2.2c0.7-0.5,1.3,0.1,1.7-0.2
					c0.2-0.2,0.2-0.5-0.1-0.9l0.7-0.5c0.7,0.8,0.7,1.6,0,2.2C111.5,85.1,110.8,84.5,110.5,84.8z M119,90.8l-1.3-0.8l-2.9,2.2
					l0.5,1.5l-1.6,1.2l-2.6-8.6l1.8-1.4l7.7,4.7L119,90.8z M113.1,87l1.2,3.7l2.1-1.6L113.1,87z"/>
				<path class="st2" d="M118.5,86c-1.4-2.1-0.9-4.6,1.3-6.1c2.1-1.4,4.7-0.9,6.1,1.2c1.4,2.1,0.9,4.6-1.2,6
					C122.4,88.6,119.9,88.1,118.5,86z M124.2,82.1c-0.9-1.3-2.4-1.7-3.6-0.9c-1.3,0.9-1.5,2.4-0.6,3.7c0.9,1.3,2.4,1.7,3.7,0.9
					C124.9,85,125.1,83.4,124.2,82.1z"/>
			</g>
		</g>
		<g>
			<g>
				<path class="st2" d="M51.9,141.7l-7.9-3l1.2-3.1c0.9-2.5,3.1-3.6,5.5-2.7c2.4,0.9,3.3,3.2,2.4,5.6L51.9,141.7z M50.1,134.7
					c-1.4-0.5-2.8-0.1-3.4,1.5l-0.5,1.4l4.9,1.9l0.5-1.4C52.2,136.5,51.4,135.2,50.1,134.7z"/>
				<path class="st2" d="M55.2,133.4l-7.7-3.4l2.4-5.4l1.4,0.6l-1.7,3.8l1.6,0.7l1.6-3.7l1.4,0.6l-1.6,3.7l1.8,0.8l1.7-3.8l1.4,0.6
					L55.2,133.4z"/>
				<path class="st2" d="M58.1,126.8l-7.5-3.8l2.7-5.3l1.4,0.7l-1.9,3.7l1.6,0.8l1.8-3.6l1.4,0.7l-1.8,3.6l3.1,1.6L58.1,126.8z"/>
				<path class="st2" d="M61.4,120.5l-7.4-4l0.9-1.6l7.4,4L61.4,120.5z"/>
				<path class="st2" d="M59.2,115.7c-2.2-1.3-2.7-3.9-1.4-6.1c0.9-1.6,2.3-2,3.6-2l-0.1,1.7c-0.8,0-1.6,0.3-2.1,1.1
					c-0.8,1.3-0.4,2.9,1,3.7c1.4,0.8,2.9,0.5,3.7-0.9c0.4-0.7,0.4-1.7,0-2.3l1.4-0.9c0.6,1,0.9,2.5,0,4.1
					C63.9,116.2,61.4,117,59.2,115.7z"/>
				<path class="st2" d="M67.4,110.2l-7-4.6l1-1.5l7,4.6L67.4,110.2z"/>
				<path class="st2" d="M64,98.9L62.6,99l0.4,1.4l-0.6,0.8l-0.8-2l0.8-1.2l2.2,0.1L64,98.9z M69.3,107.4l-6.9-4.8l3.4-4.9l1.3,0.9
					l-2.4,3.4l1.4,1l2.3-3.3l1.3,0.9l-2.3,3.3L69,105l2.4-3.4l1.3,0.9L69.3,107.4z"/>
				<path class="st2" d="M77.1,96.9l-6.8-0.3l4.3,3.4l-1.1,1.4l-6.6-5.2l1.1-1.4l6.6,0.2l-4.1-3.3l1.1-1.4l6.6,5.2L77.1,96.9z"/>
				<path class="st2" d="M75.7,91.9c-1.9-1.7-1.9-4.3-0.3-6.2c1.2-1.4,2.7-1.5,3.9-1.3l-0.5,1.6c-0.7-0.2-1.6,0-2.2,0.7
					c-1,1.1-0.9,2.8,0.3,3.8c1.2,1.1,2.8,1,3.8-0.1c0.6-0.6,0.7-1.6,0.4-2.3l1.6-0.7c0.4,1.1,0.4,2.6-0.8,4
					C80.3,93.3,77.6,93.6,75.7,91.9z"/>
				<path class="st2" d="M84.9,88.1l-6-5.8l1.2-1.3l6,5.8L84.9,88.1z"/>
				<path class="st2" d="M91.4,81.6L90,80.9l-2.6,2.5l0.6,1.4l-1.5,1.4l-3.5-8.3l1.6-1.6l8.2,3.8L91.4,81.6z M85.1,78.4l1.6,3.5
					l1.9-1.8L85.1,78.4z"/>
				<path class="st2" d="M95,80.7l-0.9,0c0.2-0.4,0.2-1.1-0.1-1.5c0,0-0.1,0.1-0.2,0.2c-0.4,0.3-0.9,0.3-1.2-0.1
					c-0.4-0.4-0.3-1.1,0.1-1.4c0.4-0.4,1.1-0.4,1.7,0.2C95,78.8,95.2,79.7,95,80.7z"/>
				<path class="st2" d="M95.3,72.6c-1.6-2-1.2-4.6,0.8-6.2c1.4-1.1,2.9-1,4-0.6l-0.7,1.5c-0.7-0.3-1.6-0.3-2.3,0.3
					c-1.2,1-1.4,2.6-0.4,3.8c1,1.2,2.6,1.5,3.8,0.5c0.7-0.5,0.9-1.4,0.8-2.2l1.7-0.4c0.2,1.2,0,2.7-1.5,3.8
					C99.5,74.8,96.9,74.6,95.3,72.6z"/>
				<path class="st2" d="M103,67.6l-2.9-4.1l1.5-1l2.9,4.1c0.7,1,1.7,1.2,2.8,0.5c1.1-0.7,1.2-1.8,0.5-2.7l-2.9-4.1l1.5-1l2.9,4.1
					c1.2,1.7,1,3.6-1.1,5.1S104.2,69.3,103,67.6z"/>
				<path class="st2" d="M111.3,64.5l0.1-1.7c0.8,0.2,1.9,0.2,2.9-0.4c0.8-0.5,1-1.1,0.8-1.6c-0.8-1.2-4.3,2.2-6-0.5
					c-0.7-1.2-0.3-2.8,1.4-3.9c1.1-0.7,2.3-0.9,3.4-0.7l-0.1,1.7c-0.9-0.2-1.8,0.1-2.6,0.5c-0.6,0.4-0.8,0.9-0.6,1.3
					c0.7,1.1,4.3-2.2,6,0.5c0.8,1.3,0.5,2.9-1.4,4.1C113.7,64.6,112.4,64.8,111.3,64.5z"/>
				<path class="st2" d="M120.5,60.4l-3.3-6l-2.1,1.2l-0.8-1.4l5.9-3.2l0.8,1.4l-2.1,1.2l3.3,6L120.5,60.4z"/>
				<path class="st2" d="M122.9,54.2c-1.1-2.3-0.2-4.7,2.1-5.8c2.3-1.1,4.7-0.3,5.8,2c1.1,2.3,0.2,4.7-2.1,5.8
					C126.5,57.3,124,56.5,122.9,54.2z M129.2,51.2c-0.7-1.4-2.1-2.1-3.5-1.4c-1.4,0.7-1.8,2.2-1.1,3.6c0.7,1.4,2.1,2.1,3.5,1.4
					C129.5,54.1,129.9,52.6,129.2,51.2z"/>
				<path class="st2" d="M132.7,52.9l0.4-1.7c0.8,0.3,1.8,0.5,2.9,0c0.9-0.4,1.2-1,1-1.4c-0.6-1.4-4.6,1.5-5.9-1.5
					c-0.5-1.3,0.1-2.8,2-3.6c1.2-0.5,2.4-0.6,3.5-0.2l-0.4,1.6c-0.9-0.3-1.8-0.2-2.6,0.1c-0.7,0.3-1,0.8-0.8,1.2
					c0.5,1.2,4.6-1.5,5.8,1.4c0.6,1.4,0,2.9-2.1,3.8C135,53.4,133.8,53.3,132.7,52.9z"/>
				<path class="st2" d="M150.5,47.5l-1.9-5.8l-0.4,6.5l-0.7,0.2l-4.1-5l1.9,5.8l-1.7,0.6l-2.6-8l2.4-0.8l3.6,4.4l0.3-5.6l2.4-0.8
					l2.6,8L150.5,47.5z"/>
				<path class="st2" d="M153.7,46.6l-2.1-8.1l5.8-1.5l0.4,1.5l-4,1l0.4,1.7l3.9-1l0.4,1.5l-3.9,1l0.5,1.9l4-1l0.4,1.5L153.7,46.6z
					 M154.4,37l-1.1,0.3l1.2-2.2l1.4-0.4L154.4,37z"/>
				<path class="st2" d="M160.7,44.8l-1.7-8.2l3.2-0.7c2.6-0.5,4.7,0.8,5.2,3.2c0.5,2.5-1,4.5-3.5,5L160.7,44.8z M165.7,39.5
					c-0.3-1.4-1.4-2.4-3.1-2l-1.5,0.3l1,5.1l1.5-0.3C165.3,42.3,166,40.9,165.7,39.5z"/>
				<path class="st2" d="M169.5,43.1l-1.3-8.3l1.8-0.3l1.3,8.3L169.5,43.1z"/>
				<path class="st2" d="M171.9,38.4c-0.3-2.6,1.4-4.5,3.9-4.9c1.8-0.2,3,0.6,3.7,1.6l-1.4,0.9c-0.4-0.6-1.2-1.1-2.1-1
					c-1.5,0.2-2.5,1.5-2.3,3.1c0.2,1.6,1.4,2.6,3,2.4c0.8-0.1,1.5-0.7,1.8-1.4l1.6,0.6c-0.5,1.1-1.4,2.2-3.2,2.5
					C174.4,42.5,172.2,41,171.9,38.4z"/>
				<path class="st2" d="M180.6,37.4c-0.2-2.5,1.6-4.4,4.1-4.6c2.5-0.2,4.5,1.5,4.6,4.1c0.2,2.5-1.6,4.4-4.1,4.6
					C182.7,41.6,180.8,39.9,180.6,37.4z M187.6,37c-0.1-1.6-1.2-2.7-2.7-2.6c-1.6,0.1-2.5,1.3-2.4,2.9c0.1,1.6,1.2,2.7,2.7,2.6
					C186.7,39.8,187.7,38.5,187.6,37z"/>
				<path class="st2" d="M190.2,39.9l1-1.4c0.6,0.6,1.5,1.1,2.7,1.1c1,0,1.5-0.4,1.5-0.9c0-1.5-4.8-0.4-4.9-3.6
					c0-1.4,1.2-2.6,3.2-2.6c1.3,0,2.4,0.4,3.3,1.2l-1,1.3c-0.7-0.6-1.6-0.9-2.4-0.9c-0.8,0-1.2,0.3-1.2,0.8c0,1.3,4.8,0.4,4.8,3.6
					c0,1.5-1.1,2.7-3.4,2.7C192.2,41.2,191,40.7,190.2,39.9z"/>
				<path class="st2" d="M198.8,42.8l-0.7-0.6c0.4-0.2,0.9-0.7,1-1.2c0,0-0.1,0-0.2,0c-0.5,0-0.8-0.4-0.8-0.9c0-0.6,0.5-1,1-1
					c0.6,0,1.1,0.5,1.1,1.3C200.1,41.5,199.6,42.3,198.8,42.8z"/>
			</g>
		</g>
	</g>
</g>
<g id="Layer_2">
	<g>
		<g>
			<path class="st2" d="M236.2,60l2.7-8l5.6,1.9l-0.5,1.5l-3.9-1.3l-0.6,1.7l3.9,1.3l-0.5,1.5l-3.9-1.3l-1.1,3.3L236.2,60z"/>
			<path class="st2" d="M248.2,64.5l0-1.5l-3.3-1.3l-1,1.1L242,62l6.1-6.6l2.1,0.8l-0.1,9L248.2,64.5z M248.5,57.5l-2.6,2.9l2.4,1
				L248.5,57.5z"/>
			<path class="st2" d="M250.7,65.5l3.5-7.6l1.6,0.8l-2.9,6.2l3.2,1.5l-0.7,1.4L250.7,65.5z"/>
			<path class="st2" d="M258.2,69.2l3.2-6l-2.2-1.1l0.7-1.4l5.9,3.1l-0.7,1.4l-2.2-1.1l-3.2,6L258.2,69.2z"/>
			<path class="st2" d="M267.8,74.6l0.3-1.5l-3.1-1.9l-1.2,0.9l-1.7-1l7.1-5.5l1.9,1.2l-1.6,8.9L267.8,74.6z M269.2,67.8l-3,2.4
				l2.2,1.4L269.2,67.8z"/>
			<path class="st2" d="M272.8,77.8l4.9-6.8l2.7,1.9c2.1,1.5,2.6,4,1.1,6c-1.5,2.1-4,2.3-6.1,0.8L272.8,77.8z M280,77.9
				c0.9-1.2,0.8-2.7-0.6-3.7l-1.2-0.9l-3.1,4.3l1.2,0.9C277.7,79.5,279.2,79.1,280,77.9z"/>
			<path class="st2" d="M279.9,83.1l5.3-6.5l4.6,3.8l-1,1.2l-3.2-2.6l-1.1,1.4l3.1,2.6l-1,1.2l-3.1-2.6l-1.2,1.5l3.2,2.6l-1,1.2
				L279.9,83.1z"/>
			<path class="st2" d="M288.3,88.6l1.7-0.3c0,0.9,0.3,1.9,1.1,2.7c0.7,0.7,1.4,0.7,1.7,0.3c1-1.1-3.2-3.7-1-5.9c1-1,2.6-1,4.1,0.4
				c1,0.9,1.5,2,1.6,3.1l-1.6,0.3c-0.1-0.9-0.5-1.8-1.1-2.4c-0.5-0.5-1.1-0.6-1.4-0.2c-0.9,1,3.2,3.6,1,5.9
				c-1.1,1.1-2.7,1.2-4.3-0.4C288.8,90.9,288.3,89.7,288.3,88.6z"/>
			<path class="st2" d="M293.2,95l6.1-5.8l4.1,4.3l-1.1,1.1l-2.8-3l-1.3,1.2l2.8,3l-1.1,1.1l-2.8-3l-1.4,1.3l2.8,3l-1.1,1.1
				L293.2,95z"/>
			<path class="st2" d="M301.2,103.9l1.2-3.2l-0.8-1l-2.3,1.9l-1.2-1.4l6.4-5.4l2.5,3c1.1,1.3,1,2.9-0.2,3.9
				c-1.1,0.9-2.4,0.7-3.1,0.2l-1.2,3.5L301.2,103.9z M305.7,100.4c0.5-0.4,0.5-1.1,0.1-1.7l-1.2-1.4l-1.7,1.5l1.2,1.4
				C304.5,100.7,305.1,100.9,305.7,100.4z"/>
			<path class="st2" d="M304.7,108.3l4.8-7.6l1.2,1.6l-3.8,5.7l6.6-2l1.2,1.6l-8.7,2.4L304.7,108.3z"/>
			<path class="st2" d="M308.3,113.3l6.9-4.7l1,1.5l-6.9,4.7L308.3,113.3z"/>
			<path class="st2" d="M309.9,119.4l0.7-0.1c0,0.4,0,0.8,0.2,1.1c0.2,0.3,0.5,0.5,0.7,0.3c0.2-0.1,0.2-0.3,0.1-0.5
				c-0.1-0.1-0.2-0.2-0.4-0.2l0-0.7l0.8-0.2c-1-2-0.4-4.3,1.6-5.6c2.2-1.4,4.7-0.6,6.1,1.5c1,1.6,0.7,3,0.1,4.1l-1.5-0.9
				c0.4-0.7,0.5-1.6,0-2.3c-0.8-1.3-2.4-1.6-3.7-0.8c-1.3,0.8-1.8,2.4-0.9,3.7c0.5,0.7,1.3,1.1,2.1,1l0.2,1.7
				c-1.2,0.1-2.5-0.3-3.5-1.7l-0.5,0.1c0.1,0.1,0.3,0.2,0.3,0.3c0.2,0.4,0.1,0.9-0.3,1.2c-0.6,0.4-1.2,0-1.6-0.6
				C310,120.3,309.8,119.7,309.9,119.4z"/>
			<path class="st2" d="M318.2,121c2.2-1.2,4.7-0.4,5.9,1.8c1.2,2.2,0.5,4.7-1.8,5.9c-2.2,1.2-4.7,0.4-5.9-1.8
				C315.2,124.7,315.9,122.2,318.2,121z M321.4,127.1c1.4-0.7,2-2.2,1.2-3.5c-0.7-1.4-2.2-1.7-3.6-1c-1.4,0.7-2,2.2-1.2,3.6
				C318.5,127.5,320.1,127.9,321.4,127.1z"/>
			<path class="st2" d="M319.9,130.7l1.7,0.3c-0.3,0.8-0.4,1.9,0.1,2.9c0.4,0.9,1,1.1,1.5,0.9c1.3-0.6-1.6-4.6,1.3-5.9
				c1.3-0.6,2.8,0,3.7,1.8c0.6,1.2,0.7,2.4,0.3,3.5l-1.6-0.3c0.3-0.9,0.2-1.8-0.2-2.6c-0.3-0.7-0.8-0.9-1.2-0.7
				c-1.2,0.6,1.6,4.6-1.2,5.9c-1.4,0.6-2.9,0.1-3.9-1.9C319.5,133.1,319.5,131.8,319.9,130.7z"/>
			<path class="st2" d="M323.4,141.5l7.9-2.9l1.1,3.1c0.9,2.5-0.1,4.8-2.4,5.6c-2.4,0.9-4.6-0.3-5.5-2.7L323.4,141.5z M329.4,145.6
				c1.4-0.5,2.2-1.7,1.6-3.4l-0.5-1.4l-4.9,1.8l0.5,1.4C326.5,145.6,328,146.1,329.4,145.6z"/>
			<path class="st2" d="M326.3,149.9l8.1-2.4l1.7,5.7l-1.5,0.5l-1.2-4l-1.7,0.5l1.2,3.9l-1.5,0.5l-1.2-3.9l-1.8,0.5l1.2,4l-1.5,0.5
				L326.3,149.9z"/>
			<path class="st2" d="M330.4,165.6l1.3-0.8l-0.8-3.5l-1.5-0.2l-0.4-2l8.9,1.4l0.5,2.2l-7.5,4.9L330.4,165.6z M336.4,161.9
				l-3.8-0.5l0.5,2.6L336.4,161.9z M338.9,161.5l-0.2-1.1l2.1,1.3l0.3,1.4L338.9,161.5z"/>
			<path class="st2" d="M335,167.2c2.6-0.4,4.6,1.4,5,3.8c0.3,1.7-0.5,2.9-1.4,3.7l-1-1.3c0.5-0.5,0.9-1.3,0.8-2.1
				c-0.2-1.5-1.5-2.4-3.1-2.2c-1.6,0.2-2.6,1.5-2.3,3c0.1,0.7,0.5,1.4,0.9,1.7l1-0.1l-0.3-2.2l1.5-0.2l0.6,4l-3.2,0.5
				c-1.1-0.7-1.9-1.8-2.1-3.3C331,169.8,332.4,167.6,335,167.2z"/>
			<path class="st2" d="M335.5,176.8l5-0.4l0.1,1.8l-5,0.4c-1.2,0.1-1.9,0.8-1.8,2.1c0.1,1.3,1,1.9,2.1,1.8l5-0.4l0.1,1.8l-5,0.4
				c-2.1,0.2-3.6-0.9-3.8-3.5S333.4,176.9,335.5,176.8z"/>
			<path class="st2" d="M332.9,191.9l1.4-0.6l-0.1-3.6l-1.4-0.5l0-2l8.5,3.1l0,2.2l-8.3,3.4L332.9,191.9z M339.5,189.5l-3.6-1.2
				l0,2.6L339.5,189.5z"/>
			<path class="st2" d="M332.8,197.8l8.4,0.5l-0.4,5.9l-1.6-0.1l0.3-4.1l-1.8-0.1l-0.3,4.1l-1.6-0.1l0.3-4.1l-1.9-0.1l-0.3,4.1
				l-1.6-0.1L332.8,197.8z"/>
		</g>
	</g>
	<g>
		<g>
			<path class="st2" d="M232.2,71.1l1.4-1c0.4,0.8,1.1,1.6,2.2,1.9c0.9,0.3,1.5,0.1,1.7-0.4c0.5-1.4-4.4-2-3.4-5
				c0.5-1.3,2-2,3.8-1.4c1.3,0.4,2.2,1.2,2.7,2.2l-1.4,0.9c-0.4-0.8-1.2-1.4-2-1.7c-0.7-0.2-1.2-0.1-1.4,0.4c-0.4,1.3,4.4,2,3.4,4.9
				c-0.5,1.5-1.9,2.2-4.1,1.5C233.6,73,232.7,72.1,232.2,71.1z"/>
			<path class="st2" d="M244.8,77l0.1-1.5l-3.3-1.4l-1,1.1l-1.9-0.8l6.2-6.5l2.1,0.9l-0.2,9L244.8,77z M245.2,70l-2.6,2.8l2.4,1
				L245.2,70z"/>
			<path class="st2" d="M252.4,80.7l-1.1-6.7l-2.4,4.9l-1.6-0.8l3.8-7.5l1.6,0.8l1.1,6.5l2.4-4.7l1.6,0.8l-3.8,7.5L252.4,80.7z"/>
			<path class="st2" d="M255.3,82.2l4.2-7.3l5.1,3l-0.8,1.4l-3.6-2.1l-0.9,1.5l3.5,2l-0.8,1.4l-3.5-2l-1,1.7l3.6,2.1l-0.8,1.4
				L255.3,82.2z"/>
			<path class="st2" d="M266.3,89.1l0.4-1.5l-3-2l-1.2,0.9l-1.7-1.1l7.4-5.2l1.9,1.2l-2,8.8L266.3,89.1z M268.1,82.3l-3.1,2.3
				l2.2,1.5L268.1,82.3z"/>
			<path class="st2" d="M274.3,95.1l3.7-4.8l-5.6,3.3l-0.6-0.5l1.9-6.2l-3.7,4.8l-1.4-1.1l5.2-6.6l2,1.6l-1.6,5.4l4.9-2.9l2,1.6
				l-5.2,6.6L274.3,95.1z"/>
			<path class="st2" d="M276.8,97.2l5.7-6.2l4.4,4l-1.1,1.2l-3.1-2.8l-1.2,1.3l3,2.7l-1.1,1.2l-3-2.7l-1.3,1.4l3.1,2.8l-1.1,1.2
				L276.8,97.2z"/>
			<path class="st2" d="M286.1,106.3l1.2-6.7l-3.9,3.8l-1.2-1.3l6-5.8l1.3,1.3l-1.1,6.5l3.8-3.7l1.2,1.3l-6,5.8L286.1,106.3z"/>
			<path class="st2" d="M289.6,110.1l5.2-4.4l-1.6-1.9l1.2-1l4.3,5.1l-1.2,1l-1.6-1.9l-5.2,4.4L289.6,110.1z"/>
			<path class="st2" d="M296.1,111.3c2-1.5,4.6-1.1,6.1,0.9c1.5,2,1.2,4.6-0.9,6.1c-2,1.5-4.6,1.1-6.1-0.9
				C293.7,115.4,294.1,112.8,296.1,111.3z M300.2,116.9c1.3-0.9,1.6-2.4,0.7-3.7c-0.9-1.3-2.5-1.4-3.7-0.4c-1.3,0.9-1.6,2.4-0.7,3.7
				C297.4,117.7,299,117.8,300.2,116.9z"/>
			<path class="st2" d="M300.3,124.5l7.2-4.3l2.3,3.8c0.8,1.4,0.4,2.6-0.6,3.2c-0.9,0.5-1.8,0.3-2.4-0.2c0.3,0.8,0,1.9-0.9,2.4
				c-1.1,0.7-2.4,0.5-3.2-0.9L300.3,124.5z M305.1,127.6c0.5-0.3,0.6-0.8,0.3-1.4l-1.2-2l-1.6,1l1.2,2
				C304.1,127.7,304.6,127.9,305.1,127.6z M308,125.7c0.4-0.3,0.6-0.8,0.2-1.3l-1.2-1.9l-1.5,0.9l1.2,1.9
				C307,125.8,307.5,126,308,125.7z"/>
			<path class="st2" d="M307.2,136.7l1-1.1l-1.7-3.2l-1.5,0.2l-0.9-1.8l8.9-1l1,2l-6,6.7L307.2,136.7z M312,131.6l-3.8,0.5l1.2,2.3
				L312,131.6z M314.3,130.5l-0.5-1l2.4,0.7l0.7,1.3L314.3,130.5z"/>
			<path class="st2" d="M309.2,138.1l1.7,0.3c-0.3,0.8-0.4,1.8,0,2.9c0.4,0.9,1,1.2,1.4,1c1.3-0.6-1.5-4.6,1.4-5.9
				c1.3-0.6,2.8,0.1,3.6,1.9c0.5,1.2,0.6,2.4,0.2,3.5l-1.6-0.4c0.3-0.9,0.2-1.8-0.1-2.6c-0.3-0.7-0.8-1-1.2-0.8
				c-1.2,0.5,1.5,4.6-1.3,5.9c-1.4,0.6-2.9,0.1-3.8-2C308.8,140.4,308.8,139.1,309.2,138.1z"/>
			<path class="st2" d="M311.3,145.9l7.8-3l0.6,1.7l-7.8,3L311.3,145.9z"/>
			<path class="st2" d="M316.3,147.3c2.5-0.8,4.7,0.5,5.5,2.9c0.6,1.7,0,3.1-0.8,4l-1.2-1.2c0.5-0.6,0.8-1.4,0.5-2.3
				c-0.5-1.5-2-2.1-3.5-1.6c-1.5,0.5-2.3,1.9-1.8,3.4c0.3,0.8,1,1.4,1.8,1.5l-0.2,1.7c-1.2-0.2-2.5-0.9-3.1-2.7
				C312.8,150.6,313.9,148.1,316.3,147.3z"/>
			<path class="st2" d="M319.1,155.7c2.5-0.6,4.7,0.7,5.3,3.2c0.6,2.5-0.7,4.7-3.1,5.3c-2.5,0.6-4.7-0.7-5.3-3.2
				C315.4,158.6,316.7,156.3,319.1,155.7z M320.9,162.4c1.5-0.4,2.4-1.7,2-3.2c-0.4-1.5-1.8-2.2-3.3-1.8c-1.5,0.4-2.4,1.7-2,3.2
				C317.9,162.1,319.3,162.8,320.9,162.4z"/>
		</g>
	</g>
	<g>
		<g>
			<path class="st2" d="M240.2,48.2l2.7-8l3.7,1.3c1.7,0.6,2.3,2.1,1.8,3.5c-0.5,1.4-1.8,2.2-3.5,1.6l-2-0.7l-1,2.8L240.2,48.2z
				 M246.6,44.4c0.2-0.7-0.1-1.2-0.8-1.5l-1.8-0.6l-0.7,2.1l1.8,0.6C245.8,45.3,246.4,45.1,246.6,44.4z"/>
			<path class="st2" d="M248.7,46.7c0.9-2.3,3.3-3.3,5.7-2.4c2.3,0.9,3.4,3.3,2.4,5.7c-1,2.3-3.3,3.3-5.7,2.4
				C248.8,51.4,247.7,49,248.7,46.7z M255.1,49.3c0.6-1.5,0.1-2.9-1.3-3.5c-1.5-0.6-2.8,0.1-3.4,1.6c-0.6,1.4-0.1,2.9,1.3,3.5
				C253.2,51.5,254.5,50.7,255.1,49.3z"/>
			<path class="st2" d="M256.3,54.3l3.6-7.6l4,1.9c1.4,0.7,1.7,2,1.3,3c-0.4,0.9-1.3,1.3-2.1,1.1c0.8,0.5,1,1.6,0.6,2.5
				c-0.5,1.1-1.7,1.7-3.2,1L256.3,54.3z M262,54.3c0.2-0.5,0.1-1-0.6-1.3l-2.1-1l-0.8,1.7l2.1,1C261.2,55,261.8,54.8,262,54.3z
				 M263.3,51.1c0.2-0.5,0-1-0.5-1.2l-2-1l-0.8,1.6l2,1C262.6,51.7,263.1,51.6,263.3,51.1z"/>
			<path class="st2" d="M267.9,60.2l0-3.4l-1.2-0.6l-1.4,2.6l-1.6-0.9l4-7.4l3.5,1.9c1.5,0.8,1.9,2.4,1.2,3.7
				c-0.7,1.3-1.9,1.6-2.8,1.3l0.1,3.7L267.9,60.2z M270.8,55.2c0.3-0.6,0.1-1.2-0.6-1.6l-1.7-0.9l-1.1,2l1.7,0.9
				C269.7,56,270.4,55.9,270.8,55.2z"/>
			<path class="st2" d="M270.7,61.8l4.4-7.2l5.1,3.1l-0.8,1.3l-3.5-2.2l-0.9,1.5l3.5,2.1l-0.8,1.3l-3.5-2.1l-1,1.6l3.5,2.2l-0.8,1.3
				L270.7,61.8z"/>
			<path class="st2" d="M276.6,65.4l0.8-1.2l6.3-2.2l-3.3-2.2l0.9-1.3l5.2,3.5l-0.8,1.2l-6.3,2.2l3.4,2.3l-0.9,1.3L276.6,65.4z"/>
			<path class="st2" d="M287.5,73.2l0.4-1.5l-2.9-2.2l-1.3,0.8l-1.6-1.2l7.7-4.7l1.8,1.4l-2.5,8.7L287.5,73.2z M289.7,66.5l-3.2,2.1
				l2.1,1.6L289.7,66.5z"/>
			<path class="st2" d="M289,76.6l-0.2-0.9c0.4,0.1,1.1,0,1.5-0.3c0,0-0.1-0.1-0.2-0.1c-0.4-0.3-0.4-0.8-0.1-1.2
				c0.4-0.4,1-0.5,1.4-0.1c0.5,0.4,0.6,1.1,0,1.7C290.9,76.4,290,76.7,289,76.6z"/>
			<path class="st2" d="M298.7,82.9l2.4-2.6l-2.9-2.7l-2.4,2.6l-1.3-1.2l5.7-6.2l1.3,1.2l-2.2,2.4l2.9,2.7l2.2-2.4l1.3,1.2l-5.7,6.2
				L298.7,82.9z"/>
			<path class="st2" d="M301.1,85.3l6-5.9l1.3,1.3l-6,5.9L301.1,85.3z"/>
			<path class="st2" d="M306.3,84.5c2-1.8,4.6-1.4,6.2,0.4c1.2,1.3,1.3,2.7,0.9,3.8l-1.6-0.5c0.2-0.7,0.1-1.6-0.5-2.2
				c-1-1.1-2.6-1.2-3.8-0.1c-1.2,1.1-1.3,2.7-0.3,3.8c0.5,0.5,1.2,0.8,1.7,0.9l0.7-0.7l-1.5-1.6l1.2-1.1l2.7,3l-2.4,2.2
				c-1.3,0-2.5-0.5-3.6-1.6C304.5,88.9,304.4,86.3,306.3,84.5z"/>
			<path class="st2" d="M309.5,94.3l6.4-5.4l1.2,1.4l-6.4,5.4L309.5,94.3z"/>
			<path class="st2" d="M311.7,96.9l6.6-5.2l3.7,4.7l-1.2,1l-2.6-3.3l-1.4,1.1l2.5,3.2l-1.2,1l-2.5-3.2l-1.5,1.2l2.6,3.3l-1.2,1
				L311.7,96.9z"/>
			<path class="st2" d="M319.4,107.4l2.2-6.4l-4.5,3.1l-1-1.5l6.9-4.8l1.1,1.5l-2.1,6.2l4.3-3l1,1.5l-6.9,4.8L319.4,107.4z"/>
			<path class="st2" d="M321.2,110.1l7.1-4.4l3.1,5l-1.3,0.8L328,108l-1.5,0.9l2.1,3.5l-1.3,0.8l-2.1-3.5l-1.6,1l2.2,3.5l-1.3,0.8
				L321.2,110.1z"/>
			<path class="st2" d="M326.6,119.1l7.4-4l0.9,1.6l-7.4,4L326.6,119.1z"/>
			<path class="st2" d="M330.8,127.2l3.1-6l-4.9,2.4l-0.8-1.6l7.5-3.7l0.8,1.7l-3,5.8l4.7-2.3l0.8,1.6l-7.5,3.7L330.8,127.2z"/>
			<path class="st2" d="M334.4,135.5l1.1-1l-1.4-3.3l-1.5,0.1l-0.8-1.9l9-0.3l0.9,2.1l-6.5,6.3L334.4,135.5z M339.6,130.8l-3.8,0.2
				l1,2.4L339.6,130.8z"/>
			<path class="st2" d="M335.5,138l7.9-2.8l1.1,3.1c0.9,2.5-0.1,4.8-2.4,5.6c-2.4,0.9-4.6-0.3-5.5-2.8L335.5,138z M341.4,142.2
				c1.4-0.5,2.2-1.7,1.6-3.3l-0.5-1.4l-4.9,1.8l0.5,1.4C338.6,142.1,340.1,142.7,341.4,142.2z"/>
			<path class="st2" d="M338.4,146.4l8.1-2.4l1.7,5.7l-1.5,0.5l-1.2-4l-1.7,0.5l1.2,3.9l-1.5,0.5l-1.2-3.9l-1.8,0.5l1.2,4l-1.5,0.5
				L338.4,146.4z"/>
			<path class="st2" d="M344.5,152c2.5-0.6,4.7,0.8,5.2,3.3c0.6,2.5-0.7,4.7-3.2,5.3c-1.2,0.3-2.3,0.1-3.1-0.4l-0.6,0.8l-1.3-1
				l0.6-0.8c-0.4-0.5-0.7-1.1-0.9-1.8C340.7,154.8,342,152.6,344.5,152z M343.1,157.7l0.8-1.1l1.3,1l-0.8,1.1c0.5,0.2,1.1,0.2,1.7,0
				c1.5-0.4,2.5-1.6,2.1-3.1c-0.4-1.5-1.7-2.2-3.3-1.8c-1.5,0.4-2.5,1.6-2.1,3.1C342.9,157.2,343,157.5,343.1,157.7z"/>
			<path class="st2" d="M345.9,162l5-0.9l0.3,1.8l-4.9,0.9c-1.2,0.2-1.8,1-1.6,2.3c0.2,1.3,1.1,1.8,2.3,1.6l4.9-0.9l0.3,1.8l-5,0.9
				c-2,0.4-3.7-0.6-4.1-3.1C342.7,163.9,343.9,162.4,345.9,162z"/>
			<path class="st2" d="M344.8,177.4l1.4-0.7l-0.4-3.6l-1.5-0.4l-0.2-2l8.7,2.3l0.3,2.2l-8,4.2L344.8,177.4z M351.1,174.3l-3.7-0.9
				l0.3,2.6L351.1,174.3z"/>
			<path class="st2" d="M345.1,180l8.4-0.5l0.2,3.3c0.1,2.6-1.4,4.5-3.9,4.7c-2.5,0.1-4.3-1.6-4.5-4.2L345.1,180z M349.6,185.8
				c1.5-0.1,2.6-1.1,2.5-2.8l-0.1-1.5l-5.2,0.3l0.1,1.5C346.9,184.9,348.2,185.8,349.6,185.8z"/>
			<path class="st2" d="M345.5,194.8l1.4-0.5l0-3.6l-1.4-0.5l0-2l8.4,3.3l0,2.2l-8.4,3.2L345.5,194.8z M352.1,192.5l-3.6-1.3l0,2.6
				L352.1,192.5z"/>
		</g>
	</g>
</g>
<g id="Layer_2_copy">
	<g>
		<g>
			<path class="st2" d="M199.4,337.1l-0.6-1.4l-3.6,0.1l-0.5,1.4l-2,0l3.1-8.5l2.2,0l3.4,8.3L199.4,337.1z M197,330.5l-1.2,3.6
				l2.6,0L197,330.5z"/>
			<path class="st2" d="M205.1,332.6c-0.3-2.6,1.5-4.5,4-4.8c1.8-0.2,3,0.7,3.7,1.7l-1.5,0.9c-0.4-0.6-1.2-1.1-2.1-1
				c-1.5,0.2-2.5,1.4-2.3,3c0.2,1.6,1.4,2.6,2.9,2.5c0.9-0.1,1.5-0.7,1.8-1.4l1.6,0.6c-0.5,1.1-1.4,2.2-3.3,2.4
				C207.5,336.7,205.3,335.1,205.1,332.6z"/>
			<path class="st2" d="M213.8,331.7c-0.4-2.5,1.1-4.6,3.6-5c2.5-0.4,4.6,1.1,5.1,3.6s-1.1,4.6-3.6,5
				C216.3,335.6,214.2,334.2,213.8,331.7z M220.6,330.5c-0.3-1.6-1.4-2.6-3-2.3c-1.5,0.3-2.3,1.6-2.1,3.1c0.3,1.5,1.4,2.6,3,2.3
				C220.1,333.4,220.9,332,220.6,330.5z"/>
			<path class="st2" d="M230.4,332.6l-5.2-4.4l1.3,5.3l-1.7,0.4l-2-8.2l1.8-0.4l5,4.2l-1.2-5.1l1.7-0.4l2,8.2L230.4,332.6z"/>
			<path class="st2" d="M235.8,331.1l-2-6.5l-2.4,0.7l-0.5-1.5l6.4-1.9l0.5,1.5l-2.3,0.7l2,6.5L235.8,331.1z"/>
			<path class="st2" d="M246.8,327.4l-1-1.2l-3.4,1.2l0,1.5l-1.9,0.7l0.1-9l2.1-0.8l5.9,6.8L246.8,327.4z M242.3,322l0,3.8l2.5-0.9
				L242.3,322z"/>
			<path class="st2" d="M256.4,323.3l-2.5-5.5l0.3,6.5l-0.7,0.3l-4.6-4.6l2.5,5.5l-1.6,0.7l-3.4-7.7l2.3-1l4,4l-0.3-5.6l2.3-1
				l3.4,7.7L256.4,323.3z"/>
			<path class="st2" d="M259.8,321.6l-3.8-7.5l1.6-0.8l3.8,7.5L259.8,321.6z"/>
			<path class="st2" d="M268.1,317l-6.2-2.8l2.7,4.8l-1.6,0.9l-4.2-7.3l1.6-0.9l6,2.7l-2.6-4.6l1.6-0.9l4.2,7.3L268.1,317z"/>
			<path class="st2" d="M276.2,311.9L275,311l-3,2l0.3,1.5l-1.7,1.1l-1.9-8.8l1.9-1.2l7.3,5.2L276.2,311.9z M270.6,307.7l0.9,3.7
				l2.2-1.4L270.6,307.7z"/>
			<path class="st2" d="M282.1,310.2l-0.1-0.7c0.4,0,0.8-0.1,1-0.3c0.3-0.2,0.4-0.5,0.3-0.7c-0.1-0.2-0.3-0.2-0.5,0
				c-0.1,0.1-0.2,0.2-0.2,0.4l-0.7,0.1l-0.2-0.7c-1.9,1.2-4.3,0.8-5.7-1.1c-1.6-2.1-1.1-4.6,1-6.2c1.5-1.1,2.9-1,4-0.5l-0.8,1.5
				c-0.7-0.3-1.6-0.3-2.3,0.2c-1.2,0.9-1.4,2.5-0.4,3.8c1,1.3,2.5,1.5,3.8,0.6c0.7-0.5,1-1.4,0.8-2.2l1.7-0.3
				c0.2,1.1-0.1,2.5-1.4,3.6l0.1,0.5c0-0.1,0.1-0.3,0.3-0.4c0.4-0.3,0.9-0.2,1.2,0.2c0.4,0.5,0.1,1.2-0.5,1.7
				C282.9,310,282.4,310.2,282.1,310.2z"/>
			<path class="st2" d="M281.5,295.3c-0.2,0.2-0.2,0.5,0.2,0.9l-0.6,0.5c-0.7-0.8-0.7-1.6-0.1-2.2c0.6-0.5,1.3,0,1.7-0.3
				c0.2-0.2,0.2-0.5-0.2-0.9l0.6-0.5c0.7,0.8,0.7,1.6,0.1,2.2C282.5,295.5,281.9,295,281.5,295.3z M290.3,300.9l-1.3-0.7l-2.7,2.3
				l0.5,1.4l-1.5,1.3l-3-8.5l1.7-1.5l7.9,4.3L290.3,300.9z M284.3,297.4l1.4,3.6l2-1.7L284.3,297.4z"/>
			<path class="st2" d="M289.5,296c-1.8-1.8-1.7-4.4,0.1-6.2c1.8-1.8,4.4-1.8,6.2,0c1.8,1.8,1.7,4.4-0.1,6.2
				C293.9,297.9,291.3,297.9,289.5,296z M294.5,291.2c-1.1-1.1-2.6-1.3-3.7-0.2c-1.1,1.1-1,2.6,0.1,3.8c1.1,1.1,2.6,1.3,3.8,0.2
				C295.7,293.9,295.6,292.3,294.5,291.2z"/>
			<path class="st2" d="M302.1,289.3l-6.4-5.5l2.2-2.5c1.7-2,4.2-2.3,6.1-0.7c1.9,1.7,2,4.1,0.3,6.1L302.1,289.3z M302.8,282
				c-1.1-1-2.6-1-3.7,0.3l-1,1.2l4,3.4l1-1.2C304.1,284.5,303.8,283,302.8,282z"/>
			<path class="st2" d="M304.6,279.9c-2-1.5-2.4-4.1-0.8-6.1c1.5-2,4.1-2.4,6.1-0.9c2,1.5,2.4,4.1,0.9,6.1
				C309.2,281,306.6,281.4,304.6,279.9z M308.7,274.3c-1.3-0.9-2.8-0.9-3.7,0.4c-0.9,1.3-0.6,2.8,0.7,3.7c1.3,0.9,2.8,0.9,3.7-0.4
				C310.4,276.8,310,275.3,308.7,274.3z"/>
		</g>
	</g>
	<g>
		<g>
			<path class="st2" d="M198.9,350.2l-0.6-1.4l-3.6,0.1l-0.5,1.4l-2,0l3.1-8.5l2.2,0l3.4,8.4L198.9,350.2z M196.5,343.6l-1.3,3.6
				l2.6,0L196.5,343.6z"/>
			<path class="st2" d="M209.4,349.5l-0.5-6l-1.9,6.2l-0.8,0.1l-2.8-5.9l0.5,6l-1.8,0.1l-0.7-8.4l2.5-0.2l2.4,5.1l1.6-5.4l2.5-0.2
				l0.7,8.4L209.4,349.5z"/>
			<path class="st2" d="M213.2,349.1l-1.2-8.3l4.4-0.6c1.6-0.2,2.5,0.7,2.7,1.8c0.1,1-0.4,1.8-1.2,2.1c0.9,0,1.7,0.8,1.9,1.8
				c0.2,1.3-0.5,2.4-2.1,2.6L213.2,349.1z M217.3,342.5c-0.1-0.5-0.5-0.8-1.1-0.7l-2.2,0.3l0.2,1.7l2.2-0.3
				C217.1,343.5,217.4,343.1,217.3,342.5z M218,345.9c-0.1-0.5-0.5-0.9-1.2-0.8l-2.3,0.3l0.3,1.9l2.3-0.3
				C217.7,346.9,218,346.5,218,345.9z"/>
			<path class="st2" d="M221.7,347.8l-1.5-8.3l1.8-0.3l1.5,8.3L221.7,347.8z"/>
			<path class="st2" d="M225.3,347.2l-1.8-8.2l5.8-1.3l0.3,1.5l-4.1,0.9l0.4,1.7l4-0.9l0.3,1.5l-4,0.9l0.4,1.9l4.1-0.9l0.3,1.5
				L225.3,347.2z"/>
			<path class="st2" d="M238.3,344l-5.3-4.2l1.5,5.3l-1.7,0.5l-2.2-8.1l1.8-0.5l5.2,4.1l-1.4-5.1l1.7-0.5l2.2,8.1L238.3,344z"/>
			<path class="st2" d="M243.7,342.3l-2.2-6.5l-2.3,0.8l-0.5-1.5l6.4-2.1l0.5,1.5l-2.3,0.8l2.2,6.5L243.7,342.3z"/>
			<path class="st2" d="M249,340.5l-3-7.8l5.5-2.2l0.6,1.5l-3.9,1.5l0.6,1.6l3.8-1.5l0.6,1.5l-3.8,1.5l0.7,1.8l3.9-1.5l0.6,1.5
				L249,340.5z"/>
			<path class="st2" d="M264.4,333.9l-6-3.2l2.4,4.9l-1.6,0.8l-3.6-7.6l1.7-0.8l5.8,3.1l-2.3-4.8l1.6-0.8l3.6,7.6L264.4,333.9z"/>
			<path class="st2" d="M272.9,329.4l-1.2-1l-3.2,1.7l0.2,1.5l-1.8,1l-1.2-8.9l2-1.1l6.9,5.8L272.9,329.4z M267.6,324.7l0.6,3.8
				l2.3-1.3L267.6,324.7z"/>
			<path class="st2" d="M274.5,327.1l0.1-1.7c0.8,0.2,1.9,0.2,2.9-0.4c0.8-0.5,1-1.1,0.7-1.6c-0.8-1.2-4.3,2.2-6-0.5
				c-0.7-1.2-0.3-2.8,1.4-3.9c1.1-0.7,2.3-1,3.4-0.7l-0.1,1.7c-0.9-0.2-1.8,0.1-2.6,0.5c-0.6,0.4-0.8,0.9-0.6,1.3
				c0.7,1.1,4.3-2.2,6,0.5c0.8,1.3,0.5,2.9-1.4,4.1C276.8,327.2,275.5,327.4,274.5,327.1z"/>
			<path class="st2" d="M282.2,318.6c-1.5-2.1-1-4.7,1-6.2c1.5-1.1,2.9-0.9,4-0.4l-0.8,1.5c-0.7-0.3-1.6-0.3-2.3,0.2
				c-1.2,0.9-1.4,2.5-0.5,3.8c0.9,1.3,2.5,1.6,3.8,0.7c0.7-0.5,1-1.4,0.9-2.1l1.7-0.3c0.1,1.2-0.1,2.6-1.6,3.7
				C286.3,320.9,283.7,320.7,282.2,318.6z"/>
			<path class="st2" d="M289.2,313.4c-1.6-1.9-1.4-4.5,0.6-6.2c1.9-1.6,4.5-1.4,6.1,0.5c1.6,1.9,1.4,4.5-0.6,6.1
				C293.4,315.6,290.9,315.4,289.2,313.4z M294.6,309c-1-1.2-2.5-1.5-3.7-0.5c-1.2,1-1.2,2.5-0.2,3.8c1,1.2,2.5,1.5,3.7,0.5
				C295.6,311.7,295.6,310.2,294.6,309z"/>
			<path class="st2" d="M305.2,304.9l-4.2-4.4l2.5,6l-0.6,0.5l-5.9-2.8l4.2,4.4l-1.3,1.2l-5.8-6.1l1.8-1.7l5.1,2.4l-2.1-5.2l1.8-1.7
				l5.8,6.1L305.2,304.9z"/>
			<path class="st2" d="M305.4,299.9l-3.7-3.4l1.2-1.3l3.7,3.4c0.9,0.8,1.9,0.8,2.8-0.1s0.7-2-0.1-2.8l-3.7-3.4l1.2-1.3l3.7,3.4
				c1.5,1.4,1.7,3.3,0,5.2C308.8,301.4,307,301.3,305.4,299.9z"/>
			<path class="st2" d="M318,290.6l-6.8-0.4l4.2,3.5l-1.1,1.4l-6.5-5.3l1.2-1.4l6.6,0.3l-4.1-3.3l1.1-1.4l6.5,5.3L318,290.6z"/>
			<path class="st2" d="M320.2,287.7l-6.7-5l1.1-1.4l6.7,5L320.2,287.7z"/>
			<path class="st2" d="M322.4,284.8l-6.9-4.8l1.9-2.7c1.5-2.2,3.9-2.7,6-1.3c2.1,1.4,2.4,3.9,0.9,6.1L322.4,284.8z M322.3,277.5
				c-1.2-0.8-2.7-0.7-3.6,0.7l-0.9,1.3l4.3,3l0.9-1.3C324,279.8,323.5,278.3,322.3,277.5z"/>
			<path class="st2" d="M330.7,272.1l-1.5-0.3l-1.9,3.1l0.9,1.2l-1.1,1.7l-5.5-7.1l1.2-1.9l8.9,1.6L330.7,272.1z M323.8,270.7l2.4,3
				l1.4-2.2L323.8,270.7z"/>
			<path class="st2" d="M332.3,269.4l-7.4-3.9l1.6-2.9c1.2-2.3,3.6-3.2,5.8-2c2.2,1.2,2.9,3.6,1.6,5.9L332.3,269.4z M331.4,262.2
				c-1.3-0.7-2.7-0.4-3.5,1.1l-0.7,1.4l4.6,2.5l0.7-1.3C333.2,264.3,332.6,262.8,331.4,262.2z"/>
			<path class="st2" d="M336.6,261.1l-7.6-3.5l2.5-5.4l1.4,0.7l-1.8,3.8l1.6,0.7l1.7-3.7l1.4,0.7l-1.7,3.7l1.7,0.8l1.8-3.8l1.4,0.7
				L336.6,261.1z"/>
			<path class="st2" d="M338.5,254.3l-0.9-1.4c0.8-0.3,1.6-1,2.1-2c0.4-0.9,0.1-1.5-0.3-1.7c-1.4-0.5-2.2,4.3-5.2,3.1
				c-1.3-0.5-1.9-2.1-1.2-3.9c0.5-1.2,1.3-2.1,2.3-2.6l0.9,1.4c-0.8,0.4-1.4,1.1-1.8,1.9c-0.3,0.7-0.1,1.2,0.3,1.4
				c1.2,0.5,2.2-4.3,5.1-3.1c1.4,0.6,2.1,2,1.2,4.1C340.4,253,339.5,253.8,338.5,254.3z"/>
		</g>
	</g>
</g>
<g id="Layer_2_copy_2">
	<g>
		<g>
			<path class="st2" d="M44.3,212.3l8.3-1.3l0.9,5.9l-1.6,0.2l-0.6-4.1l-1.7,0.3l0.6,4l-1.6,0.2l-0.6-4l-1.9,0.3l0.6,4.1l-1.6,0.2
				L44.3,212.3z"/>
			<path class="st2" d="M46.6,225.2l2.6-2.7l-3.4-1.4l-0.4-2.1l4.8,2.1l3.4-3.6l0.4,2.1l-2.4,2.5l3.2,1.3l0.4,2.1l-4.6-2l-3.6,3.9
				L46.6,225.2z"/>
			<path class="st2" d="M47.3,228.4l8.1-2.2l1,3.8c0.5,1.8-0.5,3-1.9,3.4c-1.4,0.4-2.9-0.3-3.3-2l-0.6-2.1l-2.9,0.8L47.3,228.4z
				 M54.1,231.6c0.7-0.2,1-0.8,0.8-1.5l-0.5-1.8l-2.2,0.6l0.5,1.8C52.9,231.4,53.5,231.8,54.1,231.6z"/>
			<path class="st2" d="M53.4,234.6c2.4-0.8,4.7,0.4,5.5,2.8c0.8,2.4-0.3,4.7-2.7,5.5c-2.4,0.8-4.7-0.4-5.5-2.8
				C49.8,237.7,51,235.4,53.4,234.6z M55.6,241.1c1.5-0.5,2.3-1.8,1.8-3.3c-0.5-1.5-1.9-2.1-3.4-1.6c-1.5,0.5-2.3,1.8-1.8,3.3
				C52.6,241.1,54.1,241.6,55.6,241.1z"/>
			<path class="st2" d="M53.6,244.7l1.7,0.4c-0.4,0.8-0.5,1.8-0.1,2.9c0.4,0.9,1,1.2,1.4,1c1.4-0.5-1.4-4.7,1.5-5.8
				c1.3-0.5,2.8,0.2,3.6,2c0.5,1.2,0.5,2.4,0.1,3.5l-1.6-0.4c0.3-0.9,0.3-1.8-0.1-2.6c-0.3-0.7-0.7-1-1.2-0.8
				c-1.2,0.5,1.4,4.6-1.5,5.8c-1.4,0.6-2.9,0-3.8-2.1C53.1,247,53.2,245.8,53.6,244.7z"/>
			<path class="st2" d="M55.7,252.9l7.7-3.4l0.7,1.6l-7.7,3.4L55.7,252.9z"/>
			<path class="st2" d="M56.5,259.5l0.7,0c-0.1,0.4,0,0.8,0.1,1.1c0.1,0.3,0.4,0.5,0.7,0.4c0.2-0.1,0.2-0.3,0.1-0.5
				c-0.1-0.1-0.2-0.2-0.3-0.3l0-0.7l0.8-0.1c-0.8-2.1,0-4.4,2.1-5.4c2.3-1.2,4.8-0.2,5.9,2.1c0.8,1.6,0.4,3.1-0.3,4.1l-1.4-1
				c0.5-0.6,0.6-1.5,0.2-2.3c-0.7-1.4-2.2-1.9-3.6-1.1c-1.4,0.7-2,2.2-1.3,3.6c0.4,0.8,1.2,1.2,2,1.2l0,1.7c-1.2-0.1-2.5-0.5-3.3-2
				l-0.5,0c0.1,0.1,0.2,0.2,0.3,0.3c0.2,0.4,0.1,0.9-0.4,1.1c-0.6,0.3-1.2-0.1-1.6-0.8C56.5,260.4,56.5,259.8,56.5,259.5z"/>
			<path class="st2" d="M64.1,269.3l1-1.2l-1.8-3.1l-1.5,0.2l-1-1.8l8.9-1.3l1.1,1.9l-5.7,7L64.1,269.3z M68.7,264l-3.8,0.7l1.3,2.3
				L68.7,264z M71.3,261.7c-0.1-0.2-0.4-0.3-0.9,0l-0.4-0.7c0.9-0.5,1.7-0.4,2.1,0.3c0.4,0.7-0.2,1.3,0,1.7c0.1,0.2,0.4,0.3,0.9,0
				l0.4,0.7c-0.9,0.5-1.7,0.4-2.1-0.3C70.8,262.6,71.5,262.1,71.3,261.7z"/>
			<path class="st2" d="M69,269.4c2.1-1.4,4.7-0.8,6,1.3c1.4,2.1,0.9,4.7-1.2,6.1c-2.1,1.4-4.7,0.8-6-1.3
				C66.4,273.3,66.9,270.8,69,269.4z M72.8,275.2c1.3-0.9,1.8-2.3,0.9-3.6c-0.9-1.3-2.4-1.5-3.7-0.6c-1.3,0.9-1.8,2.3-0.9,3.7
				C70,275.9,71.5,276.1,72.8,275.2z"/>
			<path class="st2" d="M76.8,287.6l0.8-1.3l-2.2-2.8L74,284l-1.3-1.6l8.6-2.6l1.4,1.8l-4.6,7.7L76.8,287.6z M80.6,281.7l-3.7,1.2
				l1.6,2.1L80.6,281.7z M82.6,280.1l0.2-2.7l0.9,1.2l-0.4,2.4L82.6,280.1z"/>
			<path class="st2" d="M81,292.5l6.3-5.6l1.2,1.3l-6.3,5.6L81,292.5z"/>
			<path class="st2" d="M87.5,299.4l1.1-6.7l-3.9,3.8l-1.2-1.3l6-5.9l1.3,1.3l-1.1,6.5l3.8-3.7l1.2,1.3l-6,5.9L87.5,299.4z"/>
			<path class="st2" d="M90.1,302l5.7-6.2l4.4,4l-1.1,1.2l-3.1-2.8l-1.2,1.3l3,2.7l-1.1,1.2l-3-2.7l-2.4,2.6L90.1,302z"/>
			<path class="st2" d="M95.7,307l5.4-6.5l4.6,3.8l-1,1.2l-3.2-2.6l-1.1,1.4l3.1,2.6l-1,1.2l-3.1-2.6l-1.2,1.5l3.2,2.6l-1,1.2
				L95.7,307z"/>
			<path class="st2" d="M103.8,308.3c1.5-2.1,4.2-2.3,6.2-0.8c1.5,1.1,1.8,2.5,1.6,3.7l-1.7-0.3c0.1-0.8-0.2-1.6-0.9-2.1
				c-1.2-0.9-2.8-0.6-3.8,0.7c-0.9,1.3-0.7,2.9,0.5,3.8c0.7,0.5,1.6,0.5,2.3,0.2l0.8,1.5c-1.1,0.5-2.6,0.7-4-0.4
				C102.8,312.9,102.2,310.3,103.8,308.3z"/>
			<path class="st2" d="M110,320.3l0.6-0.4c0.1,0.4,0.4,0.7,0.7,0.9c0.3,0.2,0.6,0.2,0.8,0c0.1-0.2,0.1-0.3-0.1-0.5
				c-0.1-0.1-0.3-0.1-0.4-0.1l-0.3-0.6l0.6-0.5c-1.8-1.4-2.3-3.7-1-5.8c1.4-2.2,4-2.6,6.1-1.2c1.5,1,1.9,2.4,1.8,3.6l-1.7-0.2
				c0.1-0.8-0.3-1.6-1-2.1c-1.3-0.8-2.9-0.5-3.7,0.9c-0.9,1.3-0.6,2.9,0.7,3.8c0.7,0.5,1.6,0.4,2.3,0l0.9,1.5
				c-1,0.5-2.4,0.8-3.9-0.1l-0.4,0.3c0.2,0,0.3,0,0.4,0.1c0.4,0.3,0.5,0.8,0.2,1.2c-0.4,0.6-1.1,0.5-1.8,0.1
				C110.4,321,110.1,320.6,110,320.3z"/>
			<path class="st2" d="M121.5,324.9l0.2-1.5l-3.1-1.8l-1.2,1l-1.8-1l7-5.7l2,1.1l-1.3,8.9L121.5,324.9z M122.7,318l-2.9,2.5
				l2.3,1.3L122.7,318z M123.8,314.6c-0.2-0.1-0.5,0-0.8,0.5l-0.7-0.4c0.5-0.9,1.3-1.2,2-0.8c0.7,0.4,0.4,1.2,0.9,1.5
				c0.2,0.1,0.5,0,0.8-0.4l0.7,0.4c-0.5,0.9-1.2,1.2-2,0.8C123.9,315.7,124.2,314.9,123.8,314.6z"/>
			<path class="st2" d="M125.8,322.4c1.1-2.3,3.6-3.1,5.9-1.9c2.3,1.1,3.1,3.6,2,5.8c-1.1,2.3-3.6,3.1-5.9,1.9
				C125.5,327.1,124.6,324.7,125.8,322.4z M132,325.5c0.7-1.4,0.3-2.9-1.1-3.6c-1.4-0.7-2.8-0.1-3.5,1.3c-0.7,1.4-0.3,2.9,1.1,3.6
				C129.9,327.5,131.3,326.9,132,325.5z"/>
		</g>
	</g>
</g>
</svg>
