<?xml version="1.0" encoding="utf-8"?>
<!-- Generator: Adobe Illustrator 16.0.0, SVG Export Plug-In . SVG Version: 6.00 Build 0)  -->
<!DOCTYPE svg PUBLIC "-//W3C//DTD SVG 1.1//EN" "http://www.w3.org/Graphics/SVG/1.1/DTD/svg11.dtd">
<svg version="1.1" id="Layer_2" xmlns="http://www.w3.org/2000/svg" xmlns:xlink="http://www.w3.org/1999/xlink" x="0px" y="0px"
	 width="623px" height="442.3px" viewBox="0 0 623 442.3" enable-background="new 0 0 623 442.3" xml:space="preserve">
<rect x="92.3" y="9.9" fill="#E1E1E1" width="526.2" height="303"/>
<path fill="none" stroke="#FFFFFF" stroke-linejoin="round" stroke-miterlimit="10" d="M86,9.7h536.9 M86,40.7h536.9 M86,70.7h536.9
	 M86,100.7h536.9 M86,130.7h536.9 M86,161.7h536.9 M86,191.7h536.9 M86,221.7h536.9 M86,252.7h536.9 M86,282.7h536.9"/>
<path fill="#00848F" d="M573.1,138.7h45.4v174h-45.4V138.7z M512.9,163.7h46.3v149h-46.3V163.7z M452.7,157.7H499v155h-46.3V157.7z
	 M392.5,169.7h46.3v143h-46.3V169.7z M332.3,208.7h46.3v104h-46.3V208.7z M273,245.7h45.4v67H273V245.7z M212.8,270.7h46.3v42h-46.3
	V270.7z M152.6,303.7h46.3v9h-46.3V303.7z M92.4,308.7h46.3v4H92.4V308.7z"/>
<rect x="573.1" y="36.7" fill-rule="evenodd" clip-rule="evenodd" fill="#363636" width="45.4" height="102"/>
<g>
	<path fill="#00848F" d="M109.8,303.7v-1.4c5-3.9,7.8-6.3,7.8-8.7c0-1.8-1.5-2.6-2.9-2.6c-1.7,0-3,0.7-3.8,1.8l-1.1-1.1
		c1.1-1.4,2.9-2.2,4.9-2.2c2.3,0,4.7,1.3,4.7,4.1c0,2.9-2.9,5.5-6.8,8.5h6.9v1.6H109.8z"/>
</g>
<g>
	<path fill="#00848F" d="M171.9,290.8c0-3.8,1.8-7.2,5.7-7.2c1.8,0,3,0.7,3.9,1.7l-0.9,1.3c-0.7-0.8-1.5-1.4-3-1.4
		c-2.7,0-3.9,2.8-3.9,5.5c0,0.2,0,0.4,0,0.5c0.6-1,2.2-2.2,4-2.2c2.5,0,4.6,1.5,4.6,4.5c0,2.4-1.8,4.6-4.9,4.6
		C173.4,298,171.9,294.6,171.9,290.8z M180.5,293.5c0-2.1-1.4-3-3.2-3c-1.4,0-2.8,0.9-3.5,2.1c0.1,1.7,1.1,3.9,3.5,3.9
		C179.4,296.5,180.5,294.8,180.5,293.5z"/>
</g>
<g>
	<g>
		<path fill="#FFFFFF" d="M223.6,291.4V290c5-3.9,7.8-6.3,7.8-8.7c0-1.8-1.5-2.6-2.9-2.6c-1.7,0-3,0.7-3.8,1.8l-1.1-1.1
			c1.1-1.4,2.9-2.2,4.9-2.2c2.3,0,4.7,1.3,4.7,4.1c0,2.9-2.9,5.5-6.8,8.5h6.9v1.6H223.6z"/>
		<path fill="#FFFFFF" d="M235.9,287.9c0-1.9,1.6-3.1,3.3-3.7c-1.6-0.5-3.1-1.5-3.1-3.4c0-2.5,2.5-3.6,4.8-3.6
			c2.3,0,4.8,1.1,4.8,3.6c0,1.8-1.5,2.9-3.1,3.4c1.7,0.5,3.3,1.8,3.3,3.7c0,2.4-2.3,3.8-5,3.8C238.1,291.7,235.9,290.3,235.9,287.9z
			 M244.2,287.7c0-1.8-2.4-2.6-3.3-2.7c-0.9,0.1-3.3,0.9-3.3,2.7c0,1.5,1.5,2.4,3.3,2.4C242.6,290.1,244.2,289.2,244.2,287.7z
			 M244,281.1c0-1.4-1.4-2.3-3-2.3c-1.7,0-3,0.9-3,2.3c0,1.7,2.2,2.3,3,2.4C241.8,283.3,244,282.8,244,281.1z"/>
	</g>
</g>
<g>
	<g>
		<path fill="#FFFFFF" d="M289.4,268.8v-3.5h-6.7v-1.4l6-9h2.4v8.9h2v1.5h-2v3.5H289.4z M289.4,256.5l-4.9,7.3h4.9V256.5z"/>
		<path fill="#FFFFFF" d="M294.9,265.3c0-1.9,1.6-3.2,3.3-3.7c-1.6-0.5-3.1-1.5-3.1-3.4c0-2.5,2.5-3.6,4.8-3.6
			c2.3,0,4.8,1.1,4.8,3.6c0,1.8-1.5,2.9-3.1,3.4c1.7,0.5,3.3,1.8,3.3,3.7c0,2.4-2.3,3.8-5,3.8C297.2,269.1,294.9,267.7,294.9,265.3z
			 M303.2,265.1c0-1.8-2.4-2.6-3.3-2.7c-0.9,0.1-3.3,0.9-3.3,2.7c0,1.5,1.5,2.4,3.3,2.4C301.7,267.5,303.2,266.6,303.2,265.1z
			 M303,258.5c0-1.4-1.4-2.3-3-2.3c-1.7,0-3,0.9-3,2.3c0,1.7,2.2,2.3,3,2.4C300.8,260.8,303,260.2,303,258.5z"/>
	</g>
</g>
<g>
	<g>
		<path fill="#FFFFFF" d="M343.4,224.8c0-3.8,1.8-7.2,5.7-7.2c1.8,0,3,0.7,3.9,1.7l-0.9,1.3c-0.7-0.8-1.5-1.4-3-1.4
			c-2.7,0-3.9,2.8-3.9,5.5c0,0.2,0,0.4,0,0.5c0.6-1,2.2-2.2,4-2.2c2.5,0,4.6,1.5,4.6,4.5c0,2.4-1.8,4.6-4.9,4.6
			C344.9,232,343.4,228.6,343.4,224.8z M351.9,227.5c0-2.1-1.4-3-3.2-3c-1.4,0-2.8,0.9-3.5,2.1c0.1,1.7,1.1,3.9,3.5,3.9
			C350.9,230.5,351.9,228.8,351.9,227.5z"/>
		<path fill="#FFFFFF" d="M356.5,230.3l0.9-1.3c0.7,0.8,1.6,1.4,3,1.4c2.8,0,3.9-2.8,3.9-5.5c0-0.2,0-0.4,0-0.5
			c-0.6,1-2.2,2.2-3.9,2.2c-2.5,0-4.6-1.5-4.6-4.5c0-2.4,1.8-4.6,4.9-4.6c3.9,0,5.4,3.4,5.4,7.2c0,3.8-1.8,7.2-5.7,7.2
			C358.6,232,357.4,231.3,356.5,230.3z M364.2,223c-0.2-1.7-1.1-3.9-3.5-3.9c-2.1,0-3.2,1.6-3.2,3c0,2.1,1.4,3,3.2,3
			C362.1,225.1,363.5,224.2,364.2,223z"/>
	</g>
</g>
<g>
	<g>
		<path fill="#FFFFFF" d="M404.4,192.2l0.9-1.3c0.7,0.8,1.6,1.4,3,1.4c2.8,0,3.9-2.8,3.9-5.5c0-0.2,0-0.4,0-0.5
			c-0.6,1-2.2,2.2-3.9,2.2c-2.5,0-4.6-1.5-4.6-4.5c0-2.4,1.8-4.6,4.9-4.6c3.9,0,5.4,3.4,5.4,7.2c0,3.8-1.8,7.2-5.7,7.2
			C406.5,193.8,405.3,193.1,404.4,192.2z M412.2,184.8c-0.2-1.7-1.1-3.9-3.5-3.9c-2.1,0-3.2,1.6-3.2,3c0,2.1,1.4,3,3.2,3
			C410,186.9,411.4,186,412.2,184.8z"/>
		<path fill="#FFFFFF" d="M422.4,193.6v-3.5h-6.7v-1.4l6-9h2.4v8.9h2v1.5h-2v3.5H422.4z M422.4,181.2l-4.9,7.3h4.9V181.2z"/>
	</g>
</g>
<g>
	<g>
		<path fill="#FFFFFF" d="M462.1,181.1v-11.7l-2.2,2.4l-1-1.1l3.5-3.6h1.5v14H462.1z"/>
		<path fill="#FFFFFF" d="M466.6,174.1c0-3.4,1.5-7.2,5.4-7.2c3.8,0,5.4,3.8,5.4,7.2c0,3.4-1.5,7.2-5.4,7.2
			C468.1,181.4,466.6,177.5,466.6,174.1z M475.5,174.1c0-2.8-0.9-5.7-3.6-5.7s-3.6,2.9-3.6,5.7s0.9,5.7,3.6,5.7
			S475.5,176.9,475.5,174.1z"/>
		<path fill="#FFFFFF" d="M479.5,181.1v-1.4c5-3.9,7.8-6.3,7.8-8.7c0-1.8-1.5-2.6-2.9-2.6c-1.7,0-3,0.7-3.8,1.8l-1.1-1.1
			c1.1-1.4,2.9-2.2,4.9-2.2c2.3,0,4.7,1.3,4.7,4.1c0,2.9-2.9,5.5-6.8,8.5h6.9v1.6H479.5z"/>
	</g>
</g>
<g>
	<g>
		<path fill="#FFFFFF" d="M524.4,186.1l0.9-1.3c0.7,0.8,1.6,1.4,3,1.4c2.8,0,3.9-2.8,3.9-5.5c0-0.2,0-0.4,0-0.5
			c-0.6,1-2.2,2.2-3.9,2.2c-2.5,0-4.6-1.5-4.6-4.5c0-2.4,1.8-4.6,4.9-4.6c3.9,0,5.4,3.4,5.4,7.2c0,3.8-1.8,7.2-5.7,7.2
			C526.5,187.7,525.3,187,524.4,186.1z M532.2,178.7c-0.2-1.7-1.1-3.9-3.5-3.9c-2.1,0-3.2,1.6-3.2,3c0,2.1,1.4,3,3.2,3
			C530,180.8,531.4,180,532.2,178.7z"/>
		<path fill="#FFFFFF" d="M536.1,184c0-1.9,1.6-3.1,3.3-3.7c-1.6-0.5-3.1-1.5-3.1-3.4c0-2.5,2.5-3.6,4.8-3.6c2.3,0,4.8,1.1,4.8,3.6
			c0,1.8-1.5,2.9-3.1,3.4c1.7,0.5,3.3,1.8,3.3,3.7c0,2.4-2.3,3.8-5,3.8C538.4,187.8,536.1,186.4,536.1,184z M544.4,183.8
			c0-1.8-2.4-2.6-3.3-2.7c-0.9,0.1-3.3,0.9-3.3,2.7c0,1.5,1.5,2.4,3.3,2.4C542.9,186.2,544.4,185.3,544.4,183.8z M544.2,177.2
			c0-1.4-1.4-2.3-3-2.3c-1.7,0-3,0.9-3,2.3c0,1.7,2.2,2.3,3,2.4C542,179.4,544.2,178.9,544.2,177.2z"/>
	</g>
</g>
<g>
	<g>
		<path fill="#FFFFFF" d="M586.8,162.1v-11.7l-2.2,2.4l-1.1-1.1l3.5-3.6h1.5v14H586.8z"/>
		<path fill="#FFFFFF" d="M593.9,162.1v-11.7l-2.2,2.4l-1.1-1.1l3.5-3.6h1.5v14H593.9z"/>
		<path fill="#FFFFFF" d="M598.7,160.1l1.1-1.2c0.9,1.2,2.2,1.9,3.9,1.9c1.9,0,3.2-1.3,3.2-3c0-1.8-1.3-3-3.2-3
			c-1.2,0-2.3,0.4-3.2,1.3l-1.3-0.4v-7.5h8.6v1.6h-6.8v4.9c0.7-0.7,1.9-1.3,3.3-1.3c2.4,0,4.5,1.6,4.5,4.5c0,2.8-2.2,4.6-5,4.6
			C601.2,162.4,599.7,161.5,598.7,160.1z"/>
	</g>
</g>
<g>
	<g>
		<path fill="#FFFFFF" d="M585.8,50.7c0-3.8,1.8-7.2,5.7-7.2c1.8,0,3,0.7,3.9,1.7l-0.9,1.3c-0.7-0.8-1.5-1.4-3-1.4
			c-2.7,0-3.9,2.8-3.9,5.5c0,0.2,0,0.4,0,0.5c0.6-1,2.2-2.2,4-2.2c2.5,0,4.6,1.5,4.6,4.5c0,2.4-1.8,4.6-4.9,4.6
			C587.3,57.9,585.8,54.5,585.8,50.7z M594.3,53.4c0-2.1-1.4-3-3.2-3c-1.4,0-2.8,0.9-3.5,2.1c0.1,1.7,1.1,3.9,3.5,3.9
			C593.3,56.4,594.3,54.7,594.3,53.4z"/>
		<path fill="#FFFFFF" d="M599.7,57.7l5.6-12.5h-7.5v-1.6h9.6v1.2l-5.7,12.8H599.7z"/>
	</g>
</g>
<g>
	<g>
		<path fill="#363636" d="M56,288.9v-1.5c4.1-3.1,5.8-4.5,5.8-6.1c0-1.1-1-1.6-2-1.6c-1.2,0-2.2,0.5-2.9,1.3l-1.1-1.2
			c0.9-1.2,2.4-1.7,4-1.7c2.1,0,3.9,1.2,3.9,3.3c0,2-1.8,3.7-4.7,5.9h4.7v1.6H56z"/>
		<path fill="#363636" d="M65.4,283.6c0-2.7,1.3-5.5,4.3-5.5c3,0,4.3,2.8,4.3,5.5c0,2.7-1.3,5.5-4.3,5.5
			C66.6,289.1,65.4,286.2,65.4,283.6z M72,283.6c0-2-0.6-3.8-2.4-3.8c-1.7,0-2.4,1.8-2.4,3.8c0,2,0.6,3.9,2.4,3.9
			C71.4,287.4,72,285.6,72,283.6z"/>
	</g>
</g>
<g>
	<g>
		<path fill="#363636" d="M60.9,258.6v-2.4h-5.1v-1.5l4.4-6.8h2.6v6.6h1.4v1.6h-1.4v2.4H60.9z M60.9,249.6l-3.2,4.9h3.2V249.6z"/>
		<path fill="#363636" d="M65.4,253.3c0-2.7,1.3-5.5,4.3-5.5c3,0,4.3,2.8,4.3,5.5c0,2.7-1.3,5.5-4.3,5.5
			C66.6,258.8,65.4,255.9,65.4,253.3z M72,253.3c0-2-0.6-3.8-2.4-3.8c-1.7,0-2.4,1.8-2.4,3.8c0,2,0.6,3.9,2.4,3.9
			C71.4,257.1,72,255.3,72,253.3z"/>
	</g>
</g>
<g>
	<g>
		<path fill="#363636" d="M55.7,223c0-3.1,1.6-5.5,4.7-5.5c1.3,0,2.3,0.5,3.1,1.2l-0.9,1.4c-0.6-0.6-1.2-0.9-2.2-0.9
			c-1.8,0-2.8,1.6-2.8,3.5c0,0.1,0,0.2,0,0.3c0.5-0.7,1.6-1.5,2.9-1.5c1.9,0,3.6,1.2,3.6,3.5c0,2-1.6,3.6-3.9,3.6
			C57,228.5,55.7,226,55.7,223z M62.2,225c0-1.3-1-1.9-2.2-1.9c-0.9,0-1.8,0.5-2.3,1.2c0.1,1.2,0.7,2.5,2.4,2.5
			C61.4,226.8,62.2,225.8,62.2,225z"/>
		<path fill="#363636" d="M65.4,223c0-2.7,1.3-5.5,4.3-5.5c3,0,4.3,2.8,4.3,5.5c0,2.7-1.3,5.5-4.3,5.5
			C66.6,228.5,65.4,225.7,65.4,223z M72,223c0-2-0.6-3.8-2.4-3.8c-1.7,0-2.4,1.8-2.4,3.8c0,2,0.6,3.9,2.4,3.9
			C71.4,226.8,72,225,72,223z"/>
	</g>
</g>
<g>
	<g>
		<path fill="#363636" d="M55.8,195.3c0-1.3,1.1-2.3,2.4-2.8c-1.2-0.4-2.2-1.2-2.2-2.5c0-2,2-2.8,3.9-2.8s3.9,0.8,3.9,2.8
			c0,1.3-1,2.1-2.2,2.5c1.3,0.4,2.4,1.4,2.4,2.8c0,1.9-1.9,2.9-4.1,2.9C57.7,198.2,55.8,197.2,55.8,195.3z M62.1,195
			c0-1.1-1.5-1.6-2.2-1.7c-0.7,0.1-2.2,0.6-2.2,1.7c0,0.9,1,1.5,2.2,1.5C61.1,196.6,62.1,196,62.1,195z M61.9,190.3
			c0-0.9-0.9-1.4-2-1.4s-2,0.5-2,1.4c0,1,1.4,1.4,2,1.5C60.6,191.7,61.9,191.3,61.9,190.3z"/>
		<path fill="#363636" d="M65.4,192.7c0-2.7,1.3-5.5,4.3-5.5c3,0,4.3,2.8,4.3,5.5c0,2.7-1.3,5.5-4.3,5.5
			C66.6,198.2,65.4,195.4,65.4,192.7z M72,192.7c0-2-0.6-3.8-2.4-3.8c-1.7,0-2.4,1.8-2.4,3.8c0,2,0.6,3.9,2.4,3.9
			C71.4,196.6,72,194.7,72,192.7z"/>
	</g>
</g>
<g>
	<g>
		<path fill="#363636" d="M51.8,167.7v-8.3l-1.7,1.8l-1.1-1.1l3.1-3.1h1.6v10.7H51.8z"/>
		<path fill="#363636" d="M55.5,162.4c0-2.7,1.3-5.5,4.3-5.5c3,0,4.3,2.8,4.3,5.5c0,2.7-1.3,5.5-4.3,5.5
			C56.8,167.9,55.5,165.1,55.5,162.4z M62.1,162.4c0-2-0.6-3.8-2.4-3.8c-1.7,0-2.4,1.8-2.4,3.8c0,2,0.6,3.9,2.4,3.9
			C61.5,166.3,62.1,164.4,62.1,162.4z"/>
		<path fill="#363636" d="M65.4,162.4c0-2.7,1.3-5.5,4.3-5.5c3,0,4.3,2.8,4.3,5.5c0,2.7-1.3,5.5-4.3,5.5
			C66.6,167.9,65.4,165.1,65.4,162.4z M72,162.4c0-2-0.6-3.8-2.4-3.8c-1.7,0-2.4,1.8-2.4,3.8c0,2,0.6,3.9,2.4,3.9
			C71.4,166.3,72,164.4,72,162.4z"/>
	</g>
</g>
<g>
	<g>
		<path fill="#363636" d="M52.2,137.4v-8.3l-1.7,1.8l-1.1-1.1l3.1-3.1H54v10.7H52.2z"/>
		<path fill="#363636" d="M56,137.4V136c4.1-3.1,5.8-4.5,5.8-6.1c0-1.1-1-1.6-2-1.6c-1.2,0-2.2,0.5-2.9,1.3l-1.1-1.2
			c0.9-1.2,2.4-1.7,4-1.7c2.1,0,3.9,1.2,3.9,3.3c0,2-1.8,3.7-4.7,5.9h4.7v1.6H56z"/>
		<path fill="#363636" d="M65.4,132.1c0-2.7,1.3-5.5,4.3-5.5c3,0,4.3,2.8,4.3,5.5c0,2.7-1.3,5.5-4.3,5.5
			C66.6,137.6,65.4,134.8,65.4,132.1z M72,132.1c0-2-0.6-3.8-2.4-3.8c-1.7,0-2.4,1.8-2.4,3.8c0,2,0.6,3.9,2.4,3.9
			C71.4,136,72,134.1,72,132.1z"/>
	</g>
</g>
<g>
	<g>
		<path fill="#363636" d="M52.4,107.2v-8.3l-1.7,1.8l-1.1-1.1l3.1-3.1h1.6v10.7H52.4z"/>
		<path fill="#363636" d="M60.9,107.2v-2.4h-5.1v-1.5l4.4-6.8h2.6v6.6h1.4v1.6h-1.4v2.4H60.9z M60.9,98.2l-3.2,4.9h3.2V98.2z"/>
		<path fill="#363636" d="M65.4,101.8c0-2.7,1.3-5.5,4.3-5.5c3,0,4.3,2.8,4.3,5.5c0,2.7-1.3,5.5-4.3,5.5
			C66.6,107.3,65.4,104.5,65.4,101.8z M72,101.8c0-2-0.6-3.8-2.4-3.8c-1.7,0-2.4,1.8-2.4,3.8c0,2,0.6,3.9,2.4,3.9
			C71.4,105.7,72,103.9,72,101.8z"/>
	</g>
</g>
<g>
	<g>
		<path fill="#363636" d="M52.1,76.9v-8.3l-1.7,1.8l-1.1-1.1l3.1-3.1h1.6v10.7H52.1z"/>
		<path fill="#363636" d="M55.7,71.5c0-3.1,1.6-5.5,4.7-5.5c1.3,0,2.3,0.5,3.1,1.2l-0.9,1.4c-0.6-0.6-1.2-0.9-2.2-0.9
			c-1.8,0-2.8,1.6-2.8,3.5c0,0.1,0,0.2,0,0.3c0.5-0.7,1.6-1.5,2.9-1.5c1.9,0,3.6,1.2,3.6,3.5c0,2-1.6,3.6-3.9,3.6
			C57,77.1,55.7,74.5,55.7,71.5z M62.2,73.5c0-1.3-1-1.9-2.2-1.9c-0.9,0-1.8,0.5-2.3,1.2c0.1,1.2,0.7,2.5,2.4,2.5
			C61.4,75.4,62.2,74.4,62.2,73.5z"/>
		<path fill="#363636" d="M65.4,71.5c0-2.7,1.3-5.5,4.3-5.5c3,0,4.3,2.8,4.3,5.5c0,2.7-1.3,5.5-4.3,5.5
			C66.6,77.1,65.4,74.2,65.4,71.5z M72,71.5c0-2-0.6-3.8-2.4-3.8c-1.7,0-2.4,1.8-2.4,3.8c0,2,0.6,3.9,2.4,3.9
			C71.4,75.4,72,73.6,72,71.5z"/>
	</g>
</g>
<g>
	<g>
		<path fill="#363636" d="M52.1,46.6v-8.3l-1.7,1.8L49.3,39l3.1-3.1H54v10.7H52.1z"/>
		<path fill="#363636" d="M55.8,43.8c0-1.3,1.1-2.3,2.4-2.8C57,40.7,56,39.9,56,38.5c0-2,2-2.8,3.9-2.8s3.9,0.8,3.9,2.8
			c0,1.3-1,2.1-2.2,2.5c1.3,0.4,2.4,1.4,2.4,2.8c0,1.9-1.9,2.9-4.1,2.9C57.7,46.8,55.8,45.7,55.8,43.8z M62.1,43.6
			c0-1.1-1.5-1.6-2.2-1.7c-0.7,0.1-2.2,0.6-2.2,1.7c0,0.9,1,1.5,2.2,1.5C61.1,45.1,62.1,44.5,62.1,43.6z M61.9,38.8
			c0-0.9-0.9-1.4-2-1.4s-2,0.5-2,1.4c0,1,1.4,1.4,2,1.5C60.6,40.2,61.9,39.8,61.9,38.8z"/>
		<path fill="#363636" d="M65.4,41.2c0-2.7,1.3-5.5,4.3-5.5c3,0,4.3,2.8,4.3,5.5c0,2.7-1.3,5.5-4.3,5.5
			C66.6,46.8,65.4,43.9,65.4,41.2z M72,41.2c0-2-0.6-3.8-2.4-3.8c-1.7,0-2.4,1.8-2.4,3.8c0,2,0.6,3.9,2.4,3.9
			C71.4,45.1,72,43.3,72,41.2z"/>
	</g>
</g>
<g>
	<g>
		<path fill="#363636" d="M46.1,16.3v-1.5c4.1-3.1,5.8-4.5,5.8-6.1c0-1.1-1-1.6-2-1.6c-1.2,0-2.2,0.5-2.9,1.3L46,7.2
			c0.9-1.2,2.4-1.7,4-1.7c2.1,0,3.9,1.2,3.9,3.3c0,2-1.8,3.7-4.7,5.9h4.7v1.6H46.1z"/>
		<path fill="#363636" d="M55.5,11c0-2.7,1.3-5.5,4.3-5.5c3,0,4.3,2.8,4.3,5.5c0,2.7-1.3,5.5-4.3,5.5C56.8,16.5,55.5,13.6,55.5,11z
			 M62.1,11c0-2-0.6-3.8-2.4-3.8c-1.7,0-2.4,1.8-2.4,3.8c0,2,0.6,3.9,2.4,3.9C61.5,14.8,62.1,13,62.1,11z"/>
		<path fill="#363636" d="M65.4,11c0-2.7,1.3-5.5,4.3-5.5c3,0,4.3,2.8,4.3,5.5c0,2.7-1.3,5.5-4.3,5.5C66.6,16.5,65.4,13.6,65.4,11z
			 M72,11c0-2-0.6-3.8-2.4-3.8c-1.7,0-2.4,1.8-2.4,3.8c0,2,0.6,3.9,2.4,3.9C71.4,14.8,72,13,72,11z"/>
	</g>
</g>
<g>
	<path fill="#131413" d="M129.6,60.1v-9.3h6.1v1h-5v3h4.9v1h-4.9v3.2h5v1H129.6z"/>
	<path fill="#131413" d="M142.1,60.1v-4.4c0-1.2-0.6-1.6-1.5-1.6c-0.8,0-1.6,0.5-2,1.1v4.9h-1.1v-6.8h1.1v1c0.5-0.6,1.4-1.1,2.4-1.1
		c1.4,0,2.1,0.7,2.1,2.2v4.7H142.1z"/>
	<path fill="#131413" d="M147.1,60.1l-2.8-6.8h1.1l2.2,5.5l2.3-5.5h1.1l-2.8,6.8H147.1z"/>
	<path fill="#131413" d="M152,51.7c0-0.4,0.3-0.7,0.7-0.7c0.4,0,0.7,0.3,0.7,0.7s-0.3,0.7-0.7,0.7C152.3,52.4,152,52.1,152,51.7z
		 M152.2,60.1v-6.8h1.1v6.8H152.2z"/>
	<path fill="#131413" d="M154.9,56.7c0-2,1.3-3.5,3.3-3.5s3.3,1.6,3.3,3.5c0,2-1.3,3.6-3.3,3.6S154.9,58.7,154.9,56.7z M160.5,56.7
		c0-1.4-0.8-2.6-2.2-2.6c-1.4,0-2.2,1.2-2.2,2.6c0,1.4,0.8,2.6,2.2,2.6C159.7,59.4,160.5,58.1,160.5,56.7z"/>
	<path fill="#131413" d="M168,59.1v3.6h-1.1v-9.3h1.1v1c0.5-0.7,1.3-1.2,2.3-1.2c1.8,0,3,1.3,3,3.5c0,2.2-1.2,3.6-3,3.6
		C169.3,60.3,168.5,59.9,168,59.1z M172.2,56.7c0-1.5-0.8-2.6-2.2-2.6c-0.8,0-1.7,0.5-2,1.1v3.1c0.4,0.6,1.2,1.1,2,1.1
		C171.4,59.4,172.2,58.2,172.2,56.7z"/>
	<path fill="#131413" d="M174.9,60.1v-6.8h1.1v1.1c0.5-0.7,1.3-1.2,2.3-1.2v1.1c-0.1,0-0.3,0-0.4,0c-0.7,0-1.5,0.5-1.8,1.1v4.8
		H174.9z"/>
	<path fill="#131413" d="M179.2,56.7c0-2,1.4-3.5,3.3-3.5c2,0,3.2,1.6,3.2,3.6v0.3h-5.5c0.1,1.3,1,2.3,2.4,2.3
		c0.8,0,1.6-0.3,2.1-0.9l0.5,0.7c-0.7,0.7-1.6,1.1-2.7,1.1C180.6,60.3,179.2,58.9,179.2,56.7z M182.5,54.1c-1.4,0-2.2,1.2-2.2,2.2
		h4.4C184.7,55.3,184,54.1,182.5,54.1z"/>
	<path fill="#131413" d="M189.3,60.1l-2.8-6.8h1.1l2.2,5.5l2.3-5.5h1.1l-2.8,6.8H189.3z"/>
	<path fill="#131413" d="M194.1,51.7c0-0.4,0.3-0.7,0.7-0.7c0.4,0,0.7,0.3,0.7,0.7s-0.3,0.7-0.7,0.7
		C194.4,52.4,194.1,52.1,194.1,51.7z M194.3,60.1v-6.8h1.1v6.8H194.3z"/>
	<path fill="#131413" d="M196.9,59.2l0.5-0.8c0.4,0.5,1.3,1,2.2,1c1,0,1.6-0.5,1.6-1.2c0-1.6-4.2-0.6-4.2-3.1c0-1.1,0.9-1.9,2.5-1.9
		c1.2,0,2,0.4,2.5,1l-0.5,0.7c-0.4-0.5-1.1-0.9-2-0.9c-0.9,0-1.5,0.5-1.5,1.1c0,1.5,4.2,0.5,4.2,3.1c0,1.1-0.9,2-2.6,2
		C198.5,60.3,197.6,60,196.9,59.2z"/>
	<path fill="#131413" d="M204.2,58.7v-4.4h-1.1v-0.9h1.1v-1.8h1.1v1.8h1.4v0.9h-1.4v4.2c0,0.5,0.2,0.9,0.7,0.9
		c0.3,0,0.6-0.1,0.7-0.3l0.3,0.8c-0.3,0.3-0.6,0.4-1.2,0.4C204.7,60.3,204.2,59.7,204.2,58.7z"/>
	<path fill="#131413" d="M207.7,56.7c0-2,1.3-3.5,3.3-3.5s3.3,1.6,3.3,3.5c0,2-1.3,3.6-3.3,3.6S207.7,58.7,207.7,56.7z M213.3,56.7
		c0-1.4-0.8-2.6-2.2-2.6c-1.4,0-2.2,1.2-2.2,2.6c0,1.4,0.8,2.6,2.2,2.6C212.5,59.4,213.3,58.1,213.3,56.7z"/>
</g>
<g>
	<path fill="#131413" d="M129.1,90.3V81h6.1v1h-5v3h4.9v1h-4.9v3.2h5v1H129.1z"/>
	<path fill="#131413" d="M141.6,90.3v-4.4c0-1.2-0.6-1.6-1.5-1.6c-0.8,0-1.6,0.5-2,1.1v4.9H137v-6.8h1.1v1c0.5-0.6,1.4-1.1,2.4-1.1
		c1.4,0,2.1,0.7,2.1,2.2v4.7H141.6z"/>
	<path fill="#131413" d="M146.6,90.3l-2.8-6.8h1.1l2.2,5.5l2.3-5.5h1.1l-2.8,6.8H146.6z"/>
	<path fill="#131413" d="M151.5,81.9c0-0.4,0.3-0.7,0.7-0.7c0.4,0,0.7,0.3,0.7,0.7s-0.3,0.7-0.7,0.7
		C151.8,82.6,151.5,82.3,151.5,81.9z M151.6,90.3v-6.8h1.1v6.8H151.6z"/>
	<path fill="#131413" d="M154.4,86.9c0-2,1.3-3.5,3.3-3.5s3.3,1.6,3.3,3.5c0,2-1.3,3.6-3.3,3.6S154.4,88.9,154.4,86.9z M160,86.9
		c0-1.4-0.8-2.6-2.2-2.6c-1.4,0-2.2,1.2-2.2,2.6c0,1.4,0.8,2.6,2.2,2.6C159.2,89.6,160,88.3,160,86.9z"/>
	<path fill="#131413" d="M166,86.9c0-2,1.4-3.5,3.3-3.5c2,0,3.2,1.6,3.2,3.6v0.3h-5.5c0.1,1.3,1,2.3,2.4,2.3c0.8,0,1.6-0.3,2.1-0.9
		l0.5,0.7c-0.7,0.7-1.6,1.1-2.7,1.1C167.5,90.5,166,89.1,166,86.9z M169.3,84.3c-1.4,0-2.2,1.2-2.2,2.2h4.4
		C171.6,85.5,170.9,84.3,169.3,84.3z"/>
	<path fill="#131413" d="M174.6,90.3v-5.8h-1.1v-0.9h1.1V83c0-1.4,0.8-2.2,2-2.2c0.5,0,1,0.1,1.4,0.5l-0.4,0.7
		c-0.2-0.2-0.5-0.3-0.8-0.3c-0.7,0-1.1,0.5-1.1,1.3v0.5h1.4v0.9h-1.4v5.8H174.6z"/>
	<path fill="#131413" d="M177.9,86.9c0-2,1.4-3.5,3.3-3.5c2,0,3.2,1.6,3.2,3.6v0.3H179c0.1,1.3,1,2.3,2.4,2.3c0.8,0,1.6-0.3,2.1-0.9
		l0.5,0.7c-0.7,0.7-1.6,1.1-2.7,1.1C179.3,90.5,177.9,89.1,177.9,86.9z M181.2,84.3c-1.4,0-2.2,1.2-2.2,2.2h4.4
		C183.4,85.5,182.7,84.3,181.2,84.3z"/>
	<path fill="#131413" d="M185.8,86.9c0-2,1.4-3.5,3.4-3.5c1.2,0,2,0.5,2.5,1.2l-0.7,0.6c-0.4-0.6-1-0.9-1.7-0.9
		c-1.4,0-2.3,1.1-2.3,2.6c0,1.5,0.9,2.6,2.3,2.6c0.7,0,1.3-0.3,1.7-0.9l0.7,0.6c-0.5,0.7-1.2,1.2-2.5,1.2
		C187.1,90.5,185.8,88.9,185.8,86.9z"/>
	<path fill="#131413" d="M193.3,88.9v-4.4h-1.1v-0.9h1.1v-1.8h1.1v1.8h1.4v0.9h-1.4v4.2c0,0.5,0.2,0.9,0.7,0.9
		c0.3,0,0.6-0.1,0.7-0.3l0.3,0.8c-0.3,0.3-0.6,0.4-1.2,0.4C193.8,90.5,193.3,89.9,193.3,88.9z"/>
	<path fill="#131413" d="M197,81.9c0-0.4,0.3-0.7,0.7-0.7c0.4,0,0.7,0.3,0.7,0.7s-0.3,0.7-0.7,0.7C197.4,82.6,197,82.3,197,81.9z
		 M197.2,90.3v-6.8h1.1v6.8H197.2z"/>
	<path fill="#131413" d="M202.2,90.3l-2.8-6.8h1.1l2.2,5.5l2.3-5.5h1.1l-2.8,6.8H202.2z"/>
	<path fill="#131413" d="M206.8,86.9c0-2,1.3-3.5,3.3-3.5s3.3,1.6,3.3,3.5c0,2-1.3,3.6-3.3,3.6S206.8,88.9,206.8,86.9z M212.4,86.9
		c0-1.4-0.8-2.6-2.2-2.6c-1.4,0-2.2,1.2-2.2,2.6c0,1.4,0.8,2.6,2.2,2.6C211.6,89.6,212.4,88.3,212.4,86.9z"/>
</g>
<rect x="104.2" y="46.2" fill="#363636" width="16.2" height="16.2"/>
<rect x="104.2" y="76.6" fill="#00848F" width="16.2" height="16.2"/>
<g>
	<path fill="#363636" d="M16.7,283.4h-1.9l-9.4-6.8v6.8H3.3v-9.9h1.9l9.4,6.8v-7h2.1V283.4z"/>
	<path fill="#363636" d="M4.5,271.4c-0.7,0-1.3-0.6-1.3-1.3s0.6-1.3,1.3-1.3s1.3,0.6,1.3,1.3S5.2,271.4,4.5,271.4z M16.7,271.1H7
		V269h9.7V271.1z"/>
	<path fill="#363636" d="M14.4,265.9H8.8v1.6H7v-1.6H4.4v-2.1H7v-2h1.8v2h5.1c0.7,0,1.2-0.3,1.2-0.9c0-0.4-0.2-0.8-0.4-0.9l1.6-0.5
		c0.3,0.4,0.6,1,0.6,2C16.9,265,16,265.9,14.4,265.9z"/>
	<path fill="#363636" d="M16.7,253.4h-6.1c-1.5,0-2,0.8-2,1.9c0,1.1,0.6,2,1.3,2.5h6.8v2.1H3.3v-2.1h5c-0.8-0.6-1.5-1.9-1.5-3.4
		c0-2.1,1.1-3.1,3.1-3.1h6.8V253.4z"/>
	<path fill="#363636" d="M16.7,248.6H7v-2.1h1.4c-0.9-0.7-1.6-1.9-1.6-3.1h2.1c0,0.2-0.1,0.4-0.1,0.6c0,0.9,0.6,2.1,1.3,2.5h6.6
		V248.6z"/>
	<path fill="#363636" d="M11.8,242.2c-2.8,0-5.1-1.9-5.1-5s2.3-5,5.1-5c2.8,0,5.1,1.9,5.1,5S14.6,242.2,11.8,242.2z M11.8,234.5
		c-1.7,0-3.2,1-3.2,2.8c0,1.8,1.5,2.8,3.2,2.8c1.7,0,3.2-1,3.2-2.8C15,235.4,13.5,234.5,11.8,234.5z"/>
	<path fill="#363636" d="M16.7,218.3h-6.3c-1,0-1.7,0.5-1.7,1.6c0,0.9,0.6,1.8,1.3,2.2h6.8v2.1h-6.3c-1,0-1.7,0.4-1.7,1.6
		c0,0.9,0.7,1.8,1.3,2.2h6.8v2.1H7V228h1.3c-0.6-0.4-1.5-1.7-1.5-3.2c0-1.4,0.7-2.3,1.8-2.6c-0.9-0.5-1.8-1.8-1.8-3.3
		c0-1.8,1-2.8,2.9-2.8h7V218.3z"/>
	<path fill="#363636" d="M16.7,207.5h-1.1c0.8,0.7,1.3,1.9,1.3,3.1c0,1.6-1.1,3.3-3.2,3.3c-2.2,0-3.2-1.8-3.2-3.3
		c0-1.3,0.4-2.4,1.2-3.1h-1.4c-1.1,0-1.8,0.9-1.8,2.3c0,1.1,0.4,2,1.2,2.9l-1.5,0.9c-1.1-1.1-1.6-2.5-1.6-4.1c0-2.2,0.9-4,3.5-4h6.4
		V207.5z M14.5,207.5H13c-0.7,0.5-1,1.4-1,2.3c0,1.2,0.7,2.1,1.7,2.1c1.1,0,1.7-0.9,1.7-2.1C15.5,208.9,15.1,208,14.5,207.5z"/>
	<path fill="#363636" d="M16.7,196.6l-3.6,2.5l3.6,2.5v2.4l-5-3.6L7,203.8v-2.4l3.3-2.3L7,196.8v-2.4l4.7,3.3l5-3.6V196.6z"/>
	<path fill="#363636" d="M11.6,189.2c0,2.3-1.9,4.2-4.2,4.2c-2.4,0-4.2-1.9-4.2-4.2c0-2.4,1.9-4.2,4.2-4.2
		C9.7,185,11.6,186.8,11.6,189.2z M3.7,189.2c0,2,1.6,3.6,3.6,3.6c2,0,3.6-1.6,3.6-3.6c0-2-1.6-3.6-3.6-3.6
		C5.3,185.6,3.7,187.2,3.7,189.2z M9.8,188l-1.9,1.3v0.9h1.9v0.7H4.9v-2c0-0.8,0.6-1.6,1.5-1.6c1.1,0,1.4,1,1.4,1.2l1.9-1.3V188z
		 M5.5,188.8v1.3h1.8v-1.3c0-0.4-0.4-0.9-0.9-0.9C5.9,188,5.5,188.4,5.5,188.8z"/>
	<path fill="#363636" d="M11.8,178.3c-2.8,0-5.1-2-5.1-4.9c0-2.9,2.2-4.7,5.2-4.7h0.5v7.4c1.4-0.2,2.7-1.2,2.7-3.1
		c0-1-0.4-2.1-1.1-2.8l1.4-1c0.9,1,1.4,2.4,1.4,3.9C16.9,176.2,14.9,178.3,11.8,178.3z M8.5,173.4c0,1.8,1.4,2.6,2.5,2.7v-5.4
		C9.9,170.8,8.5,171.5,8.5,173.4z"/>
	<path fill="#363636" d="M16.7,160.1h-6c-1.5,0-2,0.8-2,2c0,1.1,0.6,2,1.3,2.5h6.8v2.1H7v-2.1h1.3c-0.8-0.6-1.5-1.9-1.5-3.4
		c0-2.1,1.1-3.1,3.1-3.1h6.8V160.1z"/>
	<path fill="#363636" d="M16.7,152.7L7,156.6v-2.3l7.2-2.8L7,148.7v-2.2l9.7,3.9V152.7z"/>
	<path fill="#363636" d="M4.5,145.4c-0.7,0-1.3-0.6-1.3-1.3s0.6-1.3,1.3-1.3s1.3,0.6,1.3,1.3S5.2,145.4,4.5,145.4z M16.7,145.2H7
		v-2.1h9.7V145.2z"/>
	<path fill="#363636" d="M16.7,134.4h-1.1c0.8,0.7,1.3,1.9,1.3,3.1c0,1.6-1.1,3.3-3.2,3.3c-2.2,0-3.2-1.8-3.2-3.3
		c0-1.3,0.4-2.4,1.2-3.1h-1.4c-1.1,0-1.8,0.9-1.8,2.3c0,1.1,0.4,2,1.2,2.9l-1.5,0.9c-1.1-1.1-1.6-2.5-1.6-4.1c0-2.2,0.9-4,3.5-4h6.4
		V134.4z M14.5,134.4H13c-0.7,0.5-1,1.4-1,2.3c0,1.2,0.7,2.1,1.7,2.1c1.1,0,1.7-0.9,1.7-2.1C15.5,135.8,15.1,134.9,14.5,134.4z"/>
	<path fill="#363636" d="M16.7,122.8h-1.3c1,0.7,1.6,1.8,1.6,3.1c0,2.5-1.9,4.3-5.1,4.3c-3.1,0-5.1-1.8-5.1-4.3
		c0-1.2,0.5-2.3,1.6-3.1h-5v-2.1h13.3V122.8z M13.7,122.8H9.9c-0.7,0.5-1.3,1.5-1.3,2.5c0,1.7,1.3,2.7,3.2,2.7
		c1.9,0,3.2-1.1,3.2-2.7C15,124.3,14.5,123.3,13.7,122.8z"/>
	<path fill="#363636" d="M11.8,118.6c-2.8,0-5.1-1.9-5.1-5s2.3-5,5.1-5c2.8,0,5.1,1.9,5.1,5S14.6,118.6,11.8,118.6z M11.8,110.8
		c-1.7,0-3.2,1-3.2,2.8c0,1.8,1.5,2.8,3.2,2.8c1.7,0,3.2-1,3.2-2.8C15,111.8,13.5,110.8,11.8,110.8z"/>
	<path fill="#363636" d="M15.4,107.3l-1.5-1c0.7-0.7,1.3-2,1.3-3.3c0-1.3-0.5-1.9-1.3-1.9c-1.9,0-0.5,5.8-4.3,5.8
		c-1.6,0-2.9-1.4-2.9-3.8c0-1.6,0.6-2.9,1.3-3.7l1.5,0.9c-0.6,0.6-1.2,1.6-1.2,2.9c0,1.1,0.5,1.8,1.2,1.8c1.7,0,0.4-5.8,4.3-5.8
		c1.7,0,3,1.4,3,4C16.9,104.9,16.4,106.3,15.4,107.3z"/>
	<path fill="#363636" d="M20.7,89.4c-2.3,1.9-5.6,3-8.8,3s-6.5-1.1-8.8-3l1-1.3c2.5,1.3,4.7,2.1,7.9,2.1c3.1,0,5.4-0.7,7.8-2.1
		L20.7,89.4z"/>
	<path fill="#363636" d="M16.7,74.8H6.4l10.3,4.1v1L6.4,84h10.3v2.3H3.3V83l9.2-3.6l-9.2-3.6v-3.3h13.3V74.8z"/>
	<path fill="#363636" d="M4.5,69.9c-0.7,0-1.3-0.6-1.3-1.3s0.6-1.3,1.3-1.3s1.3,0.6,1.3,1.3S5.2,69.9,4.5,69.9z M16.7,69.7H7v-2.1
		h9.7V69.7z"/>
	<path fill="#363636" d="M16.7,64.9H3.3v-2.1h13.3V64.9z"/>
	<path fill="#363636" d="M16.7,53.5h-6.1c-1.5,0-2,0.8-2,1.9c0,1.1,0.6,2,1.3,2.5h6.8V60H3.3v-2.1h5c-0.8-0.6-1.5-1.9-1.5-3.4
		c0-2.1,1.1-3.1,3.1-3.1h6.8V53.5z"/>
	<path fill="#363636" d="M4,45.5c0,0.5,0.4,0.8,1.4,0.8v1.2c-1.6,0-2.7-0.7-2.7-2.1c0-1.4,1.6-1.5,1.6-2.4c0-0.5-0.4-0.8-1.4-0.8
		v-1.1c1.6,0,2.7,0.7,2.7,2.1C5.6,44.5,4,44.7,4,45.5z M11.8,49.3c-2.8,0-5.1-1.9-5.1-5s2.3-5,5.1-5c2.8,0,5.1,1.9,5.1,5
		S14.6,49.3,11.8,49.3z M11.8,41.5c-1.7,0-3.2,1-3.2,2.8c0,1.8,1.5,2.8,3.2,2.8c1.7,0,3.2-1,3.2-2.8C15,42.5,13.5,41.5,11.8,41.5z"
		/>
	<path fill="#363636" d="M11.8,37.8c-2.8,0-5.1-2-5.1-4.9c0-2.9,2.2-4.7,5.2-4.7h0.5v7.4c1.4-0.2,2.7-1.2,2.7-3.1
		c0-1-0.4-2.1-1.1-2.8l1.4-1c0.9,1,1.4,2.4,1.4,3.9C16.9,35.7,14.9,37.8,11.8,37.8z M8.5,32.9c0,1.8,1.4,2.6,2.5,2.7v-5.4
		C9.9,30.2,8.5,31,8.5,32.9z"/>
	<path fill="#363636" d="M15.4,26.9l-1.5-1c0.7-0.7,1.3-2,1.3-3.3c0-1.3-0.5-1.9-1.3-1.9c-1.9,0-0.5,5.8-4.3,5.8
		c-1.6,0-2.9-1.4-2.9-3.8c0-1.6,0.6-2.9,1.3-3.7l1.5,0.9c-0.6,0.6-1.2,1.6-1.2,2.9c0,1.1,0.5,1.8,1.2,1.8c1.7,0,0.4-5.8,4.3-5.8
		c1.7,0,3,1.4,3,4C16.9,24.4,16.4,25.9,15.4,26.9z"/>
	<path fill="#363636" d="M19.7,17.6c-2.5-1.3-4.7-2-7.8-2c-3.2,0-5.4,0.7-7.9,2l-1-1.3c2.3-1.9,5.6-3,8.8-3s6.5,1.1,8.8,3L19.7,17.6
		z"/>
</g>
<g>
	<g>
		<path fill="#363636" d="M4.5,432.5v-8h5.2v0.9H5.5v2.6h4.2v0.9H5.5v3.6H4.5z"/>
		<path fill="#363636" d="M10.7,429.6c0-1.7,1.1-3,2.9-3s2.9,1.4,2.9,3s-1.1,3-2.9,3S10.7,431.3,10.7,429.6z M15.5,429.6
			c0-1.2-0.7-2.2-1.9-2.2s-1.9,1.1-1.9,2.2c0,1.2,0.7,2.2,1.9,2.2S15.5,430.8,15.5,429.6z"/>
		<path fill="#363636" d="M21.8,432.5v-3.8c0-1-0.5-1.3-1.3-1.3c-0.7,0-1.4,0.4-1.7,0.9v4.2h-0.9v-5.8h0.9v0.8c0.4-0.5,1.2-1,2.1-1
			c1.2,0,1.8,0.6,1.8,1.9v4.1H21.8z"/>
		<path fill="#363636" d="M24.7,431.3v-3.8h-1v-0.8h1v-1.6h0.9v1.6h1.2v0.8h-1.2v3.6c0,0.4,0.2,0.7,0.6,0.7c0.3,0,0.5-0.1,0.6-0.3
			l0.3,0.7c-0.2,0.2-0.6,0.4-1.1,0.4C25.1,432.6,24.7,432.1,24.7,431.3z"/>
		<path fill="#363636" d="M27.7,429.6c0-1.7,1.2-3,2.9-3c1.8,0,2.8,1.4,2.8,3.1v0.2h-4.7c0.1,1.1,0.8,2,2.1,2c0.7,0,1.3-0.3,1.8-0.7
			l0.4,0.6c-0.6,0.6-1.4,0.9-2.3,0.9C29,432.6,27.7,431.4,27.7,429.6z M30.6,427.3c-1.2,0-1.8,1-1.9,1.9h3.8
			C32.5,428.4,31.9,427.3,30.6,427.3z"/>
		<path fill="#363636" d="M34.6,427.3c0-0.4,0.3-0.7,0.7-0.7s0.7,0.3,0.7,0.7c0,0.3-0.3,0.7-0.7,0.7S34.6,427.6,34.6,427.3z
			 M34.6,431.9c0-0.4,0.3-0.7,0.7-0.7s0.7,0.3,0.7,0.7c0,0.4-0.3,0.7-0.7,0.7S34.6,432.3,34.6,431.9z"/>
		<path fill="#363636" d="M40.7,432.5v-8h1v8H40.7z"/>
		<path fill="#363636" d="M43.5,432.5v-8h1v8H43.5z"/>
		<path fill="#363636" d="M48.4,432.5v-7.1h-2.5v-0.9h6.1v0.9h-2.5v7.1H48.4z"/>
		<path fill="#363636" d="M53.4,434l-0.5-0.4c0.4-0.3,0.7-0.7,0.8-1.1c0,0-0.1,0-0.2,0c-0.3,0-0.6-0.3-0.6-0.6s0.3-0.6,0.6-0.6
			c0.4,0,0.8,0.3,0.8,0.9C54.4,432.9,54,433.6,53.4,434z"/>
		<path fill="#363636" d="M62.7,432.5v-0.7c-0.5,0.5-1.1,0.8-1.9,0.8c-1,0-2-0.7-2-1.9c0-1.3,1-1.9,2-1.9c0.8,0,1.5,0.3,1.9,0.8v-1
			c0-0.8-0.6-1.2-1.5-1.2c-0.7,0-1.3,0.2-1.8,0.8l-0.4-0.6c0.6-0.6,1.4-1,2.3-1c1.2,0,2.2,0.6,2.2,2v4H62.7z M62.7,431.3v-1.1
			c-0.3-0.5-1-0.7-1.6-0.7c-0.9,0-1.4,0.5-1.4,1.3c0,0.7,0.6,1.3,1.4,1.3C61.7,432,62.3,431.7,62.7,431.3z"/>
		<path fill="#363636" d="M65.6,431.3v-3.8h-1v-0.8h1v-1.6h0.9v1.6h1.2v0.8h-1.2v3.6c0,0.4,0.2,0.7,0.6,0.7c0.3,0,0.5-0.1,0.6-0.3
			l0.3,0.7c-0.2,0.2-0.6,0.4-1.1,0.4C66,432.6,65.6,432.1,65.6,431.3z"/>
		<path fill="#363636" d="M68.6,429.6c0-1.7,1.2-3,2.9-3c1.8,0,2.8,1.4,2.8,3.1v0.2h-4.7c0.1,1.1,0.8,2,2.1,2c0.7,0,1.3-0.3,1.8-0.7
			l0.4,0.6c-0.6,0.6-1.4,0.9-2.3,0.9C69.8,432.6,68.6,431.4,68.6,429.6z M71.4,427.3c-1.2,0-1.8,1-1.9,1.9h3.8
			C73.3,428.4,72.8,427.3,71.4,427.3z M71.4,425.8h-0.7l1.8-1.7h0.9L71.4,425.8z"/>
		<path fill="#363636" d="M83,432.5v-0.9c-0.4,0.6-1.1,1-2,1c-1.5,0-2.6-1.2-2.6-3c0-1.9,1.1-3,2.6-3c0.8,0,1.5,0.4,2,1v-3.1h0.9v8
			H83z M83,430.9v-2.6c-0.3-0.5-1-0.9-1.7-0.9c-1.2,0-1.9,1-1.9,2.2s0.7,2.2,1.9,2.2C82,431.8,82.7,431.4,83,430.9z"/>
		<path fill="#363636" d="M85.5,425.3c0-0.3,0.3-0.6,0.6-0.6c0.3,0,0.6,0.3,0.6,0.6s-0.3,0.6-0.6,0.6
			C85.8,425.9,85.5,425.6,85.5,425.3z M85.7,432.5v-5.8h0.9v5.8H85.7z"/>
		<path fill="#363636" d="M92,432.5v-0.7c-0.5,0.5-1.1,0.8-1.9,0.8c-1,0-2-0.7-2-1.9c0-1.3,1-1.9,2-1.9c0.8,0,1.5,0.3,1.9,0.8v-1
			c0-0.8-0.6-1.2-1.5-1.2c-0.7,0-1.3,0.2-1.8,0.8l-0.4-0.6c0.6-0.6,1.4-1,2.3-1c1.2,0,2.2,0.6,2.2,2v4H92z M92,431.3v-1.1
			c-0.3-0.5-1-0.7-1.6-0.7c-0.9,0-1.4,0.5-1.4,1.3c0,0.7,0.6,1.3,1.4,1.3C91.1,432,91.7,431.7,92,431.3z"/>
		<path fill="#363636" d="M97.6,432.5v-0.8c2.9-2.3,4.4-3.6,4.4-5c0-1-0.9-1.5-1.7-1.5c-1,0-1.7,0.4-2.2,1l-0.6-0.6
			c0.6-0.8,1.7-1.3,2.8-1.3c1.3,0,2.7,0.8,2.7,2.4c0,1.6-1.7,3.1-3.9,4.9h3.9v0.9H97.6z"/>
		<path fill="#363636" d="M106.1,432.5v-6.7l-1.3,1.4l-0.6-0.6l2-2.1h0.9v8H106.1z"/>
		<path fill="#363636" d="M116.3,432.5v-0.9c-0.4,0.6-1.1,1-2,1c-1.5,0-2.6-1.2-2.6-3c0-1.9,1.1-3,2.6-3c0.8,0,1.5,0.4,2,1v-3.1h0.9
			v8H116.3z M116.3,430.9v-2.6c-0.3-0.5-1-0.9-1.7-0.9c-1.2,0-1.9,1-1.9,2.2s0.7,2.2,1.9,2.2C115.3,431.8,116,431.4,116.3,430.9z"/>
		<path fill="#363636" d="M118.6,429.6c0-1.7,1.2-3,2.9-3c1.8,0,2.8,1.4,2.8,3.1v0.2h-4.7c0.1,1.1,0.8,2,2.1,2
			c0.7,0,1.3-0.3,1.8-0.7l0.4,0.6c-0.6,0.6-1.4,0.9-2.3,0.9C119.9,432.6,118.6,431.4,118.6,429.6z M121.5,427.3
			c-1.2,0-1.8,1-1.9,1.9h3.8C123.4,428.4,122.8,427.3,121.5,427.3z"/>
		<path fill="#363636" d="M126.8,434.4l0.3-0.7c0.2,0.2,0.5,0.4,0.8,0.4c0.5,0,0.9-0.3,0.9-1v-6.4h0.9v6.4c0,1.1-0.6,1.8-1.7,1.8
			C127.4,434.8,127.1,434.7,126.8,434.4z M128.7,425.3c0-0.3,0.3-0.6,0.6-0.6c0.3,0,0.6,0.3,0.6,0.6s-0.3,0.6-0.6,0.6
			C129,425.9,128.7,425.6,128.7,425.3z"/>
		<path fill="#363636" d="M135.4,432.5v-0.8c-0.4,0.5-1.2,1-2.1,1c-1.2,0-1.8-0.6-1.8-1.8v-4.1h0.9v3.8c0,1,0.5,1.3,1.3,1.3
			c0.7,0,1.4-0.4,1.7-0.9v-4.3h0.9v5.8H135.4z"/>
		<path fill="#363636" d="M142.1,432.5v-3.8c0-1-0.5-1.3-1.3-1.3c-0.7,0-1.4,0.4-1.7,0.9v4.2h-0.9v-5.8h0.9v0.8c0.4-0.5,1.2-1,2.1-1
			c1.2,0,1.8,0.6,1.8,1.9v4.1H142.1z"/>
		<path fill="#363636" d="M148.7,432.5v-3.8c0-1-0.5-1.3-1.3-1.3c-0.7,0-1.4,0.4-1.7,0.9v4.2h-0.9v-8h0.9v3c0.4-0.5,1.2-1,2.1-1
			c1.2,0,1.8,0.6,1.8,1.8v4.1H148.7z"/>
		<path fill="#363636" d="M151.1,429.6c0-1.7,1.1-3,2.9-3c1.8,0,2.9,1.4,2.9,3s-1.1,3-2.9,3C152.2,432.6,151.1,431.3,151.1,429.6z
			 M155.8,429.6c0-1.2-0.7-2.2-1.9-2.2s-1.9,1.1-1.9,2.2c0,1.2,0.7,2.2,1.9,2.2S155.8,430.8,155.8,429.6z"/>
		<path fill="#363636" d="M165.6,432.5v-0.9c-0.4,0.6-1.1,1-2,1c-1.5,0-2.6-1.2-2.6-3c0-1.9,1.1-3,2.6-3c0.8,0,1.5,0.4,2,1v-3.1h0.9
			v8H165.6z M165.6,430.9v-2.6c-0.3-0.5-1-0.9-1.7-0.9c-1.2,0-1.9,1-1.9,2.2s0.7,2.2,1.9,2.2C164.5,431.8,165.3,431.4,165.6,430.9z"
			/>
		<path fill="#363636" d="M167.9,429.6c0-1.7,1.2-3,2.9-3c1.8,0,2.8,1.4,2.8,3.1v0.2h-4.7c0.1,1.1,0.8,2,2.1,2
			c0.7,0,1.3-0.3,1.8-0.7l0.4,0.6c-0.6,0.6-1.4,0.9-2.3,0.9C169.2,432.6,167.9,431.4,167.9,429.6z M170.8,427.3
			c-1.2,0-1.8,1-1.9,1.9h3.8C172.7,428.4,172.1,427.3,170.8,427.3z"/>
		<path fill="#363636" d="M177.9,432.5v-0.8c2.9-2.3,4.5-3.6,4.5-5c0-1-0.9-1.5-1.7-1.5c-1,0-1.7,0.4-2.2,1l-0.6-0.6
			c0.6-0.8,1.7-1.3,2.8-1.3c1.3,0,2.7,0.8,2.7,2.4c0,1.6-1.7,3.1-3.9,4.9h3.9v0.9H177.9z"/>
		<path fill="#363636" d="M184.9,428.5c0-2,0.9-4.1,3.1-4.1c2.2,0,3.1,2.2,3.1,4.1c0,1.9-0.9,4.1-3.1,4.1
			C185.8,432.6,184.9,430.4,184.9,428.5z M190,428.5c0-1.6-0.5-3.2-2-3.2s-2,1.6-2,3.2c0,1.6,0.5,3.3,2,3.3S190,430.1,190,428.5z"/>
		<path fill="#363636" d="M193.8,432.5v-6.7l-1.3,1.4l-0.6-0.6l2-2.1h0.9v8H193.8z"/>
		<path fill="#363636" d="M196.3,428.5c0-2.2,1-4.1,3.3-4.1c1,0,1.7,0.4,2.2,1l-0.5,0.7c-0.4-0.5-0.9-0.8-1.7-0.8
			c-1.6,0-2.3,1.6-2.3,3.1c0,0.1,0,0.2,0,0.3c0.3-0.6,1.2-1.2,2.3-1.2c1.4,0,2.6,0.9,2.6,2.6c0,1.4-1.1,2.6-2.8,2.6
			C197.2,432.6,196.3,430.7,196.3,428.5z M201.2,430c0-1.2-0.8-1.7-1.8-1.7c-0.8,0-1.6,0.5-2,1.2c0.1,1,0.6,2.2,2,2.2
			C200.6,431.7,201.2,430.8,201.2,430z"/>
	</g>
</g>
<g>
	<g>
		<path fill="#363636" d="M68,370.4l-4.5-5.6l-0.2,2.2l-1.4-0.2l0.4-3.8l1.1-0.9l5.8,7.3L68,370.4z"/>
		<path fill="#363636" d="M70.3,367.4l-0.2-1.5c0.7,0.1,1.3,0,2-0.6c1.3-1.1,1-2.8,0-3.9c-0.1-0.1-0.1-0.1-0.2-0.2
			c0.1,0.8-0.3,1.9-1.1,2.6c-1.3,1.1-3.1,1.2-4.3-0.4c-1.1-1.4-0.9-3.3,0.7-4.6c2.1-1.7,4.4-0.7,6,1.4c1.7,2.1,1.9,4.7-0.2,6.3
			C72.2,367.3,71.2,367.5,70.3,367.4z M71.2,360.3c-0.7-0.7-1.9-1.3-3-0.4c-1,0.8-0.9,1.9-0.4,2.4c0.7,0.9,1.7,0.7,2.5,0.1
			C70.9,362,71.3,361.1,71.2,360.3z"/>
		<path fill="#363636" d="M76.9,362.1l-0.2-1.5c0.7,0.1,1.3,0,2-0.6c1.3-1.1,1-2.8,0-3.9c-0.1-0.1-0.1-0.1-0.2-0.2
			c0.1,0.8-0.3,1.9-1.1,2.6c-1.3,1.1-3.1,1.2-4.3-0.4c-1.1-1.4-0.9-3.3,0.7-4.6c2.1-1.7,4.4-0.7,6,1.4c1.7,2.1,1.9,4.7-0.2,6.3
			C78.7,362,77.8,362.2,76.9,362.1z M77.8,355.1c-0.7-0.7-1.9-1.3-3-0.4c-1,0.8-0.9,1.9-0.4,2.4c0.7,0.9,1.7,0.7,2.5,0.1
			C77.5,356.7,77.8,355.9,77.8,355.1z"/>
		<path fill="#363636" d="M83.5,356.9l-0.2-1.5c0.7,0.1,1.3,0,2-0.6c1.3-1.1,1-2.8,0-3.9c-0.1-0.1-0.1-0.1-0.2-0.2
			c0.1,0.8-0.3,1.9-1.1,2.6c-1.3,1.1-3.1,1.2-4.3-0.4c-1.1-1.4-0.9-3.3,0.7-4.6c2.1-1.7,4.4-0.7,6,1.4c1.7,2.1,1.9,4.7-0.2,6.3
			C85.3,356.7,84.3,357,83.5,356.9z M84.4,349.8c-0.7-0.7-1.9-1.3-3-0.4c-1,0.8-0.9,1.9-0.4,2.4c0.7,0.9,1.7,0.7,2.5,0.1
			C84.1,351.4,84.4,350.6,84.4,349.8z"/>
	</g>
	<g>
		<path fill="#363636" d="M88.4,350.5l-0.8-1l2.6-2.1l0.8,1L88.4,350.5z"/>
	</g>
	<g>
		<path fill="#363636" d="M93.2,350.2l-0.8-1c1.1-4.4,1.5-6.2,0.6-7.3c-0.6-0.8-1.6-0.6-2.2,0c-0.9,0.7-1.2,1.5-1.3,2.4l-1.4-0.2
			c0-1.3,0.7-2.5,1.8-3.3c1.4-1.1,3.3-1.3,4.4,0.1c1.1,1.4,0.8,3.5,0.1,6.6l3.2-2.6l0.9,1.1L93.2,350.2z"/>
	</g>
	<g>
		<path fill="#363636" d="M96.6,341.5c-1.5-1.8-2.1-4.5-0.1-6.1c2-1.6,4.4-0.4,5.9,1.4c1.5,1.8,2.2,4.5,0.1,6.1
			C100.5,344.6,98.1,343.3,96.6,341.5z M101.1,337.9c-1.1-1.4-2.5-2.3-3.7-1.3s-0.6,2.5,0.5,3.9c1.1,1.4,2.5,2.3,3.7,1.3
			C102.8,340.9,102.2,339.3,101.1,337.9z"/>
		<path fill="#363636" d="M103.3,336.1c-1.5-1.8-2.2-4.5-0.1-6.1c2-1.6,4.4-0.4,5.9,1.4c1.5,1.8,2.2,4.5,0.1,6.1
			C107.2,339.2,104.8,337.9,103.3,336.1z M107.9,332.5c-1.1-1.4-2.5-2.3-3.7-1.3c-1.2,1-0.6,2.5,0.5,3.9c1.1,1.4,2.5,2.3,3.7,1.3
			C109.6,335.5,109,333.9,107.9,332.5z"/>
		<path fill="#363636" d="M110.1,330.7c-1.5-1.8-2.2-4.5-0.1-6.1c2-1.6,4.4-0.4,5.9,1.4c1.5,1.8,2.2,4.5,0.1,6.1
			C114,333.8,111.6,332.5,110.1,330.7z M114.6,327.1c-1.1-1.4-2.5-2.3-3.7-1.3s-0.6,2.5,0.5,3.9c1.1,1.4,2.5,2.3,3.7,1.3
			C116.3,330,115.7,328.5,114.6,327.1z"/>
	</g>
	<g>
		<path fill="#363636" d="M151.3,361.2l-0.8-1c1.1-4.4,1.5-6.2,0.6-7.3c-0.6-0.8-1.6-0.6-2.2,0c-0.9,0.7-1.2,1.5-1.3,2.4l-1.4-0.2
			c0-1.3,0.7-2.5,1.8-3.3c1.4-1.1,3.3-1.3,4.4,0.1c1.1,1.4,0.8,3.5,0.1,6.6l3.2-2.6l0.9,1.1L151.3,361.2z"/>
	</g>
	<g>
		<path fill="#363636" d="M156.4,352.5c-1.5-1.8-2.1-4.5-0.1-6.1c2-1.6,4.4-0.4,5.9,1.4c1.5,1.8,2.2,4.5,0.1,6.1
			C160.3,355.6,157.9,354.3,156.4,352.5z M161,348.9c-1.1-1.4-2.5-2.3-3.7-1.3c-1.2,1-0.6,2.5,0.5,3.9c1.1,1.4,2.5,2.3,3.7,1.3
			C162.7,351.9,162.1,350.3,161,348.9z"/>
		<path fill="#363636" d="M163.2,347.1c-1.5-1.8-2.2-4.5-0.1-6.1c2-1.6,4.4-0.4,5.9,1.4c1.5,1.8,2.2,4.5,0.1,6.1
			C167.1,350.2,164.6,348.9,163.2,347.1z M167.7,343.5c-1.1-1.4-2.5-2.3-3.7-1.3c-1.2,1-0.6,2.5,0.5,3.9c1.1,1.4,2.5,2.3,3.7,1.3
			C169.4,346.5,168.8,344.9,167.7,343.5z"/>
		<path fill="#363636" d="M174.5,344l-4.5-5.6l-0.2,2.2l-1.4-0.2l0.4-3.8l1.1-0.9l5.8,7.3L174.5,344z"/>
		<path fill="#363636" d="M175.1,340l-0.8-1l2.6-2.1l0.8,1L175.1,340z"/>
	</g>
	<g>
		<path fill="#363636" d="M177.4,335.7c-1.5-1.8-2.2-4.5-0.1-6.1c2-1.6,4.4-0.4,5.9,1.4c1.5,1.8,2.2,4.5,0.1,6.1
			C181.2,338.8,178.8,337.6,177.4,335.7z M181.9,332.1c-1.1-1.4-2.5-2.3-3.7-1.3s-0.6,2.5,0.5,3.9c1.1,1.4,2.5,2.3,3.7,1.3
			C183.6,335.1,183,333.5,181.9,332.1z"/>
	</g>
	<g>
		<path fill="#363636" d="M186.9,334.1l-0.8-1c1.1-4.4,1.5-6.2,0.6-7.3c-0.6-0.8-1.6-0.6-2.2,0c-0.9,0.7-1.2,1.5-1.3,2.4l-1.4-0.2
			c0-1.3,0.7-2.5,1.8-3.3c1.4-1.1,3.3-1.3,4.4,0.1c1.1,1.4,0.8,3.5,0.1,6.6l3.2-2.6l0.9,1.1L186.9,334.1z"/>
	</g>
	<g>
		<path fill="#363636" d="M206.5,362.7l-0.8-1c1.1-4.4,1.5-6.2,0.6-7.3c-0.6-0.8-1.6-0.6-2.2,0c-0.9,0.7-1.2,1.5-1.3,2.4l-1.4-0.2
			c0-1.3,0.7-2.5,1.8-3.3c1.4-1.1,3.3-1.3,4.4,0.1c1.1,1.4,0.8,3.5,0.1,6.6l3.2-2.6l0.9,1.1L206.5,362.7z"/>
	</g>
	<g>
		<path fill="#363636" d="M211.6,354c-1.5-1.8-2.2-4.5-0.1-6.1c2-1.6,4.4-0.4,5.9,1.4c1.5,1.8,2.2,4.5,0.1,6.1
			C215.5,357.1,213.1,355.8,211.6,354z M216.2,350.4c-1.1-1.4-2.5-2.3-3.7-1.3s-0.6,2.5,0.5,3.9c1.1,1.4,2.5,2.3,3.7,1.3
			C217.8,353.4,217.3,351.8,216.2,350.4z"/>
	</g>
	<g>
		<path fill="#363636" d="M218.4,348.6c-1.5-1.8-2.2-4.5-0.1-6.1c2-1.6,4.4-0.4,5.9,1.4c1.5,1.8,2.2,4.5,0.1,6.1
			C222.3,351.7,219.8,350.4,218.4,348.6z M222.9,345c-1.1-1.4-2.5-2.3-3.7-1.3s-0.6,2.5,0.5,3.9c1.1,1.4,2.5,2.3,3.7,1.3
			C224.6,348,224,346.4,222.9,345z"/>
	</g>
	<g>
		<path fill="#363636" d="M226.7,346.2l0-1.4c0.9,0.2,1.9-0.1,2.7-0.7c1-0.8,1.2-1.7,0.6-2.3c-0.6-0.7-1.4-0.6-2.5,0.3
			c-0.3,0.2-0.7,0.6-0.8,0.7l-0.9-1.2c0.1-0.1,0.6-0.4,0.8-0.7c0.9-0.7,1.3-1.5,0.7-2.2c-0.5-0.7-1.5-0.5-2.3,0.2
			c-0.8,0.6-1.1,1.4-1.2,2.3l-1.3-0.3c0-1.1,0.5-2.3,1.7-3.3c1.6-1.3,3.2-1.4,4.2-0.1c0.8,1,0.4,2.2-0.2,2.9
			c0.8-0.5,2.2-0.7,3.1,0.4c1,1.2,0.6,3-1,4.3C229.1,346.2,227.7,346.4,226.7,346.2z"/>
		<path fill="#363636" d="M232.2,340l-0.8-1l2.6-2.1l0.8,1L232.2,340z"/>
		<path fill="#363636" d="M234.4,335.8c-1.5-1.8-2.2-4.5-0.1-6.1c2-1.6,4.4-0.4,5.9,1.4c1.5,1.8,2.2,4.5,0.1,6.1
			C238.3,338.9,235.8,337.6,234.4,335.8z M238.9,332.2c-1.1-1.4-2.5-2.3-3.7-1.3c-1.2,1-0.6,2.5,0.5,3.9c1.1,1.4,2.5,2.3,3.7,1.3
			C240.6,335.1,240,333.5,238.9,332.2z"/>
		<path fill="#363636" d="M247.4,331.4l-1.3-1.7l-3.5,2.8l-0.8-1l-0.7-7l1.8-1.4l3.6,4.5l1-0.8l0.9,1.1l-1,0.8l1.3,1.7L247.4,331.4z
			 M242.4,325.2l0.5,5.1l2.2-1.8L242.4,325.2z"/>
	</g>
	<g>
		<path fill="#363636" d="M264.4,363.3l-0.8-1c1.1-4.4,1.5-6.2,0.6-7.3c-0.6-0.8-1.6-0.6-2.2,0c-0.9,0.7-1.2,1.5-1.3,2.4l-1.4-0.2
			c0-1.3,0.7-2.5,1.8-3.3c1.4-1.1,3.3-1.3,4.4,0.1c1.1,1.4,0.8,3.5,0.1,6.6l3.2-2.6l0.9,1.1L264.4,363.3z"/>
	</g>
	<g>
		<path fill="#363636" d="M269.5,354.6c-1.5-1.8-2.2-4.5-0.1-6.1c2-1.6,4.4-0.4,5.9,1.4c1.5,1.8,2.2,4.5,0.1,6.1
			C273.4,357.7,271,356.5,269.5,354.6z M274.1,351c-1.1-1.4-2.5-2.3-3.7-1.3s-0.6,2.5,0.5,3.9c1.1,1.4,2.5,2.3,3.7,1.3
			C275.7,354,275.2,352.4,274.1,351z"/>
		<path fill="#363636" d="M276.3,349.2c-1.5-1.8-2.2-4.5-0.1-6.1c2-1.6,4.4-0.4,5.9,1.4c1.5,1.8,2.2,4.5,0.1,6.1
			C280.2,352.3,277.7,351.1,276.3,349.2z M280.8,345.6c-1.1-1.4-2.5-2.3-3.7-1.3c-1.2,1-0.6,2.5,0.5,3.9c1.1,1.4,2.5,2.3,3.7,1.3
			C282.5,348.6,281.9,347,280.8,345.6z"/>
		<path fill="#363636" d="M285.3,346.4l0-1.5c0.9,0.2,1.8,0,2.7-0.7c0.9-0.7,1-1.8,0.5-2.5c-0.6-0.8-1.6-0.8-2.5-0.1
			c-0.6,0.5-1,1.1-1.1,1.9l-1.1,0.5l-3.3-4.1l4.8-3.8l0.9,1.1l-3.5,2.8l1.7,2.1c0.1-0.6,0.5-1.4,1.2-1.9c1.2-1,3-1,4.2,0.5
			c1.2,1.5,0.8,3.4-0.8,4.7C287.7,346.3,286.4,346.6,285.3,346.4z"/>
		<path fill="#363636" d="M290.6,340.2l-0.8-1l2.6-2.1l0.8,1L290.6,340.2z"/>
		<path fill="#363636" d="M292.9,336c-1.5-1.8-2.2-4.5-0.1-6.1c2-1.6,4.5-0.4,5.9,1.4c1.5,1.8,2.2,4.5,0.1,6.1
			C296.7,339,294.3,337.8,292.9,336z M297.4,332.3c-1.1-1.4-2.5-2.3-3.7-1.3c-1.2,1-0.6,2.5,0.5,3.9c1.1,1.4,2.5,2.3,3.7,1.3
			C299.1,335.3,298.5,333.7,297.4,332.3z"/>
		<path fill="#363636" d="M299.6,330.6c-1.7-2.1-1.9-4.6,0.2-6.3c0.9-0.7,1.8-1,2.7-0.9l0.2,1.4c-0.7-0.1-1.3,0-2,0.6
			c-1.2,1-1,2.7,0,3.9c0.1,0.1,0.1,0.1,0.2,0.2c-0.1-0.8,0.3-1.9,1.1-2.6c1.3-1.1,3.1-1.2,4.3,0.4c1.1,1.3,0.9,3.3-0.7,4.6
			C303.5,333.6,301.2,332.6,299.6,330.6z M305.1,328.4c-0.7-0.9-1.7-0.7-2.5-0.1c-0.6,0.5-1,1.3-0.9,2.1c0.7,0.7,1.9,1.3,3,0.4
			C305.6,330.1,305.5,329,305.1,328.4z"/>
	</g>
	<g>
		<path fill="#363636" d="M327.6,362l-0.8-1c1.1-4.4,1.5-6.2,0.6-7.3c-0.6-0.8-1.6-0.6-2.2,0c-0.9,0.7-1.2,1.5-1.3,2.4l-1.4-0.2
			c0-1.3,0.7-2.5,1.8-3.3c1.4-1.1,3.3-1.3,4.4,0.1c1.1,1.4,0.8,3.5,0.1,6.6l3.2-2.6l0.9,1.1L327.6,362z"/>
	</g>
	<g>
		<path fill="#363636" d="M332.7,353.3c-1.5-1.8-2.1-4.5-0.1-6.1c2-1.6,4.4-0.4,5.9,1.4c1.5,1.8,2.2,4.5,0.1,6.1
			C336.6,356.4,334.1,355.1,332.7,353.3z M337.2,349.7c-1.1-1.4-2.5-2.3-3.7-1.3c-1.2,1-0.6,2.5,0.5,3.9c1.1,1.4,2.5,2.3,3.7,1.3
			C338.9,352.6,338.3,351.1,337.2,349.7z"/>
	</g>
	<g>
		<path fill="#363636" d="M339.4,347.9c-1.5-1.8-2.2-4.5-0.1-6.1c2-1.6,4.5-0.4,5.9,1.4c1.5,1.8,2.2,4.5,0.1,6.1
			C343.3,351,340.9,349.7,339.4,347.9z M343.9,344.3c-1.1-1.4-2.5-2.3-3.7-1.3c-1.2,1-0.6,2.5,0.5,3.9c1.1,1.4,2.5,2.3,3.7,1.3
			C345.6,347.2,345.1,345.7,343.9,344.3z"/>
	</g>
	<g>
		<path fill="#363636" d="M349.6,345.7l-2.2-8.4l-3.8,3l-0.9-1.1l5.3-4.2l0.7,0.9l2.3,8.7L349.6,345.7z"/>
	</g>
	<g>
		<path fill="#363636" d="M352.2,340.1l-0.8-1l2.6-2.1l0.8,1L352.2,340.1z"/>
		<path fill="#363636" d="M354.4,335.9c-1.5-1.8-2.1-4.5-0.1-6.1c2-1.6,4.5-0.4,5.9,1.4c1.5,1.8,2.2,4.5,0.1,6.1
			C358.3,339,355.8,337.7,354.4,335.9z M358.9,332.3c-1.1-1.4-2.5-2.3-3.7-1.3s-0.6,2.5,0.5,3.9c1.1,1.4,2.5,2.3,3.7,1.3
			C360.6,335.3,360,333.7,358.9,332.3z"/>
		<path fill="#363636" d="M362.5,332.3c-0.7-0.9-0.5-2.2,0.1-3.2c-1,0.4-2.2,0.4-2.9-0.5c-1.1-1.4-0.1-3,1.1-4.1
			c1.3-1,3.1-1.6,4.2-0.2c0.7,0.9,0.5,2-0.1,2.9c1.1-0.4,2.4-0.4,3.1,0.6c1.1,1.3,0.3,3.1-1.2,4.3
			C365.4,333.2,363.6,333.6,362.5,332.3z M364,325.5c-0.5-0.6-1.4-0.5-2.2,0.1c-0.8,0.6-1.1,1.5-0.6,2.1c0.5,0.7,1.7,0.2,2.2-0.1
			C363.8,327.2,364.5,326.2,364,325.5z M366.7,328.7c-0.6-0.8-1.9-0.2-2.4,0.1c-0.4,0.4-1.2,1.6-0.6,2.3c0.5,0.6,1.5,0.5,2.3-0.2
			C366.8,330.3,367.2,329.3,366.7,328.7z"/>
	</g>
	<g>
		<path fill="#363636" d="M390.4,361.2l-0.8-1c1.1-4.4,1.5-6.2,0.6-7.3c-0.6-0.8-1.6-0.6-2.2,0c-0.9,0.7-1.2,1.5-1.3,2.4l-1.4-0.2
			c0-1.3,0.7-2.5,1.8-3.3c1.4-1.1,3.3-1.3,4.4,0.1c1.1,1.4,0.8,3.5,0.1,6.6l3.2-2.6l0.9,1.1L390.4,361.2z"/>
	</g>
	<g>
		<path fill="#363636" d="M395.5,352.5c-1.5-1.8-2.2-4.5-0.1-6.1c2-1.6,4.5-0.4,5.9,1.4c1.5,1.8,2.2,4.5,0.1,6.1
			C399.4,355.6,397,354.4,395.5,352.5z M400,348.9c-1.1-1.4-2.5-2.3-3.7-1.3c-1.2,1-0.6,2.5,0.5,3.9c1.1,1.4,2.5,2.3,3.7,1.3
			C401.7,351.9,401.1,350.3,400,348.9z"/>
		<path fill="#363636" d="M402.2,347.1c-1.5-1.8-2.2-4.5-0.1-6.1c2-1.6,4.5-0.4,5.9,1.4c1.5,1.8,2.2,4.5,0.1,6.1
			C406.1,350.2,403.7,349,402.2,347.1z M406.8,343.5c-1.1-1.4-2.5-2.3-3.7-1.3c-1.2,1-0.6,2.5,0.5,3.9c1.1,1.4,2.5,2.3,3.7,1.3
			C408.4,346.5,407.9,344.9,406.8,343.5z"/>
		<path fill="#363636" d="M411.7,344.4l-0.2-1.5c0.7,0.1,1.3,0,2-0.6c1.3-1.1,1-2.8,0-3.9c-0.1-0.1-0.1-0.1-0.2-0.2
			c0.1,0.8-0.3,1.9-1.1,2.6c-1.3,1.1-3.1,1.2-4.3-0.4c-1.1-1.4-0.9-3.3,0.7-4.6c2.1-1.7,4.4-0.7,6,1.4c1.7,2.1,1.9,4.7-0.2,6.3
			C413.5,344.3,412.6,344.5,411.7,344.4z M412.6,337.3c-0.7-0.7-1.9-1.3-3-0.4c-1,0.8-0.9,1.9-0.4,2.4c0.7,0.9,1.7,0.7,2.5,0.1
			C412.3,339,412.6,338.1,412.6,337.3z"/>
	</g>
	<g>
		<path fill="#363636" d="M416.6,338.1l-0.8-1l2.6-2.1l0.8,1L416.6,338.1z"/>
	</g>
	<g>
		<path fill="#363636" d="M423.2,336.4l-4.5-5.6l-0.2,2.2l-1.4-0.2l0.4-3.8l1.1-0.9l5.8,7.3L423.2,336.4z"/>
		<path fill="#363636" d="M422.8,330.7c-1.5-1.8-2.1-4.5-0.1-6.1c2-1.6,4.5-0.4,5.9,1.4c1.5,1.8,2.2,4.5,0.1,6.1
			C426.6,333.8,424.2,332.5,422.8,330.7z M427.3,327.1c-1.1-1.4-2.5-2.3-3.7-1.3c-1.2,1-0.6,2.5,0.5,3.9c1.1,1.4,2.5,2.3,3.7,1.3
			C429,330,428.4,328.5,427.3,327.1z"/>
	</g>
	<g>
		<path fill="#363636" d="M461.1,357l-0.8-1c1.1-4.4,1.5-6.2,0.6-7.3c-0.6-0.8-1.6-0.6-2.2,0c-0.9,0.7-1.2,1.5-1.3,2.4l-1.4-0.2
			c0-1.3,0.7-2.5,1.8-3.3c1.4-1.1,3.3-1.3,4.4,0.1c1.1,1.4,0.8,3.5,0.1,6.6l3.2-2.6l0.9,1.1L461.1,357z"/>
	</g>
	<g>
		<path fill="#363636" d="M464.4,348.3c-1.5-1.8-2.1-4.5-0.1-6.1c2-1.6,4.5-0.4,5.9,1.4c1.5,1.8,2.2,4.5,0.1,6.1
			C468.3,351.4,465.9,350.2,464.4,348.3z M469,344.7c-1.1-1.4-2.5-2.3-3.7-1.3c-1.2,1-0.6,2.5,0.5,3.9c1.1,1.4,2.5,2.3,3.7,1.3
			C470.6,347.7,470.1,346.1,469,344.7z"/>
		<path fill="#363636" d="M475.7,345.3l-4.5-5.6l-0.2,2.2l-1.4-0.2l0.4-3.8l1.1-0.9l5.8,7.3L475.7,345.3z"/>
		<path fill="#363636" d="M479.9,341.9l-4.5-5.6l-0.2,2.2l-1.4-0.2l0.4-3.8l1.1-0.9l5.8,7.3L479.9,341.9z"/>
	</g>
	<g>
		<path fill="#363636" d="M480.5,337.9l-0.8-1l2.6-2.1l0.8,1L480.5,337.9z"/>
	</g>
	<g>
		<path fill="#363636" d="M487.1,336.2l-4.5-5.6l-0.2,2.2l-1.4-0.2l0.4-3.8l1.1-0.9l5.8,7.3L487.1,336.2z"/>
		<path fill="#363636" d="M489.7,334.1l-0.8-1c1.1-4.4,1.5-6.2,0.6-7.3c-0.6-0.8-1.6-0.6-2.2,0c-0.9,0.7-1.2,1.5-1.3,2.4l-1.4-0.2
			c0-1.3,0.7-2.5,1.8-3.3c1.4-1.1,3.3-1.3,4.4,0.1c1.1,1.4,0.8,3.5,0.1,6.6l3.2-2.6l0.9,1.1L489.7,334.1z"/>
	</g>
	<g>
		<path fill="#363636" d="M518.6,358.6l-0.8-1c1.1-4.4,1.5-6.2,0.6-7.3c-0.6-0.8-1.6-0.6-2.2,0c-0.9,0.7-1.2,1.5-1.3,2.4l-1.4-0.2
			c0-1.3,0.7-2.5,1.8-3.3c1.4-1.1,3.3-1.3,4.4,0.1c1.1,1.4,0.8,3.5,0.1,6.6l3.2-2.6l0.9,1.1L518.6,358.6z"/>
	</g>
	<g>
		<path fill="#363636" d="M522,349.9c-1.5-1.8-2.1-4.5-0.1-6.1c2-1.6,4.4-0.4,5.9,1.4c1.5,1.8,2.2,4.5,0.1,6.1
			C525.9,353,523.5,351.7,522,349.9z M526.5,346.3c-1.1-1.4-2.5-2.3-3.7-1.3c-1.2,1-0.6,2.5,0.5,3.9c1.1,1.4,2.5,2.3,3.7,1.3
			C528.2,349.3,527.6,347.7,526.5,346.3z"/>
		<path fill="#363636" d="M533.3,346.8l-4.5-5.6l-0.2,2.2l-1.4-0.2l0.4-3.8l1.1-0.9l5.8,7.3L533.3,346.8z"/>
		<path fill="#363636" d="M534.8,343.9l0-1.4c0.9,0.2,1.9-0.1,2.7-0.7c1-0.8,1.2-1.7,0.6-2.3c-0.6-0.7-1.4-0.6-2.4,0.3
			c-0.3,0.2-0.7,0.6-0.8,0.7l-0.9-1.2c0.1-0.1,0.6-0.4,0.8-0.7c0.9-0.7,1.3-1.5,0.7-2.2c-0.5-0.7-1.5-0.5-2.3,0.2
			c-0.8,0.6-1.1,1.4-1.2,2.3l-1.3-0.3c0-1.1,0.5-2.3,1.7-3.3c1.6-1.3,3.2-1.4,4.2-0.1c0.8,1,0.4,2.2-0.2,2.9
			c0.8-0.5,2.2-0.7,3.1,0.4c1,1.2,0.6,3-1,4.3C537.2,343.9,535.8,344.2,534.8,343.9z"/>
	</g>
	<g>
		<path fill="#363636" d="M540.2,337.7l-0.8-1l2.6-2.1l0.8,1L540.2,337.7z"/>
	</g>
	<g>
		<path fill="#363636" d="M546.8,336l-4.5-5.6l-0.2,2.2l-1.4-0.2l0.4-3.8l1.1-0.9l5.8,7.3L546.8,336z"/>
		<path fill="#363636" d="M552.6,331.3l-1.3-1.7l-3.5,2.8l-0.8-1l-0.7-7l1.8-1.4l3.6,4.5l1-0.8l0.9,1.1l-1,0.8l1.3,1.7L552.6,331.3z
			 M547.7,325.2l0.5,5.1l2.2-1.8L547.7,325.2z"/>
	</g>
	<g>
		<path fill="#363636" d="M577.7,359l-0.8-1c1.1-4.4,1.5-6.2,0.6-7.3c-0.6-0.8-1.6-0.6-2.2,0c-0.9,0.7-1.2,1.5-1.3,2.4l-1.4-0.2
			c0-1.3,0.7-2.5,1.8-3.3c1.4-1.1,3.3-1.3,4.4,0.1c1.1,1.4,0.8,3.5,0.1,6.6l3.2-2.6l0.9,1.1L577.7,359z"/>
	</g>
	<g>
		<path fill="#363636" d="M581.1,350.3c-1.5-1.8-2.1-4.5-0.1-6.1c2-1.6,4.5-0.4,5.9,1.4c1.5,1.8,2.2,4.5,0.1,6.1
			C585,353.4,582.6,352.1,581.1,350.3z M585.6,346.7c-1.1-1.4-2.5-2.3-3.7-1.3s-0.6,2.5,0.5,3.9c1.1,1.4,2.5,2.3,3.7,1.3
			C587.3,349.7,586.7,348.1,585.6,346.7z"/>
		<path fill="#363636" d="M592.4,347.2l-4.5-5.6l-0.2,2.2l-1.4-0.2l0.4-3.8l1.1-0.9l5.8,7.3L592.4,347.2z"/>
		<path fill="#363636" d="M594.3,344.1l0-1.5c0.9,0.2,1.8,0,2.7-0.7c0.9-0.7,1-1.8,0.5-2.5c-0.6-0.8-1.6-0.8-2.5-0.1
			c-0.6,0.5-1,1.1-1.1,1.9l-1.1,0.5l-3.3-4.1l4.8-3.8l0.9,1.1l-3.5,2.8l1.7,2.1c0.1-0.6,0.5-1.4,1.2-1.9c1.2-1,3-1,4.2,0.5
			c1.2,1.5,0.8,3.4-0.8,4.7C596.6,344.1,595.4,344.3,594.3,344.1z"/>
	</g>
	<g>
		<path fill="#363636" d="M599.6,337.9l-0.8-1l2.6-2.1l0.8,1L599.6,337.9z"/>
	</g>
	<g>
		<path fill="#363636" d="M606.2,336.2l-4.5-5.6l-0.2,2.2l-1.4-0.2l0.4-3.8l1.1-0.9l5.8,7.3L606.2,336.2z"/>
		<path fill="#363636" d="M605.8,330.6c-1.7-2.1-1.9-4.6,0.2-6.3c0.9-0.7,1.8-1,2.7-0.9l0.2,1.4c-0.7-0.1-1.3,0-2,0.6
			c-1.2,1-1,2.7,0,3.9c0.1,0.1,0.1,0.1,0.2,0.2c-0.1-0.8,0.3-1.9,1.1-2.6c1.3-1.1,3.1-1.2,4.3,0.4c1.1,1.3,0.9,3.3-0.7,4.6
			C609.7,333.6,607.4,332.6,605.8,330.6z M611.3,328.4c-0.7-0.9-1.7-0.7-2.5-0.1c-0.6,0.5-1,1.3-0.9,2.1c0.7,0.7,1.9,1.3,3,0.4
			C611.8,330.1,611.7,329,611.3,328.4z"/>
	</g>
</g>
<g>
	<path fill="#363636" d="M3.7,397.6v-8H7c1.6,0,2.5,1.1,2.5,2.4s-0.9,2.4-2.5,2.4H4.7v3.2H3.7z M8.4,392c0-0.9-0.6-1.5-1.6-1.5H4.7
		v3h2.1C7.8,393.5,8.4,392.9,8.4,392z"/>
	<path fill="#363636" d="M14.4,397.6v-0.7c-0.5,0.5-1.1,0.8-1.9,0.8c-1,0-2-0.7-2-1.9c0-1.3,1-1.9,2-1.9c0.8,0,1.5,0.3,1.9,0.8v-1
		c0-0.8-0.6-1.2-1.5-1.2c-0.7,0-1.3,0.2-1.8,0.8l-0.4-0.6c0.6-0.6,1.4-1,2.3-1c1.2,0,2.2,0.6,2.2,2v4H14.4z M14.4,396.4v-1.1
		c-0.3-0.5-1-0.7-1.6-0.7c-0.9,0-1.4,0.5-1.4,1.3c0,0.7,0.6,1.3,1.4,1.3C13.4,397.1,14,396.8,14.4,396.4z"/>
	<path fill="#363636" d="M17.1,397.6v-5.8H18v0.9c0.5-0.6,1.1-1.1,1.9-1.1v0.9c-0.1,0-0.2,0-0.3,0c-0.6,0-1.3,0.5-1.6,0.9v4.1H17.1z
		"/>
	<path fill="#363636" d="M24.7,397.6v-0.7c-0.5,0.5-1.1,0.8-1.9,0.8c-1,0-2-0.7-2-1.9c0-1.3,1-1.9,2-1.9c0.8,0,1.5,0.3,1.9,0.8v-1
		c0-0.8-0.6-1.2-1.5-1.2c-0.7,0-1.3,0.2-1.8,0.8l-0.4-0.6c0.6-0.6,1.4-1,2.3-1c1.2,0,2.2,0.6,2.2,2v4H24.7z M24.7,396.4v-1.1
		c-0.3-0.5-1-0.7-1.6-0.7c-0.9,0-1.4,0.5-1.4,1.3c0,0.7,0.6,1.3,1.4,1.3C23.7,397.1,24.3,396.8,24.7,396.4z"/>
	<path fill="#363636" d="M30.2,397.6v-0.8c2.9-2.3,4.4-3.6,4.4-5c0-1-0.9-1.5-1.7-1.5c-1,0-1.7,0.4-2.2,1l-0.6-0.6
		c0.6-0.8,1.7-1.3,2.8-1.3c1.3,0,2.7,0.8,2.7,2.4c0,1.6-1.7,3.1-3.9,4.9h3.9v0.9H30.2z"/>
	<path fill="#363636" d="M37.3,393.6c0-2,0.9-4.1,3.1-4.1c2.2,0,3.1,2.2,3.1,4.1c0,1.9-0.9,4.1-3.1,4.1
		C38.1,397.7,37.3,395.5,37.3,393.6z M42.4,393.6c0-1.6-0.5-3.2-2-3.2c-1.5,0-2,1.6-2,3.2c0,1.6,0.5,3.3,2,3.3
		C41.8,396.8,42.4,395.2,42.4,393.6z"/>
	<path fill="#363636" d="M46.1,397.6v-6.7l-1.3,1.4l-0.6-0.6l2-2.1h0.9v8H46.1z"/>
	<path fill="#363636" d="M48.9,396.5l0.6-0.7c0.5,0.7,1.2,1.1,2.2,1.1c1.1,0,1.8-0.7,1.8-1.7c0-1.1-0.8-1.7-1.8-1.7
		c-0.7,0-1.3,0.2-1.8,0.7l-0.7-0.3v-4.3H54v0.9h-3.9v2.8c0.4-0.4,1.1-0.7,1.9-0.7c1.3,0,2.6,0.9,2.6,2.6c0,1.6-1.2,2.6-2.9,2.6
		C50.3,397.7,49.5,397.2,48.9,396.5z"/>
	<path fill="#363636" d="M55.5,395.1v-0.8h2.9v0.8H55.5z"/>
	<path fill="#363636" d="M59.4,397.6v-0.8c2.9-2.3,4.4-3.6,4.4-5c0-1-0.9-1.5-1.7-1.5c-1,0-1.7,0.4-2.2,1l-0.6-0.6
		c0.6-0.8,1.7-1.3,2.8-1.3c1.3,0,2.7,0.8,2.7,2.4c0,1.6-1.7,3.1-3.9,4.9h3.9v0.9H59.4z"/>
	<path fill="#363636" d="M66.4,393.6c0-2,0.9-4.1,3.1-4.1c2.2,0,3.1,2.2,3.1,4.1c0,1.9-0.9,4.1-3.1,4.1
		C67.3,397.7,66.4,395.5,66.4,393.6z M71.5,393.6c0-1.6-0.5-3.2-2-3.2c-1.5,0-2,1.6-2,3.2c0,1.6,0.5,3.3,2,3.3
		C71,396.8,71.5,395.2,71.5,393.6z"/>
	<path fill="#363636" d="M75.3,397.6v-6.7l-1.3,1.4l-0.6-0.6l2-2.1h0.9v8H75.3z"/>
	<path fill="#363636" d="M77.8,393.6c0-2.2,1-4.1,3.3-4.1c1,0,1.7,0.4,2.2,1l-0.5,0.7c-0.4-0.5-0.9-0.8-1.7-0.8
		c-1.6,0-2.3,1.6-2.3,3.1c0,0.1,0,0.2,0,0.3c0.3-0.6,1.2-1.2,2.3-1.2c1.4,0,2.6,0.9,2.6,2.6c0,1.4-1.1,2.6-2.8,2.6
		C78.7,397.7,77.8,395.8,77.8,393.6z M82.7,395.2c0-1.2-0.8-1.7-1.8-1.7c-0.8,0-1.6,0.5-2,1.2c0.1,1,0.6,2.2,2,2.2
		C82.1,396.8,82.7,395.9,82.7,395.2z"/>
	<path fill="#363636" d="M85,392.4c0-0.4,0.3-0.7,0.7-0.7s0.7,0.3,0.7,0.7c0,0.3-0.3,0.7-0.7,0.7S85,392.7,85,392.4z M85,397
		c0-0.4,0.3-0.7,0.7-0.7s0.7,0.3,0.7,0.7c0,0.4-0.3,0.7-0.7,0.7S85,397.4,85,397z"/>
	<path fill="#363636" d="M91,397.6v-8h5.2v0.9H92v2.6h4.2v0.9H92v2.8h4.2v0.9H91z"/>
	<path fill="#363636" d="M97.3,396.8l0.5-0.6c0.4,0.4,1.1,0.8,1.9,0.8c0.9,0,1.4-0.4,1.4-1c0-1.4-3.6-0.5-3.6-2.7
		c0-0.9,0.8-1.7,2.1-1.7c1,0,1.7,0.4,2.1,0.8l-0.4,0.6c-0.3-0.4-1-0.7-1.7-0.7c-0.8,0-1.3,0.4-1.3,0.9c0,1.3,3.6,0.4,3.6,2.7
		c0,1-0.8,1.8-2.3,1.8C98.7,397.7,97.9,397.4,97.3,396.8z"/>
	<path fill="#363636" d="M103.6,396.4v-3.8h-1v-0.8h1v-1.6h0.9v1.6h1.2v0.8h-1.2v3.6c0,0.4,0.2,0.7,0.6,0.7c0.3,0,0.5-0.1,0.6-0.3
		l0.3,0.7c-0.2,0.2-0.6,0.4-1.1,0.4C104,397.7,103.6,397.2,103.6,396.4z"/>
	<path fill="#363636" d="M106.6,394.7c0-1.7,1.2-3,2.9-3c1.8,0,2.8,1.4,2.8,3.1v0.2h-4.7c0.1,1.1,0.8,2,2.1,2c0.7,0,1.3-0.3,1.8-0.7
		l0.4,0.6c-0.6,0.6-1.4,0.9-2.3,0.9C107.8,397.7,106.6,396.5,106.6,394.7z M109.5,392.4c-1.2,0-1.8,1-1.9,1.9h3.8
		C111.4,393.5,110.8,392.4,109.5,392.4z"/>
	<path fill="#363636" d="M118.4,397.6l-2.4-5.8h1l1.9,4.8l1.9-4.8h1l-2.4,5.8H118.4z"/>
	<path fill="#363636" d="M126.3,397.6v-0.7c-0.5,0.5-1.1,0.8-1.9,0.8c-1,0-2-0.7-2-1.9c0-1.3,1-1.9,2-1.9c0.8,0,1.5,0.3,1.9,0.8v-1
		c0-0.8-0.6-1.2-1.5-1.2c-0.7,0-1.3,0.2-1.8,0.8l-0.4-0.6c0.6-0.6,1.4-1,2.3-1c1.2,0,2.2,0.6,2.2,2v4H126.3z M126.3,396.4v-1.1
		c-0.3-0.5-1-0.7-1.6-0.7c-0.9,0-1.4,0.5-1.4,1.3c0,0.7,0.6,1.3,1.4,1.3C125.4,397.1,126,396.8,126.3,396.4z"/>
	<path fill="#363636" d="M129,397.6v-8h0.9v8H129z"/>
	<path fill="#363636" d="M131.4,394.7c0-1.7,1.1-3,2.9-3s2.9,1.4,2.9,3s-1.1,3-2.9,3S131.4,396.4,131.4,394.7z M136.2,394.7
		c0-1.2-0.7-2.2-1.9-2.2s-1.9,1.1-1.9,2.2c0,1.2,0.7,2.2,1.9,2.2S136.2,395.9,136.2,394.7z"/>
	<path fill="#363636" d="M138.6,397.6v-5.8h0.9v0.9c0.5-0.6,1.1-1.1,1.9-1.1v0.9c-0.1,0-0.2,0-0.3,0c-0.6,0-1.3,0.5-1.6,0.9v4.1
		H138.6z"/>
	<path fill="#363636" d="M145.3,394.7c0-1.7,1.2-3,2.9-3c1.8,0,2.8,1.4,2.8,3.1v0.2h-4.7c0.1,1.1,0.8,2,2.1,2c0.7,0,1.3-0.3,1.8-0.7
		l0.4,0.6c-0.6,0.6-1.4,0.9-2.3,0.9C146.6,397.7,145.3,396.5,145.3,394.7z M148.2,392.4c-1.2,0-1.8,1-1.9,1.9h3.8
		C150.1,393.5,149.5,392.4,148.2,392.4z M148.1,390.9h-0.7l1.8-1.7h0.9L148.1,390.9z"/>
	<path fill="#363636" d="M155.2,394.7c0-1.7,1.2-3,2.9-3c1.1,0,1.7,0.4,2.1,1l-0.6,0.5c-0.4-0.5-0.9-0.7-1.5-0.7c-1.2,0-2,0.9-2,2.2
		s0.8,2.2,2,2.2c0.6,0,1.1-0.2,1.5-0.8l0.6,0.6c-0.4,0.6-1.1,1-2.1,1C156.4,397.7,155.2,396.4,155.2,394.7z"/>
	<path fill="#363636" d="M161.1,394.7c0-1.7,1.1-3,2.9-3s2.9,1.4,2.9,3s-1.1,3-2.9,3S161.1,396.4,161.1,394.7z M165.9,394.7
		c0-1.2-0.7-2.2-1.9-2.2s-1.9,1.1-1.9,2.2c0,1.2,0.7,2.2,1.9,2.2S165.9,395.9,165.9,394.7z"/>
	<path fill="#363636" d="M175.3,397.6v-3.9c0-0.7-0.3-1.2-1.1-1.2c-0.6,0-1.2,0.4-1.5,0.9v4.2h-0.9v-3.9c0-0.7-0.3-1.2-1.1-1.2
		c-0.6,0-1.2,0.4-1.5,0.9v4.2h-0.9v-5.8h0.9v0.8c0.3-0.4,1-1,1.9-1c0.9,0,1.4,0.5,1.5,1.1c0.3-0.5,1.1-1.1,1.9-1.1
		c1.1,0,1.6,0.6,1.6,1.8v4.2H175.3z"/>
	<path fill="#363636" d="M178.9,396.7v3.1H178v-8h0.9v0.9c0.4-0.6,1.1-1,2-1c1.5,0,2.6,1.2,2.6,3c0,1.9-1.1,3-2.6,3
		C180.1,397.7,179.4,397.3,178.9,396.7z M182.5,394.7c0-1.3-0.7-2.2-1.9-2.2c-0.7,0-1.4,0.4-1.7,0.9v2.6c0.3,0.5,1,0.9,1.7,0.9
		C181.8,396.9,182.5,396,182.5,394.7z"/>
	<path fill="#363636" d="M184.6,394.7c0-1.7,1.1-3,2.9-3s2.9,1.4,2.9,3s-1.1,3-2.9,3S184.6,396.4,184.6,394.7z M189.3,394.7
		c0-1.2-0.7-2.2-1.9-2.2s-1.9,1.1-1.9,2.2c0,1.2,0.7,2.2,1.9,2.2S189.3,395.9,189.3,394.7z"/>
	<path fill="#363636" d="M191.3,396.8l0.5-0.6c0.4,0.4,1.1,0.8,1.9,0.8c0.9,0,1.4-0.4,1.4-1c0-1.4-3.6-0.5-3.6-2.7
		c0-0.9,0.8-1.7,2.1-1.7c1,0,1.7,0.4,2.1,0.8l-0.4,0.6c-0.3-0.4-1-0.7-1.7-0.7c-0.8,0-1.3,0.4-1.3,0.9c0,1.3,3.6,0.4,3.6,2.7
		c0,1-0.8,1.8-2.3,1.8C192.6,397.7,191.9,397.4,191.3,396.8z"/>
	<path fill="#363636" d="M197.5,396.4v-3.8h-1v-0.8h1v-1.6h0.9v1.6h1.2v0.8h-1.2v3.6c0,0.4,0.2,0.7,0.6,0.7c0.3,0,0.5-0.1,0.6-0.3
		l0.3,0.7c-0.2,0.2-0.6,0.4-1.1,0.4C198,397.7,197.5,397.2,197.5,396.4z"/>
	<path fill="#363636" d="M200.5,394.7c0-1.7,1.1-3,2.9-3s2.9,1.4,2.9,3s-1.1,3-2.9,3S200.5,396.4,200.5,394.7z M205.3,394.7
		c0-1.2-0.7-2.2-1.9-2.2s-1.9,1.1-1.9,2.2c0,1.2,0.7,2.2,1.9,2.2S205.3,395.9,205.3,394.7z"/>
	<path fill="#363636" d="M211.7,396.7v3.1h-0.9v-8h0.9v0.9c0.4-0.6,1.1-1,2-1c1.5,0,2.6,1.2,2.6,3c0,1.9-1.1,3-2.6,3
		C212.9,397.7,212.2,397.3,211.7,396.7z M215.3,394.7c0-1.3-0.7-2.2-1.9-2.2c-0.7,0-1.4,0.4-1.7,0.9v2.6c0.3,0.5,1,0.9,1.7,0.9
		C214.6,396.9,215.3,396,215.3,394.7z"/>
	<path fill="#363636" d="M217.4,394.7c0-1.7,1.1-3,2.9-3s2.9,1.4,2.9,3s-1.1,3-2.9,3S217.4,396.4,217.4,394.7z M222.2,394.7
		c0-1.2-0.7-2.2-1.9-2.2s-1.9,1.1-1.9,2.2c0,1.2,0.7,2.2,1.9,2.2S222.2,395.9,222.2,394.7z"/>
	<path fill="#363636" d="M224.6,397.6v-5.8h0.9v0.9c0.5-0.6,1.1-1.1,1.9-1.1v0.9c-0.1,0-0.2,0-0.3,0c-0.6,0-1.3,0.5-1.6,0.9v4.1
		H224.6z"/>
	<path fill="#363636" d="M231.3,393.6c0-2.2,1-4.1,3.3-4.1c1,0,1.7,0.4,2.2,1l-0.5,0.7c-0.4-0.5-0.9-0.8-1.7-0.8
		c-1.6,0-2.3,1.6-2.3,3.1c0,0.1,0,0.2,0,0.3c0.3-0.6,1.2-1.2,2.3-1.2c1.4,0,2.6,0.9,2.6,2.6c0,1.4-1.1,2.6-2.8,2.6
		C232.2,397.7,231.3,395.8,231.3,393.6z M236.2,395.2c0-1.2-0.8-1.7-1.8-1.7c-0.8,0-1.6,0.5-2,1.2c0.1,1,0.6,2.2,2,2.2
		C235.6,396.8,236.2,395.9,236.2,395.2z"/>
	<path fill="#363636" d="M238.5,397.6v-0.8c2.9-2.3,4.4-3.6,4.4-5c0-1-0.9-1.5-1.7-1.5c-1,0-1.7,0.4-2.2,1l-0.6-0.6
		c0.6-0.8,1.7-1.3,2.8-1.3c1.3,0,2.7,0.8,2.7,2.4c0,1.6-1.7,3.1-3.9,4.9h3.9v0.9H238.5z"/>
	<path fill="#363636" d="M246,399.1l-0.5-0.4c0.4-0.3,0.7-0.7,0.8-1.1c0,0-0.1,0-0.2,0c-0.3,0-0.6-0.3-0.6-0.6s0.3-0.6,0.6-0.6
		c0.4,0,0.8,0.3,0.8,0.9C247,398,246.6,398.7,246,399.1z"/>
	<path fill="#363636" d="M251.8,397.6v-2H248v-0.8l3.4-5.1h1.4v5.1h1.1v0.9h-1.1v2H251.8z M251.8,390.5l-2.8,4.2h2.8V390.5z"/>
	<path fill="#363636" d="M265.3,397.6v-3.9c0-0.7-0.3-1.2-1.1-1.2c-0.6,0-1.2,0.4-1.5,0.9v4.2h-0.9v-3.9c0-0.7-0.3-1.2-1.1-1.2
		c-0.6,0-1.2,0.4-1.5,0.9v4.2h-0.9v-5.8h0.9v0.8c0.3-0.4,1-1,1.9-1c0.9,0,1.4,0.5,1.5,1.1c0.3-0.5,1.1-1.1,1.9-1.1
		c1.1,0,1.6,0.6,1.6,1.8v4.2H265.3z"/>
	<path fill="#363636" d="M267.9,390.4c0-0.3,0.3-0.6,0.6-0.6c0.3,0,0.6,0.3,0.6,0.6s-0.3,0.6-0.6,0.6
		C268.2,391,267.9,390.7,267.9,390.4z M268,397.6v-5.8h0.9v5.8H268z"/>
	<path fill="#363636" d="M270.7,397.6v-8h0.9v8H270.7z"/>
	<path fill="#363636" d="M277.4,397.6v-3.8c0-1-0.5-1.3-1.3-1.3c-0.7,0-1.4,0.4-1.7,0.9v4.2h-0.9v-8h0.9v3c0.4-0.5,1.2-1,2.1-1
		c1.2,0,1.8,0.6,1.8,1.8v4.1H277.4z"/>
	<path fill="#363636" d="M279.7,394.7c0-1.7,1.1-3,2.9-3s2.9,1.4,2.9,3s-1.1,3-2.9,3S279.7,396.4,279.7,394.7z M284.5,394.7
		c0-1.2-0.7-2.2-1.9-2.2s-1.9,1.1-1.9,2.2c0,1.2,0.7,2.2,1.9,2.2S284.5,395.9,284.5,394.7z M281.8,389.8c-0.3,0-0.6,0.3-0.6,1h-0.5
		c0-0.9,0.4-1.6,1.2-1.6c0.9,0,0.9,1.1,1.5,1.1c0.3,0,0.6-0.3,0.6-1h0.5c0,0.9-0.4,1.6-1.2,1.6C282.5,390.9,282.4,389.8,281.8,389.8
		z"/>
	<path fill="#363636" d="M286.6,394.7c0-1.7,1.2-3,2.9-3c1.8,0,2.8,1.4,2.8,3.1v0.2h-4.7c0.1,1.1,0.8,2,2.1,2c0.7,0,1.3-0.3,1.8-0.7
		l0.4,0.6c-0.6,0.6-1.4,0.9-2.3,0.9C287.8,397.7,286.6,396.5,286.6,394.7z M289.4,392.4c-1.2,0-1.8,1-1.9,1.9h3.8
		C291.3,393.5,290.8,392.4,289.4,392.4z"/>
	<path fill="#363636" d="M293.2,396.8l0.5-0.6c0.4,0.4,1.1,0.8,1.9,0.8c0.9,0,1.4-0.4,1.4-1c0-1.4-3.6-0.5-3.6-2.7
		c0-0.9,0.8-1.7,2.1-1.7c1,0,1.7,0.4,2.1,0.8l-0.4,0.6c-0.3-0.4-1-0.7-1.7-0.7c-0.8,0-1.3,0.4-1.3,0.9c0,1.3,3.6,0.4,3.6,2.7
		c0,1-0.8,1.8-2.3,1.8C294.6,397.7,293.8,397.4,293.2,396.8z"/>
	<path fill="#363636" d="M306.6,397.6v-0.9c-0.4,0.6-1.1,1-2,1c-1.5,0-2.6-1.2-2.6-3c0-1.9,1.1-3,2.6-3c0.8,0,1.5,0.4,2,1v-3.1h0.9
		v8H306.6z M306.6,396v-2.6c-0.3-0.5-1-0.9-1.7-0.9c-1.2,0-1.9,1-1.9,2.2s0.7,2.2,1.9,2.2C305.6,396.9,306.3,396.5,306.6,396z"/>
	<path fill="#363636" d="M308.9,394.7c0-1.7,1.2-3,2.9-3c1.8,0,2.8,1.4,2.8,3.1v0.2h-4.7c0.1,1.1,0.8,2,2.1,2c0.7,0,1.3-0.3,1.8-0.7
		l0.4,0.6c-0.6,0.6-1.4,0.9-2.3,0.9C310.2,397.7,308.9,396.5,308.9,394.7z M311.8,392.4c-1.2,0-1.8,1-1.9,1.9h3.8
		C313.7,393.5,313.1,392.4,311.8,392.4z"/>
	<path fill="#363636" d="M319.3,396.4v-3.8h-1v-0.8h1v-1.6h0.9v1.6h1.2v0.8h-1.2v3.6c0,0.4,0.2,0.7,0.6,0.7c0.3,0,0.5-0.1,0.6-0.3
		l0.3,0.7c-0.2,0.2-0.6,0.4-1.1,0.4C319.8,397.7,319.3,397.2,319.3,396.4z"/>
	<path fill="#363636" d="M322.7,397.6v-5.8h0.9v0.9c0.5-0.6,1.1-1.1,1.9-1.1v0.9c-0.1,0-0.2,0-0.3,0c-0.6,0-1.3,0.5-1.6,0.9v4.1
		H322.7z"/>
	<path fill="#363636" d="M330.2,397.6v-0.7c-0.5,0.5-1.1,0.8-1.9,0.8c-1,0-2-0.7-2-1.9c0-1.3,1-1.9,2-1.9c0.8,0,1.5,0.3,1.9,0.8v-1
		c0-0.8-0.6-1.2-1.5-1.2c-0.7,0-1.3,0.2-1.8,0.8l-0.4-0.6c0.6-0.6,1.4-1,2.3-1c1.2,0,2.2,0.6,2.2,2v4H330.2z M330.2,396.4v-1.1
		c-0.3-0.5-1-0.7-1.6-0.7c-0.9,0-1.4,0.5-1.4,1.3c0,0.7,0.6,1.3,1.4,1.3C329.3,397.1,329.9,396.8,330.2,396.4z"/>
	<path fill="#363636" d="M333.1,396.4v-3.8h-1v-0.8h1v-1.6h0.9v1.6h1.2v0.8h-1.2v3.6c0,0.4,0.2,0.7,0.6,0.7c0.3,0,0.5-0.1,0.6-0.3
		l0.3,0.7c-0.2,0.2-0.6,0.4-1.1,0.4C333.6,397.7,333.1,397.2,333.1,396.4z"/>
	<path fill="#363636" d="M340.1,397.6v-0.7c-0.5,0.5-1.1,0.8-1.9,0.8c-1,0-2-0.7-2-1.9c0-1.3,1-1.9,2-1.9c0.8,0,1.5,0.3,1.9,0.8v-1
		c0-0.8-0.6-1.2-1.5-1.2c-0.7,0-1.3,0.2-1.8,0.8l-0.4-0.6c0.6-0.6,1.4-1,2.3-1c1.2,0,2.2,0.6,2.2,2v4H340.1z M340.1,396.4v-1.1
		c-0.3-0.5-1-0.7-1.6-0.7c-0.9,0-1.4,0.5-1.4,1.3c0,0.7,0.6,1.3,1.4,1.3C339.2,397.1,339.8,396.8,340.1,396.4z"/>
	<path fill="#363636" d="M349.8,397.6v-3.9c0-0.7-0.3-1.2-1.1-1.2c-0.6,0-1.2,0.4-1.5,0.9v4.2h-0.9v-3.9c0-0.7-0.3-1.2-1.1-1.2
		c-0.6,0-1.2,0.4-1.5,0.9v4.2h-0.9v-5.8h0.9v0.8c0.3-0.4,1-1,1.9-1c0.9,0,1.4,0.5,1.5,1.1c0.3-0.5,1.1-1.1,1.9-1.1
		c1.1,0,1.6,0.6,1.6,1.8v4.2H349.8z"/>
	<path fill="#363636" d="M352.2,394.7c0-1.7,1.2-3,2.9-3c1.8,0,2.8,1.4,2.8,3.1v0.2h-4.7c0.1,1.1,0.8,2,2.1,2c0.7,0,1.3-0.3,1.8-0.7
		l0.4,0.6c-0.6,0.6-1.4,0.9-2.3,0.9C353.4,397.7,352.2,396.5,352.2,394.7z M355,392.4c-1.2,0-1.8,1-1.9,1.9h3.8
		C356.9,393.5,356.3,392.4,355,392.4z"/>
	<path fill="#363636" d="M363.2,397.6v-3.8c0-1-0.5-1.3-1.3-1.3c-0.7,0-1.4,0.4-1.7,0.9v4.2h-0.9v-5.8h0.9v0.8c0.4-0.5,1.2-1,2.1-1
		c1.2,0,1.8,0.6,1.8,1.9v4.1H363.2z"/>
	<path fill="#363636" d="M366.1,396.4v-3.8h-1v-0.8h1v-1.6h0.9v1.6h1.2v0.8H367v3.6c0,0.4,0.2,0.7,0.6,0.7c0.3,0,0.5-0.1,0.6-0.3
		l0.3,0.7c-0.2,0.2-0.6,0.4-1.1,0.4C366.5,397.7,366.1,397.2,366.1,396.4z"/>
	<path fill="#363636" d="M369.1,394.7c0-1.7,1.1-3,2.9-3c1.8,0,2.9,1.4,2.9,3s-1.1,3-2.9,3C370.2,397.7,369.1,396.4,369.1,394.7z
		 M373.9,394.7c0-1.2-0.7-2.2-1.9-2.2c-1.2,0-1.9,1.1-1.9,2.2c0,1.2,0.7,2.2,1.9,2.2C373.2,396.9,373.9,395.9,373.9,394.7z"/>
	<path fill="#363636" d="M375.8,396.8l0.5-0.6c0.4,0.4,1.1,0.8,1.9,0.8c0.9,0,1.4-0.4,1.4-1c0-1.4-3.6-0.5-3.6-2.7
		c0-0.9,0.8-1.7,2.1-1.7c1,0,1.7,0.4,2.1,0.8l-0.4,0.6c-0.3-0.4-1-0.7-1.7-0.7c-0.8,0-1.3,0.4-1.3,0.9c0,1.3,3.6,0.4,3.6,2.7
		c0,1-0.8,1.8-2.3,1.8C377.2,397.7,376.4,397.4,375.8,396.8z"/>
	<path fill="#363636" d="M384.6,394.7c0-1.7,1.2-3,2.9-3c1.8,0,2.8,1.4,2.8,3.1v0.2h-4.7c0.1,1.1,0.8,2,2.1,2c0.7,0,1.3-0.3,1.8-0.7
		l0.4,0.6c-0.6,0.6-1.4,0.9-2.3,0.9C385.9,397.7,384.6,396.5,384.6,394.7z M387.5,392.4c-1.2,0-1.8,1-1.9,1.9h3.8
		C389.4,393.5,388.8,392.4,387.5,392.4z"/>
	<path fill="#363636" d="M395.7,397.6v-3.8c0-1-0.5-1.3-1.3-1.3c-0.7,0-1.4,0.4-1.7,0.9v4.2h-0.9v-5.8h0.9v0.8c0.4-0.5,1.2-1,2.1-1
		c1.2,0,1.8,0.6,1.8,1.9v4.1H395.7z"/>
	<path fill="#363636" d="M399.9,397.6l-2.4-5.8h1l1.9,4.8l1.9-4.8h1l-2.4,5.8H399.9z"/>
	<path fill="#363636" d="M404.1,390.4c0-0.3,0.3-0.6,0.6-0.6s0.6,0.3,0.6,0.6s-0.3,0.6-0.6,0.6S404.1,390.7,404.1,390.4z
		 M404.2,397.6v-5.8h0.9v5.8H404.2z"/>
	<path fill="#363636" d="M410.6,397.6v-0.7c-0.5,0.5-1.1,0.8-1.9,0.8c-1,0-2-0.7-2-1.9c0-1.3,1-1.9,2-1.9c0.8,0,1.5,0.3,1.9,0.8v-1
		c0-0.8-0.6-1.2-1.5-1.2c-0.7,0-1.3,0.2-1.8,0.8l-0.4-0.6c0.6-0.6,1.4-1,2.3-1c1.2,0,2.2,0.6,2.2,2v4H410.6z M410.6,396.4v-1.1
		c-0.3-0.5-1-0.7-1.6-0.7c-0.9,0-1.4,0.5-1.4,1.3c0,0.7,0.6,1.3,1.4,1.3C409.6,397.1,410.2,396.8,410.6,396.4z"/>
	<path fill="#363636" d="M417.5,397.6v-0.9c-0.4,0.6-1.1,1-2,1c-1.5,0-2.6-1.2-2.6-3c0-1.9,1.1-3,2.6-3c0.8,0,1.5,0.4,2,1v-3.1h0.9
		v8H417.5z M417.5,396v-2.6c-0.3-0.5-1-0.9-1.7-0.9c-1.2,0-1.9,1-1.9,2.2s0.7,2.2,1.9,2.2C416.5,396.9,417.2,396.5,417.5,396z"/>
	<path fill="#363636" d="M419.8,394.7c0-1.7,1.1-3,2.9-3c1.8,0,2.9,1.4,2.9,3s-1.1,3-2.9,3C420.9,397.7,419.8,396.4,419.8,394.7z
		 M424.6,394.7c0-1.2-0.7-2.2-1.9-2.2c-1.2,0-1.9,1.1-1.9,2.2c0,1.2,0.7,2.2,1.9,2.2C423.9,396.9,424.6,395.9,424.6,394.7z"/>
	<path fill="#363636" d="M426.6,396.8l0.5-0.6c0.4,0.4,1.1,0.8,1.9,0.8c0.9,0,1.4-0.4,1.4-1c0-1.4-3.6-0.5-3.6-2.7
		c0-0.9,0.8-1.7,2.1-1.7c1,0,1.7,0.4,2.1,0.8l-0.4,0.6c-0.3-0.4-1-0.7-1.7-0.7c-0.8,0-1.3,0.4-1.3,0.9c0,1.3,3.6,0.4,3.6,2.7
		c0,1-0.8,1.8-2.3,1.8C427.9,397.7,427.1,397.4,426.6,396.8z"/>
	<path fill="#363636" d="M439.7,397.6v-3.8c0-1-0.5-1.3-1.3-1.3c-0.7,0-1.4,0.4-1.7,0.9v4.2h-0.9v-5.8h0.9v0.8c0.4-0.5,1.2-1,2.1-1
		c1.2,0,1.8,0.6,1.8,1.9v4.1H439.7z"/>
	<path fill="#363636" d="M442,394.7c0-1.7,1.1-3,2.9-3c1.8,0,2.9,1.4,2.9,3s-1.1,3-2.9,3C443.1,397.7,442,396.4,442,394.7z
		 M446.8,394.7c0-1.2-0.7-2.2-1.9-2.2c-1.2,0-1.9,1.1-1.9,2.2c0,1.2,0.7,2.2,1.9,2.2C446.1,396.9,446.8,395.9,446.8,394.7z"/>
	<path fill="#363636" d="M455.9,397.6v-0.7c-0.5,0.5-1.1,0.8-1.9,0.8c-1,0-2-0.7-2-1.9c0-1.3,1-1.9,2-1.9c0.8,0,1.5,0.3,1.9,0.8v-1
		c0-0.8-0.6-1.2-1.5-1.2c-0.7,0-1.3,0.2-1.8,0.8l-0.4-0.6c0.6-0.6,1.4-1,2.3-1c1.2,0,2.2,0.6,2.2,2v4H455.9z M455.9,396.4v-1.1
		c-0.3-0.5-1-0.7-1.6-0.7c-0.9,0-1.4,0.5-1.4,1.3c0,0.7,0.6,1.3,1.4,1.3C455,397.1,455.6,396.8,455.9,396.4z"/>
	<path fill="#363636" d="M462.6,397.6v-3.8c0-1-0.5-1.3-1.3-1.3c-0.7,0-1.4,0.4-1.7,0.9v4.2h-0.9v-5.8h0.9v0.8c0.4-0.5,1.2-1,2.1-1
		c1.2,0,1.8,0.6,1.8,1.9v4.1H462.6z"/>
	<path fill="#363636" d="M465,394.7c0-1.7,1.1-3,2.9-3c1.8,0,2.9,1.4,2.9,3s-1.1,3-2.9,3C466.1,397.7,465,396.4,465,394.7z
		 M469.7,394.7c0-1.2-0.7-2.2-1.9-2.2c-1.2,0-1.9,1.1-1.9,2.2c0,1.2,0.7,2.2,1.9,2.2C469.1,396.9,469.7,395.9,469.7,394.7z"/>
	<path fill="#363636" d="M474.9,394.7c0-1.7,1.2-3,2.9-3c1.1,0,1.7,0.4,2.1,1l-0.6,0.5c-0.4-0.5-0.9-0.7-1.5-0.7c-1.2,0-2,0.9-2,2.2
		s0.8,2.2,2,2.2c0.6,0,1.1-0.2,1.5-0.8l0.6,0.6c-0.4,0.6-1.1,1-2.1,1C476.1,397.7,474.9,396.4,474.9,394.7z"/>
	<path fill="#363636" d="M481.1,390.4c0-0.3,0.3-0.6,0.6-0.6s0.6,0.3,0.6,0.6s-0.3,0.6-0.6,0.6S481.1,390.7,481.1,390.4z
		 M481.2,397.6v-5.8h0.9v5.8H481.2z"/>
	<path fill="#363636" d="M485.5,397.6l-2.4-5.8h1l1.9,4.8l1.9-4.8h1l-2.4,5.8H485.5z"/>
	<path fill="#363636" d="M489.6,390.4c0-0.3,0.3-0.6,0.6-0.6s0.6,0.3,0.6,0.6s-0.3,0.6-0.6,0.6S489.6,390.7,489.6,390.4z
		 M489.8,397.6v-5.8h0.9v5.8H489.8z"/>
	<path fill="#363636" d="M492.5,397.6v-8h0.9v8H492.5z"/>
	<path fill="#363636" d="M502.5,397.6v-0.9c-0.4,0.6-1.1,1-2,1c-1.5,0-2.6-1.2-2.6-3c0-1.9,1.1-3,2.6-3c0.8,0,1.5,0.4,2,1v-3.1h0.9
		v8H502.5z M502.5,396v-2.6c-0.3-0.5-1-0.9-1.7-0.9c-1.2,0-1.9,1-1.9,2.2s0.7,2.2,1.9,2.2C501.5,396.9,502.2,396.5,502.5,396z"/>
	<path fill="#363636" d="M504.9,394.7c0-1.7,1.2-3,2.9-3c1.8,0,2.8,1.4,2.8,3.1v0.2h-4.7c0.1,1.1,0.8,2,2.1,2c0.7,0,1.3-0.3,1.8-0.7
		l0.4,0.6c-0.6,0.6-1.4,0.9-2.3,0.9C506.1,397.7,504.9,396.5,504.9,394.7z M507.7,392.4c-1.2,0-1.8,1-1.9,1.9h3.8
		C509.6,393.5,509,392.4,507.7,392.4z"/>
	<path fill="#363636" d="M514.8,397.6v-0.8c2.9-2.3,4.4-3.6,4.4-5c0-1-0.9-1.5-1.7-1.5c-1,0-1.7,0.4-2.2,1l-0.6-0.6
		c0.6-0.8,1.7-1.3,2.8-1.3c1.3,0,2.7,0.8,2.7,2.4c0,1.6-1.7,3.1-3.9,4.9h3.9v0.9H514.8z"/>
	<path fill="#363636" d="M521.8,393.6c0-2,0.9-4.1,3.1-4.1c2.2,0,3.1,2.2,3.1,4.1c0,1.9-0.9,4.1-3.1,4.1
		C522.7,397.7,521.8,395.5,521.8,393.6z M526.9,393.6c0-1.6-0.5-3.2-2-3.2s-2,1.6-2,3.2c0,1.6,0.5,3.3,2,3.3
		S526.9,395.2,526.9,393.6z"/>
	<path fill="#363636" d="M530.7,397.6v-6.7l-1.3,1.4l-0.6-0.6l2-2.1h0.9v8H530.7z"/>
	<path fill="#363636" d="M533.4,396.5l0.6-0.7c0.5,0.7,1.2,1.1,2.2,1.1c1.1,0,1.8-0.7,1.8-1.7c0-1.1-0.8-1.7-1.8-1.7
		c-0.7,0-1.3,0.2-1.8,0.7l-0.7-0.3v-4.3h4.9v0.9h-3.9v2.8c0.4-0.4,1.1-0.7,1.9-0.7c1.3,0,2.6,0.9,2.6,2.6c0,1.6-1.2,2.6-2.9,2.6
		C534.9,397.7,534,397.2,533.4,396.5z"/>
	<path fill="#363636" d="M540.8,399.1l-0.5-0.4c0.4-0.3,0.7-0.7,0.8-1.1c0,0-0.1,0-0.2,0c-0.3,0-0.6-0.3-0.6-0.6s0.3-0.6,0.6-0.6
		c0.4,0,0.8,0.3,0.8,0.9C541.8,398,541.4,398.7,540.8,399.1z"/>
	<path fill="#363636" d="M546.1,394.7c0-1.7,1.2-3,2.9-3c1.8,0,2.8,1.4,2.8,3.1v0.2h-4.7c0.1,1.1,0.8,2,2.1,2c0.7,0,1.3-0.3,1.8-0.7
		l0.4,0.6c-0.6,0.6-1.4,0.9-2.3,0.9C547.4,397.7,546.1,396.5,546.1,394.7z M549,392.4c-1.2,0-1.8,1-1.9,1.9h3.8
		C550.9,393.5,550.3,392.4,549,392.4z"/>
	<path fill="#363636" d="M557.6,397.6v-6.7l-1.3,1.4l-0.6-0.6l2-2.1h0.9v8H557.6z"/>
	<path fill="#363636" d="M560.2,397.6v-0.8c2.9-2.3,4.5-3.6,4.5-5c0-1-0.9-1.5-1.7-1.5c-1,0-1.7,0.4-2.2,1l-0.6-0.6
		c0.6-0.8,1.7-1.3,2.8-1.3c1.3,0,2.7,0.8,2.7,2.4c0,1.6-1.7,3.1-3.9,4.9h3.9v0.9H560.2z"/>
	<path fill="#363636" d="M567.2,393.6c0-2,0.9-4.1,3.1-4.1c2.2,0,3.1,2.2,3.1,4.1c0,1.9-0.9,4.1-3.1,4.1
		C568,397.7,567.2,395.5,567.2,393.6z M572.3,393.6c0-1.6-0.5-3.2-2-3.2s-2,1.6-2,3.2c0,1.6,0.5,3.3,2,3.3S572.3,395.2,572.3,393.6z
		"/>
	<path fill="#363636" d="M10.7,411.6v-3.9c0-0.7-0.3-1.2-1.1-1.2c-0.6,0-1.2,0.4-1.5,0.9v4.2H7.2v-3.9c0-0.7-0.3-1.2-1.1-1.2
		c-0.6,0-1.2,0.4-1.5,0.9v4.2H3.7v-5.8h0.9v0.8c0.3-0.4,1-1,1.9-1c0.9,0,1.4,0.5,1.5,1.1c0.3-0.5,1.1-1.1,1.9-1.1
		c1.1,0,1.6,0.6,1.6,1.8v4.2H10.7z"/>
	<path fill="#363636" d="M13.3,404.4c0-0.3,0.3-0.6,0.6-0.6c0.3,0,0.6,0.3,0.6,0.6s-0.3,0.6-0.6,0.6C13.5,405,13.3,404.7,13.3,404.4
		z M13.4,411.6v-5.8h0.9v5.8H13.4z"/>
	<path fill="#363636" d="M16.1,411.6v-8H17v8H16.1z"/>
	<path fill="#363636" d="M22.7,411.6v-3.8c0-1-0.5-1.3-1.3-1.3c-0.7,0-1.4,0.4-1.7,0.9v4.2h-0.9v-8h0.9v3c0.4-0.5,1.2-1,2.1-1
		c1.2,0,1.8,0.6,1.8,1.8v4.1H22.7z"/>
	<path fill="#363636" d="M25.1,408.7c0-1.7,1.1-3,2.9-3s2.9,1.4,2.9,3s-1.1,3-2.9,3S25.1,410.4,25.1,408.7z M29.9,408.7
		c0-1.2-0.7-2.2-1.9-2.2s-1.9,1.1-1.9,2.2c0,1.2,0.7,2.2,1.9,2.2S29.9,409.9,29.9,408.7z M27.2,403.8c-0.3,0-0.6,0.3-0.6,1h-0.5
		c0-0.9,0.4-1.6,1.2-1.6c0.9,0,0.9,1.1,1.5,1.1c0.3,0,0.6-0.3,0.6-1h0.5c0,0.9-0.4,1.6-1.2,1.6C27.8,404.9,27.8,403.8,27.2,403.8z"
		/>
	<path fill="#363636" d="M32,408.7c0-1.7,1.2-3,2.9-3c1.8,0,2.8,1.4,2.8,3.1v0.2h-4.7c0.1,1.1,0.8,2,2.1,2c0.7,0,1.3-0.3,1.8-0.7
		l0.4,0.6c-0.6,0.6-1.4,0.9-2.3,0.9C33.2,411.7,32,410.5,32,408.7z M34.8,406.4c-1.2,0-1.8,1-1.9,1.9h3.8
		C36.7,407.5,36.1,406.4,34.8,406.4z"/>
	<path fill="#363636" d="M38.6,410.8l0.5-0.6c0.4,0.4,1.1,0.8,1.9,0.8c0.9,0,1.4-0.4,1.4-1c0-1.4-3.6-0.5-3.6-2.7
		c0-0.9,0.8-1.7,2.1-1.7c1,0,1.7,0.4,2.1,0.8l-0.4,0.6c-0.3-0.4-1-0.7-1.7-0.7c-0.8,0-1.3,0.4-1.3,0.9c0,1.3,3.6,0.4,3.6,2.7
		c0,1-0.8,1.8-2.3,1.8C39.9,411.7,39.1,411.4,38.6,410.8z"/>
	<path fill="#363636" d="M51.9,411.6v-0.9c-0.4,0.6-1.1,1-2,1c-1.5,0-2.6-1.2-2.6-3c0-1.9,1.1-3,2.6-3c0.8,0,1.5,0.4,2,1v-3.1h0.9v8
		H51.9z M51.9,410v-2.6c-0.3-0.5-1-0.9-1.7-0.9c-1.2,0-1.9,1-1.9,2.2s0.7,2.2,1.9,2.2C50.9,410.9,51.6,410.5,51.9,410z"/>
	<path fill="#363636" d="M54.3,408.7c0-1.7,1.2-3,2.9-3c1.8,0,2.8,1.4,2.8,3.1v0.2h-4.7c0.1,1.1,0.8,2,2.1,2c0.7,0,1.3-0.3,1.8-0.7
		l0.4,0.6c-0.6,0.6-1.4,0.9-2.3,0.9C55.5,411.7,54.3,410.5,54.3,408.7z M57.1,406.4c-1.2,0-1.8,1-1.9,1.9h3.8
		C59,407.5,58.5,406.4,57.1,406.4z"/>
	<path fill="#363636" d="M64.7,410.4v-3.8h-1v-0.8h1v-1.6h0.9v1.6h1.2v0.8h-1.2v3.6c0,0.4,0.2,0.7,0.6,0.7c0.3,0,0.5-0.1,0.6-0.3
		l0.3,0.7c-0.2,0.2-0.6,0.4-1.1,0.4C65.1,411.7,64.7,411.2,64.7,410.4z"/>
	<path fill="#363636" d="M68,411.6v-5.8h0.9v0.9c0.5-0.6,1.1-1.1,1.9-1.1v0.9c-0.1,0-0.2,0-0.3,0c-0.6,0-1.3,0.5-1.6,0.9v4.1H68z"/>
	<path fill="#363636" d="M75.6,411.6v-0.7c-0.5,0.5-1.1,0.8-1.9,0.8c-1,0-2-0.7-2-1.9c0-1.3,1-1.9,2-1.9c0.8,0,1.5,0.3,1.9,0.8v-1
		c0-0.8-0.6-1.2-1.5-1.2c-0.7,0-1.3,0.2-1.8,0.8l-0.4-0.6c0.6-0.6,1.4-1,2.3-1c1.2,0,2.2,0.6,2.2,2v4H75.6z M75.6,410.4v-1.1
		c-0.3-0.5-1-0.7-1.6-0.7c-0.9,0-1.4,0.5-1.4,1.3c0,0.7,0.6,1.3,1.4,1.3C74.7,411.1,75.3,410.8,75.6,410.4z"/>
	<path fill="#363636" d="M78.5,410.4v-3.8h-1v-0.8h1v-1.6h0.9v1.6h1.2v0.8h-1.2v3.6c0,0.4,0.2,0.7,0.6,0.7c0.3,0,0.5-0.1,0.6-0.3
		l0.3,0.7c-0.2,0.2-0.6,0.4-1.1,0.4C78.9,411.7,78.5,411.2,78.5,410.4z"/>
	<path fill="#363636" d="M85.5,411.6v-0.7c-0.5,0.5-1.1,0.8-1.9,0.8c-1,0-2-0.7-2-1.9c0-1.3,1-1.9,2-1.9c0.8,0,1.5,0.3,1.9,0.8v-1
		c0-0.8-0.6-1.2-1.5-1.2c-0.7,0-1.3,0.2-1.8,0.8l-0.4-0.6c0.6-0.6,1.4-1,2.3-1c1.2,0,2.2,0.6,2.2,2v4H85.5z M85.5,410.4v-1.1
		c-0.3-0.5-1-0.7-1.6-0.7c-0.9,0-1.4,0.5-1.4,1.3c0,0.7,0.6,1.3,1.4,1.3C84.5,411.1,85.1,410.8,85.5,410.4z"/>
	<path fill="#363636" d="M95.2,411.6v-3.9c0-0.7-0.3-1.2-1.1-1.2c-0.6,0-1.2,0.4-1.5,0.9v4.2h-0.9v-3.9c0-0.7-0.3-1.2-1.1-1.2
		c-0.6,0-1.2,0.4-1.5,0.9v4.2h-0.9v-5.8h0.9v0.8c0.3-0.4,1-1,1.9-1c0.9,0,1.4,0.5,1.5,1.1c0.3-0.5,1.1-1.1,1.9-1.1
		c1.1,0,1.6,0.6,1.6,1.8v4.2H95.2z"/>
	<path fill="#363636" d="M97.6,408.7c0-1.7,1.2-3,2.9-3c1.8,0,2.8,1.4,2.8,3.1v0.2h-4.7c0.1,1.1,0.8,2,2.1,2c0.7,0,1.3-0.3,1.8-0.7
		l0.4,0.6c-0.6,0.6-1.4,0.9-2.3,0.9C98.8,411.7,97.6,410.5,97.6,408.7z M100.4,406.4c-1.2,0-1.8,1-1.9,1.9h3.8
		C102.3,407.5,101.7,406.4,100.4,406.4z"/>
	<path fill="#363636" d="M108.6,411.6v-3.8c0-1-0.5-1.3-1.3-1.3c-0.7,0-1.4,0.4-1.7,0.9v4.2h-0.9v-5.8h0.9v0.8c0.4-0.5,1.2-1,2.1-1
		c1.2,0,1.8,0.6,1.8,1.9v4.1H108.6z"/>
	<path fill="#363636" d="M111.4,410.4v-3.8h-1v-0.8h1v-1.6h0.9v1.6h1.2v0.8h-1.2v3.6c0,0.4,0.2,0.7,0.6,0.7c0.3,0,0.5-0.1,0.6-0.3
		l0.3,0.7c-0.2,0.2-0.6,0.4-1.1,0.4C111.9,411.7,111.4,411.2,111.4,410.4z"/>
	<path fill="#363636" d="M114.5,408.7c0-1.7,1.1-3,2.9-3s2.9,1.4,2.9,3s-1.1,3-2.9,3S114.5,410.4,114.5,408.7z M119.2,408.7
		c0-1.2-0.7-2.2-1.9-2.2s-1.9,1.1-1.9,2.2c0,1.2,0.7,2.2,1.9,2.2S119.2,409.9,119.2,408.7z"/>
	<path fill="#363636" d="M121.2,410.8l0.5-0.6c0.4,0.4,1.1,0.8,1.9,0.8c0.9,0,1.4-0.4,1.4-1c0-1.4-3.6-0.5-3.6-2.7
		c0-0.9,0.8-1.7,2.1-1.7c1,0,1.7,0.4,2.1,0.8l-0.4,0.6c-0.3-0.4-1-0.7-1.7-0.7c-0.8,0-1.3,0.4-1.3,0.9c0,1.3,3.6,0.4,3.6,2.7
		c0,1-0.8,1.8-2.3,1.8C122.5,411.7,121.8,411.4,121.2,410.8z"/>
	<path fill="#363636" d="M131.2,410.7v3.1h-0.9v-8h0.9v0.9c0.4-0.6,1.1-1,2-1c1.5,0,2.6,1.2,2.6,3c0,1.9-1.1,3-2.6,3
		C132.4,411.7,131.7,411.3,131.2,410.7z M134.8,408.7c0-1.3-0.7-2.2-1.9-2.2c-0.7,0-1.4,0.4-1.7,0.9v2.6c0.3,0.5,1,0.9,1.7,0.9
		C134.1,410.9,134.8,410,134.8,408.7z"/>
	<path fill="#363636" d="M137.2,411.6v-8h0.9v8H137.2z"/>
	<path fill="#363636" d="M143.5,411.6v-0.7c-0.5,0.5-1.1,0.8-1.9,0.8c-1,0-2-0.7-2-1.9c0-1.3,1-1.9,2-1.9c0.8,0,1.5,0.3,1.9,0.8v-1
		c0-0.8-0.6-1.2-1.5-1.2c-0.7,0-1.3,0.2-1.8,0.8l-0.4-0.6c0.6-0.6,1.4-1,2.3-1c1.2,0,2.2,0.6,2.2,2v4H143.5z M143.5,410.4v-1.1
		c-0.3-0.5-1-0.7-1.6-0.7c-0.9,0-1.4,0.5-1.4,1.3c0,0.7,0.6,1.3,1.4,1.3C142.6,411.1,143.2,410.8,143.5,410.4z"/>
	<path fill="#363636" d="M150.2,411.6v-3.8c0-1-0.5-1.3-1.3-1.3c-0.7,0-1.4,0.4-1.7,0.9v4.2h-0.9v-5.8h0.9v0.8c0.4-0.5,1.2-1,2.1-1
		c1.2,0,1.8,0.6,1.8,1.9v4.1H150.2z"/>
	<path fill="#363636" d="M152.5,408.7c0-1.7,1.2-3,2.9-3c1.8,0,2.8,1.4,2.8,3.1v0.2h-4.7c0.1,1.1,0.8,2,2.1,2c0.7,0,1.3-0.3,1.8-0.7
		l0.4,0.6c-0.6,0.6-1.4,0.9-2.3,0.9C153.8,411.7,152.5,410.5,152.5,408.7z M155.4,406.4c-1.2,0-1.8,1-1.9,1.9h3.8
		C157.3,407.5,156.7,406.4,155.4,406.4z"/>
	<path fill="#363636" d="M163.2,411.6v-0.7c-0.5,0.5-1.1,0.8-1.9,0.8c-1,0-2-0.7-2-1.9c0-1.3,1-1.9,2-1.9c0.8,0,1.5,0.3,1.9,0.8v-1
		c0-0.8-0.6-1.2-1.5-1.2c-0.7,0-1.3,0.2-1.8,0.8l-0.4-0.6c0.6-0.6,1.4-1,2.3-1c1.2,0,2.2,0.6,2.2,2v4H163.2z M163.2,410.4v-1.1
		c-0.3-0.5-1-0.7-1.6-0.7c-0.9,0-1.4,0.5-1.4,1.3c0,0.7,0.6,1.3,1.4,1.3C162.3,411.1,162.9,410.8,163.2,410.4z"/>
	<path fill="#363636" d="M170.2,411.6v-0.9c-0.4,0.6-1.1,1-2,1c-1.5,0-2.6-1.2-2.6-3c0-1.9,1.1-3,2.6-3c0.8,0,1.5,0.4,2,1v-3.1h0.9
		v8H170.2z M170.2,410v-2.6c-0.3-0.5-1-0.9-1.7-0.9c-1.2,0-1.9,1-1.9,2.2s0.7,2.2,1.9,2.2C169.1,410.9,169.8,410.5,170.2,410z"/>
	<path fill="#363636" d="M172.5,408.7c0-1.7,1.1-3,2.9-3s2.9,1.4,2.9,3s-1.1,3-2.9,3S172.5,410.4,172.5,408.7z M177.3,408.7
		c0-1.2-0.7-2.2-1.9-2.2s-1.9,1.1-1.9,2.2c0,1.2,0.7,2.2,1.9,2.2S177.3,409.9,177.3,408.7z"/>
	<path fill="#363636" d="M179.2,410.8l0.5-0.6c0.4,0.4,1.1,0.8,1.9,0.8c0.9,0,1.4-0.4,1.4-1c0-1.4-3.6-0.5-3.6-2.7
		c0-0.9,0.8-1.7,2.1-1.7c1,0,1.7,0.4,2.1,0.8l-0.4,0.6c-0.3-0.4-1-0.7-1.7-0.7c-0.8,0-1.3,0.4-1.3,0.9c0,1.3,3.6,0.4,3.6,2.7
		c0,1-0.8,1.8-2.3,1.8C180.6,411.7,179.8,411.4,179.2,410.8z"/>
	<path fill="#363636" d="M189.3,410.7v3.1h-0.9v-8h0.9v0.9c0.4-0.6,1.1-1,2-1c1.5,0,2.6,1.2,2.6,3c0,1.9-1.1,3-2.6,3
		C190.5,411.7,189.8,411.3,189.3,410.7z M192.9,408.7c0-1.3-0.7-2.2-1.9-2.2c-0.7,0-1.4,0.4-1.7,0.9v2.6c0.3,0.5,1,0.9,1.7,0.9
		C192.2,410.9,192.9,410,192.9,408.7z"/>
	<path fill="#363636" d="M198.9,411.6v-0.7c-0.5,0.5-1.1,0.8-1.9,0.8c-1,0-2-0.7-2-1.9c0-1.3,1-1.9,2-1.9c0.8,0,1.5,0.3,1.9,0.8v-1
		c0-0.8-0.6-1.2-1.5-1.2c-0.7,0-1.3,0.2-1.8,0.8l-0.4-0.6c0.6-0.6,1.4-1,2.3-1c1.2,0,2.2,0.6,2.2,2v4H198.9z M198.9,410.4v-1.1
		c-0.3-0.5-1-0.7-1.6-0.7c-0.9,0-1.4,0.5-1.4,1.3c0,0.7,0.6,1.3,1.4,1.3C197.9,411.1,198.6,410.8,198.9,410.4z"/>
	<path fill="#363636" d="M201.6,411.6v-5.8h0.9v0.9c0.5-0.6,1.1-1.1,1.9-1.1v0.9c-0.1,0-0.2,0-0.3,0c-0.6,0-1.3,0.5-1.6,0.9v4.1
		H201.6z"/>
	<path fill="#363636" d="M209.2,411.6v-0.7c-0.5,0.5-1.1,0.8-1.9,0.8c-1,0-2-0.7-2-1.9c0-1.3,1-1.9,2-1.9c0.8,0,1.5,0.3,1.9,0.8v-1
		c0-0.8-0.6-1.2-1.5-1.2c-0.7,0-1.3,0.2-1.8,0.8l-0.4-0.6c0.6-0.6,1.4-1,2.3-1c1.2,0,2.2,0.6,2.2,2v4H209.2z M209.2,410.4v-1.1
		c-0.3-0.5-1-0.7-1.6-0.7c-0.9,0-1.4,0.5-1.4,1.3c0,0.7,0.6,1.3,1.4,1.3C208.2,411.1,208.8,410.8,209.2,410.4z"/>
	<path fill="#363636" d="M214.8,411.6v-0.8c2.9-2.3,4.4-3.6,4.4-5c0-1-0.9-1.5-1.7-1.5c-1,0-1.7,0.4-2.2,1l-0.6-0.6
		c0.6-0.8,1.7-1.3,2.8-1.3c1.3,0,2.7,0.8,2.7,2.4c0,1.6-1.7,3.1-3.9,4.9h3.9v0.9H214.8z"/>
	<path fill="#363636" d="M221.8,407.6c0-2,0.9-4.1,3.1-4.1c2.2,0,3.1,2.2,3.1,4.1c0,1.9-0.9,4.1-3.1,4.1
		C222.6,411.7,221.8,409.5,221.8,407.6z M226.9,407.6c0-1.6-0.5-3.2-2-3.2c-1.5,0-2,1.6-2,3.2c0,1.6,0.5,3.3,2,3.3
		C226.4,410.8,226.9,409.2,226.9,407.6z"/>
	<path fill="#363636" d="M230.7,411.6v-6.7l-1.3,1.4l-0.6-0.6l2-2.1h0.9v8H230.7z"/>
	<path fill="#363636" d="M233.2,407.6c0-2.2,1-4.1,3.3-4.1c1,0,1.7,0.4,2.2,1l-0.5,0.7c-0.4-0.5-0.9-0.8-1.7-0.8
		c-1.6,0-2.3,1.6-2.3,3.1c0,0.1,0,0.2,0,0.3c0.3-0.6,1.2-1.2,2.3-1.2c1.4,0,2.6,0.9,2.6,2.6c0,1.4-1.1,2.6-2.8,2.6
		C234,411.7,233.2,409.8,233.2,407.6z M238.1,409.2c0-1.2-0.8-1.7-1.8-1.7c-0.8,0-1.6,0.5-2,1.2c0.1,1,0.6,2.2,2,2.2
		C237.5,410.8,238.1,409.9,238.1,409.2z"/>
	<path fill="#363636" d="M240.8,413.1l-0.5-0.4c0.4-0.3,0.7-0.7,0.8-1.1c0,0-0.1,0-0.2,0c-0.3,0-0.6-0.3-0.6-0.6s0.3-0.6,0.6-0.6
		c0.4,0,0.8,0.3,0.8,0.9C241.8,412,241.4,412.7,240.8,413.1z"/>
	<path fill="#363636" d="M250.6,411.6v-0.9c-0.4,0.6-1.1,1-2,1c-1.5,0-2.6-1.2-2.6-3c0-1.9,1.1-3,2.6-3c0.8,0,1.5,0.4,2,1v-3.1h0.9
		v8H250.6z M250.6,410v-2.6c-0.3-0.5-1-0.9-1.7-0.9c-1.2,0-1.9,1-1.9,2.2s0.7,2.2,1.9,2.2C249.6,410.9,250.3,410.5,250.6,410z"/>
	<path fill="#363636" d="M253,408.7c0-1.7,1.1-3,2.9-3s2.9,1.4,2.9,3s-1.1,3-2.9,3S253,410.4,253,408.7z M257.8,408.7
		c0-1.2-0.7-2.2-1.9-2.2s-1.9,1.1-1.9,2.2c0,1.2,0.7,2.2,1.9,2.2S257.8,409.9,257.8,408.7z"/>
	<path fill="#363636" d="M259.7,410.8l0.5-0.6c0.4,0.4,1.1,0.8,1.9,0.8c0.9,0,1.4-0.4,1.4-1c0-1.4-3.6-0.5-3.6-2.7
		c0-0.9,0.8-1.7,2.1-1.7c1,0,1.7,0.4,2.1,0.8l-0.4,0.6c-0.3-0.4-1-0.7-1.7-0.7c-0.8,0-1.3,0.4-1.3,0.9c0,1.3,3.6,0.4,3.6,2.7
		c0,1-0.8,1.8-2.3,1.8C261.1,411.7,260.3,411.4,259.7,410.8z"/>
	<path fill="#363636" d="M268.5,408.7c0-1.9,1.1-3,2.6-3c0.8,0,1.5,0.4,2,1v-0.9h0.9v8h-0.9v-3.1c-0.5,0.6-1.2,1-2,1
		C269.6,411.7,268.5,410.6,268.5,408.7z M273.1,410v-2.6c-0.3-0.5-1-0.9-1.7-0.9c-1.2,0-1.9,0.9-1.9,2.2s0.7,2.2,1.9,2.2
		C272,410.9,272.7,410.5,273.1,410z"/>
	<path fill="#363636" d="M279.7,411.6v-0.8c-0.4,0.5-1.2,1-2.1,1c-1.2,0-1.8-0.6-1.8-1.8v-4.1h0.9v3.8c0,1,0.5,1.3,1.3,1.3
		c0.7,0,1.4-0.4,1.7-0.9v-4.3h0.9v5.8H279.7z"/>
	<path fill="#363636" d="M286,411.6v-0.7c-0.5,0.5-1.1,0.8-1.9,0.8c-1,0-2-0.7-2-1.9c0-1.3,1-1.9,2-1.9c0.8,0,1.5,0.3,1.9,0.8v-1
		c0-0.8-0.6-1.2-1.5-1.2c-0.7,0-1.3,0.2-1.8,0.8l-0.4-0.6c0.6-0.6,1.4-1,2.3-1c1.2,0,2.2,0.6,2.2,2v4H286z M286,410.4v-1.1
		c-0.3-0.5-1-0.7-1.6-0.7c-0.9,0-1.4,0.5-1.4,1.3c0,0.7,0.6,1.3,1.4,1.3C285,411.1,285.6,410.8,286,410.4z"/>
	<path fill="#363636" d="M288.6,404.4c0-0.3,0.3-0.6,0.6-0.6c0.3,0,0.6,0.3,0.6,0.6s-0.3,0.6-0.6,0.6
		C288.8,405,288.6,404.7,288.6,404.4z M288.7,411.6v-5.8h0.9v5.8H288.7z"/>
	<path fill="#363636" d="M290.9,410.8l0.5-0.6c0.4,0.4,1.1,0.8,1.9,0.8c0.9,0,1.4-0.4,1.4-1c0-1.4-3.6-0.5-3.6-2.7
		c0-0.9,0.8-1.7,2.1-1.7c1,0,1.7,0.4,2.1,0.8l-0.4,0.6c-0.3-0.4-1-0.7-1.7-0.7c-0.8,0-1.3,0.4-1.3,0.9c0,1.3,3.6,0.4,3.6,2.7
		c0,1-0.8,1.8-2.3,1.8C292.3,411.7,291.5,411.4,290.9,410.8z"/>
	<path fill="#363636" d="M300,410.5l0.6-0.7c0.5,0.7,1.2,1.1,2.2,1.1c1.1,0,1.8-0.7,1.8-1.7c0-1.1-0.8-1.7-1.8-1.7
		c-0.7,0-1.3,0.2-1.8,0.7l-0.7-0.3v-4.3h4.9v0.9h-3.9v2.8c0.4-0.4,1.1-0.7,1.9-0.7c1.3,0,2.6,0.9,2.6,2.6c0,1.6-1.2,2.6-2.9,2.6
		C301.5,411.7,300.6,411.2,300,410.5z"/>
	<path fill="#363636" d="M306.9,411.6v-0.8c2.9-2.3,4.5-3.6,4.5-5c0-1-0.9-1.5-1.7-1.5c-1,0-1.7,0.4-2.2,1l-0.6-0.6
		c0.6-0.8,1.7-1.3,2.8-1.3c1.3,0,2.7,0.8,2.7,2.4c0,1.6-1.7,3.1-3.9,4.9h3.9v0.9H306.9z"/>
	<path fill="#363636" d="M314.5,413.1l-0.5-0.4c0.4-0.3,0.7-0.7,0.8-1.1c0,0-0.1,0-0.2,0c-0.3,0-0.6-0.3-0.6-0.6s0.3-0.6,0.6-0.6
		c0.4,0,0.8,0.3,0.8,0.9C315.4,412,315,412.7,314.5,413.1z"/>
	<path fill="#363636" d="M316.7,407.6c0-2.2,1-4.1,3.3-4.1c1,0,1.7,0.4,2.2,1l-0.5,0.7c-0.4-0.5-0.9-0.8-1.7-0.8
		c-1.6,0-2.3,1.6-2.3,3.1c0,0.1,0,0.2,0,0.3c0.3-0.6,1.2-1.2,2.3-1.2c1.4,0,2.6,0.9,2.6,2.6c0,1.4-1.1,2.6-2.8,2.6
		C317.6,411.7,316.7,409.8,316.7,407.6z M321.6,409.2c0-1.2-0.8-1.7-1.8-1.7c-0.8,0-1.6,0.5-2,1.2c0.1,1,0.6,2.2,2,2.2
		C321,410.8,321.6,409.9,321.6,409.2z"/>
	<path fill="#363636" d="M334.2,411.6v-3.9c0-0.7-0.3-1.2-1.1-1.2c-0.6,0-1.2,0.4-1.5,0.9v4.2h-0.9v-3.9c0-0.7-0.3-1.2-1.1-1.2
		c-0.6,0-1.2,0.4-1.5,0.9v4.2h-0.9v-5.8h0.9v0.8c0.3-0.4,1-1,1.9-1c0.9,0,1.4,0.5,1.5,1.1c0.3-0.5,1.1-1.1,1.9-1.1
		c1.1,0,1.6,0.6,1.6,1.8v4.2H334.2z"/>
	<path fill="#363636" d="M336.7,404.4c0-0.3,0.3-0.6,0.6-0.6s0.6,0.3,0.6,0.6s-0.3,0.6-0.6,0.6S336.7,404.7,336.7,404.4z
		 M336.9,411.6v-5.8h0.9v5.8H336.9z"/>
	<path fill="#363636" d="M339.6,411.6v-8h0.9v8H339.6z"/>
	<path fill="#363636" d="M346.2,411.6v-3.8c0-1-0.5-1.3-1.3-1.3c-0.7,0-1.4,0.4-1.7,0.9v4.2h-0.9v-8h0.9v3c0.4-0.5,1.2-1,2.1-1
		c1.2,0,1.8,0.6,1.8,1.8v4.1H346.2z"/>
	<path fill="#363636" d="M348.6,408.7c0-1.7,1.1-3,2.9-3c1.8,0,2.9,1.4,2.9,3s-1.1,3-2.9,3C349.7,411.7,348.6,410.4,348.6,408.7z
		 M353.4,408.7c0-1.2-0.7-2.2-1.9-2.2c-1.2,0-1.9,1.1-1.9,2.2c0,1.2,0.7,2.2,1.9,2.2C352.7,410.9,353.4,409.9,353.4,408.7z
		 M350.7,403.8c-0.3,0-0.6,0.3-0.6,1h-0.5c0-0.9,0.4-1.6,1.2-1.6c0.9,0,0.9,1.1,1.5,1.1c0.3,0,0.6-0.3,0.6-1h0.5
		c0,0.9-0.4,1.6-1.2,1.6C351.3,404.9,351.3,403.8,350.7,403.8z"/>
	<path fill="#363636" d="M355.4,408.7c0-1.7,1.2-3,2.9-3c1.8,0,2.8,1.4,2.8,3.1v0.2h-4.7c0.1,1.1,0.8,2,2.1,2c0.7,0,1.3-0.3,1.8-0.7
		l0.4,0.6c-0.6,0.6-1.4,0.9-2.3,0.9C356.7,411.7,355.4,410.5,355.4,408.7z M358.3,406.4c-1.2,0-1.8,1-1.9,1.9h3.8
		C360.2,407.5,359.6,406.4,358.3,406.4z"/>
	<path fill="#363636" d="M362,410.8l0.5-0.6c0.4,0.4,1.1,0.8,1.9,0.8c0.9,0,1.4-0.4,1.4-1c0-1.4-3.6-0.5-3.6-2.7
		c0-0.9,0.8-1.7,2.1-1.7c1,0,1.7,0.4,2.1,0.8l-0.4,0.6c-0.3-0.4-1-0.7-1.7-0.7c-0.8,0-1.3,0.4-1.3,0.9c0,1.3,3.6,0.4,3.6,2.7
		c0,1-0.8,1.8-2.3,1.8C363.4,411.7,362.6,411.4,362,410.8z"/>
	<path fill="#363636" d="M371.5,411.6v-5h-1v-0.8h1v-0.4c0-1.2,0.7-1.9,1.7-1.9c0.5,0,0.9,0.1,1.2,0.4l-0.4,0.6
		c-0.2-0.2-0.4-0.3-0.7-0.3c-0.6,0-0.9,0.4-0.9,1.1v0.4h1.2v0.8h-1.2v5H371.5z"/>
	<path fill="#363636" d="M374.3,408.7c0-1.7,1.1-3,2.9-3s2.9,1.4,2.9,3s-1.1,3-2.9,3S374.3,410.4,374.3,408.7z M379.1,408.7
		c0-1.2-0.7-2.2-1.9-2.2c-1.2,0-1.9,1.1-1.9,2.2c0,1.2,0.7,2.2,1.9,2.2C378.4,410.9,379.1,409.9,379.1,408.7z"/>
	<path fill="#363636" d="M381.5,411.6v-5.8h0.9v0.9c0.5-0.6,1.1-1.1,1.9-1.1v0.9c-0.1,0-0.2,0-0.3,0c-0.6,0-1.3,0.5-1.6,0.9v4.1
		H381.5z"/>
	<path fill="#363636" d="M389.1,411.6v-0.7c-0.5,0.5-1.1,0.8-1.9,0.8c-1,0-2-0.7-2-1.9c0-1.3,1-1.9,2-1.9c0.8,0,1.5,0.3,1.9,0.8v-1
		c0-0.8-0.6-1.2-1.5-1.2c-0.7,0-1.3,0.2-1.8,0.8l-0.4-0.6c0.6-0.6,1.4-1,2.3-1c1.2,0,2.2,0.6,2.2,2v4H389.1z M389.1,410.4v-1.1
		c-0.3-0.5-1-0.7-1.6-0.7c-0.9,0-1.4,0.5-1.4,1.3c0,0.7,0.6,1.3,1.4,1.3C388.1,411.1,388.7,410.8,389.1,410.4z"/>
	<path fill="#363636" d="M398.8,411.6v-3.9c0-0.7-0.3-1.2-1.1-1.2c-0.6,0-1.2,0.4-1.5,0.9v4.2h-0.9v-3.9c0-0.7-0.3-1.2-1.1-1.2
		c-0.6,0-1.2,0.4-1.5,0.9v4.2h-0.9v-5.8h0.9v0.8c0.3-0.4,1-1,1.9-1c0.9,0,1.4,0.5,1.5,1.1c0.3-0.5,1.1-1.1,1.9-1.1
		c1.1,0,1.6,0.6,1.6,1.8v4.2H398.8z"/>
	<path fill="#363636" d="M404.3,408.7c0-1.7,1.2-3,2.9-3c1.8,0,2.8,1.4,2.8,3.1v0.2h-4.7c0.1,1.1,0.8,2,2.1,2c0.7,0,1.3-0.3,1.8-0.7
		l0.4,0.6c-0.6,0.6-1.4,0.9-2.3,0.9C405.5,411.7,404.3,410.5,404.3,408.7z M407.1,406.4c-1.2,0-1.8,1-1.9,1.9h3.8
		C409,407.5,408.4,406.4,407.1,406.4z"/>
	<path fill="#363636" d="M415.3,411.6v-3.8c0-1-0.5-1.3-1.3-1.3c-0.7,0-1.4,0.4-1.7,0.9v4.2h-0.9v-5.8h0.9v0.8c0.4-0.5,1.2-1,2.1-1
		c1.2,0,1.8,0.6,1.8,1.9v4.1H415.3z"/>
	<path fill="#363636" d="M419.5,411.6l-2.4-5.8h1l1.9,4.8l1.9-4.8h1l-2.4,5.8H419.5z"/>
	<path fill="#363636" d="M423.7,404.4c0-0.3,0.3-0.6,0.6-0.6s0.6,0.3,0.6,0.6s-0.3,0.6-0.6,0.6S423.7,404.7,423.7,404.4z
		 M423.8,411.6v-5.8h0.9v5.8H423.8z"/>
	<path fill="#363636" d="M430.2,411.6v-0.7c-0.5,0.5-1.1,0.8-1.9,0.8c-1,0-2-0.7-2-1.9c0-1.3,1-1.9,2-1.9c0.8,0,1.5,0.3,1.9,0.8v-1
		c0-0.8-0.6-1.2-1.5-1.2c-0.7,0-1.3,0.2-1.8,0.8l-0.4-0.6c0.6-0.6,1.4-1,2.3-1c1.2,0,2.2,0.6,2.2,2v4H430.2z M430.2,410.4v-1.1
		c-0.3-0.5-1-0.7-1.6-0.7c-0.9,0-1.4,0.5-1.4,1.3c0,0.7,0.6,1.3,1.4,1.3C429.2,411.1,429.8,410.8,430.2,410.4z"/>
	<path fill="#363636" d="M437.1,411.6v-0.9c-0.4,0.6-1.1,1-2,1c-1.5,0-2.6-1.2-2.6-3c0-1.9,1.1-3,2.6-3c0.8,0,1.5,0.4,2,1v-3.1h0.9
		v8H437.1z M437.1,410v-2.6c-0.3-0.5-1-0.9-1.7-0.9c-1.2,0-1.9,1-1.9,2.2s0.7,2.2,1.9,2.2C436.1,410.9,436.8,410.5,437.1,410z"/>
	<path fill="#363636" d="M439.4,408.7c0-1.7,1.1-3,2.9-3s2.9,1.4,2.9,3s-1.1,3-2.9,3S439.4,410.4,439.4,408.7z M444.2,408.7
		c0-1.2-0.7-2.2-1.9-2.2c-1.2,0-1.9,1.1-1.9,2.2c0,1.2,0.7,2.2,1.9,2.2C443.6,410.9,444.2,409.9,444.2,408.7z"/>
	<path fill="#363636" d="M446.2,410.8l0.5-0.6c0.4,0.4,1.1,0.8,1.9,0.8c0.9,0,1.4-0.4,1.4-1c0-1.4-3.6-0.5-3.6-2.7
		c0-0.9,0.8-1.7,2.1-1.7c1,0,1.7,0.4,2.1,0.8l-0.4,0.6c-0.3-0.4-1-0.7-1.7-0.7c-0.8,0-1.3,0.4-1.3,0.9c0,1.3,3.6,0.4,3.6,2.7
		c0,1-0.8,1.8-2.3,1.8C447.5,411.7,446.7,411.4,446.2,410.8z"/>
	<path fill="#363636" d="M459,411.6v-0.7c-0.5,0.5-1.1,0.8-1.9,0.8c-1,0-2-0.7-2-1.9c0-1.3,1-1.9,2-1.9c0.8,0,1.5,0.3,1.9,0.8v-1
		c0-0.8-0.6-1.2-1.5-1.2c-0.7,0-1.3,0.2-1.8,0.8l-0.4-0.6c0.6-0.6,1.4-1,2.3-1c1.2,0,2.2,0.6,2.2,2v4H459z M459,410.4v-1.1
		c-0.3-0.5-1-0.7-1.6-0.7c-0.9,0-1.4,0.5-1.4,1.3c0,0.7,0.6,1.3,1.4,1.3C458,411.1,458.6,410.8,459,410.4z"/>
	<path fill="#363636" d="M461.9,410.4v-3.8h-1v-0.8h1v-1.6h0.9v1.6h1.2v0.8h-1.2v3.6c0,0.4,0.2,0.7,0.6,0.7c0.3,0,0.5-0.1,0.6-0.3
		l0.3,0.7c-0.2,0.2-0.6,0.4-1.1,0.4C462.3,411.7,461.9,411.2,461.9,410.4z"/>
	<path fill="#363636" d="M464.9,408.7c0-1.7,1.2-3,2.9-3c1.8,0,2.8,1.4,2.8,3.1v0.2h-4.7c0.1,1.1,0.8,2,2.1,2c0.7,0,1.3-0.3,1.8-0.7
		l0.4,0.6c-0.6,0.6-1.4,0.9-2.3,0.9C466.1,411.7,464.9,410.5,464.9,408.7z M467.7,406.4c-1.2,0-1.8,1-1.9,1.9h3.8
		C469.6,407.5,469,406.4,467.7,406.4z M467.6,404.9h-0.7l1.8-1.7h0.9L467.6,404.9z"/>
	<path fill="#363636" d="M478.7,411.6v-0.7c-0.5,0.5-1.1,0.8-1.9,0.8c-1,0-2-0.7-2-1.9c0-1.3,1-1.9,2-1.9c0.8,0,1.5,0.3,1.9,0.8v-1
		c0-0.8-0.6-1.2-1.5-1.2c-0.7,0-1.3,0.2-1.8,0.8l-0.4-0.6c0.6-0.6,1.4-1,2.3-1c1.2,0,2.2,0.6,2.2,2v4H478.7z M478.7,410.4v-1.1
		c-0.3-0.5-1-0.7-1.6-0.7c-0.9,0-1.4,0.5-1.4,1.3c0,0.7,0.6,1.3,1.4,1.3C477.7,411.1,478.3,410.8,478.7,410.4z"/>
	<path fill="#363636" d="M488.7,411.6v-0.9c-0.4,0.6-1.1,1-2,1c-1.5,0-2.6-1.2-2.6-3c0-1.9,1.1-3,2.6-3c0.8,0,1.5,0.4,2,1v-3.1h0.9
		v8H488.7z M488.7,410v-2.6c-0.3-0.5-1-0.9-1.7-0.9c-1.2,0-1.9,1-1.9,2.2s0.7,2.2,1.9,2.2C487.7,410.9,488.4,410.5,488.7,410z"/>
	<path fill="#363636" d="M495,411.6v-0.7c-0.5,0.5-1.1,0.8-1.9,0.8c-1,0-2-0.7-2-1.9c0-1.3,1-1.9,2-1.9c0.8,0,1.5,0.3,1.9,0.8v-1
		c0-0.8-0.6-1.2-1.5-1.2c-0.7,0-1.3,0.2-1.8,0.8l-0.4-0.6c0.6-0.6,1.4-1,2.3-1c1.2,0,2.2,0.6,2.2,2v4H495z M495,410.4v-1.1
		c-0.3-0.5-1-0.7-1.6-0.7c-0.9,0-1.4,0.5-1.4,1.3c0,0.7,0.6,1.3,1.4,1.3C494.1,411.1,494.7,410.8,495,410.4z"/>
	<path fill="#363636" d="M497.9,410.4v-3.8h-1v-0.8h1v-1.6h0.9v1.6h1.2v0.8h-1.2v3.6c0,0.4,0.2,0.7,0.6,0.7c0.3,0,0.5-0.1,0.6-0.3
		l0.3,0.7c-0.2,0.2-0.6,0.4-1.1,0.4C498.4,411.7,497.9,411.2,497.9,410.4z"/>
	<path fill="#363636" d="M504.9,411.6v-0.7c-0.5,0.5-1.1,0.8-1.9,0.8c-1,0-2-0.7-2-1.9c0-1.3,1-1.9,2-1.9c0.8,0,1.5,0.3,1.9,0.8v-1
		c0-0.8-0.6-1.2-1.5-1.2c-0.7,0-1.3,0.2-1.8,0.8l-0.4-0.6c0.6-0.6,1.4-1,2.3-1c1.2,0,2.2,0.6,2.2,2v4H504.9z M504.9,410.4v-1.1
		c-0.3-0.5-1-0.7-1.6-0.7c-0.9,0-1.4,0.5-1.4,1.3c0,0.7,0.6,1.3,1.4,1.3C503.9,411.1,504.5,410.8,504.9,410.4z"/>
	<path fill="#363636" d="M507.4,411c0-0.4,0.3-0.7,0.7-0.7c0.4,0,0.7,0.3,0.7,0.7c0,0.4-0.3,0.7-0.7,0.7
		C507.7,411.7,507.4,411.4,507.4,411z"/>
</g>
</svg>
