<?xml version="1.0" encoding="utf-8"?>
<!-- Generator: Adobe Illustrator 15.0.0, SVG Export Plug-In . SVG Version: 6.00 Build 0)  -->
<!DOCTYPE svg PUBLIC "-//W3C//DTD SVG 1.1//EN" "http://www.w3.org/Graphics/SVG/1.1/DTD/svg11.dtd">
<svg version="1.1" id="Layer_1" xmlns="http://www.w3.org/2000/svg" xmlns:xlink="http://www.w3.org/1999/xlink" x="0px" y="0px"
	 width="81.998px" height="70px" viewBox="0 0 81.998 70" enable-background="new 0 0 81.998 70" xml:space="preserve">
<g>
	<defs>
		<rect id="SVGID_1_" y="0.033" width="81.998" height="69.935"/>
	</defs>
	<clipPath id="SVGID_2_">
		<use xlink:href="#SVGID_1_"  overflow="visible"/>
	</clipPath>
	<path clip-path="url(#SVGID_2_)" fill="#00848F" d="M0.106,29.135c0.55,0.336,0.919,0.576,1.302,0.793
		c8.393,4.771,16.848,9.438,25.145,14.37c2.442,1.452,4.227,1.618,6.712,0.046c5.076-3.211,10.413-6.013,15.774-9.058
		c-1.425-0.829-2.77-1.534-4.033-2.365c-1.734-1.14-3.485-1.979-5.63-1.27c-0.416,0.138-0.89,0.114-1.338,0.135
		c-2.82,0.129-5.572-0.122-8.095-1.538c-2.623-1.475-3.528-3.601-2.935-6.56c0.073-0.365-0.223-1.019-0.544-1.214
		c-2.149-1.303-4.336-2.549-6.554-3.732c-0.382-0.205-1.07-0.211-1.444-0.002C12.393,22.14,6.348,25.589,0.106,29.135"/>
	<path clip-path="url(#SVGID_2_)" fill="#00848F" d="M81.805,16.689c-0.271-0.211-0.368-0.307-0.482-0.372
		C71.826,10.927,62.334,5.529,52.81,0.189c-0.452-0.253-1.312-0.18-1.792,0.085c-4.564,2.517-9.09,5.107-13.623,7.682
		c-1.453,0.826-2.895,1.671-4.506,2.604c1.784,1.008,3.406,1.798,4.884,2.799c1.188,0.805,2.317,0.823,3.663,0.585
		c3.797-0.671,7.543-0.569,10.957,1.535c2.342,1.442,3.191,3.78,2.444,6.402c-0.084,0.295-0.169,0.589-0.277,0.963
		c2.606,1.486,5.169,2.968,7.759,4.4c0.244,0.135,0.713,0.082,0.977-0.065C69.438,23.717,75.568,20.23,81.805,16.689"/>
	<path clip-path="url(#SVGID_2_)" fill="#00848F" d="M51.187,58.189c2.966-1.675,5.716-3.261,8.505-4.779
		c0.742-0.403,0.945-0.895,0.941-1.706c-0.029-7.286-0.037-14.573,0.009-21.86c0.006-0.957-0.345-1.42-1.134-1.864
		c-8.455-4.767-16.957-9.459-25.292-14.432c-2.5-1.491-4.406-1.798-6.796,0.015c-1.831,1.39-3.994,2.344-6.128,3.559
		c0.414,0.245,0.643,0.386,0.875,0.518c8.988,5.104,17.953,10.251,26.987,15.271c1.532,0.853,2.109,1.745,2.08,3.521
		C51.119,43.581,51.187,50.732,51.187,58.189"/>
	<path clip-path="url(#SVGID_2_)" fill="#00848F" d="M0.08,49.323c0,1.217-0.075,2.198,0.034,3.16
		c0.049,0.438,0.358,1.015,0.724,1.224c9.437,5.4,18.894,10.768,28.369,16.103c0.367,0.206,1.049,0.213,1.414,0.009
		c5.925-3.307,11.825-6.658,17.718-10.021c0.312-0.179,0.704-0.539,0.728-0.841c0.088-1.1,0.035-2.21,0.035-3.505
		c-0.609,0.321-1.037,0.532-1.453,0.769c-5.551,3.146-11.105,6.284-16.64,9.458c-0.728,0.418-1.27,0.51-2.063,0.053
		c-7.048-4.058-14.127-8.06-21.2-12.075C5.26,52.243,2.769,50.842,0.08,49.323"/>
	<path clip-path="url(#SVGID_2_)" fill="#00848F" d="M0.082,41.27c0,1.159,0.055,2.059-0.017,2.946
		c-0.063,0.788,0.249,1.191,0.923,1.572c9.385,5.302,18.749,10.642,28.141,15.931c0.408,0.229,1.154,0.27,1.549,0.05
		c5.921-3.306,11.812-6.666,17.697-10.037c0.309-0.176,0.678-0.551,0.701-0.858c0.087-1.092,0.035-2.193,0.035-3.483
		c-0.647,0.345-1.082,0.563-1.504,0.802c-5.547,3.147-11.103,6.281-16.628,9.465c-0.763,0.44-1.309,0.437-2.074-0.005
		c-5.135-2.965-10.302-5.871-15.459-8.797C9.078,46.376,4.71,43.897,0.082,41.27"/>
	<path clip-path="url(#SVGID_2_)" fill="#00848F" d="M49.086,39.344c-0.424,0.214-0.625,0.305-0.816,0.414
		c-5.744,3.267-11.494,6.524-17.223,9.818c-0.731,0.42-1.299,0.526-2.087,0.075c-8.583-4.913-17.188-9.788-25.788-14.672
		c-0.96-0.545-1.931-1.071-2.947-1.634c-0.067,0.275-0.107,0.398-0.128,0.524c-0.364,2.235,0.267,3.644,2.5,4.853
		c8.812,4.775,17.47,9.836,26.184,14.792c0.62,0.354,1.138,0.714,1.96,0.24c5.84-3.372,11.72-6.675,17.57-10.029
		c0.334-0.19,0.709-0.619,0.74-0.967C49.148,41.703,49.086,40.631,49.086,39.344"/>
	<path clip-path="url(#SVGID_2_)" fill="#00848F" d="M81.691,20.92c-0.072,0.014-0.215,0.008-0.32,0.067
		c-6.01,3.404-12.02,6.809-18.014,10.24c-0.293,0.17-0.605,0.577-0.629,0.895c-0.08,1.051-0.031,2.112-0.031,3.354
		c0.523-0.257,0.843-0.394,1.143-0.563c4.996-2.827,9.919-5.794,15.014-8.429C81.279,25.228,82.646,23.828,81.691,20.92"/>
	<path clip-path="url(#SVGID_2_)" fill="#00848F" d="M81.889,36.998c-0.246,0.028-0.397,0.004-0.5,0.062
		c-6.047,3.427-12.092,6.855-18.123,10.31c-0.258,0.148-0.526,0.523-0.542,0.808c-0.063,1.094-0.026,2.193-0.026,3.502
		c6.371-3.622,12.523-7.115,18.662-10.634c0.251-0.145,0.49-0.531,0.506-0.818C81.926,39.167,81.889,38.1,81.889,36.998"/>
	<path clip-path="url(#SVGID_2_)" fill="#00848F" d="M62.697,43.43c0.254-0.054,0.395-0.05,0.498-0.109
		c6.023-3.41,12.047-6.82,18.055-10.259c0.289-0.166,0.588-0.583,0.61-0.903c0.077-1.06,0.029-2.128,0.029-3.242
		c-0.246,0.048-0.392,0.042-0.497,0.103c-6.021,3.411-12.044,6.822-18.05,10.263c-0.29,0.167-0.593,0.58-0.616,0.898
		C62.649,41.24,62.697,42.307,62.697,43.43"/>
	<path clip-path="url(#SVGID_2_)" fill="#00848F" d="M0.106,29.135c6.242-3.546,12.287-6.995,18.36-10.395
		c0.374-0.209,1.062-0.203,1.444,0.002c2.218,1.184,4.405,2.43,6.554,3.732c0.321,0.195,0.617,0.849,0.544,1.214
		c-0.593,2.959,0.312,5.085,2.935,6.56c2.523,1.416,5.275,1.667,8.095,1.538c0.448-0.021,0.922,0.003,1.338-0.135
		c2.145-0.71,3.896,0.13,5.63,1.27c1.264,0.831,2.608,1.536,4.033,2.365c-5.361,3.045-10.698,5.847-15.774,9.058
		c-2.485,1.572-4.27,1.406-6.712-0.046C18.256,39.366,9.801,34.7,1.408,29.928C1.025,29.711,0.656,29.471,0.106,29.135"/>
	<path clip-path="url(#SVGID_2_)" fill="#00848F" d="M81.805,16.689c-6.236,3.541-12.366,7.028-18.51,10.489
		c-0.264,0.147-0.732,0.2-0.977,0.065c-2.59-1.433-5.152-2.914-7.759-4.4c0.108-0.374,0.193-0.668,0.277-0.963
		c0.747-2.622-0.103-4.96-2.444-6.402c-3.414-2.104-7.16-2.206-10.957-1.535c-1.346,0.238-2.475,0.22-3.663-0.585
		c-1.478-1.001-3.1-1.791-4.884-2.799c1.611-0.933,3.053-1.777,4.506-2.604c4.533-2.574,9.059-5.165,13.623-7.682
		c0.48-0.265,1.34-0.338,1.792-0.085c9.524,5.34,19.017,10.738,28.513,16.128C81.437,16.382,81.533,16.478,81.805,16.689"/>
	<path clip-path="url(#SVGID_2_)" fill="#00848F" d="M51.187,58.189c0-7.457-0.067-14.608,0.048-21.758
		c0.029-1.776-0.548-2.669-2.08-3.521c-9.034-5.021-17.999-10.167-26.987-15.271c-0.232-0.132-0.461-0.272-0.875-0.518
		c2.134-1.215,4.297-2.169,6.128-3.559c2.39-1.812,4.296-1.506,6.796-0.015c8.334,4.973,16.836,9.665,25.292,14.432
		c0.789,0.444,1.14,0.907,1.134,1.864c-0.046,7.287-0.038,14.574-0.009,21.86c0.004,0.812-0.199,1.303-0.941,1.706
		C56.902,54.928,54.152,56.514,51.187,58.189"/>
	<path clip-path="url(#SVGID_2_)" fill="#00848F" d="M0.08,49.323c2.689,1.52,5.18,2.92,7.666,4.332
		c7.073,4.016,14.152,8.018,21.2,12.075c0.793,0.457,1.335,0.365,2.063-0.053c5.534-3.174,11.089-6.312,16.64-9.458
		c0.416-0.236,0.844-0.447,1.453-0.769c0,1.295,0.053,2.405-0.035,3.505c-0.023,0.302-0.416,0.662-0.728,0.841
		c-5.894,3.363-11.793,6.715-17.718,10.021c-0.365,0.204-1.047,0.197-1.414-0.009c-9.475-5.335-18.932-10.702-28.369-16.103
		c-0.366-0.209-0.675-0.785-0.724-1.224C0.005,51.521,0.08,50.54,0.08,49.323"/>
	<path clip-path="url(#SVGID_2_)" fill="#00848F" d="M0.082,41.27c4.628,2.627,8.996,5.106,13.364,7.585
		c5.157,2.926,10.324,5.832,15.459,8.797c0.765,0.441,1.311,0.445,2.074,0.005c5.526-3.184,11.082-6.317,16.628-9.465
		c0.422-0.238,0.856-0.457,1.504-0.802c0,1.29,0.052,2.392-0.035,3.483c-0.023,0.308-0.393,0.683-0.701,0.858
		c-5.885,3.371-11.776,6.731-17.697,10.037c-0.395,0.22-1.141,0.18-1.549-0.05C19.737,56.43,10.373,51.09,0.988,45.789
		c-0.674-0.381-0.986-0.784-0.923-1.572C0.137,43.329,0.082,42.429,0.082,41.27"/>
	<path clip-path="url(#SVGID_2_)" fill="#00848F" d="M49.086,39.344c0,1.287,0.062,2.358-0.035,3.415
		c-0.031,0.348-0.406,0.776-0.74,0.967c-5.85,3.354-11.73,6.657-17.57,10.029c-0.822,0.474-1.34,0.113-1.96-0.24
		c-8.714-4.956-17.372-10.017-26.184-14.792c-2.233-1.209-2.864-2.617-2.5-4.853c0.021-0.126,0.061-0.249,0.128-0.524
		c1.016,0.562,1.987,1.089,2.947,1.634c8.6,4.884,17.205,9.759,25.788,14.672c0.788,0.451,1.356,0.345,2.087-0.075
		c5.729-3.294,11.479-6.552,17.223-9.818C48.461,39.649,48.662,39.558,49.086,39.344"/>
	<path clip-path="url(#SVGID_2_)" fill="#00848F" d="M81.691,20.92c0.955,2.907-0.412,4.308-2.838,5.564
		c-5.095,2.635-10.018,5.602-15.014,8.429c-0.3,0.17-0.619,0.307-1.143,0.563c0-1.242-0.049-2.304,0.031-3.354
		c0.023-0.317,0.336-0.725,0.629-0.895c5.994-3.432,12.004-6.836,18.014-10.24C81.477,20.928,81.619,20.934,81.691,20.92"/>
	<path clip-path="url(#SVGID_2_)" fill="#00848F" d="M81.889,36.998c0,1.103,0.037,2.169-0.023,3.229
		c-0.016,0.287-0.255,0.674-0.506,0.818c-6.139,3.519-12.291,7.012-18.662,10.634c0-1.309-0.037-2.408,0.026-3.502
		c0.016-0.284,0.284-0.659,0.542-0.808c6.031-3.454,12.076-6.883,18.123-10.31C81.491,37.001,81.643,37.026,81.889,36.998"/>
	<path clip-path="url(#SVGID_2_)" fill="#00848F" d="M62.697,43.43c0-1.123-0.048-2.19,0.029-3.25
		c0.023-0.318,0.326-0.731,0.616-0.898c6.006-3.44,12.028-6.852,18.05-10.263c0.105-0.061,0.251-0.055,0.497-0.103
		c0,1.114,0.048,2.183-0.029,3.242c-0.022,0.32-0.321,0.737-0.61,0.903c-6.008,3.438-12.031,6.849-18.055,10.259
		C63.092,43.38,62.951,43.376,62.697,43.43"/>
</g>
</svg>
