<?xml version="1.0" encoding="utf-8"?>
<!-- Generator: Adobe Illustrator 15.0.0, SVG Export Plug-In . SVG Version: 6.00 Build 0)  -->
<!DOCTYPE svg PUBLIC "-//W3C//DTD SVG 1.1//EN" "http://www.w3.org/Graphics/SVG/1.1/DTD/svg11.dtd">
<svg version="1.1" id="Layer_1" xmlns="http://www.w3.org/2000/svg" xmlns:xlink="http://www.w3.org/1999/xlink" x="0px" y="0px"
	 width="64px" height="87px" viewBox="0 0 64 87" enable-background="new 0 0 64 87" xml:space="preserve">
<path fill="#008590" d="M31.614,22.937C14.182,22.937,0,37.119,0,54.551c0,17.433,14.182,31.615,31.614,31.615
	s31.614-14.183,31.614-31.615C63.228,37.119,49.046,22.937,31.614,22.937 M31.614,83.088c-15.736,0-28.536-12.802-28.536-28.537
	c0-3.183,0.531-6.242,1.497-9.104c0.792-0.146,0.7-0.586,0.763,0.501c0.078,1.32-1.086,0.933,0,2.02
	c1.088,1.086,1.476,2.251,2.329,2.484c0.854,0.231,1.596,0.469,1.941,1.009C9.953,52,10.04,52,10.462,52s0.466,0.003,0.931,0.312
	c0.466,0.312,0.699,0.233,0.932,0.621c0.232,0.388-0.311-0.387,0.232,0.388c0.544,0.777,0.389,1.217,0.854,1.229
	c0.466,0.014-0.233-0.297,0.466,0.014c0.698,0.31,0.698,0.542,0.932,0.698c0.232,0.155,0.388,0.155,0.543,0.466
	c0.155,0.311-0.233,0.621,0,1.009c0.233,0.389,0.308,0.389,0.038,0.621c-0.271,0.233-0.116-0.389-0.271,0.233
	c-0.155,0.62-0.232,0.543,0.078,1.32c0.31,0.774,0.109,0.774,0.365,1.24c0.256,0.468-0.256,0.855,0,1.242
	c0.256,0.389-0.055-0.077,0.256,0.389s0.311,0.388,0.388,0.854c0.078,0.466-0.544,0.544,0,0.854
	c0.542,0.311,0.465,0.077,0.931,0.466c0.466,0.388-0.155,0.078,0.466,0.388c0.621,0.31,0.155-0.001,0.621,0.31
	c0.466,0.312,0.854,0,0.776,0.467c-0.078,0.465,0.156-0.155-0.078,0.465c-0.232,0.622-0.31,0.622-0.232,1.243
	c0.078,0.621,0.525,2.018,0.34,2.405c-0.185,0.389-0.193,0.854,0.044,1.164c0.237,0.312,0.236,1.01,0.315,1.243
	c0.077,0.232-0.079,0.543,0,0.776c0.077,0.231-0.189,0.775,0.022,1.008c0.21,0.234,0.21,0.466,0.442,0.777
	c0.234,0.31,0.311,0.466,0.311,0.931c0,0.466-0.155,0.776,0,1.01c0.156,0.233,0.156,1.008,0.466,1.243
	c0.311,0.232,0.621,0.697,0.621,0.697s0.233,0.467,0.543,0.543c0.311,0.078-0.233-0.311,0.311,0.078
	c0.543,0.389,0.466,0.154,0.853,0.543c0.389,0.389,0.622,0.234,0.777,0.467c0.155,0.232,0.699,0.543,0.932,0.699
	c0.232,0.152,0.31-0.156,0.543,0c0.233,0.152,0.078,0.621,0.233,0.152c0.155-0.465,0.233-0.543,0-1.008s-0.388-0.621-0.544-0.932
	c-0.155-0.311-0.078,0.389-0.155-0.311c-0.077-0.697-0.077-0.697-0.232-1.241c-0.156-0.543-0.156,0-0.156-0.543
	c0-0.545,0.078-1.243,0.078-1.243s-0.234,0.155,0.155-0.542c0.388-0.7-0.155,0,0.388-0.7c0.544-0.697,0.293-1.087,0.613-1.241
	c0.318-0.156,0.318-0.621,0.629-1.087c0.31-0.466,0.698-1.009,0.698-1.009s0.156-0.465,0.544-0.699
	c0.389-0.232,0.155-0.31,0.699-0.698c0.543-0.388,0.543-0.621,0.775-0.854c0.234-0.232,0.233-0.698,0.544-1.008
	c0.311-0.312,0.389-0.933,0.621-1.32c0.232-0.388,0.31-0.544,0.466-0.854c0.155-0.31,0.156-0.697,0.311-0.931
	c0.155-0.233,0.854-0.698,0.737-0.932c-0.116-0.232-0.323-0.122,0.013-0.411c0.336-0.287,0.541-1.063,0.672-1.607
	c0.13-0.543,0.257-1.552,0-1.862c-0.258-0.311-0.569-0.467-1.345-0.698c-0.776-0.234-1.786-0.233-2.173-0.311
	c-0.388-0.078-0.932-0.078-1.243-0.312c-0.31-0.233-0.621-0.387-0.931-0.62s-0.543-0.312-0.699-0.622
	c-0.154-0.31-0.698-0.931-0.853-1.319c-0.156-0.388-0.543-0.791-0.777-0.938c-0.232-0.147-0.932-0.302-1.242-0.613
	c-0.31-0.31-1.087-0.777-1.397-1.009c-0.31-0.233-0.465-0.233-0.776-0.466C20.552,52.391,20.009,52,20.009,52s-0.156-0.393-0.466,0
	c-0.31,0.391-0.233,0.312-0.698,0.547c-0.465,0.231-0.137,0.231-0.651,0.387c-0.513,0.156-0.436,0.234-0.823,0.312
	c-0.389,0.076-0.389,0.154-0.777,0.076c-0.388-0.076,0.154,0.156-0.388-0.076c-0.544-0.233-1.087-0.543-1.087-0.543
	s-0.344,0.081-0.466-0.312c-0.121-0.391-0.155-0.776-0.155-0.776l-0.466-0.62l-0.077-0.468l0.233-0.774c0,0,0.077-0.155,0.077-0.466
	c0-0.312,0.078-0.467-0.233-0.62l-0.31-0.156c0,0,0-0.311-0.466-0.077l-0.465,0.233c0,0-0.388,0.465-0.622,0.542
	c-0.232,0.078,0.31-0.077-0.232,0.078c-0.544,0.155-0.776,0.077-1.009,0.077c-0.234,0-0.933-0.466-0.933-0.466
	s-0.076-0.231-0.076-0.465s-0.233-0.389-0.156-0.699c0.078-0.311,0.156-0.621,0.156-0.621s0.078-0.466,0.155-0.854
	c0.077-0.389-0.155-0.077,0.077-0.389c0.233-0.31,0.389-0.636,0.389-0.636l0.93,0.094c0,0,0.234-0.107,0.544-0.094l0.311,0.016
	c0,0-0.311,0.589,0.31-0.017l0.621-0.604h0.543c0.544,0.077,0.155-0.777,0.544,0.077c0.388,0.854-0.078,0.155,0.388,0.854
	c0.466,0.698,0.776,0.31,0.776,0.776c0,0.465-0.155,0.621,0,0.853c0.155,0.233-0.233,0.466,0.466,0.544
	c0.698,0.078,0.853-0.621,0.853-0.621s-0.466-0.466-0.388-0.854c0.078-0.389-0.078-0.543,0-0.776
	c0.078-0.232,0.078-0.698,0.078-0.698l0.232-0.46c0,0-0.232-0.55,0.389-0.782c0.621-0.233,0.872-0.465,1.057-0.465
	c0.186,0-0.28,0.231,0.186,0l0.465-0.234L19,42.223c0,0-0.078-0.311,0-0.544c0.078-0.233-0.232-0.388,0-0.543l0.233-0.155
	l1.009-0.854l0.699-0.312l0.388-0.465c0,0,0,0.155,0.388,0c0.388-0.156,0.31,0.311,0.854,0c0.543-0.311,0.853-0.233,1.319-0.388
	l0.466-0.156c0,0,0.544-0.311,0.466-1.009l-0.078-0.699v-0.853c0.854-0.078,0.699,0.078,1.164,0
	c0.466-0.078,0.544,0.188,0.855-0.022c0.31-0.211-0.078,0.177,0.31-0.211s0.465-0.466,0.465-0.777c0-0.31,0.001-0.543-0.077-0.775
	c-0.078-0.233-0.776-0.932-0.776-0.932l-0.388-0.543l-0.621-0.466l-0.544-0.388h-0.854h-0.854c0,0,0.078,0.078-0.077,0.466
	c-0.155,0.388,0.155,0-0.155,0.388c-0.311,0.388-0.621,0.854-0.621,0.854s-0.233,0.155-0.544,0.466
	c-0.31,0.312-0.698,0.621-0.698,0.621l-0.621,0.465c0,0-0.466-0.31-0.699-0.542c-0.232-0.232,0.544,0.232-0.232-0.232L19,34.149
	l-0.466-0.621c0,0-0.447-0.231-0.34-0.466l0.108-0.232l-0.108-0.311c0,0-0.125-0.156,0.496-0.388
	c0.621-0.233,1.009-0.389,1.009-0.389s0.232-0.389,0.543-0.389h0.621c0,0,0.156-0.154,0.544-0.465l0.387-0.31l0.233-0.699v-0.466
	l-0.62-0.621l-0.311-0.465v-0.297c0.143-0.057,0.285-0.115,0.429-0.17h0.348l0.304-0.236c0.29-0.103,0.578-0.204,0.872-0.296
	l0.453,0.377c0,0,0.311,0,0.466,0.31l0.155,0.312c0,0,0.311,0,0.389,0.465c0.077,0.466-0.078,0.078,0.077,0.466
	c0.155,0.387,0.543,1.242,0.543,1.242l1.009,0.542l1.01,0.156c0.387-0.156,0.543-0.467,0.543-0.467s0-0.231,0.31-0.31
	c0.311-0.078,0.621-0.388,0.621-0.388v-0.39l-0.077-0.542l-0.388-0.544l-0.699-0.621l-0.388-0.31l-0.388-0.933V26.45
	c0.116-0.021,0.23-0.045,0.346-0.063h0.73h0.011h0.699H30.1h0.388c0.233,0,0.621-0.465,0.777,0l0.155,0.467
	c0.155,0.465,0.194,0.854,0.194,0.854v1.553l-0.039,0.776c0,0,0.078,0.154,0.039,0.544l-0.039,0.388c0,0,0.671,0.232,0.724,0.465
	l0.052,0.233l0.622,0.232c0,0,0.542-0.155,0.776-0.155c0.232,0,0.155-0.155,0.465-0.389c0.311-0.232,0.155-0.078,0.699-0.465
	c0.543-0.388,0.853-0.699,0.853-0.699s-0.542-0.31,0-0.388c0.544-0.078,0.932-0.466,0.932-0.466l0.31-0.155l0.622-0.155
	c0,0,0.699-0.076,1.087,0c0.387,0.078,1.241-0.076,1.241-0.076l0.699-0.156v-0.621v-0.311c0,0,0.466-0.155,0.699-0.077l0.163,0.005
	c0.201,0.074,0.398,0.156,0.598,0.234c-0.035,0.101-0.075,0.201,0.015,0.381c0.155,0.311-0.699-0.232,0.155,0.311l0.853,0.544
	c0,0,0.389,0.232,0.621,0.232s-0.228-0.23,0.227-0.003l-0.01-0.005l0.017,0.008c0.099,0.05,0.244,0.122,0.465,0.232l1.397,0.699
	c0,0,0.388,0.078,0.699,0.233c0.31,0.154,0.156-0.312,0.31,0.154c0.156,0.466,0,0.776,0,0.776l0.07,0.311H46.09
	c0,0-0.311,0-0.543,0.155l-0.233,0.156l-0.388,0.388c0,0-0.544,0.232-0.776,0.465c-0.233,0.234-0.466,0.001-0.543,0.234
	c-0.078,0.231,0.31-0.156-0.078,0.231c-0.389,0.389-0.233,0.078-0.389,0.389l-0.155,0.31v0.622v0.854l-0.233,0.621l-0.465,0.465
	l-0.466,0.154h-0.776h-0.776h-0.621l-0.466,0.621c0,0-0.078-0.154-0.233,0.312c-0.156,0.465,0-0.233-0.156,0.465
	c-0.155,0.699-0.388,0.233-0.155,0.699s0.466,0.854,0.466,0.854s0.078,0.311,0.311,0.389c0.233,0.077,0.31,0.154,0.62,0.232
	c0.311,0.077-0.62,0.077,0.311,0.077h0.931c0.466,0,0.621,0.078,0.855-0.155c0.232-0.232,0.078-0.543,0.543-0.698
	c0.465-0.154-0.311,0.233,0.465-0.154c0.777-0.39-0.232,0.077,0.777-0.39c1.009-0.466,0.621,0.078,1.009-0.466
	c0.388-0.543,0.466-1.008,0.699-1.086c0.232-0.078-0.156,0.155,0.232-0.078c0.388-0.231,0.838-0.543,1.079-0.466l0.063,0.027
	c0.028-0.01,0.149-0.027,0.566-0.027h0.931c0,0,0.389-0.155,0.854,0c0.466,0.156,0.466-0.31,0.466,0.156s-0.232,0.543,0,0.931
	c0.233,0.389,0,1.087,0,1.087l-0.232,0.389l-0.078,0.621c0,0,0.284,0.077,0.414,0.232c0.129,0.155-0.182,0.077,0.129,0.155
	l0.311,0.078l0.465-0.078l0.31-0.078l0.932-0.543l0.699-0.077c0.465-0.156,0.698-0.233,1.086-0.233c0.388,0,0.544-0.154,0.854,0
	c0.311,0.155-0.155-0.077,0.311,0.155c0.465,0.233,0.931,0.155,1.087,0.466c0.155,0.311,0.078-0.232,0.155,0.311
	c0.077,0.544-0.543,0.854,0,1.164s0.698,0.621,0.698,0.854c0,0.232,0.078-0.311,0,0.232l-0.077,0.543c0,0-0.621,0.156-0.854,0.232
	c-0.233,0.078-0.931,0-0.931,0l-0.621-0.31l-0.544-0.233l-0.699,0.155c-0.388,0.312-0.776,0.466-0.776,0.466s0.31,0.312-0.311,0.312
	c-0.62,0-1.241-0.156-1.241-0.156s-0.854-0.388-1.165-0.621l-0.31-0.231c0,0-0.543-0.467-0.543-0.699
	c0-0.233-0.156-0.544-0.156-0.544l-0.699-0.389h-0.697l-0.932,0.078l-0.854,0.544L44.848,42.3l-0.62-0.077l-0.621,0.155
	c0,0-0.544,0.621-0.855,0.699c-0.31,0.076,0-0.156-0.31,0.076c-0.31,0.233-0.544-0.076-0.699,0.467l-0.155,0.543
	c0,0-0.232,0.232-0.465,0.466l-0.234,0.232c0,0-0.31,0-0.465,0.311c-0.155,0.311-0.388,0.232-0.466,0.466
	c-0.077,0.232,0.232-0.388-0.077,0.232c-0.311,0.621,0.077,0-0.311,0.621s-0.932,1.553-0.932,1.553c0,0.544,0.079,0.466,0.079,1.009
	v0.24V49.3v0.297c0,0.621,0.076,0.388,0,1.008c-0.079,0.621-0.035-0.15-0.079,0.621C38.594,52,38.241,51.685,38.594,52
	c0.355,0.312-0.033,0.003,0.355,0.312c0.388,0.312-0.311-0.543,0.388,0.312c0.698,0.854,0.232,0.466,0.698,0.854
	c0.466,0.389-0.154,0,0.466,0.389c0.622,0.388,0.544,0.439,0.855,0.685c0.31,0.246-0.233-0.141,0.31,0.246
	c0.543,0.389-0.388,0.699,0.543,0.389c0.931-0.312,0.621-0.156,0.931-0.312c0.311-0.154-1.086-0.154,0.311-0.154
	s1.009,0.155,1.397,0c0.388-0.155-0.232,0.284,0.699-0.169l0.931-0.452c0,0,0.388-0.389,0.621-0.156
	c0.234,0.233,0.078,0.451,0.699,0.77c0.621,0.317,0.001,0.085,0.621,0.317c0.621,0.233,0.31-0.154,0.621,0.233
	c0.31,0.388,0.31-0.156,0.31,0.388s0.234-0.076,0,0.544c-0.232,0.62-0.388,0.077-0.232,0.62c0.154,0.544,0.154,1.087,0.154,1.087
	s-0.154,0.467,0,0.698c0.156,0.234-0.077-0.31,0.156,0.234c0.233,0.543,0,0.154,0.233,0.543c0.233,0.388-0.155-0.077,0.233,0.388
	l0.388,0.466c0,0,0.31,0.155,0.466,0.466l0.155,0.311c0,0-0.078,0.156-0.155,0.466c-0.078,0.311,0.233-0.078-0.078,0.311
	c-0.31,0.388-0.155-0.077-0.31,0.388c-0.156,0.466-0.156,1.087-0.156,1.087s-0.31,0.233-0.388,0.621
	c-0.078,0.389,0.078,0-0.078,0.389c-0.154,0.387-0.232-0.156-0.154,0.387l0.077,0.545c0,0,0.077,0.231,0.233,0.466
	c0.155,0.232,0.077-0.312,0.155,0.232c0.077,0.542,0.077,0,0.077,0.542c0,0.544-0.077,0.622,0.078,0.855l0.156,0.231l0.465,1.32
	c0,0,0.388,1.164,0.388,1.398c0,0.23-0.232,0.31,0,0.542s-0.543-0.388,0.232,0.232l0.777,0.622c0,0-0.465,0.388-0.078,0.465
	l0.389,0.077l0.466-0.077c0.465,0.466,0.078,0.233,0.465,0.466c0.097,0.059,0.141,0.098,0.159,0.124
	C48.385,79.039,40.463,83.088,31.614,83.088"/>
<path fill="#008590" d="M21.087,27.226c-1.8-1.711-3.144-3.846-3.903-6.195l-1.501-2.387h0.945c-0.107-0.72-0.16-1.446-0.16-2.178
	c0-8.184,6.658-14.843,14.843-14.843c8.185,0,14.844,6.659,14.844,14.843c0,0.731-0.054,1.458-0.16,2.178h0.904l-1.508,2.527
	c-0.671,2.008-1.788,3.879-3.244,5.436L31.712,44.09L21.087,27.226z"/>
<path fill="#FFFFFF" d="M31.311,0c-9.08,0-16.467,7.387-16.467,16.467c0,0.184,0.003,0.369,0.009,0.553h-2.108l2.959,4.707
	c0.831,2.465,2.244,4.707,4.115,6.531l9.108,14.458l2.823,4.479l2.713-4.547l8.992-15.064c1.513-1.654,2.687-3.62,3.418-5.728
	l2.885-4.837h-1.989c0.006-0.184,0.009-0.369,0.009-0.553C47.778,7.387,40.391,0,31.311,0 M31.311,3.247
	c7.302,0,13.22,5.919,13.22,13.22c0,1.321-0.196,2.596-0.557,3.8h0.066l-0.136,0.229c-0.621,1.941-1.679,3.688-3.058,5.125
	l-9.171,15.364L22.35,26.183c-1.699-1.566-2.986-3.574-3.68-5.84l-0.048-0.076h0.026c-0.361-1.204-0.557-2.479-0.557-3.8
	C18.091,9.166,24.01,3.247,31.311,3.247"/>
<path fill="#FFFFFF" d="M38.828,16.467c0,4.151-3.365,7.517-7.517,7.517c-4.151,0-7.516-3.365-7.516-7.517s3.365-7.516,7.516-7.516
	C35.462,8.951,38.828,12.315,38.828,16.467"/>
</svg>
