<?xml version="1.0" encoding="utf-8"?>
<!-- Generator: Adobe Illustrator 16.0.0, SVG Export Plug-In . SVG Version: 6.00 Build 0)  -->
<!DOCTYPE svg PUBLIC "-//W3C//DTD SVG 1.1//EN" "http://www.w3.org/Graphics/SVG/1.1/DTD/svg11.dtd">
<svg version="1.1" id="Layer_1" xmlns="http://www.w3.org/2000/svg" xmlns:xlink="http://www.w3.org/1999/xlink" x="0px" y="0px"
	 width="67.355px" height="56px" viewBox="0 0 67.355 56" enable-background="new 0 0 67.355 56" xml:space="preserve">
<g>
	<path fill="#078691" d="M3.663,22.796c1.034,11.041,5.836,19.968,15.268,25.927c6.955,4.393,12.824,1.029,13.213-7.195
		c0.04-0.834,0.011-1.68-0.092-2.508c-0.976-7.857-4.19-14.725-9.967-20.085c-2.511-2.331-5.7-4.265-8.925-5.416
		c-4.902-1.749-8.62,1.022-9.322,6.212C3.701,20.742,3.717,21.774,3.663,22.796 M0,23.315C0.008,14.934,3.644,9.616,9.82,9.569
		C22.213,9.474,33.578,5.72,44.753,0.952c0.426-0.182,0.864-0.354,1.314-0.453c5.546-1.239,10.967,0.006,16.03,1.821
		c4.796,1.722,6.398,7.353,4.448,12.283c-0.338,0.855-0.82,1.722-0.878,2.608c-0.367,5.577-3.595,9.059-8.022,12.018
		c-7.15,4.777-14.113,9.838-21.099,14.859c-0.754,0.541-1.311,1.537-1.655,2.438c-2.649,6.938-7.56,9.188-14.667,6.742
		c-5.534-1.902-9.436-5.836-12.78-10.35C2.978,36.894,0.273,30.146,0,23.315"/>
	<path fill="#078691" d="M47.459,40.849c5.006-3.338,9.793-6.527,15.199-10.131c-0.321,4.654-0.605,8.74-0.883,12.824
		c-0.136,2.01-0.246,4.02-0.392,6.027c-0.336,4.609-6.455,7.959-10.424,5.715c-0.244-0.137-0.481-0.285-0.722-0.424
		c-4.6-2.65-5.04-3.998-2.805-8.713c0.142-0.301,0.373-0.623,0.65-0.787C51.001,43.646,51.007,43.265,47.459,40.849"/>
	<path fill="#078691" d="M21.45,23.071c2.008,3.733,4.031,7.493,6.039,11.227c-7.799,4.705-10.917,4.59-13.396-0.158
		C11.741,29.634,13.5,26.837,21.45,23.071"/>
</g>
</svg>
