<?xml version="1.0" encoding="utf-8"?>
<!-- Generator: Adobe Illustrator 16.0.0, SVG Export Plug-In . SVG Version: 6.00 Build 0)  -->
<!DOCTYPE svg PUBLIC "-//W3C//DTD SVG 1.1//EN" "http://www.w3.org/Graphics/SVG/1.1/DTD/svg11.dtd">
<svg version="1.1" id="Layer_1" xmlns="http://www.w3.org/2000/svg" xmlns:xlink="http://www.w3.org/1999/xlink" x="0px" y="0px"
	 width="78.467px" height="61.403px" viewBox="0 0 78.467 61.403" enable-background="new 0 0 78.467 61.403" xml:space="preserve">
<path fill="#078691" d="M44.744,7.88c0.744,1.649,0.957,2.842,1.667,3.395c0.368,0.285,1.594-0.73,2.476-0.854
	c0.995-0.14,2.039,0.062,3.062,0.115c-0.038,0.338-0.075,0.676-0.191,1.724c3.903-1.021,7.752-1.889,11.502-3.069
	c1.999-0.631,3.269-0.224,4.243,1.528c3.633,6.537,7.313,13.047,10.836,19.642c0.33,0.616-0.017,2.08-0.568,2.605
	c-4.706,4.488-10.562,5.688-16.813,5.383c-0.799-0.038-1.643-0.852-2.317-1.47c-5.593-5.124-11.203-10.231-16.684-15.474
	c-1.472-1.406-2.872-1.623-4.817-1.458c-4.224,0.359-8.487,0.507-12.723,0.377c-2.422-0.074-4.826-1.01-5.036-4.017
	c-0.197-2.796,1.54-4.272,4.043-5.109c3.324-1.113,6.599-2.378,9.928-3.479C37.373,6.392,41.391,6.195,44.744,7.88"/>
<path fill="#078691" d="M18.262,37.801c4.566,1.225,5.601,3.113,4.116,7.684c2.665,0.254,5.182,1.776,4.584,4.274
	c-0.561,2.345-2.903,4.358-4.756,6.227c-0.424,0.428-2.24-0.056-3.105-0.606c-7.204-4.602-12.754-10.716-16.258-18.56
	c-1.534-3.436-0.917-5.372,2.009-7.33c2.335-1.562,3.736-1.232,6.551,1.478c0.29,0.277,0.749,0.503,1.144,0.529
	C17.79,31.842,18.598,32.721,18.262,37.801"/>
<path fill="#078691" d="M38.248,56.274c-2.886-2.507-5.517-4.792-8.386-7.284c1.239-1.094,2.002-1.768,3.174-2.803
	c2.935,3.015,5.863,6.071,8.846,9.073c2.281,2.293,3.815,2.112,6.253-0.91c-4.466-4.24-8.97-8.517-13.555-12.869
	c1.198-1.253,1.91-1.998,2.919-3.052c3.973,4.012,7.879,7.971,11.803,11.913c2.689,2.701,3.709,2.56,5.841-0.887
	c-5.194-5.051-10.419-10.132-16.083-15.64c1.384-0.982,2.283-1.621,3.582-2.543c4.209,4.279,8.637,8.797,13.083,13.297
	c2.138,2.165,4.165,1.942,5.008-0.883c0.63-2.112,1.723-2.103,3.315-1.776c0.441,3.019-0.78,5.345-3.571,6.99
	c-0.699,0.412-1.63,0.847-1.899,1.501c-1.187,2.89-3.239,4.549-6.247,5.272c-0.701,0.169-1.331,0.931-1.838,1.547
	c-2.306,2.806-5.197,3.653-8.642,2.602c-0.803-0.245-1.948-0.416-2.575-0.032c-5.208,3.188-8.537,1.407-12.053-3.221
	c0.579-0.727,1.198-1.503,1.887-2.369C31.728,55.992,33.553,60.03,38.248,56.274"/>
<path fill="#078691" d="M1.518,12.003c0.11-1.398,1.787-3.68,2.493-4.641c1.827-2.485,4.092-4.661,6.292-6.849
	c0.425-0.424,1.44-0.629,2.033-0.447c5.382,1.653,10.73,3.413,16.623,5.314c-2.891,1.525-5.181,2.336-7.888,1.047
	c-1.607-0.766-3.398-1.146-5.11-1.69c-4.589-1.457-4.622-1.482-7.584,2.205C7.375,8.189,6.64,9.646,5.67,10.925
	c-0.379,0.498-1.063,0.768-1.606,1.143C3.905,11.875,1.679,12.197,1.518,12.003"/>
<path fill="#078691" d="M3.417,26.253c-0.76,0.52-0.818,0.62-2.134,1.519c-0.504-1.911-1.346-3.566-1.28-5.185
	c0.128-3.168,0.639-6.342,1.29-9.449c0.13-0.623,0.244-2.941,2.29-1.65c0.161,0.194,1.575-0.627,1.734-0.434
	c0.001,0.861-1.194,2.743-1.255,3.603"/>
</svg>
