<?xml version="1.0" encoding="utf-8"?>
<!-- Generator: Adobe Illustrator 15.0.0, SVG Export Plug-In . SVG Version: 6.00 Build 0)  -->
<!DOCTYPE svg PUBLIC "-//W3C//DTD SVG 1.1//EN" "http://www.w3.org/Graphics/SVG/1.1/DTD/svg11.dtd">
<svg version="1.1" id="Layer_1" xmlns="http://www.w3.org/2000/svg" xmlns:xlink="http://www.w3.org/1999/xlink" x="0px" y="0px"
	 width="61.821px" height="77.43px" viewBox="0 0 61.821 77.43" enable-background="new 0 0 61.821 77.43" xml:space="preserve">
<path fill="#008590" d="M8.205,57.309c-5.588-0.316-5.589-0.316-6.878-5.545c-0.365-1.48-0.741-2.959-1.084-4.445
	c-0.655-2.842-0.071-3.643,2.833-3.637c8.61,0.012,17.219,0.109,25.829,0.107c9.221,0,18.441-0.088,27.662-0.115
	c3.898-0.012,4.273,0.486,3.355,4.248c-0.468,1.916-1.098,3.811-1.368,5.756c-0.38,2.746-1.706,3.967-4.502,3.533
	c-0.588-0.09-1.215,0.072-2.109,0.141v18.701h-3.259V52.596H11.697v23.422H8.205V57.309z"/>
<path fill="#008590" d="M12.085,40.195c-1.27-8.508,5.164-13.08,11.135-14.531c0.508-0.123,1.335,0.348,1.772,0.785
	c1.646,1.643,3.192,3.385,5.282,5.635c1.806-2.053,3.287-3.839,4.897-5.501c0.48-0.495,1.41-1.024,1.98-0.889
	c6.485,1.529,12.424,6.587,11.033,14.5H12.085z"/>
<path fill="#008590" d="M41.142,11.152c-0.03,6.232-4.967,11.123-11.128,11.024c-6.117-0.099-11.055-5.193-10.953-11.303
	C19.16,4.877,24.136,0,30.157,0C36.36,0,41.171,4.885,41.142,11.152"/>
<path fill="#008590" d="M30.303,56.664c1.202,4.756,4.319,6.297,8.736,6.471c-3.545,2.689-5.107,5.781-3.318,10.314
	c-3.763-2.322-7.25-3.102-10.988,0.129c1.231-4.412,0.509-7.863-3.488-10.479C25.842,63.02,28.771,61.125,30.303,56.664"/>
</svg>
