<?xml version="1.0" encoding="utf-8"?>
<!-- Generator: Adobe Illustrator 16.0.0, SVG Export Plug-In . SVG Version: 6.00 Build 0)  -->
<!DOCTYPE svg PUBLIC "-//W3C//DTD SVG 1.1//EN" "http://www.w3.org/Graphics/SVG/1.1/DTD/svg11.dtd">
<svg version="1.1" id="Layer_1" xmlns="http://www.w3.org/2000/svg" xmlns:xlink="http://www.w3.org/1999/xlink" x="0px" y="0px"
	 width="108px" height="34.083px" viewBox="0 0 108 34.083" enable-background="new 0 0 108 34.083" xml:space="preserve">
<rect fill="#282828" width="108" height="21.5"/>
<g>
	<path fill="#FFFFFF" d="M32.094,14.363l1.091-1.607c0.576,0.575,1.463,1.056,2.566,1.056c0.696,0,1.127-0.24,1.127-0.636
		c0-1.056-4.521-0.181-4.521-3.263c0-1.343,1.127-2.542,3.178-2.542c1.283,0,2.399,0.384,3.25,1.115l-1.127,1.547
		c-0.672-0.563-1.547-0.84-2.339-0.84c-0.6,0-0.863,0.204-0.863,0.552c0,0.983,4.521,0.24,4.521,3.215
		c0,1.606-1.188,2.674-3.334,2.674C34.025,15.634,32.897,15.118,32.094,14.363z"/>
	<path fill="#FFFFFF" d="M39.306,11.496c0-2.471,1.871-4.138,4.33-4.138c1.931,0,2.974,1.092,3.49,2.135l-1.775,0.852
		c-0.264-0.636-0.947-1.163-1.715-1.163c-1.308,0-2.231,0.995-2.231,2.314c0,1.308,0.923,2.315,2.231,2.315
		c0.768,0,1.451-0.528,1.715-1.164l1.775,0.84c-0.516,1.02-1.559,2.146-3.49,2.146C41.177,15.634,39.306,13.955,39.306,11.496z"/>
	<path fill="#FFFFFF" d="M52.251,15.49l-1.343-2.687h-1.055v2.687H47.79v-8h4.006c1.775,0,2.782,1.176,2.782,2.663
		c0,1.391-0.839,2.135-1.595,2.398l1.631,2.938H52.251z M52.479,10.142c0-0.552-0.444-0.852-0.996-0.852h-1.631v1.715h1.631
		C52.035,11.005,52.479,10.705,52.479,10.142z"/>
	<path fill="#FFFFFF" d="M55.074,11.496c0-2.435,1.834-4.138,4.281-4.138c2.446,0,4.27,1.703,4.27,4.138s-1.823,4.138-4.27,4.138
		C56.908,15.634,55.074,13.931,55.074,11.496z M61.525,11.496c0-1.307-0.852-2.314-2.17-2.314c-1.319,0-2.184,1.008-2.184,2.314
		c0,1.296,0.864,2.315,2.184,2.315C60.674,13.812,61.525,12.792,61.525,11.496z"/>
	<path fill="#FFFFFF" d="M64.409,15.49v-8h2.063v6.201h3.214v1.799H64.409z"/>
	<path fill="#FFFFFF" d="M70.481,15.49v-8h2.063v6.201h3.214v1.799H70.481z"/>
</g>
<polygon fill="#282828" points="54,34.083 61.625,21.083 46.375,21.083 "/>
</svg>
