<?xml version="1.0" encoding="utf-8"?>
<!-- Generator: Adobe Illustrator 15.0.0, SVG Export Plug-In . SVG Version: 6.00 Build 0)  -->
<!DOCTYPE svg PUBLIC "-//W3C//DTD SVG 1.1//EN" "http://www.w3.org/Graphics/SVG/1.1/DTD/svg11.dtd">
<svg version="1.1" id="Layer_1" xmlns="http://www.w3.org/2000/svg" xmlns:xlink="http://www.w3.org/1999/xlink" x="0px" y="0px"
	 width="184px" height="80.247px" viewBox="0 0 184 80.247" enable-background="new 0 0 184 80.247" xml:space="preserve">
<rect x="0" fill="#FFFFFF" width="184" height="80"/>
<g>
	<defs>
		<rect id="SVGID_1_" x="104.176" y="0" width="79.824" height="68.027"/>
	</defs>
	<clipPath id="SVGID_2_">
		<use xlink:href="#SVGID_1_"  overflow="visible"/>
	</clipPath>
	<path clip-path="url(#SVGID_2_)" fill="#006AB3" d="M131.224,64.91v2.082c-0.002,0.014-0.007,0.031-0.007,0.047
		c0,0.02,0.005,0.034,0.007,0.05c0.022,0.515,0.443,0.927,0.96,0.936c0.008,0,0.012,0.003,0.02,0.003
		c0.007,0,0.016-0.003,0.024-0.003h24.425c0.006,0,0.014,0.003,0.021,0.003s0.015-0.003,0.021-0.003
		c0.535-0.009,0.963-0.445,0.965-0.979c0-0.001,0.004-0.003,0.004-0.007c0,0-0.004-0.003-0.004-0.007v-2.356
		c13.748-4.507,24.05-15.65,26.314-29.233c0.005-0.027,0.01-0.055,0.014-0.08c0.008-0.047,0.014-0.089,0.014-0.136
		c0-0.547-0.44-0.988-0.988-0.988h-77.379h-0.466c-0.548,0-0.991,0.441-0.991,0.988l0.052,0.442
		C106.607,49.379,117.191,60.585,131.224,64.91"/>
	<path clip-path="url(#SVGID_2_)" fill="#006AB3" d="M157.636,1.013c-0.319,0.457-7.842,11.285,0.168,20.039
		c3.673,4.02,3.354,7.565,2.304,9.959h5.141c1.039-3.535,0.611-7.97-3.561-12.526c-5.9-6.451,0.074-15.172,0.164-15.308
		c0.704-0.995,0.327-2.276-0.834-2.876C159.853-0.293,158.343,0.026,157.636,1.013"/>
	<path clip-path="url(#SVGID_2_)" fill="#006AB3" d="M144.623,31.012h5.14c1.04-3.535,0.608-7.971-3.563-12.528
		c-5.904-6.453,0.07-15.169,0.164-15.311c0.699-0.99,0.328-2.271-0.836-2.87c-1.16-0.596-2.675-0.279-3.38,0.711
		c-0.321,0.454-7.849,11.283,0.169,20.04C145.99,25.073,145.67,28.62,144.623,31.012"/>
	<path clip-path="url(#SVGID_2_)" fill="#006AB3" d="M126.658,1.013c-0.324,0.457-7.845,11.285,0.166,20.039
		c3.674,4.021,3.358,7.566,2.312,9.959h5.137c1.038-3.533,0.611-7.968-3.565-12.526c-5.902-6.451,0.076-15.172,0.168-15.312
		c0.699-0.991,0.328-2.272-0.84-2.872C128.877-0.296,127.363,0.024,126.658,1.013"/>
</g>
</svg>
