<?xml version="1.0" encoding="utf-8"?>
<!-- Generator: Adobe Illustrator 16.0.0, SVG Export Plug-In . SVG Version: 6.00 Build 0)  -->
<!DOCTYPE svg PUBLIC "-//W3C//DTD SVG 1.1//EN" "http://www.w3.org/Graphics/SVG/1.1/DTD/svg11.dtd">
<svg version="1.1" id="Layer_1" xmlns="http://www.w3.org/2000/svg" xmlns:xlink="http://www.w3.org/1999/xlink" x="0px" y="0px"
	 width="150px" height="150px" viewBox="0 0 150 150" enable-background="new 0 0 150 150" xml:space="preserve">
<g>
	<rect fill="#E1E1E1" width="150.001" height="150"/>
	<path fill="#056CB4" d="M18.992,33.939l4.551-12.447h0.044v12.447H18.992z M23.499,42.814h4.818v-4.907h2.053v-3.967h-2.053V12.57
		h-4.998l-8.785,22.214v3.122h8.965V42.814z"/>
	<polygon fill="#056CB4" points="66.515,80.427 39.613,64.894 39.613,115.145 66.515,123.261 	"/>
	<polygon fill="#056CB4" points="69.474,80.531 69.474,123.278 96.551,115.138 96.551,64.896 	"/>
	<path fill="#056CB4" d="M117.669,63.623c0-1.761-1.425-3.185-3.18-3.185c-1.761,0-3.186,1.424-3.186,3.185v3.43h6.365V63.623z"/>
	<polygon fill="#056CB4" points="112.095,114.252 111.306,114.252 114.488,125.376 117.667,114.252 116.877,114.252 
		117.667,114.252 117.667,69.544 116.877,69.544 116.087,69.544 115.25,69.544 113.666,69.544 112.885,69.544 112.095,69.544 
		111.304,69.544 111.304,114.252 	"/>
	<polygon fill="#056CB4" points="102.329,67.052 99.445,64.773 99.445,116.505 69.553,126.166 68.171,126.166 67.896,126.166 
		66.516,126.166 36.756,117.852 36.756,64.773 33.872,67.052 33.872,119.875 66.379,128.873 67.896,128.873 68.171,128.873 
		69.688,128.873 99.681,119.352 102.329,118.573 	"/>
	<polygon fill="#056CB4" points="42.835,30.537 47.753,30.537 47.753,32.217 44.896,32.217 44.896,35.726 46.939,35.726 
		46.939,37.388 44.896,37.388 44.896,41.113 47.753,41.113 47.753,42.792 42.835,42.792 	"/>
	<path fill="#056CB4" d="M51.932,41.112c0.849,0,1.174-0.506,1.174-1.247v-6.417c0-0.723-0.326-1.229-1.174-1.229h-0.87v8.893
		H51.932z M55.167,33.827v5.676c0,1.881-0.778,3.29-2.983,3.29h-3.182V30.536h3.182C54.388,30.536,55.167,31.93,55.167,33.827"/>
	<path fill="#056CB4" d="M62.508,30.537v9.273c0,1.898-0.813,3.128-2.91,3.128c-2.171,0-3.074-1.229-3.074-3.128v-9.273h2.061v9.472
		c0,0.724,0.29,1.211,1.013,1.211c0.723,0,1.013-0.487,1.013-1.211v-9.472H62.508z"/>
	<path fill="#056CB4" d="M63.865,39.63V33.7c0-1.916,0.904-3.307,3.074-3.307c2.277,0,2.91,1.266,2.91,3.072v1.448H67.97v-1.609
		c0-0.76-0.254-1.193-0.995-1.193s-1.049,0.525-1.049,1.266v6.58c0,0.742,0.308,1.264,1.049,1.264s0.995-0.469,0.995-1.191v-2.26
		h1.879v2.115c0,1.754-0.723,3.056-2.91,3.056C64.77,42.938,63.865,41.527,63.865,39.63"/>
	<path fill="#056CB4" d="M73.087,38.908h1.645l-0.813-4.918h-0.018L73.087,38.908z M70.502,42.792l2.314-12.255h2.349L77.5,42.792
		h-2.116l-0.38-2.241h-2.186l-0.362,2.241H70.502z"/>
	<polygon fill="#056CB4" points="77.229,30.537 82.707,30.537 82.707,32.217 81.008,32.217 81.008,42.792 78.928,42.792 
		78.928,32.217 77.229,32.217 	"/>
	<rect x="83.848" y="30.538" fill="#056CB4" width="2.06" height="12.255"/>
	<path fill="#056CB4" d="M91.459,39.956v-6.58c0-0.741-0.327-1.266-1.068-1.266c-0.723,0-1.048,0.525-1.048,1.266v6.58
		c0,0.742,0.326,1.264,1.048,1.264C91.133,41.219,91.459,40.698,91.459,39.956 M87.282,39.63V33.7c0-1.916,0.94-3.307,3.11-3.307
		c2.187,0,3.128,1.392,3.128,3.307v5.93c0,1.897-0.941,3.308-3.128,3.308C88.222,42.938,87.282,41.527,87.282,39.63"/>
	<polygon fill="#056CB4" points="96.613,35.093 96.613,42.793 94.877,42.793 94.877,30.538 96.902,30.538 99.126,37.568 
		99.126,30.538 100.845,30.538 100.845,42.793 99.036,42.793 	"/>
	<path fill="#056CB4" d="M47.012,22.081v-6.688c0-0.741-0.325-1.266-1.066-1.266c-0.723,0-1.048,0.525-1.048,1.266v6.688
		c0,0.723,0.326,1.266,1.048,1.266C46.687,23.347,47.012,22.804,47.012,22.081 M45.186,25.643v-0.833
		c-1.645-0.29-2.35-1.499-2.35-3.163v-5.93c0-1.916,0.94-3.307,3.11-3.307c2.187,0,3.126,1.392,3.126,3.307v5.93
		c0,1.338-0.469,2.387-1.518,2.893l1.518,0.289v1.537L45.186,25.643z"/>
	<path fill="#056CB4" d="M56.396,12.555v9.272c0,1.899-0.813,3.128-2.909,3.128c-2.169,0-3.075-1.229-3.075-3.128v-9.272h2.062
		v9.472c0,0.723,0.289,1.211,1.013,1.211c0.723,0,1.012-0.488,1.012-1.211v-9.472H56.396z"/>
	<path fill="#056CB4" d="M59.761,20.925h1.646l-0.813-4.917h-0.018L59.761,20.925z M57.176,24.812l2.315-12.256h2.35l2.333,12.256
		h-2.116l-0.38-2.243h-2.187l-0.361,2.243H57.176z"/>
	<polygon fill="#056CB4" points="65.167,12.555 67.229,12.555 67.229,23.13 69.687,23.13 69.687,24.812 65.167,24.812 	"/>
	<rect x="70.646" y="12.556" fill="#056CB4" width="2.06" height="12.256"/>
	<polygon fill="#056CB4" points="73.667,12.555 79.145,12.555 79.145,14.236 77.445,14.236 77.445,24.812 75.366,24.812 
		75.366,14.236 73.667,14.236 	"/>
	<polygon fill="#056CB4" points="84.155,20.147 84.155,24.812 82.093,24.812 82.093,20.147 79.798,12.556 81.95,12.556 
		83.196,17.201 83.215,17.201 84.462,12.556 86.432,12.556 	"/>
</g>
</svg>
