<?xml version="1.0" encoding="utf-8"?>
<!-- Generator: Adobe Illustrator 16.0.0, SVG Export Plug-In . SVG Version: 6.00 Build 0)  -->
<!DOCTYPE svg PUBLIC "-//W3C//DTD SVG 1.1//EN" "http://www.w3.org/Graphics/SVG/1.1/DTD/svg11.dtd">
<svg version="1.1" id="Layer_1" xmlns="http://www.w3.org/2000/svg" xmlns:xlink="http://www.w3.org/1999/xlink" x="0px" y="0px"
	 width="220px" height="138.173px" viewBox="0 0 220 138.173" enable-background="new 0 0 220 138.173" xml:space="preserve">
<rect fill="#FFFFFF" width="220" height="138.173"/>
<g>
	<path fill="#24ABE2" d="M28.738,77.119v11.721h2.164c2.979,0,5.011-2.061,5.011-5.78v-0.135c0-3.718-2.032-5.806-5.011-5.806
		H28.738z M24.813,73.616h6.118c5.495,0,9.042,3.744,9.042,9.229v0.242c0,5.482-3.546,9.255-9.042,9.255h-6.118V73.616z"/>
	<polygon fill="#24ABE2" points="42.055,73.616 54.266,73.616 54.266,77.119 45.954,77.119 45.954,81.16 53.262,81.16 
		53.262,84.665 45.954,84.665 45.954,88.839 54.373,88.839 54.373,92.341 42.055,92.341 	"/>
	<polygon fill="#24ABE2" points="55.022,73.616 59.272,73.616 63.277,86.51 67.284,73.616 71.427,73.616 65.038,92.45 61.41,92.45 	
		"/>
	<polygon fill="#24ABE2" points="72.778,73.616 84.989,73.616 84.989,77.119 76.676,77.119 76.676,81.16 83.985,81.16 
		83.985,84.665 76.676,84.665 76.676,88.839 85.097,88.839 85.097,92.341 72.778,92.341 	"/>
	<polygon fill="#24ABE2" points="87.18,73.616 91.104,73.616 91.104,88.783 98.766,88.783 98.766,92.341 87.18,92.341 	"/>
	<path fill="#24ABE2" d="M111.814,83.086v-0.188c0-3.691-1.895-6.018-4.522-6.018c-2.654,0-4.52,2.299-4.52,5.991v0.188
		c0,3.692,1.922,6.018,4.547,6.018S111.814,86.776,111.814,83.086 M98.738,83.166v-0.319c0-5.62,3.571-9.552,8.582-9.552
		c5.037,0,8.556,3.906,8.556,9.497v0.32c0,5.592-3.574,9.551-8.583,9.551C102.256,92.663,98.738,88.757,98.738,83.166"/>
	<path fill="#24ABE2" d="M124.103,83.166c2.03,0,3.167-1.257,3.167-2.995v-0.027c0-1.953-1.137-3.024-3.222-3.024h-2.14v6.047
		H124.103z M117.984,73.616h6.306c4.252,0,6.934,2.435,6.934,6.418v0.057c0,4.306-3.114,6.474-7.095,6.554h-2.221v5.697h-3.924
		V73.616z"/>
	<polygon fill="#24ABE2" points="132.791,73.616 136.904,73.616 141.13,81.213 145.298,73.616 149.44,73.616 149.44,92.341 
		145.596,92.341 145.596,80.382 141.13,88.115 141.049,88.115 136.609,80.438 136.609,92.341 132.791,92.341 	"/>
	<polygon fill="#24ABE2" points="152.227,73.616 164.435,73.616 164.435,77.119 156.124,77.119 156.124,81.16 163.434,81.16 
		163.434,84.665 156.124,84.665 156.124,88.839 164.544,88.839 164.544,92.341 152.227,92.341 	"/>
	<polygon fill="#24ABE2" points="166.627,73.616 170.227,73.616 177.483,84.529 177.483,73.616 181.328,73.616 181.328,92.341 
		177.969,92.341 170.472,81.028 170.472,92.341 166.627,92.341 	"/>
	<polygon fill="#24ABE2" points="187.741,77.201 182.979,77.201 182.979,73.616 196.406,73.616 196.406,77.201 191.641,77.201 
		191.641,92.341 187.741,92.341 	"/>
	<path fill="#24ABE2" d="M23.432,64.786l2.554-3.14c1.396,1.201,3.089,2.316,5.166,2.316c1.661,0,2.673-0.82,2.673-2.023V61.91
		c0-1.026-0.596-1.674-3.563-2.788c-3.681-1.41-5.967-2.786-5.967-6.307v-0.058c0-3.581,2.789-6.017,6.797-6.017
		c2.435,0,4.81,0.823,6.71,2.525l-2.405,3.228c-1.306-1.057-2.82-1.908-4.424-1.908c-1.484,0-2.403,0.733-2.403,1.789v0.031
		c0,1.172,0.711,1.731,3.946,3.05c3.624,1.41,5.582,2.934,5.582,6.133v0.059c0,3.814-2.938,6.159-6.977,6.159
		C28.48,67.805,25.718,66.897,23.432,64.786"/>
	<path fill="#24ABE2" d="M39.908,59.562V47.003h4.304v12.588c0,2.904,1.397,4.342,3.623,4.342c2.227,0,3.621-1.407,3.621-4.254
		V47.003h4.275v12.47c0,5.663-3.146,8.391-7.955,8.391C42.995,67.864,39.908,65.108,39.908,59.562"/>
	<path fill="#24ABE2" d="M57.008,64.786l2.553-3.14c1.397,1.201,3.09,2.316,5.167,2.316c1.66,0,2.671-0.82,2.671-2.023V61.91
		c0-1.026-0.595-1.674-3.563-2.788c-3.681-1.41-5.968-2.786-5.968-6.307v-0.058c0-3.581,2.792-6.017,6.799-6.017
		c2.435,0,4.81,0.823,6.71,2.525l-2.404,3.228c-1.307-1.057-2.821-1.908-4.425-1.908c-1.483,0-2.403,0.733-2.403,1.789v0.031
		c0,1.172,0.71,1.731,3.946,3.05c3.624,1.41,5.582,2.934,5.582,6.133v0.059c0,3.814-2.939,6.159-6.976,6.159
		C62.055,67.805,59.293,66.897,57.008,64.786"/>
	<polygon fill="#24ABE2" points="77.285,50.935 72.06,50.935 72.06,47.004 86.785,47.004 86.785,50.935 81.56,50.935 81.56,67.542 
		77.285,67.542 	"/>
	<path fill="#24ABE2" d="M96.581,59.328l-2.258-6.691l-2.285,6.691H96.581z M92.334,46.888h4.098l7.452,20.653h-4.452l-1.544-4.461
		h-7.156l-1.514,4.461h-4.334L92.334,46.888z"/>
	<rect x="105.515" y="47.003" fill="#24ABE2" width="4.305" height="20.538"/>
	<polygon fill="#24ABE2" points="113.024,47.004 116.974,47.004 124.93,58.974 124.93,47.004 129.148,47.004 129.148,67.542 
		125.465,67.542 117.243,55.132 117.243,67.542 113.024,67.542 	"/>
	<path fill="#24ABE2" d="M142.328,59.328l-2.257-6.691l-2.284,6.691H142.328z M138.081,46.888h4.1l7.452,20.653h-4.454l-1.545-4.461
		h-7.157l-1.51,4.461h-4.335L138.081,46.888z"/>
	<path fill="#24ABE2" d="M159.07,58.974h-3.771v4.812h3.859c1.933,0,3.148-0.82,3.148-2.406v-0.029
		C162.307,59.883,161.208,58.974,159.07,58.974 M161.417,53.049c0-1.497-1.067-2.29-2.91-2.29h-3.208v4.638h3.001
		c1.899,0,3.117-0.766,3.117-2.321V53.049z M151.114,47.004h7.718c2.316,0,4.247,0.617,5.434,1.79
		c0.923,0.94,1.398,2.053,1.398,3.493v0.087c0,2.404-1.337,3.697-2.825,4.49c2.23,0.848,3.714,2.2,3.714,4.897v0.148
		c0,3.696-3.001,5.632-7.512,5.632h-7.927V47.004z"/>
	<polygon fill="#24ABE2" points="168.569,47.004 172.873,47.004 172.873,63.64 181.278,63.64 181.278,67.542 168.569,67.542 	"/>
	<polygon fill="#24ABE2" points="183.057,47.004 196.448,47.004 196.448,50.847 187.332,50.847 187.332,55.278 195.35,55.278 
		195.35,59.121 187.332,59.121 187.332,63.699 196.567,63.699 196.567,67.542 183.057,67.542 	"/>
	<path fill="#498BC9" d="M109.809,27.925l0.12,0.174c0,0.655,0.083,1.324,0,1.971c0.598-0.199,1.294-0.167,1.94-0.27
		c-0.131-0.048-0.26-0.079-0.356-0.208c-0.378-0.024-0.555-0.414-0.677-0.711c-0.057-0.215,0.088-0.389,0.178-0.576
		c-0.163-0.323-0.661-0.085-0.952-0.207C109.979,28.037,109.923,27.941,109.809,27.925 M100.588,27.364l-0.025,0.099l-1.664,1.65
		c2.52,2.154,5.362,3.543,8.607,3.982c0.518,0.088,1.107,0.042,1.609,0.191l-0.123-0.191v-2.162l0.081-0.121l-0.25,0.064
		C105.673,30.661,102.888,29.559,100.588,27.364 M118.515,27.39l-0.04-0.191c-0.227,0.439-0.726,0.717-1.105,1.054
		c-0.525,0.52-1.382,0.629-1.648,1.379c-0.28,0.256-0.38,0.655-0.774,0.799c-0.146,0.382-0.557,0.36-0.792,0.637
		c-0.678,0.601-1.115-0.38-1.729-0.501l-1.236,0.215c-0.427,0-0.856,0.152-1.26,0.015c0.06,0.814,0.06,1.692,0,2.507l0.156-0.095
		c3.894-0.168,7.253-1.628,10.135-4.214L118.515,27.39z M103.593,25.899c0.046,0.189,0.307,0.311,0.233,0.548
		c-0.138,0.215-0.421,0.222-0.645,0.215c-0.461-0.072-0.802,0.272-1.236,0.32c-0.397,0.123-0.533-0.359-0.896-0.32
		c2.245,1.94,4.812,3.152,7.816,3.312l0.226,0.151l-0.096-0.272V27.75l-0.192,0.08C106.838,27.731,105.118,27.022,103.593,25.899
		 M103.536,25.834c-0.105-0.064-0.17-0.127-0.196-0.249L103.536,25.834z M103.275,25.491l-0.032-0.057l0.032,0.097V25.491z
		 M116.261,25.188l-0.057-0.151c-0.069,0.19-0.217,0.311-0.364,0.455c0.01,0.128-0.036,0.32,0.114,0.409
		c0.325,0.103,0.746,0.311,0.817,0.685c-0.13,0.351-0.808,0.67-0.387,1.053c0.138,0.191-0.195,0.263-0.136,0.422l0.109-0.152
		c0.485-0.374,1.011-0.724,1.438-1.188h0.057c-0.1-0.032-0.219,0.064-0.333,0.016c-0.226-0.104-0.266-0.303-0.266-0.534
		L116.261,25.188z M105.045,22.96c-0.477,0.574-1.044,1.172-1.606,1.628c0.249,0.017,0.387,0.289,0.597,0.406
		c1.21,0.998,2.721,1.477,4.126,1.82l-0.388-0.175c-0.291-0.328-0.704-0.711-0.719-1.167c0.292-0.096,0.257-0.414,0.357-0.629
		c0.24-0.256,0.531-0.392,0.846-0.462c-0.815,0.333-1.526-0.265-2.204-0.575C105.708,23.554,105.254,23.343,105.045,22.96
		 M112.839,22.738c-0.252,0-0.38,0.191-0.565,0.341c-0.227,0.129-0.34-0.238-0.525-0.15l0.08,0.07c0.048,0.057,0.067,0.177,0,0.23
		c-0.275,0.251-0.403-0.117-0.662-0.094v0.094c0.008,0.057-0.015,0.144-0.097,0.113c-0.163-0.264-0.491-0.167-0.655-0.4
		c-0.104-0.054-0.2,0.018-0.272,0.08c-0.057,0.123-0.314-0.014-0.252,0.192c-0.2,0.073-0.227,0.288-0.372,0.417
		c-0.25-0.042-0.364,0.238-0.597,0.229c0.024,0.05,0,0.129,0.073,0.137c0.145,0.063,0.292,0.081,0.471,0.055
		c0.242-0.383,0.645-0.062,0.984-0.207c0.208,0.04,0.063,0.264,0.216,0.344c0.332-0.103,0.584,0.278,0.848,0.039
		c-0.015-0.375,0.413-0.343,0.646-0.44c0.363-0.214,0.777-0.501,0.734-0.98L112.839,22.738z M111.926,22.138
		c-0.023,0.064-0.111,0.177,0,0.215c0.195-0.197,0.604-0.191,0.623-0.477C112.264,21.834,112.121,21.986,111.926,22.138
		 M107.234,20.742c-0.347,0.558-1.009,1.07-1.493,1.588c0.863,0.703,1.832,1.141,2.905,1.323c0.057-0.214-0.031-0.486,0.083-0.669
		c0.079-0.176,0.298-0.167,0.46-0.137c0.097-0.006,0.153-0.127,0.097-0.207c-0.234-0.046-0.131-0.303-0.21-0.446
		c0.007-0.08,0.145-0.064,0.114-0.167c-0.162-0.127,0.08-0.272-0.058-0.408c0.058-0.041,0.096-0.126,0.181-0.126
		c-0.51,0.261-1.061-0.057-1.512-0.257C107.588,21.118,107.282,20.999,107.234,20.742 M117.409,20.742
		c-0.235-0.016-0.516,0.12-0.718-0.041c-0.074-0.063-0.124,0.031-0.117,0.095c-0.078,0.123-0.159,0.274-0.345,0.217
		c-0.145-0.065-0.145-0.217-0.192-0.328c0.005,0.088-0.023,0.168-0.043,0.249c-0.169,0.174-0.226,0.344-0.345,0.534
		c-0.171,0.183-0.444,0.12-0.623,0.271c-0.033,0.383-0.459,0.303-0.703,0.422l0.066,0.098c0.111,0.031,0.266,0.031,0.345-0.08
		c0.342,0.088,0.269-0.337,0.461-0.482c0.171-0.022,0.333-0.166,0.509-0.053c0.179,0.216,0.219,0.527,0.192,0.806
		c-0.192,0.19-0.093,0.5-0.23,0.726c0.031,0.263-0.292,0.382-0.252,0.646c-0.106,0.12-0.283,0.136-0.444,0.136
		c-0.638-0.238-1.308-0.391-2.019-0.456c-0.064,0.025-0.104,0.082-0.096,0.151c0.29,0.153,0.645,0.162,0.954,0.289
		c0.271,0.072,0.459,0.406,0.806,0.302c0.293-0.157,0.775,0.096,0.968-0.207c-0.031-0.296,0.229-0.51,0.356-0.766l0.098-0.024
		c0.162,0.168,0.152,0.414,0.224,0.598c0.229-0.24,0.404-0.503,0.606-0.751c0.532-0.764,0.986-1.586,1.18-2.465
		C117.828,20.639,117.611,20.678,117.409,20.742 M112.839,20.727c0.008,0.12,0.024,0.278,0.129,0.382
		c0.316-0.046,0.178,0.385,0.468,0.345c0.162-0.05,0.01-0.185,0.055-0.289c-0.045-0.238-0.28-0.263-0.444-0.405l0.043-0.129
		C112.968,20.567,112.91,20.639,112.839,20.727 M106.459,20.072c-0.05,0.2-0.188,0.375-0.332,0.517l0.025,0.018
		c0.191-0.135,0.329-0.384,0.58-0.399L106.459,20.072z M103.922,19.441c0.226,0.414,0.348,0.885,0.582,1.301
		c0.146,0.366,0.471,0.655,0.614,1.013c0.154-0.287,0.461-0.518,0.678-0.779c0.016-0.122-0.008-0.226-0.072-0.313
		c-0.073-0.168-0.006-0.407-0.138-0.551c-0.208,0.071,0.075,0.28-0.015,0.398c-0.089,0.057-0.186-0.016-0.193-0.094
		c-0.188-0.033-0.332-0.194-0.388-0.359c0.154-0.096-0.042-0.138-0.082-0.217c-0.081-0.04-0.089-0.031-0.151,0.041l-0.123-0.015
		C104.634,19.409,104.117,19.682,103.922,19.441 M99.772,18.459l-0.179,0.082c-0.75-0.019-1.533,0.047-2.245-0.056l0.096,0.134
		l0.18,1.469c0.072,0.565,0.322,1.109,0.307,1.666c0.088-0.119,0.031-0.358,0.251-0.383c-0.09-0.173,0.167-0.326,0.023-0.477
		c0.073-0.385,0.12-0.776,0.46-1.056c0.41-0.016,0.443-0.549,0.854-0.574c0.21-0.008,0.341,0.271,0.428,0.367
		C99.692,19.321,99.708,18.812,99.772,18.459 M96.615,18.459l-0.218,0.082l-2.247-0.019c0.13,2.555,0.814,4.877,1.979,7.008
		c0.574,1.054,1.414,2.003,2.148,2.984l1.606-1.643l0.194-0.08c-0.274-0.193-0.516-0.503-0.75-0.77
		c-0.268-0.07-0.543-0.253-0.678-0.51c-0.083-0.088-0.011-0.246-0.099-0.311l-0.096,0.122c-0.284,0.135-0.388-0.152-0.582-0.272
		c-0.25-0.135-0.131-0.607-0.468-0.52c-0.13-0.007-0.17-0.15-0.25-0.23c-0.313,0.031-0.397-0.311-0.563-0.479
		c-0.034,0.073,0,0.169-0.099,0.215c-0.325,0.073-0.436-0.317-0.655-0.479c-0.055,0.026-0.097,0.088-0.177,0.074
		c-0.195-0.169-0.322-0.408-0.333-0.672c-0.264-0.293-0.145-0.766-0.095-1.126c0.049-0.095,0.187-0.152,0.161-0.271
		c0.072-0.167,0.252-0.184,0.421-0.191c0.065,0.031,0.128,0.096,0.161,0.15c0.105-0.062,0.341,0.01,0.25-0.222
		c0.137-0.119,0.338-0.158,0.524-0.191c0.131,0.16,0.193,0.345,0.364,0.496l-0.112-0.176c-0.194-0.784-0.348-1.582-0.387-2.425
		c0.008-0.049-0.107-0.071-0.042-0.122l0.019,0.024C96.598,18.732,96.582,18.58,96.615,18.459 M100.507,18.429l0.12,0.191
		c0.018,0.526,0.229,1.031,0.114,1.563c0.088-0.149,0.114-0.359,0.307-0.454c0.022-0.144-0.192-0.184-0.171-0.329
		c0.153-0.294,0.01-0.771,0.406-0.899C100.999,18.549,100.749,18.602,100.507,18.429 M119.347,18.406
		c0.051,0.484-0.078,0.957-0.113,1.434l0.269,0.288c0.071,0.113,0.047,0.279-0.058,0.367c-0.111,0.073-0.257,0.064-0.373-0.023
		c-0.335,1.069-0.734,2.115-1.412,3.048c-0.267,0.335-0.523,0.797-0.873,0.971l0.734,0.64l0.024-0.158
		c0-0.095,0.052-0.207,0.171-0.194c0.356-0.006,0.364,0.367,0.566,0.561c-0.041,0.301,0.226,0.541,0.135,0.822
		c2.038-2.124,3.054-4.725,3.239-7.605l0.113-0.127c-0.725,0.072-1.493,0.022-2.244,0.031L119.347,18.406z M122.586,18.459
		l-0.139-0.094l0.081,0.214c-0.131,2.657-1.024,5.005-2.561,7.085c-0.297,0.352-0.578,0.783-0.954,1.031
		c0.619,0.478,1.294,1.199,1.806,1.747l0.062-0.118c2.471-2.786,3.876-6.01,4.03-9.745l0.098-0.191l-0.121,0.056L122.586,18.459z
		 M117.062,18.349l0.249,0.245c0.252,0.17,0.081,0.528,0.348,0.672c0.313,0.16,0.428,0.52,0.565,0.792
		c0.048-0.072,0.048-0.16,0.074-0.233c0.111-0.438,0.095-0.935,0.232-1.365C118.047,18.486,117.49,18.532,117.062,18.349
		 M117.563,17.566c-0.066,0.032-0.154,0.006-0.237,0.013C117.399,17.551,117.49,17.566,117.563,17.566 M102.444,17.295
		c-0.655,0.207,0.105,0.693-0.056,1.093c-0.088,0.232-0.329,0.018-0.5,0.113l-0.064,0.422c-0.1,0.246-0.412,0.063-0.558,0.233
		c-0.104,0.158,0.008,0.326,0.096,0.453c-0.226,0.51,0.506,0.671,0.501,1.133c0.224,0.285-0.033,0.703,0.289,0.956
		c0.073,0.521-0.073,1.222,0.389,1.63l0.081,0.494c0.097,0.343-0.413,0.257-0.347,0.56c0.097-0.05,0.123,0.08,0.129,0.108v-0.013
		c0.621-0.711,1.341-1.462,2.076-2.091l-0.307-0.303c-0.574-0.846-1.026-1.746-1.245-2.739l-0.233-0.118
		c-0.011,0.256-0.13,0.456-0.114,0.709l-0.081,0.099c-0.17-0.01-0.275-0.145-0.421-0.233c-0.031-0.09-0.119-0.233,0.017-0.303
		c0.082-0.01,0.138,0.017,0.193,0.055c0.073-0.086,0.041-0.215,0.082-0.326c0.025-0.192-0.147-0.367-0.025-0.534
		c0.153-0.018,0.267,0.167,0.33,0.27c0.156,0.049,0.276-0.081,0.405-0.136c0-0.134,0.192-0.32-0.016-0.398
		c0.114-0.313,0.031-0.64-0.018-0.943C102.961,17.223,102.662,17.27,102.444,17.295 M109.464,15.326
		c-0.131-0.145-0.414-0.057-0.583,0c0.161,0.158,0.096,0.444,0.193,0.644c-0.242,0.398-0.647,0.488-1.026,0.601
		c-0.104,0.125-0.081,0.404-0.331,0.382c-0.08,0.174-0.355,0.279-0.252,0.534c-0.127,0.272-0.062,0.623-0.135,0.92
		c-0.476,0.295-0.338-0.391-0.579-0.536l-0.083,0.136c-0.099,0.025-0.162-0.032-0.226-0.094c-0.073-0.026-0.195-0.05-0.259,0.013
		c-0.104,0.179-0.266,0.32-0.225,0.562c-0.051,0.143-0.292,0.094-0.259,0.246c0.268-0.009,0.557-0.057,0.815-0.112
		c0.185,0.046,0.34-0.088,0.526-0.098c0.064,0.033,0.137,0.098,0.111,0.194h0.065c0.13-0.096,0.187-0.24,0.13-0.383
		c0.015-0.169,0.202-0.169,0.314-0.218c0.105,0.049,0.042,0.153,0.057,0.233c0.364,0.137-0.088,0.398-0.137,0.591
		c-0.097,0.149,0,0.494-0.308,0.447c-0.056-0.016-0.096-0.072-0.08-0.138h-0.042c-0.008,0.129,0.088,0.303,0.218,0.36
		c0.227-0.183,0.234-0.494,0.559-0.535c0.169-0.177-0.072-0.446,0.177-0.588c0.421-0.01,0.873-0.186,1.206,0.149
		c-0.026,0.143-0.084,0.21,0.038,0.327c-0.081,0.184-0.137,0.381-0.29,0.535c0.042,0.104,0.007,0.231-0.081,0.303
		c-0.114,0.486-0.677,0.257-1.01,0.422c0.509,0.384,1.122,0.528,1.784,0.479c0.349-0.016,0.195-0.438,0.373-0.63
		c0.114-0.558,0.629-0.175,0.945-0.328c0.12-0.238,0.242-0.471,0.276-0.741c-0.204-0.128-0.285-0.368-0.219-0.597
		c-0.138-0.184-0.122-0.521-0.424-0.551c-0.046-0.065-0.004-0.145,0.035-0.191c-0.006-0.177,0.169-0.233,0.22-0.368
		c-0.187-0.12-0.138-0.384-0.122-0.536c-0.314,0.089-0.349-0.318-0.582-0.407c-0.055-0.183-0.257-0.214-0.418-0.246
		c-0.39,0.182-0.456-0.286-0.746-0.4c-0.031-0.085-0.096-0.215,0-0.287c0.145-0.12,0.34-0.017,0.509-0.024L109.464,15.326z
		 M105.546,14h0.177c0.194,0.191,0.509,0.151,0.655,0.407c0.073,0.143-0.138,0.127-0.13,0.248l0.13,0.094
		c0.153,0.057,0.119-0.088,0.179-0.151c0.201-0.2,0.231,0.192,0.427,0.192c0.138-0.089,0.329-0.098,0.429,0.054
		c0.128-0.111,0.402-0.007,0.443-0.215c0.25-0.263,0.112-0.669,0.482-0.836c0.131,0.07-0.007,0.191,0.042,0.301
		c0.25,0.103,0.532-0.207,0.736,0.042c-0.187-0.517-0.138-1.165-0.123-1.74C107.694,12.562,106.497,13.001,105.546,14
		 M109.89,12.331c0.153,0.456,0.017,1.126,0.114,1.654l0.58,0.189c0.169-0.279,0.542-0.333,0.702-0.597
		c0.107-0.088,0.227,0,0.31,0.094c0.023,0.217-0.033,0.431-0.098,0.64c-0.218,0.431-0.735,0.489-1.026,0.798
		c0.185,0.104,0.291-0.087,0.444-0.127c0.226,0.022,0.403,0.215,0.542,0.36c0.145,0.062,0.28-0.026,0.411-0.072
		c0.09-0.664,0.93-0.567,1.177-1.19l-0.152,0.057c-0.063-0.089-0.226-0.047-0.219-0.192c0.138-0.128,0.319-0.325,0.487-0.382
		c-0.728-0.448-1.479-0.829-2.302-1.038C110.537,12.452,110.199,12.442,109.89,12.331 M102.911,12.069
		c-1.113,1.315-1.871,2.768-2.169,4.421c-0.09,0.38-0.042,0.829-0.196,1.188c0.284-0.127,0.695-0.08,1.012-0.042
		c-0.184-0.095-0.033-0.326-0.138-0.456c-0.025-0.197-0.057-0.446,0.138-0.574c-0.025-0.327,0.331-0.492,0.361-0.787
		c0.09-0.336,0.479-0.114,0.664-0.288c0.121-0.064,0.016-0.178,0.016-0.264c0.16-0.218,0.414-0.209,0.604-0.328
		c0.138-0.207,0.318-0.431,0.545-0.558c0.482,0.016,0.49-0.655,0.952-0.672C104.068,13.239,103.47,12.61,102.911,12.069
		 M116.052,11.987l-0.038,0.097c-0.744,0.765-1.561,1.555-2.271,2.337c0.048,0.095,0.131,0.183,0.219,0.233
		c0.031-0.191,0.136-0.36,0.152-0.561c0.193-0.261,0.485-0.094,0.735-0.038c0.39-0.086,0.751,0.088,1.146,0.08
		c0.293,0.144,0.316,0.51,0.58,0.655c0.074,0.104,0.02,0.222-0.078,0.302c0.078,0.601,0.371-0.16,0.678-0.018
		c0.128,0.049,0.29,0.033,0.39,0.17c0.048,0.246,0.356,0.197,0.371,0.439c-0.026,0.119-0.154,0.152-0.233,0.216
		c0.072,0.239-0.252,0.389-0.138,0.646c0.466,0.088,0.483-0.448,0.702-0.687c-0.122-0.417-0.21-0.837-0.452-1.204
		c-0.269-0.057-0.428-0.367-0.694-0.424c-0.516-0.2,0.081-0.52,0.017-0.823C116.86,12.898,116.425,12.442,116.052,11.987
		 M100.604,9.768l-0.015,0.153l-0.873,1.093c-1.429,1.941-2.108,4.182-2.31,6.623l2.213-0.038l0.21,0.08
		c-0.09-0.057-0.065-0.152-0.099-0.23c0.177-2.274,0.987-4.304,2.578-5.995C101.693,10.928,101.119,10.367,100.604,9.768
		 M109.866,9.171l0.081,0.178l-0.018,2.159l0.213-0.04c1.339,0.186,2.569,0.61,3.625,1.461l0.057,0.169
		c0.364-0.502,0.911-0.932,1.342-1.414l0.403-0.231l-0.194-0.081c-0.887-0.732-1.857-1.291-2.908-1.657
		C111.65,9.426,110.753,9.308,109.866,9.171 M109.02,9.155l-0.138,0.08c-2.052,0.145-3.827,0.989-5.388,2.26
		c0.615,0.421,1.163,1.101,1.722,1.586c0.039-0.054,0.081-0.111,0.12-0.175c0.769-0.541,1.56-1.038,2.463-1.262
		c0.403-0.039,0.8-0.23,1.221-0.137C108.93,10.76,108.93,9.929,109.02,9.155 M98.398,7.488c-2.301,2.531-3.721,5.418-4.134,8.715
		c-0.088,0.479-0.035,0.972-0.131,1.46c0.809-0.064,1.688-0.064,2.497,0l-0.057-0.313c0.153-2.544,0.978-4.812,2.422-6.838
		c0.364-0.407,0.631-0.919,1.083-1.222c-0.524-0.486-1.075-1.053-1.623-1.587L98.398,7.488z M120.607,7.43
		c-0.442,0.592-1.049,1.143-1.607,1.708l-0.273,0.055c0.169,0.042,0.216,0.241,0.33,0.36c0.59,0.312,0.742,0.934,1.261,1.286
		c0.29,0.598,0.96,1.061,0.981,1.748c0.704,1.529,1.182,3.152,1.229,4.954l-0.064,0.095c0.071,0,0.136-0.03,0.193-0.07l2.327-0.04
		c-0.151-0.223-0.093-0.552-0.131-0.822C124.547,13.153,123.014,10.112,120.607,7.43 M102.662,8.158
		c-0.5,0.342-0.96,0.791-1.476,1.093c0.595,0.375,1.089,0.998,1.629,1.493l0.058,0.151c1.374-1.302,3.044-2.06,4.845-2.425
		c0.428-0.039,0.855-0.183,1.276-0.096c-0.031-0.759-0.096-1.548-0.016-2.298C106.635,6.211,104.538,6.913,102.662,8.158
		 M117.159,6.011c-0.171,0.159-0.315-0.144-0.468,0.042c-0.01,0.087,0.009,0.165,0.057,0.229c0.338,0.119,0.378,0.606,0.815,0.497
		c0.126-0.145-0.081-0.297-0.043-0.48C117.464,6.129,117.318,6.06,117.159,6.011 M109.851,5.995l0.078,0.152
		c-0.013,0.741,0.033,1.532-0.039,2.226c0.309-0.104,0.622,0.024,0.93,0.032c1.58,0.255,3.078,0.758,4.345,1.723
		c-0.152-0.158-0.341-0.344-0.371-0.574l0.095-0.031c0.02-0.249-0.25-0.375-0.29-0.6c0.04-0.048,0.095-0.094,0.179-0.07
		c0.271,0.256,0.511,0.534,0.713,0.823c0.176-0.073,0.321,0.041,0.449,0.134c0.235,0.138,0.088,0.433,0.265,0.592
		c0.035,0.469,0.615,0.733,0.582,1.204c0.01,0.112,0.146,0.025,0.195,0.079l0.482,0.592c-0.088,0.109-0.015,0.248,0.081,0.327
		c0.219,0.095,0.34-0.177,0.559-0.136c0.313,0.175-0.048,0.382-0.017,0.576c0.121,0.007,0.275-0.099,0.373,0.022
		c0.038,0.174-0.147,0.288-0.219,0.398c0,0.176,0.146,0.135,0.273,0.176c0.147-0.007,0.235,0.167,0.195,0.288
		c0.404,0.415-0.124,0.863,0.071,1.3c0.131,0.288-0.031,0.567-0.209,0.782c0.009,0.352-0.316,0.567-0.445,0.862l-0.411,0.081
		c-0.219,0.216,0.186,0.478-0.033,0.614l0.903,0.013l-0.095-0.094c-0.129-0.351-0.098-0.822,0.121-1.133
		c0.138-0.286,0.169-0.631,0.428-0.876c0.058-0.017,0.159-0.123,0.212,0c0.017,0.272-0.012,0.582-0.138,0.82
		c0.257,0.367,0.224,0.847,0.249,1.302c0.802-0.047,1.584-0.065,2.366-0.057l-0.073-0.15c-0.119-1.477-0.426-2.875-1.049-4.133
		c-0.169,0.007-0.29,0.143-0.485,0.095c-0.062-0.023-0.104-0.088-0.098-0.159c-0.323-0.303-0.522-0.705-0.887-0.974
		c-0.411,0.041-0.597-0.43-0.97-0.479c-0.333-0.136-0.107-0.663-0.58-0.519c-0.235-0.095-0.462-0.271-0.512-0.535
		c0-0.415-0.078-0.862-0.459-1.134c-0.29-0.104-0.413,0.279-0.701,0.214c-0.164-0.077-0.091-0.287-0.138-0.418
		c-0.058-0.122-0.195-0.21-0.169-0.37c0.378-0.495-0.462-0.486-0.276-0.974c-0.045-0.349-0.411-0.486-0.599-0.766
		c-1.251-0.559-2.504-0.941-3.915-1.11C110.472,6.083,110.148,6.156,109.851,5.995 M111.731,4.025l-1.163,0.493
		c-0.097-0.042-0.283-0.088-0.348,0.039l0.018,0.137c0.427,0.542,1.169,0.239,1.702,0.136c0.39,0.158,0.761-0.032,1.054-0.272V4.503
		C112.718,4.12,112.199,4.064,111.731,4.025 M108.963,2.818c-3.246,0.13-6.13,1.221-8.688,3.042
		c-0.495,0.335-0.931,0.846-1.432,1.134h0.073c0.638,0.461,1.244,1.124,1.785,1.7l0.042-0.114c2.356-2.122,5.103-3.287,8.252-3.431
		l-0.073-0.191l-0.023-1.913L108.963,2.818z M109.866,2.739c0.096,0.629,0.073,1.491,0.024,2.203c0-0.07,0.033-0.136,0.072-0.191
		c0.114-0.063,0.21,0.031,0.258,0.113c0.009,0.109,0.057,0.303-0.041,0.366c0.098,0.014,0.146-0.056,0.234-0.056
		c1.849,0.138,3.564,0.67,5.097,1.532V6.665c0.313-0.15,0.718-0.352,1.041-0.08c0.386-0.143,0.459,0.328,0.773,0.383
		c0.383,0.222,0.811,0.64,0.858,1.077c0.071,0.145,0.3,0.249,0.33,0.398c0.26-0.541,0.775-0.923,1.22-1.395l0.276-0.111
		c-2.439-2.299-5.341-3.569-8.569-4.007C110.923,2.842,110.358,2.891,109.866,2.739 M124.096,11.07
		c1.681,3.198,2.156,7.604,1.067,11.22c-1.108,4.271-4.739,8.586-8.974,10.343c-4.765,2.304-11.533,1.732-15.781-1.278
		c-5.903-4-8.317-10.884-6.532-17.685c1.081-4.037,4.337-8.114,8.317-9.989c2.238-1.094,4.682-1.675,7.35-1.725
		C115.631,1.965,121.446,5.5,124.096,11.07"/>
	<path fill="#498BC9" d="M124.661,4.982c1.187,1.043,1.72,2.401,2.066,3.806l0.195,0.448c-1.722-1.222-3.279-2.865-4.378-4.597
		l-1.339-1.341C122.384,3.792,123.65,4.089,124.661,4.982"/>
	<path fill="#498BC9" d="M94.637,7.064c-0.793,0.968-1.802,1.605-2.699,2.435c0.486-0.991,0.501-2.172,1.188-3.081
		c0.979-1.685,2.787-2.274,4.401-2.896C96.34,4.551,95.517,5.85,94.637,7.064"/>
	<path fill="#498BC9" d="M128.86,8.828c0.378,1.675-0.169,3.311,0.179,5.004l-0.02,0.015c-0.918-1.796-2.879-2.641-4.229-4.08
		c-0.782-0.851-1.123-1.888-1.315-2.989c0.773,1.843,2.858,2.249,4.052,3.795c0.404,0.361,0.535,0.857,0.792,1.263l0.04-0.038
		c-0.687-1.453-0.92-3.089-1.397-4.639c-0.24-0.669-0.719-1.331-1.355-1.754C127.172,5.725,128.537,7.343,128.86,8.828"/>
	<path fill="#498BC9" d="M93.167,5.692c-1.6,1.084-1.497,3.033-2.003,4.653c-0.163,0.598-0.447,1.15-0.583,1.763l0.041,0.031
		c0.267-0.693,0.734-1.348,1.316-1.915c1.139-1.038,2.817-1.685,3.376-3.214c-0.024,2.128-1.825,3.805-3.544,5.003
		c-0.712,0.614-1.398,1.316-1.785,2.104c-0.042-0.533,0.08-1.074,0.038-1.649c-0.185-1.86-0.322-3.982,1.01-5.363
		C91.608,6.394,92.345,5.901,93.167,5.692"/>
	<path fill="#498BC9" d="M129.871,9.194c1.429,1.916,1.74,4.964,0.701,7.158c-0.39,0.935-0.663,1.924-0.815,2.954
		c-0.073-0.176-0.088-0.414-0.154-0.616c-0.566-2.145-2.623-3.677-3.472-5.704c-0.267-0.662-0.492-1.35-0.623-2.067
		c0.908,1.652,3.134,2.505,3.74,4.326c0.252,0.461,0.233,1.036,0.388,1.533l0.064-0.056c-0.267-1.875-0.186-3.839,0.071-5.688
		c-0.015-1.008-0.112-1.982-0.678-2.756C129.457,8.485,129.619,8.884,129.871,9.194"/>
	<path fill="#498BC9" d="M89.75,8.597c-1.228,1.843-0.21,4.166-0.268,6.263l-0.161,2.146l0.081,0.057
		c0.071-0.238,0.088-0.495,0.137-0.741c0.291-1.731,1.81-2.96,3.142-4.156c0.283-0.314,0.531-0.631,0.678-0.999
		c-0.106,0.862-0.379,1.733-0.743,2.529c-1.034,1.995-2.948,3.633-3.294,5.915c-0.171-2.188-1.681-3.824-1.527-6.146
		c-0.048-1.884,0.743-3.424,1.86-4.827L89.75,8.597z"/>
	<path fill="#498BC9" d="M131.212,21.621c-0.851,1.188-1.876,2.298-2.658,3.512c0.088-0.957,0.2-2.141-0.181-3.05
		c-0.654-1.953-1.225-3.942-1.412-6.089l0.025-0.82c0.493,2.192,2.673,3.701,2.535,6.16c0.048,0.598-0.136,1.101-0.25,1.627
		l0.041,0.042l0.098-0.113c0.323-1.204,0.484-2.475,0.986-3.599c0.716-1.621,1.605-3.256,1.241-5.212
		C132.729,16.385,132.396,19.468,131.212,21.621"/>
	<path fill="#498BC9" d="M89.127,20.854c0.234,0.806,0.291,1.677,0.623,2.434l0.081-0.042c-0.833-2.297,0.364-4.429,1.567-6.222
		c0.292-0.487,0.459-1.028,0.605-1.589c0.129,1.038-0.138,2.235-0.292,3.312c-0.291,1.372-0.728,2.671-1.107,4.008
		c-0.248,0.83-0.184,1.77-0.057,2.642l-0.119-0.099c-0.881-1.604-2.625-2.857-3.142-4.609c-0.428-1.398-0.712-3.019-0.421-4.542
		c0.138-0.591,0.245-1.2,0.501-1.74C86.875,16.897,88.572,18.69,89.127,20.854"/>
	<path fill="#498BC9" d="M127.876,25.394c-0.057,1.08-0.414,2.037-0.986,2.896h0.097c0.773-1.001,1.38-2.074,2.285-3.032
		c1.408-1.34,2.832-2.714,3.021-4.573c0.478,3.103-1.284,5.826-3.893,7.581c-1.075,0.697-2.161,1.341-3.198,2.13v-0.093
		c1.584-2.605,0.809-6.171,1.785-9.026l0.364-0.959C127.148,22.099,127.934,23.608,127.876,25.394"/>
	<path fill="#498BC9" d="M93.199,28.921c0.169,0.59,0.517,1.117,0.742,1.684c-2.408-1.62-5.687-3.159-6.752-6.127
		c-0.452-1.021-0.499-2.291-0.404-3.463c0.194,2.64,3.069,4.038,4.4,6.225c0.316,0.446,0.592,0.939,1.01,1.315
		c-0.063-0.277-0.331-0.518-0.427-0.805c-0.47-0.919-0.638-2.012-0.524-3.121c0.13-1.349,0.703-2.601,0.484-4.023
		C92.9,23.105,92.544,26.218,93.199,28.921"/>
	<path fill="#498BC9" d="M124.29,30.894c-0.413,0.709-1.003,1.396-1.649,1.955c0.211-0.008,0.399-0.191,0.582-0.313
		c1.738-1.707,3.997-2.188,5.871-3.572c0.751-0.592,1.44-1.367,1.769-2.203c-0.354,2.832-3.205,5.49-5.895,6.334
		c-1.391,0.367-2.874,0.486-4.223,0.943c2.285-1.94,2.154-4.942,3.684-7.223c0.482-0.645,0.887-1.324,1.45-1.939
		C124.951,26.72,125.355,29.104,124.29,30.894"/>
	<path fill="#498BC9" d="M95.451,28.5c0.806,1.963,1.115,4.181,2.98,5.667c-2.019-0.655-4.386-0.471-6.163-1.7
		c-1.945-1.183-3.682-3.184-4.046-5.387c1.341,3,4.701,3.248,6.954,5.076c0.41,0.36,0.849,0.668,1.317,0.886l0.024-0.026
		c-0.517-0.461-1.113-0.988-1.479-1.586c-1.315-1.812-0.856-4.349-1.839-6.297C94.095,26.192,94.909,27.294,95.451,28.5"/>
	<path fill="#498BC9" d="M119.404,34.339c-0.492,0.319-1.115,0.375-1.622,0.613c0.726,0.019,1.389-0.238,2.104-0.31
		c2.668-0.414,5.719,0.009,7.583-2.234c-0.692,1.566-2.431,2.874-4.012,3.424c-2.723,1.013-5.459-0.23-8.067-0.645l-0.502-0.066
		v-0.016c1.246-0.278,2.456-0.644,3.448-1.53c1.462-1.39,2.763-2.819,4.387-3.914C121.518,31.189,121.39,33.358,119.404,34.339"/>
	<path fill="#498BC9" d="M100.724,33.614c1.033,0.894,2.278,1.308,3.586,1.574c-0.314,0.109-0.725,0.078-1.065,0.166
		c-2.349,0.575-4.968,1.509-7.462,0.67c-1.624-0.504-3.296-1.77-4.111-3.353c2.148,2.418,5.663,1.613,8.53,2.246
		c0.403,0.055,0.775,0.214,1.203,0.15c-0.34-0.215-0.815-0.192-1.188-0.383c-2.245-0.782-2.578-3.184-3.795-4.803
		C97.98,30.9,99.288,32.281,100.724,33.614"/>
	<path fill="#498BC9" d="M118.266,36.886c1.745,0.637,4.006,0.465,5.499-0.592c-0.768,0.952-1.816,1.63-2.91,2.013
		c-2.421,0.894-4.945-0.041-6.839-1.458c-0.766-0.479-1.442-1.176-2.437-1.111c-0.356-0.008-0.704,0.008-1.01,0.095
		c1.842,0.847,3.544,2.01,5.112,3.505c-0.267,0.295-0.604,0.574-0.93,0.829c-1.501-1.605-3.172-3.146-5.038-4.046
		c-0.364,0.046-0.711,0.262-1.042,0.44c-1.52,0.95-3.021,2.168-4.151,3.663l-0.969-0.792c1.55-1.548,3.263-2.752,5.136-3.614
		c-1.842-0.576-3.042,0.95-4.44,1.721c-1.631,1.126-3.972,1.654-5.944,0.88c-1.058-0.401-2.084-0.981-2.85-1.931
		c1.55,1.051,3.858,1.165,5.619,0.478c2.368-1.013,4.821-2.298,7.674-1.685c0.443,0.011,0.88,0.448,1.298,0.073
		c2.116-0.542,4.515-0.167,6.341,0.79L118.266,36.886z"/>
	<path fill="#498BC9" d="M45.474,114.826h18.347c-0.317,14.575-8.459,21.89-19.404,21.89c-11.79,0-19.349-9.822-19.349-20.376
		c0-10.552,7.559-20.374,19.349-20.374c13.06,0,16.654,8.045,18.135,12.226l-8.301,0.522c-1.429-3.447-4.284-5.748-9.834-5.748
		c-6.237,0-11.102,5.015-11.102,13.374c0,7.055,4.493,13.377,11.631,13.377c6.396,0,9.357-4.494,10.045-8.203h-9.517V114.826z"/>
	<polygon fill="#498BC9" points="142.207,96.804 150.118,96.804 150.118,128.692 165.356,128.692 165.356,135.987 142.207,135.987 	
		"/>
	<path fill="#498BC9" d="M187.551,107.121c0-2.708-2.635-4.375-5.799-4.375c-3.955,0-6.328,1.718-6.328,4.322
		c0,2.711,2.638,4.014,4.59,4.638l7.275,2.295c5.271,1.667,9.017,4.687,9.017,10.73c0,4.794-3.48,11.984-14.449,11.984
		c-13.761,0-15.025-8.804-15.025-12.298l7.906-0.153c0,4.167,3.324,5.784,7.174,5.784c2.689,0,6.484-1.304,6.484-4.325
		c0-2.084-0.895-3.178-4.797-4.586l-8.649-3.075c-4.373-1.561-7.436-5.367-7.436-9.794c0-5.002,3.48-12.192,13.765-12.192
		c12.231,0,14.184,8.023,14.184,10.889L187.551,107.121z"/>
	<path fill="#5FBB48" d="M76.463,111.525c0.489-0.818,1.079-1.567,1.753-2.229l-5.75-6.234c-1.447,1.367-2.681,2.951-3.651,4.695
		L76.463,111.525z"/>
	<path fill="#E5B733" d="M90.562,107.122c0.87,0.395,1.68,0.896,2.411,1.494l5.768-6.223c-1.519-1.294-3.241-2.363-5.113-3.152
		L90.562,107.122z"/>
	<path fill="#C4202E" d="M103.769,108.996l-7.642,3.765c0.364,0.842,0.624,1.736,0.766,2.671l8.501-0.795
		C105.144,112.646,104.585,110.752,103.769,108.996"/>
	<path fill="#4B9F45" d="M95.578,111.669l7.64-3.765c-0.944-1.74-2.151-3.319-3.569-4.687l-5.767,6.222
		C94.539,110.106,95.11,110.854,95.578,111.669"/>
	<path fill="#418045" d="M74.944,117.036c0-0.166,0.006-0.339,0.016-0.509l-8.506-0.751c-0.027,0.416-0.043,0.835-0.043,1.26
		c0,1.613,0.202,3.178,0.579,4.677l8.215-2.33C75.034,118.627,74.944,117.843,74.944,117.036"/>
	<path fill="#F9C21A" d="M94.508,123.943c-0.605,0.728-1.304,1.376-2.075,1.93l4.492,7.185c1.665-1.116,3.149-2.479,4.396-4.036
		L94.508,123.943z"/>
	<path fill="#EF442A" d="M97.011,117.036c0,0.797-0.088,1.57-0.253,2.321l8.213,2.33c0.375-1.49,0.575-3.048,0.575-4.651
		c0-0.396-0.014-0.793-0.039-1.186l-8.503,0.795C97.007,116.774,97.011,116.905,97.011,117.036"/>
	<path fill="#F99D28" d="M77.586,124.106l-6.798,5.104c1.263,1.54,2.762,2.88,4.44,3.976l4.489-7.178
		C78.926,125.467,78.208,124.827,77.586,124.106"/>
	<path fill="#1E95D3" d="M75.082,115.316c0.153-0.95,0.433-1.857,0.814-2.709l-7.641-3.762c-0.843,1.776-1.423,3.7-1.687,5.715
		L75.082,115.316z"/>
	<path fill="#A11D44" d="M95.878,133.708l-4.483-7.176c-0.813,0.456-1.692,0.81-2.617,1.053l1.583,8.299
		C92.329,135.435,94.185,134.694,95.878,133.708"/>
	<path fill="#2CBCE0" d="M96.432,120.53c-0.299,0.864-0.702,1.678-1.196,2.429l6.819,5.084c1.108-1.571,1.984-3.318,2.583-5.182
		L96.432,120.53z"/>
	<path fill="#F36C2C" d="M87.569,127.824c-0.519,0.076-1.051,0.115-1.591,0.115c-0.436,0-0.863-0.027-1.284-0.073l-1.582,8.301
		c0.936,0.134,1.893,0.204,2.866,0.204c1.08,0,2.139-0.086,3.171-0.251L87.569,127.824z"/>
	<path fill="#E7253D" d="M86.682,106.157c0.948,0.061,1.866,0.237,2.732,0.521l3.065-7.877c-1.824-0.64-3.77-1.015-5.797-1.085
		V106.157z"/>
	<path fill="#DB1869" d="M83.477,127.659c-0.957-0.222-1.865-0.563-2.708-1.015l-4.493,7.181c1.731,0.979,3.619,1.703,5.623,2.124
		L83.477,127.659z"/>
	<path fill="#15496B" d="M82.661,106.638c0.887-0.276,1.82-0.445,2.788-0.49v-8.439c-2.053,0.055-4.027,0.423-5.875,1.058
		L82.661,106.638z"/>
	<path fill="#C5972E" d="M76.838,123.134c-0.543-0.79-0.984-1.658-1.302-2.576l-8.209,2.326c0.623,1.937,1.542,3.736,2.712,5.356
		L76.838,123.134z"/>
	<path fill="#0F6A9C" d="M79.143,108.485c0.721-0.563,1.514-1.039,2.365-1.413l-3.087-7.869c-1.837,0.762-3.53,1.793-5.034,3.048
		L79.143,108.485z"/>
	<path fill="#498BC9" d="M121.97,105.82h-0.104l-5.079,15.421h10.314L121.97,105.82z M129.241,127.685h-14.702l-2.615,8.293h-8.661
		l14.645-39.718h8.446l14.428,39.718h-8.818L129.241,127.685z"/>
</g>
</svg>
