<?xml version="1.0" encoding="utf-8"?>
<!-- Generator: Adobe Illustrator 16.0.0, SVG Export Plug-In . SVG Version: 6.00 Build 0)  -->
<!DOCTYPE svg PUBLIC "-//W3C//DTD SVG 1.1//EN" "http://www.w3.org/Graphics/SVG/1.1/DTD/svg11.dtd">
<svg version="1.1" id="Layer_1" xmlns="http://www.w3.org/2000/svg" xmlns:xlink="http://www.w3.org/1999/xlink" x="0px" y="0px"
	 width="184px" height="89.815px" viewBox="0 0 184 89.815" enable-background="new 0 0 184 89.815" xml:space="preserve">
<rect x="0" fill="#FFFFFF" width="184" height="89.815"/>
<g>
	<path fill="#006AB3" d="M160.662,48.826h-35.981c-0.216,0-0.392,0.177-0.392,0.391v8.153c0,0.221,0.176,0.396,0.392,0.396h35.981
		c0.219,0,0.395-0.175,0.395-0.396v-8.153C161.057,49.002,160.881,48.826,160.662,48.826"/>
	<path fill="#006AB3" d="M161.057,33.887c0-0.215-0.176-0.391-0.396-0.391h-29.827h-6.153c-0.215,0-0.389,0.176-0.389,0.391v3.212
		v4.942c0,0.216,0.174,0.391,0.389,0.391h35.98c0.221,0,0.396-0.175,0.396-0.391V33.887z"/>
	<path fill="#006AB3" d="M181.875,37.079c-1.474-5.929-4.162-11.229-7.715-15.738l-0.08,0.061c1.154,1.717,2.19,3.54,3.074,5.461
		c4.667,8.559,6.098,18.887,3.153,28.987c-5.911,20.267-27.126,31.902-47.389,25.992c-8.517-2.483-15.505-7.681-20.311-14.367
		c-3.005-3.865-5.276-8.394-6.533-13.438c-4.808-19.336,6.963-38.912,26.301-43.722c11.96-2.975,23.99,0.415,32.583,7.999
		c0.076,0.067,0.151,0.139,0.229,0.207c0.23,0.174,0.508,0.297,0.82,0.297c0.347,0,0.654-0.141,0.898-0.349l0.145-0.144l4.579-4.519
		l0.303-0.299c0.172-0.233,0.293-0.504,0.293-0.812c0-0.361-0.146-0.68-0.368-0.927c-0.05-0.046-0.102-0.089-0.146-0.133
		C161.143,2.189,146.258-2.05,131.467,1.629c-23.754,5.912-38.217,29.96-32.305,53.712c2.477,9.951,8.143,18.263,15.633,24.138
		c7.461,6.115,16.963,9.591,26.92,9.486c3.201-0.034,6.447-0.43,9.695-1.237C173.809,82.156,187.448,59.48,181.875,37.079"/>
</g>
</svg>
