<?xml version="1.0" encoding="utf-8"?>
<!-- Generator: Adobe Illustrator 16.0.0, SVG Export Plug-In . SVG Version: 6.00 Build 0)  -->
<!DOCTYPE svg PUBLIC "-//W3C//DTD SVG 1.1//EN" "http://www.w3.org/Graphics/SVG/1.1/DTD/svg11.dtd">
<svg version="1.1" id="Layer_1" xmlns="http://www.w3.org/2000/svg" xmlns:xlink="http://www.w3.org/1999/xlink" x="0px" y="0px"
	 width="150px" height="150px" viewBox="0 0 150 150" enable-background="new 0 0 150 150" xml:space="preserve">
<g>
	<rect y="0" fill="#E1E1E1" width="150" height="150"/>
	<path fill="#056CB4" d="M28.053,38.665h-8.341v-1.427c0-2.363,0.847-3.256,2.14-4.638l3.254-3.436
		c2.633-2.809,3.213-4.594,3.213-7.628v-2.943c0-4.327-2.099-6.38-6.647-6.38c-4.459,0-6.735,2.364-6.735,6.604v3.654h4.638V18.68
		c0-1.828,0.894-2.362,1.964-2.362c0.979,0,1.828,0.401,1.828,2.274v2.498c0,2.499-0.225,3.48-1.874,5.218l-2.856,3.034
		c-2.765,2.946-3.791,4.909-3.791,7.896v5.576h13.205V38.665z"/>
	<path fill="#056CB4" d="M59.831,127.457v2.108c-0.001,0.014-0.007,0.03-0.007,0.049c0,0.018,0.005,0.032,0.007,0.049
		c0.023,0.521,0.449,0.938,0.973,0.946c0.007,0,0.012,0.004,0.019,0.004c0.007,0,0.017-0.004,0.025-0.004h24.744
		c0.005,0,0.013,0.004,0.02,0.004c0.007,0,0.015-0.004,0.022-0.004c0.541-0.008,0.974-0.449,0.977-0.988
		c0-0.004,0.004-0.004,0.004-0.007c0,0-0.004-0.004-0.004-0.008v-2.389c13.928-4.563,24.362-15.854,26.656-29.612
		c0.006-0.028,0.01-0.054,0.015-0.081c0.008-0.049,0.013-0.091,0.013-0.138c0-0.554-0.445-1.001-1-1.001H33.906h-0.472
		c-0.555,0-1.004,0.447-1.004,1.001l0.053,0.449C34.894,111.724,45.616,123.076,59.831,127.457"/>
	<path fill="#056CB4" d="M86.587,62.73c-0.324,0.463-7.944,11.43,0.17,20.299c3.721,4.071,3.399,7.664,2.334,10.089h5.207
		c1.054-3.583,0.619-8.075-3.606-12.689c-5.978-6.536,0.076-15.37,0.167-15.506c0.713-1.01,0.331-2.308-0.845-2.914
		C88.833,61.406,87.304,61.729,86.587,62.73"/>
	<path fill="#056CB4" d="M73.404,93.118h5.208c1.053-3.581,0.615-8.075-3.609-12.691c-5.982-6.536,0.07-15.365,0.165-15.51
		c0.709-1.003,0.334-2.3-0.847-2.907c-1.174-0.603-2.709-0.282-3.423,0.721c-0.326,0.459-7.951,11.43,0.171,20.301
		C74.789,87.102,74.465,90.694,73.404,93.118"/>
	<path fill="#056CB4" d="M55.206,62.73c-0.329,0.463-7.947,11.43,0.167,20.299c3.723,4.073,3.402,7.664,2.342,10.089h5.204
		c1.052-3.58,0.619-8.071-3.611-12.689c-5.98-6.536,0.076-15.37,0.17-15.511c0.708-1.005,0.332-2.303-0.851-2.909
		C57.453,61.402,55.92,61.727,55.206,62.73"/>
	<polygon fill="#056CB4" points="44.857,23.149 47.985,23.149 47.985,24.83 42.706,24.83 42.706,23.149 45.941,14.256 
		43.032,14.256 43.032,12.574 48.111,12.574 48.111,14.256 	"/>
	<polygon fill="#056CB4" points="49.378,12.575 54.296,12.575 54.296,14.255 51.438,14.255 51.438,17.763 53.482,17.763 
		53.482,19.425 51.438,19.425 51.438,23.15 54.296,23.15 54.296,24.83 49.378,24.83 	"/>
	<path fill="#056CB4" d="M57.642,14.255v3.813h0.687c0.707,0,1.013-0.361,1.013-1.011V15.25c0-0.668-0.306-0.995-1.013-0.995H57.642
		z M57.642,19.208v5.622h-2.062V12.575h3c2.08,0,2.839,1.03,2.839,2.748v1.572c0,1.321-0.469,2.097-1.645,2.368l1.972,5.568h-2.17
		L57.642,19.208z"/>
	<path fill="#056CB4" d="M66.9,21.993v-6.58c0-0.741-0.326-1.266-1.067-1.266c-0.723,0-1.05,0.525-1.05,1.266v6.58
		c0,0.742,0.327,1.264,1.05,1.264C66.575,23.257,66.9,22.734,66.9,21.993 M62.724,21.667v-5.93c0-1.916,0.939-3.307,3.11-3.307
		c2.186,0,3.128,1.392,3.128,3.307v5.93c0,1.897-0.942,3.308-3.128,3.308C63.663,24.975,62.724,23.564,62.724,21.667"/>
	<polygon fill="#056CB4" points="46.871,37.387 44.883,37.387 44.883,42.792 42.822,42.792 42.822,30.537 44.883,30.537 
		44.883,35.725 46.871,35.725 46.871,30.537 48.95,30.537 48.95,42.792 46.871,42.792 	"/>
	<path fill="#056CB4" d="M56.292,30.537v9.272c0,1.899-0.813,3.128-2.91,3.128c-2.169,0-3.074-1.229-3.074-3.128v-9.272h2.061v9.473
		c0,0.723,0.289,1.21,1.013,1.21c0.723,0,1.012-0.487,1.012-1.21v-9.473H56.292z"/>
	<polygon fill="#056CB4" points="59.386,35.091 59.386,42.793 57.649,42.793 57.649,30.537 59.674,30.537 61.898,37.567 
		61.898,30.537 63.617,30.537 63.617,42.793 61.808,42.793 	"/>
	<path fill="#056CB4" d="M68.083,36.249h2.929v6.543H69.53v-1.336c-0.272,0.921-0.851,1.48-1.972,1.48
		c-1.771,0-2.585-1.409-2.585-3.308v-5.929c0-1.916,0.923-3.308,3.091-3.308c2.279,0,2.948,1.266,2.948,3.074v1.084h-1.88v-1.248
		c0-0.759-0.29-1.193-1.031-1.193s-1.068,0.525-1.068,1.266v6.581c0,0.741,0.308,1.265,1.015,1.265c0.667,0,1.011-0.379,1.011-1.174
		v-2.17h-0.976V36.249z"/>
	<polygon fill="#056CB4" points="72.369,30.537 77.287,30.537 77.287,32.217 74.43,32.217 74.43,35.725 76.474,35.725 
		76.474,37.387 74.43,37.387 74.43,41.111 77.287,41.111 77.287,42.792 72.369,42.792 	"/>
	<path fill="#056CB4" d="M80.631,32.217v3.814h0.688c0.706,0,1.012-0.361,1.012-1.012v-1.807c0-0.669-0.306-0.996-1.012-0.996
		H80.631z M80.631,37.17v5.623H78.57V30.537h3c2.08,0,2.839,1.03,2.839,2.748v1.571c0,1.322-0.468,2.098-1.645,2.369l1.971,5.568
		h-2.17L80.631,37.17z"/>
</g>
</svg>
