<?xml version="1.0" encoding="utf-8"?>
<!-- Generator: Adobe Illustrator 16.0.0, SVG Export Plug-In . SVG Version: 6.00 Build 0)  -->
<!DOCTYPE svg PUBLIC "-//W3C//DTD SVG 1.1//EN" "http://www.w3.org/Graphics/SVG/1.1/DTD/svg11.dtd">
<svg version="1.1" id="Layer_1" xmlns="http://www.w3.org/2000/svg" xmlns:xlink="http://www.w3.org/1999/xlink" x="0px" y="0px"
	 width="150px" height="150px" viewBox="0 0 150 150" enable-background="new 0 0 150 150" xml:space="preserve">
<g>
	<rect fill="#E1E1E1" width="150.001" height="150"/>
	<polygon fill="#056CB4" points="14.472,19.653 14.472,42.827 19.562,42.827 19.562,12.552 15.499,12.552 10.811,18.046 
		10.811,23.361 10.854,23.361 14.426,19.653 	"/>
	<path fill="#056CB4" d="M28.181,35.818V19.562c0-1.83,0.669-3.125,2.411-3.125c1.786,0,2.456,1.295,2.456,3.125v16.256
		c0,1.831-0.669,3.122-2.456,3.122C28.85,38.94,28.181,37.649,28.181,35.818 M38.138,35.013V20.366c0-4.734-2.367-8.17-7.546-8.17
		c-5.135,0-7.503,3.437-7.503,8.17v14.647c0,4.687,2.368,8.17,7.503,8.17C35.771,43.183,38.138,39.7,38.138,35.013"/>
	<path fill="#056CB4" d="M90.489,99.084H60.505c-0.18,0-0.327,0.147-0.327,0.325v6.794c0,0.185,0.146,0.329,0.327,0.329h29.984
		c0.183,0,0.329-0.145,0.329-0.329V99.41C90.818,99.232,90.671,99.084,90.489,99.084"/>
	<path fill="#056CB4" d="M90.818,86.637c0-0.181-0.146-0.325-0.33-0.325H65.632h-5.128c-0.179,0-0.324,0.145-0.324,0.325v2.675
		v4.119c0,0.181,0.145,0.325,0.324,0.325h29.984c0.184,0,0.33-0.145,0.33-0.325V86.637z"/>
	<path fill="#056CB4" d="M108.166,89.297c-1.229-4.94-3.469-9.359-6.429-13.116l-0.066,0.051c0.962,1.434,1.825,2.949,2.562,4.553
		c3.889,7.13,5.08,15.737,2.628,24.155c-4.927,16.888-22.605,26.584-39.49,21.658c-7.098-2.07-12.92-6.399-16.925-11.973
		c-2.503-3.222-4.397-6.993-5.444-11.198c-4.006-16.113,5.803-32.424,21.917-36.433c9.966-2.479,19.992,0.346,27.152,6.664
		c0.063,0.058,0.126,0.116,0.19,0.174c0.193,0.145,0.423,0.246,0.685,0.246c0.288,0,0.544-0.116,0.748-0.29l0.12-0.119l3.815-3.767
		l0.253-0.25c0.143-0.193,0.244-0.42,0.244-0.677c0-0.301-0.122-0.566-0.308-0.772c-0.041-0.038-0.083-0.074-0.122-0.11
		c-8.806-7.87-21.21-11.402-33.536-8.337c-19.794,4.926-31.846,24.967-26.92,44.757c2.065,8.295,6.786,15.219,13.028,20.115
		c6.217,5.097,14.136,7.992,22.432,7.905c2.668-0.029,5.374-0.358,8.079-1.032C101.444,126.858,112.811,107.962,108.166,89.297"/>
	<path fill="#056CB4" d="M49.977,14.244v3.875h0.697c0.717,0,1.028-0.367,1.028-1.028v-1.837c0-0.68-0.311-1.01-1.028-1.01H49.977z
		 M49.977,19.274v5.711h-2.094V12.537h3.048c2.112,0,2.883,1.044,2.883,2.791v1.598c0,1.339-0.478,2.128-1.671,2.405l2.001,5.655
		h-2.203L49.977,19.274z"/>
	<polygon fill="#056CB4" points="55.137,12.537 60.13,12.537 60.13,14.246 57.23,14.246 57.23,17.807 59.304,17.807 59.304,19.495 
		57.23,19.495 57.23,23.279 60.13,23.279 60.13,24.986 55.137,24.986 	"/>
	<path fill="#056CB4" d="M64.409,23.277c0.863,0,1.193-0.514,1.193-1.267v-6.519c0-0.733-0.33-1.249-1.193-1.249h-0.88v9.034H64.409
		z M67.697,15.878v5.765c0,1.911-0.789,3.343-3.03,3.343h-3.232V12.537h3.232C66.908,12.537,67.697,13.949,67.697,15.878"/>
	<path fill="#056CB4" d="M75.151,12.537v9.419c0,1.929-0.826,3.176-2.955,3.176c-2.204,0-3.123-1.247-3.123-3.176v-9.419h2.094v9.62
		c0,0.736,0.295,1.23,1.029,1.23s1.028-0.494,1.028-1.23v-9.62H75.151z"/>
	<path fill="#056CB4" d="M76.529,21.772V15.75c0-1.946,0.919-3.359,3.123-3.359c2.312,0,2.956,1.283,2.956,3.12v1.47h-1.911v-1.634
		c0-0.771-0.256-1.212-1.008-1.212c-0.755,0-1.066,0.532-1.066,1.287v6.683c0,0.753,0.311,1.285,1.066,1.285
		c0.752,0,1.008-0.478,1.008-1.21v-2.296h1.911v2.15c0,1.78-0.736,3.102-2.956,3.102C77.448,25.132,76.529,23.699,76.529,21.772"/>
	<polygon fill="#056CB4" points="83.929,12.537 88.923,12.537 88.923,14.246 86.023,14.246 86.023,17.807 88.097,17.807 
		88.097,19.495 86.023,19.495 86.023,23.279 88.923,23.279 88.923,24.986 83.929,24.986 	"/>
	<path fill="#056CB4" d="M93.202,23.277c0.863,0,1.193-0.514,1.193-1.267v-6.519c0-0.733-0.33-1.249-1.193-1.249h-0.88v9.034H93.202
		z M96.489,15.878v5.765c0,1.911-0.789,3.343-3.029,3.343h-3.232V12.537h3.232C95.7,12.537,96.489,13.949,96.489,15.878"/>
	<rect x="47.877" y="30.358" fill="#056CB4" width="2.094" height="12.449"/>
	<polygon fill="#056CB4" points="53.092,34.986 53.092,42.807 51.331,42.807 51.331,30.358 53.387,30.358 55.644,37.5 
		55.644,30.358 57.391,30.358 57.391,42.807 55.554,42.807 	"/>
	<polygon fill="#056CB4" points="58.583,30.358 63.577,30.358 63.577,32.067 60.677,32.067 60.677,35.628 62.75,35.628 
		62.75,37.316 60.677,37.316 60.677,41.1 63.577,41.1 63.577,42.807 58.583,42.807 	"/>
	<path fill="#056CB4" d="M68.592,40.035v-6.793c0-0.754-0.332-1.285-1.085-1.285c-0.734,0-1.065,0.53-1.065,1.285v6.793
		c0,0.734,0.331,1.285,1.065,1.285C68.26,41.32,68.592,40.769,68.592,40.035 M66.737,43.652v-0.845
		c-1.672-0.295-2.387-1.523-2.387-3.214v-6.022c0-1.946,0.954-3.359,3.157-3.359c2.223,0,3.177,1.413,3.177,3.359v6.022
		c0,1.358-0.477,2.425-1.542,2.94l1.542,0.291v1.562L66.737,43.652z"/>
	<path fill="#056CB4" d="M77.938,30.358v9.419c0,1.929-0.827,3.176-2.956,3.176c-2.203,0-3.123-1.247-3.123-3.176v-9.419h2.094
		v9.621c0,0.736,0.295,1.23,1.029,1.23s1.029-0.494,1.029-1.23v-9.621H77.938z"/>
	<path fill="#056CB4" d="M81.224,38.86h1.671l-0.826-4.995H82.05L81.224,38.86z M78.598,42.807l2.35-12.449h2.389l2.368,12.449
		h-2.148l-0.387-2.276h-2.222l-0.367,2.276H78.598z"/>
	<polygon fill="#056CB4" points="86.568,30.358 88.662,30.358 88.662,41.1 91.157,41.1 91.157,42.807 86.568,42.807 	"/>
	<rect x="92.094" y="30.358" fill="#056CB4" width="2.095" height="12.449"/>
	<polygon fill="#056CB4" points="95.144,30.358 100.706,30.358 100.706,32.067 98.981,32.067 98.981,42.807 96.868,42.807 
		96.868,32.067 95.144,32.067 	"/>
	<rect x="101.681" y="30.358" fill="#056CB4" width="2.094" height="12.449"/>
	<polygon fill="#056CB4" points="104.966,30.358 109.96,30.358 109.96,32.067 107.06,32.067 107.06,35.628 109.134,35.628 
		109.134,37.316 107.06,37.316 107.06,41.1 109.96,41.1 109.96,42.807 104.966,42.807 	"/>
	<path fill="#056CB4" d="M110.788,40.126v-1.672h1.945v1.709c0,0.696,0.312,1.102,1.028,1.102c0.662,0,0.956-0.439,0.956-1.102
		v-0.479c0-0.714-0.294-1.156-0.938-1.762l-1.23-1.23c-1.193-1.175-1.744-1.891-1.744-3.325v-0.419c0-1.544,0.9-2.738,2.938-2.738
		c2.094,0,2.921,1.03,2.921,2.829v1.01h-1.911v-1.082c0-0.717-0.329-1.066-0.991-1.066c-0.588,0-0.991,0.331-0.991,1.03v0.257
		c0,0.697,0.386,1.1,0.991,1.688l1.341,1.321c1.139,1.158,1.688,1.855,1.688,3.234v0.604c0,1.708-0.917,2.921-3.048,2.921
		C111.614,42.956,110.788,41.761,110.788,40.126"/>
</g>
</svg>
