<?xml version="1.0" encoding="utf-8"?>
<!-- Generator: Adobe Illustrator 16.0.0, SVG Export Plug-In . SVG Version: 6.00 Build 0)  -->
<!DOCTYPE svg PUBLIC "-//W3C//DTD SVG 1.1//EN" "http://www.w3.org/Graphics/SVG/1.1/DTD/svg11.dtd">
<svg version="1.1" id="Layer_1" xmlns="http://www.w3.org/2000/svg" xmlns:xlink="http://www.w3.org/1999/xlink" x="0px" y="0px"
	 width="184px" height="109.064px" viewBox="0 0 184 109.064" enable-background="new 0 0 184 109.064" xml:space="preserve">
<rect fill="#FFFFFF" width="184" height="109.064"/>
<g>
	<path fill="#006AB3" d="M136.645,70.97c-13.501,0-24.484-10.986-24.484-24.485c0-13.505,10.983-24.488,24.484-24.488
		c13.502,0,24.486,10.983,24.486,24.488C161.131,59.984,150.146,70.97,136.645,70.97 M183.67,0h-25.399
		c-0.173,0-0.323,0.145-0.323,0.323v8.439c0,0.183,0.15,0.327,0.323,0.327h10.113L157.156,20.32
		c-5.658-4.442-12.775-7.104-20.512-7.104c-18.341,0-33.265,14.924-33.265,33.269c0,16.886,12.651,30.862,28.971,32.976v9.727
		h-10.02c-0.183,0-0.325,0.143-0.325,0.323v9.046c0,0.18,0.143,0.323,0.325,0.323h10.02v9.571c0,0.177,0.143,0.32,0.323,0.32h9.043
		c0.18,0,0.325-0.144,0.325-0.32v-9.571h10.018c0.181,0,0.323-0.144,0.323-0.323V89.51c0-0.181-0.143-0.323-0.323-0.323h-10.018
		v-9.881c15.784-2.592,27.868-16.32,27.868-32.821c0-7.123-2.256-13.72-6.078-19.135l11.07-11.074v9.448
		c0,0.179,0.15,0.323,0.33,0.323h8.438c0.181,0,0.33-0.144,0.33-0.323V0.323C184,0.145,183.851,0,183.67,0"/>
	<path fill="#006AB3" d="M151.602,36.431H121.9c-0.176,0-0.32,0.132-0.32,0.292v7.19c0,0.167,0.145,0.292,0.32,0.292h29.701
		c0.185,0,0.327-0.125,0.327-0.292v-7.19C151.929,36.563,151.786,36.431,151.602,36.431"/>
	<path fill="#006AB3" d="M151.602,49.271H121.9c-0.176,0-0.32,0.136-0.32,0.301v7.187c0,0.163,0.145,0.291,0.32,0.291h29.701
		c0.185,0,0.327-0.128,0.327-0.291v-7.187C151.929,49.407,151.786,49.271,151.602,49.271"/>
</g>
</svg>
