<?xml version="1.0" encoding="utf-8"?>
<!-- Generator: Adobe Illustrator 15.0.0, SVG Export Plug-In . SVG Version: 6.00 Build 0)  -->
<!DOCTYPE svg PUBLIC "-//W3C//DTD SVG 1.1//EN" "http://www.w3.org/Graphics/SVG/1.1/DTD/svg11.dtd">
<svg version="1.1" id="Layer_1" xmlns="http://www.w3.org/2000/svg" xmlns:xlink="http://www.w3.org/1999/xlink" x="0px" y="0px"
	 width="184px" height="80.247px" viewBox="0 0 184 80.247" enable-background="new 0 0 184 80.247" xml:space="preserve">
<rect x="0" fill="#FFFFFF" width="184" height="80.247"/>
<path fill="#006AB3" d="M162.231,6.447c0-3.562,2.89-6.447,6.447-6.447c3.555,0,6.436,2.885,6.436,6.447
	c0,3.559-2.881,6.443-6.436,6.443C165.121,12.891,162.231,10.006,162.231,6.447"/>
<path fill="#006AB3" d="M176.201,15.376c4.37,0.396,7.799,4.071,7.799,8.557v2.143v0.935v14.787c0,1.373-1.119,2.496-2.496,2.496
	c-1.383,0-2.499-1.123-2.499-2.496V26.455c0-0.576-0.166-1.354-1.219-1.354c-0.727,0-0.879,0.769-0.906,1.262v45.98
	c0,1.977-1.6,3.59-3.585,3.59c-1.987,0-3.599-1.613-3.599-3.59V45.847c-0.008-0.293-0.105-1.053-1.018-1.053h-0.002
	c-0.917,0-1.027,0.76-1.037,1.053v26.496c0,1.977-1.6,3.59-3.584,3.59c-1.994,0-3.591-1.613-3.591-3.59v-45.98
	c-0.024-0.493-0.183-1.262-0.903-1.262c-1.059,0-1.217,0.777-1.217,1.354v15.341c0,1.373-1.121,2.496-2.501,2.496
	s-2.493-1.123-2.493-2.496V27.01v-0.935v-2.143c0-4.485,3.428-8.16,7.807-8.557c0.144-0.018,0.299-0.041,0.472-0.041h7.05h7.033
	C175.896,15.335,176.049,15.358,176.201,15.376"/>
<path fill="#006AB3" d="M123.915,9.831c0-3.37-2.725-6.107-6.096-6.107c-3.373,0-6.105,2.737-6.105,6.107
	c0,3.372,2.732,6.103,6.105,6.103C121.19,15.934,123.915,13.203,123.915,9.831"/>
<path fill="#006AB3" d="M105.524,23.652l-5.074,16.511c0,0-0.902,3.027,1.666,3.783c2.553,0.758,3.328-2.199,3.328-2.199
	l4.094-13.78c0,0,0.22-1.06,1.018-0.831c0.797,0.228,0.497,1.363,0.497,1.363l-7.12,25.824h6.623v18.498
	c0,1.752,1.422,3.176,3.18,3.176c1.754,0,3.174-1.424,3.174-3.176V54.324h0.91h0.896v18.498c0,1.752,1.418,3.176,3.178,3.176
	c1.762,0,3.182-1.424,3.182-3.176V54.324h6.621L124.582,28.5c0,0-0.3-1.136,0.493-1.363c0.8-0.229,1.021,0.831,1.021,0.831
	l4.088,13.78c0,0,0.78,2.957,3.331,2.199c2.573-0.756,1.665-3.783,1.665-3.783l-5.072-16.511c0,0-1.812-4.772-5.826-4.772h-6.463
	h-6.467C107.341,18.88,105.524,23.652,105.524,23.652"/>
<path fill="#006AB3" d="M87.37,9.831c0-3.37-2.728-6.107-6.099-6.107c-3.373,0-6.101,2.737-6.101,6.107
	c0,3.372,2.728,6.103,6.101,6.103C84.642,15.934,87.37,13.203,87.37,9.831"/>
<path fill="#006AB3" d="M68.976,23.652l-5.07,16.511c0,0-0.905,3.027,1.663,3.783c2.553,0.758,3.33-2.199,3.33-2.199l4.091-13.78
	c0,0,0.222-1.06,1.018-0.831c0.799,0.228,0.497,1.363,0.497,1.363l-7.117,25.824h6.62v18.498c0,1.752,1.429,3.176,3.18,3.176
	c1.759,0,3.178-1.424,3.178-3.176V54.324h0.911h0.894v18.498c0,1.752,1.415,3.176,3.18,3.176c1.761,0,3.177-1.424,3.177-3.176
	V54.324h6.623L88.04,28.5c0,0-0.305-1.136,0.488-1.363c0.801-0.229,1.024,0.831,1.024,0.831l4.087,13.78
	c0,0,0.777,2.957,3.329,2.199c2.574-0.756,1.664-3.783,1.664-3.783L93.56,23.652c0,0-1.808-4.772-5.825-4.772h-6.458h-6.47
	C70.795,18.88,68.976,23.652,68.976,23.652"/>
<path fill="#006AB3" d="M144.407,43.982c2.81,0,5.075-2.275,5.075-5.084c0-2.807-2.266-5.076-5.075-5.076s-5.078,2.27-5.078,5.076
	C139.329,41.707,141.598,43.982,144.407,43.982"/>
<path fill="#006AB3" d="M132.229,59.759c-0.246,0.596-0.451,1.852,0.74,2.404c1.4,0.641,2.176-0.711,2.176-0.711l2.764-8.805
	c0,0,0.478-0.59,0.478,0.02v20.727h0.015c0,1.443,1.158,2.605,2.604,2.605c1.44,0,2.604-1.162,2.604-2.605v-8.178
	c0,0-0.151-1.156,0.779-1.156c0.936,0,0.791,1.156,0.791,1.156v8.178c0,1.443,1.168,2.605,2.607,2.605
	c1.438,0,2.615-1.162,2.615-2.605V52.667c0-0.609,0.321-0.174,0.321-0.174l2.162,6.029c0,0,0.94,2.693,1.229,2.812
	c0.977,0.412,2.104-0.055,2.519-1.041c0.269-0.643,0.165-1.332-0.208-1.852l0.021-0.021c-0.065-0.195-3.235-7.973-3.61-9.066
	c-1.144-3.344-3.231-3.314-5.238-3.369c-2.008-0.049-3.21,0-3.21,0s-1.281-0.051-3.932,0.025c-2.647,0.084-3.48,1.441-6.402,8.953
	c-0.416,1.08-1.826,4.582-1.843,4.793L132.229,59.759z"/>
<path fill="#006AB3" d="M32.876,6.447C32.876,2.885,29.988,0,26.428,0c-3.555,0-6.436,2.885-6.436,6.447
	c0,3.559,2.881,6.443,6.436,6.443C29.988,12.891,32.876,10.006,32.876,6.447"/>
<path fill="#006AB3" d="M18.905,15.376c-4.371,0.396-7.801,4.071-7.801,8.557v2.143v0.935v14.787c0,1.373,1.121,2.496,2.498,2.496
	c1.384,0,2.499-1.123,2.499-2.496V26.455c0-0.576,0.167-1.354,1.22-1.354c0.728,0,0.876,0.769,0.909,1.262v45.98
	c0,1.977,1.597,3.59,3.586,3.59c1.984,0,3.587-1.613,3.587-3.59V45.847c0.015-0.293,0.112-1.053,1.025-1.053h0.003
	c0.914,0,1.026,0.76,1.035,1.053v26.496c0,1.977,1.601,3.59,3.585,3.59c1.99,0,3.592-1.613,3.592-3.59v-45.98
	c0.019-0.493,0.184-1.262,0.903-1.262c1.057,0,1.215,0.777,1.215,1.354v15.341c0,1.373,1.122,2.496,2.502,2.496
	c1.381,0,2.495-1.123,2.495-2.496V27.01v-0.935v-2.143c0-4.485-3.427-8.16-7.806-8.557c-0.146-0.018-0.299-0.041-0.475-0.041h-7.049
	h-7.032C19.213,15.335,19.057,15.358,18.905,15.376"/>
<line fill="none" stroke="#056BB3" stroke-width="3.271" stroke-linecap="round" stroke-miterlimit="10" x1="12.596" y1="45.082" x2="8.253" y2="74.031"/>
<path fill="#006AB3" d="M44.818,41.32c-0.333-0.52-0.905-0.867-1.567-0.867c-1.021,0-1.852,0.83-1.852,1.846
	c0,0.295,0.182,0.812,0.182,0.812l5.121,9.266c0,0,0.313,0.639,0.313,1.223v19.895h0.009c0,1.389,1.122,2.504,2.505,2.504
	s2.496-1.115,2.496-2.504v-7.85c0,0-0.142-1.113,0.755-1.113c0.895,0,0.754,1.113,0.754,1.113v7.85c0,1.389,1.125,2.504,2.508,2.504
	c1.38,0,2.507-1.115,2.507-2.504V53.599c0-0.584,0.308-1.223,0.308-1.223l4.733-8.557c0,0,0.58-1.227,0.58-1.521
	c0-1.016-0.827-1.846-1.852-1.846c-0.67,0-1.241,0.348-1.567,0.867l-0.02-0.01c-0.15,0.129-2.519,4.35-3.3,5.131
	c-0.829,0.834-1.57,0.742-1.57,0.742H52.78h-3.073c0,0-0.745,0.092-1.57-0.742c-0.79-0.781-3.152-5.002-3.303-5.131L44.818,41.32z"
	/>
<path fill="#006AB3" d="M52.78,43.982c2.809,0,5.078-2.275,5.078-5.084c0-2.807-2.269-5.076-5.078-5.076
	c-2.807,0-5.075,2.27-5.075,5.076C47.705,41.707,49.973,43.982,52.78,43.982"/>
<polygon fill="#006AB3" points="52.789,51.109 58.528,55.296 61.257,65.341 52.789,65.341 44.315,65.341 47.048,55.296 "/>
</svg>
