<?xml version="1.0" encoding="utf-8"?>
<!-- Generator: Adobe Illustrator 15.0.0, SVG Export Plug-In . SVG Version: 6.00 Build 0)  -->
<!DOCTYPE svg PUBLIC "-//W3C//DTD SVG 1.1//EN" "http://www.w3.org/Graphics/SVG/1.1/DTD/svg11.dtd">
<svg version="1.1" id="Layer_1" xmlns="http://www.w3.org/2000/svg" xmlns:xlink="http://www.w3.org/1999/xlink" x="0px" y="0px"
	 width="184px" height="90.124px" viewBox="0 0 184 90.124" enable-background="new 0 0 184 90.124" xml:space="preserve">
<rect x="0" fill="#FFFFFF" width="184" height="90.124"/>
<g>
	<defs>
		<rect id="SVGID_1_" x="56.85" y="0.001" width="127.15" height="88.942"/>
	</defs>
	<clipPath id="SVGID_2_">
		<use xlink:href="#SVGID_1_"  overflow="visible"/>
	</clipPath>
	<path clip-path="url(#SVGID_2_)" fill="#006AB3" d="M183.999,47.053c0-5.336-3.423-9.662-8.608-9.662
		c-2.592,0-5.723,2.841-7.42,4.585c-1.701-1.746-4.619-4.589-7.213-4.589c-5.186,0-8.82,4.327-8.82,9.664
		c0,2.669,1.05,5.083,2.752,6.834l13.293,13.316L181.256,53.9l-0.009-0.011C182.947,52.14,183.999,49.722,183.999,47.053"/>
	<path clip-path="url(#SVGID_2_)" fill="#006AB3" d="M127.404,88.943c-0.043,0-0.088,0-0.135-0.005
		c-1.011-0.06-1.844-0.811-2.018-1.808L118.5,47.804l-10.229,18.964c-0.449,0.83-1.382,1.278-2.302,1.113
		c-0.929-0.166-1.644-0.906-1.78-1.838l-4.34-30.352l-7.946,17.844c-0.35,0.788-1.13,1.296-1.992,1.296H59.035
		c-1.208,0-2.185-0.979-2.185-2.184c0-1.206,0.977-2.183,2.185-2.183h29.456l10.451-23.47c0.398-0.891,1.332-1.407,2.297-1.274
		c0.963,0.133,1.724,0.891,1.86,1.854l4.476,31.292l10.086-18.7c0.442-0.821,1.354-1.272,2.274-1.12
		c0.92,0.15,1.642,0.866,1.798,1.785l6.254,36.421l22.789-75.699c0.26-0.862,1.022-1.476,1.918-1.546
		c0.9-0.068,1.75,0.417,2.139,1.228l11.992,24.858c0.521,1.085,0.068,2.39-1.021,2.913c-1.084,0.524-2.388,0.069-2.912-1.018
		L153.34,8.185l-23.846,79.204C129.217,88.317,128.363,88.943,127.404,88.943"/>
</g>
</svg>
