<?xml version="1.0" encoding="utf-8"?>
<!-- Generator: Adobe Illustrator 16.0.0, SVG Export Plug-In . SVG Version: 6.00 Build 0)  -->
<!DOCTYPE svg PUBLIC "-//W3C//DTD SVG 1.1//EN" "http://www.w3.org/Graphics/SVG/1.1/DTD/svg11.dtd">
<svg version="1.1" id="Layer_1" xmlns="http://www.w3.org/2000/svg" xmlns:xlink="http://www.w3.org/1999/xlink" x="0px" y="0px"
	 width="184px" height="89.815px" viewBox="0 0 184 89.815" enable-background="new 0 0 184 89.815" xml:space="preserve">
<rect x="0" fill="#FFFFFF" width="184" height="89.815"/>
<g>
	<path fill="#006AB3" d="M175.828,21.183l-17.979,17.104c-0.679,0.674-1.026,1.172-1.026,2.567v47.934
		c0,0.565,0.459,1.026,1.026,1.026h18.571c0.565,0,1.021-0.461,1.021-1.026V21.616C177.441,21.048,177,20.016,175.828,21.183"/>
	<path fill="#006AB3" d="M124.031,43.465l-17.98,17.103c-0.678,0.676-1.027,1.171-1.027,2.564v25.66c0,0.56,0.461,1.021,1.027,1.021
		h18.572c0.566,0,1.023-0.461,1.023-1.021V43.896C125.646,43.329,125.201,42.295,124.031,43.465"/>
	<path fill="#006AB3" d="M184,0.442c0.006-0.137-0.041-0.282-0.154-0.388c-0.094-0.094-0.213-0.137-0.33-0.147l-0.099,0.006
		l-0.149,0.009l-13.765,3.107l-0.252,0.026c-0.098,0.017-0.191,0.068-0.269,0.139c-0.201,0.207-0.201,0.536,0,0.74l0.158,0.156
		l3.141,3.144l-31.193,31.196l-14.408-14.41c-0.164-0.164-0.422-0.164-0.586,0l-3.91,3.912c-0.004,0-0.004,0.004-0.004,0.004
		L99.084,51.028c-0.16,0.162-0.16,0.425,0,0.585L103,55.527c0.158,0.162,0.419,0.162,0.582,0l22.807-22.805l10.457,10.457
		c0.012,0.017,0.016,0.034,0.033,0.049l3.911,3.907c0.162,0.162,0.421,0.162,0.586,0l35.404-35.404l3.302,3.299
		c0.202,0.205,0.533,0.205,0.733,0c0.097-0.098,0.146-0.215,0.151-0.341l0.003-0.042l3.023-14.055L184,0.442z"/>
	<path fill="#006AB3" d="M150.031,46.467l-8.699,8.773c-0.166,0.135-0.406,0.13-0.561-0.023l-7.882-8.032
		c-1.441-1.438-1.752-0.273-1.752,0.292v41.312c0,0.563,0.452,1.022,1.016,1.022h18.578c0.563,0,1.022-0.459,1.022-1.022V46.79
		C151.754,46.226,151.309,45.189,150.031,46.467"/>
</g>
</svg>
