<?xml version="1.0" encoding="utf-8"?>
<!-- Generator: Adobe Illustrator 16.0.0, SVG Export Plug-In . SVG Version: 6.00 Build 0)  -->
<!DOCTYPE svg PUBLIC "-//W3C//DTD SVG 1.1//EN" "http://www.w3.org/Graphics/SVG/1.1/DTD/svg11.dtd">
<svg version="1.1" id="Layer_1" xmlns="http://www.w3.org/2000/svg" xmlns:xlink="http://www.w3.org/1999/xlink" x="0px" y="0px"
	 width="184px" height="89.815px" viewBox="0 0 184 89.815" enable-background="new 0 0 184 89.815" xml:space="preserve">
<rect x="0" fill="#FFFFFF" width="184" height="89.815"/>
<path fill="#006AB3" d="M153.78,41.881c4.691-4.353,7.635-10.564,7.635-17.455c0-1.031-0.074-2.048-0.198-3.045
	c9.532,1.02,16.985,9.111,16.985,18.915c0,5.572-2.418,10.572-6.248,14.057C168.366,47.632,161.662,42.829,153.78,41.881
	 M169.95,65.53c0,10.485-8.535,19.022-19.025,19.022c-3.415,0-6.606-0.915-9.382-2.497c4.047-4.27,6.545-10.036,6.545-16.368
	c0-1.558-0.159-3.086-0.446-4.558c3.42,1.9,7.353,2.988,11.536,2.988c3.725,0,7.246-0.862,10.389-2.393
	C169.818,62.958,169.95,64.228,169.95,65.53 M105.238,65.687c0-1.354,0.144-2.671,0.417-3.944c3.134,1.52,6.646,2.375,10.357,2.375
	c4.171,0,8.09-1.081,11.501-2.971c-0.265,1.419-0.412,2.884-0.412,4.383c0,6.432,2.574,12.276,6.736,16.567
	c-2.817,1.649-6.084,2.611-9.572,2.611C113.771,84.708,105.238,76.176,105.238,65.687 M96.989,40.295
	c0-9.804,7.448-17.893,16.98-18.915c-0.124,0.998-0.198,2.015-0.198,3.045c0,6.961,3.005,13.239,7.785,17.597
	c-7.904,0.898-14.643,5.674-18.267,12.377C99.434,50.917,96.989,45.892,96.989,40.295 M137.593,5.401
	c7.799,0,14.502,4.713,17.441,11.438c-7.74,1.366-14.202,6.474-17.441,13.387c-3.233-6.916-9.699-12.023-17.437-13.387
	C123.092,10.114,129.8,5.401,137.593,5.401 M142.121,48.678c2.639-1.381,5.626-2.178,8.804-2.178c7.48,0,13.945,4.354,17.058,10.645
	c-2.64,1.384-5.632,2.176-8.805,2.176C151.697,59.321,145.229,54.969,142.121,48.678 M133.004,48.806
	c-3.134,6.223-9.562,10.515-16.991,10.515c-3.152,0-6.12-0.783-8.742-2.146c3.131-6.225,9.565-10.514,16.995-10.514
	C127.417,46.662,130.382,47.443,133.004,48.806 M118.818,21.5c9.159,1.361,16.22,9.259,16.22,18.795
	c0,0.996-0.101,1.969-0.249,2.924c-9.164-1.363-16.221-9.259-16.221-18.793C118.568,23.427,118.67,22.456,118.818,21.5
	 M137.682,79.155c-3.562-3.457-5.783-8.285-5.783-13.625c0-5.261,2.149-10.028,5.607-13.475c3.561,3.459,5.784,8.285,5.784,13.632
	C143.29,70.942,141.141,75.71,137.682,79.155 M156.618,24.426c0,9.534-7.057,17.43-16.218,18.793
	c-0.15-0.955-0.248-1.928-0.248-2.924c0-9.536,7.057-17.434,16.219-18.795C156.521,22.456,156.618,23.427,156.618,24.426
	 M183,40.295c0-12.844-10.217-23.336-22.943-23.802c-3.279-9.248-12.11-15.89-22.464-15.89c-10.353,0-19.181,6.642-22.46,15.89
	c-12.728,0.466-22.941,10.96-22.941,23.802c0,7.621,3.601,14.415,9.192,18.778c-0.609,2.103-0.941,4.32-0.941,6.613
	c0,13.13,10.686,23.817,23.823,23.817c4.984,0,9.614-1.543,13.444-4.171c3.784,2.533,8.33,4.012,13.215,4.012
	c13.134,0,23.822-10.687,23.822-23.815c0-2.249-0.321-4.422-0.904-6.48C179.407,54.682,183,47.902,183,40.295"/>
</svg>
