<?xml version="1.0" encoding="utf-8"?>
<!-- Generator: Adobe Illustrator 16.0.0, SVG Export Plug-In . SVG Version: 6.00 Build 0)  -->
<!DOCTYPE svg PUBLIC "-//W3C//DTD SVG 1.1//EN" "http://www.w3.org/Graphics/SVG/1.1/DTD/svg11.dtd">
<svg version="1.1" id="Layer_1" xmlns="http://www.w3.org/2000/svg" xmlns:xlink="http://www.w3.org/1999/xlink" x="0px" y="0px"
	 width="184px" height="89.815px" viewBox="0 0 184 89.815" enable-background="new 0 0 184 89.815" xml:space="preserve">
<rect x="0" fill="#FFFFFF" width="184" height="89.815"/>
<path fill="#006AB3" d="M179.408,13.879c-1.73-0.76-3.918-0.486-6.021,0.365c-7.911,3.206-13.291,4.358-21.614,1.753
	c-5.235-1.639-10.137-5.073-15.932-2.982c-3.846,1.383-7.428,2.703-11.773,2.671l-2.515-12.875h59.656L179.408,13.879z
	 M159.185,52.108c0,0-2.896,2.977-7.605,2.652c-4.719,0.324-7.614-2.652-7.614-2.652c-4.774-4.772-3.07-10.709-1.408-13.776
	c1.026-1.92,8.361-12.939,8.992-13.877v-0.073c0,0,0.013,0.013,0.03,0.035l0.025-0.035v0.073c0.614,0.938,7.962,11.957,8.987,13.877
	C162.259,41.399,163.959,47.335,159.185,52.108 M183.821,0.251C183.673,0.089,183.474,0,183.244,0h-63.742
	c-0.221,0-0.424,0.089-0.572,0.251c-0.14,0.178-0.195,0.397-0.161,0.604l10.709,64.771c0.06,0.357,0.373,0.625,0.738,0.625h13.143
	l0.898,10.548l-5.532,0.009l12.871,12.869l12.901-12.901l-5.533,0.007l0.899-10.531h13.376c0.368,0,0.678-0.268,0.733-0.636
	l10.018-64.76C184.024,0.632,183.961,0.418,183.821,0.251"/>
</svg>
