<?xml version="1.0" encoding="utf-8"?>
<!-- Generator: Adobe Illustrator 16.0.0, SVG Export Plug-In . SVG Version: 6.00 Build 0)  -->
<!DOCTYPE svg PUBLIC "-//W3C//DTD SVG 1.1//EN" "http://www.w3.org/Graphics/SVG/1.1/DTD/svg11.dtd">
<svg version="1.1" id="Layer_1" xmlns="http://www.w3.org/2000/svg" xmlns:xlink="http://www.w3.org/1999/xlink" x="0px" y="0px"
	 width="150px" height="150px" viewBox="0 0 150 150" enable-background="new 0 0 150 150" xml:space="preserve">
<g>
	<rect fill="#E1E1E1" width="150" height="150"/>
	<path fill="#056CB4" d="M20.332,30.498c0.089-1.694,0.804-2.764,2.409-2.764c1.739,0,2.407,1.07,2.407,3.035v5.263
		c0,1.917-0.711,3.033-2.451,3.033c-1.697,0-2.365-1.16-2.365-3.033V30.498z M22.697,43.213c5.397,0,7.494-2.946,7.494-7.629v-4.463
		c0-4.951-1.963-7.446-5.623-7.446c-2.141,0-3.433,0.981-4.193,2.453h-0.043v-6.514c0-1.83,0.581-3.123,2.409-3.123
		c1.828,0,2.365,1.071,2.365,2.945v2.007h4.639v-1.607c0-4.459-1.473-7.581-7.094-7.581c-5.352,0-7.36,3.434-7.36,8.161v14.721
		C15.29,39.823,17.342,43.213,22.697,43.213"/>
	<path fill="#056CB4" d="M98.859,72.288c-1.477-0.648-3.347-0.415-5.142,0.312c-6.752,2.736-11.347,3.721-18.45,1.496
		c-4.472-1.398-8.656-4.33-13.602-2.546c-3.285,1.181-6.341,2.308-10.053,2.28l-2.145-10.99h50.929L98.859,72.288z M81.595,104.922
		c0,0-2.472,2.541-6.493,2.264c-4.03,0.277-6.5-2.264-6.5-2.264c-4.078-4.075-2.623-9.142-1.204-11.761
		c0.876-1.64,7.139-11.046,7.679-11.848v-0.062c0,0,0.011,0.011,0.025,0.029l0.021-0.029v0.062
		c0.525,0.802,6.797,10.208,7.673,11.848C84.219,95.781,85.67,100.847,81.595,104.922 M102.627,60.654
		c-0.127-0.139-0.299-0.215-0.492-0.215h-54.42c-0.187,0-0.362,0.076-0.489,0.215c-0.119,0.152-0.165,0.339-0.135,0.516
		l9.143,55.293c0.05,0.306,0.318,0.534,0.628,0.534h11.22L68.849,126l-4.721,0.008l10.987,10.986l11.016-11.014l-4.724,0.006
		l0.768-8.99h11.419c0.315,0,0.579-0.229,0.625-0.543l8.554-55.284C102.801,60.979,102.745,60.796,102.627,60.654"/>
	<path fill="#056CB4" d="M45.252,38.908h1.647l-0.814-4.917h-0.018L45.252,38.908z M42.667,42.793l2.315-12.256h2.349l2.333,12.256
		h-2.116l-0.38-2.242h-2.186l-0.362,2.242H42.667z"/>
	<polygon fill="#056CB4" points="52.25,35.093 52.25,42.793 50.515,42.793 50.515,30.538 52.54,30.538 54.764,37.568 54.764,30.538 
		56.481,30.538 56.481,42.793 54.673,42.793 	"/>
	<path fill="#056CB4" d="M60.895,41.112c0.849,0,1.175-0.506,1.175-1.247v-6.417c0-0.723-0.326-1.229-1.175-1.229h-0.871v8.893
		H60.895z M64.131,33.828v5.676c0,1.88-0.776,3.289-2.984,3.289h-3.181V30.536h3.181C63.354,30.536,64.131,31.93,64.131,33.828"/>
	<path fill="#056CB4" d="M68.724,40.155v-1.646h1.917v1.681c0,0.688,0.308,1.086,1.013,1.086c0.65,0,0.939-0.434,0.939-1.086v-0.469
		c0-0.707-0.29-1.14-0.923-1.736l-1.208-1.211c-1.175-1.156-1.718-1.862-1.718-3.271v-0.416c0-1.52,0.885-2.694,2.892-2.694
		c2.061,0,2.874,1.012,2.874,2.785v0.993h-1.88v-1.067c0-0.704-0.326-1.047-0.976-1.047c-0.579,0-0.976,0.324-0.976,1.011v0.252
		c0,0.688,0.38,1.086,0.976,1.664l1.319,1.301c1.122,1.139,1.663,1.827,1.663,3.181v0.597c0,1.681-0.905,2.874-3,2.874
		C69.538,42.938,68.724,41.763,68.724,40.155"/>
	<path fill="#056CB4" d="M77.819,38.908h1.647l-0.814-4.917h-0.018L77.819,38.908z M75.235,42.793l2.314-12.256h2.349l2.333,12.256
		h-2.115l-0.38-2.242H77.55l-0.362,2.242H75.235z"/>
	<polygon fill="#056CB4" points="84.962,35.093 84.962,42.793 83.227,42.793 83.227,30.538 85.252,30.538 87.476,37.568 
		87.476,30.538 89.193,30.538 89.193,42.793 87.386,42.793 	"/>
	<rect x="90.84" y="30.538" fill="#056CB4" width="2.062" height="12.255"/>
	<polygon fill="#056CB4" points="93.897,30.537 99.375,30.537 99.375,32.218 97.676,32.218 97.676,42.793 95.597,42.793 
		95.597,32.218 93.897,32.218 	"/>
	<path fill="#056CB4" d="M101.473,38.908h1.645l-0.812-4.917h-0.02L101.473,38.908z M98.887,42.793l2.314-12.256h2.351l2.333,12.256
		h-2.116l-0.38-2.242h-2.188l-0.36,2.242H98.887z"/>
	<polygon fill="#056CB4" points="105.235,30.537 110.713,30.537 110.713,32.218 109.014,32.218 109.014,42.793 106.935,42.793 
		106.935,32.218 105.235,32.218 	"/>
	<rect x="111.797" y="30.538" fill="#056CB4" width="2.062" height="12.255"/>
	<path fill="#056CB4" d="M119.393,39.957v-6.581c0-0.741-0.326-1.265-1.066-1.265c-0.724,0-1.05,0.524-1.05,1.265v6.581
		c0,0.741,0.326,1.264,1.05,1.264C119.066,41.22,119.393,40.698,119.393,39.957 M115.216,39.63v-5.929
		c0-1.917,0.94-3.308,3.11-3.308c2.187,0,3.127,1.392,3.127,3.308v5.929c0,1.898-0.94,3.308-3.127,3.308
		C116.156,42.938,115.216,41.528,115.216,39.63"/>
	<polygon fill="#056CB4" points="124.546,35.093 124.546,42.793 122.811,42.793 122.811,30.538 124.836,30.538 127.061,37.568 
		127.061,30.538 128.777,30.538 128.777,42.793 126.97,42.793 	"/>
	<path fill="#056CB4" d="M42.896,21.551v-5.93c0-1.916,0.905-3.307,3.075-3.307c2.277,0,2.908,1.265,2.908,3.072v1.448H47v-1.609
		c0-0.76-0.253-1.193-0.995-1.193c-0.74,0-1.048,0.525-1.048,1.266v6.58c0,0.742,0.308,1.264,1.048,1.264
		c0.742,0,0.995-0.469,0.995-1.192v-2.26h1.878v2.117c0,1.752-0.722,3.054-2.908,3.054C43.8,24.859,42.896,23.448,42.896,21.551"/>
	<polygon fill="#056CB4" points="50.178,12.458 52.239,12.458 52.239,23.034 54.699,23.034 54.699,24.714 50.178,24.714 	"/>
	<polygon fill="#056CB4" points="55.821,12.458 60.738,12.458 60.738,14.139 57.88,14.139 57.88,17.646 59.925,17.646 
		59.925,19.309 57.88,19.309 57.88,23.034 60.738,23.034 60.738,24.714 55.821,24.714 	"/>
	<path fill="#056CB4" d="M64.283,20.829h1.645l-0.814-4.918h-0.019L64.283,20.829z M61.697,24.714l2.314-12.255h2.351l2.331,12.255
		h-2.116l-0.38-2.242h-2.187l-0.362,2.242H61.697z"/>
	<polygon fill="#056CB4" points="71.462,17.013 71.462,24.715 69.725,24.715 69.725,12.458 71.751,12.458 73.974,19.489 
		73.974,12.458 75.693,12.458 75.693,24.715 73.883,24.715 	"/>
	<polygon fill="#056CB4" points="84.517,17.14 83.361,24.713 81.426,24.713 79.781,12.458 81.769,12.458 82.728,20.23 82.746,20.23 
		83.775,12.458 85.457,12.458 86.597,20.23 86.615,20.23 87.554,12.458 89.29,12.458 87.699,24.713 85.746,24.713 84.535,17.14 	"/>
	<path fill="#056CB4" d="M91.896,20.829h1.646l-0.813-4.918h-0.02L91.896,20.829z M89.31,24.714l2.314-12.255h2.351l2.333,12.255
		h-2.115l-0.381-2.242h-2.188l-0.36,2.242H89.31z"/>
	<polygon fill="#056CB4" points="96.056,12.458 101.534,12.458 101.534,14.139 99.835,14.139 99.835,24.714 97.755,24.714 
		97.755,14.139 96.056,14.139 	"/>
	<polygon fill="#056CB4" points="102.527,12.458 107.446,12.458 107.446,14.139 104.589,14.139 104.589,17.646 106.634,17.646 
		106.634,19.309 104.589,19.309 104.589,23.034 107.446,23.034 107.446,24.714 102.527,24.714 	"/>
	<path fill="#056CB4" d="M110.63,14.14v3.812h0.688c0.706,0,1.012-0.361,1.012-1.011v-1.807c0-0.668-0.306-0.994-1.012-0.994H110.63
		z M110.63,19.092v5.623h-2.062V12.458h3.001c2.079,0,2.839,1.03,2.839,2.748v1.572c0,1.321-0.469,2.097-1.646,2.368l1.973,5.569
		h-2.17L110.63,19.092z"/>
</g>
</svg>
