<?xml version="1.0" encoding="utf-8"?>
<!-- Generator: Adobe Illustrator 16.0.0, SVG Export Plug-In . SVG Version: 6.00 Build 0)  -->
<!DOCTYPE svg PUBLIC "-//W3C//DTD SVG 1.1//EN" "http://www.w3.org/Graphics/SVG/1.1/DTD/svg11.dtd">
<svg version="1.1" id="Layer_1" xmlns="http://www.w3.org/2000/svg" xmlns:xlink="http://www.w3.org/1999/xlink" x="0px" y="0px"
	 width="150px" height="150px" viewBox="0 0 150 150" enable-background="new 0 0 150 150" xml:space="preserve">
<g>
	<rect fill="#E1E1E1" width="150" height="150"/>
	<path fill="#056CB4" d="M24.061,35.948c0,1.83-0.669,3.123-2.498,3.123c-1.786,0-2.454-1.293-2.454-3.123v-4.907
		c0-1.829,0.668-3.123,2.454-3.123c1.829,0,2.498,1.294,2.498,3.123V35.948z M19.287,19.223c0-1.832,0.626-2.901,2.276-2.901
		c1.694,0,2.32,1.069,2.32,2.901v2.05c0,1.83-0.626,2.901-2.32,2.901c-1.65,0-2.276-1.072-2.276-2.901V19.223z M29.145,35.414
		v-3.302c0-2.898-1.024-4.994-3.39-6.067c2.005-0.978,2.943-2.764,2.943-5.261v-1.251c0-4.729-2.452-7.271-7.136-7.271
		c-4.638,0-7.05,2.542-7.05,7.271v1.251c0,2.453,0.895,4.283,2.856,5.261c-2.365,1.073-3.347,3.168-3.347,6.067v3.302
		c0,4.594,2.187,7.807,7.541,7.807C26.959,43.22,29.145,40.007,29.145,35.414"/>
	<path fill="#056CB4" d="M103.462,73.796L88.216,88.3c-0.576,0.572-0.871,0.993-0.871,2.177v40.646c0,0.479,0.389,0.87,0.871,0.87
		h15.748c0.479,0,0.866-0.391,0.866-0.87v-56.96C104.83,73.682,104.456,72.806,103.462,73.796"/>
	<path fill="#056CB4" d="M59.539,92.691l-15.248,14.502c-0.575,0.574-0.871,0.993-0.871,2.176v21.759
		c0,0.474,0.391,0.865,0.871,0.865h15.75c0.48,0,0.868-0.392,0.868-0.865V93.056C60.909,92.575,60.53,91.699,59.539,92.691"/>
	<path fill="#056CB4" d="M110.392,56.208c0.005-0.115-0.034-0.239-0.131-0.33c-0.079-0.08-0.181-0.115-0.28-0.124l-0.083,0.005
		l-0.127,0.009l-11.672,2.633l-0.214,0.021c-0.083,0.016-0.163,0.058-0.228,0.118c-0.171,0.175-0.171,0.454,0,0.629l0.134,0.132
		l2.663,2.664L74.002,88.419L61.784,76.201c-0.139-0.139-0.357-0.139-0.497,0l-3.315,3.317c-0.003,0-0.003,0.004-0.003,0.004
		L38.383,99.104c-0.136,0.138-0.136,0.36,0,0.496l3.321,3.318c0.135,0.138,0.355,0.138,0.493,0l19.341-19.338l8.867,8.867
		c0.01,0.015,0.014,0.029,0.028,0.042l3.317,3.313c0.138,0.138,0.357,0.138,0.497,0l30.023-30.022l2.8,2.798
		c0.172,0.173,0.452,0.173,0.622,0c0.081-0.083,0.123-0.183,0.129-0.288l0.001-0.037l2.564-11.918L110.392,56.208z"/>
	<path fill="#056CB4" d="M81.587,95.237l-7.377,7.439c-0.141,0.114-0.345,0.11-0.475-0.021l-6.684-6.811
		c-1.222-1.22-1.485-0.232-1.485,0.247v35.031c0,0.478,0.383,0.867,0.861,0.867H82.18c0.478,0,0.867-0.39,0.867-0.867V95.51
		C83.047,95.033,82.669,94.153,81.587,95.237"/>
	<path fill="#056CB4" d="M43.244,23.13c0.849,0,1.174-0.506,1.174-1.247v-6.417c0-0.723-0.326-1.229-1.174-1.229h-0.87v8.893H43.244
		z M46.48,15.846v5.675c0,1.881-0.776,3.29-2.983,3.29h-3.182V12.554h3.182C45.704,12.554,46.48,13.948,46.48,15.846"/>
	<polygon fill="#056CB4" points="47.783,12.555 52.701,12.555 52.701,14.236 49.843,14.236 49.843,17.745 51.887,17.745 
		51.887,19.407 49.843,19.407 49.843,23.131 52.701,23.131 52.701,24.812 47.783,24.812 	"/>
	<path fill="#056CB4" d="M53.75,21.648v-5.929c0-1.917,0.904-3.308,3.074-3.308c2.277,0,2.91,1.266,2.91,3.072v1.448h-1.879v-1.609
		c0-0.759-0.254-1.193-0.995-1.193s-1.049,0.525-1.049,1.266v6.581c0,0.741,0.308,1.263,1.049,1.263s0.995-0.469,0.995-1.192v-2.26
		h1.879v2.116c0,1.753-0.723,3.054-2.91,3.054C54.654,24.956,53.75,23.545,53.75,21.648"/>
	<polygon fill="#056CB4" points="60.983,12.555 65.901,12.555 65.901,14.236 63.044,14.236 63.044,17.745 65.088,17.745 
		65.088,19.407 63.044,19.407 63.044,23.131 65.901,23.131 65.901,24.812 60.983,24.812 	"/>
	<polygon fill="#056CB4" points="68.868,17.111 68.868,24.812 67.131,24.812 67.131,12.556 69.156,12.556 71.38,19.586 
		71.38,12.556 73.098,12.556 73.098,24.812 71.289,24.812 	"/>
	<polygon fill="#056CB4" points="74.166,12.555 79.643,12.555 79.643,14.236 77.944,14.236 77.944,24.812 75.865,24.812 
		75.865,14.236 74.166,14.236 	"/>
	<polygon fill="#056CB4" points="87.202,17.238 86.046,24.811 84.111,24.811 82.466,12.554 84.455,12.554 85.413,20.329 
		85.431,20.329 86.462,12.554 88.143,12.554 89.282,20.329 89.301,20.329 90.241,12.554 91.974,12.554 90.385,24.811 88.431,24.811 
		87.222,17.238 	"/>
	<path fill="#056CB4" d="M96.985,21.975v-6.581c0-0.741-0.326-1.266-1.065-1.266c-0.725,0-1.05,0.525-1.05,1.266v6.581
		c0,0.741,0.325,1.263,1.05,1.263C96.659,23.238,96.985,22.715,96.985,21.975 M92.809,21.648v-5.929
		c0-1.917,0.939-3.308,3.111-3.308c2.186,0,3.127,1.392,3.127,3.308v5.929c0,1.897-0.941,3.308-3.127,3.308
		C93.748,24.956,92.809,23.545,92.809,21.648"/>
	<path fill="#056CB4" d="M102.411,14.236v3.814h0.688c0.706,0,1.012-0.362,1.012-1.013v-1.806c0-0.67-0.306-0.996-1.012-0.996
		H102.411z M102.411,19.189v5.623h-2.062V12.555h3c2.08,0,2.84,1.031,2.84,2.748v1.572c0,1.321-0.469,2.098-1.646,2.368l1.973,5.569
		h-2.17L102.411,19.189z"/>
	<polygon fill="#056CB4" points="109.499,18.847 109.499,24.811 107.438,24.811 107.438,12.555 109.499,12.555 109.499,17.942 
		111.741,12.555 113.765,12.555 111.38,18.068 113.821,24.811 111.651,24.811 	"/>
	<path fill="#056CB4" d="M119.282,20.926h1.646l-0.812-4.918h-0.021L119.282,20.926z M116.696,24.811l2.314-12.256h2.351
		l2.333,12.256h-2.115l-0.38-2.242h-2.188l-0.36,2.242H116.696z"/>
	<polygon fill="#056CB4" points="126.117,17.111 126.117,24.812 124.38,24.812 124.38,12.556 126.407,12.556 128.63,19.586 
		128.63,12.556 130.349,12.556 130.349,24.812 128.539,24.812 	"/>
	<path fill="#056CB4" d="M134.636,23.13c0.849,0,1.175-0.506,1.175-1.247v-6.417c0-0.723-0.326-1.229-1.175-1.229h-0.868v8.893
		H134.636z M137.871,15.846v5.675c0,1.881-0.776,3.29-2.983,3.29h-3.182V12.554h3.182C137.095,12.554,137.871,13.948,137.871,15.846
		"/>
	<polygon fill="#056CB4" points="40.314,30.561 45.232,30.561 45.232,32.242 42.375,32.242 42.375,35.75 44.418,35.75 
		44.418,37.412 42.375,37.412 42.375,41.136 45.232,41.136 45.232,42.817 40.314,42.817 	"/>
	<path fill="#056CB4" d="M46.138,39.654v-5.929c0-1.917,0.904-3.308,3.074-3.308c2.278,0,2.91,1.266,2.91,3.075v1.445h-1.879v-1.609
		c0-0.759-0.254-1.193-0.995-1.193c-0.741,0-1.049,0.525-1.049,1.266v6.581c0,0.741,0.308,1.264,1.049,1.264
		c0.741,0,0.995-0.469,0.995-1.191v-2.261h1.879v2.116c0,1.753-0.723,3.054-2.91,3.054C47.042,42.961,46.138,41.551,46.138,39.654"
		/>
	<path fill="#056CB4" d="M57.421,39.98v-6.581c0-0.741-0.327-1.266-1.068-1.266c-0.723,0-1.049,0.525-1.049,1.266v6.581
		c0,0.741,0.326,1.264,1.049,1.264C57.095,41.244,57.421,40.721,57.421,39.98 M53.244,39.654v-5.929c0-1.917,0.94-3.308,3.11-3.308
		c2.187,0,3.128,1.392,3.128,3.308v5.929c0,1.897-0.941,3.308-3.128,3.308C54.184,42.961,53.244,41.551,53.244,39.654"/>
	<polygon fill="#056CB4" points="62.393,35.117 62.393,42.818 60.657,42.818 60.657,30.562 62.683,30.562 64.906,37.592 
		64.906,30.562 66.625,30.562 66.625,42.818 64.815,42.818 	"/>
	<path fill="#056CB4" d="M71.978,39.98v-6.581c0-0.741-0.327-1.266-1.068-1.266c-0.722,0-1.049,0.525-1.049,1.266v6.581
		c0,0.741,0.327,1.264,1.049,1.264C71.651,41.244,71.978,40.721,71.978,39.98 M67.801,39.654v-5.929
		c0-1.917,0.939-3.308,3.109-3.308c2.187,0,3.128,1.392,3.128,3.308v5.929c0,1.897-0.941,3.308-3.128,3.308
		C68.74,42.961,67.801,41.551,67.801,39.654"/>
	<polygon fill="#056CB4" points="80.892,34.864 80.837,34.864 79.446,42.817 78.487,42.817 76.95,34.864 76.914,34.864 
		76.914,42.817 75.215,42.817 75.215,30.561 77.618,30.561 78.958,37.468 78.976,37.468 80.168,30.561 82.772,30.561 82.772,42.817 
		80.892,42.817 	"/>
	<rect x="83.948" y="30.56" fill="#056CB4" width="2.06" height="12.257"/>
	<path fill="#056CB4" d="M87.166,39.654v-5.929c0-1.917,0.905-3.308,3.075-3.308c2.278,0,2.91,1.266,2.91,3.075v1.445h-1.88v-1.609
		c0-0.759-0.253-1.193-0.994-1.193c-0.742,0-1.05,0.525-1.05,1.266v6.581c0,0.741,0.308,1.264,1.05,1.264
		c0.74,0,0.994-0.469,0.994-1.191v-2.261h1.88v2.116c0,1.753-0.724,3.054-2.91,3.054C88.071,42.961,87.166,41.551,87.166,39.654"/>
	<path fill="#056CB4" d="M99.771,36.273h2.93v6.543h-1.482v-1.338c-0.272,0.923-0.851,1.482-1.972,1.482
		c-1.772,0-2.585-1.408-2.585-3.308v-5.93c0-1.916,0.923-3.307,3.091-3.307c2.279,0,2.948,1.266,2.948,3.074v1.084h-1.88v-1.247
		c0-0.76-0.29-1.193-1.032-1.193c-0.739,0-1.067,0.525-1.067,1.266v6.58c0,0.742,0.308,1.267,1.016,1.267
		c0.666,0,1.012-0.38,1.012-1.175v-2.17h-0.978V36.273z"/>
	<path fill="#056CB4" d="M105.937,32.242v3.813h0.688c0.705,0,1.012-0.361,1.012-1.012v-1.807c0-0.669-0.307-0.995-1.012-0.995
		H105.937z M105.937,37.195v5.622h-2.06V30.561h3c2.078,0,2.838,1.031,2.838,2.748v1.572c0,1.321-0.469,2.097-1.646,2.368
		l1.973,5.568h-2.171L105.937,37.195z"/>
	<path fill="#056CB4" d="M114.832,39.98v-6.581c0-0.741-0.325-1.266-1.065-1.266c-0.724,0-1.05,0.525-1.05,1.266v6.581
		c0,0.741,0.326,1.264,1.05,1.264C114.507,41.244,114.832,40.721,114.832,39.98 M110.655,39.654v-5.929
		c0-1.917,0.941-3.308,3.111-3.308c2.187,0,3.127,1.392,3.127,3.308v5.929c0,1.897-0.94,3.308-3.127,3.308
		C111.597,42.961,110.655,41.551,110.655,39.654"/>
	<polygon fill="#056CB4" points="122.175,35.244 121.018,42.817 119.083,42.817 117.438,30.56 119.426,30.56 120.385,38.334 
		120.402,38.334 121.433,30.56 123.113,30.56 124.254,38.334 124.271,38.334 125.211,30.56 126.946,30.56 125.355,42.817 
		123.403,42.817 122.192,35.244 	"/>
	<polygon fill="#056CB4" points="127.582,30.561 133.06,30.561 133.06,32.242 131.36,32.242 131.36,42.817 129.281,42.817 
		129.281,32.242 127.582,32.242 	"/>
	<polygon fill="#056CB4" points="137.743,37.413 135.756,37.413 135.756,42.818 133.694,42.818 133.694,30.562 135.756,30.562 
		135.756,35.75 137.743,35.75 137.743,30.562 139.822,30.562 139.822,42.818 137.743,42.818 	"/>
</g>
</svg>
