<?xml version="1.0" encoding="utf-8"?>
<!-- Generator: Adobe Illustrator 16.0.0, SVG Export Plug-In . SVG Version: 6.00 Build 0)  -->
<!DOCTYPE svg PUBLIC "-//W3C//DTD SVG 1.1//EN" "http://www.w3.org/Graphics/SVG/1.1/DTD/svg11.dtd">
<svg version="1.1" id="Layer_1" xmlns="http://www.w3.org/2000/svg" xmlns:xlink="http://www.w3.org/1999/xlink" x="0px" y="0px"
	 width="150px" height="150px" viewBox="0 0 150 150" enable-background="new 0 0 150 150" xml:space="preserve">
<g>
	<rect fill="#E1E1E1" width="150" height="150"/>
	<polygon fill="#056CB4" points="22.445,12.571 22.445,42.813 17.36,42.813 17.36,19.663 17.316,19.663 13.747,23.366 
		13.702,23.366 13.702,18.058 18.388,12.571 	"/>
	<polygon fill="#056CB4" points="24.765,12.571 37.524,12.571 37.524,17.254 30.876,42.813 25.834,42.813 32.614,16.719 
		24.765,16.719 	"/>
	<path fill="#056CB4" d="M89.16,92.271c3.849-3.568,6.263-8.664,6.263-14.314c0-0.847-0.062-1.679-0.165-2.497
		c7.82,0.836,13.932,7.471,13.932,15.512c0,4.567-1.983,8.668-5.125,11.527C101.123,96.987,95.623,93.049,89.16,92.271
		 M102.422,111.667c0,8.599-6.999,15.599-15.603,15.599c-2.801,0-5.42-0.749-7.695-2.049c3.319-3.5,5.366-8.229,5.366-13.424
		c0-1.277-0.128-2.529-0.364-3.734c2.805,1.556,6.03,2.45,9.459,2.45c3.055,0,5.944-0.71,8.52-1.962
		C102.312,109.556,102.422,110.598,102.422,111.667 M49.349,111.792c0-1.107,0.119-2.189,0.343-3.231
		c2.57,1.245,5.45,1.947,8.493,1.947c3.42,0,6.634-0.887,9.434-2.436c-0.219,1.161-0.339,2.363-0.339,3.594
		c0,5.272,2.111,10.068,5.524,13.586c-2.31,1.354-4.988,2.143-7.85,2.143C56.348,127.395,49.349,120.396,49.349,111.792
		 M42.582,90.971c0-8.041,6.111-14.676,13.929-15.512c-0.104,0.818-0.163,1.65-0.163,2.497c0,5.708,2.465,10.858,6.383,14.43
		c-6.48,0.738-12.009,4.654-14.979,10.152C44.586,99.679,42.582,95.561,42.582,90.971 M75.883,62.354
		c6.396,0,11.895,3.865,14.304,9.381c-6.347,1.12-11.646,5.31-14.304,10.978c-2.653-5.671-7.954-9.859-14.3-10.978
		C63.992,66.219,69.492,62.354,75.883,62.354 M79.599,97.844c2.163-1.133,4.613-1.784,7.221-1.784
		c6.133,0,11.438,3.568,13.987,8.729c-2.163,1.133-4.618,1.784-7.221,1.784C87.451,106.574,82.147,103.005,79.599,97.844
		 M72.12,97.95c-2.569,5.103-7.842,8.624-13.936,8.624c-2.585,0-5.02-0.644-7.168-1.759c2.567-5.106,7.844-8.624,13.938-8.624
		C67.539,96.191,69.97,96.832,72.12,97.95 M60.485,75.557c7.513,1.115,13.303,7.594,13.303,15.414c0,0.814-0.082,1.614-0.204,2.396
		c-7.515-1.118-13.303-7.594-13.303-15.411C60.282,77.135,60.363,76.339,60.485,75.557 M75.958,122.838
		c-2.922-2.833-4.744-6.793-4.744-11.172c0-4.314,1.762-8.227,4.599-11.054c2.918,2.838,4.743,6.797,4.743,11.18
		C80.556,116.103,78.795,120.016,75.958,122.838 M91.489,77.957c0,7.817-5.788,14.293-13.302,15.411
		c-0.123-0.782-0.205-1.582-0.205-2.396c0-7.82,5.788-14.299,13.304-15.414C91.407,76.339,91.489,77.135,91.489,77.957
		 M113.123,90.971c0-10.535-8.378-19.139-18.817-19.521c-2.687-7.584-9.929-13.031-18.422-13.031
		c-8.491,0-15.731,5.447-18.42,13.031c-10.438,0.382-18.814,8.989-18.814,19.521c0,6.251,2.953,11.82,7.538,15.4
		c-0.499,1.723-0.772,3.543-0.772,5.421c0,10.771,8.765,19.533,19.539,19.533c4.088,0,7.885-1.263,11.026-3.42
		c3.104,2.077,6.831,3.29,10.839,3.29c10.771,0,19.536-8.763,19.536-19.529c0-1.846-0.263-3.627-0.74-5.317
		C110.179,102.77,113.123,97.208,113.123,90.971"/>
	<path fill="#056CB4" d="M49.95,14.247v4.828h0.76c0.704,0,1.012-0.344,1.012-1.015v-2.818c0-0.669-0.308-0.995-1.012-0.995H49.95z
		 M47.89,12.566h3.055c2.08,0,2.84,1.031,2.84,2.749v2.584c0,1.717-0.76,2.765-2.84,2.765H49.95v4.158h-2.06V12.566z"/>
	<path fill="#056CB4" d="M56.625,20.936h1.645l-0.813-4.917h-0.018L56.625,20.936z M54.04,24.822l2.314-12.256h2.349l2.332,12.256
		H58.92l-0.38-2.242h-2.186l-0.362,2.242H54.04z"/>
	<path fill="#056CB4" d="M64.127,14.247v3.813h0.688c0.706,0,1.011-0.36,1.011-1.012v-1.806c0-0.669-0.306-0.995-1.011-0.995H64.127
		z M64.127,19.2v5.623h-2.06V12.566h3c2.079,0,2.839,1.031,2.839,2.749v1.571c0,1.321-0.469,2.098-1.646,2.369l1.972,5.568h-2.17
		L64.127,19.2z"/>
	<polygon fill="#056CB4" points="68.632,12.566 74.11,12.566 74.11,14.247 72.411,14.247 72.411,24.822 70.331,24.822 
		70.331,14.247 68.632,14.247 	"/>
	<polygon fill="#056CB4" points="77.148,17.123 77.148,24.822 75.412,24.822 75.412,12.568 77.438,12.568 79.662,19.598 
		79.662,12.568 81.379,12.568 81.379,24.822 79.569,24.822 	"/>
	<polygon fill="#056CB4" points="83.081,12.566 87.998,12.566 87.998,14.247 85.14,14.247 85.14,17.754 87.185,17.754 
		87.185,19.417 85.14,19.417 85.14,23.141 87.998,23.141 87.998,24.822 83.081,24.822 	"/>
	<path fill="#056CB4" d="M91.344,14.247v3.813h0.686c0.708,0,1.013-0.36,1.013-1.012v-1.806c0-0.669-0.306-0.995-1.013-0.995H91.344
		z M91.344,19.2v5.623h-2.061V12.566h3c2.079,0,2.837,1.031,2.837,2.749v1.571c0,1.321-0.469,2.098-1.645,2.369l1.973,5.568h-2.17
		L91.344,19.2z"/>
	<path fill="#056CB4" d="M96.153,22.182v-1.645h1.917v1.681c0,0.688,0.308,1.086,1.013,1.086c0.648,0,0.939-0.435,0.939-1.086V21.75
		c0-0.706-0.291-1.14-0.923-1.737l-1.211-1.208c-1.174-1.156-1.717-1.862-1.717-3.273v-0.415c0-1.52,0.887-2.695,2.894-2.695
		c2.06,0,2.874,1.012,2.874,2.785V16.2h-1.883v-1.066c0-0.706-0.325-1.048-0.974-1.048c-0.58,0-0.977,0.324-0.977,1.012v0.251
		c0,0.688,0.38,1.086,0.977,1.663l1.319,1.301c1.12,1.14,1.661,1.828,1.661,3.183v0.596c0,1.681-0.902,2.875-2.998,2.875
		C96.966,24.967,96.153,23.791,96.153,22.182"/>
	<polygon fill="#056CB4" points="107.383,19.417 105.395,19.417 105.395,24.822 103.335,24.822 103.335,12.566 105.395,12.566 
		105.395,17.756 107.383,17.756 107.383,12.566 109.463,12.566 109.463,24.822 107.383,24.822 	"/>
	<rect x="110.819" y="12.566" fill="#056CB4" width="2.06" height="12.256"/>
	<path fill="#056CB4" d="M116.315,14.247v4.828h0.76c0.704,0,1.014-0.344,1.014-1.015v-2.818c0-0.669-0.31-0.995-1.014-0.995
		H116.315z M114.254,12.566h3.057c2.079,0,2.838,1.031,2.838,2.749v2.584c0,1.717-0.759,2.765-2.838,2.765h-0.995v4.158h-2.062
		V12.566z"/>
	<path fill="#056CB4" d="M120.946,22.182v-1.645h1.917v1.681c0,0.688,0.308,1.086,1.014,1.086c0.647,0,0.939-0.435,0.939-1.086
		V21.75c0-0.706-0.292-1.14-0.923-1.737l-1.211-1.208c-1.176-1.156-1.718-1.862-1.718-3.273v-0.415c0-1.52,0.887-2.695,2.895-2.695
		c2.059,0,2.873,1.012,2.873,2.785V16.2h-1.882v-1.066c0-0.706-0.326-1.048-0.974-1.048c-0.581,0-0.978,0.324-0.978,1.012v0.251
		c0,0.688,0.379,1.086,0.978,1.663l1.319,1.301c1.12,1.14,1.661,1.828,1.661,3.183v0.596c0,1.681-0.903,2.875-2.998,2.875
		C121.759,24.967,120.946,23.791,120.946,22.182"/>
	<polygon fill="#056CB4" points="47.897,30.369 52.801,30.369 52.801,32.077 49.991,32.077 49.991,35.64 52.083,35.64 
		52.083,37.327 49.991,37.327 49.991,42.819 47.897,42.819 	"/>
	<path fill="#056CB4" d="M57.758,39.934v-6.681c0-0.755-0.33-1.287-1.082-1.287c-0.736,0-1.066,0.532-1.066,1.287v6.681
		c0,0.755,0.33,1.287,1.066,1.287C57.428,41.221,57.758,40.689,57.758,39.934 M53.517,39.605v-6.022c0-1.945,0.955-3.36,3.16-3.36
		c2.221,0,3.176,1.415,3.176,3.36v6.022c0,1.928-0.955,3.36-3.176,3.36C54.471,42.965,53.517,41.533,53.517,39.605"/>
	<path fill="#056CB4" d="M63.322,32.077v3.875h0.697c0.717,0,1.029-0.368,1.029-1.028v-1.836c0-0.681-0.312-1.01-1.029-1.01H63.322z
		 M63.322,37.108v5.711h-2.094V30.371h3.048c2.112,0,2.883,1.044,2.883,2.791v1.598c0,1.339-0.478,2.128-1.671,2.405l2.001,5.655
		h-2.203L63.322,37.108z"/>
	<polygon fill="#056CB4" points="70.447,30.369 76.01,30.369 76.01,32.077 74.285,32.077 74.285,42.819 72.173,42.819 
		72.173,32.077 70.447,32.077 	"/>
	<polygon fill="#056CB4" points="81.115,37.329 79.095,37.329 79.095,42.819 77.002,42.819 77.002,30.371 79.095,30.371 
		79.095,35.64 81.115,35.64 81.115,30.371 83.229,30.371 83.229,42.819 81.115,42.819 	"/>
	<polygon fill="#056CB4" points="84.604,30.369 89.598,30.369 89.598,32.077 86.698,32.077 86.698,35.64 88.772,35.64 
		88.772,37.327 86.698,37.327 86.698,41.111 89.598,41.111 89.598,42.819 84.604,42.819 	"/>
	<path fill="#056CB4" d="M96.282,36.172h2.975v6.646h-1.505v-1.359c-0.275,0.936-0.863,1.506-2.002,1.506
		c-1.799,0-2.627-1.433-2.627-3.36v-6.022c0-1.945,0.938-3.36,3.141-3.36c2.313,0,2.993,1.285,2.993,3.122v1.1h-1.909v-1.265
		c0-0.771-0.295-1.212-1.046-1.212c-0.752,0-1.084,0.532-1.084,1.285v6.683c0,0.753,0.313,1.287,1.028,1.287
		c0.681,0,1.027-0.386,1.027-1.192v-2.205h-0.991V36.172z"/>
	<path fill="#056CB4" d="M104.674,39.934v-6.681c0-0.755-0.329-1.287-1.082-1.287c-0.735,0-1.064,0.532-1.064,1.287v6.681
		c0,0.755,0.329,1.287,1.064,1.287C104.345,41.221,104.674,40.689,104.674,39.934 M100.434,39.605v-6.022
		c0-1.945,0.953-3.36,3.158-3.36c2.223,0,3.178,1.415,3.178,3.36v6.022c0,1.928-0.955,3.36-3.178,3.36
		C101.387,42.965,100.434,41.533,100.434,39.605"/>
	<path fill="#056CB4" d="M109.981,38.872h1.673l-0.827-4.995h-0.019L109.981,38.872z M107.356,42.819l2.349-12.45h2.389l2.369,12.45
		h-2.148l-0.388-2.278h-2.222l-0.365,2.278H107.356z"/>
	<polygon fill="#056CB4" points="115.673,30.369 117.767,30.369 117.767,41.111 120.264,41.111 120.264,42.819 115.673,42.819 	"/>
	<path fill="#056CB4" d="M121.017,40.137v-1.67h1.946v1.708c0,0.696,0.313,1.1,1.03,1.1c0.66,0,0.955-0.441,0.955-1.1v-0.478
		c0-0.717-0.295-1.157-0.938-1.763l-1.229-1.23c-1.195-1.174-1.747-1.893-1.747-3.324v-0.421c0-1.544,0.902-2.736,2.938-2.736
		c2.094,0,2.921,1.028,2.921,2.829v1.01h-1.911v-1.083c0-0.718-0.329-1.065-0.989-1.065c-0.589,0-0.992,0.329-0.992,1.028v0.255
		c0,0.699,0.386,1.104,0.992,1.69l1.341,1.321c1.138,1.158,1.688,1.855,1.688,3.232v0.606c0,1.709-0.918,2.921-3.05,2.921
		C121.844,42.965,121.017,41.771,121.017,40.137"/>
</g>
</svg>
