<?xml version="1.0" encoding="utf-8"?>
<!-- Generator: Adobe Illustrator 16.0.0, SVG Export Plug-In . SVG Version: 6.00 Build 0)  -->
<!DOCTYPE svg PUBLIC "-//W3C//DTD SVG 1.1//EN" "http://www.w3.org/Graphics/SVG/1.1/DTD/svg11.dtd">
<svg version="1.1" id="Layer_1" xmlns="http://www.w3.org/2000/svg" xmlns:xlink="http://www.w3.org/1999/xlink" x="0px" y="0px"
	 width="150px" height="150px" viewBox="0 0 150 150" enable-background="new 0 0 150 150" xml:space="preserve">
<g>
	<rect fill="#E1E1E1" width="150" height="150"/>
	<path fill="#056CB4" d="M21.404,43.221c5.132,0,7.362-2.722,7.362-6.913v-4.461c0-2.765-1.206-4.552-3.748-5.13
		c2.096-0.668,3.48-2.364,3.48-4.907V19.18c0-4.283-2.052-6.914-6.736-6.914c-5.265,0-7.094,3.121-7.094,7.583v2.676h4.638v-3.078
		c0-1.874,0.583-2.943,2.19-2.943c1.605,0,2.183,1.069,2.183,2.721v3.256c0,1.607-1.07,2.452-2.718,2.452h-1.92v3.884h2.143
		c1.783,0,2.496,0.845,2.496,2.452v4.996c0,1.605-0.713,2.723-2.275,2.723c-1.739,0-2.364-1.162-2.364-2.945v-4.327h-4.637v3.969
		C14.404,40.279,16.23,43.221,21.404,43.221"/>
	<path fill="#056CB4" d="M125.384,93.747c0-4.224-2.708-7.645-6.811-7.645c-2.051,0-4.526,2.248-5.869,3.627
		c-1.345-1.383-3.654-3.631-5.706-3.631c-4.102,0-6.977,3.425-6.977,7.645c0,2.11,0.83,4.021,2.177,5.407l10.515,10.533
		l10.501-10.521l-0.008-0.008C124.551,97.768,125.384,95.857,125.384,93.747"/>
	<path fill="#056CB4" d="M80.615,126.879c-0.034,0-0.07,0-0.106-0.004c-0.8-0.047-1.459-0.641-1.597-1.43l-5.34-31.105
		l-8.092,14.999c-0.354,0.658-1.093,1.01-1.82,0.879c-0.735-0.13-1.3-0.716-1.408-1.451l-3.433-24.008l-6.285,14.112
		c-0.277,0.626-0.894,1.028-1.577,1.028H26.531c-0.956,0-1.728-0.775-1.728-1.73c0-0.952,0.772-1.727,1.728-1.727h23.301
		L58.1,77.878c0.314-0.705,1.053-1.114,1.817-1.006c0.762,0.105,1.363,0.702,1.471,1.466l3.54,24.75l7.979-14.789
		c0.349-0.651,1.071-1.01,1.799-0.887c0.728,0.119,1.297,0.684,1.422,1.411l4.946,28.808l18.027-59.878
		c0.206-0.681,0.81-1.167,1.517-1.222c0.713-0.055,1.385,0.329,1.692,0.971l9.486,19.663c0.413,0.858,0.055,1.89-0.807,2.302
		c-0.857,0.417-1.89,0.059-2.304-0.803L101.131,63l-18.864,62.651C82.048,126.386,81.373,126.879,80.615,126.879"/>
	<path fill="#056CB4" d="M45.947,18.274h2.93v6.543h-1.484v-1.336c-0.271,0.921-0.851,1.48-1.971,1.48
		c-1.772,0-2.586-1.408-2.586-3.308v-5.93c0-1.917,0.923-3.308,3.091-3.308c2.28,0,2.95,1.266,2.95,3.075v1.084h-1.882v-1.248
		c0-0.759-0.29-1.193-1.03-1.193c-0.742,0-1.068,0.524-1.068,1.265v6.581c0,0.741,0.308,1.266,1.014,1.266
		c0.667,0,1.012-0.38,1.012-1.176v-2.169h-0.976V18.274z"/>
	<path fill="#056CB4" d="M54.409,21.98V15.4c0-0.741-0.326-1.266-1.068-1.266c-0.722,0-1.048,0.525-1.048,1.266v6.58
		c0,0.741,0.326,1.264,1.048,1.264C54.083,23.244,54.409,22.721,54.409,21.98 M50.232,21.654v-5.931
		c0-1.916,0.939-3.308,3.109-3.308c2.188,0,3.129,1.393,3.129,3.308v5.931c0,1.897-0.941,3.307-3.129,3.307
		C51.171,24.961,50.232,23.552,50.232,21.654"/>
	<path fill="#056CB4" d="M62.005,21.98V15.4c0-0.741-0.326-1.266-1.068-1.266c-0.722,0-1.05,0.525-1.05,1.266v6.58
		c0,0.741,0.328,1.264,1.05,1.264C61.679,23.244,62.005,22.721,62.005,21.98 M57.828,21.654v-5.931c0-1.916,0.939-3.308,3.109-3.308
		c2.187,0,3.127,1.393,3.127,3.308v5.931c0,1.897-0.941,3.307-3.127,3.307C58.767,24.961,57.828,23.552,57.828,21.654"/>
	<path fill="#056CB4" d="M68.352,23.136c0.849,0,1.177-0.506,1.177-1.247v-6.417c0-0.723-0.328-1.229-1.177-1.229h-0.869v8.893
		H68.352z M71.588,15.852v5.676c0,1.881-0.777,3.289-2.983,3.289h-3.183V12.56h3.183C70.811,12.56,71.588,13.952,71.588,15.852"/>
	<polygon fill="#056CB4" points="79.799,19.412 77.81,19.412 77.81,24.818 75.749,24.818 75.749,12.562 77.81,12.562 77.81,17.75 
		79.799,17.75 79.799,12.562 81.878,12.562 81.878,24.818 79.799,24.818 	"/>
	<polygon fill="#056CB4" points="83.235,12.562 88.154,12.562 88.154,14.242 85.297,14.242 85.297,17.75 87.34,17.75 87.34,19.412 
		85.297,19.412 85.297,23.137 88.154,23.137 88.154,24.818 83.235,24.818 	"/>
	<path fill="#056CB4" d="M91.698,20.93h1.645l-0.812-4.917h-0.018L91.698,20.93z M89.114,24.818l2.314-12.256h2.349l2.331,12.256
		h-2.114l-0.38-2.243h-2.186l-0.362,2.243H89.114z"/>
	<polygon fill="#056CB4" points="97.142,12.562 99.203,12.562 99.203,23.137 101.662,23.137 101.662,24.818 97.142,24.818 	"/>
	<polygon fill="#056CB4" points="101.375,12.562 106.852,12.562 106.852,14.242 105.153,14.242 105.153,24.818 103.074,24.818 
		103.074,14.242 101.375,14.242 	"/>
	<polygon fill="#056CB4" points="112.042,19.412 110.053,19.412 110.053,24.818 107.993,24.818 107.993,12.562 110.053,12.562 
		110.053,17.75 112.042,17.75 112.042,12.562 114.121,12.562 114.121,24.818 112.042,24.818 	"/>
	<path fill="#056CB4" d="M45.11,38.91h1.646l-0.813-4.919h-0.018L45.11,38.91z M42.526,42.795l2.314-12.256h2.349l2.333,12.256
		h-2.116l-0.38-2.242h-2.187l-0.362,2.242H42.526z"/>
	<polygon fill="#056CB4" points="52.29,35.094 52.29,42.796 50.553,42.796 50.553,30.539 52.58,30.539 54.802,37.57 54.802,30.539 
		56.521,30.539 56.521,42.796 54.711,42.796 	"/>
	<path fill="#056CB4" d="M60.809,41.114c0.849,0,1.175-0.506,1.175-1.247v-6.417c0-0.723-0.326-1.229-1.175-1.229H59.94v8.894
		H60.809z M64.044,33.829v5.675c0,1.881-0.776,3.292-2.984,3.292h-3.182V30.539h3.182C63.268,30.539,64.044,31.931,64.044,33.829"/>
	<polygon fill="#056CB4" points="71.928,35.221 70.771,42.794 68.837,42.794 67.192,30.538 69.181,30.538 70.138,38.312 
		70.156,38.312 71.188,30.538 72.867,30.538 74.007,38.312 74.025,38.312 74.966,30.538 76.7,30.538 75.111,42.794 73.157,42.794 
		71.948,35.221 	"/>
	<polygon fill="#056CB4" points="77.771,30.539 82.689,30.539 82.689,32.219 79.831,32.219 79.831,35.728 81.876,35.728 
		81.876,37.39 79.831,37.39 79.831,41.115 82.689,41.115 82.689,42.795 77.771,42.795 	"/>
	<polygon fill="#056CB4" points="83.972,30.539 86.033,30.539 86.033,41.115 88.493,41.115 88.493,42.795 83.972,42.795 	"/>
	<polygon fill="#056CB4" points="89.615,30.539 91.676,30.539 91.676,41.115 94.136,41.115 94.136,42.795 89.615,42.795 	"/>
	<rect x="93.866" y="35.547" fill="#056CB4" width="2.894" height="1.663"/>
	<path fill="#056CB4" d="M100.05,37.282v3.833h0.903c0.688,0,1.014-0.345,1.014-0.995v-1.844c0-0.651-0.308-0.994-1.03-0.994H100.05
		z M100.05,35.709h0.725c0.669,0,0.975-0.343,0.975-0.995v-1.5c0-0.669-0.306-0.996-0.993-0.996h-0.706V35.709z M97.988,30.539
		h2.984c2.06,0,2.748,0.958,2.748,2.693v1.247c0,1.032-0.381,1.683-1.231,1.953c1.032,0.236,1.539,0.923,1.539,2.042v1.629
		c0,1.734-0.778,2.692-2.84,2.692h-3.2V30.539z"/>
	<polygon fill="#056CB4" points="105.24,30.539 110.159,30.539 110.159,32.219 107.302,32.219 107.302,35.728 109.345,35.728 
		109.345,37.39 107.302,37.39 107.302,41.115 110.159,41.115 110.159,42.795 105.24,42.795 	"/>
	<rect x="111.444" y="30.538" fill="#056CB4" width="2.06" height="12.257"/>
	<polygon fill="#056CB4" points="116.615,35.094 116.615,42.796 114.878,42.796 114.878,30.539 116.904,30.539 119.127,37.57 
		119.127,30.539 120.847,30.539 120.847,42.796 119.036,42.796 	"/>
	<path fill="#056CB4" d="M125.312,36.251h2.931v6.543h-1.484v-1.335c-0.271,0.921-0.851,1.479-1.971,1.479
		c-1.771,0-2.586-1.407-2.586-3.308v-5.93c0-1.917,0.923-3.308,3.091-3.308c2.28,0,2.95,1.266,2.95,3.075v1.084h-1.883v-1.247
		c0-0.76-0.289-1.193-1.029-1.193c-0.742,0-1.068,0.524-1.068,1.265v6.581c0,0.741,0.308,1.267,1.014,1.267
		c0.668,0,1.012-0.381,1.012-1.176v-2.17h-0.976V36.251z"/>
</g>
</svg>
