<?xml version="1.0" encoding="utf-8"?>
<!-- Generator: Adobe Illustrator 16.0.0, SVG Export Plug-In . SVG Version: 6.00 Build 0)  -->
<!DOCTYPE svg PUBLIC "-//W3C//DTD SVG 1.1//EN" "http://www.w3.org/Graphics/SVG/1.1/DTD/svg11.dtd">
<svg version="1.1" id="Layer_1" xmlns="http://www.w3.org/2000/svg" xmlns:xlink="http://www.w3.org/1999/xlink" x="0px" y="0px"
	 width="150px" height="150px" viewBox="0 0 150 150" enable-background="new 0 0 150 150" xml:space="preserve">
<g>
	<rect y="0" fill="#E1E1E1" width="150" height="150"/>
	<path fill="#056CB4" d="M23.918,22.146c-2.007,0-3.479,0.714-4.283,2.096h-0.044v-7.539h8.743v-4.148H14.952v17.042h4.639v-0.672
		c0-1.784,0.804-2.765,2.229-2.765c1.562,0,2.188,1.071,2.188,2.723v7.315c0,1.607-0.58,2.721-2.143,2.721
		c-1.74,0-2.362-1.16-2.362-2.942v-3.792h-4.644v3.434c0,4.593,1.831,7.539,7.006,7.539c5.129,0,7.226-2.721,7.226-6.915v-7.404
		C29.092,24.064,26.64,22.146,23.918,22.146"/>
	<path fill="#056CB4" d="M74.741,108.847c-9.91,0-17.971-8.063-17.971-17.971c0-9.911,8.062-17.974,17.971-17.974
		c9.911,0,17.973,8.062,17.973,17.974C92.714,100.784,84.651,108.847,74.741,108.847 M109.258,56.757H90.615
		c-0.127,0-0.237,0.106-0.237,0.237v6.194c0,0.134,0.11,0.24,0.237,0.24h7.423l-8.242,8.243c-4.153-3.261-9.377-5.214-15.056-5.214
		c-13.462,0-24.417,10.952-24.417,24.418c0,12.394,9.287,22.652,21.265,24.203v7.139h-7.354c-0.135,0-0.239,0.105-0.239,0.237v6.64
		c0,0.132,0.104,0.236,0.239,0.236h7.354v7.025c0,0.13,0.105,0.235,0.237,0.235h6.638c0.132,0,0.239-0.105,0.239-0.235v-7.025h7.353
		c0.132,0,0.237-0.104,0.237-0.236v-6.64c0-0.132-0.105-0.237-0.237-0.237h-7.353v-7.253c11.586-1.901,20.455-11.978,20.455-24.089
		c0-5.229-1.656-10.071-4.461-14.045l8.126-8.128v6.934c0,0.132,0.11,0.239,0.242,0.239h6.192c0.133,0,0.243-0.107,0.243-0.239
		V56.995C109.501,56.864,109.391,56.757,109.258,56.757"/>
	<path fill="#056CB4" d="M85.719,83.499h-21.8c-0.129,0-0.235,0.096-0.235,0.213v5.277c0,0.123,0.106,0.214,0.235,0.214h21.8
		c0.136,0,0.241-0.091,0.241-0.214v-5.277C85.96,83.594,85.855,83.499,85.719,83.499"/>
	<path fill="#056CB4" d="M85.719,92.921h-21.8c-0.129,0-0.235,0.099-0.235,0.221v5.274c0,0.12,0.106,0.214,0.235,0.214h21.8
		c0.136,0,0.241-0.094,0.241-0.214v-5.274C85.96,93.02,85.855,92.921,85.719,92.921"/>
	<polygon fill="#056CB4" points="42.835,30.539 47.752,30.539 47.752,32.219 44.895,32.219 44.895,35.727 46.939,35.727 
		46.939,37.389 44.895,37.389 44.895,41.114 47.752,41.114 47.752,42.794 42.835,42.794 	"/>
	<path fill="#056CB4" d="M53.194,40.064v-6.688c0-0.741-0.324-1.265-1.065-1.265c-0.723,0-1.049,0.524-1.049,1.265v6.688
		c0,0.723,0.326,1.265,1.049,1.265C52.871,41.329,53.194,40.787,53.194,40.064 M51.369,43.625v-0.832
		c-1.646-0.289-2.35-1.499-2.35-3.164v-5.929c0-1.917,0.94-3.308,3.11-3.308c2.186,0,3.126,1.392,3.126,3.308v5.929
		c0,1.338-0.469,2.387-1.519,2.893l1.519,0.289v1.536L51.369,43.625z"/>
	<path fill="#056CB4" d="M62.58,30.539v9.272c0,1.899-0.813,3.128-2.909,3.128c-2.171,0-3.075-1.229-3.075-3.128v-9.272h2.061v9.473
		c0,0.723,0.29,1.209,1.014,1.209c0.722,0,1.012-0.486,1.012-1.209v-9.473H62.58z"/>
	<path fill="#056CB4" d="M66.198,38.908h1.645L67.03,33.99h-0.018L66.198,38.908z M63.613,42.794l2.315-12.256h2.35l2.333,12.256
		h-2.117l-0.38-2.242h-2.186l-0.362,2.242H63.613z"/>
	<polygon fill="#056CB4" points="71.623,30.539 73.683,30.539 73.683,41.114 76.143,41.114 76.143,42.794 71.623,42.794 	"/>
	<rect x="77.246" y="30.538" fill="#056CB4" width="2.06" height="12.257"/>
	<polygon fill="#056CB4" points="80.412,30.539 85.89,30.539 85.89,32.219 84.19,32.219 84.19,42.794 82.111,42.794 82.111,32.219 
		80.412,32.219 	"/>
	<polygon fill="#056CB4" points="91.005,38.13 91.005,42.794 88.946,42.794 88.946,38.13 86.649,30.539 88.801,30.539 
		90.048,35.184 90.066,35.184 91.313,30.539 93.286,30.539 	"/>
	<path fill="#056CB4" d="M45.945,18.269h2.93v6.543h-1.482v-1.336c-0.272,0.921-0.851,1.48-1.972,1.48
		c-1.772,0-2.585-1.408-2.585-3.307v-5.93c0-1.917,0.922-3.308,3.091-3.308c2.279,0,2.948,1.266,2.948,3.075v1.084h-1.881v-1.247
		c0-0.76-0.289-1.193-1.03-1.193c-0.742,0-1.068,0.524-1.068,1.266v6.58c0,0.741,0.308,1.266,1.014,1.266
		c0.667,0,1.011-0.38,1.011-1.175v-2.17h-0.976V18.269z"/>
	<polygon fill="#056CB4" points="50.232,12.556 55.15,12.556 55.15,14.237 52.292,14.237 52.292,17.745 54.336,17.745 
		54.336,19.407 52.292,19.407 52.292,23.132 55.15,23.132 55.15,24.812 50.232,24.812 	"/>
	<polygon fill="#056CB4" points="58.174,17.111 58.174,24.813 56.438,24.813 56.438,12.556 58.462,12.556 60.687,19.587 
		60.687,12.556 62.404,12.556 62.404,24.813 60.596,24.813 	"/>
	<path fill="#056CB4" d="M66.691,23.131c0.849,0,1.174-0.506,1.174-1.248v-6.417c0-0.723-0.326-1.229-1.174-1.229h-0.87v8.894
		H66.691z M69.927,15.846v5.676c0,1.881-0.777,3.291-2.984,3.291h-3.182V12.556h3.182C69.15,12.556,69.927,13.949,69.927,15.846"/>
	<polygon fill="#056CB4" points="71.302,12.556 76.22,12.556 76.22,14.237 73.363,14.237 73.363,17.745 75.407,17.745 
		75.407,19.407 73.363,19.407 73.363,23.132 76.22,23.132 76.22,24.812 71.302,24.812 	"/>
	<path fill="#056CB4" d="M79.548,14.237v3.813h0.686c0.708,0,1.014-0.361,1.014-1.012v-1.807c0-0.669-0.306-0.995-1.014-0.995
		H79.548z M79.548,19.19v5.622h-2.062V12.556h3c2.08,0,2.838,1.03,2.838,2.748v1.572c0,1.321-0.469,2.097-1.645,2.368l1.973,5.568
		h-2.17L79.548,19.19z"/>
</g>
</svg>
