<?xml version="1.0" encoding="utf-8"?>
<!-- Generator: Adobe Illustrator 16.0.0, SVG Export Plug-In . SVG Version: 6.00 Build 0)  -->
<!DOCTYPE svg PUBLIC "-//W3C//DTD SVG 1.1//EN" "http://www.w3.org/Graphics/SVG/1.1/DTD/svg11.dtd">
<svg version="1.1" id="Layer_1" xmlns="http://www.w3.org/2000/svg" xmlns:xlink="http://www.w3.org/1999/xlink" x="0px" y="0px"
	 width="287px" height="114.523px" viewBox="0 0 287 114.523" enable-background="new 0 0 287 114.523" xml:space="preserve">
<rect y="-0.829" fill="#FFFFFF" width="287" height="115.352"/>
<g>
	<path fill="#24ABE2" d="M76.751,62.867v9.627h1.777c2.447,0,4.116-1.692,4.116-4.748v-0.11c0-3.054-1.669-4.769-4.116-4.769H76.751
		z M73.527,59.989h5.025c4.514,0,7.427,3.076,7.427,7.581v0.198c0,4.504-2.913,7.603-7.427,7.603h-5.025V59.989z"/>
	<polygon fill="#24ABE2" points="87.689,59.989 97.72,59.989 97.72,62.867 90.893,62.867 90.893,66.186 96.896,66.186 
		96.896,69.065 90.893,69.065 90.893,72.494 97.808,72.494 97.808,75.371 87.689,75.371 	"/>
	<polygon fill="#24ABE2" points="98.341,59.989 101.832,59.989 105.122,70.581 108.413,59.989 111.816,59.989 106.568,75.459 
		103.588,75.459 	"/>
	<polygon fill="#24ABE2" points="112.926,59.989 122.956,59.989 122.956,62.867 116.128,62.867 116.128,66.186 122.132,66.186 
		122.132,69.065 116.128,69.065 116.128,72.494 123.045,72.494 123.045,75.371 112.926,75.371 	"/>
	<polygon fill="#24ABE2" points="124.756,59.989 127.979,59.989 127.979,72.448 134.272,72.448 134.272,75.371 124.756,75.371 	"/>
	<path fill="#24ABE2" d="M144.991,67.768v-0.154c0-3.032-1.556-4.943-3.714-4.943c-2.18,0-3.713,1.889-3.713,4.922v0.153
		c0,3.033,1.579,4.943,3.735,4.943S144.991,70.799,144.991,67.768 M134.25,67.833v-0.263c0-4.616,2.934-7.846,7.049-7.846
		c4.137,0,7.028,3.209,7.028,7.801v0.264c0,4.593-2.936,7.845-7.05,7.845C137.14,75.634,134.25,72.426,134.25,67.833"/>
	<path fill="#24ABE2" d="M155.084,67.833c1.668,0,2.602-1.032,2.602-2.46v-0.022c0-1.604-0.934-2.484-2.646-2.484h-1.758v4.967
		H155.084z M150.059,59.989h5.18c3.492,0,5.695,2,5.695,5.272v0.046c0,3.537-2.559,5.317-5.828,5.384h-1.824v4.68h-3.223V59.989z"/>
	<polygon fill="#24ABE2" points="162.221,59.989 165.6,59.989 169.071,66.23 172.495,59.989 175.897,59.989 175.897,75.371 
		172.739,75.371 172.739,65.547 169.071,71.899 169.004,71.899 165.358,65.593 165.358,75.371 162.221,75.371 	"/>
	<polygon fill="#24ABE2" points="178.186,59.989 188.213,59.989 188.213,62.867 181.387,62.867 181.387,66.186 187.391,66.186 
		187.391,69.065 181.387,69.065 181.387,72.494 188.303,72.494 188.303,75.371 178.186,75.371 	"/>
	<polygon fill="#24ABE2" points="190.014,59.989 192.971,59.989 198.932,68.954 198.932,59.989 202.09,59.989 202.09,75.371 
		199.331,75.371 193.172,66.078 193.172,75.371 190.014,75.371 	"/>
	<polygon fill="#24ABE2" points="207.358,62.934 203.446,62.934 203.446,59.989 214.475,59.989 214.475,62.934 210.561,62.934 
		210.561,75.371 207.358,75.371 	"/>
	<path fill="#24ABE2" d="M72.393,52.736l2.098-2.579c1.146,0.987,2.537,1.903,4.243,1.903c1.364,0,2.195-0.674,2.195-1.662v-0.024
		c0-0.843-0.489-1.375-2.927-2.29c-3.023-1.158-4.901-2.288-4.901-5.181v-0.048c0-2.941,2.291-4.942,5.583-4.942
		c2,0,3.951,0.676,5.512,2.074l-1.976,2.651c-1.072-0.868-2.316-1.567-3.634-1.567c-1.219,0-1.974,0.603-1.974,1.47v0.025
		c0,0.963,0.584,1.422,3.241,2.505c2.977,1.158,4.585,2.41,4.585,5.038v0.048c0,3.134-2.413,5.06-5.73,5.06
		C76.539,55.216,74.271,54.47,72.393,52.736"/>
	<path fill="#24ABE2" d="M85.926,48.445V38.129h3.535v10.34c0,2.386,1.147,3.566,2.976,3.566c1.829,0,2.975-1.156,2.975-3.494
		V38.129h3.512v10.243c0,4.651-2.584,6.892-6.534,6.892C88.462,55.264,85.926,53,85.926,48.445"/>
	<path fill="#24ABE2" d="M99.973,52.736l2.097-2.579c1.147,0.987,2.538,1.903,4.244,1.903c1.363,0,2.194-0.674,2.194-1.662v-0.024
		c0-0.843-0.488-1.375-2.927-2.29c-3.023-1.158-4.902-2.288-4.902-5.181v-0.048c0-2.941,2.294-4.942,5.585-4.942
		c2,0,3.951,0.676,5.512,2.074l-1.975,2.651c-1.073-0.868-2.317-1.567-3.635-1.567c-1.219,0-1.974,0.603-1.974,1.47v0.025
		c0,0.963,0.583,1.422,3.241,2.505c2.977,1.158,4.585,2.41,4.585,5.038v0.048c0,3.134-2.414,5.06-5.73,5.06
		C104.118,55.216,101.85,54.47,99.973,52.736"/>
	<polygon fill="#24ABE2" points="116.628,41.359 112.336,41.359 112.336,38.13 124.432,38.13 124.432,41.359 120.14,41.359 
		120.14,55 116.628,55 	"/>
	<path fill="#24ABE2" d="M132.478,48.252l-1.854-5.496l-1.877,5.496H132.478z M128.989,38.035h3.366L138.477,55h-3.657l-1.269-3.664
		h-5.878L126.43,55h-3.561L128.989,38.035z"/>
	<rect x="139.816" y="38.129" fill="#24ABE2" width="3.536" height="16.87"/>
	<polygon fill="#24ABE2" points="145.985,38.13 149.229,38.13 155.764,47.962 155.764,38.13 159.229,38.13 159.229,55 156.204,55 
		149.45,44.806 149.45,55 145.985,55 	"/>
	<path fill="#24ABE2" d="M170.055,48.252l-1.854-5.496l-1.877,5.496H170.055z M166.567,38.035h3.367L176.055,55h-3.658l-1.27-3.664
		h-5.879L164.008,55h-3.561L166.567,38.035z"/>
	<path fill="#24ABE2" d="M183.807,47.962h-3.098v3.953h3.17c1.588,0,2.586-0.674,2.586-1.977v-0.024
		C186.465,48.709,185.563,47.962,183.807,47.962 M185.735,43.095c0-1.229-0.877-1.881-2.391-1.881h-2.635v3.81h2.465
		c1.561,0,2.561-0.629,2.561-1.906V43.095z M177.272,38.13h6.34c1.902,0,3.488,0.507,4.463,1.47
		c0.758,0.772,1.148,1.687,1.148,2.869v0.071c0,1.975-1.098,3.037-2.32,3.688c1.832,0.696,3.051,1.807,3.051,4.022v0.122
		c0,3.036-2.465,4.626-6.17,4.626h-6.512V38.13z"/>
	<polygon fill="#24ABE2" points="191.61,38.13 195.145,38.13 195.145,51.795 202.049,51.795 202.049,55 191.61,55 	"/>
	<polygon fill="#24ABE2" points="203.51,38.13 214.51,38.13 214.51,41.287 207.022,41.287 207.022,44.926 213.608,44.926 
		213.608,48.083 207.022,48.083 207.022,51.843 214.608,51.843 214.608,55 203.51,55 	"/>
	<path fill="#498BC9" d="M143.344,22.458l0.099,0.143c0,0.538,0.068,1.088,0,1.619c0.491-0.163,1.063-0.137,1.593-0.222
		c-0.107-0.039-0.213-0.064-0.293-0.171c-0.31-0.02-0.456-0.34-0.556-0.584c-0.047-0.177,0.072-0.319,0.146-0.473
		c-0.134-0.266-0.543-0.07-0.782-0.17C143.483,22.55,143.438,22.471,143.344,22.458 M135.77,21.998l-0.021,0.081l-1.366,1.355
		c2.069,1.77,4.404,2.91,7.07,3.271c0.425,0.072,0.909,0.034,1.321,0.157l-0.101-0.157v-1.775l0.066-0.1l-0.205,0.053
		C139.946,24.706,137.658,23.8,135.77,21.998 M150.495,22.019l-0.033-0.157c-0.186,0.36-0.596,0.589-0.908,0.865
		c-0.432,0.427-1.135,0.517-1.354,1.133c-0.23,0.21-0.312,0.538-0.637,0.656c-0.119,0.313-0.457,0.296-0.65,0.523
		c-0.557,0.493-0.916-0.312-1.42-0.412l-1.015,0.177c-0.351,0-0.703,0.125-1.035,0.013c0.049,0.669,0.049,1.39,0,2.06l0.128-0.078
		c3.198-0.139,5.958-1.338,8.325-3.462L150.495,22.019z M138.237,20.794c0.038,0.155,0.252,0.255,0.191,0.45
		c-0.113,0.177-0.346,0.183-0.529,0.177c-0.379-0.06-0.659,0.224-1.016,0.263c-0.326,0.101-0.438-0.295-0.736-0.263
		c1.844,1.594,3.953,2.589,6.42,2.721l0.186,0.124l-0.079-0.224v-1.729l-0.158,0.065C140.903,22.299,139.49,21.716,138.237,20.794
		 M138.19,20.741c-0.086-0.053-0.14-0.104-0.161-0.204L138.19,20.741z M137.977,20.458l-0.026-0.047l0.026,0.08V20.458z
		 M148.643,20.209l-0.047-0.124c-0.057,0.156-0.178,0.255-0.299,0.373c0.008,0.105-0.029,0.263,0.094,0.336
		c0.268,0.084,0.613,0.255,0.672,0.562c-0.107,0.288-0.664,0.551-0.318,0.865c0.113,0.157-0.16,0.216-0.111,0.347l0.09-0.125
		c0.398-0.307,0.83-0.595,1.182-0.976h0.047c-0.082-0.026-0.18,0.053-0.273,0.013c-0.186-0.085-0.219-0.249-0.219-0.438
		L148.643,20.209z M139.431,18.38c-0.392,0.472-0.857,0.963-1.319,1.337c0.204,0.014,0.317,0.237,0.49,0.334
		c0.994,0.819,2.235,1.213,3.39,1.495l-0.318-0.144c-0.239-0.27-0.578-0.584-0.591-0.958c0.239-0.079,0.211-0.34,0.293-0.517
		c0.197-0.211,0.437-0.322,0.695-0.38c-0.67,0.273-1.254-0.218-1.811-0.473C139.975,18.868,139.603,18.695,139.431,18.38
		 M145.833,18.198c-0.207,0-0.312,0.157-0.465,0.28c-0.186,0.106-0.279-0.195-0.432-0.123l0.066,0.058
		c0.039,0.047,0.055,0.146,0,0.189c-0.227,0.206-0.332-0.096-0.544-0.077v0.077c0.007,0.047-0.012,0.118-0.079,0.093
		c-0.134-0.217-0.403-0.137-0.538-0.329c-0.085-0.044-0.164,0.015-0.224,0.065c-0.047,0.101-0.258-0.012-0.207,0.158
		c-0.164,0.06-0.187,0.236-0.306,0.343c-0.205-0.034-0.299,0.195-0.49,0.188c0.02,0.041,0,0.106,0.06,0.112
		c0.119,0.052,0.239,0.066,0.387,0.045c0.198-0.314,0.529-0.051,0.809-0.17c0.171,0.032,0.052,0.217,0.178,0.282
		c0.272-0.084,0.479,0.229,0.696,0.032c-0.012-0.308,0.34-0.282,0.531-0.361c0.299-0.176,0.639-0.412,0.604-0.806L145.833,18.198z
		 M145.083,17.705c-0.02,0.053-0.092,0.146,0,0.177c0.16-0.162,0.496-0.157,0.512-0.392C145.36,17.456,145.243,17.58,145.083,17.705
		 M141.229,16.558c-0.285,0.458-0.829,0.879-1.227,1.305c0.709,0.577,1.505,0.938,2.386,1.087c0.047-0.176-0.025-0.399,0.068-0.55
		c0.064-0.145,0.245-0.138,0.378-0.112c0.079-0.005,0.126-0.104,0.079-0.17c-0.192-0.038-0.107-0.249-0.173-0.366
		c0.006-0.065,0.119-0.053,0.094-0.138c-0.133-0.104,0.065-0.224-0.048-0.335c0.048-0.033,0.079-0.104,0.148-0.104
		c-0.419,0.215-0.871-0.047-1.242-0.211C141.52,16.867,141.268,16.769,141.229,16.558 M149.586,16.558
		c-0.193-0.013-0.424,0.099-0.59-0.033c-0.061-0.052-0.102,0.025-0.096,0.078c-0.064,0.101-0.131,0.226-0.283,0.179
		c-0.119-0.054-0.119-0.179-0.158-0.27c0.004,0.072-0.02,0.138-0.035,0.204c-0.139,0.143-0.186,0.282-0.283,0.438
		c-0.141,0.15-0.365,0.099-0.512,0.223c-0.027,0.314-0.377,0.249-0.578,0.347l0.055,0.08c0.092,0.025,0.219,0.025,0.283-0.065
		c0.281,0.072,0.221-0.276,0.379-0.396c0.141-0.019,0.273-0.137,0.418-0.044c0.146,0.178,0.18,0.433,0.158,0.662
		c-0.158,0.156-0.076,0.411-0.189,0.597c0.025,0.216-0.24,0.313-0.207,0.53c-0.088,0.099-0.232,0.111-0.365,0.111
		c-0.523-0.195-1.074-0.321-1.658-0.374c-0.053,0.021-0.086,0.067-0.078,0.124c0.238,0.126,0.529,0.133,0.783,0.237
		c0.223,0.059,0.377,0.333,0.662,0.248c0.24-0.129,0.637,0.079,0.795-0.17c-0.025-0.243,0.188-0.419,0.293-0.629l0.08-0.02
		c0.133,0.138,0.125,0.34,0.184,0.491c0.188-0.197,0.332-0.413,0.498-0.617c0.438-0.628,0.811-1.303,0.969-2.025
		C149.93,16.473,149.752,16.505,149.586,16.558 M145.833,16.545c0.006,0.099,0.02,0.229,0.105,0.313
		c0.26-0.038,0.146,0.316,0.385,0.283c0.133-0.041,0.008-0.151,0.045-0.237c-0.037-0.195-0.23-0.216-0.365-0.333l0.035-0.106
		C145.938,16.415,145.891,16.473,145.833,16.545 M140.592,16.007c-0.041,0.164-0.154,0.309-0.272,0.425l0.021,0.015
		c0.157-0.111,0.271-0.315,0.477-0.328L140.592,16.007z M138.508,15.49c0.186,0.34,0.286,0.727,0.478,1.068
		c0.12,0.301,0.387,0.538,0.505,0.832c0.126-0.235,0.379-0.426,0.557-0.64c0.013-0.101-0.007-0.186-0.06-0.258
		c-0.06-0.138-0.005-0.334-0.113-0.452c-0.171,0.059,0.062,0.229-0.013,0.327c-0.073,0.047-0.152-0.013-0.158-0.077
		c-0.154-0.027-0.272-0.159-0.318-0.295c0.126-0.079-0.034-0.113-0.067-0.179c-0.066-0.032-0.073-0.025-0.124,0.033l-0.101-0.012
		C139.093,15.463,138.668,15.687,138.508,15.49 M135.1,14.683l-0.147,0.067c-0.616-0.016-1.259,0.039-1.844-0.046l0.079,0.11
		l0.147,1.207c0.06,0.464,0.265,0.911,0.252,1.368c0.072-0.098,0.025-0.294,0.206-0.314c-0.074-0.143,0.137-0.268,0.02-0.392
		c0.06-0.316,0.099-0.638,0.378-0.867c0.337-0.013,0.364-0.451,0.702-0.472c0.173-0.007,0.28,0.223,0.352,0.302
		C135.033,15.391,135.046,14.972,135.1,14.683 M132.506,14.683l-0.179,0.067l-1.846-0.016c0.106,2.099,0.669,4.006,1.626,5.757
		c0.472,0.865,1.161,1.646,1.765,2.451l1.319-1.35l0.159-0.065c-0.226-0.158-0.424-0.413-0.616-0.632
		c-0.22-0.058-0.446-0.208-0.557-0.419c-0.068-0.072-0.009-0.202-0.081-0.255l-0.079,0.1c-0.233,0.111-0.318-0.125-0.478-0.224
		c-0.205-0.111-0.107-0.499-0.385-0.427c-0.106-0.006-0.14-0.123-0.205-0.189c-0.258,0.025-0.326-0.255-0.463-0.394
		c-0.028,0.06,0,0.139-0.081,0.177c-0.267,0.06-0.358-0.261-0.538-0.394c-0.045,0.021-0.079,0.072-0.146,0.061
		c-0.16-0.139-0.265-0.335-0.273-0.552c-0.217-0.241-0.119-0.629-0.078-0.925c0.04-0.078,0.153-0.125,0.132-0.223
		c0.06-0.137,0.207-0.151,0.346-0.157c0.054,0.025,0.105,0.079,0.132,0.123c0.087-0.051,0.28,0.008,0.206-0.183
		c0.112-0.098,0.277-0.13,0.431-0.157c0.107,0.132,0.158,0.283,0.299,0.407l-0.092-0.145c-0.159-0.644-0.286-1.299-0.318-1.992
		c0.007-0.04-0.088-0.059-0.034-0.1l0.016,0.02C132.492,14.907,132.479,14.782,132.506,14.683 M135.703,14.658l0.099,0.157
		c0.015,0.433,0.188,0.847,0.094,1.284c0.072-0.123,0.094-0.295,0.252-0.373c0.019-0.118-0.158-0.151-0.141-0.271
		c0.126-0.241,0.008-0.634,0.333-0.738C136.106,14.756,135.901,14.8,135.703,14.658 M151.178,14.639
		c0.041,0.397-0.064,0.786-0.094,1.178l0.221,0.236c0.059,0.093,0.039,0.229-0.047,0.302c-0.092,0.06-0.211,0.053-0.307-0.02
		c-0.275,0.878-0.604,1.737-1.16,2.504c-0.219,0.275-0.43,0.655-0.717,0.798l0.604,0.525l0.02-0.13c0-0.078,0.043-0.17,0.141-0.159
		c0.293-0.005,0.299,0.302,0.465,0.461c-0.033,0.247,0.186,0.444,0.111,0.675c1.674-1.744,2.508-3.881,2.66-6.247l0.094-0.104
		c-0.596,0.06-1.227,0.019-1.844,0.025L151.178,14.639z M153.838,14.683l-0.113-0.077l0.066,0.176
		c-0.107,2.183-0.842,4.111-2.104,5.82c-0.244,0.289-0.475,0.643-0.783,0.847c0.508,0.393,1.062,0.984,1.482,1.435l0.051-0.097
		c2.029-2.288,3.184-4.937,3.311-8.005l0.08-0.157l-0.1,0.046L153.838,14.683z M149.301,14.592l0.205,0.201
		c0.207,0.14,0.066,0.434,0.285,0.552c0.258,0.132,0.352,0.427,0.465,0.65c0.039-0.06,0.039-0.132,0.061-0.191
		c0.092-0.359,0.078-0.768,0.191-1.121C150.11,14.705,149.653,14.743,149.301,14.592 M149.713,13.95
		c-0.055,0.026-0.127,0.005-0.195,0.011C149.579,13.937,149.653,13.95,149.713,13.95 M137.294,13.727
		c-0.538,0.17,0.087,0.569-0.046,0.897c-0.072,0.19-0.271,0.015-0.411,0.093l-0.053,0.347c-0.082,0.202-0.338,0.052-0.458,0.191
		c-0.085,0.13,0.007,0.268,0.079,0.372c-0.186,0.419,0.416,0.551,0.412,0.931c0.184,0.234-0.027,0.577,0.237,0.785
		c0.06,0.428-0.06,1.004,0.319,1.339l0.066,0.406c0.08,0.281-0.339,0.211-0.285,0.46c0.08-0.041,0.101,0.065,0.106,0.089v-0.011
		c0.51-0.584,1.102-1.201,1.705-1.718l-0.252-0.249c-0.472-0.695-0.843-1.435-1.022-2.25l-0.191-0.097
		c-0.009,0.21-0.106,0.374-0.094,0.582l-0.066,0.081c-0.14-0.008-0.227-0.119-0.346-0.191c-0.025-0.074-0.098-0.191,0.014-0.249
		c0.067-0.008,0.113,0.014,0.159,0.045c0.06-0.07,0.033-0.177,0.067-0.268c0.021-0.158-0.121-0.302-0.021-0.438
		c0.126-0.015,0.219,0.137,0.271,0.222c0.128,0.04,0.227-0.066,0.333-0.111c0-0.11,0.158-0.263-0.013-0.327
		c0.094-0.257,0.025-0.525-0.015-0.774C137.719,13.667,137.473,13.706,137.294,13.727 M143.061,12.109
		c-0.107-0.119-0.34-0.047-0.479,0c0.132,0.13,0.079,0.365,0.158,0.529c-0.198,0.327-0.531,0.4-0.843,0.493
		c-0.086,0.103-0.066,0.332-0.271,0.313c-0.065,0.144-0.292,0.229-0.207,0.438c-0.104,0.224-0.051,0.512-0.111,0.756
		c-0.391,0.242-0.277-0.321-0.476-0.44l-0.068,0.111c-0.081,0.021-0.133-0.026-0.186-0.077c-0.06-0.021-0.16-0.041-0.213,0.011
		c-0.086,0.146-0.219,0.263-0.185,0.461c-0.042,0.117-0.24,0.077-0.213,0.202c0.22-0.007,0.457-0.047,0.67-0.092
		c0.151,0.038,0.279-0.072,0.432-0.08c0.053,0.027,0.112,0.08,0.092,0.159h0.054c0.106-0.079,0.153-0.197,0.106-0.314
		c0.013-0.139,0.166-0.139,0.258-0.179c0.087,0.04,0.034,0.126,0.047,0.191c0.299,0.112-0.072,0.327-0.112,0.485
		c-0.08,0.123,0,0.406-0.253,0.367c-0.046-0.013-0.079-0.06-0.065-0.113h-0.034c-0.007,0.106,0.072,0.249,0.179,0.296
		c0.187-0.15,0.192-0.406,0.459-0.439c0.139-0.146-0.06-0.366,0.146-0.483c0.346-0.008,0.717-0.152,0.99,0.123
		c-0.021,0.117-0.069,0.173,0.031,0.269c-0.066,0.151-0.112,0.313-0.238,0.439c0.034,0.086,0.006,0.19-0.066,0.249
		c-0.094,0.399-0.557,0.211-0.83,0.347c0.418,0.315,0.922,0.434,1.466,0.394c0.286-0.013,0.16-0.359,0.306-0.518
		c0.094-0.458,0.517-0.144,0.776-0.27c0.099-0.195,0.199-0.387,0.227-0.608c-0.167-0.105-0.233-0.302-0.18-0.49
		c-0.113-0.151-0.1-0.428-0.348-0.453c-0.038-0.054-0.004-0.119,0.028-0.157c-0.005-0.146,0.139-0.191,0.181-0.302
		c-0.153-0.099-0.113-0.315-0.101-0.44c-0.258,0.073-0.286-0.262-0.478-0.334c-0.045-0.15-0.211-0.176-0.344-0.202
		c-0.32,0.149-0.374-0.235-0.612-0.329c-0.025-0.07-0.079-0.177,0-0.235c0.119-0.099,0.279-0.014,0.418-0.02L143.061,12.109z
		 M139.842,11.02h0.146c0.159,0.157,0.418,0.124,0.538,0.334c0.06,0.117-0.113,0.104-0.107,0.204l0.107,0.077
		c0.126,0.047,0.098-0.072,0.146-0.124c0.165-0.164,0.19,0.158,0.351,0.158c0.113-0.073,0.271-0.08,0.353,0.044
		c0.105-0.091,0.33-0.006,0.364-0.177c0.205-0.216,0.092-0.55,0.396-0.687c0.107,0.058-0.006,0.157,0.034,0.247
		c0.205,0.084,0.438-0.17,0.604,0.034c-0.153-0.425-0.113-0.957-0.101-1.43C141.606,9.838,140.623,10.2,139.842,11.02 M143.41,9.649
		c0.126,0.374,0.014,0.925,0.094,1.358l0.477,0.155c0.139-0.229,0.445-0.273,0.576-0.49c0.088-0.072,0.186,0,0.254,0.077
		c0.02,0.178-0.027,0.354-0.08,0.525c-0.179,0.354-0.604,0.401-0.843,0.655c0.152,0.085,0.239-0.071,0.365-0.104
		c0.186,0.019,0.331,0.177,0.445,0.296c0.119,0.051,0.23-0.021,0.338-0.06c0.074-0.545,0.764-0.466,0.967-0.978l-0.125,0.047
		c-0.053-0.073-0.186-0.039-0.18-0.158c0.113-0.105,0.262-0.267,0.4-0.313c-0.598-0.368-1.215-0.681-1.891-0.853
		C143.941,9.749,143.664,9.741,143.41,9.649 M137.678,9.434c-0.914,1.08-1.537,2.273-1.782,3.632
		c-0.074,0.312-0.034,0.681-0.161,0.976c0.233-0.104,0.571-0.065,0.831-0.034c-0.151-0.078-0.027-0.268-0.113-0.374
		c-0.021-0.162-0.047-0.366,0.113-0.472c-0.021-0.269,0.271-0.404,0.297-0.646c0.074-0.276,0.394-0.094,0.545-0.236
		c0.1-0.053,0.013-0.146,0.013-0.217c0.132-0.179,0.34-0.172,0.496-0.27c0.113-0.17,0.261-0.354,0.447-0.458
		c0.396,0.013,0.402-0.538,0.782-0.552C138.628,10.395,138.137,9.878,137.678,9.434 M148.471,9.367l-0.031,0.08
		c-0.611,0.628-1.281,1.277-1.865,1.92c0.039,0.078,0.107,0.15,0.18,0.191c0.025-0.157,0.111-0.296,0.125-0.461
		c0.158-0.215,0.398-0.077,0.604-0.031c0.32-0.071,0.617,0.072,0.941,0.065c0.24,0.118,0.26,0.419,0.477,0.538
		c0.061,0.085,0.016,0.183-0.064,0.248c0.064,0.493,0.305-0.132,0.557-0.015c0.105,0.04,0.238,0.027,0.32,0.14
		c0.039,0.202,0.293,0.162,0.305,0.36c-0.021,0.098-0.127,0.125-0.191,0.178c0.059,0.196-0.207,0.319-0.113,0.53
		c0.383,0.072,0.396-0.368,0.576-0.564c-0.1-0.342-0.172-0.688-0.371-0.988c-0.221-0.047-0.352-0.302-0.57-0.349
		c-0.424-0.164,0.066-0.427,0.014-0.676C149.135,10.115,148.778,9.741,148.471,9.367 M135.782,7.543l-0.013,0.126l-0.717,0.897
		c-1.174,1.595-1.731,3.436-1.897,5.44l1.818-0.031l0.173,0.065c-0.074-0.047-0.054-0.125-0.081-0.189
		c0.146-1.868,0.811-3.535,2.117-4.924C136.677,8.497,136.205,8.036,135.782,7.543 M143.391,7.053l0.066,0.146l-0.015,1.773
		l0.175-0.033c1.1,0.152,2.11,0.501,2.977,1.2l0.047,0.139c0.299-0.412,0.748-0.766,1.102-1.161l0.332-0.189l-0.16-0.066
		c-0.729-0.602-1.525-1.061-2.389-1.361C144.856,7.263,144.119,7.166,143.391,7.053 M142.695,7.041l-0.113,0.065
		c-1.686,0.119-3.144,0.812-4.426,1.856c0.505,0.346,0.955,0.904,1.414,1.303c0.032-0.044,0.066-0.091,0.099-0.144
		c0.632-0.444,1.281-0.853,2.023-1.036c0.331-0.032,0.657-0.189,1.003-0.112C142.621,8.359,142.621,7.676,142.695,7.041
		 M133.971,5.671c-1.89,2.079-3.057,4.45-3.396,7.158c-0.072,0.394-0.028,0.799-0.107,1.199c0.664-0.053,1.387-0.053,2.051,0
		l-0.047-0.257c0.126-2.09,0.803-3.952,1.989-5.617c0.299-0.334,0.519-0.755,0.89-1.004c-0.431-0.399-0.883-0.865-1.333-1.304
		L133.971,5.671z M152.213,5.624c-0.363,0.486-0.861,0.938-1.32,1.403l-0.225,0.045c0.139,0.034,0.178,0.198,0.271,0.296
		c0.484,0.257,0.609,0.768,1.035,1.057c0.238,0.491,0.789,0.871,0.807,1.436c0.578,1.256,0.971,2.589,1.01,4.069l-0.053,0.078
		c0.059,0,0.111-0.024,0.158-0.058l1.912-0.033c-0.125-0.183-0.076-0.453-0.107-0.675C155.45,10.325,154.19,7.827,152.213,5.624
		 M137.473,6.221c-0.41,0.281-0.789,0.649-1.212,0.897c0.488,0.309,0.895,0.819,1.338,1.227l0.048,0.124
		c1.128-1.069,2.5-1.692,3.979-1.992c0.352-0.032,0.702-0.15,1.048-0.079c-0.025-0.623-0.079-1.271-0.013-1.888
		C140.736,4.623,139.014,5.199,137.473,6.221 M149.381,4.458c-0.141,0.131-0.26-0.118-0.385,0.034
		c-0.008,0.071,0.008,0.136,0.047,0.188c0.277,0.098,0.311,0.498,0.67,0.408c0.104-0.119-0.066-0.244-0.035-0.395
		C149.631,4.555,149.512,4.498,149.381,4.458 M143.378,4.445l0.064,0.125c-0.011,0.608,0.027,1.259-0.032,1.828
		c0.254-0.085,0.511,0.02,0.764,0.026c1.297,0.21,2.528,0.623,3.569,1.415c-0.125-0.13-0.279-0.282-0.305-0.472l0.078-0.025
		c0.016-0.204-0.205-0.309-0.238-0.493c0.033-0.039,0.078-0.077,0.146-0.058c0.223,0.21,0.42,0.438,0.586,0.676
		c0.145-0.06,0.264,0.033,0.369,0.11c0.193,0.113,0.072,0.355,0.217,0.486c0.029,0.386,0.506,0.603,0.479,0.989
		c0.008,0.092,0.119,0.021,0.16,0.064l0.396,0.486c-0.072,0.09-0.012,0.203,0.066,0.269c0.18,0.078,0.279-0.146,0.459-0.111
		c0.258,0.144-0.039,0.313-0.014,0.473c0.1,0.006,0.227-0.081,0.307,0.019c0.031,0.143-0.121,0.236-0.18,0.327
		c0,0.145,0.119,0.111,0.225,0.145c0.121-0.006,0.193,0.137,0.16,0.236c0.332,0.341-0.102,0.709,0.059,1.067
		c0.107,0.236-0.025,0.466-0.172,0.643c0.008,0.289-0.26,0.466-0.365,0.708l-0.338,0.066c-0.18,0.178,0.152,0.393-0.027,0.505
		l0.742,0.011l-0.078-0.077c-0.105-0.288-0.08-0.675,0.1-0.931c0.113-0.235,0.139-0.519,0.352-0.72c0.047-0.014,0.131-0.101,0.174,0
		c0.014,0.224-0.01,0.478-0.113,0.674c0.211,0.302,0.184,0.695,0.205,1.069c0.658-0.039,1.301-0.054,1.943-0.047l-0.061-0.123
		c-0.098-1.213-0.35-2.361-0.861-3.396c-0.139,0.006-0.238,0.117-0.398,0.078c-0.051-0.02-0.086-0.072-0.08-0.131
		c-0.266-0.249-0.43-0.579-0.729-0.8c-0.338,0.033-0.49-0.354-0.797-0.394c-0.273-0.111-0.088-0.544-0.477-0.426
		c-0.193-0.078-0.379-0.223-0.42-0.439c0-0.341-0.064-0.708-0.377-0.932c-0.238-0.085-0.34,0.229-0.576,0.176
		c-0.135-0.063-0.074-0.235-0.113-0.344c-0.047-0.1-0.16-0.173-0.139-0.304c0.311-0.406-0.379-0.399-0.227-0.8
		c-0.037-0.287-0.338-0.399-0.492-0.629c-1.027-0.459-2.057-0.773-3.215-0.912C143.888,4.517,143.622,4.577,143.378,4.445
		 M144.922,2.827l-0.955,0.405c-0.08-0.034-0.232-0.072-0.286,0.032l0.015,0.112c0.351,0.445,0.96,0.196,1.398,0.111
		c0.32,0.13,0.625-0.026,0.865-0.224V3.219C145.733,2.905,145.307,2.859,144.922,2.827 M142.648,1.835
		c-2.666,0.106-5.035,1.003-7.137,2.498c-0.406,0.275-0.765,0.695-1.176,0.932h0.06c0.524,0.379,1.021,0.923,1.466,1.396
		l0.034-0.094c1.936-1.743,4.191-2.7,6.778-2.818l-0.06-0.157l-0.02-1.571L142.648,1.835z M143.391,1.77
		c0.079,0.517,0.06,1.225,0.02,1.81c0-0.058,0.027-0.111,0.06-0.157c0.094-0.052,0.173,0.025,0.212,0.093
		c0.008,0.09,0.047,0.249-0.033,0.301c0.08,0.012,0.12-0.046,0.192-0.046c1.519,0.113,2.927,0.551,4.187,1.259V4.995
		c0.258-0.123,0.59-0.289,0.855-0.065c0.316-0.117,0.377,0.27,0.635,0.314c0.314,0.183,0.666,0.525,0.705,0.885
		c0.059,0.119,0.246,0.204,0.271,0.327c0.213-0.444,0.637-0.759,1.002-1.146l0.227-0.092c-2.004-1.889-4.387-2.932-7.039-3.291
		C144.259,1.855,143.795,1.895,143.391,1.77 M155.079,8.614c1.381,2.627,1.771,6.246,0.877,9.216
		c-0.91,3.509-3.893,7.053-7.371,8.496c-3.914,1.893-9.473,1.423-12.962-1.05c-4.849-3.285-6.832-8.94-5.365-14.526
		c0.888-3.316,3.562-6.665,6.832-8.205c1.838-0.898,3.846-1.376,6.037-1.417C148.125,1.134,152.903,4.039,155.079,8.614"/>
	<path fill="#498BC9" d="M155.543,3.613c0.975,0.857,1.412,1.973,1.697,3.126l0.16,0.368c-1.414-1.004-2.693-2.354-3.596-3.776
		l-1.1-1.102C153.672,2.635,154.713,2.879,155.543,3.613"/>
	<path fill="#498BC9" d="M130.881,5.323c-0.651,0.795-1.48,1.318-2.217,2c0.399-0.813,0.412-1.784,0.976-2.53
		c0.804-1.384,2.289-1.868,3.615-2.379C132.28,3.258,131.604,4.326,130.881,5.323"/>
	<path fill="#498BC9" d="M158.993,6.772c0.311,1.376-0.139,2.72,0.146,4.11l-0.016,0.013c-0.754-1.476-2.365-2.169-3.475-3.352
		c-0.643-0.699-0.922-1.551-1.08-2.455c0.635,1.514,2.348,1.848,3.328,3.117c0.332,0.297,0.439,0.704,0.65,1.037l0.033-0.031
		c-0.564-1.193-0.756-2.537-1.148-3.811c-0.197-0.55-0.59-1.093-1.113-1.44C157.606,4.223,158.727,5.552,158.993,6.772"/>
	<path fill="#498BC9" d="M129.674,4.196c-1.314,0.891-1.229,2.491-1.646,3.822c-0.134,0.491-0.367,0.944-0.479,1.448l0.033,0.025
		c0.22-0.569,0.604-1.107,1.081-1.573c0.936-0.853,2.314-1.384,2.773-2.64c-0.02,1.748-1.499,3.125-2.911,4.109
		c-0.585,0.504-1.148,1.081-1.466,1.728c-0.034-0.438,0.065-0.882,0.031-1.354c-0.151-1.528-0.265-3.271,0.83-4.405
		C128.394,4.772,128.998,4.368,129.674,4.196"/>
	<path fill="#498BC9" d="M159.823,7.073c1.174,1.573,1.43,4.077,0.576,5.88c-0.32,0.768-0.545,1.58-0.67,2.426
		c-0.061-0.145-0.072-0.34-0.127-0.506c-0.465-1.762-2.154-3.021-2.852-4.686c-0.219-0.544-0.404-1.108-0.512-1.698
		c0.746,1.357,2.574,2.058,3.072,3.554c0.207,0.379,0.191,0.851,0.318,1.259l0.053-0.046c-0.219-1.54-0.152-3.153,0.059-4.673
		c-0.012-0.828-0.092-1.628-0.557-2.264C159.483,6.49,159.616,6.818,159.823,7.073"/>
	<path fill="#498BC9" d="M126.867,6.582c-1.009,1.514-0.173,3.422-0.22,5.145l-0.132,1.763l0.066,0.047
		c0.059-0.195,0.072-0.406,0.112-0.608c0.239-1.422,1.486-2.432,2.581-3.414c0.232-0.258,0.437-0.519,0.557-0.82
		c-0.087,0.708-0.312,1.424-0.61,2.077c-0.85,1.639-2.422,2.984-2.706,4.858c-0.141-1.797-1.381-3.141-1.255-5.048
		c-0.039-1.548,0.61-2.812,1.528-3.965L126.867,6.582z"/>
	<path fill="#498BC9" d="M160.924,17.28c-0.699,0.976-1.541,1.888-2.184,2.885c0.072-0.786,0.164-1.759-0.148-2.505
		c-0.537-1.604-1.006-3.238-1.16-5.002l0.021-0.674c0.404,1.801,2.195,3.04,2.082,5.06c0.039,0.491-0.111,0.904-0.205,1.337
		l0.033,0.034l0.08-0.093c0.266-0.989,0.398-2.033,0.811-2.956c0.588-1.331,1.318-2.675,1.02-4.281
		C162.17,12.979,161.897,15.511,160.924,17.28"/>
	<path fill="#498BC9" d="M126.355,16.65c0.192,0.662,0.239,1.378,0.512,1.999l0.066-0.034c-0.685-1.887,0.299-3.638,1.287-5.11
		c0.239-0.4,0.377-0.845,0.497-1.306c0.106,0.853-0.113,1.836-0.239,2.721c-0.239,1.127-0.598,2.194-0.909,3.292
		c-0.204,0.682-0.151,1.454-0.047,2.17l-0.098-0.081c-0.724-1.317-2.156-2.347-2.581-3.786c-0.352-1.148-0.585-2.479-0.346-3.73
		c0.113-0.485,0.201-0.985,0.412-1.43C124.505,13.4,125.899,14.873,126.355,16.65"/>
	<path fill="#498BC9" d="M158.184,20.379c-0.047,0.887-0.34,1.673-0.811,2.379h0.08c0.635-0.822,1.133-1.703,1.877-2.49
		c1.156-1.101,2.326-2.229,2.48-3.756c0.393,2.549-1.055,4.785-3.197,6.227c-0.883,0.572-1.775,1.102-2.627,1.75v-0.076
		c1.301-2.14,0.664-5.069,1.467-7.414l0.299-0.788C157.586,17.672,158.231,18.913,158.184,20.379"/>
	<path fill="#498BC9" d="M129.7,23.277c0.139,0.484,0.425,0.917,0.609,1.383c-1.978-1.331-4.671-2.595-5.546-5.033
		c-0.371-0.839-0.41-1.882-0.332-2.845c0.159,2.168,2.521,3.316,3.614,5.113c0.26,0.366,0.486,0.771,0.83,1.08
		c-0.052-0.228-0.271-0.426-0.351-0.661c-0.386-0.755-0.524-1.652-0.431-2.563c0.106-1.108,0.577-2.137,0.397-3.305
		C129.454,18.5,129.162,21.056,129.7,23.277"/>
	<path fill="#498BC9" d="M155.239,24.897c-0.34,0.583-0.824,1.146-1.355,1.605c0.174-0.007,0.328-0.157,0.479-0.257
		c1.428-1.402,3.283-1.797,4.822-2.935c0.617-0.486,1.184-1.123,1.453-1.81c-0.291,2.326-2.633,4.51-4.842,5.203
		c-1.143,0.302-2.361,0.399-3.469,0.774c1.877-1.594,1.77-4.06,3.025-5.933c0.396-0.529,0.729-1.088,1.191-1.593
		C155.782,21.468,156.114,23.427,155.239,24.897"/>
	<path fill="#498BC9" d="M131.55,22.93c0.662,1.612,0.916,3.435,2.448,4.654c-1.658-0.538-3.603-0.387-5.062-1.396
		c-1.598-0.972-3.024-2.615-3.323-4.425c1.102,2.464,3.861,2.668,5.712,4.169c0.337,0.296,0.697,0.549,1.082,0.728l0.02-0.021
		c-0.425-0.379-0.914-0.812-1.215-1.303c-1.08-1.488-0.703-3.572-1.511-5.173C130.436,21.035,131.104,21.94,131.55,22.93"/>
	<path fill="#498BC9" d="M151.225,27.727c-0.404,0.262-0.916,0.309-1.332,0.504c0.596,0.016,1.141-0.195,1.729-0.255
		c2.191-0.34,4.697,0.008,6.229-1.835c-0.568,1.286-1.996,2.36-3.295,2.812c-2.236,0.832-4.484-0.189-6.627-0.529l-0.412-0.055
		v-0.013c1.023-0.229,2.018-0.529,2.832-1.257c1.201-1.142,2.27-2.315,3.604-3.215C152.961,25.139,152.856,26.921,151.225,27.727"/>
	<path fill="#498BC9" d="M135.881,27.131c0.849,0.734,1.871,1.074,2.945,1.293c-0.258,0.09-0.596,0.063-0.875,0.136
		c-1.93,0.473-4.081,1.239-6.13,0.551c-1.334-0.414-2.707-1.454-3.377-2.754c1.765,1.986,4.651,1.325,7.007,1.845
		c0.331,0.045,0.637,0.176,0.988,0.123c-0.279-0.177-0.67-0.158-0.976-0.314c-1.844-0.643-2.117-2.615-3.117-3.945
		C133.627,24.902,134.701,26.037,135.881,27.131"/>
	<path fill="#498BC9" d="M150.29,29.819c1.434,0.523,3.291,0.382,4.518-0.486c-0.631,0.782-1.492,1.339-2.391,1.653
		c-1.988,0.734-4.062-0.033-5.617-1.198c-0.629-0.394-1.186-0.966-2.002-0.912c-0.292-0.007-0.578,0.007-0.83,0.078
		c1.513,0.695,2.912,1.651,4.199,2.879c-0.219,0.242-0.496,0.472-0.764,0.681c-1.232-1.318-2.605-2.584-4.138-3.323
		c-0.299,0.038-0.584,0.215-0.855,0.361c-1.248,0.78-2.481,1.781-3.41,3.009l-0.796-0.65c1.273-1.271,2.68-2.261,4.219-2.969
		c-1.513-0.473-2.499,0.78-3.647,1.414c-1.34,0.925-3.263,1.358-4.883,0.723c-0.869-0.329-1.712-0.806-2.341-1.586
		c1.273,0.863,3.169,0.957,4.615,0.393c1.945-0.832,3.96-1.888,6.304-1.384c0.364,0.009,0.723,0.368,1.066,0.06
		c1.738-0.445,3.708-0.138,5.208,0.648L150.29,29.819z"/>
	<path fill="#498BC9" d="M90.498,93.839h15.07c-0.261,11.973-6.948,17.98-15.938,17.98c-9.685,0-15.894-8.068-15.894-16.737
		c0-8.667,6.209-16.735,15.894-16.735c10.728,0,13.68,6.608,14.896,10.042l-6.818,0.43c-1.174-2.832-3.519-4.722-8.078-4.722
		c-5.123,0-9.119,4.119-9.119,10.985c0,5.795,3.69,10.988,9.554,10.988c5.254,0,7.687-3.691,8.251-6.738h-7.817V93.839z"/>
	<polygon fill="#498BC9" points="169.956,79.037 176.454,79.037 176.454,105.229 188.971,105.229 188.971,111.221 169.956,111.221 	
		"/>
	<path fill="#498BC9" d="M207.202,87.51c0-2.225-2.164-3.594-4.764-3.594c-3.248,0-5.197,1.411-5.197,3.551
		c0,2.227,2.166,3.297,3.77,3.81l5.977,1.885c4.33,1.369,7.406,3.85,7.406,8.814c0,3.938-2.859,9.844-11.869,9.844
		c-11.303,0-12.342-7.231-12.342-10.102l6.494-0.126c0,3.423,2.73,4.751,5.893,4.751c2.209,0,5.326-1.07,5.326-3.553
		c0-1.712-0.734-2.61-3.939-3.767l-7.105-2.526c-3.592-1.281-6.107-4.408-6.107-8.045c0-4.108,2.859-10.015,11.307-10.015
		c10.047,0,11.65,6.591,11.65,8.944L207.202,87.51z"/>
	<path fill="#5FBB48" d="M115.953,91.128c0.401-0.673,0.886-1.288,1.44-1.831l-4.724-5.121c-1.188,1.123-2.202,2.425-2.999,3.857
		L115.953,91.128z"/>
	<path fill="#E5B733" d="M127.534,87.511c0.715,0.324,1.38,0.736,1.98,1.228l4.738-5.111c-1.248-1.063-2.662-1.941-4.2-2.59
		L127.534,87.511z"/>
	<path fill="#C4202E" d="M138.382,89.05l-6.277,3.093c0.299,0.691,0.513,1.426,0.629,2.193l6.983-0.652
		C139.512,92.049,139.053,90.494,138.382,89.05"/>
	<path fill="#4B9F45" d="M131.654,91.247l6.275-3.092c-0.775-1.43-1.767-2.727-2.932-3.85l-4.737,5.11
		C130.801,89.962,131.27,90.577,131.654,91.247"/>
	<path fill="#418045" d="M114.705,95.655c0-0.137,0.005-0.278,0.013-0.418l-6.987-0.617c-0.022,0.342-0.035,0.687-0.035,1.035
		c0,1.325,0.166,2.61,0.476,3.842l6.748-1.914C114.779,96.962,114.705,96.318,114.705,95.655"/>
	<path fill="#F9C21A" d="M130.775,101.329c-0.497,0.598-1.071,1.13-1.704,1.585l3.689,5.901c1.367-0.917,2.587-2.036,3.61-3.315
		L130.775,101.329z"/>
	<path fill="#EF442A" d="M132.831,95.655c0,0.654-0.072,1.29-0.208,1.906l6.746,1.914c0.309-1.224,0.473-2.503,0.473-3.82
		c0-0.325-0.012-0.651-0.032-0.974l-6.984,0.652C132.828,95.44,132.831,95.547,132.831,95.655"/>
	<path fill="#F99D28" d="M116.875,101.462l-5.584,4.192c1.037,1.265,2.269,2.365,3.647,3.266l3.688-5.896
		C117.976,102.581,117.387,102.054,116.875,101.462"/>
	<path fill="#1E95D3" d="M114.818,94.242c0.126-0.78,0.355-1.525,0.669-2.225l-6.276-3.09c-0.692,1.459-1.169,3.039-1.386,4.694
		L114.818,94.242z"/>
	<path fill="#A11D44" d="M131.9,109.349l-3.683-5.895c-0.668,0.375-1.39,0.665-2.149,0.865l1.3,6.816
		C128.985,110.768,130.51,110.16,131.9,109.349"/>
	<path fill="#2CBCE0" d="M132.355,98.525c-0.245,0.71-0.576,1.378-0.982,1.995l5.602,4.176c0.91-1.291,1.63-2.726,2.121-4.256
		L132.355,98.525z"/>
	<path fill="#F36C2C" d="M125.075,104.516c-0.426,0.062-0.863,0.095-1.307,0.095c-0.358,0-0.709-0.022-1.055-0.061l-1.3,6.818
		c0.769,0.11,1.555,0.168,2.354,0.168c0.887,0,1.757-0.07,2.604-0.206L125.075,104.516z"/>
	<path fill="#E7253D" d="M124.347,86.718c0.778,0.05,1.532,0.195,2.244,0.428l2.518-6.47c-1.498-0.525-3.097-0.834-4.762-0.892
		V86.718z"/>
	<path fill="#DB1869" d="M121.714,104.38c-0.786-0.182-1.532-0.463-2.225-0.833l-3.69,5.898c1.422,0.804,2.973,1.398,4.618,1.744
		L121.714,104.38z"/>
	<path fill="#15496B" d="M121.044,87.114c0.729-0.227,1.495-0.365,2.29-0.402v-6.933c-1.687,0.045-3.308,0.348-4.826,0.869
		L121.044,87.114z"/>
	<path fill="#C5972E" d="M116.261,100.665c-0.446-0.649-0.809-1.362-1.069-2.116l-6.743,1.91c0.512,1.591,1.267,3.069,2.228,4.4
		L116.261,100.665z"/>
	<path fill="#0F6A9C" d="M118.154,88.631c0.592-0.463,1.243-0.854,1.942-1.161l-2.536-6.464c-1.509,0.626-2.899,1.473-4.135,2.504
		L118.154,88.631z"/>
	<path fill="#498BC9" d="M153.333,86.442h-0.086l-4.172,12.667h8.473L153.333,86.442z M159.305,104.402h-12.076l-2.148,6.812h-7.114
		l12.03-32.625h6.938l11.852,32.625h-7.244L159.305,104.402z"/>
</g>
</svg>
