<?xml version="1.0" encoding="utf-8"?>
<!-- Generator: Adobe Illustrator 16.0.0, SVG Export Plug-In . SVG Version: 6.00 Build 0)  -->
<!DOCTYPE svg PUBLIC "-//W3C//DTD SVG 1.1//EN" "http://www.w3.org/Graphics/SVG/1.1/DTD/svg11.dtd">
<svg version="1.1" id="Layer_1" xmlns="http://www.w3.org/2000/svg" xmlns:xlink="http://www.w3.org/1999/xlink" x="0px" y="0px"
	 width="184px" height="122.531px" viewBox="0 0 184 122.531" enable-background="new 0 0 184 122.531" xml:space="preserve">
<rect x="0" fill="#FFFFFF" width="184" height="122.531"/>
<g>
	<path fill="#006AB3" d="M130.797,79.733c-15.168,0-27.507-12.343-27.507-27.509c0-15.172,12.339-27.511,27.507-27.511
		c15.17,0,27.51,12.339,27.51,27.511C158.307,67.39,145.967,79.733,130.797,79.733 M183.629,0h-28.535
		c-0.194,0-0.363,0.162-0.363,0.363v9.481c0,0.205,0.169,0.367,0.363,0.367h11.361L153.842,22.83
		c-6.357-4.991-14.354-7.981-23.045-7.981c-20.605,0-37.372,16.767-37.372,37.376c0,18.972,14.214,34.674,32.548,37.048V100.2
		h-11.256c-0.205,0-0.365,0.16-0.365,0.363v10.162c0,0.202,0.16,0.363,0.365,0.363h11.256v10.753c0,0.199,0.161,0.36,0.363,0.36
		h10.16c0.202,0,0.365-0.161,0.365-0.36v-10.753h11.254c0.203,0,0.363-0.161,0.363-0.363v-10.162c0-0.203-0.16-0.363-0.363-0.363
		h-11.254V89.098c17.733-2.911,31.309-18.335,31.309-36.874c0-8.002-2.534-15.413-6.828-21.498l12.438-12.441V28.9
		c0,0.201,0.169,0.363,0.371,0.363h9.479c0.203,0,0.371-0.162,0.371-0.363V0.363C184,0.162,183.832,0,183.629,0"/>
	<path fill="#006AB3" d="M147.601,40.929h-33.368c-0.197,0-0.359,0.148-0.359,0.328v8.078c0,0.188,0.162,0.328,0.359,0.328h33.368
		c0.208,0,0.368-0.141,0.368-0.328v-8.078C147.969,41.078,147.809,40.929,147.601,40.929"/>
	<path fill="#006AB3" d="M147.601,55.355h-33.368c-0.197,0-0.359,0.152-0.359,0.338v8.074c0,0.183,0.162,0.326,0.359,0.326h33.368
		c0.208,0,0.368-0.144,0.368-0.326v-8.074C147.969,55.507,147.809,55.355,147.601,55.355"/>
</g>
</svg>
