<?xml version="1.0" encoding="utf-8"?>
<!-- Generator: Adobe Illustrator 16.0.0, SVG Export Plug-In . SVG Version: 6.00 Build 0)  -->
<!DOCTYPE svg PUBLIC "-//W3C//DTD SVG 1.1//EN" "http://www.w3.org/Graphics/SVG/1.1/DTD/svg11.dtd">
<svg version="1.1" id="Layer_1" xmlns="http://www.w3.org/2000/svg" xmlns:xlink="http://www.w3.org/1999/xlink" x="0px" y="0px"
	 width="81.998px" height="70px" viewBox="0 0 81.998 70" enable-background="new 0 0 81.998 70" xml:space="preserve">
<g>
	<g>
		<path fill="#078691" d="M40.998,59.669c-17.24,0-32.936-8.419-39.987-21.45L0,36.35l1.011-1.869
			C8.061,21.45,23.756,13.03,40.998,13.03c17.24,0,32.937,8.42,39.988,21.451l1.012,1.869l-1.012,1.87
			C73.933,51.25,58.237,59.669,40.998,59.669z M9.034,36.35c6.161,9.458,18.438,15.462,31.964,15.462
			c13.524,0,25.803-6.005,31.965-15.462c-6.161-9.458-18.439-15.463-31.965-15.463C27.471,20.887,15.193,26.892,9.034,36.35z"/>
	</g>
	<path fill="#078691" d="M27.483,39.463c1.245,5.367,5.181,9.012,10.264,10.355c-0.079-0.536-0.418-0.667-0.596-1.101
		c-0.297-0.72-0.058-1.682-0.412-2.474c-0.277-0.62-1.044-0.904-1.374-1.512c-0.18-0.33-0.218-0.744-0.459-1.146
		c-0.244-0.406-0.692-0.667-0.687-0.962c0.002-0.184,0.249-0.405,0.321-0.595c0.096-0.259,0.069-0.552,0.137-0.733
		c0.26-0.689,1.283-1.138,0.733-2.016c-0.421-0.155-0.589,0.256-0.916,0.229c-0.348-0.029-0.732-0.642-1.008-0.917
		c-0.387-0.386-0.736-0.669-0.962-0.962c-0.612-0.053-0.917-0.665-1.465-0.917c-0.55-0.25-1.259-0.245-1.788-0.549
		c-0.451-0.262-1.004-0.711-1.099-1.239c-0.038-0.207,0.083-0.399,0.045-0.594c-0.083-0.448-0.443-0.706-0.733-1.146
		C26.979,35.476,27.041,37.56,27.483,39.463 M51.08,29.566c-0.21-0.071-0.466,0.028-0.687-0.045
		c-0.335-0.111-0.573-0.68-0.779-0.733c-0.659-0.167-1.357,0.786-1.467,1.329c0.548,0.074,1.303-0.091,1.696,0.229
		c0.241,0.633,0.934,1.046,1.695,1.008c0.308-1.057,1.563,0.125,2.337-0.137c-0.078-0.29-0.226-0.507-0.321-0.78
		c-0.62,0.024-0.848-0.343-1.328-0.459c-0.164,0.051-0.152,0.277-0.367,0.276C51.534,30.28,51.464,29.696,51.08,29.566
		 M42.97,22.555c-0.054,0.023-0.104,0.049-0.137,0.092c-0.719,0.441-1.319,0.488-2.246,1.055c-0.446,0.272-1.118,1.027-1.604,0.961
		c-0.61-0.082-0.603-1.181-0.504-2.017c-0.467,0.098-0.921,0.209-1.374,0.321c0.5,1.742-1.41,1.332-2.2,0.871
		c-0.662,0.392-1.415,0.691-1.924,1.237c0.345,0.43,0.923,0.419,1.283,0.78c0.291,0.289,0.332,0.871,0.871,0.87
		c0.065-0.393,0.348-0.743,0.321-1.1c-0.026-0.344-0.462-0.556-0.413-0.963c0.629-0.772,1.203,0.488,1.787,0.504
		c0.234,0.006,0.244-0.217,0.55-0.183c0.306,0.237,0.265,0.637,0.733,0.871c0.303,0.15,0.677,0.078,0.871,0.273
		c0.348,0.35,0.005,1.009-0.413,1.101c-0.331,0.072-0.708-0.225-0.962,0.045c-0.032,0.556,1.075,0.461,0.962,1.146
		c-0.066,0.405-0.642,0.297-1.007,0.504c-0.426,0.241-0.45,0.573-0.596,1.008c-0.185,0.194-0.685,0.181-0.824,0.458
		c-0.138,0.273,0.059,0.688-0.046,0.963c-0.112,0.294-0.584,0.386-0.824,0.687c-0.167,0.208-0.245,0.516-0.276,0.78
		c-0.047,0.422,0.211,1.009-0.229,1.42c-0.53-0.448-0.548-1.407-1.513-1.42c-0.372,0.176-0.243,0.39-0.595,0.458
		c-0.36,0.069-1.19-0.375-1.695,0c-0.636,0.471-0.898,2.632,0.183,2.704c0.809,0.053,1.209-1.372,2.153-0.688
		c-0.133,0.569-0.667,0.738-0.641,1.466c0.676,0.216,1.808,0.115,1.787,0.871c-0.01,0.383-0.383,0.375-0.549,0.687
		c0.128,0.314,0.47,0.416,0.687,0.642c0.286-0.425,0.786,0.107,1.237,0c0.286-0.067,0.36-0.478,0.596-0.688
		c0.252-0.224,0.713-0.355,1.146-0.273c0.923,0.173,2.215,0.326,2.887,0.732c0.241,0.146,0.464,0.555,0.779,0.642
		c0.271,0.075,0.645-0.091,0.962,0c0.428,0.122,0.5,0.672,0.549,1.146c1.152,0.216,2.593,0.069,2.796,1.146
		c0.138,0.733-0.426,1.238-0.734,1.65c-0.296,0.396-0.47,0.804-0.687,1.236c-0.469,0.937-1.425,1.107-2.062,1.833
		c-0.322,0.366-0.44,0.871-0.688,1.283c-0.152,0.253-0.4,0.461-0.55,0.688c-0.364,0.55-0.621,1.204-0.778,1.833
		c6.163,0.218,9.817-2.461,12.371-6.003c-1.067-0.429-1.008-1.765-1.42-2.979c-0.124-0.366-0.322-0.732-0.412-1.101
		c-0.113-0.461-0.082-0.927-0.229-1.328c-0.235-0.635-0.815-1.383-1.238-1.512c-0.617-0.189-1.343,0.202-1.924-0.046
		c-0.407-0.174-0.817-0.784-1.1-1.191c-0.728-1.052-1.196-2.741-0.183-3.895c0.521-0.593,1.199-0.738,1.42-1.604
		c-0.144-0.243-0.475-0.204-0.595-0.55c-0.3-0.857,0.412-1.271,1.19-1.098c0.177-0.388-0.169-0.576-0.229-0.871
		c0.905-0.588,1.889-1.3,3.345-1.191c0.001-0.141-0.308-0.364-0.458-0.505c-0.169,0.539-0.568,0.216-0.917,0.091
		c-0.438-0.154-0.764-0.125-0.824-0.457c-0.066-0.354,0.184-0.525,0.367-0.826C47.502,23.889,45.497,22.961,42.97,22.555
		 M39.992,20.311c5.134-0.304,9.22,1.699,11.868,4.168c2.69,2.512,4.801,6.062,5.131,10.906c0.355,5.203-1.68,9.097-4.169,11.776
		c-2.568,2.763-5.973,4.912-10.814,5.224c-5.021,0.323-9.135-1.719-11.821-4.215c-2.828-2.628-4.809-5.859-5.178-10.86
		c-0.366-4.955,1.687-9.164,4.078-11.774c1.856-2.028,4.276-3.703,7.423-4.63C37.605,20.584,38.843,20.378,39.992,20.311"/>
</g>
<rect y="15.7" fill="none" width="72.611" height="41.3"/>
</svg>
