<?xml version="1.0" encoding="utf-8"?>
<!-- Generator: Adobe Illustrator 15.0.0, SVG Export Plug-In . SVG Version: 6.00 Build 0)  -->
<!DOCTYPE svg PUBLIC "-//W3C//DTD SVG 1.1//EN" "http://www.w3.org/Graphics/SVG/1.1/DTD/svg11.dtd">
<svg version="1.1" id="Layer_1" xmlns="http://www.w3.org/2000/svg" xmlns:xlink="http://www.w3.org/1999/xlink" x="0px" y="0px"
	 width="623px" height="450px" viewBox="0 0 623 450" enable-background="new 0 0 623 450" xml:space="preserve">
<rect x="84.936" y="1.111" fill="#E1E1E1" width="538.064" height="339.281"/>
<line fill="none" stroke="#FFFFFF" stroke-miterlimit="10" x1="79.734" y1="50.766" x2="623" y2="50.766"/>
<line fill="none" stroke="#FFFFFF" stroke-miterlimit="10" x1="79.734" y1="99.439" x2="623" y2="99.439"/>
<line fill="none" stroke="#FFFFFF" stroke-miterlimit="10" x1="79.734" y1="147.634" x2="623" y2="147.634"/>
<line fill="none" stroke="#FFFFFF" stroke-miterlimit="10" x1="79.734" y1="195.83" x2="623" y2="195.83"/>
<line fill="none" stroke="#FFFFFF" stroke-miterlimit="10" x1="79.734" y1="244.023" x2="623" y2="244.023"/>
<line fill="none" stroke="#FFFFFF" stroke-miterlimit="10" x1="79.734" y1="292.697" x2="623" y2="292.697"/>
<rect x="271.085" y="301.286" fill="#00848F" width="46.763" height="39.105"/>
<rect x="331.35" y="268.36" fill="#00848F" width="46.762" height="72.031"/>
<rect x="391.953" y="222.55" fill="#00848F" width="46.758" height="117.841"/>
<rect x="572.33" y="84.645" fill="#00848F" width="46.758" height="255.747"/>
<rect x="452.557" y="173.615" fill="#00848F" width="46.758" height="166.777"/>
<rect x="512.204" y="127.114" fill="#00848F" width="46.758" height="213.278"/>
<rect x="211.435" y="323.238" fill="#00848F" width="46.758" height="17.153"/>
<rect x="152.279" y="334.664" fill="#00848F" width="46.758" height="5.728"/>
<g>
	<path fill="#363636" d="M50.776,13.335l4.033-9.028h-5.538V2.659h7.699v1.296l-4.13,9.38H50.776z"/>
</g>
<g>
	<path fill="#363636" d="M57.672,8.005c0-2.689,1.265-5.506,4.273-5.506c2.993,0,4.258,2.817,4.258,5.506
		c0,2.673-1.265,5.522-4.258,5.522C58.937,13.527,57.672,10.678,57.672,8.005z M64.298,8.005c0-2.049-0.608-3.842-2.353-3.842
		c-1.745,0-2.369,1.793-2.369,3.842c0,2.033,0.624,3.857,2.369,3.857C63.674,11.863,64.298,10.038,64.298,8.005z"/>
	<path fill="#363636" d="M67.543,8.005c0-2.689,1.265-5.506,4.273-5.506c2.994,0,4.258,2.817,4.258,5.506
		c0,2.673-1.264,5.522-4.258,5.522C68.808,13.527,67.543,10.678,67.543,8.005z M74.17,8.005c0-2.049-0.608-3.842-2.353-3.842
		c-1.745,0-2.369,1.793-2.369,3.842c0,2.033,0.624,3.857,2.369,3.857C73.546,11.863,74.17,10.038,74.17,8.005z"/>
</g>
<g>
	<path fill="#363636" d="M48.056,52.87c0-3.073,1.617-5.506,4.706-5.506c1.312,0,2.337,0.464,3.057,1.185l-0.864,1.409
		c-0.561-0.576-1.185-0.929-2.193-0.929c-1.793,0-2.817,1.649-2.817,3.521c0,0.096,0,0.192,0,0.304
		c0.496-0.72,1.617-1.504,2.865-1.504c1.921,0,3.585,1.184,3.585,3.457c0,1.969-1.553,3.585-3.938,3.585
		C49.32,58.392,48.056,55.847,48.056,52.87z M54.49,54.871c0-1.313-1.024-1.905-2.177-1.905c-0.913,0-1.809,0.48-2.337,1.248
		c0.096,1.153,0.736,2.513,2.369,2.513C53.754,56.727,54.49,55.719,54.49,54.871z"/>
	<path fill="#363636" d="M57.671,52.87c0-2.689,1.265-5.506,4.273-5.506c2.994,0,4.258,2.817,4.258,5.506
		c0,2.673-1.264,5.522-4.258,5.522C58.936,58.392,57.671,55.542,57.671,52.87z M64.298,52.87c0-2.049-0.608-3.842-2.353-3.842
		c-1.745,0-2.369,1.793-2.369,3.842c0,2.033,0.624,3.857,2.369,3.857C63.674,56.727,64.298,54.902,64.298,52.87z"/>
	<path fill="#363636" d="M67.543,52.87c0-2.689,1.265-5.506,4.273-5.506c2.994,0,4.258,2.817,4.258,5.506
		c0,2.673-1.264,5.522-4.258,5.522C68.808,58.392,67.543,55.542,67.543,52.87z M74.17,52.87c0-2.049-0.608-3.842-2.353-3.842
		c-1.745,0-2.369,1.793-2.369,3.842c0,2.033,0.624,3.857,2.369,3.857C73.546,56.727,74.17,54.902,74.17,52.87z"/>
</g>
<g>
	<path fill="#363636" d="M48.312,103.991l1.072-1.296c0.704,0.832,1.681,1.28,2.865,1.28c1.36,0,2.193-0.833,2.193-1.889
		c0-1.137-0.833-1.889-2.145-1.889c-0.896,0-1.648,0.272-2.337,0.912l-1.329-0.384v-5.955h6.995v1.648h-5.122v3.073
		c0.528-0.496,1.393-0.912,2.417-0.912c1.809,0,3.425,1.249,3.425,3.441c0,2.209-1.697,3.617-4.082,3.617
		C50.44,105.639,49.176,104.999,48.312,103.991z"/>
	<path fill="#363636" d="M57.671,100.117c0-2.689,1.265-5.506,4.273-5.506c2.994,0,4.258,2.817,4.258,5.506
		c0,2.673-1.264,5.522-4.258,5.522C58.936,105.639,57.671,102.79,57.671,100.117z M64.298,100.117c0-2.049-0.608-3.842-2.353-3.842
		c-1.745,0-2.369,1.793-2.369,3.842c0,2.033,0.624,3.857,2.369,3.857C63.674,103.975,64.298,102.15,64.298,100.117z"/>
	<path fill="#363636" d="M67.543,100.117c0-2.689,1.265-5.506,4.273-5.506c2.994,0,4.258,2.817,4.258,5.506
		c0,2.673-1.264,5.522-4.258,5.522C68.808,105.639,67.543,102.79,67.543,100.117z M74.17,100.117c0-2.049-0.608-3.842-2.353-3.842
		c-1.745,0-2.369,1.793-2.369,3.842c0,2.033,0.624,3.857,2.369,3.857C73.546,103.975,74.17,102.15,74.17,100.117z"/>
</g>
<g>
	<path fill="#363636" d="M53.257,155.08v-2.417h-5.09v-1.504l4.386-6.755h2.577v6.611h1.424v1.648H55.13v2.417H53.257z
		 M53.257,146.084l-3.249,4.93h3.249V146.084z"/>
	<path fill="#363636" d="M57.671,149.75c0-2.689,1.265-5.506,4.273-5.506c2.994,0,4.258,2.817,4.258,5.506
		c0,2.673-1.264,5.522-4.258,5.522C58.936,155.271,57.671,152.422,57.671,149.75z M64.298,149.75c0-2.049-0.608-3.842-2.353-3.842
		c-1.745,0-2.369,1.793-2.369,3.842c0,2.033,0.624,3.857,2.369,3.857C63.674,153.607,64.298,151.782,64.298,149.75z"/>
	<path fill="#363636" d="M67.543,149.75c0-2.689,1.265-5.506,4.273-5.506c2.994,0,4.258,2.817,4.258,5.506
		c0,2.673-1.264,5.522-4.258,5.522C68.808,155.271,67.543,152.422,67.543,149.75z M74.17,149.75c0-2.049-0.608-3.842-2.353-3.842
		c-1.745,0-2.369,1.793-2.369,3.842c0,2.033,0.624,3.857,2.369,3.857C73.546,153.607,74.17,151.782,74.17,149.75z"/>
</g>
<g>
	<path fill="#363636" d="M48.312,202.695l1.024-1.232c0.688,0.8,1.809,1.296,2.945,1.296c1.408,0,2.225-0.656,2.225-1.633
		c0-1.056-0.833-1.521-2.369-1.521c-0.448,0-1.056,0.016-1.216,0.032v-1.697c0.176,0.016,0.8,0.016,1.216,0.016
		c1.265,0,2.209-0.432,2.209-1.409s-0.976-1.489-2.161-1.489c-1.104,0-2.001,0.4-2.769,1.185l-0.96-1.168
		c0.832-0.977,2.129-1.681,3.905-1.681c2.305,0,3.842,1.088,3.842,2.865c0,1.44-1.216,2.273-2.305,2.449
		c1.024,0.112,2.481,0.945,2.481,2.593c0,1.825-1.553,3.121-4.034,3.121C50.456,204.423,49.048,203.655,48.312,202.695z"/>
</g>
<g>
	<path fill="#363636" d="M57.672,198.901c0-2.689,1.265-5.506,4.273-5.506c2.993,0,4.258,2.817,4.258,5.506
		c0,2.673-1.265,5.522-4.258,5.522C58.937,204.423,57.672,201.574,57.672,198.901z M64.298,198.901c0-2.049-0.608-3.842-2.353-3.842
		c-1.745,0-2.369,1.793-2.369,3.842c0,2.033,0.624,3.857,2.369,3.857C63.674,202.759,64.298,200.934,64.298,198.901z"/>
	<path fill="#363636" d="M67.543,198.901c0-2.689,1.265-5.506,4.273-5.506c2.994,0,4.258,2.817,4.258,5.506
		c0,2.673-1.264,5.522-4.258,5.522C68.808,204.423,67.543,201.574,67.543,198.901z M74.17,198.901c0-2.049-0.608-3.842-2.353-3.842
		c-1.745,0-2.369,1.793-2.369,3.842c0,2.033,0.624,3.857,2.369,3.857C73.546,202.759,74.17,200.934,74.17,198.901z"/>
</g>
<g>
	<path fill="#363636" d="M48.456,251.943v-1.488c4.146-3.137,5.778-4.514,5.778-6.066c0-1.121-0.977-1.617-1.953-1.617
		c-1.249,0-2.193,0.496-2.881,1.266l-1.088-1.217c0.944-1.152,2.449-1.713,3.954-1.713c2.065,0,3.857,1.152,3.857,3.281
		c0,1.984-1.809,3.746-4.658,5.906h4.722v1.648H48.456z"/>
</g>
<g>
	<path fill="#363636" d="M57.672,246.613c0-2.689,1.265-5.506,4.273-5.506c2.993,0,4.258,2.816,4.258,5.506
		c0,2.674-1.265,5.523-4.258,5.523C58.937,252.137,57.672,249.287,57.672,246.613z M64.298,246.613c0-2.049-0.608-3.842-2.353-3.842
		c-1.745,0-2.369,1.793-2.369,3.842c0,2.033,0.624,3.857,2.369,3.857C63.674,250.471,64.298,248.646,64.298,246.613z"/>
	<path fill="#363636" d="M67.543,246.613c0-2.689,1.265-5.506,4.273-5.506c2.994,0,4.258,2.816,4.258,5.506
		c0,2.674-1.264,5.523-4.258,5.523C68.808,252.137,67.543,249.287,67.543,246.613z M74.17,246.613c0-2.049-0.608-3.842-2.353-3.842
		c-1.745,0-2.369,1.793-2.369,3.842c0,2.033,0.624,3.857,2.369,3.857C73.546,250.471,74.17,248.646,74.17,246.613z"/>
</g>
<g>
	<path fill="#363636" d="M53.993,299.656v-8.26l-1.745,1.824l-1.088-1.137l3.073-3.105h1.632v10.678H53.993z"/>
	<path fill="#363636" d="M57.671,294.326c0-2.689,1.265-5.506,4.273-5.506c2.994,0,4.258,2.816,4.258,5.506
		c0,2.672-1.264,5.521-4.258,5.521C58.936,299.848,57.671,296.998,57.671,294.326z M64.298,294.326c0-2.049-0.608-3.842-2.353-3.842
		c-1.745,0-2.369,1.793-2.369,3.842c0,2.033,0.624,3.857,2.369,3.857C63.674,298.184,64.298,296.359,64.298,294.326z"/>
	<path fill="#363636" d="M67.543,294.326c0-2.689,1.265-5.506,4.273-5.506c2.994,0,4.258,2.816,4.258,5.506
		c0,2.672-1.264,5.521-4.258,5.521C68.808,299.848,67.543,296.998,67.543,294.326z M74.17,294.326c0-2.049-0.608-3.842-2.353-3.842
		c-1.745,0-2.369,1.793-2.369,3.842c0,2.033,0.624,3.857,2.369,3.857C73.546,298.184,74.17,296.359,74.17,294.326z"/>
</g>
<g>
	<path fill="#363636" d="M67.735,343.078v-1.057h8.532v1.057H67.735z"/>
</g>
<g>
	<path fill="#FFFFFF" d="M287.403,319.914c0-1.869,1.596-3.148,3.338-3.674c-1.617-0.463-3.107-1.533-3.107-3.359
		c0-2.52,2.457-3.633,4.787-3.633c2.31,0,4.808,1.113,4.808,3.633c0,1.826-1.512,2.896-3.128,3.359
		c1.743,0.525,3.338,1.805,3.338,3.674c0,2.373-2.268,3.801-5.018,3.801C289.649,323.715,287.403,322.309,287.403,319.914z
		 M295.675,319.725c0-1.826-2.394-2.604-3.254-2.707c-0.861,0.104-3.254,0.881-3.254,2.707c0,1.512,1.512,2.436,3.254,2.436
		C294.143,322.16,295.675,321.236,295.675,319.725z M295.465,313.111c0-1.449-1.365-2.309-3.044-2.309
		c-1.701,0-3.023,0.859-3.023,2.309c0,1.701,2.184,2.268,3.023,2.414C293.282,315.379,295.465,314.812,295.465,313.111z"/>
</g>
<g>
	<path fill="#FFFFFF" d="M302.229,323.463v-11.717l-2.247,2.395l-1.05-1.07l3.506-3.611h1.533v14.004H302.229z"/>
</g>
<g>
	<path fill="#FFFFFF" d="M343.011,289.842v-11.717l-2.246,2.395l-1.051-1.07l3.507-3.611h1.532v14.004H343.011z"/>
	<path fill="#FFFFFF" d="M347.778,287.848l1.07-1.176c0.924,1.195,2.163,1.867,3.863,1.867c1.911,0,3.234-1.301,3.234-3.002
		c0-1.848-1.323-3.023-3.213-3.023c-1.218,0-2.289,0.398-3.233,1.303l-1.28-0.441v-7.537h8.566v1.553h-6.824v4.871
		c0.693-0.672,1.869-1.26,3.275-1.26c2.352,0,4.473,1.574,4.473,4.473c0,2.834-2.184,4.619-4.998,4.619
		C350.36,290.094,348.828,289.232,347.778,287.848z"/>
	<path fill="#FFFFFF" d="M359.853,282.85c0-3.422,1.512-7.223,5.354-7.223c3.821,0,5.354,3.801,5.354,7.223
		c0,3.402-1.533,7.244-5.354,7.244C361.364,290.094,359.853,286.252,359.853,282.85z M368.776,282.85
		c0-2.793-0.902-5.668-3.569-5.668s-3.569,2.875-3.569,5.668s0.902,5.689,3.569,5.689S368.776,285.643,368.776,282.85z"/>
</g>
<g>
	<path fill="#FFFFFF" d="M398.388,243.557v-1.406c5.039-3.947,7.789-6.277,7.789-8.691c0-1.807-1.49-2.562-2.939-2.562
		c-1.68,0-2.98,0.715-3.8,1.764l-1.071-1.113c1.071-1.428,2.898-2.203,4.871-2.203c2.331,0,4.703,1.322,4.703,4.115
		c0,2.855-2.896,5.459-6.803,8.545h6.866v1.553H398.388z"/>
</g>
<g>
	<path fill="#FFFFFF" d="M415.69,243.557v-3.547h-6.655v-1.449l6.005-9.008h2.394v8.924h1.974v1.533h-1.974v3.547H415.69z
		 M415.69,231.17l-4.912,7.307h4.912V231.17z"/>
	<path fill="#FFFFFF" d="M427.409,243.557v-3.547h-6.656v-1.449l6.005-9.008h2.394v8.924h1.974v1.533h-1.974v3.547H427.409z
		 M427.409,231.17l-4.914,7.307h4.914V231.17z"/>
</g>
<g>
	<path fill="#FFFFFF" d="M459.036,194.46l1.028-1.092c0.819,1.092,2.247,1.848,3.905,1.848c2.037,0,3.275-1.029,3.275-2.625
		c0-1.743-1.428-2.478-3.485-2.478c-0.588,0-1.239,0-1.448,0.021v-1.596c0.23,0.021,0.881,0.021,1.448,0.021
		c1.764,0,3.255-0.693,3.255-2.31c0-1.554-1.428-2.394-3.129-2.394c-1.533,0-2.666,0.588-3.695,1.701l-0.966-1.092
		c1.008-1.239,2.624-2.163,4.808-2.163c2.688,0,4.725,1.365,4.725,3.716c0,2.037-1.701,3.044-3.002,3.254
		c1.26,0.126,3.232,1.197,3.232,3.464c0,2.331-1.889,4.031-4.976,4.031C461.64,196.77,459.896,195.72,459.036,194.46z"/>
</g>
<g>
	<path fill="#FFFFFF" d="M477.452,196.518v-3.548h-6.656v-1.449l6.005-9.007h2.394v8.923h1.974v1.533h-1.974v3.548H477.452z
		 M477.452,184.13l-4.914,7.307h4.914V184.13z"/>
</g>
<g>
	<path fill="#FFFFFF" d="M484.026,196.518l5.647-12.451h-7.538v-1.554h9.554v1.197l-5.731,12.808H484.026z"/>
</g>
<g>
	<path fill="#FFFFFF" d="M524.009,150.275v-3.548h-6.656v-1.449l6.005-9.007h2.394v8.923h1.974v1.533h-1.974v3.548H524.009z
		 M524.009,137.888l-4.914,7.307h4.914V137.888z"/>
</g>
<g>
	<path fill="#FFFFFF" d="M535.728,150.275v-3.548h-6.656v-1.449l6.005-9.007h2.394v8.923h1.974v1.533h-1.974v3.548H535.728z
		 M535.728,137.888l-4.914,7.307h4.914V137.888z"/>
</g>
<g>
	<path fill="#FFFFFF" d="M541.293,148.281l1.071-1.176c0.924,1.197,2.162,1.869,3.863,1.869c1.91,0,3.232-1.302,3.232-3.002
		c0-1.848-1.322-3.023-3.212-3.023c-1.218,0-2.288,0.399-3.233,1.302l-1.281-0.441v-7.538h8.566v1.554h-6.823v4.871
		c0.692-0.672,1.868-1.26,3.275-1.26c2.352,0,4.472,1.575,4.472,4.472c0,2.834-2.184,4.619-4.996,4.619
		C543.876,150.527,542.343,149.667,541.293,148.281z"/>
</g>
<g>
	<path fill="#FFFFFF" d="M581.957,103.635l1.071-1.176c0.924,1.197,2.162,1.869,3.863,1.869c1.91,0,3.232-1.302,3.232-3.002
		c0-1.848-1.322-3.023-3.212-3.023c-1.218,0-2.288,0.399-3.233,1.302l-1.281-0.441v-7.538h8.566v1.554h-6.823v4.871
		c0.692-0.672,1.868-1.26,3.275-1.26c2.352,0,4.472,1.575,4.472,4.472c0,2.834-2.184,4.619-4.996,4.619
		C584.54,105.881,583.007,105.021,581.957,103.635z"/>
</g>
<g>
	<path fill="#FFFFFF" d="M593.298,103.572l1.028-1.092c0.819,1.092,2.247,1.848,3.905,1.848c2.037,0,3.275-1.029,3.275-2.625
		c0-1.743-1.428-2.478-3.485-2.478c-0.588,0-1.239,0-1.448,0.021v-1.596c0.23,0.021,0.881,0.021,1.448,0.021
		c1.764,0,3.255-0.693,3.255-2.31c0-1.554-1.428-2.394-3.129-2.394c-1.533,0-2.666,0.588-3.695,1.701l-0.966-1.092
		c1.008-1.239,2.624-2.163,4.808-2.163c2.688,0,4.725,1.365,4.725,3.716c0,2.037-1.701,3.044-3.002,3.254
		c1.26,0.126,3.232,1.197,3.232,3.464c0,2.331-1.889,4.031-4.976,4.031C595.901,105.881,594.158,104.832,593.298,103.572z"/>
</g>
<g>
	<path fill="#FFFFFF" d="M607.996,105.629V93.914l-2.247,2.394l-1.049-1.071l3.506-3.611h1.533v14.004H607.996z"/>
</g>
<g>
	<path fill="#00848F" d="M224.928,317.143l1.029-1.092c0.819,1.092,2.247,1.848,3.905,1.848c2.037,0,3.275-1.029,3.275-2.625
		c0-1.742-1.428-2.477-3.485-2.477c-0.588,0-1.239,0-1.449,0.02v-1.596c0.231,0.021,0.882,0.021,1.449,0.021
		c1.764,0,3.254-0.693,3.254-2.309c0-1.555-1.428-2.395-3.128-2.395c-1.533,0-2.667,0.588-3.695,1.701l-0.966-1.092
		c1.008-1.238,2.625-2.162,4.808-2.162c2.688,0,4.724,1.363,4.724,3.715c0,2.037-1.701,3.045-3.002,3.256
		c1.26,0.125,3.233,1.195,3.233,3.463c0,2.332-1.89,4.031-4.976,4.031C227.532,319.451,225.789,318.402,224.928,317.143z"/>
</g>
<g>
	<path fill="#00848F" d="M236.877,312.209c0-3.779,1.764-7.223,5.711-7.223c1.785,0,3.002,0.672,3.863,1.68l-0.882,1.301
		c-0.714-0.84-1.533-1.428-2.981-1.428c-2.729,0-3.947,2.75-3.947,5.502c0,0.188,0,0.355,0,0.545
		c0.609-0.965,2.163-2.184,3.968-2.184c2.52,0,4.577,1.49,4.577,4.473c0,2.414-1.848,4.576-4.892,4.576
		C238.368,319.451,236.877,316.029,236.877,312.209z M245.422,314.938c0-2.057-1.428-3.023-3.212-3.023
		c-1.407,0-2.75,0.861-3.506,2.078c0.147,1.744,1.071,3.906,3.506,3.906C244.373,317.898,245.422,316.26,245.422,314.938z"/>
</g>
<g>
	<path fill="#00848F" d="M170.37,330.625l0.882-1.303c0.714,0.84,1.554,1.428,3.002,1.428c2.834,0,3.947-2.834,3.947-5.5
		c0-0.168,0-0.357-0.021-0.547c-0.609,0.967-2.163,2.184-3.947,2.184c-2.52,0-4.598-1.49-4.598-4.473
		c0-2.414,1.848-4.576,4.913-4.576c3.905,0,5.417,3.422,5.417,7.244c0,3.779-1.785,7.223-5.711,7.223
		C172.469,332.305,171.251,331.611,170.37,330.625z M178.138,323.275c-0.168-1.721-1.092-3.885-3.527-3.885
		c-2.142,0-3.212,1.617-3.212,2.961c0,2.059,1.428,3.023,3.233,3.023C176.018,325.375,177.382,324.514,178.138,323.275z"/>
</g>
<g>
	<path fill="#00848F" d="M111.087,337.805v-1.406c5.039-3.947,7.79-6.277,7.79-8.691c0-1.807-1.491-2.562-2.939-2.562
		c-1.68,0-2.981,0.715-3.8,1.764l-1.071-1.113c1.071-1.428,2.897-2.203,4.871-2.203c2.331,0,4.703,1.322,4.703,4.115
		c0,2.855-2.897,5.459-6.803,8.545h6.866v1.553H111.087z"/>
</g>
<g>
	<path fill="#363636" d="M68.019,398.479l-4.521-5.641l-0.192,2.201l-1.366-0.182l0.399-3.801l1.115-0.895l5.843,7.291
		L68.019,398.479z"/>
	<path fill="#363636" d="M70.327,395.496l-0.178-1.455c0.706,0.098,1.314,0.006,2.014-0.555c1.322-1.06,0.951-2.755-0.004-3.947
		c-0.052-0.064-0.113-0.141-0.176-0.197c0.066,0.754-0.279,1.893-1.143,2.584c-1.312,1.051-3.076,1.156-4.32-0.396
		c-1.087-1.355-0.902-3.299,0.727-4.604c2.143-1.717,4.398-0.671,6.02,1.351c1.69,2.11,1.918,4.656-0.192,6.347
		C72.167,395.35,71.204,395.582,70.327,395.496z M71.219,388.41c-0.707-0.727-1.869-1.303-2.995-0.4
		c-0.962,0.771-0.922,1.852-0.449,2.442c0.719,0.896,1.742,0.739,2.54,0.1C70.938,390.053,71.267,389.232,71.219,388.41z"/>
	<path fill="#363636" d="M76.894,390.234l-0.178-1.455c0.705,0.098,1.314,0.006,2.014-0.555c1.322-1.06,0.951-2.755-0.004-3.947
		c-0.053-0.064-0.113-0.141-0.177-0.197c0.066,0.754-0.278,1.893-1.142,2.584c-1.312,1.051-3.077,1.156-4.321-0.396
		c-1.087-1.355-0.901-3.299,0.728-4.604c2.142-1.717,4.398-0.671,6.019,1.351c1.69,2.11,1.918,4.656-0.192,6.347
		C78.733,390.088,77.771,390.321,76.894,390.234z M77.784,383.148c-0.707-0.726-1.869-1.303-2.994-0.4
		c-0.963,0.771-0.922,1.852-0.449,2.442c0.719,0.896,1.742,0.739,2.539,0.1C77.503,384.791,77.833,383.971,77.784,383.148z"/>
	<path fill="#363636" d="M83.459,384.973l-0.178-1.455c0.706,0.098,1.314,0.006,2.014-0.555c1.323-1.06,0.952-2.755-0.003-3.947
		c-0.053-0.064-0.113-0.141-0.178-0.197c0.066,0.754-0.278,1.893-1.142,2.584c-1.312,1.051-3.077,1.156-4.321-0.396
		c-1.086-1.355-0.901-3.299,0.728-4.604c2.142-1.717,4.399-0.67,6.019,1.352c1.691,2.109,1.918,4.655-0.191,6.346
		C85.299,384.827,84.337,385.06,83.459,384.973z M84.351,377.887c-0.707-0.726-1.869-1.303-2.995-0.4
		c-0.962,0.771-0.922,1.852-0.448,2.442c0.718,0.896,1.741,0.739,2.539,0.101C84.069,379.529,84.399,378.709,84.351,377.887z"/>
</g>
<g>
	<path fill="#363636" d="M88.37,378.632l-0.788-0.983l2.624-2.104l0.787,0.984L88.37,378.632z"/>
</g>
<g>
	<path fill="#363636" d="M93.242,378.264l-0.814-1.016c1.113-4.412,1.476-6.246,0.626-7.305c-0.612-0.766-1.552-0.57-2.218-0.036
		c-0.854,0.683-1.227,1.539-1.276,2.44l-1.409-0.235c0.015-1.304,0.735-2.51,1.763-3.333c1.41-1.131,3.266-1.324,4.431,0.13
		c1.086,1.354,0.814,3.548,0.051,6.583l3.225-2.584l0.902,1.125L93.242,378.264z"/>
</g>
<g>
	<path fill="#363636" d="M96.607,369.59c-1.472-1.836-2.149-4.452-0.095-6.1c2.044-1.637,4.449-0.404,5.921,1.432
		c1.463,1.825,2.159,4.463,0.114,6.101C100.493,372.67,98.07,371.416,96.607,369.59z M101.133,365.964
		c-1.121-1.399-2.519-2.29-3.71-1.336c-1.191,0.955-0.636,2.521,0.485,3.92c1.112,1.388,2.537,2.292,3.729,1.337
		C102.817,368.939,102.245,367.352,101.133,365.964z"/>
	<path fill="#363636" d="M103.349,364.189c-1.473-1.837-2.15-4.453-0.096-6.1c2.044-1.639,4.449-0.406,5.921,1.43
		c1.463,1.826,2.159,4.463,0.114,6.102C107.233,367.268,104.812,366.014,103.349,364.189z M107.873,360.562
		c-1.121-1.398-2.518-2.291-3.71-1.336c-1.191,0.955-0.635,2.521,0.486,3.92c1.111,1.388,2.536,2.293,3.728,1.338
		C109.558,363.537,108.985,361.95,107.873,360.562z"/>
	<path fill="#363636" d="M110.089,358.787c-1.472-1.836-2.15-4.453-0.096-6.1c2.045-1.639,4.449-0.406,5.922,1.431
		c1.463,1.825,2.158,4.463,0.114,6.101C113.974,361.866,111.552,360.612,110.089,358.787z M114.614,355.16
		c-1.121-1.398-2.518-2.29-3.709-1.336c-1.191,0.955-0.637,2.521,0.484,3.92c1.112,1.389,2.537,2.293,3.729,1.338
		C116.299,358.136,115.727,356.549,114.614,355.16z"/>
</g>
<g>
	<path fill="#363636" d="M151.315,389.274l-0.815-1.017c1.115-4.411,1.477-6.245,0.627-7.305c-0.613-0.766-1.551-0.57-2.219-0.036
		c-0.852,0.683-1.226,1.54-1.275,2.44l-1.408-0.234c0.014-1.305,0.734-2.511,1.762-3.334c1.41-1.131,3.266-1.324,4.432,0.13
		c1.085,1.354,0.813,3.548,0.051,6.583l3.225-2.584l0.902,1.125L151.315,389.274z"/>
</g>
<g>
	<path fill="#363636" d="M156.446,380.591c-1.472-1.837-2.149-4.452-0.095-6.1c2.044-1.638,4.449-0.405,5.921,1.431
		c1.462,1.825,2.158,4.463,0.114,6.101C160.332,383.67,157.908,382.416,156.446,380.591z M160.972,376.965
		c-1.121-1.399-2.519-2.291-3.71-1.336s-0.636,2.521,0.485,3.92c1.112,1.387,2.536,2.292,3.728,1.337
		C162.656,379.939,162.084,378.352,160.972,376.965z"/>
	<path fill="#363636" d="M163.188,375.189c-1.473-1.837-2.15-4.453-0.096-6.1c2.044-1.639,4.449-0.406,5.921,1.431
		c1.462,1.825,2.158,4.462,0.114,6.101C167.072,378.268,164.649,377.014,163.188,375.189z M167.712,371.562
		c-1.121-1.398-2.519-2.291-3.71-1.336s-0.635,2.521,0.486,3.92c1.111,1.388,2.535,2.293,3.727,1.338
		C169.396,374.538,168.824,372.951,167.712,371.562z"/>
	<path fill="#363636" d="M174.484,372.113l-4.52-5.641l-0.193,2.201l-1.366-0.181l0.399-3.802l1.115-0.894l5.843,7.29
		L174.484,372.113z"/>
	<path fill="#363636" d="M175.139,368.051l-0.789-0.982l2.624-2.103l0.788,0.983L175.139,368.051z"/>
</g>
<g>
	<path fill="#363636" d="M177.356,363.834c-1.473-1.836-2.15-4.452-0.096-6.099c2.044-1.638,4.449-0.405,5.922,1.431
		c1.463,1.825,2.158,4.463,0.113,6.101C181.241,366.913,178.819,365.66,177.356,363.834z M181.881,360.208
		c-1.121-1.399-2.518-2.29-3.709-1.335c-1.191,0.954-0.636,2.52,0.485,3.919c1.111,1.388,2.537,2.292,3.729,1.338
		C183.565,363.184,182.993,361.596,181.881,360.208z"/>
</g>
<g>
	<path fill="#363636" d="M186.894,362.17l-0.814-1.018c1.115-4.411,1.477-6.244,0.627-7.305c-0.613-0.766-1.552-0.57-2.219-0.035
		c-0.853,0.683-1.226,1.539-1.275,2.439l-1.41-0.234c0.016-1.305,0.736-2.51,1.764-3.334c1.41-1.129,3.266-1.324,4.43,0.131
		c1.086,1.354,0.814,3.547,0.053,6.582l3.224-2.584l0.901,1.126L186.894,362.17z"/>
</g>
<g>
	<path fill="#363636" d="M206.516,390.77l-0.814-1.018c1.113-4.41,1.476-6.244,0.626-7.305c-0.612-0.766-1.552-0.569-2.218-0.035
		c-0.854,0.684-1.227,1.539-1.276,2.439l-1.409-0.234c0.014-1.304,0.734-2.51,1.763-3.334c1.41-1.129,3.265-1.323,4.431,0.131
		c1.086,1.355,0.814,3.547,0.051,6.582l3.225-2.584l0.902,1.126L206.516,390.77z"/>
</g>
<g>
	<path fill="#363636" d="M211.636,382.096c-1.472-1.836-2.15-4.453-0.095-6.1c2.043-1.638,4.449-0.405,5.92,1.432
		c1.463,1.824,2.159,4.462,0.115,6.1C215.521,385.174,213.099,383.921,211.636,382.096z M216.161,378.469
		c-1.121-1.398-2.519-2.29-3.71-1.335c-1.191,0.954-0.636,2.521,0.485,3.919c1.112,1.389,2.537,2.293,3.729,1.338
		C217.846,381.445,217.273,379.857,216.161,378.469z"/>
</g>
<g>
	<path fill="#363636" d="M218.376,376.693c-1.472-1.836-2.15-4.453-0.096-6.1c2.045-1.638,4.449-0.405,5.922,1.432
		c1.463,1.824,2.158,4.463,0.113,6.101C222.261,379.772,219.839,378.519,218.376,376.693z M222.901,373.067
		c-1.121-1.399-2.519-2.29-3.71-1.336s-0.636,2.521,0.485,3.92c1.112,1.388,2.537,2.292,3.729,1.337
		C224.586,376.043,224.013,374.455,222.901,373.067z"/>
</g>
<g>
	<path fill="#363636" d="M226.711,374.268l0.025-1.401c0.908,0.169,1.944-0.105,2.721-0.728c0.962-0.771,1.16-1.666,0.626-2.332
		c-0.577-0.721-1.4-0.582-2.45,0.258c-0.306,0.246-0.713,0.589-0.813,0.688l-0.929-1.158c0.129-0.086,0.556-0.428,0.84-0.655
		c0.863-0.692,1.272-1.504,0.738-2.171c-0.535-0.666-1.482-0.482-2.291,0.166c-0.754,0.604-1.146,1.369-1.242,2.324l-1.295-0.272
		c0.033-1.122,0.533-2.312,1.746-3.284c1.574-1.262,3.22-1.359,4.191-0.146c0.789,0.983,0.414,2.218-0.233,2.933
		c0.761-0.483,2.212-0.712,3.114,0.414c0.998,1.246,0.646,2.98-1.047,4.338C229.122,374.273,227.74,374.521,226.711,374.268z"/>
	<path fill="#363636" d="M232.162,368.086l-0.788-0.984l2.624-2.102l0.788,0.983L232.162,368.086z"/>
	<path fill="#363636" d="M234.381,363.868c-1.473-1.837-2.15-4.452-0.096-6.099c2.044-1.639,4.449-0.406,5.922,1.43
		c1.463,1.826,2.158,4.463,0.113,6.102C238.266,366.947,235.844,365.693,234.381,363.868z M238.905,360.242
		c-1.121-1.399-2.518-2.291-3.709-1.336c-1.191,0.954-0.636,2.52,0.485,3.92c1.111,1.387,2.537,2.292,3.729,1.338
		C240.59,363.217,240.018,361.63,238.905,360.242z"/>
	<path fill="#363636" d="M247.361,359.443l-1.323-1.65l-3.476,2.785l-0.824-1.027l-0.701-7.014l1.76-1.409l3.617,4.515l0.973-0.779
		l0.902,1.125l-0.973,0.779l1.323,1.651L247.361,359.443z M242.438,353.301l0.479,5.145l2.22-1.778L242.438,353.301z"/>
</g>
<g>
	<path fill="#363636" d="M264.419,391.408l-0.814-1.017c1.114-4.411,1.477-6.245,0.627-7.306c-0.613-0.765-1.552-0.569-2.219-0.035
		c-0.854,0.684-1.226,1.539-1.275,2.44l-1.409-0.235c0.015-1.305,0.735-2.51,1.763-3.333c1.41-1.13,3.266-1.324,4.43,0.13
		c1.086,1.355,0.814,3.548,0.052,6.583l3.225-2.584l0.901,1.126L264.419,391.408z"/>
</g>
<g>
	<path fill="#363636" d="M269.54,382.734c-1.473-1.836-2.15-4.452-0.096-6.099c2.045-1.638,4.449-0.405,5.922,1.431
		c1.462,1.825,2.158,4.463,0.113,6.101C273.425,385.813,271.002,384.561,269.54,382.734z M274.065,379.109
		c-1.121-1.4-2.519-2.292-3.71-1.337c-1.191,0.954-0.636,2.521,0.485,3.92c1.111,1.388,2.536,2.292,3.728,1.338
		C275.749,382.084,275.177,380.496,274.065,379.109z"/>
	<path fill="#363636" d="M276.28,377.334c-1.472-1.837-2.15-4.453-0.096-6.1c2.045-1.639,4.449-0.406,5.922,1.43
		c1.462,1.826,2.158,4.463,0.113,6.102C280.165,380.412,277.743,379.158,276.28,377.334z M280.806,373.707
		c-1.121-1.399-2.519-2.291-3.71-1.336s-0.636,2.521,0.485,3.92c1.112,1.388,2.536,2.293,3.728,1.338
		C282.489,376.682,281.917,375.095,280.806,373.707z"/>
	<path fill="#363636" d="M285.304,374.445l0.023-1.473c0.938,0.184,1.848-0.045,2.656-0.693c0.93-0.744,1.043-1.77,0.465-2.49
		c-0.622-0.775-1.602-0.834-2.498-0.115c-0.612,0.49-0.977,1.087-1.097,1.901l-1.117,0.465l-3.259-4.065l4.777-3.828l0.901,1.125
		l-3.498,2.803l1.683,2.1c0.088-0.629,0.451-1.385,1.151-1.945c1.235-0.99,3.021-1.023,4.222,0.475
		c1.209,1.509,0.82,3.398-0.808,4.704C287.66,374.406,286.446,374.66,285.304,374.445z"/>
	<path fill="#363636" d="M290.636,368.27l-0.789-0.983l2.623-2.103l0.789,0.984L290.636,368.27z"/>
	<path fill="#363636" d="M292.853,364.053c-1.471-1.836-2.15-4.453-0.095-6.1c2.044-1.639,4.449-0.406,5.921,1.431
		c1.463,1.825,2.158,4.462,0.114,6.101C296.737,367.131,294.315,365.878,292.853,364.053z M297.378,360.426
		c-1.121-1.399-2.518-2.291-3.709-1.336s-0.637,2.521,0.484,3.92c1.113,1.389,2.537,2.293,3.729,1.338
		C299.062,363.401,298.491,361.813,297.378,360.426z"/>
	<path fill="#363636" d="M299.593,358.65c-1.682-2.098-1.909-4.645,0.201-6.336c0.896-0.718,1.85-0.961,2.735-0.863l0.181,1.435
		c-0.697-0.087-1.316,0.015-2.005,0.565c-1.225,0.981-1.022,2.668,0.003,3.947c0.053,0.066,0.105,0.131,0.166,0.207
		c-0.055-0.762,0.281-1.912,1.134-2.595c1.312-1.052,3.097-1.154,4.341,0.398c1.076,1.345,0.9,3.298-0.728,4.604
		C303.479,361.729,301.222,360.684,299.593,358.65z M305.082,356.495c-0.718-0.896-1.741-0.739-2.528-0.108
		c-0.623,0.499-0.973,1.317-0.914,2.131c0.697,0.734,1.879,1.312,2.994,0.42C305.595,358.166,305.547,357.074,305.082,356.495z"/>
</g>
<g>
	<path fill="#363636" d="M327.562,390.055l-0.814-1.017c1.114-4.411,1.476-6.245,0.626-7.305c-0.613-0.765-1.552-0.57-2.218-0.036
		c-0.853,0.684-1.227,1.539-1.276,2.441l-1.409-0.236c0.014-1.304,0.736-2.51,1.764-3.333c1.409-1.13,3.265-1.324,4.43,0.13
		c1.086,1.355,0.814,3.548,0.052,6.583l3.224-2.584l0.902,1.126L327.562,390.055z"/>
</g>
<g>
	<path fill="#363636" d="M332.683,381.383c-1.472-1.838-2.149-4.454-0.095-6.101c2.045-1.638,4.449-0.406,5.922,1.431
		c1.462,1.825,2.158,4.463,0.113,6.101C336.568,384.46,334.145,383.207,332.683,381.383z M337.209,377.756
		c-1.122-1.4-2.519-2.292-3.711-1.337c-1.19,0.954-0.637,2.521,0.485,3.921c1.112,1.388,2.537,2.291,3.728,1.336
		C338.893,380.73,338.32,379.143,337.209,377.756z"/>
</g>
<g>
	<path fill="#363636" d="M339.423,375.979c-1.473-1.837-2.15-4.453-0.096-6.1c2.045-1.638,4.45-0.405,5.922,1.431
		c1.463,1.825,2.158,4.463,0.113,6.101C343.308,379.058,340.885,377.805,339.423,375.979z M343.948,372.354
		c-1.121-1.4-2.518-2.292-3.71-1.337c-1.19,0.954-0.636,2.521,0.485,3.921c1.111,1.387,2.537,2.291,3.728,1.337
		C345.632,375.328,345.06,373.74,343.948,372.354z"/>
</g>
<g>
	<path fill="#363636" d="M349.627,373.779l-2.187-8.372l-3.782,3.03l-0.901-1.125l5.258-4.213l0.71,0.885l2.312,8.665
		L349.627,373.779z"/>
</g>
<g>
	<path fill="#363636" d="M352.15,368.221l-0.789-0.984l2.623-2.102l0.789,0.983L352.15,368.221z"/>
	<path fill="#363636" d="M354.367,364.004c-1.471-1.838-2.148-4.453-0.095-6.1c2.044-1.639,4.45-0.407,5.922,1.43
		c1.462,1.825,2.157,4.463,0.113,6.102C358.254,367.082,355.83,365.828,354.367,364.004z M358.894,360.377
		c-1.121-1.4-2.519-2.291-3.71-1.336c-1.191,0.954-0.637,2.521,0.484,3.92c1.112,1.388,2.537,2.292,3.729,1.338
		C360.577,363.353,360.006,361.764,358.894,360.377z"/>
	<path fill="#363636" d="M362.518,360.361c-0.735-0.918-0.516-2.189,0.134-3.194c-1.03,0.396-2.168,0.409-2.903-0.51
		c-1.086-1.354-0.145-3.025,1.145-4.059c1.29-1.034,3.125-1.589,4.211-0.233c0.736,0.918,0.475,2.025-0.135,2.945
		c1.121-0.415,2.41-0.352,3.146,0.566c1.051,1.311,0.299,3.062-1.188,4.253C365.43,361.33,363.568,361.673,362.518,360.361z
		 M363.961,353.604c-0.499-0.623-1.37-0.5-2.157,0.131c-0.786,0.63-1.097,1.454-0.597,2.077c0.543,0.678,1.693,0.186,2.191-0.088
		C363.785,355.289,364.504,354.282,363.961,353.604z M366.684,356.754c-0.605-0.754-1.917-0.24-2.418,0.053
		c-0.406,0.434-1.183,1.594-0.578,2.349c0.517,0.645,1.498,0.504,2.329-0.162C366.826,358.345,367.199,357.398,366.684,356.754z"/>
</g>
<g>
	<path fill="#363636" d="M390.38,389.305l-0.814-1.018c1.114-4.41,1.476-6.244,0.626-7.305c-0.613-0.765-1.552-0.57-2.219-0.035
		c-0.852,0.683-1.226,1.539-1.275,2.44l-1.408-0.235c0.014-1.305,0.734-2.51,1.762-3.334c1.41-1.129,3.266-1.324,4.431,0.131
		c1.086,1.354,0.813,3.547,0.052,6.582l3.225-2.584l0.901,1.126L390.38,389.305z"/>
</g>
<g>
	<path fill="#363636" d="M395.5,380.631c-1.473-1.837-2.15-4.454-0.096-6.101c2.044-1.638,4.45-0.405,5.922,1.431
		c1.463,1.825,2.157,4.463,0.113,6.101C399.385,383.708,396.962,382.455,395.5,380.631z M400.025,377.004
		c-1.121-1.399-2.518-2.292-3.71-1.337c-1.19,0.954-0.637,2.522,0.485,3.921c1.111,1.388,2.537,2.291,3.728,1.337
		C401.709,379.979,401.137,378.391,400.025,377.004z"/>
	<path fill="#363636" d="M402.24,375.229c-1.473-1.836-2.15-4.453-0.096-6.1c2.045-1.639,4.45-0.406,5.922,1.431
		c1.463,1.825,2.158,4.462,0.113,6.101C406.125,378.307,403.702,377.054,402.24,375.229z M406.766,371.602
		c-1.121-1.398-2.518-2.291-3.709-1.336s-0.638,2.521,0.484,3.92c1.111,1.389,2.537,2.293,3.729,1.338
		C408.449,374.578,407.877,372.99,406.766,371.602z"/>
	<path fill="#363636" d="M411.694,372.498l-0.178-1.455c0.706,0.098,1.314,0.006,2.014-0.555c1.323-1.061,0.952-2.756-0.003-3.947
		c-0.053-0.065-0.113-0.142-0.177-0.199c0.065,0.755-0.278,1.894-1.142,2.586c-1.312,1.051-3.078,1.155-4.322-0.396
		c-1.086-1.356-0.9-3.299,0.728-4.604c2.142-1.716,4.399-0.67,6.019,1.353c1.691,2.109,1.919,4.654-0.191,6.346
		C413.535,372.352,412.572,372.584,411.694,372.498z M412.586,365.411c-0.707-0.726-1.869-1.302-2.994-0.399
		c-0.963,0.771-0.922,1.851-0.449,2.441c0.719,0.896,1.742,0.739,2.539,0.1C412.305,367.054,412.636,366.233,412.586,365.411z"/>
</g>
<g>
	<path fill="#363636" d="M416.607,366.156l-0.788-0.984l2.623-2.104l0.789,0.984L416.607,366.156z"/>
</g>
<g>
	<path fill="#363636" d="M423.162,364.439l-4.52-5.641L418.449,361l-1.365-0.182l0.399-3.801l1.114-0.895l5.844,7.291
		L423.162,364.439z"/>
	<path fill="#363636" d="M422.757,358.787c-1.472-1.837-2.149-4.454-0.095-6.101c2.045-1.638,4.45-0.405,5.922,1.431
		c1.463,1.825,2.158,4.463,0.113,6.102C426.643,361.865,424.22,360.611,422.757,358.787z M427.283,355.16
		c-1.121-1.399-2.518-2.291-3.71-1.336c-1.19,0.954-0.636,2.521,0.485,3.92c1.111,1.389,2.537,2.291,3.729,1.337
		C428.967,358.135,428.395,356.548,427.283,355.16z"/>
</g>
<g>
	<path fill="#363636" d="M461.069,385.104l-0.815-1.018c1.115-4.41,1.477-6.244,0.627-7.305c-0.613-0.765-1.552-0.569-2.219-0.035
		c-0.852,0.683-1.226,1.539-1.275,2.439l-1.408-0.234c0.014-1.304,0.734-2.51,1.762-3.333c1.41-1.13,3.266-1.324,4.431,0.13
		c1.085,1.354,0.814,3.547,0.052,6.582l3.225-2.584l0.901,1.127L461.069,385.104z"/>
</g>
<g>
	<path fill="#363636" d="M464.435,376.43c-1.471-1.836-2.148-4.453-0.095-6.1c2.044-1.638,4.45-0.406,5.922,1.43
		c1.463,1.826,2.157,4.465,0.114,6.102C468.321,379.508,465.897,378.255,464.435,376.43z M468.961,372.803
		c-1.121-1.398-2.519-2.291-3.71-1.336s-0.637,2.521,0.484,3.92c1.113,1.389,2.538,2.293,3.729,1.338
		C470.646,375.779,470.073,374.19,468.961,372.803z"/>
	<path fill="#363636" d="M475.732,373.354l-4.521-5.64l-0.192,2.2l-1.366-0.18l0.4-3.803l1.115-0.893l5.842,7.29L475.732,373.354z"
		/>
	<path fill="#363636" d="M479.884,370.027l-4.52-5.641l-0.193,2.2l-1.365-0.181l0.399-3.801l1.114-0.895l5.844,7.291
		L479.884,370.027z"/>
</g>
<g>
	<path fill="#363636" d="M480.537,365.966l-0.788-0.983l2.624-2.104l0.789,0.984L480.537,365.966z"/>
</g>
<g>
	<path fill="#363636" d="M487.105,364.24l-4.521-5.641l-0.192,2.201l-1.365-0.182l0.398-3.801l1.115-0.895l5.843,7.291
		L487.105,364.24z"/>
	<path fill="#363636" d="M489.705,362.156l-0.815-1.016c1.114-4.411,1.476-6.245,0.626-7.305c-0.613-0.766-1.551-0.57-2.219-0.035
		c-0.852,0.682-1.225,1.538-1.275,2.439l-1.408-0.235c0.014-1.304,0.734-2.511,1.762-3.333c1.41-1.131,3.266-1.324,4.432,0.13
		c1.085,1.354,0.814,3.548,0.051,6.583l3.225-2.584l0.902,1.125L489.705,362.156z"/>
</g>
<g>
	<path fill="#363636" d="M518.642,386.672l-0.814-1.017c1.113-4.411,1.476-6.245,0.626-7.305c-0.612-0.765-1.552-0.569-2.219-0.035
		c-0.852,0.683-1.226,1.538-1.275,2.44l-1.409-0.236c0.014-1.303,0.736-2.51,1.764-3.333c1.409-1.13,3.265-1.324,4.43,0.13
		c1.086,1.355,0.814,3.548,0.052,6.583l3.224-2.584l0.902,1.126L518.642,386.672z"/>
</g>
<g>
	<path fill="#363636" d="M522.007,377.998c-1.472-1.837-2.149-4.454-0.095-6.101c2.044-1.638,4.449-0.405,5.922,1.431
		c1.462,1.825,2.157,4.463,0.113,6.102C525.893,381.076,523.469,379.822,522.007,377.998z M526.533,374.371
		c-1.121-1.399-2.518-2.291-3.71-1.336c-1.191,0.954-0.637,2.521,0.484,3.92c1.112,1.388,2.537,2.291,3.729,1.337
		C528.217,377.346,527.645,375.758,526.533,374.371z"/>
	<path fill="#363636" d="M533.304,374.922l-4.52-5.641l-0.192,2.201l-1.366-0.182l0.399-3.801l1.115-0.895l5.842,7.291
		L533.304,374.922z"/>
	<path fill="#363636" d="M534.778,372.017l0.024-1.401c0.908,0.169,1.945-0.105,2.721-0.727c0.963-0.771,1.16-1.666,0.626-2.333
		c-0.577-0.722-1.399-0.583-2.449,0.259c-0.306,0.244-0.713,0.588-0.813,0.687l-0.928-1.158c0.128-0.086,0.555-0.428,0.838-0.655
		c0.865-0.692,1.273-1.504,0.738-2.17c-0.533-0.668-1.48-0.482-2.29,0.166c-0.754,0.604-1.147,1.368-1.243,2.323l-1.295-0.272
		c0.033-1.122,0.534-2.312,1.748-3.285c1.574-1.262,3.219-1.358,4.191-0.146c0.788,0.983,0.413,2.218-0.234,2.934
		c0.761-0.483,2.211-0.712,3.113,0.413c0.998,1.246,0.647,2.982-1.047,4.34C537.188,372.023,535.807,372.27,534.778,372.017z"/>
</g>
<g>
	<path fill="#363636" d="M540.23,365.835l-0.789-0.983l2.624-2.104l0.788,0.984L540.23,365.835z"/>
</g>
<g>
	<path fill="#363636" d="M546.796,364.109l-4.52-5.641l-0.193,2.201l-1.365-0.181l0.399-3.802l1.114-0.894l5.843,7.29
		L546.796,364.109z"/>
	<path fill="#363636" d="M552.631,359.434l-1.323-1.651l-3.476,2.785l-0.823-1.026l-0.701-7.014l1.76-1.41l3.617,4.515l0.974-0.78
		l0.901,1.126l-0.973,0.78l1.322,1.65L552.631,359.434z M547.708,353.29l0.479,5.146l2.22-1.779L547.708,353.29z"/>
</g>
<g>
	<path fill="#363636" d="M577.735,387.093l-0.814-1.017c1.113-4.411,1.476-6.244,0.626-7.305c-0.612-0.766-1.552-0.57-2.219-0.036
		c-0.852,0.683-1.226,1.54-1.275,2.44l-1.409-0.235c0.014-1.304,0.736-2.51,1.764-3.333c1.409-1.13,3.265-1.324,4.43,0.13
		c1.086,1.354,0.814,3.548,0.052,6.583l3.224-2.584l0.902,1.125L577.735,387.093z"/>
</g>
<g>
	<path fill="#363636" d="M581.111,378.41c-1.472-1.836-2.149-4.453-0.096-6.1c2.045-1.638,4.451-0.406,5.922,1.431
		c1.463,1.825,2.158,4.464,0.113,6.102C584.997,381.489,582.574,380.236,581.111,378.41z M585.637,374.783
		c-1.121-1.398-2.518-2.29-3.709-1.335c-1.191,0.954-0.637,2.521,0.484,3.92c1.111,1.388,2.537,2.292,3.729,1.337
		C587.32,377.76,586.749,376.172,585.637,374.783z"/>
	<path fill="#363636" d="M592.408,375.334l-4.52-5.639l-0.192,2.199l-1.366-0.18l0.4-3.803l1.114-0.893l5.843,7.29L592.408,375.334z
		"/>
	<path fill="#363636" d="M594.287,372.195l0.023-1.473c0.937,0.184,1.848-0.045,2.656-0.693c0.93-0.744,1.043-1.768,0.465-2.488
		c-0.623-0.777-1.603-0.836-2.499-0.117c-0.612,0.49-0.977,1.088-1.097,1.902l-1.117,0.465l-3.258-4.066l4.777-3.828l0.901,1.125
		l-3.498,2.803l1.682,2.1c0.089-0.628,0.452-1.385,1.151-1.945c1.235-0.99,3.021-1.022,4.223,0.475
		c1.209,1.51,0.82,3.399-0.808,4.705C596.643,372.156,595.429,372.411,594.287,372.195z"/>
</g>
<g>
	<path fill="#363636" d="M599.617,366.02l-0.788-0.984l2.623-2.102l0.789,0.983L599.617,366.02z"/>
</g>
<g>
	<path fill="#363636" d="M606.184,364.295l-4.52-5.641l-0.192,2.201l-1.365-0.182l0.398-3.801l1.115-0.895l5.842,7.291
		L606.184,364.295z"/>
	<path fill="#363636" d="M605.778,358.643c-1.682-2.1-1.908-4.646,0.201-6.337c0.896-0.719,1.85-0.962,2.736-0.864l0.181,1.436
		c-0.698-0.087-1.317,0.014-2.007,0.565c-1.224,0.981-1.021,2.667,0.004,3.946c0.053,0.066,0.105,0.132,0.166,0.208
		c-0.055-0.763,0.281-1.912,1.135-2.596c1.311-1.051,3.096-1.153,4.34,0.399c1.077,1.344,0.902,3.298-0.727,4.604
		C609.665,361.72,607.407,360.674,605.778,358.643z M611.269,356.486c-0.719-0.896-1.742-0.74-2.529-0.109
		c-0.623,0.5-0.973,1.317-0.912,2.131c0.695,0.734,1.877,1.314,2.992,0.42C611.781,358.156,611.733,357.065,611.269,356.486z"/>
</g>
<g>
	<path fill="#363636" d="M16.67,293.569h-1.9l-9.382-6.802v6.802H3.327v-9.862h1.88l9.402,6.842v-6.981h2.061V293.569z"/>
	<path fill="#363636" d="M4.527,281.57c-0.72,0-1.301-0.58-1.301-1.301s0.581-1.301,1.301-1.301s1.3,0.58,1.3,1.301
		S5.247,281.57,4.527,281.57z M16.67,281.33H7.008v-2.102h9.662V281.33z"/>
	<path fill="#363636" d="M14.409,276.07H8.828v1.6h-1.82v-1.6H4.367v-2.102h2.641v-1.96h1.82v1.96h5.062
		c0.66,0,1.16-0.319,1.16-0.92c0-0.4-0.181-0.76-0.36-0.92l1.601-0.5c0.34,0.38,0.62,1,0.62,1.961
		C16.91,275.229,16.029,276.07,14.409,276.07z"/>
	<path fill="#363636" d="M16.67,263.588h-6.081c-1.521,0-1.961,0.761-1.961,1.941c0,1.08,0.641,2,1.28,2.48h6.762v2.1H3.327v-2.1
		h4.981c-0.761-0.641-1.541-1.881-1.541-3.4c0-2.081,1.08-3.121,3.061-3.121h6.842V263.588z"/>
</g>
<g>
	<path fill="#363636" d="M16.67,258.77H7.008v-2.101h1.4c-0.92-0.739-1.641-1.9-1.641-3.141h2.081
		c-0.04,0.181-0.061,0.38-0.061,0.64c0,0.9,0.601,2.081,1.301,2.501h6.581V258.77z"/>
</g>
<g>
	<path fill="#363636" d="M11.829,252.891c-2.781,0-5.062-1.881-5.062-4.961s2.28-4.961,5.062-4.961c2.761,0,5.081,1.881,5.081,4.961
		S14.59,252.891,11.829,252.891z M11.829,245.148c-1.7,0-3.201,0.98-3.201,2.781c0,1.78,1.501,2.781,3.201,2.781
		c1.72,0,3.221-1.001,3.221-2.781C15.05,246.129,13.549,245.148,11.829,245.148z"/>
	<path fill="#363636" d="M16.67,228.969h-6.302c-1.04,0-1.74,0.459-1.74,1.6c0,0.94,0.641,1.82,1.28,2.24h6.762v2.101h-6.302
		c-1.04,0-1.74,0.44-1.74,1.581c0,0.939,0.66,1.8,1.28,2.24h6.762v2.1H7.008v-2.1h1.301c-0.581-0.42-1.541-1.681-1.541-3.161
		c0-1.44,0.721-2.32,1.761-2.641c-0.86-0.54-1.761-1.82-1.761-3.28c0-1.761,0.96-2.781,2.921-2.781h6.981V228.969z"/>
	<path fill="#363636" d="M16.67,218.229h-1.061c0.841,0.72,1.301,1.86,1.301,3.141c0,1.561-1.08,3.341-3.201,3.341
		c-2.24,0-3.16-1.76-3.16-3.341c0-1.32,0.42-2.42,1.24-3.141h-1.44c-1.12,0-1.801,0.94-1.801,2.261c0,1.08,0.4,2.041,1.24,2.86
		l-1.46,0.88c-1.08-1.12-1.561-2.521-1.561-4.061c0-2.16,0.9-4.041,3.481-4.041h6.421V218.229z M14.47,218.229h-1.48
		c-0.66,0.5-1,1.4-1,2.301c0,1.18,0.7,2.081,1.74,2.081c1.06,0,1.74-0.9,1.74-2.081C15.47,219.63,15.13,218.73,14.47,218.229z"/>
	<path fill="#363636" d="M16.67,207.29l-3.561,2.5l3.561,2.521v2.36l-4.961-3.561l-4.701,3.34v-2.36l3.261-2.28l-3.261-2.301v-2.36
		l4.701,3.341l4.961-3.561V207.29z"/>
	<path fill="#363636" d="M11.608,199.891c0,2.34-1.9,4.241-4.24,4.241c-2.36,0-4.241-1.9-4.241-4.241
		c0-2.361,1.881-4.241,4.241-4.241C9.708,195.649,11.608,197.53,11.608,199.891z M3.728,199.891c0,2,1.6,3.621,3.641,3.621
		c1.98,0,3.62-1.62,3.62-3.621c0-2.021-1.64-3.641-3.62-3.641C5.327,196.25,3.728,197.87,3.728,199.891z M9.809,198.73l-1.921,1.26
		v0.86h1.921v0.66H4.947v-1.98c0-0.82,0.58-1.56,1.48-1.56c1.08,0,1.44,0.96,1.44,1.24l1.94-1.3V198.73z M5.527,199.53v1.32h1.761
		v-1.32c0-0.42-0.36-0.88-0.86-0.88C5.888,198.65,5.527,199.11,5.527,199.53z"/>
	<path fill="#363636" d="M14.789,189.232l-1.82-1.32c0.98-0.9,1.86-2.36,1.86-4.221c0-1.92-0.939-2.661-1.84-2.661
		c-2.801,0-1.061,7.762-5.961,7.762c-2.221,0-3.921-1.92-3.921-4.861c0-2.061,0.68-3.761,1.88-4.981l1.74,1.32
		c-1.06,1.06-1.54,2.48-1.54,3.881c0,1.36,0.68,2.24,1.66,2.24c2.501,0,0.96-7.762,5.922-7.762c2.22,0,4.141,1.581,4.141,5.161
		C16.91,186.251,16.03,188.032,14.789,189.232z"/>
	<path fill="#363636" d="M16.67,170.01h-6.081c-1.521,0-1.961,0.76-1.961,1.94c0,1.081,0.641,2,1.28,2.48h6.762v2.101H3.327v-2.101
		h4.981c-0.761-0.64-1.541-1.88-1.541-3.4c0-2.081,1.08-3.121,3.061-3.121h6.842V170.01z"/>
	<path fill="#363636" d="M4.527,165.432c-0.72,0-1.3-0.58-1.3-1.3s0.58-1.3,1.3-1.3s1.3,0.58,1.3,1.3S5.247,165.432,4.527,165.432z
		 M16.67,165.192H7.008v-2.101h9.662V165.192z"/>
	<path fill="#363636" d="M15.33,158.271h5.021v2.101H7.008v-2.101h1.32c-0.96-0.72-1.561-1.84-1.561-3.101
		c0-2.5,1.881-4.281,5.062-4.281s5.081,1.78,5.081,4.281C16.91,156.391,16.35,157.471,15.33,158.271z M11.829,153.05
		c-1.881,0-3.201,1.08-3.201,2.74c0,0.98,0.561,2,1.28,2.48h3.821c0.72-0.46,1.32-1.5,1.32-2.48
		C15.05,154.13,13.709,153.05,11.829,153.05z"/>
	<path fill="#363636" d="M15.33,146.691h5.021v2.101H7.008v-2.101h1.32c-0.96-0.72-1.561-1.84-1.561-3.101
		c0-2.5,1.881-4.281,5.062-4.281s5.081,1.78,5.081,4.281C16.91,144.811,16.35,145.892,15.33,146.691z M11.829,141.471
		c-1.881,0-3.201,1.08-3.201,2.74c0,0.98,0.561,2,1.28,2.48h3.821c0.72-0.46,1.32-1.5,1.32-2.48
		C15.05,142.551,13.709,141.471,11.829,141.471z"/>
	<path fill="#363636" d="M11.829,137.792c-2.801,0-5.062-2.041-5.062-4.901c0-2.901,2.201-4.741,5.241-4.741h0.521v7.442
		c1.44-0.16,2.66-1.24,2.66-3.061c0-0.96-0.38-2.06-1.08-2.76l1.38-0.96c0.921,0.98,1.421,2.401,1.421,3.921
		C16.91,135.652,14.89,137.792,11.829,137.792z M8.488,132.911c0,1.78,1.38,2.621,2.54,2.701v-5.441
		C9.889,130.23,8.488,131.011,8.488,132.911z"/>
	<path fill="#363636" d="M16.67,119.271h-1.32c0.96,0.74,1.561,1.84,1.561,3.101c0,2.46-1.881,4.281-5.081,4.281
		c-3.121,0-5.062-1.8-5.062-4.281c0-1.22,0.54-2.34,1.581-3.101H3.327v-2.101H16.67V119.271z M13.749,119.271h-3.82
		c-0.721,0.46-1.301,1.5-1.301,2.48c0,1.68,1.341,2.741,3.201,2.741c1.88,0,3.221-1.061,3.221-2.741
		C15.05,120.771,14.47,119.731,13.749,119.271z"/>
	<path fill="#363636" d="M20.65,106.772c-2.3,1.9-5.621,3.041-8.842,3.041s-6.541-1.14-8.842-3.041l0.98-1.3
		c2.48,1.34,4.701,2.061,7.861,2.061c3.121,0,5.382-0.72,7.842-2.061L20.65,106.772z"/>
	<path fill="#363636" d="M16.67,92.19H6.368l10.302,4.081v1l-10.302,4.101H16.67v2.34H3.327v-3.301l9.162-3.641L3.327,93.15V89.85
		H16.67V92.19z"/>
	<path fill="#363636" d="M4.527,87.313c-0.72,0-1.3-0.58-1.3-1.3s0.58-1.3,1.3-1.3s1.3,0.58,1.3,1.3S5.247,87.313,4.527,87.313z
		 M16.67,87.073H7.008v-2.101h9.662V87.073z"/>
	<path fill="#363636" d="M16.67,82.253H3.327v-2.101H16.67V82.253z"/>
	<path fill="#363636" d="M16.67,77.433H3.327v-2.101H16.67V77.433z"/>
	<path fill="#363636" d="M4.527,72.853c-0.72,0-1.3-0.58-1.3-1.3s0.58-1.3,1.3-1.3s1.3,0.58,1.3,1.3S5.247,72.853,4.527,72.853z
		 M16.67,72.613H7.008v-2.101h9.662V72.613z"/>
	<path fill="#363636" d="M11.829,68.373c-2.781,0-5.062-1.88-5.062-4.961s2.28-4.961,5.062-4.961c2.761,0,5.081,1.88,5.081,4.961
		S14.59,68.373,11.829,68.373z M11.829,60.631c-1.7,0-3.201,0.98-3.201,2.781c0,1.78,1.501,2.781,3.201,2.781
		c1.72,0,3.221-1,3.221-2.781C15.05,61.612,13.549,60.631,11.829,60.631z"/>
	<path fill="#363636" d="M16.67,49.772h-6.041c-1.521,0-2.001,0.78-2.001,1.96c0,1.061,0.641,1.98,1.28,2.48h6.762v2.101H7.008
		v-2.101h1.301c-0.761-0.64-1.541-1.9-1.541-3.42c0-2.081,1.12-3.121,3.101-3.121h6.802V49.772z"/>
</g>
<g>
	<path fill="#363636" d="M15.39,45.771l-1.5-0.96c0.7-0.68,1.34-2.02,1.34-3.261c0-1.26-0.52-1.92-1.28-1.92
		c-1.9,0-0.54,5.841-4.261,5.841c-1.581,0-2.921-1.36-2.921-3.801c0-1.64,0.581-2.88,1.34-3.741l1.48,0.88
		c-0.64,0.58-1.16,1.64-1.16,2.86c0,1.101,0.52,1.78,1.2,1.78c1.7,0,0.42-5.841,4.261-5.841c1.721,0,3.021,1.42,3.021,4.021
		C16.91,43.291,16.37,44.771,15.39,45.771z"/>
</g>
<g>
	<path fill="#363636" d="M19.65,36.991c-2.46-1.32-4.721-2.041-7.841-2.041c-3.161,0-5.381,0.72-7.862,2.041l-0.98-1.3
		c2.301-1.88,5.622-3.021,8.842-3.021s6.541,1.141,8.842,3.021L19.65,36.991z"/>
</g>
<g>
	<path fill="#131413" d="M140.494,34.602v-9.343h3.754c1.877,0,2.928,1.289,2.928,2.816s-1.065,2.815-2.928,2.815h-2.591v3.712
		H140.494z M145.971,28.075c0-1.051-0.756-1.779-1.863-1.779h-2.451v3.558h2.451C145.214,29.854,145.971,29.125,145.971,28.075z"/>
	<path fill="#131413" d="M148.67,34.602v-9.343h1.05v9.343H148.67z"/>
	<path fill="#131413" d="M156.05,34.602v-0.771c-0.546,0.616-1.331,0.938-2.241,0.938c-1.135,0-2.353-0.771-2.353-2.241
		c0-1.527,1.205-2.227,2.353-2.227c0.925,0,1.695,0.294,2.241,0.911v-1.219c0-0.896-0.729-1.415-1.709-1.415
		c-0.812,0-1.471,0.28-2.073,0.938l-0.491-0.728c0.729-0.756,1.597-1.121,2.704-1.121c1.443,0,2.62,0.644,2.62,2.283v4.65H156.05z
		 M156.05,33.173v-1.289c-0.406-0.546-1.121-0.827-1.849-0.827c-0.994,0-1.681,0.616-1.681,1.471c0,0.869,0.687,1.485,1.681,1.485
		C154.929,34.014,155.644,33.733,156.05,33.173z"/>
	<path fill="#131413" d="M163.792,34.602v-4.426c0-1.205-0.616-1.569-1.527-1.569c-0.826,0-1.597,0.504-2.003,1.05v4.945h-1.05
		v-6.766h1.05v0.98c0.476-0.574,1.401-1.148,2.423-1.148c1.401,0,2.143,0.714,2.143,2.185v4.749H163.792z"/>
	<path fill="#131413" d="M171.52,34.602v-4.426c0-1.205-0.616-1.569-1.527-1.569c-0.826,0-1.597,0.504-2.003,1.05v4.945h-1.05
		v-6.766h1.05v0.98c0.476-0.574,1.401-1.148,2.423-1.148c1.401,0,2.143,0.714,2.143,2.185v4.749H171.52z"/>
	<path fill="#131413" d="M174.275,31.212c0-1.961,1.401-3.544,3.334-3.544c2.045,0,3.25,1.597,3.25,3.628v0.266h-5.463
		c0.084,1.274,0.967,2.339,2.423,2.339c0.785,0,1.555-0.309,2.101-0.869l0.504,0.687c-0.687,0.672-1.597,1.05-2.689,1.05
		C175.718,34.77,174.275,33.327,174.275,31.212z M177.595,28.537c-1.443,0-2.157,1.219-2.213,2.241h4.44
		C179.808,29.784,179.136,28.537,177.595,28.537z"/>
	<path fill="#131413" d="M187.452,34.602v-1.009c-0.504,0.687-1.331,1.177-2.283,1.177c-1.765,0-3.012-1.345-3.012-3.544
		c0-2.171,1.247-3.558,3.012-3.558c0.911,0,1.737,0.448,2.283,1.19v-3.6h1.051v9.343H187.452z M187.452,32.753v-3.054
		c-0.364-0.588-1.19-1.092-2.017-1.092c-1.373,0-2.185,1.121-2.185,2.619c0,1.499,0.812,2.605,2.185,2.605
		C186.261,33.832,187.087,33.341,187.452,32.753z"/>
	<path fill="#131413" d="M193.707,33.285l0.701-0.896c0.602,0.701,1.611,1.345,2.927,1.345c1.667,0,2.199-0.896,2.199-1.625
		c0-2.41-5.533-1.065-5.533-4.398c0-1.541,1.373-2.605,3.222-2.605c1.415,0,2.521,0.49,3.306,1.316l-0.7,0.854
		c-0.701-0.784-1.681-1.121-2.704-1.121c-1.106,0-1.919,0.603-1.919,1.485c0,2.101,5.533,0.896,5.533,4.385
		c0,1.345-0.924,2.745-3.446,2.745C195.682,34.77,194.477,34.154,193.707,33.285z"/>
	<path fill="#131413" d="M207.009,34.602v-4.455c0-1.205-0.602-1.541-1.527-1.541c-0.812,0-1.597,0.504-1.989,1.05v4.945h-1.051
		v-9.343h1.051v3.558c0.462-0.574,1.387-1.148,2.409-1.148c1.415,0,2.157,0.686,2.157,2.157v4.776H207.009z"/>
	<path fill="#131413" d="M209.975,26.169c0-0.392,0.322-0.714,0.714-0.714c0.392,0,0.7,0.322,0.7,0.714s-0.308,0.7-0.7,0.7
		C210.296,26.87,209.975,26.562,209.975,26.169z M210.157,34.602v-6.766h1.05v6.766H210.157z"/>
	<path fill="#131413" d="M214.357,33.58v3.6h-1.05v-9.343h1.05v1.008c0.49-0.686,1.331-1.176,2.283-1.176
		c1.779,0,3.012,1.345,3.012,3.544c0,2.185-1.233,3.558-3.012,3.558C215.716,34.77,214.917,34.322,214.357,33.58z M218.545,31.212
		c0-1.499-0.812-2.605-2.171-2.605c-0.826,0-1.653,0.49-2.017,1.079v3.054c0.364,0.588,1.191,1.092,2.017,1.092
		C217.733,33.832,218.545,32.711,218.545,31.212z"/>
	<path fill="#131413" d="M229.48,34.602v-4.595c0-0.854-0.364-1.4-1.247-1.4c-0.7,0-1.443,0.49-1.793,1.037v4.958h-1.05v-4.595
		c0-0.854-0.351-1.4-1.247-1.4c-0.686,0-1.415,0.504-1.779,1.05v4.945h-1.05v-6.766h1.05v0.98c0.294-0.434,1.191-1.148,2.199-1.148
		c1.022,0,1.611,0.56,1.807,1.261c0.378-0.617,1.289-1.261,2.269-1.261c1.233,0,1.891,0.686,1.891,2.045v4.889H229.48z"/>
	<path fill="#131413" d="M232.234,31.212c0-1.961,1.401-3.544,3.334-3.544c2.045,0,3.25,1.597,3.25,3.628v0.266h-5.463
		c0.084,1.274,0.967,2.339,2.423,2.339c0.785,0,1.555-0.309,2.101-0.869l0.504,0.687c-0.687,0.672-1.597,1.05-2.689,1.05
		C233.677,34.77,232.234,33.327,232.234,31.212z M235.554,28.537c-1.443,0-2.157,1.219-2.213,2.241h4.44
		C237.767,29.784,237.095,28.537,235.554,28.537z"/>
	<path fill="#131413" d="M245.088,34.602v-4.426c0-1.205-0.616-1.569-1.527-1.569c-0.826,0-1.597,0.504-2.003,1.05v4.945h-1.05
		v-6.766h1.05v0.98c0.477-0.574,1.401-1.148,2.423-1.148c1.401,0,2.143,0.714,2.143,2.185v4.749H245.088z"/>
	<path fill="#131413" d="M248.446,33.188v-4.427h-1.121v-0.924h1.121v-1.849h1.064v1.849h1.373v0.924h-1.373v4.203
		c0,0.504,0.224,0.868,0.672,0.868c0.308,0,0.574-0.14,0.714-0.294l0.308,0.798c-0.266,0.252-0.644,0.434-1.247,0.434
		C248.951,34.77,248.446,34.196,248.446,33.188z"/>
</g>
<g>
	<path fill="#363636" d="M429.198,420.396l0.084-1.609l-1.359,0.867l-0.308-0.545l1.429-0.729l-1.429-0.729l0.308-0.561l1.359,0.883
		l-0.084-1.611h0.644l-0.084,1.611l1.345-0.883l0.322,0.561l-1.429,0.729l1.429,0.729l-0.322,0.545l-1.345-0.867l0.084,1.609
		H429.198z"/>
	<path fill="#363636" d="M432.991,425.846v-9.342h3.193c2.914,0,4.791,2.031,4.791,4.678c0,2.662-1.877,4.664-4.791,4.664H432.991z
		 M439.771,421.182c0-2.018-1.274-3.643-3.586-3.643h-2.031v7.271h2.031C438.454,424.811,439.771,423.186,439.771,421.182z"/>
	<path fill="#363636" d="M446.979,425.846v-0.77c-0.547,0.615-1.331,0.938-2.241,0.938c-1.135,0-2.354-0.77-2.354-2.24
		c0-1.527,1.204-2.229,2.354-2.229c0.924,0,1.694,0.295,2.241,0.912v-1.219c0-0.896-0.729-1.416-1.709-1.416
		c-0.812,0-1.471,0.281-2.073,0.939l-0.49-0.729c0.729-0.756,1.597-1.121,2.703-1.121c1.443,0,2.619,0.645,2.619,2.283v4.65H446.979
		z M446.979,424.418v-1.289c-0.406-0.547-1.121-0.826-1.85-0.826c-0.994,0-1.681,0.615-1.681,1.471c0,0.867,0.687,1.484,1.681,1.484
		C445.858,425.258,446.573,424.979,446.979,424.418z"/>
</g>
<g>
	<path fill="#363636" d="M450.352,424.432v-4.426h-1.121v-0.926h1.121v-1.848h1.064v1.848h1.373v0.926h-1.373v4.201
		c0,0.504,0.225,0.869,0.673,0.869c0.308,0,0.574-0.141,0.714-0.295l0.309,0.799c-0.267,0.252-0.645,0.434-1.247,0.434
		C450.855,426.014,450.352,425.439,450.352,424.432z"/>
</g>
<g>
	<path fill="#363636" d="M458.348,425.846v-0.77c-0.547,0.615-1.331,0.938-2.241,0.938c-1.135,0-2.354-0.77-2.354-2.24
		c0-1.527,1.204-2.229,2.354-2.229c0.924,0,1.694,0.295,2.241,0.912v-1.219c0-0.896-0.729-1.416-1.709-1.416
		c-0.812,0-1.471,0.281-2.073,0.939l-0.49-0.729c0.729-0.756,1.597-1.121,2.703-1.121c1.442,0,2.619,0.645,2.619,2.283v4.65H458.348
		z M458.348,424.418v-1.289c-0.406-0.547-1.121-0.826-1.85-0.826c-0.994,0-1.681,0.615-1.681,1.471c0,0.867,0.687,1.484,1.681,1.484
		C457.227,425.258,457.941,424.979,458.348,424.418z"/>
	<path fill="#363636" d="M469.701,425.846v-0.951c-0.519,0.588-1.401,1.119-2.409,1.119c-1.415,0-2.157-0.699-2.157-2.156v-4.777
		h1.051v4.455c0,1.191,0.602,1.541,1.526,1.541c0.812,0,1.597-0.477,1.989-1.023v-4.973h1.051v6.766H469.701z"/>
	<path fill="#363636" d="M473.899,424.824v3.6h-1.051v-9.344h1.051v1.01c0.49-0.688,1.33-1.178,2.283-1.178
		c1.778,0,3.011,1.346,3.011,3.545c0,2.184-1.232,3.557-3.011,3.557C475.258,426.014,474.459,425.566,473.899,424.824z
		 M478.087,422.457c0-1.5-0.812-2.605-2.171-2.605c-0.826,0-1.652,0.49-2.017,1.078v3.053c0.364,0.59,1.19,1.094,2.017,1.094
		C477.274,425.076,478.087,423.955,478.087,422.457z"/>
	<path fill="#363636" d="M485.759,425.846v-1.008c-0.504,0.686-1.331,1.176-2.283,1.176c-1.765,0-3.012-1.344-3.012-3.543
		c0-2.172,1.247-3.559,3.012-3.559c0.91,0,1.737,0.449,2.283,1.191v-3.6h1.051v9.342H485.759z M485.759,423.998v-3.055
		c-0.364-0.588-1.19-1.092-2.017-1.092c-1.373,0-2.186,1.119-2.186,2.619c0,1.498,0.812,2.605,2.186,2.605
		C484.568,425.076,485.395,424.586,485.759,423.998z"/>
	<path fill="#363636" d="M493.138,425.846v-0.77c-0.547,0.615-1.331,0.938-2.241,0.938c-1.135,0-2.354-0.77-2.354-2.24
		c0-1.527,1.204-2.229,2.354-2.229c0.924,0,1.694,0.295,2.241,0.912v-1.219c0-0.896-0.729-1.416-1.709-1.416
		c-0.812,0-1.471,0.281-2.073,0.939l-0.49-0.729c0.729-0.756,1.597-1.121,2.703-1.121c1.443,0,2.619,0.645,2.619,2.283v4.65H493.138
		z M493.138,424.418v-1.289c-0.406-0.547-1.121-0.826-1.85-0.826c-0.994,0-1.681,0.615-1.681,1.471c0,0.867,0.687,1.484,1.681,1.484
		C492.017,425.258,492.731,424.979,493.138,424.418z"/>
</g>
<g>
	<path fill="#363636" d="M496.509,424.432v-4.426h-1.121v-0.926h1.121v-1.848h1.064v1.848h1.373v0.926h-1.373v4.201
		c0,0.504,0.225,0.869,0.673,0.869c0.308,0,0.574-0.141,0.714-0.295l0.309,0.799c-0.267,0.252-0.645,0.434-1.247,0.434
		C497.013,426.014,496.509,425.439,496.509,424.432z"/>
</g>
<g>
	<path fill="#363636" d="M499.854,422.457c0-1.961,1.401-3.545,3.334-3.545c2.045,0,3.25,1.598,3.25,3.629v0.266h-5.463
		c0.084,1.275,0.966,2.34,2.423,2.34c0.784,0,1.555-0.309,2.102-0.869l0.504,0.686c-0.687,0.674-1.597,1.051-2.689,1.051
		C501.298,426.014,499.854,424.572,499.854,422.457z M503.175,419.781c-1.443,0-2.157,1.219-2.214,2.24h4.44
		C505.388,421.027,504.715,419.781,503.175,419.781z"/>
	<path fill="#363636" d="M513.031,425.846v-1.008c-0.504,0.686-1.331,1.176-2.283,1.176c-1.765,0-3.012-1.344-3.012-3.543
		c0-2.172,1.247-3.559,3.012-3.559c0.91,0,1.737,0.449,2.283,1.191v-3.6h1.051v9.342H513.031z M513.031,423.998v-3.055
		c-0.364-0.588-1.19-1.092-2.017-1.092c-1.373,0-2.186,1.119-2.186,2.619c0,1.498,0.812,2.605,2.186,2.605
		C511.841,425.076,512.667,424.586,513.031,423.998z"/>
	<path fill="#363636" d="M527.831,425.846v-7.857l-3.166,7.857h-0.477l-3.18-7.857v7.857h-1.162v-9.342h1.667l2.913,7.199
		l2.899-7.199h1.667v9.342H527.831z"/>
	<path fill="#363636" d="M535.361,425.846v-0.77c-0.547,0.615-1.331,0.938-2.241,0.938c-1.135,0-2.354-0.77-2.354-2.24
		c0-1.527,1.204-2.229,2.354-2.229c0.924,0,1.694,0.295,2.241,0.912v-1.219c0-0.896-0.729-1.416-1.709-1.416
		c-0.812,0-1.471,0.281-2.073,0.939l-0.49-0.729c0.729-0.756,1.597-1.121,2.703-1.121c1.442,0,2.619,0.645,2.619,2.283v4.65H535.361
		z M535.361,424.418v-1.289c-0.406-0.547-1.121-0.826-1.85-0.826c-0.994,0-1.681,0.615-1.681,1.471c0,0.867,0.687,1.484,1.681,1.484
		C534.24,425.258,534.955,424.979,535.361,424.418z"/>
</g>
<g>
	<path fill="#363636" d="M538.523,425.846v-6.766h1.051v1.078c0.546-0.699,1.33-1.232,2.255-1.232v1.08
		c-0.126-0.016-0.252-0.029-0.406-0.029c-0.658,0-1.541,0.533-1.849,1.078v4.791H538.523z"/>
</g>
<g>
	<path fill="#363636" d="M542.484,422.457c0-2.004,1.359-3.545,3.376-3.545c1.232,0,1.961,0.504,2.479,1.178l-0.7,0.629
		c-0.448-0.615-1.022-0.867-1.724-0.867c-1.429,0-2.339,1.105-2.339,2.605c0,1.498,0.91,2.619,2.339,2.619
		c0.701,0,1.275-0.281,1.724-0.883l0.7,0.645c-0.519,0.672-1.247,1.176-2.479,1.176
		C543.844,426.014,542.484,424.459,542.484,422.457z"/>
	<path fill="#363636" d="M554.4,425.846v-4.453c0-1.205-0.603-1.541-1.526-1.541c-0.812,0-1.597,0.504-1.989,1.051v4.943h-1.051
		v-9.342h1.051v3.557c0.462-0.574,1.387-1.148,2.409-1.148c1.415,0,2.157,0.688,2.157,2.158v4.775H554.4z"/>
</g>
<g>
	<path fill="#363636" d="M560.882,425.846v-0.938c3.361-2.635,5.196-4.189,5.196-5.799c0-1.205-0.994-1.709-1.961-1.709
		c-1.121,0-1.989,0.475-2.535,1.176l-0.715-0.742c0.715-0.953,1.934-1.471,3.25-1.471c1.555,0,3.138,0.883,3.138,2.746
		c0,1.904-1.933,3.641-4.538,5.701h4.58v1.035H560.882z"/>
</g>
<g>
	<path fill="#363636" d="M572.35,425.846v-2.367h-4.44v-0.967l4.006-6.008h1.597v5.953h1.317v1.021h-1.317v2.367H572.35z
		 M572.35,417.582l-3.277,4.875h3.277V417.582z"/>
</g>
<g>
	<path fill="#363636" d="M576.478,427.625l-0.532-0.434c0.448-0.295,0.854-0.842,0.91-1.303c-0.028,0.014-0.126,0.027-0.196,0.027
		c-0.378,0-0.672-0.309-0.672-0.715s0.322-0.756,0.742-0.756c0.477,0,0.882,0.393,0.882,1.064
		C577.611,426.365,577.121,427.162,576.478,427.625z"/>
</g>
<g>
	<path fill="#363636" d="M582.749,425.846v-0.938c3.361-2.635,5.196-4.189,5.196-5.799c0-1.205-0.994-1.709-1.961-1.709
		c-1.121,0-1.989,0.475-2.535,1.176l-0.715-0.742c0.715-0.953,1.934-1.471,3.25-1.471c1.555,0,3.138,0.883,3.138,2.746
		c0,1.904-1.933,3.641-4.538,5.701h4.58v1.035H582.749z"/>
</g>
<g>
	<path fill="#363636" d="M590.785,421.182c0-2.283,1.008-4.818,3.571-4.818c2.55,0,3.572,2.535,3.572,4.818
		c0,2.27-1.022,4.832-3.572,4.832C591.793,426.014,590.785,423.451,590.785,421.182z M596.738,421.182
		c0-1.863-0.603-3.781-2.382-3.781c-1.778,0-2.381,1.918-2.381,3.781s0.603,3.797,2.381,3.797
		C596.136,424.979,596.738,423.045,596.738,421.182z"/>
	<path fill="#363636" d="M601.132,425.846v-7.816l-1.499,1.598l-0.7-0.715l2.34-2.408h1.022v9.342H601.132z"/>
	<path fill="#363636" d="M604.099,421.182c0-2.521,1.176-4.818,3.81-4.818c1.19,0,2.003,0.447,2.577,1.121l-0.588,0.867
		c-0.477-0.561-1.022-0.951-1.989-0.951c-1.821,0-2.634,1.834-2.634,3.67c0,0.125,0,0.238,0,0.363
		c0.406-0.645,1.443-1.457,2.647-1.457c1.682,0,3.054,0.994,3.054,2.984c0,1.611-1.232,3.053-3.264,3.053
		C605.093,426.014,604.099,423.73,604.099,421.182z M609.799,423.002c0-1.371-0.952-2.016-2.143-2.016
		c-0.938,0-1.835,0.574-2.34,1.387c0.099,1.162,0.715,2.605,2.34,2.605C609.099,424.979,609.799,423.885,609.799,423.002z"/>
</g>
<g>
	<path fill="#131413" d="M147.162,78.842l-0.827-2.087h-4.65l-0.826,2.087h-1.331l3.768-9.343h1.443l3.754,9.343H147.162z
		 M144.01,70.69l-1.975,5.042h3.964L144.01,70.69z"/>
</g>
<g>
	<path fill="#131413" d="M149.118,75.453c0-2.003,1.359-3.544,3.376-3.544c1.233,0,1.961,0.504,2.479,1.176l-0.701,0.63
		c-0.448-0.616-1.022-0.868-1.723-0.868c-1.429,0-2.339,1.106-2.339,2.605c0,1.499,0.911,2.619,2.339,2.619
		c0.7,0,1.274-0.28,1.723-0.882l0.701,0.644c-0.519,0.673-1.247,1.177-2.479,1.177C150.477,79.01,149.118,77.456,149.118,75.453z"/>
	<path fill="#131413" d="M156.664,77.428v-4.427h-1.121v-0.924h1.121v-1.849h1.064v1.849h1.373v0.924h-1.373v4.203
		c0,0.504,0.224,0.868,0.672,0.868c0.308,0,0.574-0.14,0.714-0.294l0.308,0.798c-0.266,0.252-0.644,0.434-1.247,0.434
		C157.168,79.01,156.664,78.436,156.664,77.428z"/>
	<path fill="#131413" d="M165.136,78.842V77.89c-0.519,0.588-1.401,1.121-2.41,1.121c-1.415,0-2.157-0.7-2.157-2.157v-4.776h1.05
		v4.455c0,1.19,0.603,1.541,1.527,1.541c0.812,0,1.597-0.476,1.989-1.022v-4.973h1.05v6.766H165.136z"/>
	<path fill="#131413" d="M172.514,78.842v-0.771c-0.546,0.616-1.331,0.938-2.241,0.938c-1.135,0-2.353-0.771-2.353-2.241
		c0-1.527,1.205-2.227,2.353-2.227c0.925,0,1.695,0.294,2.241,0.911v-1.219c0-0.896-0.729-1.415-1.709-1.415
		c-0.812,0-1.471,0.28-2.073,0.938l-0.491-0.728c0.729-0.756,1.597-1.121,2.704-1.121c1.443,0,2.62,0.644,2.62,2.283v4.65H172.514z
		 M172.514,77.414v-1.289c-0.406-0.546-1.121-0.827-1.849-0.827c-0.994,0-1.681,0.616-1.681,1.471c0,0.869,0.687,1.485,1.681,1.485
		C171.393,78.254,172.107,77.974,172.514,77.414z"/>
	<path fill="#131413" d="M175.676,78.842v-9.343h1.05v9.343H175.676z"/>
	<path fill="#131413" d="M181.933,77.525l0.701-0.896c0.602,0.701,1.611,1.345,2.927,1.345c1.667,0,2.199-0.896,2.199-1.625
		c0-2.41-5.533-1.065-5.533-4.398c0-1.541,1.373-2.605,3.222-2.605c1.415,0,2.521,0.49,3.306,1.316l-0.7,0.854
		c-0.701-0.784-1.681-1.121-2.704-1.121c-1.106,0-1.919,0.603-1.919,1.485c0,2.101,5.533,0.896,5.533,4.385
		c0,1.345-0.924,2.745-3.446,2.745C183.908,79.01,182.704,78.394,181.933,77.525z"/>
	<path fill="#131413" d="M195.236,78.842v-4.455c0-1.205-0.602-1.541-1.527-1.541c-0.812,0-1.597,0.504-1.989,1.05v4.945h-1.051
		v-9.343h1.051v3.558c0.462-0.574,1.387-1.148,2.409-1.148c1.415,0,2.157,0.686,2.157,2.157v4.776H195.236z"/>
	<path fill="#131413" d="M198.201,70.41c0-0.392,0.322-0.714,0.714-0.714c0.392,0,0.7,0.322,0.7,0.714s-0.308,0.7-0.7,0.7
		C198.523,71.11,198.201,70.802,198.201,70.41z M198.383,78.842v-6.766h1.05v6.766H198.383z"/>
	<path fill="#131413" d="M202.583,77.82v3.6h-1.05v-9.343h1.05v1.008c0.49-0.686,1.331-1.176,2.283-1.176
		c1.779,0,3.012,1.345,3.012,3.544c0,2.185-1.233,3.558-3.012,3.558C203.942,79.01,203.144,78.562,202.583,77.82z M206.772,75.453
		c0-1.499-0.812-2.605-2.171-2.605c-0.826,0-1.653,0.49-2.017,1.079v3.054c0.364,0.588,1.191,1.092,2.017,1.092
		C205.959,78.072,206.772,76.951,206.772,75.453z"/>
	<path fill="#131413" d="M210.591,77.82v3.6h-1.05v-9.343h1.05v1.008c0.49-0.686,1.331-1.176,2.283-1.176
		c1.779,0,3.012,1.345,3.012,3.544c0,2.185-1.233,3.558-3.012,3.558C211.95,79.01,211.152,78.562,210.591,77.82z M214.78,75.453
		c0-1.499-0.812-2.605-2.171-2.605c-0.826,0-1.653,0.49-2.017,1.079v3.054c0.364,0.588,1.191,1.092,2.017,1.092
		C213.967,78.072,214.78,76.951,214.78,75.453z"/>
	<path fill="#131413" d="M217.156,75.453c0-1.961,1.401-3.544,3.334-3.544c2.045,0,3.25,1.597,3.25,3.628v0.266h-5.463
		c0.084,1.274,0.967,2.339,2.423,2.339c0.785,0,1.555-0.309,2.101-0.869l0.504,0.687c-0.687,0.672-1.597,1.05-2.689,1.05
		C218.599,79.01,217.156,77.567,217.156,75.453z M220.476,72.777c-1.443,0-2.157,1.219-2.213,2.241h4.44
		C222.689,74.024,222.017,72.777,220.476,72.777z"/>
	<path fill="#131413" d="M230.333,78.842v-1.009c-0.504,0.687-1.331,1.177-2.283,1.177c-1.765,0-3.012-1.345-3.012-3.544
		c0-2.171,1.247-3.558,3.012-3.558c0.911,0,1.737,0.448,2.283,1.19v-3.6h1.051v9.343H230.333z M230.333,76.993v-3.054
		c-0.364-0.588-1.19-1.092-2.017-1.092c-1.373,0-2.185,1.121-2.185,2.619c0,1.499,0.812,2.605,2.185,2.605
		C229.143,78.072,229.969,77.582,230.333,76.993z"/>
</g>
<rect x="115.065" y="20.619" fill="#363636" width="16.226" height="16.224"/>
<rect x="115.065" y="65.139" fill="#00848F" width="16.226" height="16.224"/>
<rect x="572.33" y="30.246" fill="#363636" width="46.758" height="54.399"/>
<g>
	<path fill="#FFFFFF" d="M583.9,52.167V40.452l-2.247,2.394l-1.049-1.071l3.506-3.611h1.533v14.004H583.9z"/>
	<path fill="#FFFFFF" d="M588.353,45.176c0-3.422,1.512-7.223,5.354-7.223c3.821,0,5.354,3.8,5.354,7.223
		c0,3.401-1.533,7.244-5.354,7.244C589.864,52.419,588.353,48.577,588.353,45.176z M597.276,45.176c0-2.792-0.902-5.669-3.569-5.669
		s-3.569,2.876-3.569,5.669s0.902,5.69,3.569,5.69S597.276,47.968,597.276,45.176z"/>
	<path fill="#FFFFFF" d="M601.226,48.619c0-1.869,1.596-3.149,3.338-3.674c-1.616-0.462-3.107-1.533-3.107-3.359
		c0-2.52,2.457-3.632,4.787-3.632c2.311,0,4.809,1.113,4.809,3.632c0,1.827-1.512,2.897-3.129,3.359
		c1.743,0.525,3.339,1.806,3.339,3.674c0,2.373-2.268,3.8-5.019,3.8C603.472,52.419,601.226,51.013,601.226,48.619z M609.498,48.43
		c0-1.827-2.394-2.604-3.255-2.708c-0.86,0.105-3.254,0.882-3.254,2.708c0,1.512,1.512,2.436,3.254,2.436
		C607.966,50.866,609.498,49.942,609.498,48.43z M609.288,41.816c0-1.449-1.365-2.31-3.045-2.31c-1.7,0-3.023,0.861-3.023,2.31
		c0,1.701,2.184,2.268,3.023,2.415C607.104,44.084,609.288,43.517,609.288,41.816z"/>
</g>
</svg>
