<?xml version="1.0" encoding="utf-8"?>
<!-- Generator: Adobe Illustrator 19.0.0, SVG Export Plug-In . SVG Version: 6.00 Build 0)  -->
<svg version="1.1" id="Layer_1" xmlns="http://www.w3.org/2000/svg" xmlns:xlink="http://www.w3.org/1999/xlink" x="0px" y="0px"
	 viewBox="0 0 220 163.1" style="enable-background:new 0 0 220 163.1;" xml:space="preserve">
<style type="text/css">
	.st0{fill:#008590;}
	.st1{fill:#FFFFFF;}
</style>
<rect x="0" class="st0" width="220" height="163.1"/>
<g>
	<path class="st1" d="M15.5,19.4c0-2.1,1.6-3.4,3.6-3.4c1.6,0,2.5,0.9,2.9,1.8l-1.5,0.7c-0.2-0.5-0.8-1-1.4-1
		c-1.1,0-1.9,0.8-1.9,1.9c0,1.1,0.8,1.9,1.9,1.9c0.6,0,1.2-0.4,1.4-1l1.5,0.7c-0.4,0.8-1.3,1.8-2.9,1.8C17,22.9,15.5,21.5,15.5,19.4
		z"/>
	<path class="st1" d="M27.2,22.7l-0.3-1h-2.6l-0.3,1h-1.9l2.5-6.7h2.2l2.5,6.7H27.2z M25.5,17.8l-0.8,2.5h1.7L25.5,17.8z"/>
	<path class="st1" d="M33.3,22.7l-1.1-2.2h-0.9v2.2h-1.7v-6.7H33c1.5,0,2.3,1,2.3,2.2c0,1.2-0.7,1.8-1.3,2l1.4,2.4H33.3z M33.5,18.3
		c0-0.5-0.4-0.7-0.8-0.7h-1.4V19h1.4C33.2,19,33.5,18.7,33.5,18.3z"/>
	<path class="st1" d="M35.9,19.4c0-2.1,1.6-3.4,3.6-3.4c1.5,0,2.4,0.8,2.8,1.6l-1.4,0.7c-0.2-0.4-0.8-0.8-1.4-0.8
		c-1.1,0-1.9,0.8-1.9,1.9c0,1.1,0.8,1.9,1.9,1.9c0.5,0,1-0.2,1.2-0.4v-0.5h-1.5v-1.5h3.2v2.6c-0.7,0.8-1.7,1.3-2.9,1.3
		C37.5,22.9,35.9,21.5,35.9,19.4z"/>
	<path class="st1" d="M47.9,22.7l-0.3-1h-2.6l-0.3,1h-1.9l2.5-6.7h2.2l2.5,6.7H47.9z M46.3,17.8l-0.8,2.5h1.7L46.3,17.8z"/>
	<path class="st1" d="M50.1,18.8c0-0.5,0.4-0.9,0.9-0.9s0.9,0.4,0.9,0.9s-0.4,0.9-0.9,0.9S50.1,19.3,50.1,18.8z M50.1,21.9
		c0-0.5,0.4-0.9,0.9-0.9s0.9,0.4,0.9,0.9c0,0.5-0.4,0.9-0.9,0.9S50.1,22.4,50.1,21.9z"/>
	<path class="st1" d="M16.6,84.5L24.4,74c4.4,4.2,11,6.2,16.2,6.2c6.6,0,10-2.5,10-5.8c0-3.4-2.5-5.1-10.6-5.1c-2.6,0-7.1,0.1-8,0.2
		V56c1.2,0.1,5.8,0.1,8,0.1c6.1,0,9.6-1.5,9.6-4.6c0-3.7-4.3-5.4-10-5.4c-5.4,0-10.6,2-14.8,5.7l-7.4-9.6c5.1-5.6,12.8-9.6,23.8-9.6
		c15.1,0,23.6,6.5,23.6,16.3c0,6.9-6,12.2-13,13.4c6.3,0.6,14,5.5,14,14.1c0,10.4-9.8,17.6-24.6,17.6C29.8,93.8,21.4,89.8,16.6,84.5
		z"/>
	<path class="st1" d="M68,85.3c0-4.5,3.9-8.3,8.5-8.3s8.4,3.8,8.4,8.3c0,4.5-3.8,8.4-8.4,8.4S68,89.9,68,85.3z"/>
	<path class="st1" d="M87.3,92.7V80.8c25.7-18.6,30.5-22.7,30.5-28.7c0-4-3.8-6.1-8.2-6.1c-6.6,0-11.6,2.5-15.8,6.5l-8.5-10.1
		c6.3-6.9,15.8-9.9,24-9.9c14,0,24,7.8,24,19.7c0,9.2-6.5,16.9-21.3,27.2h21.7v13.4H87.3z"/>
	<path class="st1" d="M193.9,92.7V66.6c0-3.3-1.6-5.8-5.7-5.8c-3.7,0-6.4,2.4-7.7,4.2v27.8h-13.7V66.6c0-3.3-1.5-5.8-5.6-5.8
		c-3.7,0-6.3,2.4-7.7,4.2v27.8h-13.7v-43h13.7V55c1.9-2.5,7.4-6.3,14.2-6.3c6.2,0,10.4,2.6,12.2,7.7c2.5-3.7,8.1-7.7,14.9-7.7
		c7.9,0,12.9,4.1,12.9,12.9v31.2H193.9z"/>
	<path class="st1" d="M19,110.7v4.3h-2.8v-12H19v1c0.7-0.8,1.6-1.2,2.6-1.2c2.2,0,3.8,1.6,3.8,4.6c0,3-1.6,4.6-3.8,4.6
		C20.6,111.9,19.7,111.6,19,110.7z M22.6,107.4c0-1.3-0.8-2.1-1.9-2.1c-0.6,0-1.3,0.3-1.7,0.8v2.6c0.3,0.4,1.1,0.8,1.7,0.8
		C21.7,109.5,22.6,108.7,22.6,107.4z"/>
	<path class="st1" d="M26.3,107.4c0-2.5,1.9-4.6,4.6-4.6c2.6,0,4.4,1.9,4.4,4.8v0.6h-6.2c0.2,0.8,0.9,1.4,2.2,1.4
		c0.6,0,1.6-0.3,2.1-0.7l1.2,1.8c-0.9,0.8-2.3,1.2-3.6,1.2C28.3,111.9,26.3,110.2,26.3,107.4z M30.9,105.1c-1.2,0-1.7,0.7-1.8,1.4
		h3.6C32.6,105.8,32.1,105.1,30.9,105.1z"/>
	<path class="st1" d="M36.7,111.7V103h2.8v1.1c0.6-0.7,1.7-1.3,2.7-1.3v2.7c-0.2-0.1-0.4-0.1-0.7-0.1c-0.7,0-1.7,0.3-2,0.8v5.5H36.7
		z"/>
	<path class="st1" d="M42.7,110.6l1.2-2c0.6,0.6,2,1.2,3.1,1.2c0.8,0,1.2-0.2,1.2-0.6c0-1.1-5.1,0-5.1-3.5c0-1.5,1.3-2.9,3.7-2.9
		c1.5,0,2.7,0.5,3.6,1.2l-1.1,2c-0.5-0.5-1.5-1-2.6-1c-0.6,0-1.1,0.3-1.1,0.6c0,1,5,0,5,3.5c0,1.7-1.5,2.8-3.9,2.8
		C45.2,111.9,43.6,111.4,42.7,110.6z"/>
	<path class="st1" d="M51.6,107.4c0-2.4,1.8-4.6,4.7-4.6c3,0,4.8,2.1,4.8,4.6c0,2.4-1.8,4.6-4.8,4.6
		C53.4,111.9,51.6,109.8,51.6,107.4z M58.2,107.4c0-1.2-0.7-2.1-1.9-2.1c-1.2,0-1.9,1-1.9,2.1c0,1.2,0.7,2.1,1.9,2.1
		C57.5,109.5,58.2,108.5,58.2,107.4z"/>
	<path class="st1" d="M68.4,111.7v-5c0-1.1-0.6-1.4-1.4-1.4c-0.8,0-1.4,0.5-1.7,0.8v5.6h-2.8V103h2.8v1.1c0.5-0.6,1.5-1.3,3-1.3
		c2,0,2.9,1.2,2.9,2.8v6.2H68.4z"/>
	<path class="st1" d="M78.3,111.7v-0.9c-0.5,0.6-1.6,1.1-2.7,1.1c-1.3,0-3-0.9-3-2.9c0-2.1,1.7-2.8,3-2.8c1.2,0,2.2,0.4,2.7,1v-0.9
		c0-0.8-0.6-1.3-1.8-1.3c-0.9,0-1.7,0.3-2.4,0.9l-1-1.9c1.1-1,2.6-1.4,3.9-1.4c2.1,0,4.1,0.8,4.1,3.5v5.4H78.3z M78.3,109.5v-0.8
		c-0.3-0.4-0.9-0.6-1.5-0.6c-0.7,0-1.4,0.3-1.4,1c0,0.7,0.7,1,1.4,1C77.4,110.1,78,109.9,78.3,109.5z"/>
	<path class="st1" d="M82.4,110.6l1.2-2c0.6,0.6,2,1.2,3.1,1.2c0.8,0,1.2-0.2,1.2-0.6c0-1.1-5.1,0-5.1-3.5c0-1.5,1.3-2.9,3.7-2.9
		c1.5,0,2.7,0.5,3.6,1.2l-1.1,2c-0.5-0.5-1.5-1-2.6-1c-0.6,0-1.1,0.3-1.1,0.6c0,1,5,0,5,3.5c0,1.7-1.5,2.8-3.9,2.8
		C84.9,111.9,83.3,111.4,82.4,110.6z"/>
	<path class="st1" d="M102.3,111.7v-5c0-1.1-0.6-1.4-1.4-1.4c-0.8,0-1.4,0.5-1.7,0.8v5.6h-2.8V103h2.8v1.1c0.5-0.6,1.5-1.3,3-1.3
		c2,0,2.9,1.2,2.9,2.8v6.2H102.3z"/>
	<path class="st1" d="M106.5,107.4c0-2.5,1.9-4.6,4.6-4.6c2.6,0,4.4,1.9,4.4,4.8v0.6h-6.2c0.2,0.8,0.9,1.4,2.2,1.4
		c0.6,0,1.6-0.3,2.1-0.7l1.2,1.8c-0.9,0.8-2.3,1.2-3.6,1.2C108.6,111.9,106.5,110.2,106.5,107.4z M111.1,105.1
		c-1.2,0-1.7,0.7-1.8,1.4h3.6C112.9,105.8,112.4,105.1,111.1,105.1z"/>
	<path class="st1" d="M116.4,107.4c0-2.7,2-4.6,4.7-4.6c1.9,0,3,0.8,3.6,1.6l-1.8,1.7c-0.3-0.5-0.9-0.8-1.6-0.8c-1.2,0-2,0.8-2,2.1
		s0.9,2.1,2,2.1c0.7,0,1.3-0.4,1.6-0.8l1.8,1.7c-0.5,0.8-1.7,1.6-3.6,1.6C118.4,111.9,116.4,110.1,116.4,107.4z"/>
	<path class="st1" d="M125.4,107.4c0-2.5,1.9-4.6,4.6-4.6c2.6,0,4.4,1.9,4.4,4.8v0.6h-6.2c0.2,0.8,0.9,1.4,2.2,1.4
		c0.6,0,1.6-0.3,2.1-0.7l1.2,1.8c-0.9,0.8-2.3,1.2-3.6,1.2C127.5,111.9,125.4,110.2,125.4,107.4z M130,105.1c-1.2,0-1.7,0.7-1.8,1.4
		h3.6C131.7,105.8,131.3,105.1,130,105.1z"/>
	<path class="st1" d="M135.1,110.6l1.2-2c0.6,0.6,2,1.2,3.1,1.2c0.8,0,1.2-0.2,1.2-0.6c0-1.1-5.1,0-5.1-3.5c0-1.5,1.3-2.9,3.7-2.9
		c1.5,0,2.7,0.5,3.6,1.2l-1.1,2c-0.5-0.5-1.5-1-2.6-1c-0.6,0-1.1,0.3-1.1,0.6c0,1,5,0,5,3.5c0,1.7-1.5,2.8-3.9,2.8
		C137.6,111.9,136,111.4,135.1,110.6z"/>
	<path class="st1" d="M144.3,100.7c0-0.9,0.7-1.6,1.6-1.6c0.9,0,1.6,0.7,1.6,1.6c0,0.9-0.7,1.6-1.6,1.6
		C145,102.3,144.3,101.5,144.3,100.7z M144.5,111.7V103h2.8v8.7H144.5z"/>
	<path class="st1" d="M149.9,109.4v-4h-1.4V103h1.4v-2.4h2.8v2.4h1.8v2.4h-1.8v3.2c0,0.5,0.3,0.9,0.8,0.9c0.3,0,0.6-0.1,0.7-0.2
		l0.5,2.1c-0.3,0.3-1,0.6-2.1,0.6C150.9,111.9,149.9,111.1,149.9,109.4z"/>
	<path class="st1" d="M160.9,111.7v-0.9c-0.5,0.6-1.6,1.1-2.7,1.1c-1.3,0-3-0.9-3-2.9c0-2.1,1.7-2.8,3-2.8c1.2,0,2.2,0.4,2.7,1v-0.9
		c0-0.8-0.6-1.3-1.8-1.3c-0.9,0-1.7,0.3-2.4,0.9l-1-1.9c1.1-1,2.6-1.4,3.9-1.4c2.1,0,4.1,0.8,4.1,3.5v5.4H160.9z M160.9,109.5v-0.8
		c-0.3-0.4-0.9-0.6-1.5-0.6c-0.7,0-1.4,0.3-1.4,1c0,0.7,0.7,1,1.4,1C160,110.1,160.6,109.9,160.9,109.5z"/>
	<path class="st1" d="M171.6,111.7v-5c0-1.1-0.6-1.4-1.4-1.4c-0.8,0-1.4,0.5-1.7,0.8v5.6h-2.8V103h2.8v1.1c0.5-0.6,1.5-1.3,3-1.3
		c2,0,2.9,1.2,2.9,2.8v6.2H171.6z"/>
	<path class="st1" d="M15.7,126.4c0-2.7,2-4.6,4.7-4.6c1.9,0,3,0.8,3.6,1.6l-1.8,1.7c-0.3-0.5-0.9-0.8-1.6-0.8c-1.2,0-2,0.8-2,2.1
		s0.9,2.1,2,2.1c0.7,0,1.3-0.4,1.6-0.8l1.8,1.7c-0.5,0.8-1.7,1.6-3.6,1.6C17.7,130.9,15.7,129.1,15.7,126.4z"/>
	<path class="st1" d="M25,119.7c0-0.9,0.7-1.6,1.6-1.6c0.9,0,1.6,0.7,1.6,1.6c0,0.9-0.7,1.6-1.6,1.6C25.7,121.3,25,120.5,25,119.7z
		 M25.2,130.7V122H28v8.7H25.2z"/>
	<path class="st1" d="M30,130.7V122h2.8v1.1c0.6-0.7,1.7-1.3,2.7-1.3v2.7c-0.2-0.1-0.4-0.1-0.7-0.1c-0.7,0-1.7,0.3-2,0.8v5.5H30z"/>
	<path class="st1" d="M42.6,130.7v-1c-0.5,0.6-1.5,1.3-3,1.3c-2,0-2.9-1.1-2.9-2.7V122h2.8v5c0,1.1,0.5,1.4,1.4,1.4
		c0.8,0,1.3-0.4,1.7-0.8V122h2.8v8.7H42.6z"/>
	<path class="st1" d="M47.2,133l1.2-1.9c0.7,0.7,1.6,1,2.6,1c0.9,0,2.2-0.4,2.2-2.1v-0.7c-0.7,0.9-1.6,1.3-2.6,1.3
		c-2.1,0-3.8-1.5-3.8-4.4c0-2.9,1.6-4.4,3.8-4.4c1,0,1.9,0.4,2.6,1.2v-1H56v7.9c0,3.5-2.8,4.3-5,4.3C49.5,134.3,48.3,133.9,47.2,133
		z M53.2,127.4V125c-0.3-0.5-1.1-0.8-1.7-0.8c-1.1,0-1.9,0.7-1.9,1.9c0,1.3,0.8,1.9,1.9,1.9C52.2,128.1,52.9,127.8,53.2,127.4z"/>
	<path class="st1" d="M59.7,120.7h-1.9l2.3-2.6h2.4L59.7,120.7z M58,130.7V122h2.8v8.7H58z"/>
	<path class="st1" d="M68,130.7v-0.9c-0.5,0.6-1.6,1.1-2.7,1.1c-1.3,0-3-0.9-3-2.9c0-2.1,1.7-2.8,3-2.8c1.2,0,2.2,0.4,2.7,1v-0.9
		c0-0.8-0.6-1.3-1.8-1.3c-0.9,0-1.7,0.3-2.4,0.9l-1-1.9c1.1-1,2.6-1.4,3.9-1.4c2.1,0,4.1,0.8,4.1,3.5v5.4H68z M68,128.5v-0.8
		c-0.3-0.4-0.9-0.6-1.5-0.6c-0.7,0-1.4,0.3-1.4,1c0,0.7,0.7,1,1.4,1C67,129.1,67.7,128.9,68,128.5z"/>
	<path class="st1" d="M80.1,129.7v4.3h-2.8v-12h2.8v1c0.7-0.8,1.6-1.2,2.6-1.2c2.2,0,3.8,1.6,3.8,4.6c0,3-1.6,4.6-3.8,4.6
		C81.7,130.9,80.8,130.6,80.1,129.7z M83.7,126.4c0-1.3-0.8-2.1-1.9-2.1c-0.6,0-1.3,0.3-1.7,0.8v2.6c0.3,0.4,1.1,0.8,1.7,0.8
		C82.9,128.5,83.7,127.7,83.7,126.4z"/>
	<path class="st1" d="M93.1,130.7v-0.9c-0.5,0.6-1.6,1.1-2.7,1.1c-1.3,0-3-0.9-3-2.9c0-2.1,1.7-2.8,3-2.8c1.2,0,2.2,0.4,2.7,1v-0.9
		c0-0.8-0.6-1.3-1.8-1.3c-0.9,0-1.7,0.3-2.4,0.9l-1-1.9c1.1-1,2.6-1.4,3.9-1.4c2.1,0,4.1,0.8,4.1,3.5v5.4H93.1z M93.1,128.5v-0.8
		c-0.3-0.4-0.9-0.6-1.5-0.6c-0.7,0-1.4,0.3-1.4,1c0,0.7,0.7,1,1.4,1C92.1,129.1,92.8,128.9,93.1,128.5z"/>
	<path class="st1" d="M97.9,130.7V122h2.8v1.1c0.6-0.7,1.7-1.3,2.7-1.3v2.7c-0.2-0.1-0.4-0.1-0.7-0.1c-0.7,0-1.7,0.3-2,0.8v5.5H97.9
		z"/>
	<path class="st1" d="M109.7,130.7v-0.9c-0.5,0.6-1.6,1.1-2.7,1.1c-1.3,0-3-0.9-3-2.9c0-2.1,1.7-2.8,3-2.8c1.2,0,2.2,0.4,2.7,1v-0.9
		c0-0.8-0.6-1.3-1.8-1.3c-0.9,0-1.7,0.3-2.4,0.9l-1-1.9c1.1-1,2.6-1.4,3.9-1.4c2.1,0,4.1,0.8,4.1,3.5v5.4H109.7z M109.7,128.5v-0.8
		c-0.3-0.4-0.9-0.6-1.5-0.6c-0.7,0-1.4,0.3-1.4,1c0,0.7,0.7,1,1.4,1C108.8,129.1,109.5,128.9,109.7,128.5z"/>
	<path class="st1" d="M118.6,126.4c0-2.5,1.9-4.6,4.6-4.6c2.6,0,4.4,1.9,4.4,4.8v0.6h-6.2c0.2,0.8,0.9,1.4,2.2,1.4
		c0.6,0,1.6-0.3,2.1-0.7l1.2,1.8c-0.9,0.8-2.3,1.2-3.6,1.2C120.6,130.9,118.6,129.2,118.6,126.4z M123.2,124.1
		c-1.2,0-1.7,0.7-1.8,1.4h3.6C124.9,124.8,124.5,124.1,123.2,124.1z"/>
	<path class="st1" d="M131.2,130.7l-3.4-8.7h2.9l2,5.5l2-5.5h2.9l-3.4,8.7H131.2z"/>
	<path class="st1" d="M138.2,119.7c0-0.9,0.7-1.6,1.6-1.6c0.9,0,1.6,0.7,1.6,1.6c0,0.9-0.7,1.6-1.6,1.6
		C138.9,121.3,138.2,120.5,138.2,119.7z M138.4,130.7V122h2.8v8.7H138.4z"/>
	<path class="st1" d="M143.8,128.4v-4h-1.4V122h1.4v-2.4h2.8v2.4h1.8v2.4h-1.8v3.2c0,0.5,0.3,0.9,0.8,0.9c0.3,0,0.6-0.1,0.7-0.2
		l0.5,2.1c-0.3,0.3-1,0.6-2.1,0.6C144.8,130.9,143.8,130.1,143.8,128.4z"/>
	<path class="st1" d="M154.8,130.7v-0.9c-0.5,0.6-1.6,1.1-2.7,1.1c-1.3,0-3-0.9-3-2.9c0-2.1,1.7-2.8,3-2.8c1.2,0,2.2,0.4,2.7,1v-0.9
		c0-0.8-0.6-1.3-1.8-1.3c-0.9,0-1.7,0.3-2.4,0.9l-1-1.9c1.1-1,2.6-1.4,3.9-1.4c2.1,0,4.1,0.8,4.1,3.5v5.4H154.8z M154.8,128.5v-0.8
		c-0.3-0.4-0.9-0.6-1.5-0.6c-0.7,0-1.4,0.3-1.4,1c0,0.7,0.7,1,1.4,1C153.9,129.1,154.5,128.9,154.8,128.5z"/>
	<path class="st1" d="M159.6,130.7V122h2.8v1.1c0.6-0.7,1.7-1.3,2.7-1.3v2.7c-0.2-0.1-0.4-0.1-0.7-0.1c-0.7,0-1.7,0.3-2,0.8v5.5
		H159.6z"/>
	<path class="st1" d="M16.2,149.7v-12H19v12H16.2z"/>
	<path class="st1" d="M26.1,149.7v-0.9c-0.5,0.6-1.6,1.1-2.7,1.1c-1.3,0-3-0.9-3-2.9c0-2.1,1.7-2.8,3-2.8c1.2,0,2.2,0.4,2.7,1v-0.9
		c0-0.8-0.6-1.3-1.8-1.3c-0.9,0-1.7,0.3-2.4,0.9l-1-1.9c1.1-1,2.6-1.4,3.9-1.4c2.1,0,4.1,0.8,4.1,3.5v5.4H26.1z M26.1,147.5v-0.8
		c-0.3-0.4-0.9-0.6-1.5-0.6c-0.7,0-1.4,0.3-1.4,1c0,0.7,0.7,1,1.4,1C25.2,148.1,25.8,147.9,26.1,147.5z"/>
	<path class="st1" d="M35,145.4c0-2.7,2-4.6,4.7-4.6c1.9,0,3,0.8,3.6,1.6l-1.8,1.7c-0.3-0.5-0.9-0.8-1.6-0.8c-1.2,0-2,0.8-2,2.1
		s0.9,2.1,2,2.1c0.7,0,1.3-0.4,1.6-0.8l1.8,1.7c-0.5,0.8-1.7,1.6-3.6,1.6C37,149.9,35,148.1,35,145.4z"/>
	<path class="st1" d="M44,145.4c0-2.5,1.9-4.6,4.6-4.6c2.6,0,4.4,1.9,4.4,4.8v0.6h-6.2c0.2,0.8,0.9,1.4,2.2,1.4
		c0.6,0,1.6-0.3,2.1-0.7l1.2,1.8c-0.9,0.8-2.3,1.2-3.6,1.2C46,149.9,44,148.2,44,145.4z M48.6,143.1c-1.2,0-1.7,0.7-1.8,1.4h3.6
		C50.3,143.8,49.9,143.1,48.6,143.1z"/>
	<path class="st1" d="M54.2,152l1.2-1.9c0.7,0.7,1.6,1,2.6,1c0.9,0,2.2-0.4,2.2-2.1v-0.7c-0.7,0.9-1.6,1.3-2.6,1.3
		c-2.1,0-3.8-1.5-3.8-4.4c0-2.9,1.6-4.4,3.8-4.4c1,0,1.9,0.4,2.6,1.2v-1H63v7.9c0,3.5-2.8,4.3-5,4.3C56.5,153.3,55.3,152.9,54.2,152
		z M60.2,146.4V144c-0.3-0.5-1.1-0.8-1.7-0.8c-1.1,0-1.9,0.7-1.9,1.9c0,1.3,0.8,1.9,1.9,1.9C59.1,147.1,59.9,146.8,60.2,146.4z"/>
	<path class="st1" d="M70.9,149.7v-1c-0.5,0.6-1.5,1.3-3,1.3c-2,0-2.9-1.1-2.9-2.7V141h2.8v5c0,1.1,0.5,1.4,1.4,1.4
		c0.8,0,1.3-0.4,1.7-0.8V141h2.8v8.7H70.9z"/>
	<path class="st1" d="M75.1,145.4c0-2.5,1.9-4.6,4.6-4.6c2.6,0,4.4,1.9,4.4,4.8v0.6H78c0.2,0.8,0.9,1.4,2.2,1.4
		c0.6,0,1.6-0.3,2.1-0.7l1.2,1.8c-0.9,0.8-2.3,1.2-3.6,1.2C77.2,149.9,75.1,148.2,75.1,145.4z M79.7,143.1c-1.2,0-1.7,0.7-1.8,1.4
		h3.6C81.5,143.8,81,143.1,79.7,143.1z"/>
	<path class="st1" d="M85.5,149.7V141h2.8v1.1c0.6-0.7,1.7-1.3,2.7-1.3v2.7c-0.2-0.1-0.4-0.1-0.7-0.1c-0.7,0-1.7,0.3-2,0.8v5.5H85.5
		z"/>
	<path class="st1" d="M97.4,149.7v-0.9c-0.5,0.6-1.6,1.1-2.7,1.1c-1.3,0-3-0.9-3-2.9c0-2.1,1.7-2.8,3-2.8c1.2,0,2.2,0.4,2.7,1v-0.9
		c0-0.8-0.6-1.3-1.8-1.3c-0.9,0-1.7,0.3-2.4,0.9l-1-1.9c1.1-1,2.6-1.4,3.9-1.4c2.1,0,4.1,0.8,4.1,3.5v5.4H97.4z M97.4,147.5v-0.8
		c-0.3-0.4-0.9-0.6-1.5-0.6c-0.7,0-1.4,0.3-1.4,1c0,0.7,0.7,1,1.4,1C96.5,148.1,97.1,147.9,97.4,147.5z"/>
</g>
</svg>
