<?xml version="1.0" encoding="utf-8"?>
<!-- Generator: Adobe Illustrator 19.0.0, SVG Export Plug-In . SVG Version: 6.00 Build 0)  -->
<svg version="1.1" id="Layer_1" xmlns="http://www.w3.org/2000/svg" xmlns:xlink="http://www.w3.org/1999/xlink" x="0px" y="0px"
	 viewBox="0 0 220 173.3" style="enable-background:new 0 0 220 173.3;" xml:space="preserve">
<style type="text/css">
	.st0{fill:#008590;}
	.st1{fill:#FFFFFF;}
</style>
<rect x="0" class="st0" width="220" height="173.3"/>
<g>
	<path class="st1" d="M15.8,22.7v-6.7h4.9v1.5h-3.2v1h3.1v1.5h-3.1v1.1h3.2v1.5H15.8z"/>
	<path class="st1" d="M21.2,21.8l0.9-1.3c0.5,0.5,1.2,0.9,2.1,0.9c0.6,0,0.9-0.2,0.9-0.5c0-0.9-3.8-0.2-3.8-2.7
		c0-1.1,0.9-2.1,2.6-2.1c1.1,0,2,0.3,2.7,0.9l-0.9,1.3c-0.6-0.5-1.3-0.7-1.9-0.7c-0.5,0-0.7,0.2-0.7,0.5c0,0.8,3.8,0.2,3.8,2.7
		c0,1.3-1,2.2-2.8,2.2C22.8,22.9,21.9,22.4,21.2,21.8z"/>
	<path class="st1" d="M29.1,22.7v-5.2h-1.9v-1.5h5.4v1.5h-1.9v5.2H29.1z"/>
	<path class="st1" d="M33.5,22.7v-6.7h1.7v6.7H33.5z"/>
	<path class="st1" d="M42.2,22.7v-4.4l-1.7,4.4h-0.8l-1.7-4.4v4.4h-1.7v-6.7h2.4l1.4,3.7l1.4-3.7H44v6.7H42.2z"/>
	<path class="st1" d="M49.7,22.7l-0.3-1h-2.6l-0.3,1h-1.9l2.5-6.7h2.2l2.5,6.7H49.7z M48.1,17.8l-0.8,2.5h1.7L48.1,17.8z"/>
	<path class="st1" d="M52.1,22.7v-6.7h2.8c2.1,0,3.6,1.3,3.6,3.3s-1.5,3.3-3.6,3.3H52.1z M56.8,19.4c0-1-0.6-1.8-1.8-1.8h-1.1v3.7
		h1.1C56.1,21.2,56.8,20.4,56.8,19.4z"/>
	<path class="st1" d="M59.1,19.4c0-2,1.5-3.4,3.6-3.4c2,0,3.6,1.4,3.6,3.4s-1.5,3.4-3.6,3.4C60.6,22.9,59.1,21.4,59.1,19.4z
		 M64.4,19.4c0-1.1-0.7-1.9-1.8-1.9c-1.1,0-1.8,0.8-1.8,1.9c0,1.1,0.7,1.9,1.8,1.9C63.7,21.3,64.4,20.5,64.4,19.4z"/>
	<path class="st1" d="M66.9,18.8c0-0.5,0.4-0.9,0.9-0.9s0.9,0.4,0.9,0.9s-0.4,0.9-0.9,0.9S66.9,19.3,66.9,18.8z M66.9,21.9
		c0-0.5,0.4-0.9,0.9-0.9s0.9,0.4,0.9,0.9c0,0.5-0.4,0.9-0.9,0.9S66.9,22.4,66.9,21.9z"/>
</g>
<g>
	<path class="st1" d="M16,56.4V34.6h9.6v21.5c0,4.3,2.6,7.5,7.8,7.5c5.1,0,7.7-3.1,7.7-7.5V34.6h9.6v21.8c0,9.1-5.5,15.6-17.3,15.6
		S16,65.4,16,56.4z"/>
	<path class="st1" d="M51.9,66.1l5-7.4c2.6,2.6,6.7,4.8,11.8,4.8c3.2,0,5.2-1.1,5.2-2.9c0-4.8-20.7-0.8-20.7-15
		c0-6.2,5.2-11.7,14.6-11.7c5.9,0,11,1.8,14.9,5.1l-5.2,7.1c-3.1-2.6-7.1-3.8-10.7-3.8c-2.8,0-4,0.9-4,2.5c0,4.5,20.7,1.1,20.7,14.7
		c0,7.4-5.4,12.3-15.3,12.3C60.8,71.9,55.6,69.6,51.9,66.1z"/>
	<path class="st1" d="M96.3,71.8c-5.8-0.6-10.1-2.7-13.2-5.7l5-7.4c2,2,4.8,3.7,8.2,4.5v-6.1c-5.7-1.3-12-3.6-12-11.4
		c0-5.6,4.2-10.6,12-11.5V29h6.1v5.2c4.4,0.6,8.2,2.3,11.4,4.9l-5.2,7.1c-1.9-1.5-4-2.6-6.2-3.2v5.3c5.7,1.3,12.3,3.6,12.3,11.3
		c0,6.6-4.3,11.2-12.3,12.1v5h-6.1V71.8z M96.3,47v-4.4c-1.6,0.3-2.4,1.2-2.4,2.4C94,45.9,94.9,46.5,96.3,47z M102.4,58.5v4.8
		c1.6-0.4,2.6-1.4,2.6-2.6C105.1,59.6,104,58.9,102.4,58.5z"/>
	<path class="st1" d="M125.3,71.3V46.7l-6.2,6.2l-5.4-5.7l12.8-12.6h8.2v36.7H125.3z"/>
	<path class="st1" d="M171.8,71.3V55.1c0-2-1-3.6-3.5-3.6c-2.3,0-4,1.5-4.8,2.6v17.2h-8.5V55.1c0-2-0.9-3.6-3.5-3.6
		c-2.3,0-3.9,1.5-4.8,2.6v17.2h-8.5V44.7h8.5v3.2c1.2-1.5,4.6-3.9,8.7-3.9c3.8,0,6.4,1.6,7.5,4.7c1.5-2.3,5-4.7,9.2-4.7
		c4.9,0,8,2.5,8,8v19.2H171.8z"/>
	<path class="st1" d="M183.1,37.4c0-2.7,2.1-4.8,4.8-4.8c2.7,0,4.9,2.1,4.9,4.8c0,2.7-2.2,4.9-4.9,4.9
		C185.3,42.3,183.1,40.1,183.1,37.4z M183.7,71.3V44.7h8.5v26.6H183.7z"/>
	<path class="st1" d="M195.6,71.3V34.6h8.5v36.7H195.6z"/>
	<path class="st1" d="M49.3,121.3v-16.2c0-2-1-3.6-3.5-3.6c-2.3,0-4,1.5-4.8,2.6v17.2h-8.5v-16.2c0-2-0.9-3.6-3.5-3.6
		c-2.3,0-3.9,1.5-4.8,2.6v17.2h-8.5V94.7h8.5v3.2c1.2-1.5,4.6-3.9,8.7-3.9c3.8,0,6.4,1.6,7.5,4.7c1.5-2.3,5-4.7,9.2-4.7
		c4.9,0,8,2.5,8,8v19.2H49.3z"/>
	<path class="st1" d="M60.6,87.4c0-2.7,2.1-4.8,4.8-4.8s4.9,2.1,4.9,4.8s-2.2,4.9-4.9,4.9S60.6,90.1,60.6,87.4z M61.2,121.3V94.7
		h8.5v26.6H61.2z"/>
	<path class="st1" d="M73.1,121.3V84.6h8.5v36.7H73.1z"/>
	<path class="st1" d="M85,121.3V84.6h8.5v36.7H85z"/>
	<path class="st1" d="M95.1,108c0-7.5,5.4-13.9,14.4-13.9c9.1,0,14.5,6.4,14.5,13.9c0,7.5-5.4,14-14.5,14
		C100.5,121.9,95.1,115.4,95.1,108z M115.4,108c0-3.5-2.1-6.4-5.8-6.4c-3.6,0-5.7,2.9-5.7,6.4c0,3.6,2.1,6.5,5.7,6.5
		C113.3,114.4,115.4,111.5,115.4,108z"/>
	<path class="st1" d="M143.7,121.3v-15.3c0-3.2-1.7-4.4-4.3-4.4c-2.5,0-4.2,1.4-5.2,2.6v17.2h-8.5V94.7h8.5v3.2
		c1.6-1.9,4.7-3.9,9.2-3.9c6,0,8.7,3.5,8.7,8.4v18.8H143.7z"/>
	<path class="st1" d="M153.9,108c0-7.7,5.8-13.9,14.1-13.9c7.9,0,13.6,5.8,13.6,14.8v1.9h-18.9c0.6,2.4,2.8,4.3,6.7,4.3
		c1.9,0,4.9-0.8,6.5-2.3l3.7,5.6c-2.6,2.4-7,3.5-11.1,3.5C160.2,121.9,153.9,116.6,153.9,108z M168,100.9c-3.7,0-5.1,2.2-5.4,4.1
		h10.9C173.3,103.1,171.9,100.9,168,100.9z"/>
	<path class="st1" d="M180.8,117.8l3.5-6c2,1.8,6.2,3.6,9.3,3.6c2.5,0,3.6-0.7,3.6-1.9c0-3.3-15.5,0.1-15.5-10.7
		c0-4.7,4.1-8.7,11.4-8.7c4.5,0,8.2,1.4,11.1,3.5l-3.2,6c-1.6-1.5-4.6-2.9-7.8-2.9c-2,0-3.3,0.8-3.3,1.8c0,2.9,15.4-0.1,15.4,10.8
		c0,5.1-4.5,8.7-12,8.7C188.5,121.9,183.6,120.3,180.8,117.8z"/>
	<path class="st1" d="M18.1,139.2v4.3h-2.8v-12h2.8v1c0.7-0.8,1.6-1.2,2.6-1.2c2.2,0,3.8,1.6,3.8,4.6c0,3-1.6,4.6-3.8,4.6
		C19.7,140.5,18.8,140.1,18.1,139.2z M21.7,135.9c0-1.3-0.8-2.1-1.9-2.1c-0.6,0-1.3,0.3-1.7,0.8v2.6c0.3,0.5,1.1,0.8,1.7,0.8
		C20.9,138,21.7,137.2,21.7,135.9z"/>
	<path class="st1" d="M31.1,140.3v-0.9c-0.5,0.6-1.6,1.1-2.7,1.1c-1.3,0-3-0.9-3-2.9c0-2.1,1.7-2.8,3-2.8c1.2,0,2.2,0.4,2.7,1V135
		c0-0.8-0.6-1.3-1.8-1.3c-0.9,0-1.7,0.3-2.4,0.9l-1-1.9c1.1-1,2.6-1.4,3.9-1.4c2.1,0,4.1,0.8,4.1,3.5v5.4H31.1z M31.1,138v-0.8
		c-0.3-0.4-0.9-0.6-1.5-0.6c-0.7,0-1.4,0.3-1.4,1c0,0.7,0.7,1,1.4,1C30.1,138.7,30.8,138.4,31.1,138z"/>
	<path class="st1" d="M35.9,140.3v-8.7h2.8v1.1c0.6-0.7,1.7-1.3,2.7-1.3v2.7c-0.2-0.1-0.4-0.1-0.7-0.1c-0.7,0-1.7,0.3-2,0.8v5.5
		H35.9z"/>
	<path class="st1" d="M47.8,140.3v-0.9c-0.5,0.6-1.6,1.1-2.7,1.1c-1.3,0-3-0.9-3-2.9c0-2.1,1.7-2.8,3-2.8c1.2,0,2.2,0.4,2.7,1V135
		c0-0.8-0.6-1.3-1.8-1.3c-0.9,0-1.7,0.3-2.4,0.9l-1-1.9c1.1-1,2.6-1.4,3.9-1.4c2.1,0,4.1,0.8,4.1,3.5v5.4H47.8z M47.8,138v-0.8
		c-0.3-0.4-0.9-0.6-1.5-0.6c-0.7,0-1.4,0.3-1.4,1c0,0.7,0.7,1,1.4,1C46.8,138.7,47.5,138.4,47.8,138z"/>
	<path class="st1" d="M57.1,140.3v-12h2.8v12H57.1z"/>
	<path class="st1" d="M67.1,140.3v-0.9c-0.5,0.6-1.6,1.1-2.7,1.1c-1.3,0-3-0.9-3-2.9c0-2.1,1.7-2.8,3-2.8c1.2,0,2.2,0.4,2.7,1V135
		c0-0.8-0.6-1.3-1.8-1.3c-0.9,0-1.7,0.3-2.4,0.9l-1-1.9c1.1-1,2.6-1.4,3.9-1.4c2.1,0,4.1,0.8,4.1,3.5v5.4H67.1z M67.1,138v-0.8
		c-0.3-0.4-0.9-0.6-1.5-0.6c-0.7,0-1.4,0.3-1.4,1c0,0.7,0.7,1,1.4,1C66.1,138.7,66.8,138.4,67.1,138z"/>
	<path class="st1" d="M75.9,135.9c0-2.5,1.9-4.6,4.6-4.6c2.6,0,4.4,1.9,4.4,4.8v0.6h-6.2c0.2,0.8,0.9,1.4,2.2,1.4
		c0.6,0,1.6-0.3,2.1-0.7l1.2,1.8c-0.9,0.8-2.3,1.2-3.6,1.2C78,140.5,75.9,138.7,75.9,135.9z M80.5,133.6c-1.2,0-1.7,0.7-1.8,1.3h3.6
		C82.2,134.3,81.8,133.6,80.5,133.6z"/>
	<path class="st1" d="M86.3,140.3v-12h2.8v12H86.3z"/>
	<path class="st1" d="M90.9,129.2c0-0.9,0.7-1.6,1.6-1.6c0.9,0,1.6,0.7,1.6,1.6s-0.7,1.6-1.6,1.6C91.6,130.8,90.9,130.1,90.9,129.2z
		 M91.1,140.3v-8.7h2.8v8.7H91.1z"/>
	<path class="st1" d="M106.9,140.3V135c0-0.7-0.3-1.2-1.2-1.2c-0.8,0-1.3,0.5-1.6,0.8v5.6h-2.8V135c0-0.7-0.3-1.2-1.1-1.2
		c-0.8,0-1.3,0.5-1.6,0.8v5.6h-2.8v-8.7h2.8v1.1c0.4-0.5,1.5-1.3,2.9-1.3c1.3,0,2.1,0.5,2.5,1.5c0.5-0.8,1.6-1.5,3-1.5
		c1.6,0,2.6,0.8,2.6,2.6v6.3H106.9z"/>
	<path class="st1" d="M111.5,129.2c0-0.9,0.7-1.6,1.6-1.6c0.9,0,1.6,0.7,1.6,1.6s-0.7,1.6-1.6,1.6
		C112.2,130.8,111.5,130.1,111.5,129.2z M111.6,140.3v-8.7h2.8v8.7H111.6z"/>
	<path class="st1" d="M122.3,140.3v-5c0-1.1-0.6-1.4-1.4-1.4c-0.8,0-1.4,0.5-1.7,0.8v5.6h-2.8v-8.7h2.8v1.1c0.5-0.6,1.5-1.3,3-1.3
		c2,0,2.9,1.2,2.9,2.8v6.2H122.3z"/>
	<path class="st1" d="M132.2,140.3v-0.9c-0.5,0.6-1.6,1.1-2.7,1.1c-1.3,0-3-0.9-3-2.9c0-2.1,1.7-2.8,3-2.8c1.2,0,2.2,0.4,2.7,1V135
		c0-0.8-0.6-1.3-1.8-1.3c-0.9,0-1.7,0.3-2.4,0.9l-1-1.9c1.1-1,2.6-1.4,3.9-1.4c2.1,0,4.1,0.8,4.1,3.5v5.4H132.2z M132.2,138v-0.8
		c-0.3-0.4-0.9-0.6-1.5-0.6c-0.7,0-1.4,0.3-1.4,1c0,0.7,0.7,1,1.4,1C131.3,138.7,132,138.4,132.2,138z"/>
	<path class="st1" d="M136.5,135.9c0-2.7,2-4.6,4.7-4.6c1.9,0,3,0.8,3.6,1.6l-1.8,1.7c-0.3-0.5-0.9-0.8-1.6-0.8c-1.2,0-2,0.8-2,2.1
		s0.9,2.1,2,2.1c0.7,0,1.3-0.4,1.6-0.8l1.8,1.7c-0.5,0.8-1.7,1.6-3.6,1.6C138.5,140.5,136.5,138.6,136.5,135.9z"/>
	<path class="st1" d="M145.8,129.2c0-0.9,0.7-1.6,1.6-1.6c0.9,0,1.6,0.7,1.6,1.6s-0.7,1.6-1.6,1.6
		C146.5,130.8,145.8,130.1,145.8,129.2z M146,140.3v-8.7h2.8v8.7H146z"/>
	<path class="st1" d="M150.3,135.9c0-2.4,1.8-4.6,4.7-4.6c3,0,4.8,2.1,4.8,4.6c0,2.4-1.8,4.6-4.8,4.6
		C152,140.5,150.3,138.4,150.3,135.9z M156.9,135.9c0-1.2-0.7-2.1-1.9-2.1c-1.2,0-1.9,1-1.9,2.1c0,1.2,0.7,2.1,1.9,2.1
		C156.2,138,156.9,137.1,156.9,135.9z M155.2,130.3h-1.9l2.3-2.6h2.4L155.2,130.3z"/>
	<path class="st1" d="M167.1,140.3v-5c0-1.1-0.6-1.4-1.4-1.4c-0.8,0-1.4,0.5-1.7,0.8v5.6h-2.8v-8.7h2.8v1.1c0.5-0.6,1.5-1.3,3-1.3
		c2,0,2.9,1.2,2.9,2.8v6.2H167.1z"/>
	<path class="st1" d="M19.6,159.3v-1c-0.7,0.8-1.6,1.2-2.6,1.2c-2.1,0-3.8-1.6-3.8-4.6c0-2.8,1.7-4.6,3.8-4.6c1,0,1.9,0.4,2.6,1.2
		v-4.3h2.8v12H19.6z M19.6,156.2v-2.7c-0.4-0.5-1.1-0.8-1.7-0.8c-1.1,0-1.9,0.8-1.9,2.1c0,1.3,0.8,2.1,1.9,2.1
		C18.5,157,19.2,156.7,19.6,156.2z"/>
	<path class="st1" d="M23.8,154.9c0-2.5,1.9-4.6,4.6-4.6c2.6,0,4.4,1.9,4.4,4.8v0.6h-6.2c0.2,0.8,0.9,1.4,2.2,1.4
		c0.6,0,1.6-0.3,2.1-0.7l1.2,1.8c-0.9,0.8-2.3,1.2-3.6,1.2C25.9,159.5,23.8,157.7,23.8,154.9z M28.4,152.6c-1.2,0-1.7,0.7-1.8,1.3
		h3.6C30.2,153.3,29.7,152.6,28.4,152.6z"/>
	<path class="st1" d="M34.3,159.3v-12H37v12H34.3z"/>
	<path class="st1" d="M44.2,156.9v-4h-1.4v-2.4h1.4v-2.4H47v2.4h1.8v2.4H47v3.2c0,0.5,0.3,0.9,0.8,0.9c0.3,0,0.6-0.1,0.7-0.2
		l0.5,2.1c-0.3,0.3-1,0.6-2.1,0.6C45.2,159.5,44.2,158.6,44.2,156.9z"/>
	<path class="st1" d="M50.1,159.3v-8.7h2.8v1.1c0.6-0.7,1.7-1.3,2.7-1.3v2.7c-0.2-0.1-0.4-0.1-0.7-0.1c-0.7,0-1.7,0.3-2,0.8v5.5
		H50.1z"/>
	<path class="st1" d="M62,159.3v-0.9c-0.5,0.6-1.6,1.1-2.7,1.1c-1.3,0-3-0.9-3-2.9c0-2.1,1.7-2.8,3-2.8c1.2,0,2.2,0.4,2.7,1V154
		c0-0.8-0.6-1.3-1.8-1.3c-0.9,0-1.7,0.3-2.4,0.9l-1-1.9c1.1-1,2.6-1.4,3.9-1.4c2.1,0,4.1,0.8,4.1,3.5v5.4H62z M62,157v-0.8
		c-0.3-0.4-0.9-0.6-1.5-0.6c-0.7,0-1.4,0.3-1.4,1c0,0.7,0.7,1,1.4,1C61.1,157.7,61.7,157.4,62,157z"/>
	<path class="st1" d="M66.2,154.9c0-2.7,2-4.6,4.7-4.6c1.9,0,3,0.8,3.6,1.6l-1.8,1.7c-0.3-0.5-0.9-0.8-1.6-0.8c-1.2,0-2,0.8-2,2.1
		s0.9,2.1,2,2.1c0.7,0,1.3-0.4,1.6-0.8l1.8,1.7c-0.5,0.8-1.7,1.6-3.6,1.6C68.3,159.5,66.2,157.6,66.2,154.9z"/>
	<path class="st1" d="M75.2,154.9c0-2.4,1.8-4.6,4.7-4.6c3,0,4.8,2.1,4.8,4.6c0,2.4-1.8,4.6-4.8,4.6C77,159.5,75.2,157.4,75.2,154.9
		z M81.9,154.9c0-1.2-0.7-2.1-1.9-2.1c-1.2,0-1.9,1-1.9,2.1c0,1.2,0.7,2.1,1.9,2.1C81.2,157,81.9,156.1,81.9,154.9z"/>
	<path class="st1" d="M97.1,159.3V154c0-0.7-0.3-1.2-1.2-1.2c-0.8,0-1.3,0.5-1.6,0.8v5.6h-2.8V154c0-0.7-0.3-1.2-1.1-1.2
		c-0.8,0-1.3,0.5-1.6,0.8v5.6h-2.8v-8.7h2.8v1.1c0.4-0.5,1.5-1.3,2.9-1.3c1.3,0,2.1,0.5,2.5,1.5c0.5-0.8,1.6-1.5,3-1.5
		c1.6,0,2.6,0.8,2.6,2.6v6.3H97.1z"/>
	<path class="st1" d="M107,159.3v-0.9c-0.5,0.6-1.6,1.1-2.7,1.1c-1.3,0-3-0.9-3-2.9c0-2.1,1.7-2.8,3-2.8c1.2,0,2.2,0.4,2.7,1V154
		c0-0.8-0.6-1.3-1.8-1.3c-0.9,0-1.7,0.3-2.4,0.9l-1-1.9c1.1-1,2.6-1.4,3.9-1.4c2.1,0,4.1,0.8,4.1,3.5v5.4H107z M107,157v-0.8
		c-0.3-0.4-0.9-0.6-1.5-0.6c-0.7,0-1.4,0.3-1.4,1c0,0.7,0.7,1,1.4,1C106.1,157.7,106.8,157.4,107,157z"/>
</g>
</svg>
