<?xml version="1.0" encoding="utf-8"?>
<!-- Generator: Adobe Illustrator 19.0.0, SVG Export Plug-In . SVG Version: 6.00 Build 0)  -->
<svg version="1.1" id="Layer_1" xmlns="http://www.w3.org/2000/svg" xmlns:xlink="http://www.w3.org/1999/xlink" x="0px" y="0px"
	 viewBox="0 0 220 138.8" style="enable-background:new 0 0 220 138.8;" xml:space="preserve">
<style type="text/css">
	.st0{fill:#008590;}
	.st1{fill:#FFFFFF;}
</style>
<rect x="0" class="st0" width="220" height="139.3"/>
<g>
	<path class="st1" d="M15.8,22.7v-6.7h4.9v1.5h-3.2v1h3.1v1.5h-3.1v1.1h3.2v1.5H15.8z"/>
	<path class="st1" d="M26.2,22.7l-2.8-3.9v3.9h-1.7v-6.7h1.8l2.7,3.7v-3.7h1.7v6.7H26.2z"/>
	<path class="st1" d="M29.1,22.7v-6.7h2.8c2.1,0,3.6,1.3,3.6,3.3s-1.5,3.3-3.6,3.3H29.1z M33.7,19.4c0-1-0.6-1.8-1.8-1.8h-1.1v3.7
		h1.1C33.1,21.2,33.7,20.4,33.7,19.4z"/>
	<path class="st1" d="M36.4,22.7v-6.7h4.9v1.5h-3.2v1h3.1v1.5h-3.1v1.1h3.2v1.5H36.4z"/>
	<path class="st1" d="M48.1,22.7v-4.4l-1.7,4.4h-0.8L44,18.3v4.4h-1.7v-6.7h2.4l1.4,3.7l1.4-3.7h2.4v6.7H48.1z"/>
	<path class="st1" d="M51,22.7v-6.7h1.7v6.7H51z"/>
	<path class="st1" d="M53.6,19.4c0-2.1,1.6-3.4,3.6-3.4c1.6,0,2.5,0.9,2.9,1.8l-1.5,0.7c-0.2-0.5-0.8-1-1.4-1
		c-1.1,0-1.9,0.8-1.9,1.9c0,1.1,0.8,1.9,1.9,1.9c0.6,0,1.2-0.4,1.4-1l1.5,0.7c-0.4,0.8-1.3,1.8-2.9,1.8
		C55.2,22.9,53.6,21.5,53.6,19.4z"/>
	<path class="st1" d="M60.9,22.7v-6.7h1.7v6.7H60.9z"/>
	<path class="st1" d="M63.8,22.7v-6.7h2.8c2.1,0,3.6,1.3,3.6,3.3s-1.5,3.3-3.6,3.3H63.8z M68.4,19.4c0-1-0.6-1.8-1.8-1.8h-1.1v3.7
		h1.1C67.8,21.2,68.4,20.4,68.4,19.4z"/>
	<path class="st1" d="M75.3,22.7l-0.3-1h-2.6l-0.3,1H70l2.5-6.7h2.2l2.5,6.7H75.3z M73.6,17.8l-0.8,2.5h1.7L73.6,17.8z"/>
	<path class="st1" d="M77.7,22.7v-6.7h2.8c2.1,0,3.6,1.3,3.6,3.3s-1.5,3.3-3.6,3.3H77.7z M82.4,19.4c0-1-0.6-1.8-1.8-1.8h-1.1v3.7
		h1.1C81.7,21.2,82.4,20.4,82.4,19.4z"/>
	<path class="st1" d="M84.8,18.8c0-0.5,0.4-0.9,0.9-0.9s0.9,0.4,0.9,0.9s-0.4,0.9-0.9,0.9S84.8,19.3,84.8,18.8z M84.8,21.9
		c0-0.5,0.4-0.9,0.9-0.9s0.9,0.4,0.9,0.9c0,0.5-0.4,0.9-0.9,0.9S84.8,22.4,84.8,21.9z"/>
	<path class="st1" d="M18.5,84.7v-9.9C39.9,59.3,43.9,55.9,43.9,51c0-3.3-3.2-5.1-6.8-5.1c-5.5,0-9.6,2.1-13.2,5.4l-7-8.4
		c5.3-5.8,13.1-8.2,20-8.2c11.6,0,20,6.5,20,16.4c0,7.6-5.4,14.1-17.7,22.6h18.1v11.1H18.5z"/>
	<path class="st1" d="M60.1,60.1c0-13,6.7-25.5,21.2-25.5c14.4,0,21.2,12.4,21.2,25.5s-6.7,25.5-21.2,25.5
		C66.8,85.6,60.1,73.1,60.1,60.1z M89.5,60.1c0-8.7-2.4-14.2-8.3-14.2c-5.9,0-8.3,5.5-8.3,14.2c0,8.7,2.4,14.3,8.3,14.3
		C87.1,74.4,89.5,68.8,89.5,60.1z"/>
	<path class="st1" d="M104.2,60.1c0-13,6.7-25.5,21.2-25.5c14.4,0,21.2,12.4,21.2,25.5s-6.7,25.5-21.2,25.5
		C111,85.6,104.2,73.1,104.2,60.1z M133.7,60.1c0-8.7-2.4-14.2-8.3-14.2c-5.9,0-8.3,5.5-8.3,14.2c0,8.7,2.4,14.3,8.3,14.3
		C131.3,74.4,133.7,68.8,133.7,60.1z"/>
	<path class="st1" d="M195.7,84.7V63c0-2.7-1.3-4.8-4.7-4.8c-3.1,0-5.3,2-6.4,3.5v23.1h-11.4V63c0-2.7-1.3-4.8-4.7-4.8
		c-3.1,0-5.3,2-6.4,3.5v23.1h-11.4V49H162v4.4c1.6-2.1,6.1-5.3,11.8-5.3c5.2,0,8.7,2.1,10.1,6.4c2.1-3.1,6.7-6.4,12.4-6.4
		c6.6,0,10.7,3.4,10.7,10.7v25.9H195.7z"/>
	<path class="st1" d="M22.1,103.7v-1c-0.7,0.8-1.6,1.2-2.6,1.2c-2.1,0-3.8-1.6-3.8-4.6c0-2.8,1.7-4.6,3.8-4.6c1,0,1.9,0.4,2.6,1.2
		v-4.3h2.8v12H22.1z M22.1,100.7V98c-0.4-0.5-1.1-0.8-1.7-0.8c-1.1,0-1.9,0.8-1.9,2.1c0,1.3,0.8,2.1,1.9,2.1
		C21,101.5,21.7,101.2,22.1,100.7z"/>
	<path class="st1" d="M26.3,99.4c0-2.5,1.9-4.6,4.6-4.6c2.6,0,4.4,1.9,4.4,4.8v0.6h-6.2c0.2,0.8,0.9,1.4,2.2,1.4
		c0.6,0,1.6-0.3,2.1-0.7l1.2,1.8c-0.9,0.8-2.3,1.2-3.6,1.2C28.4,103.9,26.3,102.2,26.3,99.4z M30.9,97.1c-1.2,0-1.7,0.7-1.8,1.4h3.6
		C32.6,97.8,32.2,97.1,30.9,97.1z"/>
	<path class="st1" d="M44.1,102.7v4.3h-2.8V95h2.8v1c0.7-0.8,1.6-1.2,2.6-1.2c2.2,0,3.8,1.6,3.8,4.6c0,3-1.6,4.6-3.8,4.6
		C45.7,103.9,44.8,103.6,44.1,102.7z M47.7,99.4c0-1.3-0.8-2.1-1.9-2.1c-0.6,0-1.3,0.3-1.7,0.8v2.6c0.3,0.4,1.1,0.8,1.7,0.8
		C46.8,101.5,47.7,100.7,47.7,99.4z"/>
	<path class="st1" d="M51.4,99.4c0-2.5,1.9-4.6,4.6-4.6c2.6,0,4.4,1.9,4.4,4.8v0.6h-6.2c0.2,0.8,0.9,1.4,2.2,1.4
		c0.6,0,1.6-0.3,2.1-0.7l1.2,1.8c-0.9,0.8-2.3,1.2-3.6,1.2C53.4,103.9,51.4,102.2,51.4,99.4z M56,97.1c-1.2,0-1.7,0.7-1.8,1.4h3.6
		C57.7,97.8,57.3,97.1,56,97.1z"/>
	<path class="st1" d="M61.8,103.7V95h2.8v1.1c0.6-0.7,1.7-1.3,2.7-1.3v2.7c-0.2-0.1-0.4-0.1-0.7-0.1c-0.7,0-1.7,0.3-2,0.8v5.5H61.8z
		"/>
	<path class="st1" d="M67.8,102.6l1.2-2c0.6,0.6,2,1.2,3.1,1.2c0.8,0,1.2-0.2,1.2-0.6c0-1.1-5.1,0-5.1-3.5c0-1.5,1.3-2.9,3.7-2.9
		c1.5,0,2.7,0.5,3.6,1.2l-1.1,2c-0.5-0.5-1.5-1-2.6-1c-0.6,0-1.1,0.3-1.1,0.6c0,1,5,0,5,3.5c0,1.7-1.5,2.8-3.9,2.8
		C70.3,103.9,68.7,103.4,67.8,102.6z"/>
	<path class="st1" d="M76.7,99.4c0-2.4,1.8-4.6,4.7-4.6c3,0,4.8,2.1,4.8,4.6c0,2.4-1.8,4.6-4.8,4.6C78.5,103.9,76.7,101.8,76.7,99.4
		z M83.3,99.4c0-1.2-0.7-2.1-1.9-2.1c-1.2,0-1.9,1-1.9,2.1c0,1.2,0.7,2.1,1.9,2.1C82.6,101.5,83.3,100.5,83.3,99.4z"/>
	<path class="st1" d="M93.5,103.7v-5c0-1.1-0.6-1.4-1.4-1.4c-0.8,0-1.4,0.5-1.7,0.8v5.6h-2.8V95h2.8v1.1c0.5-0.6,1.5-1.3,3-1.3
		c2,0,2.9,1.2,2.9,2.8v6.2H93.5z"/>
	<path class="st1" d="M103.4,103.7v-0.9c-0.5,0.6-1.6,1.1-2.7,1.1c-1.3,0-3-0.9-3-2.9c0-2.1,1.7-2.8,3-2.8c1.2,0,2.2,0.4,2.7,1v-0.9
		c0-0.8-0.6-1.3-1.8-1.3c-0.9,0-1.7,0.3-2.4,0.9l-1-1.9c1.1-1,2.6-1.4,3.9-1.4c2.1,0,4.1,0.8,4.1,3.5v5.4H103.4z M103.4,101.5v-0.8
		c-0.3-0.4-0.9-0.6-1.5-0.6c-0.7,0-1.4,0.3-1.4,1c0,0.7,0.7,1,1.4,1C102.5,102.1,103.1,101.9,103.4,101.5z"/>
	<path class="st1" d="M107.5,102.6l1.2-2c0.6,0.6,2,1.2,3.1,1.2c0.8,0,1.2-0.2,1.2-0.6c0-1.1-5.1,0-5.1-3.5c0-1.5,1.3-2.9,3.7-2.9
		c1.5,0,2.7,0.5,3.6,1.2l-1.1,2c-0.5-0.5-1.5-1-2.6-1c-0.6,0-1.1,0.3-1.1,0.6c0,1,5,0,5,3.5c0,1.7-1.5,2.8-3.9,2.8
		C110,103.9,108.4,103.4,107.5,102.6z"/>
	<path class="st1" d="M121,99.4c0-2.5,1.9-4.6,4.6-4.6c2.6,0,4.4,1.9,4.4,4.8v0.6h-6.2c0.2,0.8,0.9,1.4,2.2,1.4
		c0.6,0,1.6-0.3,2.1-0.7l1.2,1.8c-0.9,0.8-2.3,1.2-3.6,1.2C123,103.9,121,102.2,121,99.4z M125.6,97.1c-1.2,0-1.7,0.7-1.8,1.4h3.6
		C127.3,97.8,126.9,97.1,125.6,97.1z"/>
	<path class="st1" d="M137.3,103.7v-5c0-1.1-0.6-1.4-1.4-1.4c-0.8,0-1.4,0.5-1.7,0.8v5.6h-2.8V95h2.8v1.1c0.5-0.6,1.5-1.3,3-1.3
		c2,0,2.9,1.2,2.9,2.8v6.2H137.3z"/>
	<path class="st1" d="M16.2,122.7V114H19v1.1c0.6-0.7,1.7-1.3,2.7-1.3v2.7c-0.2-0.1-0.4-0.1-0.7-0.1c-0.7,0-1.7,0.3-2,0.8v5.5H16.2z
		"/>
	<path class="st1" d="M22.8,111.7c0-0.9,0.7-1.6,1.6-1.6c0.9,0,1.6,0.7,1.6,1.6c0,0.9-0.7,1.6-1.6,1.6
		C23.5,113.3,22.8,112.5,22.8,111.7z M23,122.7V114h2.8v8.7H23z"/>
	<path class="st1" d="M27.2,118.4c0-2.5,1.9-4.6,4.6-4.6c2.6,0,4.4,1.9,4.4,4.8v0.6h-6.2c0.2,0.8,0.9,1.4,2.2,1.4
		c0.6,0,1.6-0.3,2.1-0.7l1.2,1.8c-0.9,0.8-2.3,1.2-3.6,1.2C29.3,122.9,27.2,121.2,27.2,118.4z M31.8,116.1c-1.2,0-1.7,0.7-1.8,1.4
		h3.6C33.5,116.8,33.1,116.1,31.8,116.1z"/>
	<path class="st1" d="M36.9,121.6l1.2-2c0.6,0.6,2,1.2,3.1,1.2c0.8,0,1.2-0.2,1.2-0.6c0-1.1-5.1,0-5.1-3.5c0-1.5,1.3-2.9,3.7-2.9
		c1.5,0,2.7,0.5,3.6,1.2l-1.1,2c-0.5-0.5-1.5-1-2.6-1c-0.6,0-1.1,0.3-1.1,0.6c0,1,5,0,5,3.5c0,1.7-1.5,2.8-3.9,2.8
		C39.4,122.9,37.8,122.4,36.9,121.6z"/>
	<path class="st1" d="M46.1,125l1.2-1.9c0.7,0.7,1.6,1,2.6,1c0.9,0,2.2-0.4,2.2-2.1v-0.7c-0.7,0.9-1.6,1.3-2.6,1.3
		c-2.1,0-3.8-1.5-3.8-4.4c0-2.9,1.6-4.4,3.8-4.4c1,0,1.9,0.4,2.6,1.2v-1h2.8v7.9c0,3.5-2.8,4.3-5,4.3
		C48.5,126.3,47.2,125.9,46.1,125z M52.2,119.4V117c-0.3-0.5-1.1-0.8-1.7-0.8c-1.1,0-1.9,0.7-1.9,1.9c0,1.3,0.8,1.9,1.9,1.9
		C51.1,120.1,51.8,119.8,52.2,119.4z"/>
	<path class="st1" d="M56.4,118.4c0-2.4,1.8-4.6,4.7-4.6c3,0,4.8,2.1,4.8,4.6c0,2.4-1.8,4.6-4.8,4.6
		C58.2,122.9,56.4,120.8,56.4,118.4z M63,118.4c0-1.2-0.7-2.1-1.9-2.1c-1.2,0-1.9,1-1.9,2.1c0,1.2,0.7,2.1,1.9,2.1
		C62.3,120.5,63,119.5,63,118.4z"/>
	<path class="st1" d="M71.4,118.4c0-2.5,1.9-4.6,4.6-4.6c2.6,0,4.4,1.9,4.4,4.8v0.6h-6.2c0.2,0.8,0.9,1.4,2.2,1.4
		c0.6,0,1.6-0.3,2.1-0.7l1.2,1.8c-0.9,0.8-2.3,1.2-3.6,1.2C73.4,122.9,71.4,121.2,71.4,118.4z M76,116.1c-1.2,0-1.7,0.7-1.8,1.4h3.6
		C77.7,116.8,77.3,116.1,76,116.1z"/>
	<path class="st1" d="M87.7,122.7v-5c0-1.1-0.6-1.4-1.4-1.4c-0.8,0-1.4,0.5-1.7,0.8v5.6h-2.8V114h2.8v1.1c0.5-0.6,1.5-1.3,3-1.3
		c2,0,2.9,1.2,2.9,2.8v6.2H87.7z"/>
	<path class="st1" d="M102.2,122.7v-2.2h-5.7v-2.4l4.6-7.4h4.3v7.1h1.5v2.7h-1.5v2.2H102.2z M102.2,113.4l-2.7,4.4h2.7V113.4z"/>
	<path class="st1" d="M107.9,122.7v-2.4c5.2-3.8,6.2-4.6,6.2-5.8c0-0.8-0.8-1.2-1.7-1.2c-1.3,0-2.3,0.5-3.2,1.3l-1.7-2.1
		c1.3-1.4,3.2-2,4.9-2c2.8,0,4.9,1.6,4.9,4c0,1.9-1.3,3.4-4.3,5.5h4.4v2.7H107.9z"/>
	<path class="st1" d="M126.5,121.7v4.3h-2.8v-12h2.8v1c0.7-0.8,1.6-1.2,2.6-1.2c2.2,0,3.8,1.6,3.8,4.6c0,3-1.6,4.6-3.8,4.6
		C128.1,122.9,127.2,122.6,126.5,121.7z M130,118.4c0-1.3-0.8-2.1-1.9-2.1c-0.6,0-1.3,0.3-1.7,0.8v2.6c0.3,0.4,1.1,0.8,1.7,0.8
		C129.2,120.5,130,119.7,130,118.4z"/>
	<path class="st1" d="M139.4,122.7v-0.9c-0.5,0.6-1.6,1.1-2.7,1.1c-1.3,0-3-0.9-3-2.9c0-2.1,1.7-2.8,3-2.8c1.2,0,2.2,0.4,2.7,1v-0.9
		c0-0.8-0.6-1.3-1.8-1.3c-0.9,0-1.7,0.3-2.4,0.9l-1-1.9c1.1-1,2.6-1.4,3.9-1.4c2.1,0,4.1,0.8,4.1,3.5v5.4H139.4z M139.4,120.5v-0.8
		c-0.3-0.4-0.9-0.6-1.5-0.6c-0.7,0-1.4,0.3-1.4,1c0,0.7,0.7,1,1.4,1C138.5,121.1,139.1,120.9,139.4,120.5z"/>
	<path class="st1" d="M145.9,112.7H144l2.3-2.6h2.4L145.9,112.7z M144.2,122.7V114h2.8v8.7H144.2z"/>
	<path class="st1" d="M148.3,121.6l1.2-2c0.6,0.6,2,1.2,3.1,1.2c0.8,0,1.2-0.2,1.2-0.6c0-1.1-5.1,0-5.1-3.5c0-1.5,1.3-2.9,3.7-2.9
		c1.5,0,2.7,0.5,3.6,1.2l-1.1,2c-0.5-0.5-1.5-1-2.6-1c-0.6,0-1.1,0.3-1.1,0.6c0,1,5,0,5,3.5c0,1.7-1.5,2.8-3.9,2.8
		C150.8,122.9,149.2,122.4,148.3,121.6z"/>
	<path class="st1" d="M157.2,118.4c0-2.5,1.9-4.6,4.6-4.6c2.6,0,4.4,1.9,4.4,4.8v0.6H160c0.2,0.8,0.9,1.4,2.2,1.4
		c0.6,0,1.6-0.3,2.1-0.7l1.2,1.8c-0.9,0.8-2.3,1.2-3.6,1.2C159.2,122.9,157.2,121.2,157.2,118.4z M161.8,116.1
		c-1.2,0-1.7,0.7-1.8,1.4h3.6C163.5,116.8,163,116.1,161.8,116.1z"/>
	<path class="st1" d="M166.8,121.6l1.2-2c0.6,0.6,2,1.2,3.1,1.2c0.8,0,1.2-0.2,1.2-0.6c0-1.1-5.1,0-5.1-3.5c0-1.5,1.3-2.9,3.7-2.9
		c1.5,0,2.7,0.5,3.6,1.2l-1.1,2c-0.5-0.5-1.5-1-2.6-1c-0.6,0-1.1,0.3-1.1,0.6c0,1,5,0,5,3.5c0,1.7-1.5,2.8-3.9,2.8
		C169.4,122.9,167.8,122.4,166.8,121.6z"/>
</g>
</svg>
