<?xml version="1.0" encoding="utf-8"?>
<!-- Generator: Adobe Illustrator 19.0.0, SVG Export Plug-In . SVG Version: 6.00 Build 0)  -->
<svg version="1.1" id="Layer_1" xmlns="http://www.w3.org/2000/svg" xmlns:xlink="http://www.w3.org/1999/xlink" x="0px" y="0px"
	 viewBox="0 0 220 223.2" style="enable-background:new 0 0 220 223.2;" xml:space="preserve">
<style type="text/css">
	.st0{fill:#259AD6;}
	.st1{fill:#FFFFFF;}
</style>
<rect x="0" class="st0" width="220" height="223.2"/>
<g>
	<path class="st1" d="M16,57.2V35.4h9.6v21.5c0,4.3,2.6,7.5,7.8,7.5c5.1,0,7.7-3.1,7.7-7.5V35.4h9.6v21.8c0,9.1-5.5,15.6-17.3,15.6
		S16,66.2,16,57.2z"/>
	<path class="st1" d="M51.9,66.9l5-7.4c2.6,2.6,6.7,4.8,11.8,4.8c3.2,0,5.2-1.1,5.2-2.9c0-4.8-20.7-0.8-20.7-15
		c0-6.2,5.2-11.7,14.6-11.7c5.9,0,11,1.8,14.9,5.1L77.4,47c-3.1-2.6-7.1-3.8-10.7-3.8c-2.8,0-4,0.9-4,2.5c0,4.5,20.7,1.1,20.7,14.7
		c0,7.4-5.4,12.3-15.3,12.3C60.8,72.7,55.6,70.3,51.9,66.9z"/>
	<path class="st1" d="M96.3,72.5c-5.8-0.6-10.1-2.7-13.2-5.7l5-7.4c2,2,4.8,3.7,8.2,4.5v-6.1c-5.7-1.3-12-3.6-12-11.4
		c0-5.6,4.2-10.6,12-11.5v-5.2h6.1V35c4.4,0.6,8.2,2.3,11.4,4.9l-5.2,7.1c-1.9-1.5-4-2.6-6.2-3.2v5.3c5.7,1.3,12.3,3.6,12.3,11.3
		c0,6.6-4.3,11.2-12.3,12.1v5h-6.1V72.5z M96.3,47.7v-4.4c-1.6,0.3-2.4,1.2-2.4,2.4C94,46.7,94.9,47.3,96.3,47.7z M102.4,59.2v4.8
		c1.6-0.4,2.6-1.4,2.6-2.6C105.1,60.4,104,59.7,102.4,59.2z"/>
	<path class="st1" d="M120,72l12.4-28.4h-17.9v-8.2h28.8v6.5L130.4,72H120z"/>
	<path class="st1" d="M142.9,53.7c0-9.7,5-18.9,15.7-18.9c10.7,0,15.7,9.2,15.7,18.9s-5,19-15.7,19
		C147.9,72.7,142.9,63.4,142.9,53.7z M164.8,53.7c0-6.5-1.8-10.6-6.2-10.6c-4.4,0-6.2,4.1-6.2,10.6s1.8,10.6,6.2,10.6
		C163.1,64.3,164.8,60.2,164.8,53.7z"/>
	<path class="st1" d="M175.6,53.7c0-9.7,5-18.9,15.7-18.9c10.7,0,15.7,9.2,15.7,18.9s-5,19-15.7,19
		C180.6,72.7,175.6,63.4,175.6,53.7z M197.5,53.7c0-6.5-1.8-10.6-6.2-10.6c-4.4,0-6.2,4.1-6.2,10.6s1.8,10.6,6.2,10.6
		C195.7,64.3,197.5,60.2,197.5,53.7z"/>
	<path class="st1" d="M15.6,110.3v-7.1h29.3v7.1H15.6z"/>
	<path class="st1" d="M56.6,110.4c0-4.2,3.2-7.6,7.4-9.2c-3.9-1.5-6.8-4.1-6.8-8.5c0-7.1,7.8-9.8,15-9.8s15,2.7,15,9.8
		c0,4.4-2.9,7-6.9,8.5c4.3,1.7,7.5,5.1,7.5,9.2c0,7.1-7.6,10.3-15.6,10.3S56.6,117.6,56.6,110.4z M78.1,109c0-2.2-3.6-3.4-5.9-3.6
		c-2.4,0.3-5.9,1.4-5.9,3.6c0,2,2.4,3.3,5.9,3.3C75.5,112.3,78.1,111,78.1,109z M77.4,94.2c0-1.9-2.1-3-5.3-3s-5.3,1.1-5.3,3
		c0,1.9,3.1,2.9,5.3,3.2C74.4,97.1,77.4,96.1,77.4,94.2z"/>
	<path class="st1" d="M87.8,101.7c0-9.7,5-18.9,15.7-18.9c10.7,0,15.7,9.2,15.7,18.9s-5,19-15.7,19
		C92.8,120.7,87.8,111.4,87.8,101.7z M109.7,101.7c0-6.5-1.8-10.6-6.2-10.6s-6.2,4.1-6.2,10.6s1.8,10.6,6.2,10.6
		S109.7,108.2,109.7,101.7z"/>
	<path class="st1" d="M120.5,101.7c0-9.7,5-18.9,15.7-18.9c10.7,0,15.7,9.2,15.7,18.9s-5,19-15.7,19
		C125.5,120.7,120.5,111.4,120.5,101.7z M142.4,101.7c0-6.5-1.8-10.6-6.2-10.6c-4.4,0-6.2,4.1-6.2,10.6s1.8,10.6,6.2,10.6
		C140.6,112.3,142.4,108.2,142.4,101.7z"/>
	<path class="st1" d="M49.3,168v-16.2c0-2-1-3.6-3.5-3.6c-2.3,0-4,1.5-4.8,2.6V168h-8.5v-16.2c0-2-0.9-3.6-3.5-3.6
		c-2.3,0-3.9,1.5-4.8,2.6V168h-8.5v-26.6h8.5v3.2c1.2-1.5,4.6-3.9,8.7-3.9c3.8,0,6.4,1.6,7.5,4.7c1.5-2.3,5-4.7,9.2-4.7
		c4.9,0,8,2.5,8,8V168H49.3z"/>
	<path class="st1" d="M61.3,134.2c0-2.7,2.1-4.8,4.8-4.8s4.9,2.1,4.9,4.8c0,2.7-2.2,4.9-4.9,4.9S61.3,136.9,61.3,134.2z M61.9,168
		v-26.6h8.5V168H61.9z"/>
	<path class="st1" d="M74.5,168v-36.7H83V168H74.5z"/>
	<path class="st1" d="M87.1,168v-36.7h8.5V168H87.1z"/>
	<path class="st1" d="M98,154.7c0-7.5,5.4-13.9,14.4-13.9c9.1,0,14.5,6.4,14.5,13.9c0,7.5-5.4,14-14.5,14
		C103.4,168.7,98,162.2,98,154.7z M118.2,154.7c0-3.5-2.1-6.4-5.8-6.4c-3.6,0-5.7,2.9-5.7,6.4c0,3.6,2.1,6.5,5.7,6.5
		C116.1,161.2,118.2,158.3,118.2,154.7z"/>
	<path class="st1" d="M147.3,168v-15.3c0-3.2-1.7-4.4-4.3-4.4c-2.5,0-4.2,1.4-5.2,2.6V168h-8.5v-26.6h8.5v3.2
		c1.6-1.9,4.7-3.9,9.2-3.9c6,0,8.7,3.5,8.7,8.4V168H147.3z"/>
	<path class="st1" d="M158.2,154.7c0-7.7,5.8-13.9,14.1-13.9c7.9,0,13.6,5.8,13.6,14.8v1.9H167c0.6,2.4,2.8,4.3,6.7,4.3
		c1.9,0,4.9-0.8,6.5-2.3l3.7,5.6c-2.6,2.4-7,3.5-11.1,3.5C164.5,168.7,158.2,163.4,158.2,154.7z M172.3,147.6
		c-3.7,0-5.1,2.2-5.4,4.1h10.9C177.6,149.9,176.2,147.6,172.3,147.6z"/>
	<path class="st1" d="M185.8,164.6l3.5-6c2,1.8,6.2,3.6,9.3,3.6c2.5,0,3.6-0.7,3.6-1.9c0-3.3-15.5,0.1-15.5-10.7
		c0-4.7,4.1-8.7,11.4-8.7c4.5,0,8.2,1.4,11.1,3.5l-3.2,6c-1.6-1.5-4.6-2.9-7.8-2.9c-2,0-3.3,0.8-3.3,1.8c0,2.9,15.4-0.1,15.4,10.8
		c0,5.1-4.5,8.7-12,8.7C193.5,168.7,188.6,167.1,185.8,164.6z"/>
	<path class="st1" d="M14.3,185.9l1.2-2c0.6,0.6,2,1.2,3.1,1.2c0.8,0,1.2-0.2,1.2-0.6c0-1.1-5.1,0-5.1-3.5c0-1.5,1.3-2.9,3.7-2.9
		c1.5,0,2.7,0.5,3.6,1.2l-1.1,2c-0.5-0.5-1.5-1-2.6-1c-0.6,0-1.1,0.3-1.1,0.6c0,1,5,0,5,3.5c0,1.7-1.5,2.8-3.9,2.8
		C16.8,187.3,15.2,186.7,14.3,185.9z"/>
	<path class="st1" d="M23.2,182.7c0-2.5,1.9-4.6,4.6-4.6c2.6,0,4.4,1.9,4.4,4.8v0.6H26c0.2,0.8,0.9,1.4,2.2,1.4
		c0.6,0,1.6-0.3,2.1-0.7l1.2,1.8c-0.9,0.8-2.3,1.2-3.6,1.2C25.2,187.3,23.2,185.5,23.2,182.7z M27.8,180.4c-1.2,0-1.7,0.7-1.8,1.3
		h3.6C29.5,181.1,29.1,180.4,27.8,180.4z"/>
	<path class="st1" d="M44.1,187v-5c0-1.1-0.6-1.4-1.4-1.4c-0.8,0-1.4,0.5-1.7,0.8v5.6h-2.8v-8.7H41v1.1c0.5-0.6,1.5-1.3,3-1.3
		c2,0,2.9,1.2,2.9,2.8v6.2H44.1z"/>
	<path class="st1" d="M48.3,182.7c0-2.5,1.9-4.6,4.6-4.6c2.6,0,4.4,1.9,4.4,4.8v0.6h-6.2c0.2,0.8,0.9,1.4,2.2,1.4
		c0.6,0,1.6-0.3,2.1-0.7l1.2,1.8c-0.9,0.8-2.3,1.2-3.6,1.2C50.4,187.3,48.3,185.5,48.3,182.7z M52.9,180.4c-1.2,0-1.7,0.7-1.8,1.3
		h3.6C54.6,181.1,54.2,180.4,52.9,180.4z"/>
	<path class="st1" d="M58.2,182.7c0-2.7,2-4.6,4.7-4.6c1.9,0,3,0.8,3.6,1.6l-1.8,1.7c-0.3-0.5-0.9-0.8-1.6-0.8c-1.2,0-2,0.8-2,2.1
		s0.9,2.1,2,2.1c0.7,0,1.3-0.4,1.6-0.8l1.8,1.7c-0.5,0.8-1.7,1.6-3.6,1.6C60.2,187.3,58.2,185.4,58.2,182.7z"/>
	<path class="st1" d="M67.2,182.7c0-2.5,1.9-4.6,4.6-4.6c2.6,0,4.4,1.9,4.4,4.8v0.6H70c0.2,0.8,0.9,1.4,2.2,1.4
		c0.6,0,1.6-0.3,2.1-0.7l1.2,1.8c-0.9,0.8-2.3,1.2-3.6,1.2C69.2,187.3,67.2,185.5,67.2,182.7z M71.8,180.4c-1.2,0-1.7,0.7-1.8,1.3
		h3.6C73.5,181.1,73.1,180.4,71.8,180.4z"/>
	<path class="st1" d="M76.9,185.9l1.2-2c0.6,0.6,2,1.2,3.1,1.2c0.8,0,1.2-0.2,1.2-0.6c0-1.1-5.1,0-5.1-3.5c0-1.5,1.3-2.9,3.7-2.9
		c1.5,0,2.7,0.5,3.6,1.2l-1.1,2c-0.5-0.5-1.5-1-2.6-1c-0.6,0-1.1,0.3-1.1,0.6c0,1,5,0,5,3.5c0,1.7-1.5,2.8-3.9,2.8
		C79.4,187.3,77.8,186.7,76.9,185.9z"/>
	<path class="st1" d="M86.1,176c0-0.9,0.7-1.6,1.6-1.6c0.9,0,1.6,0.7,1.6,1.6s-0.7,1.6-1.6,1.6C86.8,177.6,86.1,176.9,86.1,176z
		 M86.3,187v-8.7h2.8v8.7H86.3z"/>
	<path class="st1" d="M91.7,184.7v-4h-1.4v-2.4h1.4V176h2.8v2.4h1.8v2.4h-1.8v3.2c0,0.5,0.3,0.9,0.8,0.9c0.3,0,0.6-0.1,0.7-0.2
		l0.5,2.1c-0.3,0.3-1,0.6-2.1,0.6C92.6,187.3,91.7,186.4,91.7,184.7z"/>
	<path class="st1" d="M102.7,187v-0.9c-0.5,0.6-1.6,1.1-2.7,1.1c-1.3,0-3-0.9-3-2.9c0-2.1,1.7-2.8,3-2.8c1.2,0,2.2,0.4,2.7,1v-0.9
		c0-0.8-0.6-1.3-1.8-1.3c-0.9,0-1.7,0.3-2.4,0.9l-1-1.9c1.1-1,2.6-1.4,3.9-1.4c2.1,0,4.1,0.8,4.1,3.5v5.4H102.7z M102.7,184.8V184
		c-0.3-0.4-0.9-0.6-1.5-0.6c-0.7,0-1.4,0.3-1.4,1c0,0.7,0.7,1,1.4,1C101.8,185.4,102.4,185.2,102.7,184.8z"/>
	<path class="st1" d="M113.4,187v-5c0-1.1-0.6-1.4-1.4-1.4c-0.8,0-1.4,0.5-1.7,0.8v5.6h-2.8v-8.7h2.8v1.1c0.5-0.6,1.5-1.3,3-1.3
		c2,0,2.9,1.2,2.9,2.8v6.2H113.4z"/>
	<path class="st1" d="M123.4,187v-6.3h-1.4v-2.4h1.4v-0.2c0-2.1,1.3-3.3,3.1-3.3c0.9,0,1.9,0.3,2.5,0.8l-1,1.7
		c-0.2-0.2-0.5-0.3-0.9-0.3c-0.5,0-0.9,0.3-0.9,1.1v0.2h1.8v2.4h-1.8v6.3H123.4z"/>
	<path class="st1" d="M128.5,182.7c0-2.4,1.8-4.6,4.7-4.6c3,0,4.8,2.1,4.8,4.6c0,2.4-1.8,4.6-4.8,4.6
		C130.3,187.3,128.5,185.1,128.5,182.7z M135.1,182.7c0-1.2-0.7-2.1-1.9-2.1c-1.2,0-1.9,1-1.9,2.1c0,1.2,0.7,2.1,1.9,2.1
		C134.4,184.8,135.1,183.9,135.1,182.7z"/>
	<path class="st1" d="M145.3,187v-5c0-1.1-0.6-1.4-1.4-1.4c-0.8,0-1.4,0.5-1.7,0.8v5.6h-2.8v-8.7h2.8v1.1c0.5-0.6,1.5-1.3,3-1.3
		c2,0,2.9,1.2,2.9,2.8v6.2H145.3z"/>
	<path class="st1" d="M155.9,187v-1c-0.7,0.8-1.6,1.2-2.6,1.2c-2.1,0-3.8-1.6-3.8-4.6c0-2.8,1.7-4.6,3.8-4.6c1,0,1.9,0.4,2.6,1.2
		V175h2.8v12H155.9z M155.9,184v-2.7c-0.4-0.5-1.1-0.8-1.7-0.8c-1.1,0-1.9,0.8-1.9,2.1c0,1.3,0.8,2.1,1.9,2.1
		C154.9,184.8,155.6,184.5,155.9,184z"/>
	<path class="st1" d="M160.2,182.7c0-2.4,1.8-4.6,4.7-4.6c3,0,4.8,2.1,4.8,4.6c0,2.4-1.8,4.6-4.8,4.6
		C161.9,187.3,160.2,185.1,160.2,182.7z M166.8,182.7c0-1.2-0.7-2.1-1.9-2.1c-1.2,0-1.9,1-1.9,2.1c0,1.2,0.7,2.1,1.9,2.1
		C166.1,184.8,166.8,183.9,166.8,182.7z"/>
	<path class="st1" d="M170.4,185.9l1.2-2c0.6,0.6,2,1.2,3.1,1.2c0.8,0,1.2-0.2,1.2-0.6c0-1.1-5.1,0-5.1-3.5c0-1.5,1.3-2.9,3.7-2.9
		c1.5,0,2.7,0.5,3.6,1.2l-1.1,2c-0.5-0.5-1.5-1-2.6-1c-0.6,0-1.1,0.3-1.1,0.6c0,1,5,0,5,3.5c0,1.7-1.5,2.8-3.9,2.8
		C172.9,187.3,171.3,186.7,170.4,185.9z"/>
	<path class="st1" d="M13.2,201.7c0-2.7,2-4.6,4.7-4.6c1.9,0,3,0.8,3.6,1.6l-1.8,1.7c-0.3-0.5-0.9-0.8-1.6-0.8c-1.2,0-2,0.8-2,2.1
		s0.9,2.1,2,2.1c0.7,0,1.3-0.4,1.6-0.8l1.8,1.7c-0.5,0.8-1.7,1.6-3.6,1.6C15.2,206.3,13.2,204.4,13.2,201.7z"/>
	<path class="st1" d="M22.2,201.7c0-2.4,1.8-4.6,4.7-4.6c3,0,4.8,2.1,4.8,4.6c0,2.4-1.8,4.6-4.8,4.6C24,206.3,22.2,204.1,22.2,201.7
		z M28.8,201.7c0-1.2-0.7-2.1-1.9-2.1c-1.2,0-1.9,1-1.9,2.1c0,1.2,0.7,2.1,1.9,2.1C28.1,203.8,28.8,202.9,28.8,201.7z"/>
	<path class="st1" d="M39,206v-5c0-1.1-0.6-1.4-1.4-1.4c-0.8,0-1.4,0.5-1.7,0.8v5.6h-2.8v-8.7h2.8v1.1c0.5-0.6,1.5-1.3,3-1.3
		c2,0,2.9,1.2,2.9,2.8v6.2H39z"/>
	<path class="st1" d="M54.3,206v-1c-0.5,0.6-1.5,1.3-3,1.3c-2,0-2.9-1.1-2.9-2.7v-6.2h2.8v5c0,1.1,0.5,1.4,1.4,1.4
		c0.8,0,1.3-0.4,1.7-0.8v-5.6H57v8.7H54.3z"/>
	<path class="st1" d="M59.1,206v-8.7h2.8v1.1c0.6-0.7,1.7-1.3,2.7-1.3v2.7c-0.2-0.1-0.4-0.1-0.7-0.1c-0.7,0-1.7,0.3-2,0.8v5.5H59.1z
		"/>
	<path class="st1" d="M65.6,208.3l1.2-1.9c0.7,0.7,1.6,1,2.6,1c0.9,0,2.2-0.4,2.2-2.1v-0.7c-0.7,0.9-1.6,1.3-2.6,1.3
		c-2.1,0-3.8-1.5-3.8-4.4c0-2.9,1.6-4.4,3.8-4.4c1,0,1.9,0.4,2.6,1.2v-1h2.8v7.9c0,3.5-2.8,4.3-5,4.3
		C67.9,209.6,66.7,209.2,65.6,208.3z M71.6,202.7v-2.3c-0.3-0.5-1.1-0.8-1.7-0.8c-1.1,0-1.9,0.7-1.9,1.9c0,1.3,0.8,1.9,1.9,1.9
		C70.6,203.5,71.3,203.1,71.6,202.7z"/>
	<path class="st1" d="M75.9,201.7c0-2.5,1.9-4.6,4.6-4.6c2.6,0,4.4,1.9,4.4,4.8v0.6h-6.2c0.2,0.8,0.9,1.4,2.2,1.4
		c0.6,0,1.6-0.3,2.1-0.7l1.2,1.8c-0.9,0.8-2.3,1.2-3.6,1.2C77.9,206.3,75.9,204.5,75.9,201.7z M80.5,199.4c-1.2,0-1.7,0.7-1.8,1.3
		h3.6C82.2,200.1,81.8,199.4,80.5,199.4z"/>
	<path class="st1" d="M92.2,206v-5c0-1.1-0.6-1.4-1.4-1.4c-0.8,0-1.4,0.5-1.7,0.8v5.6h-2.8v-8.7h2.8v1.1c0.5-0.6,1.5-1.3,3-1.3
		c2,0,2.9,1.2,2.9,2.8v6.2H92.2z"/>
	<path class="st1" d="M96.4,201.7c0-2.7,2-4.6,4.7-4.6c1.9,0,3,0.8,3.6,1.6l-1.8,1.7c-0.3-0.5-0.9-0.8-1.6-0.8c-1.2,0-2,0.8-2,2.1
		s0.9,2.1,2,2.1c0.7,0,1.3-0.4,1.6-0.8l1.8,1.7c-0.5,0.8-1.7,1.6-3.6,1.6C98.4,206.3,96.4,204.4,96.4,201.7z"/>
	<path class="st1" d="M105.8,195c0-0.9,0.7-1.6,1.6-1.6c0.9,0,1.6,0.7,1.6,1.6s-0.7,1.6-1.6,1.6C106.5,196.6,105.8,195.9,105.8,195z
		 M106,206v-8.7h2.8v8.7H106z"/>
	<path class="st1" d="M115.9,206v-0.9c-0.5,0.6-1.6,1.1-2.7,1.1c-1.3,0-3-0.9-3-2.9c0-2.1,1.7-2.8,3-2.8c1.2,0,2.2,0.4,2.7,1v-0.9
		c0-0.8-0.6-1.3-1.8-1.3c-0.9,0-1.7,0.3-2.4,0.9l-1-1.9c1.1-1,2.6-1.4,3.9-1.4c2.1,0,4.1,0.8,4.1,3.5v5.4H115.9z M115.9,203.8V203
		c-0.3-0.4-0.9-0.6-1.5-0.6c-0.7,0-1.4,0.3-1.4,1c0,0.7,0.7,1,1.4,1C114.9,204.4,115.6,204.2,115.9,203.8z"/>
</g>
<g>
	<path class="st1" d="M15.8,22.7v-6.7h4.9v1.5h-3.2v1h3.1v1.5h-3.1v1.1h3.2v1.5H15.8z"/>
	<path class="st1" d="M21.2,21.8l0.9-1.3c0.5,0.5,1.2,0.9,2.1,0.9c0.6,0,0.9-0.2,0.9-0.5c0-0.9-3.8-0.2-3.8-2.7
		c0-1.1,0.9-2.1,2.6-2.1c1.1,0,2,0.3,2.7,0.9l-0.9,1.3c-0.6-0.5-1.3-0.7-1.9-0.7c-0.5,0-0.7,0.2-0.7,0.5c0,0.8,3.8,0.2,3.8,2.7
		c0,1.3-1,2.2-2.8,2.2C22.8,22.9,21.9,22.4,21.2,21.8z"/>
	<path class="st1" d="M29.1,22.7v-5.2h-1.9v-1.5h5.4v1.5h-1.9v5.2H29.1z"/>
	<path class="st1" d="M33.5,22.7v-6.7h1.7v6.7H33.5z"/>
	<path class="st1" d="M42.2,22.7v-4.4l-1.7,4.4h-0.8l-1.7-4.4v4.4h-1.7v-6.7h2.4l1.4,3.7l1.4-3.7H44v6.7H42.2z"/>
	<path class="st1" d="M49.7,22.7l-0.3-1h-2.6l-0.3,1h-1.9l2.5-6.7h2.2l2.5,6.7H49.7z M48.1,17.8l-0.8,2.5h1.7L48.1,17.8z"/>
	<path class="st1" d="M52.1,22.7v-6.7h2.8c2.1,0,3.6,1.3,3.6,3.3s-1.5,3.3-3.6,3.3H52.1z M56.8,19.4c0-1-0.6-1.8-1.8-1.8h-1.1v3.7
		h1.1C56.1,21.2,56.8,20.4,56.8,19.4z"/>
	<path class="st1" d="M59.1,19.4c0-2,1.5-3.4,3.6-3.4c2,0,3.6,1.4,3.6,3.4s-1.5,3.4-3.6,3.4C60.6,22.9,59.1,21.4,59.1,19.4z
		 M64.4,19.4c0-1.1-0.7-1.9-1.8-1.9c-1.1,0-1.8,0.8-1.8,1.9c0,1.1,0.7,1.9,1.8,1.9C63.7,21.3,64.4,20.5,64.4,19.4z"/>
	<path class="st1" d="M66.9,18.8c0-0.5,0.4-0.9,0.9-0.9s0.9,0.4,0.9,0.9s-0.4,0.9-0.9,0.9S66.9,19.3,66.9,18.8z M66.9,21.9
		c0-0.5,0.4-0.9,0.9-0.9s0.9,0.4,0.9,0.9c0,0.5-0.4,0.9-0.9,0.9S66.9,22.4,66.9,21.9z"/>
</g>
</svg>
