<?xml version="1.0" encoding="utf-8"?>
<!-- Generator: Adobe Illustrator 19.0.0, SVG Export Plug-In . SVG Version: 6.00 Build 0)  -->
<svg version="1.1" id="Layer_1" xmlns="http://www.w3.org/2000/svg" xmlns:xlink="http://www.w3.org/1999/xlink" x="0px" y="0px"
	 viewBox="0 0 220 126" style="enable-background:new 0 0 220 126;" xml:space="preserve">
<style type="text/css">
	.st0{fill:#008590;}
	.st1{fill:#FFFFFF;}
	.st2{clip-path:url(#SVGID_2_);fill:#FFFFFF;}
</style>
<rect x="0" class="st0" width="220" height="126"/>
<g>
	<path class="st1" d="M75.3,74.4V62.6c25.4-18.4,30.2-22.4,30.2-28.3c0-4-3.8-6.1-8.1-6.1c-6.5,0-11.4,2.5-15.7,6.4l-8.4-10
		c6.2-6.9,15.6-9.8,23.8-9.8c13.8,0,23.8,7.7,23.8,19.4c0,9.1-6.4,16.7-21,26.9h21.5v13.2H75.3z"/>
	<path class="st1" d="M128.3,67.1c0-4.4,3.9-8.2,8.4-8.2c4.5,0,8.3,3.8,8.3,8.2c0,4.5-3.8,8.3-8.3,8.3
		C132.2,75.3,128.3,71.6,128.3,67.1z"/>
	<path class="st1" d="M149.5,45.2c0-18.7,11.4-30.4,29.1-30.4c6.9,0,13.4,2.2,17.8,5.6L189.9,32c-3.3-2.6-6.5-3.9-11.3-3.9
		c-7.2,0-13.8,5.2-13.8,13.4v0.7c2.9-3.9,8.5-6.7,14.4-6.7c10.6,0,20.3,6.8,20.3,19.3c0,12.1-9.8,20.6-23.4,20.6
		C157.6,75.4,149.5,62,149.5,45.2z M184.3,55.4c0-4.9-5-7-9.6-7c-3.7,0-7.3,1.2-9.9,4c0.4,4.8,3.3,9.7,10.4,9.7
		C180.9,62.1,184.3,58.6,184.3,55.4z"/>
</g>
<g>
	<path class="st1" d="M25.8,96.5v-5.1c0-0.6-0.3-1.1-1.1-1.1c-0.7,0-1.3,0.5-1.5,0.8v5.5h-2.7v-5.1c0-0.6-0.3-1.1-1.1-1.1
		c-0.7,0-1.2,0.5-1.5,0.8v5.5h-2.7v-8.5h2.7v1c0.4-0.5,1.5-1.2,2.8-1.2c1.2,0,2,0.5,2.4,1.5c0.5-0.7,1.6-1.5,2.9-1.5
		c1.6,0,2.5,0.8,2.5,2.5v6.1H25.8z"/>
	<path class="st1" d="M30.1,85.8c0-0.9,0.7-1.5,1.5-1.5c0.9,0,1.6,0.7,1.6,1.5s-0.7,1.6-1.6,1.6C30.8,87.3,30.1,86.6,30.1,85.8z
		 M30.3,96.5v-8.5H33v8.5H30.3z"/>
	<path class="st1" d="M34.8,96.5V84.9h2.7v11.7H34.8z"/>
	<path class="st1" d="M39.3,96.5V84.9H42v11.7H39.3z"/>
	<path class="st1" d="M43.2,92.3c0-2.4,1.7-4.4,4.6-4.4c2.9,0,4.6,2,4.6,4.4s-1.7,4.4-4.6,4.4C44.9,96.8,43.2,94.7,43.2,92.3z
		 M49.7,92.3c0-1.1-0.7-2-1.9-2c-1.2,0-1.8,0.9-1.8,2c0,1.1,0.7,2.1,1.8,2.1C49,94.4,49.7,93.4,49.7,92.3z"/>
	<path class="st1" d="M59.4,96.5v-4.9c0-1-0.5-1.4-1.4-1.4c-0.8,0-1.3,0.4-1.6,0.8v5.5h-2.7v-8.5h2.7v1c0.5-0.6,1.5-1.2,2.9-1.2
		c1.9,0,2.8,1.1,2.8,2.7v6H59.4z"/>
	<path class="st1" d="M63.3,92.3c0-2.5,1.8-4.4,4.5-4.4c2.5,0,4.3,1.8,4.3,4.7v0.6h-6c0.2,0.8,0.9,1.4,2.1,1.4
		c0.6,0,1.6-0.3,2.1-0.7l1.2,1.8c-0.8,0.8-2.2,1.1-3.5,1.1C65.3,96.8,63.3,95.1,63.3,92.3z M67.8,90.1c-1.2,0-1.6,0.7-1.7,1.3h3.5
		C69.5,90.8,69.1,90.1,67.8,90.1z"/>
	<path class="st1" d="M72.6,95.4l1.1-1.9c0.6,0.6,2,1.1,3,1.1c0.8,0,1.1-0.2,1.1-0.6c0-1-4.9,0-4.9-3.4c0-1.5,1.3-2.8,3.6-2.8
		c1.4,0,2.6,0.5,3.5,1.1l-1,1.9c-0.5-0.5-1.5-0.9-2.5-0.9c-0.6,0-1,0.2-1,0.6c0,0.9,4.9,0,4.9,3.4c0,1.6-1.4,2.8-3.8,2.8
		C75,96.8,73.5,96.2,72.6,95.4z"/>
	<path class="st1" d="M91.6,96.5v-1c-0.7,0.8-1.6,1.2-2.5,1.2c-2.1,0-3.7-1.6-3.7-4.4c0-2.8,1.6-4.4,3.7-4.4c0.9,0,1.8,0.4,2.5,1.2
		v-4.2h2.7v11.7H91.6z M91.6,93.6V91c-0.3-0.5-1-0.8-1.6-0.8c-1.1,0-1.9,0.8-1.9,2s0.8,2.1,1.9,2.1C90.5,94.4,91.2,94.1,91.6,93.6z"
		/>
	<path class="st1" d="M95.5,92.3c0-2.5,1.8-4.4,4.5-4.4c2.5,0,4.3,1.8,4.3,4.7v0.6h-6c0.2,0.8,0.9,1.4,2.1,1.4
		c0.6,0,1.6-0.3,2.1-0.7l1.2,1.8c-0.8,0.8-2.2,1.1-3.5,1.1C97.5,96.8,95.5,95.1,95.5,92.3z M100,90.1c-1.2,0-1.6,0.7-1.7,1.3h3.5
		C101.7,90.8,101.2,90.1,100,90.1z"/>
	<path class="st1" d="M112.5,95.5v4.2h-2.7V88.1h2.7v1c0.7-0.8,1.5-1.2,2.5-1.2c2.1,0,3.7,1.6,3.7,4.4c0,2.9-1.6,4.4-3.7,4.4
		C114,96.8,113.2,96.4,112.5,95.5z M115.9,92.3c0-1.3-0.8-2-1.9-2c-0.6,0-1.3,0.3-1.6,0.8v2.6c0.3,0.4,1,0.8,1.6,0.8
		C115.1,94.4,115.9,93.6,115.9,92.3z"/>
	<path class="st1" d="M119.4,92.3c0-2.5,1.8-4.4,4.5-4.4c2.5,0,4.3,1.8,4.3,4.7v0.6h-6c0.2,0.8,0.9,1.4,2.1,1.4
		c0.6,0,1.6-0.3,2.1-0.7l1.2,1.8c-0.8,0.8-2.2,1.1-3.5,1.1C121.4,96.8,119.4,95.1,119.4,92.3z M123.8,90.1c-1.2,0-1.6,0.7-1.7,1.3
		h3.5C125.5,90.8,125.1,90.1,123.8,90.1z"/>
	<path class="st1" d="M129.3,96.5v-8.5h2.7v1c0.6-0.7,1.6-1.3,2.6-1.3v2.6c-0.2-0.1-0.4-0.1-0.7-0.1c-0.7,0-1.6,0.3-2,0.8v5.4H129.3
		z"/>
	<path class="st1" d="M135,95.4l1.1-1.9c0.6,0.6,2,1.1,3,1.1c0.8,0,1.1-0.2,1.1-0.6c0-1-4.9,0-4.9-3.4c0-1.5,1.3-2.8,3.6-2.8
		c1.4,0,2.6,0.5,3.5,1.1l-1,1.9c-0.5-0.5-1.5-0.9-2.5-0.9c-0.6,0-1,0.2-1,0.6c0,0.9,4.9,0,4.9,3.4c0,1.6-1.4,2.8-3.8,2.8
		C137.4,96.8,135.9,96.2,135,95.4z"/>
	<path class="st1" d="M143.5,92.3c0-2.4,1.7-4.4,4.6-4.4c2.9,0,4.6,2,4.6,4.4s-1.7,4.4-4.6,4.4C145.2,96.8,143.5,94.7,143.5,92.3z
		 M149.9,92.3c0-1.1-0.7-2-1.9-2c-1.2,0-1.8,0.9-1.8,2c0,1.1,0.7,2.1,1.8,2.1C149.2,94.4,149.9,93.4,149.9,92.3z"/>
	<path class="st1" d="M159.6,96.5v-4.9c0-1-0.5-1.4-1.4-1.4c-0.8,0-1.3,0.4-1.6,0.8v5.5h-2.7v-8.5h2.7v1c0.5-0.6,1.5-1.2,2.9-1.2
		c1.9,0,2.8,1.1,2.8,2.7v6H159.6z"/>
	<path class="st1" d="M169.1,96.5v-0.8c-0.5,0.6-1.5,1-2.6,1c-1.3,0-2.9-0.9-2.9-2.8c0-2,1.6-2.7,2.9-2.7c1.1,0,2.1,0.4,2.6,1v-0.8
		c0-0.7-0.6-1.2-1.7-1.2c-0.8,0-1.7,0.3-2.4,0.9l-1-1.9c1.1-0.9,2.5-1.3,3.8-1.3c2,0,3.9,0.8,3.9,3.4v5.3H169.1z M169.1,94.4v-0.8
		c-0.3-0.4-0.9-0.6-1.5-0.6c-0.7,0-1.3,0.3-1.3,1s0.6,1,1.3,1C168.2,95,168.8,94.8,169.1,94.4z"/>
	<path class="st1" d="M172.9,95.4l1.1-1.9c0.6,0.6,2,1.1,3,1.1c0.8,0,1.1-0.2,1.1-0.6c0-1-4.9,0-4.9-3.4c0-1.5,1.3-2.8,3.6-2.8
		c1.4,0,2.6,0.5,3.5,1.1l-1,1.9c-0.5-0.5-1.5-0.9-2.5-0.9c-0.6,0-1,0.2-1,0.6c0,0.9,4.9,0,4.9,3.4c0,1.6-1.4,2.8-3.8,2.8
		C175.3,96.8,173.8,96.2,172.9,95.4z"/>
	<path class="st1" d="M15.8,113.3v-3.9h-1.4v-2.3h1.4v-2.3h2.7v2.3h1.7v2.3h-1.7v3.1c0,0.5,0.3,0.9,0.7,0.9c0.3,0,0.6-0.1,0.7-0.2
		l0.5,2c-0.3,0.3-1,0.6-2,0.6C16.7,115.8,15.8,114.9,15.8,113.3z"/>
	<path class="st1" d="M26.3,115.5v-0.8c-0.5,0.6-1.5,1-2.6,1c-1.3,0-2.9-0.9-2.9-2.8c0-2,1.6-2.7,2.9-2.7c1.1,0,2.1,0.4,2.6,1v-0.8
		c0-0.7-0.6-1.2-1.7-1.2c-0.8,0-1.7,0.3-2.4,0.9l-1-1.9c1.1-0.9,2.5-1.3,3.8-1.3c2,0,3.9,0.8,3.9,3.4v5.3H26.3z M26.3,113.4v-0.8
		c-0.3-0.4-0.9-0.6-1.5-0.6c-0.7,0-1.3,0.3-1.3,1s0.6,1,1.3,1C25.4,114,26,113.8,26.3,113.4z"/>
	<path class="st1" d="M41.4,115.5v-5.1c0-0.6-0.3-1.1-1.1-1.1c-0.7,0-1.3,0.5-1.5,0.8v5.5h-2.7v-5.1c0-0.6-0.3-1.1-1.1-1.1
		c-0.7,0-1.2,0.5-1.5,0.8v5.5h-2.7v-8.5h2.7v1c0.4-0.5,1.5-1.2,2.8-1.2c1.2,0,2,0.5,2.4,1.5c0.5-0.7,1.6-1.5,2.9-1.5
		c1.6,0,2.5,0.8,2.5,2.5v6.1H41.4z"/>
	<path class="st1" d="M45.7,104.8c0-0.9,0.7-1.5,1.5-1.5c0.9,0,1.6,0.7,1.6,1.5s-0.7,1.6-1.6,1.6C46.4,106.3,45.7,105.6,45.7,104.8z
		 M45.9,115.5v-8.5h2.7v8.5H45.9z"/>
	<path class="st1" d="M50.1,115.5v-2l3.4-4.1h-3.4v-2.3h7.1v1.9l-3.5,4.2h3.5v2.3H50.1z"/>
	<path class="st1" d="M63.7,115.5v-0.8c-0.5,0.6-1.5,1-2.6,1c-1.3,0-2.9-0.9-2.9-2.8c0-2,1.6-2.7,2.9-2.7c1.1,0,2.1,0.4,2.6,1v-0.8
		c0-0.7-0.6-1.2-1.7-1.2c-0.8,0-1.7,0.3-2.4,0.9l-1-1.9c1.1-0.9,2.5-1.3,3.8-1.3c2,0,3.9,0.8,3.9,3.4v5.3H63.7z M63.7,113.4v-0.8
		c-0.3-0.4-0.9-0.6-1.5-0.6c-0.7,0-1.3,0.3-1.3,1s0.6,1,1.3,1C62.8,114,63.4,113.8,63.7,113.4z"/>
	<path class="st1" d="M73.8,115.5v-1c-0.7,0.8-1.6,1.2-2.5,1.2c-2.1,0-3.7-1.6-3.7-4.4c0-2.8,1.6-4.4,3.7-4.4c0.9,0,1.8,0.4,2.5,1.2
		v-4.2h2.7v11.7H73.8z M73.8,112.6V110c-0.3-0.5-1-0.8-1.6-0.8c-1.1,0-1.9,0.8-1.9,2s0.8,2.1,1.9,2.1
		C72.8,113.4,73.5,113.1,73.8,112.6z"/>
	<path class="st1" d="M83.3,115.5v-0.8c-0.5,0.6-1.5,1-2.6,1c-1.3,0-2.9-0.9-2.9-2.8c0-2,1.6-2.7,2.9-2.7c1.1,0,2.1,0.4,2.6,1v-0.8
		c0-0.7-0.6-1.2-1.7-1.2c-0.8,0-1.7,0.3-2.4,0.9l-1-1.9c1.1-0.9,2.5-1.3,3.8-1.3c2,0,3.9,0.8,3.9,3.4v5.3H83.3z M83.3,113.4v-0.8
		c-0.3-0.4-0.9-0.6-1.5-0.6c-0.7,0-1.3,0.3-1.3,1s0.6,1,1.3,1C82.4,114,83,113.8,83.3,113.4z"/>
	<path class="st1" d="M87.1,114.4l1.1-1.9c0.6,0.6,2,1.1,3,1.1c0.8,0,1.1-0.2,1.1-0.6c0-1-4.9,0-4.9-3.4c0-1.5,1.3-2.8,3.6-2.8
		c1.4,0,2.6,0.5,3.5,1.1l-1,1.9C93,109.4,92,109,91,109c-0.6,0-1,0.2-1,0.6c0,0.9,4.9,0,4.9,3.4c0,1.6-1.4,2.8-3.8,2.8
		C89.5,115.8,88,115.2,87.1,114.4z"/>
</g>
<g>
	<defs>
		<rect id="SVGID_1_" x="15.2" y="16.1" width="50.3" height="57.9"/>
	</defs>
	<clipPath id="SVGID_2_">
		<use xlink:href="#SVGID_1_"  style="overflow:visible;"/>
	</clipPath>
	<path class="st2" d="M60.2,30.4c0,1.8-0.8,3.6-2.5,5.3l-0.3,0.3L43,51.1c-3.1,3.2-5.7,5.7-7.8,7.5c-2.2,1.8-3.7,2.6-4.6,2.6
		c-0.9,0-2.1-0.4-3.5-1.3c-1.4-0.9-2.3-1.8-2.7-2.7c-0.3-0.8-0.7-2.4-1-4.9C23.2,49.7,23,47,23,44.1c0-1.6,0.7-3.1,2-4.4
		c1.3-1.4,2.8-2,4.4-2c1.5,0,2.5,1.4,2.8,4.2c0,0.3,0.1,0.6,0.1,0.7c0.2,2.2,0.5,3.7,0.9,4.5c0.3,0.9,0.8,1.3,1.3,1.3
		c0.2,0,0.7-0.3,1.3-0.8c0.6-0.5,1.4-1.2,2.3-2.1l14.8-14.7c1.2-1.2,2.4-2.2,3.3-2.8c1-0.6,1.8-1,2.5-1c0.5,0,0.9,0.2,1.1,0.6
		c0.2,0.4,0.3,1,0.3,2V30.4z M65.5,16.1H15.2V74h50.3V16.1z"/>
</g>
</svg>
