<?xml version="1.0" encoding="utf-8"?>
<!-- Generator: Adobe Illustrator 19.0.0, SVG Export Plug-In . SVG Version: 6.00 Build 0)  -->
<svg version="1.1" id="Layer_1" xmlns="http://www.w3.org/2000/svg" xmlns:xlink="http://www.w3.org/1999/xlink" x="0px" y="0px"
	 viewBox="0 0 220 135" style="enable-background:new 0 0 220 135;" xml:space="preserve">
<style type="text/css">
	.st0{fill:#008590;}
	.st1{clip-path:url(#SVGID_2_);fill:#FFFFFF;}
	.st2{clip-path:url(#SVGID_2_);fill:#008590;}
	.st3{fill:#FFFFFF;}
</style>
<rect x="0" class="st0" width="220" height="135"/>
<g>
	<defs>
		<rect id="SVGID_1_" x="4.9" y="16.1" width="57.4" height="101.6"/>
	</defs>
	<clipPath id="SVGID_2_">
		<use xlink:href="#SVGID_1_"  style="overflow:visible;"/>
	</clipPath>
	<path class="st1" d="M33.9,97.3c-6.2,0.1-11.9-1.8-16.7-4.9l2.7,25.3l29.2-0.3l2.2-25.9C46.5,95.1,40.4,97.3,33.9,97.3"/>
	<path class="st1" d="M33.4,36.2c6.5-0.1,12.5,2,17.4,5.4L48,16.1l-29.2,0.3l-2.1,25.1C21.4,38.2,27.2,36.2,33.4,36.2"/>
	<path class="st1" d="M33.9,95.5C18.1,95.6,5.1,82.9,4.9,67c-0.1-15.8,12.6-28.8,28.4-29c15.8-0.1,28.8,12.6,29,28.4
		C62.5,82.3,49.7,95.3,33.9,95.5 M33.4,41.5C19.5,41.6,8.3,53.1,8.4,67C8.5,80.9,20,92.1,33.9,92c13.9-0.1,25.1-11.6,25-25.5
		C58.8,52.6,47.3,41.4,33.4,41.5"/>
	<path class="st1" d="M33.6,66.5l-22,13c-7.2-12.1-3.1-27.8,9-35c4-2.4,8-3.5,12.7-3.5L33.6,66.5z"/>
	<path class="st2" d="M33.6,66.5l-0.2-25.5C47.5,40.8,59,52.1,59.2,66.2C59.3,80.3,48,91.9,33.9,92c-9.4,0.1-17.5-4.5-22.2-12.6
		L33.6,66.5z"/>
</g>
<g>
	<path class="st3" d="M59.1,25.7v-5.8l-1.5,1.5L56.4,20l3-3h1.9v8.7H59.1z"/>
	<path class="st3" d="M68.2,24.9v3.1h-2v-8.7h2v0.7c0.5-0.6,1.1-0.9,1.9-0.9c1.6,0,2.8,1.2,2.8,3.3c0,2.1-1.2,3.3-2.8,3.3
		C69.4,25.8,68.7,25.5,68.2,24.9z M70.8,22.5c0-0.9-0.6-1.5-1.4-1.5c-0.4,0-0.9,0.2-1.2,0.6v1.9c0.2,0.3,0.8,0.6,1.2,0.6
		C70.2,24,70.8,23.5,70.8,22.5z"/>
	<path class="st3" d="M73.5,22.5c0-1.8,1.4-3.3,3.3-3.3c1.9,0,3.2,1.4,3.2,3.5v0.5h-4.5c0.1,0.6,0.7,1,1.6,1c0.4,0,1.2-0.2,1.5-0.5
		l0.9,1.3c-0.6,0.6-1.7,0.8-2.6,0.8C74.9,25.8,73.5,24.6,73.5,22.5z M76.8,20.8c-0.9,0-1.2,0.5-1.3,1h2.6
		C78,21.4,77.7,20.8,76.8,20.8z"/>
	<path class="st3" d="M81,25.7v-6.3h2v0.8c0.4-0.5,1.2-0.9,2-0.9v1.9c-0.1,0-0.3-0.1-0.5-0.1c-0.5,0-1.2,0.2-1.5,0.6v4H81z"/>
	<path class="st3" d="M85.3,24.8l0.8-1.4c0.5,0.4,1.5,0.8,2.2,0.8c0.6,0,0.8-0.2,0.8-0.4c0-0.8-3.7,0-3.7-2.5c0-1.1,1-2.1,2.7-2.1
		c1.1,0,2,0.3,2.6,0.8l-0.8,1.4c-0.4-0.4-1.1-0.7-1.8-0.7c-0.5,0-0.8,0.2-0.8,0.4c0,0.7,3.6,0,3.6,2.5c0,1.2-1.1,2.1-2.8,2.1
		C87.2,25.8,86,25.4,85.3,24.8z"/>
	<path class="st3" d="M91.8,22.5c0-1.8,1.3-3.3,3.4-3.3c2.2,0,3.4,1.5,3.4,3.3s-1.3,3.3-3.4,3.3C93,25.8,91.8,24.3,91.8,22.5z
		 M96.5,22.5c0-0.8-0.5-1.5-1.4-1.5c-0.9,0-1.4,0.7-1.4,1.5c0,0.8,0.5,1.5,1.4,1.5C96,24,96.5,23.4,96.5,22.5z"/>
	<path class="st3" d="M103.9,25.7V22c0-0.8-0.4-1-1-1c-0.6,0-1,0.3-1.2,0.6v4.1h-2v-6.3h2v0.8c0.4-0.4,1.1-0.9,2.2-0.9
		c1.4,0,2.1,0.8,2.1,2v4.4H103.9z"/>
	<path class="st3" d="M111.1,25.7V25c-0.4,0.5-1.1,0.8-2,0.8c-1,0-2.2-0.7-2.2-2.1c0-1.5,1.2-2,2.2-2c0.8,0,1.6,0.3,2,0.7v-0.6
		c0-0.5-0.5-0.9-1.3-0.9c-0.6,0-1.2,0.2-1.8,0.7l-0.7-1.4c0.8-0.7,1.9-1,2.8-1c1.5,0,2.9,0.6,2.9,2.5v3.9H111.1z M111.1,24v-0.6
		c-0.2-0.3-0.7-0.4-1.1-0.4c-0.5,0-1,0.2-1,0.7c0,0.5,0.5,0.7,1,0.7C110.4,24.5,110.9,24.3,111.1,24z"/>
	<path class="st3" d="M117.4,22.5c0-1.8,1.4-3.3,3.3-3.3c1.9,0,3.2,1.4,3.2,3.5v0.5h-4.5c0.1,0.6,0.7,1,1.6,1c0.4,0,1.2-0.2,1.5-0.5
		l0.9,1.3c-0.6,0.6-1.7,0.8-2.6,0.8C118.9,25.8,117.4,24.6,117.4,22.5z M120.8,20.8c-0.9,0-1.2,0.5-1.3,1h2.6
		C122,21.4,121.7,20.8,120.8,20.8z"/>
	<path class="st3" d="M128.8,25.7l-1.2-1.9l-1.2,1.9h-2.2l2.1-3.2l-2-3.1h2.2l1.1,1.7l1.1-1.7h2.2l-2,3.1l2.1,3.2H128.8z"/>
	<path class="st3" d="M135.3,25.7V25c-0.4,0.5-1.1,0.8-2,0.8c-1,0-2.2-0.7-2.2-2.1c0-1.5,1.2-2,2.2-2c0.8,0,1.6,0.3,2,0.7v-0.6
		c0-0.5-0.5-0.9-1.3-0.9c-0.6,0-1.2,0.2-1.8,0.7l-0.7-1.4c0.8-0.7,1.9-1,2.8-1c1.5,0,2.9,0.6,2.9,2.5v3.9H135.3z M135.3,24v-0.6
		c-0.2-0.3-0.7-0.4-1.1-0.4c-0.5,0-1,0.2-1,0.7c0,0.5,0.5,0.7,1,0.7C134.7,24.5,135.1,24.3,135.3,24z"/>
	<path class="st3" d="M146.7,25.7v-3.8c0-0.5-0.2-0.8-0.8-0.8c-0.5,0-0.9,0.4-1.1,0.6v4.1h-2v-3.8c0-0.5-0.2-0.8-0.8-0.8
		c-0.5,0-0.9,0.4-1.1,0.6v4.1h-2v-6.3h2v0.8c0.3-0.4,1.1-0.9,2.1-0.9c0.9,0,1.5,0.4,1.8,1.1c0.4-0.5,1.2-1.1,2.2-1.1
		c1.2,0,1.9,0.6,1.9,1.9v4.6H146.7z"/>
	<path class="st3" d="M150,17.7c0-0.6,0.5-1.1,1.1-1.1c0.6,0,1.2,0.5,1.2,1.1c0,0.6-0.5,1.2-1.2,1.2C150.5,18.8,150,18.3,150,17.7z
		 M150.2,25.7v-6.3h2v6.3H150.2z"/>
	<path class="st3" d="M157.9,25.7V22c0-0.8-0.4-1-1-1c-0.6,0-1,0.3-1.2,0.6v4.1h-2v-6.3h2v0.8c0.4-0.4,1.1-0.9,2.2-0.9
		c1.4,0,2.1,0.8,2.1,2v4.4H157.9z"/>
	<path class="st3" d="M165,25.7V25c-0.4,0.5-1.1,0.8-2,0.8c-1,0-2.2-0.7-2.2-2.1c0-1.5,1.2-2,2.2-2c0.8,0,1.6,0.3,2,0.7v-0.6
		c0-0.5-0.5-0.9-1.3-0.9c-0.6,0-1.2,0.2-1.8,0.7l-0.7-1.4c0.8-0.7,1.9-1,2.8-1c1.5,0,2.9,0.6,2.9,2.5v3.9H165z M165,24v-0.6
		c-0.2-0.3-0.7-0.4-1.1-0.4c-0.5,0-1,0.2-1,0.7c0,0.5,0.5,0.7,1,0.7C164.4,24.5,164.8,24.3,165,24z"/>
	<path class="st3" d="M172.7,25.7v-0.7c-0.5,0.6-1.2,0.9-1.9,0.9c-1.5,0-2.8-1.2-2.8-3.3c0-2.1,1.2-3.3,2.8-3.3
		c0.7,0,1.4,0.3,1.9,0.9V17h2v8.7H172.7z M172.7,23.5v-1.9c-0.3-0.3-0.8-0.6-1.2-0.6c-0.8,0-1.4,0.6-1.4,1.5s0.6,1.5,1.4,1.5
		C171.9,24,172.5,23.8,172.7,23.5z"/>
	<path class="st3" d="M179.9,25.7V25c-0.4,0.5-1.1,0.8-2,0.8c-1,0-2.2-0.7-2.2-2.1c0-1.5,1.2-2,2.2-2c0.8,0,1.6,0.3,2,0.7v-0.6
		c0-0.5-0.5-0.9-1.3-0.9c-0.6,0-1.2,0.2-1.8,0.7l-0.7-1.4c0.8-0.7,1.9-1,2.8-1c1.5,0,2.9,0.6,2.9,2.5v3.9H179.9z M179.9,24v-0.6
		c-0.2-0.3-0.7-0.4-1.1-0.4c-0.5,0-1,0.2-1,0.7c0,0.5,0.5,0.7,1,0.7C179.2,24.5,179.7,24.3,179.9,24z"/>
	<path class="st3" d="M186.3,22.5c0-2,1.5-3.3,3.4-3.3c1.4,0,2.2,0.6,2.6,1.2l-1.3,1.2c-0.2-0.4-0.7-0.6-1.2-0.6
		c-0.8,0-1.5,0.6-1.5,1.5c0,0.9,0.6,1.5,1.5,1.5c0.5,0,0.9-0.3,1.2-0.6l1.3,1.2c-0.4,0.5-1.2,1.2-2.6,1.2
		C187.7,25.8,186.3,24.5,186.3,22.5z"/>
	<path class="st3" d="M196.9,25.7V25c-0.4,0.5-1.1,0.8-1.9,0.8c-1,0-2.2-0.7-2.2-2.1c0-1.5,1.2-2,2.2-2c0.8,0,1.6,0.3,1.9,0.7v-0.6
		c0-0.5-0.5-0.9-1.3-0.9c-0.6,0-1.2,0.2-1.8,0.7l-0.7-1.4c0.8-0.7,1.9-1,2.8-1c1.5,0,2.9,0.6,2.9,2.5v3.9H196.9z M196.9,24v-0.6
		c-0.2-0.3-0.7-0.4-1.1-0.4c-0.5,0-1,0.2-1,0.7c0,0.5,0.5,0.7,1,0.7C196.2,24.5,196.7,24.3,196.9,24z"/>
	<path class="st3" d="M204.6,25.7v-0.7c-0.5,0.6-1.2,0.9-1.9,0.9c-1.5,0-2.8-1.2-2.8-3.3c0-2.1,1.2-3.3,2.8-3.3
		c0.7,0,1.4,0.3,1.9,0.9V17h2v8.7H204.6z M204.6,23.5v-1.9c-0.3-0.3-0.8-0.6-1.2-0.6c-0.8,0-1.4,0.6-1.4,1.5s0.6,1.5,1.4,1.5
		C203.8,24,204.3,23.8,204.6,23.5z"/>
	<path class="st3" d="M211.7,25.7V25c-0.4,0.5-1.1,0.8-1.9,0.8c-1,0-2.2-0.7-2.2-2.1c0-1.5,1.2-2,2.2-2c0.8,0,1.6,0.3,1.9,0.7v-0.6
		c0-0.5-0.5-0.9-1.3-0.9c-0.6,0-1.2,0.2-1.8,0.7l-0.7-1.4c0.8-0.7,1.9-1,2.8-1c1.5,0,2.9,0.6,2.9,2.5v3.9H211.7z M211.7,24v-0.6
		c-0.2-0.3-0.7-0.4-1.1-0.4c-0.5,0-1,0.2-1,0.7c0,0.5,0.5,0.7,1,0.7C211,24.5,211.5,24.3,211.7,24z"/>
</g>
<g>
	<path class="st3" d="M107.6,95.5V84.8H79.5V73l22.3-36.2h21v34.7h7.1v13.3h-7.1v10.7H107.6z M107.6,50L94.2,71.5h13.4V50z"/>
	<path class="st3" d="M134.1,66.2c0-15.5,8-30.3,25.2-30.3s25.2,14.8,25.2,30.3c0,15.5-8,30.4-25.2,30.4S134.1,81.7,134.1,66.2z
		 M169.1,66.2c0-10.4-2.8-16.9-9.9-16.9s-9.9,6.5-9.9,16.9s2.8,17,9.9,17S169.1,76.6,169.1,66.2z"/>
</g>
<g>
	<path class="st3" d="M79.5,116l1.9-3.3c1.1,1,3.4,1.9,5.1,1.9c1.4,0,1.9-0.4,1.9-1c0-1.8-8.4,0.1-8.4-5.8c0-2.5,2.2-4.8,6.2-4.8
		c2.5,0,4.5,0.8,6.1,1.9l-1.8,3.3c-0.9-0.8-2.5-1.6-4.3-1.6c-1.1,0-1.8,0.4-1.8,1c0,1.6,8.4-0.1,8.4,5.9c0,2.8-2.4,4.7-6.6,4.7
		C83.7,118.2,81.1,117.3,79.5,116z"/>
	<path class="st3" d="M94.4,110.6c0-4.2,3.1-7.6,7.7-7.6c4.3,0,7.4,3.2,7.4,8.1v1H99.1c0.3,1.3,1.5,2.4,3.6,2.4c1,0,2.7-0.5,3.5-1.2
		l2,3c-1.4,1.3-3.8,1.9-6.1,1.9C97.8,118.2,94.4,115.3,94.4,110.6z M102,106.7c-2,0-2.8,1.2-3,2.2h6
		C104.9,107.9,104.2,106.7,102,106.7z"/>
	<path class="st3" d="M111.3,121.6l2-3.2c1.1,1.2,2.7,1.7,4.4,1.7c1.5,0,3.7-0.7,3.7-3.4v-1.1c-1.2,1.4-2.6,2.1-4.3,2.1
		c-3.5,0-6.4-2.4-6.4-7.3c0-4.8,2.7-7.3,6.4-7.3c1.6,0,3.1,0.6,4.3,2.1v-1.7h4.6v13.2c0,5.9-4.7,7.1-8.3,7.1
		C115.3,123.7,113.2,123.1,111.3,121.6z M121.5,112.2v-3.9c-0.6-0.8-1.8-1.3-2.8-1.3c-1.8,0-3.2,1.1-3.2,3.2c0,2.1,1.3,3.2,3.2,3.2
		C119.7,113.5,120.9,113,121.5,112.2z"/>
	<path class="st3" d="M139.2,117.8v-1.7c-0.9,1-2.5,2.1-5,2.1c-3.3,0-4.8-1.9-4.8-4.5v-10.3h4.6v8.4c0,1.8,0.9,2.4,2.4,2.4
		c1.3,0,2.2-0.7,2.8-1.4v-9.4h4.6v14.5H139.2z"/>
	<path class="st3" d="M157,117.8v-8.4c0-1.8-0.9-2.4-2.4-2.4c-1.4,0-2.3,0.8-2.8,1.4v9.4h-4.6v-14.5h4.6v1.8c0.9-1,2.6-2.1,5-2.1
		c3.3,0,4.8,1.9,4.8,4.6v10.3H157z"/>
	<path class="st3" d="M174.7,117.8v-1.7c-1.2,1.4-2.7,2-4.3,2c-3.6,0-6.4-2.7-6.4-7.6c0-4.7,2.8-7.6,6.4-7.6c1.6,0,3.2,0.6,4.3,2.1
		v-7.2h4.6v20H174.7z M174.7,112.8v-4.4c-0.6-0.8-1.8-1.3-2.8-1.3c-1.8,0-3.2,1.3-3.2,3.5s1.3,3.5,3.2,3.5
		C172.9,114.1,174.1,113.6,174.7,112.8z"/>
	<path class="st3" d="M181.8,110.6c0-4.1,2.9-7.6,7.9-7.6c5,0,7.9,3.5,7.9,7.6s-2.9,7.6-7.9,7.6
		C184.7,118.2,181.8,114.7,181.8,110.6z M192.8,110.6c0-1.9-1.1-3.5-3.2-3.5c-2,0-3.1,1.6-3.1,3.5c0,2,1.1,3.5,3.1,3.5
		C191.7,114.1,192.8,112.5,192.8,110.6z"/>
	<path class="st3" d="M198.8,116l1.9-3.3c1.1,1,3.4,1.9,5.1,1.9c1.4,0,2-0.4,2-1c0-1.8-8.4,0.1-8.4-5.8c0-2.5,2.2-4.8,6.2-4.8
		c2.5,0,4.5,0.8,6.1,1.9l-1.8,3.3c-0.9-0.8-2.5-1.6-4.3-1.6c-1.1,0-1.8,0.4-1.8,1c0,1.6,8.4-0.1,8.4,5.9c0,2.8-2.4,4.7-6.6,4.7
		C203,118.2,200.3,117.3,198.8,116z"/>
</g>
</svg>
