<?xml version="1.0" encoding="utf-8"?>
<!-- Generator: Adobe Illustrator 19.0.0, SVG Export Plug-In . SVG Version: 6.00 Build 0)  -->
<svg version="1.1" id="Layer_1" xmlns="http://www.w3.org/2000/svg" xmlns:xlink="http://www.w3.org/1999/xlink" x="0px" y="0px"
	 viewBox="0 0 220 174.8" style="enable-background:new 0 0 220 174.8;" xml:space="preserve">
<style type="text/css">
	.st0{fill:#008590;}
	.st1{fill:#FFFFFF;}
</style>
<rect x="0" class="st0" width="220" height="174.8"/>
<g>
	<path class="st1" d="M15.4,23.1l1.3-1.9c0.7,0.7,1.7,1.2,3,1.2c0.8,0,1.3-0.3,1.3-0.7c0-1.2-5.3-0.2-5.3-3.8c0-1.6,1.3-3,3.7-3
		c1.5,0,2.8,0.4,3.8,1.3L21.9,18c-0.8-0.7-1.8-1-2.7-1c-0.7,0-1,0.2-1,0.6c0,1.1,5.3,0.3,5.3,3.8c0,1.9-1.4,3.1-3.9,3.1
		C17.6,24.6,16.3,24,15.4,23.1z"/>
	<path class="st1" d="M23.8,21c0-2,1.5-3.5,3.6-3.5c2,0,3.5,1.5,3.5,3.8v0.5H26c0.2,0.6,0.7,1.1,1.7,1.1c0.5,0,1.3-0.2,1.7-0.6
		l0.9,1.4c-0.7,0.6-1.8,0.9-2.8,0.9C25.4,24.6,23.8,23.2,23.8,21z M27.4,19.2c-0.9,0-1.3,0.6-1.4,1.1h2.8
		C28.7,19.8,28.3,19.2,27.4,19.2z"/>
	<path class="st1" d="M34.9,24.4v-6.8h2.2v0.8c0.4-0.5,1.3-1,2.1-1v2.1c-0.1,0-0.3-0.1-0.5-0.1c-0.6,0-1.3,0.2-1.6,0.6v4.3H34.9z"/>
	<path class="st1" d="M39.4,21c0-2,1.5-3.5,3.6-3.5c2,0,3.5,1.5,3.5,3.8v0.5h-4.8c0.2,0.6,0.7,1.1,1.7,1.1c0.5,0,1.3-0.2,1.7-0.6
		l0.9,1.4c-0.7,0.6-1.8,0.9-2.8,0.9C41,24.6,39.4,23.2,39.4,21z M43,19.2c-0.9,0-1.3,0.6-1.4,1.1h2.8C44.4,19.8,44,19.2,43,19.2z"/>
	<path class="st1" d="M46.8,21c0-2.3,1.3-3.5,3-3.5c0.8,0,1.5,0.3,2,1v-0.8h2.2V27h-2.2v-3.4c-0.6,0.7-1.2,1-2,1
		C48.1,24.6,46.8,23.3,46.8,21z M51.8,22V20c-0.3-0.4-0.8-0.6-1.3-0.6C49.7,19.4,49,20,49,21c0,1,0.6,1.7,1.5,1.7
		C51,22.7,51.5,22.4,51.8,22z"/>
	<path class="st1" d="M59.8,24.4v-0.8c-0.4,0.5-1.2,1-2.3,1c-1.5,0-2.2-0.9-2.2-2.1v-4.8h2.2v3.9c0,0.8,0.4,1.1,1.1,1.1
		c0.6,0,1-0.3,1.3-0.7v-4.4h2.2v6.8H59.8z"/>
	<path class="st1" d="M63.1,15.8c0-0.7,0.5-1.2,1.2-1.2c0.7,0,1.2,0.5,1.2,1.2c0,0.7-0.6,1.2-1.2,1.2C63.6,17,63.1,16.5,63.1,15.8z
		 M63.2,24.4v-6.8h2.2v6.8H63.2z"/>
	<path class="st1" d="M66.2,21c0-2,1.5-3.5,3.6-3.5c2,0,3.5,1.5,3.5,3.8v0.5h-4.8c0.2,0.6,0.7,1.1,1.7,1.1c0.5,0,1.3-0.2,1.7-0.6
		l0.9,1.4c-0.7,0.6-1.8,0.9-2.8,0.9C67.8,24.6,66.2,23.2,66.2,21z M69.8,19.2c-0.9,0-1.3,0.6-1.4,1.1h2.8
		C71.2,19.8,70.8,19.2,69.8,19.2z"/>
	<path class="st1" d="M74.1,24.4v-6.8h2.2v0.8c0.4-0.5,1.3-1,2.1-1v2.1c-0.1,0-0.3-0.1-0.5-0.1c-0.6,0-1.3,0.2-1.6,0.6v4.3H74.1z"/>
	<path class="st1" d="M78.6,21c0-2,1.5-3.5,3.6-3.5c2,0,3.5,1.5,3.5,3.8v0.5h-4.8c0.2,0.6,0.7,1.1,1.7,1.1c0.5,0,1.3-0.2,1.7-0.6
		l0.9,1.4c-0.7,0.6-1.8,0.9-2.8,0.9C80.2,24.6,78.6,23.2,78.6,21z M82.2,19.2c-0.9,0-1.3,0.6-1.4,1.1h2.8
		C83.5,19.8,83.2,19.2,82.2,19.2z"/>
	<path class="st1" d="M91,24.4v-3.9c0-0.8-0.4-1.1-1.1-1.1c-0.6,0-1.1,0.4-1.3,0.7v4.4h-2.2v-6.8h2.2v0.8c0.4-0.5,1.2-1,2.4-1
		c1.5,0,2.2,0.9,2.2,2.1v4.8H91z"/>
	<path class="st1" d="M18.4,81.4v-9.6c20.8-15,24.7-18.4,24.7-23.2c0-3.2-3.1-5-6.6-5c-5.3,0-9.4,2-12.8,5.3l-6.8-8.2
		c5.1-5.6,12.7-8,19.4-8c11.3,0,19.4,6.3,19.4,15.9c0,7.4-5.3,13.7-17.2,22H56v10.8H18.4z"/>
	<path class="st1" d="M66.1,91.6l-4.6-3.7c2.3-1.2,5.3-4.2,6.1-6.8c-0.3,0.1-1,0.2-1.7,0.2c-3.1,0-5.6-2.4-5.6-5.9
		c0-3.7,3-6.6,6.6-6.6c3.9,0,7.3,3,7.3,8.3C74.3,82.9,71.2,88.1,66.1,91.6z"/>
	<path class="st1" d="M99.9,81.4v-8.8h-23V63l18.2-29.6h17.2v28.4h5.8v10.9h-5.8v8.8H99.9z M99.9,44.2L88.9,61.7h10.9V44.2z"/>
	<path class="st1" d="M142.8,81.4v-8.8h-23V63L138,33.4h17.2v28.4h5.8v10.9h-5.8v8.8H142.8z M142.8,44.2l-10.9,17.6h10.9V44.2z"/>
	<path class="st1" d="M163,57.4c0-12.7,6.6-24.8,20.6-24.8s20.6,12.1,20.6,24.8c0,12.7-6.6,24.8-20.6,24.8S163,70.1,163,57.4z
		 M191.7,57.4c0-8.5-2.3-13.8-8.1-13.8s-8.1,5.3-8.1,13.8s2.3,13.9,8.1,13.9S191.7,65.9,191.7,57.4z"/>
	<path class="st1" d="M16,104.1c0-4.2,3.1-7.6,7.7-7.6c4.3,0,7.4,3.2,7.4,8.1v1H20.7c0.3,1.3,1.5,2.4,3.6,2.4c1,0,2.7-0.4,3.5-1.2
		l2,3c-1.4,1.3-3.8,1.9-6.1,1.9C19.4,111.8,16,108.9,16,104.1z M23.6,100.3c-2,0-2.8,1.2-3,2.2h6C26.5,101.5,25.8,100.3,23.6,100.3z
		"/>
	<path class="st1" d="M43.1,111.4V103c0-1.8-0.9-2.4-2.4-2.4c-1.4,0-2.3,0.8-2.8,1.4v9.4h-4.6V96.9h4.6v1.8c0.9-1,2.6-2.1,5-2.1
		c3.3,0,4.8,1.9,4.8,4.6v10.3H43.1z"/>
	<path class="st1" d="M50.2,104.1c0-4.5,3.4-7.6,7.9-7.6c3.1,0,5.1,1.4,5.9,2.7l-3,2.8c-0.6-0.8-1.5-1.4-2.7-1.4
		c-1.9,0-3.4,1.3-3.4,3.5c0,2.2,1.5,3.5,3.4,3.5c1.2,0,2.2-0.6,2.7-1.4l3,2.8c-0.9,1.3-2.8,2.7-5.9,2.7
		C53.5,111.8,50.2,108.7,50.2,104.1z"/>
	<path class="st1" d="M75.9,111.4v-1.7c-0.9,1-2.5,2.1-5,2.1c-3.3,0-4.8-1.9-4.8-4.5V96.9h4.6v8.4c0,1.8,0.9,2.4,2.4,2.4
		c1.3,0,2.2-0.7,2.8-1.4v-9.4h4.6v14.5H75.9z"/>
	<path class="st1" d="M82.9,104.1c0-4.2,3.1-7.6,7.7-7.6c4.3,0,7.4,3.2,7.4,8.1v1H87.7c0.3,1.3,1.5,2.4,3.6,2.4c1,0,2.7-0.4,3.5-1.2
		l2,3c-1.4,1.3-3.8,1.9-6.1,1.9C86.4,111.8,82.9,108.9,82.9,104.1z M90.6,100.3c-2,0-2.8,1.2-3,2.2h6
		C93.5,101.5,92.8,100.3,90.6,100.3z"/>
	<path class="st1" d="M99.1,109.5l1.9-3.3c1.1,1,3.4,1.9,5.1,1.9c1.4,0,1.9-0.4,1.9-1c0-1.8-8.4,0.1-8.4-5.8c0-2.6,2.2-4.8,6.2-4.8
		c2.5,0,4.5,0.8,6.1,1.9l-1.8,3.3c-0.9-0.8-2.5-1.6-4.3-1.6c-1.1,0-1.8,0.4-1.8,1c0,1.6,8.4-0.1,8.4,5.9c0,2.8-2.4,4.7-6.6,4.7
		C103.3,111.8,100.6,110.9,99.1,109.5z"/>
	<path class="st1" d="M115.8,107.5v-6.6h-2.4v-4h2.4v-4h4.6v4h2.9v4h-2.9v5.3c0,0.8,0.5,1.5,1.3,1.5c0.5,0,1-0.2,1.2-0.4l0.9,3.5
		c-0.6,0.5-1.7,1-3.4,1C117.4,111.8,115.8,110.3,115.8,107.5z"/>
	<path class="st1" d="M134.2,111.4V110c-0.9,1.1-2.6,1.8-4.5,1.8c-2.2,0-5-1.5-5-4.8c0-3.5,2.8-4.7,5-4.7c1.9,0,3.6,0.6,4.5,1.7
		v-1.4c0-1.3-1.1-2.1-2.9-2.1c-1.4,0-2.9,0.6-4,1.6l-1.7-3.2c1.9-1.6,4.3-2.2,6.6-2.2c3.5,0,6.8,1.3,6.8,5.8v9.1H134.2z
		 M134.2,107.7v-1.3c-0.5-0.7-1.6-1-2.6-1c-1.2,0-2.3,0.5-2.3,1.7c0,1.1,1.1,1.7,2.3,1.7C132.6,108.7,133.7,108.4,134.2,107.7z"/>
	<path class="st1" d="M140.9,109.5l1.9-3.3c1.1,1,3.4,1.9,5.1,1.9c1.4,0,2-0.4,2-1c0-1.8-8.4,0.1-8.4-5.8c0-2.6,2.2-4.8,6.2-4.8
		c2.5,0,4.5,0.8,6.1,1.9l-1.8,3.3c-0.9-0.8-2.5-1.6-4.3-1.6c-1.1,0-1.8,0.4-1.8,1c0,1.6,8.4-0.1,8.4,5.9c0,2.8-2.4,4.7-6.6,4.7
		C145.1,111.8,142.5,110.9,140.9,109.5z"/>
	<path class="st1" d="M15.6,130c0-2,1.5-3.5,3.6-3.5c2,0,3.5,1.5,3.5,3.8v0.5h-4.8c0.2,0.6,0.7,1.1,1.7,1.1c0.5,0,1.3-0.2,1.7-0.6
		l0.9,1.4c-0.7,0.6-1.8,0.9-2.8,0.9C17.2,133.6,15.6,132.2,15.6,130z M19.1,128.2c-0.9,0-1.3,0.6-1.4,1.1h2.8
		C20.5,128.8,20.1,128.2,19.1,128.2z"/>
	<path class="st1" d="M28,133.4v-3.9c0-0.8-0.4-1.1-1.1-1.1c-0.6,0-1.1,0.3-1.3,0.7v4.4h-2.2v-6.8h2.2v0.8c0.4-0.5,1.2-1,2.4-1
		c1.5,0,2.2,0.9,2.2,2.1v4.8H28z"/>
	<path class="st1" d="M34.7,133.4v-9.3h2.2v9.3H34.7z"/>
	<path class="st1" d="M37.7,130c0-1.9,1.4-3.5,3.7-3.5c2.3,0,3.7,1.6,3.7,3.5s-1.4,3.6-3.7,3.6C39.1,133.6,37.7,131.9,37.7,130z
		 M42.9,130c0-0.9-0.5-1.6-1.5-1.6c-0.9,0-1.5,0.7-1.5,1.6c0,0.9,0.5,1.7,1.5,1.7C42.3,131.7,42.9,130.9,42.9,130z"/>
	<path class="st1" d="M45.4,132.5l0.9-1.5c0.5,0.4,1.6,0.9,2.4,0.9c0.6,0,0.9-0.2,0.9-0.5c0-0.8-3.9,0-3.9-2.7c0-1.2,1-2.2,2.9-2.2
		c1.1,0,2.1,0.4,2.8,0.9l-0.8,1.5c-0.4-0.4-1.2-0.7-2-0.7c-0.5,0-0.8,0.2-0.8,0.5c0,0.7,3.9,0,3.9,2.7c0,1.3-1.1,2.2-3.1,2.2
		C47.3,133.6,46.1,133.2,45.4,132.5z"/>
	<path class="st1" d="M57.9,132.6v3.4h-2.2v-9.3h2.2v0.8c0.5-0.6,1.2-1,2-1c1.7,0,3,1.3,3,3.5c0,2.3-1.3,3.6-3,3.6
		C59.1,133.6,58.5,133.3,57.9,132.6z M60.7,130c0-1-0.6-1.6-1.5-1.6c-0.5,0-1,0.3-1.3,0.6v2.1c0.3,0.4,0.8,0.6,1.3,0.6
		C60,131.7,60.7,131,60.7,130z"/>
	<path class="st1" d="M63.7,133.4v-6.8h2.2v0.8c0.4-0.5,1.3-1,2.1-1v2.1c-0.1,0-0.3-0.1-0.5-0.1c-0.6,0-1.3,0.2-1.6,0.6v4.3H63.7z"
		/>
	<path class="st1" d="M68.2,130c0-1.9,1.4-3.5,3.7-3.5c2.3,0,3.7,1.6,3.7,3.5s-1.4,3.6-3.7,3.6C69.6,133.6,68.2,131.9,68.2,130z
		 M73.4,130c0-0.9-0.5-1.6-1.5-1.6c-0.9,0-1.5,0.7-1.5,1.6c0,0.9,0.5,1.7,1.5,1.7C72.9,131.7,73.4,130.9,73.4,130z M72.1,125.6h-1.5
		l1.8-2h1.9L72.1,125.6z"/>
	<path class="st1" d="M80.6,133.4l-1.3-2l-1.3,2h-2.4l2.3-3.5l-2.2-3.3h2.4l1.2,1.8l1.1-1.8h2.4l-2.2,3.3l2.3,3.5H80.6z"/>
	<path class="st1" d="M83.2,124.8c0-0.7,0.5-1.2,1.2-1.2c0.7,0,1.2,0.5,1.2,1.2c0,0.7-0.6,1.2-1.2,1.2
		C83.7,126,83.2,125.5,83.2,124.8z M83.3,133.4v-6.8h2.2v6.8H83.3z"/>
	<path class="st1" d="M95.3,133.4v-4.1c0-0.5-0.3-0.9-0.9-0.9c-0.6,0-1,0.4-1.2,0.7v4.4H91v-4.1c0-0.5-0.2-0.9-0.9-0.9
		c-0.6,0-1,0.4-1.2,0.7v4.4h-2.2v-6.8h2.2v0.8c0.3-0.4,1.2-1,2.2-1c1,0,1.6,0.4,1.9,1.2c0.4-0.6,1.3-1.2,2.3-1.2c1.2,0,2,0.6,2,2
		v4.9H95.3z"/>
	<path class="st1" d="M98.3,130c0-1.9,1.4-3.5,3.7-3.5c2.3,0,3.7,1.6,3.7,3.5s-1.4,3.6-3.7,3.6C99.7,133.6,98.3,131.9,98.3,130z
		 M103.5,130c0-0.9-0.5-1.6-1.5-1.6c-0.9,0-1.5,0.7-1.5,1.6c0,0.9,0.5,1.7,1.5,1.7C102.9,131.7,103.5,130.9,103.5,130z"/>
	<path class="st1" d="M106,132.5l0.9-1.5c0.5,0.4,1.6,0.9,2.4,0.9c0.6,0,0.9-0.2,0.9-0.5c0-0.8-3.9,0-3.9-2.7c0-1.2,1-2.2,2.9-2.2
		c1.1,0,2.1,0.4,2.8,0.9l-0.8,1.5c-0.4-0.4-1.2-0.7-2-0.7c-0.5,0-0.8,0.2-0.8,0.5c0,0.7,3.9,0,3.9,2.7c0,1.3-1.1,2.2-3.1,2.2
		C107.9,133.6,106.7,133.2,106,132.5z"/>
	<path class="st1" d="M115.9,130c0-2.1,1.6-3.5,3.7-3.5c1.5,0,2.4,0.6,2.8,1.2L121,129c-0.3-0.4-0.7-0.6-1.3-0.6
		c-0.9,0-1.6,0.6-1.6,1.6s0.7,1.7,1.6,1.7c0.6,0,1-0.3,1.3-0.7l1.4,1.3c-0.4,0.6-1.3,1.2-2.8,1.2C117.5,133.6,115.9,132.1,115.9,130
		z"/>
	<path class="st1" d="M127.6,133.4v-0.8c-0.4,0.5-1.2,1-2.3,1c-1.5,0-2.2-0.9-2.2-2.1v-4.8h2.2v3.9c0,0.8,0.4,1.1,1.1,1.1
		c0.6,0,1-0.3,1.3-0.7v-4.4h2.2v6.8H127.6z"/>
	<path class="st1" d="M135.1,133.4v-0.7c-0.4,0.5-1.2,0.8-2.1,0.8c-1,0-2.3-0.7-2.3-2.2c0-1.6,1.3-2.2,2.3-2.2
		c0.9,0,1.7,0.3,2.1,0.8v-0.7c0-0.6-0.5-1-1.4-1c-0.7,0-1.3,0.3-1.9,0.7l-0.8-1.5c0.9-0.7,2-1.1,3.1-1.1c1.6,0,3.2,0.6,3.2,2.7v4.2
		H135.1z M135.1,131.7v-0.6c-0.2-0.3-0.7-0.5-1.2-0.5c-0.6,0-1.1,0.3-1.1,0.8s0.5,0.8,1.1,0.8C134.3,132.2,134.8,132,135.1,131.7z"
		/>
	<path class="st1" d="M139,131.6v-3.1h-1.1v-1.9h1.1v-1.8h2.2v1.8h1.4v1.9h-1.4v2.5c0,0.4,0.2,0.7,0.6,0.7c0.2,0,0.5-0.1,0.5-0.2
		l0.4,1.6c-0.3,0.3-0.8,0.4-1.6,0.4C139.7,133.6,139,132.9,139,131.6z"/>
	<path class="st1" d="M143.3,133.4v-6.8h2.2v0.8c0.4-0.5,1.3-1,2.1-1v2.1c-0.1,0-0.3-0.1-0.5-0.1c-0.6,0-1.3,0.2-1.6,0.6v4.3H143.3z
		"/>
	<path class="st1" d="M147.8,130c0-1.9,1.4-3.5,3.7-3.5c2.3,0,3.7,1.6,3.7,3.5s-1.4,3.6-3.7,3.6C149.2,133.6,147.8,131.9,147.8,130z
		 M153,130c0-0.9-0.5-1.6-1.5-1.6c-0.9,0-1.5,0.7-1.5,1.6c0,0.9,0.5,1.7,1.5,1.7C152.4,131.7,153,130.9,153,130z"/>
	<path class="st1" d="M163.3,133.4v-0.7c-0.4,0.5-1.2,0.8-2.1,0.8c-1,0-2.3-0.7-2.3-2.2c0-1.6,1.3-2.2,2.3-2.2
		c0.9,0,1.7,0.3,2.1,0.8v-0.7c0-0.6-0.5-1-1.4-1c-0.7,0-1.3,0.3-1.9,0.7l-0.8-1.5c0.9-0.7,2-1.1,3.1-1.1c1.6,0,3.2,0.6,3.2,2.7v4.2
		H163.3z M163.3,131.7v-0.6c-0.2-0.3-0.7-0.5-1.2-0.5c-0.6,0-1.1,0.3-1.1,0.8s0.5,0.8,1.1,0.8C162.6,132.2,163.1,132,163.3,131.7z"
		/>
	<path class="st1" d="M171.5,133.4v-3.9c0-0.8-0.4-1.1-1.1-1.1c-0.6,0-1.1,0.3-1.3,0.7v4.4h-2.2v-6.8h2.2v0.8c0.4-0.5,1.2-1,2.4-1
		c1.5,0,2.2,0.9,2.2,2.1v4.8H171.5z M169.3,124.9c-0.2,0-0.4,0.2-0.4,0.7h-1.1c0-1.2,0.5-1.9,1.6-1.9c0.9,0,1.1,0.8,1.6,0.8
		c0.2,0,0.4-0.2,0.4-0.7h1.1c0,1.2-0.5,1.9-1.6,1.9C170,125.6,169.8,124.9,169.3,124.9z"/>
	<path class="st1" d="M174.3,130c0-1.9,1.4-3.5,3.7-3.5c2.3,0,3.7,1.6,3.7,3.5s-1.4,3.6-3.7,3.6C175.7,133.6,174.3,131.9,174.3,130z
		 M179.5,130c0-0.9-0.5-1.6-1.5-1.6c-0.9,0-1.5,0.7-1.5,1.6c0,0.9,0.5,1.7,1.5,1.7C179,131.7,179.5,130.9,179.5,130z"/>
	<path class="st1" d="M182,132.5l0.9-1.5c0.5,0.4,1.6,0.9,2.4,0.9c0.6,0,0.9-0.2,0.9-0.5c0-0.8-3.9,0-3.9-2.7c0-1.2,1-2.2,2.9-2.2
		c1.1,0,2.1,0.4,2.8,0.9l-0.8,1.5c-0.4-0.4-1.2-0.7-2-0.7c-0.5,0-0.8,0.2-0.8,0.5c0,0.7,3.9,0,3.9,2.7c0,1.3-1.1,2.2-3.1,2.2
		C184,133.6,182.7,133.2,182,132.5z"/>
	<path class="st1" d="M191.9,130c0-2,1.5-3.5,3.6-3.5c2,0,3.5,1.5,3.5,3.8v0.5h-4.8c0.2,0.6,0.7,1.1,1.7,1.1c0.5,0,1.3-0.2,1.7-0.6
		l0.9,1.4c-0.7,0.6-1.8,0.9-2.8,0.9C193.5,133.6,191.9,132.2,191.9,130z M195.5,128.2c-0.9,0-1.3,0.6-1.4,1.1h2.8
		C196.9,128.8,196.5,128.2,195.5,128.2z"/>
	<path class="st1" d="M204.3,133.4v-3.9c0-0.8-0.4-1.1-1.1-1.1c-0.6,0-1.1,0.3-1.3,0.7v4.4h-2.2v-6.8h2.2v0.8c0.4-0.5,1.2-1,2.4-1
		c1.5,0,2.2,0.9,2.2,2.1v4.8H204.3z"/>
	<path class="st1" d="M16,147.4v-9.3h2.2v9.3H16z"/>
	<path class="st1" d="M19,144c0-1.9,1.4-3.5,3.7-3.5c2.3,0,3.7,1.6,3.7,3.5s-1.4,3.6-3.7,3.6C20.4,147.6,19,145.9,19,144z M24.2,144
		c0-0.9-0.5-1.6-1.5-1.6c-0.9,0-1.5,0.7-1.5,1.6c0,0.9,0.5,1.7,1.5,1.7C23.6,145.7,24.2,144.9,24.2,144z"/>
	<path class="st1" d="M26.6,146.5l0.9-1.5c0.5,0.4,1.6,0.9,2.4,0.9c0.6,0,0.9-0.2,0.9-0.5c0-0.8-3.9,0-3.9-2.7c0-1.2,1-2.2,2.9-2.2
		c1.1,0,2.1,0.4,2.8,0.9l-0.8,1.5c-0.4-0.4-1.2-0.7-2-0.7c-0.5,0-0.8,0.2-0.8,0.5c0,0.7,3.9,0,3.9,2.7c0,1.3-1.1,2.2-3.1,2.2
		C28.6,147.6,27.4,147.2,26.6,146.5z"/>
	<path class="st1" d="M41.6,147.4v-0.8c-0.6,0.6-1.2,1-2,1c-1.7,0-3-1.3-3-3.6c0-2.2,1.3-3.5,3-3.5c0.7,0,1.5,0.3,2,1v-3.4h2.1v9.3
		H41.6z M41.6,145V143c-0.3-0.4-0.8-0.6-1.3-0.6c-0.9,0-1.5,0.6-1.5,1.6s0.6,1.7,1.5,1.7C40.7,145.7,41.3,145.4,41.6,145z"/>
	<path class="st1" d="M44.9,138.8c0-0.7,0.5-1.2,1.2-1.2c0.7,0,1.2,0.5,1.2,1.2c0,0.7-0.6,1.2-1.2,1.2
		C45.4,140,44.9,139.5,44.9,138.8z M45,147.4v-6.8h2.2v6.8H45z"/>
	<path class="st1" d="M47.9,146.5l0.9-1.5c0.5,0.4,1.6,0.9,2.4,0.9c0.6,0,0.9-0.2,0.9-0.5c0-0.8-3.9,0-3.9-2.7c0-1.2,1-2.2,2.9-2.2
		c1.1,0,2.1,0.4,2.8,0.9l-0.8,1.5c-0.4-0.4-1.2-0.7-2-0.7c-0.5,0-0.8,0.2-0.8,0.5c0,0.7,3.9,0,3.9,2.7c0,1.3-1.1,2.2-3.1,2.2
		C49.8,147.6,48.6,147.2,47.9,146.5z"/>
	<path class="st1" d="M55.4,145.6v-3.1h-1.1v-1.9h1.1v-1.8h2.2v1.8h1.4v1.9h-1.4v2.5c0,0.4,0.2,0.7,0.6,0.7c0.2,0,0.5-0.1,0.5-0.2
		l0.4,1.6c-0.3,0.3-0.8,0.4-1.6,0.4C56.1,147.6,55.4,146.9,55.4,145.6z"/>
	<path class="st1" d="M59.7,147.4v-6.8h2.2v0.8c0.4-0.5,1.3-1,2.1-1v2.1c-0.1,0-0.3-0.1-0.5-0.1c-0.6,0-1.3,0.2-1.6,0.6v4.3H59.7z"
		/>
	<path class="st1" d="M64.5,138.8c0-0.7,0.5-1.2,1.2-1.2c0.7,0,1.2,0.5,1.2,1.2c0,0.7-0.6,1.2-1.2,1.2
		C65.1,140,64.5,139.5,64.5,138.8z M64.7,147.4v-6.8h2.2v6.8H64.7z"/>
	<path class="st1" d="M68.6,145.6v-3.1h-1.1v-1.9h1.1v-1.8h2.2v1.8h1.4v1.9h-1.4v2.5c0,0.4,0.2,0.7,0.6,0.7c0.2,0,0.5-0.1,0.5-0.2
		l0.4,1.6c-0.3,0.3-0.8,0.4-1.6,0.4C69.3,147.6,68.6,146.9,68.6,145.6z"/>
	<path class="st1" d="M72.5,144c0-1.9,1.4-3.5,3.7-3.5c2.3,0,3.7,1.6,3.7,3.5s-1.4,3.6-3.7,3.6C73.8,147.6,72.5,145.9,72.5,144z
		 M77.6,144c0-0.9-0.5-1.6-1.5-1.6c-0.9,0-1.5,0.7-1.5,1.6c0,0.9,0.5,1.7,1.5,1.7C77.1,145.7,77.6,144.9,77.6,144z"/>
	<path class="st1" d="M80.1,146.5L81,145c0.5,0.4,1.6,0.9,2.4,0.9c0.6,0,0.9-0.2,0.9-0.5c0-0.8-3.9,0-3.9-2.7c0-1.2,1-2.2,2.9-2.2
		c1.1,0,2.1,0.4,2.8,0.9l-0.8,1.5c-0.4-0.4-1.2-0.7-2-0.7c-0.5,0-0.8,0.2-0.8,0.5c0,0.7,3.9,0,3.9,2.7c0,1.3-1.1,2.2-3.1,2.2
		C82.1,147.6,80.8,147.2,80.1,146.5z"/>
	<path class="st1" d="M90,144c0-2.3,1.3-3.5,3-3.5c0.8,0,1.5,0.3,2,1v-0.8h2.2v9.3H95v-3.4c-0.6,0.7-1.2,1-2,1
		C91.3,147.6,90,146.3,90,144z M95,145V143c-0.3-0.4-0.8-0.6-1.3-0.6c-0.9,0-1.5,0.6-1.5,1.6c0,1,0.6,1.7,1.5,1.7
		C94.2,145.7,94.7,145.4,95,145z"/>
	<path class="st1" d="M103,147.4v-0.8c-0.4,0.5-1.2,1-2.3,1c-1.5,0-2.2-0.9-2.2-2.1v-4.8h2.2v3.9c0,0.8,0.4,1.1,1.1,1.1
		c0.6,0,1-0.3,1.3-0.7v-4.4h2.2v6.8H103z"/>
	<path class="st1" d="M106,144c0-2,1.5-3.5,3.6-3.5c2,0,3.5,1.5,3.5,3.8v0.5h-4.8c0.2,0.6,0.7,1.1,1.7,1.1c0.5,0,1.3-0.2,1.7-0.6
		l0.9,1.4c-0.7,0.6-1.8,0.9-2.8,0.9C107.6,147.6,106,146.2,106,144z M109.6,142.2c-0.9,0-1.3,0.6-1.4,1.1h2.8
		C110.9,142.8,110.6,142.2,109.6,142.2z"/>
	<path class="st1" d="M117.3,148.1c0.2,0.1,0.4,0.1,0.5,0.1c0.5,0,0.8-0.1,0.9-0.4l0.2-0.4l-2.7-6.9h2.3l1.5,4.3l1.5-4.3h2.3
		l-3.1,7.7c-0.5,1.4-1.6,1.8-2.9,1.8c-0.2,0-0.7,0-0.9-0.1L117.3,148.1z"/>
	<path class="st1" d="M128.2,147.4v-0.7c-0.4,0.5-1.2,0.8-2.1,0.8c-1,0-2.3-0.7-2.3-2.2c0-1.6,1.3-2.2,2.3-2.2
		c0.9,0,1.7,0.3,2.1,0.8v-0.7c0-0.6-0.5-1-1.4-1c-0.7,0-1.3,0.3-1.9,0.7l-0.8-1.5c0.9-0.7,2-1.1,3.1-1.1c1.6,0,3.2,0.6,3.2,2.7v4.2
		H128.2z M128.2,145.7v-0.6c-0.2-0.3-0.7-0.5-1.2-0.5c-0.6,0-1.1,0.3-1.1,0.8s0.5,0.8,1.1,0.8C127.5,146.2,128,146,128.2,145.7z"/>
	<path class="st1" d="M137.1,146.6v3.4h-2.2v-9.3h2.2v0.8c0.5-0.6,1.2-1,2-1c1.7,0,3,1.3,3,3.5c0,2.3-1.3,3.6-3,3.6
		C138.3,147.6,137.7,147.3,137.1,146.6z M139.9,144c0-1-0.6-1.6-1.5-1.6c-0.5,0-1,0.3-1.3,0.6v2.1c0.3,0.4,0.8,0.6,1.3,0.6
		C139.2,145.7,139.9,145,139.9,144z"/>
	<path class="st1" d="M146.9,147.4v-0.7c-0.4,0.5-1.2,0.8-2.1,0.8c-1,0-2.3-0.7-2.3-2.2c0-1.6,1.3-2.2,2.3-2.2
		c0.9,0,1.7,0.3,2.1,0.8v-0.7c0-0.6-0.5-1-1.4-1c-0.7,0-1.3,0.3-1.9,0.7l-0.8-1.5c0.9-0.7,2-1.1,3.1-1.1c1.6,0,3.2,0.6,3.2,2.7v4.2
		H146.9z M146.9,145.7v-0.6c-0.2-0.3-0.7-0.5-1.2-0.5c-0.6,0-1.1,0.3-1.1,0.8s0.5,0.8,1.1,0.8C146.2,146.2,146.7,146,146.9,145.7z"
		/>
	<path class="st1" d="M150.3,147.4v-6.8h2.2v0.8c0.4-0.5,1.3-1,2.1-1v2.1c-0.1,0-0.3-0.1-0.5-0.1c-0.6,0-1.3,0.2-1.6,0.6v4.3H150.3z
		"/>
	<path class="st1" d="M155.8,145.6v-3.1h-1.1v-1.9h1.1v-1.8h2.2v1.8h1.4v1.9h-1.4v2.5c0,0.4,0.2,0.7,0.6,0.7c0.2,0,0.5-0.1,0.5-0.2
		l0.4,1.6c-0.3,0.3-0.8,0.4-1.6,0.4C156.5,147.6,155.8,146.9,155.8,145.6z"/>
	<path class="st1" d="M159.9,138.8c0-0.7,0.5-1.2,1.2-1.2s1.2,0.5,1.2,1.2c0,0.7-0.6,1.2-1.2,1.2S159.9,139.5,159.9,138.8z
		 M160.1,147.4v-6.8h2.2v6.8H160.1z"/>
	<path class="st1" d="M163.1,144c0-2.1,1.6-3.5,3.7-3.5c1.5,0,2.4,0.6,2.8,1.2l-1.4,1.3c-0.3-0.4-0.7-0.6-1.3-0.6
		c-0.9,0-1.6,0.6-1.6,1.6s0.7,1.7,1.6,1.7c0.6,0,1-0.3,1.3-0.7l1.4,1.3c-0.4,0.6-1.3,1.2-2.8,1.2C164.6,147.6,163.1,146.1,163.1,144
		z"/>
	<path class="st1" d="M170.1,138.8c0-0.7,0.5-1.2,1.2-1.2s1.2,0.5,1.2,1.2c0,0.7-0.6,1.2-1.2,1.2S170.1,139.5,170.1,138.8z
		 M170.2,147.4v-6.8h2.2v6.8H170.2z"/>
	<path class="st1" d="M175.8,146.6v3.4h-2.2v-9.3h2.2v0.8c0.5-0.6,1.2-1,2-1c1.7,0,3,1.3,3,3.5c0,2.3-1.3,3.6-3,3.6
		C177.1,147.6,176.4,147.3,175.8,146.6z M178.6,144c0-1-0.6-1.6-1.5-1.6c-0.5,0-1,0.3-1.3,0.6v2.1c0.3,0.4,0.8,0.6,1.3,0.6
		C178,145.7,178.6,145,178.6,144z"/>
	<path class="st1" d="M185.6,147.4v-0.7c-0.4,0.5-1.2,0.8-2.1,0.8c-1,0-2.3-0.7-2.3-2.2c0-1.6,1.3-2.2,2.3-2.2
		c0.9,0,1.7,0.3,2.1,0.8v-0.7c0-0.6-0.5-1-1.4-1c-0.7,0-1.3,0.3-1.9,0.7l-0.8-1.5c0.9-0.7,2-1.1,3.1-1.1c1.6,0,3.2,0.6,3.2,2.7v4.2
		H185.6z M185.6,145.7v-0.6c-0.2-0.3-0.7-0.5-1.2-0.5c-0.6,0-1.1,0.3-1.1,0.8s0.5,0.8,1.1,0.8C184.9,146.2,185.4,146,185.6,145.7z"
		/>
	<path class="st1" d="M193.7,147.4v-3.9c0-0.8-0.4-1.1-1.1-1.1c-0.6,0-1.1,0.3-1.3,0.7v4.4h-2.2v-6.8h2.2v0.8c0.4-0.5,1.2-1,2.4-1
		c1.5,0,2.2,0.9,2.2,2.1v4.8H193.7z"/>
	<path class="st1" d="M200,144c0-2,1.5-3.5,3.6-3.5c2,0,3.5,1.5,3.5,3.8v0.5h-4.8c0.2,0.6,0.7,1.1,1.7,1.1c0.5,0,1.3-0.2,1.7-0.6
		l0.9,1.4c-0.7,0.6-1.8,0.9-2.8,0.9C201.6,147.6,200,146.2,200,144z M203.6,142.2c-0.9,0-1.3,0.6-1.4,1.1h2.8
		C204.9,142.8,204.5,142.2,203.6,142.2z"/>
	<path class="st1" d="M212.4,147.4v-3.9c0-0.8-0.4-1.1-1.1-1.1c-0.6,0-1.1,0.3-1.3,0.7v4.4h-2.2v-6.8h2.2v0.8c0.4-0.5,1.2-1,2.4-1
		c1.5,0,2.2,0.9,2.2,2.1v4.8H212.4z"/>
	<path class="st1" d="M15.6,158c0-2,1.5-3.5,3.6-3.5c2,0,3.5,1.5,3.5,3.8v0.5h-4.8c0.2,0.6,0.7,1.1,1.7,1.1c0.5,0,1.3-0.2,1.7-0.6
		l0.9,1.4c-0.7,0.6-1.8,0.9-2.8,0.9C17.2,161.6,15.6,160.2,15.6,158z M19.1,156.2c-0.9,0-1.3,0.6-1.4,1.1h2.8
		C20.5,156.8,20.1,156.2,19.1,156.2z"/>
	<path class="st1" d="M23.4,161.4v-9.3h2.2v9.3H23.4z"/>
	<path class="st1" d="M32.3,160.6v3.4h-2.2v-9.3h2.2v0.8c0.5-0.6,1.2-1,2-1c1.7,0,3,1.3,3,3.5c0,2.3-1.3,3.6-3,3.6
		C33.5,161.6,32.9,161.3,32.3,160.6z M35.1,158c0-1-0.6-1.6-1.5-1.6c-0.5,0-1,0.3-1.3,0.6v2.1c0.3,0.4,0.8,0.6,1.3,0.6
		C34.4,159.7,35.1,159,35.1,158z"/>
	<path class="st1" d="M38.1,161.4v-6.8h2.2v0.8c0.4-0.5,1.3-1,2.1-1v2.1c-0.1,0-0.3-0.1-0.5-0.1c-0.6,0-1.3,0.2-1.6,0.6v4.3H38.1z"
		/>
	<path class="st1" d="M42.6,158c0-1.9,1.4-3.5,3.7-3.5c2.3,0,3.7,1.6,3.7,3.5s-1.4,3.6-3.7,3.6C44,161.6,42.6,159.9,42.6,158z
		 M47.8,158c0-0.9-0.5-1.6-1.5-1.6c-0.9,0-1.5,0.7-1.5,1.6c0,0.9,0.5,1.7,1.5,1.7C47.3,159.7,47.8,158.9,47.8,158z"/>
	<path class="st1" d="M50.7,163.1l0.9-1.5c0.5,0.6,1.3,0.8,2.1,0.8c0.7,0,1.7-0.3,1.7-1.6v-0.5c-0.6,0.7-1.2,1-2,1
		c-1.7,0-3-1.1-3-3.4c0-2.2,1.3-3.4,3-3.4c0.8,0,1.5,0.3,2,1v-0.8h2.2v6.2c0,2.7-2.2,3.3-3.9,3.3C52.5,164.1,51.5,163.9,50.7,163.1z
		 M55.4,158.8V157c-0.3-0.4-0.8-0.6-1.3-0.6c-0.9,0-1.5,0.5-1.5,1.5c0,1,0.6,1.5,1.5,1.5C54.6,159.4,55.1,159.1,55.4,158.8z"/>
	<path class="st1" d="M58.8,161.4v-6.8H61v0.8c0.4-0.5,1.3-1,2.1-1v2.1c-0.1,0-0.3-0.1-0.5-0.1c-0.6,0-1.3,0.2-1.6,0.6v4.3H58.8z"/>
	<path class="st1" d="M67.8,161.4v-0.7c-0.4,0.5-1.2,0.8-2.1,0.8c-1,0-2.3-0.7-2.3-2.2c0-1.6,1.3-2.2,2.3-2.2c0.9,0,1.7,0.3,2.1,0.8
		v-0.7c0-0.6-0.5-1-1.4-1c-0.7,0-1.3,0.3-1.9,0.7l-0.8-1.5c0.9-0.7,2-1.1,3.1-1.1c1.6,0,3.2,0.6,3.2,2.7v4.2H67.8z M67.8,159.7v-0.6
		c-0.2-0.3-0.7-0.5-1.2-0.5c-0.6,0-1.1,0.3-1.1,0.8s0.5,0.8,1.1,0.8C67.1,160.2,67.6,160,67.8,159.7z"/>
	<path class="st1" d="M79.8,161.4v-4.1c0-0.5-0.3-0.9-0.9-0.9c-0.6,0-1,0.4-1.2,0.7v4.4h-2.2v-4.1c0-0.5-0.2-0.9-0.9-0.9
		c-0.6,0-1,0.4-1.2,0.7v4.4h-2.2v-6.8h2.2v0.8c0.3-0.4,1.2-1,2.2-1c1,0,1.6,0.4,1.9,1.2c0.4-0.6,1.3-1.2,2.3-1.2c1.2,0,2,0.6,2,2
		v4.9H79.8z"/>
	<path class="st1" d="M87.2,161.4v-0.7c-0.4,0.5-1.2,0.8-2.1,0.8c-1,0-2.3-0.7-2.3-2.2c0-1.6,1.3-2.2,2.3-2.2c0.9,0,1.7,0.3,2.1,0.8
		v-0.7c0-0.6-0.5-1-1.4-1c-0.7,0-1.3,0.3-1.9,0.7l-0.8-1.5c0.9-0.7,2-1.1,3.1-1.1c1.6,0,3.2,0.6,3.2,2.7v4.2H87.2z M87.2,159.7v-0.6
		c-0.2-0.3-0.7-0.5-1.2-0.5c-0.6,0-1.1,0.3-1.1,0.8s0.5,0.8,1.1,0.8C86.5,160.2,87,160,87.2,159.7z"/>
	<path class="st1" d="M98.5,161.4v-0.8c-0.6,0.6-1.2,1-2,1c-1.7,0-3-1.3-3-3.6c0-2.2,1.3-3.5,3-3.5c0.7,0,1.5,0.3,2,1v-3.4h2.1v9.3
		H98.5z M98.5,159V157c-0.3-0.4-0.8-0.6-1.3-0.6c-0.9,0-1.5,0.6-1.5,1.6s0.6,1.7,1.5,1.7C97.7,159.7,98.2,159.4,98.5,159z"/>
	<path class="st1" d="M101.5,158c0-2,1.5-3.5,3.6-3.5c2,0,3.5,1.5,3.5,3.8v0.5h-4.8c0.2,0.6,0.7,1.1,1.7,1.1c0.5,0,1.3-0.2,1.7-0.6
		l0.9,1.4c-0.7,0.6-1.8,0.9-2.8,0.9C103.1,161.6,101.5,160.2,101.5,158z M105.1,156.2c-0.9,0-1.3,0.6-1.4,1.1h2.8
		C106.4,156.8,106.1,156.2,105.1,156.2z"/>
	<path class="st1" d="M117.2,161.4v-0.8c-0.6,0.6-1.2,1-2,1c-1.7,0-3-1.3-3-3.6c0-2.2,1.3-3.5,3-3.5c0.7,0,1.5,0.3,2,1v-3.4h2.1v9.3
		H117.2z M117.2,159V157c-0.3-0.4-0.8-0.6-1.3-0.6c-0.9,0-1.5,0.6-1.5,1.6s0.6,1.7,1.5,1.7C116.3,159.7,116.9,159.4,117.2,159z"/>
	<path class="st1" d="M120.2,158c0-1.9,1.4-3.5,3.7-3.5c2.3,0,3.7,1.6,3.7,3.5s-1.4,3.6-3.7,3.6C121.6,161.6,120.2,159.9,120.2,158z
		 M125.3,158c0-0.9-0.5-1.6-1.5-1.6c-0.9,0-1.5,0.7-1.5,1.6c0,0.9,0.5,1.7,1.5,1.7C124.8,159.7,125.3,158.9,125.3,158z"/>
	<path class="st1" d="M133,161.4v-3.9c0-0.8-0.4-1.1-1.1-1.1c-0.6,0-1.1,0.3-1.3,0.7v4.4h-2.2v-6.8h2.2v0.8c0.4-0.5,1.2-1,2.4-1
		c1.5,0,2.2,0.9,2.2,2.1v4.8H133z"/>
	<path class="st1" d="M140.4,161.4v-0.7c-0.4,0.5-1.2,0.8-2.1,0.8c-1,0-2.3-0.7-2.3-2.2c0-1.6,1.3-2.2,2.3-2.2
		c0.9,0,1.7,0.3,2.1,0.8v-0.7c0-0.6-0.5-1-1.4-1c-0.7,0-1.3,0.3-1.9,0.7l-0.8-1.5c0.9-0.7,2-1.1,3.1-1.1c1.6,0,3.2,0.6,3.2,2.7v4.2
		H140.4z M140.4,159.7v-0.6c-0.2-0.3-0.7-0.5-1.2-0.5c-0.6,0-1.1,0.3-1.1,0.8s0.5,0.8,1.1,0.8C139.7,160.2,140.2,160,140.4,159.7z"
		/>
	<path class="st1" d="M143.4,158c0-2.1,1.6-3.5,3.7-3.5c1.5,0,2.4,0.6,2.8,1.2l-1.4,1.3c-0.3-0.4-0.7-0.6-1.3-0.6
		c-0.9,0-1.6,0.6-1.6,1.6s0.7,1.7,1.6,1.7c0.6,0,1-0.3,1.3-0.7l1.4,1.3c-0.4,0.6-1.3,1.2-2.8,1.2C145,161.6,143.4,160.1,143.4,158z"
		/>
	<path class="st1" d="M150.4,152.8c0-0.7,0.5-1.2,1.2-1.2s1.2,0.5,1.2,1.2c0,0.7-0.6,1.2-1.2,1.2S150.4,153.5,150.4,152.8z
		 M150.6,161.4v-6.8h2.2v6.8H150.6z"/>
	<path class="st1" d="M153.6,158c0-1.9,1.4-3.5,3.7-3.5c2.3,0,3.7,1.6,3.7,3.5s-1.4,3.6-3.7,3.6C155,161.6,153.6,159.9,153.6,158z
		 M158.8,158c0-0.9-0.5-1.6-1.5-1.6c-0.9,0-1.5,0.7-1.5,1.6c0,0.9,0.5,1.7,1.5,1.7C158.2,159.7,158.8,158.9,158.8,158z M157.5,153.6
		H156l1.8-2h1.9L157.5,153.6z"/>
	<path class="st1" d="M166.4,161.4v-3.9c0-0.8-0.4-1.1-1.1-1.1c-0.6,0-1.1,0.3-1.3,0.7v4.4h-2.2v-6.8h2.2v0.8c0.4-0.5,1.2-1,2.4-1
		c1.5,0,2.2,0.9,2.2,2.1v4.8H166.4z"/>
</g>
</svg>
