<?xml version="1.0" encoding="utf-8"?>
<!-- Generator: Adobe Illustrator 16.0.0, SVG Export Plug-In . SVG Version: 6.00 Build 0)  -->
<!DOCTYPE svg PUBLIC "-//W3C//DTD SVG 1.1//EN" "http://www.w3.org/Graphics/SVG/1.1/DTD/svg11.dtd">
<svg version="1.1" id="Layer_1" xmlns="http://www.w3.org/2000/svg" xmlns:xlink="http://www.w3.org/1999/xlink" x="0px" y="0px"
	 width="960px" height="211.666px" viewBox="0 0 960 211.666" enable-background="new 0 0 960 211.666" xml:space="preserve">
<g>
	<path fill="#363636" d="M11.068,155.838l-1.639-6.416l-1.625,6.416H5.689l-2.675-9.343h2.227l1.639,6.752l1.779-6.752h1.555
		l1.765,6.752l1.639-6.752h2.227l-2.661,9.343H11.068z"/>
	<path fill="#363636" d="M21.035,155.838v-4.118c0-0.938-0.49-1.233-1.247-1.233c-0.7,0-1.247,0.393-1.541,0.785v4.566h-1.793
		v-9.343h1.793v3.446c0.435-0.504,1.261-1.037,2.368-1.037c1.484,0,2.199,0.812,2.199,2.129v4.805H21.035z"/>
	<path fill="#363636" d="M23.86,152.448c0-1.961,1.457-3.544,3.502-3.544c2.031,0,3.39,1.513,3.39,3.712v0.42h-5.029
		c0.126,0.827,0.799,1.513,1.947,1.513c0.574,0,1.359-0.237,1.793-0.658l0.798,1.177c-0.672,0.616-1.737,0.938-2.788,0.938
		C25.415,156.006,23.86,154.619,23.86,152.448z M27.362,150.361c-1.106,0-1.583,0.771-1.653,1.443h3.333
		C28.987,151.159,28.539,150.361,27.362,150.361z"/>
	<path fill="#363636" d="M36.322,155.838v-4.09c0-0.938-0.49-1.261-1.247-1.261c-0.7,0-1.232,0.393-1.541,0.785v4.566h-1.779v-6.766
		h1.779v0.869c0.434-0.504,1.274-1.037,2.367-1.037c1.499,0,2.213,0.84,2.213,2.157v4.776H36.322z"/>
	<path fill="#363636" d="M45.099,155.838v-7.592h-2.731v-1.751h7.452v1.751h-2.717v7.592H45.099z"/>
	<path fill="#363636" d="M50.809,155.838v-9.343h6.612v1.751h-4.623v1.961h4.524v1.751h-4.524v3.88H50.809z"/>
	<path fill="#363636" d="M61.631,147.279c0-0.588,0.476-1.051,1.051-1.051c0.588,0,1.064,0.462,1.064,1.051
		s-0.477,1.064-1.064,1.064C62.107,148.344,61.631,147.868,61.631,147.279z M61.799,155.838v-6.766h1.779v6.766H61.799z"/>
	<path fill="#363636" d="M64.473,154.955l0.771-1.288c0.504,0.476,1.499,0.938,2.339,0.938c0.771,0,1.135-0.294,1.135-0.715
		c0-1.106-4.006-0.196-4.006-2.857c0-1.135,0.98-2.129,2.773-2.129c1.135,0,2.045,0.392,2.718,0.924l-0.714,1.261
		c-0.406-0.42-1.177-0.785-2.003-0.785c-0.644,0-1.064,0.28-1.064,0.659c0,0.995,4.02,0.154,4.02,2.885
		c0,1.247-1.064,2.157-2.941,2.157C66.322,156.006,65.188,155.613,64.473,154.955z"/>
	<path fill="#363636" d="M76.556,154.97v3.445h-1.779v-9.343h1.779v0.854c0.518-0.658,1.261-1.022,2.087-1.022
		c1.737,0,2.998,1.289,2.998,3.544c0,2.255-1.261,3.558-2.998,3.558C77.844,156.006,77.116,155.67,76.556,154.97z M79.805,152.448
		c0-1.163-0.7-1.961-1.723-1.961c-0.575,0-1.219,0.322-1.527,0.771v2.381c0.294,0.435,0.952,0.784,1.527,0.784
		C79.105,154.423,79.805,153.625,79.805,152.448z"/>
	<path fill="#363636" d="M82.659,155.838v-6.766h1.779v0.911c0.49-0.588,1.316-1.079,2.157-1.079v1.737
		c-0.126-0.028-0.28-0.042-0.49-0.042c-0.588,0-1.373,0.336-1.667,0.771v4.468H82.659z"/>
	<path fill="#363636" d="M86.984,152.448c0-1.961,1.457-3.544,3.502-3.544c2.031,0,3.39,1.513,3.39,3.712v0.42h-5.029
		c0.126,0.827,0.799,1.513,1.947,1.513c0.574,0,1.359-0.237,1.793-0.658l0.798,1.177c-0.672,0.616-1.737,0.938-2.788,0.938
		C88.539,156.006,86.984,154.619,86.984,152.448z M90.486,150.361c-1.106,0-1.583,0.771-1.653,1.443h3.333
		C92.111,151.159,91.663,150.361,90.486,150.361z"/>
	<path fill="#363636" d="M94.292,154.955l0.771-1.288c0.504,0.476,1.499,0.938,2.339,0.938c0.771,0,1.135-0.294,1.135-0.715
		c0-1.106-4.006-0.196-4.006-2.857c0-1.135,0.98-2.129,2.773-2.129c1.135,0,2.045,0.392,2.718,0.924l-0.714,1.261
		c-0.406-0.42-1.177-0.785-2.003-0.785c-0.644,0-1.064,0.28-1.064,0.659c0,0.995,4.02,0.154,4.02,2.885
		c0,1.247-1.064,2.157-2.941,2.157C96.141,156.006,95.006,155.613,94.292,154.955z"/>
	<path fill="#363636" d="M100.843,152.448c0-1.961,1.457-3.544,3.502-3.544c2.031,0,3.39,1.513,3.39,3.712v0.42h-5.029
		c0.126,0.827,0.799,1.513,1.947,1.513c0.574,0,1.359-0.237,1.793-0.658l0.798,1.177c-0.672,0.616-1.737,0.938-2.788,0.938
		C102.398,156.006,100.843,154.619,100.843,152.448z M104.345,150.361c-1.106,0-1.583,0.771-1.653,1.443h3.333
		C105.97,151.159,105.522,150.361,104.345,150.361z"/>
	<path fill="#363636" d="M113.306,155.838v-4.09c0-0.938-0.49-1.261-1.247-1.261c-0.7,0-1.232,0.393-1.541,0.785v4.566h-1.779
		v-6.766h1.779v0.869c0.434-0.504,1.274-1.037,2.367-1.037c1.499,0,2.213,0.84,2.213,2.157v4.776H113.306z"/>
	<path fill="#363636" d="M116.93,154.143v-3.516h-1.121v-1.555h1.121v-1.849h1.779v1.849h1.373v1.555h-1.373v3.04
		c0,0.434,0.224,0.756,0.616,0.756c0.266,0,0.518-0.098,0.616-0.21l0.378,1.358c-0.266,0.238-0.743,0.435-1.485,0.435
		C117.588,156.006,116.93,155.361,116.93,154.143z"/>
	<path fill="#363636" d="M124.167,147.279c0-0.588,0.476-1.051,1.051-1.051c0.588,0,1.064,0.462,1.064,1.051
		s-0.477,1.064-1.064,1.064C124.643,148.344,124.167,147.868,124.167,147.279z M124.335,155.838v-6.766h1.779v6.766H124.335z"/>
	<path fill="#363636" d="M132.163,155.838v-4.09c0-0.938-0.49-1.261-1.247-1.261c-0.7,0-1.232,0.393-1.541,0.785v4.566h-1.779
		v-6.766h1.779v0.869c0.434-0.504,1.274-1.037,2.367-1.037c1.499,0,2.213,0.84,2.213,2.157v4.776H132.163z"/>
	<path fill="#363636" d="M12.273,172.638v-4.272c0-0.63-0.28-1.078-1.008-1.078c-0.63,0-1.149,0.42-1.401,0.784v4.566H8.071v-4.272
		c0-0.63-0.28-1.078-1.009-1.078c-0.616,0-1.134,0.42-1.4,0.784v4.566H3.882v-6.766h1.779v0.868
		c0.294-0.392,1.176-1.036,2.213-1.036c0.995,0,1.639,0.462,1.877,1.219c0.393-0.603,1.289-1.219,2.326-1.219
		c1.247,0,1.989,0.658,1.989,2.045v4.889H12.273z"/>
	<path fill="#363636" d="M15.11,169.248c0-1.919,1.345-3.544,3.572-3.544c2.241,0,3.586,1.625,3.586,3.544s-1.345,3.558-3.586,3.558
		C16.455,172.806,15.11,171.167,15.11,169.248z M20.419,169.248c0-1.051-0.617-1.961-1.737-1.961c-1.106,0-1.723,0.91-1.723,1.961
		c0,1.064,0.616,1.975,1.723,1.975C19.803,171.223,20.419,170.312,20.419,169.248z"/>
	<path fill="#363636" d="M23.314,172.638v-6.766h1.779v0.91c0.49-0.588,1.316-1.078,2.157-1.078v1.736
		c-0.126-0.027-0.28-0.042-0.49-0.042c-0.588,0-1.373,0.337-1.667,0.771v4.469H23.314z"/>
	<path fill="#363636" d="M27.64,169.248c0-1.961,1.457-3.544,3.502-3.544c2.031,0,3.39,1.513,3.39,3.712v0.42h-5.029
		c0.126,0.827,0.799,1.513,1.947,1.513c0.574,0,1.359-0.237,1.793-0.658l0.798,1.177c-0.672,0.616-1.737,0.938-2.788,0.938
		C29.194,172.806,27.64,171.419,27.64,169.248z M31.142,167.161c-1.106,0-1.583,0.771-1.653,1.442h3.333
		C32.767,167.959,32.318,167.161,31.142,167.161z"/>
	<path fill="#363636" d="M39.217,170.942v-3.516h-1.121v-1.555h1.121v-1.849h1.779v1.849h1.373v1.555h-1.373v3.04
		c0,0.434,0.225,0.756,0.617,0.756c0.266,0,0.518-0.098,0.616-0.21l0.378,1.358c-0.267,0.238-0.743,0.435-1.485,0.435
		C39.876,172.806,39.217,172.161,39.217,170.942z"/>
	<path fill="#363636" d="M47.885,172.638v-4.118c0-0.938-0.49-1.232-1.247-1.232c-0.7,0-1.247,0.392-1.541,0.784v4.566h-1.793
		v-9.343h1.793v3.445c0.435-0.504,1.261-1.036,2.367-1.036c1.485,0,2.199,0.812,2.199,2.129v4.805H47.885z"/>
	<path fill="#363636" d="M55.207,172.638v-0.715c-0.462,0.561-1.261,0.883-2.144,0.883c-1.078,0-2.339-0.729-2.339-2.241
		c0-1.597,1.261-2.186,2.339-2.186c0.911,0,1.695,0.295,2.144,0.827v-0.854c0-0.687-0.588-1.135-1.485-1.135
		c-0.714,0-1.387,0.28-1.947,0.799l-0.7-1.247c0.826-0.742,1.891-1.064,2.956-1.064c1.555,0,2.97,0.616,2.97,2.563v4.37H55.207z
		 M55.207,171.013v-0.841c-0.294-0.392-0.854-0.602-1.429-0.602c-0.701,0-1.275,0.378-1.275,1.022s0.574,1.009,1.275,1.009
		C54.353,171.602,54.913,171.405,55.207,171.013z"/>
	<path fill="#363636" d="M63.033,172.638v-4.09c0-0.938-0.49-1.261-1.247-1.261c-0.7,0-1.232,0.392-1.541,0.784v4.566h-1.779v-6.766
		h1.779v0.868c0.434-0.504,1.274-1.036,2.367-1.036c1.499,0,2.213,0.84,2.213,2.157v4.776H63.033z"/>
	<path fill="#363636" d="M69.415,171.405l1.106-1.387c0.63,0.658,1.499,1.022,2.479,1.022c1.106,0,1.737-0.631,1.737-1.387
		c0-0.826-0.616-1.387-1.681-1.387c-0.77,0-1.4,0.224-1.961,0.756l-1.387-0.378v-5.351h6.416v1.751h-4.426v2.283
		c0.448-0.448,1.205-0.785,2.059-0.785c1.583,0,2.998,1.135,2.998,3.026c0,1.975-1.485,3.235-3.74,3.235
		C71.39,172.806,70.213,172.273,69.415,171.405z"/>
	<path fill="#363636" d="M77.324,165.494c0-1.317,0.938-2.34,2.367-2.34c1.443,0,2.381,1.022,2.381,2.34
		c0,1.303-0.938,2.311-2.381,2.311C78.262,167.805,77.324,166.797,77.324,165.494z M80.812,165.494c0-0.771-0.476-1.247-1.121-1.247
		c-0.63,0-1.106,0.477-1.106,1.247c0,0.742,0.476,1.219,1.106,1.219C80.335,166.713,80.812,166.236,80.812,165.494z M78.78,172.638
		l5.967-9.343h1.065l-5.981,9.343H78.78z M82.464,170.494c0-1.316,0.938-2.353,2.367-2.353c1.429,0,2.381,1.036,2.381,2.353
		c0,1.303-0.952,2.312-2.381,2.312C83.403,172.806,82.464,171.797,82.464,170.494z M85.952,170.494c0-0.77-0.476-1.246-1.121-1.246
		c-0.644,0-1.106,0.477-1.106,1.246c0,0.757,0.462,1.219,1.106,1.219C85.476,171.713,85.952,171.251,85.952,170.494z"/>
	<path fill="#363636" d="M91.057,169.248c0-1.919,1.345-3.544,3.572-3.544c2.241,0,3.586,1.625,3.586,3.544
		s-1.345,3.558-3.586,3.558C92.402,172.806,91.057,171.167,91.057,169.248z M96.366,169.248c0-1.051-0.617-1.961-1.737-1.961
		c-1.106,0-1.723,0.91-1.723,1.961c0,1.064,0.616,1.975,1.723,1.975C95.75,171.223,96.366,170.312,96.366,169.248z"/>
	<path fill="#363636" d="M99.667,172.638v-5.211h-1.121v-1.555h1.121v-0.28c0-1.526,0.911-2.438,2.27-2.438
		c0.658,0,1.358,0.183,1.765,0.645l-0.672,1.079c-0.182-0.169-0.42-0.267-0.742-0.267c-0.504,0-0.84,0.322-0.84,0.98v0.28h1.373
		v1.555h-1.373v5.211H99.667z"/>
	<path fill="#363636" d="M106.443,169.248c0-2.073,1.513-3.544,3.586-3.544c1.387,0,2.227,0.603,2.675,1.219l-1.163,1.093
		c-0.322-0.477-0.812-0.729-1.429-0.729c-1.079,0-1.835,0.784-1.835,1.961s0.756,1.975,1.835,1.975c0.616,0,1.106-0.28,1.429-0.742
		l1.163,1.093c-0.448,0.616-1.289,1.232-2.675,1.232C107.956,172.806,106.443,171.335,106.443,169.248z"/>
	<path fill="#363636" d="M118.164,172.638v-4.118c0-0.938-0.49-1.232-1.247-1.232c-0.7,0-1.247,0.392-1.541,0.784v4.566h-1.793
		v-9.343h1.793v3.445c0.435-0.504,1.261-1.036,2.367-1.036c1.485,0,2.199,0.812,2.199,2.129v4.805H118.164z"/>
	<path fill="#363636" d="M121.254,164.079c0-0.588,0.476-1.051,1.051-1.051c0.588,0,1.064,0.463,1.064,1.051
		s-0.476,1.064-1.064,1.064C121.73,165.144,121.254,164.667,121.254,164.079z M121.422,172.638v-6.766h1.779v6.766H121.422z"/>
	<path fill="#363636" d="M124.685,172.638v-9.343h1.779v9.343H124.685z"/>
	<path fill="#363636" d="M132.597,172.638v-0.868c-0.533,0.672-1.261,1.036-2.087,1.036c-1.695,0-2.998-1.288-2.998-3.558
		c0-2.199,1.275-3.544,2.998-3.544c0.798,0,1.555,0.336,2.087,1.036v-3.445h1.793v9.343H132.597z M132.597,170.452v-2.395
		c-0.294-0.448-0.939-0.771-1.527-0.771c-1.023,0-1.723,0.798-1.723,1.961c0,1.177,0.7,1.975,1.723,1.975
		C131.658,171.223,132.303,170.9,132.597,170.452z"/>
	<path fill="#363636" d="M135.871,172.638v-6.766h1.779v0.91c0.49-0.588,1.316-1.078,2.157-1.078v1.736
		c-0.126-0.027-0.28-0.042-0.49-0.042c-0.588,0-1.373,0.337-1.667,0.771v4.469H135.871z"/>
	<path fill="#363636" d="M140.196,169.248c0-1.961,1.457-3.544,3.502-3.544c2.031,0,3.39,1.513,3.39,3.712v0.42h-5.029
		c0.126,0.827,0.799,1.513,1.947,1.513c0.574,0,1.359-0.237,1.793-0.658l0.798,1.177c-0.672,0.616-1.737,0.938-2.788,0.938
		C141.751,172.806,140.196,171.419,140.196,169.248z M143.698,167.161c-1.106,0-1.583,0.771-1.653,1.442h3.333
		C145.323,167.959,144.875,167.161,143.698,167.161z"/>
	<path fill="#363636" d="M152.659,172.638v-4.09c0-0.938-0.49-1.261-1.247-1.261c-0.7,0-1.232,0.392-1.541,0.784v4.566h-1.779
		v-6.766h1.779v0.868c0.434-0.504,1.274-1.036,2.367-1.036c1.499,0,2.213,0.84,2.213,2.157v4.776H152.659z"/>
	<path fill="#363636" d="M156.604,174.557l-0.771-0.63c0.448-0.238,0.967-0.827,1.079-1.317c-0.042,0.015-0.154,0.042-0.266,0.042
		c-0.532,0-0.953-0.42-0.953-1.008c0-0.617,0.504-1.121,1.107-1.121c0.658,0,1.247,0.519,1.247,1.429
		C158.047,173.002,157.473,173.94,156.604,174.557z"/>
	<path fill="#363636" d="M7.945,189.438v-0.715c-0.462,0.561-1.261,0.883-2.143,0.883c-1.079,0-2.339-0.729-2.339-2.241
		c0-1.597,1.261-2.185,2.339-2.185c0.91,0,1.695,0.294,2.143,0.826v-0.854c0-0.687-0.588-1.135-1.485-1.135
		c-0.714,0-1.387,0.28-1.947,0.799l-0.7-1.247c0.826-0.742,1.891-1.064,2.956-1.064c1.555,0,2.97,0.616,2.97,2.563v4.37H7.945z
		 M7.945,187.812v-0.84c-0.294-0.393-0.854-0.603-1.429-0.603c-0.701,0-1.275,0.378-1.275,1.022s0.574,1.009,1.275,1.009
		C7.09,188.401,7.65,188.205,7.945,187.812z"/>
	<path fill="#363636" d="M19.173,189.438v-0.868c-0.533,0.672-1.261,1.036-2.087,1.036c-1.695,0-2.998-1.289-2.998-3.558
		c0-2.199,1.275-3.544,2.998-3.544c0.798,0,1.555,0.336,2.087,1.036v-3.445h1.793v9.343H19.173z M19.173,187.252v-2.395
		c-0.294-0.448-0.938-0.771-1.527-0.771c-1.023,0-1.723,0.798-1.723,1.961c0,1.177,0.7,1.975,1.723,1.975
		C18.234,188.022,18.878,187.7,19.173,187.252z"/>
	<path fill="#363636" d="M22.278,180.879c0-0.588,0.476-1.051,1.051-1.051c0.588,0,1.064,0.463,1.064,1.051
		s-0.477,1.064-1.064,1.064C22.754,181.943,22.278,181.467,22.278,180.879z M22.446,189.438v-6.766h1.779v6.766H22.446z"/>
	<path fill="#363636" d="M25.12,188.555l0.771-1.288c0.504,0.476,1.499,0.938,2.339,0.938c0.771,0,1.135-0.294,1.135-0.715
		c0-1.106-4.006-0.196-4.006-2.857c0-1.135,0.98-2.129,2.773-2.129c1.135,0,2.045,0.392,2.718,0.925l-0.714,1.26
		c-0.406-0.42-1.177-0.784-2.003-0.784c-0.644,0-1.064,0.28-1.064,0.658c0,0.995,4.02,0.154,4.02,2.886
		c0,1.247-1.064,2.157-2.941,2.157C26.969,189.605,25.834,189.213,25.12,188.555z"/>
	<path fill="#363636" d="M32.47,187.742v-3.516H31.35v-1.555h1.121v-1.849h1.779v1.849h1.373v1.555h-1.373v3.04
		c0,0.434,0.225,0.756,0.617,0.756c0.266,0,0.518-0.098,0.616-0.21l0.378,1.358c-0.267,0.238-0.743,0.435-1.485,0.435
		C33.129,189.605,32.47,188.961,32.47,187.742z"/>
	<path fill="#363636" d="M36.558,189.438v-6.766h1.779v0.91c0.49-0.588,1.316-1.078,2.157-1.078v1.736
		c-0.126-0.027-0.28-0.042-0.491-0.042c-0.588,0-1.373,0.337-1.667,0.771v4.469H36.558z"/>
	<path fill="#363636" d="M41.15,180.879c0-0.588,0.476-1.051,1.051-1.051c0.588,0,1.064,0.463,1.064,1.051s-0.476,1.064-1.064,1.064
		C41.626,181.943,41.15,181.467,41.15,180.879z M41.318,189.438v-6.766h1.779v6.766H41.318z"/>
	<path fill="#363636" d="M44.146,186.048c0-2.073,1.513-3.544,3.586-3.544c1.387,0,2.227,0.603,2.675,1.219l-1.163,1.093
		c-0.322-0.477-0.812-0.729-1.429-0.729c-1.079,0-1.835,0.784-1.835,1.961s0.756,1.975,1.835,1.975c0.616,0,1.106-0.28,1.429-0.742
		l1.163,1.093c-0.448,0.616-1.289,1.232-2.675,1.232C45.658,189.605,44.146,188.135,44.146,186.048z"/>
	<path fill="#363636" d="M51.65,187.742v-3.516h-1.121v-1.555h1.121v-1.849h1.779v1.849h1.373v1.555h-1.373v3.04
		c0,0.434,0.225,0.756,0.617,0.756c0.266,0,0.518-0.098,0.616-0.21l0.378,1.358c-0.267,0.238-0.743,0.435-1.485,0.435
		C52.309,189.605,51.65,188.961,51.65,187.742z"/>
	<path fill="#363636" d="M59.055,189.438v-6.766h1.779v0.91c0.49-0.588,1.316-1.078,2.157-1.078v1.736
		c-0.126-0.027-0.28-0.042-0.49-0.042c-0.588,0-1.373,0.337-1.667,0.771v4.469H59.055z"/>
	<path fill="#363636" d="M63.381,186.048c0-1.961,1.457-3.544,3.502-3.544c2.031,0,3.39,1.513,3.39,3.712v0.42h-5.029
		c0.126,0.827,0.799,1.513,1.947,1.513c0.574,0,1.359-0.237,1.793-0.658l0.798,1.177c-0.672,0.616-1.737,0.938-2.788,0.938
		C64.936,189.605,63.381,188.219,63.381,186.048z M66.883,183.961c-1.106,0-1.583,0.77-1.653,1.442h3.333
		C68.508,184.759,68.06,183.961,66.883,183.961z"/>
	<path fill="#363636" d="M70.829,186.048c0-2.256,1.261-3.544,2.984-3.544c0.826,0,1.569,0.364,2.087,1.022v-0.854h1.793v9.343
		h-1.793v-3.445c-0.546,0.7-1.274,1.036-2.087,1.036C72.089,189.605,70.829,188.303,70.829,186.048z M75.899,187.238v-2.381
		c-0.294-0.448-0.938-0.771-1.527-0.771c-1.008,0-1.709,0.798-1.709,1.961c0,1.177,0.701,1.975,1.709,1.975
		C74.961,188.022,75.605,187.673,75.899,187.238z"/>
	<path fill="#363636" d="M83.726,189.438v-0.854c-0.462,0.504-1.274,1.022-2.381,1.022c-1.485,0-2.186-0.812-2.186-2.129v-4.805
		h1.779v4.104c0,0.938,0.49,1.246,1.247,1.246c0.686,0,1.232-0.378,1.541-0.771v-4.58h1.779v6.766H83.726z"/>
	<path fill="#363636" d="M86.817,180.879c0-0.588,0.476-1.051,1.051-1.051c0.588,0,1.064,0.463,1.064,1.051
		s-0.476,1.064-1.064,1.064C87.293,181.943,86.817,181.467,86.817,180.879z M86.985,189.438v-6.766h1.779v6.766H86.985z"/>
	<path fill="#363636" d="M90.247,189.438v-6.766h1.779v0.91c0.49-0.588,1.316-1.078,2.157-1.078v1.736
		c-0.126-0.027-0.28-0.042-0.491-0.042c-0.588,0-1.373,0.337-1.667,0.771v4.469H90.247z"/>
	<path fill="#363636" d="M94.573,186.048c0-1.961,1.457-3.544,3.502-3.544c2.031,0,3.39,1.513,3.39,3.712v0.42h-5.029
		c0.126,0.827,0.799,1.513,1.947,1.513c0.574,0,1.359-0.237,1.793-0.658l0.798,1.177c-0.672,0.616-1.737,0.938-2.788,0.938
		C96.128,189.605,94.573,188.219,94.573,186.048z M98.075,183.961c-1.106,0-1.583,0.77-1.653,1.442h3.333
		C99.7,184.759,99.252,183.961,98.075,183.961z"/>
	<path fill="#363636" d="M101.88,188.555l0.771-1.288c0.504,0.476,1.499,0.938,2.339,0.938c0.771,0,1.135-0.294,1.135-0.715
		c0-1.106-4.006-0.196-4.006-2.857c0-1.135,0.98-2.129,2.773-2.129c1.135,0,2.045,0.392,2.718,0.925l-0.714,1.26
		c-0.406-0.42-1.177-0.784-2.003-0.784c-0.644,0-1.064,0.28-1.064,0.658c0,0.995,4.02,0.154,4.02,2.886
		c0,1.247-1.064,2.157-2.941,2.157C103.729,189.605,102.595,189.213,101.88,188.555z"/>
	<path fill="#363636" d="M118.684,189.438l-0.588-1.583h-4.006l-0.588,1.583h-2.255l3.6-9.343h2.493l3.6,9.343H118.684z
		 M116.092,182.084l-1.457,4.02h2.914L116.092,182.084z"/>
	<path fill="#363636" d="M122.167,191.356l-0.771-0.63c0.448-0.238,0.967-0.827,1.079-1.317c-0.042,0.015-0.154,0.042-0.266,0.042
		c-0.532,0-0.953-0.42-0.953-1.008c0-0.617,0.504-1.121,1.107-1.121c0.658,0,1.247,0.519,1.247,1.429
		C123.609,189.802,123.035,190.74,122.167,191.356z"/>
	<path fill="#363636" d="M124.812,189.438v-9.343h6.612v1.751h-4.623v1.961h4.524v1.751h-4.524v3.88H124.812z"/>
	<path fill="#363636" d="M133.17,191.356l-0.771-0.63c0.448-0.238,0.967-0.827,1.079-1.317c-0.042,0.015-0.154,0.042-0.266,0.042
		c-0.532,0-0.953-0.42-0.953-1.008c0-0.617,0.504-1.121,1.107-1.121c0.658,0,1.247,0.519,1.247,1.429
		C134.613,189.802,134.039,190.74,133.17,191.356z"/>
	<path fill="#363636" d="M139.133,189.438v-9.343h6.612v1.751h-4.623v1.961h4.524v1.751h-4.524v2.129h4.623v1.751H139.133z"/>
	<path fill="#363636" d="M3.714,197.68c0-0.588,0.476-1.051,1.051-1.051c0.588,0,1.064,0.463,1.064,1.051s-0.476,1.064-1.064,1.064
		C4.19,198.744,3.714,198.268,3.714,197.68z M3.882,206.238v-6.766h1.779v6.766H3.882z"/>
	<path fill="#363636" d="M11.711,206.238v-4.09c0-0.938-0.49-1.261-1.247-1.261c-0.7,0-1.232,0.392-1.541,0.784v4.566H7.145v-6.766
		h1.779v0.868c0.434-0.504,1.274-1.036,2.367-1.036c1.499,0,2.213,0.84,2.213,2.157v4.776H11.711z"/>
	<path fill="#363636" d="M15.334,204.543v-3.516h-1.121v-1.555h1.121v-1.849h1.779v1.849h1.373v1.555h-1.373v3.04
		c0,0.434,0.225,0.756,0.617,0.756c0.266,0,0.518-0.098,0.616-0.21l0.378,1.358c-0.267,0.238-0.743,0.435-1.485,0.435
		C15.993,206.406,15.334,205.762,15.334,204.543z"/>
	<path fill="#363636" d="M18.988,202.849c0-1.961,1.457-3.544,3.502-3.544c2.031,0,3.39,1.513,3.39,3.712v0.42h-5.029
		c0.126,0.827,0.799,1.513,1.947,1.513c0.574,0,1.359-0.237,1.793-0.658l0.798,1.177c-0.672,0.616-1.737,0.938-2.788,0.938
		C20.543,206.406,18.988,205.02,18.988,202.849z M22.49,200.762c-1.106,0-1.583,0.77-1.653,1.442h3.333
		C24.115,201.56,23.667,200.762,22.49,200.762z"/>
	<path fill="#363636" d="M26.884,206.238v-6.766h1.779v0.91c0.49-0.588,1.316-1.078,2.157-1.078v1.736
		c-0.126-0.027-0.28-0.042-0.491-0.042c-0.588,0-1.373,0.337-1.667,0.771v4.469H26.884z"/>
	<path fill="#363636" d="M33.395,206.238l-2.717-6.766h1.905l1.765,4.706l1.779-4.706h1.905l-2.718,6.766H33.395z"/>
	<path fill="#363636" d="M38.111,202.849c0-1.961,1.457-3.544,3.502-3.544c2.031,0,3.39,1.513,3.39,3.712v0.42h-5.029
		c0.126,0.827,0.799,1.513,1.947,1.513c0.574,0,1.359-0.237,1.793-0.658l0.798,1.177c-0.672,0.616-1.737,0.938-2.788,0.938
		C39.666,206.406,38.111,205.02,38.111,202.849z M41.613,200.762c-1.106,0-1.583,0.77-1.653,1.442h3.333
		C43.238,201.56,42.79,200.762,41.613,200.762z"/>
	<path fill="#363636" d="M50.573,206.238v-4.09c0-0.938-0.49-1.261-1.247-1.261c-0.7,0-1.232,0.392-1.541,0.784v4.566h-1.779v-6.766
		h1.779v0.868c0.434-0.504,1.274-1.036,2.367-1.036c1.499,0,2.213,0.84,2.213,2.157v4.776H50.573z"/>
	<path fill="#363636" d="M54.197,204.543v-3.516h-1.121v-1.555h1.121v-1.849h1.779v1.849h1.373v1.555h-1.373v3.04
		c0,0.434,0.225,0.756,0.617,0.756c0.266,0,0.518-0.098,0.616-0.21l0.378,1.358c-0.267,0.238-0.743,0.435-1.485,0.435
		C54.855,206.406,54.197,205.762,54.197,204.543z"/>
	<path fill="#363636" d="M58.117,197.68c0-0.588,0.476-1.051,1.051-1.051c0.588,0,1.064,0.463,1.064,1.051s-0.476,1.064-1.064,1.064
		C58.593,198.744,58.117,198.268,58.117,197.68z M58.285,206.238v-6.766h1.779v6.766H58.285z"/>
	<path fill="#363636" d="M61.113,202.849c0-1.919,1.345-3.544,3.572-3.544c2.241,0,3.586,1.625,3.586,3.544
		s-1.345,3.558-3.586,3.558C62.458,206.406,61.113,204.768,61.113,202.849z M66.422,202.849c0-1.051-0.617-1.961-1.737-1.961
		c-1.106,0-1.723,0.91-1.723,1.961c0,1.064,0.616,1.975,1.723,1.975C65.805,204.823,66.422,203.913,66.422,202.849z"/>
	<path fill="#363636" d="M73.883,206.238v-4.09c0-0.938-0.49-1.261-1.247-1.261c-0.7,0-1.232,0.392-1.541,0.784v4.566h-1.779v-6.766
		h1.779v0.868c0.434-0.504,1.274-1.036,2.367-1.036c1.499,0,2.213,0.84,2.213,2.157v4.776H73.883z"/>
	<path fill="#363636" d="M76.554,205.355l0.771-1.288c0.504,0.476,1.499,0.938,2.339,0.938c0.771,0,1.135-0.294,1.135-0.715
		c0-1.106-4.006-0.196-4.006-2.857c0-1.135,0.98-2.129,2.773-2.129c1.135,0,2.045,0.392,2.718,0.925l-0.714,1.26
		c-0.406-0.42-1.177-0.784-2.003-0.784c-0.644,0-1.064,0.28-1.064,0.658c0,0.995,4.02,0.154,4.02,2.886
		c0,1.247-1.064,2.157-2.941,2.157C78.403,206.406,77.269,206.014,76.554,205.355z"/>
</g>
<g>
	<g>
		<path fill="#363636" d="M585.383,155.838l-0.589-1.583h-4.006l-0.589,1.583h-2.255l3.601-9.343h2.492l3.601,9.343H585.383z
			 M582.791,148.484l-1.457,4.02h2.914L582.791,148.484z"/>
		<path fill="#363636" d="M592.745,155.838v-4.09c0-0.938-0.49-1.261-1.247-1.261c-0.699,0-1.232,0.393-1.54,0.785v4.566h-1.779
			v-6.766h1.779v0.869c0.435-0.504,1.274-1.037,2.367-1.037c1.499,0,2.213,0.84,2.213,2.157v4.776H592.745z"/>
		<path fill="#363636" d="M596.033,156.889c0.153,0.07,0.392,0.112,0.56,0.112c0.462,0,0.771-0.127,0.938-0.491l0.252-0.588
			l-2.745-6.85h1.905l1.765,4.706l1.778-4.706h1.906l-3.18,7.872c-0.505,1.274-1.401,1.611-2.564,1.639
			c-0.195,0-0.658-0.042-0.868-0.111L596.033,156.889z"/>
		<path fill="#363636" d="M602.473,152.448c0-1.919,1.344-3.544,3.571-3.544c2.241,0,3.586,1.625,3.586,3.544
			c0,1.919-1.345,3.558-3.586,3.558C603.816,156.006,602.473,154.367,602.473,152.448z M607.781,152.448
			c0-1.051-0.617-1.961-1.737-1.961c-1.106,0-1.723,0.911-1.723,1.961c0,1.064,0.616,1.975,1.723,1.975
			C607.164,154.423,607.781,153.513,607.781,152.448z"/>
		<path fill="#363636" d="M615.242,155.838v-4.09c0-0.938-0.49-1.261-1.246-1.261c-0.701,0-1.232,0.393-1.541,0.785v4.566h-1.779
			v-6.766h1.779v0.869c0.434-0.504,1.274-1.037,2.367-1.037c1.498,0,2.213,0.84,2.213,2.157v4.776H615.242z"/>
		<path fill="#363636" d="M618.068,152.448c0-1.961,1.457-3.544,3.502-3.544c2.031,0,3.389,1.513,3.389,3.712v0.42h-5.028
			c0.126,0.827,0.799,1.513,1.947,1.513c0.574,0,1.358-0.237,1.793-0.658l0.798,1.177c-0.672,0.616-1.736,0.938-2.787,0.938
			C619.623,156.006,618.068,154.619,618.068,152.448z M621.57,150.361c-1.107,0-1.584,0.771-1.653,1.443h3.333
			C623.195,151.159,622.746,150.361,621.57,150.361z"/>
		<path fill="#363636" d="M635.221,155.838l-1.429-4.608l-1.429,4.608h-1.905l-2.06-6.766h1.85l1.261,4.553l1.485-4.553h1.582
			l1.484,4.553l1.262-4.553h1.862l-2.06,6.766H635.221z"/>
		<path fill="#363636" d="M639.613,147.279c0-0.588,0.476-1.051,1.051-1.051c0.588,0,1.064,0.462,1.064,1.051
			s-0.477,1.064-1.064,1.064C640.089,148.344,639.613,147.868,639.613,147.279z M639.781,155.838v-6.766h1.779v6.766H639.781z"/>
		<path fill="#363636" d="M643.407,154.143v-3.516h-1.12v-1.555h1.12v-1.849h1.778v1.849h1.373v1.555h-1.373v3.04
			c0,0.434,0.225,0.756,0.617,0.756c0.266,0,0.518-0.098,0.616-0.21l0.378,1.358c-0.266,0.238-0.742,0.435-1.484,0.435
			C644.066,156.006,643.407,155.361,643.407,154.143z"/>
		<path fill="#363636" d="M652.076,155.838v-4.118c0-0.938-0.49-1.233-1.247-1.233c-0.7,0-1.247,0.393-1.541,0.785v4.566h-1.793
			v-9.343h1.793v3.446c0.435-0.504,1.261-1.037,2.368-1.037c1.484,0,2.198,0.812,2.198,2.129v4.805H652.076z"/>
		<path fill="#363636" d="M660.852,155.838v-7.592h-2.731v-1.751h7.452v1.751h-2.717v7.592H660.852z"/>
		<path fill="#363636" d="M668.719,155.838v-7.592h-2.73v-1.751h7.451v1.751h-2.717v7.592H668.719z"/>
		<path fill="#363636" d="M677.705,155.838v-6.766h1.779v0.911c0.49-0.588,1.316-1.079,2.158-1.079v1.737
			c-0.127-0.028-0.281-0.042-0.491-0.042c-0.588,0-1.372,0.336-1.667,0.771v4.468H677.705z"/>
		<path fill="#363636" d="M682.031,152.448c0-1.961,1.457-3.544,3.502-3.544c2.031,0,3.39,1.513,3.39,3.712v0.42h-5.028
			c0.126,0.827,0.799,1.513,1.947,1.513c0.574,0,1.358-0.237,1.793-0.658l0.798,1.177c-0.673,0.616-1.737,0.938-2.788,0.938
			C683.586,156.006,682.031,154.619,682.031,152.448z M685.533,150.361c-1.106,0-1.583,0.771-1.652,1.443h3.333
			C687.158,151.159,686.71,150.361,685.533,150.361z"/>
		<path fill="#363636" d="M689.479,152.448c0-2.255,1.262-3.544,2.984-3.544c0.826,0,1.568,0.364,2.087,1.022v-0.854h1.793v9.343
			h-1.793v-3.445c-0.546,0.7-1.274,1.036-2.087,1.036C690.74,156.006,689.479,154.703,689.479,152.448z M694.55,153.639v-2.381
			c-0.294-0.448-0.938-0.771-1.526-0.771c-1.009,0-1.709,0.799-1.709,1.961c0,1.177,0.7,1.975,1.709,1.975
			C693.611,154.423,694.256,154.073,694.55,153.639z"/>
		<path fill="#363636" d="M702.375,155.838v-0.854c-0.461,0.504-1.273,1.022-2.381,1.022c-1.484,0-2.186-0.812-2.186-2.129v-4.805
			h1.779v4.104c0,0.939,0.49,1.247,1.247,1.247c0.687,0,1.232-0.378,1.54-0.771v-4.58h1.779v6.766H702.375z"/>
		<path fill="#363636" d="M705.467,147.279c0-0.588,0.477-1.051,1.051-1.051c0.588,0,1.064,0.462,1.064,1.051
			s-0.477,1.064-1.064,1.064C705.943,148.344,705.467,147.868,705.467,147.279z M705.635,155.838v-6.766h1.779v6.766H705.635z"/>
		<path fill="#363636" d="M708.896,155.838v-6.766h1.779v0.911c0.49-0.588,1.316-1.079,2.158-1.079v1.737
			c-0.127-0.028-0.281-0.042-0.491-0.042c-0.588,0-1.372,0.336-1.667,0.771v4.468H708.896z"/>
		<path fill="#363636" d="M713.223,152.448c0-1.961,1.457-3.544,3.502-3.544c2.031,0,3.391,1.513,3.391,3.712v0.42h-5.029
			c0.127,0.827,0.799,1.513,1.947,1.513c0.574,0,1.359-0.237,1.793-0.658l0.799,1.177c-0.673,0.616-1.737,0.938-2.788,0.938
			C714.777,156.006,713.223,154.619,713.223,152.448z M716.725,150.361c-1.105,0-1.582,0.771-1.652,1.443h3.334
			C718.35,151.159,717.902,150.361,716.725,150.361z"/>
		<path fill="#363636" d="M720.53,154.955l0.771-1.288c0.504,0.476,1.499,0.938,2.34,0.938c0.77,0,1.135-0.294,1.135-0.715
			c0-1.106-4.007-0.196-4.007-2.857c0-1.135,0.98-2.129,2.773-2.129c1.135,0,2.046,0.392,2.718,0.924l-0.715,1.261
			c-0.406-0.42-1.176-0.785-2.003-0.785c-0.644,0-1.064,0.28-1.064,0.659c0,0.995,4.021,0.154,4.021,2.885
			c0,1.247-1.064,2.157-2.941,2.157C722.379,156.006,721.244,155.613,720.53,154.955z"/>
		<path fill="#363636" d="M730.232,154.521l1.092-1.555c0.658,0.686,1.682,1.275,2.97,1.275c1.106,0,1.625-0.49,1.625-1.037
			c0-1.625-5.379-0.49-5.379-4.006c0-1.555,1.345-2.843,3.544-2.843c1.484,0,2.717,0.448,3.643,1.302l-1.107,1.485
			c-0.756-0.7-1.765-1.022-2.717-1.022c-0.841,0-1.317,0.364-1.317,0.925c0,1.471,5.365,0.476,5.365,3.964
			c0,1.708-1.233,2.998-3.74,2.998C732.402,156.006,731.114,155.403,730.232,154.521z"/>
		<path fill="#363636" d="M578.715,164.079c0-0.588,0.477-1.051,1.051-1.051c0.588,0,1.064,0.463,1.064,1.051
			s-0.477,1.064-1.064,1.064C579.191,165.144,578.715,164.667,578.715,164.079z M578.883,172.638v-6.766h1.779v6.766H578.883z"/>
		<path fill="#363636" d="M586.711,172.638v-4.09c0-0.938-0.49-1.261-1.246-1.261c-0.7,0-1.232,0.392-1.541,0.784v4.566h-1.779
			v-6.766h1.779v0.868c0.435-0.504,1.275-1.036,2.367-1.036c1.499,0,2.213,0.84,2.213,2.157v4.776H586.711z"/>
		<path fill="#363636" d="M590.335,170.942v-3.516h-1.12v-1.555h1.12v-1.849h1.778v1.849h1.373v1.555h-1.373v3.04
			c0,0.434,0.225,0.756,0.617,0.756c0.266,0,0.518-0.098,0.616-0.21l0.378,1.358c-0.266,0.238-0.742,0.435-1.484,0.435
			C590.994,172.806,590.335,172.161,590.335,170.942z"/>
		<path fill="#363636" d="M593.988,169.248c0-1.961,1.457-3.544,3.502-3.544c2.031,0,3.391,1.513,3.391,3.712v0.42h-5.029
			c0.127,0.827,0.799,1.513,1.947,1.513c0.574,0,1.359-0.237,1.793-0.658l0.799,1.177c-0.673,0.616-1.737,0.938-2.788,0.938
			C595.543,172.806,593.988,171.419,593.988,169.248z M597.49,167.161c-1.105,0-1.582,0.771-1.652,1.442h3.334
			C599.115,167.959,598.668,167.161,597.49,167.161z"/>
		<path fill="#363636" d="M601.885,172.638v-6.766h1.779v0.91c0.49-0.588,1.316-1.078,2.156-1.078v1.736
			c-0.126-0.027-0.279-0.042-0.49-0.042c-0.588,0-1.373,0.337-1.666,0.771v4.469H601.885z"/>
		<path fill="#363636" d="M608.395,172.638l-2.717-6.766h1.904l1.766,4.706l1.779-4.706h1.904l-2.717,6.766H608.395z"/>
		<path fill="#363636" d="M613.111,169.248c0-1.961,1.457-3.544,3.502-3.544c2.031,0,3.39,1.513,3.39,3.712v0.42h-5.028
			c0.126,0.827,0.799,1.513,1.947,1.513c0.574,0,1.358-0.237,1.793-0.658l0.798,1.177c-0.673,0.616-1.737,0.938-2.788,0.938
			C614.666,172.806,613.111,171.419,613.111,169.248z M616.613,167.161c-1.106,0-1.583,0.771-1.652,1.442h3.333
			C618.238,167.959,617.79,167.161,616.613,167.161z"/>
		<path fill="#363636" d="M625.574,172.638v-4.09c0-0.938-0.49-1.261-1.247-1.261c-0.7,0-1.232,0.392-1.54,0.784v4.566h-1.779
			v-6.766h1.779v0.868c0.434-0.504,1.273-1.036,2.367-1.036c1.498,0,2.213,0.84,2.213,2.157v4.776H625.574z"/>
		<path fill="#363636" d="M629.197,170.942v-3.516h-1.121v-1.555h1.121v-1.849h1.779v1.849h1.373v1.555h-1.373v3.04
			c0,0.434,0.225,0.756,0.616,0.756c0.267,0,0.519-0.098,0.616-0.21l0.379,1.358c-0.268,0.238-0.743,0.435-1.485,0.435
			C629.855,172.806,629.197,172.161,629.197,170.942z"/>
		<path fill="#363636" d="M633.117,164.079c0-0.588,0.477-1.051,1.051-1.051c0.588,0,1.064,0.463,1.064,1.051
			s-0.477,1.064-1.064,1.064C633.594,165.144,633.117,164.667,633.117,164.079z M633.285,172.638v-6.766h1.779v6.766H633.285z"/>
		<path fill="#363636" d="M636.113,169.248c0-1.919,1.345-3.544,3.572-3.544c2.24,0,3.586,1.625,3.586,3.544
			s-1.346,3.558-3.586,3.558C637.458,172.806,636.113,171.167,636.113,169.248z M641.422,169.248c0-1.051-0.616-1.961-1.736-1.961
			c-1.107,0-1.723,0.91-1.723,1.961c0,1.064,0.615,1.975,1.723,1.975C640.806,171.223,641.422,170.312,641.422,169.248z"/>
		<path fill="#363636" d="M648.883,172.638v-4.09c0-0.938-0.49-1.261-1.246-1.261c-0.7,0-1.232,0.392-1.541,0.784v4.566h-1.779
			v-6.766h1.779v0.868c0.435-0.504,1.275-1.036,2.367-1.036c1.499,0,2.213,0.84,2.213,2.157v4.776H648.883z"/>
	</g>
</g>
<rect x="768" fill="#181716" stroke="#FFFFFF" stroke-width="2" stroke-miterlimit="10" width="192" height="137"/>
<g>
	<path fill="#FFFFFF" d="M815.041,36.362c0-8.239,6.239-13.798,14.438-13.798c6.439,0,9.918,3.639,11.639,7.119l-5.92,2.839
		c-0.879-2.12-3.158-3.879-5.719-3.879c-4.359,0-7.438,3.32-7.438,7.719c0,4.358,3.079,7.719,7.438,7.719
		c2.561,0,4.84-1.76,5.719-3.88l5.92,2.8c-1.721,3.399-5.199,7.158-11.639,7.158C821.28,50.159,815.041,44.561,815.041,36.362z"/>
	<path fill="#FFFFFF" d="M841.922,36.362c0-8.119,6.118-13.798,14.277-13.798c8.158,0,14.237,5.679,14.237,13.798
		c0,8.118-6.079,13.797-14.237,13.797C848.04,50.159,841.922,44.48,841.922,36.362z M863.438,36.362c0-4.359-2.84-7.719-7.238-7.719
		c-4.4,0-7.279,3.36-7.279,7.719c0,4.319,2.879,7.719,7.279,7.719C860.598,44.081,863.438,40.682,863.438,36.362z"/>
	<path fill="#009DE2" d="M814.47,86.884c0-3.709,2.809-6.212,6.5-6.212c2.899,0,4.466,1.639,5.239,3.205l-2.664,1.278
		c-0.396-0.954-1.423-1.746-2.575-1.746c-1.963,0-3.349,1.494-3.349,3.475c0,1.963,1.386,3.476,3.349,3.476
		c1.152,0,2.179-0.793,2.575-1.747l2.664,1.261c-0.773,1.53-2.34,3.223-5.239,3.223C817.278,93.096,814.47,90.575,814.47,86.884z"/>
	<path fill="#009DE2" d="M826.547,88.522c0-2.448,1.766-4.556,4.718-4.556c2.989,0,4.753,2.107,4.753,4.556
		c0,2.449-1.764,4.573-4.753,4.573C828.312,93.096,826.547,90.972,826.547,88.522z M833.174,88.522c0-1.152-0.685-2.106-1.909-2.106
		c-1.188,0-1.872,0.954-1.872,2.106c0,1.171,0.684,2.125,1.872,2.125C832.489,90.647,833.174,89.693,833.174,88.522z"/>
	<path fill="#009DE2" d="M837.113,92.88v-8.696h2.772v1.062c0.576-0.703,1.692-1.297,2.719-1.297v2.665
		c-0.162-0.055-0.396-0.072-0.685-0.072c-0.72,0-1.674,0.306-2.034,0.792v5.546H837.113z"/>
	<path fill="#009DE2" d="M849.391,92.88v-5.023c0-1.062-0.559-1.44-1.422-1.44c-0.828,0-1.369,0.45-1.693,0.846v5.618h-2.772v-8.696
		h2.772v1.062c0.522-0.612,1.549-1.279,3.025-1.279c1.963,0,2.863,1.152,2.863,2.755v6.158H849.391z"/>
	<path fill="#009DE2" d="M853.259,88.522c0-2.521,1.891-4.556,4.609-4.556c2.575,0,4.447,1.891,4.447,4.844v0.63h-6.194
		c0.199,0.774,0.919,1.423,2.18,1.423c0.611,0,1.62-0.271,2.124-0.738l1.206,1.818c-0.863,0.774-2.305,1.152-3.637,1.152
		C855.312,93.096,853.259,91.35,853.259,88.522z M857.868,86.2c-1.206,0-1.675,0.72-1.782,1.351h3.582
		C859.597,86.938,859.146,86.2,857.868,86.2z"/>
	<path fill="#009DE2" d="M868.452,92.88v-0.864c-0.54,0.648-1.585,1.08-2.7,1.08c-1.333,0-2.989-0.918-2.989-2.862
		c0-2.106,1.656-2.81,2.989-2.81c1.152,0,2.178,0.379,2.7,1.026v-0.864c0-0.756-0.647-1.278-1.765-1.278
		c-0.863,0-1.729,0.343-2.43,0.937l-1.027-1.927c1.117-0.954,2.611-1.351,3.943-1.351c2.089,0,4.051,0.774,4.051,3.476v5.438
		H868.452z M868.452,90.647v-0.774c-0.288-0.414-0.937-0.612-1.548-0.612c-0.721,0-1.387,0.324-1.387,1.009
		c0,0.684,0.666,1.008,1.387,1.008C867.516,91.277,868.164,91.062,868.452,90.647z"/>
	<path fill="#009DE2" d="M872.879,92.88V80.87h2.772v12.01H872.879z"/>
	<path fill="#009DE2" d="M814.47,108.483c0-3.655,2.755-6.212,6.428-6.212s6.41,2.557,6.41,6.212s-2.737,6.212-6.41,6.212
		S814.47,112.139,814.47,108.483z M824.156,108.483c0-1.962-1.278-3.475-3.259-3.475s-3.276,1.513-3.276,3.475
		c0,1.945,1.296,3.476,3.276,3.476S824.156,110.429,824.156,108.483z"/>
	<path fill="#009DE2" d="M831.211,113.453v4.34h-2.773v-12.01h2.773v1.008c0.684-0.828,1.584-1.225,2.574-1.225
		c2.18,0,3.817,1.621,3.817,4.556c0,2.953-1.638,4.573-3.817,4.573C832.813,114.695,831.932,114.317,831.211,113.453z
		 M834.775,110.122c0-1.296-0.828-2.106-1.908-2.106c-0.594,0-1.314,0.324-1.656,0.792v2.647c0.342,0.449,1.062,0.792,1.656,0.792
		C833.947,112.247,834.775,111.437,834.775,110.122z"/>
	<path fill="#009DE2" d="M843.811,114.479v-0.864c-0.54,0.648-1.584,1.08-2.701,1.08c-1.332,0-2.988-0.918-2.988-2.862
		c0-2.106,1.656-2.81,2.988-2.81c1.152,0,2.18,0.379,2.701,1.026v-0.864c0-0.756-0.648-1.278-1.764-1.278
		c-0.865,0-1.729,0.343-2.432,0.937l-1.025-1.927c1.115-0.954,2.609-1.351,3.942-1.351c2.089,0,4.052,0.774,4.052,3.476v5.438
		H843.811z M843.811,112.247v-0.774c-0.288-0.414-0.936-0.612-1.549-0.612c-0.72,0-1.386,0.324-1.386,1.009
		c0,0.684,0.666,1.008,1.386,1.008C842.875,112.877,843.522,112.661,843.811,112.247z"/>
	<path fill="#009DE2" d="M847.68,110.122c0-2.719,2.016-4.556,4.734-4.556c1.891,0,3.043,0.829,3.565,1.603l-1.8,1.675
		c-0.343-0.504-0.9-0.828-1.639-0.828c-1.152,0-2.035,0.792-2.035,2.106s0.883,2.125,2.035,2.125c0.738,0,1.296-0.36,1.639-0.847
		l1.8,1.692c-0.522,0.757-1.675,1.603-3.565,1.603C849.695,114.695,847.68,112.841,847.68,110.122z"/>
	<path fill="#009DE2" d="M856.68,103.406c0-0.883,0.701-1.585,1.584-1.585s1.603,0.702,1.603,1.585c0,0.882-0.72,1.603-1.603,1.603
		S856.68,104.288,856.68,103.406z M856.877,114.479v-8.696h2.773v8.696H856.877z"/>
	<path fill="#009DE2" d="M861.882,112.139v-3.961h-1.44v-2.395h1.44v-2.377h2.772v2.377h1.766v2.395h-1.766v3.187
		c0,0.505,0.289,0.883,0.756,0.883c0.307,0,0.613-0.108,0.703-0.216l0.54,2.088c-0.343,0.324-1.026,0.576-2.053,0.576
		C862.836,114.695,861.882,113.813,861.882,112.139z"/>
	<path fill="#009DE2" d="M867.641,115.397c0.198,0.108,0.469,0.162,0.685,0.162c0.63,0,1.026-0.126,1.188-0.486l0.197-0.468
		l-3.475-8.822h2.917l1.98,5.51l1.963-5.51h2.935l-3.926,9.938c-0.701,1.837-1.998,2.251-3.672,2.287
		c-0.252,0-0.9-0.055-1.189-0.145L867.641,115.397z"/>
</g>
<polygon fill="#2C2136" stroke="#FFFFFF" stroke-width="2" stroke-miterlimit="10" points="795.491,65.5 768,38.009 768,0 576,0 
	576,137 768,137 768,92.991 "/>
<polygon fill="#3C2A4F" stroke="#FFFFFF" stroke-width="2" stroke-miterlimit="10" points="603.491,65.5 576,38.009 576,0 384,0 
	384,137 576,137 576,92.991 "/>
<g>
	<path fill="#FFFFFF" d="M630.359,49.68V29.003h-7.479v-5.999h21.797v5.999h-7.439V49.68H630.359z"/>
	<path fill="#FFFFFF" d="M653.119,49.68V29.003h-7.479v-5.999h21.797v5.999h-7.439V49.68H653.119z"/>
	<path fill="#FFFFFF" d="M625.765,92.88v-9.309h-3.367V80.87h9.813v2.701h-3.35v9.309H625.765z"/>
	<path fill="#FFFFFF" d="M633.252,92.88v-8.696h2.772v1.062c0.576-0.703,1.692-1.297,2.719-1.297v2.665
		c-0.162-0.055-0.396-0.072-0.685-0.072c-0.72,0-1.674,0.306-2.034,0.792v5.546H633.252z"/>
	<path fill="#FFFFFF" d="M644.772,92.88v-0.864c-0.54,0.648-1.585,1.08-2.7,1.08c-1.333,0-2.989-0.918-2.989-2.862
		c0-2.106,1.656-2.81,2.989-2.81c1.152,0,2.178,0.379,2.7,1.026v-0.864c0-0.756-0.647-1.278-1.765-1.278
		c-0.863,0-1.729,0.343-2.43,0.937l-1.027-1.927c1.117-0.954,2.611-1.351,3.943-1.351c2.089,0,4.051,0.774,4.051,3.476v5.438
		H644.772z M644.772,90.647v-0.774c-0.288-0.414-0.937-0.612-1.548-0.612c-0.721,0-1.387,0.324-1.387,1.009
		c0,0.684,0.666,1.008,1.387,1.008C643.836,91.277,644.484,91.062,644.772,90.647z"/>
	<path fill="#FFFFFF" d="M648.641,88.522c0-2.719,2.018-4.556,4.736-4.556c1.891,0,3.043,0.829,3.564,1.603l-1.801,1.675
		c-0.342-0.504-0.9-0.828-1.639-0.828c-1.152,0-2.034,0.792-2.034,2.106s0.882,2.125,2.034,2.125c0.738,0,1.297-0.36,1.639-0.847
		l1.801,1.692c-0.521,0.757-1.674,1.603-3.564,1.603C650.658,93.096,648.641,91.241,648.641,88.522z"/>
	<path fill="#FFFFFF" d="M663.745,92.88v-5.06c0-1.062-0.558-1.404-1.44-1.404c-0.811,0-1.351,0.45-1.674,0.846v5.618h-2.773V80.87
		h2.773v4.376c0.521-0.612,1.548-1.279,3.006-1.279c1.98,0,2.881,1.117,2.881,2.719v6.194H663.745z"/>
	<path fill="#FFFFFF" d="M667.613,88.522c0-2.448,1.765-4.556,4.717-4.556c2.989,0,4.754,2.107,4.754,4.556
		c0,2.449-1.765,4.573-4.754,4.573C669.378,93.096,667.613,90.972,667.613,88.522z M674.239,88.522c0-1.152-0.685-2.106-1.909-2.106
		c-1.188,0-1.872,0.954-1.872,2.106c0,1.171,0.685,2.125,1.872,2.125C673.555,90.647,674.239,89.693,674.239,88.522z"/>
	<path fill="#FFFFFF" d="M689.145,92.88v-5.294c0-0.666-0.324-1.17-1.152-1.17c-0.757,0-1.297,0.486-1.566,0.846v5.618h-2.773
		v-5.294c0-0.666-0.307-1.17-1.135-1.17c-0.756,0-1.277,0.486-1.566,0.846v5.618h-2.772v-8.696h2.772v1.062
		c0.379-0.505,1.494-1.279,2.863-1.279c1.26,0,2.106,0.522,2.467,1.549c0.504-0.756,1.639-1.549,3.007-1.549
		c1.603,0,2.61,0.829,2.61,2.611v6.302H689.145z"/>
	<path fill="#FFFFFF" d="M698.7,92.88v-0.864c-0.54,0.648-1.585,1.08-2.7,1.08c-1.333,0-2.989-0.918-2.989-2.862
		c0-2.106,1.656-2.81,2.989-2.81c1.152,0,2.178,0.379,2.7,1.026v-0.864c0-0.756-0.647-1.278-1.765-1.278
		c-0.863,0-1.729,0.343-2.43,0.937l-1.027-1.927c1.117-0.954,2.611-1.351,3.943-1.351c2.089,0,4.051,0.774,4.051,3.476v5.438H698.7z
		 M698.7,90.647v-0.774c-0.288-0.414-0.937-0.612-1.548-0.612c-0.721,0-1.387,0.324-1.387,1.009c0,0.684,0.666,1.008,1.387,1.008
		C697.764,91.277,698.412,91.062,698.7,90.647z"/>
	<path fill="#FFFFFF" d="M703.703,90.539v-3.961h-1.44v-2.395h1.44v-2.377h2.773v2.377h1.764v2.395h-1.764v3.187
		c0,0.505,0.287,0.883,0.756,0.883c0.306,0,0.611-0.108,0.702-0.216l0.54,2.088c-0.342,0.324-1.026,0.576-2.053,0.576
		C704.657,93.096,703.703,92.214,703.703,90.539z"/>
	<path fill="#FFFFFF" d="M708.688,88.522c0-2.448,1.766-4.556,4.718-4.556c2.989,0,4.753,2.107,4.753,4.556
		c0,2.449-1.764,4.573-4.753,4.573C710.453,93.096,708.688,90.972,708.688,88.522z M715.314,88.522c0-1.152-0.685-2.106-1.909-2.106
		c-1.188,0-1.872,0.954-1.872,2.106c0,1.171,0.684,2.125,1.872,2.125C714.63,90.647,715.314,89.693,715.314,88.522z"/>
	<path fill="#FFFFFF" d="M725.123,92.88v-1.044c-0.539,0.611-1.529,1.26-3.006,1.26c-1.963,0-2.863-1.134-2.863-2.719v-6.193h2.773
		v5.041c0,1.062,0.539,1.423,1.439,1.423c0.793,0,1.332-0.433,1.656-0.847v-5.617h2.773v8.696H725.123z"/>
	<path fill="#FFFFFF" d="M728.812,91.745l1.152-1.98c0.648,0.576,2.034,1.171,3.062,1.171c0.828,0,1.17-0.234,1.17-0.612
		c0-1.08-5.06,0.036-5.06-3.493c0-1.53,1.333-2.863,3.728-2.863c1.477,0,2.7,0.469,3.637,1.152l-1.062,1.963
		c-0.521-0.504-1.512-0.954-2.557-0.954c-0.648,0-1.08,0.252-1.08,0.594c0,0.955,5.041-0.036,5.041,3.529
		c0,1.656-1.459,2.845-3.943,2.845C731.332,93.096,729.73,92.574,728.812,91.745z"/>
	<path fill="#009DE2" d="M625.765,114.479v-9.309h-3.367v-2.701h9.813v2.701h-3.35v9.309H625.765z"/>
	<path fill="#009DE2" d="M633.252,114.479v-8.696h2.772v1.062c0.576-0.703,1.692-1.297,2.719-1.297v2.665
		c-0.162-0.055-0.396-0.072-0.685-0.072c-0.72,0-1.674,0.306-2.034,0.792v5.546H633.252z"/>
	<path fill="#009DE2" d="M639.443,103.406c0-0.883,0.701-1.585,1.584-1.585s1.603,0.702,1.603,1.585c0,0.882-0.72,1.603-1.603,1.603
		S639.443,104.288,639.443,103.406z M639.641,114.479v-8.696h2.773v8.696H639.641z"/>
	<path fill="#009DE2" d="M643.512,110.122c0-2.719,2.016-4.556,4.734-4.556c1.891,0,3.043,0.829,3.565,1.603l-1.8,1.675
		c-0.343-0.504-0.9-0.828-1.639-0.828c-1.152,0-2.035,0.792-2.035,2.106s0.883,2.125,2.035,2.125c0.738,0,1.296-0.36,1.639-0.847
		l1.8,1.692c-0.522,0.757-1.675,1.603-3.565,1.603C645.527,114.695,643.512,112.841,643.512,110.122z"/>
	<path fill="#009DE2" d="M658.615,114.479v-5.06c0-1.062-0.559-1.404-1.44-1.404c-0.81,0-1.351,0.45-1.675,0.846v5.618h-2.772
		v-12.01h2.772v4.376c0.522-0.612,1.549-1.279,3.008-1.279c1.98,0,2.881,1.117,2.881,2.719v6.194H658.615z"/>
	<path fill="#009DE2" d="M662.844,103.406c0-0.883,0.701-1.585,1.584-1.585s1.603,0.702,1.603,1.585c0,0.882-0.72,1.603-1.603,1.603
		S662.844,104.288,662.844,103.406z M663.041,114.479v-8.696h2.773v8.696H663.041z"/>
	<path fill="#009DE2" d="M672.6,114.479v-0.864c-0.539,0.648-1.584,1.08-2.7,1.08c-1.333,0-2.989-0.918-2.989-2.862
		c0-2.106,1.656-2.81,2.989-2.81c1.152,0,2.179,0.379,2.7,1.026v-0.864c0-0.756-0.647-1.278-1.764-1.278
		c-0.864,0-1.729,0.343-2.432,0.937l-1.025-1.927c1.116-0.954,2.611-1.351,3.943-1.351c2.088,0,4.051,0.774,4.051,3.476v5.438H672.6
		z M672.6,112.247v-0.774c-0.287-0.414-0.936-0.612-1.548-0.612c-0.72,0-1.386,0.324-1.386,1.009c0,0.684,0.666,1.008,1.386,1.008
		C671.664,112.877,672.312,112.661,672.6,112.247z"/>
	<path fill="#009DE2" d="M676.289,113.345l1.152-1.98c0.648,0.576,2.034,1.171,3.061,1.171c0.828,0,1.17-0.234,1.17-0.612
		c0-1.08-5.059,0.036-5.059-3.493c0-1.53,1.332-2.863,3.727-2.863c1.477,0,2.701,0.469,3.637,1.152l-1.062,1.963
		c-0.521-0.504-1.512-0.954-2.557-0.954c-0.648,0-1.08,0.252-1.08,0.594c0,0.955,5.041-0.036,5.041,3.529
		c0,1.656-1.457,2.845-3.942,2.845C678.81,114.695,677.207,114.174,676.289,113.345z"/>
	<path fill="#009DE2" d="M685.181,103.406c0-0.883,0.702-1.585,1.585-1.585c0.882,0,1.602,0.702,1.602,1.585
		c0,0.882-0.72,1.603-1.602,1.603C685.883,105.009,685.181,104.288,685.181,103.406z M685.379,114.479v-8.696h2.773v8.696H685.379z"
		/>
	<path fill="#009DE2" d="M689.068,113.345l1.152-1.98c0.648,0.576,2.035,1.171,3.061,1.171c0.828,0,1.171-0.234,1.171-0.612
		c0-1.08-5.06,0.036-5.06-3.493c0-1.53,1.332-2.863,3.727-2.863c1.477,0,2.701,0.469,3.638,1.152l-1.062,1.963
		c-0.522-0.504-1.513-0.954-2.557-0.954c-0.648,0-1.081,0.252-1.081,0.594c0,0.955,5.042-0.036,5.042,3.529
		c0,1.656-1.458,2.845-3.942,2.845C691.59,114.695,689.986,114.174,689.068,113.345z"/>
</g>
<polygon fill="#563779" stroke="#FFFFFF" stroke-width="2" stroke-miterlimit="10" points="411.491,65.5 384,38.009 384,0 192,0 
	192,137 384,137 384,92.991 "/>
<polygon fill="#653F91" stroke="#FFFFFF" stroke-width="2" stroke-miterlimit="10" points="219.491,65.5 192,38.009 192,0 0,0 
	0,137 192,137 192,92.991 "/>
<g>
	<path fill="#FFFFFF" d="M44.359,49.68V29.003h-7.479v-5.999h21.796v5.999h-7.439V49.68H44.359z"/>
	<path fill="#FFFFFF" d="M61.16,49.68V23.004h19.557v5.999H68.039v4.159h12.398v5.999H68.039V49.68H61.16z"/>
	<path fill="#FFFFFF" d="M39.764,71.279v-9.309h-3.367V59.27h9.813v2.701h-3.349v9.309H39.764z"/>
	<path fill="#FFFFFF" d="M47.251,71.279v-8.696h2.773v1.062c0.576-0.702,1.692-1.296,2.719-1.296v2.665
		c-0.162-0.055-0.396-0.072-0.684-0.072c-0.72,0-1.675,0.306-2.035,0.792v5.546H47.251z"/>
	<path fill="#FFFFFF" d="M58.772,71.279v-0.864c-0.54,0.648-1.584,1.08-2.701,1.08c-1.333,0-2.989-0.918-2.989-2.862
		c0-2.107,1.656-2.81,2.989-2.81c1.152,0,2.179,0.379,2.701,1.026v-0.864c0-0.756-0.648-1.278-1.764-1.278
		c-0.864,0-1.729,0.343-2.431,0.937l-1.026-1.927c1.116-0.954,2.61-1.351,3.943-1.351c2.089,0,4.051,0.774,4.051,3.476v5.438H58.772
		z M58.772,69.047v-0.774c-0.288-0.414-0.936-0.612-1.548-0.612c-0.72,0-1.386,0.324-1.386,1.009c0,0.684,0.666,1.008,1.386,1.008
		C57.836,69.677,58.484,69.461,58.772,69.047z"/>
	<path fill="#FFFFFF" d="M62.641,66.922c0-2.719,2.017-4.556,4.735-4.556c1.891,0,3.043,0.829,3.565,1.603l-1.8,1.675
		c-0.342-0.504-0.9-0.828-1.639-0.828c-1.152,0-2.035,0.792-2.035,2.106s0.882,2.125,2.035,2.125c0.738,0,1.296-0.36,1.639-0.847
		l1.8,1.692c-0.522,0.757-1.674,1.603-3.565,1.603C64.657,71.495,62.641,69.641,62.641,66.922z"/>
	<path fill="#FFFFFF" d="M77.745,71.279v-5.06c0-1.062-0.558-1.404-1.44-1.404c-0.81,0-1.351,0.45-1.674,0.847v5.617h-2.773V59.27
		h2.773v4.375c0.522-0.611,1.548-1.278,3.007-1.278c1.98,0,2.881,1.117,2.881,2.72v6.193H77.745z"/>
	<path fill="#FFFFFF" d="M81.613,66.922c0-2.448,1.765-4.556,4.717-4.556c2.989,0,4.753,2.107,4.753,4.556
		c0,2.449-1.765,4.573-4.753,4.573C83.377,71.495,81.613,69.371,81.613,66.922z M88.239,66.922c0-1.152-0.684-2.106-1.909-2.106
		c-1.188,0-1.873,0.954-1.873,2.106c0,1.171,0.684,2.125,1.873,2.125C87.555,69.047,88.239,68.093,88.239,66.922z"/>
	<path fill="#FFFFFF" d="M103.144,71.279v-5.294c0-0.666-0.324-1.17-1.152-1.17c-0.756,0-1.296,0.486-1.566,0.847v5.617h-2.773
		v-5.294c0-0.666-0.306-1.17-1.134-1.17c-0.756,0-1.278,0.486-1.566,0.847v5.617h-2.773v-8.696h2.773v1.062
		c0.378-0.504,1.494-1.278,2.863-1.278c1.26,0,2.106,0.522,2.467,1.549c0.504-0.756,1.638-1.549,3.007-1.549
		c1.603,0,2.611,0.829,2.611,2.611v6.302H103.144z"/>
	<path fill="#FFFFFF" d="M112.7,71.279v-0.864c-0.54,0.648-1.584,1.08-2.701,1.08c-1.333,0-2.989-0.918-2.989-2.862
		c0-2.107,1.656-2.81,2.989-2.81c1.152,0,2.179,0.379,2.701,1.026v-0.864c0-0.756-0.648-1.278-1.764-1.278
		c-0.864,0-1.729,0.343-2.431,0.937l-1.026-1.927c1.116-0.954,2.61-1.351,3.943-1.351c2.089,0,4.051,0.774,4.051,3.476v5.438H112.7z
		 M112.7,69.047v-0.774c-0.288-0.414-0.936-0.612-1.548-0.612c-0.72,0-1.386,0.324-1.386,1.009c0,0.684,0.666,1.008,1.386,1.008
		C111.764,69.677,112.412,69.461,112.7,69.047z"/>
	<path fill="#FFFFFF" d="M117.703,68.938v-3.961h-1.44v-2.395h1.44v-2.377h2.773v2.377h1.765v2.395h-1.765v3.187
		c0,0.505,0.288,0.883,0.756,0.883c0.306,0,0.612-0.108,0.703-0.217l0.54,2.089c-0.342,0.324-1.026,0.576-2.053,0.576
		C118.657,71.495,117.703,70.613,117.703,68.938z"/>
	<path fill="#FFFFFF" d="M122.688,66.922c0-2.448,1.765-4.556,4.717-4.556c2.989,0,4.753,2.107,4.753,4.556
		c0,2.449-1.765,4.573-4.753,4.573C124.452,71.495,122.688,69.371,122.688,66.922z M129.313,66.922c0-1.152-0.684-2.106-1.909-2.106
		c-1.188,0-1.873,0.954-1.873,2.106c0,1.171,0.684,2.125,1.873,2.125C128.629,69.047,129.313,68.093,129.313,66.922z"/>
	<path fill="#FFFFFF" d="M139.123,71.279v-1.044c-0.54,0.612-1.53,1.26-3.007,1.26c-1.962,0-2.863-1.134-2.863-2.719v-6.193h2.773
		v5.041c0,1.062,0.54,1.423,1.44,1.423c0.792,0,1.332-0.433,1.656-0.847v-5.617h2.773v8.696H139.123z"/>
	<path fill="#FFFFFF" d="M142.811,70.145l1.152-1.98c0.648,0.576,2.035,1.171,3.061,1.171c0.828,0,1.17-0.234,1.17-0.612
		c0-1.08-5.06,0.036-5.06-3.493c0-1.53,1.333-2.863,3.727-2.863c1.477,0,2.701,0.469,3.637,1.152l-1.062,1.963
		c-0.522-0.504-1.512-0.954-2.557-0.954c-0.648,0-1.081,0.252-1.081,0.594c0,0.955,5.042-0.035,5.042,3.529
		c0,1.656-1.458,2.845-3.943,2.845C145.332,71.495,143.729,70.974,142.811,70.145z"/>
	<path fill="#FFFFFF" d="M37.081,92.88V80.87h3.097v12.01H37.081z"/>
	<path fill="#FFFFFF" d="M47.793,92.88v-5.023c0-1.062-0.558-1.44-1.422-1.44c-0.828,0-1.369,0.45-1.692,0.846v5.618h-2.773v-8.696
		h2.773v1.062c0.522-0.612,1.548-1.279,3.025-1.279c1.962,0,2.863,1.152,2.863,2.755v6.158H47.793z"/>
	<path fill="#FFFFFF" d="M52.813,92.88v-6.302h-1.44v-2.395h1.44v-0.198c0-2.161,1.386-3.295,3.115-3.295
		c0.756,0,1.404,0.107,1.854,0.342l-0.54,2.07c-0.162-0.126-0.432-0.18-0.738-0.18c-0.504,0-0.918,0.342-0.918,1.062v0.198h1.764
		v2.395h-1.764v6.302H52.813z M58.502,92.88V80.87h2.773v12.01H58.502z"/>
	<path fill="#FFFFFF" d="M68.06,92.88v-0.864c-0.54,0.648-1.584,1.08-2.701,1.08c-1.333,0-2.989-0.918-2.989-2.862
		c0-2.106,1.656-2.81,2.989-2.81c1.152,0,2.179,0.379,2.701,1.026v-0.864c0-0.756-0.648-1.278-1.764-1.278
		c-0.864,0-1.729,0.343-2.431,0.937l-1.026-1.927c1.116-0.954,2.61-1.351,3.943-1.351c2.089,0,4.051,0.774,4.051,3.476v5.438H68.06z
		 M68.06,90.647v-0.774c-0.288-0.414-0.936-0.612-1.548-0.612c-0.72,0-1.386,0.324-1.386,1.009c0,0.684,0.666,1.008,1.386,1.008
		C67.124,91.277,67.772,91.062,68.06,90.647z"/>
	<path fill="#FFFFFF" d="M83.452,92.88v-5.294c0-0.666-0.324-1.17-1.152-1.17c-0.756,0-1.296,0.486-1.566,0.846v5.618H77.96v-5.294
		c0-0.666-0.306-1.17-1.134-1.17c-0.756,0-1.278,0.486-1.566,0.846v5.618h-2.773v-8.696h2.773v1.062
		c0.378-0.505,1.494-1.279,2.863-1.279c1.26,0,2.106,0.522,2.467,1.549c0.504-0.756,1.638-1.549,3.007-1.549
		c1.603,0,2.611,0.829,2.611,2.611v6.302H83.452z"/>
	<path fill="#FFFFFF" d="M98.842,92.88v-5.294c0-0.666-0.324-1.17-1.152-1.17c-0.756,0-1.296,0.486-1.566,0.846v5.618h-2.773v-5.294
		c0-0.666-0.306-1.17-1.134-1.17c-0.756,0-1.278,0.486-1.566,0.846v5.618h-2.773v-8.696h2.773v1.062
		c0.378-0.505,1.494-1.279,2.863-1.279c1.26,0,2.106,0.522,2.467,1.549c0.504-0.756,1.638-1.549,3.007-1.549
		c1.603,0,2.611,0.829,2.611,2.611v6.302H98.842z"/>
	<path fill="#FFFFFF" d="M108.398,92.88v-0.864c-0.54,0.648-1.584,1.08-2.701,1.08c-1.333,0-2.989-0.918-2.989-2.862
		c0-2.106,1.656-2.81,2.989-2.81c1.152,0,2.179,0.379,2.701,1.026v-0.864c0-0.756-0.648-1.278-1.764-1.278
		c-0.864,0-1.729,0.343-2.431,0.937l-1.026-1.927c1.116-0.954,2.61-1.351,3.943-1.351c2.089,0,4.051,0.774,4.051,3.476v5.438
		H108.398z M108.398,90.647v-0.774c-0.288-0.414-0.936-0.612-1.548-0.612c-0.72,0-1.386,0.324-1.386,1.009
		c0,0.684,0.666,1.008,1.386,1.008C107.462,91.277,108.11,91.062,108.398,90.647z"/>
	<path fill="#FFFFFF" d="M113.401,90.539v-3.961h-1.44v-2.395h1.44v-2.377h2.773v2.377h1.765v2.395h-1.765v3.187
		c0,0.505,0.288,0.883,0.756,0.883c0.306,0,0.612-0.108,0.703-0.216l0.54,2.088c-0.342,0.324-1.026,0.576-2.053,0.576
		C114.355,93.096,113.401,92.214,113.401,90.539z"/>
	<path fill="#FFFFFF" d="M118.747,81.807c0-0.883,0.703-1.585,1.584-1.585c0.882,0,1.603,0.702,1.603,1.585
		c0,0.882-0.72,1.603-1.603,1.603C119.449,83.409,118.747,82.688,118.747,81.807z M118.945,92.88v-8.696h2.773v8.696H118.945z"/>
	<path fill="#FFFFFF" d="M122.814,88.522c0-2.448,1.765-4.556,4.717-4.556c2.989,0,4.753,2.107,4.753,4.556
		c0,2.449-1.765,4.573-4.753,4.573C124.579,93.096,122.814,90.972,122.814,88.522z M129.44,88.522c0-1.152-0.684-2.106-1.909-2.106
		c-1.188,0-1.873,0.954-1.873,2.106c0,1.171,0.684,2.125,1.873,2.125C128.756,90.647,129.44,89.693,129.44,88.522z"/>
	<path fill="#FFFFFF" d="M139.268,92.88v-5.023c0-1.062-0.558-1.44-1.422-1.44c-0.828,0-1.368,0.45-1.692,0.846v5.618h-2.773v-8.696
		h2.773v1.062c0.522-0.612,1.548-1.279,3.025-1.279c1.962,0,2.863,1.152,2.863,2.755v6.158H139.268z"/>
	<path fill="#009DE2" d="M37.081,114.479v-12.01h8.805v2.701h-5.708v1.872h5.582v2.701h-5.582v4.735H37.081z"/>
	<path fill="#009DE2" d="M46.567,110.122c0-2.448,1.765-4.556,4.717-4.556c2.989,0,4.753,2.107,4.753,4.556
		c0,2.449-1.765,4.573-4.753,4.573C48.332,114.695,46.567,112.571,46.567,110.122z M53.193,110.122c0-1.152-0.684-2.106-1.909-2.106
		c-1.188,0-1.873,0.954-1.873,2.106c0,1.171,0.684,2.125,1.873,2.125C52.509,112.247,53.193,111.293,53.193,110.122z"/>
	<path fill="#009DE2" d="M57.132,114.479v-12.01h2.773v12.01H57.132z"/>
	<path fill="#009DE2" d="M61.56,114.479v-12.01h2.773v12.01H61.56z"/>
	<path fill="#009DE2" d="M65.79,103.406c0-0.883,0.702-1.585,1.584-1.585s1.603,0.702,1.603,1.585c0,0.882-0.72,1.603-1.603,1.603
		S65.79,104.288,65.79,103.406z M65.988,114.479v-8.696h2.773v8.696H65.988z"/>
	<path fill="#009DE2" d="M69.858,110.122c0-2.719,2.017-4.556,4.735-4.556c1.891,0,3.043,0.829,3.565,1.603l-1.8,1.675
		c-0.342-0.504-0.9-0.828-1.639-0.828c-1.152,0-2.035,0.792-2.035,2.106s0.882,2.125,2.035,2.125c0.738,0,1.296-0.36,1.639-0.847
		l1.8,1.692c-0.522,0.757-1.674,1.603-3.565,1.603C71.875,114.695,69.858,112.841,69.858,110.122z"/>
	<path fill="#009DE2" d="M84.926,114.479v-1.044c-0.54,0.611-1.53,1.26-3.007,1.26c-1.962,0-2.863-1.134-2.863-2.719v-6.193h2.773
		v5.041c0,1.062,0.54,1.423,1.44,1.423c0.792,0,1.332-0.433,1.656-0.847v-5.617h2.773v8.696H84.926z"/>
	<path fill="#009DE2" d="M89.352,114.479v-12.01h2.773v12.01H89.352z"/>
	<path fill="#009DE2" d="M98.911,114.479v-0.864c-0.54,0.648-1.584,1.08-2.701,1.08c-1.333,0-2.989-0.918-2.989-2.862
		c0-2.106,1.656-2.81,2.989-2.81c1.152,0,2.179,0.379,2.701,1.026v-0.864c0-0.756-0.648-1.278-1.764-1.278
		c-0.864,0-1.729,0.343-2.431,0.937l-1.026-1.927c1.116-0.954,2.611-1.351,3.943-1.351c2.089,0,4.051,0.774,4.051,3.476v5.438
		H98.911z M98.911,112.247v-0.774c-0.288-0.414-0.936-0.612-1.548-0.612c-0.72,0-1.386,0.324-1.386,1.009
		c0,0.684,0.666,1.008,1.386,1.008C97.975,112.877,98.623,112.661,98.911,112.247z"/>
	<path fill="#009DE2" d="M103.337,114.479v-8.696h2.773v1.062c0.576-0.703,1.692-1.297,2.719-1.297v2.665
		c-0.162-0.055-0.396-0.072-0.684-0.072c-0.72,0-1.675,0.306-2.035,0.792v5.546H103.337z"/>
</g>
<g>
	<path fill="#FFFFFF" d="M246.36,49.68V29.003h-7.479v-5.999h21.796v5.999h-7.439V49.68H246.36z"/>
	<path fill="#FFFFFF" d="M263.161,49.68V23.004h6.879V49.68H263.161z"/>
	<path fill="#FFFFFF" d="M241.765,71.279v-9.309h-3.367V59.27h9.813v2.701h-3.349v9.309H241.765z"/>
	<path fill="#FFFFFF" d="M249.251,71.279v-8.696h2.773v1.062c0.576-0.702,1.692-1.296,2.719-1.296v2.665
		c-0.162-0.055-0.396-0.072-0.684-0.072c-0.72,0-1.675,0.306-2.035,0.792v5.546H249.251z"/>
	<path fill="#FFFFFF" d="M260.772,71.279v-0.864c-0.54,0.648-1.584,1.08-2.701,1.08c-1.333,0-2.989-0.918-2.989-2.862
		c0-2.107,1.656-2.81,2.989-2.81c1.152,0,2.179,0.379,2.701,1.026v-0.864c0-0.756-0.648-1.278-1.764-1.278
		c-0.864,0-1.729,0.343-2.431,0.937l-1.026-1.927c1.116-0.954,2.61-1.351,3.943-1.351c2.089,0,4.051,0.774,4.051,3.476v5.438
		H260.772z M260.772,69.047v-0.774c-0.288-0.414-0.936-0.612-1.548-0.612c-0.72,0-1.386,0.324-1.386,1.009
		c0,0.684,0.666,1.008,1.386,1.008C259.836,69.677,260.484,69.461,260.772,69.047z"/>
	<path fill="#FFFFFF" d="M264.641,66.922c0-2.719,2.017-4.556,4.735-4.556c1.891,0,3.043,0.829,3.565,1.603l-1.8,1.675
		c-0.342-0.504-0.9-0.828-1.639-0.828c-1.152,0-2.035,0.792-2.035,2.106s0.882,2.125,2.035,2.125c0.738,0,1.296-0.36,1.639-0.847
		l1.8,1.692c-0.522,0.757-1.674,1.603-3.565,1.603C266.658,71.495,264.641,69.641,264.641,66.922z"/>
	<path fill="#FFFFFF" d="M279.745,71.279v-5.06c0-1.062-0.558-1.404-1.44-1.404c-0.81,0-1.351,0.45-1.674,0.847v5.617h-2.773V59.27
		h2.773v4.375c0.522-0.611,1.548-1.278,3.007-1.278c1.98,0,2.881,1.117,2.881,2.72v6.193H279.745z"/>
	<path fill="#FFFFFF" d="M283.613,66.922c0-2.448,1.765-4.556,4.717-4.556c2.989,0,4.753,2.107,4.753,4.556
		c0,2.449-1.765,4.573-4.753,4.573C285.378,71.495,283.613,69.371,283.613,66.922z M290.239,66.922c0-1.152-0.684-2.106-1.909-2.106
		c-1.188,0-1.873,0.954-1.873,2.106c0,1.171,0.684,2.125,1.873,2.125C289.555,69.047,290.239,68.093,290.239,66.922z"/>
	<path fill="#FFFFFF" d="M305.144,71.279v-5.294c0-0.666-0.324-1.17-1.152-1.17c-0.756,0-1.296,0.486-1.566,0.847v5.617h-2.773
		v-5.294c0-0.666-0.306-1.17-1.134-1.17c-0.756,0-1.278,0.486-1.566,0.847v5.617h-2.773v-8.696h2.773v1.062
		c0.378-0.504,1.494-1.278,2.863-1.278c1.26,0,2.106,0.522,2.467,1.549c0.504-0.756,1.638-1.549,3.007-1.549
		c1.603,0,2.611,0.829,2.611,2.611v6.302H305.144z"/>
	<path fill="#FFFFFF" d="M314.7,71.279v-0.864c-0.54,0.648-1.584,1.08-2.701,1.08c-1.333,0-2.989-0.918-2.989-2.862
		c0-2.107,1.656-2.81,2.989-2.81c1.152,0,2.179,0.379,2.701,1.026v-0.864c0-0.756-0.648-1.278-1.764-1.278
		c-0.864,0-1.729,0.343-2.431,0.937l-1.026-1.927c1.116-0.954,2.61-1.351,3.943-1.351c2.089,0,4.051,0.774,4.051,3.476v5.438H314.7z
		 M314.7,69.047v-0.774c-0.288-0.414-0.936-0.612-1.548-0.612c-0.72,0-1.386,0.324-1.386,1.009c0,0.684,0.666,1.008,1.386,1.008
		C313.764,69.677,314.412,69.461,314.7,69.047z"/>
	<path fill="#FFFFFF" d="M319.703,68.938v-3.961h-1.44v-2.395h1.44v-2.377h2.773v2.377h1.765v2.395h-1.765v3.187
		c0,0.505,0.288,0.883,0.756,0.883c0.306,0,0.612-0.108,0.703-0.217l0.54,2.089c-0.342,0.324-1.026,0.576-2.053,0.576
		C320.657,71.495,319.703,70.613,319.703,68.938z"/>
	<path fill="#FFFFFF" d="M324.688,66.922c0-2.448,1.765-4.556,4.717-4.556c2.989,0,4.753,2.107,4.753,4.556
		c0,2.449-1.765,4.573-4.753,4.573C326.453,71.495,324.688,69.371,324.688,66.922z M331.314,66.922c0-1.152-0.684-2.106-1.909-2.106
		c-1.188,0-1.873,0.954-1.873,2.106c0,1.171,0.684,2.125,1.873,2.125C330.63,69.047,331.314,68.093,331.314,66.922z"/>
	<path fill="#FFFFFF" d="M341.124,71.279v-1.044c-0.54,0.612-1.53,1.26-3.007,1.26c-1.962,0-2.863-1.134-2.863-2.719v-6.193h2.773
		v5.041c0,1.062,0.54,1.423,1.44,1.423c0.792,0,1.332-0.433,1.656-0.847v-5.617h2.773v8.696H341.124z"/>
	<path fill="#FFFFFF" d="M344.812,70.145l1.152-1.98c0.648,0.576,2.035,1.171,3.061,1.171c0.828,0,1.17-0.234,1.17-0.612
		c0-1.08-5.06,0.036-5.06-3.493c0-1.53,1.333-2.863,3.727-2.863c1.477,0,2.701,0.469,3.637,1.152l-1.062,1.963
		c-0.522-0.504-1.512-0.954-2.557-0.954c-0.648,0-1.081,0.252-1.081,0.594c0,0.955,5.042-0.035,5.042,3.529
		c0,1.656-1.458,2.845-3.943,2.845C347.333,71.495,345.73,70.974,344.812,70.145z"/>
	<path fill="#FFFFFF" d="M239.082,92.88V80.87h3.097v12.01H239.082z"/>
	<path fill="#FFFFFF" d="M249.793,92.88v-5.023c0-1.062-0.558-1.44-1.422-1.44c-0.828,0-1.369,0.45-1.692,0.846v5.618h-2.773v-8.696
		h2.773v1.062c0.522-0.612,1.548-1.279,3.025-1.279c1.962,0,2.863,1.152,2.863,2.755v6.158H249.793z"/>
	<path fill="#FFFFFF" d="M254.813,92.88v-6.302h-1.44v-2.395h1.44v-0.198c0-2.161,1.386-3.295,3.115-3.295
		c0.756,0,1.404,0.107,1.854,0.342l-0.54,2.07c-0.162-0.126-0.432-0.18-0.738-0.18c-0.504,0-0.918,0.342-0.918,1.062v0.198h1.764
		v2.395h-1.764v6.302H254.813z M260.503,92.88V80.87h2.773v12.01H260.503z"/>
	<path fill="#FFFFFF" d="M270.061,92.88v-0.864c-0.54,0.648-1.584,1.08-2.701,1.08c-1.333,0-2.989-0.918-2.989-2.862
		c0-2.106,1.656-2.81,2.989-2.81c1.152,0,2.179,0.379,2.701,1.026v-0.864c0-0.756-0.648-1.278-1.764-1.278
		c-0.864,0-1.729,0.343-2.431,0.937l-1.026-1.927c1.116-0.954,2.61-1.351,3.943-1.351c2.089,0,4.051,0.774,4.051,3.476v5.438
		H270.061z M270.061,90.647v-0.774c-0.288-0.414-0.936-0.612-1.548-0.612c-0.72,0-1.386,0.324-1.386,1.009
		c0,0.684,0.666,1.008,1.386,1.008C269.125,91.277,269.772,91.062,270.061,90.647z"/>
	<path fill="#FFFFFF" d="M285.453,92.88v-5.294c0-0.666-0.324-1.17-1.152-1.17c-0.756,0-1.296,0.486-1.566,0.846v5.618h-2.773
		v-5.294c0-0.666-0.306-1.17-1.134-1.17c-0.756,0-1.278,0.486-1.566,0.846v5.618h-2.773v-8.696h2.773v1.062
		c0.378-0.505,1.494-1.279,2.863-1.279c1.26,0,2.106,0.522,2.467,1.549c0.504-0.756,1.638-1.549,3.007-1.549
		c1.603,0,2.611,0.829,2.611,2.611v6.302H285.453z"/>
	<path fill="#FFFFFF" d="M300.843,92.88v-5.294c0-0.666-0.324-1.17-1.152-1.17c-0.756,0-1.296,0.486-1.566,0.846v5.618h-2.773
		v-5.294c0-0.666-0.306-1.17-1.134-1.17c-0.756,0-1.278,0.486-1.566,0.846v5.618h-2.773v-8.696h2.773v1.062
		c0.378-0.505,1.494-1.279,2.863-1.279c1.26,0,2.106,0.522,2.467,1.549c0.504-0.756,1.638-1.549,3.007-1.549
		c1.603,0,2.611,0.829,2.611,2.611v6.302H300.843z"/>
	<path fill="#FFFFFF" d="M310.398,92.88v-0.864c-0.54,0.648-1.584,1.08-2.701,1.08c-1.333,0-2.989-0.918-2.989-2.862
		c0-2.106,1.656-2.81,2.989-2.81c1.152,0,2.179,0.379,2.701,1.026v-0.864c0-0.756-0.648-1.278-1.764-1.278
		c-0.864,0-1.729,0.343-2.431,0.937l-1.026-1.927c1.116-0.954,2.61-1.351,3.943-1.351c2.089,0,4.051,0.774,4.051,3.476v5.438
		H310.398z M310.398,90.647v-0.774c-0.288-0.414-0.936-0.612-1.548-0.612c-0.72,0-1.386,0.324-1.386,1.009
		c0,0.684,0.666,1.008,1.386,1.008C309.462,91.277,310.11,91.062,310.398,90.647z"/>
	<path fill="#FFFFFF" d="M315.401,90.539v-3.961h-1.44v-2.395h1.44v-2.377h2.773v2.377h1.765v2.395h-1.765v3.187
		c0,0.505,0.288,0.883,0.756,0.883c0.306,0,0.612-0.108,0.703-0.216l0.54,2.088c-0.342,0.324-1.026,0.576-2.053,0.576
		C316.355,93.096,315.401,92.214,315.401,90.539z"/>
	<path fill="#FFFFFF" d="M320.747,81.807c0-0.883,0.703-1.585,1.584-1.585c0.882,0,1.603,0.702,1.603,1.585
		c0,0.882-0.72,1.603-1.603,1.603C321.45,83.409,320.747,82.688,320.747,81.807z M320.945,92.88v-8.696h2.773v8.696H320.945z"/>
	<path fill="#FFFFFF" d="M324.815,88.522c0-2.448,1.765-4.556,4.717-4.556c2.989,0,4.753,2.107,4.753,4.556
		c0,2.449-1.765,4.573-4.753,4.573C326.58,93.096,324.815,90.972,324.815,88.522z M331.441,88.522c0-1.152-0.684-2.106-1.909-2.106
		c-1.188,0-1.873,0.954-1.873,2.106c0,1.171,0.684,2.125,1.873,2.125C330.757,90.647,331.441,89.693,331.441,88.522z"/>
	<path fill="#FFFFFF" d="M341.269,92.88v-5.023c0-1.062-0.558-1.44-1.422-1.44c-0.828,0-1.368,0.45-1.692,0.846v5.618h-2.773v-8.696
		h2.773v1.062c0.522-0.612,1.548-1.279,3.025-1.279c1.962,0,2.863,1.152,2.863,2.755v6.158H341.269z"/>
	<path fill="#009DE2" d="M239.082,114.479v-12.01h3.097v12.01H239.082z"/>
	<path fill="#009DE2" d="M249.793,114.479v-5.023c0-1.062-0.558-1.44-1.422-1.44c-0.828,0-1.369,0.45-1.692,0.846v5.618h-2.773
		v-8.696h2.773v1.062c0.522-0.612,1.548-1.279,3.025-1.279c1.962,0,2.863,1.152,2.863,2.755v6.158H249.793z"/>
	<path fill="#009DE2" d="M254.795,112.139v-3.961h-1.44v-2.395h1.44v-2.377h2.773v2.377h1.764v2.395h-1.764v3.187
		c0,0.505,0.288,0.883,0.756,0.883c0.306,0,0.612-0.108,0.702-0.216l0.54,2.088c-0.342,0.324-1.026,0.576-2.053,0.576
		C255.75,114.695,254.795,113.813,254.795,112.139z"/>
	<path fill="#009DE2" d="M259.781,110.122c0-2.521,1.891-4.556,4.609-4.556c2.575,0,4.447,1.891,4.447,4.844v0.63h-6.194
		c0.198,0.774,0.918,1.423,2.179,1.423c0.612,0,1.621-0.271,2.125-0.738l1.207,1.818c-0.864,0.774-2.305,1.152-3.637,1.152
		C261.833,114.695,259.781,112.949,259.781,110.122z M264.39,107.8c-1.207,0-1.675,0.72-1.783,1.351h3.583
		C266.119,108.538,265.668,107.8,264.39,107.8z"/>
	<path fill="#009DE2" d="M275.73,114.479v-5.023c0-1.062-0.558-1.44-1.422-1.44c-0.828,0-1.368,0.45-1.692,0.846v5.618h-2.773
		v-8.696h2.773v1.062c0.522-0.612,1.548-1.279,3.025-1.279c1.962,0,2.863,1.152,2.863,2.755v6.158H275.73z"/>
	<path fill="#009DE2" d="M279.418,113.345l1.152-1.98c0.648,0.576,2.035,1.171,3.061,1.171c0.828,0,1.17-0.234,1.17-0.612
		c0-1.08-5.06,0.036-5.06-3.493c0-1.53,1.333-2.863,3.727-2.863c1.477,0,2.701,0.469,3.637,1.152l-1.062,1.963
		c-0.522-0.504-1.512-0.954-2.557-0.954c-0.648,0-1.081,0.252-1.081,0.594c0,0.955,5.042-0.036,5.042,3.529
		c0,1.656-1.458,2.845-3.943,2.845C281.939,114.695,280.337,114.174,279.418,113.345z"/>
	<path fill="#009DE2" d="M287.95,110.122c0-2.521,1.891-4.556,4.609-4.556c2.575,0,4.447,1.891,4.447,4.844v0.63h-6.194
		c0.198,0.774,0.918,1.423,2.179,1.423c0.612,0,1.621-0.271,2.125-0.738l1.207,1.818c-0.864,0.774-2.305,1.152-3.637,1.152
		C290.003,114.695,287.95,112.949,287.95,110.122z M292.56,107.8c-1.207,0-1.674,0.72-1.783,1.351h3.583
		C294.288,108.538,293.838,107.8,292.56,107.8z"/>
</g>
<g>
	<path fill="#FFFFFF" d="M438.36,49.68V29.003h-7.479v-5.999h21.796v5.999h-7.439V49.68H438.36z"/>
	<path fill="#FFFFFF" d="M453.241,45.92l3.639-5.358c1.92,1.919,4.879,3.52,8.559,3.52c2.32,0,3.759-0.8,3.759-2.12
		c0-3.52-15.077-0.6-15.077-10.878c0-4.479,3.759-8.479,10.598-8.479c4.279,0,7.999,1.28,10.838,3.72l-3.76,5.159
		c-2.239-1.879-5.159-2.799-7.798-2.799c-2,0-2.88,0.68-2.88,1.84c0,3.28,15.078,0.8,15.078,10.718
		c0,5.359-3.959,8.918-11.118,8.918C459.68,50.159,455.921,48.439,453.241,45.92z"/>
	<path fill="#FFFFFF" d="M433.765,71.279v-9.309h-3.367V59.27h9.813v2.701h-3.349v9.309H433.765z"/>
	<path fill="#FFFFFF" d="M441.251,71.279v-8.696h2.773v1.062c0.576-0.702,1.692-1.296,2.719-1.296v2.665
		c-0.162-0.055-0.396-0.072-0.684-0.072c-0.72,0-1.675,0.306-2.035,0.792v5.546H441.251z"/>
	<path fill="#FFFFFF" d="M452.772,71.279v-0.864c-0.54,0.648-1.584,1.08-2.701,1.08c-1.333,0-2.989-0.918-2.989-2.862
		c0-2.107,1.656-2.81,2.989-2.81c1.152,0,2.179,0.379,2.701,1.026v-0.864c0-0.756-0.648-1.278-1.764-1.278
		c-0.864,0-1.729,0.343-2.431,0.937l-1.026-1.927c1.116-0.954,2.61-1.351,3.943-1.351c2.089,0,4.051,0.774,4.051,3.476v5.438
		H452.772z M452.772,69.047v-0.774c-0.288-0.414-0.936-0.612-1.548-0.612c-0.72,0-1.386,0.324-1.386,1.009
		c0,0.684,0.666,1.008,1.386,1.008C451.836,69.677,452.484,69.461,452.772,69.047z"/>
	<path fill="#FFFFFF" d="M456.641,66.922c0-2.719,2.017-4.556,4.735-4.556c1.891,0,3.043,0.829,3.565,1.603l-1.8,1.675
		c-0.342-0.504-0.9-0.828-1.639-0.828c-1.152,0-2.035,0.792-2.035,2.106s0.882,2.125,2.035,2.125c0.738,0,1.296-0.36,1.639-0.847
		l1.8,1.692c-0.522,0.757-1.674,1.603-3.565,1.603C458.658,71.495,456.641,69.641,456.641,66.922z"/>
	<path fill="#FFFFFF" d="M471.745,71.279v-5.06c0-1.062-0.558-1.404-1.44-1.404c-0.81,0-1.351,0.45-1.674,0.847v5.617h-2.773V59.27
		h2.773v4.375c0.522-0.611,1.548-1.278,3.007-1.278c1.98,0,2.881,1.117,2.881,2.72v6.193H471.745z"/>
	<path fill="#FFFFFF" d="M475.613,66.922c0-2.448,1.765-4.556,4.717-4.556c2.989,0,4.753,2.107,4.753,4.556
		c0,2.449-1.765,4.573-4.753,4.573C477.378,71.495,475.613,69.371,475.613,66.922z M482.239,66.922c0-1.152-0.685-2.106-1.909-2.106
		c-1.188,0-1.873,0.954-1.873,2.106c0,1.171,0.684,2.125,1.873,2.125C481.555,69.047,482.239,68.093,482.239,66.922z"/>
	<path fill="#FFFFFF" d="M497.145,71.279v-5.294c0-0.666-0.324-1.17-1.152-1.17c-0.757,0-1.297,0.486-1.566,0.847v5.617h-2.773
		v-5.294c0-0.666-0.307-1.17-1.135-1.17c-0.756,0-1.277,0.486-1.566,0.847v5.617h-2.772v-8.696h2.772v1.062
		c0.379-0.504,1.494-1.278,2.863-1.278c1.26,0,2.106,0.522,2.467,1.549c0.504-0.756,1.639-1.549,3.007-1.549
		c1.603,0,2.61,0.829,2.61,2.611v6.302H497.145z"/>
	<path fill="#FFFFFF" d="M506.7,71.279v-0.864c-0.54,0.648-1.585,1.08-2.7,1.08c-1.333,0-2.989-0.918-2.989-2.862
		c0-2.107,1.656-2.81,2.989-2.81c1.152,0,2.178,0.379,2.7,1.026v-0.864c0-0.756-0.647-1.278-1.765-1.278
		c-0.863,0-1.729,0.343-2.43,0.937l-1.027-1.927c1.117-0.954,2.611-1.351,3.943-1.351c2.089,0,4.051,0.774,4.051,3.476v5.438H506.7z
		 M506.7,69.047v-0.774c-0.288-0.414-0.937-0.612-1.548-0.612c-0.721,0-1.387,0.324-1.387,1.009c0,0.684,0.666,1.008,1.387,1.008
		C505.764,69.677,506.412,69.461,506.7,69.047z"/>
	<path fill="#FFFFFF" d="M511.703,68.938v-3.961h-1.44v-2.395h1.44v-2.377h2.773v2.377h1.764v2.395h-1.764v3.187
		c0,0.505,0.287,0.883,0.756,0.883c0.306,0,0.611-0.108,0.702-0.217l0.54,2.089c-0.342,0.324-1.026,0.576-2.053,0.576
		C512.657,71.495,511.703,70.613,511.703,68.938z"/>
	<path fill="#FFFFFF" d="M516.688,66.922c0-2.448,1.766-4.556,4.718-4.556c2.989,0,4.753,2.107,4.753,4.556
		c0,2.449-1.764,4.573-4.753,4.573C518.453,71.495,516.688,69.371,516.688,66.922z M523.314,66.922c0-1.152-0.685-2.106-1.909-2.106
		c-1.188,0-1.872,0.954-1.872,2.106c0,1.171,0.684,2.125,1.872,2.125C522.63,69.047,523.314,68.093,523.314,66.922z"/>
	<path fill="#FFFFFF" d="M533.123,71.279v-1.044c-0.539,0.612-1.529,1.26-3.006,1.26c-1.963,0-2.863-1.134-2.863-2.719v-6.193h2.773
		v5.041c0,1.062,0.539,1.423,1.439,1.423c0.793,0,1.332-0.433,1.656-0.847v-5.617h2.773v8.696H533.123z"/>
	<path fill="#FFFFFF" d="M536.812,70.145l1.152-1.98c0.648,0.576,2.034,1.171,3.062,1.171c0.828,0,1.17-0.234,1.17-0.612
		c0-1.08-5.06,0.036-5.06-3.493c0-1.53,1.333-2.863,3.728-2.863c1.477,0,2.7,0.469,3.637,1.152l-1.062,1.963
		c-0.521-0.504-1.512-0.954-2.557-0.954c-0.648,0-1.08,0.252-1.08,0.594c0,0.955,5.041-0.035,5.041,3.529
		c0,1.656-1.459,2.845-3.943,2.845C539.332,71.495,537.73,70.974,536.812,70.145z"/>
	<path fill="#FFFFFF" d="M430.47,86.884c0-3.709,2.809-6.212,6.5-6.212c2.899,0,4.465,1.639,5.239,3.205l-2.665,1.278
		c-0.396-0.954-1.422-1.746-2.575-1.746c-1.963,0-3.349,1.494-3.349,3.475c0,1.963,1.386,3.476,3.349,3.476
		c1.152,0,2.178-0.793,2.575-1.747l2.665,1.261c-0.774,1.53-2.34,3.223-5.239,3.223C433.278,93.096,430.47,90.575,430.47,86.884z"/>
	<path fill="#FFFFFF" d="M442.547,88.522c0-2.448,1.765-4.556,4.717-4.556c2.989,0,4.753,2.107,4.753,4.556
		c0,2.449-1.765,4.573-4.753,4.573C444.312,93.096,442.547,90.972,442.547,88.522z M449.173,88.522c0-1.152-0.684-2.106-1.909-2.106
		c-1.188,0-1.873,0.954-1.873,2.106c0,1.171,0.684,2.125,1.873,2.125C448.489,90.647,449.173,89.693,449.173,88.522z"/>
	<path fill="#FFFFFF" d="M459,92.88v-5.023c0-1.062-0.558-1.44-1.422-1.44c-0.828,0-1.369,0.45-1.692,0.846v5.618h-2.773v-8.696
		h2.773v1.062c0.522-0.612,1.548-1.279,3.025-1.279c1.962,0,2.863,1.152,2.863,2.755v6.158H459z"/>
	<path fill="#FFFFFF" d="M460.546,95.797l0.702-2.017c0.342,0.288,0.594,0.396,1.116,0.396c0.648,0,1.062-0.432,1.062-1.368v-8.624
		h2.773v8.624c0,2.106-1.044,3.602-3.367,3.602C461.644,96.409,461.212,96.229,460.546,95.797z M463.229,81.807
		c0-0.883,0.703-1.585,1.584-1.585c0.882,0,1.603,0.702,1.603,1.585c0,0.882-0.72,1.603-1.603,1.603
		C463.931,83.409,463.229,82.688,463.229,81.807z"/>
	<path fill="#FFFFFF" d="M473.725,92.88v-1.044c-0.54,0.611-1.53,1.26-3.007,1.26c-1.962,0-2.863-1.134-2.863-2.719v-6.193h2.773
		v5.041c0,1.062,0.54,1.423,1.44,1.423c0.792,0,1.333-0.433,1.656-0.847v-5.617h2.773v8.696H473.725z"/>
	<path fill="#FFFFFF" d="M484.039,92.88v-5.023c0-1.062-0.559-1.44-1.423-1.44c-0.828,0-1.368,0.45-1.692,0.846v5.618h-2.773v-8.696
		h2.773v1.062c0.521-0.612,1.549-1.279,3.025-1.279c1.962,0,2.862,1.152,2.862,2.755v6.158H484.039z"/>
	<path fill="#FFFFFF" d="M487.906,88.522c0-2.719,2.017-4.556,4.735-4.556c1.891,0,3.043,0.829,3.565,1.603l-1.801,1.675
		c-0.342-0.504-0.9-0.828-1.639-0.828c-1.152,0-2.035,0.792-2.035,2.106s0.883,2.125,2.035,2.125c0.738,0,1.297-0.36,1.639-0.847
		l1.801,1.692c-0.522,0.757-1.675,1.603-3.565,1.603C489.923,93.096,487.906,91.241,487.906,88.522z"/>
	<path fill="#FFFFFF" d="M497.681,90.539v-3.961h-1.44v-2.395h1.44v-2.377h2.772v2.377h1.766v2.395h-1.766v3.187
		c0,0.505,0.289,0.883,0.756,0.883c0.307,0,0.613-0.108,0.703-0.216l0.54,2.088c-0.343,0.324-1.026,0.576-2.053,0.576
		C498.635,93.096,497.681,92.214,497.681,90.539z"/>
	<path fill="#FFFFFF" d="M503.026,81.807c0-0.883,0.702-1.585,1.585-1.585c0.882,0,1.602,0.702,1.602,1.585
		c0,0.882-0.72,1.603-1.602,1.603C503.729,83.409,503.026,82.688,503.026,81.807z M503.225,92.88v-8.696h2.773v8.696H503.225z"/>
	<path fill="#FFFFFF" d="M509.885,92.88l-3.421-8.696h2.917l1.98,5.51l1.963-5.51h2.935l-3.421,8.696H509.885z"/>
	<path fill="#FFFFFF" d="M521.855,92.88v-0.864c-0.54,0.648-1.584,1.08-2.701,1.08c-1.332,0-2.988-0.918-2.988-2.862
		c0-2.106,1.656-2.81,2.988-2.81c1.152,0,2.18,0.379,2.701,1.026v-0.864c0-0.756-0.648-1.278-1.764-1.278
		c-0.865,0-1.729,0.343-2.432,0.937l-1.025-1.927c1.115-0.954,2.609-1.351,3.942-1.351c2.089,0,4.052,0.774,4.052,3.476v5.438
		H521.855z M521.855,90.647v-0.774c-0.288-0.414-0.936-0.612-1.549-0.612c-0.72,0-1.386,0.324-1.386,1.009
		c0,0.684,0.666,1.008,1.386,1.008C520.92,91.277,521.567,91.062,521.855,90.647z"/>
	<path fill="#FFFFFF" d="M526.282,92.88V80.87h2.772v12.01H526.282z"/>
	<path fill="#009DE2" d="M430.217,112.787l1.639-2.413c0.864,0.864,2.197,1.585,3.853,1.585c1.044,0,1.693-0.36,1.693-0.954
		c0-1.585-6.788-0.271-6.788-4.897c0-2.017,1.692-3.817,4.771-3.817c1.926,0,3.601,0.576,4.879,1.675l-1.693,2.322
		c-1.008-0.847-2.322-1.261-3.511-1.261c-0.9,0-1.296,0.307-1.296,0.828c0,1.477,6.788,0.36,6.788,4.826
		c0,2.412-1.783,4.015-5.005,4.015C433.116,114.695,431.424,113.921,430.217,112.787z"/>
	<path fill="#009DE2" d="M441,110.122c0-2.719,2.017-4.556,4.735-4.556c1.891,0,3.043,0.829,3.565,1.603l-1.8,1.675
		c-0.342-0.504-0.9-0.828-1.639-0.828c-1.152,0-2.035,0.792-2.035,2.106s0.882,2.125,2.035,2.125c0.738,0,1.296-0.36,1.639-0.847
		l1.8,1.692c-0.522,0.757-1.674,1.603-3.565,1.603C443.016,114.695,441,112.841,441,110.122z"/>
	<path fill="#009DE2" d="M455.329,114.479v-0.864c-0.54,0.648-1.584,1.08-2.701,1.08c-1.333,0-2.989-0.918-2.989-2.862
		c0-2.106,1.656-2.81,2.989-2.81c1.152,0,2.179,0.379,2.701,1.026v-0.864c0-0.756-0.648-1.278-1.764-1.278
		c-0.864,0-1.729,0.343-2.431,0.937l-1.026-1.927c1.116-0.954,2.611-1.351,3.943-1.351c2.089,0,4.051,0.774,4.051,3.476v5.438
		H455.329z M455.329,112.247v-0.774c-0.288-0.414-0.936-0.612-1.548-0.612c-0.72,0-1.386,0.324-1.386,1.009
		c0,0.684,0.666,1.008,1.386,1.008C454.393,112.877,455.041,112.661,455.329,112.247z"/>
	<path fill="#009DE2" d="M459.755,114.479v-8.696h2.773v1.062c0.576-0.703,1.692-1.297,2.719-1.297v2.665
		c-0.162-0.055-0.396-0.072-0.684-0.072c-0.72,0-1.675,0.306-2.035,0.792v5.546H459.755z"/>
	<path fill="#009DE2" d="M466.146,114.479v-8.696h2.773v1.062c0.576-0.703,1.692-1.297,2.719-1.297v2.665
		c-0.162-0.055-0.396-0.072-0.684-0.072c-0.72,0-1.675,0.306-2.035,0.792v5.546H466.146z"/>
	<path fill="#009DE2" d="M472.337,103.406c0-0.883,0.702-1.585,1.584-1.585s1.603,0.702,1.603,1.585c0,0.882-0.72,1.603-1.603,1.603
		S472.337,104.288,472.337,103.406z M472.536,114.479v-8.696h2.773v8.696H472.536z"/>
	<path fill="#009DE2" d="M482.851,114.479v-5.023c0-1.062-0.558-1.44-1.423-1.44c-0.828,0-1.368,0.45-1.692,0.846v5.618h-2.773
		v-8.696h2.773v1.062c0.522-0.612,1.548-1.279,3.025-1.279c1.962,0,2.862,1.152,2.862,2.755v6.158H482.851z"/>
	<path fill="#009DE2" d="M487.043,116.712l1.206-1.944c0.685,0.721,1.639,1.008,2.647,1.008c0.918,0,2.215-0.396,2.215-2.052v-0.667
		c-0.721,0.864-1.586,1.279-2.576,1.279c-2.124,0-3.816-1.459-3.816-4.394c0-2.863,1.639-4.376,3.816-4.376
		c0.973,0,1.873,0.379,2.576,1.243v-1.026h2.771v7.94c0,3.528-2.826,4.285-4.986,4.285
		C489.401,118.009,488.159,117.631,487.043,116.712z M493.111,111.112v-2.322c-0.343-0.469-1.081-0.774-1.657-0.774
		c-1.099,0-1.909,0.666-1.909,1.927c0,1.278,0.811,1.944,1.909,1.944C492.03,111.887,492.769,111.581,493.111,111.112z"/>
</g>
<g>
	<g>
		<path fill="#363636" d="M887.659,203.996l0.6-0.768c0.517,0.6,1.38,1.151,2.507,1.151c1.428,0,1.883-0.768,1.883-1.392
			c0-2.062-4.737-0.911-4.737-3.766c0-1.319,1.176-2.231,2.759-2.231c1.211,0,2.159,0.42,2.83,1.128l-0.6,0.731
			c-0.6-0.672-1.438-0.96-2.314-0.96c-0.947,0-1.643,0.517-1.643,1.271c0,1.799,4.737,0.768,4.737,3.754
			c0,1.151-0.792,2.351-2.951,2.351C889.351,205.267,888.319,204.739,887.659,203.996z"/>
		<path fill="#363636" d="M894.799,202.221c0-1.679,1.104-3.034,2.867-3.034c1.763,0,2.866,1.355,2.866,3.034
			s-1.104,3.046-2.866,3.046C895.902,205.267,894.799,203.899,894.799,202.221z M899.585,202.221c0-1.176-0.684-2.23-1.919-2.23
			s-1.919,1.055-1.919,2.23c0,1.188,0.684,2.243,1.919,2.243S899.585,203.408,899.585,202.221z"/>
		<path fill="#363636" d="M905.909,205.123v-0.815c-0.444,0.504-1.2,0.959-2.063,0.959c-1.211,0-1.847-0.6-1.847-1.847v-4.09h0.899
			v3.814c0,1.019,0.516,1.319,1.308,1.319c0.695,0,1.367-0.408,1.703-0.876v-4.258h0.899v5.793H905.909z"/>
		<path fill="#363636" d="M908.61,205.123v-5.793h0.899v0.924c0.468-0.6,1.14-1.056,1.932-1.056v0.924
			c-0.108-0.013-0.216-0.024-0.348-0.024c-0.564,0-1.319,0.456-1.584,0.924v4.102H908.61z"/>
		<path fill="#363636" d="M912.234,202.221c0-1.715,1.164-3.034,2.891-3.034c1.056,0,1.68,0.432,2.123,1.007l-0.6,0.54
			c-0.384-0.527-0.876-0.743-1.476-0.743c-1.223,0-2.003,0.947-2.003,2.23s0.78,2.243,2.003,2.243c0.6,0,1.092-0.24,1.476-0.756
			l0.6,0.552c-0.443,0.575-1.067,1.007-2.123,1.007C913.398,205.267,912.234,203.936,912.234,202.221z"/>
		<path fill="#363636" d="M918.187,202.221c0-1.679,1.199-3.034,2.854-3.034c1.751,0,2.782,1.367,2.782,3.106v0.228h-4.678
			c0.072,1.092,0.828,2.003,2.075,2.003c0.672,0,1.331-0.264,1.799-0.743l0.432,0.587c-0.587,0.576-1.367,0.899-2.303,0.899
			C919.422,205.267,918.187,204.031,918.187,202.221z M921.029,199.93c-1.235,0-1.848,1.044-1.896,1.919h3.802
			C922.924,200.997,922.349,199.93,921.029,199.93z"/>
		<path fill="#363636" d="M925.099,199.906c0-0.36,0.3-0.66,0.659-0.66c0.36,0,0.66,0.3,0.66,0.66c0,0.348-0.3,0.659-0.66,0.659
			C925.398,200.565,925.099,200.254,925.099,199.906z M925.099,204.583c0-0.359,0.3-0.659,0.659-0.659c0.36,0,0.66,0.3,0.66,0.659
			c0,0.36-0.3,0.66-0.66,0.66C925.398,205.243,925.099,204.943,925.099,204.583z"/>
		<path fill="#363636" d="M937.238,205.123l-1.763-6.452l-1.764,6.452h-1.079l-2.278-8h1.104l1.774,6.669l1.835-6.669h0.828
			l1.835,6.669l1.763-6.669h1.115l-2.291,8H937.238z"/>
		<path fill="#363636" d="M947.391,205.123v-3.67h-4.677v3.67h-0.996v-8h0.996v3.442h4.677v-3.442h0.996v8H947.391z"/>
		<path fill="#363636" d="M949.938,201.129c0-2.362,1.606-4.138,3.97-4.138c2.362,0,3.981,1.775,3.981,4.138
			c0,2.363-1.619,4.138-3.981,4.138C951.545,205.267,949.938,203.492,949.938,201.129z M956.858,201.129
			c0-1.871-1.163-3.25-2.95-3.25c-1.8,0-2.938,1.379-2.938,3.25c0,1.859,1.139,3.251,2.938,3.251
			C955.695,204.38,956.858,202.988,956.858,201.129z"/>
	</g>
</g>
<g>
	<g>
		<path fill="#FFED00" d="M168.795,58.75c-14.467-17.973-32.368-32.324-53.684-41.33C94.652,8.777,69.989,4.109,47.798,6.103
			C31.354,7.58,17.078,16.553,10.86,32.116c-6.249,15.639-3.246,34.019,2.917,49.156c6.393,15.701,17.383,28.031,30.555,38.434
			c14.544,11.486,32.146,20.443,50.933,21.275c23.815,1.055,40.509-15.481,52.076-34.542c11.076-18.253,14.012-38.876,4.97-58.501
			c-6.895-14.963-18.745-26.664-27.744-40.265c-0.802-1.212-5.629-1.771-4.466-0.013c9.468,14.311,21.9,26.522,28.687,42.529
			c9.486,22.374,1.381,44.907-12.08,63.698c-7.201,10.052-16.25,18.455-28.117,22.488c-10.302,3.501-21.612,2.279-31.748-1.137
			c-17.615-5.938-33.71-18.31-45.735-32.325c-20.172-23.511-30.76-72.91,3.125-89.89c9.644-4.833,20.536-5.063,31.064-4.412
			c12.919,0.8,25.743,3.061,38.093,6.938c23.935,7.512,44.176,22.735,59.974,41.99c0.322,0.399,0.643,0.799,0.965,1.198
			C165.237,59.865,170.064,60.326,168.795,58.75L168.795,58.75z"/>
	</g>
</g>
<g>
	<g>
		<path fill="#FFED00" d="M731.738,134.486c11.867-18.112,14.52-41.397,12.744-62.544c-1.744-20.787-8.642-43.063-24.893-57.075
			C687.34-12.939,634.445,2.269,607.641,30.13c-16.293,16.937-22.396,39.832-12.521,61.68c8.671,19.185,25.582,31.866,45.993,35.784
			c20.21,3.88,41.674-0.366,61.108-6.063c18.86-5.528,37.023-13.38,54.588-22.142c2.472-1.233,4.929-2.498,7.378-3.776
			c2.07-1.081-0.779-5.175-2.926-4.055c-16.902,8.825-34.335,16.653-52.41,22.763c-20.092,6.792-41.694,11.717-63.003,9.557
			c-23.591-2.391-43.369-17.721-50.091-40.886c-7.474-25.753,11.233-49.423,31.572-62.771c27.619-18.126,72.382-23.762,96.16,3.576
			c12.452,14.317,16.604,35.439,17.306,53.837c0.697,18.256-2.488,37.99-12.648,53.498
			C726.893,133.046,730.324,136.644,731.738,134.486L731.738,134.486z"/>
	</g>
</g>
</svg>
