<?xml version="1.0" encoding="utf-8"?>
<!-- Generator: Adobe Illustrator 16.0.0, SVG Export Plug-In . SVG Version: 6.00 Build 0)  -->
<!DOCTYPE svg PUBLIC "-//W3C//DTD SVG 1.1//EN" "http://www.w3.org/Graphics/SVG/1.1/DTD/svg11.dtd">
<svg version="1.1" id="Layer_1" xmlns="http://www.w3.org/2000/svg" xmlns:xlink="http://www.w3.org/1999/xlink" x="0px" y="0px"
	 width="960px" height="211.666px" viewBox="0 0 960 211.666" enable-background="new 0 0 960 211.666" xml:space="preserve">
<g>
	<path fill="#363636" d="M3.476,151.173c0-2.886,2.171-4.833,4.987-4.833c2.045,0,3.236,1.106,3.894,2.283l-1.709,0.84
		c-0.392-0.756-1.232-1.359-2.185-1.359c-1.709,0-2.941,1.303-2.941,3.068s1.232,3.068,2.941,3.068c0.953,0,1.793-0.603,2.185-1.359
		l1.709,0.827c-0.658,1.162-1.849,2.297-3.894,2.297C5.647,156.006,3.476,154.045,3.476,151.173z"/>
	<path fill="#363636" d="M17.787,155.838v-0.854c-0.462,0.504-1.274,1.022-2.381,1.022c-1.485,0-2.186-0.812-2.186-2.129v-4.805H15
		v4.104c0,0.939,0.49,1.247,1.247,1.247c0.686,0,1.232-0.378,1.541-0.771v-4.58h1.779v6.766H17.787z"/>
	<path fill="#363636" d="M25.109,155.838v-0.715c-0.462,0.561-1.261,0.883-2.143,0.883c-1.079,0-2.339-0.729-2.339-2.241
		c0-1.597,1.261-2.185,2.339-2.185c0.91,0,1.695,0.294,2.143,0.827v-0.854c0-0.687-0.588-1.135-1.485-1.135
		c-0.714,0-1.387,0.28-1.947,0.798l-0.7-1.247c0.826-0.742,1.891-1.064,2.956-1.064c1.555,0,2.97,0.616,2.97,2.563v4.37H25.109z
		 M25.109,154.213v-0.84c-0.294-0.392-0.854-0.603-1.429-0.603c-0.701,0-1.275,0.378-1.275,1.023s0.574,1.009,1.275,1.009
		C24.254,154.802,24.814,154.605,25.109,154.213z"/>
	<path fill="#363636" d="M32.935,155.838v-4.09c0-0.938-0.49-1.261-1.247-1.261c-0.7,0-1.232,0.393-1.541,0.785v4.566h-1.779v-6.766
		h1.779v0.869c0.434-0.504,1.274-1.037,2.367-1.037c1.499,0,2.213,0.84,2.213,2.157v4.776H32.935z"/>
	<path fill="#363636" d="M40.845,155.838v-0.868c-0.533,0.672-1.261,1.036-2.087,1.036c-1.695,0-2.998-1.289-2.998-3.558
		c0-2.199,1.275-3.544,2.998-3.544c0.798,0,1.555,0.336,2.087,1.037v-3.446h1.793v9.343H40.845z M40.845,153.652v-2.395
		c-0.294-0.448-0.939-0.771-1.527-0.771c-1.023,0-1.723,0.799-1.723,1.961c0,1.177,0.7,1.975,1.723,1.975
		C39.906,154.423,40.551,154.101,40.845,153.652z"/>
	<path fill="#363636" d="M43.685,152.448c0-1.919,1.345-3.544,3.572-3.544c2.241,0,3.586,1.625,3.586,3.544
		c0,1.919-1.345,3.558-3.586,3.558C45.029,156.006,43.685,154.367,43.685,152.448z M48.994,152.448c0-1.051-0.617-1.961-1.737-1.961
		c-1.106,0-1.723,0.911-1.723,1.961c0,1.064,0.616,1.975,1.723,1.975C48.377,154.423,48.994,153.513,48.994,152.448z"/>
	<path fill="#363636" d="M57.405,155.838v-7.592h-2.731v-1.751h7.452v1.751h-2.717v7.592H57.405z"/>
	<path fill="#363636" d="M63.116,155.838v-9.343h6.612v1.751h-4.623v1.961h4.524v1.751h-4.524v3.88H63.116z"/>
	<path fill="#363636" d="M73.672,152.448c0-1.961,1.457-3.544,3.502-3.544c2.031,0,3.39,1.513,3.39,3.712v0.42h-5.029
		c0.126,0.827,0.799,1.513,1.947,1.513c0.574,0,1.359-0.237,1.793-0.658l0.798,1.177c-0.672,0.616-1.737,0.938-2.788,0.938
		C75.227,156.006,73.672,154.619,73.672,152.448z M77.174,150.361c-1.106,0-1.583,0.771-1.653,1.443h3.333
		C78.799,151.159,78.351,150.361,77.174,150.361z"/>
	<path fill="#363636" d="M80.979,154.955l0.771-1.288c0.504,0.476,1.499,0.938,2.339,0.938c0.771,0,1.135-0.294,1.135-0.715
		c0-1.106-4.006-0.196-4.006-2.857c0-1.135,0.98-2.129,2.773-2.129c1.135,0,2.045,0.392,2.718,0.924l-0.714,1.261
		c-0.406-0.42-1.177-0.785-2.003-0.785c-0.644,0-1.064,0.28-1.064,0.659c0,0.995,4.02,0.154,4.02,2.885
		c0,1.247-1.064,2.157-2.941,2.157C82.828,156.006,81.693,155.613,80.979,154.955z"/>
	<path fill="#363636" d="M88.33,154.143v-3.516h-1.121v-1.555h1.121v-1.849h1.779v1.849h1.373v1.555h-1.373v3.04
		c0,0.434,0.225,0.756,0.617,0.756c0.266,0,0.518-0.098,0.616-0.21l0.378,1.358c-0.267,0.238-0.743,0.435-1.485,0.435
		C88.988,156.006,88.33,155.361,88.33,154.143z"/>
	<path fill="#363636" d="M96.479,155.838v-0.715c-0.462,0.561-1.261,0.883-2.144,0.883c-1.078,0-2.339-0.729-2.339-2.241
		c0-1.597,1.261-2.185,2.339-2.185c0.911,0,1.695,0.294,2.144,0.827v-0.854c0-0.687-0.588-1.135-1.485-1.135
		c-0.714,0-1.387,0.28-1.947,0.798l-0.7-1.247c0.826-0.742,1.891-1.064,2.956-1.064c1.555,0,2.97,0.616,2.97,2.563v4.37H96.479z
		 M96.479,154.213v-0.84c-0.294-0.392-0.854-0.603-1.429-0.603c-0.701,0-1.275,0.378-1.275,1.023s0.574,1.009,1.275,1.009
		C95.625,154.802,96.185,154.605,96.479,154.213z M95.471,148.05h-1.247l1.877-2.017h1.639L95.471,148.05z"/>
	<path fill="#363636" d="M104.836,154.97v3.445h-1.779v-9.343h1.779v0.854c0.518-0.658,1.261-1.022,2.087-1.022
		c1.737,0,2.998,1.289,2.998,3.544c0,2.255-1.261,3.558-2.998,3.558C106.125,156.006,105.396,155.67,104.836,154.97z
		 M108.085,152.448c0-1.163-0.7-1.961-1.723-1.961c-0.575,0-1.219,0.322-1.527,0.771v2.381c0.294,0.435,0.952,0.784,1.527,0.784
		C107.385,154.423,108.085,153.625,108.085,152.448z"/>
	<path fill="#363636" d="M110.939,155.838v-6.766h1.779v0.911c0.49-0.588,1.316-1.079,2.157-1.079v1.737
		c-0.126-0.028-0.28-0.042-0.49-0.042c-0.588,0-1.373,0.336-1.667,0.771v4.468H110.939z"/>
	<path fill="#363636" d="M115.265,152.448c0-1.961,1.457-3.544,3.502-3.544c2.031,0,3.39,1.513,3.39,3.712v0.42h-5.029
		c0.126,0.827,0.799,1.513,1.947,1.513c0.574,0,1.359-0.237,1.793-0.658l0.798,1.177c-0.672,0.616-1.737,0.938-2.788,0.938
		C116.819,156.006,115.265,154.619,115.265,152.448z M118.767,150.361c-1.106,0-1.583,0.771-1.653,1.443h3.333
		C120.392,151.159,119.943,150.361,118.767,150.361z"/>
	<path fill="#363636" d="M122.572,154.955l0.771-1.288c0.504,0.476,1.499,0.938,2.339,0.938c0.771,0,1.135-0.294,1.135-0.715
		c0-1.106-4.006-0.196-4.006-2.857c0-1.135,0.98-2.129,2.773-2.129c1.135,0,2.045,0.392,2.718,0.924l-0.714,1.261
		c-0.406-0.42-1.177-0.785-2.003-0.785c-0.644,0-1.064,0.28-1.064,0.659c0,0.995,4.02,0.154,4.02,2.885
		c0,1.247-1.064,2.157-2.941,2.157C124.421,156.006,123.286,155.613,122.572,154.955z"/>
	<path fill="#363636" d="M129.124,152.448c0-1.961,1.457-3.544,3.502-3.544c2.031,0,3.39,1.513,3.39,3.712v0.42h-5.029
		c0.126,0.827,0.799,1.513,1.947,1.513c0.574,0,1.359-0.237,1.793-0.658l0.798,1.177c-0.672,0.616-1.737,0.938-2.788,0.938
		C130.679,156.006,129.124,154.619,129.124,152.448z M132.626,150.361c-1.106,0-1.583,0.771-1.653,1.443h3.333
		C134.251,151.159,133.803,150.361,132.626,150.361z"/>
	<path fill="#363636" d="M141.586,155.838v-4.09c0-0.938-0.49-1.261-1.247-1.261c-0.7,0-1.232,0.393-1.541,0.785v4.566h-1.779
		v-6.766h1.779v0.869c0.434-0.504,1.274-1.037,2.367-1.037c1.499,0,2.213,0.84,2.213,2.157v4.776H141.586z"/>
	<path fill="#363636" d="M145.21,154.143v-3.516h-1.121v-1.555h1.121v-1.849h1.779v1.849h1.373v1.555h-1.373v3.04
		c0,0.434,0.224,0.756,0.616,0.756c0.266,0,0.518-0.098,0.616-0.21l0.378,1.358c-0.266,0.238-0.743,0.435-1.485,0.435
		C145.868,156.006,145.21,155.361,145.21,154.143z"/>
	<path fill="#363636" d="M148.863,152.448c0-1.961,1.457-3.544,3.502-3.544c2.031,0,3.39,1.513,3.39,3.712v0.42h-5.029
		c0.126,0.827,0.799,1.513,1.947,1.513c0.574,0,1.359-0.237,1.793-0.658l0.798,1.177c-0.672,0.616-1.737,0.938-2.788,0.938
		C150.418,156.006,148.863,154.619,148.863,152.448z M152.365,150.361c-1.106,0-1.583,0.771-1.653,1.443h3.333
		C153.99,151.159,153.542,150.361,152.365,150.361z"/>
	<path fill="#363636" d="M159.643,152.448c0-1.961,1.457-3.544,3.502-3.544c2.031,0,3.39,1.513,3.39,3.712v0.42h-5.029
		c0.126,0.827,0.799,1.513,1.947,1.513c0.574,0,1.359-0.237,1.793-0.658l0.798,1.177c-0.672,0.616-1.737,0.938-2.788,0.938
		C161.197,156.006,159.643,154.619,159.643,152.448z M163.145,150.361c-1.106,0-1.583,0.771-1.653,1.443h3.333
		C164.77,151.159,164.321,150.361,163.145,150.361z"/>
	<path fill="#363636" d="M172.105,155.838v-4.09c0-0.938-0.49-1.261-1.247-1.261c-0.7,0-1.232,0.393-1.541,0.785v4.566h-1.779
		v-6.766h1.779v0.869c0.434-0.504,1.274-1.037,2.367-1.037c1.499,0,2.213,0.84,2.213,2.157v4.776H172.105z"/>
	<path fill="#363636" d="M12.273,172.638v-4.272c0-0.63-0.28-1.078-1.008-1.078c-0.63,0-1.149,0.42-1.401,0.784v4.566H8.071v-4.272
		c0-0.63-0.28-1.078-1.009-1.078c-0.616,0-1.134,0.42-1.4,0.784v4.566H3.882v-6.766h1.779v0.868
		c0.294-0.392,1.176-1.036,2.213-1.036c0.995,0,1.639,0.462,1.877,1.219c0.393-0.603,1.289-1.219,2.326-1.219
		c1.247,0,1.989,0.658,1.989,2.045v4.889H12.273z"/>
	<path fill="#363636" d="M19.607,172.638v-0.715c-0.462,0.561-1.261,0.883-2.143,0.883c-1.079,0-2.339-0.729-2.339-2.241
		c0-1.597,1.261-2.186,2.339-2.186c0.91,0,1.695,0.295,2.143,0.827v-0.854c0-0.687-0.588-1.135-1.485-1.135
		c-0.714,0-1.387,0.28-1.947,0.799l-0.7-1.247c0.826-0.742,1.891-1.064,2.956-1.064c1.555,0,2.97,0.616,2.97,2.563v4.37H19.607z
		 M19.607,171.013v-0.841c-0.294-0.392-0.854-0.602-1.429-0.602c-0.701,0-1.275,0.378-1.275,1.022s0.574,1.009,1.275,1.009
		C18.752,171.602,19.312,171.405,19.607,171.013z M18.598,164.85h-1.247l1.877-2.018h1.639L18.598,164.85z"/>
	<path fill="#363636" d="M22.278,171.755l0.771-1.288c0.504,0.476,1.499,0.938,2.339,0.938c0.771,0,1.135-0.294,1.135-0.715
		c0-1.106-4.006-0.196-4.006-2.857c0-1.135,0.98-2.129,2.773-2.129c1.135,0,2.045,0.392,2.718,0.925l-0.714,1.26
		c-0.406-0.42-1.177-0.784-2.003-0.784c-0.644,0-1.064,0.28-1.064,0.658c0,0.995,4.02,0.154,4.02,2.886
		c0,1.247-1.064,2.157-2.941,2.157C24.127,172.806,22.992,172.414,22.278,171.755z"/>
	<path fill="#363636" d="M37.232,172.638v-0.868c-0.533,0.672-1.261,1.036-2.087,1.036c-1.695,0-2.998-1.288-2.998-3.558
		c0-2.199,1.275-3.544,2.998-3.544c0.798,0,1.555,0.336,2.087,1.036v-3.445h1.793v9.343H37.232z M37.232,170.452v-2.395
		c-0.294-0.448-0.938-0.771-1.527-0.771c-1.023,0-1.723,0.798-1.723,1.961c0,1.177,0.7,1.975,1.723,1.975
		C36.294,171.223,36.938,170.9,37.232,170.452z"/>
	<path fill="#363636" d="M40.072,169.248c0-1.961,1.457-3.544,3.502-3.544c2.031,0,3.39,1.513,3.39,3.712v0.42h-5.029
		c0.126,0.827,0.799,1.513,1.947,1.513c0.574,0,1.359-0.237,1.793-0.658l0.798,1.177c-0.672,0.616-1.737,0.938-2.788,0.938
		C41.626,172.806,40.072,171.419,40.072,169.248z M43.574,167.161c-1.106,0-1.583,0.771-1.653,1.442h3.333
		C45.199,167.959,44.75,167.161,43.574,167.161z"/>
	<path fill="#363636" d="M47.967,172.638v-9.343h1.779v9.343H47.967z"/>
	<path fill="#363636" d="M54.351,171.405l1.106-1.387c0.63,0.658,1.499,1.022,2.479,1.022c1.106,0,1.737-0.631,1.737-1.387
		c0-0.826-0.616-1.387-1.681-1.387c-0.77,0-1.4,0.224-1.961,0.756l-1.387-0.378v-5.351h6.416v1.751h-4.426v2.283
		c0.448-0.448,1.205-0.785,2.059-0.785c1.583,0,2.998,1.135,2.998,3.026c0,1.975-1.485,3.235-3.74,3.235
		C56.326,172.806,55.149,172.273,54.351,171.405z"/>
	<path fill="#363636" d="M62.261,165.494c0-1.317,0.938-2.34,2.367-2.34c1.443,0,2.381,1.022,2.381,2.34
		c0,1.303-0.938,2.311-2.381,2.311C63.199,167.805,62.261,166.797,62.261,165.494z M65.749,165.494c0-0.771-0.476-1.247-1.121-1.247
		c-0.63,0-1.106,0.477-1.106,1.247c0,0.742,0.476,1.219,1.106,1.219C65.272,166.713,65.749,166.236,65.749,165.494z M63.717,172.638
		l5.967-9.343h1.064l-5.981,9.343H63.717z M67.401,170.494c0-1.316,0.938-2.353,2.367-2.353s2.381,1.036,2.381,2.353
		c0,1.303-0.953,2.312-2.381,2.312S67.401,171.797,67.401,170.494z M70.889,170.494c0-0.77-0.476-1.246-1.121-1.246
		c-0.644,0-1.106,0.477-1.106,1.246c0,0.757,0.462,1.219,1.106,1.219C70.413,171.713,70.889,171.251,70.889,170.494z"/>
	<path fill="#363636" d="M81.079,172.638v-0.868c-0.533,0.672-1.261,1.036-2.087,1.036c-1.695,0-2.998-1.288-2.998-3.558
		c0-2.199,1.275-3.544,2.998-3.544c0.798,0,1.555,0.336,2.087,1.036v-3.445h1.793v9.343H81.079z M81.079,170.452v-2.395
		c-0.294-0.448-0.938-0.771-1.527-0.771c-1.023,0-1.723,0.798-1.723,1.961c0,1.177,0.7,1.975,1.723,1.975
		C80.141,171.223,80.785,170.9,81.079,170.452z"/>
	<path fill="#363636" d="M83.918,169.248c0-1.961,1.457-3.544,3.502-3.544c2.031,0,3.39,1.513,3.39,3.712v0.42h-5.029
		c0.126,0.827,0.799,1.513,1.947,1.513c0.574,0,1.359-0.237,1.793-0.658l0.798,1.177c-0.672,0.616-1.737,0.938-2.788,0.938
		C85.473,172.806,83.918,171.419,83.918,169.248z M87.42,167.161c-1.106,0-1.583,0.771-1.653,1.442h3.333
		C89.045,167.959,88.597,167.161,87.42,167.161z"/>
	<path fill="#363636" d="M95.132,172.638v-9.343h1.779v9.343H95.132z"/>
	<path fill="#363636" d="M97.959,169.248c0-1.919,1.345-3.544,3.572-3.544c2.241,0,3.586,1.625,3.586,3.544
		s-1.345,3.558-3.586,3.558C99.304,172.806,97.959,171.167,97.959,169.248z M103.269,169.248c0-1.051-0.617-1.961-1.737-1.961
		c-1.106,0-1.723,0.91-1.723,1.961c0,1.064,0.616,1.975,1.723,1.975C102.652,171.223,103.269,170.312,103.269,169.248z"/>
	<path fill="#363636" d="M105.575,171.755l0.771-1.288c0.504,0.476,1.499,0.938,2.339,0.938c0.771,0,1.135-0.294,1.135-0.715
		c0-1.106-4.006-0.196-4.006-2.857c0-1.135,0.98-2.129,2.773-2.129c1.135,0,2.045,0.392,2.718,0.925l-0.714,1.26
		c-0.406-0.42-1.177-0.784-2.003-0.784c-0.644,0-1.064,0.28-1.064,0.658c0,0.995,4.02,0.154,4.02,2.886
		c0,1.247-1.064,2.157-2.941,2.157C107.424,172.806,106.29,172.414,105.575,171.755z"/>
	<path fill="#363636" d="M120.445,172.638v-4.09c0-0.938-0.49-1.261-1.247-1.261c-0.7,0-1.232,0.392-1.541,0.784v4.566h-1.779
		v-6.766h1.779v0.868c0.434-0.504,1.274-1.036,2.367-1.036c1.499,0,2.213,0.84,2.213,2.157v4.776H120.445z"/>
	<path fill="#363636" d="M123.537,164.079c0-0.588,0.476-1.051,1.051-1.051c0.588,0,1.064,0.463,1.064,1.051
		s-0.477,1.064-1.064,1.064C124.013,165.144,123.537,164.667,123.537,164.079z M123.705,172.638v-6.766h1.779v6.766H123.705z"/>
	<path fill="#363636" d="M131.631,172.638v-4.09c0-0.938-0.49-1.261-1.247-1.261c-0.7,0-1.232,0.392-1.541,0.784v4.566h-1.779
		v-6.766h1.779v0.868c0.435-0.504,1.275-1.036,2.368-1.036c1.499,0,2.213,0.84,2.213,2.157v4.776H131.631z M129.306,163.925
		c-0.28,0-0.504,0.267-0.504,0.868h-0.938c0-1.19,0.532-1.877,1.513-1.877c0.938,0,1.092,0.938,1.625,0.938
		c0.28,0,0.504-0.266,0.504-0.854h0.938c0,1.191-0.518,1.878-1.499,1.878C129.993,164.878,129.838,163.925,129.306,163.925z"/>
	<path fill="#363636" d="M134.359,169.248c0-1.919,1.345-3.544,3.572-3.544c2.241,0,3.586,1.625,3.586,3.544
		s-1.345,3.558-3.586,3.558C135.704,172.806,134.359,171.167,134.359,169.248z M139.668,169.248c0-1.051-0.617-1.961-1.737-1.961
		c-1.106,0-1.723,0.91-1.723,1.961c0,1.064,0.616,1.975,1.723,1.975C139.051,171.223,139.668,170.312,139.668,169.248z"/>
	<path fill="#363636" d="M141.974,171.755l0.771-1.288c0.504,0.476,1.499,0.938,2.339,0.938c0.771,0,1.135-0.294,1.135-0.715
		c0-1.106-4.006-0.196-4.006-2.857c0-1.135,0.98-2.129,2.773-2.129c1.135,0,2.045,0.392,2.718,0.925l-0.714,1.26
		c-0.406-0.42-1.177-0.784-2.003-0.784c-0.644,0-1.064,0.28-1.064,0.658c0,0.995,4.02,0.154,4.02,2.886
		c0,1.247-1.064,2.157-2.941,2.157C143.823,172.806,142.688,172.414,141.974,171.755z"/>
	<path fill="#363636" d="M149.647,174.557l-0.771-0.63c0.448-0.238,0.967-0.827,1.079-1.317c-0.042,0.015-0.154,0.042-0.266,0.042
		c-0.532,0-0.953-0.42-0.953-1.008c0-0.617,0.504-1.121,1.107-1.121c0.658,0,1.247,0.519,1.247,1.429
		C151.09,173.002,150.516,173.94,149.647,174.557z"/>
	<path fill="#363636" d="M8.449,189.438v-0.854c-0.462,0.504-1.274,1.022-2.381,1.022c-1.485,0-2.186-0.812-2.186-2.129v-4.805
		h1.779v4.104c0,0.938,0.49,1.246,1.247,1.246c0.687,0,1.232-0.378,1.541-0.771v-4.58h1.779v6.766H8.449z"/>
	<path fill="#363636" d="M16.275,189.438v-4.09c0-0.938-0.49-1.261-1.247-1.261c-0.7,0-1.232,0.392-1.541,0.784v4.566h-1.779v-6.766
		h1.779v0.868c0.434-0.504,1.274-1.036,2.367-1.036c1.499,0,2.213,0.84,2.213,2.157v4.776H16.275z"/>
	<path fill="#363636" d="M27.503,189.438v-0.868c-0.533,0.672-1.261,1.036-2.087,1.036c-1.695,0-2.998-1.289-2.998-3.558
		c0-2.199,1.275-3.544,2.998-3.544c0.798,0,1.555,0.336,2.087,1.036v-3.445h1.793v9.343H27.503z M27.503,187.252v-2.395
		c-0.294-0.448-0.938-0.771-1.527-0.771c-1.023,0-1.723,0.798-1.723,1.961c0,1.177,0.7,1.975,1.723,1.975
		C26.564,188.022,27.208,187.7,27.503,187.252z"/>
	<path fill="#363636" d="M30.608,180.879c0-0.588,0.476-1.051,1.051-1.051c0.588,0,1.064,0.463,1.064,1.051
		s-0.476,1.064-1.064,1.064C31.084,181.943,30.608,181.467,30.608,180.879z M30.776,189.438v-6.766h1.779v6.766H30.776z"/>
	<path fill="#363636" d="M33.45,188.555l0.771-1.288c0.504,0.476,1.499,0.938,2.339,0.938c0.771,0,1.135-0.294,1.135-0.715
		c0-1.106-4.006-0.196-4.006-2.857c0-1.135,0.98-2.129,2.773-2.129c1.135,0,2.045,0.392,2.718,0.925l-0.714,1.26
		c-0.406-0.42-1.177-0.784-2.003-0.784c-0.644,0-1.064,0.28-1.064,0.658c0,0.995,4.02,0.154,4.02,2.886
		c0,1.247-1.064,2.157-2.941,2.157C35.299,189.605,34.164,189.213,33.45,188.555z"/>
	<path fill="#363636" d="M40.8,187.742v-3.516h-1.121v-1.555H40.8v-1.849h1.779v1.849h1.373v1.555h-1.373v3.04
		c0,0.434,0.224,0.756,0.616,0.756c0.266,0,0.518-0.098,0.616-0.21l0.378,1.358c-0.266,0.238-0.743,0.435-1.485,0.435
		C41.458,189.605,40.8,188.961,40.8,187.742z"/>
	<path fill="#363636" d="M44.888,189.438v-6.766h1.779v0.91c0.49-0.588,1.316-1.078,2.157-1.078v1.736
		c-0.126-0.027-0.28-0.042-0.491-0.042c-0.588,0-1.373,0.337-1.667,0.771v4.469H44.888z"/>
	<path fill="#363636" d="M49.479,180.879c0-0.588,0.476-1.051,1.051-1.051c0.588,0,1.064,0.463,1.064,1.051
		s-0.476,1.064-1.064,1.064C49.955,181.943,49.479,181.467,49.479,180.879z M49.647,189.438v-6.766h1.779v6.766H49.647z"/>
	<path fill="#363636" d="M53.273,187.742v-3.516h-1.121v-1.555h1.121v-1.849h1.779v1.849h1.373v1.555h-1.373v3.04
		c0,0.434,0.224,0.756,0.616,0.756c0.266,0,0.518-0.098,0.616-0.21l0.378,1.358c-0.266,0.238-0.743,0.435-1.485,0.435
		C53.932,189.605,53.273,188.961,53.273,187.742z"/>
	<path fill="#363636" d="M56.927,186.048c0-1.919,1.345-3.544,3.572-3.544c2.241,0,3.586,1.625,3.586,3.544
		s-1.345,3.558-3.586,3.558C58.272,189.605,56.927,187.967,56.927,186.048z M62.236,186.048c0-1.051-0.617-1.961-1.737-1.961
		c-1.106,0-1.723,0.91-1.723,1.961c0,1.064,0.616,1.975,1.723,1.975C61.62,188.022,62.236,187.112,62.236,186.048z"/>
	<path fill="#363636" d="M68.449,189.438v-6.766h1.779v0.91c0.49-0.588,1.316-1.078,2.157-1.078v1.736
		c-0.126-0.027-0.28-0.042-0.49-0.042c-0.588,0-1.373,0.337-1.667,0.771v4.469H68.449z"/>
	<path fill="#363636" d="M72.774,186.048c0-1.961,1.457-3.544,3.502-3.544c2.031,0,3.39,1.513,3.39,3.712v0.42h-5.029
		c0.126,0.827,0.799,1.513,1.947,1.513c0.574,0,1.359-0.237,1.793-0.658l0.798,1.177c-0.672,0.616-1.737,0.938-2.788,0.938
		C74.329,189.605,72.774,188.219,72.774,186.048z M76.276,183.961c-1.106,0-1.583,0.77-1.653,1.442h3.333
		C77.901,184.759,77.453,183.961,76.276,183.961z"/>
	<path fill="#363636" d="M80.222,186.048c0-2.256,1.261-3.544,2.984-3.544c0.826,0,1.569,0.364,2.087,1.022v-0.854h1.793v9.343
		h-1.793v-3.445c-0.546,0.7-1.274,1.036-2.087,1.036C81.482,189.605,80.222,188.303,80.222,186.048z M85.292,187.238v-2.381
		c-0.294-0.448-0.938-0.771-1.527-0.771c-1.008,0-1.709,0.798-1.709,1.961c0,1.177,0.701,1.975,1.709,1.975
		C84.354,188.022,84.999,187.673,85.292,187.238z"/>
	<path fill="#363636" d="M93.118,189.438v-0.854c-0.462,0.504-1.274,1.022-2.381,1.022c-1.485,0-2.186-0.812-2.186-2.129v-4.805
		h1.779v4.104c0,0.938,0.49,1.246,1.247,1.246c0.686,0,1.232-0.378,1.541-0.771v-4.58h1.779v6.766H93.118z"/>
	<path fill="#363636" d="M96.21,180.879c0-0.588,0.476-1.051,1.051-1.051c0.588,0,1.064,0.463,1.064,1.051s-0.477,1.064-1.064,1.064
		C96.686,181.943,96.21,181.467,96.21,180.879z M96.378,189.438v-6.766h1.779v6.766H96.378z"/>
	<path fill="#363636" d="M99.206,186.048c0-1.961,1.457-3.544,3.502-3.544c2.031,0,3.39,1.513,3.39,3.712v0.42h-5.029
		c0.126,0.827,0.799,1.513,1.947,1.513c0.574,0,1.359-0.237,1.793-0.658l0.798,1.177c-0.672,0.616-1.737,0.938-2.788,0.938
		C100.761,189.605,99.206,188.219,99.206,186.048z M102.708,183.961c-1.106,0-1.583,0.77-1.653,1.442h3.333
		C104.333,184.759,103.885,183.961,102.708,183.961z"/>
	<path fill="#363636" d="M107.102,189.438v-6.766h1.779v0.91c0.49-0.588,1.316-1.078,2.157-1.078v1.736
		c-0.126-0.027-0.28-0.042-0.491-0.042c-0.588,0-1.373,0.337-1.667,0.771v4.469H107.102z"/>
	<path fill="#363636" d="M111.427,186.048c0-1.961,1.457-3.544,3.502-3.544c2.031,0,3.39,1.513,3.39,3.712v0.42h-5.029
		c0.126,0.827,0.799,1.513,1.947,1.513c0.574,0,1.359-0.237,1.793-0.658l0.798,1.177c-0.672,0.616-1.737,0.938-2.788,0.938
		C112.982,189.605,111.427,188.219,111.427,186.048z M114.929,183.961c-1.106,0-1.583,0.77-1.653,1.442h3.333
		C116.554,184.759,116.106,183.961,114.929,183.961z"/>
	<path fill="#363636" d="M3.714,197.68c0-0.588,0.476-1.051,1.051-1.051c0.588,0,1.064,0.463,1.064,1.051s-0.476,1.064-1.064,1.064
		C4.19,198.744,3.714,198.268,3.714,197.68z M3.882,206.238v-6.766h1.779v6.766H3.882z"/>
	<path fill="#363636" d="M11.711,206.238v-4.09c0-0.938-0.49-1.261-1.247-1.261c-0.7,0-1.232,0.392-1.541,0.784v4.566H7.145v-6.766
		h1.779v0.868c0.434-0.504,1.274-1.036,2.367-1.036c1.499,0,2.213,0.84,2.213,2.157v4.776H11.711z"/>
	<path fill="#363636" d="M15.334,204.543v-3.516h-1.121v-1.555h1.121v-1.849h1.779v1.849h1.373v1.555h-1.373v3.04
		c0,0.434,0.225,0.756,0.617,0.756c0.266,0,0.518-0.098,0.616-0.21l0.378,1.358c-0.267,0.238-0.743,0.435-1.485,0.435
		C15.993,206.406,15.334,205.762,15.334,204.543z"/>
	<path fill="#363636" d="M18.988,202.849c0-1.961,1.457-3.544,3.502-3.544c2.031,0,3.39,1.513,3.39,3.712v0.42h-5.029
		c0.126,0.827,0.799,1.513,1.947,1.513c0.574,0,1.359-0.237,1.793-0.658l0.798,1.177c-0.672,0.616-1.737,0.938-2.788,0.938
		C20.543,206.406,18.988,205.02,18.988,202.849z M22.49,200.762c-1.106,0-1.583,0.77-1.653,1.442h3.333
		C24.115,201.56,23.667,200.762,22.49,200.762z"/>
	<path fill="#363636" d="M26.884,206.238v-6.766h1.779v0.91c0.49-0.588,1.316-1.078,2.157-1.078v1.736
		c-0.126-0.027-0.28-0.042-0.491-0.042c-0.588,0-1.373,0.337-1.667,0.771v4.469H26.884z"/>
	<path fill="#363636" d="M33.395,206.238l-2.717-6.766h1.905l1.765,4.706l1.779-4.706h1.905l-2.718,6.766H33.395z"/>
	<path fill="#363636" d="M38.111,202.849c0-1.961,1.457-3.544,3.502-3.544c2.031,0,3.39,1.513,3.39,3.712v0.42h-5.029
		c0.126,0.827,0.799,1.513,1.947,1.513c0.574,0,1.359-0.237,1.793-0.658l0.798,1.177c-0.672,0.616-1.737,0.938-2.788,0.938
		C39.666,206.406,38.111,205.02,38.111,202.849z M41.613,200.762c-1.106,0-1.583,0.77-1.653,1.442h3.333
		C43.238,201.56,42.79,200.762,41.613,200.762z"/>
	<path fill="#363636" d="M50.573,206.238v-4.09c0-0.938-0.49-1.261-1.247-1.261c-0.7,0-1.232,0.392-1.541,0.784v4.566h-1.779v-6.766
		h1.779v0.868c0.434-0.504,1.274-1.036,2.367-1.036c1.499,0,2.213,0.84,2.213,2.157v4.776H50.573z"/>
	<path fill="#363636" d="M53.398,202.849c0-2.073,1.513-3.544,3.586-3.544c1.387,0,2.227,0.603,2.675,1.219l-1.163,1.093
		c-0.322-0.477-0.812-0.729-1.429-0.729c-1.079,0-1.835,0.784-1.835,1.961s0.756,1.975,1.835,1.975c0.616,0,1.106-0.28,1.429-0.742
		l1.163,1.093c-0.448,0.616-1.289,1.232-2.675,1.232C54.911,206.406,53.398,204.936,53.398,202.849z"/>
	<path fill="#363636" d="M60.371,197.68c0-0.588,0.476-1.051,1.051-1.051c0.588,0,1.064,0.463,1.064,1.051s-0.476,1.064-1.064,1.064
		C60.847,198.744,60.371,198.268,60.371,197.68z M60.539,206.238v-6.766h1.779v6.766H60.539z"/>
	<path fill="#363636" d="M63.367,202.849c0-1.919,1.345-3.544,3.572-3.544c2.241,0,3.586,1.625,3.586,3.544
		s-1.345,3.558-3.586,3.558C64.711,206.406,63.367,204.768,63.367,202.849z M68.676,202.849c0-1.051-0.617-1.961-1.737-1.961
		c-1.106,0-1.723,0.91-1.723,1.961c0,1.064,0.616,1.975,1.723,1.975C68.059,204.823,68.676,203.913,68.676,202.849z"/>
	<path fill="#363636" d="M76.137,206.238v-4.09c0-0.938-0.49-1.261-1.247-1.261c-0.7,0-1.232,0.392-1.541,0.784v4.566H71.57v-6.766
		h1.779v0.868c0.434-0.504,1.274-1.036,2.367-1.036c1.499,0,2.213,0.84,2.213,2.157v4.776H76.137z"/>
	<path fill="#363636" d="M78.962,202.849c0-1.961,1.457-3.544,3.502-3.544c2.031,0,3.39,1.513,3.39,3.712v0.42h-5.029
		c0.126,0.827,0.799,1.513,1.947,1.513c0.574,0,1.359-0.237,1.793-0.658l0.798,1.177c-0.672,0.616-1.737,0.938-2.788,0.938
		C80.517,206.406,78.962,205.02,78.962,202.849z M82.464,200.762c-1.106,0-1.583,0.77-1.653,1.442h3.333
		C84.089,201.56,83.641,200.762,82.464,200.762z"/>
	<path fill="#363636" d="M86.27,205.355l0.771-1.288c0.504,0.476,1.499,0.938,2.339,0.938c0.771,0,1.135-0.294,1.135-0.715
		c0-1.106-4.006-0.196-4.006-2.857c0-1.135,0.98-2.129,2.773-2.129c1.135,0,2.045,0.392,2.718,0.925l-0.714,1.26
		c-0.406-0.42-1.177-0.784-2.003-0.784c-0.644,0-1.064,0.28-1.064,0.658c0,0.995,4.02,0.154,4.02,2.886
		c0,1.247-1.064,2.157-2.941,2.157C88.119,206.406,86.984,206.014,86.27,205.355z"/>
	<path fill="#363636" d="M103.073,206.238l-0.588-1.583h-4.006l-0.588,1.583h-2.255l3.6-9.343h2.493l3.6,9.343H103.073z
		 M100.481,198.885l-1.457,4.02h2.914L100.481,198.885z"/>
	<path fill="#363636" d="M106.556,208.157l-0.771-0.63c0.448-0.238,0.967-0.827,1.079-1.317c-0.042,0.015-0.154,0.042-0.266,0.042
		c-0.532,0-0.953-0.42-0.953-1.008c0-0.617,0.504-1.121,1.107-1.121c0.658,0,1.247,0.519,1.247,1.429
		C107.999,206.603,107.424,207.541,106.556,208.157z"/>
	<path fill="#363636" d="M112.519,206.238v-9.343h6.612v1.751h-4.623v1.961h4.524v1.751h-4.524v3.88H112.519z"/>
	<path fill="#363636" d="M120.877,208.157l-0.771-0.63c0.448-0.238,0.967-0.827,1.079-1.317c-0.042,0.015-0.154,0.042-0.266,0.042
		c-0.532,0-0.953-0.42-0.953-1.008c0-0.617,0.504-1.121,1.107-1.121c0.658,0,1.247,0.519,1.247,1.429
		C122.32,206.603,121.746,207.541,120.877,208.157z"/>
	<path fill="#363636" d="M126.84,206.238v-9.343h6.612v1.751h-4.623v1.961h4.524v1.751h-4.524v2.129h4.623v1.751H126.84z"/>
</g>
<g>
	<g>
		<path fill="#363636" d="M578.477,151.173c0-2.886,2.172-4.833,4.986-4.833c2.045,0,3.236,1.106,3.895,2.283l-1.709,0.84
			c-0.393-0.756-1.232-1.359-2.186-1.359c-1.709,0-2.941,1.303-2.941,3.068s1.232,3.068,2.941,3.068
			c0.953,0,1.793-0.603,2.186-1.359l1.709,0.827c-0.658,1.162-1.85,2.297-3.895,2.297
			C580.648,156.006,578.477,154.045,578.477,151.173z"/>
		<path fill="#363636" d="M592.787,155.838v-0.854c-0.461,0.504-1.273,1.022-2.381,1.022c-1.484,0-2.186-0.812-2.186-2.129v-4.805
			H590v4.104c0,0.939,0.49,1.247,1.247,1.247c0.687,0,1.232-0.378,1.54-0.771v-4.58h1.779v6.766H592.787z"/>
		<path fill="#363636" d="M600.109,155.838v-0.715c-0.463,0.561-1.261,0.883-2.143,0.883c-1.079,0-2.34-0.729-2.34-2.241
			c0-1.597,1.261-2.185,2.34-2.185c0.91,0,1.694,0.294,2.143,0.827v-0.854c0-0.687-0.588-1.135-1.484-1.135
			c-0.715,0-1.387,0.28-1.947,0.798l-0.701-1.247c0.826-0.742,1.892-1.064,2.956-1.064c1.555,0,2.97,0.616,2.97,2.563v4.37H600.109z
			 M600.109,154.213v-0.84c-0.295-0.392-0.854-0.603-1.429-0.603c-0.7,0-1.274,0.378-1.274,1.023s0.574,1.009,1.274,1.009
			C599.255,154.802,599.814,154.605,600.109,154.213z"/>
		<path fill="#363636" d="M603.369,155.838v-9.343h1.779v9.343H603.369z"/>
		<path fill="#363636" d="M606.183,152.448c0-2.255,1.261-3.544,2.983-3.544c0.826,0,1.569,0.364,2.088,1.022v-0.854h1.793v9.343
			h-1.793v-3.445c-0.547,0.7-1.275,1.036-2.088,1.036C607.443,156.006,606.183,154.703,606.183,152.448z M611.254,153.639v-2.381
			c-0.295-0.448-0.939-0.771-1.527-0.771c-1.008,0-1.709,0.799-1.709,1.961c0,1.177,0.701,1.975,1.709,1.975
			C610.314,154.423,610.959,154.073,611.254,153.639z"/>
		<path fill="#363636" d="M619.08,155.838v-0.854c-0.463,0.504-1.275,1.022-2.381,1.022c-1.485,0-2.186-0.812-2.186-2.129v-4.805
			h1.779v4.104c0,0.939,0.49,1.247,1.246,1.247c0.686,0,1.232-0.378,1.541-0.771v-4.58h1.779v6.766H619.08z"/>
		<path fill="#363636" d="M622.171,147.279c0-0.588,0.476-1.051,1.051-1.051c0.589,0,1.064,0.462,1.064,1.051
			s-0.476,1.064-1.064,1.064C622.646,148.344,622.171,147.868,622.171,147.279z M622.339,155.838v-6.766h1.779v6.766H622.339z"/>
		<path fill="#363636" d="M625.167,152.448c0-1.961,1.456-3.544,3.502-3.544c2.031,0,3.39,1.513,3.39,3.712v0.42h-5.029
			c0.127,0.827,0.799,1.513,1.947,1.513c0.574,0,1.359-0.237,1.793-0.658l0.799,1.177c-0.672,0.616-1.736,0.938-2.787,0.938
			C626.722,156.006,625.167,154.619,625.167,152.448z M628.669,150.361c-1.106,0-1.583,0.771-1.653,1.443h3.334
			C630.294,151.159,629.846,150.361,628.669,150.361z"/>
		<path fill="#363636" d="M633.062,155.838v-6.766h1.779v0.911c0.49-0.588,1.316-1.079,2.156-1.079v1.737
			c-0.125-0.028-0.279-0.042-0.49-0.042c-0.588,0-1.372,0.336-1.666,0.771v4.468H633.062z"/>
		<path fill="#363636" d="M641.885,155.838v-0.715c-0.462,0.561-1.26,0.883-2.143,0.883c-1.078,0-2.34-0.729-2.34-2.241
			c0-1.597,1.262-2.185,2.34-2.185c0.91,0,1.695,0.294,2.143,0.827v-0.854c0-0.687-0.588-1.135-1.484-1.135
			c-0.715,0-1.387,0.28-1.947,0.798l-0.7-1.247c0.826-0.742,1.892-1.064,2.956-1.064c1.555,0,2.969,0.616,2.969,2.563v4.37H641.885z
			 M641.885,154.213v-0.84c-0.294-0.392-0.854-0.603-1.428-0.603c-0.701,0-1.275,0.378-1.275,1.023s0.574,1.009,1.275,1.009
			C641.031,154.802,641.591,154.605,641.885,154.213z"/>
		<path fill="#363636" d="M648.028,152.448c0-2.073,1.513-3.544,3.586-3.544c1.387,0,2.228,0.602,2.675,1.219l-1.162,1.092
			c-0.322-0.476-0.812-0.729-1.429-0.729c-1.079,0-1.835,0.785-1.835,1.961s0.756,1.975,1.835,1.975c0.616,0,1.106-0.28,1.429-0.742
			l1.162,1.093c-0.447,0.616-1.288,1.232-2.675,1.232C649.541,156.006,648.028,154.535,648.028,152.448z"/>
		<path fill="#363636" d="M654.734,152.448c0-1.919,1.345-3.544,3.572-3.544c2.24,0,3.586,1.625,3.586,3.544
			c0,1.919-1.346,3.558-3.586,3.558C656.079,156.006,654.734,154.367,654.734,152.448z M660.043,152.448
			c0-1.051-0.616-1.961-1.736-1.961c-1.107,0-1.723,0.911-1.723,1.961c0,1.064,0.615,1.975,1.723,1.975
			C659.427,154.423,660.043,153.513,660.043,152.448z"/>
		<path fill="#363636" d="M667.504,155.838v-4.09c0-0.938-0.49-1.261-1.246-1.261c-0.7,0-1.232,0.393-1.541,0.785v4.566h-1.779
			v-6.766h1.779v0.869c0.435-0.504,1.275-1.037,2.367-1.037c1.499,0,2.213,0.84,2.213,2.157v4.776H667.504z"/>
		<path fill="#363636" d="M676.281,155.838v-7.592h-2.732v-1.751h7.453v1.751h-2.718v7.592H676.281z"/>
		<path fill="#363636" d="M684.148,155.838v-7.592h-2.73v-1.751h7.451v1.751h-2.717v7.592H684.148z"/>
		<path fill="#363636" d="M693.135,155.838v-6.766h1.779v0.911c0.49-0.588,1.316-1.079,2.158-1.079v1.737
			c-0.127-0.028-0.281-0.042-0.491-0.042c-0.588,0-1.372,0.336-1.667,0.771v4.468H693.135z"/>
		<path fill="#363636" d="M697.461,152.448c0-1.961,1.457-3.544,3.502-3.544c2.031,0,3.39,1.513,3.39,3.712v0.42h-5.028
			c0.126,0.827,0.799,1.513,1.947,1.513c0.574,0,1.358-0.237,1.793-0.658l0.798,1.177c-0.673,0.616-1.737,0.938-2.788,0.938
			C699.016,156.006,697.461,154.619,697.461,152.448z M700.963,150.361c-1.106,0-1.583,0.771-1.652,1.443h3.333
			C702.588,151.159,702.14,150.361,700.963,150.361z"/>
		<path fill="#363636" d="M704.908,152.448c0-2.255,1.261-3.544,2.984-3.544c0.826,0,1.568,0.364,2.086,1.022v-0.854h1.793v9.343
			h-1.793v-3.445c-0.546,0.7-1.273,1.036-2.086,1.036C706.169,156.006,704.908,154.703,704.908,152.448z M709.979,153.639v-2.381
			c-0.293-0.448-0.938-0.771-1.526-0.771c-1.009,0-1.709,0.799-1.709,1.961c0,1.177,0.7,1.975,1.709,1.975
			C709.041,154.423,709.686,154.073,709.979,153.639z"/>
		<path fill="#363636" d="M717.805,155.838v-0.854c-0.461,0.504-1.273,1.022-2.381,1.022c-1.484,0-2.186-0.812-2.186-2.129v-4.805
			h1.779v4.104c0,0.939,0.49,1.247,1.247,1.247c0.687,0,1.232-0.378,1.54-0.771v-4.58h1.779v6.766H717.805z"/>
		<path fill="#363636" d="M720.896,147.279c0-0.588,0.477-1.051,1.051-1.051c0.588,0,1.064,0.462,1.064,1.051
			s-0.477,1.064-1.064,1.064C721.373,148.344,720.896,147.868,720.896,147.279z M721.064,155.838v-6.766h1.779v6.766H721.064z"/>
		<path fill="#363636" d="M723.893,152.448c0-1.961,1.457-3.544,3.502-3.544c2.031,0,3.39,1.513,3.39,3.712v0.42h-5.028
			c0.126,0.827,0.799,1.513,1.947,1.513c0.574,0,1.358-0.237,1.793-0.658l0.798,1.177c-0.673,0.616-1.737,0.938-2.788,0.938
			C725.447,156.006,723.893,154.619,723.893,152.448z M727.395,150.361c-1.106,0-1.583,0.771-1.652,1.443h3.333
			C729.02,151.159,728.571,150.361,727.395,150.361z"/>
		<path fill="#363636" d="M731.788,155.838v-6.766h1.779v0.911c0.49-0.588,1.316-1.079,2.157-1.079v1.737
			c-0.127-0.028-0.28-0.042-0.49-0.042c-0.588,0-1.373,0.336-1.667,0.771v4.468H731.788z"/>
		<path fill="#363636" d="M736.113,152.448c0-1.961,1.457-3.544,3.502-3.544c2.031,0,3.391,1.513,3.391,3.712v0.42h-5.029
			c0.127,0.827,0.799,1.513,1.947,1.513c0.574,0,1.359-0.237,1.793-0.658l0.799,1.177c-0.673,0.616-1.737,0.938-2.788,0.938
			C737.668,156.006,736.113,154.619,736.113,152.448z M739.615,150.361c-1.105,0-1.582,0.771-1.652,1.443h3.334
			C741.24,151.159,740.793,150.361,739.615,150.361z"/>
		<path fill="#363636" d="M578.281,171.321l1.092-1.555c0.658,0.686,1.682,1.274,2.97,1.274c1.106,0,1.625-0.49,1.625-1.037
			c0-1.625-5.379-0.49-5.379-4.006c0-1.555,1.345-2.844,3.544-2.844c1.484,0,2.717,0.448,3.643,1.303l-1.107,1.485
			c-0.756-0.7-1.765-1.022-2.717-1.022c-0.841,0-1.317,0.364-1.317,0.924c0,1.471,5.365,0.477,5.365,3.965
			c0,1.709-1.233,2.997-3.74,2.997C580.451,172.806,579.163,172.203,578.281,171.321z"/>
		<path fill="#363636" d="M590.152,164.079c0-0.588,0.477-1.051,1.051-1.051c0.588,0,1.064,0.463,1.064,1.051
			s-0.477,1.064-1.064,1.064C590.629,165.144,590.152,164.667,590.152,164.079z M590.32,172.638v-6.766h1.779v6.766H590.32z"/>
		<path fill="#363636" d="M598.148,172.638v-4.09c0-0.938-0.49-1.261-1.246-1.261c-0.7,0-1.232,0.392-1.541,0.784v4.566h-1.779
			v-6.766h1.779v0.868c0.435-0.504,1.275-1.036,2.367-1.036c1.499,0,2.213,0.84,2.213,2.157v4.776H598.148z"/>
		<path fill="#363636" d="M601.772,170.942v-3.516h-1.12v-1.555h1.12v-1.849h1.778v1.849h1.373v1.555h-1.373v3.04
			c0,0.434,0.225,0.756,0.617,0.756c0.266,0,0.518-0.098,0.616-0.21l0.378,1.358c-0.266,0.238-0.742,0.435-1.484,0.435
			C602.432,172.806,601.772,172.161,601.772,170.942z"/>
		<path fill="#363636" d="M605.426,169.248c0-1.961,1.457-3.544,3.502-3.544c2.031,0,3.391,1.513,3.391,3.712v0.42h-5.029
			c0.127,0.827,0.799,1.513,1.947,1.513c0.574,0,1.359-0.237,1.793-0.658l0.799,1.177c-0.673,0.616-1.737,0.938-2.788,0.938
			C606.98,172.806,605.426,171.419,605.426,169.248z M608.928,167.161c-1.105,0-1.582,0.771-1.652,1.442h3.334
			C610.553,167.959,610.105,167.161,608.928,167.161z"/>
		<path fill="#363636" d="M613.322,172.638v-6.766h1.779v0.91c0.49-0.588,1.316-1.078,2.156-1.078v1.736
			c-0.126-0.027-0.279-0.042-0.49-0.042c-0.588,0-1.373,0.337-1.666,0.771v4.469H613.322z"/>
		<path fill="#363636" d="M619.833,172.638l-2.718-6.766h1.905l1.765,4.706l1.779-4.706h1.905l-2.718,6.766H619.833z"/>
		<path fill="#363636" d="M624.549,169.248c0-1.961,1.457-3.544,3.502-3.544c2.031,0,3.391,1.513,3.391,3.712v0.42h-5.029
			c0.127,0.827,0.799,1.513,1.947,1.513c0.574,0,1.359-0.237,1.793-0.658l0.799,1.177c-0.673,0.616-1.737,0.938-2.788,0.938
			C626.104,172.806,624.549,171.419,624.549,169.248z M628.051,167.161c-1.105,0-1.582,0.771-1.652,1.442h3.334
			C629.676,167.959,629.229,167.161,628.051,167.161z"/>
		<path fill="#363636" d="M637.012,172.638v-4.09c0-0.938-0.49-1.261-1.246-1.261c-0.701,0-1.232,0.392-1.541,0.784v4.566h-1.779
			v-6.766h1.779v0.868c0.434-0.504,1.274-1.036,2.367-1.036c1.498,0,2.213,0.84,2.213,2.157v4.776H637.012z"/>
		<path fill="#363636" d="M639.838,169.248c0-2.073,1.512-3.544,3.586-3.544c1.387,0,2.227,0.603,2.675,1.219l-1.163,1.093
			c-0.322-0.477-0.812-0.729-1.428-0.729c-1.079,0-1.836,0.784-1.836,1.961s0.757,1.975,1.836,1.975c0.615,0,1.105-0.28,1.428-0.742
			l1.163,1.093c-0.448,0.616-1.288,1.232-2.675,1.232C641.35,172.806,639.838,171.335,639.838,169.248z"/>
		<path fill="#363636" d="M646.809,164.079c0-0.588,0.477-1.051,1.051-1.051c0.588,0,1.064,0.463,1.064,1.051
			s-0.477,1.064-1.064,1.064C647.285,165.144,646.809,164.667,646.809,164.079z M646.977,172.638v-6.766h1.779v6.766H646.977z"/>
		<path fill="#363636" d="M649.805,169.248c0-1.919,1.346-3.544,3.572-3.544c2.241,0,3.586,1.625,3.586,3.544
			s-1.345,3.558-3.586,3.558C651.15,172.806,649.805,171.167,649.805,169.248z M655.114,169.248c0-1.051-0.616-1.961-1.737-1.961
			c-1.106,0-1.723,0.91-1.723,1.961c0,1.064,0.616,1.975,1.723,1.975C654.498,171.223,655.114,170.312,655.114,169.248z
			 M653.489,164.85h-1.247l1.877-2.018h1.639L653.489,164.85z"/>
		<path fill="#363636" d="M662.575,172.638v-4.09c0-0.938-0.49-1.261-1.247-1.261c-0.699,0-1.232,0.392-1.54,0.784v4.566h-1.779
			v-6.766h1.779v0.868c0.435-0.504,1.274-1.036,2.367-1.036c1.499,0,2.213,0.84,2.213,2.157v4.776H662.575z"/>
	</g>
</g>
<rect x="768" fill="#181716" stroke="#FFFFFF" stroke-width="2" stroke-miterlimit="10" width="192" height="137"/>
<g>
	<path fill="#FFFFFF" d="M807.041,36.362c0-8.239,6.239-13.798,14.438-13.798c6.439,0,9.918,3.639,11.639,7.119l-5.92,2.839
		c-0.879-2.12-3.158-3.879-5.719-3.879c-4.359,0-7.438,3.32-7.438,7.719c0,4.358,3.079,7.719,7.438,7.719
		c2.561,0,4.84-1.76,5.719-3.88l5.92,2.8c-1.721,3.399-5.199,7.158-11.639,7.158C813.28,50.159,807.041,44.561,807.041,36.362z"/>
	<path fill="#FFFFFF" d="M833.922,36.362c0-8.119,6.118-13.798,14.277-13.798c8.158,0,14.237,5.679,14.237,13.798
		c0,8.118-6.079,13.797-14.237,13.797C840.04,50.159,833.922,44.48,833.922,36.362z M855.438,36.362c0-4.359-2.84-7.719-7.238-7.719
		c-4.4,0-7.279,3.36-7.279,7.719c0,4.319,2.879,7.719,7.279,7.719C852.598,44.081,855.438,40.682,855.438,36.362z"/>
	<path fill="#FFFFFF" d="M806.47,86.884c0-3.655,2.755-6.212,6.428-6.212s6.41,2.557,6.41,6.212s-2.737,6.212-6.41,6.212
		S806.47,90.539,806.47,86.884z M816.156,86.884c0-1.962-1.278-3.475-3.259-3.475s-3.276,1.513-3.276,3.475
		c0,1.945,1.296,3.476,3.276,3.476S816.156,88.829,816.156,86.884z"/>
	<path fill="#FFFFFF" d="M823.211,91.854v4.34h-2.773v-12.01h2.773v1.008c0.684-0.828,1.584-1.225,2.574-1.225
		c2.18,0,3.817,1.621,3.817,4.556c0,2.953-1.638,4.573-3.817,4.573C824.813,93.096,823.932,92.718,823.211,91.854z M826.775,88.522
		c0-1.296-0.828-2.106-1.908-2.106c-0.594,0-1.314,0.324-1.656,0.792v2.647c0.342,0.449,1.062,0.792,1.656,0.792
		C825.947,90.647,826.775,89.837,826.775,88.522z"/>
	<path fill="#FFFFFF" d="M835.811,92.88v-0.864c-0.54,0.648-1.584,1.08-2.701,1.08c-1.332,0-2.988-0.918-2.988-2.862
		c0-2.106,1.656-2.81,2.988-2.81c1.152,0,2.18,0.379,2.701,1.026v-0.864c0-0.756-0.648-1.278-1.764-1.278
		c-0.865,0-1.729,0.343-2.432,0.937l-1.025-1.927c1.115-0.954,2.609-1.351,3.942-1.351c2.089,0,4.052,0.774,4.052,3.476v5.438
		H835.811z M835.811,90.647v-0.774c-0.288-0.414-0.936-0.612-1.549-0.612c-0.72,0-1.386,0.324-1.386,1.009
		c0,0.684,0.666,1.008,1.386,1.008C834.875,91.277,835.522,91.062,835.811,90.647z"/>
	<path fill="#FFFFFF" d="M839.68,88.522c0-2.719,2.016-4.556,4.734-4.556c1.891,0,3.043,0.829,3.565,1.603l-1.8,1.675
		c-0.343-0.504-0.9-0.828-1.639-0.828c-1.152,0-2.035,0.792-2.035,2.106s0.883,2.125,2.035,2.125c0.738,0,1.296-0.36,1.639-0.847
		l1.8,1.692c-0.522,0.757-1.675,1.603-3.565,1.603C841.695,93.096,839.68,91.241,839.68,88.522z"/>
	<path fill="#FFFFFF" d="M848.68,81.807c0-0.883,0.701-1.585,1.584-1.585s1.603,0.702,1.603,1.585c0,0.882-0.72,1.603-1.603,1.603
		S848.68,82.688,848.68,81.807z M848.877,92.88v-8.696h2.773v8.696H848.877z"/>
	<path fill="#FFFFFF" d="M859.157,92.88v-1.009c-0.72,0.829-1.603,1.225-2.575,1.225c-2.143,0-3.834-1.62-3.834-4.573
		c0-2.845,1.656-4.556,3.834-4.556c0.955,0,1.891,0.379,2.575,1.243v-4.34h2.755v12.01H859.157z M859.157,89.855V87.19
		c-0.36-0.469-1.08-0.774-1.675-0.774c-1.098,0-1.908,0.811-1.908,2.106c0,1.297,0.811,2.125,1.908,2.125
		C858.077,90.647,858.797,90.323,859.157,89.855z"/>
	<path fill="#FFFFFF" d="M868.715,92.88v-0.864c-0.541,0.648-1.585,1.08-2.701,1.08c-1.332,0-2.988-0.918-2.988-2.862
		c0-2.106,1.656-2.81,2.988-2.81c1.152,0,2.179,0.379,2.701,1.026v-0.864c0-0.756-0.648-1.278-1.765-1.278
		c-0.864,0-1.729,0.343-2.431,0.937l-1.026-1.927c1.116-0.954,2.61-1.351,3.942-1.351c2.09,0,4.052,0.774,4.052,3.476v5.438H868.715
		z M868.715,90.647v-0.774c-0.289-0.414-0.937-0.612-1.549-0.612c-0.721,0-1.387,0.324-1.387,1.009c0,0.684,0.666,1.008,1.387,1.008
		C867.778,91.277,868.426,91.062,868.715,90.647z"/>
	<path fill="#FFFFFF" d="M878.992,92.88v-1.009c-0.72,0.829-1.602,1.225-2.574,1.225c-2.143,0-3.835-1.62-3.835-4.573
		c0-2.845,1.656-4.556,3.835-4.556c0.955,0,1.891,0.379,2.574,1.243v-4.34h2.756v12.01H878.992z M878.992,89.855V87.19
		c-0.359-0.469-1.08-0.774-1.674-0.774c-1.098,0-1.908,0.811-1.908,2.106c0,1.297,0.811,2.125,1.908,2.125
		C877.912,90.647,878.633,90.323,878.992,89.855z"/>
	<path fill="#FFFFFF" d="M806.47,108.483c0-3.709,2.809-6.212,6.5-6.212c2.899,0,4.466,1.639,5.239,3.205l-2.664,1.278
		c-0.396-0.954-1.423-1.746-2.575-1.746c-1.963,0-3.349,1.494-3.349,3.475c0,1.963,1.386,3.476,3.349,3.476
		c1.152,0,2.179-0.793,2.575-1.747l2.664,1.261c-0.773,1.53-2.34,3.223-5.239,3.223C809.278,114.695,806.47,112.175,806.47,108.483z
		"/>
	<path fill="#FFFFFF" d="M818.547,110.122c0-2.448,1.766-4.556,4.718-4.556c2.989,0,4.753,2.107,4.753,4.556
		c0,2.449-1.764,4.573-4.753,4.573C820.312,114.695,818.547,112.571,818.547,110.122z M825.174,110.122
		c0-1.152-0.685-2.106-1.909-2.106c-1.188,0-1.872,0.954-1.872,2.106c0,1.171,0.684,2.125,1.872,2.125
		C824.489,112.247,825.174,111.293,825.174,110.122z"/>
	<path fill="#FFFFFF" d="M829.113,114.479v-8.696h2.772v1.062c0.576-0.703,1.692-1.297,2.719-1.297v2.665
		c-0.162-0.055-0.396-0.072-0.685-0.072c-0.72,0-1.674,0.306-2.034,0.792v5.546H829.113z"/>
	<path fill="#FFFFFF" d="M841.391,114.479v-5.023c0-1.062-0.559-1.44-1.422-1.44c-0.828,0-1.369,0.45-1.693,0.846v5.618h-2.772
		v-8.696h2.772v1.062c0.522-0.612,1.549-1.279,3.025-1.279c1.963,0,2.863,1.152,2.863,2.755v6.158H841.391z"/>
	<path fill="#FFFFFF" d="M845.259,110.122c0-2.521,1.891-4.556,4.609-4.556c2.575,0,4.447,1.891,4.447,4.844v0.63h-6.194
		c0.199,0.774,0.919,1.423,2.18,1.423c0.611,0,1.62-0.271,2.124-0.738l1.206,1.818c-0.863,0.774-2.305,1.152-3.637,1.152
		C847.312,114.695,845.259,112.949,845.259,110.122z M849.868,107.8c-1.206,0-1.675,0.72-1.782,1.351h3.582
		C851.597,108.538,851.146,107.8,849.868,107.8z"/>
	<path fill="#FFFFFF" d="M860.452,114.479v-0.864c-0.54,0.648-1.585,1.08-2.7,1.08c-1.333,0-2.989-0.918-2.989-2.862
		c0-2.106,1.656-2.81,2.989-2.81c1.152,0,2.178,0.379,2.7,1.026v-0.864c0-0.756-0.647-1.278-1.765-1.278
		c-0.863,0-1.729,0.343-2.43,0.937l-1.027-1.927c1.117-0.954,2.611-1.351,3.943-1.351c2.089,0,4.051,0.774,4.051,3.476v5.438
		H860.452z M860.452,112.247v-0.774c-0.288-0.414-0.937-0.612-1.548-0.612c-0.721,0-1.387,0.324-1.387,1.009
		c0,0.684,0.666,1.008,1.387,1.008C859.516,112.877,860.164,112.661,860.452,112.247z"/>
	<path fill="#FFFFFF" d="M864.879,114.479v-12.01h2.772v12.01H864.879z"/>
</g>
<polygon fill="#2C2136" stroke="#FFFFFF" stroke-width="2" stroke-miterlimit="10" points="795.491,65.5 768,38.009 768,0 576,0 
	576,137 768,137 768,92.991 "/>
<polygon fill="#3C2A4F" stroke="#FFFFFF" stroke-width="2" stroke-miterlimit="10" points="603.491,65.5 576,38.009 576,0 384,0 
	384,137 576,137 576,92.991 "/>
<g>
	<path fill="#FFFFFF" d="M630.359,49.68V29.003h-7.479v-5.999h21.797v5.999h-7.439V49.68H630.359z"/>
	<path fill="#FFFFFF" d="M653.119,49.68V29.003h-7.479v-5.999h21.797v5.999h-7.439V49.68H653.119z"/>
	<path fill="#FFFFFF" d="M625.765,92.88v-9.309h-3.367V80.87h9.813v2.701h-3.35v9.309H625.765z"/>
	<path fill="#FFFFFF" d="M633.252,92.88v-8.696h2.772v1.062c0.576-0.703,1.692-1.297,2.719-1.297v2.665
		c-0.162-0.055-0.396-0.072-0.685-0.072c-0.72,0-1.674,0.306-2.034,0.792v5.546H633.252z"/>
	<path fill="#FFFFFF" d="M639.443,81.807c0-0.883,0.701-1.585,1.584-1.585s1.603,0.702,1.603,1.585c0,0.882-0.72,1.603-1.603,1.603
		S639.443,82.688,639.443,81.807z M639.641,92.88v-8.696h2.773v8.696H639.641z"/>
	<path fill="#FFFFFF" d="M643.493,88.522c0-2.935,1.639-4.556,3.835-4.556c0.973,0,1.873,0.396,2.557,1.225v-1.008h2.773v12.01
		h-2.773v-4.34c-0.72,0.864-1.602,1.242-2.557,1.242C645.132,93.096,643.493,91.476,643.493,88.522z M649.885,89.855v-2.647
		c-0.342-0.468-1.062-0.792-1.639-0.792c-1.098,0-1.926,0.811-1.926,2.106c0,1.314,0.828,2.125,1.926,2.125
		C648.822,90.647,649.561,90.305,649.885,89.855z"/>
	<path fill="#FFFFFF" d="M660.181,92.88v-1.044c-0.54,0.611-1.53,1.26-3.007,1.26c-1.963,0-2.863-1.134-2.863-2.719v-6.193h2.773
		v5.041c0,1.062,0.54,1.423,1.44,1.423c0.792,0,1.333-0.433,1.656-0.847v-5.617h2.772v8.696H660.181z"/>
	<path fill="#FFFFFF" d="M664.408,81.807c0-0.883,0.703-1.585,1.585-1.585s1.603,0.702,1.603,1.585c0,0.882-0.721,1.603-1.603,1.603
		S664.408,82.688,664.408,81.807z M664.607,92.88v-8.696h2.772v8.696H664.607z"/>
	<path fill="#FFFFFF" d="M674.166,92.88v-0.864c-0.541,0.648-1.585,1.08-2.701,1.08c-1.332,0-2.988-0.918-2.988-2.862
		c0-2.106,1.656-2.81,2.988-2.81c1.152,0,2.179,0.379,2.701,1.026v-0.864c0-0.756-0.648-1.278-1.765-1.278
		c-0.864,0-1.729,0.343-2.431,0.937l-1.026-1.927c1.116-0.954,2.61-1.351,3.942-1.351c2.09,0,4.052,0.774,4.052,3.476v5.438H674.166
		z M674.166,90.647v-0.774c-0.289-0.414-0.937-0.612-1.549-0.612c-0.721,0-1.387,0.324-1.387,1.009c0,0.684,0.666,1.008,1.387,1.008
		C673.229,91.277,673.877,91.062,674.166,90.647z"/>
	<path fill="#FFFFFF" d="M677.854,91.745l1.152-1.98c0.648,0.576,2.035,1.171,3.062,1.171c0.828,0,1.171-0.234,1.171-0.612
		c0-1.08-5.061,0.036-5.061-3.493c0-1.53,1.333-2.863,3.728-2.863c1.477,0,2.7,0.469,3.638,1.152l-1.062,1.963
		c-0.522-0.504-1.513-0.954-2.557-0.954c-0.648,0-1.081,0.252-1.081,0.594c0,0.955,5.042-0.036,5.042,3.529
		c0,1.656-1.459,2.845-3.943,2.845C680.375,93.096,678.772,92.574,677.854,91.745z"/>
	<path fill="#FFFFFF" d="M686.746,81.807c0-0.883,0.703-1.585,1.584-1.585c0.883,0,1.604,0.702,1.604,1.585
		c0,0.882-0.721,1.603-1.604,1.603C687.449,83.409,686.746,82.688,686.746,81.807z M686.944,92.88v-8.696h2.772v8.696H686.944z"/>
	<path fill="#FFFFFF" d="M690.634,91.745l1.152-1.98c0.648,0.576,2.034,1.171,3.062,1.171c0.828,0,1.17-0.234,1.17-0.612
		c0-1.08-5.06,0.036-5.06-3.493c0-1.53,1.333-2.863,3.728-2.863c1.477,0,2.7,0.469,3.637,1.152l-1.062,1.963
		c-0.521-0.504-1.512-0.954-2.557-0.954c-0.648,0-1.08,0.252-1.08,0.594c0,0.955,5.041-0.036,5.041,3.529
		c0,1.656-1.459,2.845-3.943,2.845C693.154,93.096,691.553,92.574,690.634,91.745z"/>
	<path fill="#FFFFFF" d="M625.765,114.479v-9.309h-3.367v-2.701h9.813v2.701h-3.35v9.309H625.765z"/>
	<path fill="#FFFFFF" d="M633.252,114.479v-8.696h2.772v1.062c0.576-0.703,1.692-1.297,2.719-1.297v2.665
		c-0.162-0.055-0.396-0.072-0.685-0.072c-0.72,0-1.674,0.306-2.034,0.792v5.546H633.252z"/>
	<path fill="#FFFFFF" d="M644.772,114.479v-0.864c-0.54,0.648-1.585,1.08-2.7,1.08c-1.333,0-2.989-0.918-2.989-2.862
		c0-2.106,1.656-2.81,2.989-2.81c1.152,0,2.178,0.379,2.7,1.026v-0.864c0-0.756-0.647-1.278-1.765-1.278
		c-0.863,0-1.729,0.343-2.43,0.937l-1.027-1.927c1.117-0.954,2.611-1.351,3.943-1.351c2.089,0,4.051,0.774,4.051,3.476v5.438
		H644.772z M644.772,112.247v-0.774c-0.288-0.414-0.937-0.612-1.548-0.612c-0.721,0-1.387,0.324-1.387,1.009
		c0,0.684,0.666,1.008,1.387,1.008C643.836,112.877,644.484,112.661,644.772,112.247z"/>
	<path fill="#FFFFFF" d="M648.641,110.122c0-2.719,2.018-4.556,4.736-4.556c1.891,0,3.043,0.829,3.564,1.603l-1.801,1.675
		c-0.342-0.504-0.9-0.828-1.639-0.828c-1.152,0-2.034,0.792-2.034,2.106s0.882,2.125,2.034,2.125c0.738,0,1.297-0.36,1.639-0.847
		l1.801,1.692c-0.521,0.757-1.674,1.603-3.564,1.603C650.658,114.695,648.641,112.841,648.641,110.122z"/>
	<path fill="#FFFFFF" d="M657.281,110.122c0-2.448,1.765-4.556,4.717-4.556c2.989,0,4.754,2.107,4.754,4.556
		c0,2.449-1.765,4.573-4.754,4.573C659.046,114.695,657.281,112.571,657.281,110.122z M663.907,110.122
		c0-1.152-0.685-2.106-1.909-2.106c-1.188,0-1.872,0.954-1.872,2.106c0,1.171,0.685,2.125,1.872,2.125
		C663.223,112.247,663.907,111.293,663.907,110.122z"/>
	<path fill="#FFFFFF" d="M678.812,114.479v-5.294c0-0.666-0.324-1.17-1.152-1.17c-0.756,0-1.297,0.486-1.566,0.846v5.618h-2.773
		v-5.294c0-0.666-0.306-1.17-1.134-1.17c-0.757,0-1.278,0.486-1.566,0.846v5.618h-2.772v-8.696h2.772v1.062
		c0.378-0.505,1.494-1.279,2.862-1.279c1.261,0,2.107,0.522,2.467,1.549c0.504-0.756,1.639-1.549,3.008-1.549
		c1.602,0,2.61,0.829,2.61,2.611v6.302H678.812z"/>
	<path fill="#FFFFFF" d="M688.368,114.479v-0.864c-0.54,0.648-1.585,1.08-2.7,1.08c-1.333,0-2.989-0.918-2.989-2.862
		c0-2.106,1.656-2.81,2.989-2.81c1.152,0,2.178,0.379,2.7,1.026v-0.864c0-0.756-0.647-1.278-1.765-1.278
		c-0.863,0-1.729,0.343-2.43,0.937l-1.027-1.927c1.117-0.954,2.611-1.351,3.943-1.351c2.089,0,4.051,0.774,4.051,3.476v5.438
		H688.368z M688.368,112.247v-0.774c-0.288-0.414-0.937-0.612-1.548-0.612c-0.721,0-1.387,0.324-1.387,1.009
		c0,0.684,0.666,1.008,1.387,1.008C687.432,112.877,688.08,112.661,688.368,112.247z"/>
	<path fill="#FFFFFF" d="M693.371,112.139v-3.961h-1.44v-2.395h1.44v-2.377h2.773v2.377h1.764v2.395h-1.764v3.187
		c0,0.505,0.287,0.883,0.756,0.883c0.306,0,0.611-0.108,0.702-0.216l0.54,2.088c-0.342,0.324-1.026,0.576-2.053,0.576
		C694.325,114.695,693.371,113.813,693.371,112.139z"/>
	<path fill="#FFFFFF" d="M698.357,110.122c0-2.448,1.764-4.556,4.717-4.556c2.988,0,4.754,2.107,4.754,4.556
		c0,2.449-1.766,4.573-4.754,4.573C700.121,114.695,698.357,112.571,698.357,110.122z M704.982,110.122
		c0-1.152-0.684-2.106-1.908-2.106c-1.188,0-1.873,0.954-1.873,2.106c0,1.171,0.685,2.125,1.873,2.125
		C704.299,112.247,704.982,111.293,704.982,110.122z"/>
	<path fill="#FFFFFF" d="M708.184,113.345l1.152-1.98c0.648,0.576,2.035,1.171,3.062,1.171c0.828,0,1.171-0.234,1.171-0.612
		c0-1.08-5.061,0.036-5.061-3.493c0-1.53,1.333-2.863,3.728-2.863c1.477,0,2.7,0.469,3.638,1.152l-1.062,1.963
		c-0.522-0.504-1.513-0.954-2.557-0.954c-0.648,0-1.081,0.252-1.081,0.594c0,0.955,5.042-0.036,5.042,3.529
		c0,1.656-1.459,2.845-3.943,2.845C710.705,114.695,709.103,114.174,708.184,113.345z"/>
	<path fill="#FFFFFF" d="M722.406,114.479v-0.864c-0.541,0.648-1.585,1.08-2.701,1.08c-1.332,0-2.988-0.918-2.988-2.862
		c0-2.106,1.656-2.81,2.988-2.81c1.152,0,2.179,0.379,2.701,1.026v-0.864c0-0.756-0.648-1.278-1.765-1.278
		c-0.864,0-1.729,0.343-2.431,0.937l-1.026-1.927c1.116-0.954,2.61-1.351,3.942-1.351c2.09,0,4.052,0.774,4.052,3.476v5.438H722.406
		z M722.406,112.247v-0.774c-0.289-0.414-0.937-0.612-1.549-0.612c-0.721,0-1.387,0.324-1.387,1.009
		c0,0.684,0.666,1.008,1.387,1.008C721.47,112.877,722.117,112.661,722.406,112.247z"/>
</g>
<polygon fill="#563779" stroke="#FFFFFF" stroke-width="2" stroke-miterlimit="10" points="411.491,65.5 384,38.009 384,0 192,0 
	192,137 384,137 384,92.991 "/>
<polygon fill="#653F91" stroke="#FFFFFF" stroke-width="2" stroke-miterlimit="10" points="219.491,65.5 192,38.009 192,0 0,0 
	0,137 192,137 192,92.991 "/>
<g>
	<path fill="#FFFFFF" d="M44.359,49.68V29.003h-7.479v-5.999h21.796v5.999h-7.439V49.68H44.359z"/>
	<path fill="#FFFFFF" d="M61.16,49.68V23.004h19.557v5.999H68.039v4.159h12.398v5.999H68.039V49.68H61.16z"/>
	<path fill="#FFFFFF" d="M37.081,71.279V59.27h3.097v12.01H37.081z"/>
	<path fill="#FFFFFF" d="M47.793,71.279v-5.023c0-1.062-0.558-1.44-1.422-1.44c-0.828,0-1.369,0.45-1.692,0.847v5.617h-2.773v-8.696
		h2.773v1.062c0.522-0.611,1.548-1.278,3.025-1.278c1.962,0,2.863,1.152,2.863,2.755v6.158H47.793z"/>
	<path fill="#FFFFFF" d="M52.813,71.279v-6.302h-1.44v-2.395h1.44v-0.198c0-2.161,1.386-3.295,3.115-3.295
		c0.756,0,1.404,0.107,1.854,0.342l-0.54,2.07c-0.162-0.126-0.432-0.18-0.738-0.18c-0.504,0-0.918,0.342-0.918,1.062v0.198h1.764
		v2.395h-1.764v6.302H52.813z M58.502,71.279V59.27h2.773v12.01H58.502z"/>
	<path fill="#FFFFFF" d="M68.06,71.279v-0.864c-0.54,0.648-1.584,1.08-2.701,1.08c-1.333,0-2.989-0.918-2.989-2.862
		c0-2.107,1.656-2.81,2.989-2.81c1.152,0,2.179,0.379,2.701,1.026v-0.864c0-0.756-0.648-1.278-1.764-1.278
		c-0.864,0-1.729,0.343-2.431,0.937l-1.026-1.927c1.116-0.954,2.61-1.351,3.943-1.351c2.089,0,4.051,0.774,4.051,3.476v5.438H68.06z
		 M68.06,69.047v-0.774c-0.288-0.414-0.936-0.612-1.548-0.612c-0.72,0-1.386,0.324-1.386,1.009c0,0.684,0.666,1.008,1.386,1.008
		C67.124,69.677,67.772,69.461,68.06,69.047z"/>
	<path fill="#FFFFFF" d="M83.452,71.279v-5.294c0-0.666-0.324-1.17-1.152-1.17c-0.756,0-1.296,0.486-1.566,0.847v5.617H77.96v-5.294
		c0-0.666-0.306-1.17-1.134-1.17c-0.756,0-1.278,0.486-1.566,0.847v5.617h-2.773v-8.696h2.773v1.062
		c0.378-0.504,1.494-1.278,2.863-1.278c1.26,0,2.106,0.522,2.467,1.549c0.504-0.756,1.638-1.549,3.007-1.549
		c1.603,0,2.611,0.829,2.611,2.611v6.302H83.452z"/>
	<path fill="#FFFFFF" d="M93.008,71.279v-0.864c-0.54,0.648-1.584,1.08-2.701,1.08c-1.333,0-2.989-0.918-2.989-2.862
		c0-2.107,1.656-2.81,2.989-2.81c1.152,0,2.179,0.379,2.701,1.026v-0.864c0-0.756-0.648-1.278-1.764-1.278
		c-0.864,0-1.729,0.343-2.431,0.937l-1.026-1.927c1.116-0.954,2.61-1.351,3.943-1.351c2.089,0,4.051,0.774,4.051,3.476v5.438H93.008
		z M93.008,69.047v-0.774c-0.288-0.414-0.936-0.612-1.548-0.612c-0.72,0-1.386,0.324-1.386,1.009c0,0.684,0.666,1.008,1.386,1.008
		C92.072,69.677,92.72,69.461,93.008,69.047z"/>
	<path fill="#FFFFFF" d="M96.876,66.922c0-2.719,2.017-4.556,4.735-4.556c1.891,0,3.043,0.829,3.565,1.603l-1.8,1.675
		c-0.342-0.504-0.9-0.828-1.639-0.828c-1.152,0-2.035,0.792-2.035,2.106s0.882,2.125,2.035,2.125c0.738,0,1.296-0.36,1.639-0.847
		l1.8,1.692c-0.522,0.757-1.674,1.603-3.565,1.603C98.893,71.495,96.876,69.641,96.876,66.922z"/>
	<path fill="#FFFFFF" d="M105.876,60.206c0-0.882,0.703-1.585,1.584-1.585c0.882,0,1.603,0.703,1.603,1.585s-0.72,1.603-1.603,1.603
		C106.579,61.809,105.876,61.088,105.876,60.206z M106.075,71.279v-8.696h2.773v8.696H106.075z"/>
	<path fill="#FFFFFF" d="M109.944,66.922c0-2.448,1.765-4.556,4.717-4.556c2.989,0,4.753,2.107,4.753,4.556
		c0,2.449-1.765,4.573-4.753,4.573C111.709,71.495,109.944,69.371,109.944,66.922z M116.57,66.922c0-1.152-0.684-2.106-1.909-2.106
		c-1.188,0-1.873,0.954-1.873,2.106c0,1.171,0.684,2.125,1.873,2.125C115.886,69.047,116.57,68.093,116.57,66.922z M114.932,61.269
		h-1.873l2.287-2.593h2.449L114.932,61.269z"/>
	<path fill="#FFFFFF" d="M126.397,71.279v-5.023c0-1.062-0.558-1.44-1.422-1.44c-0.828,0-1.369,0.45-1.692,0.847v5.617h-2.773
		v-8.696h2.773v1.062c0.522-0.611,1.548-1.278,3.025-1.278c1.962,0,2.863,1.152,2.863,2.755v6.158H126.397z"/>
	<path fill="#FFFFFF" d="M134.604,68.074v-2.322h9.597v2.322H134.604z"/>
	<path fill="#FFFFFF" d="M37.081,92.88V80.87h8.805v2.701h-5.708v1.872h5.582v2.701h-5.582v4.735H37.081z"/>
	<path fill="#FFFFFF" d="M46.567,88.522c0-2.448,1.765-4.556,4.717-4.556c2.989,0,4.753,2.107,4.753,4.556
		c0,2.449-1.765,4.573-4.753,4.573C48.332,93.096,46.567,90.972,46.567,88.522z M53.193,88.522c0-1.152-0.684-2.106-1.909-2.106
		c-1.188,0-1.873,0.954-1.873,2.106c0,1.171,0.684,2.125,1.873,2.125C52.509,90.647,53.193,89.693,53.193,88.522z"/>
	<path fill="#FFFFFF" d="M57.132,92.88V80.87h2.773v12.01H57.132z"/>
	<path fill="#FFFFFF" d="M61.362,81.807c0-0.883,0.703-1.585,1.584-1.585c0.882,0,1.603,0.702,1.603,1.585
		c0,0.882-0.72,1.603-1.603,1.603C62.064,83.409,61.362,82.688,61.362,81.807z M61.56,92.88v-8.696h2.773v8.696H61.56z"/>
	<path fill="#FFFFFF" d="M65.43,88.522c0-2.719,2.017-4.556,4.735-4.556c1.891,0,3.043,0.829,3.565,1.603l-1.8,1.675
		c-0.342-0.504-0.9-0.828-1.639-0.828c-1.152,0-2.035,0.792-2.035,2.106s0.882,2.125,2.035,2.125c0.738,0,1.296-0.36,1.639-0.847
		l1.8,1.692c-0.522,0.757-1.674,1.603-3.565,1.603C67.447,93.096,65.43,91.241,65.43,88.522z"/>
	<path fill="#FFFFFF" d="M80.498,92.88v-1.044c-0.54,0.611-1.53,1.26-3.007,1.26c-1.962,0-2.863-1.134-2.863-2.719v-6.193h2.773
		v5.041c0,1.062,0.54,1.423,1.44,1.423c0.792,0,1.332-0.433,1.656-0.847v-5.617h2.773v8.696H80.498z"/>
	<path fill="#FFFFFF" d="M84.924,92.88V80.87h2.773v12.01H84.924z"/>
	<path fill="#FFFFFF" d="M94.483,92.88v-0.864c-0.54,0.648-1.584,1.08-2.701,1.08c-1.333,0-2.989-0.918-2.989-2.862
		c0-2.106,1.656-2.81,2.989-2.81c1.152,0,2.179,0.379,2.701,1.026v-0.864c0-0.756-0.648-1.278-1.764-1.278
		c-0.864,0-1.729,0.343-2.431,0.937l-1.026-1.927c1.116-0.954,2.61-1.351,3.943-1.351c2.089,0,4.051,0.774,4.051,3.476v5.438H94.483
		z M94.483,90.647v-0.774c-0.288-0.414-0.936-0.612-1.548-0.612c-0.72,0-1.386,0.324-1.386,1.009c0,0.684,0.666,1.008,1.386,1.008
		C93.547,91.277,94.195,91.062,94.483,90.647z"/>
	<path fill="#FFFFFF" d="M98.91,92.88v-8.696h2.773v1.062c0.576-0.703,1.692-1.297,2.719-1.297v2.665
		c-0.162-0.055-0.396-0.072-0.684-0.072c-0.72,0-1.675,0.306-2.035,0.792v5.546H98.91z"/>
	<path fill="#FFFFFF" d="M39.764,114.479v-9.309h-3.367v-2.701h9.813v2.701h-3.349v9.309H39.764z"/>
	<path fill="#FFFFFF" d="M47.251,114.479v-8.696h2.773v1.062c0.576-0.703,1.692-1.297,2.719-1.297v2.665
		c-0.162-0.055-0.396-0.072-0.684-0.072c-0.72,0-1.675,0.306-2.035,0.792v5.546H47.251z"/>
	<path fill="#FFFFFF" d="M58.772,114.479v-0.864c-0.54,0.648-1.584,1.08-2.701,1.08c-1.333,0-2.989-0.918-2.989-2.862
		c0-2.106,1.656-2.81,2.989-2.81c1.152,0,2.179,0.379,2.701,1.026v-0.864c0-0.756-0.648-1.278-1.764-1.278
		c-0.864,0-1.729,0.343-2.431,0.937l-1.026-1.927c1.116-0.954,2.61-1.351,3.943-1.351c2.089,0,4.051,0.774,4.051,3.476v5.438H58.772
		z M58.772,112.247v-0.774c-0.288-0.414-0.936-0.612-1.548-0.612c-0.72,0-1.386,0.324-1.386,1.009c0,0.684,0.666,1.008,1.386,1.008
		C57.836,112.877,58.484,112.661,58.772,112.247z"/>
	<path fill="#FFFFFF" d="M62.641,110.122c0-2.719,2.017-4.556,4.735-4.556c1.891,0,3.043,0.829,3.565,1.603l-1.8,1.675
		c-0.342-0.504-0.9-0.828-1.639-0.828c-1.152,0-2.035,0.792-2.035,2.106s0.882,2.125,2.035,2.125c0.738,0,1.296-0.36,1.639-0.847
		l1.8,1.692c-0.522,0.757-1.674,1.603-3.565,1.603C64.657,114.695,62.641,112.841,62.641,110.122z"/>
	<path fill="#FFFFFF" d="M71.281,110.122c0-2.448,1.765-4.556,4.717-4.556c2.989,0,4.753,2.107,4.753,4.556
		c0,2.449-1.765,4.573-4.753,4.573C73.045,114.695,71.281,112.571,71.281,110.122z M77.907,110.122c0-1.152-0.684-2.106-1.909-2.106
		c-1.188,0-1.873,0.954-1.873,2.106c0,1.171,0.684,2.125,1.873,2.125C77.223,112.247,77.907,111.293,77.907,110.122z"/>
	<path fill="#FFFFFF" d="M92.812,114.479v-5.294c0-0.666-0.324-1.17-1.152-1.17c-0.756,0-1.296,0.486-1.566,0.846v5.618H87.32
		v-5.294c0-0.666-0.306-1.17-1.134-1.17c-0.756,0-1.278,0.486-1.566,0.846v5.618h-2.773v-8.696h2.773v1.062
		c0.378-0.505,1.494-1.279,2.863-1.279c1.26,0,2.106,0.522,2.467,1.549c0.504-0.756,1.638-1.549,3.007-1.549
		c1.603,0,2.611,0.829,2.611,2.611v6.302H92.812z"/>
	<path fill="#FFFFFF" d="M102.368,114.479v-0.864c-0.54,0.648-1.584,1.08-2.701,1.08c-1.333,0-2.989-0.918-2.989-2.862
		c0-2.106,1.656-2.81,2.989-2.81c1.152,0,2.179,0.379,2.701,1.026v-0.864c0-0.756-0.648-1.278-1.764-1.278
		c-0.864,0-1.729,0.343-2.431,0.937l-1.026-1.927c1.116-0.954,2.61-1.351,3.943-1.351c2.089,0,4.051,0.774,4.051,3.476v5.438
		H102.368z M102.368,112.247v-0.774c-0.288-0.414-0.936-0.612-1.548-0.612c-0.72,0-1.386,0.324-1.386,1.009
		c0,0.684,0.666,1.008,1.386,1.008C101.432,112.877,102.08,112.661,102.368,112.247z"/>
	<path fill="#FFFFFF" d="M107.371,112.139v-3.961h-1.44v-2.395h1.44v-2.377h2.773v2.377h1.765v2.395h-1.765v3.187
		c0,0.505,0.288,0.883,0.756,0.883c0.306,0,0.612-0.108,0.703-0.216l0.54,2.088c-0.342,0.324-1.026,0.576-2.053,0.576
		C108.325,114.695,107.371,113.813,107.371,112.139z"/>
	<path fill="#FFFFFF" d="M112.356,110.122c0-2.448,1.765-4.556,4.717-4.556c2.989,0,4.753,2.107,4.753,4.556
		c0,2.449-1.765,4.573-4.753,4.573C114.121,114.695,112.356,112.571,112.356,110.122z M118.982,110.122
		c0-1.152-0.684-2.106-1.909-2.106c-1.188,0-1.873,0.954-1.873,2.106c0,1.171,0.684,2.125,1.873,2.125
		C118.298,112.247,118.982,111.293,118.982,110.122z"/>
	<path fill="#FFFFFF" d="M122.184,113.345l1.152-1.98c0.648,0.576,2.035,1.171,3.061,1.171c0.828,0,1.17-0.234,1.17-0.612
		c0-1.08-5.06,0.036-5.06-3.493c0-1.53,1.333-2.863,3.727-2.863c1.477,0,2.701,0.469,3.637,1.152l-1.062,1.963
		c-0.522-0.504-1.512-0.954-2.557-0.954c-0.648,0-1.081,0.252-1.081,0.594c0,0.955,5.042-0.036,5.042,3.529
		c0,1.656-1.458,2.845-3.943,2.845C124.705,114.695,123.102,114.174,122.184,113.345z"/>
	<path fill="#FFFFFF" d="M136.405,114.479v-0.864c-0.54,0.648-1.584,1.08-2.701,1.08c-1.333,0-2.989-0.918-2.989-2.862
		c0-2.106,1.656-2.81,2.989-2.81c1.152,0,2.179,0.379,2.701,1.026v-0.864c0-0.756-0.648-1.278-1.764-1.278
		c-0.864,0-1.729,0.343-2.431,0.937l-1.026-1.927c1.116-0.954,2.611-1.351,3.943-1.351c2.089,0,4.051,0.774,4.051,3.476v5.438
		H136.405z M136.405,112.247v-0.774c-0.288-0.414-0.936-0.612-1.548-0.612c-0.72,0-1.386,0.324-1.386,1.009
		c0,0.684,0.666,1.008,1.386,1.008C135.469,112.877,136.117,112.661,136.405,112.247z"/>
</g>
<g>
	<path fill="#FFFFFF" d="M246.36,49.68V29.003h-7.479v-5.999h21.796v5.999h-7.439V49.68H246.36z"/>
	<path fill="#FFFFFF" d="M263.161,49.68V23.004h6.879V49.68H263.161z"/>
	<path fill="#FFFFFF" d="M239.082,71.279V59.27h3.097v12.01H239.082z"/>
	<path fill="#FFFFFF" d="M249.793,71.279v-5.023c0-1.062-0.558-1.44-1.422-1.44c-0.828,0-1.369,0.45-1.692,0.847v5.617h-2.773
		v-8.696h2.773v1.062c0.522-0.611,1.548-1.278,3.025-1.278c1.962,0,2.863,1.152,2.863,2.755v6.158H249.793z"/>
	<path fill="#FFFFFF" d="M254.813,71.279v-6.302h-1.44v-2.395h1.44v-0.198c0-2.161,1.386-3.295,3.115-3.295
		c0.756,0,1.404,0.107,1.854,0.342l-0.54,2.07c-0.162-0.126-0.432-0.18-0.738-0.18c-0.504,0-0.918,0.342-0.918,1.062v0.198h1.764
		v2.395h-1.764v6.302H254.813z M260.503,71.279V59.27h2.773v12.01H260.503z"/>
	<path fill="#FFFFFF" d="M270.061,71.279v-0.864c-0.54,0.648-1.584,1.08-2.701,1.08c-1.333,0-2.989-0.918-2.989-2.862
		c0-2.107,1.656-2.81,2.989-2.81c1.152,0,2.179,0.379,2.701,1.026v-0.864c0-0.756-0.648-1.278-1.764-1.278
		c-0.864,0-1.729,0.343-2.431,0.937l-1.026-1.927c1.116-0.954,2.61-1.351,3.943-1.351c2.089,0,4.051,0.774,4.051,3.476v5.438
		H270.061z M270.061,69.047v-0.774c-0.288-0.414-0.936-0.612-1.548-0.612c-0.72,0-1.386,0.324-1.386,1.009
		c0,0.684,0.666,1.008,1.386,1.008C269.125,69.677,269.772,69.461,270.061,69.047z"/>
	<path fill="#FFFFFF" d="M285.453,71.279v-5.294c0-0.666-0.324-1.17-1.152-1.17c-0.756,0-1.296,0.486-1.566,0.847v5.617h-2.773
		v-5.294c0-0.666-0.306-1.17-1.134-1.17c-0.756,0-1.278,0.486-1.566,0.847v5.617h-2.773v-8.696h2.773v1.062
		c0.378-0.504,1.494-1.278,2.863-1.278c1.26,0,2.106,0.522,2.467,1.549c0.504-0.756,1.638-1.549,3.007-1.549
		c1.603,0,2.611,0.829,2.611,2.611v6.302H285.453z"/>
	<path fill="#FFFFFF" d="M295.009,71.279v-0.864c-0.54,0.648-1.584,1.08-2.701,1.08c-1.333,0-2.989-0.918-2.989-2.862
		c0-2.107,1.656-2.81,2.989-2.81c1.152,0,2.179,0.379,2.701,1.026v-0.864c0-0.756-0.648-1.278-1.764-1.278
		c-0.864,0-1.729,0.343-2.431,0.937l-1.026-1.927c1.116-0.954,2.61-1.351,3.943-1.351c2.089,0,4.051,0.774,4.051,3.476v5.438
		H295.009z M295.009,69.047v-0.774c-0.288-0.414-0.936-0.612-1.548-0.612c-0.72,0-1.386,0.324-1.386,1.009
		c0,0.684,0.666,1.008,1.386,1.008C294.073,69.677,294.721,69.461,295.009,69.047z"/>
	<path fill="#FFFFFF" d="M298.877,66.922c0-2.719,2.017-4.556,4.735-4.556c1.891,0,3.043,0.829,3.565,1.603l-1.8,1.675
		c-0.342-0.504-0.9-0.828-1.639-0.828c-1.152,0-2.035,0.792-2.035,2.106s0.882,2.125,2.035,2.125c0.738,0,1.296-0.36,1.639-0.847
		l1.8,1.692c-0.522,0.757-1.674,1.603-3.565,1.603C300.894,71.495,298.877,69.641,298.877,66.922z"/>
	<path fill="#FFFFFF" d="M307.877,60.206c0-0.882,0.703-1.585,1.584-1.585c0.882,0,1.603,0.703,1.603,1.585s-0.72,1.603-1.603,1.603
		C308.58,61.809,307.877,61.088,307.877,60.206z M308.075,71.279v-8.696h2.773v8.696H308.075z"/>
	<path fill="#FFFFFF" d="M311.945,66.922c0-2.448,1.765-4.556,4.717-4.556c2.989,0,4.753,2.107,4.753,4.556
		c0,2.449-1.765,4.573-4.753,4.573C313.709,71.495,311.945,69.371,311.945,66.922z M318.571,66.922c0-1.152-0.684-2.106-1.909-2.106
		c-1.188,0-1.873,0.954-1.873,2.106c0,1.171,0.684,2.125,1.873,2.125C317.887,69.047,318.571,68.093,318.571,66.922z
		 M316.932,61.269h-1.873l2.287-2.593h2.449L316.932,61.269z"/>
	<path fill="#FFFFFF" d="M328.398,71.279v-5.023c0-1.062-0.558-1.44-1.422-1.44c-0.828,0-1.369,0.45-1.692,0.847v5.617h-2.773
		v-8.696h2.773v1.062c0.522-0.611,1.548-1.278,3.025-1.278c1.962,0,2.863,1.152,2.863,2.755v6.158H328.398z"/>
	<path fill="#FFFFFF" d="M336.604,68.074v-2.322h9.597v2.322H336.604z"/>
	<path fill="#FFFFFF" d="M238.812,81.807c0-0.883,0.703-1.585,1.584-1.585c0.882,0,1.603,0.702,1.603,1.585
		c0,0.882-0.72,1.603-1.603,1.603C239.514,83.409,238.812,82.688,238.812,81.807z M239.01,92.88v-8.696h2.773v8.696H239.01z"/>
	<path fill="#FFFFFF" d="M249.326,92.88v-5.023c0-1.062-0.558-1.44-1.422-1.44c-0.828,0-1.369,0.45-1.692,0.846v5.618h-2.773v-8.696
		h2.773v1.062c0.522-0.612,1.548-1.279,3.025-1.279c1.962,0,2.863,1.152,2.863,2.755v6.158H249.326z"/>
	<path fill="#FFFFFF" d="M254.328,90.539v-3.961h-1.44v-2.395h1.44v-2.377h2.773v2.377h1.764v2.395h-1.764v3.187
		c0,0.505,0.288,0.883,0.756,0.883c0.306,0,0.612-0.108,0.702-0.216l0.54,2.088c-0.342,0.324-1.026,0.576-2.053,0.576
		C255.282,93.096,254.328,92.214,254.328,90.539z"/>
	<path fill="#FFFFFF" d="M259.313,88.522c0-2.521,1.891-4.556,4.609-4.556c2.575,0,4.447,1.891,4.447,4.844v0.63h-6.194
		c0.198,0.774,0.918,1.423,2.179,1.423c0.612,0,1.621-0.271,2.125-0.738l1.207,1.818c-0.864,0.774-2.305,1.152-3.637,1.152
		C261.366,93.096,259.313,91.35,259.313,88.522z M263.922,86.2c-1.207,0-1.675,0.72-1.783,1.351h3.583
		C265.651,86.938,265.201,86.2,263.922,86.2z"/>
	<path fill="#FFFFFF" d="M275.263,92.88v-5.023c0-1.062-0.558-1.44-1.422-1.44c-0.828,0-1.368,0.45-1.692,0.846v5.618h-2.773v-8.696
		h2.773v1.062c0.522-0.612,1.548-1.279,3.025-1.279c1.962,0,2.863,1.152,2.863,2.755v6.158H275.263z"/>
	<path fill="#FFFFFF" d="M278.951,91.745l1.152-1.98c0.648,0.576,2.035,1.171,3.061,1.171c0.828,0,1.17-0.234,1.17-0.612
		c0-1.08-5.06,0.036-5.06-3.493c0-1.53,1.333-2.863,3.727-2.863c1.477,0,2.701,0.469,3.637,1.152l-1.062,1.963
		c-0.522-0.504-1.512-0.954-2.557-0.954c-0.648,0-1.081,0.252-1.081,0.594c0,0.955,5.042-0.036,5.042,3.529
		c0,1.656-1.458,2.845-3.943,2.845C281.472,93.096,279.869,92.574,278.951,91.745z"/>
	<path fill="#FFFFFF" d="M293.172,92.88v-0.864c-0.54,0.648-1.584,1.08-2.701,1.08c-1.333,0-2.989-0.918-2.989-2.862
		c0-2.106,1.656-2.81,2.989-2.81c1.152,0,2.179,0.379,2.701,1.026v-0.864c0-0.756-0.648-1.278-1.764-1.278
		c-0.864,0-1.729,0.343-2.431,0.937l-1.026-1.927c1.116-0.954,2.61-1.351,3.943-1.351c2.089,0,4.051,0.774,4.051,3.476v5.438
		H293.172z M293.172,90.647v-0.774c-0.288-0.414-0.936-0.612-1.548-0.612c-0.72,0-1.386,0.324-1.386,1.009
		c0,0.684,0.666,1.008,1.386,1.008C292.236,91.277,292.884,91.062,293.172,90.647z"/>
	<path fill="#FFFFFF" d="M241.765,114.479v-9.309h-3.367v-2.701h9.813v2.701h-3.349v9.309H241.765z"/>
	<path fill="#FFFFFF" d="M249.251,114.479v-8.696h2.773v1.062c0.576-0.703,1.692-1.297,2.719-1.297v2.665
		c-0.162-0.055-0.396-0.072-0.684-0.072c-0.72,0-1.675,0.306-2.035,0.792v5.546H249.251z"/>
	<path fill="#FFFFFF" d="M260.772,114.479v-0.864c-0.54,0.648-1.584,1.08-2.701,1.08c-1.333,0-2.989-0.918-2.989-2.862
		c0-2.106,1.656-2.81,2.989-2.81c1.152,0,2.179,0.379,2.701,1.026v-0.864c0-0.756-0.648-1.278-1.764-1.278
		c-0.864,0-1.729,0.343-2.431,0.937l-1.026-1.927c1.116-0.954,2.61-1.351,3.943-1.351c2.089,0,4.051,0.774,4.051,3.476v5.438
		H260.772z M260.772,112.247v-0.774c-0.288-0.414-0.936-0.612-1.548-0.612c-0.72,0-1.386,0.324-1.386,1.009
		c0,0.684,0.666,1.008,1.386,1.008C259.836,112.877,260.484,112.661,260.772,112.247z"/>
	<path fill="#FFFFFF" d="M264.641,110.122c0-2.719,2.017-4.556,4.735-4.556c1.891,0,3.043,0.829,3.565,1.603l-1.8,1.675
		c-0.342-0.504-0.9-0.828-1.639-0.828c-1.152,0-2.035,0.792-2.035,2.106s0.882,2.125,2.035,2.125c0.738,0,1.296-0.36,1.639-0.847
		l1.8,1.692c-0.522,0.757-1.674,1.603-3.565,1.603C266.658,114.695,264.641,112.841,264.641,110.122z"/>
	<path fill="#FFFFFF" d="M273.281,110.122c0-2.448,1.765-4.556,4.717-4.556c2.989,0,4.753,2.107,4.753,4.556
		c0,2.449-1.765,4.573-4.753,4.573C275.046,114.695,273.281,112.571,273.281,110.122z M279.907,110.122
		c0-1.152-0.684-2.106-1.909-2.106c-1.188,0-1.873,0.954-1.873,2.106c0,1.171,0.684,2.125,1.873,2.125
		C279.223,112.247,279.907,111.293,279.907,110.122z"/>
	<path fill="#FFFFFF" d="M294.812,114.479v-5.294c0-0.666-0.324-1.17-1.152-1.17c-0.756,0-1.296,0.486-1.566,0.846v5.618h-2.773
		v-5.294c0-0.666-0.306-1.17-1.134-1.17c-0.756,0-1.278,0.486-1.566,0.846v5.618h-2.773v-8.696h2.773v1.062
		c0.378-0.505,1.494-1.279,2.863-1.279c1.26,0,2.106,0.522,2.467,1.549c0.504-0.756,1.638-1.549,3.007-1.549
		c1.603,0,2.611,0.829,2.611,2.611v6.302H294.812z"/>
	<path fill="#FFFFFF" d="M304.368,114.479v-0.864c-0.54,0.648-1.584,1.08-2.701,1.08c-1.333,0-2.989-0.918-2.989-2.862
		c0-2.106,1.656-2.81,2.989-2.81c1.152,0,2.179,0.379,2.701,1.026v-0.864c0-0.756-0.648-1.278-1.764-1.278
		c-0.864,0-1.729,0.343-2.431,0.937l-1.026-1.927c1.116-0.954,2.61-1.351,3.943-1.351c2.089,0,4.051,0.774,4.051,3.476v5.438
		H304.368z M304.368,112.247v-0.774c-0.288-0.414-0.936-0.612-1.548-0.612c-0.72,0-1.386,0.324-1.386,1.009
		c0,0.684,0.666,1.008,1.386,1.008C303.432,112.877,304.08,112.661,304.368,112.247z"/>
	<path fill="#FFFFFF" d="M309.371,112.139v-3.961h-1.44v-2.395h1.44v-2.377h2.773v2.377h1.765v2.395h-1.765v3.187
		c0,0.505,0.288,0.883,0.756,0.883c0.306,0,0.612-0.108,0.703-0.216l0.54,2.088c-0.342,0.324-1.026,0.576-2.053,0.576
		C310.325,114.695,309.371,113.813,309.371,112.139z"/>
	<path fill="#FFFFFF" d="M314.357,110.122c0-2.448,1.765-4.556,4.717-4.556c2.989,0,4.753,2.107,4.753,4.556
		c0,2.449-1.765,4.573-4.753,4.573C316.122,114.695,314.357,112.571,314.357,110.122z M320.983,110.122
		c0-1.152-0.684-2.106-1.909-2.106c-1.188,0-1.873,0.954-1.873,2.106c0,1.171,0.684,2.125,1.873,2.125
		C320.299,112.247,320.983,111.293,320.983,110.122z"/>
	<path fill="#FFFFFF" d="M324.184,113.345l1.152-1.98c0.648,0.576,2.035,1.171,3.061,1.171c0.828,0,1.17-0.234,1.17-0.612
		c0-1.08-5.06,0.036-5.06-3.493c0-1.53,1.333-2.863,3.727-2.863c1.477,0,2.701,0.469,3.637,1.152l-1.062,1.963
		c-0.522-0.504-1.512-0.954-2.557-0.954c-0.648,0-1.081,0.252-1.081,0.594c0,0.955,5.042-0.036,5.042,3.529
		c0,1.656-1.458,2.845-3.943,2.845C326.705,114.695,325.103,114.174,324.184,113.345z"/>
	<path fill="#FFFFFF" d="M338.406,114.479v-0.864c-0.54,0.648-1.584,1.08-2.701,1.08c-1.333,0-2.989-0.918-2.989-2.862
		c0-2.106,1.656-2.81,2.989-2.81c1.152,0,2.179,0.379,2.701,1.026v-0.864c0-0.756-0.648-1.278-1.764-1.278
		c-0.864,0-1.729,0.343-2.431,0.937l-1.026-1.927c1.116-0.954,2.611-1.351,3.943-1.351c2.089,0,4.051,0.774,4.051,3.476v5.438
		H338.406z M338.406,112.247v-0.774c-0.288-0.414-0.936-0.612-1.548-0.612c-0.72,0-1.386,0.324-1.386,1.009
		c0,0.684,0.666,1.008,1.386,1.008C337.47,112.877,338.118,112.661,338.406,112.247z"/>
</g>
<g>
	<path fill="#FFFFFF" d="M438.36,49.68V29.003h-7.479v-5.999h21.796v5.999h-7.439V49.68H438.36z"/>
	<path fill="#FFFFFF" d="M453.241,45.92l3.639-5.358c1.92,1.919,4.879,3.52,8.559,3.52c2.32,0,3.759-0.8,3.759-2.12
		c0-3.52-15.077-0.6-15.077-10.878c0-4.479,3.759-8.479,10.598-8.479c4.279,0,7.999,1.28,10.838,3.72l-3.76,5.159
		c-2.239-1.879-5.159-2.799-7.798-2.799c-2,0-2.88,0.68-2.88,1.84c0,3.28,15.078,0.8,15.078,10.718
		c0,5.359-3.959,8.918-11.118,8.918C459.68,50.159,455.921,48.439,453.241,45.92z"/>
	<path fill="#FFFFFF" d="M430.47,65.283c0-3.709,2.809-6.212,6.5-6.212c2.899,0,4.465,1.639,5.239,3.205l-2.665,1.278
		c-0.396-0.954-1.422-1.746-2.575-1.746c-1.963,0-3.349,1.494-3.349,3.475c0,1.963,1.386,3.476,3.349,3.476
		c1.152,0,2.178-0.792,2.575-1.747l2.665,1.261c-0.774,1.53-2.34,3.223-5.239,3.223C433.278,71.495,430.47,68.975,430.47,65.283z"/>
	<path fill="#FFFFFF" d="M442.907,60.206c0-0.882,0.703-1.585,1.584-1.585c0.882,0,1.603,0.703,1.603,1.585s-0.72,1.603-1.603,1.603
		C443.61,61.809,442.907,61.088,442.907,60.206z M443.105,71.279v-8.696h2.773v8.696H443.105z"/>
	<path fill="#FFFFFF" d="M446.975,66.922c0-2.719,2.017-4.556,4.735-4.556c1.891,0,3.043,0.829,3.565,1.603l-1.8,1.675
		c-0.342-0.504-0.9-0.828-1.639-0.828c-1.152,0-2.035,0.792-2.035,2.106s0.882,2.125,2.035,2.125c0.738,0,1.296-0.36,1.639-0.847
		l1.8,1.692c-0.522,0.757-1.674,1.603-3.565,1.603C448.991,71.495,446.975,69.641,446.975,66.922z"/>
	<path fill="#FFFFFF" d="M461.304,71.279v-0.864c-0.54,0.648-1.584,1.08-2.701,1.08c-1.333,0-2.989-0.918-2.989-2.862
		c0-2.107,1.656-2.81,2.989-2.81c1.152,0,2.179,0.379,2.701,1.026v-0.864c0-0.756-0.648-1.278-1.764-1.278
		c-0.864,0-1.729,0.343-2.431,0.937l-1.026-1.927c1.116-0.954,2.611-1.351,3.943-1.351c2.089,0,4.051,0.774,4.051,3.476v5.438
		H461.304z M461.304,69.047v-0.774c-0.288-0.414-0.936-0.612-1.548-0.612c-0.72,0-1.386,0.324-1.386,1.009
		c0,0.684,0.666,1.008,1.386,1.008C460.368,69.677,461.016,69.461,461.304,69.047z"/>
	<path fill="#FFFFFF" d="M466.307,68.938v-3.961h-1.44v-2.395h1.44v-2.377h2.773v2.377h1.764v2.395h-1.764v3.187
		c0,0.505,0.288,0.883,0.756,0.883c0.306,0,0.612-0.108,0.702-0.217l0.54,2.089c-0.342,0.324-1.026,0.576-2.053,0.576
		C467.261,71.495,466.307,70.613,466.307,68.938z"/>
	<path fill="#FFFFFF" d="M471.851,71.279v-8.696h2.773v1.062c0.576-0.702,1.692-1.296,2.719-1.296v2.665
		c-0.162-0.055-0.396-0.072-0.684-0.072c-0.72,0-1.675,0.306-2.035,0.792v5.546H471.851z"/>
	<path fill="#FFFFFF" d="M478.042,60.206c0-0.882,0.703-1.585,1.584-1.585c0.882,0,1.602,0.703,1.602,1.585s-0.72,1.603-1.602,1.603
		C478.745,61.809,478.042,61.088,478.042,60.206z M478.24,71.279v-8.696h2.773v8.696H478.24z"/>
	<path fill="#FFFFFF" d="M482.344,71.279v-2.053l3.494-4.249h-3.494v-2.395h7.257v1.962l-3.565,4.34h3.637v2.395H482.344z"/>
	<path fill="#FFFFFF" d="M496.134,71.279v-0.864c-0.54,0.648-1.585,1.08-2.7,1.08c-1.333,0-2.989-0.918-2.989-2.862
		c0-2.107,1.656-2.81,2.989-2.81c1.152,0,2.178,0.379,2.7,1.026v-0.864c0-0.756-0.647-1.278-1.765-1.278
		c-0.863,0-1.729,0.343-2.43,0.937l-1.027-1.927c1.117-0.954,2.611-1.351,3.943-1.351c2.089,0,4.051,0.774,4.051,3.476v5.438
		H496.134z M496.134,69.047v-0.774c-0.288-0.414-0.937-0.612-1.548-0.612c-0.721,0-1.387,0.324-1.387,1.009
		c0,0.684,0.666,1.008,1.387,1.008C495.197,69.677,495.846,69.461,496.134,69.047z"/>
	<path fill="#FFFFFF" d="M500.002,66.922c0-2.719,2.017-4.556,4.735-4.556c1.891,0,3.043,0.829,3.565,1.603l-1.801,1.675
		c-0.342-0.504-0.9-0.828-1.639-0.828c-1.152,0-2.035,0.792-2.035,2.106s0.883,2.125,2.035,2.125c0.738,0,1.297-0.36,1.639-0.847
		l1.801,1.692c-0.522,0.757-1.675,1.603-3.565,1.603C502.019,71.495,500.002,69.641,500.002,66.922z"/>
	<path fill="#FFFFFF" d="M509.002,60.206c0-0.882,0.703-1.585,1.584-1.585c0.883,0,1.604,0.703,1.604,1.585
		s-0.721,1.603-1.604,1.603C509.705,61.809,509.002,61.088,509.002,60.206z M509.2,71.279v-8.696h2.772v8.696H509.2z"/>
	<path fill="#FFFFFF" d="M513.07,66.922c0-2.448,1.764-4.556,4.717-4.556c2.988,0,4.754,2.107,4.754,4.556
		c0,2.449-1.766,4.573-4.754,4.573C514.834,71.495,513.07,69.371,513.07,66.922z M519.695,66.922c0-1.152-0.684-2.106-1.908-2.106
		c-1.188,0-1.873,0.954-1.873,2.106c0,1.171,0.685,2.125,1.873,2.125C519.012,69.047,519.695,68.093,519.695,66.922z
		 M518.057,61.269h-1.872l2.286-2.593h2.449L518.057,61.269z"/>
	<path fill="#FFFFFF" d="M529.523,71.279v-5.023c0-1.062-0.559-1.44-1.422-1.44c-0.828,0-1.369,0.45-1.693,0.847v5.617h-2.772
		v-8.696h2.772v1.062c0.522-0.611,1.549-1.278,3.025-1.278c1.963,0,2.863,1.152,2.863,2.755v6.158H529.523z"/>
	<path fill="#FFFFFF" d="M430.452,88.522c0-2.719,2.017-4.556,4.735-4.556c1.891,0,3.043,0.829,3.565,1.603l-1.8,1.675
		c-0.342-0.504-0.9-0.828-1.639-0.828c-1.152,0-2.035,0.792-2.035,2.106s0.882,2.125,2.035,2.125c0.738,0,1.296-0.36,1.639-0.847
		l1.8,1.692c-0.522,0.757-1.674,1.603-3.565,1.603C432.468,93.096,430.452,91.241,430.452,88.522z"/>
	<path fill="#FFFFFF" d="M439.092,88.522c0-2.448,1.765-4.556,4.717-4.556c2.989,0,4.753,2.107,4.753,4.556
		c0,2.449-1.765,4.573-4.753,4.573C440.856,93.096,439.092,90.972,439.092,88.522z M445.718,88.522c0-1.152-0.684-2.106-1.909-2.106
		c-1.188,0-1.873,0.954-1.873,2.106c0,1.171,0.684,2.125,1.873,2.125C445.034,90.647,445.718,89.693,445.718,88.522z"/>
	<path fill="#FFFFFF" d="M455.545,92.88v-5.023c0-1.062-0.558-1.44-1.422-1.44c-0.828,0-1.368,0.45-1.692,0.846v5.618h-2.773v-8.696
		h2.773v1.062c0.522-0.612,1.548-1.279,3.025-1.279c1.962,0,2.863,1.152,2.863,2.755v6.158H455.545z"/>
	<path fill="#FFFFFF" d="M457.09,95.797l0.702-2.017c0.342,0.288,0.594,0.396,1.116,0.396c0.648,0,1.062-0.432,1.062-1.368v-8.624
		h2.773v8.624c0,2.106-1.044,3.602-3.367,3.602C458.188,96.409,457.756,96.229,457.09,95.797z M459.773,81.807
		c0-0.883,0.702-1.585,1.584-1.585s1.603,0.702,1.603,1.585c0,0.882-0.72,1.603-1.603,1.603S459.773,82.688,459.773,81.807z"/>
	<path fill="#FFFFFF" d="M470.269,92.88v-1.044c-0.54,0.611-1.53,1.26-3.007,1.26c-1.962,0-2.863-1.134-2.863-2.719v-6.193h2.773
		v5.041c0,1.062,0.54,1.423,1.44,1.423c0.792,0,1.333-0.433,1.656-0.847v-5.617h2.773v8.696H470.269z"/>
	<path fill="#FFFFFF" d="M480.583,92.88v-5.023c0-1.062-0.558-1.44-1.422-1.44c-0.828,0-1.369,0.45-1.692,0.846v5.618h-2.773v-8.696
		h2.773v1.062c0.522-0.612,1.548-1.279,3.025-1.279c1.962,0,2.863,1.152,2.863,2.755v6.158H480.583z"/>
	<path fill="#FFFFFF" d="M485.584,90.539v-3.961h-1.439v-2.395h1.439v-2.377h2.773v2.377h1.764v2.395h-1.764v3.187
		c0,0.505,0.288,0.883,0.756,0.883c0.307,0,0.612-0.108,0.703-0.216l0.539,2.088c-0.342,0.324-1.025,0.576-2.053,0.576
		C486.539,93.096,485.584,92.214,485.584,90.539z"/>
	<path fill="#FFFFFF" d="M490.93,81.807c0-0.883,0.703-1.585,1.585-1.585s1.603,0.702,1.603,1.585c0,0.882-0.721,1.603-1.603,1.603
		S490.93,82.688,490.93,81.807z M491.129,92.88v-8.696h2.772v8.696H491.129z"/>
	<path fill="#FFFFFF" d="M497.789,92.88l-3.421-8.696h2.917l1.98,5.51l1.963-5.51h2.935l-3.421,8.696H497.789z"/>
	<path fill="#FFFFFF" d="M509.76,92.88v-0.864c-0.541,0.648-1.585,1.08-2.701,1.08c-1.332,0-2.988-0.918-2.988-2.862
		c0-2.106,1.656-2.81,2.988-2.81c1.152,0,2.179,0.379,2.701,1.026v-0.864c0-0.756-0.648-1.278-1.765-1.278
		c-0.864,0-1.729,0.343-2.431,0.937l-1.026-1.927c1.116-0.954,2.61-1.351,3.942-1.351c2.09,0,4.052,0.774,4.052,3.476v5.438H509.76z
		 M509.76,90.647v-0.774c-0.289-0.414-0.937-0.612-1.549-0.612c-0.721,0-1.387,0.324-1.387,1.009c0,0.684,0.666,1.008,1.387,1.008
		C508.823,91.277,509.471,91.062,509.76,90.647z"/>
	<path fill="#FFFFFF" d="M514.186,92.88V80.87h2.773v12.01H514.186z"/>
	<path fill="#FFFFFF" d="M433.765,114.479v-9.309h-3.367v-2.701h9.813v2.701h-3.349v9.309H433.765z"/>
	<path fill="#FFFFFF" d="M441.251,114.479v-8.696h2.773v1.062c0.576-0.703,1.692-1.297,2.719-1.297v2.665
		c-0.162-0.055-0.396-0.072-0.684-0.072c-0.72,0-1.675,0.306-2.035,0.792v5.546H441.251z"/>
	<path fill="#FFFFFF" d="M452.772,114.479v-0.864c-0.54,0.648-1.584,1.08-2.701,1.08c-1.333,0-2.989-0.918-2.989-2.862
		c0-2.106,1.656-2.81,2.989-2.81c1.152,0,2.179,0.379,2.701,1.026v-0.864c0-0.756-0.648-1.278-1.764-1.278
		c-0.864,0-1.729,0.343-2.431,0.937l-1.026-1.927c1.116-0.954,2.61-1.351,3.943-1.351c2.089,0,4.051,0.774,4.051,3.476v5.438
		H452.772z M452.772,112.247v-0.774c-0.288-0.414-0.936-0.612-1.548-0.612c-0.72,0-1.386,0.324-1.386,1.009
		c0,0.684,0.666,1.008,1.386,1.008C451.836,112.877,452.484,112.661,452.772,112.247z"/>
	<path fill="#FFFFFF" d="M456.641,110.122c0-2.719,2.017-4.556,4.735-4.556c1.891,0,3.043,0.829,3.565,1.603l-1.8,1.675
		c-0.342-0.504-0.9-0.828-1.639-0.828c-1.152,0-2.035,0.792-2.035,2.106s0.882,2.125,2.035,2.125c0.738,0,1.296-0.36,1.639-0.847
		l1.8,1.692c-0.522,0.757-1.674,1.603-3.565,1.603C458.658,114.695,456.641,112.841,456.641,110.122z"/>
	<path fill="#FFFFFF" d="M465.281,110.122c0-2.448,1.765-4.556,4.717-4.556c2.989,0,4.753,2.107,4.753,4.556
		c0,2.449-1.765,4.573-4.753,4.573C467.046,114.695,465.281,112.571,465.281,110.122z M471.907,110.122
		c0-1.152-0.684-2.106-1.909-2.106c-1.188,0-1.873,0.954-1.873,2.106c0,1.171,0.684,2.125,1.873,2.125
		C471.223,112.247,471.907,111.293,471.907,110.122z"/>
	<path fill="#FFFFFF" d="M486.812,114.479v-5.294c0-0.666-0.324-1.17-1.152-1.17c-0.756,0-1.297,0.486-1.566,0.846v5.618h-2.773
		v-5.294c0-0.666-0.306-1.17-1.134-1.17c-0.756,0-1.278,0.486-1.566,0.846v5.618h-2.773v-8.696h2.773v1.062
		c0.378-0.505,1.494-1.279,2.862-1.279c1.261,0,2.107,0.522,2.467,1.549c0.504-0.756,1.639-1.549,3.008-1.549
		c1.602,0,2.61,0.829,2.61,2.611v6.302H486.812z"/>
	<path fill="#FFFFFF" d="M496.368,114.479v-0.864c-0.54,0.648-1.585,1.08-2.7,1.08c-1.333,0-2.989-0.918-2.989-2.862
		c0-2.106,1.656-2.81,2.989-2.81c1.152,0,2.178,0.379,2.7,1.026v-0.864c0-0.756-0.647-1.278-1.765-1.278
		c-0.863,0-1.729,0.343-2.43,0.937l-1.027-1.927c1.117-0.954,2.611-1.351,3.943-1.351c2.089,0,4.051,0.774,4.051,3.476v5.438
		H496.368z M496.368,112.247v-0.774c-0.288-0.414-0.937-0.612-1.548-0.612c-0.721,0-1.387,0.324-1.387,1.009
		c0,0.684,0.666,1.008,1.387,1.008C495.432,112.877,496.08,112.661,496.368,112.247z"/>
	<path fill="#FFFFFF" d="M501.371,112.139v-3.961h-1.44v-2.395h1.44v-2.377h2.773v2.377h1.764v2.395h-1.764v3.187
		c0,0.505,0.287,0.883,0.756,0.883c0.306,0,0.611-0.108,0.702-0.216l0.54,2.088c-0.342,0.324-1.026,0.576-2.053,0.576
		C502.325,114.695,501.371,113.813,501.371,112.139z"/>
	<path fill="#FFFFFF" d="M506.357,110.122c0-2.448,1.764-4.556,4.717-4.556c2.988,0,4.754,2.107,4.754,4.556
		c0,2.449-1.766,4.573-4.754,4.573C508.121,114.695,506.357,112.571,506.357,110.122z M512.982,110.122
		c0-1.152-0.684-2.106-1.908-2.106c-1.188,0-1.873,0.954-1.873,2.106c0,1.171,0.685,2.125,1.873,2.125
		C512.299,112.247,512.982,111.293,512.982,110.122z"/>
	<path fill="#FFFFFF" d="M516.184,113.345l1.152-1.98c0.648,0.576,2.035,1.171,3.062,1.171c0.828,0,1.171-0.234,1.171-0.612
		c0-1.08-5.061,0.036-5.061-3.493c0-1.53,1.333-2.863,3.728-2.863c1.477,0,2.7,0.469,3.638,1.152l-1.062,1.963
		c-0.522-0.504-1.513-0.954-2.557-0.954c-0.648,0-1.081,0.252-1.081,0.594c0,0.955,5.042-0.036,5.042,3.529
		c0,1.656-1.459,2.845-3.943,2.845C518.705,114.695,517.103,114.174,516.184,113.345z"/>
	<path fill="#FFFFFF" d="M530.406,114.479v-0.864c-0.541,0.648-1.585,1.08-2.701,1.08c-1.332,0-2.988-0.918-2.988-2.862
		c0-2.106,1.656-2.81,2.988-2.81c1.152,0,2.179,0.379,2.701,1.026v-0.864c0-0.756-0.648-1.278-1.765-1.278
		c-0.864,0-1.729,0.343-2.431,0.937l-1.026-1.927c1.116-0.954,2.61-1.351,3.942-1.351c2.09,0,4.052,0.774,4.052,3.476v5.438H530.406
		z M530.406,112.247v-0.774c-0.289-0.414-0.937-0.612-1.549-0.612c-0.721,0-1.387,0.324-1.387,1.009
		c0,0.684,0.666,1.008,1.387,1.008C529.47,112.877,530.117,112.661,530.406,112.247z"/>
</g>
<g>
	<g>
		<path fill="#FFED00" d="M178.139,45.048c-24.711-12.36-49.469-25.207-76.389-32.069C88.744,9.664,75.37,8.081,61.961,7.908
			C52.499,7.786,43.061,9.223,34.5,13.403C1.057,29.73,7.039,76.372,22.326,103.11c7.388,12.922,21.644,21.193,35.072,26.53
			c16.788,6.672,35.554,8.961,53.366,5.751c21.168-3.816,38.05-16.59,49.942-34.164c9.606-14.195,15.9-32.006,7.314-48.174
			c-5.109-9.621-13.417-16.963-21.658-23.862c-8.003-6.699-17.025-13.124-22.541-22.182c-0.755-1.241-5.577-1.838-4.466-0.013
			c7.209,11.84,19.942,19.628,30.033,28.764c11.886,10.762,20.38,24,17.185,40.606c-2.18,11.328-8.86,21.695-15.877,30.609
			c-6.802,8.641-15.562,15.568-25.456,20.326c-18.148,8.728-39.376,8.659-58.433,3.162c-14.9-4.298-31.109-12.764-39.451-26.38
			c-9.615-15.695-14.301-35.369-11.898-53.66C17.76,32.904,28.271,18.365,45.321,12.83c12.23-3.971,26.221-2.586,38.718-0.958
			c14.161,1.844,27.904,5.934,41.192,11.074c17.149,6.634,33.538,15.124,49.963,23.339C176.66,47.018,181.037,46.498,178.139,45.048
			L178.139,45.048z"/>
	</g>
</g>
<g>
	<g>
		<path fill="#FFED00" d="M734.676,11.483c11.322,19.928,11.719,45.04,6.988,66.946c-4.805,22.25-16.663,43.419-38.971,51.578
			c-21.137,7.73-45.683,2.593-65.321-6.985c-21.261-10.37-42.571-30.312-45.391-54.92c-2.323-20.281,11.604-39.89,28.771-49.391
			c15.226-8.426,33.845-7.939,50.468-5.029c34.207,5.988,66.473,23.386,95.657,41.549c2.785,1.734,3.126-2.546,1.025-3.853
			c-33.68-20.962-72.431-41.755-112.807-44.03c-20.176-1.137-38.696,4.773-52.63,19.685c-16.81,17.99-18.774,42.191-6.613,63.219
			c20.601,35.62,72.994,59.27,112.415,42.843c20.134-8.39,31.005-28.01,36.409-48.182c5.593-20.873,5.52-44.136-1.84-64.549
			c-1.229-3.406-2.802-6.675-4.588-9.82C736.904,8.176,733.044,8.61,734.676,11.483L734.676,11.483z"/>
	</g>
</g>
</svg>
