<?xml version="1.0" encoding="utf-8"?>
<!-- Generator: Adobe Illustrator 15.0.0, SVG Export Plug-In . SVG Version: 6.00 Build 0)  -->
<!DOCTYPE svg PUBLIC "-//W3C//DTD SVG 1.1//EN" "http://www.w3.org/Graphics/SVG/1.1/DTD/svg11.dtd">
<svg version="1.1" id="Layer_1" xmlns="http://www.w3.org/2000/svg" xmlns:xlink="http://www.w3.org/1999/xlink" x="0px" y="0px"
	 width="150px" height="150px" viewBox="0 0 150 150" enable-background="new 0 0 150 150" xml:space="preserve">
<g>
	<rect fill="#E1E1E1" width="150.001" height="150"/>
	<path fill="#056CB4" d="M23.917,22.146c-2.006,0-3.479,0.712-4.282,2.095h-0.045v-7.537h8.744v-4.15H14.952v17.042h4.638v-0.673
		c0-1.784,0.804-2.765,2.229-2.765c1.563,0,2.189,1.072,2.189,2.724v7.315c0,1.605-0.582,2.72-2.144,2.72
		c-1.739,0-2.362-1.16-2.362-2.943v-3.792H14.86v3.437c0,4.593,1.829,7.539,7.004,7.539c5.131,0,7.226-2.722,7.226-6.915v-7.406
		C29.09,24.064,26.638,22.146,23.917,22.146"/>
	<path fill="#056CB4" d="M74.74,108.847c-9.91,0-17.97-8.063-17.97-17.973c0-9.91,8.06-17.972,17.97-17.972
		c9.912,0,17.973,8.062,17.973,17.972C92.713,100.784,84.651,108.847,74.74,108.847 M109.257,56.757H90.614
		c-0.125,0-0.237,0.106-0.237,0.237v6.194c0,0.135,0.111,0.238,0.237,0.238h7.424l-8.242,8.246
		c-4.155-3.263-9.378-5.214-15.057-5.214c-13.462,0-24.417,10.951-24.417,24.415c0,12.396,9.288,22.654,21.267,24.206v7.138h-7.354
		c-0.137,0-0.24,0.107-0.24,0.236v6.64c0,0.131,0.103,0.236,0.24,0.236h7.354v7.025c0,0.132,0.106,0.237,0.237,0.237h6.637
		c0.133,0,0.24-0.105,0.24-0.237v-7.025h7.354c0.129,0,0.237-0.105,0.237-0.236v-6.64c0-0.129-0.107-0.236-0.237-0.236h-7.354
		v-7.253c11.585-1.898,20.454-11.977,20.454-24.091c0-5.225-1.654-10.069-4.46-14.043l8.125-8.127v6.933
		c0,0.131,0.109,0.236,0.242,0.236h6.192c0.133,0,0.242-0.105,0.242-0.236V56.995C109.499,56.864,109.39,56.757,109.257,56.757"/>
	<path fill="#056CB4" d="M85.718,83.499H63.919c-0.132,0-0.237,0.096-0.237,0.211v5.279c0,0.122,0.104,0.215,0.237,0.215h21.799
		c0.136,0,0.24-0.093,0.24-0.215v-5.279C85.958,83.594,85.854,83.499,85.718,83.499"/>
	<path fill="#056CB4" d="M85.718,92.921H63.919c-0.132,0-0.237,0.098-0.237,0.218v5.279c0,0.117,0.104,0.212,0.237,0.212h21.799
		c0.136,0,0.24-0.095,0.24-0.212v-5.279C85.958,93.019,85.854,92.921,85.718,92.921"/>
	<rect x="40.746" y="12.21" fill="#056CB4" width="2.126" height="12.644"/>
	<path fill="#056CB4" d="M47.307,18.103h3.022v6.75h-1.53v-1.379c-0.28,0.951-0.877,1.528-2.032,1.528
		c-1.827,0-2.667-1.454-2.667-3.414v-6.114c0-1.976,0.951-3.413,3.188-3.413c2.348,0,3.04,1.307,3.04,3.171v1.119h-1.938v-1.287
		c0-0.783-0.3-1.23-1.064-1.23s-1.1,0.541-1.1,1.304v6.788c0,0.765,0.317,1.305,1.044,1.305c0.689,0,1.045-0.392,1.045-1.211v-2.239
		h-1.009V18.103z"/>
	<path fill="#056CB4" d="M57.711,12.211v9.565c0,1.957-0.839,3.227-3.002,3.227c-2.238,0-3.171-1.27-3.171-3.227v-9.565h2.127v9.77
		c0,0.747,0.298,1.25,1.044,1.25s1.044-0.503,1.044-1.25v-9.77H57.711z"/>
	<path fill="#056CB4" d="M60.974,20.845h1.697l-0.839-5.073h-0.02L60.974,20.845z M58.306,24.853l2.387-12.643h2.425l2.405,12.643
		h-2.181l-0.392-2.311h-2.258l-0.372,2.311H58.306z"/>
	<polygon fill="#056CB4" points="66.398,12.211 68.522,12.211 68.522,23.119 71.059,23.119 71.059,24.854 66.398,24.854 	"/>
	<path fill="#056CB4" d="M75.049,23.119c0.876,0,1.211-0.521,1.211-1.286v-6.62c0-0.746-0.335-1.268-1.211-1.268h-0.897v9.174
		H75.049z M78.386,15.604v5.855c0,1.938-0.803,3.393-3.077,3.393h-3.282V12.211h3.282C77.583,12.211,78.386,13.646,78.386,15.604"/>
	<path fill="#056CB4" d="M81.649,20.845h1.696l-0.839-5.073h-0.02L81.649,20.845z M78.981,24.853l2.387-12.643h2.425l2.405,12.643
		h-2.181l-0.391-2.311h-2.258l-0.371,2.311H78.981z"/>
	<path fill="#056CB4" d="M90.093,23.119c0.877,0,1.212-0.521,1.212-1.286v-6.62c0-0.746-0.335-1.268-1.212-1.268h-0.896v9.174
		H90.093z M93.43,15.604v5.855c0,1.938-0.801,3.393-3.074,3.393h-3.285V12.211h3.285C92.629,12.211,93.43,13.646,93.43,15.604"/>
	<path fill="#056CB4" d="M43.766,40.829c0.877,0,1.213-0.521,1.213-1.287v-6.619c0-0.747-0.336-1.268-1.213-1.268H42.87v9.174
		H43.766z M47.104,33.314v5.855c0,1.938-0.801,3.392-3.076,3.392h-3.283V29.921h3.283C46.302,29.921,47.104,31.356,47.104,33.314"/>
	<polygon fill="#056CB4" points="48.315,29.921 53.387,29.921 53.387,31.654 50.439,31.654 50.439,35.273 52.549,35.273 
		52.549,36.988 50.439,36.988 50.439,40.829 53.387,40.829 53.387,42.563 48.315,42.563 	"/>
	<path fill="#056CB4" d="M59.686,35.813h3.022v6.749h-1.53v-1.379c-0.28,0.951-0.877,1.528-2.033,1.528
		c-1.827,0-2.665-1.453-2.665-3.413v-6.114c0-1.976,0.95-3.414,3.188-3.414c2.349,0,3.041,1.307,3.041,3.171v1.119H60.77v-1.287
		c0-0.783-0.3-1.229-1.064-1.229s-1.1,0.541-1.1,1.304v6.788c0,0.765,0.317,1.305,1.043,1.305c0.69,0,1.046-0.392,1.046-1.211v-2.24
		h-1.009V35.813z"/>
	<path fill="#056CB4" d="M68.338,29.026l-3.339,0.429v-1.193l3.339-0.708V29.026z M63.918,29.921h5.072v1.733h-2.947v3.619h2.109
		v1.715h-2.109v3.841h2.947v1.734h-5.072V29.921z"/>
	<polygon fill="#056CB4" points="71.917,34.62 71.917,42.562 70.126,42.562 70.126,29.92 72.215,29.92 74.508,37.174 74.508,29.92 
		76.279,29.92 76.279,42.562 74.415,42.562 	"/>
	<polygon fill="#056CB4" points="77.489,29.921 82.563,29.921 82.563,31.654 79.615,31.654 79.615,35.273 81.724,35.273 
		81.724,36.988 79.615,36.988 79.615,40.829 82.563,40.829 82.563,42.563 77.489,42.563 	"/>
	<path fill="#056CB4" d="M85.822,31.654v3.936h0.708c0.73,0,1.045-0.373,1.045-1.044v-1.864c0-0.692-0.314-1.028-1.045-1.028H85.822
		z M85.822,36.764v5.799h-2.125V29.921h3.097c2.141,0,2.926,1.062,2.926,2.833v1.623c0,1.361-0.484,2.163-1.697,2.442l2.034,5.743
		h-2.24L85.822,36.764z"/>
	<path fill="#056CB4" d="M95.184,39.635v-6.788c0-0.764-0.337-1.304-1.102-1.304c-0.746,0-1.082,0.541-1.082,1.304v6.788
		c0,0.765,0.336,1.305,1.082,1.305C94.847,40.94,95.184,40.4,95.184,39.635 M90.876,39.299v-6.114c0-1.978,0.969-3.414,3.206-3.414
		c2.257,0,3.228,1.436,3.228,3.414v6.114c0,1.958-0.971,3.413-3.228,3.413C91.845,42.712,90.876,41.257,90.876,39.299"/>
</g>
</svg>
