<?xml version="1.0" encoding="utf-8"?>
<!-- Generator: Adobe Illustrator 16.0.0, SVG Export Plug-In . SVG Version: 6.00 Build 0)  -->
<!DOCTYPE svg PUBLIC "-//W3C//DTD SVG 1.1//EN" "http://www.w3.org/Graphics/SVG/1.1/DTD/svg11.dtd">
<svg version="1.1" id="Layer_1" xmlns="http://www.w3.org/2000/svg" xmlns:xlink="http://www.w3.org/1999/xlink" x="0px" y="0px"
	 width="220px" height="137.758px" viewBox="33.5 0 220 137.758" enable-background="new 33.5 0 220 137.758" xml:space="preserve">
<rect x="33.5" y="-0.829" fill="#FFFFFF" width="220.5" height="138.173"/>
<g>
	<path fill="#00ADED" d="M56.094,101.282c3.775,0,5.198-3.234,5.198-6.104c0-3.09-1.323-6.059-5.492-6.059h-2.82v12.162H56.094
		L56.094,101.282z M49.302,85.98h6.94c5.59,0,8.877,3.289,8.877,9.222c0,5.885-4.071,9.221-8.779,9.221h-7.038V85.98z"/>
	<polygon fill="#00ADED" points="66.98,85.98 78.75,85.98 78.75,89.269 70.657,89.269 70.657,93.461 78.53,93.461 78.53,96.747 
		70.657,96.747 70.657,101.135 78.75,101.135 78.75,104.422 66.98,104.422 	"/>
	<path fill="#00ADED" d="M92.775,101.282c3.777,0,5.2-3.234,5.2-6.104c0-3.09-1.325-6.059-5.494-6.059h-2.82v12.162H92.775
		L92.775,101.282z M85.983,85.98h6.94c5.591,0,8.877,3.289,8.877,9.222c0,5.885-4.07,9.221-8.778,9.221h-7.039V85.98z"/>
	<polygon fill="#00ADED" points="103.663,85.98 115.431,85.98 115.431,89.269 107.34,89.269 107.34,93.461 115.211,93.461 
		115.211,96.747 107.34,96.747 107.34,101.135 115.431,101.135 115.431,104.422 103.663,104.422 	"/>
	<path fill="#00ADED" d="M126.173,90.836c0-1.276-1.228-2.062-2.696-2.062c-1.84,0-2.943,0.812-2.943,2.038
		c0,1.273,1.224,1.887,2.132,2.182l3.385,1.078c2.452,0.784,4.192,2.206,4.192,5.051c0,2.258-1.616,5.643-6.718,5.643
		c-6.401,0-6.99-4.146-6.99-5.787l3.678-0.076c0,1.963,1.545,2.725,3.337,2.725c1.249,0,3.014-0.612,3.014-2.035
		c0-0.981-0.416-1.495-2.23-2.156l-4.022-1.449c-2.035-0.734-3.458-2.523-3.458-4.609c0-2.353,1.62-5.736,6.399-5.736
		c5.691,0,6.598,3.775,6.598,5.122L126.173,90.836z"/>
	<path fill="#00ADED" d="M138.996,90.42h-0.048l-2.33,7.16h4.733L138.996,90.42z M142.332,100.571h-6.745l-1.201,3.852h-3.972
		l6.718-18.441h3.875l6.619,18.441h-4.045L142.332,100.571z"/>
	<path fill="#00ADED" d="M154.641,94.146c2.524,0,3.164-1.347,3.164-2.524c0-1.322-0.64-2.5-3.289-2.5h-2.33v5.024H154.641z
		 M154.348,97.14h-2.162v7.282h-3.676V85.98h6.889c3.879,0,6.086,2.429,6.086,5.496c0,1.937-1.057,4.463-3.436,5.171l4.291,7.775
		h-4.391L154.348,97.14z"/>
	<path fill="#00ADED" d="M169.596,94.146c2.527,0,3.163-1.347,3.163-2.524c0-1.322-0.636-2.5-3.284-2.5h-2.33v5.024H169.596z
		 M169.301,97.14h-2.156v7.282h-3.68V85.98h6.893c3.875,0,6.08,2.429,6.08,5.496c0,1.937-1.055,4.463-3.431,5.171l4.288,7.775
		h-4.388L169.301,97.14z"/>
	<path fill="#00ADED" d="M186.589,88.92c-3.431,0-5.147,2.973-5.147,6.281c0,3.312,1.718,6.274,5.147,6.274
		c3.435,0,5.151-2.964,5.151-6.274C191.741,91.893,190.023,88.92,186.589,88.92 M186.589,85.639c5.737,0,8.978,4.609,8.978,9.562
		c0,4.955-3.239,9.563-8.978,9.563c-5.737,0-8.978-4.608-8.978-9.563C177.613,90.249,180.852,85.639,186.589,85.639"/>
	<polygon fill="#00ADED" points="197.425,85.98 201.104,85.98 201.104,100.988 208.191,100.988 208.191,104.422 197.425,104.422 	
		"/>
	<polygon fill="#00ADED" points="209.664,85.98 213.339,85.98 213.339,100.988 220.427,100.988 220.427,104.422 209.664,104.422 	
		"/>
	<path fill="#00ADED" d="M230.064,88.92c-3.435,0-5.15,2.973-5.15,6.281c0,3.312,1.717,6.274,5.15,6.274
		c3.435,0,5.148-2.964,5.148-6.274C235.213,91.893,233.5,88.92,230.064,88.92 M230.064,85.639c5.737,0,8.974,4.609,8.974,9.562
		c0,4.955-3.235,9.563-8.974,9.563c-5.739,0-8.977-4.608-8.977-9.563C221.088,90.249,224.325,85.639,230.064,85.639"/>
	<path fill="#00ADED" d="M61.684,116.165c0-1.733-1.666-2.799-3.664-2.799c-2.5,0-3.999,1.098-3.999,2.762
		c0,1.734,1.666,2.568,2.898,2.97l4.599,1.465c3.332,1.065,5.697,2.998,5.697,6.866c0,3.062-2.199,7.662-9.128,7.662
		c-8.699,0-9.498-5.631-9.498-7.864l4.998-0.101c0,2.668,2.1,3.699,4.531,3.699c1.701,0,4.1-0.834,4.1-2.766
		c0-1.334-0.567-2.032-3.033-2.932l-5.464-1.967c-2.765-0.998-4.7-3.434-4.7-6.267c0-3.194,2.2-7.795,8.697-7.795
		c7.732,0,8.963,5.129,8.963,6.962L61.684,116.165z"/>
	<path fill="#00ADED" d="M80.977,113.564c-4.667,0-7,4.033-7,8.528c0,4.5,2.333,8.529,7,8.529c4.665,0,6.998-4.029,6.998-8.529
		C87.975,117.597,85.642,113.564,80.977,113.564 M80.977,109.1c7.797,0,12.194,6.264,12.194,12.992
		c0,6.734-4.397,12.996-12.194,12.996c-7.798,0-12.196-6.262-12.196-12.996C68.781,115.364,73.179,109.1,80.977,109.1"/>
	<path fill="#00ADED" d="M107.832,116.165c0-1.733-1.667-2.799-3.666-2.799c-2.498,0-3.999,1.098-3.999,2.762
		c0,1.734,1.666,2.568,2.898,2.97l4.599,1.465c3.333,1.065,5.697,2.998,5.697,6.866c0,3.062-2.199,7.662-9.128,7.662
		c-8.697,0-9.499-5.631-9.499-7.864l4.999-0.101c0,2.668,2.1,3.699,4.531,3.699c1.699,0,4.098-0.834,4.098-2.766
		c0-1.334-0.565-2.032-3.029-2.932l-5.466-1.967c-2.766-0.998-4.698-3.434-4.698-6.267c0-3.194,2.2-7.795,8.697-7.795
		c7.729,0,8.963,5.129,8.963,6.962L107.832,116.165z"/>
	<polygon fill="#00ADED" points="120.924,114.03 114.326,114.03 114.326,109.564 132.521,109.564 132.521,114.03 125.921,114.03 
		125.921,134.624 120.924,134.624 	"/>
	<polygon fill="#00ADED" points="134.451,109.564 150.445,109.564 150.445,114.03 139.447,114.03 139.447,119.728 150.145,119.728 
		150.145,124.194 139.447,124.194 139.447,130.157 150.445,130.157 150.445,134.624 134.451,134.624 	"/>
	<polygon fill="#00ADED" points="157.775,117.532 157.708,117.532 157.708,134.624 152.911,134.624 152.911,109.567 
		158.273,109.567 168.438,126.391 168.504,126.391 168.504,109.567 173.302,109.567 173.302,134.624 168.137,134.624 	"/>
	<rect x="177.2" y="109.564" fill="#00ADED" width="4.999" height="25.06"/>
	<path fill="#00ADED" d="M194.391,130.358c3.166,0,4.299-1.398,4.299-3.166c0-1.598-1-3.266-3.897-3.266h-3.699v6.432H194.391z
		 M194.126,119.86c2.365,0,3.964-1.064,3.964-3.062c0-2.064-1.531-2.965-3.533-2.965h-3.465v6.027H194.126z M186.093,109.564h8.896
		c5.335,0,8.101,2.731,8.101,6.799c0,2.767-1.567,4.331-3.368,5.165v0.064c2.233,0.533,4.166,2.568,4.166,5.701
		c0,4.597-3.529,7.33-8.695,7.33h-9.099V109.564L186.093,109.564z"/>
	<polygon fill="#00ADED" points="206.418,109.564 211.417,109.564 211.417,129.958 221.045,129.958 221.045,134.624 
		206.418,134.624 	"/>
	<polygon fill="#00ADED" points="223.043,109.564 239.038,109.564 239.038,114.03 228.043,114.03 228.043,119.728 238.74,119.728 
		238.74,124.194 228.043,124.194 228.043,130.157 239.038,130.157 239.038,134.624 223.043,134.624 	"/>
	<path fill="#3E8EDE" d="M144.484,28.639l0.129,0.19c0,0.716,0.086,1.447,0,2.154c0.646-0.217,1.393-0.184,2.091-0.296
		c-0.14-0.053-0.277-0.088-0.38-0.227c-0.411-0.026-0.604-0.453-0.735-0.777c-0.06-0.235,0.097-0.427,0.192-0.625
		c-0.172-0.357-0.715-0.097-1.029-0.228C144.666,28.76,144.604,28.656,144.484,28.639 M134.525,28.027l-0.028,0.104l-1.795,1.807
		c2.72,2.353,5.79,3.871,9.295,4.351c0.556,0.096,1.193,0.043,1.734,0.21l-0.131-0.21v-2.364l0.086-0.131l-0.268,0.07
		C140.016,31.628,137.01,30.426,134.525,28.027 M153.88,28.054l-0.043-0.21c-0.245,0.481-0.784,0.787-1.194,1.153
		c-0.565,0.566-1.492,0.687-1.779,1.507c-0.305,0.279-0.41,0.714-0.838,0.872c-0.154,0.418-0.599,0.394-0.854,0.698
		c-0.73,0.655-1.205-0.418-1.865-0.549l-1.334,0.235c-0.464,0-0.924,0.166-1.359,0.018c0.06,0.89,0.06,1.848,0,2.738l0.164-0.106
		c4.203-0.182,7.832-1.778,10.943-4.604L153.88,28.054z M137.768,26.422c0.051,0.21,0.331,0.341,0.251,0.603
		c-0.147,0.236-0.452,0.245-0.697,0.236c-0.498-0.08-0.863,0.294-1.335,0.348c-0.427,0.132-0.574-0.391-0.966-0.348
		c2.423,2.118,5.194,3.444,8.438,3.616l0.247,0.167l-0.106-0.296v-2.303l-0.21,0.087C141.272,28.429,139.416,27.653,137.768,26.422
		 M137.707,26.353c-0.114-0.069-0.184-0.139-0.208-0.27L137.707,26.353z M137.429,25.979l-0.036-0.061l0.036,0.106V25.979z
		 M151.449,25.646l-0.061-0.164c-0.08,0.208-0.238,0.339-0.395,0.496c0.011,0.139-0.043,0.349,0.123,0.443
		c0.351,0.114,0.801,0.341,0.88,0.751c-0.14,0.382-0.87,0.731-0.42,1.152c0.147,0.208-0.209,0.286-0.146,0.461l0.121-0.166
		c0.522-0.409,1.09-0.794,1.553-1.299h0.06c-0.103-0.035-0.235,0.07-0.356,0.017c-0.246-0.112-0.289-0.331-0.289-0.584
		L151.449,25.646z M139.338,23.215c-0.515,0.628-1.125,1.282-1.735,1.778c0.27,0.017,0.417,0.314,0.644,0.445
		c1.31,1.09,2.94,1.613,4.457,1.987l-0.417-0.19c-0.316-0.357-0.759-0.776-0.776-1.274c0.312-0.104,0.278-0.453,0.382-0.688
		c0.262-0.28,0.576-0.427,0.915-0.506c-0.882,0.367-1.646-0.286-2.381-0.627C140.053,23.86,139.564,23.633,139.338,23.215
		 M147.752,22.97c-0.271,0-0.41,0.21-0.611,0.375c-0.244,0.141-0.367-0.262-0.565-0.166c0.007,0.044,0.053,0.061,0.09,0.078
		c0.049,0.061,0.069,0.192,0,0.253c-0.302,0.271-0.44-0.13-0.72-0.104v0.104c0.011,0.062-0.016,0.157-0.103,0.123
		c-0.175-0.288-0.532-0.184-0.708-0.435c-0.111-0.061-0.218,0.017-0.294,0.086c-0.063,0.132-0.341-0.017-0.271,0.21
		c-0.219,0.078-0.245,0.312-0.403,0.451c-0.27-0.041-0.391,0.263-0.646,0.255c0.028,0.053,0,0.139,0.08,0.147
		c0.156,0.071,0.314,0.087,0.504,0.061c0.262-0.418,0.699-0.069,1.062-0.225c0.229,0.042,0.068,0.286,0.238,0.374
		c0.357-0.114,0.629,0.304,0.917,0.043c-0.021-0.409,0.442-0.375,0.694-0.478c0.394-0.237,0.836-0.551,0.793-1.075L147.752,22.97z
		 M146.768,22.316c-0.027,0.07-0.123,0.192,0,0.235c0.207-0.218,0.65-0.208,0.67-0.522C147.13,21.984,146.975,22.151,146.768,22.316
		 M141.7,20.79c-0.375,0.612-1.09,1.169-1.615,1.737c0.935,0.768,1.982,1.247,3.14,1.447c0.061-0.236-0.035-0.533,0.088-0.733
		c0.086-0.193,0.322-0.182,0.496-0.149c0.106-0.008,0.167-0.139,0.106-0.227c-0.253-0.053-0.139-0.331-0.229-0.488
		c0.012-0.086,0.159-0.07,0.123-0.184c-0.174-0.139,0.088-0.296-0.061-0.443c0.061-0.044,0.105-0.141,0.193-0.141
		c-0.551,0.288-1.143-0.061-1.631-0.279C142.084,21.2,141.751,21.069,141.7,20.79 M152.686,20.79
		c-0.252-0.017-0.556,0.132-0.773-0.042c-0.079-0.071-0.133,0.033-0.122,0.103c-0.09,0.132-0.176,0.298-0.374,0.237
		c-0.159-0.069-0.159-0.237-0.212-0.357c0.01,0.096-0.022,0.182-0.043,0.27c-0.183,0.192-0.245,0.375-0.374,0.586
		c-0.186,0.2-0.479,0.13-0.672,0.296c-0.036,0.418-0.499,0.331-0.758,0.461c-0.018,0.051,0.043,0.06,0.07,0.104
		c0.117,0.035,0.286,0.035,0.372-0.086c0.364,0.096,0.288-0.366,0.497-0.524c0.186-0.025,0.357-0.182,0.549-0.062
		c0.191,0.237,0.235,0.578,0.213,0.882c-0.213,0.208-0.106,0.549-0.256,0.792c0.036,0.288-0.313,0.418-0.271,0.707
		c-0.112,0.13-0.306,0.149-0.478,0.149c-0.69-0.262-1.412-0.429-2.18-0.498c-0.07,0.028-0.116,0.087-0.105,0.167
		c0.313,0.166,0.697,0.174,1.028,0.312c0.298,0.08,0.496,0.445,0.87,0.333c0.314-0.175,0.837,0.104,1.049-0.227
		c-0.035-0.323,0.245-0.558,0.381-0.837l0.105-0.026c0.175,0.184,0.165,0.453,0.245,0.655c0.243-0.263,0.437-0.551,0.653-0.82
		c0.576-0.837,1.062-1.735,1.274-2.695C153.139,20.677,152.904,20.72,152.686,20.79 M147.752,20.773
		c0.007,0.131,0.023,0.306,0.139,0.418c0.342-0.053,0.192,0.418,0.508,0.374c0.175-0.05,0.006-0.199,0.06-0.312
		c-0.054-0.262-0.306-0.288-0.479-0.443c-0.017-0.053,0.021-0.098,0.043-0.141C147.891,20.599,147.829,20.677,147.752,20.773
		 M140.863,20.058c-0.051,0.219-0.2,0.411-0.359,0.568l0.028,0.016c0.21-0.148,0.357-0.418,0.629-0.437L140.863,20.058z
		 M138.125,19.369c0.243,0.455,0.375,0.969,0.628,1.421c0.156,0.402,0.504,0.716,0.662,1.108c0.166-0.312,0.497-0.567,0.731-0.854
		c0.02-0.132-0.008-0.245-0.078-0.341c-0.078-0.182-0.008-0.445-0.147-0.601c-0.227,0.078,0.078,0.304-0.018,0.435
		c-0.096,0.061-0.2-0.017-0.208-0.106c-0.202-0.033-0.357-0.208-0.418-0.39c0.166-0.106-0.045-0.149-0.088-0.235
		c-0.086-0.045-0.096-0.037-0.167,0.043c-0.042,0-0.094,0.008-0.131-0.019C138.891,19.335,138.335,19.631,138.125,19.369
		 M133.644,18.296l-0.193,0.088c-0.809-0.018-1.656,0.053-2.422-0.06l0.104,0.147l0.192,1.603c0.078,0.621,0.348,1.214,0.331,1.823
		c0.096-0.131,0.037-0.392,0.271-0.418c-0.098-0.19,0.182-0.357,0.025-0.523c0.078-0.418,0.13-0.845,0.498-1.149
		c0.445-0.02,0.48-0.603,0.923-0.629c0.228-0.008,0.367,0.296,0.463,0.4C133.556,19.238,133.574,18.682,133.644,18.296
		 M130.234,18.296l-0.237,0.088l-2.423-0.018c0.141,2.791,0.882,5.328,2.136,7.658c0.62,1.149,1.527,2.188,2.319,3.261l1.737-1.798
		l0.208-0.086c-0.296-0.21-0.558-0.549-0.811-0.837c-0.288-0.079-0.584-0.279-0.733-0.559c-0.086-0.094-0.008-0.268-0.104-0.337
		l-0.104,0.129c-0.306,0.147-0.418-0.166-0.628-0.296c-0.27-0.149-0.139-0.664-0.505-0.567c-0.141-0.008-0.184-0.166-0.271-0.251
		c-0.341,0.035-0.427-0.341-0.609-0.524c-0.037,0.078,0,0.184-0.106,0.236c-0.349,0.078-0.472-0.349-0.707-0.524
		c-0.061,0.026-0.104,0.096-0.192,0.078c-0.21-0.18-0.349-0.443-0.357-0.731c-0.288-0.323-0.157-0.837-0.104-1.231
		c0.051-0.103,0.2-0.164,0.174-0.294c0.078-0.184,0.27-0.202,0.455-0.21c0.069,0.036,0.139,0.106,0.173,0.167
		c0.114-0.069,0.366,0.008,0.27-0.245c0.148-0.132,0.365-0.174,0.567-0.21c0.139,0.175,0.208,0.374,0.392,0.541l-0.123-0.192
		c-0.208-0.855-0.375-1.726-0.418-2.65c0.008-0.053-0.114-0.08-0.045-0.131l0.02,0.025C130.218,18.593,130.2,18.427,130.234,18.296
		 M134.436,18.263l0.131,0.208c0.017,0.576,0.245,1.125,0.123,1.709c0.096-0.167,0.122-0.394,0.333-0.496
		c0.024-0.157-0.21-0.202-0.184-0.357c0.165-0.324,0.008-0.847,0.435-0.986C134.969,18.394,134.699,18.454,134.436,18.263
		 M154.779,18.235c0.051,0.533-0.088,1.047-0.121,1.572l0.287,0.312c0.076,0.123,0.054,0.304-0.062,0.402
		c-0.121,0.078-0.277,0.069-0.4-0.028c-0.366,1.169-0.793,2.311-1.523,3.332c-0.288,0.367-0.566,0.872-0.943,1.064l0.795,0.696
		c0.043-0.042,0.02-0.112,0.025-0.174c0-0.104,0.053-0.225,0.186-0.208c0.381-0.01,0.392,0.402,0.608,0.611
		c-0.043,0.331,0.245,0.592,0.146,0.896c2.201-2.318,3.3-5.162,3.498-8.308l0.125-0.139c-0.787,0.078-1.613,0.025-2.424,0.033
		L154.779,18.235z M158.273,18.296l-0.146-0.103l0.086,0.233c-0.139,2.903-1.104,5.467-2.763,7.744
		c-0.324,0.384-0.629,0.854-1.029,1.125c0.662,0.523,1.395,1.307,1.941,1.909l0.074-0.131c2.666-3.042,4.182-6.566,4.351-10.647
		l0.103-0.208l-0.132,0.061L158.273,18.296z M152.312,18.174l0.268,0.271c0.271,0.184,0.09,0.574,0.378,0.733
		c0.341,0.174,0.463,0.567,0.608,0.864c0.053-0.08,0.053-0.175,0.078-0.255c0.123-0.48,0.106-1.019,0.252-1.491
		C153.377,18.325,152.775,18.376,152.312,18.174 M152.852,17.32c-0.069,0.035-0.166,0.008-0.252,0.019
		C152.68,17.302,152.775,17.32,152.852,17.32 M136.529,17.024c-0.706,0.227,0.114,0.759-0.061,1.194
		c-0.094,0.253-0.357,0.017-0.541,0.123l-0.068,0.461c-0.106,0.27-0.445,0.069-0.602,0.253c-0.114,0.174,0.008,0.357,0.104,0.498
		c-0.243,0.558,0.549,0.731,0.541,1.236c0.245,0.316-0.035,0.768,0.314,1.047c0.078,0.565-0.078,1.333,0.418,1.78l0.088,0.54
		c0.103,0.375-0.447,0.279-0.377,0.61c0.106-0.051,0.132,0.087,0.141,0.123V24.87c0.672-0.776,1.448-1.595,2.242-2.283l-0.333-0.333
		c-0.617-0.925-1.107-1.909-1.343-2.989l-0.251-0.132c-0.008,0.279-0.141,0.498-0.123,0.777l-0.087,0.103
		c-0.184-0.008-0.296-0.155-0.452-0.251c-0.037-0.096-0.131-0.253,0.016-0.333c0.088-0.008,0.149,0.018,0.21,0.061
		c0.078-0.094,0.042-0.235,0.086-0.357c0.026-0.208-0.157-0.4-0.025-0.583c0.164-0.018,0.288,0.182,0.357,0.294
		c0.166,0.053,0.296-0.086,0.435-0.147c0-0.147,0.21-0.349-0.017-0.436c0.121-0.34,0.033-0.698-0.02-1.03
		C137.088,16.945,136.764,16.998,136.529,17.024 M144.105,14.871c-0.14-0.157-0.443-0.062-0.625,0
		c0.172,0.173,0.104,0.489,0.207,0.706c-0.26,0.437-0.696,0.531-1.105,0.654c-0.114,0.141-0.087,0.445-0.359,0.418
		c-0.088,0.193-0.384,0.304-0.27,0.584c-0.139,0.296-0.07,0.682-0.149,1.002c-0.515,0.324-0.366-0.427-0.627-0.584L141.09,17.8
		c-0.106,0.025-0.175-0.035-0.245-0.104c-0.078-0.026-0.208-0.053-0.278,0.017c-0.112,0.194-0.288,0.349-0.245,0.612
		c-0.051,0.155-0.314,0.103-0.278,0.268c0.288-0.008,0.601-0.06,0.88-0.121c0.2,0.051,0.366-0.096,0.566-0.105
		c0.069,0.036,0.149,0.105,0.123,0.21h0.069c0.141-0.104,0.202-0.261,0.141-0.418c0.017-0.182,0.217-0.182,0.341-0.235
		c0.111,0.053,0.042,0.165,0.06,0.251c0.392,0.15-0.096,0.438-0.147,0.646c-0.105,0.166,0,0.54-0.333,0.486
		c-0.061-0.017-0.104-0.078-0.086-0.147h-0.044c-0.008,0.139,0.096,0.331,0.235,0.394c0.245-0.202,0.253-0.542,0.602-0.585
		c0.184-0.192-0.078-0.488,0.193-0.644c0.452-0.01,0.941-0.202,1.299,0.166c-0.026,0.155-0.088,0.225,0.043,0.355
		c-0.087,0.202-0.147,0.42-0.314,0.584c0.045,0.114,0.008,0.255-0.086,0.333c-0.124,0.531-0.733,0.28-1.09,0.461
		c0.547,0.418,1.212,0.576,1.926,0.524c0.374-0.018,0.208-0.481,0.4-0.69c0.123-0.61,0.682-0.191,1.021-0.357
		c0.129-0.262,0.262-0.515,0.295-0.811c-0.219-0.139-0.305-0.4-0.234-0.655c-0.148-0.2-0.133-0.566-0.453-0.601
		c-0.053-0.069-0.01-0.157,0.035-0.208c-0.01-0.193,0.184-0.255,0.236-0.402c-0.203-0.131-0.149-0.418-0.134-0.584
		c-0.337,0.096-0.373-0.349-0.625-0.445c-0.062-0.2-0.28-0.237-0.457-0.27c-0.417,0.2-0.487-0.316-0.8-0.435
		c-0.037-0.098-0.106-0.238,0-0.316c0.155-0.131,0.366-0.017,0.548-0.025L144.105,14.871z M139.877,13.423h0.192
		c0.21,0.21,0.551,0.166,0.706,0.445c0.078,0.157-0.147,0.139-0.139,0.27c0.043,0.036,0.106,0.044,0.139,0.106
		c0.167,0.061,0.131-0.098,0.192-0.167c0.219-0.218,0.253,0.21,0.462,0.21c0.15-0.096,0.359-0.104,0.463,0.061
		c0.139-0.124,0.435-0.01,0.48-0.235c0.271-0.288,0.123-0.734,0.522-0.917c0.139,0.078-0.008,0.21,0.045,0.333
		c0.27,0.112,0.574-0.229,0.792,0.042c-0.2-0.566-0.147-1.272-0.131-1.901C142.197,11.854,140.906,12.334,139.877,13.423
		 M144.57,11.6c0.164,0.498,0.017,1.231,0.121,1.807l0.629,0.208c0.183-0.306,0.582-0.366,0.759-0.653
		c0.112-0.096,0.245,0,0.331,0.104c0.021,0.235-0.033,0.472-0.105,0.698c-0.234,0.472-0.795,0.531-1.104,0.872
		c0.198,0.113,0.311-0.096,0.479-0.14c0.24,0.026,0.434,0.236,0.581,0.394c0.155,0.069,0.306-0.028,0.443-0.08
		c0.101-0.723,1.003-0.619,1.274-1.3l-0.166,0.062c-0.069-0.094-0.246-0.051-0.234-0.208c0.148-0.139,0.341-0.357,0.521-0.418
		c-0.783-0.49-1.595-0.907-2.483-1.133C145.268,11.73,144.9,11.722,144.57,11.6 M137.035,11.312
		c-1.203,1.441-2.021,3.026-2.346,4.832c-0.094,0.419-0.043,0.907-0.208,1.299c0.304-0.141,0.75-0.088,1.088-0.044
		c-0.198-0.104-0.033-0.357-0.147-0.497c-0.027-0.218-0.062-0.49,0.147-0.628c-0.025-0.357,0.357-0.54,0.394-0.864
		c0.096-0.366,0.514-0.119,0.714-0.312c0.131-0.069,0.017-0.192,0.017-0.288c0.175-0.235,0.447-0.227,0.655-0.357
		c0.149-0.228,0.339-0.471,0.584-0.61c0.522,0.017,0.531-0.714,1.027-0.731C138.283,12.594,137.637,11.906,137.035,11.312
		 M151.221,11.226l-0.041,0.104c-0.804,0.837-1.684,1.701-2.451,2.556c0.054,0.104,0.14,0.2,0.234,0.251
		c0.036-0.208,0.148-0.392,0.166-0.609c0.211-0.288,0.521-0.106,0.794-0.045c0.417-0.096,0.812,0.096,1.237,0.086
		c0.314,0.157,0.341,0.559,0.629,0.716c0.076,0.114,0.018,0.245-0.09,0.331c0.09,0.654,0.402-0.173,0.734-0.017
		c0.14,0.053,0.313,0.035,0.416,0.182c0.053,0.27,0.385,0.218,0.403,0.479c-0.026,0.13-0.165,0.167-0.254,0.236
		c0.079,0.26-0.269,0.427-0.149,0.707c0.508,0.096,0.526-0.488,0.762-0.751c-0.133-0.454-0.229-0.915-0.489-1.317
		c-0.288-0.062-0.46-0.4-0.748-0.462c-0.56-0.216,0.086-0.565,0.017-0.898C152.093,12.22,151.624,11.722,151.221,11.226
		 M134.542,8.802l-0.017,0.166l-0.943,1.194c-1.543,2.119-2.276,4.569-2.493,7.236l2.389-0.043l0.227,0.088
		c-0.096-0.061-0.07-0.166-0.104-0.253c0.19-2.485,1.064-4.7,2.781-6.548C135.72,10.066,135.1,9.456,134.542,8.802 M144.543,8.147
		l0.086,0.192l-0.018,2.364l0.229-0.044c1.445,0.202,2.769,0.662,3.914,1.596l0.06,0.182c0.395-0.549,0.985-1.019,1.449-1.543
		l0.438-0.251l-0.213-0.088c-0.959-0.802-2.004-1.413-3.139-1.813C146.469,8.427,145.502,8.296,144.543,8.147 M143.627,8.131
		l-0.147,0.086c-2.217,0.159-4.134,1.082-5.817,2.468c0.662,0.463,1.256,1.203,1.856,1.735c0.044-0.061,0.087-0.123,0.13-0.192
		c0.829-0.592,1.683-1.133,2.66-1.378c0.435-0.043,0.862-0.253,1.317-0.147C143.532,9.883,143.532,8.976,143.627,8.131
		 M132.162,6.308c-2.485,2.765-4.02,5.921-4.465,9.522c-0.094,0.524-0.035,1.063-0.139,1.596c0.872-0.071,1.823-0.071,2.693,0
		l-0.062-0.341c0.167-2.781,1.056-5.259,2.617-7.473c0.392-0.445,0.68-1.002,1.168-1.335c-0.566-0.531-1.16-1.149-1.752-1.733
		L132.162,6.308z M156.141,6.247c-0.479,0.646-1.136,1.247-1.738,1.866l-0.293,0.062c0.182,0.043,0.233,0.261,0.356,0.392
		c0.636,0.341,0.804,1.021,1.359,1.404c0.313,0.654,1.038,1.16,1.065,1.909c0.758,1.674,1.271,3.444,1.322,5.415l-0.068,0.104
		c0.076,0,0.147-0.033,0.207-0.078l2.512-0.043c-0.164-0.245-0.096-0.602-0.139-0.898C160.395,12.498,158.736,9.176,156.141,6.247
		 M136.764,7.041c-0.539,0.375-1.036,0.864-1.593,1.196c0.644,0.407,1.174,1.088,1.76,1.629l0.061,0.166
		c1.482-1.421,3.287-2.25,5.231-2.652c0.461-0.043,0.925-0.199,1.378-0.104c-0.035-0.829-0.104-1.69-0.017-2.511
		C141.055,4.913,138.789,5.679,136.764,7.041 M152.417,4.695c-0.185,0.175-0.341-0.157-0.506,0.043
		c-0.011,0.096,0.007,0.185,0.06,0.255c0.367,0.13,0.41,0.662,0.881,0.539c0.139-0.157-0.086-0.323-0.043-0.522
		C152.749,4.825,152.59,4.748,152.417,4.695 M144.523,4.676l0.088,0.167c-0.02,0.811,0.033,1.672-0.043,2.432
		c0.332-0.114,0.668,0.026,1.002,0.037c1.709,0.278,3.322,0.827,4.693,1.882c-0.166-0.173-0.367-0.375-0.404-0.628
		c0.025-0.035,0.062-0.043,0.105-0.035c0.018-0.271-0.27-0.409-0.314-0.654c0.047-0.053,0.105-0.104,0.191-0.079
		c0.299,0.279,0.551,0.585,0.768,0.898c0.192-0.078,0.353,0.045,0.488,0.149c0.254,0.147,0.098,0.472,0.291,0.646
		c0.032,0.514,0.66,0.802,0.625,1.317c0.01,0.122,0.158,0.024,0.207,0.086l0.526,0.645c-0.097,0.123-0.017,0.271,0.086,0.357
		c0.235,0.106,0.367-0.19,0.603-0.147c0.338,0.192-0.053,0.419-0.017,0.627c0.129,0.008,0.294-0.103,0.399,0.028
		c0.043,0.19-0.154,0.312-0.234,0.435c0,0.192,0.156,0.149,0.295,0.192c0.158-0.01,0.255,0.182,0.212,0.314
		c0.435,0.452-0.133,0.941,0.076,1.421c0.142,0.314-0.033,0.619-0.226,0.854c0.01,0.386-0.342,0.619-0.479,0.943l-0.442,0.086
		c-0.238,0.235,0.197,0.522-0.037,0.671l0.977,0.019l-0.104-0.106c-0.143-0.382-0.104-0.898,0.129-1.237
		c0.149-0.314,0.184-0.688,0.465-0.96c0.06-0.016,0.172-0.13,0.225,0c0.018,0.296-0.007,0.637-0.148,0.898
		c0.281,0.4,0.244,0.925,0.271,1.421c0.864-0.053,1.711-0.069,2.555-0.061l-0.078-0.164c-0.131-1.615-0.461-3.14-1.133-4.518
		c-0.186,0.008-0.313,0.157-0.521,0.104c-0.073-0.024-0.113-0.096-0.105-0.173c-0.349-0.331-0.565-0.768-0.959-1.064
		c-0.443,0.043-0.646-0.471-1.047-0.524c-0.357-0.147-0.111-0.723-0.629-0.566c-0.251-0.104-0.496-0.296-0.549-0.584
		c0-0.455-0.086-0.943-0.496-1.239c-0.314-0.113-0.443,0.306-0.758,0.236c-0.176-0.087-0.096-0.314-0.149-0.463
		c-0.062-0.131-0.208-0.227-0.185-0.402c0.41-0.539-0.497-0.531-0.295-1.063c-0.053-0.382-0.443-0.529-0.646-0.837
		c-1.353-0.608-2.703-1.027-4.229-1.211C145.199,4.774,144.848,4.852,144.523,4.676 M146.559,2.524l-1.258,0.539
		c-0.103-0.043-0.305-0.096-0.374,0.045c-0.053,0.044,0,0.104,0.017,0.149c0.464,0.59,1.265,0.261,1.841,0.147
		c0.416,0.175,0.819-0.035,1.135-0.296V3.047C147.621,2.628,147.061,2.567,146.559,2.524 M143.566,1.208
		c-3.505,0.139-6.617,1.333-9.382,3.322c-0.533,0.366-1.002,0.923-1.543,1.239h0.078c0.689,0.504,1.343,1.228,1.927,1.856
		l0.043-0.123c2.546-2.319,5.51-3.593,8.912-3.749l-0.08-0.21l-0.024-2.093L143.566,1.208z M144.543,1.12
		c0.104,0.69,0.079,1.631,0.025,2.407c0-0.078,0.033-0.149,0.076-0.21c0.127-0.07,0.229,0.035,0.281,0.122
		c0.008,0.123,0.061,0.331-0.047,0.4c0.105,0.02,0.159-0.061,0.255-0.061c1.995,0.15,3.845,0.734,5.503,1.674V5.411
		c0.342-0.167,0.777-0.386,1.125-0.089c0.416-0.156,0.496,0.357,0.838,0.418c0.409,0.245,0.869,0.698,0.922,1.178
		c0.08,0.157,0.324,0.271,0.357,0.437c0.281-0.592,0.837-1.011,1.316-1.525l0.298-0.123c-2.634-2.513-5.765-3.897-9.251-4.377
		C145.686,1.232,145.076,1.285,144.543,1.12 M159.904,10.224c1.813,3.496,2.33,8.31,1.152,12.258
		c-1.195,4.667-5.119,9.382-9.688,11.302c-5.145,2.518-12.449,1.891-17.037-1.396c-6.373-4.369-8.979-11.895-7.054-19.323
		c1.17-4.412,4.682-8.869,8.981-10.917c2.415-1.195,5.057-1.832,7.937-1.883C150.77,0.274,157.046,4.137,159.904,10.224"/>
	<path fill="#3E8EDE" d="M160.518,3.57c1.279,1.142,1.855,2.624,2.229,4.159l0.212,0.488c-1.859-1.333-3.541-3.128-4.729-5.021
		l-1.445-1.466C158.059,2.271,159.43,2.594,160.518,3.57"/>
	<path fill="#3E8EDE" d="M128.099,5.846c-0.855,1.055-1.946,1.753-2.914,2.66c0.524-1.082,0.541-2.373,1.281-3.367
		c1.055-1.839,3.009-2.485,4.754-3.165C129.938,3.1,129.048,4.521,128.099,5.846"/>
	<path fill="#3E8EDE" d="M165.05,7.773c0.41,1.831-0.182,3.618,0.191,5.466l-0.017,0.018c-0.996-1.962-3.113-2.885-4.568-4.457
		c-0.844-0.933-1.215-2.066-1.424-3.269c0.838,2.015,3.088,2.46,4.377,4.151c0.438,0.392,0.576,0.933,0.857,1.376l0.043-0.042
		c-0.74-1.588-0.996-3.375-1.509-5.067c-0.263-0.731-0.778-1.456-1.466-1.917C163.227,4.382,164.703,6.15,165.05,7.773"/>
	<path fill="#3E8EDE" d="M126.512,4.346c-1.728,1.186-1.613,3.313-2.163,5.083c-0.175,0.655-0.481,1.256-0.628,1.927l0.044,0.035
		c0.287-0.76,0.792-1.474,1.421-2.091c1.228-1.135,3.042-1.841,3.643-3.516c-0.025,2.328-1.97,4.159-3.828,5.468
		c-0.766,0.672-1.507,1.439-1.925,2.301c-0.045-0.584,0.087-1.178,0.043-1.805c-0.2-2.03-0.348-4.349,1.09-5.859
		C124.83,5.113,125.622,4.574,126.512,4.346"/>
	<path fill="#3E8EDE" d="M166.143,8.174c1.541,2.093,1.883,5.423,0.758,7.822c-0.422,1.019-0.715,2.101-0.881,3.226
		c-0.08-0.192-0.097-0.453-0.166-0.671c-0.611-2.344-2.834-4.02-3.752-6.234c-0.287-0.723-0.529-1.474-0.668-2.258
		c0.977,1.803,3.381,2.738,4.037,4.726c0.268,0.505,0.252,1.133,0.416,1.674c0.036,0,0.069-0.028,0.069-0.061
		c-0.288-2.05-0.201-4.195,0.079-6.217c-0.016-1.101-0.122-2.164-0.73-3.009C165.695,7.398,165.871,7.833,166.143,8.174"/>
	<path fill="#3E8EDE" d="M122.823,7.521c-1.325,2.013-0.227,4.551-0.288,6.844l-0.175,2.346c0.028,0.017,0.028,0.088,0.089,0.061
		c0.078-0.261,0.094-0.541,0.147-0.812c0.312-1.889,1.952-3.232,3.392-4.541c0.306-0.341,0.576-0.69,0.732-1.09
		c-0.112,0.941-0.41,1.891-0.802,2.764c-1.117,2.181-3.183,3.967-3.558,6.46c-0.182-2.387-1.812-4.176-1.648-6.713
		c-0.053-2.058,0.802-3.742,2.005-5.274C122.753,7.545,122.778,7.512,122.823,7.521"/>
	<path fill="#3E8EDE" d="M167.588,21.75c-0.914,1.299-2.021,2.51-2.869,3.836c0.096-1.047,0.219-2.337-0.191-3.332
		c-0.709-2.136-1.326-4.306-1.524-6.652l0.026-0.898c0.529,2.399,2.885,4.045,2.736,6.731c0.053,0.655-0.146,1.203-0.27,1.778
		l0.043,0.043l0.104-0.123c0.351-1.315,0.522-2.701,1.064-3.931c0.773-1.77,1.734-3.558,1.344-5.694
		C169.229,16.03,168.872,19.395,167.588,21.75"/>
	<path fill="#3E8EDE" d="M122.151,20.914c0.253,0.88,0.314,1.832,0.671,2.659c0.035,0.018,0.062-0.017,0.088-0.043
		c-0.898-2.511,0.39-4.839,1.69-6.803c0.314-0.531,0.498-1.124,0.655-1.734c0.139,1.133-0.149,2.44-0.314,3.618
		c-0.314,1.499-0.784,2.92-1.194,4.377c-0.271,0.908-0.2,1.936-0.061,2.887l-0.131-0.106c-0.95-1.752-2.834-3.122-3.393-5.039
		c-0.461-1.527-0.768-3.297-0.452-4.961c0.147-0.645,0.26-1.309,0.54-1.901C119.719,16.587,121.551,18.55,122.151,20.914"/>
	<path fill="#3E8EDE" d="M163.988,25.875c-0.062,1.178-0.446,2.222-1.065,3.165h0.106c0.837-1.098,1.488-2.266,2.468-3.313
		c1.517-1.464,3.062-2.964,3.259-4.996c0.518,3.392-1.386,6.364-4.201,8.283c-1.162,0.759-2.336,1.464-3.453,2.328v-0.103
		c1.709-2.844,0.873-6.741,1.928-9.863l0.392-1.047C163.204,22.273,164.047,23.921,163.988,25.875"/>
	<path fill="#3E8EDE" d="M126.547,29.728c0.182,0.645,0.558,1.222,0.801,1.839c-2.598-1.77-6.138-3.453-7.288-6.695
		c-0.49-1.117-0.542-2.503-0.438-3.785c0.21,2.887,3.314,4.412,4.753,6.801c0.341,0.488,0.637,1.029,1.09,1.439
		c-0.069-0.306-0.357-0.566-0.461-0.882c-0.506-1.002-0.69-2.197-0.567-3.408c0.141-1.474,0.757-2.842,0.522-4.394
		C126.224,23.372,125.839,26.771,126.547,29.728"/>
	<path fill="#3E8EDE" d="M160.117,31.882c-0.446,0.776-1.082,1.527-1.779,2.136c0.229-0.008,0.428-0.207,0.628-0.339
		c1.873-1.866,4.313-2.389,6.336-3.907c0.814-0.646,1.556-1.491,1.913-2.405c-0.384,3.095-3.465,5.999-6.365,6.921
		c-1.5,0.402-3.104,0.533-4.562,1.031c2.468-2.119,2.329-5.398,3.98-7.891c0.52-0.707,0.955-1.448,1.567-2.119
		C160.832,27.322,161.268,29.93,160.117,31.882"/>
	<path fill="#3E8EDE" d="M128.979,29.266c0.872,2.144,1.203,4.569,3.218,6.192c-2.18-0.716-4.735-0.516-6.654-1.859
		c-2.101-1.291-3.975-3.479-4.369-5.885c1.449,3.277,5.076,3.549,7.509,5.544c0.443,0.394,0.915,0.734,1.421,0.969l0.025-0.026
		c-0.558-0.504-1.203-1.082-1.595-1.735c-1.421-1.979-0.923-4.751-1.987-6.879C127.513,26.745,128.395,27.95,128.979,29.266"/>
	<path fill="#3E8EDE" d="M154.839,35.648c-0.532,0.349-1.2,0.411-1.753,0.67c0.787,0.02,1.502-0.26,2.275-0.338
		c2.879-0.455,6.175,0.008,8.188-2.443c-0.751,1.709-2.624,3.14-4.334,3.742c-2.938,1.107-5.896-0.255-8.712-0.707l-0.539-0.071
		v-0.017c1.344-0.305,2.65-0.707,3.727-1.674c1.574-1.517,2.979-3.077,4.73-4.271C157.125,32.205,156.984,34.577,154.839,35.648"/>
	<path fill="#3E8EDE" d="M134.673,34.856c1.117,0.974,2.46,1.429,3.871,1.717c-0.339,0.123-0.784,0.086-1.151,0.184
		c-2.538,0.627-5.363,1.648-8.057,0.731c-1.753-0.549-3.557-1.934-4.438-3.663c2.319,2.644,6.113,1.762,9.208,2.452
		c0.437,0.061,0.838,0.235,1.298,0.164c-0.365-0.233-0.88-0.208-1.28-0.417c-2.424-0.855-2.781-3.479-4.098-5.249
		C131.708,31.892,133.121,33.399,134.673,34.856"/>
	<path fill="#3E8EDE" d="M153.611,38.431c1.884,0.696,4.326,0.504,5.938-0.647c-0.826,1.039-1.963,1.78-3.141,2.197
		c-2.613,0.978-5.344-0.042-7.385-1.595c-0.828-0.524-1.56-1.281-2.635-1.211c-0.38-0.008-0.758,0.008-1.088,0.104
		c1.988,0.923,3.828,2.197,5.52,3.827c-0.288,0.322-0.652,0.628-1.004,0.906c-1.621-1.752-3.428-3.434-5.438-4.418
		c-0.395,0.051-0.769,0.288-1.126,0.478c-1.638,1.037-3.261,2.372-4.48,4.002l-1.047-0.862c1.672-1.692,3.522-3.009,5.545-3.95
		c-1.988-0.627-3.287,1.039-4.797,1.884c-1.76,1.229-4.29,1.805-6.417,0.958c-1.142-0.435-2.25-1.072-3.077-2.109
		c1.674,1.151,4.169,1.272,6.07,0.524c2.554-1.108,5.206-2.513,8.281-1.841c0.481,0.01,0.952,0.49,1.404,0.079
		c2.283-0.594,4.875-0.184,6.847,0.862L153.611,38.431z"/>
	<path fill="#5EBA45" d="M194.832,61.059c0.377-0.639,0.83-1.223,1.354-1.742l-4.438-4.867c-1.118,1.067-2.071,2.305-2.818,3.668
		L194.832,61.059z"/>
	<path fill="#E3B533" d="M205.713,57.62c0.672,0.31,1.297,0.701,1.859,1.166l4.453-4.858c-1.174-1.011-2.504-1.846-3.943-2.462
		L205.713,57.62z"/>
	<path fill="#C4212E" d="M215.907,59.083l-5.902,2.941c0.285,0.657,0.483,1.355,0.593,2.083l6.564-0.617
		C216.966,61.937,216.536,60.456,215.907,59.083"/>
	<path fill="#4D9E45" d="M209.584,61.171l5.898-2.939c-0.73-1.357-1.664-2.593-2.756-3.66l-4.453,4.859
		C208.781,59.951,209.225,60.535,209.584,61.171"/>
	<path fill="#408045" d="M193.66,65.364c0-0.131,0.004-0.265,0.01-0.396l-6.562-0.588c-0.021,0.325-0.033,0.654-0.033,0.983
		c0,1.259,0.154,2.482,0.445,3.65l6.34-1.817C193.729,66.606,193.66,65.992,193.66,65.364"/>
	<path fill="#FAC212" d="M208.757,70.76c-0.467,0.566-1.006,1.072-1.603,1.506l3.469,5.611c1.283-0.873,2.432-1.937,3.391-3.153
		L208.757,70.76z"/>
	<path fill="#ED402B" d="M210.689,65.364c0,0.622-0.065,1.229-0.194,1.812l6.339,1.822c0.288-1.166,0.443-2.382,0.443-3.634
		c0-0.312-0.014-0.619-0.029-0.927l-6.564,0.62C210.686,65.16,210.689,65.261,210.689,65.364"/>
	<path fill="#F79E29" d="M195.698,70.885l-5.247,3.988c0.976,1.201,2.131,2.246,3.425,3.104l3.467-5.605
		C196.734,71.95,196.178,71.45,195.698,70.885"/>
	<path fill="#1796D4" d="M193.766,64.02c0.115-0.742,0.33-1.451,0.629-2.114l-5.896-2.939c-0.655,1.388-1.1,2.889-1.305,4.465
		L193.766,64.02z"/>
	<path fill="#A11C45" d="M209.816,78.383l-3.461-5.602c-0.629,0.354-1.308,0.633-2.02,0.816l1.223,6.484
		C207.077,79.734,208.509,79.155,209.816,78.383"/>
	<path fill="#26BDE3" d="M210.243,68.093c-0.229,0.676-0.543,1.311-0.923,1.896l5.264,3.971c0.854-1.228,1.527-2.588,1.992-4.047
		L210.243,68.093z"/>
	<path fill="#F26B2B" d="M203.4,73.792c-0.396,0.058-0.811,0.09-1.228,0.09c-0.335,0-0.665-0.022-0.989-0.061l-1.222,6.482
		c0.722,0.107,1.46,0.162,2.211,0.162c0.833,0,1.65-0.07,2.448-0.199L203.4,73.792z"/>
	<path fill="#E8213D" d="M202.719,56.865c0.73,0.048,1.439,0.187,2.107,0.407l2.365-6.152c-1.406-0.498-2.912-0.792-4.474-0.847
		L202.719,56.865L202.719,56.865z"/>
	<path fill="#DB1769" d="M200.244,73.659c-0.737-0.172-1.438-0.438-2.092-0.789l-3.467,5.606c1.336,0.765,2.795,1.33,4.338,1.657
		L200.244,73.659z"/>
	<path fill="#17476B" d="M199.616,57.243c0.685-0.217,1.401-0.348,2.149-0.382v-6.592c-1.584,0.043-3.105,0.331-4.535,0.825
		L199.616,57.243z"/>
	<path fill="#C7992E" d="M195.119,70.127c-0.417-0.617-0.758-1.296-1.002-2.016l-6.336,1.82c0.479,1.509,1.189,2.919,2.094,4.184
		L195.119,70.127z"/>
	<path fill="#03699C" d="M196.898,58.685c0.557-0.44,1.168-0.812,1.826-1.104l-2.382-6.146c-1.419,0.595-2.729,1.401-3.888,2.379
		L196.898,58.685z"/>
	<path fill="#3E8EDE" d="M86.004,74.084c3.628,0,4.925-1.604,4.925-3.625c0-1.833-1.145-3.742-4.465-3.742h-4.237v7.367H86.004z
		 M85.7,62.061c2.709,0,4.541-1.219,4.541-3.512c0-2.364-1.755-3.396-4.045-3.396h-3.969v6.908H85.7z M76.5,50.268h10.192
		c6.106,0,9.274,3.13,9.274,7.785c0,3.17-1.793,4.965-3.854,5.917v0.076c2.558,0.61,4.769,2.94,4.769,6.529
		c0,5.264-4.043,8.397-9.96,8.397H76.5V50.268z"/>
	<path fill="#3E8EDE" d="M97.416,50.268h13.13v18.931c0,9.086-5.421,10.002-11.221,10.002h-1.833v-4.888h2.939
		c2.786,0,4.389-0.837,4.389-3.813V55.383h-7.405L97.416,50.268L97.416,50.268z"/>
	<polygon fill="#3E8EDE" points="114.323,50.268 132.643,50.268 132.643,55.383 120.049,55.383 120.049,61.91 132.302,61.91 
		132.302,67.024 120.049,67.024 120.049,73.858 132.643,73.858 132.643,78.973 114.323,78.973 	"/>
	<polygon fill="#3E8EDE" points="140.962,55.383 133.406,55.383 133.406,50.268 154.245,50.268 154.245,55.383 146.688,55.383 
		146.688,78.973 140.962,78.973 	"/>
	<rect x="156.646" y="50.268" fill="#3E8EDE" width="5.728" height="28.705"/>
	<polygon fill="#3E8EDE" points="182.447,50.268 188.63,50.268 179.316,78.973 173.289,78.973 163.936,50.268 170.234,50.268 
		176.379,71.375 176.455,71.375 	"/>
	<path fill="#3E8EDE" d="M60.215,54.849c-5.344,0-8.017,4.619-8.017,9.77c0,5.152,2.673,9.771,8.017,9.771
		c5.345,0,8.017-4.619,8.017-9.771C68.232,59.467,65.561,54.849,60.215,54.849 M60.215,49.733c8.933,0,13.969,7.176,13.969,14.885
		c0,7.71-5.036,14.886-13.969,14.886c-8.932,0-13.969-7.176-13.969-14.886C46.246,56.91,51.284,49.733,60.215,49.733"/>
	<path fill="#3E8EDE" d="M233.245,57.825c0-1.985-1.909-3.206-4.199-3.206c-2.86,0-4.579,1.261-4.579,3.17
		c0,1.983,1.909,2.937,3.322,3.396l5.268,1.679c3.817,1.221,6.524,3.435,6.524,7.864c0,3.51-2.519,8.776-10.459,8.776
		c-9.959,0-10.875-6.451-10.875-9.01l5.724-0.111c0,3.054,2.405,4.234,5.191,4.234c1.945,0,4.695-0.953,4.695-3.166
		c0-1.525-0.648-2.33-3.476-3.359l-6.26-2.252c-3.166-1.145-5.38-3.932-5.38-7.176c0-3.665,2.518-8.932,9.962-8.932
		c8.854,0,10.264,5.878,10.264,7.979L233.245,57.825z"/>
</g>
</svg>
