<?xml version="1.0" encoding="utf-8"?>
<!-- Generator: Adobe Illustrator 15.0.0, SVG Export Plug-In . SVG Version: 6.00 Build 0)  -->
<!DOCTYPE svg PUBLIC "-//W3C//DTD SVG 1.1//EN" "http://www.w3.org/Graphics/SVG/1.1/DTD/svg11.dtd">
<svg version="1.1" id="Layer_1" xmlns="http://www.w3.org/2000/svg" xmlns:xlink="http://www.w3.org/1999/xlink" x="0px" y="0px"
	 width="150px" height="150px" viewBox="0 0 150 150" enable-background="new 0 0 150 150" xml:space="preserve">
<g>
	<rect fill="#E1E1E1" width="149.995" height="150"/>
	<polygon fill="#056CB4" points="20.943,19.727 20.988,19.727 20.988,42.878 26.072,42.878 26.072,12.634 22.011,12.634 
		17.33,18.122 17.33,23.428 17.373,23.428 	"/>
	<path fill="#056CB4" d="M115.517,71.564c0-2.295,1.863-4.152,4.156-4.152c2.291,0,4.146,1.857,4.146,4.152
		c0,2.294-1.854,4.154-4.146,4.154C117.38,75.718,115.517,73.858,115.517,71.564"/>
	<path fill="#056CB4" d="M124.52,77.319c2.816,0.255,5.024,2.623,5.024,5.514v1.378v0.604v9.529c0,0.885-0.721,1.608-1.607,1.608
		c-0.894,0-1.611-0.724-1.611-1.608v-9.886c0-0.371-0.105-0.874-0.784-0.874c-0.47,0-0.566,0.497-0.585,0.813v29.633
		c0,1.272-1.03,2.312-2.31,2.312c-1.28,0-2.317-1.039-2.317-2.312V96.955c-0.006-0.189-0.069-0.68-0.656-0.68h-0.003
		c-0.59,0-0.663,0.49-0.668,0.68v17.076c0,1.272-1.032,2.312-2.311,2.312c-1.281,0-2.312-1.039-2.312-2.312V84.398
		c-0.018-0.316-0.118-0.813-0.582-0.813c-0.683,0-0.785,0.503-0.785,0.874v9.886c0,0.885-0.723,1.608-1.612,1.608
		c-0.891,0-1.607-0.724-1.607-1.608v-9.529V84.21v-1.378c0-2.891,2.212-5.259,5.031-5.514c0.095-0.012,0.193-0.027,0.305-0.027
		h4.545h4.531C124.323,77.292,124.421,77.307,124.52,77.319"/>
	<path fill="#056CB4" d="M90.824,73.745c0-2.172-1.757-3.937-3.927-3.937c-2.174,0-3.936,1.765-3.936,3.937
		c0,2.174,1.762,3.935,3.936,3.935C89.067,77.679,90.824,75.918,90.824,73.745"/>
	<path fill="#056CB4" d="M78.971,82.653l-3.267,10.641c0,0-0.584,1.949,1.07,2.438c1.646,0.488,2.147-1.416,2.147-1.416l2.634-8.881
		c0,0,0.146-0.685,0.657-0.535c0.515,0.146,0.322,0.878,0.322,0.878l-4.588,16.643h4.266v11.921c0,1.129,0.919,2.044,2.052,2.044
		c1.13,0,2.046-0.915,2.046-2.044v-11.921h0.583h0.581v11.921c0,1.129,0.912,2.044,2.046,2.044c1.136,0,2.052-0.915,2.052-2.044
		v-11.921h4.264l-4.584-16.643c0,0-0.191-0.732,0.321-0.878c0.517-0.149,0.657,0.535,0.657,0.535l2.636,8.881
		c0,0,0.501,1.904,2.146,1.416c1.656-0.488,1.07-2.438,1.07-2.438l-3.266-10.641c0,0-1.169-3.075-3.756-3.075h-4.167h-4.166
		C80.143,79.578,78.971,82.653,78.971,82.653"/>
	<path fill="#056CB4" d="M67.272,73.745c0-2.172-1.758-3.937-3.93-3.937c-2.173,0-3.934,1.765-3.934,3.937
		c0,2.174,1.761,3.935,3.934,3.935C65.515,77.679,67.272,75.918,67.272,73.745"/>
	<path fill="#056CB4" d="M55.418,82.653l-3.266,10.641c0,0-0.585,1.949,1.069,2.438c1.647,0.488,2.146-1.416,2.146-1.416
		l2.636-8.881c0,0,0.144-0.685,0.656-0.535c0.517,0.146,0.321,0.878,0.321,0.878l-4.587,16.643h4.266v11.921
		c0,1.129,0.921,2.044,2.051,2.044c1.133,0,2.049-0.915,2.049-2.044v-11.921h0.585h0.578v11.921c0,1.129,0.911,2.044,2.049,2.044
		c1.135,0,2.048-0.915,2.048-2.044v-11.921h4.265l-4.582-16.643c0,0-0.196-0.732,0.317-0.878c0.512-0.149,0.658,0.535,0.658,0.535
		l2.633,8.881c0,0,0.501,1.904,2.147,1.416c1.658-0.488,1.072-2.438,1.072-2.438l-3.268-10.641c0,0-1.165-3.075-3.755-3.075h-4.163
		h-4.168C56.591,79.578,55.418,82.653,55.418,82.653"/>
	<path fill="#056CB4" d="M104.029,95.752c1.81,0,3.271-1.465,3.271-3.274c0-1.812-1.462-3.271-3.271-3.271
		c-1.811,0-3.272,1.46-3.272,3.271C100.757,94.288,102.219,95.752,104.029,95.752"/>
	<path fill="#056CB4" d="M96.182,105.92c-0.16,0.382-0.291,1.196,0.477,1.549c0.901,0.412,1.402-0.458,1.402-0.458l1.78-5.673
		c0,0,0.31-0.381,0.31,0.013v13.356h0.007c0,0.931,0.748,1.681,1.681,1.681c0.929,0,1.679-0.75,1.679-1.681v-5.271
		c0,0-0.097-0.743,0.504-0.743c0.599,0,0.508,0.743,0.508,0.743v5.271c0,0.931,0.752,1.681,1.681,1.681s1.684-0.75,1.684-1.681
		v-13.356c0-0.394,0.208-0.113,0.208-0.113l1.395,3.887c0,0,0.606,1.735,0.792,1.812c0.628,0.264,1.354-0.034,1.622-0.672
		c0.173-0.413,0.107-0.859-0.133-1.194l0.011-0.011c-0.038-0.127-2.083-5.139-2.323-5.842c-0.739-2.155-2.083-2.136-3.377-2.172
		c-1.294-0.033-2.066,0-2.066,0s-0.826-0.033-2.538,0.017c-1.703,0.055-2.24,0.927-4.125,5.769
		c-0.268,0.695-1.176,2.953-1.187,3.088L96.182,105.92z"/>
	<path fill="#056CB4" d="M32.155,71.564c0-2.295-1.864-4.152-4.156-4.152c-2.291,0-4.148,1.857-4.148,4.152
		c0,2.294,1.857,4.154,4.148,4.154C30.291,75.718,32.155,73.858,32.155,71.564"/>
	<path fill="#056CB4" d="M23.15,77.319c-2.817,0.255-5.028,2.623-5.028,5.514v1.378v0.604v9.529c0,0.885,0.722,1.608,1.611,1.608
		c0.891,0,1.61-0.724,1.61-1.608v-9.886c0-0.371,0.108-0.874,0.786-0.874c0.469,0,0.565,0.497,0.586,0.813v29.633
		c0,1.272,1.028,2.312,2.309,2.312c1.279,0,2.314-1.039,2.314-2.312V96.955c0.009-0.189,0.07-0.68,0.66-0.68h0.002
		c0.589,0,0.662,0.49,0.666,0.68v17.076c0,1.272,1.032,2.312,2.311,2.312c1.283,0,2.314-1.039,2.314-2.312V84.398
		c0.013-0.316,0.119-0.813,0.583-0.813c0.682,0,0.783,0.503,0.783,0.874v9.886c0,0.885,0.724,1.608,1.613,1.608
		c0.889,0,1.607-0.724,1.607-1.608v-9.529V84.21v-1.378c0-2.891-2.209-5.259-5.03-5.514c-0.095-0.012-0.194-0.027-0.305-0.027H28
		h-4.532C23.348,77.292,23.249,77.307,23.15,77.319"/>
	
		<line fill="none" stroke="#056CB4" stroke-width="1.2173" stroke-linecap="round" stroke-miterlimit="10" x1="19.529" y1="96.017" x2="15.842" y2="115.564"/>
	<path fill="#056CB4" d="M39.85,94.038c-0.215-0.335-0.583-0.561-1.01-0.561c-0.658,0-1.193,0.535-1.193,1.19
		c0,0.189,0.118,0.524,0.118,0.524l3.299,5.972c0,0,0.201,0.411,0.201,0.786v12.823h0.007c0,0.896,0.722,1.613,1.613,1.613
		s1.608-0.717,1.608-1.613v-5.061c0,0-0.091-0.717,0.487-0.717s0.486,0.717,0.486,0.717v5.061c0,0.896,0.724,1.613,1.615,1.613
		c0.891,0,1.616-0.717,1.616-1.613V101.95c0-0.375,0.2-0.786,0.2-0.786l3.049-5.513c0,0,0.373-0.794,0.373-0.983
		c0-0.655-0.533-1.19-1.193-1.19c-0.431,0-0.8,0.226-1.009,0.561l-0.014-0.007c-0.096,0.084-1.622,2.804-2.127,3.306
		c-0.533,0.539-1.01,0.478-1.01,0.478H44.98H43c0,0-0.481,0.062-1.012-0.478c-0.509-0.502-2.03-3.222-2.129-3.306L39.85,94.038z"/>
	<path fill="#056CB4" d="M44.981,95.752c1.81,0,3.271-1.465,3.271-3.274c0-1.812-1.462-3.271-3.271-3.271
		c-1.811,0-3.272,1.46-3.272,3.271C41.709,94.288,43.171,95.752,44.981,95.752"/>
	<polygon fill="#056CB4" points="44.987,100.348 48.685,103.043 50.443,109.516 44.987,109.516 39.524,109.516 41.289,103.043 	"/>
	<polygon fill="#056CB4" points="40.116,12.21 45.093,12.21 45.093,13.944 42.242,13.944 42.242,17.562 44.368,17.562 
		44.368,19.277 42.242,19.277 42.242,24.852 40.116,24.852 	"/>
	<rect x="46.025" y="12.211" fill="#056CB4" width="2.125" height="12.641"/>
	<polygon fill="#056CB4" points="51.171,16.909 51.171,24.853 49.381,24.853 49.381,12.209 51.47,12.209 53.763,19.463 
		53.763,12.209 55.533,12.209 55.533,24.853 53.669,24.853 	"/>
	<path fill="#056CB4" d="M43.137,40.829c0.875,0,1.211-0.522,1.211-1.286v-6.62c0-0.746-0.336-1.267-1.211-1.267h-0.896v9.173
		H43.137z M46.474,33.314v5.855c0,1.938-0.802,3.393-3.077,3.393h-3.282V29.921h3.282C45.672,29.921,46.474,31.357,46.474,33.314"/>
	<polygon fill="#056CB4" points="47.685,29.92 52.757,29.92 52.757,31.654 49.81,31.654 49.81,35.272 51.918,35.272 51.918,36.988 
		49.81,36.988 49.81,40.828 52.757,40.828 52.757,42.561 47.685,42.561 	"/>
	<polygon fill="#056CB4" points="55.85,29.92 57.974,29.92 57.974,40.828 60.51,40.828 60.51,42.561 55.85,42.561 	"/>
	<path fill="#056CB4" d="M63.81,38.555h1.696l-0.838-5.073h-0.021L63.81,38.555z M61.143,42.562l2.386-12.641h2.426l2.405,12.641
		h-2.182l-0.391-2.312h-2.257l-0.371,2.312H61.143z"/>
	<path fill="#056CB4" d="M73.315,31.654v4.979H74.1c0.727,0,1.043-0.354,1.043-1.044v-2.91c0-0.689-0.317-1.025-1.043-1.025H73.315z
		 M71.19,29.92h3.15c2.147,0,2.93,1.063,2.93,2.833v2.668c0,1.771-0.783,2.852-2.93,2.852h-1.025v4.287H71.19V29.92z"/>
	<path fill="#056CB4" d="M82.675,39.635v-6.788c0-0.765-0.337-1.305-1.102-1.305c-0.746,0-1.081,0.541-1.081,1.305v6.788
		c0,0.764,0.335,1.304,1.081,1.304C82.338,40.939,82.675,40.399,82.675,39.635 M78.366,39.3v-6.117c0-1.976,0.97-3.411,3.208-3.411
		c2.257,0,3.226,1.435,3.226,3.411V39.3c0,1.957-0.969,3.413-3.226,3.413C79.336,42.712,78.366,41.256,78.366,39.3"/>
	<path fill="#056CB4" d="M88.135,36.875v3.952h0.934c0.708,0,1.043-0.354,1.043-1.025v-1.901c0-0.671-0.316-1.026-1.063-1.026
		H88.135z M88.135,35.254h0.749c0.69,0,1.007-0.354,1.007-1.026v-1.549c0-0.689-0.317-1.025-1.027-1.025h-0.729V35.254z
		 M86.01,29.92h3.075c2.128,0,2.836,0.988,2.836,2.778v1.287c0,1.064-0.393,1.736-1.267,2.015c1.063,0.242,1.584,0.95,1.584,2.106
		v1.677c0,1.789-0.801,2.777-2.927,2.777H86.01V29.92z"/>
	<path fill="#056CB4" d="M95.424,31.654v3.935h0.709c0.729,0,1.043-0.372,1.043-1.044v-1.864c0-0.692-0.313-1.027-1.043-1.027
		H95.424z M95.424,36.764v5.799h-2.126V29.92h3.099c2.141,0,2.926,1.062,2.926,2.833v1.624c0,1.361-0.484,2.163-1.699,2.442
		l2.036,5.743H97.42L95.424,36.764z"/>
	<polygon fill="#056CB4" points="100.475,29.92 105.546,29.92 105.546,31.654 102.601,31.654 102.601,35.272 104.709,35.272 
		104.709,36.988 102.601,36.988 102.601,40.828 105.546,40.828 105.546,42.561 100.475,42.561 	"/>
	<polygon fill="#056CB4" points="108.752,40.829 111.977,40.829 111.977,42.562 106.533,42.562 106.533,40.829 109.872,31.655 
		106.868,31.655 106.868,29.921 112.107,29.921 112.107,31.655 	"/>
	<path fill="#056CB4" d="M115.464,38.555h1.697l-0.84-5.073h-0.02L115.464,38.555z M112.796,42.562l2.387-12.641h2.426l2.403,12.641
		h-2.181l-0.392-2.312h-2.257l-0.37,2.312H112.796z"/>
</g>
</svg>
