<?xml version="1.0" encoding="utf-8"?>
<!-- Generator: Adobe Illustrator 15.0.0, SVG Export Plug-In . SVG Version: 6.00 Build 0)  -->
<!DOCTYPE svg PUBLIC "-//W3C//DTD SVG 1.1//EN" "http://www.w3.org/Graphics/SVG/1.1/DTD/svg11.dtd">
<svg version="1.1" id="Layer_1" xmlns="http://www.w3.org/2000/svg" xmlns:xlink="http://www.w3.org/1999/xlink" x="0px" y="0px"
	 width="150px" height="150px" viewBox="0 0 150 150" enable-background="new 0 0 150 150" xml:space="preserve">
<g>
	<rect fill="#E1E1E1" width="150.001" height="150"/>
	<path fill="#056CB4" d="M18.993,33.939l4.549-12.445h0.047v12.445H18.993z M23.499,42.814h4.817v-4.907h2.054v-3.968h-2.054V12.57
		h-4.999l-8.786,22.215v3.122h8.967V42.814z"/>
	<polygon fill="#056CB4" points="66.516,80.429 39.612,64.894 39.612,115.146 66.516,123.261 	"/>
	<polygon fill="#056CB4" points="69.474,80.531 69.474,123.28 96.551,115.138 96.551,64.896 	"/>
	<path fill="#056CB4" d="M117.672,63.624c0-1.76-1.428-3.184-3.184-3.184c-1.758,0-3.182,1.424-3.182,3.184v3.431h6.365V63.624z"/>
	<polygon fill="#056CB4" points="112.097,114.253 111.305,114.253 114.488,125.376 117.668,114.253 116.877,114.253 
		117.668,114.253 117.668,69.547 116.877,69.547 116.089,69.547 115.25,69.547 113.666,69.547 112.888,69.547 112.097,69.547 
		111.303,69.547 111.303,114.253 	"/>
	<polygon fill="#056CB4" points="102.331,67.053 99.447,64.776 99.447,116.507 69.554,126.167 68.17,126.167 67.896,126.167 
		66.516,126.167 36.756,117.855 36.756,64.776 33.87,67.053 33.87,119.875 66.379,128.876 67.896,128.876 68.17,128.876 
		69.688,128.876 99.681,119.353 102.331,118.575 	"/>
	<polygon fill="#056CB4" points="40.045,12.211 45.118,12.211 45.118,13.944 42.17,13.944 42.17,17.563 44.279,17.563 
		44.279,19.278 42.17,19.278 42.17,23.119 45.118,23.119 45.118,24.853 40.045,24.853 	"/>
	<path fill="#056CB4" d="M49.274,23.119c0.876,0,1.211-0.522,1.211-1.287v-6.619c0-0.747-0.335-1.268-1.211-1.268h-0.896v9.173
		H49.274z M52.611,15.604v5.856c0,1.938-0.802,3.392-3.077,3.392h-3.282V12.211h3.282C51.81,12.211,52.611,13.646,52.611,15.604"/>
	<path fill="#056CB4" d="M59.994,12.211v9.564c0,1.958-0.84,3.228-3.002,3.228c-2.238,0-3.17-1.27-3.17-3.228v-9.564h2.127v9.77
		c0,0.747,0.298,1.25,1.043,1.25c0.747,0,1.044-0.503,1.044-1.25v-9.77H59.994z"/>
	<path fill="#056CB4" d="M61.205,21.589v-6.114c0-1.978,0.933-3.413,3.169-3.413c2.349,0,3.004,1.305,3.004,3.169v1.493h-1.939
		v-1.662c0-0.783-0.263-1.229-1.027-1.229c-0.762,0-1.082,0.541-1.082,1.305v6.788c0,0.764,0.319,1.305,1.082,1.305
		c0.764,0,1.027-0.485,1.027-1.231v-2.33h1.939v2.181c0,1.809-0.747,3.153-3.004,3.153C62.138,25.003,61.205,23.547,61.205,21.589"
		/>
	<path fill="#056CB4" d="M70.676,20.845h1.697l-0.839-5.073h-0.02L70.676,20.845z M68.009,24.852l2.386-12.642h2.426l2.404,12.642
		h-2.181l-0.392-2.311h-2.258l-0.371,2.311H68.009z"/>
	<path fill="#056CB4" d="M75.82,21.589v-6.114c0-1.978,0.932-3.413,3.168-3.413c2.35,0,3.004,1.305,3.004,3.169v1.493h-1.937v-1.662
		c0-0.783-0.265-1.229-1.029-1.229c-0.763,0-1.08,0.541-1.08,1.305v6.788c0,0.764,0.316,1.305,1.08,1.305
		c0.764,0,1.029-0.485,1.029-1.231v-2.33h1.937v2.181c0,1.809-0.744,3.153-3.004,3.153C76.752,25.003,75.82,23.547,75.82,21.589"/>
	<rect x="83.146" y="12.21" fill="#056CB4" width="2.126" height="12.643"/>
	<path fill="#056CB4" d="M90.811,21.925v-6.788c0-0.764-0.338-1.305-1.103-1.305c-0.747,0-1.082,0.541-1.082,1.305v6.788
		c0,0.764,0.335,1.305,1.082,1.305C90.472,23.23,90.811,22.689,90.811,21.925 M91.44,11.316l-3.335,0.429v-1.193l3.335-0.708V11.316
		z M86.501,21.589v-6.114c0-1.978,0.97-3.413,3.206-3.413c2.257,0,3.226,1.435,3.226,3.413v6.114c0,1.958-0.969,3.414-3.226,3.414
		C87.472,25.003,86.501,23.547,86.501,21.589"/>
	<polygon fill="#056CB4" points="95.936,16.909 95.936,24.852 94.146,24.852 94.146,12.21 96.231,12.21 98.525,19.464 98.525,12.21 
		100.298,12.21 100.298,24.852 98.434,24.852 	"/>
	<path fill="#056CB4" d="M43.067,40.828c0.875,0,1.211-0.521,1.211-1.285v-6.62c0-0.746-0.336-1.268-1.211-1.268H42.17v9.172H43.067
		z M46.404,33.314v5.855c0,1.937-0.802,3.392-3.076,3.392h-3.284V29.921h3.284C45.602,29.921,46.404,31.356,46.404,33.314"/>
	<polygon fill="#056CB4" points="47.614,29.921 52.687,29.921 52.687,31.654 49.74,31.654 49.74,35.273 51.849,35.273 
		51.849,36.988 49.74,36.988 49.74,40.828 52.687,40.828 52.687,42.563 47.614,42.563 	"/>
	<path fill="#056CB4" d="M55.78,39.299v-6.114c0-1.978,0.932-3.414,3.169-3.414c2.35,0,3.004,1.305,3.004,3.169v1.493h-1.939v-1.661
		c0-0.783-0.264-1.229-1.028-1.229c-0.762,0-1.081,0.54-1.081,1.304v6.788c0,0.764,0.319,1.306,1.081,1.306
		c0.764,0,1.028-0.486,1.028-1.231v-2.33h1.939v2.181c0,1.808-0.746,3.152-3.004,3.152C56.712,42.712,55.78,41.257,55.78,39.299"/>
	<path fill="#056CB4" d="M65.251,38.555h1.696l-0.838-5.073h-0.021L65.251,38.555z M62.583,42.562l2.386-12.642h2.426L69.8,42.562
		h-2.182l-0.392-2.311h-2.257l-0.371,2.311H62.583z"/>
	<polygon fill="#056CB4" points="70.674,29.921 72.798,29.921 72.798,40.828 75.335,40.828 75.335,42.563 70.674,42.563 	"/>
	<rect x="76.304" y="29.92" fill="#056CB4" width="2.126" height="12.643"/>
	<path fill="#056CB4" d="M82.68,40.828c0.877,0,1.212-0.521,1.212-1.285v-6.62c0-0.746-0.335-1.268-1.212-1.268h-0.896v9.172H82.68z
		 M86.019,33.314v5.855c0,1.937-0.803,3.392-3.077,3.392h-3.285V29.921h3.285C85.216,29.921,86.019,31.356,86.019,33.314"/>
	<path fill="#056CB4" d="M89.281,38.555h1.698l-0.842-5.073h-0.018L89.281,38.555z M86.612,42.562l2.387-12.642h2.427l2.403,12.642
		h-2.181l-0.391-2.311h-2.258l-0.37,2.311H86.612z"/>
	<path fill="#056CB4" d="M97.726,40.828c0.875,0,1.212-0.521,1.212-1.285v-6.62c0-0.746-0.337-1.268-1.212-1.268h-0.896v9.172
		H97.726z M101.062,33.314v5.855c0,1.937-0.804,3.392-3.075,3.392h-3.284V29.921h3.284
		C100.259,29.921,101.062,31.356,101.062,33.314"/>
</g>
</svg>
