<?xml version="1.0" encoding="utf-8"?>
<!-- Generator: Adobe Illustrator 15.0.0, SVG Export Plug-In . SVG Version: 6.00 Build 0)  -->
<!DOCTYPE svg PUBLIC "-//W3C//DTD SVG 1.1//EN" "http://www.w3.org/Graphics/SVG/1.1/DTD/svg11.dtd">
<svg version="1.1" id="Layer_1" xmlns="http://www.w3.org/2000/svg" xmlns:xlink="http://www.w3.org/1999/xlink" x="0px" y="0px"
	 width="150px" height="150px" viewBox="0 0 150 150" enable-background="new 0 0 150 150" xml:space="preserve">
<g>
	<rect fill="#E1E1E1" width="150.001" height="150.002"/>
	<path fill="#056CB4" d="M24.059,35.95c0,1.831-0.669,3.123-2.496,3.123c-1.786,0-2.455-1.292-2.455-3.123v-4.906
		c0-1.829,0.669-3.124,2.455-3.124c1.827,0,2.496,1.295,2.496,3.124V35.95z M19.285,19.224c0-1.832,0.626-2.903,2.277-2.903
		c1.693,0,2.319,1.071,2.319,2.903v2.05c0,1.829-0.626,2.901-2.319,2.901c-1.651,0-2.277-1.072-2.277-2.901V19.224z M29.145,35.415
		v-3.301c0-2.898-1.025-4.996-3.389-6.067c2.004-0.98,2.944-2.764,2.944-5.262v-1.25c0-4.728-2.454-7.271-7.137-7.271
		c-4.639,0-7.05,2.543-7.05,7.271v1.25c0,2.454,0.895,4.282,2.855,5.262c-2.364,1.071-3.346,3.168-3.346,6.067v3.301
		c0,4.594,2.187,7.806,7.541,7.806C26.958,43.22,29.145,40.008,29.145,35.415"/>
	<path fill="#056CB4" d="M95.042,81.316L81.764,93.947c-0.502,0.5-0.757,0.864-0.757,1.898v35.395c0,0.415,0.338,0.758,0.757,0.758
		h13.713c0.418,0,0.757-0.343,0.757-0.758V81.636C96.234,81.218,95.907,80.457,95.042,81.316"/>
	<path fill="#056CB4" d="M56.792,97.771l-13.278,12.631c-0.498,0.499-0.755,0.863-0.755,1.894v18.944
		c0,0.415,0.339,0.758,0.755,0.758h13.715c0.419,0,0.756-0.343,0.756-0.758V98.087C57.985,97.672,57.655,96.908,56.792,97.771"/>
	<path fill="#056CB4" d="M101.075,66.001c0.004-0.101-0.031-0.209-0.113-0.289c-0.068-0.067-0.158-0.099-0.243-0.106l-0.073,0.004
		l-0.111,0.007l-10.166,2.294l-0.184,0.019c-0.073,0.015-0.142,0.05-0.199,0.104c-0.147,0.151-0.147,0.396,0,0.546l0.117,0.116
		l2.321,2.321L69.387,94.049l-10.64-10.64c-0.121-0.12-0.311-0.12-0.433,0l-2.886,2.888L55.425,86.3l-17.054,17.056
		c-0.119,0.117-0.119,0.313,0,0.43l2.889,2.892c0.119,0.12,0.311,0.12,0.431,0L58.533,89.84l7.722,7.72
		c0.007,0.011,0.011,0.025,0.025,0.036l2.887,2.884c0.119,0.12,0.312,0.12,0.433,0l26.146-26.144l2.438,2.436
		c0.149,0.153,0.393,0.153,0.542,0c0.071-0.069,0.105-0.156,0.109-0.249l0.002-0.035l2.233-10.375L101.075,66.001z"/>
	<path fill="#056CB4" d="M75.991,99.989l-6.424,6.477c-0.121,0.099-0.3,0.099-0.414-0.018l-5.821-5.932
		c-1.064-1.062-1.293-0.2-1.293,0.219v30.505c0,0.415,0.334,0.754,0.752,0.754h13.717c0.415,0,0.755-0.339,0.755-0.754v-31.015
		C77.264,99.81,76.933,99.045,75.991,99.989"/>
	<polygon fill="#056CB4" points="37,12.6 42.65,12.6 42.65,14.334 40.896,14.334 40.896,25.242 38.752,25.242 38.752,14.334 
		37,14.334 	"/>
	<path fill="#056CB4" d="M45.761,14.334v3.935h0.709c0.729,0,1.044-0.373,1.044-1.044v-1.864c0-0.691-0.316-1.027-1.044-1.027
		H45.761z M45.761,19.443v5.8h-2.125V12.6h3.096c2.143,0,2.928,1.063,2.928,2.834v1.624c0,1.361-0.485,2.163-1.699,2.442
		l2.034,5.744h-2.238L45.761,19.443z"/>
	<path fill="#056CB4" d="M53.144,21.235h1.697l-0.839-5.073h-0.02L53.144,21.235z M50.476,25.243l2.387-12.641h2.425l2.405,12.641
		h-2.181l-0.392-2.312h-2.257l-0.371,2.312H50.476z"/>
	<path fill="#056CB4" d="M60.693,19.557v3.951h0.934c0.708,0,1.044-0.354,1.044-1.025v-1.901c0-0.671-0.319-1.025-1.064-1.025
		H60.693z M60.693,17.935h0.748c0.69,0,1.006-0.354,1.006-1.026V15.36c0-0.69-0.316-1.026-1.026-1.026h-0.728V17.935z M58.567,12.6
		h3.077c2.126,0,2.835,0.989,2.835,2.78v1.284c0,1.064-0.394,1.736-1.268,2.015c1.062,0.242,1.585,0.952,1.585,2.106v1.678
		c0,1.79-0.802,2.778-2.927,2.778h-3.302V12.6z"/>
	<path fill="#056CB4" d="M68.096,21.235h1.697l-0.839-5.073h-0.02L68.096,21.235z M65.427,25.243l2.387-12.641h2.425l2.405,12.641
		h-2.181l-0.392-2.312h-2.257l-0.372,2.312H65.427z"/>
	<path fill="#056CB4" d="M78.982,12.6v9.771c0,1.827-0.803,3.022-2.928,3.022c-2.2,0-2.798-1.213-2.798-2.817v-2.517h2.014v2.554
		c0,0.634,0.224,1.006,0.784,1.006c0.577,0,0.801-0.372,0.801-1.025V12.6H78.982z"/>
	<path fill="#056CB4" d="M84.482,22.315v-6.788c0-0.765-0.338-1.306-1.101-1.306c-0.747,0-1.082,0.541-1.082,1.306v6.788
		c0,0.764,0.335,1.304,1.082,1.304C84.144,23.62,84.482,23.079,84.482,22.315 M80.173,21.979v-6.117c0-1.976,0.97-3.411,3.208-3.411
		c2.258,0,3.226,1.435,3.226,3.411v6.117c0,1.957-0.968,3.414-3.226,3.414C81.143,25.393,80.173,23.937,80.173,21.979"/>
	<path fill="#056CB4" d="M92.795,23.509c0.877,0,1.212-0.522,1.212-1.286v-6.62c0-0.746-0.335-1.267-1.212-1.267h-0.896v9.173
		H92.795z M96.133,15.994v5.856c0,1.938-0.802,3.393-3.076,3.393h-3.284V12.601h3.284C95.331,12.601,96.133,14.037,96.133,15.994"/>
	<polygon fill="#056CB4" points="97.343,12.6 102.415,12.6 102.415,14.334 99.468,14.334 99.468,17.953 101.576,17.953 
		101.576,19.667 99.468,19.667 99.468,23.508 102.415,23.508 102.415,25.242 97.343,25.242 	"/>
	<path fill="#056CB4" d="M103.363,21.979v-6.117c0-1.976,0.933-3.411,3.17-3.411c2.349,0,3.002,1.304,3.002,3.168v1.494h-1.938
		v-1.661c0-0.783-0.263-1.231-1.027-1.231c-0.763,0-1.081,0.541-1.081,1.306v6.788c0,0.764,0.318,1.304,1.081,1.304
		c0.765,0,1.027-0.484,1.027-1.23v-2.33h1.938v2.182c0,1.808-0.744,3.152-3.002,3.152C104.296,25.393,103.363,23.937,103.363,21.979
		"/>
	<polygon fill="#056CB4" points="110.689,12.6 115.762,12.6 115.762,14.334 112.813,14.334 112.813,17.953 114.922,17.953 
		114.922,19.667 112.813,19.667 112.813,23.508 115.762,23.508 115.762,25.242 110.689,25.242 	"/>
	<polygon fill="#056CB4" points="118.687,17.299 118.687,25.243 116.897,25.243 116.897,12.6 118.985,12.6 121.279,19.853 
		121.279,12.6 123.049,12.6 123.049,25.243 121.185,25.243 	"/>
	<polygon fill="#056CB4" points="124.02,12.6 129.668,12.6 129.668,14.334 127.915,14.334 127.915,25.242 125.771,25.242 
		125.771,14.334 124.02,14.334 	"/>
	<polygon fill="#056CB4" points="130.655,12.6 135.728,12.6 135.728,14.334 132.78,14.334 132.78,17.953 134.889,17.953 
		134.889,19.667 132.78,19.667 132.78,23.508 135.728,23.508 135.728,25.242 130.655,25.242 	"/>
	<polygon fill="#056CB4" points="41.382,37.21 41.382,42.022 39.255,42.022 39.255,37.21 36.887,29.378 39.107,29.378 
		40.394,34.172 40.41,34.172 41.699,29.378 43.73,29.378 	"/>
	<path fill="#056CB4" d="M46.543,38.758v-6.117c0-1.976,0.933-3.411,3.17-3.411c2.349,0,3.003,1.304,3.003,3.168v1.494h-1.939
		v-1.661c0-0.783-0.262-1.231-1.027-1.231c-0.763,0-1.081,0.541-1.081,1.306v6.788c0,0.764,0.318,1.304,1.081,1.304
		c0.765,0,1.027-0.484,1.027-1.23v-2.33h1.939v2.182c0,1.808-0.746,3.152-3.003,3.152C47.476,42.171,46.543,40.715,46.543,38.758"/>
	<path fill="#056CB4" d="M55.996,31.113v3.935h0.709c0.728,0,1.044-0.373,1.044-1.044V32.14c0-0.691-0.316-1.027-1.044-1.027H55.996
		z M55.996,36.222v5.8h-2.125V29.378h3.096c2.143,0,2.927,1.063,2.927,2.834v1.624c0,1.361-0.485,2.163-1.698,2.442l2.033,5.744
		h-2.238L55.996,36.222z"/>
	<polygon fill="#056CB4" points="61.048,29.378 66.121,29.378 66.121,31.113 63.173,31.113 63.173,34.731 65.282,34.731 
		65.282,36.446 63.173,36.446 63.173,40.287 66.121,40.287 66.121,42.02 61.048,42.02 	"/>
	<path fill="#056CB4" d="M67.069,38.758v-6.117c0-1.976,0.932-3.411,3.169-3.411c2.35,0,3.003,1.304,3.003,3.168v1.494h-1.938
		v-1.661c0-0.783-0.263-1.231-1.027-1.231c-0.763,0-1.082,0.541-1.082,1.306v6.788c0,0.764,0.318,1.304,1.082,1.304
		c0.764,0,1.027-0.484,1.027-1.23v-2.33h1.938v2.182c0,1.808-0.746,3.152-3.003,3.152C68.001,42.171,67.069,40.715,67.069,38.758"/>
	<rect x="74.396" y="29.379" fill="#056CB4" width="2.125" height="12.641"/>
	<polygon fill="#056CB4" points="83.604,33.817 83.55,33.817 82.114,42.021 81.125,42.021 79.541,33.817 79.503,33.817 
		79.503,42.021 77.75,42.021 77.75,29.378 80.231,29.378 81.611,36.501 81.629,36.501 82.86,29.378 85.546,29.378 85.546,42.021 
		83.604,42.021 	"/>
	<rect x="86.754" y="29.379" fill="#056CB4" width="2.126" height="12.641"/>
	<polygon fill="#056CB4" points="90.11,29.378 95.184,29.378 95.184,31.113 92.236,31.113 92.236,34.731 94.344,34.731 
		94.344,36.446 92.236,36.446 92.236,40.287 95.184,40.287 95.184,42.02 90.11,42.02 	"/>
	<polygon fill="#056CB4" points="98.109,34.078 98.109,42.021 96.32,42.021 96.32,29.378 98.408,29.378 100.7,36.631 100.7,29.378 
		102.472,29.378 102.472,42.021 100.607,42.021 	"/>
	<polygon fill="#056CB4" points="103.44,29.378 109.091,29.378 109.091,31.113 107.336,31.113 107.336,42.02 105.191,42.02 
		105.191,31.113 103.44,31.113 	"/>
	<path fill="#056CB4" d="M114.104,39.094v-6.788c0-0.765-0.339-1.306-1.104-1.306c-0.744,0-1.079,0.541-1.079,1.306v6.788
		c0,0.764,0.335,1.304,1.079,1.304C113.766,40.398,114.104,39.858,114.104,39.094 M109.796,38.758v-6.117
		c0-1.976,0.97-3.411,3.205-3.411c2.26,0,3.229,1.435,3.229,3.411v6.117c0,1.958-0.969,3.414-3.229,3.414
		C110.766,42.171,109.796,40.715,109.796,38.758"/>
	<polygon fill="#056CB4" points="37.242,46.157 42.314,46.157 42.314,47.89 39.367,47.89 39.367,51.509 41.476,51.509 
		41.476,53.224 39.367,53.224 39.367,57.065 42.314,57.065 42.314,58.799 37.242,58.799 	"/>
	<path fill="#056CB4" d="M43.263,55.536v-6.117c0-1.975,0.932-3.41,3.169-3.41c2.35,0,3.003,1.305,3.003,3.168v1.494h-1.938v-1.661
		c0-0.783-0.264-1.23-1.028-1.23c-0.763,0-1.082,0.54-1.082,1.305v6.788c0,0.765,0.319,1.306,1.082,1.306
		c0.765,0,1.028-0.484,1.028-1.231v-2.331h1.938v2.183c0,1.809-0.746,3.153-3.003,3.153C44.195,58.951,43.263,57.494,43.263,55.536"
		/>
	<path fill="#056CB4" d="M54.896,55.872v-6.788c0-0.765-0.337-1.305-1.102-1.305c-0.746,0-1.082,0.54-1.082,1.305v6.788
		c0,0.765,0.336,1.306,1.082,1.306C54.56,57.177,54.896,56.636,54.896,55.872 M50.589,55.536v-6.117c0-1.975,0.969-3.41,3.206-3.41
		c2.257,0,3.227,1.436,3.227,3.41v6.117c0,1.958-0.97,3.415-3.227,3.415C51.558,58.951,50.589,57.494,50.589,55.536"/>
	<polygon fill="#056CB4" points="60.022,50.855 60.022,58.8 58.232,58.8 58.232,46.156 60.321,46.156 62.614,53.41 62.614,46.156 
		64.385,46.156 64.385,58.8 62.521,58.8 	"/>
	<path fill="#056CB4" d="M69.903,55.872v-6.788c0-0.765-0.337-1.305-1.102-1.305c-0.745,0-1.081,0.54-1.081,1.305v6.788
		c0,0.765,0.336,1.306,1.081,1.306C69.566,57.177,69.903,56.636,69.903,55.872 M70.536,45.262l-3.337,0.429v-1.193l3.337-0.708
		V45.262z M65.596,55.536v-6.117c0-1.975,0.969-3.41,3.206-3.41c2.258,0,3.227,1.436,3.227,3.41v6.117
		c0,1.958-0.969,3.415-3.227,3.415C66.564,58.951,65.596,57.494,65.596,55.536"/>
	<polygon fill="#056CB4" points="79.093,50.595 79.037,50.595 77.603,58.8 76.614,58.8 75.029,50.595 74.992,50.595 74.992,58.8 
		73.238,58.8 73.238,46.157 75.719,46.157 77.098,53.279 77.116,53.279 78.347,46.157 81.034,46.157 81.034,58.8 79.093,58.8 	"/>
	<rect x="82.241" y="46.158" fill="#056CB4" width="2.126" height="12.642"/>
	<path fill="#056CB4" d="M85.597,55.536v-6.117c0-1.975,0.932-3.41,3.169-3.41c2.349,0,3.004,1.305,3.004,3.168v1.494h-1.939v-1.661
		c0-0.783-0.264-1.23-1.026-1.23c-0.763,0-1.082,0.54-1.082,1.305v6.788c0,0.765,0.318,1.306,1.082,1.306
		c0.763,0,1.026-0.484,1.026-1.231v-2.331h1.939v2.183c0,1.809-0.746,3.153-3.004,3.153C86.529,58.951,85.597,57.494,85.597,55.536"
		/>
	<path fill="#056CB4" d="M97.232,55.872v-6.788c0-0.765-0.337-1.305-1.102-1.305c-0.746,0-1.081,0.54-1.081,1.305v6.788
		c0,0.765,0.335,1.306,1.081,1.306C96.896,57.177,97.232,56.636,97.232,55.872 M92.924,55.536v-6.117c0-1.975,0.968-3.41,3.207-3.41
		c2.257,0,3.228,1.436,3.228,3.41v6.117c0,1.958-0.971,3.415-3.228,3.415C93.893,58.951,92.924,57.494,92.924,55.536"/>
</g>
</svg>
