<?xml version="1.0" encoding="utf-8"?>
<!-- Generator: Adobe Illustrator 15.0.0, SVG Export Plug-In . SVG Version: 6.00 Build 0)  -->
<!DOCTYPE svg PUBLIC "-//W3C//DTD SVG 1.1//EN" "http://www.w3.org/Graphics/SVG/1.1/DTD/svg11.dtd">
<svg version="1.1" id="Layer_1" xmlns="http://www.w3.org/2000/svg" xmlns:xlink="http://www.w3.org/1999/xlink" x="0px" y="0px"
	 width="150px" height="150px" viewBox="0 0 150 150" enable-background="new 0 0 150 150" xml:space="preserve">
<g>
	<rect fill="#E1E1E1" width="150.001" height="150"/>
	<path fill="#056CB4" d="M20.331,30.498c0.089-1.695,0.803-2.764,2.408-2.764c1.739,0,2.409,1.069,2.409,3.035v5.262
		c0,1.918-0.71,3.033-2.453,3.033c-1.697,0-2.365-1.159-2.365-3.033V30.498z M22.696,43.213c5.398,0,7.495-2.946,7.495-7.63v-4.461
		c0-4.952-1.964-7.448-5.624-7.448c-2.141,0-3.434,0.983-4.193,2.454h-0.043v-6.513c0-1.832,0.581-3.123,2.408-3.123
		c1.828,0,2.365,1.072,2.365,2.946v2.006h4.639v-1.605c0-4.463-1.473-7.582-7.091-7.582c-5.354,0-7.362,3.433-7.362,8.16v14.722
		C15.29,39.822,17.342,43.213,22.696,43.213"/>
	<path fill="#056CB4" d="M98.857,72.287c-1.475-0.647-3.344-0.413-5.14,0.313c-6.752,2.737-11.348,3.722-18.448,1.497
		c-4.474-1.399-8.659-4.332-13.605-2.547c-3.283,1.181-6.341,2.309-10.052,2.278l-2.145-10.989h50.932L98.857,72.287z
		 M81.595,104.922c0,0-2.472,2.541-6.494,2.265c-4.029,0.276-6.5-2.265-6.5-2.265c-4.078-4.074-2.623-9.141-1.203-11.761
		c0.877-1.641,7.141-11.047,7.679-11.846v-0.063c0,0,0.009,0.013,0.024,0.032l0.023-0.032v0.063
		c0.522,0.799,6.796,10.205,7.672,11.846C84.218,95.782,85.667,100.848,81.595,104.922 M102.629,60.655
		c-0.129-0.138-0.3-0.217-0.494-0.217h-54.42c-0.189,0-0.36,0.079-0.488,0.217c-0.12,0.153-0.167,0.339-0.137,0.515l9.141,55.295
		c0.051,0.306,0.32,0.531,0.63,0.531h11.221l0.767,9.006l-4.721,0.006l10.988,10.984l11.013-11.009l-4.719,0.004l0.764-8.991h11.419
		c0.316,0,0.579-0.226,0.624-0.543l8.556-55.283C102.802,60.979,102.745,60.798,102.629,60.655"/>
	<path fill="#056CB4" d="M43.059,20.845h1.695l-0.838-5.073h-0.021L43.059,20.845z M40.391,24.853l2.387-12.643h2.425l2.405,12.643
		h-2.181l-0.391-2.311h-2.258l-0.372,2.311H40.391z"/>
	<path fill="#056CB4" d="M51.409,18.103h3.022v6.75H52.9v-1.379c-0.278,0.952-0.875,1.528-2.032,1.528
		c-1.826,0-2.665-1.454-2.665-3.413v-6.114c0-1.976,0.95-3.414,3.188-3.414c2.349,0,3.041,1.307,3.041,3.171v1.119h-1.939v-1.287
		c0-0.783-0.3-1.229-1.065-1.229c-0.763,0-1.1,0.541-1.1,1.304v6.788c0,0.765,0.317,1.306,1.045,1.306
		c0.69,0,1.045-0.392,1.045-1.212V19.78h-1.008V18.103z"/>
	<path fill="#056CB4" d="M61.812,12.211v9.565c0,1.957-0.839,3.227-3,3.227c-2.24,0-3.172-1.27-3.172-3.227v-9.565h2.126v9.77
		c0,0.747,0.298,1.25,1.045,1.25c0.745,0,1.043-0.503,1.043-1.25v-9.77H61.812z"/>
	<path fill="#056CB4" d="M65.076,20.845h1.697l-0.839-5.073h-0.02L65.076,20.845z M62.409,24.853l2.385-12.643h2.427l2.405,12.643
		h-2.181l-0.392-2.311h-2.26l-0.369,2.311H62.409z"/>
	<polygon fill="#056CB4" points="72.457,12.211 74.582,12.211 74.582,23.118 77.118,23.118 77.118,24.854 72.457,24.854 	"/>
	<rect x="78.086" y="12.21" fill="#056CB4" width="2.127" height="12.644"/>
	<polygon fill="#056CB4" points="87.297,16.648 87.24,16.648 85.806,24.853 84.817,24.853 83.233,16.648 83.195,16.648 
		83.195,24.853 81.442,24.853 81.442,12.21 83.923,12.21 85.303,19.333 85.321,19.333 86.552,12.21 89.237,12.21 89.237,24.853 
		87.297,24.853 	"/>
	<path fill="#056CB4" d="M92.573,13.944v4.98h0.784c0.727,0,1.044-0.354,1.044-1.044v-2.91c0-0.69-0.317-1.026-1.044-1.026H92.573z
		 M90.446,12.211h3.151c2.145,0,2.93,1.062,2.93,2.833v2.667c0,1.771-0.785,2.853-2.93,2.853h-1.024v4.289h-2.127V12.211z"/>
	<rect x="97.623" y="12.21" fill="#056CB4" width="2.125" height="12.644"/>
	<path fill="#056CB4" d="M103.312,20.845h1.696l-0.839-5.073h-0.021L103.312,20.845z M100.644,24.853l2.386-12.643h2.427
		l2.404,12.643h-2.181l-0.392-2.311h-2.259l-0.37,2.311H100.644z"/>
	<polygon fill="#056CB4" points="44.868,37.752 44.868,42.563 42.739,42.563 42.739,37.752 40.372,29.921 42.591,29.921 
		43.878,34.713 43.895,34.713 45.184,29.921 47.216,29.921 	"/>
	<path fill="#056CB4" d="M49.917,39.84v-1.696h1.978v1.733c0,0.708,0.315,1.119,1.045,1.119c0.668,0,0.969-0.448,0.969-1.119v-0.484
		c0-0.727-0.3-1.174-0.952-1.79l-1.249-1.25c-1.213-1.193-1.772-1.92-1.772-3.375V32.55c0-1.565,0.914-2.777,2.982-2.777
		c2.126,0,2.968,1.043,2.968,2.87v1.026h-1.939v-1.1c0-0.727-0.338-1.081-1.007-1.081c-0.599,0-1.007,0.335-1.007,1.044v0.26
		c0,0.709,0.392,1.119,1.007,1.715l1.36,1.343c1.156,1.176,1.715,1.885,1.715,3.283v0.614c0,1.734-0.932,2.965-3.097,2.965
		C50.755,42.711,49.917,41.499,49.917,39.84"/>
	<path fill="#056CB4" d="M59.279,38.555h1.695l-0.837-5.073h-0.021L59.279,38.555z M56.61,42.562l2.387-12.642h2.425l2.405,12.642
		h-2.181l-0.391-2.312h-2.258l-0.371,2.312H56.61z"/>
	<polygon fill="#056CB4" points="66.493,34.62 66.493,42.562 64.703,42.562 64.703,29.92 66.792,29.92 69.083,37.174 69.083,29.92 
		70.854,29.92 70.854,42.562 68.99,42.562 	"/>
	<polygon fill="#056CB4" points="72.066,29.921 77.138,29.921 77.138,31.654 74.19,31.654 74.19,35.273 76.298,35.273 
		76.298,36.988 74.19,36.988 74.19,40.828 77.138,40.828 77.138,42.563 72.066,42.563 	"/>
	<path fill="#056CB4" d="M80.606,38.555h1.695l-0.837-5.073h-0.021L80.606,38.555z M77.937,42.562l2.387-12.642h2.425l2.405,12.642
		h-2.181l-0.391-2.312h-2.258l-0.371,2.312H77.937z"/>
	<polygon fill="#056CB4" points="91.883,34.358 91.828,34.358 90.392,42.562 89.403,42.562 87.819,34.358 87.781,34.358 
		87.781,42.562 86.028,42.562 86.028,29.92 88.509,29.92 89.889,37.043 89.908,37.043 91.138,29.92 93.824,29.92 93.824,42.562 
		91.883,42.562 	"/>
	<rect x="95.034" y="29.92" fill="#056CB4" width="2.125" height="12.643"/>
	<polygon fill="#056CB4" points="98.388,29.921 103.463,29.921 103.463,31.654 100.514,31.654 100.514,35.273 102.623,35.273 
		102.623,36.988 100.514,36.988 100.514,40.828 103.463,40.828 103.463,42.563 98.388,42.563 	"/>
	<polygon fill="#056CB4" points="106.388,34.62 106.388,42.562 104.599,42.562 104.599,29.92 106.687,29.92 108.979,37.174 
		108.979,29.92 110.75,29.92 110.75,42.562 108.886,42.562 	"/>
	<polygon fill="#056CB4" points="111.719,29.921 117.368,29.921 117.368,31.654 115.614,31.654 115.614,42.563 113.47,42.563 
		113.47,31.654 111.719,31.654 	"/>
	<path fill="#056CB4" d="M122.384,39.635v-6.788c0-0.764-0.339-1.305-1.102-1.305c-0.746,0-1.081,0.541-1.081,1.305v6.788
		c0,0.764,0.335,1.305,1.081,1.305C122.045,40.94,122.384,40.399,122.384,39.635 M118.074,39.299v-6.114
		c0-1.978,0.971-3.413,3.208-3.413c2.258,0,3.226,1.436,3.226,3.413v6.114c0,1.957-0.968,3.413-3.226,3.413
		C119.045,42.712,118.074,41.256,118.074,39.299"/>
</g>
</svg>
