<?xml version="1.0" encoding="utf-8"?>
<!-- Generator: Adobe Illustrator 15.0.0, SVG Export Plug-In . SVG Version: 6.00 Build 0)  -->
<!DOCTYPE svg PUBLIC "-//W3C//DTD SVG 1.1//EN" "http://www.w3.org/Graphics/SVG/1.1/DTD/svg11.dtd">
<svg version="1.1" id="Layer_1" xmlns="http://www.w3.org/2000/svg" xmlns:xlink="http://www.w3.org/1999/xlink" x="0px" y="0px"
	 width="150px" height="150px" viewBox="0 0 150 150" enable-background="new 0 0 150 150" xml:space="preserve">
<g>
	<rect fill="#E1E1E1" width="150.001" height="150"/>
	<polygon fill="#056CB4" points="14.473,19.652 14.473,42.828 19.562,42.828 19.562,12.552 15.498,12.552 10.811,18.047 
		10.811,23.361 10.854,23.361 14.426,19.652 	"/>
	<path fill="#056CB4" d="M28.181,35.819V19.565c0-1.831,0.67-3.127,2.412-3.127c1.785,0,2.455,1.296,2.455,3.127v16.254
		c0,1.832-0.67,3.124-2.455,3.124C28.851,38.943,28.181,37.651,28.181,35.819 M38.139,35.015V20.368
		c0-4.733-2.366-8.171-7.546-8.171c-5.135,0-7.504,3.438-7.504,8.171v14.646c0,4.687,2.37,8.171,7.504,8.171
		C35.772,43.186,38.139,39.702,38.139,35.015"/>
	<path fill="#056CB4" d="M90.49,99.087H60.506c-0.181,0-0.327,0.146-0.327,0.328v6.79c0,0.182,0.146,0.328,0.327,0.328H90.49
		c0.182,0,0.328-0.146,0.328-0.328v-6.79C90.818,99.233,90.672,99.087,90.49,99.087"/>
	<path fill="#056CB4" d="M90.818,86.638c0-0.178-0.146-0.327-0.33-0.327H65.632h-5.127c-0.178,0-0.326,0.149-0.326,0.327v2.677
		v4.121c0,0.179,0.147,0.324,0.326,0.324h29.983c0.184,0,0.33-0.146,0.33-0.324V86.638z"/>
	<path fill="#056CB4" d="M108.168,89.296c-1.23-4.938-3.471-9.357-6.431-13.111l-0.065,0.048c0.961,1.435,1.824,2.952,2.56,4.555
		c3.894,7.133,5.082,15.74,2.63,24.154c-4.928,16.888-22.604,26.584-39.493,21.661c-7.095-2.072-12.917-6.401-16.924-11.976
		c-2.503-3.219-4.396-6.991-5.443-11.2c-4.006-16.107,5.802-32.422,21.917-36.431c9.965-2.48,19.993,0.348,27.151,6.664
		c0.065,0.059,0.127,0.117,0.193,0.172c0.192,0.146,0.422,0.248,0.681,0.248c0.291,0,0.546-0.116,0.752-0.29l0.118-0.118
		l3.815-3.769l0.251-0.248c0.143-0.194,0.246-0.42,0.246-0.679c0-0.301-0.124-0.564-0.31-0.772c-0.038-0.038-0.08-0.074-0.122-0.11
		c-8.806-7.868-21.209-11.402-33.534-8.337c-19.795,4.927-31.846,24.966-26.921,44.759c2.065,8.294,6.788,15.22,13.028,20.113
		c6.219,5.098,14.135,7.992,22.432,7.904c2.668-0.025,5.374-0.353,8.079-1.026C101.446,126.861,112.811,107.964,108.168,89.296"/>
	<path fill="#056CB4" d="M47.764,14.333v3.936h0.708c0.729,0,1.044-0.374,1.044-1.045V15.36c0-0.692-0.315-1.027-1.044-1.027H47.764
		z M47.764,19.443v5.8h-2.125V12.6h3.097c2.142,0,2.927,1.063,2.927,2.833v1.624c0,1.362-0.484,2.163-1.699,2.443l2.035,5.744
		h-2.239L47.764,19.443z"/>
	<polygon fill="#056CB4" points="52.816,12.6 57.888,12.6 57.888,14.333 54.941,14.333 54.941,17.952 57.05,17.952 57.05,19.667 
		54.941,19.667 54.941,23.506 57.888,23.506 57.888,25.242 52.816,25.242 	"/>
	<path fill="#056CB4" d="M62.044,23.508c0.875,0,1.211-0.522,1.211-1.287v-6.619c0-0.747-0.336-1.267-1.211-1.267h-0.896v9.173
		H62.044z M65.381,15.993v5.855c0,1.939-0.802,3.394-3.077,3.394h-3.282V12.6h3.282C64.58,12.6,65.381,14.036,65.381,15.993"/>
	<path fill="#056CB4" d="M72.765,12.6v9.565c0,1.957-0.839,3.228-3.002,3.228c-2.239,0-3.171-1.271-3.171-3.228V12.6h2.128v9.771
		c0,0.745,0.298,1.249,1.043,1.249c0.746,0,1.044-0.504,1.044-1.249V12.6H72.765z"/>
	<path fill="#056CB4" d="M73.976,21.979v-6.117c0-1.976,0.932-3.412,3.169-3.412c2.349,0,3.004,1.305,3.004,3.169v1.493h-1.94v-1.66
		c0-0.783-0.262-1.231-1.027-1.231c-0.761,0-1.082,0.541-1.082,1.306v6.787c0,0.765,0.32,1.306,1.082,1.306
		c0.765,0,1.027-0.484,1.027-1.231v-2.33h1.94v2.181c0,1.808-0.746,3.153-3.004,3.153C74.908,25.393,73.976,23.936,73.976,21.979"/>
	<path fill="#056CB4" d="M81.301,21.979v-6.117c0-1.976,0.932-3.412,3.17-3.412c2.348,0,3.003,1.305,3.003,3.169v1.493h-1.94v-1.66
		c0-0.783-0.262-1.231-1.027-1.231c-0.761,0-1.082,0.541-1.082,1.306v6.787c0,0.765,0.321,1.306,1.082,1.306
		c0.765,0,1.027-0.484,1.027-1.231v-2.33h1.94v2.181c0,1.808-0.746,3.153-3.003,3.153C82.233,25.393,81.301,23.936,81.301,21.979"/>
	<rect x="88.628" y="12.6" fill="#056CB4" width="2.125" height="12.642"/>
	<path fill="#056CB4" d="M96.29,22.314v-6.787c0-0.765-0.337-1.306-1.102-1.306c-0.744,0-1.081,0.541-1.081,1.306v6.787
		c0,0.765,0.337,1.306,1.081,1.306C95.953,23.62,96.29,23.079,96.29,22.314 M96.924,11.704l-3.339,0.43v-1.192l3.339-0.71V11.704z
		 M91.983,21.979v-6.117c0-1.976,0.969-3.412,3.206-3.412c2.258,0,3.229,1.436,3.229,3.412v6.117c0,1.957-0.971,3.414-3.229,3.414
		C92.952,25.393,91.983,23.936,91.983,21.979"/>
	<polygon fill="#056CB4" points="101.417,17.299 101.417,25.242 99.627,25.242 99.627,12.598 101.716,12.598 104.008,19.853 
		104.008,12.598 105.779,12.598 105.779,25.242 103.915,25.242 	"/>
	<path fill="#056CB4" d="M111.97,23.508c0.874,0,1.211-0.522,1.211-1.287v-6.619c0-0.747-0.337-1.267-1.211-1.267h-0.897v9.173
		H111.97z M115.305,15.993v5.855c0,1.939-0.801,3.394-3.076,3.394h-3.281V12.6h3.281C114.504,12.6,115.305,14.036,115.305,15.993"/>
	<polygon fill="#056CB4" points="116.518,12.6 121.589,12.6 121.589,14.333 118.642,14.333 118.642,17.952 120.75,17.952 
		120.75,19.667 118.642,19.667 118.642,23.506 121.589,23.506 121.589,25.242 116.518,25.242 	"/>
	<polygon fill="#056CB4" points="124.681,12.6 126.807,12.6 126.807,23.506 129.341,23.506 129.341,25.242 124.681,25.242 	"/>
	<path fill="#056CB4" d="M132.642,21.234h1.696l-0.839-5.074h-0.02L132.642,21.234z M129.975,25.242l2.385-12.642h2.427
		l2.406,12.642h-2.183l-0.393-2.312h-2.258l-0.369,2.312H129.975z"/>
	<path fill="#056CB4" d="M48.66,41.218c0.875,0,1.211-0.522,1.211-1.287v-6.619c0-0.747-0.336-1.267-1.211-1.267h-0.897v9.173H48.66
		z M51.997,33.704v5.855c0,1.938-0.802,3.393-3.076,3.393h-3.284V30.311h3.284C51.194,30.311,51.997,31.747,51.997,33.704"/>
	<polygon fill="#056CB4" points="53.208,30.311 58.279,30.311 58.279,32.043 55.333,32.043 55.333,35.663 57.441,35.663 
		57.441,37.377 55.333,37.377 55.333,41.216 58.279,41.216 58.279,42.952 53.208,42.952 	"/>
	<path fill="#056CB4" d="M59.21,40.23v-1.696h1.978v1.732c0,0.71,0.315,1.12,1.044,1.12c0.669,0,0.969-0.448,0.969-1.12v-0.484
		c0-0.726-0.3-1.173-0.953-1.789L61,36.742c-1.211-1.192-1.771-1.92-1.771-3.374v-0.43c0-1.565,0.914-2.778,2.983-2.778
		c2.125,0,2.966,1.045,2.966,2.871v1.025h-1.939v-1.1c0-0.727-0.337-1.082-1.006-1.082c-0.599,0-1.007,0.337-1.007,1.045v0.26
		c0,0.708,0.392,1.12,1.007,1.715l1.361,1.344c1.155,1.176,1.715,1.884,1.715,3.282v0.615c0,1.733-0.932,2.964-3.097,2.964
		C60.048,43.101,59.21,41.888,59.21,40.23"/>
	<rect x="66.425" y="30.311" fill="#056CB4" width="2.126" height="12.641"/>
	<path fill="#056CB4" d="M72.988,36.202h3.021v6.75h-1.53v-1.378c-0.279,0.95-0.875,1.527-2.032,1.527
		c-1.827,0-2.666-1.453-2.666-3.414v-6.112c0-1.977,0.951-3.414,3.188-3.414c2.35,0,3.041,1.303,3.041,3.169v1.12h-1.938v-1.287
		c0-0.783-0.3-1.232-1.065-1.232c-0.764,0-1.1,0.542-1.1,1.307v6.788c0,0.763,0.317,1.304,1.044,1.304
		c0.69,0,1.046-0.392,1.046-1.211V37.88h-1.009V36.202z"/>
	<path fill="#056CB4" d="M83.39,30.311v9.564c0,1.957-0.838,3.229-3.001,3.229c-2.239,0-3.171-1.271-3.171-3.229v-9.564h2.126v9.77
		c0,0.744,0.299,1.249,1.045,1.249c0.747,0,1.043-0.505,1.043-1.249v-9.77H83.39z"/>
	<path fill="#056CB4" d="M86.652,38.945h1.697l-0.837-5.074H87.49L86.652,38.945z M83.987,42.952l2.385-12.641h2.425l2.405,12.641
		h-2.181l-0.392-2.312h-2.257L86,42.952H83.987z"/>
	<polygon fill="#056CB4" points="92.078,30.311 94.202,30.311 94.202,41.216 96.738,41.216 96.738,42.952 92.078,42.952 	"/>
	<path fill="#056CB4" d="M100.729,41.218c0.876,0,1.213-0.522,1.213-1.287v-6.619c0-0.747-0.337-1.267-1.213-1.267h-0.896v9.173
		H100.729z M104.065,33.704v5.855c0,1.938-0.803,3.393-3.076,3.393h-3.282V30.311h3.282
		C103.263,30.311,104.065,31.747,104.065,33.704"/>
	<path fill="#056CB4" d="M107.327,38.945h1.697l-0.838-5.074h-0.021L107.327,38.945z M104.661,42.952l2.386-12.641h2.425
		l2.407,12.641h-2.184l-0.391-2.312h-2.258l-0.371,2.312H104.661z"/>
	<path fill="#056CB4" d="M115.772,41.218c0.876,0,1.211-0.522,1.211-1.287v-6.619c0-0.747-0.335-1.267-1.211-1.267h-0.897v9.173
		H115.772z M119.109,33.704v5.855c0,1.938-0.801,3.393-3.076,3.393h-3.282V30.311h3.282
		C118.309,30.311,119.109,31.747,119.109,33.704"/>
	<polygon fill="#056CB4" points="120.32,30.311 125.393,30.311 125.393,32.043 122.445,32.043 122.445,35.663 124.553,35.663 
		124.553,37.377 122.445,37.377 122.445,41.216 125.393,41.216 125.393,42.952 120.32,42.952 	"/>
	<path fill="#056CB4" d="M126.322,40.23v-1.696h1.978v1.732c0,0.71,0.316,1.12,1.045,1.12c0.67,0,0.969-0.448,0.969-1.12v-0.484
		c0-0.726-0.299-1.173-0.952-1.789l-1.249-1.251c-1.211-1.192-1.771-1.92-1.771-3.374v-0.43c0-1.565,0.914-2.778,2.982-2.778
		c2.126,0,2.967,1.045,2.967,2.871v1.025h-1.94v-1.1c0-0.727-0.335-1.082-1.005-1.082c-0.599,0-1.007,0.337-1.007,1.045v0.26
		c0,0.708,0.392,1.12,1.007,1.715l1.361,1.344c1.154,1.176,1.715,1.884,1.715,3.282v0.615c0,1.733-0.932,2.964-3.098,2.964
		C127.16,43.101,126.322,41.888,126.322,40.23"/>
</g>
<path fill="#056CB4" d="M137.763,22.52v-1.697h1.977v1.733c0,0.71,0.317,1.12,1.045,1.12c0.67,0,0.969-0.448,0.969-1.12v-0.484
	c0-0.726-0.299-1.174-0.952-1.79l-1.249-1.25c-1.21-1.192-1.771-1.921-1.771-3.374v-0.43c0-1.565,0.914-2.778,2.982-2.778
	c2.126,0,2.968,1.045,2.968,2.871v1.025h-1.939v-1.1c0-0.727-0.337-1.082-1.007-1.082c-0.599,0-1.007,0.337-1.007,1.045v0.26
	c0,0.708,0.392,1.12,1.007,1.715l1.362,1.344c1.154,1.176,1.715,1.884,1.715,3.282v0.615c0,1.733-0.933,2.964-3.099,2.964
	C138.6,25.391,137.763,24.178,137.763,22.52"/>
</svg>
