<?xml version="1.0" encoding="utf-8"?>
<!-- Generator: Adobe Illustrator 15.0.0, SVG Export Plug-In . SVG Version: 6.00 Build 0)  -->
<!DOCTYPE svg PUBLIC "-//W3C//DTD SVG 1.1//EN" "http://www.w3.org/Graphics/SVG/1.1/DTD/svg11.dtd">
<svg version="1.1" id="Layer_1" xmlns="http://www.w3.org/2000/svg" xmlns:xlink="http://www.w3.org/1999/xlink" x="0px" y="0px"
	 width="150px" height="150px" viewBox="0 0 150 150" enable-background="new 0 0 150 150" xml:space="preserve">
<g>
	<rect fill="#E1E1E1" width="150.001" height="150.005"/>
	<path fill="#056CB4" d="M28.053,38.667H19.71v-1.428c0-2.362,0.848-3.255,2.142-4.639l3.255-3.434
		c2.632-2.812,3.211-4.596,3.211-7.629v-2.945c0-4.325-2.097-6.378-6.646-6.378c-4.459,0-6.735,2.364-6.735,6.603v3.654h4.639v-3.79
		c0-1.827,0.891-2.364,1.963-2.364c0.979,0,1.828,0.402,1.828,2.274v2.498c0,2.5-0.224,3.48-1.874,5.22l-2.856,3.033
		c-2.763,2.945-3.79,4.909-3.79,7.896v5.577h13.205V38.667z"/>
	<path fill="#056CB4" d="M59.831,127.462v2.108c-0.002,0.015-0.008,0.03-0.008,0.047c0,0.019,0.005,0.033,0.008,0.051
		c0.022,0.521,0.447,0.938,0.973,0.947c0,0,0.011,0.004,0.018,0.004c0.007,0,0.017-0.004,0.017-0.004h24.752
		c0.006,0,0.013,0.004,0.02,0.004c0.007,0,0.015-0.004,0.022-0.004c0.541-0.01,0.972-0.45,0.976-0.99
		c0-0.002,0.003-0.004,0.003-0.008c0,0-0.003-0.003-0.003-0.007v-2.385c13.929-4.569,24.364-15.857,26.658-29.615
		c0.006-0.031,0.01-0.057,0.013-0.082c0.01-0.048,0.017-0.091,0.017-0.139c0-0.554-0.447-1.001-1.001-1.001h-78.39h-0.472
		c-0.557,0-1.003,0.447-1.003,1.001l0.052,0.45C34.894,111.73,45.616,123.081,59.831,127.462"/>
	<path fill="#056CB4" d="M86.587,62.732c-0.324,0.463-7.945,11.432,0.169,20.302c3.721,4.07,3.399,7.662,2.335,10.088h5.205
		c1.057-3.581,0.619-8.074-3.604-12.689c-5.979-6.537,0.077-15.371,0.167-15.508c0.712-1.009,0.33-2.308-0.846-2.914
		C88.834,61.409,87.303,61.731,86.587,62.732"/>
	<path fill="#056CB4" d="M73.405,93.123h5.207c1.052-3.584,0.615-8.075-3.61-12.692c-5.98-6.536,0.07-15.366,0.166-15.511
		c0.71-1.003,0.335-2.301-0.847-2.908c-1.176-0.601-2.709-0.282-3.423,0.721c-0.327,0.461-7.951,11.433,0.169,20.302
		C74.788,87.104,74.464,90.698,73.405,93.123"/>
	<path fill="#056CB4" d="M55.206,62.732c-0.329,0.463-7.949,11.432,0.168,20.302c3.723,4.07,3.4,7.664,2.341,10.088h5.205
		c1.052-3.579,0.617-8.072-3.613-12.689c-5.98-6.537,0.075-15.371,0.171-15.512c0.707-1.005,0.331-2.304-0.851-2.91
		C57.453,61.405,55.921,61.729,55.206,62.732"/>
	<polygon fill="#056CB4" points="44.215,19.278 42.164,19.278 42.164,24.854 40.038,24.854 40.038,12.21 42.164,12.21 
		42.164,17.562 44.215,17.562 44.215,12.21 46.36,12.21 46.36,24.854 44.215,24.854 	"/>
	<path fill="#056CB4" d="M49.902,20.845h1.696l-0.839-5.073h-0.02L49.902,20.845z M47.235,24.854l2.386-12.642h2.425l2.405,12.642
		h-2.182l-0.391-2.312h-2.257l-0.372,2.312H47.235z"/>
	<polygon fill="#056CB4" points="61.179,16.649 61.124,16.649 59.688,24.854 58.701,24.854 57.116,16.649 57.079,16.649 
		57.079,24.854 55.325,24.854 55.325,12.21 57.806,12.21 59.185,19.333 59.204,19.333 60.434,12.21 63.12,12.21 63.12,24.854 
		61.179,24.854 	"/>
	<path fill="#056CB4" d="M66.454,19.166v3.953h0.934c0.709,0,1.044-0.354,1.044-1.025v-1.901c0-0.671-0.318-1.026-1.064-1.026
		H66.454z M66.454,17.545h0.748c0.69,0,1.007-0.354,1.007-1.026V14.97c0-0.689-0.317-1.025-1.027-1.025h-0.728V17.545z M64.33,12.21
		h3.076c2.127,0,2.836,0.989,2.836,2.778v1.286c0,1.064-0.393,1.736-1.268,2.015c1.062,0.242,1.584,0.951,1.584,2.106v1.678
		c0,1.79-0.802,2.778-2.927,2.778H64.33V12.21z"/>
	<path fill="#056CB4" d="M73.744,13.945v3.935h0.708c0.729,0,1.044-0.373,1.044-1.044v-1.864c0-0.692-0.315-1.027-1.044-1.027
		H73.744z M73.744,19.054v5.801h-2.125V12.21h3.097c2.141,0,2.926,1.062,2.926,2.834v1.624c0,1.361-0.484,2.163-1.698,2.442
		l2.034,5.744h-2.239L73.744,19.054z"/>
	<polygon fill="#056CB4" points="78.795,12.21 83.868,12.21 83.868,13.945 80.919,13.945 80.919,17.563 83.028,17.563 
		83.028,19.278 80.919,19.278 80.919,23.119 83.868,23.119 83.868,24.853 78.795,24.853 	"/>
	<path fill="#056CB4" d="M40.039,39.301v-6.117c0-1.977,0.932-3.411,3.168-3.411c2.35,0,3.003,1.305,3.003,3.169v1.494h-1.938
		v-1.661c0-0.783-0.263-1.231-1.027-1.231c-0.763,0-1.082,0.541-1.082,1.306v6.788c0,0.763,0.318,1.304,1.082,1.304
		c0.765,0,1.027-0.484,1.027-1.231v-2.33h1.938v2.182c0,1.808-0.745,3.151-3.003,3.151C40.971,42.713,40.039,41.257,40.039,39.301"
		/>
	<polygon fill="#056CB4" points="47.365,29.921 52.437,29.921 52.437,31.655 49.489,31.655 49.489,35.273 51.598,35.273 
		51.598,36.988 49.489,36.988 49.489,40.829 52.437,40.829 52.437,42.563 47.365,42.563 	"/>
	<path fill="#056CB4" d="M55.699,31.655v3.935h0.708c0.729,0,1.044-0.373,1.044-1.044v-1.864c0-0.691-0.315-1.026-1.044-1.026
		H55.699z M55.699,36.764v5.801h-2.125V29.921h3.097c2.142,0,2.926,1.062,2.926,2.834v1.624c0,1.361-0.485,2.163-1.698,2.442
		l2.034,5.744h-2.239L55.699,36.764z"/>
	<path fill="#056CB4" d="M65.059,39.637v-6.788c0-0.765-0.336-1.306-1.101-1.306c-0.746,0-1.082,0.541-1.082,1.306v6.788
		c0,0.763,0.336,1.304,1.082,1.304C64.722,40.941,65.059,40.4,65.059,39.637 M60.75,39.301v-6.117c0-1.977,0.97-3.411,3.207-3.411
		c2.257,0,3.227,1.435,3.227,3.411v6.117c0,1.957-0.969,3.413-3.227,3.413C61.72,42.713,60.75,41.257,60.75,39.301"/>
</g>
</svg>
