<?xml version="1.0" encoding="utf-8"?>
<!-- Generator: Adobe Illustrator 15.0.0, SVG Export Plug-In . SVG Version: 6.00 Build 0)  -->
<!DOCTYPE svg PUBLIC "-//W3C//DTD SVG 1.1//EN" "http://www.w3.org/Graphics/SVG/1.1/DTD/svg11.dtd">
<svg version="1.1" id="Layer_1" xmlns="http://www.w3.org/2000/svg" xmlns:xlink="http://www.w3.org/1999/xlink" x="0px" y="0px"
	 width="150px" height="150px" viewBox="0 0 150 150" enable-background="new 0 0 150 150" xml:space="preserve">
<g>
	<rect y="0" fill="#E1E1E1" width="150.001" height="150.001"/>
	<polygon fill="#056CB4" points="22.443,12.572 22.443,42.816 17.358,42.816 17.358,19.663 17.312,19.663 13.745,23.366 
		13.701,23.366 13.701,18.057 18.384,12.572 	"/>
	<polygon fill="#056CB4" points="24.761,12.572 37.52,12.572 37.52,17.254 30.873,42.816 25.83,42.816 32.612,16.721 24.761,16.721 
			"/>
	<path fill="#056CB4" d="M87.738,96.437c3.436-3.189,5.594-7.742,5.594-12.794c0-0.755-0.055-1.498-0.147-2.229
		c6.987,0.748,12.446,6.677,12.446,13.859c0,4.08-1.773,7.744-4.58,10.297C98.424,100.649,93.511,97.13,87.738,96.437
		 M99.585,113.76c0,7.685-6.253,13.938-13.938,13.938c-2.503,0-4.844-0.67-6.874-1.827c2.963-3.132,4.793-7.354,4.793-11.993
		c0-1.145-0.116-2.261-0.326-3.342c2.507,1.393,5.387,2.188,8.454,2.188c2.725,0,5.308-0.63,7.608-1.75
		C99.487,111.874,99.585,112.806,99.585,113.76 M52.171,113.877c0-0.993,0.106-1.958,0.306-2.891
		c2.296,1.112,4.87,1.737,7.587,1.737c3.056,0,5.927-0.79,8.428-2.176c-0.194,1.041-0.302,2.115-0.302,3.212
		c0,4.714,1.886,8.997,4.934,12.139c-2.063,1.211-4.456,1.915-7.013,1.915C58.424,127.814,52.171,121.561,52.171,113.877
		 M46.125,95.273c0-7.183,5.459-13.111,12.444-13.859c-0.091,0.731-0.146,1.475-0.146,2.229c0,5.104,2.202,9.7,5.702,12.896
		c-5.79,0.657-10.728,4.158-13.382,9.067C47.918,103.056,46.125,99.373,46.125,95.273 M75.876,69.707
		c5.712,0,10.628,3.453,12.778,8.379c-5.671,1-10.404,4.742-12.778,9.809c-2.369-5.066-7.106-8.809-12.775-9.809
		C65.254,73.16,70.167,69.707,75.876,69.707 M79.197,101.414c1.929-1.012,4.121-1.595,6.45-1.595c5.478,0,10.216,3.188,12.495,7.801
		c-1.932,1.012-4.127,1.593-6.448,1.593C86.21,109.212,81.472,106.025,79.197,101.414 M72.513,101.506
		c-2.292,4.562-7.005,7.706-12.448,7.706c-2.309,0-4.484-0.575-6.403-1.573c2.292-4.56,7.007-7.702,12.45-7.702
		C68.421,99.937,70.595,100.509,72.513,101.506 M62.121,81.5c6.712,0.999,11.884,6.787,11.884,13.773
		c0,0.729-0.075,1.44-0.183,2.142c-6.713-1-11.884-6.783-11.884-13.771C61.938,82.914,62.011,82.2,62.121,81.5 M75.941,123.744
		c-2.608-2.532-4.235-6.071-4.235-9.983c0-3.854,1.574-7.348,4.109-9.871c2.608,2.532,4.236,6.069,4.236,9.988
		C80.05,117.727,78.476,121.221,75.941,123.744 M89.815,83.643c0,6.988-5.168,12.771-11.882,13.771
		c-0.109-0.701-0.182-1.413-0.182-2.142c0-6.986,5.172-12.774,11.884-13.772C89.742,82.2,89.815,82.914,89.815,83.643
		 M109.145,95.273c0-9.41-7.485-17.1-16.812-17.44c-2.399-6.775-8.867-11.644-16.457-11.644c-7.585,0-14.054,4.868-16.455,11.644
		c-9.326,0.343-16.809,8.03-16.809,17.44c0,5.586,2.64,10.562,6.734,13.758c-0.444,1.541-0.688,3.165-0.688,4.847
		c0,9.619,7.827,17.45,17.453,17.45c3.652,0,7.045-1.132,9.851-3.057c2.774,1.855,6.104,2.938,9.685,2.938
		c9.623,0,17.45-7.828,17.45-17.449c0-1.646-0.232-3.239-0.66-4.748C106.514,105.812,109.145,100.844,109.145,95.273"/>
	<path fill="#056CB4" d="M49.708,21.084h1.697l-0.839-5.074h-0.02L49.708,21.084z M47.041,25.091l2.386-12.642h2.425l2.405,12.642
		h-2.181l-0.392-2.312h-2.257l-0.372,2.312H47.041z"/>
	<polygon fill="#056CB4" points="55.13,12.45 57.255,12.45 57.255,23.36 59.79,23.36 59.79,25.091 55.13,25.091 	"/>
	<rect x="60.759" y="12.45" fill="#056CB4" width="2.125" height="12.64"/>
	<path fill="#056CB4" d="M66.447,21.084h1.697l-0.839-5.074h-0.02L66.447,21.084z M63.78,25.091l2.386-12.642h2.425l2.405,12.642
		h-2.181l-0.391-2.312h-2.257l-0.372,2.312H63.78z"/>
	<polygon fill="#056CB4" points="73.661,17.148 73.661,25.091 71.87,25.091 71.87,12.452 73.958,12.452 76.251,19.703 
		76.251,12.452 78.022,12.452 78.022,25.091 76.158,25.091 	"/>
	<polygon fill="#056CB4" points="81.303,23.358 84.527,23.358 84.527,25.091 79.083,25.091 79.083,23.358 82.42,14.185 
		79.42,14.185 79.42,12.45 84.658,12.45 84.658,14.185 	"/>
	<path fill="#056CB4" d="M88.015,21.084h1.695l-0.837-5.074H88.85L88.015,21.084z M85.346,25.091l2.387-12.642h2.425l2.405,12.642
		h-2.181l-0.392-2.312h-2.257l-0.371,2.312H85.346z"/>
	<path fill="#056CB4" d="M93.138,22.37v-1.696h1.979v1.735c0,0.708,0.314,1.118,1.043,1.118c0.67,0,0.971-0.448,0.971-1.118v-0.486
		c0-0.726-0.301-1.174-0.954-1.79l-1.249-1.25c-1.211-1.193-1.771-1.917-1.771-3.374v-0.43c0-1.565,0.914-2.776,2.984-2.776
		c2.124,0,2.965,1.043,2.965,2.871v1.025h-1.938v-1.1c0-0.728-0.337-1.082-1.007-1.082c-0.599,0-1.007,0.335-1.007,1.043v0.26
		c0,0.71,0.392,1.12,1.007,1.716l1.361,1.342c1.156,1.175,1.715,1.885,1.715,3.283v0.615c0,1.733-0.932,2.964-3.096,2.964
		C93.977,25.241,93.138,24.03,93.138,22.37"/>
	<path fill="#056CB4" d="M104.435,14.185v4.979h0.785c0.728,0,1.045-0.355,1.045-1.045v-2.909c0-0.69-0.317-1.025-1.045-1.025
		H104.435z M102.311,12.45h3.149c2.146,0,2.929,1.063,2.929,2.834v2.667c0,1.772-0.782,2.853-2.929,2.853h-1.025v4.287h-2.124V12.45
		z"/>
	<path fill="#056CB4" d="M111.072,21.084h1.696l-0.839-5.074h-0.021L111.072,21.084z M108.405,25.091l2.385-12.642h2.427
		l2.404,12.642h-2.181l-0.394-2.312h-2.257l-0.369,2.312H108.405z"/>
	<path fill="#056CB4" d="M118.619,14.183v3.936h0.709c0.729,0,1.045-0.373,1.045-1.043v-1.864c0-0.692-0.315-1.028-1.045-1.028
		H118.619z M118.619,19.293v5.798h-2.124V12.45h3.097c2.141,0,2.926,1.063,2.926,2.836v1.62c0,1.362-0.484,2.163-1.697,2.443
		l2.033,5.742h-2.238L118.619,19.293z"/>
	<path fill="#056CB4" d="M126.003,21.084h1.697l-0.84-5.074h-0.02L126.003,21.084z M123.336,25.091l2.385-12.642h2.427l2.405,12.642
		h-2.181l-0.392-2.312h-2.26l-0.369,2.312H123.336z"/>
	<polygon fill="#056CB4" points="47.376,29.228 49.501,29.228 49.501,40.138 52.037,40.138 52.037,41.87 47.376,41.87 	"/>
	<path fill="#056CB4" d="M57.22,38.941v-6.786c0-0.765-0.336-1.306-1.101-1.306c-0.746,0-1.082,0.541-1.082,1.306v6.786
		c0,0.765,0.336,1.306,1.082,1.306C56.884,40.248,57.22,39.707,57.22,38.941 M52.913,38.606V32.49c0-1.976,0.969-3.412,3.206-3.412
		c2.257,0,3.227,1.436,3.227,3.412v6.116c0,1.958-0.969,3.413-3.227,3.413C53.882,42.019,52.913,40.564,52.913,38.606"/>
	<path fill="#056CB4" d="M63.761,35.121h3.022v6.751h-1.53V40.49c-0.279,0.952-0.876,1.529-2.031,1.529
		c-1.827,0-2.666-1.455-2.666-3.411v-6.117c0-1.978,0.95-3.414,3.188-3.414c2.348,0,3.04,1.305,3.04,3.17v1.12h-1.939v-1.286
		c0-0.785-0.299-1.233-1.064-1.233s-1.1,0.543-1.1,1.308v6.785c0,0.765,0.317,1.306,1.044,1.306c0.689,0,1.045-0.39,1.045-1.211
		v-2.239h-1.008V35.121z"/>
	<path fill="#056CB4" d="M70.119,30.96v3.936h0.708c0.729,0,1.044-0.373,1.044-1.043v-1.864c0-0.692-0.315-1.029-1.044-1.029H70.119
		z M70.119,36.071v5.799h-2.125V29.228h3.097c2.142,0,2.926,1.063,2.926,2.836v1.62c0,1.362-0.485,2.163-1.699,2.443l2.035,5.742
		h-2.239L70.119,36.071z"/>
	<path fill="#056CB4" d="M77.502,37.862h1.695l-0.837-5.074h-0.022L77.502,37.862z M74.834,41.87l2.386-12.642h2.425l2.405,12.642
		h-2.181l-0.391-2.312H77.22l-0.372,2.312H74.834z"/>
	<path fill="#056CB4" d="M85.049,30.96v3.936h0.708c0.728,0,1.043-0.373,1.043-1.043v-1.864c0-0.692-0.315-1.029-1.043-1.029H85.049
		z M85.049,36.071v5.799h-2.126V29.228h3.097c2.143,0,2.927,1.063,2.927,2.836v1.62c0,1.362-0.484,2.163-1.699,2.443l2.034,5.742
		h-2.239L85.049,36.071z"/>
	<polygon fill="#056CB4" points="47.376,46.005 49.501,46.005 49.501,56.916 52.037,56.916 52.037,58.646 47.376,58.646 	"/>
	<path fill="#056CB4" d="M57.22,55.719v-6.787c0-0.764-0.336-1.305-1.101-1.305c-0.746,0-1.082,0.541-1.082,1.305v6.787
		c0,0.765,0.336,1.305,1.082,1.305C56.884,57.024,57.22,56.484,57.22,55.719 M52.913,55.384v-6.117c0-1.975,0.969-3.411,3.206-3.411
		c2.257,0,3.227,1.437,3.227,3.411v6.117c0,1.957-0.969,3.411-3.227,3.411C53.882,58.795,52.913,57.341,52.913,55.384"/>
	<path fill="#056CB4" d="M60.442,55.925v-1.697h1.978v1.735c0,0.708,0.315,1.117,1.044,1.117c0.669,0,0.969-0.447,0.969-1.117
		v-0.486c0-0.727-0.3-1.174-0.952-1.789l-1.25-1.251c-1.211-1.192-1.77-1.917-1.77-3.373v-0.43c0-1.565,0.913-2.776,2.982-2.776
		c2.125,0,2.966,1.043,2.966,2.871v1.024h-1.939v-1.1c0-0.728-0.338-1.081-1.007-1.081c-0.598,0-1.006,0.335-1.006,1.043v0.261
		c0,0.71,0.391,1.119,1.006,1.717l1.361,1.341c1.156,1.175,1.715,1.885,1.715,3.282v0.615c0,1.733-0.932,2.964-3.096,2.964
		C61.282,58.795,60.442,57.585,60.442,55.925"/>
	<path fill="#056CB4" d="M73.923,55.719v-6.787c0-0.764-0.337-1.305-1.102-1.305c-0.745,0-1.081,0.541-1.081,1.305v6.787
		c0,0.765,0.336,1.305,1.081,1.305C73.586,57.024,73.923,56.484,73.923,55.719 M69.616,55.384v-6.117
		c0-1.975,0.969-3.411,3.206-3.411c2.257,0,3.227,1.437,3.227,3.411v6.117c0,1.957-0.97,3.411-3.227,3.411
		C70.585,58.795,69.616,57.341,69.616,55.384"/>
	<path fill="#056CB4" d="M79.382,52.961v3.954h0.934c0.708,0,1.045-0.357,1.045-1.029v-1.9c0-0.672-0.318-1.024-1.065-1.024H79.382z
		 M79.382,51.337h0.748c0.69,0,1.007-0.354,1.007-1.023v-1.549c0-0.69-0.317-1.025-1.027-1.025h-0.728V51.337z M77.258,46.005h3.075
		c2.128,0,2.836,0.988,2.836,2.778v1.288c0,1.062-0.394,1.731-1.267,2.012c1.061,0.244,1.583,0.95,1.583,2.108v1.677
		c0,1.789-0.801,2.777-2.927,2.777h-3.3V46.005z"/>
	<path fill="#056CB4" d="M90.195,46.005v9.771c0,1.829-0.803,3.02-2.927,3.02c-2.199,0-2.798-1.212-2.798-2.814v-2.518h2.014v2.555
		c0,0.633,0.224,1.006,0.785,1.006c0.579,0,0.801-0.373,0.801-1.024v-9.994H90.195z"/>
	<polygon fill="#056CB4" points="91.386,46.005 96.46,46.005 96.46,47.74 93.513,47.74 93.513,51.357 95.62,51.357 95.62,53.072 
		93.513,53.072 93.513,56.916 96.46,56.916 96.46,58.646 91.386,58.646 	"/>
	<polygon fill="#056CB4" points="97.352,46.005 103.002,46.005 103.002,47.74 101.247,47.74 101.247,58.646 99.104,58.646 
		99.104,47.74 97.352,47.74 	"/>
	<rect x="103.987" y="46.005" fill="#056CB4" width="2.126" height="12.64"/>
	<polygon fill="#056CB4" points="114.148,46.005 111.742,58.646 109.43,58.646 107.025,46.005 109.188,46.005 110.645,54.826 
		110.661,54.826 112.153,46.005 	"/>
	<path fill="#056CB4" d="M118.956,55.719v-6.787c0-0.764-0.337-1.305-1.101-1.305c-0.747,0-1.082,0.541-1.082,1.305v6.787
		c0,0.765,0.335,1.305,1.082,1.305C118.619,57.024,118.956,56.484,118.956,55.719 M114.649,55.384v-6.117
		c0-1.975,0.969-3.411,3.206-3.411c2.257,0,3.228,1.437,3.228,3.411v6.117c0,1.957-0.971,3.411-3.228,3.411
		C115.618,58.795,114.649,57.341,114.649,55.384"/>
	<path fill="#056CB4" d="M122.179,55.925v-1.697h1.979v1.735c0,0.708,0.315,1.117,1.043,1.117c0.67,0,0.971-0.447,0.971-1.117
		v-0.486c0-0.727-0.301-1.174-0.954-1.789l-1.249-1.251c-1.21-1.192-1.771-1.917-1.771-3.373v-0.43c0-1.565,0.914-2.776,2.984-2.776
		c2.124,0,2.965,1.043,2.965,2.871v1.024h-1.938v-1.1c0-0.728-0.337-1.081-1.007-1.081c-0.599,0-1.007,0.335-1.007,1.043v0.261
		c0,0.71,0.392,1.119,1.007,1.717l1.362,1.341c1.155,1.175,1.715,1.885,1.715,3.282v0.615c0,1.733-0.933,2.964-3.097,2.964
		C123.018,58.795,122.179,57.585,122.179,55.925"/>
</g>
</svg>
