<?xml version="1.0" encoding="utf-8"?>
<!-- Generator: Adobe Illustrator 15.0.0, SVG Export Plug-In . SVG Version: 6.00 Build 0)  -->
<!DOCTYPE svg PUBLIC "-//W3C//DTD SVG 1.1//EN" "http://www.w3.org/Graphics/SVG/1.1/DTD/svg11.dtd">
<svg version="1.1" id="Layer_1" xmlns="http://www.w3.org/2000/svg" xmlns:xlink="http://www.w3.org/1999/xlink" x="0px" y="0px"
	 width="220px" height="145px" viewBox="0 0 220 145" enable-background="new 0 0 220 145" xml:space="preserve">
<rect x="0" fill="#008590" width="220" height="145"/>
<g>
	<path fill="#FFFFFF" d="M15.81,22.732v-6.667h3.778c1.33,0,1.949,0.86,1.949,1.699c0,0.83-0.51,1.389-1.14,1.529
		c0.71,0.11,1.27,0.79,1.27,1.629c0,0.97-0.65,1.809-1.959,1.809H15.81z M19.788,18.084c0-0.32-0.24-0.52-0.59-0.52h-1.669v1.039
		h1.669C19.547,18.604,19.788,18.415,19.788,18.084z M19.917,20.663c0-0.33-0.24-0.56-0.66-0.56h-1.729v1.129h1.729
		C19.667,21.233,19.917,21.023,19.917,20.663z"/>
	<path fill="#FFFFFF" d="M22.609,20.033v-3.968h1.749v3.908c0,0.79,0.48,1.359,1.409,1.359c0.919,0,1.399-0.569,1.399-1.359v-3.908
		h1.739v3.958c0,1.659-0.999,2.829-3.138,2.829C23.629,22.852,22.609,21.672,22.609,20.033z"/>
	<path fill="#FFFFFF" d="M33.827,22.732l-1.119-2.239h-0.879v2.239h-1.719v-6.667h3.338c1.479,0,2.318,0.979,2.318,2.219
		c0,1.16-0.699,1.779-1.329,1.999l1.359,2.449H33.827z M34.017,18.274c0-0.46-0.37-0.709-0.83-0.709h-1.359v1.429h1.359
		C33.647,18.994,34.017,18.744,34.017,18.274z"/>
	<path fill="#FFFFFF" d="M36.719,22.732v-6.667h2.798c2.099,0,3.608,1.259,3.608,3.328s-1.509,3.338-3.598,3.338H36.719z
		 M41.367,19.394c0-1.029-0.62-1.829-1.839-1.829h-1.089v3.668h1.079C40.687,21.233,41.367,20.383,41.367,19.394z"/>
	<path fill="#FFFFFF" d="M43.989,22.732v-6.667h4.887v1.5h-3.168v1.039h3.098v1.5h-3.098v1.129h3.168v1.499H43.989z"/>
	<path fill="#FFFFFF" d="M54.417,22.732l-2.818-3.858v3.858h-1.719v-6.667h1.769l2.699,3.668v-3.668h1.729v6.667H54.417z"/>
	<path fill="#FFFFFF" d="M57.079,18.774c0-0.51,0.439-0.939,0.949-0.939s0.939,0.43,0.939,0.939s-0.43,0.939-0.939,0.939
		S57.079,19.284,57.079,18.774z M57.079,21.902c0-0.5,0.439-0.929,0.949-0.929s0.939,0.43,0.939,0.929
		c0,0.51-0.43,0.939-0.939,0.939S57.079,22.412,57.079,21.902z"/>
	<path fill="#FFFFFF" d="M16.634,84.455l7.744-10.414c4.361,4.184,11.037,6.23,16.199,6.23c6.586,0,9.969-2.492,9.969-5.785
		c0-3.382-2.492-5.074-10.592-5.074c-2.581,0-7.12,0.089-8.01,0.178V55.973c1.157,0.089,5.785,0.089,8.01,0.089
		c6.142,0,9.613-1.513,9.613-4.628c0-3.738-4.272-5.43-9.969-5.43c-5.429,0-10.591,1.958-14.775,5.696l-7.387-9.612
		c5.073-5.607,12.817-9.612,23.764-9.612c15.131,0,23.586,6.497,23.586,16.288c0,6.942-5.963,12.194-12.995,13.351
		c6.319,0.623,13.974,5.519,13.974,14.063c0,10.412-9.791,17.623-24.565,17.623C29.807,93.801,21.351,89.795,16.634,84.455z"/>
	<path fill="#FFFFFF" d="M67.986,85.344c0-4.449,3.917-8.277,8.456-8.277s8.366,3.828,8.366,8.277c0,4.539-3.827,8.367-8.366,8.367
		S67.986,89.883,67.986,85.344z"/>
	<path fill="#FFFFFF" d="M84.361,63.183c0-18.958,11.482-30.707,29.46-30.707c6.942,0,13.529,2.225,17.979,5.696l-6.587,11.749
		c-3.293-2.67-6.586-3.917-11.393-3.917c-7.298,0-13.974,5.251-13.974,13.529v0.712c2.938-3.916,8.634-6.764,14.597-6.764
		c10.681,0,20.561,6.854,20.561,19.492c0,12.193-9.88,20.828-23.676,20.828C92.549,93.801,84.361,80.182,84.361,63.183z
		 M119.518,73.507c0-4.984-5.073-7.031-9.701-7.031c-3.738,0-7.388,1.246-9.969,4.005c0.445,4.806,3.293,9.791,10.502,9.791
		C116.047,80.271,119.518,76.801,119.518,73.507z"/>
	<path fill="#FFFFFF" d="M193.478,92.732V66.564c0-3.293-1.603-5.785-5.696-5.785c-3.738,0-6.409,2.403-7.744,4.183v27.77h-13.706
		V66.564c0-3.293-1.514-5.785-5.607-5.785c-3.738,0-6.319,2.403-7.743,4.183v27.77h-13.707v-42.99h13.707v5.251
		c1.868-2.492,7.387-6.319,14.151-6.319c6.23,0,10.413,2.581,12.193,7.654c2.492-3.738,8.1-7.654,14.864-7.654
		c7.921,0,12.905,4.094,12.905,12.906v31.152H193.478z"/>
	<path fill="#FFFFFF" d="M18.991,110.705v4.34h-2.773v-12.01h2.773v1.008c0.684-0.828,1.584-1.225,2.575-1.225
		c2.179,0,3.817,1.621,3.817,4.557c0,2.953-1.638,4.572-3.817,4.572C20.594,111.947,19.711,111.57,18.991,110.705z M22.556,107.375
		c0-1.297-0.828-2.107-1.909-2.107c-0.594,0-1.314,0.324-1.656,0.793v2.646c0.342,0.449,1.062,0.793,1.656,0.793
		C21.728,109.5,22.556,108.689,22.556,107.375z"/>
	<path fill="#FFFFFF" d="M26.262,107.375c0-2.521,1.891-4.557,4.609-4.557c2.575,0,4.447,1.891,4.447,4.844v0.631h-6.194
		c0.198,0.773,0.918,1.422,2.179,1.422c0.612,0,1.621-0.27,2.125-0.738l1.207,1.818c-0.864,0.775-2.305,1.152-3.637,1.152
		C28.314,111.947,26.262,110.201,26.262,107.375z M30.871,105.053c-1.207,0-1.675,0.719-1.783,1.35h3.583
		C32.6,105.791,32.149,105.053,30.871,105.053z"/>
	<path fill="#FFFFFF" d="M36.125,107.375c0-2.449,1.765-4.557,4.717-4.557c2.989,0,4.753,2.107,4.753,4.557
		s-1.765,4.572-4.753,4.572C37.89,111.947,36.125,109.824,36.125,107.375z M42.751,107.375c0-1.152-0.684-2.107-1.909-2.107
		c-1.188,0-1.873,0.955-1.873,2.107c0,1.17,0.684,2.125,1.873,2.125C42.067,109.5,42.751,108.545,42.751,107.375z"/>
	<path fill="#FFFFFF" d="M49.824,110.705v4.34h-2.773v-12.01h2.773v1.008c0.684-0.828,1.584-1.225,2.575-1.225
		c2.179,0,3.817,1.621,3.817,4.557c0,2.953-1.638,4.572-3.817,4.572C51.427,111.947,50.544,111.57,49.824,110.705z M53.389,107.375
		c0-1.297-0.828-2.107-1.909-2.107c-0.594,0-1.314,0.324-1.656,0.793v2.646c0.342,0.449,1.062,0.793,1.656,0.793
		C52.561,109.5,53.389,108.689,53.389,107.375z"/>
	<path fill="#FFFFFF" d="M57.653,111.732v-12.01h2.773v12.01H57.653z"/>
	<path fill="#FFFFFF" d="M61.883,107.375c0-2.521,1.891-4.557,4.609-4.557c2.575,0,4.447,1.891,4.447,4.844v0.631h-6.194
		c0.198,0.773,0.918,1.422,2.179,1.422c0.612,0,1.621-0.27,2.125-0.738l1.207,1.818c-0.864,0.775-2.305,1.152-3.637,1.152
		C63.936,111.947,61.883,110.201,61.883,107.375z M66.492,105.053c-1.207,0-1.675,0.719-1.783,1.35h3.583
		C68.221,105.791,67.771,105.053,66.492,105.053z"/>
	<path fill="#FFFFFF" d="M82.8,111.732v-5.023c0-1.062-0.558-1.441-1.422-1.441c-0.828,0-1.368,0.451-1.692,0.846v5.619h-2.773
		v-8.697h2.773v1.062c0.522-0.611,1.548-1.279,3.025-1.279c1.962,0,2.863,1.152,2.863,2.756v6.158H82.8z"/>
	<path fill="#FFFFFF" d="M87.028,107.375c0-2.521,1.891-4.557,4.609-4.557c2.575,0,4.447,1.891,4.447,4.844v0.631h-6.194
		c0.198,0.773,0.918,1.422,2.179,1.422c0.612,0,1.621-0.27,2.125-0.738l1.207,1.818c-0.864,0.775-2.305,1.152-3.637,1.152
		C89.081,111.947,87.028,110.201,87.028,107.375z M91.638,105.053c-1.207,0-1.675,0.719-1.783,1.35h3.583
		C93.366,105.791,92.916,105.053,91.638,105.053z"/>
	<path fill="#FFFFFF" d="M96.892,107.375c0-2.521,1.891-4.557,4.609-4.557c2.575,0,4.447,1.891,4.447,4.844v0.631h-6.194
		c0.198,0.773,0.918,1.422,2.179,1.422c0.612,0,1.621-0.27,2.125-0.738l1.207,1.818c-0.864,0.775-2.305,1.152-3.637,1.152
		C98.945,111.947,96.892,110.201,96.892,107.375z M101.501,105.053c-1.207,0-1.674,0.719-1.783,1.35h3.583
		C103.23,105.791,102.78,105.053,101.501,105.053z"/>
	<path fill="#FFFFFF" d="M113.166,111.732v-1.01c-0.721,0.83-1.603,1.225-2.575,1.225c-2.143,0-3.835-1.619-3.835-4.572
		c0-2.846,1.656-4.557,3.835-4.557c0.954,0,1.891,0.379,2.575,1.244v-4.34h2.755v12.01H113.166z M113.166,108.707v-2.664
		c-0.36-0.469-1.081-0.775-1.675-0.775c-1.098,0-1.909,0.811-1.909,2.107s0.811,2.125,1.909,2.125
		C112.085,109.5,112.806,109.176,113.166,108.707z"/>
	<path fill="#FFFFFF" d="M121.822,110.598l1.152-1.98c0.647,0.576,2.034,1.17,3.061,1.17c0.828,0,1.17-0.234,1.17-0.611
		c0-1.08-5.06,0.035-5.06-3.494c0-1.529,1.333-2.863,3.728-2.863c1.477,0,2.701,0.469,3.637,1.152l-1.062,1.963
		c-0.522-0.504-1.513-0.953-2.558-0.953c-0.647,0-1.08,0.252-1.08,0.594c0,0.955,5.042-0.037,5.042,3.529
		c0,1.656-1.459,2.844-3.943,2.844C124.343,111.947,122.74,111.426,121.822,110.598z"/>
	<path fill="#FFFFFF" d="M137.142,111.732v-1.045c-0.54,0.611-1.53,1.26-3.007,1.26c-1.963,0-2.863-1.133-2.863-2.719v-6.193h2.773
		v5.041c0,1.062,0.54,1.424,1.44,1.424c0.792,0,1.332-0.434,1.656-0.848v-5.617h2.772v8.697H137.142z"/>
	<path fill="#FFFFFF" d="M141.928,111.732v-8.697h2.773v1.062c0.576-0.703,1.692-1.297,2.719-1.297v2.666
		c-0.162-0.055-0.396-0.072-0.685-0.072c-0.72,0-1.674,0.305-2.034,0.791v5.547H141.928z"/>
	<path fill="#FFFFFF" d="M148.444,113.965l1.206-1.945c0.685,0.721,1.639,1.008,2.646,1.008c0.919,0,2.215-0.395,2.215-2.051v-0.668
		c-0.72,0.865-1.584,1.279-2.574,1.279c-2.125,0-3.817-1.459-3.817-4.393c0-2.863,1.639-4.377,3.817-4.377
		c0.972,0,1.872,0.379,2.574,1.244v-1.027h2.773v7.941c0,3.527-2.827,4.285-4.988,4.285
		C150.803,115.262,149.561,114.883,148.444,113.965z M154.512,108.365v-2.322c-0.342-0.469-1.08-0.775-1.656-0.775
		c-1.099,0-1.908,0.666-1.908,1.928c0,1.277,0.81,1.943,1.908,1.943C153.432,109.139,154.17,108.834,154.512,108.365z"/>
	<path fill="#FFFFFF" d="M158.74,107.375c0-2.521,1.891-4.557,4.609-4.557c2.574,0,4.447,1.891,4.447,4.844v0.631h-6.193
		c0.197,0.773,0.918,1.422,2.178,1.422c0.612,0,1.621-0.27,2.125-0.738l1.206,1.818c-0.864,0.775-2.305,1.152-3.637,1.152
		C160.793,111.947,158.74,110.201,158.74,107.375z M163.35,105.053c-1.206,0-1.675,0.719-1.782,1.35h3.583
		C165.078,105.791,164.628,105.053,163.35,105.053z"/>
	<path fill="#FFFFFF" d="M169.162,111.732v-8.697h2.773v1.062c0.576-0.703,1.692-1.297,2.719-1.297v2.666
		c-0.162-0.055-0.396-0.072-0.685-0.072c-0.72,0-1.674,0.305-2.034,0.791v5.547H169.162z"/>
	<path fill="#FFFFFF" d="M176.129,112.65c0.198,0.107,0.468,0.162,0.684,0.162c0.631,0,1.026-0.127,1.188-0.486l0.198-0.469
		l-3.475-8.822h2.916l1.981,5.51l1.962-5.51h2.936l-3.926,9.939c-0.702,1.836-1.998,2.25-3.673,2.287
		c-0.252,0-0.9-0.055-1.188-0.145L176.129,112.65z"/>
	<path fill="#FFFFFF" d="M16.794,128.391v-3.961h-1.44v-2.395h1.44v-2.377h2.773v2.377h1.765v2.395h-1.765v3.188
		c0,0.504,0.288,0.883,0.756,0.883c0.306,0,0.612-0.109,0.703-0.217l0.54,2.088c-0.342,0.324-1.026,0.576-2.053,0.576
		C17.749,130.947,16.794,130.066,16.794,128.391z"/>
	<path fill="#FFFFFF" d="M22.14,126.375c0-2.449,1.765-4.557,4.717-4.557c2.989,0,4.753,2.107,4.753,4.557s-1.765,4.572-4.753,4.572
		C23.904,130.947,22.14,128.824,22.14,126.375z M28.766,126.375c0-1.152-0.684-2.107-1.909-2.107c-1.188,0-1.873,0.955-1.873,2.107
		c0,1.17,0.684,2.125,1.873,2.125C28.082,128.5,28.766,127.545,28.766,126.375z"/>
	<path fill="#FFFFFF" d="M42.805,130.732v-0.865c-0.54,0.648-1.584,1.08-2.701,1.08c-1.333,0-2.989-0.918-2.989-2.861
		c0-2.107,1.656-2.811,2.989-2.811c1.152,0,2.179,0.379,2.701,1.027v-0.865c0-0.756-0.648-1.277-1.764-1.277
		c-0.864,0-1.729,0.342-2.431,0.936l-1.026-1.926c1.116-0.955,2.611-1.352,3.943-1.352c2.089,0,4.051,0.775,4.051,3.477v5.438
		H42.805z M42.805,128.5v-0.775c-0.288-0.414-0.936-0.611-1.548-0.611c-0.72,0-1.386,0.324-1.386,1.008s0.666,1.008,1.386,1.008
		C41.869,129.129,42.517,128.914,42.805,128.5z"/>
	<path fill="#FFFFFF" d="M49.824,130.732l-3.421-8.697h2.917l1.98,5.51l1.963-5.51h2.935l-3.421,8.697H49.824z"/>
	<path fill="#FFFFFF" d="M56.465,126.375c0-2.449,1.765-4.557,4.717-4.557c2.989,0,4.753,2.107,4.753,4.557
		s-1.765,4.572-4.753,4.572C58.229,130.947,56.465,128.824,56.465,126.375z M63.091,126.375c0-1.152-0.684-2.107-1.909-2.107
		c-1.188,0-1.873,0.955-1.873,2.107c0,1.17,0.684,2.125,1.873,2.125C62.407,128.5,63.091,127.545,63.091,126.375z"/>
	<path fill="#FFFFFF" d="M67.192,119.658c0-0.883,0.702-1.584,1.584-1.584s1.603,0.701,1.603,1.584s-0.72,1.604-1.603,1.604
		S67.192,120.541,67.192,119.658z M67.391,130.732v-8.697h2.773v8.697H67.391z"/>
	<path fill="#FFFFFF" d="M78.03,130.732v-1.01c-0.72,0.83-1.602,1.225-2.575,1.225c-2.143,0-3.835-1.619-3.835-4.572
		c0-2.846,1.656-4.557,3.835-4.557c0.955,0,1.891,0.379,2.575,1.244v-4.34h2.755v12.01H78.03z M78.03,127.707v-2.664
		c-0.36-0.469-1.08-0.775-1.674-0.775c-1.098,0-1.909,0.811-1.909,2.107s0.811,2.125,1.909,2.125
		C76.95,128.5,77.67,128.176,78.03,127.707z"/>
	<path fill="#FFFFFF" d="M87.424,130.732v-12.01h2.773v4.34c0.684-0.865,1.621-1.244,2.575-1.244c2.179,0,3.835,1.711,3.835,4.557
		c0,2.953-1.692,4.572-3.835,4.572c-0.972,0-1.854-0.395-2.575-1.225v1.01H87.424z M91.853,128.5c1.099,0,1.927-0.811,1.927-2.125
		c0-1.297-0.828-2.107-1.927-2.107c-0.594,0-1.314,0.324-1.656,0.793v2.664C90.539,128.193,91.259,128.5,91.853,128.5z"/>
	<path fill="#FFFFFF" d="M98.062,130.732v-12.01h2.773v12.01H98.062z"/>
	<path fill="#FFFFFF" d="M102.651,119.658c0-0.883,0.703-1.584,1.584-1.584c0.882,0,1.603,0.701,1.603,1.584
		s-0.72,1.604-1.603,1.604C103.354,121.262,102.651,120.541,102.651,119.658z M102.849,130.732v-8.697h2.773v8.697H102.849z"/>
	<path fill="#FFFFFF" d="M113.525,130.732v-5.023c0-1.062-0.559-1.441-1.423-1.441c-0.828,0-1.368,0.451-1.692,0.846v5.619h-2.773
		v-8.697h2.773v1.062c0.522-0.611,1.549-1.279,3.024-1.279c1.963,0,2.863,1.152,2.863,2.756v6.158H113.525z"/>
	<path fill="#FFFFFF" d="M124.163,130.732v-1.01c-0.721,0.83-1.603,1.225-2.575,1.225c-2.143,0-3.835-1.619-3.835-4.572
		c0-2.846,1.656-4.557,3.835-4.557c0.954,0,1.891,0.379,2.575,1.244v-4.34h2.755v12.01H124.163z M124.163,127.707v-2.664
		c-0.36-0.469-1.081-0.775-1.675-0.775c-1.099,0-1.908,0.811-1.908,2.107s0.81,2.125,1.908,2.125
		C123.082,128.5,123.803,128.176,124.163,127.707z"/>
	<path fill="#FFFFFF" d="M134.837,130.732v-5.023c0-1.062-0.559-1.441-1.423-1.441c-0.828,0-1.368,0.451-1.692,0.846v5.619h-2.772
		v-8.697h2.772v1.062c0.522-0.611,1.548-1.279,3.024-1.279c1.963,0,2.863,1.152,2.863,2.756v6.158H134.837z"/>
	<path fill="#FFFFFF" d="M139.064,126.375c0-2.521,1.891-4.557,4.609-4.557c2.574,0,4.447,1.891,4.447,4.844v0.631h-6.193
		c0.197,0.773,0.918,1.422,2.178,1.422c0.612,0,1.621-0.27,2.125-0.738l1.206,1.818c-0.864,0.775-2.305,1.152-3.637,1.152
		C141.117,130.947,139.064,129.201,139.064,126.375z M143.674,124.053c-1.206,0-1.675,0.719-1.782,1.35h3.583
		C145.402,124.791,144.952,124.053,143.674,124.053z"/>
	<path fill="#FFFFFF" d="M148.749,129.598l1.152-1.98c0.647,0.576,2.034,1.17,3.061,1.17c0.828,0,1.17-0.234,1.17-0.611
		c0-1.08-5.06,0.035-5.06-3.494c0-1.529,1.333-2.863,3.728-2.863c1.477,0,2.701,0.469,3.637,1.152l-1.062,1.963
		c-0.522-0.504-1.513-0.953-2.558-0.953c-0.647,0-1.08,0.252-1.08,0.594c0,0.955,5.042-0.037,5.042,3.529
		c0,1.656-1.459,2.844-3.943,2.844C151.27,130.947,149.667,130.426,148.749,129.598z"/>
	<path fill="#FFFFFF" d="M157.461,129.598l1.152-1.98c0.647,0.576,2.034,1.17,3.061,1.17c0.828,0,1.17-0.234,1.17-0.611
		c0-1.08-5.06,0.035-5.06-3.494c0-1.529,1.333-2.863,3.728-2.863c1.477,0,2.701,0.469,3.637,1.152l-1.062,1.963
		c-0.522-0.504-1.513-0.953-2.558-0.953c-0.647,0-1.08,0.252-1.08,0.594c0,0.955,5.042-0.037,5.042,3.529
		c0,1.656-1.459,2.844-3.943,2.844C159.981,130.947,158.379,130.426,157.461,129.598z"/>
</g>
</svg>
