<?xml version="1.0" encoding="utf-8"?>
<!-- Generator: Adobe Illustrator 15.0.0, SVG Export Plug-In . SVG Version: 6.00 Build 0)  -->
<!DOCTYPE svg PUBLIC "-//W3C//DTD SVG 1.1//EN" "http://www.w3.org/Graphics/SVG/1.1/DTD/svg11.dtd">
<svg version="1.1" id="Layer_1" xmlns="http://www.w3.org/2000/svg" xmlns:xlink="http://www.w3.org/1999/xlink" x="0px" y="0px"
	 width="220px" height="124px" viewBox="0 0 220 124" enable-background="new 0 0 220 124" xml:space="preserve">
<rect x="0" fill="#008590" width="220" height="124"/>
<g>
	<path fill="#FFFFFF" d="M18.082,90.115V78.324c25.431-18.392,30.183-22.44,30.183-28.336c0-3.96-3.784-6.072-8.096-6.072
		c-6.512,0-11.44,2.464-15.664,6.424l-8.36-10.032c6.248-6.864,15.576-9.768,23.759-9.768c13.815,0,23.759,7.744,23.759,19.447
		c0,9.064-6.424,16.72-21.031,26.928h21.471v13.199H18.082z"/>
	<path fill="#FFFFFF" d="M72.729,85.451l6.512-11.615c3.256,2.64,6.512,3.871,11.264,3.871c8.624,0,13.728-6.247,13.728-13.375
		v-0.704c-2.816,3.872-8.448,6.688-14.344,6.688c-10.56,0-20.415-6.776-20.415-19.272c0-12.056,9.855-20.591,23.407-20.591
		c18.567,0,26.663,13.375,26.663,30.271c0,18.655-11.264,30.359-29.039,30.359C83.641,91.083,77.129,88.883,72.729,85.451z
		 M104.232,53.508c-0.352-4.752-3.168-9.68-10.472-9.68c-5.544,0-8.888,3.432-8.888,6.688c0,4.928,5.016,6.952,9.504,6.952
		C98.073,57.468,101.681,56.236,104.232,53.508z"/>
</g>
<g>
	<path fill="#FFFFFF" d="M20.178,24.63v-0.84c-0.525,0.63-1.541,1.05-2.625,1.05c-1.295,0-2.905-0.893-2.905-2.783
		c0-2.047,1.61-2.729,2.905-2.729c1.12,0,2.118,0.367,2.625,0.997v-0.84c0-0.735-0.63-1.242-1.715-1.242
		c-0.84,0-1.68,0.332-2.363,0.909l-0.998-1.872c1.085-0.928,2.538-1.312,3.833-1.312c2.03,0,3.938,0.752,3.938,3.378v5.285H20.178z
		 M20.178,22.46v-0.753c-0.28-0.402-0.91-0.595-1.505-0.595c-0.7,0-1.348,0.314-1.348,0.979s0.647,0.98,1.348,0.98
		C19.268,23.072,19.898,22.862,20.178,22.46z"/>
	<path fill="#FFFFFF" d="M24.115,20.395c0-2.643,1.96-4.428,4.603-4.428c1.838,0,2.958,0.805,3.465,1.558l-1.75,1.627
		c-0.333-0.489-0.875-0.805-1.593-0.805c-1.12,0-1.978,0.771-1.978,2.048s0.857,2.065,1.978,2.065c0.718,0,1.26-0.351,1.593-0.823
		l1.75,1.646c-0.507,0.735-1.627,1.558-3.465,1.558C26.075,24.84,24.115,23.037,24.115,20.395z"/>
	<path fill="#FFFFFF" d="M33.232,24.63v-8.453h2.695v1.032c0.56-0.683,1.645-1.26,2.643-1.26v2.59
		c-0.158-0.053-0.385-0.07-0.665-0.07c-0.7,0-1.628,0.298-1.978,0.771v5.391H33.232z"/>
	<path fill="#FFFFFF" d="M39.077,20.395c0-2.38,1.715-4.428,4.585-4.428c2.905,0,4.621,2.048,4.621,4.428s-1.715,4.445-4.621,4.445
		C40.792,24.84,39.077,22.774,39.077,20.395z M45.518,20.395c0-1.12-0.665-2.048-1.855-2.048c-1.155,0-1.82,0.928-1.82,2.048
		c0,1.138,0.665,2.065,1.82,2.065C44.853,22.46,45.518,21.532,45.518,20.395z"/>
	<path fill="#FFFFFF" d="M48.807,23.527l1.12-1.925c0.63,0.56,1.978,1.137,2.975,1.137c0.805,0,1.138-0.228,1.138-0.595
		c0-1.05-4.918,0.035-4.918-3.396c0-1.487,1.295-2.782,3.623-2.782c1.436,0,2.625,0.455,3.536,1.12l-1.033,1.907
		c-0.507-0.49-1.47-0.928-2.485-0.928c-0.63,0-1.05,0.245-1.05,0.578c0,0.928,4.9-0.035,4.9,3.43c0,1.61-1.417,2.766-3.833,2.766
		C51.257,24.84,49.7,24.332,48.807,23.527z"/>
	<path fill="#FFFFFF" d="M57.102,23.527l1.12-1.925c0.63,0.56,1.978,1.137,2.975,1.137c0.805,0,1.138-0.228,1.138-0.595
		c0-1.05-4.918,0.035-4.918-3.396c0-1.487,1.295-2.782,3.623-2.782c1.436,0,2.625,0.455,3.536,1.12l-1.033,1.907
		c-0.507-0.49-1.47-0.928-2.485-0.928c-0.63,0-1.05,0.245-1.05,0.578c0,0.928,4.9-0.035,4.9,3.43c0,1.61-1.417,2.766-3.833,2.766
		C59.552,24.84,57.995,24.332,57.102,23.527z"/>
</g>
<g>
	<path fill="#FFFFFF" d="M14.647,103.956c0-2.644,1.96-4.429,4.603-4.429c1.838,0,2.958,0.806,3.465,1.558l-1.75,1.628
		c-0.333-0.49-0.875-0.805-1.593-0.805c-1.12,0-1.978,0.77-1.978,2.048c0,1.277,0.857,2.064,1.978,2.064
		c0.718,0,1.26-0.35,1.593-0.822l1.75,1.646c-0.507,0.734-1.627,1.558-3.465,1.558C16.608,108.401,14.647,106.599,14.647,103.956z"
		/>
	<path fill="#FFFFFF" d="M23.223,103.956c0-2.381,1.715-4.429,4.585-4.429c2.905,0,4.621,2.048,4.621,4.429
		c0,2.38-1.715,4.445-4.621,4.445C24.938,108.401,23.223,106.336,23.223,103.956z M29.664,103.956c0-1.12-0.665-2.048-1.855-2.048
		c-1.155,0-1.82,0.928-1.82,2.048c0,1.138,0.665,2.064,1.82,2.064C28.999,106.021,29.664,105.094,29.664,103.956z"/>
	<path fill="#FFFFFF" d="M39.375,108.191v-1.016c-0.525,0.596-1.487,1.226-2.923,1.226c-1.908,0-2.783-1.103-2.783-2.643v-6.021
		h2.695v4.901c0,1.032,0.525,1.382,1.4,1.382c0.77,0,1.295-0.42,1.61-0.822v-5.461h2.695v8.454H39.375z"/>
	<path fill="#FFFFFF" d="M49.578,108.191v-4.883c0-1.033-0.542-1.4-1.382-1.4c-0.805,0-1.331,0.438-1.646,0.822v5.461h-2.695v-8.454
		h2.695v1.033c0.508-0.595,1.505-1.243,2.94-1.243c1.908,0,2.783,1.12,2.783,2.678v5.986H49.578z"/>
	<path fill="#FFFFFF" d="M54.617,105.916v-3.851h-1.4v-2.328h1.4v-2.31h2.695v2.31h1.715v2.328h-1.715v3.098
		c0,0.49,0.28,0.857,0.735,0.857c0.297,0,0.595-0.104,0.683-0.21l0.525,2.03c-0.333,0.315-0.998,0.561-1.995,0.561
		C55.544,108.401,54.617,107.544,54.617,105.916z"/>
	<path fill="#FFFFFF" d="M60.182,108.191v-8.454h2.695v1.033c0.56-0.683,1.646-1.261,2.643-1.261v2.591
		c-0.158-0.053-0.385-0.07-0.665-0.07c-0.7,0-1.628,0.298-1.978,0.771v5.391H60.182z"/>
	<path fill="#FFFFFF" d="M66.377,97.428c0-0.857,0.683-1.54,1.54-1.54c0.858,0,1.558,0.683,1.558,1.54s-0.7,1.558-1.558,1.558
		C67.06,98.985,66.377,98.285,66.377,97.428z M66.569,108.191v-8.454h2.695v8.454H66.569z"/>
	<path fill="#FFFFFF" d="M70.506,103.956c0-2.45,1.838-4.429,4.48-4.429c2.503,0,4.323,1.838,4.323,4.708v0.613h-6.021
		c0.193,0.752,0.893,1.382,2.118,1.382c0.595,0,1.575-0.262,2.065-0.717l1.172,1.768c-0.84,0.752-2.24,1.12-3.535,1.12
		C72.501,108.401,70.506,106.703,70.506,103.956z M74.987,101.698c-1.172,0-1.627,0.7-1.732,1.312h3.482
		C76.667,102.416,76.229,101.698,74.987,101.698z"/>
	<path fill="#FFFFFF" d="M79.747,107.089l1.12-1.926c0.63,0.561,1.978,1.138,2.975,1.138c0.805,0,1.138-0.228,1.138-0.595
		c0-1.05-4.918,0.035-4.918-3.396c0-1.487,1.295-2.783,3.623-2.783c1.435,0,2.625,0.455,3.535,1.12l-1.033,1.908
		c-0.507-0.49-1.47-0.928-2.485-0.928c-0.63,0-1.05,0.245-1.05,0.577c0,0.928,4.9-0.034,4.9,3.431c0,1.61-1.417,2.766-3.833,2.766
		C82.197,108.401,80.639,107.894,79.747,107.089z"/>
	<path fill="#FFFFFF" d="M92.521,103.956c0-2.381,1.715-4.429,4.585-4.429c2.905,0,4.621,2.048,4.621,4.429
		c0,2.38-1.715,4.445-4.621,4.445C94.236,108.401,92.521,106.336,92.521,103.956z M98.962,103.956c0-1.12-0.665-2.048-1.855-2.048
		c-1.155,0-1.82,0.928-1.82,2.048c0,1.138,0.665,2.064,1.82,2.064C98.297,106.021,98.962,105.094,98.962,103.956z"/>
	<path fill="#FFFFFF" d="M105.139,108.191l-3.325-8.454h2.835l1.925,5.356l1.908-5.356h2.853l-3.325,8.454H105.139z"/>
	<path fill="#FFFFFF" d="M111.42,103.956c0-2.45,1.838-4.429,4.48-4.429c2.504,0,4.323,1.838,4.323,4.708v0.613h-6.021
		c0.193,0.752,0.893,1.382,2.117,1.382c0.596,0,1.576-0.262,2.066-0.717l1.172,1.768c-0.84,0.752-2.24,1.12-3.535,1.12
		C113.416,108.401,111.42,106.703,111.42,103.956z M115.9,101.698c-1.172,0-1.627,0.7-1.732,1.312h3.482
		C117.581,102.416,117.144,101.698,115.9,101.698z"/>
	<path fill="#FFFFFF" d="M121.378,108.191v-8.454h2.695v1.033c0.56-0.683,1.646-1.261,2.644-1.261v2.591
		c-0.158-0.053-0.386-0.07-0.666-0.07c-0.699,0-1.627,0.298-1.978,0.771v5.391H121.378z"/>
	<path fill="#FFFFFF" d="M131.37,106.563l1.522-2.048c0.857,0.822,2.171,1.226,3.186,1.226c1.295,0,1.961-0.49,1.961-1.138
		c0-0.665-0.49-0.998-2.083-0.998c-0.508,0-1.4,0.018-1.575,0.035v-2.678c0.228,0.018,1.137,0.018,1.575,0.018
		c1.208,0,1.89-0.298,1.89-0.91c0-0.735-0.84-1.067-1.96-1.067c-1.067,0-2.083,0.385-2.905,1.12l-1.453-1.891
		c0.998-1.103,2.521-1.89,4.674-1.89c2.975,0,4.638,1.277,4.638,3.202c0,1.365-1.173,2.398-2.556,2.626
		c1.243,0.122,2.748,1.085,2.748,2.765c0,2.048-1.926,3.466-4.83,3.466C133.961,108.401,132.298,107.613,131.37,106.563z"/>
	<path fill="#FFFFFF" d="M146.945,109.084c0.192,0.104,0.455,0.157,0.664,0.157c0.613,0,0.998-0.122,1.156-0.473l0.191-0.455
		l-3.377-8.576h2.835l1.925,5.356l1.908-5.356h2.854l-3.816,9.661c-0.682,1.785-1.942,2.188-3.57,2.223
		c-0.244,0-0.875-0.052-1.154-0.14L146.945,109.084z"/>
	<path fill="#FFFFFF" d="M155.188,103.956c0-2.45,1.838-4.429,4.48-4.429c2.503,0,4.323,1.838,4.323,4.708v0.613h-6.021
		c0.192,0.752,0.893,1.382,2.117,1.382c0.596,0,1.575-0.262,2.065-0.717l1.173,1.768c-0.84,0.752-2.24,1.12-3.535,1.12
		C157.183,108.401,155.188,106.703,155.188,103.956z M159.668,101.698c-1.172,0-1.627,0.7-1.732,1.312h3.482
		C161.348,102.416,160.91,101.698,159.668,101.698z"/>
	<path fill="#FFFFFF" d="M170.132,108.191v-0.841c-0.524,0.631-1.54,1.051-2.625,1.051c-1.295,0-2.905-0.893-2.905-2.783
		c0-2.048,1.61-2.73,2.905-2.73c1.12,0,2.118,0.368,2.625,0.998v-0.84c0-0.735-0.63-1.243-1.715-1.243
		c-0.84,0-1.68,0.333-2.362,0.91l-0.998-1.872c1.085-0.928,2.538-1.313,3.833-1.313c2.03,0,3.938,0.753,3.938,3.378v5.286H170.132z
		 M170.132,106.021v-0.752c-0.279-0.402-0.91-0.596-1.505-0.596c-0.7,0-1.348,0.315-1.348,0.98s0.647,0.98,1.348,0.98
		C169.222,106.634,169.853,106.424,170.132,106.021z"/>
	<path fill="#FFFFFF" d="M174.612,108.191v-8.454h2.695v1.033c0.56-0.683,1.645-1.261,2.643-1.261v2.591
		c-0.158-0.053-0.385-0.07-0.665-0.07c-0.7,0-1.628,0.298-1.978,0.771v5.391H174.612z"/>
	<path fill="#FFFFFF" d="M180.282,107.089l1.12-1.926c0.63,0.561,1.978,1.138,2.976,1.138c0.805,0,1.137-0.228,1.137-0.595
		c0-1.05-4.918,0.035-4.918-3.396c0-1.487,1.296-2.783,3.623-2.783c1.436,0,2.626,0.455,3.535,1.12l-1.032,1.908
		c-0.508-0.49-1.47-0.928-2.485-0.928c-0.63,0-1.05,0.245-1.05,0.577c0,0.928,4.9-0.034,4.9,3.431c0,1.61-1.418,2.766-3.833,2.766
		C182.732,108.401,181.175,107.894,180.282,107.089z"/>
</g>
<g>
	<defs>
		<rect id="SVGID_1_" x="138.42" y="15.953" width="67.51" height="67.51"/>
	</defs>
	<clipPath id="SVGID_2_">
		<use xlink:href="#SVGID_1_"  overflow="visible"/>
	</clipPath>
	<path clip-path="url(#SVGID_2_)" fill="#FFFFFF" d="M172.174,15.952c-18.612,0-33.754,15.143-33.754,33.755
		c0,18.614,15.142,33.756,33.754,33.756S205.93,68.32,205.93,49.707C205.93,31.094,190.786,15.952,172.174,15.952 M172.174,80.176
		c-16.801,0-30.469-13.668-30.469-30.469c0-3.398,0.568-6.665,1.6-9.72c0.845-0.156,0.746-0.626,0.814,0.535
		c0.083,1.409-1.16,0.995,0,2.154c1.161,1.16,1.575,2.403,2.487,2.652c0.911,0.249,1.704,0.501,2.071,1.078
		c0.369,0.576,0.461,0.576,0.912,0.576s0.498,0.004,0.994,0.335c0.498,0.332,0.746,0.249,0.994,0.663
		c0.249,0.415-0.33-0.414,0.249,0.415c0.58,0.829,0.415,1.297,0.911,1.311c0.498,0.016-0.248-0.315,0.498,0.016
		c0.745,0.33,0.745,0.578,0.995,0.744c0.248,0.166,0.414,0.166,0.579,0.498c0.166,0.331-0.248,0.663,0,1.078
		c0.25,0.414,0.328,0.414,0.041,0.662c-0.289,0.249-0.124-0.415-0.289,0.249c-0.166,0.663-0.248,0.58,0.083,1.409
		c0.331,0.828,0.116,0.828,0.39,1.326s-0.273,0.912,0,1.325c0.273,0.414-0.059-0.081,0.273,0.414
		c0.332,0.498,0.332,0.415,0.414,0.912s-0.58,0.581,0,0.912s0.496,0.083,0.994,0.498c0.498,0.414-0.166,0.082,0.498,0.414
		c0.662,0.331,0.166-0.001,0.662,0.331c0.498,0.331,0.912,0,0.83,0.497c-0.084,0.497,0.166-0.166-0.084,0.497
		c-0.248,0.664-0.33,0.664-0.248,1.327c0.084,0.664,0.561,2.156,0.363,2.568c-0.197,0.414-0.206,0.912,0.047,1.244
		c0.252,0.332,0.252,1.076,0.336,1.326c0.082,0.248-0.084,0.58,0,0.828c0.082,0.248-0.201,0.83,0.023,1.078s0.225,0.498,0.473,0.828
		c0.249,0.332,0.332,0.498,0.332,0.996c0,0.496-0.166,0.828,0,1.078c0.166,0.246,0.167,1.074,0.497,1.324
		c0.332,0.248,0.663,0.746,0.663,0.746s0.249,0.496,0.58,0.58c0.332,0.082-0.249-0.332,0.332,0.082
		c0.58,0.414,0.498,0.166,0.91,0.58c0.416,0.416,0.664,0.25,0.83,0.498s0.746,0.58,0.994,0.746s0.332-0.166,0.58,0
		c0.25,0.166,0.084,0.664,0.25,0.166s0.248-0.58,0-1.078c-0.25-0.498-0.414-0.664-0.582-0.994c-0.164-0.332-0.082,0.414-0.164-0.332
		c-0.084-0.746-0.084-0.746-0.248-1.326c-0.166-0.58-0.166,0-0.166-0.58c0-0.578,0.082-1.326,0.082-1.326s-0.25,0.166,0.166-0.578
		c0.414-0.748-0.166,0,0.414-0.748c0.58-0.744,0.313-1.16,0.654-1.326c0.34-0.166,0.34-0.662,0.672-1.16
		c0.331-0.498,0.745-1.076,0.745-1.076s0.167-0.498,0.581-0.746c0.415-0.25,0.165-0.332,0.746-0.746
		c0.58-0.416,0.58-0.662,0.828-0.912c0.25-0.248,0.249-0.746,0.58-1.076c0.332-0.332,0.415-0.996,0.662-1.411
		c0.25-0.414,0.332-0.58,0.498-0.911c0.166-0.332,0.166-0.746,0.332-0.994c0.166-0.249,0.912-0.746,0.787-0.995
		c-0.123-0.248-0.345-0.131,0.015-0.438c0.358-0.308,0.577-1.137,0.717-1.717c0.14-0.579,0.274-1.657,0-1.988
		s-0.606-0.498-1.437-0.746c-0.828-0.249-1.905-0.248-2.319-0.331c-0.415-0.083-0.995-0.083-1.327-0.332
		c-0.331-0.249-0.663-0.415-0.994-0.663c-0.332-0.249-0.58-0.331-0.746-0.664c-0.164-0.331-0.746-0.994-0.91-1.408
		c-0.168-0.415-0.58-0.845-0.83-1.002c-0.248-0.157-0.996-0.323-1.326-0.654c-0.331-0.331-1.16-0.829-1.491-1.078
		c-0.332-0.249-0.497-0.249-0.829-0.497c-0.332-0.249-0.912-0.667-0.912-0.667s-0.166-0.418-0.497,0
		c-0.332,0.418-0.249,0.335-0.745,0.584c-0.498,0.248-0.146,0.248-0.695,0.414c-0.547,0.166-0.465,0.249-0.879,0.332
		c-0.416,0.083-0.416,0.166-0.83,0.083s0.166,0.165-0.414-0.083c-0.58-0.249-1.16-0.58-1.16-0.58s-0.368,0.086-0.497-0.332
		c-0.13-0.418-0.166-0.829-0.166-0.829l-0.497-0.663l-0.083-0.498l0.249-0.828c0,0,0.082-0.165,0.082-0.497s0.083-0.497-0.248-0.663
		l-0.331-0.166c0,0,0-0.332-0.498-0.082l-0.497,0.248c0,0-0.414,0.497-0.664,0.58c-0.248,0.083,0.331-0.083-0.248,0.083
		c-0.58,0.166-0.828,0.083-1.076,0.083c-0.25,0-0.996-0.498-0.996-0.498s-0.082-0.248-0.082-0.496c0-0.25-0.25-0.415-0.166-0.747
		c0.082-0.33,0.166-0.661,0.166-0.661s0.084-0.498,0.166-0.912c0.082-0.415-0.166-0.083,0.082-0.415
		c0.248-0.331,0.414-0.679,0.414-0.679l0.994,0.099c0,0,0.25-0.114,0.582-0.099l0.33,0.016c0,0-0.33,0.629,0.332-0.017l0.663-0.646
		h0.58c0.58,0.083,0.165-0.829,0.58,0.083s-0.083,0.166,0.415,0.912c0.497,0.746,0.828,0.331,0.828,0.829
		c0,0.496-0.166,0.663,0,0.911c0.166,0.249-0.249,0.497,0.498,0.579c0.744,0.083,0.91-0.661,0.91-0.661s-0.498-0.498-0.414-0.912
		c0.084-0.415-0.084-0.581,0-0.829c0.084-0.249,0.084-0.747,0.084-0.747l0.248-0.49c0,0-0.248-0.586,0.414-0.835
		c0.664-0.249,0.932-0.497,1.129-0.497s-0.299,0.248,0.197,0l0.498-0.249l0.166-0.663c0,0-0.084-0.332,0-0.58
		c0.082-0.249-0.248-0.414,0-0.581l0.247-0.165l1.078-0.91l0.746-0.333l0.414-0.496c0,0,0,0.165,0.415,0
		c0.414-0.166,0.331,0.331,0.912,0c0.578-0.332,0.91-0.25,1.408-0.415l0.498-0.166c0,0,0.58-0.332,0.496-1.078l-0.082-0.745v-0.912
		c0.912-0.083,0.746,0.084,1.242,0c0.498-0.083,0.582,0.202,0.912-0.022c0.332-0.226-0.083,0.188,0.332-0.226
		c0.414-0.415,0.496-0.498,0.496-0.829c0-0.332,0.001-0.581-0.082-0.829c-0.083-0.249-0.829-0.995-0.829-0.995l-0.415-0.578
		l-0.662-0.498l-0.58-0.415h-0.912h-0.912c0,0,0.084,0.084-0.082,0.498c-0.166,0.415,0.166,0-0.166,0.415
		c-0.332,0.412-0.662,0.91-0.662,0.91s-0.25,0.165-0.581,0.497s-0.746,0.663-0.746,0.663l-0.662,0.497c0,0-0.498-0.332-0.747-0.579
		c-0.248-0.249,0.581,0.247-0.248-0.249l-0.828-0.497l-0.498-0.664c0,0-0.478-0.246-0.363-0.496l0.115-0.249l-0.115-0.331
		c0,0-0.135-0.166,0.529-0.415c0.662-0.248,1.077-0.414,1.077-0.414s0.248-0.415,0.58-0.415h0.663c0,0,0.166-0.165,0.58-0.496
		l0.414-0.332l0.249-0.746v-0.497l-0.663-0.663l-0.331-0.497v-0.315c0.153-0.062,0.304-0.124,0.458-0.182h0.371l0.324-0.253
		c0.31-0.108,0.617-0.218,0.932-0.316l0.484,0.403c0,0,0.332,0,0.496,0.331l0.166,0.332c0,0,0.332,0,0.416,0.497
		c0.082,0.498-0.084,0.083,0.082,0.498c0.166,0.413,0.58,1.325,0.58,1.325l1.078,0.58l1.077,0.166
		c0.413-0.166,0.579-0.497,0.579-0.497s0-0.249,0.331-0.332c0.332-0.083,0.664-0.414,0.664-0.414v-0.415l-0.083-0.58l-0.414-0.58
		l-0.746-0.663l-0.414-0.331l-0.415-0.995v-0.265c0.124-0.021,0.246-0.046,0.37-0.067h0.779h0.011h0.747h1.738h0.416
		c0.248,0,0.662-0.496,0.828,0l0.166,0.498c0.166,0.497,0.207,0.912,0.207,0.912v1.658l-0.041,0.828c0,0,0.084,0.165,0.041,0.58
		l-0.041,0.415c0,0,0.717,0.248,0.772,0.497l0.056,0.248l0.664,0.249c0,0,0.579-0.166,0.828-0.166c0.248,0,0.166-0.166,0.497-0.415
		c0.332-0.248,0.166-0.083,0.746-0.496c0.58-0.415,0.912-0.747,0.912-0.747s-0.58-0.331,0-0.414s0.994-0.497,0.994-0.497
		l0.331-0.165l0.664-0.167c0,0,0.746-0.082,1.16,0c0.414,0.083,1.326-0.082,1.326-0.082l0.745-0.166v-0.663v-0.331
		c0,0,0.498-0.166,0.746-0.084l0.175,0.006c0.215,0.08,0.426,0.167,0.639,0.251c-0.037,0.107-0.08,0.216,0.016,0.407
		c0.165,0.331-0.746-0.249,0.165,0.331l0.912,0.581c0,0,0.415,0.247,0.663,0.247c0.246,0-0.244-0.245,0.242-0.002l-0.012-0.006
		l0.02,0.008c0.105,0.054,0.26,0.131,0.496,0.249l1.492,0.746c0,0,0.414,0.083,0.746,0.249c0.33,0.166,0.166-0.332,0.33,0.166
		c0.166,0.497,0,0.829,0,0.829l0.074,0.331h-0.902c0,0-0.332,0-0.58,0.165l-0.248,0.167l-0.414,0.414c0,0-0.582,0.248-0.829,0.497
		c-0.248,0.25-0.497,0.001-0.58,0.25c-0.083,0.246,0.332-0.167-0.083,0.246c-0.415,0.415-0.249,0.083-0.415,0.415l-0.166,0.331
		v0.664v0.911l-0.248,0.664l-0.498,0.496l-0.496,0.166h-0.83h-0.827h-0.664l-0.498,0.663c0,0-0.082-0.166-0.248,0.332
		c-0.166,0.497,0-0.249-0.166,0.497s-0.414,0.249-0.166,0.746c0.25,0.497,0.498,0.912,0.498,0.912s0.082,0.331,0.332,0.414
		c0.248,0.083,0.33,0.164,0.662,0.247s-0.662,0.083,0.332,0.083h0.994c0.497,0,0.662,0.084,0.912-0.166
		c0.248-0.247,0.084-0.578,0.58-0.744c0.497-0.166-0.332,0.249,0.497-0.166c0.83-0.414-0.248,0.083,0.83-0.414
		c1.077-0.498,0.661,0.083,1.077-0.498c0.414-0.58,0.498-1.077,0.746-1.16s-0.168,0.165,0.248-0.083
		c0.414-0.248,0.894-0.58,1.15-0.497l0.068,0.028c0.029-0.012,0.158-0.028,0.604-0.028h0.995c0,0,0.415-0.166,0.912,0
		s0.497-0.332,0.497,0.166c0,0.497-0.248,0.579,0,0.994s0,1.161,0,1.161l-0.248,0.414l-0.084,0.663c0,0,0.305,0.083,0.443,0.247
		c0.137,0.167-0.194,0.083,0.137,0.167l0.332,0.082l0.497-0.082l0.331-0.084l0.994-0.579l0.748-0.082
		c0.496-0.167,0.744-0.249,1.158-0.249s0.582-0.166,0.912,0c0.332,0.166-0.164-0.083,0.332,0.166
		c0.497,0.249,0.994,0.165,1.16,0.497c0.166,0.331,0.084-0.248,0.166,0.331c0.083,0.58-0.58,0.911,0,1.242
		c0.58,0.332,0.745,0.663,0.745,0.912s0.083-0.331,0,0.249l-0.082,0.579c0,0-0.663,0.167-0.912,0.25c-0.248,0.083-0.994,0-0.994,0
		l-0.663-0.332l-0.58-0.249l-0.746,0.166c-0.414,0.332-0.828,0.498-0.828,0.498s0.33,0.331-0.332,0.331s-1.326-0.166-1.326-0.166
		s-0.912-0.414-1.243-0.663l-0.332-0.248c0,0-0.579-0.498-0.579-0.746c0-0.249-0.167-0.581-0.167-0.581l-0.746-0.414h-0.745
		l-0.994,0.083l-0.912,0.581l-0.746,0.248l-0.662-0.083l-0.663,0.166c0,0-0.58,0.663-0.912,0.746c-0.332,0.082,0-0.166-0.332,0.082
		c-0.331,0.249-0.58-0.082-0.746,0.498l-0.166,0.58c0,0-0.248,0.249-0.496,0.497l-0.249,0.249c0,0-0.332,0-0.498,0.331
		c-0.164,0.332-0.412,0.249-0.496,0.497c-0.084,0.249,0.248-0.414-0.084,0.249c-0.33,0.663,0.084,0-0.33,0.663
		c-0.416,0.664-0.996,1.657-0.996,1.657c0,0.58,0.084,0.497,0.084,1.077v0.257V44.1v0.317c0,0.663,0.082,0.414,0,1.076
		c-0.084,0.664-0.037-0.161-0.084,0.664s-0.424,0.49-0.047,0.825c0.379,0.335-0.035,0.004,0.379,0.335
		c0.414,0.332-0.332-0.58,0.414,0.332c0.746,0.911,0.248,0.497,0.746,0.911c0.498,0.415-0.166,0,0.498,0.415
		c0.663,0.414,0.579,0.469,0.911,0.73c0.332,0.263-0.248-0.15,0.332,0.263c0.58,0.415-0.415,0.747,0.58,0.415
		c0.994-0.332,0.663-0.166,0.994-0.332s-1.16-0.166,0.331-0.166c1.492,0,1.078,0.166,1.492,0c0.414-0.164-0.248,0.305,0.746-0.18
		l0.994-0.481c0,0,0.414-0.415,0.664-0.167c0.248,0.249,0.082,0.481,0.745,0.821c0.664,0.339,0.001,0.09,0.664,0.339
		c0.662,0.248,0.33-0.166,0.662,0.248c0.332,0.415,0.332-0.166,0.332,0.415c0,0.58,0.249-0.082,0,0.58
		c-0.249,0.663-0.415,0.083-0.249,0.663c0.165,0.58,0.165,1.16,0.165,1.16s-0.165,0.497,0,0.746
		c0.166,0.249-0.082-0.332,0.166,0.249c0.249,0.58,0.001,0.166,0.249,0.58c0.249,0.414-0.166-0.083,0.249,0.414l0.414,0.498
		c0,0,0.332,0.166,0.498,0.497l0.165,0.331c0,0-0.083,0.167-0.165,0.498c-0.084,0.33,0.248-0.084-0.084,0.33
		c-0.331,0.415-0.165-0.081-0.331,0.415c-0.166,0.497-0.166,1.16-0.166,1.16s-0.331,0.249-0.414,0.663
		c-0.083,0.415,0.083,0-0.083,0.415c-0.165,0.414-0.249-0.166-0.165,0.414l0.082,0.581c0,0,0.083,0.248,0.249,0.497
		c0.165,0.248,0.082-0.333,0.165,0.248c0.083,0.58,0.083,0,0.083,0.58c0,0.581-0.083,0.665,0.083,0.913l0.166,0.248l0.497,1.41
		c0,0,0.413,1.242,0.413,1.49s-0.247,0.332,0,0.58c0.25,0.248-0.579-0.414,0.25,0.248l0.828,0.664c0,0-0.496,0.414-0.082,0.496
		l0.414,0.084l0.498-0.084c0.496,0.498,0.082,0.25,0.496,0.498c0.104,0.062,0.15,0.104,0.17,0.133
		C190.082,75.854,181.623,80.176,172.174,80.176"/>
</g>
</svg>
