<?xml version="1.0" encoding="utf-8"?>
<!-- Generator: Adobe Illustrator 15.0.0, SVG Export Plug-In . SVG Version: 6.00 Build 0)  -->
<!DOCTYPE svg PUBLIC "-//W3C//DTD SVG 1.1//EN" "http://www.w3.org/Graphics/SVG/1.1/DTD/svg11.dtd">
<svg version="1.1" id="Layer_1" xmlns="http://www.w3.org/2000/svg" xmlns:xlink="http://www.w3.org/1999/xlink" x="0px" y="0px"
	 width="220px" height="151px" viewBox="0 0 220 151" enable-background="new 0 0 220 151" xml:space="preserve">
<rect x="0" fill="#008590" width="220" height="151"/>
<g>
	<path fill="#FFFFFF" d="M15.81,22.732v-6.667h4.887v1.5h-3.168v1.039h3.098v1.5h-3.098v1.129h3.168v1.499H15.81z"/>
	<path fill="#FFFFFF" d="M26.237,22.732l-2.818-3.858v3.858h-1.719v-6.667h1.769l2.699,3.668v-3.668h1.729v6.667H26.237z"/>
	<path fill="#FFFFFF" d="M29.099,22.732v-6.667h2.798c2.099,0,3.608,1.259,3.608,3.328s-1.509,3.338-3.598,3.338H29.099z
		 M33.747,19.394c0-1.029-0.62-1.829-1.839-1.829h-1.089v3.668h1.079C33.067,21.233,33.747,20.383,33.747,19.394z"/>
	<path fill="#FFFFFF" d="M36.369,22.732v-6.667h4.887v1.5h-3.168v1.039h3.098v1.5h-3.098v1.129h3.168v1.499H36.369z"/>
	<path fill="#FFFFFF" d="M48.105,22.732v-4.408l-1.679,4.408h-0.76l-1.689-4.408v4.408h-1.719v-6.667h2.389l1.399,3.678l1.389-3.678
		h2.389v6.667H48.105z"/>
	<path fill="#FFFFFF" d="M51.029,22.732v-6.667h1.719v6.667H51.029z"/>
	<path fill="#FFFFFF" d="M53.609,19.404c0-2.059,1.559-3.448,3.608-3.448c1.609,0,2.479,0.91,2.909,1.779l-1.479,0.709
		c-0.22-0.53-0.79-0.97-1.429-0.97c-1.089,0-1.859,0.83-1.859,1.929c0,1.089,0.77,1.929,1.859,1.929c0.64,0,1.209-0.439,1.429-0.969
		l1.479,0.7c-0.43,0.85-1.299,1.789-2.909,1.789C55.168,22.852,53.609,21.453,53.609,19.404z"/>
	<path fill="#FFFFFF" d="M60.869,22.732v-6.667h1.719v6.667H60.869z"/>
	<path fill="#FFFFFF" d="M65.278,22.732v-5.167h-1.869v-1.5h5.447v1.5h-1.859v5.167H65.278z"/>
	<path fill="#FFFFFF" d="M71.498,22.732v-2.688l-2.528-3.978h1.939l1.449,2.459l1.429-2.459h1.949l-2.519,3.978v2.688H71.498z"/>
	<path fill="#FFFFFF" d="M75.279,18.774c0-0.51,0.439-0.939,0.949-0.939s0.939,0.43,0.939,0.939s-0.43,0.939-0.939,0.939
		S75.279,19.284,75.279,18.774z M75.279,21.902c0-0.5,0.439-0.929,0.949-0.929s0.939,0.43,0.939,0.929
		c0,0.51-0.43,0.939-0.939,0.939S75.279,22.412,75.279,21.902z"/>
	<path fill="#FFFFFF" d="M21.35,41.732v-2.197h-5.744v-2.413l4.556-7.4h4.303v7.094h1.458v2.719h-1.458v2.197H21.35z M21.35,32.423
		l-2.737,4.393h2.737V32.423z"/>
	<path fill="#FFFFFF" d="M27.09,41.732v-2.413c5.204-3.763,6.176-4.591,6.176-5.798c0-0.81-0.774-1.242-1.657-1.242
		c-1.333,0-2.341,0.504-3.205,1.314l-1.71-2.052c1.278-1.405,3.187-1.999,4.862-1.999c2.827,0,4.861,1.584,4.861,3.979
		c0,1.854-1.314,3.421-4.303,5.51h4.393v2.701H27.09z"/>
	<path fill="#FFFFFF" d="M42.282,37.375c0-2.719,2.017-4.555,4.735-4.555c1.891,0,3.043,0.828,3.565,1.603l-1.8,1.674
		c-0.342-0.504-0.9-0.828-1.639-0.828c-1.152,0-2.035,0.792-2.035,2.106s0.882,2.125,2.035,2.125c0.738,0,1.296-0.36,1.639-0.847
		l1.8,1.693c-0.522,0.756-1.674,1.602-3.565,1.602C44.298,41.948,42.282,40.093,42.282,37.375z"/>
	<path fill="#FFFFFF" d="M51.282,37.375c0-2.449,1.765-4.555,4.717-4.555c2.989,0,4.753,2.106,4.753,4.555s-1.765,4.573-4.753,4.573
		C53.046,41.948,51.282,39.823,51.282,37.375z M57.908,37.375c0-1.152-0.684-2.106-1.909-2.106c-1.188,0-1.873,0.954-1.873,2.106
		c0,1.17,0.684,2.125,1.873,2.125C57.224,39.5,57.908,38.545,57.908,37.375z"/>
	<path fill="#FFFFFF" d="M68.077,41.732v-1.044c-0.54,0.612-1.53,1.26-3.007,1.26c-1.962,0-2.863-1.134-2.863-2.719v-6.194h2.773
		v5.042c0,1.062,0.54,1.423,1.44,1.423c0.792,0,1.332-0.433,1.656-0.847v-5.618h2.773v8.697H68.077z"/>
	<path fill="#FFFFFF" d="M78.751,41.732v-5.023c0-1.062-0.558-1.44-1.422-1.44c-0.828,0-1.369,0.45-1.692,0.846v5.618h-2.773v-8.697
		h2.773v1.062c0.522-0.612,1.548-1.278,3.025-1.278c1.962,0,2.863,1.152,2.863,2.755v6.158H78.751z"/>
	<path fill="#FFFFFF" d="M84.113,39.391V35.43h-1.44v-2.395h1.44v-2.376h2.773v2.376h1.764v2.395h-1.764v3.187
		c0,0.504,0.288,0.882,0.756,0.882c0.306,0,0.612-0.108,0.702-0.216l0.54,2.088c-0.342,0.324-1.026,0.576-2.053,0.576
		C85.067,41.948,84.113,41.066,84.113,39.391z"/>
	<path fill="#FFFFFF" d="M90.017,41.732v-8.697h2.773v1.062c0.576-0.702,1.692-1.296,2.719-1.296v2.665
		c-0.162-0.054-0.396-0.072-0.684-0.072c-0.72,0-1.675,0.306-2.035,0.792v5.546H90.017z"/>
	<path fill="#FFFFFF" d="M96.569,30.659c0-0.882,0.703-1.584,1.584-1.584c0.882,0,1.603,0.702,1.603,1.584s-0.72,1.603-1.603,1.603
		C97.271,32.261,96.569,31.541,96.569,30.659z M96.767,41.732v-8.697h2.773v8.697H96.767z"/>
	<path fill="#FFFFFF" d="M100.997,37.375c0-2.521,1.891-4.555,4.609-4.555c2.575,0,4.447,1.891,4.447,4.843v0.63h-6.194
		c0.198,0.774,0.918,1.422,2.179,1.422c0.612,0,1.621-0.27,2.125-0.738l1.207,1.818c-0.864,0.774-2.305,1.152-3.637,1.152
		C103.05,41.948,100.997,40.202,100.997,37.375z M105.606,35.052c-1.207,0-1.675,0.72-1.783,1.351h3.583
		C107.335,35.79,106.885,35.052,105.606,35.052z"/>
	<path fill="#FFFFFF" d="M110.681,40.598l1.152-1.98c0.648,0.576,2.034,1.17,3.061,1.17c0.829,0,1.171-0.234,1.171-0.612
		c0-1.081-5.06,0.036-5.06-3.493c0-1.53,1.332-2.863,3.728-2.863c1.476,0,2.7,0.468,3.637,1.152l-1.062,1.962
		c-0.522-0.504-1.513-0.954-2.557-0.954c-0.648,0-1.08,0.252-1.08,0.594c0,0.954,5.041-0.036,5.041,3.529
		c0,1.657-1.458,2.845-3.943,2.845C113.201,41.948,111.599,41.426,110.681,40.598z"/>
	<path fill="#FFFFFF" d="M132.445,41.732l-1.639-5.384l-1.62,5.384h-2.989l-2.575-8.697h2.845l1.405,5.33l1.71-5.33h2.467
		l1.711,5.33l1.386-5.33h2.863l-2.575,8.697H132.445z"/>
	<path fill="#FFFFFF" d="M138.707,30.659c0-0.882,0.702-1.584,1.584-1.584c0.883,0,1.603,0.702,1.603,1.584s-0.72,1.603-1.603,1.603
		C139.409,32.261,138.707,31.541,138.707,30.659z M138.904,41.732v-8.697h2.773v8.697H138.904z"/>
	<path fill="#FFFFFF" d="M144.27,39.391V35.43h-1.441v-2.395h1.441v-2.376h2.772v2.376h1.765v2.395h-1.765v3.187
		c0,0.504,0.288,0.882,0.756,0.882c0.307,0,0.612-0.108,0.702-0.216l0.54,2.088c-0.342,0.324-1.026,0.576-2.052,0.576
		C145.224,41.948,144.27,41.066,144.27,39.391z"/>
	<path fill="#FFFFFF" d="M156.078,41.732v-5.06c0-1.062-0.559-1.404-1.44-1.404c-0.811,0-1.351,0.45-1.675,0.846v5.618h-2.772
		v-12.01h2.772v4.375c0.522-0.612,1.549-1.278,3.007-1.278c1.981,0,2.881,1.116,2.881,2.719v6.194H156.078z"/>
	<path fill="#FFFFFF" d="M19.698,117.732v-13.67c29.479-21.318,34.988-26.01,34.988-32.845c0-4.59-4.386-7.039-9.385-7.039
		c-7.548,0-13.26,2.856-18.157,7.446l-9.69-11.628c7.242-7.957,18.055-11.323,27.542-11.323c16.015,0,27.541,8.977,27.541,22.543
		c0,10.507-7.446,19.38-24.379,31.214h24.889v15.301H19.698z"/>
	<path fill="#FFFFFF" d="M79.776,83.764c0-17.952,9.282-35.089,29.173-35.089c19.891,0,29.173,17.137,29.173,35.089
		c0,17.953-9.282,35.191-29.173,35.191C89.058,118.955,79.776,101.717,79.776,83.764z M120.374,83.764
		c0-12.036-3.265-19.584-11.425-19.584c-8.161,0-11.425,7.548-11.425,19.584c0,12.037,3.264,19.688,11.425,19.688
		C117.109,103.451,120.374,95.801,120.374,83.764z"/>
	<path fill="#FFFFFF" d="M143.423,83.764c0-17.952,9.282-35.089,29.173-35.089c19.892,0,29.174,17.137,29.174,35.089
		c0,17.953-9.282,35.191-29.174,35.191C152.705,118.955,143.423,101.717,143.423,83.764z M184.021,83.764
		c0-12.036-3.264-19.584-11.425-19.584c-8.16,0-11.424,7.548-11.424,19.584c0,12.037,3.264,19.688,11.424,19.688
		C180.757,103.451,184.021,95.801,184.021,83.764z"/>
	<path fill="#FFFFFF" d="M27.184,136.732v-5.295c0-0.666-0.324-1.17-1.152-1.17c-0.756,0-1.296,0.486-1.566,0.846v5.619h-2.773
		v-5.295c0-0.666-0.306-1.17-1.134-1.17c-0.756,0-1.278,0.486-1.566,0.846v5.619h-2.773v-8.697h2.773v1.062
		c0.378-0.504,1.494-1.279,2.863-1.279c1.26,0,2.106,0.523,2.467,1.549c0.504-0.756,1.638-1.549,3.007-1.549
		c1.603,0,2.611,0.83,2.611,2.611v6.303H27.184z"/>
	<path fill="#FFFFFF" d="M31.77,125.658c0-0.883,0.703-1.584,1.584-1.584c0.882,0,1.603,0.701,1.603,1.584s-0.72,1.604-1.603,1.604
		C32.473,127.262,31.77,126.541,31.77,125.658z M31.968,136.732v-8.697h2.773v8.697H31.968z"/>
	<path fill="#FFFFFF" d="M36.756,136.732v-12.01h2.773v12.01H36.756z"/>
	<path fill="#FFFFFF" d="M41.544,136.732v-12.01h2.773v12.01H41.544z"/>
	<path fill="#FFFFFF" d="M46.134,125.658c0-0.883,0.703-1.584,1.584-1.584c0.882,0,1.603,0.701,1.603,1.584s-0.72,1.604-1.603,1.604
		C46.837,127.262,46.134,126.541,46.134,125.658z M46.333,136.732v-8.697h2.773v8.697H46.333z"/>
	<path fill="#FFFFFF" d="M50.562,132.375c0-2.449,1.765-4.557,4.717-4.557c2.989,0,4.753,2.107,4.753,4.557
		s-1.765,4.572-4.753,4.572C52.327,136.947,50.562,134.824,50.562,132.375z M57.188,132.375c0-1.152-0.684-2.107-1.909-2.107
		c-1.188,0-1.873,0.955-1.873,2.107c0,1.17,0.684,2.125,1.873,2.125C56.504,134.5,57.188,133.545,57.188,132.375z"/>
	<path fill="#FFFFFF" d="M67.376,136.732v-5.023c0-1.062-0.558-1.441-1.422-1.441c-0.828,0-1.369,0.451-1.692,0.846v5.619h-2.773
		v-8.697h2.773v1.062c0.522-0.611,1.548-1.279,3.025-1.279c1.962,0,2.863,1.152,2.863,2.756v6.158H67.376z"/>
	<path fill="#FFFFFF" d="M79.543,135.705v4.34H76.77v-12.01h2.773v1.008c0.684-0.828,1.584-1.225,2.575-1.225
		c2.179,0,3.817,1.621,3.817,4.557c0,2.953-1.638,4.572-3.817,4.572C81.146,136.947,80.263,136.57,79.543,135.705z M83.108,132.375
		c0-1.297-0.828-2.107-1.909-2.107c-0.594,0-1.314,0.324-1.656,0.793v2.646c0.342,0.449,1.062,0.793,1.656,0.793
		C82.28,134.5,83.108,133.689,83.108,132.375z"/>
	<path fill="#FFFFFF" d="M86.813,132.375c0-2.521,1.891-4.557,4.609-4.557c2.575,0,4.447,1.891,4.447,4.844v0.631h-6.194
		c0.198,0.773,0.918,1.422,2.179,1.422c0.612,0,1.621-0.27,2.125-0.738l1.207,1.818c-0.864,0.775-2.305,1.152-3.637,1.152
		C88.866,136.947,86.813,135.201,86.813,132.375z M91.423,130.053c-1.207,0-1.675,0.719-1.783,1.35h3.583
		C93.151,130.791,92.701,130.053,91.423,130.053z"/>
	<path fill="#FFFFFF" d="M96.677,132.375c0-2.449,1.765-4.557,4.717-4.557c2.989,0,4.753,2.107,4.753,4.557
		s-1.765,4.572-4.753,4.572C98.442,136.947,96.677,134.824,96.677,132.375z M103.303,132.375c0-1.152-0.684-2.107-1.909-2.107
		c-1.188,0-1.873,0.955-1.873,2.107c0,1.17,0.684,2.125,1.873,2.125C102.619,134.5,103.303,133.545,103.303,132.375z"/>
	<path fill="#FFFFFF" d="M110.376,135.705v4.34h-2.773v-12.01h2.773v1.008c0.685-0.828,1.584-1.225,2.574-1.225
		c2.179,0,3.817,1.621,3.817,4.557c0,2.953-1.639,4.572-3.817,4.572C111.979,136.947,111.096,136.57,110.376,135.705z
		 M113.941,132.375c0-1.297-0.829-2.107-1.909-2.107c-0.594,0-1.314,0.324-1.656,0.793v2.646c0.342,0.449,1.062,0.793,1.656,0.793
		C113.112,134.5,113.941,133.689,113.941,132.375z"/>
	<path fill="#FFFFFF" d="M118.205,136.732v-12.01h2.772v12.01H118.205z"/>
	<path fill="#FFFFFF" d="M122.435,132.375c0-2.521,1.891-4.557,4.609-4.557c2.575,0,4.447,1.891,4.447,4.844v0.631h-6.194
		c0.198,0.773,0.919,1.422,2.179,1.422c0.612,0,1.621-0.27,2.125-0.738l1.206,1.818c-0.864,0.775-2.305,1.152-3.637,1.152
		C124.487,136.947,122.435,135.201,122.435,132.375z M127.044,130.053c-1.206,0-1.675,0.719-1.782,1.35h3.583
		C128.772,130.791,128.322,130.053,127.044,130.053z"/>
	<path fill="#FFFFFF" d="M142.597,136.732v-0.865c-0.54,0.648-1.584,1.08-2.7,1.08c-1.333,0-2.989-0.918-2.989-2.861
		c0-2.107,1.656-2.811,2.989-2.811c1.152,0,2.178,0.379,2.7,1.027v-0.865c0-0.756-0.648-1.277-1.765-1.277
		c-0.864,0-1.729,0.342-2.431,0.936l-1.026-1.926c1.116-0.955,2.611-1.352,3.943-1.352c2.089,0,4.052,0.775,4.052,3.477v5.438
		H142.597z M142.597,134.5v-0.775c-0.288-0.414-0.937-0.611-1.548-0.611c-0.721,0-1.387,0.324-1.387,1.008s0.666,1.008,1.387,1.008
		C141.66,135.129,142.309,134.914,142.597,134.5z"/>
	<path fill="#FFFFFF" d="M147.959,134.391v-3.961h-1.439v-2.395h1.439v-2.377h2.773v2.377h1.765v2.395h-1.765v3.188
		c0,0.504,0.288,0.883,0.756,0.883c0.307,0,0.612-0.109,0.702-0.217l0.54,2.088c-0.342,0.324-1.025,0.576-2.052,0.576
		C148.914,136.947,147.959,136.066,147.959,134.391z"/>
	<path fill="#FFFFFF" d="M158.471,136.732v-8.697h2.773v1.062c0.576-0.703,1.692-1.297,2.719-1.297v2.666
		c-0.162-0.055-0.396-0.072-0.685-0.072c-0.72,0-1.674,0.305-2.034,0.791v5.547H158.471z"/>
	<path fill="#FFFFFF" d="M165.023,125.658c0-0.883,0.702-1.584,1.584-1.584c0.883,0,1.603,0.701,1.603,1.584
		s-0.72,1.604-1.603,1.604C165.726,127.262,165.023,126.541,165.023,125.658z M165.221,136.732v-8.697h2.773v8.697H165.221z"/>
	<path fill="#FFFFFF" d="M169.271,135.598l1.152-1.98c0.647,0.576,2.034,1.17,3.061,1.17c0.828,0,1.17-0.234,1.17-0.611
		c0-1.08-5.06,0.035-5.06-3.494c0-1.529,1.333-2.863,3.728-2.863c1.477,0,2.701,0.469,3.637,1.152l-1.062,1.963
		c-0.522-0.504-1.513-0.953-2.558-0.953c-0.647,0-1.08,0.252-1.08,0.594c0,0.955,5.042-0.037,5.042,3.529
		c0,1.656-1.459,2.844-3.943,2.844C171.792,136.947,170.189,136.426,169.271,135.598z"/>
	<path fill="#FFFFFF" d="M184.23,136.732l-1.908-3.08l-0.828,0.99v2.09h-2.773v-12.01h2.773v6.787l2.646-3.475h3.35l-3.205,3.961
		l3.367,4.736H184.23z"/>
</g>
</svg>
