<?xml version="1.0" encoding="utf-8"?>
<!-- Generator: Adobe Illustrator 15.0.0, SVG Export Plug-In . SVG Version: 6.00 Build 0)  -->
<!DOCTYPE svg PUBLIC "-//W3C//DTD SVG 1.1//EN" "http://www.w3.org/Graphics/SVG/1.1/DTD/svg11.dtd">
<svg version="1.1" id="Layer_1" xmlns="http://www.w3.org/2000/svg" xmlns:xlink="http://www.w3.org/1999/xlink" x="0px" y="0px"
	 width="220px" height="113px" viewBox="0 0 220 113" enable-background="new 0 0 220 113" xml:space="preserve">
<rect x="0" fill="#008590" width="220" height="113"/>
<g>
	<path fill="#FFFFFF" d="M75.255,74.375V62.583c25.431-18.392,30.183-22.439,30.183-28.335c0-3.96-3.784-6.072-8.096-6.072
		c-6.512,0-11.44,2.464-15.664,6.424l-8.36-10.032c6.248-6.864,15.576-9.768,23.759-9.768c13.815,0,23.759,7.744,23.759,19.447
		c0,9.064-6.424,16.72-21.031,26.927h21.471v13.2H75.255z"/>
	<path fill="#FFFFFF" d="M128.318,67.07c0-4.399,3.872-8.184,8.36-8.184c4.487,0,8.271,3.784,8.271,8.184
		c0,4.488-3.784,8.271-8.271,8.271C132.19,75.342,128.318,71.559,128.318,67.07z"/>
	<path fill="#FFFFFF" d="M149.526,45.159c0-18.743,11.352-30.359,29.127-30.359c6.864,0,13.376,2.2,17.775,5.632l-6.512,11.616
		c-3.256-2.64-6.512-3.872-11.264-3.872c-7.216,0-13.815,5.192-13.815,13.375v0.704c2.904-3.872,8.535-6.688,14.432-6.688
		c10.56,0,20.327,6.775,20.327,19.271c0,12.056-9.768,20.592-23.407,20.592C157.622,75.431,149.526,61.967,149.526,45.159z
		 M184.285,55.367c0-4.928-5.016-6.952-9.592-6.952c-3.695,0-7.304,1.232-9.855,3.96c0.439,4.752,3.256,9.68,10.384,9.68
		C180.854,62.055,184.285,58.623,184.285,55.367z"/>
</g>
<g>
	<path fill="#FFFFFF" d="M25.849,96.543v-5.145c0-0.648-0.315-1.139-1.12-1.139c-0.735,0-1.26,0.473-1.522,0.822v5.461h-2.695
		v-5.145c0-0.648-0.298-1.139-1.103-1.139c-0.735,0-1.243,0.473-1.523,0.822v5.461H15.19V88.09h2.695v1.033
		c0.368-0.49,1.453-1.242,2.783-1.242c1.225,0,2.048,0.506,2.398,1.504c0.49-0.734,1.593-1.504,2.923-1.504
		c1.558,0,2.538,0.805,2.538,2.537v6.125H25.849z"/>
	<path fill="#FFFFFF" d="M30.135,85.779c0-0.857,0.683-1.539,1.54-1.539c0.858,0,1.558,0.682,1.558,1.539s-0.7,1.559-1.558,1.559
		C30.818,87.338,30.135,86.637,30.135,85.779z M30.328,96.543V88.09h2.695v8.453H30.328z"/>
	<path fill="#FFFFFF" d="M34.807,96.543V84.869h2.695v11.674H34.807z"/>
	<path fill="#FFFFFF" d="M39.287,96.543V84.869h2.695v11.674H39.287z"/>
	<path fill="#FFFFFF" d="M43.575,85.779c0-0.857,0.683-1.539,1.54-1.539c0.858,0,1.558,0.682,1.558,1.539s-0.7,1.559-1.558,1.559
		C44.257,87.338,43.575,86.637,43.575,85.779z M43.767,96.543V88.09h2.695v8.453H43.767z"/>
	<path fill="#FFFFFF" d="M47.705,92.309c0-2.381,1.715-4.428,4.585-4.428c2.905,0,4.621,2.047,4.621,4.428
		c0,2.379-1.715,4.445-4.621,4.445C49.42,96.754,47.705,94.688,47.705,92.309z M54.146,92.309c0-1.121-0.665-2.049-1.855-2.049
		c-1.155,0-1.82,0.928-1.82,2.049c0,1.137,0.665,2.064,1.82,2.064C53.48,94.373,54.146,93.445,54.146,92.309z"/>
	<path fill="#FFFFFF" d="M63.875,96.543V91.66c0-1.033-0.542-1.4-1.382-1.4c-0.805,0-1.331,0.438-1.646,0.822v5.461h-2.695V88.09
		h2.695v1.033c0.508-0.596,1.505-1.242,2.94-1.242c1.908,0,2.783,1.119,2.783,2.678v5.984H63.875z"/>
	<path fill="#FFFFFF" d="M75.354,95.545v4.219h-2.695V88.09h2.695v0.98c0.665-0.805,1.54-1.189,2.503-1.189
		c2.118,0,3.71,1.574,3.71,4.428c0,2.869-1.593,4.445-3.71,4.445C76.912,96.754,76.054,96.387,75.354,95.545z M78.819,92.309
		c0-1.26-0.805-2.049-1.855-2.049c-0.578,0-1.278,0.316-1.61,0.771v2.572c0.333,0.438,1.033,0.77,1.61,0.77
		C78.014,94.373,78.819,93.586,78.819,92.309z"/>
	<path fill="#FFFFFF" d="M82.249,92.309c0-2.451,1.838-4.428,4.48-4.428c2.503,0,4.323,1.836,4.323,4.707v0.613h-6.021
		c0.193,0.752,0.893,1.383,2.118,1.383c0.595,0,1.575-0.264,2.065-0.719l1.172,1.768c-0.84,0.754-2.24,1.121-3.535,1.121
		C84.244,96.754,82.249,95.057,82.249,92.309z M86.729,90.051c-1.172,0-1.627,0.699-1.732,1.312h3.482
		C88.409,90.768,87.972,90.051,86.729,90.051z"/>
	<path fill="#FFFFFF" d="M91.664,92.309c0-2.381,1.715-4.428,4.585-4.428c2.905,0,4.621,2.047,4.621,4.428
		c0,2.379-1.715,4.445-4.621,4.445C93.379,96.754,91.664,94.688,91.664,92.309z M98.104,92.309c0-1.121-0.665-2.049-1.855-2.049
		c-1.155,0-1.82,0.928-1.82,2.049c0,1.137,0.665,2.064,1.82,2.064C97.439,94.373,98.104,93.445,98.104,92.309z"/>
	<path fill="#FFFFFF" d="M104.806,95.545v4.219h-2.695V88.09h2.695v0.98c0.665-0.805,1.54-1.189,2.503-1.189
		c2.118,0,3.71,1.574,3.71,4.428c0,2.869-1.593,4.445-3.71,4.445C106.364,96.754,105.506,96.387,104.806,95.545z M108.271,92.309
		c0-1.26-0.805-2.049-1.855-2.049c-0.578,0-1.278,0.316-1.61,0.771v2.572c0.333,0.438,1.033,0.77,1.61,0.77
		C107.466,94.373,108.271,93.586,108.271,92.309z"/>
	<path fill="#FFFFFF" d="M112.243,96.543V84.869h2.695v11.674H112.243z"/>
	<path fill="#FFFFFF" d="M116.181,92.309c0-2.451,1.838-4.428,4.48-4.428c2.503,0,4.322,1.836,4.322,4.707v0.613h-6.021
		c0.193,0.752,0.893,1.383,2.118,1.383c0.595,0,1.575-0.264,2.065-0.719l1.172,1.768c-0.84,0.754-2.24,1.121-3.535,1.121
		C118.176,96.754,116.181,95.057,116.181,92.309z M120.661,90.051c-1.173,0-1.628,0.699-1.732,1.312h3.482
		C122.341,90.768,121.903,90.051,120.661,90.051z"/>
	<path fill="#FFFFFF" d="M129.726,95.441l1.12-1.926c0.63,0.561,1.978,1.137,2.975,1.137c0.806,0,1.138-0.227,1.138-0.594
		c0-1.051-4.918,0.035-4.918-3.396c0-1.486,1.295-2.781,3.623-2.781c1.436,0,2.625,0.455,3.535,1.119l-1.032,1.908
		c-0.508-0.49-1.471-0.928-2.485-0.928c-0.63,0-1.05,0.244-1.05,0.578c0,0.928,4.9-0.035,4.9,3.43c0,1.609-1.418,2.766-3.833,2.766
		C132.176,96.754,130.618,96.246,129.726,95.441z"/>
	<path fill="#FFFFFF" d="M138.194,92.309c0-2.643,1.961-4.428,4.604-4.428c1.838,0,2.958,0.805,3.465,1.557l-1.75,1.627
		c-0.332-0.488-0.875-0.805-1.593-0.805c-1.12,0-1.978,0.771-1.978,2.049s0.857,2.064,1.978,2.064c0.718,0,1.261-0.35,1.593-0.822
		l1.75,1.645c-0.507,0.736-1.627,1.559-3.465,1.559C140.155,96.754,138.194,94.951,138.194,92.309z"/>
	<path fill="#FFFFFF" d="M147.312,96.543V88.09h2.695v1.033c0.56-0.684,1.645-1.26,2.643-1.26v2.59
		c-0.157-0.053-0.385-0.07-0.665-0.07c-0.7,0-1.628,0.297-1.978,0.77v5.391H147.312z"/>
	<path fill="#FFFFFF" d="M153.157,92.309c0-2.451,1.838-4.428,4.48-4.428c2.503,0,4.323,1.836,4.323,4.707v0.613h-6.021
		c0.192,0.752,0.893,1.383,2.117,1.383c0.596,0,1.575-0.264,2.065-0.719l1.173,1.768c-0.84,0.754-2.24,1.121-3.535,1.121
		C155.152,96.754,153.157,95.057,153.157,92.309z M157.638,90.051c-1.172,0-1.627,0.699-1.732,1.312h3.482
		C159.318,90.768,158.881,90.051,157.638,90.051z"/>
	<path fill="#FFFFFF" d="M162.572,92.309c0-2.451,1.838-4.428,4.48-4.428c2.503,0,4.322,1.836,4.322,4.707v0.613h-6.021
		c0.193,0.752,0.893,1.383,2.118,1.383c0.595,0,1.575-0.264,2.065-0.719l1.172,1.768c-0.84,0.754-2.24,1.121-3.535,1.121
		C164.567,96.754,162.572,95.057,162.572,92.309z M167.053,90.051c-1.173,0-1.628,0.699-1.732,1.312h3.482
		C168.732,90.768,168.295,90.051,167.053,90.051z"/>
	<path fill="#FFFFFF" d="M178.253,96.543V91.66c0-1.033-0.543-1.4-1.383-1.4c-0.805,0-1.33,0.438-1.646,0.822v5.461h-2.695V88.09
		h2.695v1.033c0.508-0.596,1.506-1.242,2.94-1.242c1.908,0,2.783,1.119,2.783,2.678v5.984H178.253z"/>
	<path fill="#FFFFFF" d="M182.189,92.309c0-2.451,1.838-4.428,4.48-4.428c2.503,0,4.322,1.836,4.322,4.707v0.613h-6.021
		c0.193,0.752,0.893,1.383,2.118,1.383c0.595,0,1.575-0.264,2.065-0.719l1.172,1.768c-0.84,0.754-2.24,1.121-3.535,1.121
		C184.185,96.754,182.189,95.057,182.189,92.309z M186.67,90.051c-1.173,0-1.628,0.699-1.732,1.312h3.482
		C188.35,90.768,187.912,90.051,186.67,90.051z"/>
	<path fill="#FFFFFF" d="M197.834,96.543v-0.98c-0.699,0.807-1.558,1.191-2.502,1.191c-2.083,0-3.729-1.576-3.729-4.445
		c0-2.766,1.61-4.428,3.729-4.428c0.928,0,1.837,0.367,2.502,1.207v-4.219h2.679v11.674H197.834z M197.834,93.604v-2.59
		c-0.35-0.455-1.05-0.754-1.627-0.754c-1.067,0-1.855,0.789-1.855,2.049s0.788,2.064,1.855,2.064
		C196.784,94.373,197.484,94.059,197.834,93.604z"/>
</g>
<g>
	<defs>
		<rect id="SVGID_1_" x="15.21" y="16.062" width="50.292" height="57.913"/>
	</defs>
	<clipPath id="SVGID_2_">
		<use xlink:href="#SVGID_1_"  overflow="visible"/>
	</clipPath>
	<path clip-path="url(#SVGID_2_)" fill="#FFFFFF" d="M60.168,30.361c0,1.821-0.825,3.595-2.474,5.321l-0.256,0.257L43.016,51.131
		c-3.065,3.22-5.675,5.709-7.829,7.468c-2.155,1.758-3.676,2.635-4.563,2.635c-0.933,0-2.092-0.438-3.477-1.316
		c-1.385-0.879-2.279-1.785-2.683-2.721c-0.343-0.776-0.666-2.426-0.969-4.946C23.192,49.731,23.04,47,23.04,44.06
		c0-1.602,0.669-3.084,2.007-4.446c1.338-1.36,2.816-2.042,4.434-2.042c1.54,0,2.458,1.409,2.754,4.225
		c0.031,0.327,0.054,0.567,0.07,0.724c0.248,2.162,0.536,3.672,0.863,4.527s0.77,1.283,1.33,1.283c0.234,0,0.669-0.253,1.307-0.759
		c0.638-0.505,1.4-1.193,2.287-2.064l14.818-14.68c1.245-1.243,2.357-2.185,3.338-2.822c0.98-0.639,1.812-0.957,2.497-0.957
		c0.513,0,0.878,0.194,1.096,0.583c0.218,0.389,0.327,1.043,0.327,1.96V30.361z M65.502,16.062H15.21v57.913h50.292V16.062z"/>
</g>
</svg>
