<?xml version="1.0" encoding="utf-8"?>
<!-- Generator: Adobe Illustrator 15.0.0, SVG Export Plug-In . SVG Version: 6.00 Build 0)  -->
<!DOCTYPE svg PUBLIC "-//W3C//DTD SVG 1.1//EN" "http://www.w3.org/Graphics/SVG/1.1/DTD/svg11.dtd">
<svg version="1.1" id="Layer_1" xmlns="http://www.w3.org/2000/svg" xmlns:xlink="http://www.w3.org/1999/xlink" x="0px" y="0px"
	 width="220px" height="173px" viewBox="0 0 220 173" enable-background="new 0 0 220 173" xml:space="preserve">
<rect x="0" fill="#008590" width="220" height="173"/>
<g>
	<path fill="#FFFFFF" d="M30.691,64.085V31.898l-8.065,8.137l-7.057-7.417l16.778-16.562h10.729v48.028H30.691z"/>
	<path fill="#FFFFFF" d="M54.594,74.311l-4.608-3.745c2.304-1.152,5.329-4.248,6.121-6.84c-0.288,0.072-1.008,0.216-1.656,0.216
		c-3.096,0-5.616-2.376-5.616-5.904c0-3.672,3.024-6.625,6.625-6.625c3.888,0,7.345,3.024,7.345,8.28
		C62.803,65.598,59.635,70.782,54.594,74.311z"/>
	<path fill="#FFFFFF" d="M66.761,57.965l6.697-8.713c3.312,3.097,7.849,4.752,12.457,4.752c5.256,0,7.849-2.592,7.849-5.544
		c0-3.24-2.52-5.544-7.489-5.544c-3.816,0-6.84,1.08-9.505,3.601l-8.568-2.088V16.057h34.851v10.801H80.586v9.289
		c2.304-2.232,6.049-3.816,10.297-3.816c8.209,0,15.481,5.905,15.481,15.625c0,10.369-7.849,16.994-20.306,16.994
		C77.562,64.95,71.154,62.285,66.761,57.965z"/>
	<path fill="#FFFFFF" d="M108.665,40.179c0-15.337,9.289-24.842,23.834-24.842c5.616,0,10.944,1.8,14.545,4.608l-5.328,9.505
		c-2.665-2.161-5.329-3.168-9.217-3.168c-5.905,0-11.306,4.249-11.306,10.945v0.576c2.377-3.168,6.985-5.473,11.81-5.473
		c8.641,0,16.633,5.544,16.633,15.77c0,9.865-7.992,16.85-19.153,16.85C115.289,64.95,108.665,53.933,108.665,40.179z
		 M137.107,48.532c0-4.033-4.104-5.688-7.849-5.688c-3.024,0-5.977,1.008-8.065,3.24c0.36,3.888,2.665,7.92,8.497,7.92
		C134.299,54.004,137.107,51.196,137.107,48.532z"/>
	<path fill="#FFFFFF" d="M151.647,40.107c0-12.673,6.553-24.77,20.594-24.77s20.594,12.097,20.594,24.77
		c0,12.673-6.553,24.842-20.594,24.842S151.647,52.78,151.647,40.107z M180.306,40.107c0-8.497-2.304-13.825-8.064-13.825
		s-8.064,5.329-8.064,13.825s2.304,13.897,8.064,13.897S180.306,48.604,180.306,40.107z"/>
	<path fill="#FFFFFF" d="M15.66,92.195l1.92-3.299c1.08,0.959,3.39,1.949,5.1,1.949c1.38,0,1.95-0.391,1.95-1.02
		c0-1.801-8.43,0.059-8.43-5.82c0-2.551,2.22-4.771,6.21-4.771c2.46,0,4.5,0.78,6.06,1.92l-1.77,3.271
		c-0.87-0.841-2.52-1.591-4.26-1.591c-1.08,0-1.8,0.421-1.8,0.99c0,1.59,8.4-0.06,8.4,5.879c0,2.76-2.43,4.74-6.57,4.74
		C19.86,94.445,17.19,93.576,15.66,92.195z"/>
	<path fill="#FFFFFF" d="M41.189,94.086v-1.74c-0.9,1.02-2.55,2.1-5.01,2.1c-3.27,0-4.77-1.891-4.77-4.529v-10.32h4.62v8.4
		c0,1.77,0.9,2.369,2.4,2.369c1.32,0,2.22-0.719,2.76-1.41v-9.359h4.62v14.49H41.189z"/>
	<path fill="#FFFFFF" d="M49.17,94.086v-14.49h4.62v1.77c0.96-1.17,2.82-2.16,4.53-2.16v4.44c-0.27-0.09-0.66-0.12-1.14-0.12
		c-1.2,0-2.79,0.51-3.39,1.32v9.24H49.17z"/>
	<path fill="#FFFFFF" d="M64.14,94.086l-5.7-14.49h4.86l3.3,9.179l3.27-9.179h4.89l-5.7,14.49H64.14z"/>
	<path fill="#FFFFFF" d="M75.209,86.826c0-4.2,3.15-7.59,7.68-7.59c4.29,0,7.41,3.15,7.41,8.071v1.049H79.979
		c0.33,1.291,1.53,2.369,3.629,2.369c1.02,0,2.7-0.449,3.54-1.229l2.01,3.029c-1.44,1.291-3.84,1.92-6.06,1.92
		C78.629,94.445,75.209,91.535,75.209,86.826z M82.889,82.956c-2.01,0-2.79,1.2-2.97,2.25h5.97
		C85.769,84.186,85.019,82.956,82.889,82.956z"/>
	<path fill="#FFFFFF" d="M92.939,95.615c0.33,0.18,0.78,0.27,1.14,0.27c1.05,0,1.71-0.209,1.98-0.809l0.33-0.781l-5.79-14.699h4.86
		l3.3,9.179l3.27-9.179h4.89l-6.54,16.56c-1.17,3.059-3.33,3.748-6.12,3.809c-0.42,0-1.5-0.09-1.98-0.24L92.939,95.615z"/>
	<path fill="#FFFFFF" d="M107.069,92.195l1.92-3.299c1.08,0.959,3.39,1.949,5.099,1.949c1.381,0,1.95-0.391,1.95-1.02
		c0-1.801-8.43,0.059-8.43-5.82c0-2.551,2.22-4.771,6.21-4.771c2.46,0,4.5,0.78,6.06,1.92l-1.77,3.271
		c-0.87-0.841-2.521-1.591-4.26-1.591c-1.08,0-1.8,0.421-1.8,0.99c0,1.59,8.399-0.06,8.399,5.879c0,2.76-2.43,4.74-6.57,4.74
		C111.269,94.445,108.599,93.576,107.069,92.195z"/>
	<path fill="#FFFFFF" d="M15.994,116.086v-6.766h2.157v0.826c0.448-0.547,1.317-1.01,2.115-1.01v2.074
		c-0.126-0.043-0.308-0.057-0.532-0.057c-0.56,0-1.303,0.238-1.583,0.617v4.314H15.994z"/>
	<path fill="#FFFFFF" d="M20.53,112.695c0-1.961,1.471-3.543,3.586-3.543c2.003,0,3.46,1.471,3.46,3.768v0.49h-4.818
		c0.154,0.602,0.714,1.105,1.695,1.105c0.476,0,1.261-0.209,1.653-0.574l0.938,1.416c-0.672,0.602-1.793,0.896-2.83,0.896
		C22.127,116.254,20.53,114.895,20.53,112.695z M24.116,110.889c-0.938,0-1.303,0.561-1.387,1.051h2.788
		C25.461,111.463,25.111,110.889,24.116,110.889z"/>
	<path fill="#FFFFFF" d="M27.908,112.695c0-2.283,1.274-3.543,2.983-3.543c0.756,0,1.457,0.307,1.989,0.951v-0.783h2.157v9.342
		h-2.157v-3.375c-0.561,0.672-1.247,0.967-1.989,0.967C29.183,116.254,27.908,114.992,27.908,112.695z M32.881,113.732v-2.059
		c-0.267-0.365-0.827-0.617-1.275-0.617c-0.854,0-1.499,0.631-1.499,1.639c0,1.023,0.645,1.652,1.499,1.652
		C32.054,114.348,32.628,114.082,32.881,113.732z"/>
	<path fill="#FFFFFF" d="M40.889,116.086v-0.812c-0.42,0.477-1.191,0.98-2.339,0.98c-1.527,0-2.228-0.883-2.228-2.115v-4.818h2.157
		v3.922c0,0.826,0.42,1.105,1.121,1.105c0.617,0,1.037-0.336,1.289-0.658v-4.369h2.157v6.766H40.889z"/>
	<path fill="#FFFFFF" d="M44.176,107.471c0-0.686,0.546-1.232,1.232-1.232c0.687,0,1.247,0.547,1.247,1.232
		s-0.561,1.246-1.247,1.246C44.723,108.717,44.176,108.156,44.176,107.471z M44.33,116.086v-6.766h2.157v6.766H44.33z"/>
	<path fill="#FFFFFF" d="M47.774,116.086v-6.766h2.157v0.826c0.448-0.547,1.317-1.01,2.115-1.01v2.074
		c-0.126-0.043-0.308-0.057-0.532-0.057c-0.56,0-1.303,0.238-1.583,0.617v4.314H47.774z"/>
	<path fill="#FFFFFF" d="M52.31,112.695c0-1.961,1.471-3.543,3.586-3.543c2.003,0,3.46,1.471,3.46,3.768v0.49h-4.818
		c0.154,0.602,0.714,1.105,1.695,1.105c0.476,0,1.261-0.209,1.653-0.574l0.938,1.416c-0.672,0.602-1.793,0.896-2.83,0.896
		C53.907,116.254,52.31,114.895,52.31,112.695z M55.896,110.889c-0.938,0-1.303,0.561-1.387,1.051h2.788
		C57.24,111.463,56.89,110.889,55.896,110.889z"/>
	<path fill="#FFFFFF" d="M64.688,116.086v-0.785c-0.561,0.645-1.247,0.953-2.003,0.953c-1.667,0-2.984-1.262-2.984-3.559
		c0-2.213,1.289-3.543,2.984-3.543c0.742,0,1.471,0.293,2.003,0.967v-3.377h2.143v9.344H64.688z M64.688,113.732v-2.074
		c-0.28-0.363-0.84-0.602-1.303-0.602c-0.854,0-1.485,0.631-1.485,1.639c0,1.01,0.63,1.652,1.485,1.652
		C63.848,114.348,64.408,114.096,64.688,113.732z"/>
	<path fill="#FFFFFF" d="M71.28,107.471c0-0.686,0.546-1.232,1.232-1.232c0.687,0,1.247,0.547,1.247,1.232s-0.561,1.246-1.247,1.246
		C71.826,108.717,71.28,108.156,71.28,107.471z M71.434,116.086v-6.766h2.157v6.766H71.434z"/>
	<path fill="#FFFFFF" d="M79.458,116.086v-3.908c0-0.826-0.434-1.121-1.106-1.121c-0.645,0-1.064,0.35-1.317,0.658v4.371h-2.157
		v-6.766h2.157v0.826c0.406-0.477,1.205-0.994,2.354-0.994c1.527,0,2.227,0.896,2.227,2.143v4.791H79.458z"/>
	<path fill="#FFFFFF" d="M86.652,114.264v-3.08h-1.121v-1.863h1.121v-1.85h2.157v1.85h1.373v1.863h-1.373v2.479
		c0,0.393,0.224,0.686,0.588,0.686c0.238,0,0.477-0.084,0.546-0.168l0.42,1.625c-0.266,0.252-0.799,0.449-1.597,0.449
		C87.395,116.254,86.652,115.566,86.652,114.264z"/>
	<path fill="#FFFFFF" d="M95.558,116.086v-3.938c0-0.826-0.434-1.092-1.121-1.092c-0.63,0-1.051,0.35-1.303,0.658v4.371h-2.157
		v-9.344h2.157v3.404c0.406-0.477,1.205-0.994,2.339-0.994c1.541,0,2.241,0.867,2.241,2.115v4.818H95.558z"/>
	<path fill="#FFFFFF" d="M98.565,112.695c0-1.961,1.471-3.543,3.586-3.543c2.003,0,3.46,1.471,3.46,3.768v0.49h-4.818
		c0.154,0.602,0.714,1.105,1.695,1.105c0.476,0,1.261-0.209,1.653-0.574l0.938,1.416c-0.672,0.602-1.793,0.896-2.83,0.896
		C100.163,116.254,98.565,114.895,98.565,112.695z M102.151,110.889c-0.938,0-1.303,0.561-1.387,1.051h2.788
		C103.496,111.463,103.146,110.889,102.151,110.889z"/>
	<path fill="#FFFFFF" d="M114.275,116.086v-3.908c0-0.826-0.434-1.121-1.106-1.121c-0.645,0-1.064,0.35-1.316,0.658v4.371h-2.157
		v-6.766h2.157v0.826c0.406-0.477,1.204-0.994,2.353-0.994c1.527,0,2.228,0.896,2.228,2.143v4.791H114.275z"/>
	<path fill="#FFFFFF" d="M117.283,112.695c0-1.961,1.471-3.543,3.586-3.543c2.003,0,3.459,1.471,3.459,3.768v0.49h-4.818
		c0.154,0.602,0.715,1.105,1.695,1.105c0.477,0,1.261-0.209,1.652-0.574l0.938,1.416c-0.672,0.602-1.793,0.896-2.829,0.896
		C118.88,116.254,117.283,114.895,117.283,112.695z M120.869,110.889c-0.938,0-1.303,0.561-1.387,1.051h2.787
		C122.214,111.463,121.863,110.889,120.869,110.889z"/>
	<path fill="#FFFFFF" d="M129.213,116.086l-1.289-2.045l-1.33,2.045h-2.354l2.312-3.475l-2.172-3.291h2.367l1.163,1.834l1.148-1.834
		h2.367l-2.157,3.291l2.312,3.475H129.213z"/>
	<path fill="#FFFFFF" d="M132.444,114.264v-3.08h-1.12v-1.863h1.12v-1.85h2.157v1.85h1.373v1.863h-1.373v2.479
		c0,0.393,0.225,0.686,0.589,0.686c0.237,0,0.476-0.084,0.546-0.168l0.42,1.625c-0.266,0.252-0.798,0.449-1.597,0.449
		C133.187,116.254,132.444,115.566,132.444,114.264z"/>
	<path fill="#FFFFFF" d="M140.523,116.086v-4.902h-1.121v-1.863h1.121v-0.154c0-1.611,1.008-2.564,2.423-2.564
		c0.729,0,1.485,0.211,1.933,0.631l-0.784,1.346c-0.168-0.154-0.392-0.238-0.7-0.238c-0.393,0-0.714,0.266-0.714,0.826v0.154h1.372
		v1.863h-1.372v4.902H140.523z"/>
	<path fill="#FFFFFF" d="M144.232,112.695c0-1.904,1.372-3.543,3.67-3.543c2.325,0,3.697,1.639,3.697,3.543
		c0,1.906-1.372,3.559-3.697,3.559C145.604,116.254,144.232,114.602,144.232,112.695z M149.387,112.695
		c0-0.896-0.532-1.639-1.484-1.639c-0.925,0-1.457,0.742-1.457,1.639c0,0.91,0.532,1.652,1.457,1.652
		C148.854,114.348,149.387,113.605,149.387,112.695z"/>
	<path fill="#FFFFFF" d="M157.016,116.086v-0.812c-0.42,0.477-1.19,0.98-2.339,0.98c-1.527,0-2.228-0.883-2.228-2.115v-4.818h2.157
		v3.922c0,0.826,0.421,1.105,1.121,1.105c0.616,0,1.036-0.336,1.288-0.658v-4.369h2.157v6.766H157.016z"/>
	<path fill="#FFFFFF" d="M160.458,116.086v-6.766h2.157v0.826c0.448-0.547,1.316-1.01,2.115-1.01v2.074
		c-0.126-0.043-0.308-0.057-0.532-0.057c-0.561,0-1.303,0.238-1.583,0.617v4.314H160.458z"/>
	<path fill="#FFFFFF" d="M16.163,130.801c0.154,0.084,0.364,0.125,0.532,0.125c0.49,0,0.798-0.098,0.924-0.379l0.154-0.363
		l-2.704-6.863h2.269l1.541,4.285l1.527-4.285h2.283l-3.054,7.732c-0.546,1.428-1.555,1.75-2.857,1.777
		c-0.196,0-0.7-0.041-0.924-0.111L16.163,130.801z"/>
	<path fill="#FFFFFF" d="M22.616,126.695c0-1.961,1.471-3.543,3.586-3.543c2.003,0,3.46,1.471,3.46,3.768v0.49h-4.818
		c0.154,0.602,0.714,1.105,1.695,1.105c0.476,0,1.261-0.209,1.653-0.574l0.938,1.416c-0.672,0.602-1.793,0.896-2.83,0.896
		C24.213,130.254,22.616,128.895,22.616,126.695z M26.202,124.889c-0.938,0-1.303,0.561-1.387,1.051h2.788
		C27.547,125.463,27.197,124.889,26.202,124.889z"/>
	<path fill="#FFFFFF" d="M34.434,130.086v-0.674c-0.42,0.506-1.232,0.842-2.101,0.842c-1.037,0-2.325-0.715-2.325-2.229
		c0-1.639,1.289-2.184,2.325-2.184c0.896,0,1.695,0.293,2.101,0.797v-0.672c0-0.588-0.504-0.994-1.373-0.994
		c-0.672,0-1.345,0.266-1.891,0.729l-0.798-1.498c0.869-0.744,2.031-1.051,3.068-1.051c1.625,0,3.151,0.602,3.151,2.703v4.23H34.434
		z M34.434,128.348v-0.602c-0.224-0.322-0.728-0.477-1.205-0.477c-0.56,0-1.079,0.252-1.079,0.785c0,0.531,0.519,0.783,1.079,0.783
		C33.706,128.838,34.21,128.67,34.434,128.348z"/>
	<path fill="#FFFFFF" d="M37.876,130.086v-6.766h2.157v0.826c0.448-0.547,1.317-1.01,2.115-1.01v2.074
		c-0.126-0.043-0.308-0.057-0.532-0.057c-0.56,0-1.303,0.238-1.583,0.617v4.314H37.876z"/>
	<path fill="#FFFFFF" d="M42.271,129.203l0.896-1.541c0.504,0.449,1.583,0.91,2.381,0.91c0.645,0,0.911-0.182,0.911-0.477
		c0-0.84-3.936,0.029-3.936-2.717c0-1.191,1.037-2.227,2.899-2.227c1.148,0,2.101,0.363,2.83,0.896l-0.827,1.525
		c-0.406-0.391-1.176-0.742-1.989-0.742c-0.504,0-0.841,0.197-0.841,0.463c0,0.742,3.922-0.027,3.922,2.746
		c0,1.287-1.135,2.213-3.068,2.213C44.233,130.254,42.986,129.848,42.271,129.203z"/>
	<path fill="#FFFFFF" d="M52.492,121.471c0-0.686,0.546-1.232,1.232-1.232c0.687,0,1.247,0.547,1.247,1.232
		s-0.561,1.246-1.247,1.246C53.038,122.717,52.492,122.156,52.492,121.471z M52.646,130.086v-6.766h2.157v6.766H52.646z"/>
	<path fill="#FFFFFF" d="M60.67,130.086v-3.908c0-0.826-0.434-1.121-1.106-1.121c-0.645,0-1.064,0.35-1.317,0.658v4.371H56.09
		v-6.766h2.157v0.826c0.406-0.477,1.205-0.994,2.354-0.994c1.527,0,2.227,0.896,2.227,2.143v4.791H60.67z"/>
	<path fill="#FFFFFF" d="M71.968,130.086v-0.785c-0.561,0.645-1.247,0.953-2.003,0.953c-1.667,0-2.984-1.262-2.984-3.559
		c0-2.213,1.289-3.543,2.984-3.543c0.742,0,1.471,0.293,2.003,0.967v-3.377h2.143v9.344H71.968z M71.968,127.732v-2.074
		c-0.28-0.363-0.84-0.602-1.303-0.602c-0.854,0-1.485,0.631-1.485,1.639c0,1.01,0.63,1.652,1.485,1.652
		C71.128,128.348,71.688,128.096,71.968,127.732z"/>
	<path fill="#FFFFFF" d="M75.256,121.471c0-0.686,0.546-1.232,1.232-1.232c0.687,0,1.247,0.547,1.247,1.232
		s-0.561,1.246-1.247,1.246C75.802,122.717,75.256,122.156,75.256,121.471z M75.41,130.086v-6.766h2.157v6.766H75.41z"/>
	<path fill="#FFFFFF" d="M78.279,129.203l0.896-1.541c0.504,0.449,1.583,0.91,2.381,0.91c0.645,0,0.911-0.182,0.911-0.477
		c0-0.84-3.936,0.029-3.936-2.717c0-1.191,1.037-2.227,2.899-2.227c1.148,0,2.101,0.363,2.83,0.896l-0.827,1.525
		c-0.406-0.391-1.176-0.742-1.989-0.742c-0.504,0-0.841,0.197-0.841,0.463c0,0.742,3.922-0.027,3.922,2.746
		c0,1.287-1.135,2.213-3.068,2.213C80.241,130.254,78.994,129.848,78.279,129.203z"/>
	<path fill="#FFFFFF" d="M85.798,128.264v-3.08h-1.12v-1.863h1.12v-1.85h2.157v1.85h1.373v1.863h-1.373v2.479
		c0,0.393,0.224,0.686,0.588,0.686c0.238,0,0.477-0.084,0.546-0.168l0.42,1.625c-0.266,0.252-0.798,0.449-1.597,0.449
		C86.541,130.254,85.798,129.566,85.798,128.264z"/>
	<path fill="#FFFFFF" d="M90.109,130.086v-6.766h2.157v0.826c0.448-0.547,1.317-1.01,2.115-1.01v2.074
		c-0.126-0.043-0.308-0.057-0.532-0.057c-0.56,0-1.303,0.238-1.583,0.617v4.314H90.109z"/>
	<path fill="#FFFFFF" d="M94.925,121.471c0-0.686,0.546-1.232,1.232-1.232c0.687,0,1.247,0.547,1.247,1.232
		s-0.561,1.246-1.247,1.246C95.472,122.717,94.925,122.156,94.925,121.471z M95.079,130.086v-6.766h2.157v6.766H95.079z"/>
	<path fill="#FFFFFF" d="M98.088,126.695c0-2.115,1.569-3.543,3.684-3.543c1.471,0,2.367,0.645,2.773,1.246l-1.401,1.303
		c-0.266-0.393-0.7-0.645-1.274-0.645c-0.896,0-1.583,0.617-1.583,1.639c0,1.023,0.687,1.652,1.583,1.652
		c0.574,0,1.008-0.279,1.274-0.658l1.401,1.318c-0.406,0.588-1.303,1.246-2.773,1.246C99.657,130.254,98.088,128.811,98.088,126.695
		z"/>
	<path fill="#FFFFFF" d="M105.691,128.264v-3.08h-1.121v-1.863h1.121v-1.85h2.157v1.85h1.373v1.863h-1.373v2.479
		c0,0.393,0.224,0.686,0.588,0.686c0.238,0,0.477-0.084,0.546-0.168l0.42,1.625c-0.266,0.252-0.799,0.449-1.597,0.449
		C106.434,130.254,105.691,129.566,105.691,128.264z"/>
	<path fill="#FFFFFF" d="M109.429,129.203l0.896-1.541c0.504,0.449,1.583,0.91,2.382,0.91c0.644,0,0.91-0.182,0.91-0.477
		c0-0.84-3.936,0.029-3.936-2.717c0-1.191,1.037-2.227,2.899-2.227c1.149,0,2.102,0.363,2.83,0.896l-0.826,1.525
		c-0.406-0.391-1.177-0.742-1.989-0.742c-0.505,0-0.841,0.197-0.841,0.463c0,0.742,3.922-0.027,3.922,2.746
		c0,1.287-1.134,2.213-3.067,2.213C111.39,130.254,110.143,129.848,109.429,129.203z"/>
	<path fill="#FFFFFF" d="M123.795,130.086v-0.674c-0.42,0.506-1.232,0.842-2.101,0.842c-1.037,0-2.325-0.715-2.325-2.229
		c0-1.639,1.288-2.184,2.325-2.184c0.896,0,1.694,0.293,2.101,0.797v-0.672c0-0.588-0.504-0.994-1.372-0.994
		c-0.673,0-1.345,0.266-1.892,0.729l-0.798-1.498c0.868-0.744,2.03-1.051,3.067-1.051c1.625,0,3.151,0.602,3.151,2.703v4.23H123.795
		z M123.795,128.348v-0.602c-0.224-0.322-0.729-0.477-1.204-0.477c-0.561,0-1.079,0.252-1.079,0.785
		c0,0.531,0.519,0.783,1.079,0.783C123.066,128.838,123.571,128.67,123.795,128.348z"/>
	<path fill="#FFFFFF" d="M127.237,130.086v-9.344h2.157v9.344H127.237z"/>
	<path fill="#FFFFFF" d="M130.681,130.086v-6.766h2.157v0.826c0.448-0.547,1.316-1.01,2.115-1.01v2.074
		c-0.126-0.043-0.308-0.057-0.532-0.057c-0.561,0-1.303,0.238-1.583,0.617v4.314H130.681z"/>
	<path fill="#FFFFFF" d="M135.217,126.695c0-1.961,1.471-3.543,3.586-3.543c2.003,0,3.459,1.471,3.459,3.768v0.49h-4.818
		c0.154,0.602,0.715,1.105,1.695,1.105c0.477,0,1.261-0.209,1.652-0.574l0.938,1.416c-0.672,0.602-1.793,0.896-2.829,0.896
		C136.813,130.254,135.217,128.895,135.217,126.695z M138.803,124.889c-0.938,0-1.303,0.561-1.387,1.051h2.787
		C140.147,125.463,139.797,124.889,138.803,124.889z"/>
	<path fill="#FFFFFF" d="M147.034,130.086v-0.674c-0.42,0.506-1.232,0.842-2.101,0.842c-1.037,0-2.325-0.715-2.325-2.229
		c0-1.639,1.288-2.184,2.325-2.184c0.896,0,1.694,0.293,2.101,0.797v-0.672c0-0.588-0.504-0.994-1.372-0.994
		c-0.673,0-1.345,0.266-1.892,0.729l-0.798-1.498c0.868-0.744,2.03-1.051,3.067-1.051c1.625,0,3.151,0.602,3.151,2.703v4.23H147.034
		z M147.034,128.348v-0.602c-0.224-0.322-0.729-0.477-1.204-0.477c-0.561,0-1.079,0.252-1.079,0.785
		c0,0.531,0.519,0.783,1.079,0.783C146.306,128.838,146.811,128.67,147.034,128.348z"/>
	<path fill="#FFFFFF" d="M155.029,130.086v-0.785c-0.561,0.645-1.247,0.953-2.003,0.953c-1.667,0-2.983-1.262-2.983-3.559
		c0-2.213,1.288-3.543,2.983-3.543c0.742,0,1.471,0.293,2.003,0.967v-3.377h2.144v9.344H155.029z M155.029,127.732v-2.074
		c-0.28-0.363-0.841-0.602-1.303-0.602c-0.854,0-1.484,0.631-1.484,1.639c0,1.01,0.63,1.652,1.484,1.652
		C154.188,128.348,154.749,128.096,155.029,127.732z"/>
	<path fill="#FFFFFF" d="M158.638,130.801c0.154,0.084,0.364,0.125,0.532,0.125c0.49,0,0.799-0.098,0.925-0.379l0.154-0.363
		l-2.703-6.863h2.269l1.541,4.285l1.527-4.285h2.283l-3.054,7.732c-0.547,1.428-1.556,1.75-2.858,1.777
		c-0.195,0-0.7-0.041-0.924-0.111L158.638,130.801z"/>
	<path fill="#FFFFFF" d="M18.151,143.287v3.375h-2.157v-9.342h2.157v0.783c0.532-0.645,1.233-0.951,2.003-0.951
		c1.695,0,2.969,1.26,2.969,3.543c0,2.297-1.274,3.559-2.969,3.559C19.398,144.254,18.712,143.959,18.151,143.287z M20.925,140.695
		c0-1.008-0.644-1.639-1.484-1.639c-0.462,0-1.023,0.252-1.289,0.617v2.059c0.266,0.35,0.827,0.615,1.289,0.615
		C20.281,142.348,20.925,141.719,20.925,140.695z"/>
	<path fill="#FFFFFF" d="M27.953,144.086v-0.674c-0.42,0.506-1.232,0.842-2.101,0.842c-1.037,0-2.325-0.715-2.325-2.229
		c0-1.639,1.289-2.184,2.325-2.184c0.896,0,1.695,0.293,2.101,0.797v-0.672c0-0.588-0.504-0.994-1.373-0.994
		c-0.672,0-1.345,0.266-1.891,0.729l-0.798-1.498c0.869-0.744,2.031-1.051,3.068-1.051c1.625,0,3.151,0.602,3.151,2.703v4.23H27.953
		z M27.953,142.348v-0.602c-0.224-0.322-0.728-0.477-1.205-0.477c-0.56,0-1.079,0.252-1.079,0.785c0,0.531,0.519,0.783,1.079,0.783
		C27.225,142.838,27.729,142.67,27.953,142.348z"/>
	<path fill="#FFFFFF" d="M31.395,144.086v-6.766h2.157v0.826c0.448-0.547,1.317-1.01,2.115-1.01v2.074
		c-0.126-0.043-0.308-0.057-0.532-0.057c-0.56,0-1.303,0.238-1.583,0.617v4.314H31.395z"/>
	<path fill="#FFFFFF" d="M36.812,142.264v-3.08h-1.12v-1.863h1.12v-1.85h2.157v1.85h1.373v1.863H38.97v2.479
		c0,0.393,0.224,0.686,0.588,0.686c0.238,0,0.477-0.084,0.546-0.168l0.42,1.625c-0.266,0.252-0.798,0.449-1.597,0.449
		C37.555,144.254,36.812,143.566,36.812,142.264z"/>
	<path fill="#FFFFFF" d="M40.97,135.471c0-0.686,0.546-1.232,1.232-1.232c0.687,0,1.247,0.547,1.247,1.232s-0.561,1.246-1.247,1.246
		C41.517,136.717,40.97,136.156,40.97,135.471z M41.124,144.086v-6.766h2.157v6.766H41.124z"/>
	<path fill="#FFFFFF" d="M44.134,140.695c0-2.115,1.569-3.543,3.684-3.543c1.471,0,2.367,0.645,2.773,1.246l-1.401,1.303
		c-0.266-0.393-0.7-0.645-1.274-0.645c-0.896,0-1.583,0.617-1.583,1.639c0,1.023,0.687,1.652,1.583,1.652
		c0.574,0,1.008-0.279,1.274-0.658l1.401,1.318c-0.406,0.588-1.303,1.246-2.773,1.246C45.703,144.254,44.134,142.811,44.134,140.695
		z"/>
	<path fill="#FFFFFF" d="M51.134,135.471c0-0.686,0.546-1.232,1.232-1.232c0.687,0,1.247,0.547,1.247,1.232
		s-0.561,1.246-1.247,1.246C51.68,136.717,51.134,136.156,51.134,135.471z M51.288,144.086v-6.766h2.157v6.766H51.288z"/>
	<path fill="#FFFFFF" d="M56.889,143.287v3.375h-2.157v-9.342h2.157v0.783c0.532-0.645,1.233-0.951,2.003-0.951
		c1.695,0,2.969,1.26,2.969,3.543c0,2.297-1.274,3.559-2.969,3.559C58.136,144.254,57.449,143.959,56.889,143.287z M59.662,140.695
		c0-1.008-0.644-1.639-1.484-1.639c-0.462,0-1.023,0.252-1.289,0.617v2.059c0.266,0.35,0.827,0.615,1.289,0.615
		C59.018,142.348,59.662,141.719,59.662,140.695z"/>
	<path fill="#FFFFFF" d="M66.689,144.086v-0.674c-0.42,0.506-1.232,0.842-2.101,0.842c-1.037,0-2.325-0.715-2.325-2.229
		c0-1.639,1.289-2.184,2.325-2.184c0.896,0,1.695,0.293,2.101,0.797v-0.672c0-0.588-0.504-0.994-1.373-0.994
		c-0.672,0-1.345,0.266-1.891,0.729l-0.798-1.498c0.869-0.744,2.031-1.051,3.068-1.051c1.625,0,3.151,0.602,3.151,2.703v4.23H66.689
		z M66.689,142.348v-0.602c-0.224-0.322-0.728-0.477-1.205-0.477c-0.56,0-1.079,0.252-1.079,0.785c0,0.531,0.519,0.783,1.079,0.783
		C65.961,142.838,66.465,142.67,66.689,142.348z"/>
	<path fill="#FFFFFF" d="M70.58,142.264v-3.08h-1.121v-1.863h1.121v-1.85h2.157v1.85h1.373v1.863h-1.373v2.479
		c0,0.393,0.224,0.686,0.588,0.686c0.238,0,0.477-0.084,0.546-0.168l0.42,1.625c-0.266,0.252-0.799,0.449-1.597,0.449
		C71.322,144.254,70.58,143.566,70.58,142.264z"/>
	<path fill="#FFFFFF" d="M74.738,135.471c0-0.686,0.546-1.232,1.232-1.232c0.687,0,1.247,0.547,1.247,1.232
		s-0.561,1.246-1.247,1.246C75.284,136.717,74.738,136.156,74.738,135.471z M74.892,144.086v-6.766h2.157v6.766H74.892z"/>
	<path fill="#FFFFFF" d="M82.916,144.086v-3.908c0-0.826-0.434-1.121-1.106-1.121c-0.645,0-1.064,0.35-1.317,0.658v4.371h-2.157
		v-6.766h2.157v0.826c0.406-0.477,1.205-0.994,2.354-0.994c1.527,0,2.227,0.896,2.227,2.143v4.791H82.916z"/>
	<path fill="#FFFFFF" d="M86.175,145.822l0.938-1.514c0.532,0.561,1.274,0.785,2.059,0.785c0.714,0,1.723-0.309,1.723-1.596v-0.52
		c-0.56,0.672-1.232,0.994-2.003,0.994c-1.653,0-2.97-1.135-2.97-3.418c0-2.227,1.275-3.402,2.97-3.402
		c0.756,0,1.457,0.293,2.003,0.967v-0.799h2.157v6.178c0,2.744-2.199,3.332-3.88,3.332C88.01,146.83,87.043,146.537,86.175,145.822z
		 M90.896,141.467v-1.809c-0.266-0.363-0.84-0.602-1.289-0.602c-0.854,0-1.485,0.518-1.485,1.498c0,0.996,0.63,1.514,1.485,1.514
		C90.055,142.068,90.629,141.83,90.896,141.467z"/>
	<path fill="#FFFFFF" d="M97.487,135.471c0-0.686,0.546-1.232,1.232-1.232c0.687,0,1.247,0.547,1.247,1.232
		s-0.561,1.246-1.247,1.246C98.033,136.717,97.487,136.156,97.487,135.471z M97.641,144.086v-6.766h2.157v6.766H97.641z"/>
	<path fill="#FFFFFF" d="M105.665,144.086v-3.908c0-0.826-0.434-1.121-1.106-1.121c-0.645,0-1.064,0.35-1.317,0.658v4.371h-2.157
		v-6.766h2.157v0.826c0.406-0.477,1.205-0.994,2.354-0.994c1.527,0,2.227,0.896,2.227,2.143v4.791H105.665z"/>
	<path fill="#FFFFFF" d="M112.858,142.264v-3.08h-1.12v-1.863h1.12v-1.85h2.157v1.85h1.373v1.863h-1.373v2.479
		c0,0.393,0.225,0.686,0.589,0.686c0.237,0,0.476-0.084,0.546-0.168l0.42,1.625c-0.266,0.252-0.798,0.449-1.597,0.449
		C113.601,144.254,112.858,143.566,112.858,142.264z"/>
	<path fill="#FFFFFF" d="M121.765,144.086v-3.938c0-0.826-0.435-1.092-1.12-1.092c-0.631,0-1.051,0.35-1.303,0.658v4.371h-2.157
		v-9.344h2.157v3.404c0.406-0.477,1.204-0.994,2.339-0.994c1.541,0,2.241,0.867,2.241,2.115v4.818H121.765z"/>
	<path fill="#FFFFFF" d="M124.772,140.695c0-1.961,1.471-3.543,3.586-3.543c2.003,0,3.46,1.471,3.46,3.768v0.49h-4.819
		c0.154,0.602,0.715,1.105,1.695,1.105c0.477,0,1.261-0.209,1.652-0.574l0.938,1.416c-0.672,0.602-1.793,0.896-2.829,0.896
		C126.369,144.254,124.772,142.895,124.772,140.695z M128.358,138.889c-0.938,0-1.303,0.561-1.387,1.051h2.787
		C129.703,139.463,129.353,138.889,128.358,138.889z"/>
	<path fill="#FFFFFF" d="M135.664,144.086v-1.92l3.979-5.322h-3.979v-2.102h7.158v1.904l-3.992,5.338h4.09v2.102H135.664z"/>
	<path fill="#FFFFFF" d="M143.812,135.471c0-0.686,0.547-1.232,1.233-1.232s1.246,0.547,1.246,1.232s-0.56,1.246-1.246,1.246
		S143.812,136.156,143.812,135.471z M143.966,144.086v-6.766h2.157v6.766H143.966z"/>
	<path fill="#FFFFFF" d="M147.857,142.264v-3.08h-1.12v-1.863h1.12v-1.85h2.157v1.85h1.373v1.863h-1.373v2.479
		c0,0.393,0.225,0.686,0.589,0.686c0.237,0,0.476-0.084,0.546-0.168l0.42,1.625c-0.266,0.252-0.798,0.449-1.597,0.449
		C148.6,144.254,147.857,143.566,147.857,142.264z"/>
	<path fill="#FFFFFF" d="M156.765,144.086v-3.938c0-0.826-0.435-1.092-1.12-1.092c-0.631,0-1.051,0.35-1.303,0.658v4.371h-2.157
		v-9.344h2.157v3.404c0.406-0.477,1.204-0.994,2.339-0.994c1.541,0,2.241,0.867,2.241,2.115v4.818H156.765z"/>
	<path fill="#FFFFFF" d="M160.206,144.086v-6.766h2.157v0.826c0.448-0.547,1.316-1.01,2.115-1.01v2.074
		c-0.126-0.043-0.308-0.057-0.532-0.057c-0.561,0-1.303,0.238-1.583,0.617v4.314H160.206z"/>
	<path fill="#FFFFFF" d="M164.742,140.695c0-1.904,1.372-3.543,3.67-3.543c2.325,0,3.697,1.639,3.697,3.543
		c0,1.906-1.372,3.559-3.697,3.559C166.114,144.254,164.742,142.602,164.742,140.695z M169.896,140.695
		c0-0.896-0.532-1.639-1.484-1.639c-0.925,0-1.457,0.742-1.457,1.639c0,0.91,0.532,1.652,1.457,1.652
		C169.364,142.348,169.896,141.605,169.896,140.695z"/>
	<path fill="#FFFFFF" d="M181.491,144.086v-4.119c0-0.518-0.253-0.91-0.896-0.91c-0.589,0-1.009,0.379-1.219,0.658v4.371h-2.157
		v-4.119c0-0.518-0.238-0.91-0.883-0.91c-0.588,0-0.994,0.379-1.219,0.658v4.371h-2.157v-6.766h2.157v0.826
		c0.294-0.393,1.163-0.994,2.228-0.994c0.98,0,1.639,0.406,1.919,1.203c0.393-0.588,1.274-1.203,2.339-1.203
		c1.247,0,2.031,0.645,2.031,2.031v4.902H181.491z"/>
	<path fill="#FFFFFF" d="M188.922,144.086v-0.674c-0.42,0.506-1.232,0.842-2.101,0.842c-1.037,0-2.325-0.715-2.325-2.229
		c0-1.639,1.288-2.184,2.325-2.184c0.896,0,1.694,0.293,2.101,0.797v-0.672c0-0.588-0.504-0.994-1.372-0.994
		c-0.673,0-1.345,0.266-1.892,0.729l-0.798-1.498c0.868-0.744,2.03-1.051,3.067-1.051c1.625,0,3.151,0.602,3.151,2.703v4.23H188.922
		z M188.922,142.348v-0.602c-0.224-0.322-0.729-0.477-1.204-0.477c-0.561,0-1.079,0.252-1.079,0.785
		c0,0.531,0.519,0.783,1.079,0.783C188.193,142.838,188.698,142.67,188.922,142.348z"/>
	<path fill="#FFFFFF" d="M196.468,144.086l-1.289-2.045l-1.33,2.045h-2.354l2.312-3.475l-2.172-3.291h2.367l1.163,1.834l1.148-1.834
		h2.367l-2.157,3.291l2.312,3.475H196.468z"/>
	<path fill="#FFFFFF" d="M201.927,140.541c-1.639,0-2.97-1.33-2.97-2.969c0-1.652,1.331-2.971,2.97-2.971
		c1.652,0,2.97,1.318,2.97,2.971C204.896,139.211,203.579,140.541,201.927,140.541z M201.927,135.064
		c-1.387,0-2.508,1.107-2.508,2.508c0,1.373,1.121,2.508,2.508,2.508s2.507-1.135,2.507-2.508
		C204.434,136.172,203.313,135.064,201.927,135.064z M202.725,139.281l-0.882-1.346h-0.561v1.346h-0.504v-3.404h1.387
		c0.574,0,1.135,0.406,1.135,1.037c0,0.756-0.673,1.008-0.869,1.008l0.911,1.359H202.725z M202.165,136.297h-0.883v1.205h0.883
		c0.294,0,0.616-0.238,0.616-0.588C202.781,136.535,202.459,136.297,202.165,136.297z"/>
	<path fill="#FFFFFF" d="M20.547,158.086v-0.785c-0.561,0.645-1.247,0.953-2.003,0.953c-1.667,0-2.984-1.262-2.984-3.559
		c0-2.213,1.289-3.543,2.984-3.543c0.742,0,1.471,0.293,2.003,0.967v-3.377h2.143v9.344H20.547z M20.547,155.732v-2.074
		c-0.28-0.363-0.84-0.602-1.303-0.602c-0.854,0-1.485,0.631-1.485,1.639c0,1.01,0.63,1.652,1.485,1.652
		C19.707,156.348,20.267,156.096,20.547,155.732z"/>
	<path fill="#FFFFFF" d="M23.554,154.695c0-1.904,1.373-3.543,3.67-3.543c2.325,0,3.698,1.639,3.698,3.543
		c0,1.906-1.373,3.559-3.698,3.559C24.927,158.254,23.554,156.602,23.554,154.695z M28.709,154.695c0-0.896-0.532-1.639-1.485-1.639
		c-0.924,0-1.457,0.742-1.457,1.639c0,0.91,0.532,1.652,1.457,1.652C28.177,156.348,28.709,155.605,28.709,154.695z"/>
	<path fill="#FFFFFF" d="M36.353,158.086v-3.908c0-0.826-0.434-1.121-1.106-1.121c-0.645,0-1.064,0.35-1.317,0.658v4.371h-2.157
		v-6.766h2.157v0.826c0.406-0.477,1.205-0.994,2.354-0.994c1.527,0,2.227,0.896,2.227,2.143v4.791H36.353z"/>
	<path fill="#FFFFFF" d="M43.786,158.086v-0.674c-0.42,0.506-1.232,0.842-2.101,0.842c-1.037,0-2.325-0.715-2.325-2.229
		c0-1.639,1.289-2.184,2.325-2.184c0.896,0,1.695,0.293,2.101,0.797v-0.672c0-0.588-0.504-0.994-1.373-0.994
		c-0.672,0-1.345,0.266-1.891,0.729l-0.798-1.498c0.869-0.744,2.031-1.051,3.068-1.051c1.625,0,3.151,0.602,3.151,2.703v4.23H43.786
		z M43.786,156.348v-0.602c-0.224-0.322-0.728-0.477-1.205-0.477c-0.56,0-1.079,0.252-1.079,0.785c0,0.531,0.519,0.783,1.079,0.783
		C43.058,156.838,43.562,156.67,43.786,156.348z"/>
	<path fill="#FFFFFF" d="M47.676,156.264v-3.08h-1.12v-1.863h1.12v-1.85h2.157v1.85h1.373v1.863h-1.373v2.479
		c0,0.393,0.224,0.686,0.588,0.686c0.238,0,0.477-0.084,0.546-0.168l0.42,1.625c-0.266,0.252-0.798,0.449-1.597,0.449
		C48.418,158.254,47.676,157.566,47.676,156.264z"/>
	<path fill="#FFFFFF" d="M51.834,149.471c0-0.686,0.546-1.232,1.232-1.232c0.687,0,1.247,0.547,1.247,1.232
		s-0.561,1.246-1.247,1.246C52.38,150.717,51.834,150.156,51.834,149.471z M51.988,158.086v-6.766h2.157v6.766H51.988z"/>
	<path fill="#FFFFFF" d="M54.997,154.695c0-1.904,1.373-3.543,3.67-3.543c2.325,0,3.698,1.639,3.698,3.543
		c0,1.906-1.373,3.559-3.698,3.559C56.37,158.254,54.997,156.602,54.997,154.695z M60.152,154.695c0-0.896-0.532-1.639-1.485-1.639
		c-0.924,0-1.457,0.742-1.457,1.639c0,0.91,0.532,1.652,1.457,1.652C59.62,156.348,60.152,155.605,60.152,154.695z"/>
	<path fill="#FFFFFF" d="M67.796,158.086v-3.908c0-0.826-0.434-1.121-1.106-1.121c-0.645,0-1.064,0.35-1.317,0.658v4.371h-2.157
		v-6.766h2.157v0.826c0.406-0.477,1.205-0.994,2.354-0.994c1.527,0,2.227,0.896,2.227,2.143v4.791H67.796z"/>
	<path fill="#FFFFFF" d="M76.698,157.287v3.375h-2.157v-9.342h2.157v0.783c0.532-0.645,1.233-0.951,2.003-0.951
		c1.695,0,2.969,1.26,2.969,3.543c0,2.297-1.274,3.559-2.969,3.559C77.945,158.254,77.259,157.959,76.698,157.287z M79.472,154.695
		c0-1.008-0.644-1.639-1.484-1.639c-0.462,0-1.023,0.252-1.289,0.617v2.059c0.266,0.35,0.827,0.615,1.289,0.615
		C78.828,156.348,79.472,155.719,79.472,154.695z"/>
	<path fill="#FFFFFF" d="M82.507,158.086v-6.766h2.157v0.826c0.448-0.547,1.317-1.01,2.115-1.01v2.074
		c-0.126-0.043-0.308-0.057-0.532-0.057c-0.56,0-1.303,0.238-1.583,0.617v4.314H82.507z"/>
	<path fill="#FFFFFF" d="M87.042,154.695c0-1.904,1.373-3.543,3.67-3.543c2.325,0,3.698,1.639,3.698,3.543
		c0,1.906-1.373,3.559-3.698,3.559C88.416,158.254,87.042,156.602,87.042,154.695z M92.197,154.695c0-0.896-0.532-1.639-1.485-1.639
		c-0.924,0-1.457,0.742-1.457,1.639c0,0.91,0.532,1.652,1.457,1.652C91.665,156.348,92.197,155.605,92.197,154.695z"/>
	<path fill="#FFFFFF" d="M95.079,159.822l0.938-1.514c0.532,0.561,1.274,0.785,2.059,0.785c0.714,0,1.723-0.309,1.723-1.596v-0.52
		c-0.56,0.672-1.232,0.994-2.003,0.994c-1.653,0-2.97-1.135-2.97-3.418c0-2.227,1.275-3.402,2.97-3.402
		c0.756,0,1.457,0.293,2.003,0.967v-0.799h2.157v6.178c0,2.744-2.199,3.332-3.88,3.332C96.914,160.83,95.947,160.537,95.079,159.822
		z M99.799,155.467v-1.809c-0.266-0.363-0.84-0.602-1.289-0.602c-0.854,0-1.485,0.518-1.485,1.498c0,0.996,0.63,1.514,1.485,1.514
		C98.959,156.068,99.533,155.83,99.799,155.467z"/>
	<path fill="#FFFFFF" d="M103.24,158.086v-6.766h2.157v0.826c0.448-0.547,1.317-1.01,2.115-1.01v2.074
		c-0.126-0.043-0.308-0.057-0.532-0.057c-0.56,0-1.303,0.238-1.583,0.617v4.314H103.24z"/>
	<path fill="#FFFFFF" d="M112.202,158.086v-0.674c-0.42,0.506-1.232,0.842-2.101,0.842c-1.037,0-2.325-0.715-2.325-2.229
		c0-1.639,1.289-2.184,2.325-2.184c0.896,0,1.695,0.293,2.101,0.797v-0.672c0-0.588-0.504-0.994-1.373-0.994
		c-0.672,0-1.345,0.266-1.891,0.729l-0.798-1.498c0.869-0.744,2.031-1.051,3.068-1.051c1.625,0,3.151,0.602,3.151,2.703v4.23
		H112.202z M112.202,156.348v-0.602c-0.224-0.322-0.729-0.477-1.205-0.477c-0.56,0-1.079,0.252-1.079,0.785
		c0,0.531,0.519,0.783,1.079,0.783C111.474,156.838,111.979,156.67,112.202,156.348z"/>
	<path fill="#FFFFFF" d="M124.175,158.086v-4.119c0-0.518-0.253-0.91-0.896-0.91c-0.589,0-1.009,0.379-1.219,0.658v4.371h-2.157
		v-4.119c0-0.518-0.238-0.91-0.883-0.91c-0.588,0-0.994,0.379-1.219,0.658v4.371h-2.157v-6.766h2.157v0.826
		c0.294-0.393,1.163-0.994,2.228-0.994c0.98,0,1.639,0.406,1.919,1.203c0.393-0.588,1.274-1.203,2.339-1.203
		c1.247,0,2.031,0.645,2.031,2.031v4.902H124.175z"/>
	<path fill="#FFFFFF" d="M136.145,158.086v-4.119c0-0.518-0.253-0.91-0.896-0.91c-0.589,0-1.009,0.379-1.219,0.658v4.371h-2.157
		v-4.119c0-0.518-0.238-0.91-0.883-0.91c-0.588,0-0.994,0.379-1.219,0.658v4.371h-2.157v-6.766h2.157v0.826
		c0.294-0.393,1.163-0.994,2.228-0.994c0.98,0,1.639,0.406,1.919,1.203c0.393-0.588,1.274-1.203,2.339-1.203
		c1.247,0,2.031,0.645,2.031,2.031v4.902H136.145z"/>
	<path fill="#FFFFFF" d="M139.15,154.695c0-1.961,1.471-3.543,3.586-3.543c2.003,0,3.459,1.471,3.459,3.768v0.49h-4.818
		c0.154,0.602,0.715,1.105,1.695,1.105c0.477,0,1.261-0.209,1.652-0.574l0.938,1.416c-0.672,0.602-1.793,0.896-2.829,0.896
		C140.747,158.254,139.15,156.895,139.15,154.695z M142.736,152.889c-0.938,0-1.303,0.561-1.387,1.051h2.787
		C144.081,153.463,143.73,152.889,142.736,152.889z"/>
</g>
</svg>
